<?xml version="1.0" encoding="UTF-8" standalone="yes"?>
<svg
  width="1000"
  height="1000"
  viewBox="0 0 1000 1000"
  xmlns="http://www.w3.org/2000/svg"
  aria-labelledby="title"
  role="img"
>
  <title>SU gradient logo</title>
  <defs>
    <linearGradient id="su-bg" x1="0%" y1="0%" x2="100%" y2="100%">
      <stop offset="0%" stop-color="#2647b8"/>
      <stop offset="100%" stop-color="#ff4fa8"/>
    </linearGradient>
  </defs>

  <rect width="1000" height="1000" fill="url(#su-bg)"/>

  <g transform="matrix(11.925 0 0 11.925 -107.91 15180.321)">
    <g fill-opacity=".2">
      <path d="m30.648439-1222.1084q.341797 2.4658 1.342774 3.6865 1.831055 2.2217 6.274414 2.2217 2.661133 0 4.321289-.5859 3.149414-1.1231 3.149414-4.1748 0-1.7823-1.5625-2.7588-1.5625-.9522-4.907227-1.6846l-3.808593-.8545q-5.615235-1.2695-7.763672-2.7588-3.637695-2.4902-3.637695-7.7881 0-4.8339 3.515625-8.0322 3.515625-3.1982 10.327148-3.1982 5.688477 0 9.692383 3.0273 4.02832 3.0029 4.223633 8.7402h-7.226563q-.195312-3.247-2.832031-4.6142-1.757813-.9033-4.370117-.9033-2.905274 0-4.638672 1.1718-1.733399 1.1719-1.733399 3.2715 0 1.9287 1.708985 2.8809 1.098633.6348 4.6875 1.4892l6.201172 1.4893q4.077148.9766 6.152343 2.6123 3.222657 2.5391 3.222657 7.3486 0 4.9317-3.78418 8.2032-3.759766 3.247-10.644531 3.247-7.03125 0-11.059571-3.1982-4.02832-3.2227-4.02832-8.8379z"/>
      <path d="m55.554104-1246.9863h7.641601v22.1191q0 3.7109.878907 5.4199 1.367187 3.0274 5.957031 3.0274 4.56543 0 5.932617-3.0274.878906-1.709.878906-5.4199v-22.1191h7.641602v22.1191q0 5.7373-1.782227 8.9356-3.320312 5.8593-12.670898 5.8593-9.350586 0-12.695313-5.8593-1.782226-3.1983-1.782226-8.9356z"/>
    </g>
    <g fill="#ffd700">
      <path d="m27.648439-1224.1084q.341797 2.4658 1.342774 3.6865 1.831055 2.2217 6.274414 2.2217 2.661133 0 4.321289-.5859 3.149414-1.1231 3.149414-4.1748 0-1.7823-1.5625-2.7588-1.5625-.9522-4.907227-1.6846l-3.808593-.8545q-5.615235-1.2695-7.763672-2.7588-3.637695-2.4902-3.637695-7.7881 0-4.8339 3.515625-8.0322 3.515625-3.1982 10.327148-3.1982 5.688477 0 9.692383 3.0273 4.02832 3.0029 4.223633 8.7402h-7.226563q-.195312-3.247-2.832031-4.6142-1.757813-.9033-4.370117-.9033-2.905274 0-4.638672 1.1718-1.733399 1.1719-1.733399 3.2715 0 1.9287 1.708985 2.8809 1.098633.6348 4.6875 1.4892l6.201172 1.4893q4.077148.9766 6.152343 2.6123 3.222657 2.5391 3.222657 7.3486 0 4.9317-3.78418 8.2032-3.759766 3.247-10.644531 3.247-7.03125 0-11.059571-3.1982-4.02832-3.2227-4.02832-8.8379z"/>
      <path d="m52.554104-1248.9863h7.641601v22.1191q0 3.7109.878907 5.4199 1.367187 3.0274 5.957031 3.0274 4.56543 0 5.932617-3.0274.878906-1.709.878906-5.4199v-22.1191h7.641602v22.1191q0 5.7373-1.782227 8.9356-3.320312 5.8593-12.670898 5.8593-9.350586 0-12.695313-5.8593-1.782226-3.1983-1.782226-8.9356z"/>
    </g>
  </g>
</svg>
