<svg height="16.298128mm" viewBox="0 0 467.94967 0" width="119.34769mm" xmlns="http://www.w3.org/2000/svg" xmlns:xlink="http://www.w3.org/1999/xlink"><filter id="a" color-interpolation-filters="sRGB"><feFlood flood-opacity=".070588" result="flood"/><feComposite in="flood" in2="SourceGraphic" operator="in" result="composite1"/><feGaussianBlur in="composite1" result="blur" stdDeviation="0"/><feOffset dx="4" dy="4" result="offset"/><feComposite in="SourceGraphic" in2="offset" operator="over" result="composite2"/></filter><g fill="#fdd900"><path d="m-671.62311-199.54294h-9.5q-.0625 4.125 1.5 7.125 1.5625 3 4.1875 4.9375 2.6875 1.9375 6.125 2.8125 3.5.9375 7.1875.9375 4.5625 0 8-1.0625 3.5-1.0625 5.8125-2.9375 2.375-1.9375 3.5625-4.5625 1.1875-2.625 1.1875-5.6875 0-3.75-1.625-6.125-1.5625-2.4375-3.75-3.875-2.1875-1.4375-4.4375-2.0625-2.1875-.6875-3.4375-.9375-4.1875-1.0625-6.8125-1.75-2.5625-.6875-4.0625-1.375-1.4375-.6875-1.9375-1.5-.5-.8125-.5-2.125 0-1.4375.625-2.375.625-.9375 1.5625-1.5625 1-.625 2.1875-.875 1.1875-.25 2.375-.25 1.8125 0 3.3125.3125 1.5625.3125 2.75 1.0625 1.1875.75 1.875 2.0625.75 1.3125.875 3.3125h9.5q0-3.875-1.5-6.5625-1.4375-2.75-3.9375-4.5-2.5-1.75-5.75-2.5-3.1875-.8125-6.6875-.8125-3 0-6 .8125-3 .8125-5.375 2.5-2.375 1.6875-3.875 4.25-1.4375 2.5-1.4375 5.9375 0 3.0625 1.125 5.25 1.1875 2.125 3.0625 3.5625 1.875 1.4375 4.25 2.375 2.375.875 4.875 1.5 2.4375.6875 4.8125 1.25 2.375.5625 4.25 1.3125 1.875.75 3 1.875 1.1875 1.125 1.1875 2.9375 0 1.6875-.875 2.8125-.875 1.0625-2.1875 1.6875-1.3125.625-2.8125.875-1.5.1875-2.8125.1875-1.9375 0-3.75-.4375-1.8125-.5-3.1875-1.4375-1.3125-1-2.125-2.5625-.8125-1.5625-.8125-3.8125z" filter="url(#a)" transform="matrix(.91115818 0 0 .96611075 624.03584 227.42169)"/><path d="m-600.90826-201.60544v-27.75h-9.8125v27.75q0 5-2 7.375-2 2.3125-7.25 2.3125-3 0-4.8125-.8125-1.75-.875-2.75-2.1875-1-1.375-1.3125-3.125-.3125-1.75-.3125-3.5625v-27.75h-9.8125v27.75q0 9.125 4.9375 13.5 5 4.375 14.0625 4.375 8.9375 0 14-4.375 5.0625-4.4375 5.0625-13.5z" filter="url(#a)" transform="matrix(.91115818 0 0 .96611075 624.03584 227.42169)"/><path d="m-570.37506-199.54294h-9.5q-.0625 4.125 1.5 7.125 1.5625 3 4.1875 4.9375 2.6875 1.9375 6.125 2.8125 3.5.9375 7.1875.9375 4.5625 0 8-1.0625 3.5-1.0625 5.8125-2.9375 2.375-1.9375 3.5625-4.5625 1.1875-2.625 1.1875-5.6875 0-3.75-1.625-6.125-1.5625-2.4375-3.75-3.875-2.1875-1.4375-4.4375-2.0625-2.1875-.6875-3.4375-.9375-4.1875-1.0625-6.8125-1.75-2.5625-.6875-4.0625-1.375-1.4375-.6875-1.9375-1.5-.5-.8125-.5-2.125 0-1.4375.625-2.375.625-.9375 1.5625-1.5625 1-.625 2.1875-.875 1.1875-.25 2.375-.25 1.8125 0 3.3125.3125 1.5625.3125 2.75 1.0625 1.1875.75 1.875 2.0625.75 1.3125.875 3.3125h9.5q0-3.875-1.5-6.5625-1.4375-2.75-3.9375-4.5-2.5-1.75-5.75-2.5-3.1875-.8125-6.6875-.8125-3 0-6 .8125-3 .8125-5.375 2.5-2.375 1.6875-3.875 4.25-1.4375 2.5-1.4375 5.9375 0 3.0625 1.125 5.25 1.1875 2.125 3.0625 3.5625 1.875 1.4375 4.25 2.375 2.375.875 4.875 1.5 2.4375.6875 4.8125 1.25 2.375.5625 4.25 1.3125 1.875.75 3 1.875 1.1875 1.125 1.1875 2.9375 0 1.6875-.875 2.8125-.875 1.0625-2.1875 1.6875-1.3125.625-2.8125.875-1.5.1875-2.8125.1875-1.9375 0-3.75-.4375-1.8125-.5-3.1875-1.4375-1.3125-1-2.125-2.5625-.8125-1.5625-.8125-3.8125z" filter="url(#a)" transform="matrix(.91115818 0 0 .96611075 624.03584 227.42169)"/><path d="m-508.16022-196.60544q1.25-1.6875 2-4.1875.75-2.5.75-6.0625 0-2.9375-.6875-5.6875-.625-2.75-2.0625-4.875-1.4375-2.1875-3.75-3.4375-2.3125-1.3125-5.625-1.3125-3.3125 0-5.625 1.3125-2.3125 1.25-3.75 3.4375-1.4375 2.125-2.125 4.875-.625 2.75-.625 5.6875 0 2.8125.625 5.5.6875 2.625 2.125 4.75 1.4375 2.125 3.75 3.4375 2.3125 1.25 5.625 1.25 1.5625 0 2.375-.125.8125-.125 1.5625-.5l-4.1875-3.8125 4.5625-4.875zm1.4375 10.3125q-4.4375 2.5625-10.8125 2.5625-5.125 0-9.25-1.75-4.0625-1.8125-6.875-4.9375-2.8125-3.125-4.3125-7.3125-1.5-4.25-1.5-9.125 0-5 1.5-9.25 1.5-4.3125 4.3125-7.5 2.8125-3.1875 6.875-5 4.125-1.8125 9.25-1.8125 5.1875 0 9.25 1.8125 4.0625 1.8125 6.875 5 2.8125 3.1875 4.3125 7.5 1.5 4.25 1.5 9.25 0 4.875-1.5 9.0625-1.5 4.1875-4.3125 7.375l5.5625 5.0625-4.5625 4.75z" filter="url(#a)" transform="matrix(.91115818 0 0 .96611075 624.03584 227.42169)"/><path d="m-452.1983-201.60544v-27.75h-9.8125v27.75q0 5-2 7.375-2 2.3125-7.25 2.3125-3 0-4.8125-.8125-1.75-.875-2.75-2.1875-1-1.375-1.3125-3.125-.3125-1.75-.3125-3.5625v-27.75h-9.8125v27.75q0 9.125 4.9375 13.5 5 4.375 14.0625 4.375 8.9375 0 14-4.375 5.0625-4.4375 5.0625-13.5z" filter="url(#a)" transform="matrix(.91115818 0 0 .96611075 624.03584 227.42169)"/><path d="m-433.43658-201.98044 5.8125-16.375h.125l5.625 16.375zm.9375-27.375-16.875 44.625h9.875l3.5-9.9375h16.6875l3.375 9.9375h10.1875l-16.6875-44.625z" filter="url(#a)" transform="matrix(.91115818 0 0 .96611075 624.03584 227.42169)"/><path d="m-393.0274-209.16794v-12.5625h10.75q3.375 0 5.0625 1.5 1.6875 1.4375 1.6875 4.6875 0 3.375-1.6875 4.875-1.6875 1.5-5.0625 1.5zm-9.8125-20.1875v44.625h9.8125v-17.4375h9.8125q3.6875 0 5.3125 1.625 1.625 1.625 2.125 5.125.375 2.6875.5625 5.625.1875 2.9375 1 5.0625h9.8125q-.6875-.9375-1.0625-2.25-.3125-1.375-.5-2.875-.125-1.5-.1875-2.9375-.0625-1.4375-.125-2.5-.125-1.6875-.5-3.375-.3125-1.6875-1.0625-3.0625-.75-1.4375-1.9375-2.4375-1.1875-1.0625-3-1.5625v-.125q3.75-1.5 5.375-4.375 1.6875-2.875 1.6875-6.8125 0-2.5625-.9375-4.75-.875-2.25-2.625-3.9375-1.6875-1.6875-4.125-2.625-2.375-1-5.375-1z" filter="url(#a)" transform="matrix(.91115818 0 0 .96611075 624.03584 227.42169)"/><path d="m-358.79596-229.35544v44.625h33.875v-8.25h-24.0625v-10.9375h21.625v-7.625h-21.625v-9.5625h23.5625v-8.25z" filter="url(#a)" transform="matrix(.91115818 0 0 .96611075 624.03584 227.42169)"/><path d="m-312.70319-199.54294h-9.5q-.0625 4.125 1.5 7.125 1.5625 3 4.1875 4.9375 2.6875 1.9375 6.125 2.8125 3.5.9375 7.1875.9375 4.5625 0 8-1.0625 3.5-1.0625 5.8125-2.9375 2.375-1.9375 3.5625-4.5625 1.1875-2.625 1.1875-5.6875 0-3.75-1.625-6.125-1.5625-2.4375-3.75-3.875-2.1875-1.4375-4.4375-2.0625-2.1875-.6875-3.4375-.9375-4.1875-1.0625-6.8125-1.75-2.5625-.6875-4.0625-1.375-1.4375-.6875-1.9375-1.5-.5-.8125-.5-2.125 0-1.4375.625-2.375.625-.9375 1.5625-1.5625 1-.625 2.1875-.875 1.1875-.25 2.375-.25 1.8125 0 3.3125.3125 1.5625.3125 2.75 1.0625 1.1875.75 1.875 2.0625.75 1.3125.875 3.3125h9.5q0-3.875-1.5-6.5625-1.4375-2.75-3.9375-4.5-2.5-1.75-5.75-2.5-3.1875-.8125-6.6875-.8125-3 0-6 .8125-3 .8125-5.375 2.5-2.375 1.6875-3.875 4.25-1.4375 2.5-1.4375 5.9375 0 3.0625 1.125 5.25 1.1875 2.125 3.0625 3.5625 1.875 1.4375 4.25 2.375 2.375.875 4.875 1.5 2.4375.6875 4.8125 1.25 2.375.5625 4.25 1.3125 1.875.75 3 1.875 1.1875 1.125 1.1875 2.9375 0 1.6875-.875 2.8125-.875 1.0625-2.1875 1.6875-1.3125.625-2.8125.875-1.5.1875-2.8125.1875-1.9375 0-3.75-.4375-1.8125-.5-3.1875-1.4375-1.3125-1-2.125-2.5625-.8125-1.5625-.8125-3.8125z" filter="url(#a)" transform="matrix(.91115818 0 0 .96611075 624.03584 227.42169)"/><path d="m-259.30084-224.35544v-5h-21v5h7.3125v20.75h6.375v-20.75zm33.125 20.75v-25.75h-8.4375l-6.4375 16.9375-6.4375-16.9375h-8.5v25.75h6v-18.25h.125l6.625 18.25h4.3125l6.625-18.25h.125v18.25z" filter="url(#a)" transform="matrix(.91115818 0 0 .96611075 624.03584 227.42169)"/></g></svg>