<svg height="702pt" preserveAspectRatio="xMidYMid meet" viewBox="0 0 800 702" width="800pt" xmlns="http://www.w3.org/2000/svg"><g transform="matrix(.1 0 0 -.1 0 702)"><path d="m650 6723c-47-8-145-43-184-66-96-59-180-170-222-297-18-52-19-123-22-1346l-2-1292 37-5c54-7 742 0 776 8l27 7v844c0 539 4 844 10 844 5 0 67-51 137-112 331-291 845-751 998-894 173-161 363-330 445-395 187-150 448-263 681-296 90-13 2932-10 2936 3 2 6-94 94-214 196s-306 261-413 353c-107 93-215 178-240 189-44 21-56 21-875 23-456 1-855 5-885 8-124 12-227 61-437 210-192 136-327 247-558 460-115 106-327 295-470 420-143 126-406 362-585 525-561 513-609 552-728 590-62 19-164 31-212 23z"/><path d="m4597 6656c-49-18-59-27-125-116-67-89-49-65-175-227-56-72-124-161-152-198-27-37-61-81-75-98-14-18-38-51-53-74l-27-43h690 690v-525c0-500 1-528 19-564 21-40 83-98 331-310 224-191 330-283 360-311 31-28 96-83 155-130l40-32 5 934c3 513 6 934 8 936 1 1 232 2 512 2 429 0 516 2 539 15 28 14 60 48 91 95 8 13 26 37 40 54s46 58 70 91c55 73 40 53 161 210 55 72 108 139 117 150s36 48 59 81l42 61-52 7c-29 3-767 6-1642 5-1304 0-1597-2-1628-13z"/><path d="m2906 6644c-3-9-6-270-6-580 0-456 3-571 14-597 8-20 88-104 197-207 312-295 395-350 541-358l78-5v882 881h-409c-364 0-410-2-415-16z"/><path d="m5285 3163c-143-26-258-82-359-172-47-43-177-216-415-551-96-135-231-324-300-420-223-312-244-343-235-356 157-212 215-395 210-664-6-295-97-518-291-717l-100-103 65-1c90-2 111 1 142 17 14 7 66 71 115 141 49 71 163 232 253 358 182 256 316 445 368 520 77 110 383 540 500 703 68 94 127 172 131 172s59-75 121-167c63-93 141-208 175-258 34-49 110-162 170-250 59-88 155-229 212-312l104-153h-593c-568 0-594-1-625-19-31-19-44-35-175-216-36-49-111-153-167-230-126-173-201-282-201-292 0-4 765-8 1700-8 969 0 1700 4 1700 9 0 10-109 174-247 372-54 77-177 254-273 393-96 138-207 298-246 354-112 161-480 693-579 838-49 72-135 196-190 275s-125 180-155 224c-86 127-162 232-200 279-84 104-245 200-381 226-65 12-189 16-234 8z"/><path d="m804 3106c-19-9-76-71-160-177-71-90-174-219-229-286-106-130-218-273-223-285-2-5 560-8 1250-8 741 0 1287-4 1337-10 46-5 108-16 137-25 46-13 57-22 79-59 18-31 25-57 25-95 0-101-44-150-154-170-41-8-468-11-1363-11h-1303v-901-900l1398 4c1415 4 1516 7 1682 43 190 41 370 134 483 250 105 107 153 209 182 386 55 341-45 609-283 757-91 57-108 71-96 79 36 23 107 86 162 141 68 70 129 180 153 281 22 86 16 307-9 402-75 278-302 466-666 553-177 42-257 45-1340 45-836-1-1037-3-1062-14zm2086-1787c74-20 105-43 130-93 26-54 25-105-1-166-18-43-29-53-78-77l-56-28-855-3c-470-2-870 0-889 3l-34 6 6 162c3 89 8 172 12 184 5 16 17 23 44 26 20 2 403 3 851 2 688-1 824-4 870-16z"/></g></svg>