<svg width="800" height="1000" version="1.1" xmlns="http://www.w3.org/2000/svg" xmlns:xlink="http://www.w3.org/1999/xlink">
  <defs>
      <linearGradient id="Gradient2" x1="0" x2="1" y1="0" y2="1">
        <stop offset="0%" stop-color="#2d3c96"/>
        <stop offset="100%" stop-color="#d53392"/>
      </linearGradient>
  </defs>
  <rect x="10" y="10" width="780" height="980" fill="url(#Gradient2)" rx="50" ry="50" stroke="#ffd700" stroke-width="20"/>
  <text x="400" y="920" width="780" text-anchor="middle" style="font: bold 200px 'Helvetica Neue'; fill: #ffd700">00006</text>

  <g transform="translate(80 80) scale(64)">
<rect x="0" y="0" width="1" height="1" fill="#feffff" />
,<rect x="0" y="1" width="1" height="1" fill="#ffffff" />
,<rect x="0" y="2" width="1" height="1" fill="#fefefe" />
,<rect x="0" y="3" width="1" height="1" fill="#fffeff" />
,<rect x="0" y="4" width="1" height="1" fill="#fefefe" />
,<rect x="0" y="5" width="1" height="1" fill="#fffffe" />
,<rect x="0" y="6" width="1" height="1" fill="#fffefe" />
,<rect x="0" y="7" width="1" height="1" fill="#fffefe" />
,<rect x="0" y="8" width="1" height="1" fill="#fffeff" />
,<rect x="0" y="9" width="1" height="1" fill="#b6cbce" />
,<rect x="1" y="0" width="1" height="1" fill="#ffffff" />
,<rect x="1" y="1" width="1" height="1" fill="#fffeff" />
,<rect x="1" y="2" width="1" height="1" fill="#fffeff" />
,<rect x="1" y="3" width="1" height="1" fill="#fefefe" />
,<rect x="1" y="4" width="1" height="1" fill="#fffefe" />
,<rect x="1" y="5" width="1" height="1" fill="#fdfdfc" />
,<rect x="1" y="6" width="1" height="1" fill="#fcfeff" />
,<rect x="1" y="7" width="1" height="1" fill="#bccbce" />
,<rect x="1" y="8" width="1" height="1" fill="#72888a" />
,<rect x="1" y="9" width="1" height="1" fill="#1d3a47" />
,<rect x="2" y="0" width="1" height="1" fill="#fffeff" />
,<rect x="2" y="1" width="1" height="1" fill="#fffeff" />
,<rect x="2" y="2" width="1" height="1" fill="#feffff" />
,<rect x="2" y="3" width="1" height="1" fill="#fffeff" />
,<rect x="2" y="4" width="1" height="1" fill="#fffefe" />
,<rect x="2" y="5" width="1" height="1" fill="#fdfcfc" />
,<rect x="2" y="6" width="1" height="1" fill="#fefdfc" />
,<rect x="2" y="7" width="1" height="1" fill="#788e93" />
,<rect x="2" y="8" width="1" height="1" fill="#013548" />
,<rect x="2" y="9" width="1" height="1" fill="#418f91" />
,<rect x="3" y="0" width="1" height="1" fill="#fffffe" />
,<rect x="3" y="1" width="1" height="1" fill="#ffffff" />
,<rect x="3" y="2" width="1" height="1" fill="#ffffff" />
,<rect x="3" y="3" width="1" height="1" fill="#fefffe" />
,<rect x="3" y="4" width="1" height="1" fill="#feffff" />
,<rect x="3" y="5" width="1" height="1" fill="#fdfcfc" />
,<rect x="3" y="6" width="1" height="1" fill="#fffefe" />
,<rect x="3" y="7" width="1" height="1" fill="#7a939a" />
,<rect x="3" y="8" width="1" height="1" fill="#2c807c" />
,<rect x="3" y="9" width="1" height="1" fill="#94ffff" />
,<rect x="4" y="0" width="1" height="1" fill="#ffffff" />
,<rect x="4" y="1" width="1" height="1" fill="#fffeff" />
,<rect x="4" y="2" width="1" height="1" fill="#feffff" />
,<rect x="4" y="3" width="1" height="1" fill="#fffffe" />
,<rect x="4" y="4" width="1" height="1" fill="#fdfdfd" />
,<rect x="4" y="5" width="1" height="1" fill="#fdfdfd" />
,<rect x="4" y="6" width="1" height="1" fill="#b9cdcf" />
,<rect x="4" y="7" width="1" height="1" fill="#1b3140" />
,<rect x="4" y="8" width="1" height="1" fill="#3d7d65" />
,<rect x="4" y="9" width="1" height="1" fill="#9bfddf" />
,<rect x="5" y="0" width="1" height="1" fill="#fefefe" />
,<rect x="5" y="1" width="1" height="1" fill="#fefefe" />
,<rect x="5" y="2" width="1" height="1" fill="#fefeff" />
,<rect x="5" y="3" width="1" height="1" fill="#fffeff" />
,<rect x="5" y="4" width="1" height="1" fill="#fcfcfc" />
,<rect x="5" y="5" width="1" height="1" fill="#fefefe" />
,<rect x="5" y="6" width="1" height="1" fill="#8096a1" />
,<rect x="5" y="7" width="1" height="1" fill="#13463d" />
,<rect x="5" y="8" width="1" height="1" fill="#72d7cd" />
,<rect x="5" y="9" width="1" height="1" fill="#87eedf" />
,<rect x="6" y="0" width="1" height="1" fill="#fffeff" />
,<rect x="6" y="1" width="1" height="1" fill="#fefeff" />
,<rect x="6" y="2" width="1" height="1" fill="#fffffe" />
,<rect x="6" y="3" width="1" height="1" fill="#fefefe" />
,<rect x="6" y="4" width="1" height="1" fill="#fbfbfd" />
,<rect x="6" y="5" width="1" height="1" fill="#fffeff" />
,<rect x="6" y="6" width="1" height="1" fill="#7e96a1" />
,<rect x="6" y="7" width="1" height="1" fill="#337c6a" />
,<rect x="6" y="8" width="1" height="1" fill="#aeffef" />
,<rect x="6" y="9" width="1" height="1" fill="#7af3ee" />
,<rect x="7" y="0" width="1" height="1" fill="#feffff" />
,<rect x="7" y="1" width="1" height="1" fill="#fefffe" />
,<rect x="7" y="2" width="1" height="1" fill="#fefeff" />
,<rect x="7" y="3" width="1" height="1" fill="#fcfdfd" />
,<rect x="7" y="4" width="1" height="1" fill="#fffeff" />
,<rect x="7" y="5" width="1" height="1" fill="#afc3c6" />
,<rect x="7" y="6" width="1" height="1" fill="#0f323d" />
,<rect x="7" y="7" width="1" height="1" fill="#023439" />
,<rect x="7" y="8" width="1" height="1" fill="#1f554a" />
,<rect x="7" y="9" width="1" height="1" fill="#1f6063" />
,<rect x="8" y="0" width="1" height="1" fill="#fefeff" />
,<rect x="8" y="1" width="1" height="1" fill="#fffefe" />
,<rect x="8" y="2" width="1" height="1" fill="#fdfcfc" />
,<rect x="8" y="3" width="1" height="1" fill="#fdfefe" />
,<rect x="8" y="4" width="1" height="1" fill="#a5b9bc" />
,<rect x="8" y="5" width="1" height="1" fill="#245d6e" />
,<rect x="8" y="6" width="1" height="1" fill="#6cafcf" />
,<rect x="8" y="7" width="1" height="1" fill="#66a8cb" />
,<rect x="8" y="8" width="1" height="1" fill="#296078" />
,<rect x="8" y="9" width="1" height="1" fill="#506e7d" />
,<rect x="9" y="0" width="1" height="1" fill="#fefeff" />
,<rect x="9" y="1" width="1" height="1" fill="#fdfdfd" />
,<rect x="9" y="2" width="1" height="1" fill="#fafdfd" />
,<rect x="9" y="3" width="1" height="1" fill="#a6bcbf" />
,<rect x="9" y="4" width="1" height="1" fill="#2d5b67" />
,<rect x="9" y="5" width="1" height="1" fill="#8bc0e1" />
,<rect x="9" y="6" width="1" height="1" fill="#8cd6ff" />
,<rect x="9" y="7" width="1" height="1" fill="#88d5ff" />
,<rect x="9" y="8" width="1" height="1" fill="#8cd4fe" />
,<rect x="9" y="9" width="1" height="1" fill="#6cb2d7" />

  </g>
</svg>