<svg width="800" height="1000" version="1.1" xmlns="http://www.w3.org/2000/svg" xmlns:xlink="http://www.w3.org/1999/xlink">
  <defs>
      <linearGradient id="Gradient2" x1="0" x2="1" y1="0" y2="1">
        <stop offset="0%" stop-color="#2d3c96"/>
        <stop offset="100%" stop-color="#d53392"/>
      </linearGradient>
  </defs>
  <rect x="10" y="10" width="780" height="980" fill="url(#Gradient2)" rx="50" ry="50" stroke="#ffd700" stroke-width="20"/>
  <text x="400" y="920" width="780" text-anchor="middle" style="font: bold 200px 'Helvetica Neue'; fill: #ffd700">00043</text>

  <g transform="translate(80 80) scale(64)">
<rect x="0" y="0" width="1" height="1" fill="#f7f8fa" />
,<rect x="0" y="1" width="1" height="1" fill="#f6f8fa" />
,<rect x="0" y="2" width="1" height="1" fill="#f4f7fa" />
,<rect x="0" y="3" width="1" height="1" fill="#f4f7fa" />
,<rect x="0" y="4" width="1" height="1" fill="#f4f7fa" />
,<rect x="0" y="5" width="1" height="1" fill="#f4f7fa" />
,<rect x="0" y="6" width="1" height="1" fill="#f4f7fa" />
,<rect x="0" y="7" width="1" height="1" fill="#f4f7fa" />
,<rect x="0" y="8" width="1" height="1" fill="#f7f8fa" />
,<rect x="0" y="9" width="1" height="1" fill="#000000" />
,<rect x="1" y="0" width="1" height="1" fill="#f7f8fa" />
,<rect x="1" y="1" width="1" height="1" fill="#e0eff8" />
,<rect x="1" y="2" width="1" height="1" fill="#bbe0fb" />
,<rect x="1" y="3" width="1" height="1" fill="#bde1fc" />
,<rect x="1" y="4" width="1" height="1" fill="#bde1fc" />
,<rect x="1" y="5" width="1" height="1" fill="#bde1fc" />
,<rect x="1" y="6" width="1" height="1" fill="#bde1fc" />
,<rect x="1" y="7" width="1" height="1" fill="#bde1fc" />
,<rect x="1" y="8" width="1" height="1" fill="#e9f3fa" />
,<rect x="1" y="9" width="1" height="1" fill="#000000" />
,<rect x="2" y="0" width="1" height="1" fill="#f3f6fa" />
,<rect x="2" y="1" width="1" height="1" fill="#88caed" />
,<rect x="2" y="2" width="1" height="1" fill="#53b5f3" />
,<rect x="2" y="3" width="1" height="1" fill="#60beff" />
,<rect x="2" y="4" width="1" height="1" fill="#60beff" />
,<rect x="2" y="5" width="1" height="1" fill="#60beff" />
,<rect x="2" y="6" width="1" height="1" fill="#60beff" />
,<rect x="2" y="7" width="1" height="1" fill="#60beff" />
,<rect x="2" y="8" width="1" height="1" fill="#a0d6fd" />
,<rect x="2" y="9" width="1" height="1" fill="#000000" />
,<rect x="3" y="0" width="1" height="1" fill="#d1e8f6" />
,<rect x="3" y="1" width="1" height="1" fill="#45ade6" />
,<rect x="3" y="2" width="1" height="1" fill="#43ade7" />
,<rect x="3" y="3" width="1" height="1" fill="#5ab6f9" />
,<rect x="3" y="4" width="1" height="1" fill="#59b1f8" />
,<rect x="3" y="5" width="1" height="1" fill="#59b1f8" />
,<rect x="3" y="6" width="1" height="1" fill="#5bb5f9" />
,<rect x="3" y="7" width="1" height="1" fill="#5cbbfc" />
,<rect x="3" y="8" width="1" height="1" fill="#5dbbfc" />
,<rect x="3" y="9" width="1" height="1" fill="#000000" />
,<rect x="4" y="0" width="1" height="1" fill="#b7ddf3" />
,<rect x="4" y="1" width="1" height="1" fill="#3ca9e5" />
,<rect x="4" y="2" width="1" height="1" fill="#3ca9e5" />
,<rect x="4" y="3" width="1" height="1" fill="#449fe4" />
,<rect x="4" y="4" width="1" height="1" fill="#3b76d6" />
,<rect x="4" y="5" width="1" height="1" fill="#3b75d6" />
,<rect x="4" y="6" width="1" height="1" fill="#4080da" />
,<rect x="4" y="7" width="1" height="1" fill="#4aaceb" />
,<rect x="4" y="8" width="1" height="1" fill="#4db2ed" />
,<rect x="4" y="9" width="1" height="1" fill="#000000" />
,<rect x="5" y="0" width="1" height="1" fill="#ebf3f9" />
,<rect x="5" y="1" width="1" height="1" fill="#60b8e9" />
,<rect x="5" y="2" width="1" height="1" fill="#3ca9e5" />
,<rect x="5" y="3" width="1" height="1" fill="#3da5e3" />
,<rect x="5" y="4" width="1" height="1" fill="#306acc" />
,<rect x="5" y="5" width="1" height="1" fill="#2853c3" />
,<rect x="5" y="6" width="1" height="1" fill="#2954c3" />
,<rect x="5" y="7" width="1" height="1" fill="#3b8cd9" />
,<rect x="5" y="8" width="1" height="1" fill="#65bae9" />
,<rect x="5" y="9" width="1" height="1" fill="#000000" />
,<rect x="6" y="0" width="1" height="1" fill="#f7f8fa" />
,<rect x="6" y="1" width="1" height="1" fill="#add1ee" />
,<rect x="6" y="2" width="1" height="1" fill="#3ea8e4" />
,<rect x="6" y="3" width="1" height="1" fill="#3ca9e5" />
,<rect x="6" y="4" width="1" height="1" fill="#3a97de" />
,<rect x="6" y="5" width="1" height="1" fill="#2b59c5" />
,<rect x="6" y="6" width="1" height="1" fill="#2853c3" />
,<rect x="6" y="7" width="1" height="1" fill="#2d63c9" />
,<rect x="6" y="8" width="1" height="1" fill="#a6ceee" />
,<rect x="6" y="9" width="1" height="1" fill="#000000" />
,<rect x="7" y="0" width="1" height="1" fill="#f3f5f9" />
,<rect x="7" y="1" width="1" height="1" fill="#8da4de" />
,<rect x="7" y="2" width="1" height="1" fill="#3a8fda" />
,<rect x="7" y="3" width="1" height="1" fill="#3ca9e5" />
,<rect x="7" y="4" width="1" height="1" fill="#3ca9e5" />
,<rect x="7" y="5" width="1" height="1" fill="#3575d0" />
,<rect x="7" y="6" width="1" height="1" fill="#2853c3" />
,<rect x="7" y="7" width="1" height="1" fill="#2853c3" />
,<rect x="7" y="8" width="1" height="1" fill="#87a1dd" />
,<rect x="7" y="9" width="1" height="1" fill="#000000" />
,<rect x="8" y="0" width="1" height="1" fill="#c9d3ee" />
,<rect x="8" y="1" width="1" height="1" fill="#3b63c8" />
,<rect x="8" y="2" width="1" height="1" fill="#2f65ca" />
,<rect x="8" y="3" width="1" height="1" fill="#3ea5e3" />
,<rect x="8" y="4" width="1" height="1" fill="#3ca9e5" />
,<rect x="8" y="5" width="1" height="1" fill="#3b9ce0" />
,<rect x="8" y="6" width="1" height="1" fill="#2e60c8" />
,<rect x="8" y="7" width="1" height="1" fill="#2853c3" />
,<rect x="8" y="8" width="1" height="1" fill="#3b62c8" />
,<rect x="8" y="9" width="1" height="1" fill="#000000" />
,<rect x="9" y="0" width="1" height="1" fill="#9aacd7" />
,<rect x="9" y="1" width="1" height="1" fill="#2149ab" />
,<rect x="9" y="2" width="1" height="1" fill="#224bab" />
,<rect x="9" y="3" width="1" height="1" fill="#2865b5" />
,<rect x="9" y="4" width="1" height="1" fill="#296bb8" />
,<rect x="9" y="5" width="1" height="1" fill="#296bb8" />
,<rect x="9" y="6" width="1" height="1" fill="#2757b3" />
,<rect x="9" y="7" width="1" height="1" fill="#2853c3" />
,<rect x="9" y="8" width="1" height="1" fill="#2853c3" />
,<rect x="9" y="9" width="1" height="1" fill="#000000" />

  </g>
</svg>