<svg width="800" height="1000" version="1.1" xmlns="http://www.w3.org/2000/svg" xmlns:xlink="http://www.w3.org/1999/xlink">
  <defs>
      <linearGradient id="Gradient2" x1="0" x2="1" y1="0" y2="1">
        <stop offset="0%" stop-color="#2d3c96"/>
        <stop offset="100%" stop-color="#d53392"/>
      </linearGradient>
  </defs>
  <rect x="10" y="10" width="780" height="980" fill="url(#Gradient2)" rx="50" ry="50" stroke="#ffd700" stroke-width="20"/>
  <text x="400" y="920" width="780" text-anchor="middle" style="font: bold 200px 'Helvetica Neue'; fill: #ffd700">00042</text>

  <g transform="translate(80 80) scale(64)">
<rect x="0" y="0" width="1" height="1" fill="#0D111A" /><rect x="1" y="0" width="1" height="1" fill="#0B0C18" /><rect x="2" y="0" width="1" height="1" fill="#000101" /><rect x="3" y="0" width="1" height="1" fill="#000000" /><rect x="4" y="0" width="1" height="1" fill="#000000" /><rect x="5" y="0" width="1" height="1" fill="#000401" /><rect x="6" y="0" width="1" height="1" fill="#000A10" /><rect x="7" y="0" width="1" height="1" fill="#001114" /><rect x="8" y="0" width="1" height="1" fill="#001114" /><rect x="9" y="0" width="1" height="1" fill="#000000" /><rect x="0" y="1" width="1" height="1" fill="#010000" /><rect x="1" y="1" width="1" height="1" fill="#000100" /><rect x="2" y="1" width="1" height="1" fill="#3A2340" /><rect x="3" y="1" width="1" height="1" fill="#643467" /><rect x="4" y="1" width="1" height="1" fill="#6C386E" /><rect x="5" y="1" width="1" height="1" fill="#3A1C3F" /><rect x="6" y="1" width="1" height="1" fill="#010C01" /><rect x="7" y="1" width="1" height="1" fill="#112A2D" /><rect x="8" y="1" width="1" height="1" fill="#173D4A" /><rect x="9" y="1" width="1" height="1" fill="#000000" /><rect x="0" y="2" width="1" height="1" fill="#69426D" /><rect x="1" y="2" width="1" height="1" fill="#7A3D7E" /><rect x="2" y="2" width="1" height="1" fill="#A450A6" /><rect x="3" y="2" width="1" height="1" fill="#9C559E" /><rect x="4" y="2" width="1" height="1" fill="#633566" /><rect x="5" y="2" width="1" height="1" fill="#311E38" /><rect x="6" y="2" width="1" height="1" fill="#001C15" /><rect x="7" y="2" width="1" height="1" fill="#1F3C41" /><rect x="8" y="2" width="1" height="1" fill="#1B4450" /><rect x="9" y="2" width="1" height="1" fill="#000000" /><rect x="0" y="3" width="1" height="1" fill="#B260B5" /><rect x="1" y="3" width="1" height="1" fill="#A567A8" /><rect x="2" y="3" width="1" height="1" fill="#A37AA2" /><rect x="3" y="3" width="1" height="1" fill="#4E285A" /><rect x="4" y="3" width="1" height="1" fill="#001A00" /><rect x="5" y="3" width="1" height="1" fill="#002B39" /><rect x="6" y="3" width="1" height="1" fill="#15404F" /><rect x="7" y="3" width="1" height="1" fill="#224B5A" /><rect x="8" y="3" width="1" height="1" fill="#0C3D4D" /><rect x="9" y="3" width="1" height="1" fill="#000000" /><rect x="0" y="4" width="1" height="1" fill="#A754AA" /><rect x="1" y="4" width="1" height="1" fill="#9F6CA1" /><rect x="2" y="4" width="1" height="1" fill="#AB7FAC" /><rect x="3" y="4" width="1" height="1" fill="#7E4086" /><rect x="4" y="4" width="1" height="1" fill="#00363A" /><rect x="5" y="4" width="1" height="1" fill="#15445E" /><rect x="6" y="4" width="1" height="1" fill="#1E536A" /><rect x="7" y="4" width="1" height="1" fill="#1F536B" /><rect x="8" y="4" width="1" height="1" fill="#044D66" /><rect x="9" y="4" width="1" height="1" fill="#000000" /><rect x="0" y="5" width="1" height="1" fill="#AA56AE" /><rect x="1" y="5" width="1" height="1" fill="#A04EA3" /><rect x="2" y="5" width="1" height="1" fill="#A04BA0" /><rect x="3" y="5" width="1" height="1" fill="#8E5698" /><rect x="4" y="5" width="1" height="1" fill="#004F68" /><rect x="5" y="5" width="1" height="1" fill="#184C67" /><rect x="6" y="5" width="1" height="1" fill="#1F5774" /><rect x="7" y="5" width="1" height="1" fill="#135169" /><rect x="8" y="5" width="1" height="1" fill="#005A79" /><rect x="9" y="5" width="1" height="1" fill="#000000" /><rect x="0" y="6" width="1" height="1" fill="#A177A2" /><rect x="1" y="6" width="1" height="1" fill="#A566A8" /><rect x="2" y="6" width="1" height="1" fill="#AE5FAE" /><rect x="3" y="6" width="1" height="1" fill="#955AA0" /><rect x="4" y="6" width="1" height="1" fill="#006285" /><rect x="5" y="6" width="1" height="1" fill="#1C516B" /><rect x="6" y="6" width="1" height="1" fill="#246688" /><rect x="7" y="6" width="1" height="1" fill="#0D5270" /><rect x="8" y="6" width="1" height="1" fill="#005E80" /><rect x="9" y="6" width="1" height="1" fill="#000000" /><rect x="0" y="7" width="1" height="1" fill="#869289" /><rect x="1" y="7" width="1" height="1" fill="#8D878C" /><rect x="2" y="7" width="1" height="1" fill="#875689" /><rect x="3" y="7" width="1" height="1" fill="#8D559A" /><rect x="4" y="7" width="1" height="1" fill="#1B6C92" /><rect x="5" y="7" width="1" height="1" fill="#154A5D" /><rect x="6" y="7" width="1" height="1" fill="#19526A" /><rect x="7" y="7" width="1" height="1" fill="#02394D" /><rect x="8" y="7" width="1" height="1" fill="#00364B" /><rect x="9" y="7" width="1" height="1" fill="#000000" /><rect x="0" y="8" width="1" height="1" fill="#B785C8" /><rect x="1" y="8" width="1" height="1" fill="#AB76BE" /><rect x="2" y="8" width="1" height="1" fill="#7C4080" /><rect x="3" y="8" width="1" height="1" fill="#9D5FA7" /><rect x="4" y="8" width="1" height="1" fill="#1F5C7F" /><rect x="5" y="8" width="1" height="1" fill="#134453" /><rect x="6" y="8" width="1" height="1" fill="#154352" /><rect x="7" y="8" width="1" height="1" fill="#01313D" /><rect x="8" y="8" width="1" height="1" fill="#002732" /><rect x="9" y="8" width="1" height="1" fill="#000000" /><rect x="0" y="9" width="1" height="1" fill="#929381" /><rect x="1" y="9" width="1" height="1" fill="#91997E" /><rect x="2" y="9" width="1" height="1" fill="#84687B" /><rect x="3" y="9" width="1" height="1" fill="#9C56A3" /><rect x="4" y="9" width="1" height="1" fill="#00484F" /><rect x="5" y="9" width="1" height="1" fill="#003949" /><rect x="6" y="9" width="1" height="1" fill="#012C3C" /><rect x="7" y="9" width="1" height="1" fill="#002C34" /><rect x="8" y="9" width="1" height="1" fill="#002A39" /><rect x="9" y="9" width="1" height="1" fill="#000000" />
  </g>
</svg>