<svg width="800" height="1000" version="1.1" xmlns="http://www.w3.org/2000/svg" xmlns:xlink="http://www.w3.org/1999/xlink">
  <defs>
      <linearGradient id="Gradient2" x1="0" x2="1" y1="0" y2="1">
        <stop offset="0%" stop-color="#2d3c96"/>
        <stop offset="100%" stop-color="#d53392"/>
      </linearGradient>
  </defs>
  <rect x="10" y="10" width="780" height="980" fill="url(#Gradient2)" rx="50" ry="50" stroke="#ffd700" stroke-width="20"/>
  <text x="400" y="920" width="780" text-anchor="middle" style="font: bold 200px 'Helvetica Neue'; fill: #ffd700">00043</text>

  <g transform="translate(80 80) scale(64)">
<rect x="0" y="0" width="1" height="1" fill="#F7F8FA" /><rect x="1" y="0" width="1" height="1" fill="#F7F8FA" /><rect x="2" y="0" width="1" height="1" fill="#F3F6FA" /><rect x="3" y="0" width="1" height="1" fill="#D1E8F6" /><rect x="4" y="0" width="1" height="1" fill="#B7DDF3" /><rect x="5" y="0" width="1" height="1" fill="#EBF3F9" /><rect x="6" y="0" width="1" height="1" fill="#F7F8FA" /><rect x="7" y="0" width="1" height="1" fill="#F3F5F9" /><rect x="8" y="0" width="1" height="1" fill="#C9D3EE" /><rect x="9" y="0" width="1" height="1" fill="#9AACD7" /><rect x="0" y="1" width="1" height="1" fill="#F6F8FA" /><rect x="1" y="1" width="1" height="1" fill="#E0EFF8" /><rect x="2" y="1" width="1" height="1" fill="#88CAED" /><rect x="3" y="1" width="1" height="1" fill="#45ADE6" /><rect x="4" y="1" width="1" height="1" fill="#3CA9E5" /><rect x="5" y="1" width="1" height="1" fill="#60B8E9" /><rect x="6" y="1" width="1" height="1" fill="#ADD1EE" /><rect x="7" y="1" width="1" height="1" fill="#8DA4DE" /><rect x="8" y="1" width="1" height="1" fill="#3B63C8" /><rect x="9" y="1" width="1" height="1" fill="#2149AB" /><rect x="0" y="2" width="1" height="1" fill="#F4F7FA" /><rect x="1" y="2" width="1" height="1" fill="#BBE0FB" /><rect x="2" y="2" width="1" height="1" fill="#53B5F3" /><rect x="3" y="2" width="1" height="1" fill="#43ADE7" /><rect x="4" y="2" width="1" height="1" fill="#3CA9E5" /><rect x="5" y="2" width="1" height="1" fill="#3CA9E5" /><rect x="6" y="2" width="1" height="1" fill="#3EA8E4" /><rect x="7" y="2" width="1" height="1" fill="#3A8FDA" /><rect x="8" y="2" width="1" height="1" fill="#2F65CA" /><rect x="9" y="2" width="1" height="1" fill="#224BAB" /><rect x="0" y="3" width="1" height="1" fill="#F4F7FA" /><rect x="1" y="3" width="1" height="1" fill="#BDE1FC" /><rect x="2" y="3" width="1" height="1" fill="#60BEFF" /><rect x="3" y="3" width="1" height="1" fill="#5AB6F9" /><rect x="4" y="3" width="1" height="1" fill="#449FE4" /><rect x="5" y="3" width="1" height="1" fill="#3DA5E3" /><rect x="6" y="3" width="1" height="1" fill="#3CA9E5" /><rect x="7" y="3" width="1" height="1" fill="#3CA9E5" /><rect x="8" y="3" width="1" height="1" fill="#3EA5E3" /><rect x="9" y="3" width="1" height="1" fill="#2865B5" /><rect x="0" y="4" width="1" height="1" fill="#F4F7FA" /><rect x="1" y="4" width="1" height="1" fill="#BDE1FC" /><rect x="2" y="4" width="1" height="1" fill="#60BEFF" /><rect x="3" y="4" width="1" height="1" fill="#59B1F8" /><rect x="4" y="4" width="1" height="1" fill="#3B76D6" /><rect x="5" y="4" width="1" height="1" fill="#306ACC" /><rect x="6" y="4" width="1" height="1" fill="#3A97DE" /><rect x="7" y="4" width="1" height="1" fill="#3CA9E5" /><rect x="8" y="4" width="1" height="1" fill="#3CA9E5" /><rect x="9" y="4" width="1" height="1" fill="#296BB8" /><rect x="0" y="5" width="1" height="1" fill="#F4F7FA" /><rect x="1" y="5" width="1" height="1" fill="#BDE1FC" /><rect x="2" y="5" width="1" height="1" fill="#60BEFF" /><rect x="3" y="5" width="1" height="1" fill="#59B1F8" /><rect x="4" y="5" width="1" height="1" fill="#3B75D6" /><rect x="5" y="5" width="1" height="1" fill="#2853C3" /><rect x="6" y="5" width="1" height="1" fill="#2B59C5" /><rect x="7" y="5" width="1" height="1" fill="#3575D0" /><rect x="8" y="5" width="1" height="1" fill="#3B9CE0" /><rect x="9" y="5" width="1" height="1" fill="#296BB8" /><rect x="0" y="6" width="1" height="1" fill="#F4F7FA" /><rect x="1" y="6" width="1" height="1" fill="#BDE1FC" /><rect x="2" y="6" width="1" height="1" fill="#60BEFF" /><rect x="3" y="6" width="1" height="1" fill="#5BB5F9" /><rect x="4" y="6" width="1" height="1" fill="#4080DA" /><rect x="5" y="6" width="1" height="1" fill="#2954C3" /><rect x="6" y="6" width="1" height="1" fill="#2853C3" /><rect x="7" y="6" width="1" height="1" fill="#2853C3" /><rect x="8" y="6" width="1" height="1" fill="#2E60C8" /><rect x="9" y="6" width="1" height="1" fill="#2757B3" /><rect x="0" y="7" width="1" height="1" fill="#F4F7FA" /><rect x="1" y="7" width="1" height="1" fill="#BDE1FC" /><rect x="2" y="7" width="1" height="1" fill="#60BEFF" /><rect x="3" y="7" width="1" height="1" fill="#5CBBFC" /><rect x="4" y="7" width="1" height="1" fill="#4AACEB" /><rect x="5" y="7" width="1" height="1" fill="#3B8CD9" /><rect x="6" y="7" width="1" height="1" fill="#2D63C9" /><rect x="7" y="7" width="1" height="1" fill="#2853C3" /><rect x="8" y="7" width="1" height="1" fill="#2853C3" /><rect x="9" y="7" width="1" height="1" fill="#2853C3" /><rect x="0" y="8" width="1" height="1" fill="#F7F8FA" /><rect x="1" y="8" width="1" height="1" fill="#E9F3FA" /><rect x="2" y="8" width="1" height="1" fill="#A0D6FD" /><rect x="3" y="8" width="1" height="1" fill="#5DBBFC" /><rect x="4" y="8" width="1" height="1" fill="#4DB2ED" /><rect x="5" y="8" width="1" height="1" fill="#65BAE9" /><rect x="6" y="8" width="1" height="1" fill="#A6CEEE" /><rect x="7" y="8" width="1" height="1" fill="#87A1DD" /><rect x="8" y="8" width="1" height="1" fill="#3B62C8" /><rect x="9" y="8" width="1" height="1" fill="#2853C3" /><rect x="0" y="9" width="1" height="1" fill="#000000" /><rect x="1" y="9" width="1" height="1" fill="#000000" /><rect x="2" y="9" width="1" height="1" fill="#000000" /><rect x="3" y="9" width="1" height="1" fill="#000000" /><rect x="4" y="9" width="1" height="1" fill="#000000" /><rect x="5" y="9" width="1" height="1" fill="#000000" /><rect x="6" y="9" width="1" height="1" fill="#000000" /><rect x="7" y="9" width="1" height="1" fill="#000000" /><rect x="8" y="9" width="1" height="1" fill="#000000" /><rect x="9" y="9" width="1" height="1" fill="#000000" />
  </g>
</svg>