<svg width="800" height="1000" xmlns="http://www.w3.org/2000/svg"><defs><linearGradient id="g" x1="0" x2="1" y1="0" y2="1"><stop offset="0%" stop-color="#2d3c96"/><stop offset="100%" stop-color="#d53392"/></linearGradient></defs><rect x="10" y="10" width="780" height="980" fill="url(#g)" rx="50" ry="50" stroke="gold" stroke-width="20"/><text x="400" y="920" width="780" text-anchor="middle" style="font:bold 200px 'Helvetica Neue';fill:gold">00045</text><g transform="translate(80 80) scale(64)"><rect x="0" y="0" width="1" height="1" fill="#f7f8fa" /><rect x="0" y="1" width="1" height="1" fill="#f7f8fa" /><rect x="0" y="2" width="1" height="1" fill="#ebeff7" /><rect x="0" y="3" width="1" height="1" fill="#869edc" /><rect x="0" y="4" width="1" height="1" fill="#6785d4" /><rect x="0" y="5" width="1" height="1" fill="#6f8cd6" /><rect x="0" y="6" width="1" height="1" fill="#6f8cd6" /><rect x="0" y="7" width="1" height="1" fill="#718dd6" /><rect x="0" y="8" width="1" height="1" fill="#eaedf7" /><rect x="0" y="9" width="1" height="1" fill="#000000" /><rect x="1" y="0" width="1" height="1" fill="#f7f8fa" /><rect x="1" y="1" width="1" height="1" fill="#f7f8fa" /><rect x="1" y="2" width="1" height="1" fill="#f7f8fa" /><rect x="1" y="3" width="1" height="1" fill="#dee4f4" /><rect x="1" y="4" width="1" height="1" fill="#8da4de" /><rect x="1" y="5" width="1" height="1" fill="#7792d8" /><rect x="1" y="6" width="1" height="1" fill="#a4b5e3" /><rect x="1" y="7" width="1" height="1" fill="#b8c6e9" /><rect x="1" y="8" width="1" height="1" fill="#eff2f8" /><rect x="1" y="9" width="1" height="1" fill="#000000" /><rect x="2" y="0" width="1" height="1" fill="#f7f8fa" /><rect x="2" y="1" width="1" height="1" fill="#f7f8fa" /><rect x="2" y="2" width="1" height="1" fill="#eef1f8" /><rect x="2" y="3" width="1" height="1" fill="#7d97d9" /><rect x="2" y="4" width="1" height="1" fill="#5375ce" /><rect x="2" y="5" width="1" height="1" fill="#4e71cd" /><rect x="2" y="6" width="1" height="1" fill="#5f7fd1" /><rect x="2" y="7" width="1" height="1" fill="#cad4ee" /><rect x="2" y="8" width="1" height="1" fill="#f7f8fa" /><rect x="2" y="9" width="1" height="1" fill="#000000" /><rect x="3" y="0" width="1" height="1" fill="#f7f8fa" /><rect x="3" y="1" width="1" height="1" fill="#f7f8fa" /><rect x="3" y="2" width="1" height="1" fill="#aabbe6" /><rect x="3" y="3" width="1" height="1" fill="#4f72cd" /><rect x="3" y="4" width="1" height="1" fill="#8ea4de" /><rect x="3" y="5" width="1" height="1" fill="#5173ce" /><rect x="3" y="6" width="1" height="1" fill="#829bdb" /><rect x="3" y="7" width="1" height="1" fill="#5a7bd0" /><rect x="3" y="8" width="1" height="1" fill="#f7f8fa" /><rect x="3" y="9" width="1" height="1" fill="#000000" /><rect x="4" y="0" width="1" height="1" fill="#f7f8fa" /><rect x="4" y="1" width="1" height="1" fill="#f7f8fa" /><rect x="4" y="2" width="1" height="1" fill="#8aa2de" /><rect x="4" y="3" width="1" height="1" fill="#6886d4" /><rect x="4" y="4" width="1" height="1" fill="#bac7e9" /><rect x="4" y="5" width="1" height="1" fill="#5c7cd1" /><rect x="4" y="6" width="1" height="1" fill="#d7def2" /><rect x="4" y="7" width="1" height="1" fill="#2e58c5" /><rect x="4" y="8" width="1" height="1" fill="#e8ecf6" /><rect x="4" y="9" width="1" height="1" fill="#000000" /><rect x="5" y="0" width="1" height="1" fill="#f7f8fa" /><rect x="5" y="1" width="1" height="1" fill="#f7f8fa" /><rect x="5" y="2" width="1" height="1" fill="#a9bae6" /><rect x="5" y="3" width="1" height="1" fill="#315bc5" /><rect x="5" y="4" width="1" height="1" fill="#91a7df" /><rect x="5" y="5" width="1" height="1" fill="#5c7cd1" /><rect x="5" y="6" width="1" height="1" fill="#e4e8f5" /><rect x="5" y="7" width="1" height="1" fill="#2e58c5" /><rect x="5" y="8" width="1" height="1" fill="#e3e8f5" /><rect x="5" y="9" width="1" height="1" fill="#000000" /><rect x="6" y="0" width="1" height="1" fill="#f7f8fa" /><rect x="6" y="1" width="1" height="1" fill="#f7f8fa" /><rect x="6" y="2" width="1" height="1" fill="#f2f4f9" /><rect x="6" y="3" width="1" height="1" fill="#859ddb" /><rect x="6" y="4" width="1" height="1" fill="#2e58c5" /><rect x="6" y="5" width="1" height="1" fill="#5c7cd1" /><rect x="6" y="6" width="1" height="1" fill="#f6f7fa" /><rect x="6" y="7" width="1" height="1" fill="#c7d1ed" /><rect x="6" y="8" width="1" height="1" fill="#f1f3f9" /><rect x="6" y="9" width="1" height="1" fill="#000000" /><rect x="7" y="0" width="1" height="1" fill="#f7f8fa" /><rect x="7" y="1" width="1" height="1" fill="#f7f8fa" /><rect x="7" y="2" width="1" height="1" fill="#edf0f8" /><rect x="7" y="3" width="1" height="1" fill="#cfd8ef" /><rect x="7" y="4" width="1" height="1" fill="#e6ebf6" /><rect x="7" y="5" width="1" height="1" fill="#dee4f3" /><rect x="7" y="6" width="1" height="1" fill="#f0f2f8" /><rect x="7" y="7" width="1" height="1" fill="#d1daf0" /><rect x="7" y="8" width="1" height="1" fill="#f6f7fa" /><rect x="7" y="9" width="1" height="1" fill="#000000" /><rect x="8" y="0" width="1" height="1" fill="#f7f8fa" /><rect x="8" y="1" width="1" height="1" fill="#f7f8fa" /><rect x="8" y="2" width="1" height="1" fill="#b1c1e7" /><rect x="8" y="3" width="1" height="1" fill="#375fc7" /><rect x="8" y="4" width="1" height="1" fill="#afbfe7" /><rect x="8" y="5" width="1" height="1" fill="#d7def2" /><rect x="8" y="6" width="1" height="1" fill="#7590d7" /><rect x="8" y="7" width="1" height="1" fill="#5074ce" /><rect x="8" y="8" width="1" height="1" fill="#edf0f8" /><rect x="8" y="9" width="1" height="1" fill="#000000" /><rect x="9" y="0" width="1" height="1" fill="#f7f8fa" /><rect x="9" y="1" width="1" height="1" fill="#f7f8fa" /><rect x="9" y="2" width="1" height="1" fill="#f7f8fa" /><rect x="9" y="3" width="1" height="1" fill="#8ea4de" /><rect x="9" y="4" width="1" height="1" fill="#315ac6" /><rect x="9" y="5" width="1" height="1" fill="#5c7dd1" /><rect x="9" y="6" width="1" height="1" fill="#496ecc" /><rect x="9" y="7" width="1" height="1" fill="#c3cfec" /><rect x="9" y="8" width="1" height="1" fill="#f7f8fa" /><rect x="9" y="9" width="1" height="1" fill="#000000" /></g></svg>