<svg width="800" height="1000" version="1.1" xmlns="http://www.w3.org/2000/svg" xmlns:xlink="http://www.w3.org/1999/xlink">
  <defs>
      <linearGradient id="Gradient2" x1="0" x2="1" y1="0" y2="1">
        <stop offset="0%" stop-color="#2d3c96"/>
        <stop offset="100%" stop-color="#d53392"/>
      </linearGradient>
  </defs>
  <rect x="10" y="10" width="780" height="980" fill="url(#Gradient2)" rx="50" ry="50" stroke="#ffd700" stroke-width="20"/>
  <text x="400" y="920" width="780" text-anchor="middle" style="font: bold 200px 'Helvetica Neue'; fill: #ffd700">00041</text>

  <g transform="translate(80 80) scale(64)">
<rect x="0" y="0" width="1" height="1" fill="#010C13" /><rect x="1" y="0" width="1" height="1" fill="#011014" /><rect x="2" y="0" width="1" height="1" fill="#011816" /><rect x="3" y="0" width="1" height="1" fill="#011A17" /><rect x="4" y="0" width="1" height="1" fill="#001614" /><rect x="5" y="0" width="1" height="1" fill="#011618" /><rect x="6" y="0" width="1" height="1" fill="#011823" /><rect x="7" y="0" width="1" height="1" fill="#010909" /><rect x="8" y="0" width="1" height="1" fill="#000E10" /><rect x="9" y="0" width="1" height="1" fill="#06191B" /><rect x="0" y="1" width="1" height="1" fill="#000407" /><rect x="1" y="1" width="1" height="1" fill="#000505" /><rect x="2" y="1" width="1" height="1" fill="#011011" /><rect x="3" y="1" width="1" height="1" fill="#032B20" /><rect x="4" y="1" width="1" height="1" fill="#011411" /><rect x="5" y="1" width="1" height="1" fill="#011018" /><rect x="6" y="1" width="1" height="1" fill="#011922" /><rect x="7" y="1" width="1" height="1" fill="#010300" /><rect x="8" y="1" width="1" height="1" fill="#000A11" /><rect x="9" y="1" width="1" height="1" fill="#000001" /><rect x="0" y="2" width="1" height="1" fill="#001721" /><rect x="1" y="2" width="1" height="1" fill="#000C11" /><rect x="2" y="2" width="1" height="1" fill="#000D13" /><rect x="3" y="2" width="1" height="1" fill="#000A13" /><rect x="4" y="2" width="1" height="1" fill="#000205" /><rect x="5" y="2" width="1" height="1" fill="#00121D" /><rect x="6" y="2" width="1" height="1" fill="#011C27" /><rect x="7" y="2" width="1" height="1" fill="#13151A" /><rect x="8" y="2" width="1" height="1" fill="#011115" /><rect x="9" y="2" width="1" height="1" fill="#574A5E" /><rect x="0" y="3" width="1" height="1" fill="#012330" /><rect x="1" y="3" width="1" height="1" fill="#001F2A" /><rect x="2" y="3" width="1" height="1" fill="#001D23" /><rect x="3" y="3" width="1" height="1" fill="#01151E" /><rect x="4" y="3" width="1" height="1" fill="#010103" /><rect x="5" y="3" width="1" height="1" fill="#001823" /><rect x="6" y="3" width="1" height="1" fill="#1B3243" /><rect x="7" y="3" width="1" height="1" fill="#000000" /><rect x="8" y="3" width="1" height="1" fill="#04221F" /><rect x="9" y="3" width="1" height="1" fill="#B779B8" /><rect x="0" y="4" width="1" height="1" fill="#013342" /><rect x="1" y="4" width="1" height="1" fill="#003140" /><rect x="2" y="4" width="1" height="1" fill="#003D52" /><rect x="3" y="4" width="1" height="1" fill="#011F2D" /><rect x="4" y="4" width="1" height="1" fill="#020201" /><rect x="5" y="4" width="1" height="1" fill="#0F1C32" /><rect x="6" y="4" width="1" height="1" fill="#002431" /><rect x="7" y="4" width="1" height="1" fill="#75727E" /><rect x="8" y="4" width="1" height="1" fill="#A783AB" /><rect x="9" y="4" width="1" height="1" fill="#A965AB" /><rect x="0" y="5" width="1" height="1" fill="#00475C" /><rect x="1" y="5" width="1" height="1" fill="#003E55" /><rect x="2" y="5" width="1" height="1" fill="#004865" /><rect x="3" y="5" width="1" height="1" fill="#032637" /><rect x="4" y="5" width="1" height="1" fill="#050101" /><rect x="5" y="5" width="1" height="1" fill="#011601" /><rect x="6" y="5" width="1" height="1" fill="#A198B3" /><rect x="7" y="5" width="1" height="1" fill="#D794D6" /><rect x="8" y="5" width="1" height="1" fill="#B15BB3" /><rect x="9" y="5" width="1" height="1" fill="#99479B" /><rect x="0" y="6" width="1" height="1" fill="#00516F" /><rect x="1" y="6" width="1" height="1" fill="#03405A" /><rect x="2" y="6" width="1" height="1" fill="#025476" /><rect x="3" y="6" width="1" height="1" fill="#01192B" /><rect x="4" y="6" width="1" height="1" fill="#000001" /><rect x="5" y="6" width="1" height="1" fill="#A785A9" /><rect x="6" y="6" width="1" height="1" fill="#CC82CC" /><rect x="7" y="6" width="1" height="1" fill="#A85BAB" /><rect x="8" y="6" width="1" height="1" fill="#A579A6" /><rect x="9" y="6" width="1" height="1" fill="#A682AA" /><rect x="0" y="7" width="1" height="1" fill="#00506D" /><rect x="1" y="7" width="1" height="1" fill="#014D6A" /><rect x="2" y="7" width="1" height="1" fill="#07587B" /><rect x="3" y="7" width="1" height="1" fill="#000700" /><rect x="4" y="7" width="1" height="1" fill="#9C759D" /><rect x="5" y="7" width="1" height="1" fill="#BA84BD" /><rect x="6" y="7" width="1" height="1" fill="#96819F" /><rect x="7" y="7" width="1" height="1" fill="#B4ADB7" /><rect x="8" y="7" width="1" height="1" fill="#A1A5A0" /><rect x="9" y="7" width="1" height="1" fill="#7B9C8C" /><rect x="0" y="8" width="1" height="1" fill="#00455C" /><rect x="1" y="8" width="1" height="1" fill="#003546" /><rect x="2" y="8" width="1" height="1" fill="#003443" /><rect x="3" y="8" width="1" height="1" fill="#0E0C20" /><rect x="4" y="8" width="1" height="1" fill="#7C687B" /><rect x="5" y="8" width="1" height="1" fill="#4B6A66" /><rect x="6" y="8" width="1" height="1" fill="#6D67A5" /><rect x="7" y="8" width="1" height="1" fill="#B683C4" /><rect x="8" y="8" width="1" height="1" fill="#B382C5" /><rect x="9" y="8" width="1" height="1" fill="#B17EC4" /><rect x="0" y="9" width="1" height="1" fill="#013846" /><rect x="1" y="9" width="1" height="1" fill="#011E25" /><rect x="2" y="9" width="1" height="1" fill="#00242C" /><rect x="3" y="9" width="1" height="1" fill="#000C15" /><rect x="4" y="9" width="1" height="1" fill="#010000" /><rect x="5" y="9" width="1" height="1" fill="#010009" /><rect x="6" y="9" width="1" height="1" fill="#393558" /><rect x="7" y="9" width="1" height="1" fill="#9E929F" /><rect x="8" y="9" width="1" height="1" fill="#949288" /><rect x="9" y="9" width="1" height="1" fill="#6E6F5E" />
  </g>
</svg>