<svg width="800" height="1000" xmlns="http://www.w3.org/2000/svg"><defs><linearGradient id="g" x1="0" x2="1" y1="0" y2="1"><stop offset="0%" stop-color="#2d3c96"/><stop offset="100%" stop-color="#d53392"/></linearGradient></defs><rect x="10" y="10" width="780" height="980" fill="url(#g)" rx="50" ry="50" stroke="gold" stroke-width="20"/><text x="400" y="920" width="780" text-anchor="middle" style="font:bold 200px 'Helvetica Neue';fill:gold">00042</text><g transform="translate(80 80) scale(64)"><rect x="0" y="0" width="1" height="1" fill="#0d111a" /><rect x="0" y="1" width="1" height="1" fill="#010000" /><rect x="0" y="2" width="1" height="1" fill="#69426d" /><rect x="0" y="3" width="1" height="1" fill="#b260b5" /><rect x="0" y="4" width="1" height="1" fill="#a754aa" /><rect x="0" y="5" width="1" height="1" fill="#aa56ae" /><rect x="0" y="6" width="1" height="1" fill="#a177a2" /><rect x="0" y="7" width="1" height="1" fill="#869289" /><rect x="0" y="8" width="1" height="1" fill="#b785c8" /><rect x="0" y="9" width="1" height="1" fill="#929381" /><rect x="1" y="0" width="1" height="1" fill="#0b0c18" /><rect x="1" y="1" width="1" height="1" fill="#000100" /><rect x="1" y="2" width="1" height="1" fill="#7a3d7e" /><rect x="1" y="3" width="1" height="1" fill="#a567a8" /><rect x="1" y="4" width="1" height="1" fill="#9f6ca1" /><rect x="1" y="5" width="1" height="1" fill="#a04ea3" /><rect x="1" y="6" width="1" height="1" fill="#a566a8" /><rect x="1" y="7" width="1" height="1" fill="#8d878c" /><rect x="1" y="8" width="1" height="1" fill="#ab76be" /><rect x="1" y="9" width="1" height="1" fill="#91997e" /><rect x="2" y="0" width="1" height="1" fill="#000101" /><rect x="2" y="1" width="1" height="1" fill="#3a2340" /><rect x="2" y="2" width="1" height="1" fill="#a450a6" /><rect x="2" y="3" width="1" height="1" fill="#a37aa2" /><rect x="2" y="4" width="1" height="1" fill="#ab7fac" /><rect x="2" y="5" width="1" height="1" fill="#a04ba0" /><rect x="2" y="6" width="1" height="1" fill="#ae5fae" /><rect x="2" y="7" width="1" height="1" fill="#875689" /><rect x="2" y="8" width="1" height="1" fill="#7c4080" /><rect x="2" y="9" width="1" height="1" fill="#84687b" /><rect x="3" y="0" width="1" height="1" fill="#000000" /><rect x="3" y="1" width="1" height="1" fill="#643467" /><rect x="3" y="2" width="1" height="1" fill="#9c559e" /><rect x="3" y="3" width="1" height="1" fill="#4e285a" /><rect x="3" y="4" width="1" height="1" fill="#7e4086" /><rect x="3" y="5" width="1" height="1" fill="#8e5698" /><rect x="3" y="6" width="1" height="1" fill="#955aa0" /><rect x="3" y="7" width="1" height="1" fill="#8d559a" /><rect x="3" y="8" width="1" height="1" fill="#9d5fa7" /><rect x="3" y="9" width="1" height="1" fill="#9c56a3" /><rect x="4" y="0" width="1" height="1" fill="#000000" /><rect x="4" y="1" width="1" height="1" fill="#6c386e" /><rect x="4" y="2" width="1" height="1" fill="#633566" /><rect x="4" y="3" width="1" height="1" fill="#001a00" /><rect x="4" y="4" width="1" height="1" fill="#00363a" /><rect x="4" y="5" width="1" height="1" fill="#004f68" /><rect x="4" y="6" width="1" height="1" fill="#006285" /><rect x="4" y="7" width="1" height="1" fill="#1b6c92" /><rect x="4" y="8" width="1" height="1" fill="#1f5c7f" /><rect x="4" y="9" width="1" height="1" fill="#00484f" /><rect x="5" y="0" width="1" height="1" fill="#000401" /><rect x="5" y="1" width="1" height="1" fill="#3a1c3f" /><rect x="5" y="2" width="1" height="1" fill="#311e38" /><rect x="5" y="3" width="1" height="1" fill="#002b39" /><rect x="5" y="4" width="1" height="1" fill="#15445e" /><rect x="5" y="5" width="1" height="1" fill="#184c67" /><rect x="5" y="6" width="1" height="1" fill="#1c516b" /><rect x="5" y="7" width="1" height="1" fill="#154a5d" /><rect x="5" y="8" width="1" height="1" fill="#134453" /><rect x="5" y="9" width="1" height="1" fill="#003949" /><rect x="6" y="0" width="1" height="1" fill="#000a10" /><rect x="6" y="1" width="1" height="1" fill="#010c01" /><rect x="6" y="2" width="1" height="1" fill="#001c15" /><rect x="6" y="3" width="1" height="1" fill="#15404f" /><rect x="6" y="4" width="1" height="1" fill="#1e536a" /><rect x="6" y="5" width="1" height="1" fill="#1f5774" /><rect x="6" y="6" width="1" height="1" fill="#246688" /><rect x="6" y="7" width="1" height="1" fill="#19526a" /><rect x="6" y="8" width="1" height="1" fill="#154352" /><rect x="6" y="9" width="1" height="1" fill="#012c3c" /><rect x="7" y="0" width="1" height="1" fill="#001114" /><rect x="7" y="1" width="1" height="1" fill="#112a2d" /><rect x="7" y="2" width="1" height="1" fill="#1f3c41" /><rect x="7" y="3" width="1" height="1" fill="#224b5a" /><rect x="7" y="4" width="1" height="1" fill="#1f536b" /><rect x="7" y="5" width="1" height="1" fill="#135169" /><rect x="7" y="6" width="1" height="1" fill="#0d5270" /><rect x="7" y="7" width="1" height="1" fill="#02394d" /><rect x="7" y="8" width="1" height="1" fill="#01313d" /><rect x="7" y="9" width="1" height="1" fill="#002c34" /><rect x="8" y="0" width="1" height="1" fill="#001114" /><rect x="8" y="1" width="1" height="1" fill="#173d4a" /><rect x="8" y="2" width="1" height="1" fill="#1b4450" /><rect x="8" y="3" width="1" height="1" fill="#0c3d4d" /><rect x="8" y="4" width="1" height="1" fill="#044d66" /><rect x="8" y="5" width="1" height="1" fill="#005a79" /><rect x="8" y="6" width="1" height="1" fill="#005e80" /><rect x="8" y="7" width="1" height="1" fill="#00364b" /><rect x="8" y="8" width="1" height="1" fill="#002732" /><rect x="8" y="9" width="1" height="1" fill="#002a39" /><rect x="9" y="0" width="1" height="1" fill="#000000" /><rect x="9" y="1" width="1" height="1" fill="#000000" /><rect x="9" y="2" width="1" height="1" fill="#000000" /><rect x="9" y="3" width="1" height="1" fill="#000000" /><rect x="9" y="4" width="1" height="1" fill="#000000" /><rect x="9" y="5" width="1" height="1" fill="#000000" /><rect x="9" y="6" width="1" height="1" fill="#000000" /><rect x="9" y="7" width="1" height="1" fill="#000000" /><rect x="9" y="8" width="1" height="1" fill="#000000" /><rect x="9" y="9" width="1" height="1" fill="#000000" /></g></svg>