<svg width="800" height="1000" version="1.1" xmlns="http://www.w3.org/2000/svg" xmlns:xlink="http://www.w3.org/1999/xlink">
  <defs>
      <linearGradient id="Gradient2" x1="0" x2="1" y1="0" y2="1">
        <stop offset="0%" stop-color="#2d3c96"/>
        <stop offset="100%" stop-color="#d53392"/>
      </linearGradient>
  </defs>
  <rect x="10" y="10" width="780" height="980" fill="url(#Gradient2)" rx="50" ry="50" stroke="#ffd700" stroke-width="20"/>
  <text x="400" y="920" width="780" text-anchor="middle" style="font: bold 200px 'Helvetica Neue'; fill: #ffd700">00041</text>

  <g transform="translate(80 80) scale(64)">
<rect x="0" y="0" width="1" height="1" fill="#010c13" />
,<rect x="0" y="1" width="1" height="1" fill="#000407" />
,<rect x="0" y="2" width="1" height="1" fill="#001721" />
,<rect x="0" y="3" width="1" height="1" fill="#012330" />
,<rect x="0" y="4" width="1" height="1" fill="#013342" />
,<rect x="0" y="5" width="1" height="1" fill="#00475c" />
,<rect x="0" y="6" width="1" height="1" fill="#00516f" />
,<rect x="0" y="7" width="1" height="1" fill="#00506d" />
,<rect x="0" y="8" width="1" height="1" fill="#00455c" />
,<rect x="0" y="9" width="1" height="1" fill="#013846" />
,<rect x="1" y="0" width="1" height="1" fill="#011014" />
,<rect x="1" y="1" width="1" height="1" fill="#000505" />
,<rect x="1" y="2" width="1" height="1" fill="#000c11" />
,<rect x="1" y="3" width="1" height="1" fill="#001f2a" />
,<rect x="1" y="4" width="1" height="1" fill="#003140" />
,<rect x="1" y="5" width="1" height="1" fill="#003e55" />
,<rect x="1" y="6" width="1" height="1" fill="#03405a" />
,<rect x="1" y="7" width="1" height="1" fill="#014d6a" />
,<rect x="1" y="8" width="1" height="1" fill="#003546" />
,<rect x="1" y="9" width="1" height="1" fill="#011e25" />
,<rect x="2" y="0" width="1" height="1" fill="#011816" />
,<rect x="2" y="1" width="1" height="1" fill="#011011" />
,<rect x="2" y="2" width="1" height="1" fill="#000d13" />
,<rect x="2" y="3" width="1" height="1" fill="#001d23" />
,<rect x="2" y="4" width="1" height="1" fill="#003d52" />
,<rect x="2" y="5" width="1" height="1" fill="#004865" />
,<rect x="2" y="6" width="1" height="1" fill="#025476" />
,<rect x="2" y="7" width="1" height="1" fill="#07587b" />
,<rect x="2" y="8" width="1" height="1" fill="#003443" />
,<rect x="2" y="9" width="1" height="1" fill="#00242c" />
,<rect x="3" y="0" width="1" height="1" fill="#011a17" />
,<rect x="3" y="1" width="1" height="1" fill="#032b20" />
,<rect x="3" y="2" width="1" height="1" fill="#000a13" />
,<rect x="3" y="3" width="1" height="1" fill="#01151e" />
,<rect x="3" y="4" width="1" height="1" fill="#011f2d" />
,<rect x="3" y="5" width="1" height="1" fill="#032637" />
,<rect x="3" y="6" width="1" height="1" fill="#01192b" />
,<rect x="3" y="7" width="1" height="1" fill="#000700" />
,<rect x="3" y="8" width="1" height="1" fill="#0e0c20" />
,<rect x="3" y="9" width="1" height="1" fill="#000c15" />
,<rect x="4" y="0" width="1" height="1" fill="#001614" />
,<rect x="4" y="1" width="1" height="1" fill="#011411" />
,<rect x="4" y="2" width="1" height="1" fill="#000205" />
,<rect x="4" y="3" width="1" height="1" fill="#010103" />
,<rect x="4" y="4" width="1" height="1" fill="#020201" />
,<rect x="4" y="5" width="1" height="1" fill="#050101" />
,<rect x="4" y="6" width="1" height="1" fill="#000001" />
,<rect x="4" y="7" width="1" height="1" fill="#9c759d" />
,<rect x="4" y="8" width="1" height="1" fill="#7c687b" />
,<rect x="4" y="9" width="1" height="1" fill="#010000" />
,<rect x="5" y="0" width="1" height="1" fill="#011618" />
,<rect x="5" y="1" width="1" height="1" fill="#011018" />
,<rect x="5" y="2" width="1" height="1" fill="#00121d" />
,<rect x="5" y="3" width="1" height="1" fill="#001823" />
,<rect x="5" y="4" width="1" height="1" fill="#0f1c32" />
,<rect x="5" y="5" width="1" height="1" fill="#011601" />
,<rect x="5" y="6" width="1" height="1" fill="#a785a9" />
,<rect x="5" y="7" width="1" height="1" fill="#ba84bd" />
,<rect x="5" y="8" width="1" height="1" fill="#4b6a66" />
,<rect x="5" y="9" width="1" height="1" fill="#010009" />
,<rect x="6" y="0" width="1" height="1" fill="#011823" />
,<rect x="6" y="1" width="1" height="1" fill="#011922" />
,<rect x="6" y="2" width="1" height="1" fill="#011c27" />
,<rect x="6" y="3" width="1" height="1" fill="#1b3243" />
,<rect x="6" y="4" width="1" height="1" fill="#002431" />
,<rect x="6" y="5" width="1" height="1" fill="#a198b3" />
,<rect x="6" y="6" width="1" height="1" fill="#cc82cc" />
,<rect x="6" y="7" width="1" height="1" fill="#96819f" />
,<rect x="6" y="8" width="1" height="1" fill="#6d67a5" />
,<rect x="6" y="9" width="1" height="1" fill="#393558" />
,<rect x="7" y="0" width="1" height="1" fill="#010909" />
,<rect x="7" y="1" width="1" height="1" fill="#010300" />
,<rect x="7" y="2" width="1" height="1" fill="#13151a" />
,<rect x="7" y="3" width="1" height="1" fill="#000000" />
,<rect x="7" y="4" width="1" height="1" fill="#75727e" />
,<rect x="7" y="5" width="1" height="1" fill="#d794d6" />
,<rect x="7" y="6" width="1" height="1" fill="#a85bab" />
,<rect x="7" y="7" width="1" height="1" fill="#b4adb7" />
,<rect x="7" y="8" width="1" height="1" fill="#b683c4" />
,<rect x="7" y="9" width="1" height="1" fill="#9e929f" />
,<rect x="8" y="0" width="1" height="1" fill="#000e10" />
,<rect x="8" y="1" width="1" height="1" fill="#000a11" />
,<rect x="8" y="2" width="1" height="1" fill="#011115" />
,<rect x="8" y="3" width="1" height="1" fill="#04221f" />
,<rect x="8" y="4" width="1" height="1" fill="#a783ab" />
,<rect x="8" y="5" width="1" height="1" fill="#b15bb3" />
,<rect x="8" y="6" width="1" height="1" fill="#a579a6" />
,<rect x="8" y="7" width="1" height="1" fill="#a1a5a0" />
,<rect x="8" y="8" width="1" height="1" fill="#b382c5" />
,<rect x="8" y="9" width="1" height="1" fill="#949288" />
,<rect x="9" y="0" width="1" height="1" fill="#06191b" />
,<rect x="9" y="1" width="1" height="1" fill="#000001" />
,<rect x="9" y="2" width="1" height="1" fill="#574a5e" />
,<rect x="9" y="3" width="1" height="1" fill="#b779b8" />
,<rect x="9" y="4" width="1" height="1" fill="#a965ab" />
,<rect x="9" y="5" width="1" height="1" fill="#99479b" />
,<rect x="9" y="6" width="1" height="1" fill="#a682aa" />
,<rect x="9" y="7" width="1" height="1" fill="#7b9c8c" />
,<rect x="9" y="8" width="1" height="1" fill="#b17ec4" />
,<rect x="9" y="9" width="1" height="1" fill="#6e6f5e" />

  </g>
</svg>