<svg width="800" height="1000" xmlns="http://www.w3.org/2000/svg"><defs><linearGradient id="g" x1="0" x2="1" y1="0" y2="1"><stop offset="0%" stop-color="#2d3c96"/><stop offset="100%" stop-color="#d53392"/></linearGradient></defs><rect x="10" y="10" width="780" height="980" fill="url(#g)" rx="50" ry="50" stroke="gold" stroke-width="20"/><text x="400" y="920" width="780" text-anchor="middle" style="font:bold 200px 'Helvetica Neue';fill:gold">00059</text><g transform="translate(80 80) scale(64)"><rect x="0" y="0" width="1" height="1" fill="#1a67ff" /><rect x="0" y="1" width="1" height="1" fill="#1a67ff" /><rect x="0" y="2" width="1" height="1" fill="#1a67ff" /><rect x="0" y="3" width="1" height="1" fill="#1964f6" /><rect x="0" y="4" width="1" height="1" fill="#1860ed" /><rect x="0" y="5" width="1" height="1" fill="#175ce4" /><rect x="0" y="6" width="1" height="1" fill="#330012" /><rect x="0" y="7" width="1" height="1" fill="#330012" /><rect x="0" y="8" width="1" height="1" fill="#330012" /><rect x="0" y="9" width="1" height="1" fill="#330012" /><rect x="1" y="0" width="1" height="1" fill="#1a67ff" /><rect x="1" y="1" width="1" height="1" fill="#1a67ff" /><rect x="1" y="2" width="1" height="1" fill="#1a67ff" /><rect x="1" y="3" width="1" height="1" fill="#1963f6" /><rect x="1" y="4" width="1" height="1" fill="#1860ed" /><rect x="1" y="5" width="1" height="1" fill="#185ce4" /><rect x="1" y="6" width="1" height="1" fill="#1658da" /><rect x="1" y="7" width="1" height="1" fill="#1555d1" /><rect x="1" y="8" width="1" height="1" fill="#1551c8" /><rect x="1" y="9" width="1" height="1" fill="#134dbe" /><rect x="2" y="0" width="1" height="1" fill="#1b67ff" /><rect x="2" y="1" width="1" height="1" fill="#1b67ff" /><rect x="2" y="2" width="1" height="1" fill="#1a67ff" /><rect x="2" y="3" width="1" height="1" fill="#1a63f6" /><rect x="2" y="4" width="1" height="1" fill="#1860ed" /><rect x="2" y="5" width="1" height="1" fill="#175ce4" /><rect x="2" y="6" width="1" height="1" fill="#1658db" /><rect x="2" y="7" width="1" height="1" fill="#1654d1" /><rect x="2" y="8" width="1" height="1" fill="#1551c7" /><rect x="2" y="9" width="1" height="1" fill="#144dbf" /><rect x="3" y="0" width="1" height="1" fill="#1a67ff" /><rect x="3" y="1" width="1" height="1" fill="#1a67ff" /><rect x="3" y="2" width="1" height="1" fill="#1a67ff" /><rect x="3" y="3" width="1" height="1" fill="#1964f6" /><rect x="3" y="4" width="1" height="1" fill="#1860ec" /><rect x="3" y="5" width="1" height="1" fill="#175ce4" /><rect x="3" y="6" width="1" height="1" fill="#1758da" /><rect x="3" y="7" width="1" height="1" fill="#1555d1" /><rect x="3" y="8" width="1" height="1" fill="#1551c8" /><rect x="3" y="9" width="1" height="1" fill="#134dbf" /><rect x="4" y="0" width="1" height="1" fill="#1a68ff" /><rect x="4" y="1" width="1" height="1" fill="#1a67ff" /><rect x="4" y="2" width="1" height="1" fill="#1a67ff" /><rect x="4" y="3" width="1" height="1" fill="#1963f6" /><rect x="4" y="4" width="1" height="1" fill="#1960ed" /><rect x="4" y="5" width="1" height="1" fill="#185ce3" /><rect x="4" y="6" width="1" height="1" fill="#1659db" /><rect x="4" y="7" width="1" height="1" fill="#1655d1" /><rect x="4" y="8" width="1" height="1" fill="#1551c7" /><rect x="4" y="9" width="1" height="1" fill="#134dbf" /><rect x="5" y="0" width="1" height="1" fill="#1a67ff" /><rect x="5" y="1" width="1" height="1" fill="#1a67ff" /><rect x="5" y="2" width="1" height="1" fill="#1a67ff" /><rect x="5" y="3" width="1" height="1" fill="#1a63f6" /><rect x="5" y="4" width="1" height="1" fill="#1860ec" /><rect x="5" y="5" width="1" height="1" fill="#175ce3" /><rect x="5" y="6" width="1" height="1" fill="#1659da" /><rect x="5" y="7" width="1" height="1" fill="#1554ce" /><rect x="5" y="8" width="1" height="1" fill="#1450c6" /><rect x="5" y="9" width="1" height="1" fill="#134dbc" /><rect x="6" y="0" width="1" height="1" fill="#1b67ff" /><rect x="6" y="1" width="1" height="1" fill="#1a67ff" /><rect x="6" y="2" width="1" height="1" fill="#1a67ff" /><rect x="6" y="3" width="1" height="1" fill="#1964f5" /><rect x="6" y="4" width="1" height="1" fill="#195fea" /><rect x="6" y="5" width="1" height="1" fill="#060033" /><rect x="6" y="6" width="1" height="1" fill="#060033" /><rect x="6" y="7" width="1" height="1" fill="#060033" /><rect x="6" y="8" width="1" height="1" fill="#060033" /><rect x="6" y="9" width="1" height="1" fill="#060033" /><rect x="7" y="0" width="1" height="1" fill="#1a67ff" /><rect x="7" y="1" width="1" height="1" fill="#1b67ff" /><rect x="7" y="2" width="1" height="1" fill="#1a66fd" /><rect x="7" y="3" width="1" height="1" fill="#060033" /><rect x="7" y="4" width="1" height="1" fill="#060033" /><rect x="7" y="5" width="1" height="1" fill="#060033" /><rect x="7" y="6" width="1" height="1" fill="#1d00e6" /><rect x="7" y="7" width="1" height="1" fill="#0d0066" /><rect x="7" y="8" width="1" height="1" fill="#1d00e6" /><rect x="7" y="9" width="1" height="1" fill="#0d0066" /><rect x="8" y="0" width="1" height="1" fill="#1a67ff" /><rect x="8" y="1" width="1" height="1" fill="#1a68ff" /><rect x="8" y="2" width="1" height="1" fill="#060033" /><rect x="8" y="3" width="1" height="1" fill="#1d00e6" /><rect x="8" y="4" width="1" height="1" fill="#99d0ff" /><rect x="8" y="5" width="1" height="1" fill="#1d00e6" /><rect x="8" y="6" width="1" height="1" fill="#1d00e6" /><rect x="8" y="7" width="1" height="1" fill="#1d00e6" /><rect x="8" y="8" width="1" height="1" fill="#1d00e6" /><rect x="8" y="9" width="1" height="1" fill="#1d00e6" /><rect x="9" y="0" width="1" height="1" fill="#1a67ff" /><rect x="9" y="1" width="1" height="1" fill="#1a67ff" /><rect x="9" y="2" width="1" height="1" fill="#1a67fd" /><rect x="9" y="3" width="1" height="1" fill="#060033" /><rect x="9" y="4" width="1" height="1" fill="#1d00e6" /><rect x="9" y="5" width="1" height="1" fill="#1d00e6" /><rect x="9" y="6" width="1" height="1" fill="#7966ff" /><rect x="9" y="7" width="1" height="1" fill="#060033" /><rect x="9" y="8" width="1" height="1" fill="#1d00e6" /><rect x="9" y="9" width="1" height="1" fill="#1d00e6" /></g></svg>