<svg width="800" height="1000" version="1.1" xmlns="http://www.w3.org/2000/svg" xmlns:xlink="http://www.w3.org/1999/xlink">
  <defs>
      <linearGradient id="Gradient2" x1="0" x2="1" y1="0" y2="1">
        <stop offset="0%" stop-color="#2d3c96"/>
        <stop offset="100%" stop-color="#d53392"/>
      </linearGradient>
  </defs>
  <rect x="10" y="10" width="780" height="980" fill="url(#Gradient2)" rx="50" ry="50" stroke="#ffd700" stroke-width="20"/>
  <text x="400" y="920" width="780" text-anchor="middle" style="font: bold 200px 'Helvetica Neue'; fill: #ffd700">00050</text>

  <g transform="translate(80 80) scale(64)">
<rect x="0" y="0" width="1" height="1" fill="#000000" />
,<rect x="0" y="1" width="1" height="1" fill="#92c644" />
,<rect x="0" y="2" width="1" height="1" fill="#b9d45b" />
,<rect x="0" y="3" width="1" height="1" fill="#dcdf74" />
,<rect x="0" y="4" width="1" height="1" fill="#e9e47c" />
,<rect x="0" y="5" width="1" height="1" fill="#e4e278" />
,<rect x="0" y="6" width="1" height="1" fill="#cad867" />
,<rect x="0" y="7" width="1" height="1" fill="#a2cb4d" />
,<rect x="0" y="8" width="1" height="1" fill="#7fb93a" />
,<rect x="0" y="9" width="1" height="1" fill="#000000" />
,<rect x="1" y="0" width="1" height="1" fill="#92c644" />
,<rect x="1" y="1" width="1" height="1" fill="#b8d45a" />
,<rect x="1" y="2" width="1" height="1" fill="#dfdf75" />
,<rect x="1" y="3" width="1" height="1" fill="#efe580" />
,<rect x="1" y="4" width="1" height="1" fill="#d9dd71" />
,<rect x="1" y="5" width="1" height="1" fill="#ceda6b" />
,<rect x="1" y="6" width="1" height="1" fill="#c4d764" />
,<rect x="1" y="7" width="1" height="1" fill="#9fcb4a" />
,<rect x="1" y="8" width="1" height="1" fill="#8ac43b" />
,<rect x="1" y="9" width="1" height="1" fill="#80cc33" />
,<rect x="2" y="0" width="1" height="1" fill="#b9d45b" />
,<rect x="2" y="1" width="1" height="1" fill="#dfe075" />
,<rect x="2" y="2" width="1" height="1" fill="#efe480" />
,<rect x="2" y="3" width="1" height="1" fill="#a1cc4d" />
,<rect x="2" y="4" width="1" height="1" fill="#95c844" />
,<rect x="2" y="5" width="1" height="1" fill="#8ec641" />
,<rect x="2" y="6" width="1" height="1" fill="#8bc53f" />
,<rect x="2" y="7" width="1" height="1" fill="#8cc53e" />
,<rect x="2" y="8" width="1" height="1" fill="#8ac43d" />
,<rect x="2" y="9" width="1" height="1" fill="#88c53a" />
,<rect x="3" y="0" width="1" height="1" fill="#dbdf73" />
,<rect x="3" y="1" width="1" height="1" fill="#fae988" />
,<rect x="3" y="2" width="1" height="1" fill="#c7d766" />
,<rect x="3" y="3" width="1" height="1" fill="#a0c86b" />
,<rect x="3" y="4" width="1" height="1" fill="#99c55b" />
,<rect x="3" y="5" width="1" height="1" fill="#8bc53f" />
,<rect x="3" y="6" width="1" height="1" fill="#8bc53f" />
,<rect x="3" y="7" width="1" height="1" fill="#8cc63f" />
,<rect x="3" y="8" width="1" height="1" fill="#8cc63f" />
,<rect x="3" y="9" width="1" height="1" fill="#8cc33e" />
,<rect x="4" y="0" width="1" height="1" fill="#eae47f" />
,<rect x="4" y="1" width="1" height="1" fill="#fae988" />
,<rect x="4" y="2" width="1" height="1" fill="#bfd665" />
,<rect x="4" y="3" width="1" height="1" fill="#9ea399" />
,<rect x="4" y="4" width="1" height="1" fill="#879f6a" />
,<rect x="4" y="5" width="1" height="1" fill="#8bc43f" />
,<rect x="4" y="6" width="1" height="1" fill="#8bc53f" />
,<rect x="4" y="7" width="1" height="1" fill="#8cc63f" />
,<rect x="4" y="8" width="1" height="1" fill="#8cc63f" />
,<rect x="4" y="9" width="1" height="1" fill="#8bc53f" />
,<rect x="5" y="0" width="1" height="1" fill="#e4e489" />
,<rect x="5" y="1" width="1" height="1" fill="#fae98b" />
,<rect x="5" y="2" width="1" height="1" fill="#b1d061" />
,<rect x="5" y="3" width="1" height="1" fill="#a0ca68" />
,<rect x="5" y="4" width="1" height="1" fill="#99c85a" />
,<rect x="5" y="5" width="1" height="1" fill="#81b242" />
,<rect x="5" y="6" width="1" height="1" fill="#89c33f" />
,<rect x="5" y="7" width="1" height="1" fill="#8cc63f" />
,<rect x="5" y="8" width="1" height="1" fill="#99c947" />
,<rect x="5" y="9" width="1" height="1" fill="#9ac948" />
,<rect x="6" y="0" width="1" height="1" fill="#cedd82" />
,<rect x="6" y="1" width="1" height="1" fill="#faea9c" />
,<rect x="6" y="2" width="1" height="1" fill="#ebe380" />
,<rect x="6" y="3" width="1" height="1" fill="#8cc63f" />
,<rect x="6" y="4" width="1" height="1" fill="#8cc63f" />
,<rect x="6" y="5" width="1" height="1" fill="#7da944" />
,<rect x="6" y="6" width="1" height="1" fill="#89c23f" />
,<rect x="6" y="7" width="1" height="1" fill="#cdd869" />
,<rect x="6" y="8" width="1" height="1" fill="#f2e683" />
,<rect x="6" y="9" width="1" height="1" fill="#b4d25a" />
,<rect x="7" y="0" width="1" height="1" fill="#b4d562" />
,<rect x="7" y="1" width="1" height="1" fill="#dfe282" />
,<rect x="7" y="2" width="1" height="1" fill="#f8e889" />
,<rect x="7" y="3" width="1" height="1" fill="#bad35c" />
,<rect x="7" y="4" width="1" height="1" fill="#92c94b" />
,<rect x="7" y="5" width="1" height="1" fill="#9cc852" />
,<rect x="7" y="6" width="1" height="1" fill="#dcdd73" />
,<rect x="7" y="7" width="1" height="1" fill="#f8e786" />
,<rect x="7" y="8" width="1" height="1" fill="#dfe075" />
,<rect x="7" y="9" width="1" height="1" fill="#aacf4e" />
,<rect x="8" y="0" width="1" height="1" fill="#90c837" />
,<rect x="8" y="1" width="1" height="1" fill="#b9d465" />
,<rect x="8" y="2" width="1" height="1" fill="#e0e288" />
,<rect x="8" y="3" width="1" height="1" fill="#e9e699" />
,<rect x="8" y="4" width="1" height="1" fill="#bcd567" />
,<rect x="8" y="5" width="1" height="1" fill="#dadb74" />
,<rect x="8" y="6" width="1" height="1" fill="#f8e786" />
,<rect x="8" y="7" width="1" height="1" fill="#e0e076" />
,<rect x="8" y="8" width="1" height="1" fill="#b8d45c" />
,<rect x="8" y="9" width="1" height="1" fill="#99cc33" />
,<rect x="9" y="0" width="1" height="1" fill="#000000" />
,<rect x="9" y="1" width="1" height="1" fill="#99cc4d" />
,<rect x="9" y="2" width="1" height="1" fill="#a5cf57" />
,<rect x="9" y="3" width="1" height="1" fill="#b8d468" />
,<rect x="9" y="4" width="1" height="1" fill="#c3da74" />
,<rect x="9" y="5" width="1" height="1" fill="#c6d869" />
,<rect x="9" y="6" width="1" height="1" fill="#b8d35b" />
,<rect x="9" y="7" width="1" height="1" fill="#a6cd4f" />
,<rect x="9" y="8" width="1" height="1" fill="#99cc4d" />
,<rect x="9" y="9" width="1" height="1" fill="#000000" />

  </g>
</svg>