<svg width="800" height="1000" xmlns="http://www.w3.org/2000/svg"><defs><linearGradient id="g" x1="0" x2="1" y1="0" y2="1"><stop offset="0%" stop-color="#2d3c96"/><stop offset="100%" stop-color="#d53392"/></linearGradient></defs><rect x="10" y="10" width="780" height="980" fill="url(#g)" rx="50" ry="50" stroke="gold" stroke-width="20"/><text x="400" y="920" width="780" text-anchor="middle" style="font:bold 200px 'Helvetica Neue';fill:gold">00057</text><g transform="translate(80 80) scale(64)"><rect x="0" y="0" width="1" height="1" fill="#fffffe" /><rect x="0" y="1" width="1" height="1" fill="#f8f8f9" /><rect x="0" y="2" width="1" height="1" fill="#868687" /><rect x="0" y="3" width="1" height="1" fill="#262726" /><rect x="0" y="4" width="1" height="1" fill="#040505" /><rect x="0" y="5" width="1" height="1" fill="#000000" /><rect x="0" y="6" width="1" height="1" fill="#010001" /><rect x="0" y="7" width="1" height="1" fill="#010000" /><rect x="0" y="8" width="1" height="1" fill="#000001" /><rect x="0" y="9" width="1" height="1" fill="#010000" /><rect x="1" y="0" width="1" height="1" fill="#f8f9f8" /><rect x="1" y="1" width="1" height="1" fill="#434343" /><rect x="1" y="2" width="1" height="1" fill="#000100" /><rect x="1" y="3" width="1" height="1" fill="#010001" /><rect x="1" y="4" width="1" height="1" fill="#000100" /><rect x="1" y="5" width="1" height="1" fill="#010101" /><rect x="1" y="6" width="1" height="1" fill="#010000" /><rect x="1" y="7" width="1" height="1" fill="#000000" /><rect x="1" y="8" width="1" height="1" fill="#010100" /><rect x="1" y="9" width="1" height="1" fill="#000101" /><rect x="2" y="0" width="1" height="1" fill="#878786" /><rect x="2" y="1" width="1" height="1" fill="#000000" /><rect x="2" y="2" width="1" height="1" fill="#000000" /><rect x="2" y="3" width="1" height="1" fill="#010101" /><rect x="2" y="4" width="1" height="1" fill="#000101" /><rect x="2" y="5" width="1" height="1" fill="#010000" /><rect x="2" y="6" width="1" height="1" fill="#000100" /><rect x="2" y="7" width="1" height="1" fill="#000001" /><rect x="2" y="8" width="1" height="1" fill="#010000" /><rect x="2" y="9" width="1" height="1" fill="#000001" /><rect x="3" y="0" width="1" height="1" fill="#272726" /><rect x="3" y="1" width="1" height="1" fill="#000001" /><rect x="3" y="2" width="1" height="1" fill="#010101" /><rect x="3" y="3" width="1" height="1" fill="#010100" /><rect x="3" y="4" width="1" height="1" fill="#000101" /><rect x="3" y="5" width="1" height="1" fill="#000100" /><rect x="3" y="6" width="1" height="1" fill="#010000" /><rect x="3" y="7" width="1" height="1" fill="#010100" /><rect x="3" y="8" width="1" height="1" fill="#010100" /><rect x="3" y="9" width="1" height="1" fill="#010001" /><rect x="4" y="0" width="1" height="1" fill="#040504" /><rect x="4" y="1" width="1" height="1" fill="#000100" /><rect x="4" y="2" width="1" height="1" fill="#000001" /><rect x="4" y="3" width="1" height="1" fill="#010001" /><rect x="4" y="4" width="1" height="1" fill="#010100" /><rect x="4" y="5" width="1" height="1" fill="#010101" /><rect x="4" y="6" width="1" height="1" fill="#000001" /><rect x="4" y="7" width="1" height="1" fill="#010000" /><rect x="4" y="8" width="1" height="1" fill="#000101" /><rect x="4" y="9" width="1" height="1" fill="#000101" /><rect x="5" y="0" width="1" height="1" fill="#010000" /><rect x="5" y="1" width="1" height="1" fill="#000101" /><rect x="5" y="2" width="1" height="1" fill="#010101" /><rect x="5" y="3" width="1" height="1" fill="#010101" /><rect x="5" y="4" width="1" height="1" fill="#000000" /><rect x="5" y="5" width="1" height="1" fill="#010001" /><rect x="5" y="6" width="1" height="1" fill="#000101" /><rect x="5" y="7" width="1" height="1" fill="#010101" /><rect x="5" y="8" width="1" height="1" fill="#252524" /><rect x="5" y="9" width="1" height="1" fill="#b5a7a6" /><rect x="6" y="0" width="1" height="1" fill="#000101" /><rect x="6" y="1" width="1" height="1" fill="#010001" /><rect x="6" y="2" width="1" height="1" fill="#010100" /><rect x="6" y="3" width="1" height="1" fill="#000101" /><rect x="6" y="4" width="1" height="1" fill="#010101" /><rect x="6" y="5" width="1" height="1" fill="#010000" /><rect x="6" y="6" width="1" height="1" fill="#1b1a1a" /><rect x="6" y="7" width="1" height="1" fill="#a39898" /><rect x="6" y="8" width="1" height="1" fill="#f3dfdf" /><rect x="6" y="9" width="1" height="1" fill="#fc6362" /><rect x="7" y="0" width="1" height="1" fill="#000001" /><rect x="7" y="1" width="1" height="1" fill="#000000" /><rect x="7" y="2" width="1" height="1" fill="#010100" /><rect x="7" y="3" width="1" height="1" fill="#010100" /><rect x="7" y="4" width="1" height="1" fill="#121212" /><rect x="7" y="5" width="1" height="1" fill="#928888" /><rect x="7" y="6" width="1" height="1" fill="#f1e0e1" /><rect x="7" y="7" width="1" height="1" fill="#fa7170" /><rect x="7" y="8" width="1" height="1" fill="#ff0909" /><rect x="7" y="9" width="1" height="1" fill="#fe0101" /><rect x="8" y="0" width="1" height="1" fill="#010101" /><rect x="8" y="1" width="1" height="1" fill="#010101" /><rect x="8" y="2" width="1" height="1" fill="#000000" /><rect x="8" y="3" width="1" height="1" fill="#383939" /><rect x="8" y="4" width="1" height="1" fill="#eadddd" /><rect x="8" y="5" width="1" height="1" fill="#f98080" /><rect x="8" y="6" width="1" height="1" fill="#ff0d0d" /><rect x="8" y="7" width="1" height="1" fill="#fe0001" /><rect x="8" y="8" width="1" height="1" fill="#ff0001" /><rect x="8" y="9" width="1" height="1" fill="#fe1110" /><rect x="9" y="0" width="1" height="1" fill="#010100" /><rect x="9" y="1" width="1" height="1" fill="#000101" /><rect x="9" y="2" width="1" height="1" fill="#1c1c1c" /><rect x="9" y="3" width="1" height="1" fill="#efdedf" /><rect x="9" y="4" width="1" height="1" fill="#fe3233" /><rect x="9" y="5" width="1" height="1" fill="#fe0001" /><rect x="9" y="6" width="1" height="1" fill="#ff0100" /><rect x="9" y="7" width="1" height="1" fill="#fe0a0a" /><rect x="9" y="8" width="1" height="1" fill="#f87a7b" /><rect x="9" y="9" width="1" height="1" fill="#f1e3e3" /></g></svg>