<svg width="800" height="1000" version="1.1" xmlns="http://www.w3.org/2000/svg" xmlns:xlink="http://www.w3.org/1999/xlink">
  <defs>
      <linearGradient id="Gradient2" x1="0" x2="1" y1="0" y2="1">
        <stop offset="0%" stop-color="#2d3c96"/>
        <stop offset="100%" stop-color="#d53392"/>
      </linearGradient>
  </defs>
  <rect x="10" y="10" width="780" height="980" fill="url(#Gradient2)" rx="50" ry="50" stroke="#ffd700" stroke-width="20"/>
  <text x="400" y="920" width="780" text-anchor="middle" style="font: bold 200px 'Helvetica Neue'; fill: #ffd700">00066</text>

  <g transform="translate(80 80) scale(64)">
<rect x="0" y="0" width="1" height="1" fill="#000000" /><rect x="1" y="0" width="1" height="1" fill="#000000" /><rect x="2" y="0" width="1" height="1" fill="#000000" /><rect x="3" y="0" width="1" height="1" fill="#000000" /><rect x="4" y="0" width="1" height="1" fill="#000000" /><rect x="5" y="0" width="1" height="1" fill="#000000" /><rect x="6" y="0" width="1" height="1" fill="#000000" /><rect x="7" y="0" width="1" height="1" fill="#000000" /><rect x="8" y="0" width="1" height="1" fill="#000000" /><rect x="9" y="0" width="1" height="1" fill="#000000" /><rect x="0" y="1" width="1" height="1" fill="#000000" /><rect x="1" y="1" width="1" height="1" fill="#000000" /><rect x="2" y="1" width="1" height="1" fill="#000000" /><rect x="3" y="1" width="1" height="1" fill="#000000" /><rect x="4" y="1" width="1" height="1" fill="#000000" /><rect x="5" y="1" width="1" height="1" fill="#000000" /><rect x="6" y="1" width="1" height="1" fill="#000000" /><rect x="7" y="1" width="1" height="1" fill="#000000" /><rect x="8" y="1" width="1" height="1" fill="#000000" /><rect x="9" y="1" width="1" height="1" fill="#000000" /><rect x="0" y="2" width="1" height="1" fill="#000000" /><rect x="1" y="2" width="1" height="1" fill="#000000" /><rect x="2" y="2" width="1" height="1" fill="#000000" /><rect x="3" y="2" width="1" height="1" fill="#000000" /><rect x="4" y="2" width="1" height="1" fill="#000000" /><rect x="5" y="2" width="1" height="1" fill="#000000" /><rect x="6" y="2" width="1" height="1" fill="#000000" /><rect x="7" y="2" width="1" height="1" fill="#000000" /><rect x="8" y="2" width="1" height="1" fill="#353535" /><rect x="9" y="2" width="1" height="1" fill="#BEBEBE" /><rect x="0" y="3" width="1" height="1" fill="#000000" /><rect x="1" y="3" width="1" height="1" fill="#000000" /><rect x="2" y="3" width="1" height="1" fill="#000000" /><rect x="3" y="3" width="1" height="1" fill="#000000" /><rect x="4" y="3" width="1" height="1" fill="#000000" /><rect x="5" y="3" width="1" height="1" fill="#000000" /><rect x="6" y="3" width="1" height="1" fill="#000000" /><rect x="7" y="3" width="1" height="1" fill="#636363" /><rect x="8" y="3" width="1" height="1" fill="#E3E3E3" /><rect x="9" y="3" width="1" height="1" fill="#959595" /><rect x="0" y="4" width="1" height="1" fill="#000000" /><rect x="1" y="4" width="1" height="1" fill="#000000" /><rect x="2" y="4" width="1" height="1" fill="#000000" /><rect x="3" y="4" width="1" height="1" fill="#000000" /><rect x="4" y="4" width="1" height="1" fill="#000000" /><rect x="5" y="4" width="1" height="1" fill="#000000" /><rect x="6" y="4" width="1" height="1" fill="#353535" /><rect x="7" y="4" width="1" height="1" fill="#E3E3E3" /><rect x="8" y="4" width="1" height="1" fill="#767676" /><rect x="9" y="4" width="1" height="1" fill="#6A6A6A" /><rect x="0" y="5" width="1" height="1" fill="#000000" /><rect x="1" y="5" width="1" height="1" fill="#000000" /><rect x="2" y="5" width="1" height="1" fill="#000000" /><rect x="3" y="5" width="1" height="1" fill="#000000" /><rect x="4" y="5" width="1" height="1" fill="#000000" /><rect x="5" y="5" width="1" height="1" fill="#000000" /><rect x="6" y="5" width="1" height="1" fill="#C8C8C8" /><rect x="7" y="5" width="1" height="1" fill="#939393" /><rect x="8" y="5" width="1" height="1" fill="#6A6A6A" /><rect x="9" y="5" width="1" height="1" fill="#717171" /><rect x="0" y="6" width="1" height="1" fill="#000000" /><rect x="1" y="6" width="1" height="1" fill="#000000" /><rect x="2" y="6" width="1" height="1" fill="#000000" /><rect x="3" y="6" width="1" height="1" fill="#000000" /><rect x="4" y="6" width="1" height="1" fill="#000000" /><rect x="5" y="6" width="1" height="1" fill="#4A4A4A" /><rect x="6" y="6" width="1" height="1" fill="#D3D3D3" /><rect x="7" y="6" width="1" height="1" fill="#6A6A6A" /><rect x="8" y="6" width="1" height="1" fill="#6A6A6A" /><rect x="9" y="6" width="1" height="1" fill="#C0C0C0" /><rect x="0" y="7" width="1" height="1" fill="#000000" /><rect x="1" y="7" width="1" height="1" fill="#000000" /><rect x="2" y="7" width="1" height="1" fill="#000000" /><rect x="3" y="7" width="1" height="1" fill="#000000" /><rect x="4" y="7" width="1" height="1" fill="#020202" /><rect x="5" y="7" width="1" height="1" fill="#D4D4D4" /><rect x="6" y="7" width="1" height="1" fill="#8B8B8B" /><rect x="7" y="7" width="1" height="1" fill="#6A6A6A" /><rect x="8" y="7" width="1" height="1" fill="#848484" /><rect x="9" y="7" width="1" height="1" fill="#DEDEDE" /><rect x="0" y="8" width="1" height="1" fill="#000000" /><rect x="1" y="8" width="1" height="1" fill="#000000" /><rect x="2" y="8" width="1" height="1" fill="#000000" /><rect x="3" y="8" width="1" height="1" fill="#000000" /><rect x="4" y="8" width="1" height="1" fill="#5A5A5A" /><rect x="5" y="8" width="1" height="1" fill="#CBCBCB" /><rect x="6" y="8" width="1" height="1" fill="#6A6A6A" /><rect x="7" y="8" width="1" height="1" fill="#6A6A6A" /><rect x="8" y="8" width="1" height="1" fill="#CDCDCD" /><rect x="9" y="8" width="1" height="1" fill="#585858" /><rect x="0" y="9" width="1" height="1" fill="#000000" /><rect x="1" y="9" width="1" height="1" fill="#000000" /><rect x="2" y="9" width="1" height="1" fill="#000000" /><rect x="3" y="9" width="1" height="1" fill="#050505" /><rect x="4" y="9" width="1" height="1" fill="#DEDEDE" /><rect x="5" y="9" width="1" height="1" fill="#848484" /><rect x="6" y="9" width="1" height="1" fill="#6A6A6A" /><rect x="7" y="9" width="1" height="1" fill="#8D8D8D" /><rect x="8" y="9" width="1" height="1" fill="#D2D2D2" /><rect x="9" y="9" width="1" height="1" fill="#010101" />
  </g>
</svg>