<svg width="800" height="1000" xmlns="http://www.w3.org/2000/svg"><defs><linearGradient id="g" x1="0" x2="1" y1="0" y2="1"><stop offset="0%" stop-color="#2d3c96"/><stop offset="100%" stop-color="#d53392"/></linearGradient></defs><rect x="10" y="10" width="780" height="980" fill="url(#g)" rx="50" ry="50" stroke="gold" stroke-width="20"/><text x="400" y="920" width="780" text-anchor="middle" style="font:bold 200px 'Helvetica Neue';fill:gold">00068</text><g transform="translate(80 80) scale(64)"><rect x="0" y="0" width="1" height="1" fill="#1966fb" /><rect x="0" y="1" width="1" height="1" fill="#1962f1" /><rect x="0" y="2" width="1" height="1" fill="#185ee8" /><rect x="0" y="3" width="1" height="1" fill="#175adf" /><rect x="0" y="4" width="1" height="1" fill="#1657d5" /><rect x="0" y="5" width="1" height="1" fill="#1553cc" /><rect x="0" y="6" width="1" height="1" fill="#144fc3" /><rect x="0" y="7" width="1" height="1" fill="#002133" /><rect x="0" y="8" width="1" height="1" fill="#002133" /><rect x="0" y="9" width="1" height="1" fill="#66caff" /><rect x="1" y="0" width="1" height="1" fill="#1a65fa" /><rect x="1" y="1" width="1" height="1" fill="#1961f2" /><rect x="1" y="2" width="1" height="1" fill="#185ee8" /><rect x="1" y="3" width="1" height="1" fill="#175ade" /><rect x="1" y="4" width="1" height="1" fill="#1657d6" /><rect x="1" y="5" width="1" height="1" fill="#1552cc" /><rect x="1" y="6" width="1" height="1" fill="#144fc3" /><rect x="1" y="7" width="1" height="1" fill="#134bba" /><rect x="1" y="8" width="1" height="1" fill="#002133" /><rect x="1" y="9" width="1" height="1" fill="#002133" /><rect x="2" y="0" width="1" height="1" fill="#1a65fb" /><rect x="2" y="1" width="1" height="1" fill="#1961f1" /><rect x="2" y="2" width="1" height="1" fill="#185de8" /><rect x="2" y="3" width="1" height="1" fill="#175adf" /><rect x="2" y="4" width="1" height="1" fill="#1656d6" /><rect x="2" y="5" width="1" height="1" fill="#002133" /><rect x="2" y="6" width="1" height="1" fill="#002133" /><rect x="2" y="7" width="1" height="1" fill="#002133" /><rect x="2" y="8" width="1" height="1" fill="#1248b1" /><rect x="2" y="9" width="1" height="1" fill="#1144a7" /><rect x="3" y="0" width="1" height="1" fill="#1a65fa" /><rect x="3" y="1" width="1" height="1" fill="#1862f2" /><rect x="3" y="2" width="1" height="1" fill="#175ee8" /><rect x="3" y="3" width="1" height="1" fill="#175adf" /><rect x="3" y="4" width="1" height="1" fill="#1657d6" /><rect x="3" y="5" width="1" height="1" fill="#002133" /><rect x="3" y="6" width="1" height="1" fill="#66caff" /><rect x="3" y="7" width="1" height="1" fill="#002133" /><rect x="3" y="8" width="1" height="1" fill="#002133" /><rect x="3" y="9" width="1" height="1" fill="#002133" /><rect x="4" y="0" width="1" height="1" fill="#1a65fa" /><rect x="4" y="1" width="1" height="1" fill="#1962f2" /><rect x="4" y="2" width="1" height="1" fill="#175ee8" /><rect x="4" y="3" width="1" height="1" fill="#175adf" /><rect x="4" y="4" width="1" height="1" fill="#1756d6" /><rect x="4" y="5" width="1" height="1" fill="#002133" /><rect x="4" y="6" width="1" height="1" fill="#002133" /><rect x="4" y="7" width="1" height="1" fill="#66caff" /><rect x="4" y="8" width="1" height="1" fill="#66caff" /><rect x="4" y="9" width="1" height="1" fill="#99ffde" /><rect x="5" y="0" width="1" height="1" fill="#1a66fa" /><rect x="5" y="1" width="1" height="1" fill="#1962f2" /><rect x="5" y="2" width="1" height="1" fill="#185ee8" /><rect x="5" y="3" width="1" height="1" fill="#175bdf" /><rect x="5" y="4" width="1" height="1" fill="#1656d5" /><rect x="5" y="5" width="1" height="1" fill="#1553cd" /><rect x="5" y="6" width="1" height="1" fill="#1550c4" /><rect x="5" y="7" width="1" height="1" fill="#002133" /><rect x="5" y="8" width="1" height="1" fill="#002133" /><rect x="5" y="9" width="1" height="1" fill="#002133" /><rect x="6" y="0" width="1" height="1" fill="#1966fa" /><rect x="6" y="1" width="1" height="1" fill="#1962f1" /><rect x="6" y="2" width="1" height="1" fill="#185ee8" /><rect x="6" y="3" width="1" height="1" fill="#175bdf" /><rect x="6" y="4" width="1" height="1" fill="#1657d6" /><rect x="6" y="5" width="1" height="1" fill="#1553cc" /><rect x="6" y="6" width="1" height="1" fill="#144fc3" /><rect x="6" y="7" width="1" height="1" fill="#134ab7" /><rect x="6" y="8" width="1" height="1" fill="#1246ae" /><rect x="6" y="9" width="1" height="1" fill="#1143a5" /><rect x="7" y="0" width="1" height="1" fill="#1965fa" /><rect x="7" y="1" width="1" height="1" fill="#1862f1" /><rect x="7" y="2" width="1" height="1" fill="#185ee8" /><rect x="7" y="3" width="1" height="1" fill="#1659dc" /><rect x="7" y="4" width="1" height="1" fill="#1656d3" /><rect x="7" y="5" width="1" height="1" fill="#1552ca" /><rect x="7" y="6" width="1" height="1" fill="#144ec1" /><rect x="7" y="7" width="1" height="1" fill="#134ab8" /><rect x="7" y="8" width="1" height="1" fill="#1246af" /><rect x="7" y="9" width="1" height="1" fill="#1143a5" /><rect x="8" y="0" width="1" height="1" fill="#1964f8" /><rect x="8" y="1" width="1" height="1" fill="#1960ef" /><rect x="8" y="2" width="1" height="1" fill="#185de5" /><rect x="8" y="3" width="1" height="1" fill="#1759dd" /><rect x="8" y="4" width="1" height="1" fill="#1655d3" /><rect x="8" y="5" width="1" height="1" fill="#1552ca" /><rect x="8" y="6" width="1" height="1" fill="#144ec1" /><rect x="8" y="7" width="1" height="1" fill="#134ab7" /><rect x="8" y="8" width="1" height="1" fill="#1247ae" /><rect x="8" y="9" width="1" height="1" fill="#1143a6" /><rect x="9" y="0" width="1" height="1" fill="#1a65f8" /><rect x="9" y="1" width="1" height="1" fill="#1961ef" /><rect x="9" y="2" width="1" height="1" fill="#185de5" /><rect x="9" y="3" width="1" height="1" fill="#1659dd" /><rect x="9" y="4" width="1" height="1" fill="#1655d4" /><rect x="9" y="5" width="1" height="1" fill="#1552ca" /><rect x="9" y="6" width="1" height="1" fill="#144ec1" /><rect x="9" y="7" width="1" height="1" fill="#134ab7" /><rect x="9" y="8" width="1" height="1" fill="#1247af" /><rect x="9" y="9" width="1" height="1" fill="#1143a6" /></g></svg>