<svg width="800" height="1000" version="1.1" xmlns="http://www.w3.org/2000/svg" xmlns:xlink="http://www.w3.org/1999/xlink">
  <defs>
      <linearGradient id="Gradient2" x1="0" x2="1" y1="0" y2="1">
        <stop offset="0%" stop-color="#2d3c96"/>
        <stop offset="100%" stop-color="#d53392"/>
      </linearGradient>
  </defs>
  <rect x="10" y="10" width="780" height="980" fill="url(#Gradient2)" rx="50" ry="50" stroke="#ffd700" stroke-width="20"/>
  <text x="400" y="920" width="780" text-anchor="middle" style="font: bold 200px 'Helvetica Neue'; fill: #ffd700">00107</text>

  <g transform="translate(80 80) scale(64)">
<rect x="0" y="0" width="1" height="1" fill="#80CDFA" /><rect x="1" y="0" width="1" height="1" fill="#A1D2F2" /><rect x="2" y="0" width="1" height="1" fill="#5F6A7A" /><rect x="3" y="0" width="1" height="1" fill="#072833" /><rect x="4" y="0" width="1" height="1" fill="#6B7489" /><rect x="5" y="0" width="1" height="1" fill="#CADDEF" /><rect x="6" y="0" width="1" height="1" fill="#BDD2E4" /><rect x="7" y="0" width="1" height="1" fill="#7B98A7" /><rect x="8" y="0" width="1" height="1" fill="#7793A1" /><rect x="9" y="0" width="1" height="1" fill="#335A60" /><rect x="0" y="1" width="1" height="1" fill="#62A3C7" /><rect x="1" y="1" width="1" height="1" fill="#90DEFF" /><rect x="2" y="1" width="1" height="1" fill="#97D5F2" /><rect x="3" y="1" width="1" height="1" fill="#97C9E8" /><rect x="4" y="1" width="1" height="1" fill="#A6D8F5" /><rect x="5" y="1" width="1" height="1" fill="#D5ECFE" /><rect x="6" y="1" width="1" height="1" fill="#849CAC" /><rect x="7" y="1" width="1" height="1" fill="#A9BDCC" /><rect x="8" y="1" width="1" height="1" fill="#8DA9B9" /><rect x="9" y="1" width="1" height="1" fill="#2D555C" /><rect x="0" y="2" width="1" height="1" fill="#87ACBA" /><rect x="1" y="2" width="1" height="1" fill="#61A1C2" /><rect x="2" y="2" width="1" height="1" fill="#7ECBF9" /><rect x="3" y="2" width="1" height="1" fill="#82D0FE" /><rect x="4" y="2" width="1" height="1" fill="#7CC8F4" /><rect x="5" y="2" width="1" height="1" fill="#5D99B8" /><rect x="6" y="2" width="1" height="1" fill="#7AA9C0" /><rect x="7" y="2" width="1" height="1" fill="#A8C7DE" /><rect x="8" y="2" width="1" height="1" fill="#123946" /><rect x="9" y="2" width="1" height="1" fill="#3C6368" /><rect x="0" y="3" width="1" height="1" fill="#93CEEB" /><rect x="1" y="3" width="1" height="1" fill="#90B3C6" /><rect x="2" y="3" width="1" height="1" fill="#6491A6" /><rect x="3" y="3" width="1" height="1" fill="#5F8CA5" /><rect x="4" y="3" width="1" height="1" fill="#648FA5" /><rect x="5" y="3" width="1" height="1" fill="#82B4CE" /><rect x="6" y="3" width="1" height="1" fill="#6FB3D7" /><rect x="7" y="3" width="1" height="1" fill="#37797B" /><rect x="8" y="3" width="1" height="1" fill="#37846C" /><rect x="9" y="3" width="1" height="1" fill="#385D66" /><rect x="0" y="4" width="1" height="1" fill="#2A6B77" /><rect x="1" y="4" width="1" height="1" fill="#2B6177" /><rect x="2" y="4" width="1" height="1" fill="#345A64" /><rect x="3" y="4" width="1" height="1" fill="#355661" /><rect x="4" y="4" width="1" height="1" fill="#355C66" /><rect x="5" y="4" width="1" height="1" fill="#2B5E76" /><rect x="6" y="4" width="1" height="1" fill="#36777B" /><rect x="7" y="4" width="1" height="1" fill="#65B895" /><rect x="8" y="4" width="1" height="1" fill="#124D49" /><rect x="9" y="4" width="1" height="1" fill="#3F5C64" /><rect x="0" y="5" width="1" height="1" fill="#133F3C" /><rect x="1" y="5" width="1" height="1" fill="#000B15" /><rect x="2" y="5" width="1" height="1" fill="#001720" /><rect x="3" y="5" width="1" height="1" fill="#00151E" /><rect x="4" y="5" width="1" height="1" fill="#00141E" /><rect x="5" y="5" width="1" height="1" fill="#000D14" /><rect x="6" y="5" width="1" height="1" fill="#063332" /><rect x="7" y="5" width="1" height="1" fill="#0F4944" /><rect x="8" y="5" width="1" height="1" fill="#253F4C" /><rect x="9" y="5" width="1" height="1" fill="#C1D2D6" /><rect x="0" y="6" width="1" height="1" fill="#033136" /><rect x="1" y="6" width="1" height="1" fill="#8DA9AE" /><rect x="2" y="6" width="1" height="1" fill="#AFC3C8" /><rect x="3" y="6" width="1" height="1" fill="#AABEC5" /><rect x="4" y="6" width="1" height="1" fill="#AAC0C4" /><rect x="5" y="6" width="1" height="1" fill="#ADC0C4" /><rect x="6" y="6" width="1" height="1" fill="#A8BDC2" /><rect x="7" y="6" width="1" height="1" fill="#A1B3B9" /><rect x="8" y="6" width="1" height="1" fill="#CDDADC" /><rect x="9" y="6" width="1" height="1" fill="#FFFEFE" /><rect x="0" y="7" width="1" height="1" fill="#BACBCF" /><rect x="1" y="7" width="1" height="1" fill="#F5F9F8" /><rect x="2" y="7" width="1" height="1" fill="#FFFEFE" /><rect x="3" y="7" width="1" height="1" fill="#FEFFFE" /><rect x="4" y="7" width="1" height="1" fill="#FFFEFF" /><rect x="5" y="7" width="1" height="1" fill="#FFFFFF" /><rect x="6" y="7" width="1" height="1" fill="#FEFFFE" /><rect x="7" y="7" width="1" height="1" fill="#FFFFFF" /><rect x="8" y="7" width="1" height="1" fill="#FEFEFE" /><rect x="9" y="7" width="1" height="1" fill="#FDFCFD" /><rect x="0" y="8" width="1" height="1" fill="#FEFEFF" /><rect x="1" y="8" width="1" height="1" fill="#FCFDFC" /><rect x="2" y="8" width="1" height="1" fill="#FDFDFD" /><rect x="3" y="8" width="1" height="1" fill="#FDFCFC" /><rect x="4" y="8" width="1" height="1" fill="#FCFCFC" /><rect x="5" y="8" width="1" height="1" fill="#FCFDFC" /><rect x="6" y="8" width="1" height="1" fill="#FDFCFC" /><rect x="7" y="8" width="1" height="1" fill="#FCFDFC" /><rect x="8" y="8" width="1" height="1" fill="#FCFCFC" /><rect x="9" y="8" width="1" height="1" fill="#FFFFFF" /><rect x="0" y="9" width="1" height="1" fill="#FCFDFC" /><rect x="1" y="9" width="1" height="1" fill="#FEFEFE" /><rect x="2" y="9" width="1" height="1" fill="#FFFFFF" /><rect x="3" y="9" width="1" height="1" fill="#FEFFFF" /><rect x="4" y="9" width="1" height="1" fill="#FEFFFF" /><rect x="5" y="9" width="1" height="1" fill="#FEFFFE" /><rect x="6" y="9" width="1" height="1" fill="#FFFEFF" /><rect x="7" y="9" width="1" height="1" fill="#FFFEFE" /><rect x="8" y="9" width="1" height="1" fill="#FFFEFF" /><rect x="9" y="9" width="1" height="1" fill="#FEFFFE" />
  </g>
</svg>