<svg width="800" height="1000" version="1.1" xmlns="http://www.w3.org/2000/svg" xmlns:xlink="http://www.w3.org/1999/xlink">
  <defs>
      <linearGradient id="Gradient2" x1="0" x2="1" y1="0" y2="1">
        <stop offset="0%" stop-color="#2d3c96"/>
        <stop offset="100%" stop-color="#d53392"/>
      </linearGradient>
  </defs>
  <rect x="10" y="10" width="780" height="980" fill="url(#Gradient2)" rx="50" ry="50" stroke="#ffd700" stroke-width="20"/>
  <text x="400" y="920" width="780" text-anchor="middle" style="font: bold 200px 'Helvetica Neue'; fill: #ffd700">00106</text>

  <g transform="translate(80 80) scale(64)">
<rect x="0" y="0" width="1" height="1" fill="#6a7f86" />
,<rect x="0" y="1" width="1" height="1" fill="#677f85" />
,<rect x="0" y="2" width="1" height="1" fill="#657d85" />
,<rect x="0" y="3" width="1" height="1" fill="#6d858c" />
,<rect x="0" y="4" width="1" height="1" fill="#cfdfe1" />
,<rect x="0" y="5" width="1" height="1" fill="#fefeff" />
,<rect x="0" y="6" width="1" height="1" fill="#fcfdfc" />
,<rect x="0" y="7" width="1" height="1" fill="#fefffe" />
,<rect x="0" y="8" width="1" height="1" fill="#fefeff" />
,<rect x="0" y="9" width="1" height="1" fill="#fffeff" />
,<rect x="1" y="0" width="1" height="1" fill="#0e443e" />
,<rect x="1" y="1" width="1" height="1" fill="#2d858a" />
,<rect x="1" y="2" width="1" height="1" fill="#2f8280" />
,<rect x="1" y="3" width="1" height="1" fill="#00302c" />
,<rect x="1" y="4" width="1" height="1" fill="#3f5864" />
,<rect x="1" y="5" width="1" height="1" fill="#d8e7e9" />
,<rect x="1" y="6" width="1" height="1" fill="#fffffe" />
,<rect x="1" y="7" width="1" height="1" fill="#fcfcfd" />
,<rect x="1" y="8" width="1" height="1" fill="#ffffff" />
,<rect x="1" y="9" width="1" height="1" fill="#fefefe" />
,<rect x="2" y="0" width="1" height="1" fill="#86dfac" />
,<rect x="2" y="1" width="1" height="1" fill="#98fef0" />
,<rect x="2" y="2" width="1" height="1" fill="#a5fff1" />
,<rect x="2" y="3" width="1" height="1" fill="#7acbab" />
,<rect x="2" y="4" width="1" height="1" fill="#002729" />
,<rect x="2" y="5" width="1" height="1" fill="#3a5761" />
,<rect x="2" y="6" width="1" height="1" fill="#d8e6ea" />
,<rect x="2" y="7" width="1" height="1" fill="#fffefe" />
,<rect x="2" y="8" width="1" height="1" fill="#fdfeff" />
,<rect x="2" y="9" width="1" height="1" fill="#feffff" />
,<rect x="3" y="0" width="1" height="1" fill="#8af6dc" />
,<rect x="3" y="1" width="1" height="1" fill="#a0f8ca" />
,<rect x="3" y="2" width="1" height="1" fill="#5ba98d" />
,<rect x="3" y="3" width="1" height="1" fill="#8ae5ba" />
,<rect x="3" y="4" width="1" height="1" fill="#65cbc9" />
,<rect x="3" y="5" width="1" height="1" fill="#012132" />
,<rect x="3" y="6" width="1" height="1" fill="#38565d" />
,<rect x="3" y="7" width="1" height="1" fill="#d7e3e4" />
,<rect x="3" y="8" width="1" height="1" fill="#fefffe" />
,<rect x="3" y="9" width="1" height="1" fill="#fcfcfe" />
,<rect x="4" y="0" width="1" height="1" fill="#85efd2" />
,<rect x="4" y="1" width="1" height="1" fill="#afffde" />
,<rect x="4" y="2" width="1" height="1" fill="#2b6d65" />
,<rect x="4" y="3" width="1" height="1" fill="#083132" />
,<rect x="4" y="4" width="1" height="1" fill="#82ebd3" />
,<rect x="4" y="5" width="1" height="1" fill="#59c8d3" />
,<rect x="4" y="6" width="1" height="1" fill="#012a3a" />
,<rect x="4" y="7" width="1" height="1" fill="#b0c1c3" />
,<rect x="4" y="8" width="1" height="1" fill="#feffff" />
,<rect x="4" y="9" width="1" height="1" fill="#fdfdfd" />
,<rect x="5" y="0" width="1" height="1" fill="#a8fdcc" />
,<rect x="5" y="1" width="1" height="1" fill="#539c8b" />
,<rect x="5" y="2" width="1" height="1" fill="#47917c" />
,<rect x="5" y="3" width="1" height="1" fill="#77ada0" />
,<rect x="5" y="4" width="1" height="1" fill="#387d67" />
,<rect x="5" y="5" width="1" height="1" fill="#7de2c9" />
,<rect x="5" y="6" width="1" height="1" fill="#1b605f" />
,<rect x="5" y="7" width="1" height="1" fill="#afbdc3" />
,<rect x="5" y="8" width="1" height="1" fill="#fffefe" />
,<rect x="5" y="9" width="1" height="1" fill="#fcfdfd" />
,<rect x="6" y="0" width="1" height="1" fill="#93fdea" />
,<rect x="6" y="1" width="1" height="1" fill="#7fd8ac" />
,<rect x="6" y="2" width="1" height="1" fill="#8fe7c0" />
,<rect x="6" y="3" width="1" height="1" fill="#62c3b2" />
,<rect x="6" y="4" width="1" height="1" fill="#012a37" />
,<rect x="6" y="5" width="1" height="1" fill="#55b9bc" />
,<rect x="6" y="6" width="1" height="1" fill="#145d62" />
,<rect x="6" y="7" width="1" height="1" fill="#afbcc1" />
,<rect x="6" y="8" width="1" height="1" fill="#fefeff" />
,<rect x="6" y="9" width="1" height="1" fill="#fdfcfc" />
,<rect x="7" y="0" width="1" height="1" fill="#105b60" />
,<rect x="7" y="1" width="1" height="1" fill="#22554c" />
,<rect x="7" y="2" width="1" height="1" fill="#7cd1ac" />
,<rect x="7" y="3" width="1" height="1" fill="#309690" />
,<rect x="7" y="4" width="1" height="1" fill="#00192d" />
,<rect x="7" y="5" width="1" height="1" fill="#6eccb4" />
,<rect x="7" y="6" width="1" height="1" fill="#195d5c" />
,<rect x="7" y="7" width="1" height="1" fill="#acbdc2" />
,<rect x="7" y="8" width="1" height="1" fill="#fefffe" />
,<rect x="7" y="9" width="1" height="1" fill="#fdfdfd" />
,<rect x="8" y="0" width="1" height="1" fill="#7ba1b6" />
,<rect x="8" y="1" width="1" height="1" fill="#73aed5" />
,<rect x="8" y="2" width="1" height="1" fill="#337280" />
,<rect x="8" y="3" width="1" height="1" fill="#07383b" />
,<rect x="8" y="4" width="1" height="1" fill="#011f2a" />
,<rect x="8" y="5" width="1" height="1" fill="#5bc3c8" />
,<rect x="8" y="6" width="1" height="1" fill="#125b62" />
,<rect x="8" y="7" width="1" height="1" fill="#afbdc0" />
,<rect x="8" y="8" width="1" height="1" fill="#fefefe" />
,<rect x="8" y="9" width="1" height="1" fill="#fdfdfc" />
,<rect x="9" y="0" width="1" height="1" fill="#6899ac" />
,<rect x="9" y="1" width="1" height="1" fill="#8db1be" />
,<rect x="9" y="2" width="1" height="1" fill="#90cbe9" />
,<rect x="9" y="3" width="1" height="1" fill="#134861" />
,<rect x="9" y="4" width="1" height="1" fill="#519d81" />
,<rect x="9" y="5" width="1" height="1" fill="#95efdb" />
,<rect x="9" y="6" width="1" height="1" fill="#0f4f4f" />
,<rect x="9" y="7" width="1" height="1" fill="#afbdc2" />
,<rect x="9" y="8" width="1" height="1" fill="#fffeff" />
,<rect x="9" y="9" width="1" height="1" fill="#fdfcfd" />

  </g>
</svg>