<svg width="800" height="1000" xmlns="http://www.w3.org/2000/svg"><defs><linearGradient id="g" x1="0" x2="1" y1="0" y2="1"><stop offset="0%" stop-color="#2d3c96"/><stop offset="100%" stop-color="#d53392"/></linearGradient></defs><rect x="10" y="10" width="780" height="980" fill="url(#g)" rx="50" ry="50" stroke="gold" stroke-width="20"/><text x="400" y="920" width="780" text-anchor="middle" style="font:bold 200px 'Helvetica Neue';fill:gold">00101</text><g transform="translate(80 80) scale(64)"><rect x="0" y="0" width="1" height="1" fill="#2c45aa" /><rect x="0" y="1" width="1" height="1" fill="#3049ac" /><rect x="0" y="2" width="1" height="1" fill="#2d45a3" /><rect x="0" y="3" width="1" height="1" fill="#2d46a7" /><rect x="0" y="4" width="1" height="1" fill="#2f46a2" /><rect x="0" y="5" width="1" height="1" fill="#334cad" /><rect x="0" y="6" width="1" height="1" fill="#344bad" /><rect x="0" y="7" width="1" height="1" fill="#2c47a4" /><rect x="0" y="8" width="1" height="1" fill="#594b1e" /><rect x="0" y="9" width="1" height="1" fill="#bda21a" /><rect x="1" y="0" width="1" height="1" fill="#2c44a3" /><rect x="1" y="1" width="1" height="1" fill="#2d46a7" /><rect x="1" y="2" width="1" height="1" fill="#2f47ad" /><rect x="1" y="3" width="1" height="1" fill="#3149a8" /><rect x="1" y="4" width="1" height="1" fill="#3348a9" /><rect x="1" y="5" width="1" height="1" fill="#354ba7" /><rect x="1" y="6" width="1" height="1" fill="#3249a2" /><rect x="1" y="7" width="1" height="1" fill="#585026" /><rect x="1" y="8" width="1" height="1" fill="#c4a71d" /><rect x="1" y="9" width="1" height="1" fill="#c9ae20" /><rect x="2" y="0" width="1" height="1" fill="#2d44a1" /><rect x="2" y="1" width="1" height="1" fill="#2a409c" /><rect x="2" y="2" width="1" height="1" fill="#324aab" /><rect x="2" y="3" width="1" height="1" fill="#3046a6" /><rect x="2" y="4" width="1" height="1" fill="#364bad" /><rect x="2" y="5" width="1" height="1" fill="#344aa2" /><rect x="2" y="6" width="1" height="1" fill="#1a1416" /><rect x="2" y="7" width="1" height="1" fill="#bfa41b" /><rect x="2" y="8" width="1" height="1" fill="#c3a81d" /><rect x="2" y="9" width="1" height="1" fill="#c1a61e" /><rect x="3" y="0" width="1" height="1" fill="#1c191b" /><rect x="3" y="1" width="1" height="1" fill="#3348a0" /><rect x="3" y="2" width="1" height="1" fill="#2e4aa4" /><rect x="3" y="3" width="1" height="1" fill="#324aa6" /><rect x="3" y="4" width="1" height="1" fill="#3047a0" /><rect x="3" y="5" width="1" height="1" fill="#9b8e37" /><rect x="3" y="6" width="1" height="1" fill="#c9ad1f" /><rect x="3" y="7" width="1" height="1" fill="#bea61c" /><rect x="3" y="8" width="1" height="1" fill="#bda21a" /><rect x="3" y="9" width="1" height="1" fill="#897130" /><rect x="4" y="0" width="1" height="1" fill="#262218" /><rect x="4" y="1" width="1" height="1" fill="#473f09" /><rect x="4" y="2" width="1" height="1" fill="#b09a2d" /><rect x="4" y="3" width="1" height="1" fill="#c4b31f" /><rect x="4" y="4" width="1" height="1" fill="#c1a91d" /><rect x="4" y="5" width="1" height="1" fill="#c1a62c" /><rect x="4" y="6" width="1" height="1" fill="#bba019" /><rect x="4" y="7" width="1" height="1" fill="#b8a21b" /><rect x="4" y="8" width="1" height="1" fill="#230900" /><rect x="4" y="9" width="1" height="1" fill="#c7ab1d" /><rect x="5" y="0" width="1" height="1" fill="#6d591e" /><rect x="5" y="1" width="1" height="1" fill="#361f22" /><rect x="5" y="2" width="1" height="1" fill="#f2ba2f" /><rect x="5" y="3" width="1" height="1" fill="#f6be33" /><rect x="5" y="4" width="1" height="1" fill="#f5c138" /><rect x="5" y="5" width="1" height="1" fill="#594622" /><rect x="5" y="6" width="1" height="1" fill="#b89c21" /><rect x="5" y="7" width="1" height="1" fill="#ccae1d" /><rect x="5" y="8" width="1" height="1" fill="#cbb11e" /><rect x="5" y="9" width="1" height="1" fill="#caaf1e" /><rect x="6" y="0" width="1" height="1" fill="#b48f1f" /><rect x="6" y="1" width="1" height="1" fill="#896e1e" /><rect x="6" y="2" width="1" height="1" fill="#221905" /><rect x="6" y="3" width="1" height="1" fill="#f3c135" /><rect x="6" y="4" width="1" height="1" fill="#bc3725" /><rect x="6" y="5" width="1" height="1" fill="#260200" /><rect x="6" y="6" width="1" height="1" fill="#553b06" /><rect x="6" y="7" width="1" height="1" fill="#cbb226" /><rect x="6" y="8" width="1" height="1" fill="#c4ae1e" /><rect x="6" y="9" width="1" height="1" fill="#b8963b" /><rect x="7" y="0" width="1" height="1" fill="#765921" /><rect x="7" y="1" width="1" height="1" fill="#aa993f" /><rect x="7" y="2" width="1" height="1" fill="#b6942e" /><rect x="7" y="3" width="1" height="1" fill="#6b5738" /><rect x="7" y="4" width="1" height="1" fill="#efca40" /><rect x="7" y="5" width="1" height="1" fill="#ebbe4b" /><rect x="7" y="6" width="1" height="1" fill="#4e3411" /><rect x="7" y="7" width="1" height="1" fill="#b7a128" /><rect x="7" y="8" width="1" height="1" fill="#c6aa21" /><rect x="7" y="9" width="1" height="1" fill="#c1a519" /><rect x="8" y="0" width="1" height="1" fill="#b8a018" /><rect x="8" y="1" width="1" height="1" fill="#c0aa1e" /><rect x="8" y="2" width="1" height="1" fill="#29140d" /><rect x="8" y="3" width="1" height="1" fill="#887134" /><rect x="8" y="4" width="1" height="1" fill="#e8b747" /><rect x="8" y="5" width="1" height="1" fill="#b29528" /><rect x="8" y="6" width="1" height="1" fill="#99802e" /><rect x="8" y="7" width="1" height="1" fill="#766015" /><rect x="8" y="8" width="1" height="1" fill="#bfa51a" /><rect x="8" y="9" width="1" height="1" fill="#c6aa1c" /><rect x="9" y="0" width="1" height="1" fill="#bca21a" /><rect x="9" y="1" width="1" height="1" fill="#2e1b01" /><rect x="9" y="2" width="1" height="1" fill="#5f401d" /><rect x="9" y="3" width="1" height="1" fill="#f2bd32" /><rect x="9" y="4" width="1" height="1" fill="#873021" /><rect x="9" y="5" width="1" height="1" fill="#f1b538" /><rect x="9" y="6" width="1" height="1" fill="#79592b" /><rect x="9" y="7" width="1" height="1" fill="#b89e26" /><rect x="9" y="8" width="1" height="1" fill="#bfa71b" /><rect x="9" y="9" width="1" height="1" fill="#caaf1f" /></g></svg>