<svg width="800" height="1000" xmlns="http://www.w3.org/2000/svg"><defs><linearGradient id="g" x1="0" x2="1" y1="0" y2="1"><stop offset="0%" stop-color="#2d3c96"/><stop offset="100%" stop-color="#d53392"/></linearGradient></defs><rect x="10" y="10" width="780" height="980" fill="url(#g)" rx="50" ry="50" stroke="gold" stroke-width="20"/><text x="400" y="920" width="780" text-anchor="middle" style="font:bold 200px 'Helvetica Neue';fill:gold">00102</text><g transform="translate(80 80) scale(64)"><rect x="0" y="0" width="1" height="1" fill="#42331c" /><rect x="0" y="1" width="1" height="1" fill="#9a7639" /><rect x="0" y="2" width="1" height="1" fill="#4a2f18" /><rect x="0" y="3" width="1" height="1" fill="#f5ba32" /><rect x="0" y="4" width="1" height="1" fill="#e8ae57" /><rect x="0" y="5" width="1" height="1" fill="#1a1105" /><rect x="0" y="6" width="1" height="1" fill="#f1b65e" /><rect x="0" y="7" width="1" height="1" fill="#b99e20" /><rect x="0" y="8" width="1" height="1" fill="#b29e18" /><rect x="0" y="9" width="1" height="1" fill="#c1a61b" /><rect x="1" y="0" width="1" height="1" fill="#1f1406" /><rect x="1" y="1" width="1" height="1" fill="#7e5d1a" /><rect x="1" y="2" width="1" height="1" fill="#eeb843" /><rect x="1" y="3" width="1" height="1" fill="#f5ba32" /><rect x="1" y="4" width="1" height="1" fill="#f5b834" /><rect x="1" y="5" width="1" height="1" fill="#f0b12f" /><rect x="1" y="6" width="1" height="1" fill="#e7b645" /><rect x="1" y="7" width="1" height="1" fill="#ae9529" /><rect x="1" y="8" width="1" height="1" fill="#b2991e" /><rect x="1" y="9" width="1" height="1" fill="#c0a81b" /><rect x="2" y="0" width="1" height="1" fill="#8c7726" /><rect x="2" y="1" width="1" height="1" fill="#22180d" /><rect x="2" y="2" width="1" height="1" fill="#f7bc36" /><rect x="2" y="3" width="1" height="1" fill="#f5b730" /><rect x="2" y="4" width="1" height="1" fill="#f3b430" /><rect x="2" y="5" width="1" height="1" fill="#f4ba32" /><rect x="2" y="6" width="1" height="1" fill="#b28e3c" /><rect x="2" y="7" width="1" height="1" fill="#a79321" /><rect x="2" y="8" width="1" height="1" fill="#b8a01a" /><rect x="2" y="9" width="1" height="1" fill="#927127" /><rect x="3" y="0" width="1" height="1" fill="#230a00" /><rect x="3" y="1" width="1" height="1" fill="#341701" /><rect x="3" y="2" width="1" height="1" fill="#f0b632" /><rect x="3" y="3" width="1" height="1" fill="#f2b331" /><rect x="3" y="4" width="1" height="1" fill="#eda92f" /><rect x="3" y="5" width="1" height="1" fill="#391301" /><rect x="3" y="6" width="1" height="1" fill="#70531e" /><rect x="3" y="7" width="1" height="1" fill="#b89f1a" /><rect x="3" y="8" width="1" height="1" fill="#b89f1a" /><rect x="3" y="9" width="1" height="1" fill="#b69f18" /><rect x="4" y="0" width="1" height="1" fill="#3d2a13" /><rect x="4" y="1" width="1" height="1" fill="#8a6226" /><rect x="4" y="2" width="1" height="1" fill="#8a702f" /><rect x="4" y="3" width="1" height="1" fill="#ab9717" /><rect x="4" y="4" width="1" height="1" fill="#b59c19" /><rect x="4" y="5" width="1" height="1" fill="#6e5108" /><rect x="4" y="6" width="1" height="1" fill="#c5a225" /><rect x="4" y="7" width="1" height="1" fill="#b19617" /><rect x="4" y="8" width="1" height="1" fill="#b59c18" /><rect x="4" y="9" width="1" height="1" fill="#b69b18" /><rect x="5" y="0" width="1" height="1" fill="#261401" /><rect x="5" y="1" width="1" height="1" fill="#b1981a" /><rect x="5" y="2" width="1" height="1" fill="#b7a21b" /><rect x="5" y="3" width="1" height="1" fill="#b1981a" /><rect x="5" y="4" width="1" height="1" fill="#b39918" /><rect x="5" y="5" width="1" height="1" fill="#b59e1b" /><rect x="5" y="6" width="1" height="1" fill="#b19b18" /><rect x="5" y="7" width="1" height="1" fill="#b39919" /><rect x="5" y="8" width="1" height="1" fill="#b89f1a" /><rect x="5" y="9" width="1" height="1" fill="#b49c18" /><rect x="6" y="0" width="1" height="1" fill="#a9921b" /><rect x="6" y="1" width="1" height="1" fill="#ad9619" /><rect x="6" y="2" width="1" height="1" fill="#a99116" /><rect x="6" y="3" width="1" height="1" fill="#b69d1c" /><rect x="6" y="4" width="1" height="1" fill="#b79e1d" /><rect x="6" y="5" width="1" height="1" fill="#b49b1b" /><rect x="6" y="6" width="1" height="1" fill="#b8a01d" /><rect x="6" y="7" width="1" height="1" fill="#b59b1b" /><rect x="6" y="8" width="1" height="1" fill="#b69d1c" /><rect x="6" y="9" width="1" height="1" fill="#b69e1b" /><rect x="7" y="0" width="1" height="1" fill="#b89f1e" /><rect x="7" y="1" width="1" height="1" fill="#aa9216" /><rect x="7" y="2" width="1" height="1" fill="#af991a" /><rect x="7" y="3" width="1" height="1" fill="#b09718" /><rect x="7" y="4" width="1" height="1" fill="#ab9316" /><rect x="7" y="5" width="1" height="1" fill="#b09719" /><rect x="7" y="6" width="1" height="1" fill="#b49a1b" /><rect x="7" y="7" width="1" height="1" fill="#ae9618" /><rect x="7" y="8" width="1" height="1" fill="#ad9518" /><rect x="7" y="9" width="1" height="1" fill="#b09718" /><rect x="8" y="0" width="1" height="1" fill="#ad9419" /><rect x="8" y="1" width="1" height="1" fill="#aa9416" /><rect x="8" y="2" width="1" height="1" fill="#b0971a" /><rect x="8" y="3" width="1" height="1" fill="#b09719" /><rect x="8" y="4" width="1" height="1" fill="#a78f16" /><rect x="8" y="5" width="1" height="1" fill="#ae9618" /><rect x="8" y="6" width="1" height="1" fill="#ac9418" /><rect x="8" y="7" width="1" height="1" fill="#b09719" /><rect x="8" y="8" width="1" height="1" fill="#b39b1a" /><rect x="8" y="9" width="1" height="1" fill="#ac9418" /><rect x="9" y="0" width="1" height="1" fill="#ab9218" /><rect x="9" y="1" width="1" height="1" fill="#aa9217" /><rect x="9" y="2" width="1" height="1" fill="#a88f17" /><rect x="9" y="3" width="1" height="1" fill="#aa9218" /><rect x="9" y="4" width="1" height="1" fill="#ad9419" /><rect x="9" y="5" width="1" height="1" fill="#ac9418" /><rect x="9" y="6" width="1" height="1" fill="#ac9319" /><rect x="9" y="7" width="1" height="1" fill="#ad941a" /><rect x="9" y="8" width="1" height="1" fill="#ad9418" /><rect x="9" y="9" width="1" height="1" fill="#ac9319" /></g></svg>