<svg width="800" height="1000" version="1.1" xmlns="http://www.w3.org/2000/svg" xmlns:xlink="http://www.w3.org/1999/xlink">
  <defs>
      <linearGradient id="Gradient2" x1="0" x2="1" y1="0" y2="1">
        <stop offset="0%" stop-color="#2d3c96"/>
        <stop offset="100%" stop-color="#d53392"/>
      </linearGradient>
  </defs>
  <rect x="10" y="10" width="780" height="980" fill="url(#Gradient2)" rx="50" ry="50" stroke="#ffd700" stroke-width="20"/>
  <text x="400" y="920" width="780" text-anchor="middle" style="font: bold 200px 'Helvetica Neue'; fill: #ffd700">00109</text>

  <g transform="translate(80 80) scale(64)">
<rect x="0" y="0" width="1" height="1" fill="#010317" />
,<rect x="0" y="1" width="1" height="1" fill="#000113" />
,<rect x="0" y="2" width="1" height="1" fill="#00000a" />
,<rect x="0" y="3" width="1" height="1" fill="#040308" />
,<rect x="0" y="4" width="1" height="1" fill="#050100" />
,<rect x="0" y="5" width="1" height="1" fill="#120804" />
,<rect x="0" y="6" width="1" height="1" fill="#0a0101" />
,<rect x="0" y="7" width="1" height="1" fill="#0d0300" />
,<rect x="0" y="8" width="1" height="1" fill="#070002" />
,<rect x="0" y="9" width="1" height="1" fill="#060105" />
,<rect x="1" y="0" width="1" height="1" fill="#000015" />
,<rect x="1" y="1" width="1" height="1" fill="#070a1d" />
,<rect x="1" y="2" width="1" height="1" fill="#010008" />
,<rect x="1" y="3" width="1" height="1" fill="#0b0204" />
,<rect x="1" y="4" width="1" height="1" fill="#180b08" />
,<rect x="1" y="5" width="1" height="1" fill="#0c0001" />
,<rect x="1" y="6" width="1" height="1" fill="#1d0c04" />
,<rect x="1" y="7" width="1" height="1" fill="#0f0100" />
,<rect x="1" y="8" width="1" height="1" fill="#040000" />
,<rect x="1" y="9" width="1" height="1" fill="#030001" />
,<rect x="2" y="0" width="1" height="1" fill="#010014" />
,<rect x="2" y="1" width="1" height="1" fill="#01010e" />
,<rect x="2" y="2" width="1" height="1" fill="#180c13" />
,<rect x="2" y="3" width="1" height="1" fill="#5f4b49" />
,<rect x="2" y="4" width="1" height="1" fill="#81645b" />
,<rect x="2" y="5" width="1" height="1" fill="#87685a" />
,<rect x="2" y="6" width="1" height="1" fill="#6d5245" />
,<rect x="2" y="7" width="1" height="1" fill="#120000" />
,<rect x="2" y="8" width="1" height="1" fill="#0d0300" />
,<rect x="2" y="9" width="1" height="1" fill="#020101" />
,<rect x="3" y="0" width="1" height="1" fill="#0c091e" />
,<rect x="3" y="1" width="1" height="1" fill="#08000e" />
,<rect x="3" y="2" width="1" height="1" fill="#1a060c" />
,<rect x="3" y="3" width="1" height="1" fill="#9b7a77" />
,<rect x="3" y="4" width="1" height="1" fill="#cea699" />
,<rect x="3" y="5" width="1" height="1" fill="#c59c89" />
,<rect x="3" y="6" width="1" height="1" fill="#795545" />
,<rect x="3" y="7" width="1" height="1" fill="#967c6e" />
,<rect x="3" y="8" width="1" height="1" fill="#1f120e" />
,<rect x="3" y="9" width="1" height="1" fill="#0a0506" />
,<rect x="4" y="0" width="1" height="1" fill="#040013" />
,<rect x="4" y="1" width="1" height="1" fill="#0a000a" />
,<rect x="4" y="2" width="1" height="1" fill="#29090e" />
,<rect x="4" y="3" width="1" height="1" fill="#a17671" />
,<rect x="4" y="4" width="1" height="1" fill="#d2a08f" />
,<rect x="4" y="5" width="1" height="1" fill="#bb8670" />
,<rect x="4" y="6" width="1" height="1" fill="#784c39" />
,<rect x="4" y="7" width="1" height="1" fill="#ab8a7c" />
,<rect x="4" y="8" width="1" height="1" fill="#21130e" />
,<rect x="4" y="9" width="1" height="1" fill="#0d0608" />
,<rect x="5" y="0" width="1" height="1" fill="#0d0116" />
,<rect x="5" y="1" width="1" height="1" fill="#0c0009" />
,<rect x="5" y="2" width="1" height="1" fill="#230306" />
,<rect x="5" y="3" width="1" height="1" fill="#5f322c" />
,<rect x="5" y="4" width="1" height="1" fill="#a67360" />
,<rect x="5" y="5" width="1" height="1" fill="#98654f" />
,<rect x="5" y="6" width="1" height="1" fill="#815441" />
,<rect x="5" y="7" width="1" height="1" fill="#2f0e00" />
,<rect x="5" y="8" width="1" height="1" fill="#140502" />
,<rect x="5" y="9" width="1" height="1" fill="#070103" />
,<rect x="6" y="0" width="1" height="1" fill="#09000f" />
,<rect x="6" y="1" width="1" height="1" fill="#150110" />
,<rect x="6" y="2" width="1" height="1" fill="#140000" />
,<rect x="6" y="3" width="1" height="1" fill="#3d1612" />
,<rect x="6" y="4" width="1" height="1" fill="#c69a8d" />
,<rect x="6" y="5" width="1" height="1" fill="#b38474" />
,<rect x="6" y="6" width="1" height="1" fill="#865f51" />
,<rect x="6" y="7" width="1" height="1" fill="#361810" />
,<rect x="6" y="8" width="1" height="1" fill="#0d0100" />
,<rect x="6" y="9" width="1" height="1" fill="#050103" />
,<rect x="7" y="0" width="1" height="1" fill="#09010e" />
,<rect x="7" y="1" width="1" height="1" fill="#0d010b" />
,<rect x="7" y="2" width="1" height="1" fill="#0f0101" />
,<rect x="7" y="3" width="1" height="1" fill="#26090b" />
,<rect x="7" y="4" width="1" height="1" fill="#ab8883" />
,<rect x="7" y="5" width="1" height="1" fill="#c6a59c" />
,<rect x="7" y="6" width="1" height="1" fill="#775850" />
,<rect x="7" y="7" width="1" height="1" fill="#1e0605" />
,<rect x="7" y="8" width="1" height="1" fill="#0d0004" />
,<rect x="7" y="9" width="1" height="1" fill="#080109" />
,<rect x="8" y="0" width="1" height="1" fill="#0d0512" />
,<rect x="8" y="1" width="1" height="1" fill="#040108" />
,<rect x="8" y="2" width="1" height="1" fill="#0b0109" />
,<rect x="8" y="3" width="1" height="1" fill="#0e0009" />
,<rect x="8" y="4" width="1" height="1" fill="#2c1d21" />
,<rect x="8" y="5" width="1" height="1" fill="#3e2f33" />
,<rect x="8" y="6" width="1" height="1" fill="#211115" />
,<rect x="8" y="7" width="1" height="1" fill="#080101" />
,<rect x="8" y="8" width="1" height="1" fill="#090006" />
,<rect x="8" y="9" width="1" height="1" fill="#07010b" />
,<rect x="9" y="0" width="1" height="1" fill="#03000a" />
,<rect x="9" y="1" width="1" height="1" fill="#03010a" />
,<rect x="9" y="2" width="1" height="1" fill="#05010a" />
,<rect x="9" y="3" width="1" height="1" fill="#020008" />
,<rect x="9" y="4" width="1" height="1" fill="#07000a" />
,<rect x="9" y="5" width="1" height="1" fill="#120a14" />
,<rect x="9" y="6" width="1" height="1" fill="#070107" />
,<rect x="9" y="7" width="1" height="1" fill="#040106" />
,<rect x="9" y="8" width="1" height="1" fill="#06010a" />
,<rect x="9" y="9" width="1" height="1" fill="#06000b" />

  </g>
</svg>