<svg width="800" height="1000" version="1.1" xmlns="http://www.w3.org/2000/svg" xmlns:xlink="http://www.w3.org/1999/xlink">
  <defs>
      <linearGradient id="Gradient2" x1="0" x2="1" y1="0" y2="1">
        <stop offset="0%" stop-color="#2d3c96"/>
        <stop offset="100%" stop-color="#d53392"/>
      </linearGradient>
  </defs>
  <rect x="10" y="10" width="780" height="980" fill="url(#Gradient2)" rx="50" ry="50" stroke="#ffd700" stroke-width="20"/>
  <text x="400" y="920" width="780" text-anchor="middle" style="font: bold 200px 'Helvetica Neue'; fill: #ffd700">00106</text>

  <g transform="translate(80 80) scale(64)">
<rect x="0" y="0" width="1" height="1" fill="#6A7F86" /><rect x="1" y="0" width="1" height="1" fill="#0E443E" /><rect x="2" y="0" width="1" height="1" fill="#86DFAC" /><rect x="3" y="0" width="1" height="1" fill="#8AF6DC" /><rect x="4" y="0" width="1" height="1" fill="#85EFD2" /><rect x="5" y="0" width="1" height="1" fill="#A8FDCC" /><rect x="6" y="0" width="1" height="1" fill="#93FDEA" /><rect x="7" y="0" width="1" height="1" fill="#105B60" /><rect x="8" y="0" width="1" height="1" fill="#7BA1B6" /><rect x="9" y="0" width="1" height="1" fill="#6899AC" /><rect x="0" y="1" width="1" height="1" fill="#677F85" /><rect x="1" y="1" width="1" height="1" fill="#2D858A" /><rect x="2" y="1" width="1" height="1" fill="#98FEF0" /><rect x="3" y="1" width="1" height="1" fill="#A0F8CA" /><rect x="4" y="1" width="1" height="1" fill="#AFFFDE" /><rect x="5" y="1" width="1" height="1" fill="#539C8B" /><rect x="6" y="1" width="1" height="1" fill="#7FD8AC" /><rect x="7" y="1" width="1" height="1" fill="#22554C" /><rect x="8" y="1" width="1" height="1" fill="#73AED5" /><rect x="9" y="1" width="1" height="1" fill="#8DB1BE" /><rect x="0" y="2" width="1" height="1" fill="#657D85" /><rect x="1" y="2" width="1" height="1" fill="#2F8280" /><rect x="2" y="2" width="1" height="1" fill="#A5FFF1" /><rect x="3" y="2" width="1" height="1" fill="#5BA98D" /><rect x="4" y="2" width="1" height="1" fill="#2B6D65" /><rect x="5" y="2" width="1" height="1" fill="#47917C" /><rect x="6" y="2" width="1" height="1" fill="#8FE7C0" /><rect x="7" y="2" width="1" height="1" fill="#7CD1AC" /><rect x="8" y="2" width="1" height="1" fill="#337280" /><rect x="9" y="2" width="1" height="1" fill="#90CBE9" /><rect x="0" y="3" width="1" height="1" fill="#6D858C" /><rect x="1" y="3" width="1" height="1" fill="#00302C" /><rect x="2" y="3" width="1" height="1" fill="#7ACBAB" /><rect x="3" y="3" width="1" height="1" fill="#8AE5BA" /><rect x="4" y="3" width="1" height="1" fill="#083132" /><rect x="5" y="3" width="1" height="1" fill="#77ADA0" /><rect x="6" y="3" width="1" height="1" fill="#62C3B2" /><rect x="7" y="3" width="1" height="1" fill="#309690" /><rect x="8" y="3" width="1" height="1" fill="#07383B" /><rect x="9" y="3" width="1" height="1" fill="#134861" /><rect x="0" y="4" width="1" height="1" fill="#CFDFE1" /><rect x="1" y="4" width="1" height="1" fill="#3F5864" /><rect x="2" y="4" width="1" height="1" fill="#002729" /><rect x="3" y="4" width="1" height="1" fill="#65CBC9" /><rect x="4" y="4" width="1" height="1" fill="#82EBD3" /><rect x="5" y="4" width="1" height="1" fill="#387D67" /><rect x="6" y="4" width="1" height="1" fill="#012A37" /><rect x="7" y="4" width="1" height="1" fill="#00192D" /><rect x="8" y="4" width="1" height="1" fill="#011F2A" /><rect x="9" y="4" width="1" height="1" fill="#519D81" /><rect x="0" y="5" width="1" height="1" fill="#FEFEFF" /><rect x="1" y="5" width="1" height="1" fill="#D8E7E9" /><rect x="2" y="5" width="1" height="1" fill="#3A5761" /><rect x="3" y="5" width="1" height="1" fill="#012132" /><rect x="4" y="5" width="1" height="1" fill="#59C8D3" /><rect x="5" y="5" width="1" height="1" fill="#7DE2C9" /><rect x="6" y="5" width="1" height="1" fill="#55B9BC" /><rect x="7" y="5" width="1" height="1" fill="#6ECCB4" /><rect x="8" y="5" width="1" height="1" fill="#5BC3C8" /><rect x="9" y="5" width="1" height="1" fill="#95EFDB" /><rect x="0" y="6" width="1" height="1" fill="#FCFDFC" /><rect x="1" y="6" width="1" height="1" fill="#FFFFFE" /><rect x="2" y="6" width="1" height="1" fill="#D8E6EA" /><rect x="3" y="6" width="1" height="1" fill="#38565D" /><rect x="4" y="6" width="1" height="1" fill="#012A3A" /><rect x="5" y="6" width="1" height="1" fill="#1B605F" /><rect x="6" y="6" width="1" height="1" fill="#145D62" /><rect x="7" y="6" width="1" height="1" fill="#195D5C" /><rect x="8" y="6" width="1" height="1" fill="#125B62" /><rect x="9" y="6" width="1" height="1" fill="#0F4F4F" /><rect x="0" y="7" width="1" height="1" fill="#FEFFFE" /><rect x="1" y="7" width="1" height="1" fill="#FCFCFD" /><rect x="2" y="7" width="1" height="1" fill="#FFFEFE" /><rect x="3" y="7" width="1" height="1" fill="#D7E3E4" /><rect x="4" y="7" width="1" height="1" fill="#B0C1C3" /><rect x="5" y="7" width="1" height="1" fill="#AFBDC3" /><rect x="6" y="7" width="1" height="1" fill="#AFBCC1" /><rect x="7" y="7" width="1" height="1" fill="#ACBDC2" /><rect x="8" y="7" width="1" height="1" fill="#AFBDC0" /><rect x="9" y="7" width="1" height="1" fill="#AFBDC2" /><rect x="0" y="8" width="1" height="1" fill="#FEFEFF" /><rect x="1" y="8" width="1" height="1" fill="#FFFFFF" /><rect x="2" y="8" width="1" height="1" fill="#FDFEFF" /><rect x="3" y="8" width="1" height="1" fill="#FEFFFE" /><rect x="4" y="8" width="1" height="1" fill="#FEFFFF" /><rect x="5" y="8" width="1" height="1" fill="#FFFEFE" /><rect x="6" y="8" width="1" height="1" fill="#FEFEFF" /><rect x="7" y="8" width="1" height="1" fill="#FEFFFE" /><rect x="8" y="8" width="1" height="1" fill="#FEFEFE" /><rect x="9" y="8" width="1" height="1" fill="#FFFEFF" /><rect x="0" y="9" width="1" height="1" fill="#FFFEFF" /><rect x="1" y="9" width="1" height="1" fill="#FEFEFE" /><rect x="2" y="9" width="1" height="1" fill="#FEFFFF" /><rect x="3" y="9" width="1" height="1" fill="#FCFCFE" /><rect x="4" y="9" width="1" height="1" fill="#FDFDFD" /><rect x="5" y="9" width="1" height="1" fill="#FCFDFD" /><rect x="6" y="9" width="1" height="1" fill="#FDFCFC" /><rect x="7" y="9" width="1" height="1" fill="#FDFDFD" /><rect x="8" y="9" width="1" height="1" fill="#FDFDFC" /><rect x="9" y="9" width="1" height="1" fill="#FDFCFD" />
  </g>
</svg>