<svg width="800" height="1000" xmlns="http://www.w3.org/2000/svg"><defs><linearGradient id="g" x1="0" x2="1" y1="0" y2="1"><stop offset="0%" stop-color="#2d3c96"/><stop offset="100%" stop-color="#d53392"/></linearGradient></defs><rect x="10" y="10" width="780" height="980" fill="url(#g)" rx="50" ry="50" stroke="gold" stroke-width="20"/><text x="400" y="920" width="780" text-anchor="middle" style="font:bold 200px 'Helvetica Neue';fill:gold">00111</text><g transform="translate(80 80) scale(64)"><rect x="0" y="0" width="1" height="1" fill="#38251f" /><rect x="0" y="1" width="1" height="1" fill="#413b2d" /><rect x="0" y="2" width="1" height="1" fill="#2a424c" /><rect x="0" y="3" width="1" height="1" fill="#4b8587" /><rect x="0" y="4" width="1" height="1" fill="#628a6f" /><rect x="0" y="5" width="1" height="1" fill="#1f2e45" /><rect x="0" y="6" width="1" height="1" fill="#253b46" /><rect x="0" y="7" width="1" height="1" fill="#334545" /><rect x="0" y="8" width="1" height="1" fill="#604d47" /><rect x="0" y="9" width="1" height="1" fill="#5f4c2e" /><rect x="1" y="0" width="1" height="1" fill="#2b221b" /><rect x="1" y="1" width="1" height="1" fill="#4e2813" /><rect x="1" y="2" width="1" height="1" fill="#35444b" /><rect x="1" y="3" width="1" height="1" fill="#3a7b81" /><rect x="1" y="4" width="1" height="1" fill="#4a8565" /><rect x="1" y="5" width="1" height="1" fill="#42725c" /><rect x="1" y="6" width="1" height="1" fill="#325044" /><rect x="1" y="7" width="1" height="1" fill="#1e3227" /><rect x="1" y="8" width="1" height="1" fill="#484a3c" /><rect x="1" y="9" width="1" height="1" fill="#80502c" /><rect x="2" y="0" width="1" height="1" fill="#925c2e" /><rect x="2" y="1" width="1" height="1" fill="#37261c" /><rect x="2" y="2" width="1" height="1" fill="#835138" /><rect x="2" y="3" width="1" height="1" fill="#334b63" /><rect x="2" y="4" width="1" height="1" fill="#4e8999" /><rect x="2" y="5" width="1" height="1" fill="#3b6267" /><rect x="2" y="6" width="1" height="1" fill="#304d51" /><rect x="2" y="7" width="1" height="1" fill="#294143" /><rect x="2" y="8" width="1" height="1" fill="#304242" /><rect x="2" y="9" width="1" height="1" fill="#735032" /><rect x="3" y="0" width="1" height="1" fill="#bb5d17" /><rect x="3" y="1" width="1" height="1" fill="#131416" /><rect x="3" y="2" width="1" height="1" fill="#602f11" /><rect x="3" y="3" width="1" height="1" fill="#84433f" /><rect x="3" y="4" width="1" height="1" fill="#4c71a8" /><rect x="3" y="5" width="1" height="1" fill="#526c87" /><rect x="3" y="6" width="1" height="1" fill="#394e6b" /><rect x="3" y="7" width="1" height="1" fill="#22314e" /><rect x="3" y="8" width="1" height="1" fill="#363e62" /><rect x="3" y="9" width="1" height="1" fill="#686c6d" /><rect x="4" y="0" width="1" height="1" fill="#922914" /><rect x="4" y="1" width="1" height="1" fill="#441d16" /><rect x="4" y="2" width="1" height="1" fill="#4e3924" /><rect x="4" y="3" width="1" height="1" fill="#984621" /><rect x="4" y="4" width="1" height="1" fill="#59527b" /><rect x="4" y="5" width="1" height="1" fill="#5f7da1" /><rect x="4" y="6" width="1" height="1" fill="#324d5e" /><rect x="4" y="7" width="1" height="1" fill="#262b3e" /><rect x="4" y="8" width="1" height="1" fill="#2e172b" /><rect x="4" y="9" width="1" height="1" fill="#504951" /><rect x="5" y="0" width="1" height="1" fill="#982413" /><rect x="5" y="1" width="1" height="1" fill="#7b2317" /><rect x="5" y="2" width="1" height="1" fill="#8a3516" /><rect x="5" y="3" width="1" height="1" fill="#93340c" /><rect x="5" y="4" width="1" height="1" fill="#5c483d" /><rect x="5" y="5" width="1" height="1" fill="#255675" /><rect x="5" y="6" width="1" height="1" fill="#35556e" /><rect x="5" y="7" width="1" height="1" fill="#2c4b67" /><rect x="5" y="8" width="1" height="1" fill="#272d45" /><rect x="5" y="9" width="1" height="1" fill="#787570" /><rect x="6" y="0" width="1" height="1" fill="#972d0b" /><rect x="6" y="1" width="1" height="1" fill="#902f14" /><rect x="6" y="2" width="1" height="1" fill="#ad380d" /><rect x="6" y="3" width="1" height="1" fill="#962902" /><rect x="6" y="4" width="1" height="1" fill="#51484d" /><rect x="6" y="5" width="1" height="1" fill="#5687af" /><rect x="6" y="6" width="1" height="1" fill="#425b71" /><rect x="6" y="7" width="1" height="1" fill="#1e2e4f" /><rect x="6" y="8" width="1" height="1" fill="#283756" /><rect x="6" y="9" width="1" height="1" fill="#676964" /><rect x="7" y="0" width="1" height="1" fill="#943813" /><rect x="7" y="1" width="1" height="1" fill="#6e2618" /><rect x="7" y="2" width="1" height="1" fill="#902a11" /><rect x="7" y="3" width="1" height="1" fill="#6a1f1a" /><rect x="7" y="4" width="1" height="1" fill="#57517f" /><rect x="7" y="5" width="1" height="1" fill="#506ea0" /><rect x="7" y="6" width="1" height="1" fill="#112548" /><rect x="7" y="7" width="1" height="1" fill="#221531" /><rect x="7" y="8" width="1" height="1" fill="#3f3e50" /><rect x="7" y="9" width="1" height="1" fill="#352f21" /><rect x="8" y="0" width="1" height="1" fill="#964a26" /><rect x="8" y="1" width="1" height="1" fill="#430604" /><rect x="8" y="2" width="1" height="1" fill="#341a1d" /><rect x="8" y="3" width="1" height="1" fill="#1d3960" /><rect x="8" y="4" width="1" height="1" fill="#294e94" /><rect x="8" y="5" width="1" height="1" fill="#485b83" /><rect x="8" y="6" width="1" height="1" fill="#514841" /><rect x="8" y="7" width="1" height="1" fill="#282633" /><rect x="8" y="8" width="1" height="1" fill="#2f2e32" /><rect x="8" y="9" width="1" height="1" fill="#5f3f19" /><rect x="9" y="0" width="1" height="1" fill="#91614a" /><rect x="9" y="1" width="1" height="1" fill="#722a1c" /><rect x="9" y="2" width="1" height="1" fill="#3d4955" /><rect x="9" y="3" width="1" height="1" fill="#4d4747" /><rect x="9" y="4" width="1" height="1" fill="#64645c" /><rect x="9" y="5" width="1" height="1" fill="#696b6a" /><rect x="9" y="6" width="1" height="1" fill="#7e5b3b" /><rect x="9" y="7" width="1" height="1" fill="#342b1c" /><rect x="9" y="8" width="1" height="1" fill="#21211f" /><rect x="9" y="9" width="1" height="1" fill="#4b4135" /></g></svg>