<svg width="800" height="1000" xmlns="http://www.w3.org/2000/svg"><defs><linearGradient id="g" x1="0" x2="1" y1="0" y2="1"><stop offset="0%" stop-color="#2d3c96"/><stop offset="100%" stop-color="#d53392"/></linearGradient></defs><rect x="10" y="10" width="780" height="980" fill="url(#g)" rx="50" ry="50" stroke="gold" stroke-width="20"/><text x="400" y="920" width="780" text-anchor="middle" style="font:bold 200px 'Helvetica Neue';fill:gold">00142</text><g transform="translate(80 80) scale(64)"><rect x="0" y="0" width="1" height="1" fill="#b3b89f" /><rect x="0" y="1" width="1" height="1" fill="#7e4184" /><rect x="0" y="2" width="1" height="1" fill="#6e3770" /><rect x="0" y="3" width="1" height="1" fill="#854629" /><rect x="0" y="4" width="1" height="1" fill="#925b2e" /><rect x="0" y="5" width="1" height="1" fill="#721a2d" /><rect x="0" y="6" width="1" height="1" fill="#710007" /><rect x="0" y="7" width="1" height="1" fill="#6c3460" /><rect x="0" y="8" width="1" height="1" fill="#6d57a1" /><rect x="0" y="9" width="1" height="1" fill="#000000" /><rect x="1" y="0" width="1" height="1" fill="#a3a195" /><rect x="1" y="1" width="1" height="1" fill="#803b88" /><rect x="1" y="2" width="1" height="1" fill="#632e3e" /><rect x="1" y="3" width="1" height="1" fill="#8b5c01" /><rect x="1" y="4" width="1" height="1" fill="#6f1a1c" /><rect x="1" y="5" width="1" height="1" fill="#6f062c" /><rect x="1" y="6" width="1" height="1" fill="#710a18" /><rect x="1" y="7" width="1" height="1" fill="#782e58" /><rect x="1" y="8" width="1" height="1" fill="#885fb1" /><rect x="1" y="9" width="1" height="1" fill="#000000" /><rect x="2" y="0" width="1" height="1" fill="#9e5d9f" /><rect x="2" y="1" width="1" height="1" fill="#541a50" /><rect x="2" y="2" width="1" height="1" fill="#68285a" /><rect x="2" y="3" width="1" height="1" fill="#7b415b" /><rect x="2" y="4" width="1" height="1" fill="#7e3548" /><rect x="2" y="5" width="1" height="1" fill="#691012" /><rect x="2" y="6" width="1" height="1" fill="#712221" /><rect x="2" y="7" width="1" height="1" fill="#81526f" /><rect x="2" y="8" width="1" height="1" fill="#7c4b93" /><rect x="2" y="9" width="1" height="1" fill="#000000" /><rect x="3" y="0" width="1" height="1" fill="#613e71" /><rect x="3" y="1" width="1" height="1" fill="#665067" /><rect x="3" y="2" width="1" height="1" fill="#9f65a1" /><rect x="3" y="3" width="1" height="1" fill="#a759ab" /><rect x="3" y="4" width="1" height="1" fill="#aa5fac" /><rect x="3" y="5" width="1" height="1" fill="#9a5393" /><rect x="3" y="6" width="1" height="1" fill="#6b122b" /><rect x="3" y="7" width="1" height="1" fill="#40363a" /><rect x="3" y="8" width="1" height="1" fill="#2d252d" /><rect x="3" y="9" width="1" height="1" fill="#000000" /><rect x="4" y="0" width="1" height="1" fill="#062d46" /><rect x="4" y="1" width="1" height="1" fill="#a576a8" /><rect x="4" y="2" width="1" height="1" fill="#997f9a" /><rect x="4" y="3" width="1" height="1" fill="#663168" /><rect x="4" y="4" width="1" height="1" fill="#8f4c90" /><rect x="4" y="5" width="1" height="1" fill="#ae5eb3" /><rect x="4" y="6" width="1" height="1" fill="#785193" /><rect x="4" y="7" width="1" height="1" fill="#002300" /><rect x="4" y="8" width="1" height="1" fill="#0e181c" /><rect x="4" y="9" width="1" height="1" fill="#000000" /><rect x="5" y="0" width="1" height="1" fill="#855388" /><rect x="5" y="1" width="1" height="1" fill="#9e739e" /><rect x="5" y="2" width="1" height="1" fill="#987999" /><rect x="5" y="3" width="1" height="1" fill="#000301" /><rect x="5" y="4" width="1" height="1" fill="#3f2141" /><rect x="5" y="5" width="1" height="1" fill="#6d3f78" /><rect x="5" y="6" width="1" height="1" fill="#343567" /><rect x="5" y="7" width="1" height="1" fill="#000600" /><rect x="5" y="8" width="1" height="1" fill="#111c21" /><rect x="5" y="9" width="1" height="1" fill="#000000" /><rect x="6" y="0" width="1" height="1" fill="#7d547f" /><rect x="6" y="1" width="1" height="1" fill="#bf98bf" /><rect x="6" y="2" width="1" height="1" fill="#977a98" /><rect x="6" y="3" width="1" height="1" fill="#000000" /><rect x="6" y="4" width="1" height="1" fill="#010e0c" /><rect x="6" y="5" width="1" height="1" fill="#000000" /><rect x="6" y="6" width="1" height="1" fill="#000200" /><rect x="6" y="7" width="1" height="1" fill="#001317" /><rect x="6" y="8" width="1" height="1" fill="#1b1a21" /><rect x="6" y="9" width="1" height="1" fill="#000000" /><rect x="7" y="0" width="1" height="1" fill="#001b1f" /><rect x="7" y="1" width="1" height="1" fill="#7a597e" /><rect x="7" y="2" width="1" height="1" fill="#795e7b" /><rect x="7" y="3" width="1" height="1" fill="#000100" /><rect x="7" y="4" width="1" height="1" fill="#111421" /><rect x="7" y="5" width="1" height="1" fill="#0b1320" /><rect x="7" y="6" width="1" height="1" fill="#031720" /><rect x="7" y="7" width="1" height="1" fill="#001412" /><rect x="7" y="8" width="1" height="1" fill="#211120" /><rect x="7" y="9" width="1" height="1" fill="#000000" /><rect x="8" y="0" width="1" height="1" fill="#002b34" /><rect x="8" y="1" width="1" height="1" fill="#001114" /><rect x="8" y="2" width="1" height="1" fill="#000214" /><rect x="8" y="3" width="1" height="1" fill="#031922" /><rect x="8" y="4" width="1" height="1" fill="#000c15" /><rect x="8" y="5" width="1" height="1" fill="#00141b" /><rect x="8" y="6" width="1" height="1" fill="#001413" /><rect x="8" y="7" width="1" height="1" fill="#001218" /><rect x="8" y="8" width="1" height="1" fill="#001211" /><rect x="8" y="9" width="1" height="1" fill="#000000" /><rect x="9" y="0" width="1" height="1" fill="#000000" /><rect x="9" y="1" width="1" height="1" fill="#000000" /><rect x="9" y="2" width="1" height="1" fill="#000000" /><rect x="9" y="3" width="1" height="1" fill="#000000" /><rect x="9" y="4" width="1" height="1" fill="#000000" /><rect x="9" y="5" width="1" height="1" fill="#000000" /><rect x="9" y="6" width="1" height="1" fill="#000000" /><rect x="9" y="7" width="1" height="1" fill="#000000" /><rect x="9" y="8" width="1" height="1" fill="#000000" /><rect x="9" y="9" width="1" height="1" fill="#000000" /></g></svg>