<svg width="800" height="1000" version="1.1" xmlns="http://www.w3.org/2000/svg" xmlns:xlink="http://www.w3.org/1999/xlink">
  <defs>
      <linearGradient id="Gradient2" x1="0" x2="1" y1="0" y2="1">
        <stop offset="0%" stop-color="#2d3c96"/>
        <stop offset="100%" stop-color="#d53392"/>
      </linearGradient>
  </defs>
  <rect x="10" y="10" width="780" height="980" fill="url(#Gradient2)" rx="50" ry="50" stroke="#ffd700" stroke-width="20"/>
  <text x="400" y="920" width="780" text-anchor="middle" style="font: bold 200px 'Helvetica Neue'; fill: #ffd700">00141</text>

  <g transform="translate(80 80) scale(64)">
<rect x="0" y="0" width="1" height="1" fill="#003134" /><rect x="1" y="0" width="1" height="1" fill="#002D2E" /><rect x="2" y="0" width="1" height="1" fill="#02272E" /><rect x="3" y="0" width="1" height="1" fill="#000506" /><rect x="4" y="0" width="1" height="1" fill="#000000" /><rect x="5" y="0" width="1" height="1" fill="#001C1A" /><rect x="6" y="0" width="1" height="1" fill="#010000" /><rect x="7" y="0" width="1" height="1" fill="#8E7E8D" /><rect x="8" y="0" width="1" height="1" fill="#BDB4B7" /><rect x="9" y="0" width="1" height="1" fill="#B5B7A3" /><rect x="0" y="1" width="1" height="1" fill="#012120" /><rect x="1" y="1" width="1" height="1" fill="#012C2A" /><rect x="2" y="1" width="1" height="1" fill="#001F23" /><rect x="3" y="1" width="1" height="1" fill="#211D2B" /><rect x="4" y="1" width="1" height="1" fill="#714D73" /><rect x="5" y="1" width="1" height="1" fill="#643A69" /><rect x="6" y="1" width="1" height="1" fill="#4E3658" /><rect x="7" y="1" width="1" height="1" fill="#25002C" /><rect x="8" y="1" width="1" height="1" fill="#843D88" /><rect x="9" y="1" width="1" height="1" fill="#844789" /><rect x="0" y="2" width="1" height="1" fill="#021915" /><rect x="1" y="2" width="1" height="1" fill="#092221" /><rect x="2" y="2" width="1" height="1" fill="#000B00" /><rect x="3" y="2" width="1" height="1" fill="#7A5F7D" /><rect x="4" y="2" width="1" height="1" fill="#9F7A9E" /><rect x="5" y="2" width="1" height="1" fill="#825D83" /><rect x="6" y="2" width="1" height="1" fill="#886184" /><rect x="7" y="2" width="1" height="1" fill="#610029" /><rect x="8" y="2" width="1" height="1" fill="#6D326C" /><rect x="9" y="2" width="1" height="1" fill="#7A3E81" /><rect x="0" y="3" width="1" height="1" fill="#011A19" /><rect x="1" y="3" width="1" height="1" fill="#011615" /><rect x="2" y="3" width="1" height="1" fill="#001B14" /><rect x="3" y="3" width="1" height="1" fill="#172122" /><rect x="4" y="3" width="1" height="1" fill="#000000" /><rect x="5" y="3" width="1" height="1" fill="#8F8192" /><rect x="6" y="3" width="1" height="1" fill="#874F76" /><rect x="7" y="3" width="1" height="1" fill="#803000" /><rect x="8" y="3" width="1" height="1" fill="#8B4C1A" /><rect x="9" y="3" width="1" height="1" fill="#7E3727" /><rect x="0" y="4" width="1" height="1" fill="#021813" /><rect x="1" y="4" width="1" height="1" fill="#011412" /><rect x="2" y="4" width="1" height="1" fill="#041918" /><rect x="3" y="4" width="1" height="1" fill="#000D0E" /><rect x="4" y="4" width="1" height="1" fill="#0E3118" /><rect x="5" y="4" width="1" height="1" fill="#C799C6" /><rect x="6" y="4" width="1" height="1" fill="#6E014E" /><rect x="7" y="4" width="1" height="1" fill="#A0660B" /><rect x="8" y="4" width="1" height="1" fill="#B27F30" /><rect x="9" y="4" width="1" height="1" fill="#9B632B" /><rect x="0" y="5" width="1" height="1" fill="#0A2921" /><rect x="1" y="5" width="1" height="1" fill="#082820" /><rect x="2" y="5" width="1" height="1" fill="#032F28" /><rect x="3" y="5" width="1" height="1" fill="#002C14" /><rect x="4" y="5" width="1" height="1" fill="#213643" /><rect x="5" y="5" width="1" height="1" fill="#9465AF" /><rect x="6" y="5" width="1" height="1" fill="#61274E" /><rect x="7" y="5" width="1" height="1" fill="#670029" /><rect x="8" y="5" width="1" height="1" fill="#6F0725" /><rect x="9" y="5" width="1" height="1" fill="#6C0C2B" /><rect x="0" y="6" width="1" height="1" fill="#001815" /><rect x="1" y="6" width="1" height="1" fill="#011917" /><rect x="2" y="6" width="1" height="1" fill="#011E18" /><rect x="3" y="6" width="1" height="1" fill="#051E18" /><rect x="4" y="6" width="1" height="1" fill="#00271E" /><rect x="5" y="6" width="1" height="1" fill="#00312A" /><rect x="6" y="6" width="1" height="1" fill="#695195" /><rect x="7" y="6" width="1" height="1" fill="#7A407D" /><rect x="8" y="6" width="1" height="1" fill="#730000" /><rect x="9" y="6" width="1" height="1" fill="#78102E" /><rect x="0" y="7" width="1" height="1" fill="#041D18" /><rect x="1" y="7" width="1" height="1" fill="#031C16" /><rect x="2" y="7" width="1" height="1" fill="#062019" /><rect x="3" y="7" width="1" height="1" fill="#061E1C" /><rect x="4" y="7" width="1" height="1" fill="#00120F" /><rect x="5" y="7" width="1" height="1" fill="#161B1F" /><rect x="6" y="7" width="1" height="1" fill="#874786" /><rect x="7" y="7" width="1" height="1" fill="#914E93" /><rect x="8" y="7" width="1" height="1" fill="#762C5B" /><rect x="9" y="7" width="1" height="1" fill="#570C00" /><rect x="0" y="8" width="1" height="1" fill="#041E1A" /><rect x="1" y="8" width="1" height="1" fill="#031717" /><rect x="2" y="8" width="1" height="1" fill="#07221C" /><rect x="3" y="8" width="1" height="1" fill="#031E1B" /><rect x="4" y="8" width="1" height="1" fill="#07171E" /><rect x="5" y="8" width="1" height="1" fill="#001301" /><rect x="6" y="8" width="1" height="1" fill="#56315D" /><rect x="7" y="8" width="1" height="1" fill="#914E93" /><rect x="8" y="8" width="1" height="1" fill="#6D3C72" /><rect x="9" y="8" width="1" height="1" fill="#000E00" /><rect x="0" y="9" width="1" height="1" fill="#000000" /><rect x="1" y="9" width="1" height="1" fill="#000000" /><rect x="2" y="9" width="1" height="1" fill="#000000" /><rect x="3" y="9" width="1" height="1" fill="#000000" /><rect x="4" y="9" width="1" height="1" fill="#000000" /><rect x="5" y="9" width="1" height="1" fill="#000000" /><rect x="6" y="9" width="1" height="1" fill="#000000" /><rect x="7" y="9" width="1" height="1" fill="#000000" /><rect x="8" y="9" width="1" height="1" fill="#000000" /><rect x="9" y="9" width="1" height="1" fill="#000000" />
  </g>
</svg>