<svg width="800" height="1000" xmlns="http://www.w3.org/2000/svg"><defs><linearGradient id="g" x1="0" x2="1" y1="0" y2="1"><stop offset="0%" stop-color="#2d3c96"/><stop offset="100%" stop-color="#d53392"/></linearGradient></defs><rect x="10" y="10" width="780" height="980" fill="url(#g)" rx="50" ry="50" stroke="gold" stroke-width="20"/><text x="400" y="920" width="780" text-anchor="middle" style="font:bold 200px 'Helvetica Neue';fill:gold">00141</text><g transform="translate(80 80) scale(64)"><rect x="0" y="0" width="1" height="1" fill="#003134" /><rect x="0" y="1" width="1" height="1" fill="#012120" /><rect x="0" y="2" width="1" height="1" fill="#021915" /><rect x="0" y="3" width="1" height="1" fill="#011a19" /><rect x="0" y="4" width="1" height="1" fill="#021813" /><rect x="0" y="5" width="1" height="1" fill="#0a2921" /><rect x="0" y="6" width="1" height="1" fill="#001815" /><rect x="0" y="7" width="1" height="1" fill="#041d18" /><rect x="0" y="8" width="1" height="1" fill="#041e1a" /><rect x="0" y="9" width="1" height="1" fill="#000000" /><rect x="1" y="0" width="1" height="1" fill="#002d2e" /><rect x="1" y="1" width="1" height="1" fill="#012c2a" /><rect x="1" y="2" width="1" height="1" fill="#092221" /><rect x="1" y="3" width="1" height="1" fill="#011615" /><rect x="1" y="4" width="1" height="1" fill="#011412" /><rect x="1" y="5" width="1" height="1" fill="#082820" /><rect x="1" y="6" width="1" height="1" fill="#011917" /><rect x="1" y="7" width="1" height="1" fill="#031c16" /><rect x="1" y="8" width="1" height="1" fill="#031717" /><rect x="1" y="9" width="1" height="1" fill="#000000" /><rect x="2" y="0" width="1" height="1" fill="#02272e" /><rect x="2" y="1" width="1" height="1" fill="#001f23" /><rect x="2" y="2" width="1" height="1" fill="#000b00" /><rect x="2" y="3" width="1" height="1" fill="#001b14" /><rect x="2" y="4" width="1" height="1" fill="#041918" /><rect x="2" y="5" width="1" height="1" fill="#032f28" /><rect x="2" y="6" width="1" height="1" fill="#011e18" /><rect x="2" y="7" width="1" height="1" fill="#062019" /><rect x="2" y="8" width="1" height="1" fill="#07221c" /><rect x="2" y="9" width="1" height="1" fill="#000000" /><rect x="3" y="0" width="1" height="1" fill="#000506" /><rect x="3" y="1" width="1" height="1" fill="#211d2b" /><rect x="3" y="2" width="1" height="1" fill="#7a5f7d" /><rect x="3" y="3" width="1" height="1" fill="#172122" /><rect x="3" y="4" width="1" height="1" fill="#000d0e" /><rect x="3" y="5" width="1" height="1" fill="#002c14" /><rect x="3" y="6" width="1" height="1" fill="#051e18" /><rect x="3" y="7" width="1" height="1" fill="#061e1c" /><rect x="3" y="8" width="1" height="1" fill="#031e1b" /><rect x="3" y="9" width="1" height="1" fill="#000000" /><rect x="4" y="0" width="1" height="1" fill="#000000" /><rect x="4" y="1" width="1" height="1" fill="#714d73" /><rect x="4" y="2" width="1" height="1" fill="#9f7a9e" /><rect x="4" y="3" width="1" height="1" fill="#000000" /><rect x="4" y="4" width="1" height="1" fill="#0e3118" /><rect x="4" y="5" width="1" height="1" fill="#213643" /><rect x="4" y="6" width="1" height="1" fill="#00271e" /><rect x="4" y="7" width="1" height="1" fill="#00120f" /><rect x="4" y="8" width="1" height="1" fill="#07171e" /><rect x="4" y="9" width="1" height="1" fill="#000000" /><rect x="5" y="0" width="1" height="1" fill="#001c1a" /><rect x="5" y="1" width="1" height="1" fill="#643a69" /><rect x="5" y="2" width="1" height="1" fill="#825d83" /><rect x="5" y="3" width="1" height="1" fill="#8f8192" /><rect x="5" y="4" width="1" height="1" fill="#c799c6" /><rect x="5" y="5" width="1" height="1" fill="#9465af" /><rect x="5" y="6" width="1" height="1" fill="#00312a" /><rect x="5" y="7" width="1" height="1" fill="#161b1f" /><rect x="5" y="8" width="1" height="1" fill="#001301" /><rect x="5" y="9" width="1" height="1" fill="#000000" /><rect x="6" y="0" width="1" height="1" fill="#010000" /><rect x="6" y="1" width="1" height="1" fill="#4e3658" /><rect x="6" y="2" width="1" height="1" fill="#886184" /><rect x="6" y="3" width="1" height="1" fill="#874f76" /><rect x="6" y="4" width="1" height="1" fill="#6e014e" /><rect x="6" y="5" width="1" height="1" fill="#61274e" /><rect x="6" y="6" width="1" height="1" fill="#695195" /><rect x="6" y="7" width="1" height="1" fill="#874786" /><rect x="6" y="8" width="1" height="1" fill="#56315d" /><rect x="6" y="9" width="1" height="1" fill="#000000" /><rect x="7" y="0" width="1" height="1" fill="#8e7e8d" /><rect x="7" y="1" width="1" height="1" fill="#25002c" /><rect x="7" y="2" width="1" height="1" fill="#610029" /><rect x="7" y="3" width="1" height="1" fill="#803000" /><rect x="7" y="4" width="1" height="1" fill="#a0660b" /><rect x="7" y="5" width="1" height="1" fill="#670029" /><rect x="7" y="6" width="1" height="1" fill="#7a407d" /><rect x="7" y="7" width="1" height="1" fill="#914e93" /><rect x="7" y="8" width="1" height="1" fill="#914e93" /><rect x="7" y="9" width="1" height="1" fill="#000000" /><rect x="8" y="0" width="1" height="1" fill="#bdb4b7" /><rect x="8" y="1" width="1" height="1" fill="#843d88" /><rect x="8" y="2" width="1" height="1" fill="#6d326c" /><rect x="8" y="3" width="1" height="1" fill="#8b4c1a" /><rect x="8" y="4" width="1" height="1" fill="#b27f30" /><rect x="8" y="5" width="1" height="1" fill="#6f0725" /><rect x="8" y="6" width="1" height="1" fill="#730000" /><rect x="8" y="7" width="1" height="1" fill="#762c5b" /><rect x="8" y="8" width="1" height="1" fill="#6d3c72" /><rect x="8" y="9" width="1" height="1" fill="#000000" /><rect x="9" y="0" width="1" height="1" fill="#b5b7a3" /><rect x="9" y="1" width="1" height="1" fill="#844789" /><rect x="9" y="2" width="1" height="1" fill="#7a3e81" /><rect x="9" y="3" width="1" height="1" fill="#7e3727" /><rect x="9" y="4" width="1" height="1" fill="#9b632b" /><rect x="9" y="5" width="1" height="1" fill="#6c0c2b" /><rect x="9" y="6" width="1" height="1" fill="#78102e" /><rect x="9" y="7" width="1" height="1" fill="#570c00" /><rect x="9" y="8" width="1" height="1" fill="#000e00" /><rect x="9" y="9" width="1" height="1" fill="#000000" /></g></svg>