<svg width="800" height="1000" version="1.1" xmlns="http://www.w3.org/2000/svg" xmlns:xlink="http://www.w3.org/1999/xlink">
  <defs>
      <linearGradient id="Gradient2" x1="0" x2="1" y1="0" y2="1">
        <stop offset="0%" stop-color="#2d3c96"/>
        <stop offset="100%" stop-color="#d53392"/>
      </linearGradient>
  </defs>
  <rect x="10" y="10" width="780" height="980" fill="url(#Gradient2)" rx="50" ry="50" stroke="#ffd700" stroke-width="20"/>
  <text x="400" y="920" width="780" text-anchor="middle" style="font: bold 200px 'Helvetica Neue'; fill: #ffd700">00142</text>

  <g transform="translate(80 80) scale(64)">
<rect x="0" y="0" width="1" height="1" fill="#B3B89F" /><rect x="1" y="0" width="1" height="1" fill="#A3A195" /><rect x="2" y="0" width="1" height="1" fill="#9E5D9F" /><rect x="3" y="0" width="1" height="1" fill="#613E71" /><rect x="4" y="0" width="1" height="1" fill="#062D46" /><rect x="5" y="0" width="1" height="1" fill="#855388" /><rect x="6" y="0" width="1" height="1" fill="#7D547F" /><rect x="7" y="0" width="1" height="1" fill="#001B1F" /><rect x="8" y="0" width="1" height="1" fill="#002B34" /><rect x="9" y="0" width="1" height="1" fill="#000000" /><rect x="0" y="1" width="1" height="1" fill="#7E4184" /><rect x="1" y="1" width="1" height="1" fill="#803B88" /><rect x="2" y="1" width="1" height="1" fill="#541A50" /><rect x="3" y="1" width="1" height="1" fill="#665067" /><rect x="4" y="1" width="1" height="1" fill="#A576A8" /><rect x="5" y="1" width="1" height="1" fill="#9E739E" /><rect x="6" y="1" width="1" height="1" fill="#BF98BF" /><rect x="7" y="1" width="1" height="1" fill="#7A597E" /><rect x="8" y="1" width="1" height="1" fill="#001114" /><rect x="9" y="1" width="1" height="1" fill="#000000" /><rect x="0" y="2" width="1" height="1" fill="#6E3770" /><rect x="1" y="2" width="1" height="1" fill="#632E3E" /><rect x="2" y="2" width="1" height="1" fill="#68285A" /><rect x="3" y="2" width="1" height="1" fill="#9F65A1" /><rect x="4" y="2" width="1" height="1" fill="#997F9A" /><rect x="5" y="2" width="1" height="1" fill="#987999" /><rect x="6" y="2" width="1" height="1" fill="#977A98" /><rect x="7" y="2" width="1" height="1" fill="#795E7B" /><rect x="8" y="2" width="1" height="1" fill="#000214" /><rect x="9" y="2" width="1" height="1" fill="#000000" /><rect x="0" y="3" width="1" height="1" fill="#854629" /><rect x="1" y="3" width="1" height="1" fill="#8B5C01" /><rect x="2" y="3" width="1" height="1" fill="#7B415B" /><rect x="3" y="3" width="1" height="1" fill="#A759AB" /><rect x="4" y="3" width="1" height="1" fill="#663168" /><rect x="5" y="3" width="1" height="1" fill="#000301" /><rect x="6" y="3" width="1" height="1" fill="#000000" /><rect x="7" y="3" width="1" height="1" fill="#000100" /><rect x="8" y="3" width="1" height="1" fill="#031922" /><rect x="9" y="3" width="1" height="1" fill="#000000" /><rect x="0" y="4" width="1" height="1" fill="#925B2E" /><rect x="1" y="4" width="1" height="1" fill="#6F1A1C" /><rect x="2" y="4" width="1" height="1" fill="#7E3548" /><rect x="3" y="4" width="1" height="1" fill="#AA5FAC" /><rect x="4" y="4" width="1" height="1" fill="#8F4C90" /><rect x="5" y="4" width="1" height="1" fill="#3F2141" /><rect x="6" y="4" width="1" height="1" fill="#010E0C" /><rect x="7" y="4" width="1" height="1" fill="#111421" /><rect x="8" y="4" width="1" height="1" fill="#000C15" /><rect x="9" y="4" width="1" height="1" fill="#000000" /><rect x="0" y="5" width="1" height="1" fill="#721A2D" /><rect x="1" y="5" width="1" height="1" fill="#6F062C" /><rect x="2" y="5" width="1" height="1" fill="#691012" /><rect x="3" y="5" width="1" height="1" fill="#9A5393" /><rect x="4" y="5" width="1" height="1" fill="#AE5EB3" /><rect x="5" y="5" width="1" height="1" fill="#6D3F78" /><rect x="6" y="5" width="1" height="1" fill="#000000" /><rect x="7" y="5" width="1" height="1" fill="#0B1320" /><rect x="8" y="5" width="1" height="1" fill="#00141B" /><rect x="9" y="5" width="1" height="1" fill="#000000" /><rect x="0" y="6" width="1" height="1" fill="#710007" /><rect x="1" y="6" width="1" height="1" fill="#710A18" /><rect x="2" y="6" width="1" height="1" fill="#712221" /><rect x="3" y="6" width="1" height="1" fill="#6B122B" /><rect x="4" y="6" width="1" height="1" fill="#785193" /><rect x="5" y="6" width="1" height="1" fill="#343567" /><rect x="6" y="6" width="1" height="1" fill="#000200" /><rect x="7" y="6" width="1" height="1" fill="#031720" /><rect x="8" y="6" width="1" height="1" fill="#001413" /><rect x="9" y="6" width="1" height="1" fill="#000000" /><rect x="0" y="7" width="1" height="1" fill="#6C3460" /><rect x="1" y="7" width="1" height="1" fill="#782E58" /><rect x="2" y="7" width="1" height="1" fill="#81526F" /><rect x="3" y="7" width="1" height="1" fill="#40363A" /><rect x="4" y="7" width="1" height="1" fill="#002300" /><rect x="5" y="7" width="1" height="1" fill="#000600" /><rect x="6" y="7" width="1" height="1" fill="#001317" /><rect x="7" y="7" width="1" height="1" fill="#001412" /><rect x="8" y="7" width="1" height="1" fill="#001218" /><rect x="9" y="7" width="1" height="1" fill="#000000" /><rect x="0" y="8" width="1" height="1" fill="#6D57A1" /><rect x="1" y="8" width="1" height="1" fill="#885FB1" /><rect x="2" y="8" width="1" height="1" fill="#7C4B93" /><rect x="3" y="8" width="1" height="1" fill="#2D252D" /><rect x="4" y="8" width="1" height="1" fill="#0E181C" /><rect x="5" y="8" width="1" height="1" fill="#111C21" /><rect x="6" y="8" width="1" height="1" fill="#1B1A21" /><rect x="7" y="8" width="1" height="1" fill="#211120" /><rect x="8" y="8" width="1" height="1" fill="#001211" /><rect x="9" y="8" width="1" height="1" fill="#000000" /><rect x="0" y="9" width="1" height="1" fill="#000000" /><rect x="1" y="9" width="1" height="1" fill="#000000" /><rect x="2" y="9" width="1" height="1" fill="#000000" /><rect x="3" y="9" width="1" height="1" fill="#000000" /><rect x="4" y="9" width="1" height="1" fill="#000000" /><rect x="5" y="9" width="1" height="1" fill="#000000" /><rect x="6" y="9" width="1" height="1" fill="#000000" /><rect x="7" y="9" width="1" height="1" fill="#000000" /><rect x="8" y="9" width="1" height="1" fill="#000000" /><rect x="9" y="9" width="1" height="1" fill="#000000" />
  </g>
</svg>