<svg width="800" height="1000" xmlns="http://www.w3.org/2000/svg"><defs><linearGradient id="g" x1="0" x2="1" y1="0" y2="1"><stop offset="0%" stop-color="#2d3c96"/><stop offset="100%" stop-color="#d53392"/></linearGradient></defs><rect x="10" y="10" width="780" height="980" fill="url(#g)" rx="50" ry="50" stroke="gold" stroke-width="20"/><text x="400" y="920" width="780" text-anchor="middle" style="font:bold 200px 'Helvetica Neue';fill:gold">00159</text><g transform="translate(80 80) scale(64)"><rect x="0" y="0" width="1" height="1" fill="#330012" /><rect x="0" y="1" width="1" height="1" fill="#1246ad" /><rect x="0" y="2" width="1" height="1" fill="#1042a3" /><rect x="0" y="3" width="1" height="1" fill="#103e9a" /><rect x="0" y="4" width="1" height="1" fill="#0e3a91" /><rect x="0" y="5" width="1" height="1" fill="#0e3788" /><rect x="0" y="6" width="1" height="1" fill="#0d337e" /><rect x="0" y="7" width="1" height="1" fill="#0c2f75" /><rect x="0" y="8" width="1" height="1" fill="#0c2b6c" /><rect x="0" y="9" width="1" height="1" fill="#88ee88" /><rect x="1" y="0" width="1" height="1" fill="#134ab6" /><rect x="1" y="1" width="1" height="1" fill="#1145ac" /><rect x="1" y="2" width="1" height="1" fill="#1142a4" /><rect x="1" y="3" width="1" height="1" fill="#0f3f9a" /><rect x="1" y="4" width="1" height="1" fill="#0f3b90" /><rect x="1" y="5" width="1" height="1" fill="#0e3788" /><rect x="1" y="6" width="1" height="1" fill="#0d337e" /><rect x="1" y="7" width="1" height="1" fill="#0c3076" /><rect x="1" y="8" width="1" height="1" fill="#0b2c6c" /><rect x="1" y="9" width="1" height="1" fill="#88ee88" /><rect x="2" y="0" width="1" height="1" fill="#1249b5" /><rect x="2" y="1" width="1" height="1" fill="#1246ac" /><rect x="2" y="2" width="1" height="1" fill="#1042a3" /><rect x="2" y="3" width="1" height="1" fill="#103f9a" /><rect x="2" y="4" width="1" height="1" fill="#0f3b90" /><rect x="2" y="5" width="1" height="1" fill="#0e3788" /><rect x="2" y="6" width="1" height="1" fill="#0d337f" /><rect x="2" y="7" width="1" height="1" fill="#0c2f73" /><rect x="2" y="8" width="1" height="1" fill="#0b2a6a" /><rect x="2" y="9" width="1" height="1" fill="#88ee88" /><rect x="3" y="0" width="1" height="1" fill="#134ab6" /><rect x="3" y="1" width="1" height="1" fill="#1246ad" /><rect x="3" y="2" width="1" height="1" fill="#1142a3" /><rect x="3" y="3" width="1" height="1" fill="#103e9a" /><rect x="3" y="4" width="1" height="1" fill="#0f3a8e" /><rect x="3" y="5" width="1" height="1" fill="#0e3585" /><rect x="3" y="6" width="1" height="1" fill="#0c327c" /><rect x="3" y="7" width="1" height="1" fill="#0c2e73" /><rect x="3" y="8" width="1" height="1" fill="#0b2a69" /><rect x="3" y="9" width="1" height="1" fill="#88ee88" /><rect x="4" y="0" width="1" height="1" fill="#1248b3" /><rect x="4" y="1" width="1" height="1" fill="#1145aa" /><rect x="4" y="2" width="1" height="1" fill="#1141a1" /><rect x="4" y="3" width="1" height="1" fill="#103d98" /><rect x="4" y="4" width="1" height="1" fill="#0e398f" /><rect x="4" y="5" width="1" height="1" fill="#0e3685" /><rect x="4" y="6" width="1" height="1" fill="#0d327c" /><rect x="4" y="7" width="1" height="1" fill="#0c2e73" /><rect x="4" y="8" width="1" height="1" fill="#0b2b6a" /><rect x="4" y="9" width="1" height="1" fill="#88ee88" /><rect x="5" y="0" width="1" height="1" fill="#1248b3" /><rect x="5" y="1" width="1" height="1" fill="#1244aa" /><rect x="5" y="2" width="1" height="1" fill="#1041a0" /><rect x="5" y="3" width="1" height="1" fill="#103d98" /><rect x="5" y="4" width="1" height="1" fill="#0f398e" /><rect x="5" y="5" width="1" height="1" fill="#0e3685" /><rect x="5" y="6" width="1" height="1" fill="#0c327c" /><rect x="5" y="7" width="1" height="1" fill="#0c2e72" /><rect x="5" y="8" width="1" height="1" fill="#0a2b6a" /><rect x="5" y="9" width="1" height="1" fill="#88ee88" /><rect x="6" y="0" width="1" height="1" fill="#060033" /><rect x="6" y="1" width="1" height="1" fill="#1145aa" /><rect x="6" y="2" width="1" height="1" fill="#1141a1" /><rect x="6" y="3" width="1" height="1" fill="#0f3d98" /><rect x="6" y="4" width="1" height="1" fill="#0e3a8f" /><rect x="6" y="5" width="1" height="1" fill="#0e3685" /><rect x="6" y="6" width="1" height="1" fill="#0c327c" /><rect x="6" y="7" width="1" height="1" fill="#0c2f73" /><rect x="6" y="8" width="1" height="1" fill="#0b2b69" /><rect x="6" y="9" width="1" height="1" fill="#88ee88" /><rect x="7" y="0" width="1" height="1" fill="#1d00e6" /><rect x="7" y="1" width="1" height="1" fill="#060033" /><rect x="7" y="2" width="1" height="1" fill="#1041a1" /><rect x="7" y="3" width="1" height="1" fill="#0f3e98" /><rect x="7" y="4" width="1" height="1" fill="#0f398f" /><rect x="7" y="5" width="1" height="1" fill="#0e3685" /><rect x="7" y="6" width="1" height="1" fill="#0d337c" /><rect x="7" y="7" width="1" height="1" fill="#0c2f73" /><rect x="7" y="8" width="1" height="1" fill="#0b2a6a" /><rect x="7" y="9" width="1" height="1" fill="#0a2761" /><rect x="8" y="0" width="1" height="1" fill="#1d00e6" /><rect x="8" y="1" width="1" height="1" fill="#1d00e6" /><rect x="8" y="2" width="1" height="1" fill="#060033" /><rect x="8" y="3" width="1" height="1" fill="#060033" /><rect x="8" y="4" width="1" height="1" fill="#060033" /><rect x="8" y="5" width="1" height="1" fill="#0e3685" /><rect x="8" y="6" width="1" height="1" fill="#0d327c" /><rect x="8" y="7" width="1" height="1" fill="#0c2f72" /><rect x="8" y="8" width="1" height="1" fill="#0b2b6a" /><rect x="8" y="9" width="1" height="1" fill="#88ee88" /><rect x="9" y="0" width="1" height="1" fill="#1d00e6" /><rect x="9" y="1" width="1" height="1" fill="#1d00e6" /><rect x="9" y="2" width="1" height="1" fill="#060033" /><rect x="9" y="3" width="1" height="1" fill="#1d00e6" /><rect x="9" y="4" width="1" height="1" fill="#0d0066" /><rect x="9" y="5" width="1" height="1" fill="#060033" /><rect x="9" y="6" width="1" height="1" fill="#0d327c" /><rect x="9" y="7" width="1" height="1" fill="#0c2f73" /><rect x="9" y="8" width="1" height="1" fill="#0b2b69" /><rect x="9" y="9" width="1" height="1" fill="#88ee88" /></g></svg>