<svg width="800" height="1000" xmlns="http://www.w3.org/2000/svg"><defs><linearGradient id="g" x1="0" x2="1" y1="0" y2="1"><stop offset="0%" stop-color="#2d3c96"/><stop offset="100%" stop-color="#d53392"/></linearGradient></defs><rect x="10" y="10" width="780" height="980" fill="url(#g)" rx="50" ry="50" stroke="gold" stroke-width="20"/><text x="400" y="920" width="780" text-anchor="middle" style="font:bold 200px 'Helvetica Neue';fill:gold">00157</text><g transform="translate(80 80) scale(64)"><rect x="0" y="0" width="1" height="1" fill="#000000" /><rect x="0" y="1" width="1" height="1" fill="#000000" /><rect x="0" y="2" width="1" height="1" fill="#000000" /><rect x="0" y="3" width="1" height="1" fill="#000000" /><rect x="0" y="4" width="1" height="1" fill="#000000" /><rect x="0" y="5" width="1" height="1" fill="#000000" /><rect x="0" y="6" width="1" height="1" fill="#000000" /><rect x="0" y="7" width="1" height="1" fill="#000000" /><rect x="0" y="8" width="1" height="1" fill="#000000" /><rect x="0" y="9" width="1" height="1" fill="#000000" /><rect x="1" y="0" width="1" height="1" fill="#000000" /><rect x="1" y="1" width="1" height="1" fill="#000000" /><rect x="1" y="2" width="1" height="1" fill="#000000" /><rect x="1" y="3" width="1" height="1" fill="#000000" /><rect x="1" y="4" width="1" height="1" fill="#000000" /><rect x="1" y="5" width="1" height="1" fill="#000000" /><rect x="1" y="6" width="1" height="1" fill="#000000" /><rect x="1" y="7" width="1" height="1" fill="#000000" /><rect x="1" y="8" width="1" height="1" fill="#000000" /><rect x="1" y="9" width="1" height="1" fill="#000000" /><rect x="2" y="0" width="1" height="1" fill="#000000" /><rect x="2" y="1" width="1" height="1" fill="#000000" /><rect x="2" y="2" width="1" height="1" fill="#000000" /><rect x="2" y="3" width="1" height="1" fill="#000000" /><rect x="2" y="4" width="1" height="1" fill="#000000" /><rect x="2" y="5" width="1" height="1" fill="#000000" /><rect x="2" y="6" width="1" height="1" fill="#000000" /><rect x="2" y="7" width="1" height="1" fill="#000000" /><rect x="2" y="8" width="1" height="1" fill="#000000" /><rect x="2" y="9" width="1" height="1" fill="#000000" /><rect x="3" y="0" width="1" height="1" fill="#000000" /><rect x="3" y="1" width="1" height="1" fill="#000000" /><rect x="3" y="2" width="1" height="1" fill="#1e1e1e" /><rect x="3" y="3" width="1" height="1" fill="#676767" /><rect x="3" y="4" width="1" height="1" fill="#8b8484" /><rect x="3" y="5" width="1" height="1" fill="#898383" /><rect x="3" y="6" width="1" height="1" fill="#646464" /><rect x="3" y="7" width="1" height="1" fill="#1a1a1a" /><rect x="3" y="8" width="1" height="1" fill="#000000" /><rect x="3" y="9" width="1" height="1" fill="#000000" /><rect x="4" y="0" width="1" height="1" fill="#2d2d2d" /><rect x="4" y="1" width="1" height="1" fill="#c2b3b3" /><rect x="4" y="2" width="1" height="1" fill="#f1d9d9" /><rect x="4" y="3" width="1" height="1" fill="#f88888" /><rect x="4" y="4" width="1" height="1" fill="#ff6767" /><rect x="4" y="5" width="1" height="1" fill="#ff6868" /><rect x="4" y="6" width="1" height="1" fill="#f68d8d" /><rect x="4" y="7" width="1" height="1" fill="#f2dddd" /><rect x="4" y="8" width="1" height="1" fill="#c2b3b3" /><rect x="4" y="9" width="1" height="1" fill="#323232" /><rect x="5" y="0" width="1" height="1" fill="#f2d7d7" /><rect x="5" y="1" width="1" height="1" fill="#fe5555" /><rect x="5" y="2" width="1" height="1" fill="#ff0101" /><rect x="5" y="3" width="1" height="1" fill="#ff0000" /><rect x="5" y="4" width="1" height="1" fill="#ff0000" /><rect x="5" y="5" width="1" height="1" fill="#ff0000" /><rect x="5" y="6" width="1" height="1" fill="#ff0000" /><rect x="5" y="7" width="1" height="1" fill="#ff0101" /><rect x="5" y="8" width="1" height="1" fill="#fe5454" /><rect x="5" y="9" width="1" height="1" fill="#f1d3d3" /><rect x="6" y="0" width="1" height="1" fill="#ff0404" /><rect x="6" y="1" width="1" height="1" fill="#ff0000" /><rect x="6" y="2" width="1" height="1" fill="#ff0000" /><rect x="6" y="3" width="1" height="1" fill="#ff1313" /><rect x="6" y="4" width="1" height="1" fill="#ff4040" /><rect x="6" y="5" width="1" height="1" fill="#ff3d3d" /><rect x="6" y="6" width="1" height="1" fill="#ff0f0f" /><rect x="6" y="7" width="1" height="1" fill="#ff0000" /><rect x="6" y="8" width="1" height="1" fill="#ff0000" /><rect x="6" y="9" width="1" height="1" fill="#ff0303" /><rect x="7" y="0" width="1" height="1" fill="#ff0000" /><rect x="7" y="1" width="1" height="1" fill="#ff1d1d" /><rect x="7" y="2" width="1" height="1" fill="#f39c9c" /><rect x="7" y="3" width="1" height="1" fill="#eee1e1" /><rect x="7" y="4" width="1" height="1" fill="#bcabab" /><rect x="7" y="5" width="1" height="1" fill="#c0aeae" /><rect x="7" y="6" width="1" height="1" fill="#f0e3e3" /><rect x="7" y="7" width="1" height="1" fill="#f49898" /><rect x="7" y="8" width="1" height="1" fill="#ff1c1c" /><rect x="7" y="9" width="1" height="1" fill="#ff0000" /><rect x="8" y="0" width="1" height="1" fill="#f68c8c" /><rect x="8" y="1" width="1" height="1" fill="#eee1e1" /><rect x="8" y="2" width="1" height="1" fill="#716d6d" /><rect x="8" y="3" width="1" height="1" fill="#060606" /><rect x="8" y="4" width="1" height="1" fill="#000000" /><rect x="8" y="5" width="1" height="1" fill="#000000" /><rect x="8" y="6" width="1" height="1" fill="#070707" /><rect x="8" y="7" width="1" height="1" fill="#736e6e" /><rect x="8" y="8" width="1" height="1" fill="#ede0e0" /><rect x="8" y="9" width="1" height="1" fill="#f68f8f" /><rect x="9" y="0" width="1" height="1" fill="#847d7d" /><rect x="9" y="1" width="1" height="1" fill="#0c0c0c" /><rect x="9" y="2" width="1" height="1" fill="#000000" /><rect x="9" y="3" width="1" height="1" fill="#000000" /><rect x="9" y="4" width="1" height="1" fill="#000000" /><rect x="9" y="5" width="1" height="1" fill="#000000" /><rect x="9" y="6" width="1" height="1" fill="#000000" /><rect x="9" y="7" width="1" height="1" fill="#000000" /><rect x="9" y="8" width="1" height="1" fill="#0b0b0b" /><rect x="9" y="9" width="1" height="1" fill="#7f7878" /></g></svg>