<svg width="800" height="1000" version="1.1" xmlns="http://www.w3.org/2000/svg" xmlns:xlink="http://www.w3.org/1999/xlink">
  <defs>
      <linearGradient id="Gradient2" x1="0" x2="1" y1="0" y2="1">
        <stop offset="0%" stop-color="#2d3c96"/>
        <stop offset="100%" stop-color="#d53392"/>
      </linearGradient>
  </defs>
  <rect x="10" y="10" width="780" height="980" fill="url(#Gradient2)" rx="50" ry="50" stroke="#ffd700" stroke-width="20"/>
  <text x="400" y="920" width="780" text-anchor="middle" style="font: bold 200px 'Helvetica Neue'; fill: #ffd700">00164</text>

  <g transform="translate(80 80) scale(64)">
<rect x="0" y="0" width="1" height="1" fill="#000000" /><rect x="1" y="0" width="1" height="1" fill="#8F8787" /><rect x="2" y="0" width="1" height="1" fill="#FE6C6C" /><rect x="3" y="0" width="1" height="1" fill="#FF0000" /><rect x="4" y="0" width="1" height="1" fill="#FC7575" /><rect x="5" y="0" width="1" height="1" fill="#837D7D" /><rect x="6" y="0" width="1" height="1" fill="#161616" /><rect x="7" y="0" width="1" height="1" fill="#D2C4C4" /><rect x="8" y="0" width="1" height="1" fill="#F3A2A2" /><rect x="9" y="0" width="1" height="1" fill="#FF1313" /><rect x="0" y="1" width="1" height="1" fill="#000000" /><rect x="1" y="1" width="1" height="1" fill="#A49696" /><rect x="2" y="1" width="1" height="1" fill="#FF5555" /><rect x="3" y="1" width="1" height="1" fill="#FF0000" /><rect x="4" y="1" width="1" height="1" fill="#FF5D5D" /><rect x="5" y="1" width="1" height="1" fill="#BCB5B5" /><rect x="6" y="1" width="1" height="1" fill="#E7D9D9" /><rect x="7" y="1" width="1" height="1" fill="#FB6363" /><rect x="8" y="1" width="1" height="1" fill="#FF0000" /><rect x="9" y="1" width="1" height="1" fill="#FF0000" /><rect x="0" y="2" width="1" height="1" fill="#000000" /><rect x="1" y="2" width="1" height="1" fill="#A49696" /><rect x="2" y="2" width="1" height="1" fill="#FF5555" /><rect x="3" y="2" width="1" height="1" fill="#FF0000" /><rect x="4" y="2" width="1" height="1" fill="#FF5D5D" /><rect x="5" y="2" width="1" height="1" fill="#F8EFEF" /><rect x="6" y="2" width="1" height="1" fill="#FE4343" /><rect x="7" y="2" width="1" height="1" fill="#FF0000" /><rect x="8" y="2" width="1" height="1" fill="#FF0000" /><rect x="9" y="2" width="1" height="1" fill="#FE4646" /><rect x="0" y="3" width="1" height="1" fill="#000000" /><rect x="1" y="3" width="1" height="1" fill="#A49696" /><rect x="2" y="3" width="1" height="1" fill="#FF5555" /><rect x="3" y="3" width="1" height="1" fill="#FF0000" /><rect x="4" y="3" width="1" height="1" fill="#FF3F3F" /><rect x="5" y="3" width="1" height="1" fill="#FF2929" /><rect x="6" y="3" width="1" height="1" fill="#FF0000" /><rect x="7" y="3" width="1" height="1" fill="#FF0000" /><rect x="8" y="3" width="1" height="1" fill="#F96E6E" /><rect x="9" y="3" width="1" height="1" fill="#E3D5D5" /><rect x="0" y="4" width="1" height="1" fill="#000000" /><rect x="1" y="4" width="1" height="1" fill="#A49696" /><rect x="2" y="4" width="1" height="1" fill="#FF5555" /><rect x="3" y="4" width="1" height="1" fill="#FF0000" /><rect x="4" y="4" width="1" height="1" fill="#FF0000" /><rect x="5" y="4" width="1" height="1" fill="#FF0000" /><rect x="6" y="4" width="1" height="1" fill="#FF0303" /><rect x="7" y="4" width="1" height="1" fill="#F59191" /><rect x="8" y="4" width="1" height="1" fill="#CEC1C1" /><rect x="9" y="4" width="1" height="1" fill="#121212" /><rect x="0" y="5" width="1" height="1" fill="#000000" /><rect x="1" y="5" width="1" height="1" fill="#A49696" /><rect x="2" y="5" width="1" height="1" fill="#FF5555" /><rect x="3" y="5" width="1" height="1" fill="#FF0000" /><rect x="4" y="5" width="1" height="1" fill="#FF0000" /><rect x="5" y="5" width="1" height="1" fill="#FF0B0B" /><rect x="6" y="5" width="1" height="1" fill="#F2B0B0" /><rect x="7" y="5" width="1" height="1" fill="#B1A5A5" /><rect x="8" y="5" width="1" height="1" fill="#070707" /><rect x="9" y="5" width="1" height="1" fill="#000000" /><rect x="0" y="6" width="1" height="1" fill="#000000" /><rect x="1" y="6" width="1" height="1" fill="#A49696" /><rect x="2" y="6" width="1" height="1" fill="#FF5555" /><rect x="3" y="6" width="1" height="1" fill="#FF0000" /><rect x="4" y="6" width="1" height="1" fill="#FF1717" /><rect x="5" y="6" width="1" height="1" fill="#F2CACA" /><rect x="6" y="6" width="1" height="1" fill="#8B8383" /><rect x="7" y="6" width="1" height="1" fill="#010101" /><rect x="8" y="6" width="1" height="1" fill="#000000" /><rect x="9" y="6" width="1" height="1" fill="#000000" /><rect x="0" y="7" width="1" height="1" fill="#000000" /><rect x="1" y="7" width="1" height="1" fill="#A49696" /><rect x="2" y="7" width="1" height="1" fill="#FF5555" /><rect x="3" y="7" width="1" height="1" fill="#FF0000" /><rect x="4" y="7" width="1" height="1" fill="#FF5D5D" /><rect x="5" y="7" width="1" height="1" fill="#A99F9F" /><rect x="6" y="7" width="1" height="1" fill="#000000" /><rect x="7" y="7" width="1" height="1" fill="#000000" /><rect x="8" y="7" width="1" height="1" fill="#000000" /><rect x="9" y="7" width="1" height="1" fill="#000000" /><rect x="0" y="8" width="1" height="1" fill="#000000" /><rect x="1" y="8" width="1" height="1" fill="#A49696" /><rect x="2" y="8" width="1" height="1" fill="#FF5555" /><rect x="3" y="8" width="1" height="1" fill="#FF0000" /><rect x="4" y="8" width="1" height="1" fill="#FF5D5D" /><rect x="5" y="8" width="1" height="1" fill="#998E8E" /><rect x="6" y="8" width="1" height="1" fill="#000000" /><rect x="7" y="8" width="1" height="1" fill="#000000" /><rect x="8" y="8" width="1" height="1" fill="#000000" /><rect x="9" y="8" width="1" height="1" fill="#000000" /><rect x="0" y="9" width="1" height="1" fill="#000000" /><rect x="1" y="9" width="1" height="1" fill="#A49696" /><rect x="2" y="9" width="1" height="1" fill="#FF5555" /><rect x="3" y="9" width="1" height="1" fill="#FF0000" /><rect x="4" y="9" width="1" height="1" fill="#FF5D5D" /><rect x="5" y="9" width="1" height="1" fill="#998E8E" /><rect x="6" y="9" width="1" height="1" fill="#000000" /><rect x="7" y="9" width="1" height="1" fill="#000000" /><rect x="8" y="9" width="1" height="1" fill="#000000" /><rect x="9" y="9" width="1" height="1" fill="#000000" />
  </g>
</svg>