<svg width="800" height="1000" version="1.1" xmlns="http://www.w3.org/2000/svg" xmlns:xlink="http://www.w3.org/1999/xlink">
  <defs>
      <linearGradient id="Gradient2" x1="0" x2="1" y1="0" y2="1">
        <stop offset="0%" stop-color="#2d3c96"/>
        <stop offset="100%" stop-color="#d53392"/>
      </linearGradient>
  </defs>
  <rect x="10" y="10" width="780" height="980" fill="url(#Gradient2)" rx="50" ry="50" stroke="#ffd700" stroke-width="20"/>
  <text x="400" y="920" width="780" text-anchor="middle" style="font: bold 200px 'Helvetica Neue'; fill: #ffd700">00163</text>

  <g transform="translate(80 80) scale(64)">
<rect x="0" y="0" width="1" height="1" fill="#FF0000" /><rect x="1" y="0" width="1" height="1" fill="#FF0505" /><rect x="2" y="0" width="1" height="1" fill="#F97878" /><rect x="3" y="0" width="1" height="1" fill="#E0D3D3" /><rect x="4" y="0" width="1" height="1" fill="#121212" /><rect x="5" y="0" width="1" height="1" fill="#000000" /><rect x="6" y="0" width="1" height="1" fill="#000000" /><rect x="7" y="0" width="1" height="1" fill="#000000" /><rect x="8" y="0" width="1" height="1" fill="#000000" /><rect x="9" y="0" width="1" height="1" fill="#000000" /><rect x="0" y="1" width="1" height="1" fill="#FF0000" /><rect x="1" y="1" width="1" height="1" fill="#FF0000" /><rect x="2" y="1" width="1" height="1" fill="#FF0000" /><rect x="3" y="1" width="1" height="1" fill="#FA7373" /><rect x="4" y="1" width="1" height="1" fill="#B3A6A6" /><rect x="5" y="1" width="1" height="1" fill="#000000" /><rect x="6" y="1" width="1" height="1" fill="#000000" /><rect x="7" y="1" width="1" height="1" fill="#000000" /><rect x="8" y="1" width="1" height="1" fill="#000000" /><rect x="9" y="1" width="1" height="1" fill="#000000" /><rect x="0" y="2" width="1" height="1" fill="#F3E4E4" /><rect x="1" y="2" width="1" height="1" fill="#FB5555" /><rect x="2" y="2" width="1" height="1" fill="#FF0000" /><rect x="3" y="2" width="1" height="1" fill="#FF0303" /><rect x="4" y="2" width="1" height="1" fill="#F2DDDD" /><rect x="5" y="2" width="1" height="1" fill="#181818" /><rect x="6" y="2" width="1" height="1" fill="#000000" /><rect x="7" y="2" width="1" height="1" fill="#000000" /><rect x="8" y="2" width="1" height="1" fill="#000000" /><rect x="9" y="2" width="1" height="1" fill="#000000" /><rect x="0" y="3" width="1" height="1" fill="#1A1A1A" /><rect x="1" y="3" width="1" height="1" fill="#F2E5E5" /><rect x="2" y="3" width="1" height="1" fill="#FF0505" /><rect x="3" y="3" width="1" height="1" fill="#FF0000" /><rect x="4" y="3" width="1" height="1" fill="#EFA0A0" /><rect x="5" y="3" width="1" height="1" fill="#4C4C4C" /><rect x="6" y="3" width="1" height="1" fill="#000000" /><rect x="7" y="3" width="1" height="1" fill="#000000" /><rect x="8" y="3" width="1" height="1" fill="#000000" /><rect x="9" y="3" width="1" height="1" fill="#000000" /><rect x="0" y="4" width="1" height="1" fill="#000000" /><rect x="1" y="4" width="1" height="1" fill="#E1D0D0" /><rect x="2" y="4" width="1" height="1" fill="#FF1B1B" /><rect x="3" y="4" width="1" height="1" fill="#FF0000" /><rect x="4" y="4" width="1" height="1" fill="#F58B8B" /><rect x="5" y="4" width="1" height="1" fill="#616161" /><rect x="6" y="4" width="1" height="1" fill="#000000" /><rect x="7" y="4" width="1" height="1" fill="#000000" /><rect x="8" y="4" width="1" height="1" fill="#000000" /><rect x="9" y="4" width="1" height="1" fill="#000000" /><rect x="0" y="5" width="1" height="1" fill="#4D4D4D" /><rect x="1" y="5" width="1" height="1" fill="#E4D6D6" /><rect x="2" y="5" width="1" height="1" fill="#FF1F1F" /><rect x="3" y="5" width="1" height="1" fill="#FF0000" /><rect x="4" y="5" width="1" height="1" fill="#F98282" /><rect x="5" y="5" width="1" height="1" fill="#696969" /><rect x="6" y="5" width="1" height="1" fill="#000000" /><rect x="7" y="5" width="1" height="1" fill="#000000" /><rect x="8" y="5" width="1" height="1" fill="#000000" /><rect x="9" y="5" width="1" height="1" fill="#000000" /><rect x="0" y="6" width="1" height="1" fill="#F09F9F" /><rect x="1" y="6" width="1" height="1" fill="#F5CCCC" /><rect x="2" y="6" width="1" height="1" fill="#FF2121" /><rect x="3" y="6" width="1" height="1" fill="#FF0000" /><rect x="4" y="6" width="1" height="1" fill="#FD7A7A" /><rect x="5" y="6" width="1" height="1" fill="#727272" /><rect x="6" y="6" width="1" height="1" fill="#000000" /><rect x="7" y="6" width="1" height="1" fill="#000000" /><rect x="8" y="6" width="1" height="1" fill="#000000" /><rect x="9" y="6" width="1" height="1" fill="#000000" /><rect x="0" y="7" width="1" height="1" fill="#FF0000" /><rect x="1" y="7" width="1" height="1" fill="#FF0000" /><rect x="2" y="7" width="1" height="1" fill="#FF0000" /><rect x="3" y="7" width="1" height="1" fill="#FF0000" /><rect x="4" y="7" width="1" height="1" fill="#FF7171" /><rect x="5" y="7" width="1" height="1" fill="#7C7A7A" /><rect x="6" y="7" width="1" height="1" fill="#000000" /><rect x="7" y="7" width="1" height="1" fill="#000000" /><rect x="8" y="7" width="1" height="1" fill="#000000" /><rect x="9" y="7" width="1" height="1" fill="#000000" /><rect x="0" y="8" width="1" height="1" fill="#FF0606" /><rect x="1" y="8" width="1" height="1" fill="#FF0000" /><rect x="2" y="8" width="1" height="1" fill="#FF0000" /><rect x="3" y="8" width="1" height="1" fill="#FF0000" /><rect x="4" y="8" width="1" height="1" fill="#FF6969" /><rect x="5" y="8" width="1" height="1" fill="#898383" /><rect x="6" y="8" width="1" height="1" fill="#000000" /><rect x="7" y="8" width="1" height="1" fill="#000000" /><rect x="8" y="8" width="1" height="1" fill="#000000" /><rect x="9" y="8" width="1" height="1" fill="#000000" /><rect x="0" y="9" width="1" height="1" fill="#F2E7E7" /><rect x="1" y="9" width="1" height="1" fill="#F48787" /><rect x="2" y="9" width="1" height="1" fill="#FF0000" /><rect x="3" y="9" width="1" height="1" fill="#FF0000" /><rect x="4" y="9" width="1" height="1" fill="#FF6060" /><rect x="5" y="9" width="1" height="1" fill="#958B8B" /><rect x="6" y="9" width="1" height="1" fill="#000000" /><rect x="7" y="9" width="1" height="1" fill="#000000" /><rect x="8" y="9" width="1" height="1" fill="#000000" /><rect x="9" y="9" width="1" height="1" fill="#000000" />
  </g>
</svg>