<svg width="800" height="1000" version="1.1" xmlns="http://www.w3.org/2000/svg" xmlns:xlink="http://www.w3.org/1999/xlink">
  <defs>
      <linearGradient id="Gradient2" x1="0" x2="1" y1="0" y2="1">
        <stop offset="0%" stop-color="#2d3c96"/>
        <stop offset="100%" stop-color="#d53392"/>
      </linearGradient>
  </defs>
  <rect x="10" y="10" width="780" height="980" fill="url(#Gradient2)" rx="50" ry="50" stroke="#ffd700" stroke-width="20"/>
  <text x="400" y="920" width="780" text-anchor="middle" style="font: bold 200px 'Helvetica Neue'; fill: #ffd700">00166</text>

  <g transform="translate(80 80) scale(64)">
<rect x="0" y="0" width="1" height="1" fill="#000000" /><rect x="1" y="0" width="1" height="1" fill="#000000" /><rect x="2" y="0" width="1" height="1" fill="#000000" /><rect x="3" y="0" width="1" height="1" fill="#686868" /><rect x="4" y="0" width="1" height="1" fill="#C3C3C3" /><rect x="5" y="0" width="1" height="1" fill="#6A6A6A" /><rect x="6" y="0" width="1" height="1" fill="#6A6A6A" /><rect x="7" y="0" width="1" height="1" fill="#D7D7D7" /><rect x="8" y="0" width="1" height="1" fill="#454545" /><rect x="9" y="0" width="1" height="1" fill="#000000" /><rect x="0" y="1" width="1" height="1" fill="#000000" /><rect x="1" y="1" width="1" height="1" fill="#000000" /><rect x="2" y="1" width="1" height="1" fill="#070707" /><rect x="3" y="1" width="1" height="1" fill="#E4E4E4" /><rect x="4" y="1" width="1" height="1" fill="#7E7E7E" /><rect x="5" y="1" width="1" height="1" fill="#6A6A6A" /><rect x="6" y="1" width="1" height="1" fill="#989898" /><rect x="7" y="1" width="1" height="1" fill="#C2C2C2" /><rect x="8" y="1" width="1" height="1" fill="#000000" /><rect x="9" y="1" width="1" height="1" fill="#000000" /><rect x="0" y="2" width="1" height="1" fill="#000000" /><rect x="1" y="2" width="1" height="1" fill="#000000" /><rect x="2" y="2" width="1" height="1" fill="#565656" /><rect x="3" y="2" width="1" height="1" fill="#C2C2C2" /><rect x="4" y="2" width="1" height="1" fill="#6A6A6A" /><rect x="5" y="2" width="1" height="1" fill="#6C6C6C" /><rect x="6" y="2" width="1" height="1" fill="#DFDFDF" /><rect x="7" y="2" width="1" height="1" fill="#353535" /><rect x="8" y="2" width="1" height="1" fill="#000000" /><rect x="9" y="2" width="1" height="1" fill="#000000" /><rect x="0" y="3" width="1" height="1" fill="#000000" /><rect x="1" y="3" width="1" height="1" fill="#000000" /><rect x="2" y="3" width="1" height="1" fill="#A7A7A7" /><rect x="3" y="3" width="1" height="1" fill="#989898" /><rect x="4" y="3" width="1" height="1" fill="#6A6A6A" /><rect x="5" y="3" width="1" height="1" fill="#939393" /><rect x="6" y="3" width="1" height="1" fill="#BABABA" /><rect x="7" y="3" width="1" height="1" fill="#000000" /><rect x="8" y="3" width="1" height="1" fill="#000000" /><rect x="9" y="3" width="1" height="1" fill="#000000" /><rect x="0" y="4" width="1" height="1" fill="#000000" /><rect x="1" y="4" width="1" height="1" fill="#000000" /><rect x="2" y="4" width="1" height="1" fill="#C6C6C6" /><rect x="3" y="4" width="1" height="1" fill="#848484" /><rect x="4" y="4" width="1" height="1" fill="#6A6A6A" /><rect x="5" y="4" width="1" height="1" fill="#B0B0B0" /><rect x="6" y="4" width="1" height="1" fill="#717171" /><rect x="7" y="4" width="1" height="1" fill="#000000" /><rect x="8" y="4" width="1" height="1" fill="#000000" /><rect x="9" y="4" width="1" height="1" fill="#000000" /><rect x="0" y="5" width="1" height="1" fill="#000000" /><rect x="1" y="5" width="1" height="1" fill="#000000" /><rect x="2" y="5" width="1" height="1" fill="#C5C5C5" /><rect x="3" y="5" width="1" height="1" fill="#858585" /><rect x="4" y="5" width="1" height="1" fill="#6A6A6A" /><rect x="5" y="5" width="1" height="1" fill="#AFAFAF" /><rect x="6" y="5" width="1" height="1" fill="#757575" /><rect x="7" y="5" width="1" height="1" fill="#000000" /><rect x="8" y="5" width="1" height="1" fill="#000000" /><rect x="9" y="5" width="1" height="1" fill="#000000" /><rect x="0" y="6" width="1" height="1" fill="#000000" /><rect x="1" y="6" width="1" height="1" fill="#000000" /><rect x="2" y="6" width="1" height="1" fill="#A3A3A3" /><rect x="3" y="6" width="1" height="1" fill="#9A9A9A" /><rect x="4" y="6" width="1" height="1" fill="#6A6A6A" /><rect x="5" y="6" width="1" height="1" fill="#8F8F8F" /><rect x="6" y="6" width="1" height="1" fill="#C0C0C0" /><rect x="7" y="6" width="1" height="1" fill="#000000" /><rect x="8" y="6" width="1" height="1" fill="#000000" /><rect x="9" y="6" width="1" height="1" fill="#000000" /><rect x="0" y="7" width="1" height="1" fill="#000000" /><rect x="1" y="7" width="1" height="1" fill="#000000" /><rect x="2" y="7" width="1" height="1" fill="#515151" /><rect x="3" y="7" width="1" height="1" fill="#C5C5C5" /><rect x="4" y="7" width="1" height="1" fill="#6A6A6A" /><rect x="5" y="7" width="1" height="1" fill="#6B6B6B" /><rect x="6" y="7" width="1" height="1" fill="#DDDDDD" /><rect x="7" y="7" width="1" height="1" fill="#363636" /><rect x="8" y="7" width="1" height="1" fill="#000000" /><rect x="9" y="7" width="1" height="1" fill="#000000" /><rect x="0" y="8" width="1" height="1" fill="#000000" /><rect x="1" y="8" width="1" height="1" fill="#000000" /><rect x="2" y="8" width="1" height="1" fill="#070707" /><rect x="3" y="8" width="1" height="1" fill="#E5E5E5" /><rect x="4" y="8" width="1" height="1" fill="#7C7C7C" /><rect x="5" y="8" width="1" height="1" fill="#6A6A6A" /><rect x="6" y="8" width="1" height="1" fill="#979797" /><rect x="7" y="8" width="1" height="1" fill="#C0C0C0" /><rect x="8" y="8" width="1" height="1" fill="#000000" /><rect x="9" y="8" width="1" height="1" fill="#000000" /><rect x="0" y="9" width="1" height="1" fill="#000000" /><rect x="1" y="9" width="1" height="1" fill="#000000" /><rect x="2" y="9" width="1" height="1" fill="#000000" /><rect x="3" y="9" width="1" height="1" fill="#6C6C6C" /><rect x="4" y="9" width="1" height="1" fill="#C0C0C0" /><rect x="5" y="9" width="1" height="1" fill="#6A6A6A" /><rect x="6" y="9" width="1" height="1" fill="#6A6A6A" /><rect x="7" y="9" width="1" height="1" fill="#D7D7D7" /><rect x="8" y="9" width="1" height="1" fill="#414141" /><rect x="9" y="9" width="1" height="1" fill="#000000" />
  </g>
</svg>