<svg width="800" height="1000" version="1.1" xmlns="http://www.w3.org/2000/svg" xmlns:xlink="http://www.w3.org/1999/xlink">
  <defs>
      <linearGradient id="Gradient2" x1="0" x2="1" y1="0" y2="1">
        <stop offset="0%" stop-color="#2d3c96"/>
        <stop offset="100%" stop-color="#d53392"/>
      </linearGradient>
  </defs>
  <rect x="10" y="10" width="780" height="980" fill="url(#Gradient2)" rx="50" ry="50" stroke="#ffd700" stroke-width="20"/>
  <text x="400" y="920" width="780" text-anchor="middle" style="font: bold 200px 'Helvetica Neue'; fill: #ffd700">00160</text>

  <g transform="translate(80 80) scale(64)">
<rect x="0" y="0" width="1" height="1" fill="#3D3D3D" /><rect x="1" y="0" width="1" height="1" fill="#E4D6D6" /><rect x="2" y="0" width="1" height="1" fill="#F49A9A" /><rect x="3" y="0" width="1" height="1" fill="#FF1E1E" /><rect x="4" y="0" width="1" height="1" fill="#FF0000" /><rect x="5" y="0" width="1" height="1" fill="#FF0000" /><rect x="6" y="0" width="1" height="1" fill="#FF0000" /><rect x="7" y="0" width="1" height="1" fill="#FF0000" /><rect x="8" y="0" width="1" height="1" fill="#FF0101" /><rect x="9" y="0" width="1" height="1" fill="#FD6060" /><rect x="0" y="1" width="1" height="1" fill="#F1D4D4" /><rect x="1" y="1" width="1" height="1" fill="#FF3A3A" /><rect x="2" y="1" width="1" height="1" fill="#FF0000" /><rect x="3" y="1" width="1" height="1" fill="#FF0000" /><rect x="4" y="1" width="1" height="1" fill="#FF0000" /><rect x="5" y="1" width="1" height="1" fill="#FF0D0D" /><rect x="6" y="1" width="1" height="1" fill="#FF1111" /><rect x="7" y="1" width="1" height="1" fill="#FF0606" /><rect x="8" y="1" width="1" height="1" fill="#FF0000" /><rect x="9" y="1" width="1" height="1" fill="#FF0000" /><rect x="0" y="2" width="1" height="1" fill="#FF0707" /><rect x="1" y="2" width="1" height="1" fill="#FF0000" /><rect x="2" y="2" width="1" height="1" fill="#FF0000" /><rect x="3" y="2" width="1" height="1" fill="#FE5353" /><rect x="4" y="2" width="1" height="1" fill="#F0D6D6" /><rect x="5" y="2" width="1" height="1" fill="#ECDFDF" /><rect x="6" y="2" width="1" height="1" fill="#EBDDDD" /><rect x="7" y="2" width="1" height="1" fill="#F2E7E7" /><rect x="8" y="2" width="1" height="1" fill="#F58181" /><rect x="9" y="2" width="1" height="1" fill="#FF0000" /><rect x="0" y="3" width="1" height="1" fill="#FF0000" /><rect x="1" y="3" width="1" height="1" fill="#FF1818" /><rect x="2" y="3" width="1" height="1" fill="#F2ADAD" /><rect x="3" y="3" width="1" height="1" fill="#D1C3C3" /><rect x="4" y="3" width="1" height="1" fill="#2A2A2A" /><rect x="5" y="3" width="1" height="1" fill="#000000" /><rect x="6" y="3" width="1" height="1" fill="#000000" /><rect x="7" y="3" width="1" height="1" fill="#070707" /><rect x="8" y="3" width="1" height="1" fill="#DFD0D0" /><rect x="9" y="3" width="1" height="1" fill="#FF2A2A" /><rect x="0" y="4" width="1" height="1" fill="#FC5F5F" /><rect x="1" y="4" width="1" height="1" fill="#F1E1E1" /><rect x="2" y="4" width="1" height="1" fill="#716C6C" /><rect x="3" y="4" width="1" height="1" fill="#020202" /><rect x="4" y="4" width="1" height="1" fill="#000000" /><rect x="5" y="4" width="1" height="1" fill="#000000" /><rect x="6" y="4" width="1" height="1" fill="#000000" /><rect x="7" y="4" width="1" height="1" fill="#000000" /><rect x="8" y="4" width="1" height="1" fill="#AE9E9E" /><rect x="9" y="4" width="1" height="1" fill="#FF4D4D" /><rect x="0" y="5" width="1" height="1" fill="#C7B9B9" /><rect x="1" y="5" width="1" height="1" fill="#202020" /><rect x="2" y="5" width="1" height="1" fill="#000000" /><rect x="3" y="5" width="1" height="1" fill="#000000" /><rect x="4" y="5" width="1" height="1" fill="#000000" /><rect x="5" y="5" width="1" height="1" fill="#000000" /><rect x="6" y="5" width="1" height="1" fill="#000000" /><rect x="7" y="5" width="1" height="1" fill="#000000" /><rect x="8" y="5" width="1" height="1" fill="#A39696" /><rect x="9" y="5" width="1" height="1" fill="#FF5656" /><rect x="0" y="6" width="1" height="1" fill="#010101" /><rect x="1" y="6" width="1" height="1" fill="#000000" /><rect x="2" y="6" width="1" height="1" fill="#000000" /><rect x="3" y="6" width="1" height="1" fill="#000000" /><rect x="4" y="6" width="1" height="1" fill="#000000" /><rect x="5" y="6" width="1" height="1" fill="#000000" /><rect x="6" y="6" width="1" height="1" fill="#000000" /><rect x="7" y="6" width="1" height="1" fill="#000000" /><rect x="8" y="6" width="1" height="1" fill="#988D8D" /><rect x="9" y="6" width="1" height="1" fill="#FF5E5E" /><rect x="0" y="7" width="1" height="1" fill="#000000" /><rect x="1" y="7" width="1" height="1" fill="#000000" /><rect x="2" y="7" width="1" height="1" fill="#000000" /><rect x="3" y="7" width="1" height="1" fill="#000000" /><rect x="4" y="7" width="1" height="1" fill="#000000" /><rect x="5" y="7" width="1" height="1" fill="#000000" /><rect x="6" y="7" width="1" height="1" fill="#000000" /><rect x="7" y="7" width="1" height="1" fill="#000000" /><rect x="8" y="7" width="1" height="1" fill="#8C8585" /><rect x="9" y="7" width="1" height="1" fill="#FF6666" /><rect x="0" y="8" width="1" height="1" fill="#000000" /><rect x="1" y="8" width="1" height="1" fill="#000000" /><rect x="2" y="8" width="1" height="1" fill="#000000" /><rect x="3" y="8" width="1" height="1" fill="#000000" /><rect x="4" y="8" width="1" height="1" fill="#000000" /><rect x="5" y="8" width="1" height="1" fill="#000000" /><rect x="6" y="8" width="1" height="1" fill="#000000" /><rect x="7" y="8" width="1" height="1" fill="#000000" /><rect x="8" y="8" width="1" height="1" fill="#817D7D" /><rect x="9" y="8" width="1" height="1" fill="#FF6F6F" /><rect x="0" y="9" width="1" height="1" fill="#000000" /><rect x="1" y="9" width="1" height="1" fill="#000000" /><rect x="2" y="9" width="1" height="1" fill="#000000" /><rect x="3" y="9" width="1" height="1" fill="#000000" /><rect x="4" y="9" width="1" height="1" fill="#000000" /><rect x="5" y="9" width="1" height="1" fill="#000000" /><rect x="6" y="9" width="1" height="1" fill="#000000" /><rect x="7" y="9" width="1" height="1" fill="#000000" /><rect x="8" y="9" width="1" height="1" fill="#747474" /><rect x="9" y="9" width="1" height="1" fill="#FE7777" />
  </g>
</svg>