<svg width="800" height="1000" xmlns="http://www.w3.org/2000/svg"><defs><linearGradient id="g" x1="0" x2="1" y1="0" y2="1"><stop offset="0%" stop-color="#2d3c96"/><stop offset="100%" stop-color="#d53392"/></linearGradient></defs><rect x="10" y="10" width="780" height="980" fill="url(#g)" rx="50" ry="50" stroke="gold" stroke-width="20"/><text x="400" y="920" width="780" text-anchor="middle" style="font:bold 200px 'Helvetica Neue';fill:gold">00165</text><g transform="translate(80 80) scale(64)"><rect x="0" y="0" width="1" height="1" fill="#ff0000" /><rect x="0" y="1" width="1" height="1" fill="#ff0000" /><rect x="0" y="2" width="1" height="1" fill="#f1d5d5" /><rect x="0" y="3" width="1" height="1" fill="#2c2c2c" /><rect x="0" y="4" width="1" height="1" fill="#000000" /><rect x="0" y="5" width="1" height="1" fill="#000000" /><rect x="0" y="6" width="1" height="1" fill="#000000" /><rect x="0" y="7" width="1" height="1" fill="#000000" /><rect x="0" y="8" width="1" height="1" fill="#000000" /><rect x="0" y="9" width="1" height="1" fill="#000000" /><rect x="1" y="0" width="1" height="1" fill="#ff0000" /><rect x="1" y="1" width="1" height="1" fill="#ff0000" /><rect x="1" y="2" width="1" height="1" fill="#eee0e0" /><rect x="1" y="3" width="1" height="1" fill="#000000" /><rect x="1" y="4" width="1" height="1" fill="#000000" /><rect x="1" y="5" width="1" height="1" fill="#000000" /><rect x="1" y="6" width="1" height="1" fill="#000000" /><rect x="1" y="7" width="1" height="1" fill="#000000" /><rect x="1" y="8" width="1" height="1" fill="#000000" /><rect x="1" y="9" width="1" height="1" fill="#000000" /><rect x="2" y="0" width="1" height="1" fill="#ff0000" /><rect x="2" y="1" width="1" height="1" fill="#ff0000" /><rect x="2" y="2" width="1" height="1" fill="#eddddd" /><rect x="2" y="3" width="1" height="1" fill="#000000" /><rect x="2" y="4" width="1" height="1" fill="#000000" /><rect x="2" y="5" width="1" height="1" fill="#000000" /><rect x="2" y="6" width="1" height="1" fill="#000000" /><rect x="2" y="7" width="1" height="1" fill="#000000" /><rect x="2" y="8" width="1" height="1" fill="#000000" /><rect x="2" y="9" width="1" height="1" fill="#000000" /><rect x="3" y="0" width="1" height="1" fill="#ff0000" /><rect x="3" y="1" width="1" height="1" fill="#ff0000" /><rect x="3" y="2" width="1" height="1" fill="#f3e7e7" /><rect x="3" y="3" width="1" height="1" fill="#060606" /><rect x="3" y="4" width="1" height="1" fill="#000000" /><rect x="3" y="5" width="1" height="1" fill="#000000" /><rect x="3" y="6" width="1" height="1" fill="#000000" /><rect x="3" y="7" width="1" height="1" fill="#000000" /><rect x="3" y="8" width="1" height="1" fill="#000000" /><rect x="3" y="9" width="1" height="1" fill="#000000" /><rect x="4" y="0" width="1" height="1" fill="#ff0000" /><rect x="4" y="1" width="1" height="1" fill="#ff0000" /><rect x="4" y="2" width="1" height="1" fill="#f48a8a" /><rect x="4" y="3" width="1" height="1" fill="#d3c4c4" /><rect x="4" y="4" width="1" height="1" fill="#9d9191" /><rect x="4" y="5" width="1" height="1" fill="#787474" /><rect x="4" y="6" width="1" height="1" fill="#0d0d0d" /><rect x="4" y="7" width="1" height="1" fill="#000000" /><rect x="4" y="8" width="1" height="1" fill="#000000" /><rect x="4" y="9" width="1" height="1" fill="#000000" /><rect x="5" y="0" width="1" height="1" fill="#ff4c4c" /><rect x="5" y="1" width="1" height="1" fill="#ff0000" /><rect x="5" y="2" width="1" height="1" fill="#ff0000" /><rect x="5" y="3" width="1" height="1" fill="#ff3a3a" /><rect x="5" y="4" width="1" height="1" fill="#ff5a5a" /><rect x="5" y="5" width="1" height="1" fill="#f88d8d" /><rect x="5" y="6" width="1" height="1" fill="#c7b8b8" /><rect x="5" y="7" width="1" height="1" fill="#000000" /><rect x="5" y="8" width="1" height="1" fill="#000000" /><rect x="5" y="9" width="1" height="1" fill="#000000" /><rect x="6" y="0" width="1" height="1" fill="#efdfdf" /><rect x="6" y="1" width="1" height="1" fill="#ff3737" /><rect x="6" y="2" width="1" height="1" fill="#ff0000" /><rect x="6" y="3" width="1" height="1" fill="#ff0000" /><rect x="6" y="4" width="1" height="1" fill="#ff0000" /><rect x="6" y="5" width="1" height="1" fill="#ff0000" /><rect x="6" y="6" width="1" height="1" fill="#f5eaea" /><rect x="6" y="7" width="1" height="1" fill="#000000" /><rect x="6" y="8" width="1" height="1" fill="#000000" /><rect x="6" y="9" width="1" height="1" fill="#000000" /><rect x="7" y="0" width="1" height="1" fill="#363636" /><rect x="7" y="1" width="1" height="1" fill="#e7dada" /><rect x="7" y="2" width="1" height="1" fill="#f1a5a5" /><rect x="7" y="3" width="1" height="1" fill="#ff6666" /><rect x="7" y="4" width="1" height="1" fill="#ff5858" /><rect x="7" y="5" width="1" height="1" fill="#f79191" /><rect x="7" y="6" width="1" height="1" fill="#c3b4b4" /><rect x="7" y="7" width="1" height="1" fill="#000000" /><rect x="7" y="8" width="1" height="1" fill="#000000" /><rect x="7" y="9" width="1" height="1" fill="#000000" /><rect x="8" y="0" width="1" height="1" fill="#000000" /><rect x="8" y="1" width="1" height="1" fill="#070707" /><rect x="8" y="2" width="1" height="1" fill="#535353" /><rect x="8" y="3" width="1" height="1" fill="#8d8585" /><rect x="8" y="4" width="1" height="1" fill="#a09393" /><rect x="8" y="5" width="1" height="1" fill="#757171" /><rect x="8" y="6" width="1" height="1" fill="#0a0a0a" /><rect x="8" y="7" width="1" height="1" fill="#000000" /><rect x="8" y="8" width="1" height="1" fill="#000000" /><rect x="8" y="9" width="1" height="1" fill="#000000" /><rect x="9" y="0" width="1" height="1" fill="#000000" /><rect x="9" y="1" width="1" height="1" fill="#000000" /><rect x="9" y="2" width="1" height="1" fill="#000000" /><rect x="9" y="3" width="1" height="1" fill="#000000" /><rect x="9" y="4" width="1" height="1" fill="#000000" /><rect x="9" y="5" width="1" height="1" fill="#000000" /><rect x="9" y="6" width="1" height="1" fill="#000000" /><rect x="9" y="7" width="1" height="1" fill="#000000" /><rect x="9" y="8" width="1" height="1" fill="#000000" /><rect x="9" y="9" width="1" height="1" fill="#000000" /></g></svg>