<svg width="800" height="1000" version="1.1" xmlns="http://www.w3.org/2000/svg" xmlns:xlink="http://www.w3.org/1999/xlink">
  <defs>
      <linearGradient id="Gradient2" x1="0" x2="1" y1="0" y2="1">
        <stop offset="0%" stop-color="#2d3c96"/>
        <stop offset="100%" stop-color="#d53392"/>
      </linearGradient>
  </defs>
  <rect x="10" y="10" width="780" height="980" fill="url(#Gradient2)" rx="50" ry="50" stroke="#ffd700" stroke-width="20"/>
  <text x="400" y="920" width="780" text-anchor="middle" style="font: bold 200px 'Helvetica Neue'; fill: #ffd700">00163</text>

  <g transform="translate(80 80) scale(64)">
<rect x="0" y="0" width="1" height="1" fill="#ff0000" />
,<rect x="0" y="1" width="1" height="1" fill="#ff0000" />
,<rect x="0" y="2" width="1" height="1" fill="#f3e4e4" />
,<rect x="0" y="3" width="1" height="1" fill="#1a1a1a" />
,<rect x="0" y="4" width="1" height="1" fill="#000000" />
,<rect x="0" y="5" width="1" height="1" fill="#4d4d4d" />
,<rect x="0" y="6" width="1" height="1" fill="#f09f9f" />
,<rect x="0" y="7" width="1" height="1" fill="#ff0000" />
,<rect x="0" y="8" width="1" height="1" fill="#ff0606" />
,<rect x="0" y="9" width="1" height="1" fill="#f2e7e7" />
,<rect x="1" y="0" width="1" height="1" fill="#ff0505" />
,<rect x="1" y="1" width="1" height="1" fill="#ff0000" />
,<rect x="1" y="2" width="1" height="1" fill="#fb5555" />
,<rect x="1" y="3" width="1" height="1" fill="#f2e5e5" />
,<rect x="1" y="4" width="1" height="1" fill="#e1d0d0" />
,<rect x="1" y="5" width="1" height="1" fill="#e4d6d6" />
,<rect x="1" y="6" width="1" height="1" fill="#f5cccc" />
,<rect x="1" y="7" width="1" height="1" fill="#ff0000" />
,<rect x="1" y="8" width="1" height="1" fill="#ff0000" />
,<rect x="1" y="9" width="1" height="1" fill="#f48787" />
,<rect x="2" y="0" width="1" height="1" fill="#f97878" />
,<rect x="2" y="1" width="1" height="1" fill="#ff0000" />
,<rect x="2" y="2" width="1" height="1" fill="#ff0000" />
,<rect x="2" y="3" width="1" height="1" fill="#ff0505" />
,<rect x="2" y="4" width="1" height="1" fill="#ff1b1b" />
,<rect x="2" y="5" width="1" height="1" fill="#ff1f1f" />
,<rect x="2" y="6" width="1" height="1" fill="#ff2121" />
,<rect x="2" y="7" width="1" height="1" fill="#ff0000" />
,<rect x="2" y="8" width="1" height="1" fill="#ff0000" />
,<rect x="2" y="9" width="1" height="1" fill="#ff0000" />
,<rect x="3" y="0" width="1" height="1" fill="#e0d3d3" />
,<rect x="3" y="1" width="1" height="1" fill="#fa7373" />
,<rect x="3" y="2" width="1" height="1" fill="#ff0303" />
,<rect x="3" y="3" width="1" height="1" fill="#ff0000" />
,<rect x="3" y="4" width="1" height="1" fill="#ff0000" />
,<rect x="3" y="5" width="1" height="1" fill="#ff0000" />
,<rect x="3" y="6" width="1" height="1" fill="#ff0000" />
,<rect x="3" y="7" width="1" height="1" fill="#ff0000" />
,<rect x="3" y="8" width="1" height="1" fill="#ff0000" />
,<rect x="3" y="9" width="1" height="1" fill="#ff0000" />
,<rect x="4" y="0" width="1" height="1" fill="#121212" />
,<rect x="4" y="1" width="1" height="1" fill="#b3a6a6" />
,<rect x="4" y="2" width="1" height="1" fill="#f2dddd" />
,<rect x="4" y="3" width="1" height="1" fill="#efa0a0" />
,<rect x="4" y="4" width="1" height="1" fill="#f58b8b" />
,<rect x="4" y="5" width="1" height="1" fill="#f98282" />
,<rect x="4" y="6" width="1" height="1" fill="#fd7a7a" />
,<rect x="4" y="7" width="1" height="1" fill="#ff7171" />
,<rect x="4" y="8" width="1" height="1" fill="#ff6969" />
,<rect x="4" y="9" width="1" height="1" fill="#ff6060" />
,<rect x="5" y="0" width="1" height="1" fill="#000000" />
,<rect x="5" y="1" width="1" height="1" fill="#000000" />
,<rect x="5" y="2" width="1" height="1" fill="#181818" />
,<rect x="5" y="3" width="1" height="1" fill="#4c4c4c" />
,<rect x="5" y="4" width="1" height="1" fill="#616161" />
,<rect x="5" y="5" width="1" height="1" fill="#696969" />
,<rect x="5" y="6" width="1" height="1" fill="#727272" />
,<rect x="5" y="7" width="1" height="1" fill="#7c7a7a" />
,<rect x="5" y="8" width="1" height="1" fill="#898383" />
,<rect x="5" y="9" width="1" height="1" fill="#958b8b" />
,<rect x="6" y="0" width="1" height="1" fill="#000000" />
,<rect x="6" y="1" width="1" height="1" fill="#000000" />
,<rect x="6" y="2" width="1" height="1" fill="#000000" />
,<rect x="6" y="3" width="1" height="1" fill="#000000" />
,<rect x="6" y="4" width="1" height="1" fill="#000000" />
,<rect x="6" y="5" width="1" height="1" fill="#000000" />
,<rect x="6" y="6" width="1" height="1" fill="#000000" />
,<rect x="6" y="7" width="1" height="1" fill="#000000" />
,<rect x="6" y="8" width="1" height="1" fill="#000000" />
,<rect x="6" y="9" width="1" height="1" fill="#000000" />
,<rect x="7" y="0" width="1" height="1" fill="#000000" />
,<rect x="7" y="1" width="1" height="1" fill="#000000" />
,<rect x="7" y="2" width="1" height="1" fill="#000000" />
,<rect x="7" y="3" width="1" height="1" fill="#000000" />
,<rect x="7" y="4" width="1" height="1" fill="#000000" />
,<rect x="7" y="5" width="1" height="1" fill="#000000" />
,<rect x="7" y="6" width="1" height="1" fill="#000000" />
,<rect x="7" y="7" width="1" height="1" fill="#000000" />
,<rect x="7" y="8" width="1" height="1" fill="#000000" />
,<rect x="7" y="9" width="1" height="1" fill="#000000" />
,<rect x="8" y="0" width="1" height="1" fill="#000000" />
,<rect x="8" y="1" width="1" height="1" fill="#000000" />
,<rect x="8" y="2" width="1" height="1" fill="#000000" />
,<rect x="8" y="3" width="1" height="1" fill="#000000" />
,<rect x="8" y="4" width="1" height="1" fill="#000000" />
,<rect x="8" y="5" width="1" height="1" fill="#000000" />
,<rect x="8" y="6" width="1" height="1" fill="#000000" />
,<rect x="8" y="7" width="1" height="1" fill="#000000" />
,<rect x="8" y="8" width="1" height="1" fill="#000000" />
,<rect x="8" y="9" width="1" height="1" fill="#000000" />
,<rect x="9" y="0" width="1" height="1" fill="#000000" />
,<rect x="9" y="1" width="1" height="1" fill="#000000" />
,<rect x="9" y="2" width="1" height="1" fill="#000000" />
,<rect x="9" y="3" width="1" height="1" fill="#000000" />
,<rect x="9" y="4" width="1" height="1" fill="#000000" />
,<rect x="9" y="5" width="1" height="1" fill="#000000" />
,<rect x="9" y="6" width="1" height="1" fill="#000000" />
,<rect x="9" y="7" width="1" height="1" fill="#000000" />
,<rect x="9" y="8" width="1" height="1" fill="#000000" />
,<rect x="9" y="9" width="1" height="1" fill="#000000" />

  </g>
</svg>