<svg width="800" height="1000" xmlns="http://www.w3.org/2000/svg"><defs><linearGradient id="g" x1="0" x2="1" y1="0" y2="1"><stop offset="0%" stop-color="#2d3c96"/><stop offset="100%" stop-color="#d53392"/></linearGradient></defs><rect x="10" y="10" width="780" height="980" fill="url(#g)" rx="50" ry="50" stroke="gold" stroke-width="20"/><text x="400" y="920" width="780" text-anchor="middle" style="font:bold 200px 'Helvetica Neue';fill:gold">00161</text><g transform="translate(80 80) scale(64)"><rect x="0" y="0" width="1" height="1" fill="#0d0066" /><rect x="0" y="1" width="1" height="1" fill="#1d00e6" /><rect x="0" y="2" width="1" height="1" fill="#1d00e6" /><rect x="0" y="3" width="1" height="1" fill="#1d00e6" /><rect x="0" y="4" width="1" height="1" fill="#1d00e6" /><rect x="0" y="5" width="1" height="1" fill="#1d00e6" /><rect x="0" y="6" width="1" height="1" fill="#060033" /><rect x="0" y="7" width="1" height="1" fill="#060033" /><rect x="0" y="8" width="1" height="1" fill="#0a2965" /><rect x="0" y="9" width="1" height="1" fill="#88ee88" /><rect x="1" y="0" width="1" height="1" fill="#1d00e6" /><rect x="1" y="1" width="1" height="1" fill="#1d00e6" /><rect x="1" y="2" width="1" height="1" fill="#1d00e6" /><rect x="1" y="3" width="1" height="1" fill="#1d00e6" /><rect x="1" y="4" width="1" height="1" fill="#1d00e6" /><rect x="1" y="5" width="1" height="1" fill="#060033" /><rect x="1" y="6" width="1" height="1" fill="#060033" /><rect x="1" y="7" width="1" height="1" fill="#0c2d6e" /><rect x="1" y="8" width="1" height="1" fill="#0a2965" /><rect x="1" y="9" width="1" height="1" fill="#0a255c" /><rect x="2" y="0" width="1" height="1" fill="#060033" /><rect x="2" y="1" width="1" height="1" fill="#1d00e6" /><rect x="2" y="2" width="1" height="1" fill="#0d0066" /><rect x="2" y="3" width="1" height="1" fill="#1d00e6" /><rect x="2" y="4" width="1" height="1" fill="#060033" /><rect x="2" y="5" width="1" height="1" fill="#060033" /><rect x="2" y="6" width="1" height="1" fill="#0c3077" /><rect x="2" y="7" width="1" height="1" fill="#0b2c6f" /><rect x="2" y="8" width="1" height="1" fill="#0a2965" /><rect x="2" y="9" width="1" height="1" fill="#88ee88" /><rect x="3" y="0" width="1" height="1" fill="#060033" /><rect x="3" y="1" width="1" height="1" fill="#0d0066" /><rect x="3" y="2" width="1" height="1" fill="#060033" /><rect x="3" y="3" width="1" height="1" fill="#060033" /><rect x="3" y="4" width="1" height="1" fill="#060033" /><rect x="3" y="5" width="1" height="1" fill="#0e3481" /><rect x="3" y="6" width="1" height="1" fill="#0d3077" /><rect x="3" y="7" width="1" height="1" fill="#0c2c6f" /><rect x="3" y="8" width="1" height="1" fill="#0b2965" /><rect x="3" y="9" width="1" height="1" fill="#88ee88" /><rect x="4" y="0" width="1" height="1" fill="#060033" /><rect x="4" y="1" width="1" height="1" fill="#1d00e6" /><rect x="4" y="2" width="1" height="1" fill="#060033" /><rect x="4" y="3" width="1" height="1" fill="#0f3b93" /><rect x="4" y="4" width="1" height="1" fill="#0e388a" /><rect x="4" y="5" width="1" height="1" fill="#0d3481" /><rect x="4" y="6" width="1" height="1" fill="#0c3078" /><rect x="4" y="7" width="1" height="1" fill="#0c2d6e" /><rect x="4" y="8" width="1" height="1" fill="#0a2965" /><rect x="4" y="9" width="1" height="1" fill="#88ee88" /><rect x="5" y="0" width="1" height="1" fill="#0d0066" /><rect x="5" y="1" width="1" height="1" fill="#060033" /><rect x="5" y="2" width="1" height="1" fill="#060033" /><rect x="5" y="3" width="1" height="1" fill="#0f3b93" /><rect x="5" y="4" width="1" height="1" fill="#0e388a" /><rect x="5" y="5" width="1" height="1" fill="#0d3480" /><rect x="5" y="6" width="1" height="1" fill="#0c3178" /><rect x="5" y="7" width="1" height="1" fill="#0b2d6f" /><rect x="5" y="8" width="1" height="1" fill="#0a2965" /><rect x="5" y="9" width="1" height="1" fill="#88ee88" /><rect x="6" y="0" width="1" height="1" fill="#060033" /><rect x="6" y="1" width="1" height="1" fill="#060033" /><rect x="6" y="2" width="1" height="1" fill="#113f9c" /><rect x="6" y="3" width="1" height="1" fill="#0f3c93" /><rect x="6" y="4" width="1" height="1" fill="#0f378a" /><rect x="6" y="5" width="1" height="1" fill="#0d3481" /><rect x="6" y="6" width="1" height="1" fill="#0d3177" /><rect x="6" y="7" width="1" height="1" fill="#0c2d6e" /><rect x="6" y="8" width="1" height="1" fill="#0a2965" /><rect x="6" y="9" width="1" height="1" fill="#406f49" /><rect x="7" y="0" width="1" height="1" fill="#1247ae" /><rect x="7" y="1" width="1" height="1" fill="#1143a6" /><rect x="7" y="2" width="1" height="1" fill="#103f9c" /><rect x="7" y="3" width="1" height="1" fill="#0f3b93" /><rect x="7" y="4" width="1" height="1" fill="#0e388a" /><rect x="7" y="5" width="1" height="1" fill="#0d3481" /><rect x="7" y="6" width="1" height="1" fill="#0c3177" /><rect x="7" y="7" width="1" height="1" fill="#0c2d6f" /><rect x="7" y="8" width="1" height="1" fill="#0a2965" /><rect x="7" y="9" width="1" height="1" fill="#294935" /><rect x="8" y="0" width="1" height="1" fill="#1247af" /><rect x="8" y="1" width="1" height="1" fill="#1143a6" /><rect x="8" y="2" width="1" height="1" fill="#103f9c" /><rect x="8" y="3" width="1" height="1" fill="#103c93" /><rect x="8" y="4" width="1" height="1" fill="#0f388a" /><rect x="8" y="5" width="1" height="1" fill="#0e3580" /><rect x="8" y="6" width="1" height="1" fill="#0d3077" /><rect x="8" y="7" width="1" height="1" fill="#0b2c6e" /><rect x="8" y="8" width="1" height="1" fill="#0a2965" /><rect x="8" y="9" width="1" height="1" fill="#88ee88" /><rect x="9" y="0" width="1" height="1" fill="#1247af" /><rect x="9" y="1" width="1" height="1" fill="#1143a5" /><rect x="9" y="2" width="1" height="1" fill="#113f9c" /><rect x="9" y="3" width="1" height="1" fill="#0f3c93" /><rect x="9" y="4" width="1" height="1" fill="#1d0033" /><rect x="9" y="5" width="1" height="1" fill="#1d0033" /><rect x="9" y="6" width="1" height="1" fill="#1d0033" /><rect x="9" y="7" width="1" height="1" fill="#0b2d6e" /><rect x="9" y="8" width="1" height="1" fill="#0a2863" /><rect x="9" y="9" width="1" height="1" fill="#88ee88" /></g></svg>