<svg width="800" height="1000" version="1.1" xmlns="http://www.w3.org/2000/svg" xmlns:xlink="http://www.w3.org/1999/xlink">
  <defs>
      <linearGradient id="Gradient2" x1="0" x2="1" y1="0" y2="1">
        <stop offset="0%" stop-color="#2d3c96"/>
        <stop offset="100%" stop-color="#d53392"/>
      </linearGradient>
  </defs>
  <rect x="10" y="10" width="780" height="980" fill="url(#Gradient2)" rx="50" ry="50" stroke="#ffd700" stroke-width="20"/>
  <text x="400" y="920" width="780" text-anchor="middle" style="font: bold 200px 'Helvetica Neue'; fill: #ffd700">00169</text>

  <g transform="translate(80 80) scale(64)">
<rect x="0" y="0" width="1" height="1" fill="#dddddd" />
,<rect x="0" y="1" width="1" height="1" fill="#dddddd" />
,<rect x="0" y="2" width="1" height="1" fill="#dddddd" />
,<rect x="0" y="3" width="1" height="1" fill="#e0dfde" />
,<rect x="0" y="4" width="1" height="1" fill="#d7d9db" />
,<rect x="0" y="5" width="1" height="1" fill="#5991b2" />
,<rect x="0" y="6" width="1" height="1" fill="#3c87ae" />
,<rect x="0" y="7" width="1" height="1" fill="#478aaf" />
,<rect x="0" y="8" width="1" height="1" fill="#3c87ad" />
,<rect x="0" y="9" width="1" height="1" fill="#3986ad" />
,<rect x="1" y="0" width="1" height="1" fill="#dddddd" />
,<rect x="1" y="1" width="1" height="1" fill="#dbdbdb" />
,<rect x="1" y="2" width="1" height="1" fill="#d8d9d9" />
,<rect x="1" y="3" width="1" height="1" fill="#dcdbdb" />
,<rect x="1" y="4" width="1" height="1" fill="#d3d5d7" />
,<rect x="1" y="5" width="1" height="1" fill="#177ea8" />
,<rect x="1" y="6" width="1" height="1" fill="#006fa0" />
,<rect x="1" y="7" width="1" height="1" fill="#0074a2" />
,<rect x="1" y="8" width="1" height="1" fill="#2f83ab" />
,<rect x="1" y="9" width="1" height="1" fill="#3d87ad" />
,<rect x="2" y="0" width="1" height="1" fill="#dcdcdb" />
,<rect x="2" y="1" width="1" height="1" fill="#ebebeb" />
,<rect x="2" y="2" width="1" height="1" fill="#f2f2f2" />
,<rect x="2" y="3" width="1" height="1" fill="#f2f2f2" />
,<rect x="2" y="4" width="1" height="1" fill="#eeeeef" />
,<rect x="2" y="5" width="1" height="1" fill="#c6d3de" />
,<rect x="2" y="6" width="1" height="1" fill="#c9d6e0" />
,<rect x="2" y="7" width="1" height="1" fill="#cad6e1" />
,<rect x="2" y="8" width="1" height="1" fill="#6396b6" />
,<rect x="2" y="9" width="1" height="1" fill="#2681aa" />
,<rect x="3" y="0" width="1" height="1" fill="#dbdbdb" />
,<rect x="3" y="1" width="1" height="1" fill="#f8f8f8" />
,<rect x="3" y="2" width="1" height="1" fill="#fcfcfc" />
,<rect x="3" y="3" width="1" height="1" fill="#f8f8f9" />
,<rect x="3" y="4" width="1" height="1" fill="#fdfcfb" />
,<rect x="3" y="5" width="1" height="1" fill="#fcfdfd" />
,<rect x="3" y="6" width="1" height="1" fill="#e9eef2" />
,<rect x="3" y="7" width="1" height="1" fill="#edf1f4" />
,<rect x="3" y="8" width="1" height="1" fill="#709dba" />
,<rect x="3" y="9" width="1" height="1" fill="#177fa9" />
,<rect x="4" y="0" width="1" height="1" fill="#dcdcdc" />
,<rect x="4" y="1" width="1" height="1" fill="#f1f1f1" />
,<rect x="4" y="2" width="1" height="1" fill="#dcdcdc" />
,<rect x="4" y="3" width="1" height="1" fill="#d7d7d7" />
,<rect x="4" y="4" width="1" height="1" fill="#e7e5e3" />
,<rect x="4" y="5" width="1" height="1" fill="#cbd7e1" />
,<rect x="4" y="6" width="1" height="1" fill="#00659c" />
,<rect x="4" y="7" width="1" height="1" fill="#007aa6" />
,<rect x="4" y="8" width="1" height="1" fill="#3184ab" />
,<rect x="4" y="9" width="1" height="1" fill="#3c87ad" />
,<rect x="5" y="0" width="1" height="1" fill="#dcdcdc" />
,<rect x="5" y="1" width="1" height="1" fill="#f3f3f3" />
,<rect x="5" y="2" width="1" height="1" fill="#dfdfdf" />
,<rect x="5" y="3" width="1" height="1" fill="#d7d8d8" />
,<rect x="5" y="4" width="1" height="1" fill="#eae8e6" />
,<rect x="5" y="5" width="1" height="1" fill="#cedae3" />
,<rect x="5" y="6" width="1" height="1" fill="#007ba6" />
,<rect x="5" y="7" width="1" height="1" fill="#478baf" />
,<rect x="5" y="8" width="1" height="1" fill="#3b87ad" />
,<rect x="5" y="9" width="1" height="1" fill="#3986ad" />
,<rect x="6" y="0" width="1" height="1" fill="#dbdbdb" />
,<rect x="6" y="1" width="1" height="1" fill="#f2f2f2" />
,<rect x="6" y="2" width="1" height="1" fill="#f0f0f0" />
,<rect x="6" y="3" width="1" height="1" fill="#e1e1e1" />
,<rect x="6" y="4" width="1" height="1" fill="#f2f3f4" />
,<rect x="6" y="5" width="1" height="1" fill="#a0c0d2" />
,<rect x="6" y="6" width="1" height="1" fill="#007ca7" />
,<rect x="6" y="7" width="1" height="1" fill="#4188ae" />
,<rect x="6" y="8" width="1" height="1" fill="#3b86ad" />
,<rect x="6" y="9" width="1" height="1" fill="#3b86ad" />
,<rect x="7" y="0" width="1" height="1" fill="#dcdcdb" />
,<rect x="7" y="1" width="1" height="1" fill="#e3e3e3" />
,<rect x="7" y="2" width="1" height="1" fill="#fafafa" />
,<rect x="7" y="3" width="1" height="1" fill="#ffffff" />
,<rect x="7" y="4" width="1" height="1" fill="#edeff0" />
,<rect x="7" y="5" width="1" height="1" fill="#5391b2" />
,<rect x="7" y="6" width="1" height="1" fill="#2f83ab" />
,<rect x="7" y="7" width="1" height="1" fill="#3d87ad" />
,<rect x="7" y="8" width="1" height="1" fill="#3b86ad" />
,<rect x="7" y="9" width="1" height="1" fill="#3b86ad" />
,<rect x="8" y="0" width="1" height="1" fill="#dddddd" />
,<rect x="8" y="1" width="1" height="1" fill="#dcdcdb" />
,<rect x="8" y="2" width="1" height="1" fill="#dedfdf" />
,<rect x="8" y="3" width="1" height="1" fill="#e5e4e3" />
,<rect x="8" y="4" width="1" height="1" fill="#d7d8da" />
,<rect x="8" y="5" width="1" height="1" fill="#518db0" />
,<rect x="8" y="6" width="1" height="1" fill="#3084ac" />
,<rect x="8" y="7" width="1" height="1" fill="#3d87ad" />
,<rect x="8" y="8" width="1" height="1" fill="#3b86ad" />
,<rect x="8" y="9" width="1" height="1" fill="#3b86ad" />
,<rect x="9" y="0" width="1" height="1" fill="#dddddd" />
,<rect x="9" y="1" width="1" height="1" fill="#dddddd" />
,<rect x="9" y="2" width="1" height="1" fill="#dcdcdc" />
,<rect x="9" y="3" width="1" height="1" fill="#dddcdc" />
,<rect x="9" y="4" width="1" height="1" fill="#d7d8da" />
,<rect x="9" y="5" width="1" height="1" fill="#548fb1" />
,<rect x="9" y="6" width="1" height="1" fill="#2f84ab" />
,<rect x="9" y="7" width="1" height="1" fill="#3d87ad" />
,<rect x="9" y="8" width="1" height="1" fill="#3b86ad" />
,<rect x="9" y="9" width="1" height="1" fill="#3b86ad" />

  </g>
</svg>