<svg width="800" height="1000" version="1.1" xmlns="http://www.w3.org/2000/svg" xmlns:xlink="http://www.w3.org/1999/xlink">
  <defs>
      <linearGradient id="Gradient2" x1="0" x2="1" y1="0" y2="1">
        <stop offset="0%" stop-color="#2d3c96"/>
        <stop offset="100%" stop-color="#d53392"/>
      </linearGradient>
  </defs>
  <rect x="10" y="10" width="780" height="980" fill="url(#Gradient2)" rx="50" ry="50" stroke="#ffd700" stroke-width="20"/>
  <text x="400" y="920" width="780" text-anchor="middle" style="font: bold 200px 'Helvetica Neue'; fill: #ffd700">00166</text>

  <g transform="translate(80 80) scale(64)">
<rect x="0" y="0" width="1" height="1" fill="#000000" />
,<rect x="0" y="1" width="1" height="1" fill="#000000" />
,<rect x="0" y="2" width="1" height="1" fill="#000000" />
,<rect x="0" y="3" width="1" height="1" fill="#000000" />
,<rect x="0" y="4" width="1" height="1" fill="#000000" />
,<rect x="0" y="5" width="1" height="1" fill="#000000" />
,<rect x="0" y="6" width="1" height="1" fill="#000000" />
,<rect x="0" y="7" width="1" height="1" fill="#000000" />
,<rect x="0" y="8" width="1" height="1" fill="#000000" />
,<rect x="0" y="9" width="1" height="1" fill="#000000" />
,<rect x="1" y="0" width="1" height="1" fill="#000000" />
,<rect x="1" y="1" width="1" height="1" fill="#000000" />
,<rect x="1" y="2" width="1" height="1" fill="#000000" />
,<rect x="1" y="3" width="1" height="1" fill="#000000" />
,<rect x="1" y="4" width="1" height="1" fill="#000000" />
,<rect x="1" y="5" width="1" height="1" fill="#000000" />
,<rect x="1" y="6" width="1" height="1" fill="#000000" />
,<rect x="1" y="7" width="1" height="1" fill="#000000" />
,<rect x="1" y="8" width="1" height="1" fill="#000000" />
,<rect x="1" y="9" width="1" height="1" fill="#000000" />
,<rect x="2" y="0" width="1" height="1" fill="#000000" />
,<rect x="2" y="1" width="1" height="1" fill="#070707" />
,<rect x="2" y="2" width="1" height="1" fill="#565656" />
,<rect x="2" y="3" width="1" height="1" fill="#a7a7a7" />
,<rect x="2" y="4" width="1" height="1" fill="#c6c6c6" />
,<rect x="2" y="5" width="1" height="1" fill="#c5c5c5" />
,<rect x="2" y="6" width="1" height="1" fill="#a3a3a3" />
,<rect x="2" y="7" width="1" height="1" fill="#515151" />
,<rect x="2" y="8" width="1" height="1" fill="#070707" />
,<rect x="2" y="9" width="1" height="1" fill="#000000" />
,<rect x="3" y="0" width="1" height="1" fill="#686868" />
,<rect x="3" y="1" width="1" height="1" fill="#e4e4e4" />
,<rect x="3" y="2" width="1" height="1" fill="#c2c2c2" />
,<rect x="3" y="3" width="1" height="1" fill="#989898" />
,<rect x="3" y="4" width="1" height="1" fill="#848484" />
,<rect x="3" y="5" width="1" height="1" fill="#858585" />
,<rect x="3" y="6" width="1" height="1" fill="#9a9a9a" />
,<rect x="3" y="7" width="1" height="1" fill="#c5c5c5" />
,<rect x="3" y="8" width="1" height="1" fill="#e5e5e5" />
,<rect x="3" y="9" width="1" height="1" fill="#6c6c6c" />
,<rect x="4" y="0" width="1" height="1" fill="#c3c3c3" />
,<rect x="4" y="1" width="1" height="1" fill="#7e7e7e" />
,<rect x="4" y="2" width="1" height="1" fill="#6a6a6a" />
,<rect x="4" y="3" width="1" height="1" fill="#6a6a6a" />
,<rect x="4" y="4" width="1" height="1" fill="#6a6a6a" />
,<rect x="4" y="5" width="1" height="1" fill="#6a6a6a" />
,<rect x="4" y="6" width="1" height="1" fill="#6a6a6a" />
,<rect x="4" y="7" width="1" height="1" fill="#6a6a6a" />
,<rect x="4" y="8" width="1" height="1" fill="#7c7c7c" />
,<rect x="4" y="9" width="1" height="1" fill="#c0c0c0" />
,<rect x="5" y="0" width="1" height="1" fill="#6a6a6a" />
,<rect x="5" y="1" width="1" height="1" fill="#6a6a6a" />
,<rect x="5" y="2" width="1" height="1" fill="#6c6c6c" />
,<rect x="5" y="3" width="1" height="1" fill="#939393" />
,<rect x="5" y="4" width="1" height="1" fill="#b0b0b0" />
,<rect x="5" y="5" width="1" height="1" fill="#afafaf" />
,<rect x="5" y="6" width="1" height="1" fill="#8f8f8f" />
,<rect x="5" y="7" width="1" height="1" fill="#6b6b6b" />
,<rect x="5" y="8" width="1" height="1" fill="#6a6a6a" />
,<rect x="5" y="9" width="1" height="1" fill="#6a6a6a" />
,<rect x="6" y="0" width="1" height="1" fill="#6a6a6a" />
,<rect x="6" y="1" width="1" height="1" fill="#989898" />
,<rect x="6" y="2" width="1" height="1" fill="#dfdfdf" />
,<rect x="6" y="3" width="1" height="1" fill="#bababa" />
,<rect x="6" y="4" width="1" height="1" fill="#717171" />
,<rect x="6" y="5" width="1" height="1" fill="#757575" />
,<rect x="6" y="6" width="1" height="1" fill="#c0c0c0" />
,<rect x="6" y="7" width="1" height="1" fill="#dddddd" />
,<rect x="6" y="8" width="1" height="1" fill="#979797" />
,<rect x="6" y="9" width="1" height="1" fill="#6a6a6a" />
,<rect x="7" y="0" width="1" height="1" fill="#d7d7d7" />
,<rect x="7" y="1" width="1" height="1" fill="#c2c2c2" />
,<rect x="7" y="2" width="1" height="1" fill="#353535" />
,<rect x="7" y="3" width="1" height="1" fill="#000000" />
,<rect x="7" y="4" width="1" height="1" fill="#000000" />
,<rect x="7" y="5" width="1" height="1" fill="#000000" />
,<rect x="7" y="6" width="1" height="1" fill="#000000" />
,<rect x="7" y="7" width="1" height="1" fill="#363636" />
,<rect x="7" y="8" width="1" height="1" fill="#c0c0c0" />
,<rect x="7" y="9" width="1" height="1" fill="#d7d7d7" />
,<rect x="8" y="0" width="1" height="1" fill="#454545" />
,<rect x="8" y="1" width="1" height="1" fill="#000000" />
,<rect x="8" y="2" width="1" height="1" fill="#000000" />
,<rect x="8" y="3" width="1" height="1" fill="#000000" />
,<rect x="8" y="4" width="1" height="1" fill="#000000" />
,<rect x="8" y="5" width="1" height="1" fill="#000000" />
,<rect x="8" y="6" width="1" height="1" fill="#000000" />
,<rect x="8" y="7" width="1" height="1" fill="#000000" />
,<rect x="8" y="8" width="1" height="1" fill="#000000" />
,<rect x="8" y="9" width="1" height="1" fill="#414141" />
,<rect x="9" y="0" width="1" height="1" fill="#000000" />
,<rect x="9" y="1" width="1" height="1" fill="#000000" />
,<rect x="9" y="2" width="1" height="1" fill="#000000" />
,<rect x="9" y="3" width="1" height="1" fill="#000000" />
,<rect x="9" y="4" width="1" height="1" fill="#000000" />
,<rect x="9" y="5" width="1" height="1" fill="#000000" />
,<rect x="9" y="6" width="1" height="1" fill="#000000" />
,<rect x="9" y="7" width="1" height="1" fill="#000000" />
,<rect x="9" y="8" width="1" height="1" fill="#000000" />
,<rect x="9" y="9" width="1" height="1" fill="#000000" />

  </g>
</svg>