<svg width="800" height="1000" version="1.1" xmlns="http://www.w3.org/2000/svg" xmlns:xlink="http://www.w3.org/1999/xlink">
  <defs>
      <linearGradient id="Gradient2" x1="0" x2="1" y1="0" y2="1">
        <stop offset="0%" stop-color="#2d3c96"/>
        <stop offset="100%" stop-color="#d53392"/>
      </linearGradient>
  </defs>
  <rect x="10" y="10" width="780" height="980" fill="url(#Gradient2)" rx="50" ry="50" stroke="#ffd700" stroke-width="20"/>
  <text x="400" y="920" width="780" text-anchor="middle" style="font: bold 200px 'Helvetica Neue'; fill: #ffd700">00162</text>

  <g transform="translate(80 80) scale(64)">
<rect x="0" y="0" width="1" height="1" fill="#000000" /><rect x="1" y="0" width="1" height="1" fill="#1C1C1C" /><rect x="2" y="0" width="1" height="1" fill="#F0D6D6" /><rect x="3" y="0" width="1" height="1" fill="#FF0101" /><rect x="4" y="0" width="1" height="1" fill="#FF0000" /><rect x="5" y="0" width="1" height="1" fill="#FF0000" /><rect x="6" y="0" width="1" height="1" fill="#FF0000" /><rect x="7" y="0" width="1" height="1" fill="#FF0000" /><rect x="8" y="0" width="1" height="1" fill="#FF0000" /><rect x="9" y="0" width="1" height="1" fill="#FF0000" /><rect x="0" y="1" width="1" height="1" fill="#000000" /><rect x="1" y="1" width="1" height="1" fill="#0D0D0D" /><rect x="2" y="1" width="1" height="1" fill="#F1E2E2" /><rect x="3" y="1" width="1" height="1" fill="#FF2828" /><rect x="4" y="1" width="1" height="1" fill="#FF0000" /><rect x="5" y="1" width="1" height="1" fill="#FF0000" /><rect x="6" y="1" width="1" height="1" fill="#FF0000" /><rect x="7" y="1" width="1" height="1" fill="#FF0000" /><rect x="8" y="1" width="1" height="1" fill="#FF0000" /><rect x="9" y="1" width="1" height="1" fill="#FF0000" /><rect x="0" y="2" width="1" height="1" fill="#000000" /><rect x="1" y="2" width="1" height="1" fill="#000000" /><rect x="2" y="2" width="1" height="1" fill="#4C4A4A" /><rect x="3" y="2" width="1" height="1" fill="#DFCECE" /><rect x="4" y="2" width="1" height="1" fill="#EDDDDD" /><rect x="5" y="2" width="1" height="1" fill="#EDDDDD" /><rect x="6" y="2" width="1" height="1" fill="#EDDDDD" /><rect x="7" y="2" width="1" height="1" fill="#EDDDDD" /><rect x="8" y="2" width="1" height="1" fill="#EDDDDD" /><rect x="9" y="2" width="1" height="1" fill="#EDDDDD" /><rect x="0" y="3" width="1" height="1" fill="#000000" /><rect x="1" y="3" width="1" height="1" fill="#000000" /><rect x="2" y="3" width="1" height="1" fill="#000000" /><rect x="3" y="3" width="1" height="1" fill="#000000" /><rect x="4" y="3" width="1" height="1" fill="#000000" /><rect x="5" y="3" width="1" height="1" fill="#000000" /><rect x="6" y="3" width="1" height="1" fill="#000000" /><rect x="7" y="3" width="1" height="1" fill="#000000" /><rect x="8" y="3" width="1" height="1" fill="#000000" /><rect x="9" y="3" width="1" height="1" fill="#000000" /><rect x="0" y="4" width="1" height="1" fill="#000000" /><rect x="1" y="4" width="1" height="1" fill="#000000" /><rect x="2" y="4" width="1" height="1" fill="#000000" /><rect x="3" y="4" width="1" height="1" fill="#000000" /><rect x="4" y="4" width="1" height="1" fill="#000000" /><rect x="5" y="4" width="1" height="1" fill="#000000" /><rect x="6" y="4" width="1" height="1" fill="#000000" /><rect x="7" y="4" width="1" height="1" fill="#000000" /><rect x="8" y="4" width="1" height="1" fill="#000000" /><rect x="9" y="4" width="1" height="1" fill="#000000" /><rect x="0" y="5" width="1" height="1" fill="#000000" /><rect x="1" y="5" width="1" height="1" fill="#000000" /><rect x="2" y="5" width="1" height="1" fill="#2A2A2A" /><rect x="3" y="5" width="1" height="1" fill="#515151" /><rect x="4" y="5" width="1" height="1" fill="#555555" /><rect x="5" y="5" width="1" height="1" fill="#555555" /><rect x="6" y="5" width="1" height="1" fill="#555555" /><rect x="7" y="5" width="1" height="1" fill="#555555" /><rect x="8" y="5" width="1" height="1" fill="#555555" /><rect x="9" y="5" width="1" height="1" fill="#555555" /><rect x="0" y="6" width="1" height="1" fill="#2F2F2F" /><rect x="1" y="6" width="1" height="1" fill="#D9CACA" /><rect x="2" y="6" width="1" height="1" fill="#EEC9C9" /><rect x="3" y="6" width="1" height="1" fill="#F09898" /><rect x="4" y="6" width="1" height="1" fill="#EF8888" /><rect x="5" y="6" width="1" height="1" fill="#EF8888" /><rect x="6" y="6" width="1" height="1" fill="#EF8888" /><rect x="7" y="6" width="1" height="1" fill="#EF8888" /><rect x="8" y="6" width="1" height="1" fill="#EF8888" /><rect x="9" y="6" width="1" height="1" fill="#EF8888" /><rect x="0" y="7" width="1" height="1" fill="#EFDFDF" /><rect x="1" y="7" width="1" height="1" fill="#FF4444" /><rect x="2" y="7" width="1" height="1" fill="#FF0000" /><rect x="3" y="7" width="1" height="1" fill="#FF0000" /><rect x="4" y="7" width="1" height="1" fill="#FF0000" /><rect x="5" y="7" width="1" height="1" fill="#FF0000" /><rect x="6" y="7" width="1" height="1" fill="#FF0000" /><rect x="7" y="7" width="1" height="1" fill="#FF0000" /><rect x="8" y="7" width="1" height="1" fill="#FF0000" /><rect x="9" y="7" width="1" height="1" fill="#FF0000" /><rect x="0" y="8" width="1" height="1" fill="#FF3C3C" /><rect x="1" y="8" width="1" height="1" fill="#FF0000" /><rect x="2" y="8" width="1" height="1" fill="#FF0000" /><rect x="3" y="8" width="1" height="1" fill="#FF0404" /><rect x="4" y="8" width="1" height="1" fill="#FF1111" /><rect x="5" y="8" width="1" height="1" fill="#FF1111" /><rect x="6" y="8" width="1" height="1" fill="#FF1111" /><rect x="7" y="8" width="1" height="1" fill="#FF1111" /><rect x="8" y="8" width="1" height="1" fill="#FF1111" /><rect x="9" y="8" width="1" height="1" fill="#FF1111" /><rect x="0" y="9" width="1" height="1" fill="#FF0000" /><rect x="1" y="9" width="1" height="1" fill="#FF0000" /><rect x="2" y="9" width="1" height="1" fill="#F67777" /><rect x="3" y="9" width="1" height="1" fill="#F3E7E7" /><rect x="4" y="9" width="1" height="1" fill="#EBDDDD" /><rect x="5" y="9" width="1" height="1" fill="#EBDDDD" /><rect x="6" y="9" width="1" height="1" fill="#EBDDDD" /><rect x="7" y="9" width="1" height="1" fill="#EBDDDD" /><rect x="8" y="9" width="1" height="1" fill="#EBDDDD" /><rect x="9" y="9" width="1" height="1" fill="#EBDDDD" />
  </g>
</svg>