<svg width="800" height="1000" version="1.1" xmlns="http://www.w3.org/2000/svg" xmlns:xlink="http://www.w3.org/1999/xlink">
  <defs>
      <linearGradient id="Gradient2" x1="0" x2="1" y1="0" y2="1">
        <stop offset="0%" stop-color="#2d3c96"/>
        <stop offset="100%" stop-color="#d53392"/>
      </linearGradient>
  </defs>
  <rect x="10" y="10" width="780" height="980" fill="url(#Gradient2)" rx="50" ry="50" stroke="#ffd700" stroke-width="20"/>
  <text x="400" y="920" width="780" text-anchor="middle" style="font: bold 200px 'Helvetica Neue'; fill: #ffd700">00173</text>

  <g transform="translate(80 80) scale(64)">
<rect x="0" y="0" width="1" height="1" fill="#ffffff" />
,<rect x="0" y="1" width="1" height="1" fill="#ffffff" />
,<rect x="0" y="2" width="1" height="1" fill="#ffffff" />
,<rect x="0" y="3" width="1" height="1" fill="#ffffff" />
,<rect x="0" y="4" width="1" height="1" fill="#ffffff" />
,<rect x="0" y="5" width="1" height="1" fill="#ffffff" />
,<rect x="0" y="6" width="1" height="1" fill="#ffffff" />
,<rect x="0" y="7" width="1" height="1" fill="#ffffff" />
,<rect x="0" y="8" width="1" height="1" fill="#ffffff" />
,<rect x="0" y="9" width="1" height="1" fill="#ffffff" />
,<rect x="1" y="0" width="1" height="1" fill="#ffffff" />
,<rect x="1" y="1" width="1" height="1" fill="#ffffff" />
,<rect x="1" y="2" width="1" height="1" fill="#ffffff" />
,<rect x="1" y="3" width="1" height="1" fill="#ffffff" />
,<rect x="1" y="4" width="1" height="1" fill="#ffffff" />
,<rect x="1" y="5" width="1" height="1" fill="#ffffff" />
,<rect x="1" y="6" width="1" height="1" fill="#ffffff" />
,<rect x="1" y="7" width="1" height="1" fill="#ffffff" />
,<rect x="1" y="8" width="1" height="1" fill="#8aaad9" />
,<rect x="1" y="9" width="1" height="1" fill="#003ca8" />
,<rect x="2" y="0" width="1" height="1" fill="#ffffff" />
,<rect x="2" y="1" width="1" height="1" fill="#ffffff" />
,<rect x="2" y="2" width="1" height="1" fill="#ffffff" />
,<rect x="2" y="3" width="1" height="1" fill="#ffffff" />
,<rect x="2" y="4" width="1" height="1" fill="#ffffff" />
,<rect x="2" y="5" width="1" height="1" fill="#ffffff" />
,<rect x="2" y="6" width="1" height="1" fill="#cedbef" />
,<rect x="2" y="7" width="1" height="1" fill="#0036a6" />
,<rect x="2" y="8" width="1" height="1" fill="#749ad2" />
,<rect x="2" y="9" width="1" height="1" fill="#ffffff" />
,<rect x="3" y="0" width="1" height="1" fill="#ffffff" />
,<rect x="3" y="1" width="1" height="1" fill="#ffffff" />
,<rect x="3" y="2" width="1" height="1" fill="#ffffff" />
,<rect x="3" y="3" width="1" height="1" fill="#ffffff" />
,<rect x="3" y="4" width="1" height="1" fill="#ffffff" />
,<rect x="3" y="5" width="1" height="1" fill="#6f96d0" />
,<rect x="3" y="6" width="1" height="1" fill="#0c4db0" />
,<rect x="3" y="7" width="1" height="1" fill="#ffffff" />
,<rect x="3" y="8" width="1" height="1" fill="#ffffff" />
,<rect x="3" y="9" width="1" height="1" fill="#ffffff" />
,<rect x="4" y="0" width="1" height="1" fill="#ffffff" />
,<rect x="4" y="1" width="1" height="1" fill="#ffffff" />
,<rect x="4" y="2" width="1" height="1" fill="#ffffff" />
,<rect x="4" y="3" width="1" height="1" fill="#ffffff" />
,<rect x="4" y="4" width="1" height="1" fill="#4778c3" />
,<rect x="4" y="5" width="1" height="1" fill="#4c7cc5" />
,<rect x="4" y="6" width="1" height="1" fill="#ffffff" />
,<rect x="4" y="7" width="1" height="1" fill="#ffffff" />
,<rect x="4" y="8" width="1" height="1" fill="#5e88ca" />
,<rect x="4" y="9" width="1" height="1" fill="#ffffff" />
,<rect x="5" y="0" width="1" height="1" fill="#ffffff" />
,<rect x="5" y="1" width="1" height="1" fill="#ffffff" />
,<rect x="5" y="2" width="1" height="1" fill="#ffffff" />
,<rect x="5" y="3" width="1" height="1" fill="#6e95cf" />
,<rect x="5" y="4" width="1" height="1" fill="#4d7dc5" />
,<rect x="5" y="5" width="1" height="1" fill="#ffffff" />
,<rect x="5" y="6" width="1" height="1" fill="#ffffff" />
,<rect x="5" y="7" width="1" height="1" fill="#8ba9d9" />
,<rect x="5" y="8" width="1" height="1" fill="#0039a7" />
,<rect x="5" y="9" width="1" height="1" fill="#0039a7" />
,<rect x="6" y="0" width="1" height="1" fill="#ffffff" />
,<rect x="6" y="1" width="1" height="1" fill="#ffffff" />
,<rect x="6" y="2" width="1" height="1" fill="#cbd9ee" />
,<rect x="6" y="3" width="1" height="1" fill="#0d4eb0" />
,<rect x="6" y="4" width="1" height="1" fill="#ffffff" />
,<rect x="6" y="5" width="1" height="1" fill="#ffffff" />
,<rect x="6" y="6" width="1" height="1" fill="#ffffff" />
,<rect x="6" y="7" width="1" height="1" fill="#f7f9fc" />
,<rect x="6" y="8" width="1" height="1" fill="#003fa9" />
,<rect x="6" y="9" width="1" height="1" fill="#2664bb" />
,<rect x="7" y="0" width="1" height="1" fill="#ffffff" />
,<rect x="7" y="1" width="1" height="1" fill="#ffffff" />
,<rect x="7" y="2" width="1" height="1" fill="#0035a5" />
,<rect x="7" y="3" width="1" height="1" fill="#ffffff" />
,<rect x="7" y="4" width="1" height="1" fill="#feffff" />
,<rect x="7" y="5" width="1" height="1" fill="#ffffff" />
,<rect x="7" y="6" width="1" height="1" fill="#ffffff" />
,<rect x="7" y="7" width="1" height="1" fill="#ffffff" />
,<rect x="7" y="8" width="1" height="1" fill="#a5c0e4" />
,<rect x="7" y="9" width="1" height="1" fill="#fff6f0" />
,<rect x="8" y="0" width="1" height="1" fill="#ffffff" />
,<rect x="8" y="1" width="1" height="1" fill="#86a6d7" />
,<rect x="8" y="2" width="1" height="1" fill="#789cd3" />
,<rect x="8" y="3" width="1" height="1" fill="#ffffff" />
,<rect x="8" y="4" width="1" height="1" fill="#789cd3" />
,<rect x="8" y="5" width="1" height="1" fill="#d5e0f1" />
,<rect x="8" y="6" width="1" height="1" fill="#afc4e4" />
,<rect x="8" y="7" width="1" height="1" fill="#ffffff" />
,<rect x="8" y="8" width="1" height="1" fill="#ffffff" />
,<rect x="8" y="9" width="1" height="1" fill="#f2afbf" />
,<rect x="9" y="0" width="1" height="1" fill="#ffffff" />
,<rect x="9" y="1" width="1" height="1" fill="#003aa7" />
,<rect x="9" y="2" width="1" height="1" fill="#ffffff" />
,<rect x="9" y="3" width="1" height="1" fill="#a9c0e2" />
,<rect x="9" y="4" width="1" height="1" fill="#074baf" />
,<rect x="9" y="5" width="1" height="1" fill="#001798" />
,<rect x="9" y="6" width="1" height="1" fill="#dfe7f4" />
,<rect x="9" y="7" width="1" height="1" fill="#ffffff" />
,<rect x="9" y="8" width="1" height="1" fill="#ffffff" />
,<rect x="9" y="9" width="1" height="1" fill="#ffffff" />

  </g>
</svg>