<svg width="800" height="1000" version="1.1" xmlns="http://www.w3.org/2000/svg" xmlns:xlink="http://www.w3.org/1999/xlink">
  <defs>
      <linearGradient id="Gradient2" x1="0" x2="1" y1="0" y2="1">
        <stop offset="0%" stop-color="#2d3c96"/>
        <stop offset="100%" stop-color="#d53392"/>
      </linearGradient>
  </defs>
  <rect x="10" y="10" width="780" height="980" fill="url(#Gradient2)" rx="50" ry="50" stroke="#ffd700" stroke-width="20"/>
  <text x="400" y="920" width="780" text-anchor="middle" style="font: bold 200px 'Helvetica Neue'; fill: #ffd700">00180</text>

  <g transform="translate(80 80) scale(64)">
<rect x="0" y="0" width="1" height="1" fill="#88f74e" />
,<rect x="0" y="1" width="1" height="1" fill="#89f94e" />
,<rect x="0" y="2" width="1" height="1" fill="#8bfb51" />
,<rect x="0" y="3" width="1" height="1" fill="#000000" />
,<rect x="0" y="4" width="1" height="1" fill="#8ef84e" />
,<rect x="0" y="5" width="1" height="1" fill="#89f94f" />
,<rect x="0" y="6" width="1" height="1" fill="#1eb100" />
,<rect x="0" y="7" width="1" height="1" fill="#78ed42" />
,<rect x="0" y="8" width="1" height="1" fill="#89f94f" />
,<rect x="0" y="9" width="1" height="1" fill="#1eb100" />
,<rect x="1" y="0" width="1" height="1" fill="#88fa50" />
,<rect x="1" y="1" width="1" height="1" fill="#89f94e" />
,<rect x="1" y="2" width="1" height="1" fill="#89f94f" />
,<rect x="1" y="3" width="1" height="1" fill="#d1f8be" />
,<rect x="1" y="4" width="1" height="1" fill="#d1f7bd" />
,<rect x="1" y="5" width="1" height="1" fill="#1db200" />
,<rect x="1" y="6" width="1" height="1" fill="#1eb100" />
,<rect x="1" y="7" width="1" height="1" fill="#1fb000" />
,<rect x="1" y="8" width="1" height="1" fill="#93e9c4" />
,<rect x="1" y="9" width="1" height="1" fill="#a9f4e9" />
,<rect x="2" y="0" width="1" height="1" fill="#89f94f" />
,<rect x="2" y="1" width="1" height="1" fill="#96d1f7" />
,<rect x="2" y="2" width="1" height="1" fill="#98d2f8" />
,<rect x="2" y="3" width="1" height="1" fill="#ffffff" />
,<rect x="2" y="4" width="1" height="1" fill="#28ba0c" />
,<rect x="2" y="5" width="1" height="1" fill="#1eb100" />
,<rect x="2" y="6" width="1" height="1" fill="#000000" />
,<rect x="2" y="7" width="1" height="1" fill="#1eb100" />
,<rect x="2" y="8" width="1" height="1" fill="#3db940" />
,<rect x="2" y="9" width="1" height="1" fill="#40bd44" />
,<rect x="3" y="0" width="1" height="1" fill="#d2f8be" />
,<rect x="3" y="1" width="1" height="1" fill="#8af65d" />
,<rect x="3" y="2" width="1" height="1" fill="#84ced6" />
,<rect x="3" y="3" width="1" height="1" fill="#1fb100" />
,<rect x="3" y="4" width="1" height="1" fill="#1eb100" />
,<rect x="3" y="5" width="1" height="1" fill="#1eb100" />
,<rect x="3" y="6" width="1" height="1" fill="#1eb100" />
,<rect x="3" y="7" width="1" height="1" fill="#1eb100" />
,<rect x="3" y="8" width="1" height="1" fill="#32b72a" />
,<rect x="3" y="9" width="1" height="1" fill="#4cbd5d" />
,<rect x="4" y="0" width="1" height="1" fill="#d1f7bf" />
,<rect x="4" y="1" width="1" height="1" fill="#80ff80" />
,<rect x="4" y="2" width="1" height="1" fill="#1db400" />
,<rect x="4" y="3" width="1" height="1" fill="#76dc94" />
,<rect x="4" y="4" width="1" height="1" fill="#74db92" />
,<rect x="4" y="5" width="1" height="1" fill="#1eb100" />
,<rect x="4" y="6" width="1" height="1" fill="#1fb100" />
,<rect x="4" y="7" width="1" height="1" fill="#1eb200" />
,<rect x="4" y="8" width="1" height="1" fill="#89f84e" />
,<rect x="4" y="9" width="1" height="1" fill="#88f94f" />
,<rect x="5" y="0" width="1" height="1" fill="#1cb100" />
,<rect x="5" y="1" width="1" height="1" fill="#1eb100" />
,<rect x="5" y="2" width="1" height="1" fill="#000000" />
,<rect x="5" y="3" width="1" height="1" fill="#30b920" />
,<rect x="5" y="4" width="1" height="1" fill="#32bb21" />
,<rect x="5" y="5" width="1" height="1" fill="#97d1f6" />
,<rect x="5" y="6" width="1" height="1" fill="#66c593" />
,<rect x="5" y="7" width="1" height="1" fill="#1db200" />
,<rect x="5" y="8" width="1" height="1" fill="#89f94f" />
,<rect x="5" y="9" width="1" height="1" fill="#8afa50" />
,<rect x="6" y="0" width="1" height="1" fill="#3ac415" />
,<rect x="6" y="1" width="1" height="1" fill="#1eb200" />
,<rect x="6" y="2" width="1" height="1" fill="#1fb200" />
,<rect x="6" y="3" width="1" height="1" fill="#1eb100" />
,<rect x="6" y="4" width="1" height="1" fill="#1eb200" />
,<rect x="6" y="5" width="1" height="1" fill="#5ec385" />
,<rect x="6" y="6" width="1" height="1" fill="#8af75b" />
,<rect x="6" y="7" width="1" height="1" fill="#8afa50" />
,<rect x="6" y="8" width="1" height="1" fill="#89f94f" />
,<rect x="6" y="9" width="1" height="1" fill="#89f750" />
,<rect x="7" y="0" width="1" height="1" fill="#8af94f" />
,<rect x="7" y="1" width="1" height="1" fill="#000000" />
,<rect x="7" y="2" width="1" height="1" fill="#1eb100" />
,<rect x="7" y="3" width="1" height="1" fill="#1eb100" />
,<rect x="7" y="4" width="1" height="1" fill="#1eb100" />
,<rect x="7" y="5" width="1" height="1" fill="#1eb200" />
,<rect x="7" y="6" width="1" height="1" fill="#89f750" />
,<rect x="7" y="7" width="1" height="1" fill="#80ea4a" />
,<rect x="7" y="8" width="1" height="1" fill="#89fa51" />
,<rect x="7" y="9" width="1" height="1" fill="#8bfb4f" />
,<rect x="8" y="0" width="1" height="1" fill="#1eb100" />
,<rect x="8" y="1" width="1" height="1" fill="#1eb100" />
,<rect x="8" y="2" width="1" height="1" fill="#1fb200" />
,<rect x="8" y="3" width="1" height="1" fill="#aaf4eb" />
,<rect x="8" y="4" width="1" height="1" fill="#89f94f" />
,<rect x="8" y="5" width="1" height="1" fill="#8bfa4f" />
,<rect x="8" y="6" width="1" height="1" fill="#8cfa52" />
,<rect x="8" y="7" width="1" height="1" fill="#89f94f" />
,<rect x="8" y="8" width="1" height="1" fill="#84f64c" />
,<rect x="8" y="9" width="1" height="1" fill="#87f84e" />
,<rect x="9" y="0" width="1" height="1" fill="#1eb100" />
,<rect x="9" y="1" width="1" height="1" fill="#96d1f6" />
,<rect x="9" y="2" width="1" height="1" fill="#4fbf65" />
,<rect x="9" y="3" width="1" height="1" fill="#64d478" />
,<rect x="9" y="4" width="1" height="1" fill="#8cff53" />
,<rect x="9" y="5" width="1" height="1" fill="#87f84f" />
,<rect x="9" y="6" width="1" height="1" fill="#88f94f" />
,<rect x="9" y="7" width="1" height="1" fill="#000000" />
,<rect x="9" y="8" width="1" height="1" fill="#8af94f" />
,<rect x="9" y="9" width="1" height="1" fill="#89fa50" />

  </g>
</svg>