<svg width="800" height="1000" xmlns="http://www.w3.org/2000/svg"><defs><linearGradient id="g" x1="0" x2="1" y1="0" y2="1"><stop offset="0%" stop-color="#2d3c96"/><stop offset="100%" stop-color="#d53392"/></linearGradient></defs><rect x="10" y="10" width="780" height="980" fill="url(#g)" rx="50" ry="50" stroke="gold" stroke-width="20"/><text x="400" y="920" width="780" text-anchor="middle" style="font:bold 200px 'Helvetica Neue';fill:gold">00201</text><g transform="translate(80 80) scale(64)"><rect x="0" y="0" width="1" height="1" fill="#c1a61b" /><rect x="0" y="1" width="1" height="1" fill="#c3a81c" /><rect x="0" y="2" width="1" height="1" fill="#c1a01b" /><rect x="0" y="3" width="1" height="1" fill="#ab9897" /><rect x="0" y="4" width="1" height="1" fill="#b5a0ac" /><rect x="0" y="5" width="1" height="1" fill="#ac999c" /><rect x="0" y="6" width="1" height="1" fill="#c3a8ad" /><rect x="0" y="7" width="1" height="1" fill="#341318" /><rect x="0" y="8" width="1" height="1" fill="#4b1616" /><rect x="0" y="9" width="1" height="1" fill="#b79d1f" /><rect x="1" y="0" width="1" height="1" fill="#c2a71d" /><rect x="1" y="1" width="1" height="1" fill="#c0a71f" /><rect x="1" y="2" width="1" height="1" fill="#bca41a" /><rect x="1" y="3" width="1" height="1" fill="#a1928b" /><rect x="1" y="4" width="1" height="1" fill="#ac98a4" /><rect x="1" y="5" width="1" height="1" fill="#b5a3ac" /><rect x="1" y="6" width="1" height="1" fill="#ae9ba4" /><rect x="1" y="7" width="1" height="1" fill="#441619" /><rect x="1" y="8" width="1" height="1" fill="#4b1315" /><rect x="1" y="9" width="1" height="1" fill="#b79f1a" /><rect x="2" y="0" width="1" height="1" fill="#bea31a" /><rect x="2" y="1" width="1" height="1" fill="#c4a91d" /><rect x="2" y="2" width="1" height="1" fill="#bb9f1e" /><rect x="2" y="3" width="1" height="1" fill="#b1949c" /><rect x="2" y="4" width="1" height="1" fill="#b09da2" /><rect x="2" y="5" width="1" height="1" fill="#ae9b9c" /><rect x="2" y="6" width="1" height="1" fill="#b1a3a8" /><rect x="2" y="7" width="1" height="1" fill="#4a1618" /><rect x="2" y="8" width="1" height="1" fill="#ad9328" /><rect x="2" y="9" width="1" height="1" fill="#b2991a" /><rect x="3" y="0" width="1" height="1" fill="#bda220" /><rect x="3" y="1" width="1" height="1" fill="#ba9e18" /><rect x="3" y="2" width="1" height="1" fill="#a4852a" /><rect x="3" y="3" width="1" height="1" fill="#a48522" /><rect x="3" y="4" width="1" height="1" fill="#4d3e47" /><rect x="3" y="5" width="1" height="1" fill="#a69397" /><rect x="3" y="6" width="1" height="1" fill="#98818a" /><rect x="3" y="7" width="1" height="1" fill="#2b1201" /><rect x="3" y="8" width="1" height="1" fill="#967b29" /><rect x="3" y="9" width="1" height="1" fill="#b19818" /><rect x="4" y="0" width="1" height="1" fill="#b39d18" /><rect x="4" y="1" width="1" height="1" fill="#bba01f" /><rect x="4" y="2" width="1" height="1" fill="#baa11b" /><rect x="4" y="3" width="1" height="1" fill="#b49b18" /><rect x="4" y="4" width="1" height="1" fill="#b69918" /><rect x="4" y="5" width="1" height="1" fill="#37221d" /><rect x="4" y="6" width="1" height="1" fill="#ae9ca0" /><rect x="4" y="7" width="1" height="1" fill="#9d872a" /><rect x="4" y="8" width="1" height="1" fill="#533413" /><rect x="4" y="9" width="1" height="1" fill="#b2991a" /><rect x="5" y="0" width="1" height="1" fill="#b79c1a" /><rect x="5" y="1" width="1" height="1" fill="#a99617" /><rect x="5" y="2" width="1" height="1" fill="#b69b1f" /><rect x="5" y="3" width="1" height="1" fill="#b69d1a" /><rect x="5" y="4" width="1" height="1" fill="#b59b1a" /><rect x="5" y="5" width="1" height="1" fill="#b09b19" /><rect x="5" y="6" width="1" height="1" fill="#b19318" /><rect x="5" y="7" width="1" height="1" fill="#9e812a" /><rect x="5" y="8" width="1" height="1" fill="#5b3f05" /><rect x="5" y="9" width="1" height="1" fill="#a99017" /><rect x="6" y="0" width="1" height="1" fill="#b49a1a" /><rect x="6" y="1" width="1" height="1" fill="#b49b1b" /><rect x="6" y="2" width="1" height="1" fill="#b59b1b" /><rect x="6" y="3" width="1" height="1" fill="#b39928" /><rect x="6" y="4" width="1" height="1" fill="#ab9416" /><rect x="6" y="5" width="1" height="1" fill="#b2991a" /><rect x="6" y="6" width="1" height="1" fill="#ae961c" /><rect x="6" y="7" width="1" height="1" fill="#472909" /><rect x="6" y="8" width="1" height="1" fill="#a99222" /><rect x="6" y="9" width="1" height="1" fill="#9d851b" /><rect x="7" y="0" width="1" height="1" fill="#b69b1c" /><rect x="7" y="1" width="1" height="1" fill="#3b2001" /><rect x="7" y="2" width="1" height="1" fill="#b39719" /><rect x="7" y="3" width="1" height="1" fill="#ad951a" /><rect x="7" y="4" width="1" height="1" fill="#7f651b" /><rect x="7" y="5" width="1" height="1" fill="#9a7e2d" /><rect x="7" y="6" width="1" height="1" fill="#a9911a" /><rect x="7" y="7" width="1" height="1" fill="#482b03" /><rect x="7" y="8" width="1" height="1" fill="#a58e1c" /><rect x="7" y="9" width="1" height="1" fill="#a5891b" /><rect x="8" y="0" width="1" height="1" fill="#b2991b" /><rect x="8" y="1" width="1" height="1" fill="#aa9217" /><rect x="8" y="2" width="1" height="1" fill="#9d802e" /><rect x="8" y="3" width="1" height="1" fill="#a78a2c" /><rect x="8" y="4" width="1" height="1" fill="#a78e16" /><rect x="8" y="5" width="1" height="1" fill="#a88e1a" /><rect x="8" y="6" width="1" height="1" fill="#a58c17" /><rect x="8" y="7" width="1" height="1" fill="#755a1b" /><rect x="8" y="8" width="1" height="1" fill="#9d861d" /><rect x="8" y="9" width="1" height="1" fill="#a18817" /><rect x="9" y="0" width="1" height="1" fill="#ac9418" /><rect x="9" y="1" width="1" height="1" fill="#aa9118" /><rect x="9" y="2" width="1" height="1" fill="#a99017" /><rect x="9" y="3" width="1" height="1" fill="#a88f17" /><rect x="9" y="4" width="1" height="1" fill="#a78e16" /><rect x="9" y="5" width="1" height="1" fill="#a68d15" /><rect x="9" y="6" width="1" height="1" fill="#5c3c05" /><rect x="9" y="7" width="1" height="1" fill="#947c1f" /><rect x="9" y="8" width="1" height="1" fill="#967d1f" /><rect x="9" y="9" width="1" height="1" fill="#977914" /></g></svg>