<svg width="800" height="1000" version="1.1" xmlns="http://www.w3.org/2000/svg" xmlns:xlink="http://www.w3.org/1999/xlink">
  <defs>
      <linearGradient id="Gradient2" x1="0" x2="1" y1="0" y2="1">
        <stop offset="0%" stop-color="#2d3c96"/>
        <stop offset="100%" stop-color="#d53392"/>
      </linearGradient>
  </defs>
  <rect x="10" y="10" width="780" height="980" fill="url(#Gradient2)" rx="50" ry="50" stroke="#ffd700" stroke-width="20"/>
  <text x="400" y="920" width="780" text-anchor="middle" style="font: bold 200px 'Helvetica Neue'; fill: #ffd700">00224</text>

  <g transform="translate(80 80) scale(64)">
<rect x="0" y="0" width="1" height="1" fill="#eff2f2" />
,<rect x="0" y="1" width="1" height="1" fill="#ffffff" />
,<rect x="0" y="2" width="1" height="1" fill="#108b75" />
,<rect x="0" y="3" width="1" height="1" fill="#00846c" />
,<rect x="0" y="4" width="1" height="1" fill="#00846c" />
,<rect x="0" y="5" width="1" height="1" fill="#00846c" />
,<rect x="0" y="6" width="1" height="1" fill="#108b75" />
,<rect x="0" y="7" width="1" height="1" fill="#cfe7e3" />
,<rect x="0" y="8" width="1" height="1" fill="#ffffff" />
,<rect x="0" y="9" width="1" height="1" fill="#ffffff" />
,<rect x="1" y="0" width="1" height="1" fill="#ffffff" />
,<rect x="1" y="1" width="1" height="1" fill="#bee0db" />
,<rect x="1" y="2" width="1" height="1" fill="#00846c" />
,<rect x="1" y="3" width="1" height="1" fill="#00846c" />
,<rect x="1" y="4" width="1" height="1" fill="#00846c" />
,<rect x="1" y="5" width="1" height="1" fill="#01846c" />
,<rect x="1" y="6" width="1" height="1" fill="#00846c" />
,<rect x="1" y="7" width="1" height="1" fill="#118a75" />
,<rect x="1" y="8" width="1" height="1" fill="#afd8d1" />
,<rect x="1" y="9" width="1" height="1" fill="#fffeff" />
,<rect x="2" y="0" width="1" height="1" fill="#ffffff" />
,<rect x="2" y="1" width="1" height="1" fill="#6fbaac" />
,<rect x="2" y="2" width="1" height="1" fill="#00846c" />
,<rect x="2" y="3" width="1" height="1" fill="#00846c" />
,<rect x="2" y="4" width="1" height="1" fill="#00846c" />
,<rect x="2" y="5" width="1" height="1" fill="#00846c" />
,<rect x="2" y="6" width="1" height="1" fill="#00846c" />
,<rect x="2" y="7" width="1" height="1" fill="#00846c" />
,<rect x="2" y="8" width="1" height="1" fill="#00846c" />
,<rect x="2" y="9" width="1" height="1" fill="#9fd1c8" />
,<rect x="3" y="0" width="1" height="1" fill="#fefefe" />
,<rect x="3" y="1" width="1" height="1" fill="#4faa99" />
,<rect x="3" y="2" width="1" height="1" fill="#00856c" />
,<rect x="3" y="3" width="1" height="1" fill="#00846c" />
,<rect x="3" y="4" width="1" height="1" fill="#01846c" />
,<rect x="3" y="5" width="1" height="1" fill="#00846c" />
,<rect x="3" y="6" width="1" height="1" fill="#00856c" />
,<rect x="3" y="7" width="1" height="1" fill="#00846c" />
,<rect x="3" y="8" width="1" height="1" fill="#00856c" />
,<rect x="3" y="9" width="1" height="1" fill="#00846c" />
,<rect x="4" y="0" width="1" height="1" fill="#ffffff" />
,<rect x="4" y="1" width="1" height="1" fill="#3fa290" />
,<rect x="4" y="2" width="1" height="1" fill="#00846c" />
,<rect x="4" y="3" width="1" height="1" fill="#00846c" />
,<rect x="4" y="4" width="1" height="1" fill="#00846c" />
,<rect x="4" y="5" width="1" height="1" fill="#00846c" />
,<rect x="4" y="6" width="1" height="1" fill="#00846c" />
,<rect x="4" y="7" width="1" height="1" fill="#00846c" />
,<rect x="4" y="8" width="1" height="1" fill="#00846c" />
,<rect x="4" y="9" width="1" height="1" fill="#00846c" />
,<rect x="5" y="0" width="1" height="1" fill="#ffffff" />
,<rect x="5" y="1" width="1" height="1" fill="#3ea290" />
,<rect x="5" y="2" width="1" height="1" fill="#00846c" />
,<rect x="5" y="3" width="1" height="1" fill="#00856c" />
,<rect x="5" y="4" width="1" height="1" fill="#00846c" />
,<rect x="5" y="5" width="1" height="1" fill="#01846c" />
,<rect x="5" y="6" width="1" height="1" fill="#00846c" />
,<rect x="5" y="7" width="1" height="1" fill="#01846c" />
,<rect x="5" y="8" width="1" height="1" fill="#00846c" />
,<rect x="5" y="9" width="1" height="1" fill="#01856d" />
,<rect x="6" y="0" width="1" height="1" fill="#ffffff" />
,<rect x="6" y="1" width="1" height="1" fill="#4faa99" />
,<rect x="6" y="2" width="1" height="1" fill="#00846c" />
,<rect x="6" y="3" width="1" height="1" fill="#00846c" />
,<rect x="6" y="4" width="1" height="1" fill="#00846c" />
,<rect x="6" y="5" width="1" height="1" fill="#00846c" />
,<rect x="6" y="6" width="1" height="1" fill="#00846c" />
,<rect x="6" y="7" width="1" height="1" fill="#00846c" />
,<rect x="6" y="8" width="1" height="1" fill="#00846c" />
,<rect x="6" y="9" width="1" height="1" fill="#00846c" />
,<rect x="7" y="0" width="1" height="1" fill="#fffffe" />
,<rect x="7" y="1" width="1" height="1" fill="#7fc1b5" />
,<rect x="7" y="2" width="1" height="1" fill="#00846d" />
,<rect x="7" y="3" width="1" height="1" fill="#00846c" />
,<rect x="7" y="4" width="1" height="1" fill="#00856d" />
,<rect x="7" y="5" width="1" height="1" fill="#00846c" />
,<rect x="7" y="6" width="1" height="1" fill="#01856c" />
,<rect x="7" y="7" width="1" height="1" fill="#00846c" />
,<rect x="7" y="8" width="1" height="1" fill="#01856c" />
,<rect x="7" y="9" width="1" height="1" fill="#a0d1c8" />
,<rect x="8" y="0" width="1" height="1" fill="#ffffff" />
,<rect x="8" y="1" width="1" height="1" fill="#bfe0da" />
,<rect x="8" y="2" width="1" height="1" fill="#00846c" />
,<rect x="8" y="3" width="1" height="1" fill="#00846c" />
,<rect x="8" y="4" width="1" height="1" fill="#00846c" />
,<rect x="8" y="5" width="1" height="1" fill="#00846c" />
,<rect x="8" y="6" width="1" height="1" fill="#00846c" />
,<rect x="8" y="7" width="1" height="1" fill="#108c76" />
,<rect x="8" y="8" width="1" height="1" fill="#cfe8e4" />
,<rect x="8" y="9" width="1" height="1" fill="#ffffff" />
,<rect x="9" y="0" width="1" height="1" fill="#ffffff" />
,<rect x="9" y="1" width="1" height="1" fill="#ffffff" />
,<rect x="9" y="2" width="1" height="1" fill="#20937e" />
,<rect x="9" y="3" width="1" height="1" fill="#00846c" />
,<rect x="9" y="4" width="1" height="1" fill="#00846c" />
,<rect x="9" y="5" width="1" height="1" fill="#00846c" />
,<rect x="9" y="6" width="1" height="1" fill="#20947f" />
,<rect x="9" y="7" width="1" height="1" fill="#cfe8e4" />
,<rect x="9" y="8" width="1" height="1" fill="#ffffff" />
,<rect x="9" y="9" width="1" height="1" fill="#ffffff" />

  </g>
</svg>