<svg width="800" height="1000" xmlns="http://www.w3.org/2000/svg"><defs><linearGradient id="g" x1="0" x2="1" y1="0" y2="1"><stop offset="0%" stop-color="#2d3c96"/><stop offset="100%" stop-color="#d53392"/></linearGradient></defs><rect x="10" y="10" width="780" height="980" fill="url(#g)" rx="50" ry="50" stroke="gold" stroke-width="20"/><text x="400" y="920" width="780" text-anchor="middle" style="font:bold 200px 'Helvetica Neue';fill:gold">00223</text><g transform="translate(80 80) scale(64)"><rect x="0" y="0" width="1" height="1" fill="#ffffff" /><rect x="0" y="1" width="1" height="1" fill="#ffffff" /><rect x="0" y="2" width="1" height="1" fill="#ffffff" /><rect x="0" y="3" width="1" height="1" fill="#ffffff" /><rect x="0" y="4" width="1" height="1" fill="#ffffff" /><rect x="0" y="5" width="1" height="1" fill="#ffffff" /><rect x="0" y="6" width="1" height="1" fill="#ffffff" /><rect x="0" y="7" width="1" height="1" fill="#ffffff" /><rect x="0" y="8" width="1" height="1" fill="#ffffff" /><rect x="0" y="9" width="1" height="1" fill="#ffffff" /><rect x="1" y="0" width="1" height="1" fill="#ffffff" /><rect x="1" y="1" width="1" height="1" fill="#fefeff" /><rect x="1" y="2" width="1" height="1" fill="#ffffff" /><rect x="1" y="3" width="1" height="1" fill="#fffeff" /><rect x="1" y="4" width="1" height="1" fill="#ffffff" /><rect x="1" y="5" width="1" height="1" fill="#fffeff" /><rect x="1" y="6" width="1" height="1" fill="#ffffff" /><rect x="1" y="7" width="1" height="1" fill="#fefefe" /><rect x="1" y="8" width="1" height="1" fill="#ffffff" /><rect x="1" y="9" width="1" height="1" fill="#fefeff" /><rect x="2" y="0" width="1" height="1" fill="#ffffff" /><rect x="2" y="1" width="1" height="1" fill="#ffffff" /><rect x="2" y="2" width="1" height="1" fill="#ffffff" /><rect x="2" y="3" width="1" height="1" fill="#ffffff" /><rect x="2" y="4" width="1" height="1" fill="#ffffff" /><rect x="2" y="5" width="1" height="1" fill="#ffffff" /><rect x="2" y="6" width="1" height="1" fill="#ffffff" /><rect x="2" y="7" width="1" height="1" fill="#ffffff" /><rect x="2" y="8" width="1" height="1" fill="#ffffff" /><rect x="2" y="9" width="1" height="1" fill="#ffffff" /><rect x="3" y="0" width="1" height="1" fill="#feffff" /><rect x="3" y="1" width="1" height="1" fill="#ffffff" /><rect x="3" y="2" width="1" height="1" fill="#fefffe" /><rect x="3" y="3" width="1" height="1" fill="#ffffff" /><rect x="3" y="4" width="1" height="1" fill="#fffefe" /><rect x="3" y="5" width="1" height="1" fill="#fffefe" /><rect x="3" y="6" width="1" height="1" fill="#fefefe" /><rect x="3" y="7" width="1" height="1" fill="#ffffff" /><rect x="3" y="8" width="1" height="1" fill="#fefeff" /><rect x="3" y="9" width="1" height="1" fill="#ffffff" /><rect x="4" y="0" width="1" height="1" fill="#ffffff" /><rect x="4" y="1" width="1" height="1" fill="#ffffff" /><rect x="4" y="2" width="1" height="1" fill="#ffffff" /><rect x="4" y="3" width="1" height="1" fill="#ffffff" /><rect x="4" y="4" width="1" height="1" fill="#ffffff" /><rect x="4" y="5" width="1" height="1" fill="#ffffff" /><rect x="4" y="6" width="1" height="1" fill="#ffffff" /><rect x="4" y="7" width="1" height="1" fill="#ffffff" /><rect x="4" y="8" width="1" height="1" fill="#ffffff" /><rect x="4" y="9" width="1" height="1" fill="#ffffff" /><rect x="5" y="0" width="1" height="1" fill="#7fc1b5" /><rect x="5" y="1" width="1" height="1" fill="#def1ed" /><rect x="5" y="2" width="1" height="1" fill="#ffffff" /><rect x="5" y="3" width="1" height="1" fill="#ffffff" /><rect x="5" y="4" width="1" height="1" fill="#ffffff" /><rect x="5" y="5" width="1" height="1" fill="#fffefe" /><rect x="5" y="6" width="1" height="1" fill="#ffffff" /><rect x="5" y="7" width="1" height="1" fill="#ffffff" /><rect x="5" y="8" width="1" height="1" fill="#ffffff" /><rect x="5" y="9" width="1" height="1" fill="#fefefe" /><rect x="6" y="0" width="1" height="1" fill="#00846c" /><rect x="6" y="1" width="1" height="1" fill="#70baad" /><rect x="6" y="2" width="1" height="1" fill="#eff8f6" /><rect x="6" y="3" width="1" height="1" fill="#ffffff" /><rect x="6" y="4" width="1" height="1" fill="#ffffff" /><rect x="6" y="5" width="1" height="1" fill="#ffffff" /><rect x="6" y="6" width="1" height="1" fill="#ffffff" /><rect x="6" y="7" width="1" height="1" fill="#ffffff" /><rect x="6" y="8" width="1" height="1" fill="#ffffff" /><rect x="6" y="9" width="1" height="1" fill="#ffffff" /><rect x="7" y="0" width="1" height="1" fill="#def0ec" /><rect x="7" y="1" width="1" height="1" fill="#ffffff" /><rect x="7" y="2" width="1" height="1" fill="#eef6f5" /><rect x="7" y="3" width="1" height="1" fill="#309b88" /><rect x="7" y="4" width="1" height="1" fill="#def1ec" /><rect x="7" y="5" width="1" height="1" fill="#ffffff" /><rect x="7" y="6" width="1" height="1" fill="#ffffff" /><rect x="7" y="7" width="1" height="1" fill="#ffffff" /><rect x="7" y="8" width="1" height="1" fill="#fffeff" /><rect x="7" y="9" width="1" height="1" fill="#ffffff" /><rect x="8" y="0" width="1" height="1" fill="#ffffff" /><rect x="8" y="1" width="1" height="1" fill="#ffffff" /><rect x="8" y="2" width="1" height="1" fill="#bfe0da" /><rect x="8" y="3" width="1" height="1" fill="#00846c" /><rect x="8" y="4" width="1" height="1" fill="#20947f" /><rect x="8" y="5" width="1" height="1" fill="#dff0ed" /><rect x="8" y="6" width="1" height="1" fill="#ffffff" /><rect x="8" y="7" width="1" height="1" fill="#ffffff" /><rect x="8" y="8" width="1" height="1" fill="#ffffff" /><rect x="8" y="9" width="1" height="1" fill="#ffffff" /><rect x="9" y="0" width="1" height="1" fill="#eff2f2" /><rect x="9" y="1" width="1" height="1" fill="#ffffff" /><rect x="9" y="2" width="1" height="1" fill="#5fb1a2" /><rect x="9" y="3" width="1" height="1" fill="#00846c" /><rect x="9" y="4" width="1" height="1" fill="#00856c" /><rect x="9" y="5" width="1" height="1" fill="#20947f" /><rect x="9" y="6" width="1" height="1" fill="#cfe7e3" /><rect x="9" y="7" width="1" height="1" fill="#ffffff" /><rect x="9" y="8" width="1" height="1" fill="#ffffff" /><rect x="9" y="9" width="1" height="1" fill="#ffffff" /></g></svg>