<svg width="800" height="1000" version="1.1" xmlns="http://www.w3.org/2000/svg" xmlns:xlink="http://www.w3.org/1999/xlink">
  <defs>
      <linearGradient id="Gradient2" x1="0" x2="1" y1="0" y2="1">
        <stop offset="0%" stop-color="#2d3c96"/>
        <stop offset="100%" stop-color="#d53392"/>
      </linearGradient>
  </defs>
  <rect x="10" y="10" width="780" height="980" fill="url(#Gradient2)" rx="50" ry="50" stroke="#ffd700" stroke-width="20"/>
  <text x="400" y="920" width="780" text-anchor="middle" style="font: bold 200px 'Helvetica Neue'; fill: #ffd700">00262</text>

  <g transform="translate(80 80) scale(64)">
<rect x="0" y="0" width="1" height="1" fill="#FF0000" /><rect x="1" y="0" width="1" height="1" fill="#FF1D1D" /><rect x="2" y="0" width="1" height="1" fill="#E7D9D9" /><rect x="3" y="0" width="1" height="1" fill="#0A0A0A" /><rect x="4" y="0" width="1" height="1" fill="#000000" /><rect x="5" y="0" width="1" height="1" fill="#000000" /><rect x="6" y="0" width="1" height="1" fill="#000000" /><rect x="7" y="0" width="1" height="1" fill="#000000" /><rect x="8" y="0" width="1" height="1" fill="#000000" /><rect x="9" y="0" width="1" height="1" fill="#000000" /><rect x="0" y="1" width="1" height="1" fill="#FF0000" /><rect x="1" y="1" width="1" height="1" fill="#FF3737" /><rect x="2" y="1" width="1" height="1" fill="#C7B4B4" /><rect x="3" y="1" width="1" height="1" fill="#000000" /><rect x="4" y="1" width="1" height="1" fill="#000000" /><rect x="5" y="1" width="1" height="1" fill="#000000" /><rect x="6" y="1" width="1" height="1" fill="#000000" /><rect x="7" y="1" width="1" height="1" fill="#000000" /><rect x="8" y="1" width="1" height="1" fill="#000000" /><rect x="9" y="1" width="1" height="1" fill="#000000" /><rect x="0" y="2" width="1" height="1" fill="#FF0000" /><rect x="1" y="2" width="1" height="1" fill="#FF3636" /><rect x="2" y="2" width="1" height="1" fill="#C7B5B5" /><rect x="3" y="2" width="1" height="1" fill="#000000" /><rect x="4" y="2" width="1" height="1" fill="#000000" /><rect x="5" y="2" width="1" height="1" fill="#000000" /><rect x="6" y="2" width="1" height="1" fill="#000000" /><rect x="7" y="2" width="1" height="1" fill="#000000" /><rect x="8" y="2" width="1" height="1" fill="#000000" /><rect x="9" y="2" width="1" height="1" fill="#000000" /><rect x="0" y="3" width="1" height="1" fill="#FF0000" /><rect x="1" y="3" width="1" height="1" fill="#FF1313" /><rect x="2" y="3" width="1" height="1" fill="#EEDFDF" /><rect x="3" y="3" width="1" height="1" fill="#232323" /><rect x="4" y="3" width="1" height="1" fill="#000000" /><rect x="5" y="3" width="1" height="1" fill="#000000" /><rect x="6" y="3" width="1" height="1" fill="#000000" /><rect x="7" y="3" width="1" height="1" fill="#000000" /><rect x="8" y="3" width="1" height="1" fill="#2A2A2A" /><rect x="9" y="3" width="1" height="1" fill="#C9BBBB" /><rect x="0" y="4" width="1" height="1" fill="#FF0000" /><rect x="1" y="4" width="1" height="1" fill="#FF0000" /><rect x="2" y="4" width="1" height="1" fill="#FC5252" /><rect x="3" y="4" width="1" height="1" fill="#EFD0D0" /><rect x="4" y="4" width="1" height="1" fill="#EFDDDD" /><rect x="5" y="4" width="1" height="1" fill="#EFDDDD" /><rect x="6" y="4" width="1" height="1" fill="#EFDDDD" /><rect x="7" y="4" width="1" height="1" fill="#EFDDDD" /><rect x="8" y="4" width="1" height="1" fill="#EFD1D1" /><rect x="9" y="4" width="1" height="1" fill="#FE5555" /><rect x="0" y="5" width="1" height="1" fill="#FD5454" /><rect x="1" y="5" width="1" height="1" fill="#FF0000" /><rect x="2" y="5" width="1" height="1" fill="#FF0000" /><rect x="3" y="5" width="1" height="1" fill="#FF0000" /><rect x="4" y="5" width="1" height="1" fill="#FF0000" /><rect x="5" y="5" width="1" height="1" fill="#FF0000" /><rect x="6" y="5" width="1" height="1" fill="#FF0000" /><rect x="7" y="5" width="1" height="1" fill="#FF0000" /><rect x="8" y="5" width="1" height="1" fill="#FF0000" /><rect x="9" y="5" width="1" height="1" fill="#FF0000" /><rect x="0" y="6" width="1" height="1" fill="#E9DCDC" /><rect x="1" y="6" width="1" height="1" fill="#FB6A6A" /><rect x="2" y="6" width="1" height="1" fill="#FF0404" /><rect x="3" y="6" width="1" height="1" fill="#FF0000" /><rect x="4" y="6" width="1" height="1" fill="#FF0000" /><rect x="5" y="6" width="1" height="1" fill="#FF0000" /><rect x="6" y="6" width="1" height="1" fill="#FF0000" /><rect x="7" y="6" width="1" height="1" fill="#FF0000" /><rect x="8" y="6" width="1" height="1" fill="#FF0000" /><rect x="9" y="6" width="1" height="1" fill="#FF0808" /><rect x="0" y="7" width="1" height="1" fill="#191919" /><rect x="1" y="7" width="1" height="1" fill="#B1A4A4" /><rect x="2" y="7" width="1" height="1" fill="#F3E5E5" /><rect x="3" y="7" width="1" height="1" fill="#EDC1C1" /><rect x="4" y="7" width="1" height="1" fill="#EDBBBB" /><rect x="5" y="7" width="1" height="1" fill="#EDBBBB" /><rect x="6" y="7" width="1" height="1" fill="#EDBBBB" /><rect x="7" y="7" width="1" height="1" fill="#EDBBBB" /><rect x="8" y="7" width="1" height="1" fill="#EDBBBB" /><rect x="9" y="7" width="1" height="1" fill="#F1DDDD" /><rect x="0" y="8" width="1" height="1" fill="#000000" /><rect x="1" y="8" width="1" height="1" fill="#000000" /><rect x="2" y="8" width="1" height="1" fill="#0B0B0B" /><rect x="3" y="8" width="1" height="1" fill="#2B2B2B" /><rect x="4" y="8" width="1" height="1" fill="#333333" /><rect x="5" y="8" width="1" height="1" fill="#333333" /><rect x="6" y="8" width="1" height="1" fill="#333333" /><rect x="7" y="8" width="1" height="1" fill="#333333" /><rect x="8" y="8" width="1" height="1" fill="#333333" /><rect x="9" y="8" width="1" height="1" fill="#1F1F1F" /><rect x="0" y="9" width="1" height="1" fill="#000000" /><rect x="1" y="9" width="1" height="1" fill="#000000" /><rect x="2" y="9" width="1" height="1" fill="#000000" /><rect x="3" y="9" width="1" height="1" fill="#000000" /><rect x="4" y="9" width="1" height="1" fill="#000000" /><rect x="5" y="9" width="1" height="1" fill="#000000" /><rect x="6" y="9" width="1" height="1" fill="#000000" /><rect x="7" y="9" width="1" height="1" fill="#000000" /><rect x="8" y="9" width="1" height="1" fill="#000000" /><rect x="9" y="9" width="1" height="1" fill="#000000" />
  </g>
</svg>