<svg width="800" height="1000" version="1.1" xmlns="http://www.w3.org/2000/svg" xmlns:xlink="http://www.w3.org/1999/xlink">
  <defs>
      <linearGradient id="Gradient2" x1="0" x2="1" y1="0" y2="1">
        <stop offset="0%" stop-color="#2d3c96"/>
        <stop offset="100%" stop-color="#d53392"/>
      </linearGradient>
  </defs>
  <rect x="10" y="10" width="780" height="980" fill="url(#Gradient2)" rx="50" ry="50" stroke="#ffd700" stroke-width="20"/>
  <text x="400" y="920" width="780" text-anchor="middle" style="font: bold 200px 'Helvetica Neue'; fill: #ffd700">00261</text>

  <g transform="translate(80 80) scale(64)">
<rect x="0" y="0" width="1" height="1" fill="#FF0000" /><rect x="1" y="0" width="1" height="1" fill="#FF3232" /><rect x="2" y="0" width="1" height="1" fill="#CCB9B9" /><rect x="3" y="0" width="1" height="1" fill="#000000" /><rect x="4" y="0" width="1" height="1" fill="#000000" /><rect x="5" y="0" width="1" height="1" fill="#000000" /><rect x="6" y="0" width="1" height="1" fill="#000000" /><rect x="7" y="0" width="1" height="1" fill="#000000" /><rect x="8" y="0" width="1" height="1" fill="#717070" /><rect x="9" y="0" width="1" height="1" fill="#FC7C7C" /><rect x="0" y="1" width="1" height="1" fill="#FF0000" /><rect x="1" y="1" width="1" height="1" fill="#FF2929" /><rect x="2" y="1" width="1" height="1" fill="#D4C2C2" /><rect x="3" y="1" width="1" height="1" fill="#000000" /><rect x="4" y="1" width="1" height="1" fill="#000000" /><rect x="5" y="1" width="1" height="1" fill="#000000" /><rect x="6" y="1" width="1" height="1" fill="#000000" /><rect x="7" y="1" width="1" height="1" fill="#000000" /><rect x="8" y="1" width="1" height="1" fill="#7E7B7B" /><rect x="9" y="1" width="1" height="1" fill="#FF7171" /><rect x="0" y="2" width="1" height="1" fill="#FF0000" /><rect x="1" y="2" width="1" height="1" fill="#FF2121" /><rect x="2" y="2" width="1" height="1" fill="#DCCBCB" /><rect x="3" y="2" width="1" height="1" fill="#000000" /><rect x="4" y="2" width="1" height="1" fill="#000000" /><rect x="5" y="2" width="1" height="1" fill="#000000" /><rect x="6" y="2" width="1" height="1" fill="#000000" /><rect x="7" y="2" width="1" height="1" fill="#000000" /><rect x="8" y="2" width="1" height="1" fill="#7D7A7A" /><rect x="9" y="2" width="1" height="1" fill="#FF7171" /><rect x="0" y="3" width="1" height="1" fill="#FF0000" /><rect x="1" y="3" width="1" height="1" fill="#FF1818" /><rect x="2" y="3" width="1" height="1" fill="#E3D3D3" /><rect x="3" y="3" width="1" height="1" fill="#000000" /><rect x="4" y="3" width="1" height="1" fill="#000000" /><rect x="5" y="3" width="1" height="1" fill="#000000" /><rect x="6" y="3" width="1" height="1" fill="#000000" /><rect x="7" y="3" width="1" height="1" fill="#000000" /><rect x="8" y="3" width="1" height="1" fill="#6C6C6C" /><rect x="9" y="3" width="1" height="1" fill="#FA8080" /><rect x="0" y="4" width="1" height="1" fill="#FF0000" /><rect x="1" y="4" width="1" height="1" fill="#FF0F0F" /><rect x="2" y="4" width="1" height="1" fill="#EADCDC" /><rect x="3" y="4" width="1" height="1" fill="#000000" /><rect x="4" y="4" width="1" height="1" fill="#000000" /><rect x="5" y="4" width="1" height="1" fill="#000000" /><rect x="6" y="4" width="1" height="1" fill="#000000" /><rect x="7" y="4" width="1" height="1" fill="#000000" /><rect x="8" y="4" width="1" height="1" fill="#363636" /><rect x="9" y="4" width="1" height="1" fill="#EEC2C2" /><rect x="0" y="5" width="1" height="1" fill="#FF0000" /><rect x="1" y="5" width="1" height="1" fill="#FF0707" /><rect x="2" y="5" width="1" height="1" fill="#F0E5E5" /><rect x="3" y="5" width="1" height="1" fill="#000000" /><rect x="4" y="5" width="1" height="1" fill="#000000" /><rect x="5" y="5" width="1" height="1" fill="#000000" /><rect x="6" y="5" width="1" height="1" fill="#000000" /><rect x="7" y="5" width="1" height="1" fill="#000000" /><rect x="8" y="5" width="1" height="1" fill="#000000" /><rect x="9" y="5" width="1" height="1" fill="#D3C5C5" /><rect x="0" y="6" width="1" height="1" fill="#FF0202" /><rect x="1" y="6" width="1" height="1" fill="#FF1C1C" /><rect x="2" y="6" width="1" height="1" fill="#E7D8D8" /><rect x="3" y="6" width="1" height="1" fill="#000000" /><rect x="4" y="6" width="1" height="1" fill="#000000" /><rect x="5" y="6" width="1" height="1" fill="#000000" /><rect x="6" y="6" width="1" height="1" fill="#000000" /><rect x="7" y="6" width="1" height="1" fill="#000000" /><rect x="8" y="6" width="1" height="1" fill="#000000" /><rect x="9" y="6" width="1" height="1" fill="#202020" /><rect x="0" y="7" width="1" height="1" fill="#F0D3D3" /><rect x="1" y="7" width="1" height="1" fill="#F1E0E0" /><rect x="2" y="7" width="1" height="1" fill="#5D5959" /><rect x="3" y="7" width="1" height="1" fill="#000000" /><rect x="4" y="7" width="1" height="1" fill="#000000" /><rect x="5" y="7" width="1" height="1" fill="#000000" /><rect x="6" y="7" width="1" height="1" fill="#000000" /><rect x="7" y="7" width="1" height="1" fill="#000000" /><rect x="8" y="7" width="1" height="1" fill="#000000" /><rect x="9" y="7" width="1" height="1" fill="#000000" /><rect x="0" y="8" width="1" height="1" fill="#222222" /><rect x="1" y="8" width="1" height="1" fill="#121212" /><rect x="2" y="8" width="1" height="1" fill="#000000" /><rect x="3" y="8" width="1" height="1" fill="#000000" /><rect x="4" y="8" width="1" height="1" fill="#000000" /><rect x="5" y="8" width="1" height="1" fill="#000000" /><rect x="6" y="8" width="1" height="1" fill="#000000" /><rect x="7" y="8" width="1" height="1" fill="#000000" /><rect x="8" y="8" width="1" height="1" fill="#000000" /><rect x="9" y="8" width="1" height="1" fill="#000000" /><rect x="0" y="9" width="1" height="1" fill="#000000" /><rect x="1" y="9" width="1" height="1" fill="#000000" /><rect x="2" y="9" width="1" height="1" fill="#000000" /><rect x="3" y="9" width="1" height="1" fill="#000000" /><rect x="4" y="9" width="1" height="1" fill="#000000" /><rect x="5" y="9" width="1" height="1" fill="#000000" /><rect x="6" y="9" width="1" height="1" fill="#000000" /><rect x="7" y="9" width="1" height="1" fill="#000000" /><rect x="8" y="9" width="1" height="1" fill="#000000" /><rect x="9" y="9" width="1" height="1" fill="#000000" />
  </g>
</svg>