<svg width="800" height="1000" xmlns="http://www.w3.org/2000/svg"><defs><linearGradient id="g" x1="0" x2="1" y1="0" y2="1"><stop offset="0%" stop-color="#2d3c96"/><stop offset="100%" stop-color="#d53392"/></linearGradient></defs><rect x="10" y="10" width="780" height="980" fill="url(#g)" rx="50" ry="50" stroke="gold" stroke-width="20"/><text x="400" y="920" width="780" text-anchor="middle" style="font:bold 200px 'Helvetica Neue';fill:gold">00263</text><g transform="translate(80 80) scale(64)"><rect x="0" y="0" width="1" height="1" fill="#060606" /><rect x="0" y="1" width="1" height="1" fill="#000000" /><rect x="0" y="2" width="1" height="1" fill="#525151" /><rect x="0" y="3" width="1" height="1" fill="#f1bfbf" /><rect x="0" y="4" width="1" height="1" fill="#ff0000" /><rect x="0" y="5" width="1" height="1" fill="#ff0000" /><rect x="0" y="6" width="1" height="1" fill="#f87e7e" /><rect x="0" y="7" width="1" height="1" fill="#9c9292" /><rect x="0" y="8" width="1" height="1" fill="#000000" /><rect x="0" y="9" width="1" height="1" fill="#000000" /><rect x="1" y="0" width="1" height="1" fill="#ddcece" /><rect x="1" y="1" width="1" height="1" fill="#a69898" /><rect x="1" y="2" width="1" height="1" fill="#ebdede" /><rect x="1" y="3" width="1" height="1" fill="#ff2d2d" /><rect x="1" y="4" width="1" height="1" fill="#ff0000" /><rect x="1" y="5" width="1" height="1" fill="#ff1f1f" /><rect x="1" y="6" width="1" height="1" fill="#f7f0f0" /><rect x="1" y="7" width="1" height="1" fill="#191919" /><rect x="1" y="8" width="1" height="1" fill="#000000" /><rect x="1" y="9" width="1" height="1" fill="#000000" /><rect x="2" y="0" width="1" height="1" fill="#ff2c2c" /><rect x="2" y="1" width="1" height="1" fill="#ff5252" /><rect x="2" y="2" width="1" height="1" fill="#ff4a4a" /><rect x="2" y="3" width="1" height="1" fill="#ff0000" /><rect x="2" y="4" width="1" height="1" fill="#ff0000" /><rect x="2" y="5" width="1" height="1" fill="#ff4747" /><rect x="2" y="6" width="1" height="1" fill="#f4a2a2" /><rect x="2" y="7" width="1" height="1" fill="#d3c6c6" /><rect x="2" y="8" width="1" height="1" fill="#030303" /><rect x="2" y="9" width="1" height="1" fill="#000000" /><rect x="3" y="0" width="1" height="1" fill="#ff0000" /><rect x="3" y="1" width="1" height="1" fill="#ff0000" /><rect x="3" y="2" width="1" height="1" fill="#ff0000" /><rect x="3" y="3" width="1" height="1" fill="#ff0000" /><rect x="3" y="4" width="1" height="1" fill="#ff0000" /><rect x="3" y="5" width="1" height="1" fill="#ff0000" /><rect x="3" y="6" width="1" height="1" fill="#ff0000" /><rect x="3" y="7" width="1" height="1" fill="#eec7c7" /><rect x="3" y="8" width="1" height="1" fill="#262626" /><rect x="3" y="9" width="1" height="1" fill="#000000" /><rect x="4" y="0" width="1" height="1" fill="#ff5858" /><rect x="4" y="1" width="1" height="1" fill="#ff4f4f" /><rect x="4" y="2" width="1" height="1" fill="#ff4747" /><rect x="4" y="3" width="1" height="1" fill="#ff3e3e" /><rect x="4" y="4" width="1" height="1" fill="#ff3636" /><rect x="4" y="5" width="1" height="1" fill="#ff2d2d" /><rect x="4" y="6" width="1" height="1" fill="#ff4646" /><rect x="4" y="7" width="1" height="1" fill="#efe1e1" /><rect x="4" y="8" width="1" height="1" fill="#0c0c0c" /><rect x="4" y="9" width="1" height="1" fill="#000000" /><rect x="5" y="0" width="1" height="1" fill="#a19494" /><rect x="5" y="1" width="1" height="1" fill="#ab9c9c" /><rect x="5" y="2" width="1" height="1" fill="#b5a4a4" /><rect x="5" y="3" width="1" height="1" fill="#bfadad" /><rect x="5" y="4" width="1" height="1" fill="#c8b6b6" /><rect x="5" y="5" width="1" height="1" fill="#d0bebe" /><rect x="5" y="6" width="1" height="1" fill="#c0afaf" /><rect x="5" y="7" width="1" height="1" fill="#383838" /><rect x="5" y="8" width="1" height="1" fill="#000000" /><rect x="5" y="9" width="1" height="1" fill="#000000" /><rect x="6" y="0" width="1" height="1" fill="#000000" /><rect x="6" y="1" width="1" height="1" fill="#000000" /><rect x="6" y="2" width="1" height="1" fill="#000000" /><rect x="6" y="3" width="1" height="1" fill="#000000" /><rect x="6" y="4" width="1" height="1" fill="#000000" /><rect x="6" y="5" width="1" height="1" fill="#000000" /><rect x="6" y="6" width="1" height="1" fill="#000000" /><rect x="6" y="7" width="1" height="1" fill="#000000" /><rect x="6" y="8" width="1" height="1" fill="#000000" /><rect x="6" y="9" width="1" height="1" fill="#000000" /><rect x="7" y="0" width="1" height="1" fill="#000000" /><rect x="7" y="1" width="1" height="1" fill="#000000" /><rect x="7" y="2" width="1" height="1" fill="#000000" /><rect x="7" y="3" width="1" height="1" fill="#000000" /><rect x="7" y="4" width="1" height="1" fill="#000000" /><rect x="7" y="5" width="1" height="1" fill="#000000" /><rect x="7" y="6" width="1" height="1" fill="#000000" /><rect x="7" y="7" width="1" height="1" fill="#000000" /><rect x="7" y="8" width="1" height="1" fill="#000000" /><rect x="7" y="9" width="1" height="1" fill="#000000" /><rect x="8" y="0" width="1" height="1" fill="#000000" /><rect x="8" y="1" width="1" height="1" fill="#000000" /><rect x="8" y="2" width="1" height="1" fill="#000000" /><rect x="8" y="3" width="1" height="1" fill="#000000" /><rect x="8" y="4" width="1" height="1" fill="#000000" /><rect x="8" y="5" width="1" height="1" fill="#000000" /><rect x="8" y="6" width="1" height="1" fill="#000000" /><rect x="8" y="7" width="1" height="1" fill="#000000" /><rect x="8" y="8" width="1" height="1" fill="#000000" /><rect x="8" y="9" width="1" height="1" fill="#000000" /><rect x="9" y="0" width="1" height="1" fill="#000000" /><rect x="9" y="1" width="1" height="1" fill="#000000" /><rect x="9" y="2" width="1" height="1" fill="#000000" /><rect x="9" y="3" width="1" height="1" fill="#000000" /><rect x="9" y="4" width="1" height="1" fill="#000000" /><rect x="9" y="5" width="1" height="1" fill="#000000" /><rect x="9" y="6" width="1" height="1" fill="#000000" /><rect x="9" y="7" width="1" height="1" fill="#000000" /><rect x="9" y="8" width="1" height="1" fill="#000000" /><rect x="9" y="9" width="1" height="1" fill="#000000" /></g></svg>