<svg width="800" height="1000" version="1.1" xmlns="http://www.w3.org/2000/svg" xmlns:xlink="http://www.w3.org/1999/xlink">
  <defs>
      <linearGradient id="Gradient2" x1="0" x2="1" y1="0" y2="1">
        <stop offset="0%" stop-color="#2d3c96"/>
        <stop offset="100%" stop-color="#d53392"/>
      </linearGradient>
  </defs>
  <rect x="10" y="10" width="780" height="980" fill="url(#Gradient2)" rx="50" ry="50" stroke="#ffd700" stroke-width="20"/>
  <text x="400" y="920" width="780" text-anchor="middle" style="font: bold 200px 'Helvetica Neue'; fill: #ffd700">00268</text>

  <g transform="translate(80 80) scale(64)">
<rect x="0" y="0" width="1" height="1" fill="#9c9c9c" />
,<rect x="0" y="1" width="1" height="1" fill="#6b6b6b" />
,<rect x="0" y="2" width="1" height="1" fill="#6a6a6a" />
,<rect x="0" y="3" width="1" height="1" fill="#6a6a6a" />
,<rect x="0" y="4" width="1" height="1" fill="#7f7f7f" />
,<rect x="0" y="5" width="1" height="1" fill="#d5d5d5" />
,<rect x="0" y="6" width="1" height="1" fill="#888888" />
,<rect x="0" y="7" width="1" height="1" fill="#000000" />
,<rect x="0" y="8" width="1" height="1" fill="#000000" />
,<rect x="0" y="9" width="1" height="1" fill="#000000" />
,<rect x="1" y="0" width="1" height="1" fill="#6a6a6a" />
,<rect x="1" y="1" width="1" height="1" fill="#6a6a6a" />
,<rect x="1" y="2" width="1" height="1" fill="#7c7c7c" />
,<rect x="1" y="3" width="1" height="1" fill="#c0c0c0" />
,<rect x="1" y="4" width="1" height="1" fill="#e2e2e2" />
,<rect x="1" y="5" width="1" height="1" fill="#5b5b5b" />
,<rect x="1" y="6" width="1" height="1" fill="#000000" />
,<rect x="1" y="7" width="1" height="1" fill="#000000" />
,<rect x="1" y="8" width="1" height="1" fill="#000000" />
,<rect x="1" y="9" width="1" height="1" fill="#000000" />
,<rect x="2" y="0" width="1" height="1" fill="#787878" />
,<rect x="2" y="1" width="1" height="1" fill="#bbbbbb" />
,<rect x="2" y="2" width="1" height="1" fill="#e5e5e5" />
,<rect x="2" y="3" width="1" height="1" fill="#6e6e6e" />
,<rect x="2" y="4" width="1" height="1" fill="#070707" />
,<rect x="2" y="5" width="1" height="1" fill="#000000" />
,<rect x="2" y="6" width="1" height="1" fill="#000000" />
,<rect x="2" y="7" width="1" height="1" fill="#000000" />
,<rect x="2" y="8" width="1" height="1" fill="#000000" />
,<rect x="2" y="9" width="1" height="1" fill="#000000" />
,<rect x="3" y="0" width="1" height="1" fill="#e7e7e7" />
,<rect x="3" y="1" width="1" height="1" fill="#777777" />
,<rect x="3" y="2" width="1" height="1" fill="#0a0a0a" />
,<rect x="3" y="3" width="1" height="1" fill="#000000" />
,<rect x="3" y="4" width="1" height="1" fill="#000000" />
,<rect x="3" y="5" width="1" height="1" fill="#000000" />
,<rect x="3" y="6" width="1" height="1" fill="#000000" />
,<rect x="3" y="7" width="1" height="1" fill="#000000" />
,<rect x="3" y="8" width="1" height="1" fill="#000000" />
,<rect x="3" y="9" width="1" height="1" fill="#000000" />
,<rect x="4" y="0" width="1" height="1" fill="#0e0e0e" />
,<rect x="4" y="1" width="1" height="1" fill="#000000" />
,<rect x="4" y="2" width="1" height="1" fill="#000000" />
,<rect x="4" y="3" width="1" height="1" fill="#000000" />
,<rect x="4" y="4" width="1" height="1" fill="#000000" />
,<rect x="4" y="5" width="1" height="1" fill="#000000" />
,<rect x="4" y="6" width="1" height="1" fill="#000000" />
,<rect x="4" y="7" width="1" height="1" fill="#000000" />
,<rect x="4" y="8" width="1" height="1" fill="#000000" />
,<rect x="4" y="9" width="1" height="1" fill="#000000" />
,<rect x="5" y="0" width="1" height="1" fill="#000000" />
,<rect x="5" y="1" width="1" height="1" fill="#000000" />
,<rect x="5" y="2" width="1" height="1" fill="#000000" />
,<rect x="5" y="3" width="1" height="1" fill="#000000" />
,<rect x="5" y="4" width="1" height="1" fill="#000000" />
,<rect x="5" y="5" width="1" height="1" fill="#000000" />
,<rect x="5" y="6" width="1" height="1" fill="#000000" />
,<rect x="5" y="7" width="1" height="1" fill="#000000" />
,<rect x="5" y="8" width="1" height="1" fill="#000000" />
,<rect x="5" y="9" width="1" height="1" fill="#050505" />
,<rect x="6" y="0" width="1" height="1" fill="#000000" />
,<rect x="6" y="1" width="1" height="1" fill="#000000" />
,<rect x="6" y="2" width="1" height="1" fill="#000000" />
,<rect x="6" y="3" width="1" height="1" fill="#000000" />
,<rect x="6" y="4" width="1" height="1" fill="#000000" />
,<rect x="6" y="5" width="1" height="1" fill="#000000" />
,<rect x="6" y="6" width="1" height="1" fill="#000000" />
,<rect x="6" y="7" width="1" height="1" fill="#000000" />
,<rect x="6" y="8" width="1" height="1" fill="#000000" />
,<rect x="6" y="9" width="1" height="1" fill="#292929" />
,<rect x="7" y="0" width="1" height="1" fill="#000000" />
,<rect x="7" y="1" width="1" height="1" fill="#000000" />
,<rect x="7" y="2" width="1" height="1" fill="#000000" />
,<rect x="7" y="3" width="1" height="1" fill="#000000" />
,<rect x="7" y="4" width="1" height="1" fill="#000000" />
,<rect x="7" y="5" width="1" height="1" fill="#000000" />
,<rect x="7" y="6" width="1" height="1" fill="#000000" />
,<rect x="7" y="7" width="1" height="1" fill="#000000" />
,<rect x="7" y="8" width="1" height="1" fill="#000000" />
,<rect x="7" y="9" width="1" height="1" fill="#8a8a8a" />
,<rect x="8" y="0" width="1" height="1" fill="#000000" />
,<rect x="8" y="1" width="1" height="1" fill="#000000" />
,<rect x="8" y="2" width="1" height="1" fill="#000000" />
,<rect x="8" y="3" width="1" height="1" fill="#000000" />
,<rect x="8" y="4" width="1" height="1" fill="#000000" />
,<rect x="8" y="5" width="1" height="1" fill="#000000" />
,<rect x="8" y="6" width="1" height="1" fill="#000000" />
,<rect x="8" y="7" width="1" height="1" fill="#000000" />
,<rect x="8" y="8" width="1" height="1" fill="#454545" />
,<rect x="8" y="9" width="1" height="1" fill="#fafafa" />
,<rect x="9" y="0" width="1" height="1" fill="#010101" />
,<rect x="9" y="1" width="1" height="1" fill="#010101" />
,<rect x="9" y="2" width="1" height="1" fill="#010101" />
,<rect x="9" y="3" width="1" height="1" fill="#010101" />
,<rect x="9" y="4" width="1" height="1" fill="#010101" />
,<rect x="9" y="5" width="1" height="1" fill="#060606" />
,<rect x="9" y="6" width="1" height="1" fill="#2b2b2b" />
,<rect x="9" y="7" width="1" height="1" fill="#8b8b8b" />
,<rect x="9" y="8" width="1" height="1" fill="#fafafa" />
,<rect x="9" y="9" width="1" height="1" fill="#ffffff" />

  </g>
</svg>