<svg width="800" height="1000" version="1.1" xmlns="http://www.w3.org/2000/svg" xmlns:xlink="http://www.w3.org/1999/xlink">
  <defs>
      <linearGradient id="Gradient2" x1="0" x2="1" y1="0" y2="1">
        <stop offset="0%" stop-color="#2d3c96"/>
        <stop offset="100%" stop-color="#d53392"/>
      </linearGradient>
  </defs>
  <rect x="10" y="10" width="780" height="980" fill="url(#Gradient2)" rx="50" ry="50" stroke="#ffd700" stroke-width="20"/>
  <text x="400" y="920" width="780" text-anchor="middle" style="font: bold 200px 'Helvetica Neue'; fill: #ffd700">00273</text>

  <g transform="translate(80 80) scale(64)">
<rect x="0" y="0" width="1" height="1" fill="#DAE4F2" /><rect x="1" y="0" width="1" height="1" fill="#3C71C0" /><rect x="2" y="0" width="1" height="1" fill="#FFFFFF" /><rect x="3" y="0" width="1" height="1" fill="#FFFFFF" /><rect x="4" y="0" width="1" height="1" fill="#DAE4F2" /><rect x="5" y="0" width="1" height="1" fill="#FFFFFF" /><rect x="6" y="0" width="1" height="1" fill="#DEEBF7" /><rect x="7" y="0" width="1" height="1" fill="#FAE6EB" /><rect x="8" y="0" width="1" height="1" fill="#CE000F" /><rect x="9" y="0" width="1" height="1" fill="#E35174" /><rect x="0" y="1" width="1" height="1" fill="#7C9FD4" /><rect x="1" y="1" width="1" height="1" fill="#A9C0E3" /><rect x="2" y="1" width="1" height="1" fill="#FFFFFF" /><rect x="3" y="1" width="1" height="1" fill="#FFFFFF" /><rect x="4" y="1" width="1" height="1" fill="#FBFCFD" /><rect x="5" y="1" width="1" height="1" fill="#FFFFFF" /><rect x="6" y="1" width="1" height="1" fill="#FFFFFF" /><rect x="7" y="1" width="1" height="1" fill="#FDE8ED" /><rect x="8" y="1" width="1" height="1" fill="#D20026" /><rect x="9" y="1" width="1" height="1" fill="#D50032" /><rect x="0" y="2" width="1" height="1" fill="#3B70BF" /><rect x="1" y="2" width="1" height="1" fill="#F4F7FB" /><rect x="2" y="2" width="1" height="1" fill="#FFFFFF" /><rect x="3" y="2" width="1" height="1" fill="#D2DFF0" /><rect x="4" y="2" width="1" height="1" fill="#98B3DD" /><rect x="5" y="2" width="1" height="1" fill="#FFFFFF" /><rect x="6" y="2" width="1" height="1" fill="#FFFFFF" /><rect x="7" y="2" width="1" height="1" fill="#FCE6EB" /><rect x="8" y="2" width="1" height="1" fill="#D10022" /><rect x="9" y="2" width="1" height="1" fill="#D60337" /><rect x="0" y="3" width="1" height="1" fill="#1F5BB6" /><rect x="1" y="3" width="1" height="1" fill="#FFFFFF" /><rect x="2" y="3" width="1" height="1" fill="#9AB4DD" /><rect x="3" y="3" width="1" height="1" fill="#0032A4" /><rect x="4" y="3" width="1" height="1" fill="#002EA2" /><rect x="5" y="3" width="1" height="1" fill="#7397D1" /><rect x="6" y="3" width="1" height="1" fill="#FFFFFF" /><rect x="7" y="3" width="1" height="1" fill="#FDEDF1" /><rect x="8" y="3" width="1" height="1" fill="#D81141" /><rect x="9" y="3" width="1" height="1" fill="#D81143" /><rect x="0" y="4" width="1" height="1" fill="#1E5AB6" /><rect x="1" y="4" width="1" height="1" fill="#FFFFFF" /><rect x="2" y="4" width="1" height="1" fill="#FFFFFF" /><rect x="3" y="4" width="1" height="1" fill="#1C59B5" /><rect x="4" y="4" width="1" height="1" fill="#0A4CAF" /><rect x="5" y="4" width="1" height="1" fill="#FFFFFF" /><rect x="6" y="4" width="1" height="1" fill="#FFFFFF" /><rect x="7" y="4" width="1" height="1" fill="#FFFFFF" /><rect x="8" y="4" width="1" height="1" fill="#FFFFFF" /><rect x="9" y="4" width="1" height="1" fill="#FFFFFF" /><rect x="0" y="5" width="1" height="1" fill="#1D5AB6" /><rect x="1" y="5" width="1" height="1" fill="#FFFFFF" /><rect x="2" y="5" width="1" height="1" fill="#F4F8FB" /><rect x="3" y="5" width="1" height="1" fill="#FCFDFE" /><rect x="4" y="5" width="1" height="1" fill="#FFFFFF" /><rect x="5" y="5" width="1" height="1" fill="#E6EDF6" /><rect x="6" y="5" width="1" height="1" fill="#FFFFFF" /><rect x="7" y="5" width="1" height="1" fill="#FFFFFF" /><rect x="8" y="5" width="1" height="1" fill="#FFFFFF" /><rect x="9" y="5" width="1" height="1" fill="#FFFFFF" /><rect x="0" y="6" width="1" height="1" fill="#205CB6" /><rect x="1" y="6" width="1" height="1" fill="#FFFFFF" /><rect x="2" y="6" width="1" height="1" fill="#FFFFFF" /><rect x="3" y="6" width="1" height="1" fill="#FFFFFF" /><rect x="4" y="6" width="1" height="1" fill="#FFFFFF" /><rect x="5" y="6" width="1" height="1" fill="#FFFFFF" /><rect x="6" y="6" width="1" height="1" fill="#FFFFFF" /><rect x="7" y="6" width="1" height="1" fill="#FFFFFF" /><rect x="8" y="6" width="1" height="1" fill="#FFFFFF" /><rect x="9" y="6" width="1" height="1" fill="#FFFFFE" /><rect x="0" y="7" width="1" height="1" fill="#3E72C0" /><rect x="1" y="7" width="1" height="1" fill="#F0F4FA" /><rect x="2" y="7" width="1" height="1" fill="#FFFFFF" /><rect x="3" y="7" width="1" height="1" fill="#FFFFFF" /><rect x="4" y="7" width="1" height="1" fill="#8FADDA" /><rect x="5" y="7" width="1" height="1" fill="#FFFFFF" /><rect x="6" y="7" width="1" height="1" fill="#FFFFFF" /><rect x="7" y="7" width="1" height="1" fill="#FFFFFF" /><rect x="8" y="7" width="1" height="1" fill="#FFFFFF" /><rect x="9" y="7" width="1" height="1" fill="#DC2853" /><rect x="0" y="8" width="1" height="1" fill="#81A3D6" /><rect x="1" y="8" width="1" height="1" fill="#A6BEE2" /><rect x="2" y="8" width="1" height="1" fill="#F6F9FC" /><rect x="3" y="8" width="1" height="1" fill="#5785C8" /><rect x="4" y="8" width="1" height="1" fill="#0038A7" /><rect x="5" y="8" width="1" height="1" fill="#5282C7" /><rect x="6" y="8" width="1" height="1" fill="#E1E9F5" /><rect x="7" y="8" width="1" height="1" fill="#FFFFFF" /><rect x="8" y="8" width="1" height="1" fill="#F5C2CE" /><rect x="9" y="8" width="1" height="1" fill="#D20024" /><rect x="0" y="9" width="1" height="1" fill="#E0E8F5" /><rect x="1" y="9" width="1" height="1" fill="#346BBD" /><rect x="2" y="9" width="1" height="1" fill="#FFFFFF" /><rect x="3" y="9" width="1" height="1" fill="#AAC0E3" /><rect x="4" y="9" width="1" height="1" fill="#001999" /><rect x="5" y="9" width="1" height="1" fill="#8AA9D9" /><rect x="6" y="9" width="1" height="1" fill="#FFFFFF" /><rect x="7" y="9" width="1" height="1" fill="#FFFFFF" /><rect x="8" y="9" width="1" height="1" fill="#DF3C64" /><rect x="9" y="9" width="1" height="1" fill="#D20027" />
  </g>
</svg>