<svg width="800" height="1000" xmlns="http://www.w3.org/2000/svg"><defs><linearGradient id="g" x1="0" x2="1" y1="0" y2="1"><stop offset="0%" stop-color="#2d3c96"/><stop offset="100%" stop-color="#d53392"/></linearGradient></defs><rect x="10" y="10" width="780" height="980" fill="url(#g)" rx="50" ry="50" stroke="gold" stroke-width="20"/><text x="400" y="920" width="780" text-anchor="middle" style="font:bold 200px 'Helvetica Neue';fill:gold">00274</text><g transform="translate(80 80) scale(64)"><rect x="0" y="0" width="1" height="1" fill="#f8d5dd" /><rect x="0" y="1" width="1" height="1" fill="#d30028" /><rect x="0" y="2" width="1" height="1" fill="#d50135" /><rect x="0" y="3" width="1" height="1" fill="#dc2652" /><rect x="0" y="4" width="1" height="1" fill="#ffffff" /><rect x="0" y="5" width="1" height="1" fill="#f8d1da" /><rect x="0" y="6" width="1" height="1" fill="#d20026" /><rect x="0" y="7" width="1" height="1" fill="#d50033" /><rect x="0" y="8" width="1" height="1" fill="#d7073b" /><rect x="0" y="9" width="1" height="1" fill="#d4002d" /><rect x="1" y="0" width="1" height="1" fill="#ffffff" /><rect x="1" y="1" width="1" height="1" fill="#d20024" /><rect x="1" y="2" width="1" height="1" fill="#d40031" /><rect x="1" y="3" width="1" height="1" fill="#e8718e" /><rect x="1" y="4" width="1" height="1" fill="#f9d9e0" /><rect x="1" y="5" width="1" height="1" fill="#d1001d" /><rect x="1" y="6" width="1" height="1" fill="#d40030" /><rect x="1" y="7" width="1" height="1" fill="#d4002c" /><rect x="1" y="8" width="1" height="1" fill="#d30029" /><rect x="1" y="9" width="1" height="1" fill="#d0001d" /><rect x="2" y="0" width="1" height="1" fill="#ffffff" /><rect x="2" y="1" width="1" height="1" fill="#d20025" /><rect x="2" y="2" width="1" height="1" fill="#d20026" /><rect x="2" y="3" width="1" height="1" fill="#f7cad4" /><rect x="2" y="4" width="1" height="1" fill="#d0001d" /><rect x="2" y="5" width="1" height="1" fill="#d20025" /><rect x="2" y="6" width="1" height="1" fill="#e35174" /><rect x="2" y="7" width="1" height="1" fill="#ef9fb2" /><rect x="2" y="8" width="1" height="1" fill="#f7ccd5" /><rect x="2" y="9" width="1" height="1" fill="#fadae2" /><rect x="3" y="0" width="1" height="1" fill="#fceef1" /><rect x="3" y="1" width="1" height="1" fill="#d0001c" /><rect x="3" y="2" width="1" height="1" fill="#e45a7b" /><rect x="3" y="3" width="1" height="1" fill="#d5002e" /><rect x="3" y="4" width="1" height="1" fill="#e85576" /><rect x="3" y="5" width="1" height="1" fill="#ffffff" /><rect x="3" y="6" width="1" height="1" fill="#ffffff" /><rect x="3" y="7" width="1" height="1" fill="#ffffff" /><rect x="3" y="8" width="1" height="1" fill="#ffffff" /><rect x="3" y="9" width="1" height="1" fill="#ffffff" /><rect x="4" y="0" width="1" height="1" fill="#e76887" /><rect x="4" y="1" width="1" height="1" fill="#e01e4a" /><rect x="4" y="2" width="1" height="1" fill="#f3395b" /><rect x="4" y="3" width="1" height="1" fill="#ffdada" /><rect x="4" y="4" width="1" height="1" fill="#eeffff" /><rect x="4" y="5" width="1" height="1" fill="#d9e6f4" /><rect x="4" y="6" width="1" height="1" fill="#e4eaf5" /><rect x="4" y="7" width="1" height="1" fill="#ffffff" /><rect x="4" y="8" width="1" height="1" fill="#ffffff" /><rect x="4" y="9" width="1" height="1" fill="#ffffff" /><rect x="5" y="0" width="1" height="1" fill="#e70e3a" /><rect x="5" y="1" width="1" height="1" fill="#d899b4" /><rect x="5" y="2" width="1" height="1" fill="#3f88d3" /><rect x="5" y="3" width="1" height="1" fill="#0039aa" /><rect x="5" y="4" width="1" height="1" fill="#0031a4" /><rect x="5" y="5" width="1" height="1" fill="#0033a4" /><rect x="5" y="6" width="1" height="1" fill="#0032a4" /><rect x="5" y="7" width="1" height="1" fill="#002da1" /><rect x="5" y="8" width="1" height="1" fill="#2e67bb" /><rect x="5" y="9" width="1" height="1" fill="#e3eaf6" /><rect x="6" y="0" width="1" height="1" fill="#bde4fb" /><rect x="6" y="1" width="1" height="1" fill="#0034a9" /><rect x="6" y="2" width="1" height="1" fill="#003faa" /><rect x="6" y="3" width="1" height="1" fill="#0044ac" /><rect x="6" y="4" width="1" height="1" fill="#0044ac" /><rect x="6" y="5" width="1" height="1" fill="#0046ad" /><rect x="6" y="6" width="1" height="1" fill="#0045ac" /><rect x="6" y="7" width="1" height="1" fill="#0044ac" /><rect x="6" y="8" width="1" height="1" fill="#003ea9" /><rect x="6" y="9" width="1" height="1" fill="#0029a0" /><rect x="7" y="0" width="1" height="1" fill="#002ca1" /><rect x="7" y="1" width="1" height="1" fill="#0034a5" /><rect x="7" y="2" width="1" height="1" fill="#0030a3" /><rect x="7" y="3" width="1" height="1" fill="#003fa9" /><rect x="7" y="4" width="1" height="1" fill="#0d4fb1" /><rect x="7" y="5" width="1" height="1" fill="#0034a5" /><rect x="7" y="6" width="1" height="1" fill="#0034a5" /><rect x="7" y="7" width="1" height="1" fill="#0039a6" /><rect x="7" y="8" width="1" height="1" fill="#0037a6" /><rect x="7" y="9" width="1" height="1" fill="#002ea2" /><rect x="8" y="0" width="1" height="1" fill="#003ea9" /><rect x="8" y="1" width="1" height="1" fill="#d1ddf0" /><rect x="8" y="2" width="1" height="1" fill="#ffffff" /><rect x="8" y="3" width="1" height="1" fill="#ffffff" /><rect x="8" y="4" width="1" height="1" fill="#0036a5" /><rect x="8" y="5" width="1" height="1" fill="#d2def0" /><rect x="8" y="6" width="1" height="1" fill="#ffffff" /><rect x="8" y="7" width="1" height="1" fill="#ffffff" /><rect x="8" y="8" width="1" height="1" fill="#ffffff" /><rect x="8" y="9" width="1" height="1" fill="#eff3f9" /><rect x="9" y="0" width="1" height="1" fill="#2d66bb" /><rect x="9" y="1" width="1" height="1" fill="#cddaee" /><rect x="9" y="2" width="1" height="1" fill="#ffffff" /><rect x="9" y="3" width="1" height="1" fill="#a1bae0" /><rect x="9" y="4" width="1" height="1" fill="#002ca1" /><rect x="9" y="5" width="1" height="1" fill="#7197d0" /><rect x="9" y="6" width="1" height="1" fill="#cad7ed" /><rect x="9" y="7" width="1" height="1" fill="#cdd9ee" /><rect x="9" y="8" width="1" height="1" fill="#c2d2eb" /><rect x="9" y="9" width="1" height="1" fill="#618ccb" /></g></svg>