<svg width="800" height="1000" xmlns="http://www.w3.org/2000/svg"><defs><linearGradient id="g" x1="0" x2="1" y1="0" y2="1"><stop offset="0%" stop-color="#2d3c96"/><stop offset="100%" stop-color="#d53392"/></linearGradient></defs><rect x="10" y="10" width="780" height="980" fill="url(#g)" rx="50" ry="50" stroke="gold" stroke-width="20"/><text x="400" y="920" width="780" text-anchor="middle" style="font:bold 200px 'Helvetica Neue';fill:gold">00304</text><g transform="translate(80 80) scale(64)"><rect x="0" y="0" width="1" height="1" fill="#482f83" /><rect x="0" y="1" width="1" height="1" fill="#43297d" /><rect x="0" y="2" width="1" height="1" fill="#43287c" /><rect x="0" y="3" width="1" height="1" fill="#4a2e81" /><rect x="0" y="4" width="1" height="1" fill="#482d7d" /><rect x="0" y="5" width="1" height="1" fill="#4e3382" /><rect x="0" y="6" width="1" height="1" fill="#432877" /><rect x="0" y="7" width="1" height="1" fill="#4a2f7e" /><rect x="0" y="8" width="1" height="1" fill="#4c2f7f" /><rect x="0" y="9" width="1" height="1" fill="#4f3282" /><rect x="1" y="0" width="1" height="1" fill="#513b7c" /><rect x="1" y="1" width="1" height="1" fill="#675091" /><rect x="1" y="2" width="1" height="1" fill="#614a8a" /><rect x="1" y="3" width="1" height="1" fill="#624b8a" /><rect x="1" y="4" width="1" height="1" fill="#5d4684" /><rect x="1" y="5" width="1" height="1" fill="#5e4785" /><rect x="1" y="6" width="1" height="1" fill="#5f4886" /><rect x="1" y="7" width="1" height="1" fill="#634a8a" /><rect x="1" y="8" width="1" height="1" fill="#5d4485" /><rect x="1" y="9" width="1" height="1" fill="#482f70" /><rect x="2" y="0" width="1" height="1" fill="#ab9bb5" /><rect x="2" y="1" width="1" height="1" fill="#e8d8f2" /><rect x="2" y="2" width="1" height="1" fill="#e9d8f3" /><rect x="2" y="3" width="1" height="1" fill="#eddcf7" /><rect x="2" y="4" width="1" height="1" fill="#eddcf7" /><rect x="2" y="5" width="1" height="1" fill="#ebdaf6" /><rect x="2" y="6" width="1" height="1" fill="#f0defc" /><rect x="2" y="7" width="1" height="1" fill="#e9d7f7" /><rect x="2" y="8" width="1" height="1" fill="#ecd9fd" /><rect x="2" y="9" width="1" height="1" fill="#5a476c" /><rect x="3" y="0" width="1" height="1" fill="#b0a0b9" /><rect x="3" y="1" width="1" height="1" fill="#f7e7ff" /><rect x="3" y="2" width="1" height="1" fill="#fcecff" /><rect x="3" y="3" width="1" height="1" fill="#fbebff" /><rect x="3" y="4" width="1" height="1" fill="#feefff" /><rect x="3" y="5" width="1" height="1" fill="#fbecff" /><rect x="3" y="6" width="1" height="1" fill="#faebff" /><rect x="3" y="7" width="1" height="1" fill="#ffefff" /><rect x="3" y="8" width="1" height="1" fill="#fff3ff" /><rect x="3" y="9" width="1" height="1" fill="#4f3f5b" /><rect x="4" y="0" width="1" height="1" fill="#715c98" /><rect x="4" y="1" width="1" height="1" fill="#9883be" /><rect x="4" y="2" width="1" height="1" fill="#9a85be" /><rect x="4" y="3" width="1" height="1" fill="#9581b7" /><rect x="4" y="4" width="1" height="1" fill="#9884b7" /><rect x="4" y="5" width="1" height="1" fill="#9784b3" /><rect x="4" y="6" width="1" height="1" fill="#a18eba" /><rect x="4" y="7" width="1" height="1" fill="#dfcdf6" /><rect x="4" y="8" width="1" height="1" fill="#fbe9ff" /><rect x="4" y="9" width="1" height="1" fill="#524066" /><rect x="5" y="0" width="1" height="1" fill="#4a3081" /><rect x="5" y="1" width="1" height="1" fill="#4b3181" /><rect x="5" y="2" width="1" height="1" fill="#4b317e" /><rect x="5" y="3" width="1" height="1" fill="#462d76" /><rect x="5" y="4" width="1" height="1" fill="#472f73" /><rect x="5" y="5" width="1" height="1" fill="#402968" /><rect x="5" y="6" width="1" height="1" fill="#553f78" /><rect x="5" y="7" width="1" height="1" fill="#c8b3e7" /><rect x="5" y="8" width="1" height="1" fill="#fce7ff" /><rect x="5" y="9" width="1" height="1" fill="#584472" /><rect x="6" y="0" width="1" height="1" fill="#4c2d83" /><rect x="6" y="1" width="1" height="1" fill="#45267b" /><rect x="6" y="2" width="1" height="1" fill="#492b7d" /><rect x="6" y="3" width="1" height="1" fill="#492c7c" /><rect x="6" y="4" width="1" height="1" fill="#4e327e" /><rect x="6" y="5" width="1" height="1" fill="#472d74" /><rect x="6" y="6" width="1" height="1" fill="#573e7f" /><rect x="6" y="7" width="1" height="1" fill="#cdb5f1" /><rect x="6" y="8" width="1" height="1" fill="#ffefff" /><rect x="6" y="9" width="1" height="1" fill="#513b71" /><rect x="7" y="0" width="1" height="1" fill="#4e2c85" /><rect x="7" y="1" width="1" height="1" fill="#4f2d85" /><rect x="7" y="2" width="1" height="1" fill="#4e2d84" /><rect x="7" y="3" width="1" height="1" fill="#49297d" /><rect x="7" y="4" width="1" height="1" fill="#4f2f81" /><rect x="7" y="5" width="1" height="1" fill="#4a2c7b" /><rect x="7" y="6" width="1" height="1" fill="#4d307a" /><rect x="7" y="7" width="1" height="1" fill="#a88bd3" /><rect x="7" y="8" width="1" height="1" fill="#c5aaee" /><rect x="7" y="9" width="1" height="1" fill="#53397b" /><rect x="8" y="0" width="1" height="1" fill="#4f2a84" /><rect x="8" y="1" width="1" height="1" fill="#4e2983" /><rect x="8" y="2" width="1" height="1" fill="#4d2982" /><rect x="8" y="3" width="1" height="1" fill="#4d2982" /><rect x="8" y="4" width="1" height="1" fill="#4d2b82" /><rect x="8" y="5" width="1" height="1" fill="#4d2b81" /><rect x="8" y="6" width="1" height="1" fill="#4e2c81" /><rect x="8" y="7" width="1" height="1" fill="#4f2d82" /><rect x="8" y="8" width="1" height="1" fill="#523285" /><rect x="8" y="9" width="1" height="1" fill="#503083" /><rect x="9" y="0" width="1" height="1" fill="#502984" /><rect x="9" y="1" width="1" height="1" fill="#4f2984" /><rect x="9" y="2" width="1" height="1" fill="#4e2983" /><rect x="9" y="3" width="1" height="1" fill="#4d2983" /><rect x="9" y="4" width="1" height="1" fill="#4e2a84" /><rect x="9" y="5" width="1" height="1" fill="#4e2a84" /><rect x="9" y="6" width="1" height="1" fill="#4f2b85" /><rect x="9" y="7" width="1" height="1" fill="#4f2b86" /><rect x="9" y="8" width="1" height="1" fill="#512e89" /><rect x="9" y="9" width="1" height="1" fill="#4f2c88" /></g></svg>