<svg width="800" height="1000" version="1.1" xmlns="http://www.w3.org/2000/svg" xmlns:xlink="http://www.w3.org/1999/xlink">
  <defs>
      <linearGradient id="Gradient2" x1="0" x2="1" y1="0" y2="1">
        <stop offset="0%" stop-color="#2d3c96"/>
        <stop offset="100%" stop-color="#d53392"/>
      </linearGradient>
  </defs>
  <rect x="10" y="10" width="780" height="980" fill="url(#Gradient2)" rx="50" ry="50" stroke="#ffd700" stroke-width="20"/>
  <text x="400" y="920" width="780" text-anchor="middle" style="font: bold 200px 'Helvetica Neue'; fill: #ffd700">00333</text>

  <g transform="translate(80 80) scale(64)">
<rect x="0" y="0" width="1" height="1" fill="#34373b" />
,<rect x="0" y="1" width="1" height="1" fill="#39302b" />
,<rect x="0" y="2" width="1" height="1" fill="#332921" />
,<rect x="0" y="3" width="1" height="1" fill="#2e241b" />
,<rect x="0" y="4" width="1" height="1" fill="#1f160f" />
,<rect x="0" y="5" width="1" height="1" fill="#150c07" />
,<rect x="0" y="6" width="1" height="1" fill="#231810" />
,<rect x="0" y="7" width="1" height="1" fill="#423522" />
,<rect x="0" y="8" width="1" height="1" fill="#866a3d" />
,<rect x="0" y="9" width="1" height="1" fill="#775b30" />
,<rect x="1" y="0" width="1" height="1" fill="#332d2b" />
,<rect x="1" y="1" width="1" height="1" fill="#372d28" />
,<rect x="1" y="2" width="1" height="1" fill="#322a23" />
,<rect x="1" y="3" width="1" height="1" fill="#241d16" />
,<rect x="1" y="4" width="1" height="1" fill="#393025" />
,<rect x="1" y="5" width="1" height="1" fill="#77674d" />
,<rect x="1" y="6" width="1" height="1" fill="#a58c60" />
,<rect x="1" y="7" width="1" height="1" fill="#b08c4b" />
,<rect x="1" y="8" width="1" height="1" fill="#957235" />
,<rect x="1" y="9" width="1" height="1" fill="#71552e" />
,<rect x="2" y="0" width="1" height="1" fill="#2c2624" />
,<rect x="2" y="1" width="1" height="1" fill="#322b25" />
,<rect x="2" y="2" width="1" height="1" fill="#2f241e" />
,<rect x="2" y="3" width="1" height="1" fill="#251f18" />
,<rect x="2" y="4" width="1" height="1" fill="#a19074" />
,<rect x="2" y="5" width="1" height="1" fill="#baa072" />
,<rect x="2" y="6" width="1" height="1" fill="#745e3c" />
,<rect x="2" y="7" width="1" height="1" fill="#42321a" />
,<rect x="2" y="8" width="1" height="1" fill="#49371c" />
,<rect x="2" y="9" width="1" height="1" fill="#110d08" />
,<rect x="3" y="0" width="1" height="1" fill="#5d574b" />
,<rect x="3" y="1" width="1" height="1" fill="#27211d" />
,<rect x="3" y="2" width="1" height="1" fill="#1b1513" />
,<rect x="3" y="3" width="1" height="1" fill="#28211c" />
,<rect x="3" y="4" width="1" height="1" fill="#af9874" />
,<rect x="3" y="5" width="1" height="1" fill="#87734f" />
,<rect x="3" y="6" width="1" height="1" fill="#150d09" />
,<rect x="3" y="7" width="1" height="1" fill="#130c0b" />
,<rect x="3" y="8" width="1" height="1" fill="#16110f" />
,<rect x="3" y="9" width="1" height="1" fill="#0d0b06" />
,<rect x="4" y="0" width="1" height="1" fill="#5c5442" />
,<rect x="4" y="1" width="1" height="1" fill="#16110f" />
,<rect x="4" y="2" width="1" height="1" fill="#363127" />
,<rect x="4" y="3" width="1" height="1" fill="#6a5e48" />
,<rect x="4" y="4" width="1" height="1" fill="#b7976e" />
,<rect x="4" y="5" width="1" height="1" fill="#8b684d" />
,<rect x="4" y="6" width="1" height="1" fill="#271e14" />
,<rect x="4" y="7" width="1" height="1" fill="#1e150e" />
,<rect x="4" y="8" width="1" height="1" fill="#120d08" />
,<rect x="4" y="9" width="1" height="1" fill="#110d0a" />
,<rect x="5" y="0" width="1" height="1" fill="#83725b" />
,<rect x="5" y="1" width="1" height="1" fill="#786851" />
,<rect x="5" y="2" width="1" height="1" fill="#bba782" />
,<rect x="5" y="3" width="1" height="1" fill="#baa47f" />
,<rect x="5" y="4" width="1" height="1" fill="#bfa581" />
,<rect x="5" y="5" width="1" height="1" fill="#78624a" />
,<rect x="5" y="6" width="1" height="1" fill="#21190e" />
,<rect x="5" y="7" width="1" height="1" fill="#221810" />
,<rect x="5" y="8" width="1" height="1" fill="#19100c" />
,<rect x="5" y="9" width="1" height="1" fill="#0e0b0a" />
,<rect x="6" y="0" width="1" height="1" fill="#9a896c" />
,<rect x="6" y="1" width="1" height="1" fill="#8e7f62" />
,<rect x="6" y="2" width="1" height="1" fill="#b9a786" />
,<rect x="6" y="3" width="1" height="1" fill="#c5b18f" />
,<rect x="6" y="4" width="1" height="1" fill="#cbb38a" />
,<rect x="6" y="5" width="1" height="1" fill="#8c7d5e" />
,<rect x="6" y="6" width="1" height="1" fill="#231811" />
,<rect x="6" y="7" width="1" height="1" fill="#1d140d" />
,<rect x="6" y="8" width="1" height="1" fill="#0a0505" />
,<rect x="6" y="9" width="1" height="1" fill="#312112" />
,<rect x="7" y="0" width="1" height="1" fill="#4e4433" />
,<rect x="7" y="1" width="1" height="1" fill="#221a15" />
,<rect x="7" y="2" width="1" height="1" fill="#3b3329" />
,<rect x="7" y="3" width="1" height="1" fill="#5d5443" />
,<rect x="7" y="4" width="1" height="1" fill="#aa9268" />
,<rect x="7" y="5" width="1" height="1" fill="#b99c68" />
,<rect x="7" y="6" width="1" height="1" fill="#4f3e28" />
,<rect x="7" y="7" width="1" height="1" fill="#0d0401" />
,<rect x="7" y="8" width="1" height="1" fill="#3d2e1b" />
,<rect x="7" y="9" width="1" height="1" fill="#41311d" />
,<rect x="8" y="0" width="1" height="1" fill="#5a5340" />
,<rect x="8" y="1" width="1" height="1" fill="#42392a" />
,<rect x="8" y="2" width="1" height="1" fill="#231910" />
,<rect x="8" y="3" width="1" height="1" fill="#140e06" />
,<rect x="8" y="4" width="1" height="1" fill="#706147" />
,<rect x="8" y="5" width="1" height="1" fill="#c1a36c" />
,<rect x="8" y="6" width="1" height="1" fill="#9d8352" />
,<rect x="8" y="7" width="1" height="1" fill="#876d3d" />
,<rect x="8" y="8" width="1" height="1" fill="#aa8a51" />
,<rect x="8" y="9" width="1" height="1" fill="#8b7651" />
,<rect x="9" y="0" width="1" height="1" fill="#443b2e" />
,<rect x="9" y="1" width="1" height="1" fill="#3d3022" />
,<rect x="9" y="2" width="1" height="1" fill="#382c1e" />
,<rect x="9" y="3" width="1" height="1" fill="#291e14" />
,<rect x="9" y="4" width="1" height="1" fill="#4b402f" />
,<rect x="9" y="5" width="1" height="1" fill="#a19170" />
,<rect x="9" y="6" width="1" height="1" fill="#998869" />
,<rect x="9" y="7" width="1" height="1" fill="#897956" />
,<rect x="9" y="8" width="1" height="1" fill="#82704f" />
,<rect x="9" y="9" width="1" height="1" fill="#716143" />

  </g>
</svg>