<svg width="800" height="1000" version="1.1" xmlns="http://www.w3.org/2000/svg" xmlns:xlink="http://www.w3.org/1999/xlink">
  <defs>
      <linearGradient id="Gradient2" x1="0" x2="1" y1="0" y2="1">
        <stop offset="0%" stop-color="#2d3c96"/>
        <stop offset="100%" stop-color="#d53392"/>
      </linearGradient>
  </defs>
  <rect x="10" y="10" width="780" height="980" fill="url(#Gradient2)" rx="50" ry="50" stroke="#ffd700" stroke-width="20"/>
  <text x="400" y="920" width="780" text-anchor="middle" style="font: bold 200px 'Helvetica Neue'; fill: #ffd700">00373</text>

  <g transform="translate(80 80) scale(64)">
<rect x="0" y="0" width="1" height="1" fill="#ffffff" />
,<rect x="0" y="1" width="1" height="1" fill="#ffffff" />
,<rect x="0" y="2" width="1" height="1" fill="#ffffff" />
,<rect x="0" y="3" width="1" height="1" fill="#ffffff" />
,<rect x="0" y="4" width="1" height="1" fill="#ffffff" />
,<rect x="0" y="5" width="1" height="1" fill="#ffffff" />
,<rect x="0" y="6" width="1" height="1" fill="#ffffff" />
,<rect x="0" y="7" width="1" height="1" fill="#ffffff" />
,<rect x="0" y="8" width="1" height="1" fill="#ffffff" />
,<rect x="0" y="9" width="1" height="1" fill="#ffffff" />
,<rect x="1" y="0" width="1" height="1" fill="#003fa9" />
,<rect x="1" y="1" width="1" height="1" fill="#96b3dd" />
,<rect x="1" y="2" width="1" height="1" fill="#ffffff" />
,<rect x="1" y="3" width="1" height="1" fill="#ffffff" />
,<rect x="1" y="4" width="1" height="1" fill="#ffffff" />
,<rect x="1" y="5" width="1" height="1" fill="#ffffff" />
,<rect x="1" y="6" width="1" height="1" fill="#ffffff" />
,<rect x="1" y="7" width="1" height="1" fill="#ffffff" />
,<rect x="1" y="8" width="1" height="1" fill="#ffffff" />
,<rect x="1" y="9" width="1" height="1" fill="#ffffff" />
,<rect x="2" y="0" width="1" height="1" fill="#ffffff" />
,<rect x="2" y="1" width="1" height="1" fill="#668fcd" />
,<rect x="2" y="2" width="1" height="1" fill="#0039a7" />
,<rect x="2" y="3" width="1" height="1" fill="#dbe5f3" />
,<rect x="2" y="4" width="1" height="1" fill="#ffffff" />
,<rect x="2" y="5" width="1" height="1" fill="#ffffff" />
,<rect x="2" y="6" width="1" height="1" fill="#ffffff" />
,<rect x="2" y="7" width="1" height="1" fill="#ffffff" />
,<rect x="2" y="8" width="1" height="1" fill="#ffffff" />
,<rect x="2" y="9" width="1" height="1" fill="#ffffff" />
,<rect x="3" y="0" width="1" height="1" fill="#a6bee2" />
,<rect x="3" y="1" width="1" height="1" fill="#ffffff" />
,<rect x="3" y="2" width="1" height="1" fill="#fefffe" />
,<rect x="3" y="3" width="1" height="1" fill="#0044ab" />
,<rect x="3" y="4" width="1" height="1" fill="#85a6d7" />
,<rect x="3" y="5" width="1" height="1" fill="#ffffff" />
,<rect x="3" y="6" width="1" height="1" fill="#ffffff" />
,<rect x="3" y="7" width="1" height="1" fill="#ffffff" />
,<rect x="3" y="8" width="1" height="1" fill="#ffffff" />
,<rect x="3" y="9" width="1" height="1" fill="#ffffff" />
,<rect x="4" y="0" width="1" height="1" fill="#ffffff" />
,<rect x="4" y="1" width="1" height="1" fill="#ffffff" />
,<rect x="4" y="2" width="1" height="1" fill="#ffffff" />
,<rect x="4" y="3" width="1" height="1" fill="#ffffff" />
,<rect x="4" y="4" width="1" height="1" fill="#366cbd" />
,<rect x="4" y="5" width="1" height="1" fill="#618ccb" />
,<rect x="4" y="6" width="1" height="1" fill="#ffffff" />
,<rect x="4" y="7" width="1" height="1" fill="#ffffff" />
,<rect x="4" y="8" width="1" height="1" fill="#ffffff" />
,<rect x="4" y="9" width="1" height="1" fill="#ffffff" />
,<rect x="5" y="0" width="1" height="1" fill="#9eb8df" />
,<rect x="5" y="1" width="1" height="1" fill="#ffffff" />
,<rect x="5" y="2" width="1" height="1" fill="#e5ebf6" />
,<rect x="5" y="3" width="1" height="1" fill="#ffffff" />
,<rect x="5" y="4" width="1" height="1" fill="#ffffff" />
,<rect x="5" y="5" width="1" height="1" fill="#356bbd" />
,<rect x="5" y="6" width="1" height="1" fill="#87a7d8" />
,<rect x="5" y="7" width="1" height="1" fill="#ffffff" />
,<rect x="5" y="8" width="1" height="1" fill="#ffffff" />
,<rect x="5" y="9" width="1" height="1" fill="#ffffff" />
,<rect x="6" y="0" width="1" height="1" fill="#ffffff" />
,<rect x="6" y="1" width="1" height="1" fill="#ffffff" />
,<rect x="6" y="2" width="1" height="1" fill="#d7e0f1" />
,<rect x="6" y="3" width="1" height="1" fill="#4e7ec5" />
,<rect x="6" y="4" width="1" height="1" fill="#7fa1d5" />
,<rect x="6" y="5" width="1" height="1" fill="#ffffff" />
,<rect x="6" y="6" width="1" height="1" fill="#0042ab" />
,<rect x="6" y="7" width="1" height="1" fill="#dfe7f4" />
,<rect x="6" y="8" width="1" height="1" fill="#ffffff" />
,<rect x="6" y="9" width="1" height="1" fill="#ffffff" />
,<rect x="7" y="0" width="1" height="1" fill="#ffffff" />
,<rect x="7" y="1" width="1" height="1" fill="#d9e3f3" />
,<rect x="7" y="2" width="1" height="1" fill="#0d4fb0" />
,<rect x="7" y="3" width="1" height="1" fill="#00219c" />
,<rect x="7" y="4" width="1" height="1" fill="#91afdb" />
,<rect x="7" y="5" width="1" height="1" fill="#ffffff" />
,<rect x="7" y="6" width="1" height="1" fill="#fbfcfd" />
,<rect x="7" y="7" width="1" height="1" fill="#003ba8" />
,<rect x="7" y="8" width="1" height="1" fill="#ffffff" />
,<rect x="7" y="9" width="1" height="1" fill="#ffffff" />
,<rect x="8" y="0" width="1" height="1" fill="#da1948" />
,<rect x="8" y="1" width="1" height="1" fill="#ffffff" />
,<rect x="8" y="2" width="1" height="1" fill="#d7e1f1" />
,<rect x="8" y="3" width="1" height="1" fill="#4d7ec5" />
,<rect x="8" y="4" width="1" height="1" fill="#7d9fd4" />
,<rect x="8" y="5" width="1" height="1" fill="#ffffff" />
,<rect x="8" y="6" width="1" height="1" fill="#ffffff" />
,<rect x="8" y="7" width="1" height="1" fill="#5f8aca" />
,<rect x="8" y="8" width="1" height="1" fill="#9eb8df" />
,<rect x="8" y="9" width="1" height="1" fill="#ffffff" />
,<rect x="9" y="0" width="1" height="1" fill="#ec89a1" />
,<rect x="9" y="1" width="1" height="1" fill="#ffffff" />
,<rect x="9" y="2" width="1" height="1" fill="#e5ebf6" />
,<rect x="9" y="3" width="1" height="1" fill="#ffffff" />
,<rect x="9" y="4" width="1" height="1" fill="#ffffff" />
,<rect x="9" y="5" width="1" height="1" fill="#ffffff" />
,<rect x="9" y="6" width="1" height="1" fill="#ffffff" />
,<rect x="9" y="7" width="1" height="1" fill="#ffffff" />
,<rect x="9" y="8" width="1" height="1" fill="#0042ab" />
,<rect x="9" y="9" width="1" height="1" fill="#ffffff" />

  </g>
</svg>