<svg width="800" height="1000" version="1.1" xmlns="http://www.w3.org/2000/svg" xmlns:xlink="http://www.w3.org/1999/xlink">
  <defs>
      <linearGradient id="Gradient2" x1="0" x2="1" y1="0" y2="1">
        <stop offset="0%" stop-color="#2d3c96"/>
        <stop offset="100%" stop-color="#d53392"/>
      </linearGradient>
  </defs>
  <rect x="10" y="10" width="780" height="980" fill="url(#Gradient2)" rx="50" ry="50" stroke="#ffd700" stroke-width="20"/>
  <text x="400" y="920" width="780" text-anchor="middle" style="font: bold 200px 'Helvetica Neue'; fill: #ffd700">00374</text>

  <g transform="translate(80 80) scale(64)">
<rect x="0" y="0" width="1" height="1" fill="#ef9fb2" />
,<rect x="0" y="1" width="1" height="1" fill="#ffffff" />
,<rect x="0" y="2" width="1" height="1" fill="#ffffff" />
,<rect x="0" y="3" width="1" height="1" fill="#ffffff" />
,<rect x="0" y="4" width="1" height="1" fill="#ffffff" />
,<rect x="0" y="5" width="1" height="1" fill="#adc4e4" />
,<rect x="0" y="6" width="1" height="1" fill="#ffffff" />
,<rect x="0" y="7" width="1" height="1" fill="#ffffff" />
,<rect x="0" y="8" width="1" height="1" fill="#2a64ba" />
,<rect x="0" y="9" width="1" height="1" fill="#e9eff7" />
,<rect x="1" y="0" width="1" height="1" fill="#e45a7c" />
,<rect x="1" y="1" width="1" height="1" fill="#ffffff" />
,<rect x="1" y="2" width="1" height="1" fill="#ffffff" />
,<rect x="1" y="3" width="1" height="1" fill="#ffffff" />
,<rect x="1" y="4" width="1" height="1" fill="#ffffff" />
,<rect x="1" y="5" width="1" height="1" fill="#5c89ca" />
,<rect x="1" y="6" width="1" height="1" fill="#1051b2" />
,<rect x="1" y="7" width="1" height="1" fill="#89a7d8" />
,<rect x="1" y="8" width="1" height="1" fill="#a7bee2" />
,<rect x="1" y="9" width="1" height="1" fill="#8aaad9" />
,<rect x="2" y="0" width="1" height="1" fill="#f7d0d8" />
,<rect x="2" y="1" width="1" height="1" fill="#ffffff" />
,<rect x="2" y="2" width="1" height="1" fill="#ffffff" />
,<rect x="2" y="3" width="1" height="1" fill="#ffffff" />
,<rect x="2" y="4" width="1" height="1" fill="#bdcee9" />
,<rect x="2" y="5" width="1" height="1" fill="#2862b9" />
,<rect x="2" y="6" width="1" height="1" fill="#001b99" />
,<rect x="2" y="7" width="1" height="1" fill="#bdcfe9" />
,<rect x="2" y="8" width="1" height="1" fill="#eff3f9" />
,<rect x="2" y="9" width="1" height="1" fill="#4879c3" />
,<rect x="3" y="0" width="1" height="1" fill="#ffffff" />
,<rect x="3" y="1" width="1" height="1" fill="#ffffff" />
,<rect x="3" y="2" width="1" height="1" fill="#ffffff" />
,<rect x="3" y="3" width="1" height="1" fill="#ffffff" />
,<rect x="3" y="4" width="1" height="1" fill="#ffffff" />
,<rect x="3" y="5" width="1" height="1" fill="#8aaad9" />
,<rect x="3" y="6" width="1" height="1" fill="#fefefe" />
,<rect x="3" y="7" width="1" height="1" fill="#cedbef" />
,<rect x="3" y="8" width="1" height="1" fill="#ffffff" />
,<rect x="3" y="9" width="1" height="1" fill="#2560b8" />
,<rect x="4" y="0" width="1" height="1" fill="#ffffff" />
,<rect x="4" y="1" width="1" height="1" fill="#ffffff" />
,<rect x="4" y="2" width="1" height="1" fill="#ffffff" />
,<rect x="4" y="3" width="1" height="1" fill="#ffffff" />
,<rect x="4" y="4" width="1" height="1" fill="#ffffff" />
,<rect x="4" y="5" width="1" height="1" fill="#ffffff" />
,<rect x="4" y="6" width="1" height="1" fill="#ffffff" />
,<rect x="4" y="7" width="1" height="1" fill="#ffffff" />
,<rect x="4" y="8" width="1" height="1" fill="#ffffff" />
,<rect x="4" y="9" width="1" height="1" fill="#1f5bb6" />
,<rect x="5" y="0" width="1" height="1" fill="#ffffff" />
,<rect x="5" y="1" width="1" height="1" fill="#ffffff" />
,<rect x="5" y="2" width="1" height="1" fill="#ffffff" />
,<rect x="5" y="3" width="1" height="1" fill="#ffffff" />
,<rect x="5" y="4" width="1" height="1" fill="#ffffff" />
,<rect x="5" y="5" width="1" height="1" fill="#f2f5fa" />
,<rect x="5" y="6" width="1" height="1" fill="#ffffff" />
,<rect x="5" y="7" width="1" height="1" fill="#ffffff" />
,<rect x="5" y="8" width="1" height="1" fill="#ffffff" />
,<rect x="5" y="9" width="1" height="1" fill="#1f5bb6" />
,<rect x="6" y="0" width="1" height="1" fill="#d6e0f1" />
,<rect x="6" y="1" width="1" height="1" fill="#ffffff" />
,<rect x="6" y="2" width="1" height="1" fill="#ffffff" />
,<rect x="6" y="3" width="1" height="1" fill="#ffffff" />
,<rect x="6" y="4" width="1" height="1" fill="#ffffff" />
,<rect x="6" y="5" width="1" height="1" fill="#bfcee9" />
,<rect x="6" y="6" width="1" height="1" fill="#8dacd9" />
,<rect x="6" y="7" width="1" height="1" fill="#a1b9e0" />
,<rect x="6" y="8" width="1" height="1" fill="#ffffff" />
,<rect x="6" y="9" width="1" height="1" fill="#2660b8" />
,<rect x="7" y="0" width="1" height="1" fill="#1555b3" />
,<rect x="7" y="1" width="1" height="1" fill="#ffffff" />
,<rect x="7" y="2" width="1" height="1" fill="#ffffff" />
,<rect x="7" y="3" width="1" height="1" fill="#ffffff" />
,<rect x="7" y="4" width="1" height="1" fill="#d0ddef" />
,<rect x="7" y="5" width="1" height="1" fill="#1454b2" />
,<rect x="7" y="6" width="1" height="1" fill="#001f9b" />
,<rect x="7" y="7" width="1" height="1" fill="#9ab5de" />
,<rect x="7" y="8" width="1" height="1" fill="#f2f5fa" />
,<rect x="7" y="9" width="1" height="1" fill="#497ac4" />
,<rect x="8" y="0" width="1" height="1" fill="#001d9b" />
,<rect x="8" y="1" width="1" height="1" fill="#ffffff" />
,<rect x="8" y="2" width="1" height="1" fill="#ffffff" />
,<rect x="8" y="3" width="1" height="1" fill="#ffffff" />
,<rect x="8" y="4" width="1" height="1" fill="#ffffff" />
,<rect x="8" y="5" width="1" height="1" fill="#bdcee9" />
,<rect x="8" y="6" width="1" height="1" fill="#2e66bb" />
,<rect x="8" y="7" width="1" height="1" fill="#7095d0" />
,<rect x="8" y="8" width="1" height="1" fill="#a4bde1" />
,<rect x="8" y="9" width="1" height="1" fill="#8cabd9" />
,<rect x="9" y="0" width="1" height="1" fill="#00249e" />
,<rect x="9" y="1" width="1" height="1" fill="#ffffff" />
,<rect x="9" y="2" width="1" height="1" fill="#ffffff" />
,<rect x="9" y="3" width="1" height="1" fill="#ffffff" />
,<rect x="9" y="4" width="1" height="1" fill="#ffffff" />
,<rect x="9" y="5" width="1" height="1" fill="#d4dff0" />
,<rect x="9" y="6" width="1" height="1" fill="#ffffff" />
,<rect x="9" y="7" width="1" height="1" fill="#ffffff" />
,<rect x="9" y="8" width="1" height="1" fill="#2962b9" />
,<rect x="9" y="9" width="1" height="1" fill="#ebf0f8" />

  </g>
</svg>