<svg width="800" height="1000" xmlns="http://www.w3.org/2000/svg"><defs><linearGradient id="g" x1="0" x2="1" y1="0" y2="1"><stop offset="0%" stop-color="#2d3c96"/><stop offset="100%" stop-color="#d53392"/></linearGradient></defs><rect x="10" y="10" width="780" height="980" fill="url(#g)" rx="50" ry="50" stroke="gold" stroke-width="20"/><text x="400" y="920" width="780" text-anchor="middle" style="font:bold 200px 'Helvetica Neue';fill:gold">00468</text><g transform="translate(80 80) scale(64)"><rect x="0" y="0" width="1" height="1" fill="#5353ca" /><rect x="0" y="1" width="1" height="1" fill="#5353bd" /><rect x="0" y="2" width="1" height="1" fill="#5557a9" /><rect x="0" y="3" width="1" height="1" fill="#52529f" /><rect x="0" y="4" width="1" height="1" fill="#5152a7" /><rect x="0" y="5" width="1" height="1" fill="#5455aa" /><rect x="0" y="6" width="1" height="1" fill="#5353a0" /><rect x="0" y="7" width="1" height="1" fill="#505090" /><rect x="0" y="8" width="1" height="1" fill="#515283" /><rect x="0" y="9" width="1" height="1" fill="#55547f" /><rect x="1" y="0" width="1" height="1" fill="#4f4fc8" /><rect x="1" y="1" width="1" height="1" fill="#5453bf" /><rect x="1" y="2" width="1" height="1" fill="#5557a9" /><rect x="1" y="3" width="1" height="1" fill="#51519e" /><rect x="1" y="4" width="1" height="1" fill="#5251a6" /><rect x="1" y="5" width="1" height="1" fill="#5553ac" /><rect x="1" y="6" width="1" height="1" fill="#5555a2" /><rect x="1" y="7" width="1" height="1" fill="#565698" /><rect x="1" y="8" width="1" height="1" fill="#535488" /><rect x="1" y="9" width="1" height="1" fill="#595885" /><rect x="2" y="0" width="1" height="1" fill="#5052ca" /><rect x="2" y="1" width="1" height="1" fill="#5456c1" /><rect x="2" y="2" width="1" height="1" fill="#5857aa" /><rect x="2" y="3" width="1" height="1" fill="#4f4f9a" /><rect x="2" y="4" width="1" height="1" fill="#5553ac" /><rect x="2" y="5" width="1" height="1" fill="#5452ac" /><rect x="2" y="6" width="1" height="1" fill="#5555a4" /><rect x="2" y="7" width="1" height="1" fill="#575799" /><rect x="2" y="8" width="1" height="1" fill="#535389" /><rect x="2" y="9" width="1" height="1" fill="#575985" /><rect x="3" y="0" width="1" height="1" fill="#5253d0" /><rect x="3" y="1" width="1" height="1" fill="#5456c4" /><rect x="3" y="2" width="1" height="1" fill="#5655a6" /><rect x="3" y="3" width="1" height="1" fill="#504f9a" /><rect x="3" y="4" width="1" height="1" fill="#5351ab" /><rect x="3" y="5" width="1" height="1" fill="#5753b0" /><rect x="3" y="6" width="1" height="1" fill="#5553a1" /><rect x="3" y="7" width="1" height="1" fill="#525292" /><rect x="3" y="8" width="1" height="1" fill="#535389" /><rect x="3" y="9" width="1" height="1" fill="#555685" /><rect x="4" y="0" width="1" height="1" fill="#5253d0" /><rect x="4" y="1" width="1" height="1" fill="#5255c3" /><rect x="4" y="2" width="1" height="1" fill="#5453a4" /><rect x="4" y="3" width="1" height="1" fill="#4e4d98" /><rect x="4" y="4" width="1" height="1" fill="#5353af" /><rect x="4" y="5" width="1" height="1" fill="#5656b2" /><rect x="4" y="6" width="1" height="1" fill="#5555a0" /><rect x="4" y="7" width="1" height="1" fill="#525390" /><rect x="4" y="8" width="1" height="1" fill="#58588e" /><rect x="4" y="9" width="1" height="1" fill="#545587" /><rect x="5" y="0" width="1" height="1" fill="#5454d5" /><rect x="5" y="1" width="1" height="1" fill="#5253c4" /><rect x="5" y="2" width="1" height="1" fill="#5655a6" /><rect x="5" y="3" width="1" height="1" fill="#4f4e99" /><rect x="5" y="4" width="1" height="1" fill="#5151af" /><rect x="5" y="5" width="1" height="1" fill="#5454b2" /><rect x="5" y="6" width="1" height="1" fill="#51519c" /><rect x="5" y="7" width="1" height="1" fill="#53528f" /><rect x="5" y="8" width="1" height="1" fill="#57588c" /><rect x="5" y="9" width="1" height="1" fill="#555687" /><rect x="6" y="0" width="1" height="1" fill="#4f4fd2" /><rect x="6" y="1" width="1" height="1" fill="#5354c7" /><rect x="6" y="2" width="1" height="1" fill="#5554a5" /><rect x="6" y="3" width="1" height="1" fill="#4f4f9a" /><rect x="6" y="4" width="1" height="1" fill="#5051b3" /><rect x="6" y="5" width="1" height="1" fill="#5657b9" /><rect x="6" y="6" width="1" height="1" fill="#5553a1" /><rect x="6" y="7" width="1" height="1" fill="#52518e" /><rect x="6" y="8" width="1" height="1" fill="#515286" /><rect x="6" y="9" width="1" height="1" fill="#565582" /><rect x="7" y="0" width="1" height="1" fill="#5252d6" /><rect x="7" y="1" width="1" height="1" fill="#5152c5" /><rect x="7" y="2" width="1" height="1" fill="#5454a3" /><rect x="7" y="3" width="1" height="1" fill="#51519c" /><rect x="7" y="4" width="1" height="1" fill="#5253b5" /><rect x="7" y="5" width="1" height="1" fill="#5354b7" /><rect x="7" y="6" width="1" height="1" fill="#5654a2" /><rect x="7" y="7" width="1" height="1" fill="#545390" /><rect x="7" y="8" width="1" height="1" fill="#565487" /><rect x="7" y="9" width="1" height="1" fill="#545380" /><rect x="8" y="0" width="1" height="1" fill="#5250d2" /><rect x="8" y="1" width="1" height="1" fill="#5553c5" /><rect x="8" y="2" width="1" height="1" fill="#5353a2" /><rect x="8" y="3" width="1" height="1" fill="#52529d" /><rect x="8" y="4" width="1" height="1" fill="#5455b8" /><rect x="8" y="5" width="1" height="1" fill="#5253b6" /><rect x="8" y="6" width="1" height="1" fill="#52529f" /><rect x="8" y="7" width="1" height="1" fill="#51508d" /><rect x="8" y="8" width="1" height="1" fill="#535281" /><rect x="8" y="9" width="1" height="1" fill="#55557e" /><rect x="9" y="0" width="1" height="1" fill="#4f4ecd" /><rect x="9" y="1" width="1" height="1" fill="#5655c4" /><rect x="9" y="2" width="1" height="1" fill="#5353a2" /><rect x="9" y="3" width="1" height="1" fill="#4f4f9a" /><rect x="9" y="4" width="1" height="1" fill="#5253b6" /><rect x="9" y="5" width="1" height="1" fill="#5051b4" /><rect x="9" y="6" width="1" height="1" fill="#50509d" /><rect x="9" y="7" width="1" height="1" fill="#52538d" /><rect x="9" y="8" width="1" height="1" fill="#545584" /><rect x="9" y="9" width="1" height="1" fill="#595982" /></g></svg>