<svg width="800" height="1000" xmlns="http://www.w3.org/2000/svg"><defs><linearGradient id="g" x1="0" x2="1" y1="0" y2="1"><stop offset="0%" stop-color="#2d3c96"/><stop offset="100%" stop-color="#d53392"/></linearGradient></defs><rect x="10" y="10" width="780" height="980" fill="url(#g)" rx="50" ry="50" stroke="gold" stroke-width="20"/><text x="400" y="920" width="780" text-anchor="middle" style="font:bold 200px 'Helvetica Neue';fill:gold">00467</text><g transform="translate(80 80) scale(64)"><rect x="0" y="0" width="1" height="1" fill="#5252d1" /><rect x="0" y="1" width="1" height="1" fill="#5050c6" /><rect x="0" y="2" width="1" height="1" fill="#5255b2" /><rect x="0" y="3" width="1" height="1" fill="#5052a4" /><rect x="0" y="4" width="1" height="1" fill="#4f50a5" /><rect x="0" y="5" width="1" height="1" fill="#5455aa" /><rect x="0" y="6" width="1" height="1" fill="#5655a8" /><rect x="0" y="7" width="1" height="1" fill="#55549c" /><rect x="0" y="8" width="1" height="1" fill="#525387" /><rect x="0" y="9" width="1" height="1" fill="#565580" /><rect x="1" y="0" width="1" height="1" fill="#5050cf" /><rect x="1" y="1" width="1" height="1" fill="#5151c7" /><rect x="1" y="2" width="1" height="1" fill="#5758b8" /><rect x="1" y="3" width="1" height="1" fill="#5051a6" /><rect x="1" y="4" width="1" height="1" fill="#5051a8" /><rect x="1" y="5" width="1" height="1" fill="#5354a9" /><rect x="1" y="6" width="1" height="1" fill="#5655a8" /><rect x="1" y="7" width="1" height="1" fill="#55549c" /><rect x="1" y="8" width="1" height="1" fill="#525387" /><rect x="1" y="9" width="1" height="1" fill="#585782" /><rect x="2" y="0" width="1" height="1" fill="#5250d2" /><rect x="2" y="1" width="1" height="1" fill="#5454cb" /><rect x="2" y="2" width="1" height="1" fill="#5556b8" /><rect x="2" y="3" width="1" height="1" fill="#4d4ea5" /><rect x="2" y="4" width="1" height="1" fill="#514fa7" /><rect x="2" y="5" width="1" height="1" fill="#5553ac" /><rect x="2" y="6" width="1" height="1" fill="#5453a4" /><rect x="2" y="7" width="1" height="1" fill="#525199" /><rect x="2" y="8" width="1" height="1" fill="#545589" /><rect x="2" y="9" width="1" height="1" fill="#54547d" /><rect x="3" y="0" width="1" height="1" fill="#5352d1" /><rect x="3" y="1" width="1" height="1" fill="#5351c7" /><rect x="3" y="2" width="1" height="1" fill="#5555b5" /><rect x="3" y="3" width="1" height="1" fill="#4d4ea3" /><rect x="3" y="4" width="1" height="1" fill="#5452ab" /><rect x="3" y="5" width="1" height="1" fill="#5756ab" /><rect x="3" y="6" width="1" height="1" fill="#5453a4" /><rect x="3" y="7" width="1" height="1" fill="#515098" /><rect x="3" y="8" width="1" height="1" fill="#535488" /><rect x="3" y="9" width="1" height="1" fill="#55547f" /><rect x="4" y="0" width="1" height="1" fill="#5352d0" /><rect x="4" y="1" width="1" height="1" fill="#5152c3" /><rect x="4" y="2" width="1" height="1" fill="#5456b1" /><rect x="4" y="3" width="1" height="1" fill="#4f51a1" /><rect x="4" y="4" width="1" height="1" fill="#4e4fa4" /><rect x="4" y="5" width="1" height="1" fill="#5354a9" /><rect x="4" y="6" width="1" height="1" fill="#5554a5" /><rect x="4" y="7" width="1" height="1" fill="#54539b" /><rect x="4" y="8" width="1" height="1" fill="#54548a" /><rect x="4" y="9" width="1" height="1" fill="#585784" /><rect x="5" y="0" width="1" height="1" fill="#5352ce" /><rect x="5" y="1" width="1" height="1" fill="#5556c7" /><rect x="5" y="2" width="1" height="1" fill="#5455ad" /><rect x="5" y="3" width="1" height="1" fill="#4e509f" /><rect x="5" y="4" width="1" height="1" fill="#4f51a3" /><rect x="5" y="5" width="1" height="1" fill="#5554a7" /><rect x="5" y="6" width="1" height="1" fill="#5454a3" /><rect x="5" y="7" width="1" height="1" fill="#53529a" /><rect x="5" y="8" width="1" height="1" fill="#52528a" /><rect x="5" y="9" width="1" height="1" fill="#575588" /><rect x="6" y="0" width="1" height="1" fill="#5152cf" /><rect x="6" y="1" width="1" height="1" fill="#5253c4" /><rect x="6" y="2" width="1" height="1" fill="#5152aa" /><rect x="6" y="3" width="1" height="1" fill="#50509f" /><rect x="6" y="4" width="1" height="1" fill="#5453a6" /><rect x="6" y="5" width="1" height="1" fill="#5857aa" /><rect x="6" y="6" width="1" height="1" fill="#5555a2" /><rect x="6" y="7" width="1" height="1" fill="#525296" /><rect x="6" y="8" width="1" height="1" fill="#515189" /><rect x="6" y="9" width="1" height="1" fill="#565789" /><rect x="7" y="0" width="1" height="1" fill="#5253d0" /><rect x="7" y="1" width="1" height="1" fill="#5556c7" /><rect x="7" y="2" width="1" height="1" fill="#5455ad" /><rect x="7" y="3" width="1" height="1" fill="#51519e" /><rect x="7" y="4" width="1" height="1" fill="#5352a5" /><rect x="7" y="5" width="1" height="1" fill="#5453a6" /><rect x="7" y="6" width="1" height="1" fill="#5452a0" /><rect x="7" y="7" width="1" height="1" fill="#535398" /><rect x="7" y="8" width="1" height="1" fill="#52528a" /><rect x="7" y="9" width="1" height="1" fill="#55568a" /><rect x="8" y="0" width="1" height="1" fill="#5353cc" /><rect x="8" y="1" width="1" height="1" fill="#5756c5" /><rect x="8" y="2" width="1" height="1" fill="#5857ac" /><rect x="8" y="3" width="1" height="1" fill="#52529f" /><rect x="8" y="4" width="1" height="1" fill="#5251a4" /><rect x="8" y="5" width="1" height="1" fill="#5455aa" /><rect x="8" y="6" width="1" height="1" fill="#5353a2" /><rect x="8" y="7" width="1" height="1" fill="#505196" /><rect x="8" y="8" width="1" height="1" fill="#52548b" /><rect x="8" y="9" width="1" height="1" fill="#545886" /><rect x="9" y="0" width="1" height="1" fill="#5353cc" /><rect x="9" y="1" width="1" height="1" fill="#5756c3" /><rect x="9" y="2" width="1" height="1" fill="#5453a8" /><rect x="9" y="3" width="1" height="1" fill="#514f9d" /><rect x="9" y="4" width="1" height="1" fill="#5352a5" /><rect x="9" y="5" width="1" height="1" fill="#5354a9" /><rect x="9" y="6" width="1" height="1" fill="#5555a4" /><rect x="9" y="7" width="1" height="1" fill="#55569d" /><rect x="9" y="8" width="1" height="1" fill="#50538a" /><rect x="9" y="9" width="1" height="1" fill="#555685" /></g></svg>