<svg width="800" height="1000" version="1.1" xmlns="http://www.w3.org/2000/svg" xmlns:xlink="http://www.w3.org/1999/xlink">
  <defs>
      <linearGradient id="Gradient2" x1="0" x2="1" y1="0" y2="1">
        <stop offset="0%" stop-color="#2d3c96"/>
        <stop offset="100%" stop-color="#d53392"/>
      </linearGradient>
  </defs>
  <rect x="10" y="10" width="780" height="980" fill="url(#Gradient2)" rx="50" ry="50" stroke="#ffd700" stroke-width="20"/>
  <text x="400" y="920" width="780" text-anchor="middle" style="font: bold 200px 'Helvetica Neue'; fill: #ffd700">00467</text>

  <g transform="translate(80 80) scale(64)">
<rect x="0" y="0" width="1" height="1" fill="#5252D1" /><rect x="1" y="0" width="1" height="1" fill="#5050CF" /><rect x="2" y="0" width="1" height="1" fill="#5250D2" /><rect x="3" y="0" width="1" height="1" fill="#5352D1" /><rect x="4" y="0" width="1" height="1" fill="#5352D0" /><rect x="5" y="0" width="1" height="1" fill="#5352CE" /><rect x="6" y="0" width="1" height="1" fill="#5152CF" /><rect x="7" y="0" width="1" height="1" fill="#5253D0" /><rect x="8" y="0" width="1" height="1" fill="#5353CC" /><rect x="9" y="0" width="1" height="1" fill="#5353CC" /><rect x="0" y="1" width="1" height="1" fill="#5050C6" /><rect x="1" y="1" width="1" height="1" fill="#5151C7" /><rect x="2" y="1" width="1" height="1" fill="#5454CB" /><rect x="3" y="1" width="1" height="1" fill="#5351C7" /><rect x="4" y="1" width="1" height="1" fill="#5152C3" /><rect x="5" y="1" width="1" height="1" fill="#5556C7" /><rect x="6" y="1" width="1" height="1" fill="#5253C4" /><rect x="7" y="1" width="1" height="1" fill="#5556C7" /><rect x="8" y="1" width="1" height="1" fill="#5756C5" /><rect x="9" y="1" width="1" height="1" fill="#5756C3" /><rect x="0" y="2" width="1" height="1" fill="#5255B2" /><rect x="1" y="2" width="1" height="1" fill="#5758B8" /><rect x="2" y="2" width="1" height="1" fill="#5556B8" /><rect x="3" y="2" width="1" height="1" fill="#5555B5" /><rect x="4" y="2" width="1" height="1" fill="#5456B1" /><rect x="5" y="2" width="1" height="1" fill="#5455AD" /><rect x="6" y="2" width="1" height="1" fill="#5152AA" /><rect x="7" y="2" width="1" height="1" fill="#5455AD" /><rect x="8" y="2" width="1" height="1" fill="#5857AC" /><rect x="9" y="2" width="1" height="1" fill="#5453A8" /><rect x="0" y="3" width="1" height="1" fill="#5052A4" /><rect x="1" y="3" width="1" height="1" fill="#5051A6" /><rect x="2" y="3" width="1" height="1" fill="#4D4EA5" /><rect x="3" y="3" width="1" height="1" fill="#4D4EA3" /><rect x="4" y="3" width="1" height="1" fill="#4F51A1" /><rect x="5" y="3" width="1" height="1" fill="#4E509F" /><rect x="6" y="3" width="1" height="1" fill="#50509F" /><rect x="7" y="3" width="1" height="1" fill="#51519E" /><rect x="8" y="3" width="1" height="1" fill="#52529F" /><rect x="9" y="3" width="1" height="1" fill="#514F9D" /><rect x="0" y="4" width="1" height="1" fill="#4F50A5" /><rect x="1" y="4" width="1" height="1" fill="#5051A8" /><rect x="2" y="4" width="1" height="1" fill="#514FA7" /><rect x="3" y="4" width="1" height="1" fill="#5452AB" /><rect x="4" y="4" width="1" height="1" fill="#4E4FA4" /><rect x="5" y="4" width="1" height="1" fill="#4F51A3" /><rect x="6" y="4" width="1" height="1" fill="#5453A6" /><rect x="7" y="4" width="1" height="1" fill="#5352A5" /><rect x="8" y="4" width="1" height="1" fill="#5251A4" /><rect x="9" y="4" width="1" height="1" fill="#5352A5" /><rect x="0" y="5" width="1" height="1" fill="#5455AA" /><rect x="1" y="5" width="1" height="1" fill="#5354A9" /><rect x="2" y="5" width="1" height="1" fill="#5553AC" /><rect x="3" y="5" width="1" height="1" fill="#5756AB" /><rect x="4" y="5" width="1" height="1" fill="#5354A9" /><rect x="5" y="5" width="1" height="1" fill="#5554A7" /><rect x="6" y="5" width="1" height="1" fill="#5857AA" /><rect x="7" y="5" width="1" height="1" fill="#5453A6" /><rect x="8" y="5" width="1" height="1" fill="#5455AA" /><rect x="9" y="5" width="1" height="1" fill="#5354A9" /><rect x="0" y="6" width="1" height="1" fill="#5655A8" /><rect x="1" y="6" width="1" height="1" fill="#5655A8" /><rect x="2" y="6" width="1" height="1" fill="#5453A4" /><rect x="3" y="6" width="1" height="1" fill="#5453A4" /><rect x="4" y="6" width="1" height="1" fill="#5554A5" /><rect x="5" y="6" width="1" height="1" fill="#5454A3" /><rect x="6" y="6" width="1" height="1" fill="#5555A2" /><rect x="7" y="6" width="1" height="1" fill="#5452A0" /><rect x="8" y="6" width="1" height="1" fill="#5353A2" /><rect x="9" y="6" width="1" height="1" fill="#5555A4" /><rect x="0" y="7" width="1" height="1" fill="#55549C" /><rect x="1" y="7" width="1" height="1" fill="#55549C" /><rect x="2" y="7" width="1" height="1" fill="#525199" /><rect x="3" y="7" width="1" height="1" fill="#515098" /><rect x="4" y="7" width="1" height="1" fill="#54539B" /><rect x="5" y="7" width="1" height="1" fill="#53529A" /><rect x="6" y="7" width="1" height="1" fill="#525296" /><rect x="7" y="7" width="1" height="1" fill="#535398" /><rect x="8" y="7" width="1" height="1" fill="#505196" /><rect x="9" y="7" width="1" height="1" fill="#55569D" /><rect x="0" y="8" width="1" height="1" fill="#525387" /><rect x="1" y="8" width="1" height="1" fill="#525387" /><rect x="2" y="8" width="1" height="1" fill="#545589" /><rect x="3" y="8" width="1" height="1" fill="#535488" /><rect x="4" y="8" width="1" height="1" fill="#54548A" /><rect x="5" y="8" width="1" height="1" fill="#52528A" /><rect x="6" y="8" width="1" height="1" fill="#515189" /><rect x="7" y="8" width="1" height="1" fill="#52528A" /><rect x="8" y="8" width="1" height="1" fill="#52548B" /><rect x="9" y="8" width="1" height="1" fill="#50538A" /><rect x="0" y="9" width="1" height="1" fill="#565580" /><rect x="1" y="9" width="1" height="1" fill="#585782" /><rect x="2" y="9" width="1" height="1" fill="#54547D" /><rect x="3" y="9" width="1" height="1" fill="#55547F" /><rect x="4" y="9" width="1" height="1" fill="#585784" /><rect x="5" y="9" width="1" height="1" fill="#575588" /><rect x="6" y="9" width="1" height="1" fill="#565789" /><rect x="7" y="9" width="1" height="1" fill="#55568A" /><rect x="8" y="9" width="1" height="1" fill="#545886" /><rect x="9" y="9" width="1" height="1" fill="#555685" />
  </g>
</svg>