<svg width="800" height="1000" version="1.1" xmlns="http://www.w3.org/2000/svg" xmlns:xlink="http://www.w3.org/1999/xlink">
  <defs>
      <linearGradient id="Gradient2" x1="0" x2="1" y1="0" y2="1">
        <stop offset="0%" stop-color="#2d3c96"/>
        <stop offset="100%" stop-color="#d53392"/>
      </linearGradient>
  </defs>
  <rect x="10" y="10" width="780" height="980" fill="url(#Gradient2)" rx="50" ry="50" stroke="#ffd700" stroke-width="20"/>
  <text x="400" y="920" width="780" text-anchor="middle" style="font: bold 200px 'Helvetica Neue'; fill: #ffd700">00468</text>

  <g transform="translate(80 80) scale(64)">
<rect x="0" y="0" width="1" height="1" fill="#5353CA" /><rect x="1" y="0" width="1" height="1" fill="#4F4FC8" /><rect x="2" y="0" width="1" height="1" fill="#5052CA" /><rect x="3" y="0" width="1" height="1" fill="#5253D0" /><rect x="4" y="0" width="1" height="1" fill="#5253D0" /><rect x="5" y="0" width="1" height="1" fill="#5454D5" /><rect x="6" y="0" width="1" height="1" fill="#4F4FD2" /><rect x="7" y="0" width="1" height="1" fill="#5252D6" /><rect x="8" y="0" width="1" height="1" fill="#5250D2" /><rect x="9" y="0" width="1" height="1" fill="#4F4ECD" /><rect x="0" y="1" width="1" height="1" fill="#5353BD" /><rect x="1" y="1" width="1" height="1" fill="#5453BF" /><rect x="2" y="1" width="1" height="1" fill="#5456C1" /><rect x="3" y="1" width="1" height="1" fill="#5456C4" /><rect x="4" y="1" width="1" height="1" fill="#5255C3" /><rect x="5" y="1" width="1" height="1" fill="#5253C4" /><rect x="6" y="1" width="1" height="1" fill="#5354C7" /><rect x="7" y="1" width="1" height="1" fill="#5152C5" /><rect x="8" y="1" width="1" height="1" fill="#5553C5" /><rect x="9" y="1" width="1" height="1" fill="#5655C4" /><rect x="0" y="2" width="1" height="1" fill="#5557A9" /><rect x="1" y="2" width="1" height="1" fill="#5557A9" /><rect x="2" y="2" width="1" height="1" fill="#5857AA" /><rect x="3" y="2" width="1" height="1" fill="#5655A6" /><rect x="4" y="2" width="1" height="1" fill="#5453A4" /><rect x="5" y="2" width="1" height="1" fill="#5655A6" /><rect x="6" y="2" width="1" height="1" fill="#5554A5" /><rect x="7" y="2" width="1" height="1" fill="#5454A3" /><rect x="8" y="2" width="1" height="1" fill="#5353A2" /><rect x="9" y="2" width="1" height="1" fill="#5353A2" /><rect x="0" y="3" width="1" height="1" fill="#52529F" /><rect x="1" y="3" width="1" height="1" fill="#51519E" /><rect x="2" y="3" width="1" height="1" fill="#4F4F9A" /><rect x="3" y="3" width="1" height="1" fill="#504F9A" /><rect x="4" y="3" width="1" height="1" fill="#4E4D98" /><rect x="5" y="3" width="1" height="1" fill="#4F4E99" /><rect x="6" y="3" width="1" height="1" fill="#4F4F9A" /><rect x="7" y="3" width="1" height="1" fill="#51519C" /><rect x="8" y="3" width="1" height="1" fill="#52529D" /><rect x="9" y="3" width="1" height="1" fill="#4F4F9A" /><rect x="0" y="4" width="1" height="1" fill="#5152A7" /><rect x="1" y="4" width="1" height="1" fill="#5251A6" /><rect x="2" y="4" width="1" height="1" fill="#5553AC" /><rect x="3" y="4" width="1" height="1" fill="#5351AB" /><rect x="4" y="4" width="1" height="1" fill="#5353AF" /><rect x="5" y="4" width="1" height="1" fill="#5151AF" /><rect x="6" y="4" width="1" height="1" fill="#5051B3" /><rect x="7" y="4" width="1" height="1" fill="#5253B5" /><rect x="8" y="4" width="1" height="1" fill="#5455B8" /><rect x="9" y="4" width="1" height="1" fill="#5253B6" /><rect x="0" y="5" width="1" height="1" fill="#5455AA" /><rect x="1" y="5" width="1" height="1" fill="#5553AC" /><rect x="2" y="5" width="1" height="1" fill="#5452AC" /><rect x="3" y="5" width="1" height="1" fill="#5753B0" /><rect x="4" y="5" width="1" height="1" fill="#5656B2" /><rect x="5" y="5" width="1" height="1" fill="#5454B2" /><rect x="6" y="5" width="1" height="1" fill="#5657B9" /><rect x="7" y="5" width="1" height="1" fill="#5354B7" /><rect x="8" y="5" width="1" height="1" fill="#5253B6" /><rect x="9" y="5" width="1" height="1" fill="#5051B4" /><rect x="0" y="6" width="1" height="1" fill="#5353A0" /><rect x="1" y="6" width="1" height="1" fill="#5555A2" /><rect x="2" y="6" width="1" height="1" fill="#5555A4" /><rect x="3" y="6" width="1" height="1" fill="#5553A1" /><rect x="4" y="6" width="1" height="1" fill="#5555A0" /><rect x="5" y="6" width="1" height="1" fill="#51519C" /><rect x="6" y="6" width="1" height="1" fill="#5553A1" /><rect x="7" y="6" width="1" height="1" fill="#5654A2" /><rect x="8" y="6" width="1" height="1" fill="#52529F" /><rect x="9" y="6" width="1" height="1" fill="#50509D" /><rect x="0" y="7" width="1" height="1" fill="#505090" /><rect x="1" y="7" width="1" height="1" fill="#565698" /><rect x="2" y="7" width="1" height="1" fill="#575799" /><rect x="3" y="7" width="1" height="1" fill="#525292" /><rect x="4" y="7" width="1" height="1" fill="#525390" /><rect x="5" y="7" width="1" height="1" fill="#53528F" /><rect x="6" y="7" width="1" height="1" fill="#52518E" /><rect x="7" y="7" width="1" height="1" fill="#545390" /><rect x="8" y="7" width="1" height="1" fill="#51508D" /><rect x="9" y="7" width="1" height="1" fill="#52538D" /><rect x="0" y="8" width="1" height="1" fill="#515283" /><rect x="1" y="8" width="1" height="1" fill="#535488" /><rect x="2" y="8" width="1" height="1" fill="#535389" /><rect x="3" y="8" width="1" height="1" fill="#535389" /><rect x="4" y="8" width="1" height="1" fill="#58588E" /><rect x="5" y="8" width="1" height="1" fill="#57588C" /><rect x="6" y="8" width="1" height="1" fill="#515286" /><rect x="7" y="8" width="1" height="1" fill="#565487" /><rect x="8" y="8" width="1" height="1" fill="#535281" /><rect x="9" y="8" width="1" height="1" fill="#545584" /><rect x="0" y="9" width="1" height="1" fill="#55547F" /><rect x="1" y="9" width="1" height="1" fill="#595885" /><rect x="2" y="9" width="1" height="1" fill="#575985" /><rect x="3" y="9" width="1" height="1" fill="#555685" /><rect x="4" y="9" width="1" height="1" fill="#545587" /><rect x="5" y="9" width="1" height="1" fill="#555687" /><rect x="6" y="9" width="1" height="1" fill="#565582" /><rect x="7" y="9" width="1" height="1" fill="#545380" /><rect x="8" y="9" width="1" height="1" fill="#55557E" /><rect x="9" y="9" width="1" height="1" fill="#595982" />
  </g>
</svg>