<svg width="800" height="1000" version="1.1" xmlns="http://www.w3.org/2000/svg" xmlns:xlink="http://www.w3.org/1999/xlink">
  <defs>
      <linearGradient id="Gradient2" x1="0" x2="1" y1="0" y2="1">
        <stop offset="0%" stop-color="#2d3c96"/>
        <stop offset="100%" stop-color="#d53392"/>
      </linearGradient>
  </defs>
  <rect x="10" y="10" width="780" height="980" fill="url(#Gradient2)" rx="50" ry="50" stroke="#ffd700" stroke-width="20"/>
  <text x="400" y="920" width="780" text-anchor="middle" style="font: bold 200px 'Helvetica Neue'; fill: #ffd700">00513</text>

  <g transform="translate(80 80) scale(64)">
<rect x="0" y="0" width="1" height="1" fill="#FFFFFF" /><rect x="1" y="0" width="1" height="1" fill="#FFFFFF" /><rect x="2" y="0" width="1" height="1" fill="#FFFFFF" /><rect x="3" y="0" width="1" height="1" fill="#FFFFFF" /><rect x="4" y="0" width="1" height="1" fill="#FFFFFF" /><rect x="5" y="0" width="1" height="1" fill="#FFFFFF" /><rect x="6" y="0" width="1" height="1" fill="#FFFFFF" /><rect x="7" y="0" width="1" height="1" fill="#F2F2F2" /><rect x="8" y="0" width="1" height="1" fill="#BEBEBE" /><rect x="9" y="0" width="1" height="1" fill="#A9A9A9" /><rect x="0" y="1" width="1" height="1" fill="#FFFFFF" /><rect x="1" y="1" width="1" height="1" fill="#FFFFFF" /><rect x="2" y="1" width="1" height="1" fill="#FFFFFF" /><rect x="3" y="1" width="1" height="1" fill="#FFFFFF" /><rect x="4" y="1" width="1" height="1" fill="#FFFFFF" /><rect x="5" y="1" width="1" height="1" fill="#FFFFFF" /><rect x="6" y="1" width="1" height="1" fill="#FDFDFD" /><rect x="7" y="1" width="1" height="1" fill="#BDBDBD" /><rect x="8" y="1" width="1" height="1" fill="#353535" /><rect x="9" y="1" width="1" height="1" fill="#101010" /><rect x="0" y="2" width="1" height="1" fill="#FFFFFF" /><rect x="1" y="2" width="1" height="1" fill="#FFFFFF" /><rect x="2" y="2" width="1" height="1" fill="#FFFFFF" /><rect x="3" y="2" width="1" height="1" fill="#FFFFFF" /><rect x="4" y="2" width="1" height="1" fill="#F8F8F8" /><rect x="5" y="2" width="1" height="1" fill="#FBFBFB" /><rect x="6" y="2" width="1" height="1" fill="#FCFCFC" /><rect x="7" y="2" width="1" height="1" fill="#ACACAC" /><rect x="8" y="2" width="1" height="1" fill="#0E0E0E" /><rect x="9" y="2" width="1" height="1" fill="#3E3E3E" /><rect x="0" y="3" width="1" height="1" fill="#FFFFFF" /><rect x="1" y="3" width="1" height="1" fill="#FFFFFF" /><rect x="2" y="3" width="1" height="1" fill="#FEFEFE" /><rect x="3" y="3" width="1" height="1" fill="#E6E6E6" /><rect x="4" y="3" width="1" height="1" fill="#D8D8D8" /><rect x="5" y="3" width="1" height="1" fill="#F7F7F7" /><rect x="6" y="3" width="1" height="1" fill="#F1F1F1" /><rect x="7" y="3" width="1" height="1" fill="#A9A9A9" /><rect x="8" y="3" width="1" height="1" fill="#8A8A8A" /><rect x="9" y="3" width="1" height="1" fill="#C5C5C5" /><rect x="0" y="4" width="1" height="1" fill="#FFFFFF" /><rect x="1" y="4" width="1" height="1" fill="#FFFFFF" /><rect x="2" y="4" width="1" height="1" fill="#E4E4E4" /><rect x="3" y="4" width="1" height="1" fill="#BDBDBD" /><rect x="4" y="4" width="1" height="1" fill="#F0F0F0" /><rect x="5" y="4" width="1" height="1" fill="#F5F5F5" /><rect x="6" y="4" width="1" height="1" fill="#ACACAC" /><rect x="7" y="4" width="1" height="1" fill="#ABABAB" /><rect x="8" y="4" width="1" height="1" fill="#F1F1F1" /><rect x="9" y="4" width="1" height="1" fill="#FCFCFC" /><rect x="0" y="5" width="1" height="1" fill="#FFFFFF" /><rect x="1" y="5" width="1" height="1" fill="#F6F6F6" /><rect x="2" y="5" width="1" height="1" fill="#ADADAD" /><rect x="3" y="5" width="1" height="1" fill="#DADADA" /><rect x="4" y="5" width="1" height="1" fill="#FEFEFE" /><rect x="5" y="5" width="1" height="1" fill="#CECECE" /><rect x="6" y="5" width="1" height="1" fill="#686868" /><rect x="7" y="5" width="1" height="1" fill="#DBDBDB" /><rect x="8" y="5" width="1" height="1" fill="#FFFFFF" /><rect x="9" y="5" width="1" height="1" fill="#FEFEFE" /><rect x="0" y="6" width="1" height="1" fill="#FFFFFF" /><rect x="1" y="6" width="1" height="1" fill="#DEDEDE" /><rect x="2" y="6" width="1" height="1" fill="#959595" /><rect x="3" y="6" width="1" height="1" fill="#F2F2F2" /><rect x="4" y="6" width="1" height="1" fill="#F8F8F8" /><rect x="5" y="6" width="1" height="1" fill="#989898" /><rect x="6" y="6" width="1" height="1" fill="#767676" /><rect x="7" y="6" width="1" height="1" fill="#F0F0F0" /><rect x="8" y="6" width="1" height="1" fill="#F7F7F7" /><rect x="9" y="6" width="1" height="1" fill="#CCCCCC" /><rect x="0" y="7" width="1" height="1" fill="#FEFEFE" /><rect x="1" y="7" width="1" height="1" fill="#C4C4C4" /><rect x="2" y="7" width="1" height="1" fill="#969696" /><rect x="3" y="7" width="1" height="1" fill="#F7F7F7" /><rect x="4" y="7" width="1" height="1" fill="#F0F0F0" /><rect x="5" y="7" width="1" height="1" fill="#767676" /><rect x="6" y="7" width="1" height="1" fill="#7F7F7F" /><rect x="7" y="7" width="1" height="1" fill="#F2F2F2" /><rect x="8" y="7" width="1" height="1" fill="#CFCFCF" /><rect x="9" y="7" width="1" height="1" fill="#4B4B4B" /><rect x="0" y="8" width="1" height="1" fill="#FEFEFE" /><rect x="1" y="8" width="1" height="1" fill="#B9B9B9" /><rect x="2" y="8" width="1" height="1" fill="#878787" /><rect x="3" y="8" width="1" height="1" fill="#F4F4F4" /><rect x="4" y="8" width="1" height="1" fill="#EEEEEE" /><rect x="5" y="8" width="1" height="1" fill="#6E6E6E" /><rect x="6" y="8" width="1" height="1" fill="#676767" /><rect x="7" y="8" width="1" height="1" fill="#E6E6E6" /><rect x="8" y="8" width="1" height="1" fill="#BCBCBC" /><rect x="9" y="8" width="1" height="1" fill="#2A2A2A" /><rect x="0" y="9" width="1" height="1" fill="#FEFEFE" /><rect x="1" y="9" width="1" height="1" fill="#BBBBBB" /><rect x="2" y="9" width="1" height="1" fill="#626262" /><rect x="3" y="9" width="1" height="1" fill="#E3E3E3" /><rect x="4" y="9" width="1" height="1" fill="#EBEBEB" /><rect x="5" y="9" width="1" height="1" fill="#696969" /><rect x="6" y="9" width="1" height="1" fill="#2F2F2F" /><rect x="7" y="9" width="1" height="1" fill="#B9B9B9" /><rect x="8" y="9" width="1" height="1" fill="#E2E2E2" /><rect x="9" y="9" width="1" height="1" fill="#BCBCBC" />
  </g>
</svg>