<svg width="800" height="1000" xmlns="http://www.w3.org/2000/svg"><defs><linearGradient id="g" x1="0" x2="1" y1="0" y2="1"><stop offset="0%" stop-color="#2d3c96"/><stop offset="100%" stop-color="#d53392"/></linearGradient></defs><rect x="10" y="10" width="780" height="980" fill="url(#g)" rx="50" ry="50" stroke="gold" stroke-width="20"/><text x="400" y="920" width="780" text-anchor="middle" style="font:bold 200px 'Helvetica Neue';fill:gold">00514</text><g transform="translate(80 80) scale(64)"><rect x="0" y="0" width="1" height="1" fill="#e0e0e0" /><rect x="0" y="1" width="1" height="1" fill="#999999" /><rect x="0" y="2" width="1" height="1" fill="#a4a4a4" /><rect x="0" y="3" width="1" height="1" fill="#f3f3f3" /><rect x="0" y="4" width="1" height="1" fill="#ffffff" /><rect x="0" y="5" width="1" height="1" fill="#fdfdfd" /><rect x="0" y="6" width="1" height="1" fill="#c7c7c7" /><rect x="0" y="7" width="1" height="1" fill="#5d5d5d" /><rect x="0" y="8" width="1" height="1" fill="#8e8e8e" /><rect x="0" y="9" width="1" height="1" fill="#e4e4e4" /><rect x="1" y="0" width="1" height="1" fill="#fefefe" /><rect x="1" y="1" width="1" height="1" fill="#f7f7f7" /><rect x="1" y="2" width="1" height="1" fill="#f6f6f6" /><rect x="1" y="3" width="1" height="1" fill="#ffffff" /><rect x="1" y="4" width="1" height="1" fill="#ffffff" /><rect x="1" y="5" width="1" height="1" fill="#ffffff" /><rect x="1" y="6" width="1" height="1" fill="#f8f8f8" /><rect x="1" y="7" width="1" height="1" fill="#e3e3e3" /><rect x="1" y="8" width="1" height="1" fill="#efefef" /><rect x="1" y="9" width="1" height="1" fill="#fdfdfd" /><rect x="2" y="0" width="1" height="1" fill="#ffffff" /><rect x="2" y="1" width="1" height="1" fill="#ffffff" /><rect x="2" y="2" width="1" height="1" fill="#ffffff" /><rect x="2" y="3" width="1" height="1" fill="#ffffff" /><rect x="2" y="4" width="1" height="1" fill="#ffffff" /><rect x="2" y="5" width="1" height="1" fill="#ffffff" /><rect x="2" y="6" width="1" height="1" fill="#ffffff" /><rect x="2" y="7" width="1" height="1" fill="#fcfcfc" /><rect x="2" y="8" width="1" height="1" fill="#f8f8f8" /><rect x="2" y="9" width="1" height="1" fill="#fefefe" /><rect x="3" y="0" width="1" height="1" fill="#ffffff" /><rect x="3" y="1" width="1" height="1" fill="#ffffff" /><rect x="3" y="2" width="1" height="1" fill="#ffffff" /><rect x="3" y="3" width="1" height="1" fill="#ffffff" /><rect x="3" y="4" width="1" height="1" fill="#ffffff" /><rect x="3" y="5" width="1" height="1" fill="#ffffff" /><rect x="3" y="6" width="1" height="1" fill="#f9f9f9" /><rect x="3" y="7" width="1" height="1" fill="#c0c0c0" /><rect x="3" y="8" width="1" height="1" fill="#9c9c9c" /><rect x="3" y="9" width="1" height="1" fill="#cfcfcf" /><rect x="4" y="0" width="1" height="1" fill="#ffffff" /><rect x="4" y="1" width="1" height="1" fill="#fbfbfb" /><rect x="4" y="2" width="1" height="1" fill="#e7e7e7" /><rect x="4" y="3" width="1" height="1" fill="#f0f0f0" /><rect x="4" y="4" width="1" height="1" fill="#ffffff" /><rect x="4" y="5" width="1" height="1" fill="#ffffff" /><rect x="4" y="6" width="1" height="1" fill="#f1f1f1" /><rect x="4" y="7" width="1" height="1" fill="#818181" /><rect x="4" y="8" width="1" height="1" fill="#090909" /><rect x="4" y="9" width="1" height="1" fill="#595959" /><rect x="5" y="0" width="1" height="1" fill="#fdfdfd" /><rect x="5" y="1" width="1" height="1" fill="#cdcdcd" /><rect x="5" y="2" width="1" height="1" fill="#6b6b6b" /><rect x="5" y="3" width="1" height="1" fill="#a2a2a2" /><rect x="5" y="4" width="1" height="1" fill="#f3f3f3" /><rect x="5" y="5" width="1" height="1" fill="#ffffff" /><rect x="5" y="6" width="1" height="1" fill="#fcfcfc" /><rect x="5" y="7" width="1" height="1" fill="#d4d4d4" /><rect x="5" y="8" width="1" height="1" fill="#9b9b9b" /><rect x="5" y="9" width="1" height="1" fill="#ababab" /><rect x="6" y="0" width="1" height="1" fill="#fafafa" /><rect x="6" y="1" width="1" height="1" fill="#9f9f9f" /><rect x="6" y="2" width="1" height="1" fill="#020202" /><rect x="6" y="3" width="1" height="1" fill="#383838" /><rect x="6" y="4" width="1" height="1" fill="#bababa" /><rect x="6" y="5" width="1" height="1" fill="#fcfcfc" /><rect x="6" y="6" width="1" height="1" fill="#ffffff" /><rect x="6" y="7" width="1" height="1" fill="#fefefe" /><rect x="6" y="8" width="1" height="1" fill="#f8f8f8" /><rect x="6" y="9" width="1" height="1" fill="#eeeeee" /><rect x="7" y="0" width="1" height="1" fill="#fdfdfd" /><rect x="7" y="1" width="1" height="1" fill="#c8c8c8" /><rect x="7" y="2" width="1" height="1" fill="#575757" /><rect x="7" y="3" width="1" height="1" fill="#4b4b4b" /><rect x="7" y="4" width="1" height="1" fill="#bcbcbc" /><rect x="7" y="5" width="1" height="1" fill="#fcfcfc" /><rect x="7" y="6" width="1" height="1" fill="#fcfcfc" /><rect x="7" y="7" width="1" height="1" fill="#e6e6e6" /><rect x="7" y="8" width="1" height="1" fill="#cbcbcb" /><rect x="7" y="9" width="1" height="1" fill="#9b9b9b" /><rect x="8" y="0" width="1" height="1" fill="#ffffff" /><rect x="8" y="1" width="1" height="1" fill="#f9f9f9" /><rect x="8" y="2" width="1" height="1" fill="#dcdcdc" /><rect x="8" y="3" width="1" height="1" fill="#d8d8d8" /><rect x="8" y="4" width="1" height="1" fill="#f6f6f6" /><rect x="8" y="5" width="1" height="1" fill="#ffffff" /><rect x="8" y="6" width="1" height="1" fill="#fefefe" /><rect x="8" y="7" width="1" height="1" fill="#efefef" /><rect x="8" y="8" width="1" height="1" fill="#dddddd" /><rect x="8" y="9" width="1" height="1" fill="#d4d4d4" /><rect x="9" y="0" width="1" height="1" fill="#ffffff" /><rect x="9" y="1" width="1" height="1" fill="#ffffff" /><rect x="9" y="2" width="1" height="1" fill="#ffffff" /><rect x="9" y="3" width="1" height="1" fill="#ffffff" /><rect x="9" y="4" width="1" height="1" fill="#ffffff" /><rect x="9" y="5" width="1" height="1" fill="#ffffff" /><rect x="9" y="6" width="1" height="1" fill="#ffffff" /><rect x="9" y="7" width="1" height="1" fill="#ffffff" /><rect x="9" y="8" width="1" height="1" fill="#ffffff" /><rect x="9" y="9" width="1" height="1" fill="#ffffff" /></g></svg>