<svg width="800" height="1000" version="1.1" xmlns="http://www.w3.org/2000/svg" xmlns:xlink="http://www.w3.org/1999/xlink">
  <defs>
      <linearGradient id="Gradient2" x1="0" x2="1" y1="0" y2="1">
        <stop offset="0%" stop-color="#2d3c96"/>
        <stop offset="100%" stop-color="#d53392"/>
      </linearGradient>
  </defs>
  <rect x="10" y="10" width="780" height="980" fill="url(#Gradient2)" rx="50" ry="50" stroke="#ffd700" stroke-width="20"/>
  <text x="400" y="920" width="780" text-anchor="middle" style="font: bold 200px 'Helvetica Neue'; fill: #ffd700">00513</text>

  <g transform="translate(80 80) scale(64)">
<rect x="0" y="0" width="1" height="1" fill="#ffffff" />
,<rect x="0" y="1" width="1" height="1" fill="#ffffff" />
,<rect x="0" y="2" width="1" height="1" fill="#ffffff" />
,<rect x="0" y="3" width="1" height="1" fill="#ffffff" />
,<rect x="0" y="4" width="1" height="1" fill="#ffffff" />
,<rect x="0" y="5" width="1" height="1" fill="#ffffff" />
,<rect x="0" y="6" width="1" height="1" fill="#ffffff" />
,<rect x="0" y="7" width="1" height="1" fill="#fefefe" />
,<rect x="0" y="8" width="1" height="1" fill="#fefefe" />
,<rect x="0" y="9" width="1" height="1" fill="#fefefe" />
,<rect x="1" y="0" width="1" height="1" fill="#ffffff" />
,<rect x="1" y="1" width="1" height="1" fill="#ffffff" />
,<rect x="1" y="2" width="1" height="1" fill="#ffffff" />
,<rect x="1" y="3" width="1" height="1" fill="#ffffff" />
,<rect x="1" y="4" width="1" height="1" fill="#ffffff" />
,<rect x="1" y="5" width="1" height="1" fill="#f6f6f6" />
,<rect x="1" y="6" width="1" height="1" fill="#dedede" />
,<rect x="1" y="7" width="1" height="1" fill="#c4c4c4" />
,<rect x="1" y="8" width="1" height="1" fill="#b9b9b9" />
,<rect x="1" y="9" width="1" height="1" fill="#bbbbbb" />
,<rect x="2" y="0" width="1" height="1" fill="#ffffff" />
,<rect x="2" y="1" width="1" height="1" fill="#ffffff" />
,<rect x="2" y="2" width="1" height="1" fill="#ffffff" />
,<rect x="2" y="3" width="1" height="1" fill="#fefefe" />
,<rect x="2" y="4" width="1" height="1" fill="#e4e4e4" />
,<rect x="2" y="5" width="1" height="1" fill="#adadad" />
,<rect x="2" y="6" width="1" height="1" fill="#959595" />
,<rect x="2" y="7" width="1" height="1" fill="#969696" />
,<rect x="2" y="8" width="1" height="1" fill="#878787" />
,<rect x="2" y="9" width="1" height="1" fill="#626262" />
,<rect x="3" y="0" width="1" height="1" fill="#ffffff" />
,<rect x="3" y="1" width="1" height="1" fill="#ffffff" />
,<rect x="3" y="2" width="1" height="1" fill="#ffffff" />
,<rect x="3" y="3" width="1" height="1" fill="#e6e6e6" />
,<rect x="3" y="4" width="1" height="1" fill="#bdbdbd" />
,<rect x="3" y="5" width="1" height="1" fill="#dadada" />
,<rect x="3" y="6" width="1" height="1" fill="#f2f2f2" />
,<rect x="3" y="7" width="1" height="1" fill="#f7f7f7" />
,<rect x="3" y="8" width="1" height="1" fill="#f4f4f4" />
,<rect x="3" y="9" width="1" height="1" fill="#e3e3e3" />
,<rect x="4" y="0" width="1" height="1" fill="#ffffff" />
,<rect x="4" y="1" width="1" height="1" fill="#ffffff" />
,<rect x="4" y="2" width="1" height="1" fill="#f8f8f8" />
,<rect x="4" y="3" width="1" height="1" fill="#d8d8d8" />
,<rect x="4" y="4" width="1" height="1" fill="#f0f0f0" />
,<rect x="4" y="5" width="1" height="1" fill="#fefefe" />
,<rect x="4" y="6" width="1" height="1" fill="#f8f8f8" />
,<rect x="4" y="7" width="1" height="1" fill="#f0f0f0" />
,<rect x="4" y="8" width="1" height="1" fill="#eeeeee" />
,<rect x="4" y="9" width="1" height="1" fill="#ebebeb" />
,<rect x="5" y="0" width="1" height="1" fill="#ffffff" />
,<rect x="5" y="1" width="1" height="1" fill="#ffffff" />
,<rect x="5" y="2" width="1" height="1" fill="#fbfbfb" />
,<rect x="5" y="3" width="1" height="1" fill="#f7f7f7" />
,<rect x="5" y="4" width="1" height="1" fill="#f5f5f5" />
,<rect x="5" y="5" width="1" height="1" fill="#cecece" />
,<rect x="5" y="6" width="1" height="1" fill="#989898" />
,<rect x="5" y="7" width="1" height="1" fill="#767676" />
,<rect x="5" y="8" width="1" height="1" fill="#6e6e6e" />
,<rect x="5" y="9" width="1" height="1" fill="#696969" />
,<rect x="6" y="0" width="1" height="1" fill="#ffffff" />
,<rect x="6" y="1" width="1" height="1" fill="#fdfdfd" />
,<rect x="6" y="2" width="1" height="1" fill="#fcfcfc" />
,<rect x="6" y="3" width="1" height="1" fill="#f1f1f1" />
,<rect x="6" y="4" width="1" height="1" fill="#acacac" />
,<rect x="6" y="5" width="1" height="1" fill="#686868" />
,<rect x="6" y="6" width="1" height="1" fill="#767676" />
,<rect x="6" y="7" width="1" height="1" fill="#7f7f7f" />
,<rect x="6" y="8" width="1" height="1" fill="#676767" />
,<rect x="6" y="9" width="1" height="1" fill="#2f2f2f" />
,<rect x="7" y="0" width="1" height="1" fill="#f2f2f2" />
,<rect x="7" y="1" width="1" height="1" fill="#bdbdbd" />
,<rect x="7" y="2" width="1" height="1" fill="#acacac" />
,<rect x="7" y="3" width="1" height="1" fill="#a9a9a9" />
,<rect x="7" y="4" width="1" height="1" fill="#ababab" />
,<rect x="7" y="5" width="1" height="1" fill="#dbdbdb" />
,<rect x="7" y="6" width="1" height="1" fill="#f0f0f0" />
,<rect x="7" y="7" width="1" height="1" fill="#f2f2f2" />
,<rect x="7" y="8" width="1" height="1" fill="#e6e6e6" />
,<rect x="7" y="9" width="1" height="1" fill="#b9b9b9" />
,<rect x="8" y="0" width="1" height="1" fill="#bebebe" />
,<rect x="8" y="1" width="1" height="1" fill="#353535" />
,<rect x="8" y="2" width="1" height="1" fill="#0e0e0e" />
,<rect x="8" y="3" width="1" height="1" fill="#8a8a8a" />
,<rect x="8" y="4" width="1" height="1" fill="#f1f1f1" />
,<rect x="8" y="5" width="1" height="1" fill="#ffffff" />
,<rect x="8" y="6" width="1" height="1" fill="#f7f7f7" />
,<rect x="8" y="7" width="1" height="1" fill="#cfcfcf" />
,<rect x="8" y="8" width="1" height="1" fill="#bcbcbc" />
,<rect x="8" y="9" width="1" height="1" fill="#e2e2e2" />
,<rect x="9" y="0" width="1" height="1" fill="#a9a9a9" />
,<rect x="9" y="1" width="1" height="1" fill="#101010" />
,<rect x="9" y="2" width="1" height="1" fill="#3e3e3e" />
,<rect x="9" y="3" width="1" height="1" fill="#c5c5c5" />
,<rect x="9" y="4" width="1" height="1" fill="#fcfcfc" />
,<rect x="9" y="5" width="1" height="1" fill="#fefefe" />
,<rect x="9" y="6" width="1" height="1" fill="#cccccc" />
,<rect x="9" y="7" width="1" height="1" fill="#4b4b4b" />
,<rect x="9" y="8" width="1" height="1" fill="#2a2a2a" />
,<rect x="9" y="9" width="1" height="1" fill="#bcbcbc" />

  </g>
</svg>