<svg width="800" height="1000" version="1.1" xmlns="http://www.w3.org/2000/svg" xmlns:xlink="http://www.w3.org/1999/xlink">
  <defs>
      <linearGradient id="Gradient2" x1="0" x2="1" y1="0" y2="1">
        <stop offset="0%" stop-color="#2d3c96"/>
        <stop offset="100%" stop-color="#d53392"/>
      </linearGradient>
  </defs>
  <rect x="10" y="10" width="780" height="980" fill="url(#Gradient2)" rx="50" ry="50" stroke="#ffd700" stroke-width="20"/>
  <text x="400" y="920" width="780" text-anchor="middle" style="font: bold 200px 'Helvetica Neue'; fill: #ffd700">00530</text>

  <g transform="translate(80 80) scale(64)">
<rect x="0" y="0" width="1" height="1" fill="#000000" />
,<rect x="0" y="1" width="1" height="1" fill="#000000" />
,<rect x="0" y="2" width="1" height="1" fill="#000000" />
,<rect x="0" y="3" width="1" height="1" fill="#000000" />
,<rect x="0" y="4" width="1" height="1" fill="#000000" />
,<rect x="0" y="5" width="1" height="1" fill="#000000" />
,<rect x="0" y="6" width="1" height="1" fill="#000000" />
,<rect x="0" y="7" width="1" height="1" fill="#000000" />
,<rect x="0" y="8" width="1" height="1" fill="#000000" />
,<rect x="0" y="9" width="1" height="1" fill="#000000" />
,<rect x="1" y="0" width="1" height="1" fill="#aab2bd" />
,<rect x="1" y="1" width="1" height="1" fill="#acb4bf" />
,<rect x="1" y="2" width="1" height="1" fill="#aeb6c1" />
,<rect x="1" y="3" width="1" height="1" fill="#b0b8c3" />
,<rect x="1" y="4" width="1" height="1" fill="#b1b9c4" />
,<rect x="1" y="5" width="1" height="1" fill="#b3bbc5" />
,<rect x="1" y="6" width="1" height="1" fill="#b3bbc6" />
,<rect x="1" y="7" width="1" height="1" fill="#b3bbc6" />
,<rect x="1" y="8" width="1" height="1" fill="#b4bcc6" />
,<rect x="1" y="9" width="1" height="1" fill="#b4bdc7" />
,<rect x="2" y="0" width="1" height="1" fill="#abb2bc" />
,<rect x="2" y="1" width="1" height="1" fill="#adb4be" />
,<rect x="2" y="2" width="1" height="1" fill="#adb5bf" />
,<rect x="2" y="3" width="1" height="1" fill="#adb5c0" />
,<rect x="2" y="4" width="1" height="1" fill="#aeb7c2" />
,<rect x="2" y="5" width="1" height="1" fill="#b0b8c2" />
,<rect x="2" y="6" width="1" height="1" fill="#b2b9c3" />
,<rect x="2" y="7" width="1" height="1" fill="#b1b9c2" />
,<rect x="2" y="8" width="1" height="1" fill="#b3bcc6" />
,<rect x="2" y="9" width="1" height="1" fill="#b5bdc6" />
,<rect x="3" y="0" width="1" height="1" fill="#abb2bc" />
,<rect x="3" y="1" width="1" height="1" fill="#adb4be" />
,<rect x="3" y="2" width="1" height="1" fill="#acb4be" />
,<rect x="3" y="3" width="1" height="1" fill="#acb4bf" />
,<rect x="3" y="4" width="1" height="1" fill="#adb5c0" />
,<rect x="3" y="5" width="1" height="1" fill="#b0b8c2" />
,<rect x="3" y="6" width="1" height="1" fill="#b1b8c2" />
,<rect x="3" y="7" width="1" height="1" fill="#b0b6c0" />
,<rect x="3" y="8" width="1" height="1" fill="#acb1bb" />
,<rect x="3" y="9" width="1" height="1" fill="#a5a9b1" />
,<rect x="4" y="0" width="1" height="1" fill="#a9b0ba" />
,<rect x="4" y="1" width="1" height="1" fill="#abb2bc" />
,<rect x="4" y="2" width="1" height="1" fill="#abb3bd" />
,<rect x="4" y="3" width="1" height="1" fill="#abb3bd" />
,<rect x="4" y="4" width="1" height="1" fill="#aab0b9" />
,<rect x="4" y="5" width="1" height="1" fill="#a6acb4" />
,<rect x="4" y="6" width="1" height="1" fill="#9699a0" />
,<rect x="4" y="7" width="1" height="1" fill="#8d9195" />
,<rect x="4" y="8" width="1" height="1" fill="#85858a" />
,<rect x="4" y="9" width="1" height="1" fill="#6d6b6f" />
,<rect x="5" y="0" width="1" height="1" fill="#a6adb7" />
,<rect x="5" y="1" width="1" height="1" fill="#a5adb6" />
,<rect x="5" y="2" width="1" height="1" fill="#9ea5ad" />
,<rect x="5" y="3" width="1" height="1" fill="#85878c" />
,<rect x="5" y="4" width="1" height="1" fill="#706c6d" />
,<rect x="5" y="5" width="1" height="1" fill="#5b5554" />
,<rect x="5" y="6" width="1" height="1" fill="#4a4343" />
,<rect x="5" y="7" width="1" height="1" fill="#3e3637" />
,<rect x="5" y="8" width="1" height="1" fill="#362d2e" />
,<rect x="5" y="9" width="1" height="1" fill="#322929" />
,<rect x="6" y="0" width="1" height="1" fill="#979da5" />
,<rect x="6" y="1" width="1" height="1" fill="#75777b" />
,<rect x="6" y="2" width="1" height="1" fill="#646162" />
,<rect x="6" y="3" width="1" height="1" fill="#524e50" />
,<rect x="6" y="4" width="1" height="1" fill="#4f4948" />
,<rect x="6" y="5" width="1" height="1" fill="#4d4544" />
,<rect x="6" y="6" width="1" height="1" fill="#3f3736" />
,<rect x="6" y="7" width="1" height="1" fill="#393132" />
,<rect x="6" y="8" width="1" height="1" fill="#332a2b" />
,<rect x="6" y="9" width="1" height="1" fill="#382d2e" />
,<rect x="7" y="0" width="1" height="1" fill="#646466" />
,<rect x="7" y="1" width="1" height="1" fill="#686567" />
,<rect x="7" y="2" width="1" height="1" fill="#5d5b5e" />
,<rect x="7" y="3" width="1" height="1" fill="#58575c" />
,<rect x="7" y="4" width="1" height="1" fill="#555356" />
,<rect x="7" y="5" width="1" height="1" fill="#4a4849" />
,<rect x="7" y="6" width="1" height="1" fill="#444140" />
,<rect x="7" y="7" width="1" height="1" fill="#3b3535" />
,<rect x="7" y="8" width="1" height="1" fill="#332b2b" />
,<rect x="7" y="9" width="1" height="1" fill="#2c2626" />
,<rect x="8" y="0" width="1" height="1" fill="#727274" />
,<rect x="8" y="1" width="1" height="1" fill="#65666a" />
,<rect x="8" y="2" width="1" height="1" fill="#67676c" />
,<rect x="8" y="3" width="1" height="1" fill="#838388" />
,<rect x="8" y="4" width="1" height="1" fill="#707276" />
,<rect x="8" y="5" width="1" height="1" fill="#5f5f63" />
,<rect x="8" y="6" width="1" height="1" fill="#454344" />
,<rect x="8" y="7" width="1" height="1" fill="#302a29" />
,<rect x="8" y="8" width="1" height="1" fill="#2b2525" />
,<rect x="8" y="9" width="1" height="1" fill="#322c2c" />
,<rect x="9" y="0" width="1" height="1" fill="#545358" />
,<rect x="9" y="1" width="1" height="1" fill="#5a595e" />
,<rect x="9" y="2" width="1" height="1" fill="#848488" />
,<rect x="9" y="3" width="1" height="1" fill="#838489" />
,<rect x="9" y="4" width="1" height="1" fill="#77767c" />
,<rect x="9" y="5" width="1" height="1" fill="#6e6b70" />
,<rect x="9" y="6" width="1" height="1" fill="#514c4d" />
,<rect x="9" y="7" width="1" height="1" fill="#382f2e" />
,<rect x="9" y="8" width="1" height="1" fill="#382f2f" />
,<rect x="9" y="9" width="1" height="1" fill="#433837" />

  </g>
</svg>