<svg width="800" height="1000" xmlns="http://www.w3.org/2000/svg"><defs><linearGradient id="g" x1="0" x2="1" y1="0" y2="1"><stop offset="0%" stop-color="#2d3c96"/><stop offset="100%" stop-color="#d53392"/></linearGradient></defs><rect x="10" y="10" width="780" height="980" fill="url(#g)" rx="50" ry="50" stroke="gold" stroke-width="20"/><text x="400" y="920" width="780" text-anchor="middle" style="font:bold 200px 'Helvetica Neue';fill:gold">00532</text><g transform="translate(80 80) scale(64)"><rect x="0" y="0" width="1" height="1" fill="#373236" /><rect x="0" y="1" width="1" height="1" fill="#3a3436" /><rect x="0" y="2" width="1" height="1" fill="#3b3436" /><rect x="0" y="3" width="1" height="1" fill="#393131" /><rect x="0" y="4" width="1" height="1" fill="#342b2c" /><rect x="0" y="5" width="1" height="1" fill="#302727" /><rect x="0" y="6" width="1" height="1" fill="#362d2e" /><rect x="0" y="7" width="1" height="1" fill="#3d3537" /><rect x="0" y="8" width="1" height="1" fill="#423c3e" /><rect x="0" y="9" width="1" height="1" fill="#3c3436" /><rect x="1" y="0" width="1" height="1" fill="#6e686a" /><rect x="1" y="1" width="1" height="1" fill="#423d3d" /><rect x="1" y="2" width="1" height="1" fill="#382f30" /><rect x="1" y="3" width="1" height="1" fill="#3d3434" /><rect x="1" y="4" width="1" height="1" fill="#3e3435" /><rect x="1" y="5" width="1" height="1" fill="#3b3131" /><rect x="1" y="6" width="1" height="1" fill="#352c2b" /><rect x="1" y="7" width="1" height="1" fill="#302728" /><rect x="1" y="8" width="1" height="1" fill="#2d2526" /><rect x="1" y="9" width="1" height="1" fill="#2f2627" /><rect x="2" y="0" width="1" height="1" fill="#9d9da2" /><rect x="2" y="1" width="1" height="1" fill="#8a898d" /><rect x="2" y="2" width="1" height="1" fill="#686266" /><rect x="2" y="3" width="1" height="1" fill="#4b4445" /><rect x="2" y="4" width="1" height="1" fill="#392f30" /><rect x="2" y="5" width="1" height="1" fill="#322829" /><rect x="2" y="6" width="1" height="1" fill="#302627" /><rect x="2" y="7" width="1" height="1" fill="#2f2627" /><rect x="2" y="8" width="1" height="1" fill="#302728" /><rect x="2" y="9" width="1" height="1" fill="#342b2b" /><rect x="3" y="0" width="1" height="1" fill="#a3a7b1" /><rect x="3" y="1" width="1" height="1" fill="#a4a7b3" /><rect x="3" y="2" width="1" height="1" fill="#a2a2ad" /><rect x="3" y="3" width="1" height="1" fill="#95949b" /><rect x="3" y="4" width="1" height="1" fill="#79767b" /><rect x="3" y="5" width="1" height="1" fill="#5d595b" /><rect x="3" y="6" width="1" height="1" fill="#50494b" /><rect x="3" y="7" width="1" height="1" fill="#3f3839" /><rect x="3" y="8" width="1" height="1" fill="#3d3535" /><rect x="3" y="9" width="1" height="1" fill="#3e3637" /><rect x="4" y="0" width="1" height="1" fill="#9da1ad" /><rect x="4" y="1" width="1" height="1" fill="#9ea3af" /><rect x="4" y="2" width="1" height="1" fill="#a0a5b1" /><rect x="4" y="3" width="1" height="1" fill="#a7aab5" /><rect x="4" y="4" width="1" height="1" fill="#a6a8b3" /><rect x="4" y="5" width="1" height="1" fill="#9c9ea6" /><rect x="4" y="6" width="1" height="1" fill="#939299" /><rect x="4" y="7" width="1" height="1" fill="#86878c" /><rect x="4" y="8" width="1" height="1" fill="#828186" /><rect x="4" y="9" width="1" height="1" fill="#7f7e82" /><rect x="5" y="0" width="1" height="1" fill="#8c929d" /><rect x="5" y="1" width="1" height="1" fill="#878e9a" /><rect x="5" y="2" width="1" height="1" fill="#8a909b" /><rect x="5" y="3" width="1" height="1" fill="#979ba6" /><rect x="5" y="4" width="1" height="1" fill="#a1a5b1" /><rect x="5" y="5" width="1" height="1" fill="#a3a7b3" /><rect x="5" y="6" width="1" height="1" fill="#a6aab6" /><rect x="5" y="7" width="1" height="1" fill="#a9adb8" /><rect x="5" y="8" width="1" height="1" fill="#b0b4bd" /><rect x="5" y="9" width="1" height="1" fill="#b4b8c0" /><rect x="6" y="0" width="1" height="1" fill="#000000" /><rect x="6" y="1" width="1" height="1" fill="#000000" /><rect x="6" y="2" width="1" height="1" fill="#000000" /><rect x="6" y="3" width="1" height="1" fill="#000000" /><rect x="6" y="4" width="1" height="1" fill="#000000" /><rect x="6" y="5" width="1" height="1" fill="#000000" /><rect x="6" y="6" width="1" height="1" fill="#000000" /><rect x="6" y="7" width="1" height="1" fill="#000000" /><rect x="6" y="8" width="1" height="1" fill="#000000" /><rect x="6" y="9" width="1" height="1" fill="#000000" /><rect x="7" y="0" width="1" height="1" fill="#000000" /><rect x="7" y="1" width="1" height="1" fill="#000000" /><rect x="7" y="2" width="1" height="1" fill="#000000" /><rect x="7" y="3" width="1" height="1" fill="#000000" /><rect x="7" y="4" width="1" height="1" fill="#000000" /><rect x="7" y="5" width="1" height="1" fill="#000000" /><rect x="7" y="6" width="1" height="1" fill="#000000" /><rect x="7" y="7" width="1" height="1" fill="#000000" /><rect x="7" y="8" width="1" height="1" fill="#000000" /><rect x="7" y="9" width="1" height="1" fill="#000000" /><rect x="8" y="0" width="1" height="1" fill="#aeaeae" /><rect x="8" y="1" width="1" height="1" fill="#aeaeae" /><rect x="8" y="2" width="1" height="1" fill="#aeaeae" /><rect x="8" y="3" width="1" height="1" fill="#aeaeae" /><rect x="8" y="4" width="1" height="1" fill="#aeaeae" /><rect x="8" y="5" width="1" height="1" fill="#aeaeae" /><rect x="8" y="6" width="1" height="1" fill="#aeaeae" /><rect x="8" y="7" width="1" height="1" fill="#aeaeae" /><rect x="8" y="8" width="1" height="1" fill="#aeaeae" /><rect x="8" y="9" width="1" height="1" fill="#aeaeae" /><rect x="9" y="0" width="1" height="1" fill="#000000" /><rect x="9" y="1" width="1" height="1" fill="#000000" /><rect x="9" y="2" width="1" height="1" fill="#000000" /><rect x="9" y="3" width="1" height="1" fill="#000000" /><rect x="9" y="4" width="1" height="1" fill="#000000" /><rect x="9" y="5" width="1" height="1" fill="#000000" /><rect x="9" y="6" width="1" height="1" fill="#000000" /><rect x="9" y="7" width="1" height="1" fill="#000000" /><rect x="9" y="8" width="1" height="1" fill="#000000" /><rect x="9" y="9" width="1" height="1" fill="#000000" /></g></svg>