<svg width="800" height="1000" version="1.1" xmlns="http://www.w3.org/2000/svg" xmlns:xlink="http://www.w3.org/1999/xlink">
  <defs>
      <linearGradient id="Gradient2" x1="0" x2="1" y1="0" y2="1">
        <stop offset="0%" stop-color="#2d3c96"/>
        <stop offset="100%" stop-color="#d53392"/>
      </linearGradient>
  </defs>
  <rect x="10" y="10" width="780" height="980" fill="url(#Gradient2)" rx="50" ry="50" stroke="#ffd700" stroke-width="20"/>
  <text x="400" y="920" width="780" text-anchor="middle" style="font: bold 200px 'Helvetica Neue'; fill: #ffd700">00531</text>

  <g transform="translate(80 80) scale(64)">
<rect x="0" y="0" width="1" height="1" fill="#49484d" />
,<rect x="0" y="1" width="1" height="1" fill="#5b5a5f" />
,<rect x="0" y="2" width="1" height="1" fill="#6f6e73" />
,<rect x="0" y="3" width="1" height="1" fill="#69686d" />
,<rect x="0" y="4" width="1" height="1" fill="#6e6e73" />
,<rect x="0" y="5" width="1" height="1" fill="#76767b" />
,<rect x="0" y="6" width="1" height="1" fill="#595658" />
,<rect x="0" y="7" width="1" height="1" fill="#4a4040" />
,<rect x="0" y="8" width="1" height="1" fill="#584745" />
,<rect x="0" y="9" width="1" height="1" fill="#775e59" />
,<rect x="1" y="0" width="1" height="1" fill="#434146" />
,<rect x="1" y="1" width="1" height="1" fill="#4c4b50" />
,<rect x="1" y="2" width="1" height="1" fill="#4f4e52" />
,<rect x="1" y="3" width="1" height="1" fill="#4e4d52" />
,<rect x="1" y="4" width="1" height="1" fill="#57585b" />
,<rect x="1" y="5" width="1" height="1" fill="#717076" />
,<rect x="1" y="6" width="1" height="1" fill="#716668" />
,<rect x="1" y="7" width="1" height="1" fill="#866e6c" />
,<rect x="1" y="8" width="1" height="1" fill="#a58782" />
,<rect x="1" y="9" width="1" height="1" fill="#c4a39b" />
,<rect x="2" y="0" width="1" height="1" fill="#343237" />
,<rect x="2" y="1" width="1" height="1" fill="#3f3e41" />
,<rect x="2" y="2" width="1" height="1" fill="#3c393a" />
,<rect x="2" y="3" width="1" height="1" fill="#3a363a" />
,<rect x="2" y="4" width="1" height="1" fill="#3c363a" />
,<rect x="2" y="5" width="1" height="1" fill="#5b4b4b" />
,<rect x="2" y="6" width="1" height="1" fill="#9b827d" />
,<rect x="2" y="7" width="1" height="1" fill="#baa09b" />
,<rect x="2" y="8" width="1" height="1" fill="#c1a49e" />
,<rect x="2" y="9" width="1" height="1" fill="#ccada5" />
,<rect x="3" y="0" width="1" height="1" fill="#393434" />
,<rect x="3" y="1" width="1" height="1" fill="#484242" />
,<rect x="3" y="2" width="1" height="1" fill="#403a3a" />
,<rect x="3" y="3" width="1" height="1" fill="#383234" />
,<rect x="3" y="4" width="1" height="1" fill="#342d2e" />
,<rect x="3" y="5" width="1" height="1" fill="#685a5a" />
,<rect x="3" y="6" width="1" height="1" fill="#ae9693" />
,<rect x="3" y="7" width="1" height="1" fill="#bfa4a0" />
,<rect x="3" y="8" width="1" height="1" fill="#c4a7a1" />
,<rect x="3" y="9" width="1" height="1" fill="#cfaea6" />
,<rect x="4" y="0" width="1" height="1" fill="#494242" />
,<rect x="4" y="1" width="1" height="1" fill="#544c4d" />
,<rect x="4" y="2" width="1" height="1" fill="#453e3f" />
,<rect x="4" y="3" width="1" height="1" fill="#342f31" />
,<rect x="4" y="4" width="1" height="1" fill="#342e2f" />
,<rect x="4" y="5" width="1" height="1" fill="#5d514f" />
,<rect x="4" y="6" width="1" height="1" fill="#947d79" />
,<rect x="4" y="7" width="1" height="1" fill="#ac8e8a" />
,<rect x="4" y="8" width="1" height="1" fill="#b79590" />
,<rect x="4" y="9" width="1" height="1" fill="#cba9a3" />
,<rect x="5" y="0" width="1" height="1" fill="#373236" />
,<rect x="5" y="1" width="1" height="1" fill="#413e41" />
,<rect x="5" y="2" width="1" height="1" fill="#514e52" />
,<rect x="5" y="3" width="1" height="1" fill="#4c4a4f" />
,<rect x="5" y="4" width="1" height="1" fill="#353235" />
,<rect x="5" y="5" width="1" height="1" fill="#4e4749" />
,<rect x="5" y="6" width="1" height="1" fill="#685758" />
,<rect x="5" y="7" width="1" height="1" fill="#8c6e6b" />
,<rect x="5" y="8" width="1" height="1" fill="#a98681" />
,<rect x="5" y="9" width="1" height="1" fill="#bd9c95" />
,<rect x="6" y="0" width="1" height="1" fill="#535055" />
,<rect x="6" y="1" width="1" height="1" fill="#56555a" />
,<rect x="6" y="2" width="1" height="1" fill="#68676c" />
,<rect x="6" y="3" width="1" height="1" fill="#6f6c71" />
,<rect x="6" y="4" width="1" height="1" fill="#575459" />
,<rect x="6" y="5" width="1" height="1" fill="#433e40" />
,<rect x="6" y="6" width="1" height="1" fill="#574c4e" />
,<rect x="6" y="7" width="1" height="1" fill="#5f4b49" />
,<rect x="6" y="8" width="1" height="1" fill="#7c5e5a" />
,<rect x="6" y="9" width="1" height="1" fill="#967773" />
,<rect x="7" y="0" width="1" height="1" fill="#6a6569" />
,<rect x="7" y="1" width="1" height="1" fill="#716e73" />
,<rect x="7" y="2" width="1" height="1" fill="#68646b" />
,<rect x="7" y="3" width="1" height="1" fill="#706c72" />
,<rect x="7" y="4" width="1" height="1" fill="#676369" />
,<rect x="7" y="5" width="1" height="1" fill="#4f494c" />
,<rect x="7" y="6" width="1" height="1" fill="#403537" />
,<rect x="7" y="7" width="1" height="1" fill="#473535" />
,<rect x="7" y="8" width="1" height="1" fill="#523c3a" />
,<rect x="7" y="9" width="1" height="1" fill="#5f4643" />
,<rect x="8" y="0" width="1" height="1" fill="#5c575a" />
,<rect x="8" y="1" width="1" height="1" fill="#686367" />
,<rect x="8" y="2" width="1" height="1" fill="#5d575d" />
,<rect x="8" y="3" width="1" height="1" fill="#554d51" />
,<rect x="8" y="4" width="1" height="1" fill="#585054" />
,<rect x="8" y="5" width="1" height="1" fill="#554b4d" />
,<rect x="8" y="6" width="1" height="1" fill="#423536" />
,<rect x="8" y="7" width="1" height="1" fill="#423233" />
,<rect x="8" y="8" width="1" height="1" fill="#4c393a" />
,<rect x="8" y="9" width="1" height="1" fill="#4c3734" />
,<rect x="9" y="0" width="1" height="1" fill="#423e43" />
,<rect x="9" y="1" width="1" height="1" fill="#484345" />
,<rect x="9" y="2" width="1" height="1" fill="#463f42" />
,<rect x="9" y="3" width="1" height="1" fill="#443b3e" />
,<rect x="9" y="4" width="1" height="1" fill="#40383a" />
,<rect x="9" y="5" width="1" height="1" fill="#3e3738" />
,<rect x="9" y="6" width="1" height="1" fill="#332b2c" />
,<rect x="9" y="7" width="1" height="1" fill="#342729" />
,<rect x="9" y="8" width="1" height="1" fill="#3a2b2d" />
,<rect x="9" y="9" width="1" height="1" fill="#463232" />

  </g>
</svg>