<svg width="800" height="1000" version="1.1" xmlns="http://www.w3.org/2000/svg" xmlns:xlink="http://www.w3.org/1999/xlink">
  <defs>
      <linearGradient id="Gradient2" x1="0" x2="1" y1="0" y2="1">
        <stop offset="0%" stop-color="#2d3c96"/>
        <stop offset="100%" stop-color="#d53392"/>
      </linearGradient>
  </defs>
  <rect x="10" y="10" width="780" height="980" fill="url(#Gradient2)" rx="50" ry="50" stroke="#ffd700" stroke-width="20"/>
  <text x="400" y="920" width="780" text-anchor="middle" style="font: bold 200px 'Helvetica Neue'; fill: #ffd700">00531</text>

  <g transform="translate(80 80) scale(64)">
<rect x="0" y="0" width="1" height="1" fill="#49484D" /><rect x="1" y="0" width="1" height="1" fill="#434146" /><rect x="2" y="0" width="1" height="1" fill="#343237" /><rect x="3" y="0" width="1" height="1" fill="#393434" /><rect x="4" y="0" width="1" height="1" fill="#494242" /><rect x="5" y="0" width="1" height="1" fill="#373236" /><rect x="6" y="0" width="1" height="1" fill="#535055" /><rect x="7" y="0" width="1" height="1" fill="#6A6569" /><rect x="8" y="0" width="1" height="1" fill="#5C575A" /><rect x="9" y="0" width="1" height="1" fill="#423E43" /><rect x="0" y="1" width="1" height="1" fill="#5B5A5F" /><rect x="1" y="1" width="1" height="1" fill="#4C4B50" /><rect x="2" y="1" width="1" height="1" fill="#3F3E41" /><rect x="3" y="1" width="1" height="1" fill="#484242" /><rect x="4" y="1" width="1" height="1" fill="#544C4D" /><rect x="5" y="1" width="1" height="1" fill="#413E41" /><rect x="6" y="1" width="1" height="1" fill="#56555A" /><rect x="7" y="1" width="1" height="1" fill="#716E73" /><rect x="8" y="1" width="1" height="1" fill="#686367" /><rect x="9" y="1" width="1" height="1" fill="#484345" /><rect x="0" y="2" width="1" height="1" fill="#6F6E73" /><rect x="1" y="2" width="1" height="1" fill="#4F4E52" /><rect x="2" y="2" width="1" height="1" fill="#3C393A" /><rect x="3" y="2" width="1" height="1" fill="#403A3A" /><rect x="4" y="2" width="1" height="1" fill="#453E3F" /><rect x="5" y="2" width="1" height="1" fill="#514E52" /><rect x="6" y="2" width="1" height="1" fill="#68676C" /><rect x="7" y="2" width="1" height="1" fill="#68646B" /><rect x="8" y="2" width="1" height="1" fill="#5D575D" /><rect x="9" y="2" width="1" height="1" fill="#463F42" /><rect x="0" y="3" width="1" height="1" fill="#69686D" /><rect x="1" y="3" width="1" height="1" fill="#4E4D52" /><rect x="2" y="3" width="1" height="1" fill="#3A363A" /><rect x="3" y="3" width="1" height="1" fill="#383234" /><rect x="4" y="3" width="1" height="1" fill="#342F31" /><rect x="5" y="3" width="1" height="1" fill="#4C4A4F" /><rect x="6" y="3" width="1" height="1" fill="#6F6C71" /><rect x="7" y="3" width="1" height="1" fill="#706C72" /><rect x="8" y="3" width="1" height="1" fill="#554D51" /><rect x="9" y="3" width="1" height="1" fill="#443B3E" /><rect x="0" y="4" width="1" height="1" fill="#6E6E73" /><rect x="1" y="4" width="1" height="1" fill="#57585B" /><rect x="2" y="4" width="1" height="1" fill="#3C363A" /><rect x="3" y="4" width="1" height="1" fill="#342D2E" /><rect x="4" y="4" width="1" height="1" fill="#342E2F" /><rect x="5" y="4" width="1" height="1" fill="#353235" /><rect x="6" y="4" width="1" height="1" fill="#575459" /><rect x="7" y="4" width="1" height="1" fill="#676369" /><rect x="8" y="4" width="1" height="1" fill="#585054" /><rect x="9" y="4" width="1" height="1" fill="#40383A" /><rect x="0" y="5" width="1" height="1" fill="#76767B" /><rect x="1" y="5" width="1" height="1" fill="#717076" /><rect x="2" y="5" width="1" height="1" fill="#5B4B4B" /><rect x="3" y="5" width="1" height="1" fill="#685A5A" /><rect x="4" y="5" width="1" height="1" fill="#5D514F" /><rect x="5" y="5" width="1" height="1" fill="#4E4749" /><rect x="6" y="5" width="1" height="1" fill="#433E40" /><rect x="7" y="5" width="1" height="1" fill="#4F494C" /><rect x="8" y="5" width="1" height="1" fill="#554B4D" /><rect x="9" y="5" width="1" height="1" fill="#3E3738" /><rect x="0" y="6" width="1" height="1" fill="#595658" /><rect x="1" y="6" width="1" height="1" fill="#716668" /><rect x="2" y="6" width="1" height="1" fill="#9B827D" /><rect x="3" y="6" width="1" height="1" fill="#AE9693" /><rect x="4" y="6" width="1" height="1" fill="#947D79" /><rect x="5" y="6" width="1" height="1" fill="#685758" /><rect x="6" y="6" width="1" height="1" fill="#574C4E" /><rect x="7" y="6" width="1" height="1" fill="#403537" /><rect x="8" y="6" width="1" height="1" fill="#423536" /><rect x="9" y="6" width="1" height="1" fill="#332B2C" /><rect x="0" y="7" width="1" height="1" fill="#4A4040" /><rect x="1" y="7" width="1" height="1" fill="#866E6C" /><rect x="2" y="7" width="1" height="1" fill="#BAA09B" /><rect x="3" y="7" width="1" height="1" fill="#BFA4A0" /><rect x="4" y="7" width="1" height="1" fill="#AC8E8A" /><rect x="5" y="7" width="1" height="1" fill="#8C6E6B" /><rect x="6" y="7" width="1" height="1" fill="#5F4B49" /><rect x="7" y="7" width="1" height="1" fill="#473535" /><rect x="8" y="7" width="1" height="1" fill="#423233" /><rect x="9" y="7" width="1" height="1" fill="#342729" /><rect x="0" y="8" width="1" height="1" fill="#584745" /><rect x="1" y="8" width="1" height="1" fill="#A58782" /><rect x="2" y="8" width="1" height="1" fill="#C1A49E" /><rect x="3" y="8" width="1" height="1" fill="#C4A7A1" /><rect x="4" y="8" width="1" height="1" fill="#B79590" /><rect x="5" y="8" width="1" height="1" fill="#A98681" /><rect x="6" y="8" width="1" height="1" fill="#7C5E5A" /><rect x="7" y="8" width="1" height="1" fill="#523C3A" /><rect x="8" y="8" width="1" height="1" fill="#4C393A" /><rect x="9" y="8" width="1" height="1" fill="#3A2B2D" /><rect x="0" y="9" width="1" height="1" fill="#775E59" /><rect x="1" y="9" width="1" height="1" fill="#C4A39B" /><rect x="2" y="9" width="1" height="1" fill="#CCADA5" /><rect x="3" y="9" width="1" height="1" fill="#CFAEA6" /><rect x="4" y="9" width="1" height="1" fill="#CBA9A3" /><rect x="5" y="9" width="1" height="1" fill="#BD9C95" /><rect x="6" y="9" width="1" height="1" fill="#967773" /><rect x="7" y="9" width="1" height="1" fill="#5F4643" /><rect x="8" y="9" width="1" height="1" fill="#4C3734" /><rect x="9" y="9" width="1" height="1" fill="#463232" />
  </g>
</svg>