<svg width="800" height="1000" version="1.1" xmlns="http://www.w3.org/2000/svg" xmlns:xlink="http://www.w3.org/1999/xlink">
  <defs>
      <linearGradient id="Gradient2" x1="0" x2="1" y1="0" y2="1">
        <stop offset="0%" stop-color="#2d3c96"/>
        <stop offset="100%" stop-color="#d53392"/>
      </linearGradient>
  </defs>
  <rect x="10" y="10" width="780" height="980" fill="url(#Gradient2)" rx="50" ry="50" stroke="#ffd700" stroke-width="20"/>
  <text x="400" y="920" width="780" text-anchor="middle" style="font: bold 200px 'Helvetica Neue'; fill: #ffd700">00530</text>

  <g transform="translate(80 80) scale(64)">
<rect x="0" y="0" width="1" height="1" fill="#000000" /><rect x="1" y="0" width="1" height="1" fill="#AAB2BD" /><rect x="2" y="0" width="1" height="1" fill="#ABB2BC" /><rect x="3" y="0" width="1" height="1" fill="#ABB2BC" /><rect x="4" y="0" width="1" height="1" fill="#A9B0BA" /><rect x="5" y="0" width="1" height="1" fill="#A6ADB7" /><rect x="6" y="0" width="1" height="1" fill="#979DA5" /><rect x="7" y="0" width="1" height="1" fill="#646466" /><rect x="8" y="0" width="1" height="1" fill="#727274" /><rect x="9" y="0" width="1" height="1" fill="#545358" /><rect x="0" y="1" width="1" height="1" fill="#000000" /><rect x="1" y="1" width="1" height="1" fill="#ACB4BF" /><rect x="2" y="1" width="1" height="1" fill="#ADB4BE" /><rect x="3" y="1" width="1" height="1" fill="#ADB4BE" /><rect x="4" y="1" width="1" height="1" fill="#ABB2BC" /><rect x="5" y="1" width="1" height="1" fill="#A5ADB6" /><rect x="6" y="1" width="1" height="1" fill="#75777B" /><rect x="7" y="1" width="1" height="1" fill="#686567" /><rect x="8" y="1" width="1" height="1" fill="#65666A" /><rect x="9" y="1" width="1" height="1" fill="#5A595E" /><rect x="0" y="2" width="1" height="1" fill="#000000" /><rect x="1" y="2" width="1" height="1" fill="#AEB6C1" /><rect x="2" y="2" width="1" height="1" fill="#ADB5BF" /><rect x="3" y="2" width="1" height="1" fill="#ACB4BE" /><rect x="4" y="2" width="1" height="1" fill="#ABB3BD" /><rect x="5" y="2" width="1" height="1" fill="#9EA5AD" /><rect x="6" y="2" width="1" height="1" fill="#646162" /><rect x="7" y="2" width="1" height="1" fill="#5D5B5E" /><rect x="8" y="2" width="1" height="1" fill="#67676C" /><rect x="9" y="2" width="1" height="1" fill="#848488" /><rect x="0" y="3" width="1" height="1" fill="#000000" /><rect x="1" y="3" width="1" height="1" fill="#B0B8C3" /><rect x="2" y="3" width="1" height="1" fill="#ADB5C0" /><rect x="3" y="3" width="1" height="1" fill="#ACB4BF" /><rect x="4" y="3" width="1" height="1" fill="#ABB3BD" /><rect x="5" y="3" width="1" height="1" fill="#85878C" /><rect x="6" y="3" width="1" height="1" fill="#524E50" /><rect x="7" y="3" width="1" height="1" fill="#58575C" /><rect x="8" y="3" width="1" height="1" fill="#838388" /><rect x="9" y="3" width="1" height="1" fill="#838489" /><rect x="0" y="4" width="1" height="1" fill="#000000" /><rect x="1" y="4" width="1" height="1" fill="#B1B9C4" /><rect x="2" y="4" width="1" height="1" fill="#AEB7C2" /><rect x="3" y="4" width="1" height="1" fill="#ADB5C0" /><rect x="4" y="4" width="1" height="1" fill="#AAB0B9" /><rect x="5" y="4" width="1" height="1" fill="#706C6D" /><rect x="6" y="4" width="1" height="1" fill="#4F4948" /><rect x="7" y="4" width="1" height="1" fill="#555356" /><rect x="8" y="4" width="1" height="1" fill="#707276" /><rect x="9" y="4" width="1" height="1" fill="#77767C" /><rect x="0" y="5" width="1" height="1" fill="#000000" /><rect x="1" y="5" width="1" height="1" fill="#B3BBC5" /><rect x="2" y="5" width="1" height="1" fill="#B0B8C2" /><rect x="3" y="5" width="1" height="1" fill="#B0B8C2" /><rect x="4" y="5" width="1" height="1" fill="#A6ACB4" /><rect x="5" y="5" width="1" height="1" fill="#5B5554" /><rect x="6" y="5" width="1" height="1" fill="#4D4544" /><rect x="7" y="5" width="1" height="1" fill="#4A4849" /><rect x="8" y="5" width="1" height="1" fill="#5F5F63" /><rect x="9" y="5" width="1" height="1" fill="#6E6B70" /><rect x="0" y="6" width="1" height="1" fill="#000000" /><rect x="1" y="6" width="1" height="1" fill="#B3BBC6" /><rect x="2" y="6" width="1" height="1" fill="#B2B9C3" /><rect x="3" y="6" width="1" height="1" fill="#B1B8C2" /><rect x="4" y="6" width="1" height="1" fill="#9699A0" /><rect x="5" y="6" width="1" height="1" fill="#4A4343" /><rect x="6" y="6" width="1" height="1" fill="#3F3736" /><rect x="7" y="6" width="1" height="1" fill="#444140" /><rect x="8" y="6" width="1" height="1" fill="#454344" /><rect x="9" y="6" width="1" height="1" fill="#514C4D" /><rect x="0" y="7" width="1" height="1" fill="#000000" /><rect x="1" y="7" width="1" height="1" fill="#B3BBC6" /><rect x="2" y="7" width="1" height="1" fill="#B1B9C2" /><rect x="3" y="7" width="1" height="1" fill="#B0B6C0" /><rect x="4" y="7" width="1" height="1" fill="#8D9195" /><rect x="5" y="7" width="1" height="1" fill="#3E3637" /><rect x="6" y="7" width="1" height="1" fill="#393132" /><rect x="7" y="7" width="1" height="1" fill="#3B3535" /><rect x="8" y="7" width="1" height="1" fill="#302A29" /><rect x="9" y="7" width="1" height="1" fill="#382F2E" /><rect x="0" y="8" width="1" height="1" fill="#000000" /><rect x="1" y="8" width="1" height="1" fill="#B4BCC6" /><rect x="2" y="8" width="1" height="1" fill="#B3BCC6" /><rect x="3" y="8" width="1" height="1" fill="#ACB1BB" /><rect x="4" y="8" width="1" height="1" fill="#85858A" /><rect x="5" y="8" width="1" height="1" fill="#362D2E" /><rect x="6" y="8" width="1" height="1" fill="#332A2B" /><rect x="7" y="8" width="1" height="1" fill="#332B2B" /><rect x="8" y="8" width="1" height="1" fill="#2B2525" /><rect x="9" y="8" width="1" height="1" fill="#382F2F" /><rect x="0" y="9" width="1" height="1" fill="#000000" /><rect x="1" y="9" width="1" height="1" fill="#B4BDC7" /><rect x="2" y="9" width="1" height="1" fill="#B5BDC6" /><rect x="3" y="9" width="1" height="1" fill="#A5A9B1" /><rect x="4" y="9" width="1" height="1" fill="#6D6B6F" /><rect x="5" y="9" width="1" height="1" fill="#322929" /><rect x="6" y="9" width="1" height="1" fill="#382D2E" /><rect x="7" y="9" width="1" height="1" fill="#2C2626" /><rect x="8" y="9" width="1" height="1" fill="#322C2C" /><rect x="9" y="9" width="1" height="1" fill="#433837" />
  </g>
</svg>