<svg width="800" height="1000" version="1.1" xmlns="http://www.w3.org/2000/svg" xmlns:xlink="http://www.w3.org/1999/xlink">
  <defs>
      <linearGradient id="Gradient2" x1="0" x2="1" y1="0" y2="1">
        <stop offset="0%" stop-color="#2d3c96"/>
        <stop offset="100%" stop-color="#d53392"/>
      </linearGradient>
  </defs>
  <rect x="10" y="10" width="780" height="980" fill="url(#Gradient2)" rx="50" ry="50" stroke="#ffd700" stroke-width="20"/>
  <text x="400" y="920" width="780" text-anchor="middle" style="font: bold 200px 'Helvetica Neue'; fill: #ffd700">00613</text>

  <g transform="translate(80 80) scale(64)">
<rect x="0" y="0" width="1" height="1" fill="#ffffff" />
,<rect x="0" y="1" width="1" height="1" fill="#ffffff" />
,<rect x="0" y="2" width="1" height="1" fill="#ffffff" />
,<rect x="0" y="3" width="1" height="1" fill="#ffffff" />
,<rect x="0" y="4" width="1" height="1" fill="#ffffff" />
,<rect x="0" y="5" width="1" height="1" fill="#ffffff" />
,<rect x="0" y="6" width="1" height="1" fill="#ffffff" />
,<rect x="0" y="7" width="1" height="1" fill="#ffffff" />
,<rect x="0" y="8" width="1" height="1" fill="#ffffff" />
,<rect x="0" y="9" width="1" height="1" fill="#ffffff" />
,<rect x="1" y="0" width="1" height="1" fill="#cacaca" />
,<rect x="1" y="1" width="1" height="1" fill="#d7d7d7" />
,<rect x="1" y="2" width="1" height="1" fill="#dcdcdc" />
,<rect x="1" y="3" width="1" height="1" fill="#eaeaea" />
,<rect x="1" y="4" width="1" height="1" fill="#f9f9f9" />
,<rect x="1" y="5" width="1" height="1" fill="#ffffff" />
,<rect x="1" y="6" width="1" height="1" fill="#ffffff" />
,<rect x="1" y="7" width="1" height="1" fill="#ffffff" />
,<rect x="1" y="8" width="1" height="1" fill="#ffffff" />
,<rect x="1" y="9" width="1" height="1" fill="#ffffff" />
,<rect x="2" y="0" width="1" height="1" fill="#3c3c3c" />
,<rect x="2" y="1" width="1" height="1" fill="#414141" />
,<rect x="2" y="2" width="1" height="1" fill="#484848" />
,<rect x="2" y="3" width="1" height="1" fill="#6a6a6a" />
,<rect x="2" y="4" width="1" height="1" fill="#a1a1a1" />
,<rect x="2" y="5" width="1" height="1" fill="#d8d8d8" />
,<rect x="2" y="6" width="1" height="1" fill="#f9f9f9" />
,<rect x="2" y="7" width="1" height="1" fill="#ffffff" />
,<rect x="2" y="8" width="1" height="1" fill="#ffffff" />
,<rect x="2" y="9" width="1" height="1" fill="#ffffff" />
,<rect x="3" y="0" width="1" height="1" fill="#b2b2b2" />
,<rect x="3" y="1" width="1" height="1" fill="#585858" />
,<rect x="3" y="2" width="1" height="1" fill="#030303" />
,<rect x="3" y="3" width="1" height="1" fill="#000000" />
,<rect x="3" y="4" width="1" height="1" fill="#0e0e0e" />
,<rect x="3" y="5" width="1" height="1" fill="#585858" />
,<rect x="3" y="6" width="1" height="1" fill="#c4c4c4" />
,<rect x="3" y="7" width="1" height="1" fill="#fcfcfc" />
,<rect x="3" y="8" width="1" height="1" fill="#ffffff" />
,<rect x="3" y="9" width="1" height="1" fill="#ffffff" />
,<rect x="4" y="0" width="1" height="1" fill="#e0e0e0" />
,<rect x="4" y="1" width="1" height="1" fill="#b2b2b2" />
,<rect x="4" y="2" width="1" height="1" fill="#464646" />
,<rect x="4" y="3" width="1" height="1" fill="#000000" />
,<rect x="4" y="4" width="1" height="1" fill="#000000" />
,<rect x="4" y="5" width="1" height="1" fill="#000000" />
,<rect x="4" y="6" width="1" height="1" fill="#7d7d7d" />
,<rect x="4" y="7" width="1" height="1" fill="#f1f1f1" />
,<rect x="4" y="8" width="1" height="1" fill="#ffffff" />
,<rect x="4" y="9" width="1" height="1" fill="#ffffff" />
,<rect x="5" y="0" width="1" height="1" fill="#5b5b5b" />
,<rect x="5" y="1" width="1" height="1" fill="#606060" />
,<rect x="5" y="2" width="1" height="1" fill="#343434" />
,<rect x="5" y="3" width="1" height="1" fill="#080808" />
,<rect x="5" y="4" width="1" height="1" fill="#3a3a3a" />
,<rect x="5" y="5" width="1" height="1" fill="#444444" />
,<rect x="5" y="6" width="1" height="1" fill="#7a7a7a" />
,<rect x="5" y="7" width="1" height="1" fill="#efefef" />
,<rect x="5" y="8" width="1" height="1" fill="#ffffff" />
,<rect x="5" y="9" width="1" height="1" fill="#ffffff" />
,<rect x="6" y="0" width="1" height="1" fill="#000000" />
,<rect x="6" y="1" width="1" height="1" fill="#000000" />
,<rect x="6" y="2" width="1" height="1" fill="#000000" />
,<rect x="6" y="3" width="1" height="1" fill="#080808" />
,<rect x="6" y="4" width="1" height="1" fill="#4e4e4e" />
,<rect x="6" y="5" width="1" height="1" fill="#888888" />
,<rect x="6" y="6" width="1" height="1" fill="#c0c0c0" />
,<rect x="6" y="7" width="1" height="1" fill="#f8f8f8" />
,<rect x="6" y="8" width="1" height="1" fill="#ffffff" />
,<rect x="6" y="9" width="1" height="1" fill="#ffffff" />
,<rect x="7" y="0" width="1" height="1" fill="#545454" />
,<rect x="7" y="1" width="1" height="1" fill="#000000" />
,<rect x="7" y="2" width="1" height="1" fill="#000000" />
,<rect x="7" y="3" width="1" height="1" fill="#000000" />
,<rect x="7" y="4" width="1" height="1" fill="#010101" />
,<rect x="7" y="5" width="1" height="1" fill="#2d2d2d" />
,<rect x="7" y="6" width="1" height="1" fill="#787878" />
,<rect x="7" y="7" width="1" height="1" fill="#c8c8c8" />
,<rect x="7" y="8" width="1" height="1" fill="#f7f7f7" />
,<rect x="7" y="9" width="1" height="1" fill="#ffffff" />
,<rect x="8" y="0" width="1" height="1" fill="#b7b7b7" />
,<rect x="8" y="1" width="1" height="1" fill="#2a2a2a" />
,<rect x="8" y="2" width="1" height="1" fill="#000000" />
,<rect x="8" y="3" width="1" height="1" fill="#000000" />
,<rect x="8" y="4" width="1" height="1" fill="#000000" />
,<rect x="8" y="5" width="1" height="1" fill="#000000" />
,<rect x="8" y="6" width="1" height="1" fill="#010101" />
,<rect x="8" y="7" width="1" height="1" fill="#4a4a4a" />
,<rect x="8" y="8" width="1" height="1" fill="#bebebe" />
,<rect x="8" y="9" width="1" height="1" fill="#fbfbfb" />
,<rect x="9" y="0" width="1" height="1" fill="#e5e5e5" />
,<rect x="9" y="1" width="1" height="1" fill="#7e7e7e" />
,<rect x="9" y="2" width="1" height="1" fill="#181818" />
,<rect x="9" y="3" width="1" height="1" fill="#000000" />
,<rect x="9" y="4" width="1" height="1" fill="#000000" />
,<rect x="9" y="5" width="1" height="1" fill="#000000" />
,<rect x="9" y="6" width="1" height="1" fill="#000000" />
,<rect x="9" y="7" width="1" height="1" fill="#000000" />
,<rect x="9" y="8" width="1" height="1" fill="#6a6a6a" />
,<rect x="9" y="9" width="1" height="1" fill="#e8e8e8" />

  </g>
</svg>