<svg width="800" height="1000" version="1.1" xmlns="http://www.w3.org/2000/svg" xmlns:xlink="http://www.w3.org/1999/xlink">
  <defs>
      <linearGradient id="Gradient2" x1="0" x2="1" y1="0" y2="1">
        <stop offset="0%" stop-color="#2d3c96"/>
        <stop offset="100%" stop-color="#d53392"/>
      </linearGradient>
  </defs>
  <rect x="10" y="10" width="780" height="980" fill="url(#Gradient2)" rx="50" ry="50" stroke="#ffd700" stroke-width="20"/>
  <text x="400" y="920" width="780" text-anchor="middle" style="font: bold 200px 'Helvetica Neue'; fill: #ffd700">00613</text>

  <g transform="translate(80 80) scale(64)">
<rect x="0" y="0" width="1" height="1" fill="#FFFFFF" /><rect x="1" y="0" width="1" height="1" fill="#CACACA" /><rect x="2" y="0" width="1" height="1" fill="#3C3C3C" /><rect x="3" y="0" width="1" height="1" fill="#B2B2B2" /><rect x="4" y="0" width="1" height="1" fill="#E0E0E0" /><rect x="5" y="0" width="1" height="1" fill="#5B5B5B" /><rect x="6" y="0" width="1" height="1" fill="#000000" /><rect x="7" y="0" width="1" height="1" fill="#545454" /><rect x="8" y="0" width="1" height="1" fill="#B7B7B7" /><rect x="9" y="0" width="1" height="1" fill="#E5E5E5" /><rect x="0" y="1" width="1" height="1" fill="#FFFFFF" /><rect x="1" y="1" width="1" height="1" fill="#D7D7D7" /><rect x="2" y="1" width="1" height="1" fill="#414141" /><rect x="3" y="1" width="1" height="1" fill="#585858" /><rect x="4" y="1" width="1" height="1" fill="#B2B2B2" /><rect x="5" y="1" width="1" height="1" fill="#606060" /><rect x="6" y="1" width="1" height="1" fill="#000000" /><rect x="7" y="1" width="1" height="1" fill="#000000" /><rect x="8" y="1" width="1" height="1" fill="#2A2A2A" /><rect x="9" y="1" width="1" height="1" fill="#7E7E7E" /><rect x="0" y="2" width="1" height="1" fill="#FFFFFF" /><rect x="1" y="2" width="1" height="1" fill="#DCDCDC" /><rect x="2" y="2" width="1" height="1" fill="#484848" /><rect x="3" y="2" width="1" height="1" fill="#030303" /><rect x="4" y="2" width="1" height="1" fill="#464646" /><rect x="5" y="2" width="1" height="1" fill="#343434" /><rect x="6" y="2" width="1" height="1" fill="#000000" /><rect x="7" y="2" width="1" height="1" fill="#000000" /><rect x="8" y="2" width="1" height="1" fill="#000000" /><rect x="9" y="2" width="1" height="1" fill="#181818" /><rect x="0" y="3" width="1" height="1" fill="#FFFFFF" /><rect x="1" y="3" width="1" height="1" fill="#EAEAEA" /><rect x="2" y="3" width="1" height="1" fill="#6A6A6A" /><rect x="3" y="3" width="1" height="1" fill="#000000" /><rect x="4" y="3" width="1" height="1" fill="#000000" /><rect x="5" y="3" width="1" height="1" fill="#080808" /><rect x="6" y="3" width="1" height="1" fill="#080808" /><rect x="7" y="3" width="1" height="1" fill="#000000" /><rect x="8" y="3" width="1" height="1" fill="#000000" /><rect x="9" y="3" width="1" height="1" fill="#000000" /><rect x="0" y="4" width="1" height="1" fill="#FFFFFF" /><rect x="1" y="4" width="1" height="1" fill="#F9F9F9" /><rect x="2" y="4" width="1" height="1" fill="#A1A1A1" /><rect x="3" y="4" width="1" height="1" fill="#0E0E0E" /><rect x="4" y="4" width="1" height="1" fill="#000000" /><rect x="5" y="4" width="1" height="1" fill="#3A3A3A" /><rect x="6" y="4" width="1" height="1" fill="#4E4E4E" /><rect x="7" y="4" width="1" height="1" fill="#010101" /><rect x="8" y="4" width="1" height="1" fill="#000000" /><rect x="9" y="4" width="1" height="1" fill="#000000" /><rect x="0" y="5" width="1" height="1" fill="#FFFFFF" /><rect x="1" y="5" width="1" height="1" fill="#FFFFFF" /><rect x="2" y="5" width="1" height="1" fill="#D8D8D8" /><rect x="3" y="5" width="1" height="1" fill="#585858" /><rect x="4" y="5" width="1" height="1" fill="#000000" /><rect x="5" y="5" width="1" height="1" fill="#444444" /><rect x="6" y="5" width="1" height="1" fill="#888888" /><rect x="7" y="5" width="1" height="1" fill="#2D2D2D" /><rect x="8" y="5" width="1" height="1" fill="#000000" /><rect x="9" y="5" width="1" height="1" fill="#000000" /><rect x="0" y="6" width="1" height="1" fill="#FFFFFF" /><rect x="1" y="6" width="1" height="1" fill="#FFFFFF" /><rect x="2" y="6" width="1" height="1" fill="#F9F9F9" /><rect x="3" y="6" width="1" height="1" fill="#C4C4C4" /><rect x="4" y="6" width="1" height="1" fill="#7D7D7D" /><rect x="5" y="6" width="1" height="1" fill="#7A7A7A" /><rect x="6" y="6" width="1" height="1" fill="#C0C0C0" /><rect x="7" y="6" width="1" height="1" fill="#787878" /><rect x="8" y="6" width="1" height="1" fill="#010101" /><rect x="9" y="6" width="1" height="1" fill="#000000" /><rect x="0" y="7" width="1" height="1" fill="#FFFFFF" /><rect x="1" y="7" width="1" height="1" fill="#FFFFFF" /><rect x="2" y="7" width="1" height="1" fill="#FFFFFF" /><rect x="3" y="7" width="1" height="1" fill="#FCFCFC" /><rect x="4" y="7" width="1" height="1" fill="#F1F1F1" /><rect x="5" y="7" width="1" height="1" fill="#EFEFEF" /><rect x="6" y="7" width="1" height="1" fill="#F8F8F8" /><rect x="7" y="7" width="1" height="1" fill="#C8C8C8" /><rect x="8" y="7" width="1" height="1" fill="#4A4A4A" /><rect x="9" y="7" width="1" height="1" fill="#000000" /><rect x="0" y="8" width="1" height="1" fill="#FFFFFF" /><rect x="1" y="8" width="1" height="1" fill="#FFFFFF" /><rect x="2" y="8" width="1" height="1" fill="#FFFFFF" /><rect x="3" y="8" width="1" height="1" fill="#FFFFFF" /><rect x="4" y="8" width="1" height="1" fill="#FFFFFF" /><rect x="5" y="8" width="1" height="1" fill="#FFFFFF" /><rect x="6" y="8" width="1" height="1" fill="#FFFFFF" /><rect x="7" y="8" width="1" height="1" fill="#F7F7F7" /><rect x="8" y="8" width="1" height="1" fill="#BEBEBE" /><rect x="9" y="8" width="1" height="1" fill="#6A6A6A" /><rect x="0" y="9" width="1" height="1" fill="#FFFFFF" /><rect x="1" y="9" width="1" height="1" fill="#FFFFFF" /><rect x="2" y="9" width="1" height="1" fill="#FFFFFF" /><rect x="3" y="9" width="1" height="1" fill="#FFFFFF" /><rect x="4" y="9" width="1" height="1" fill="#FFFFFF" /><rect x="5" y="9" width="1" height="1" fill="#FFFFFF" /><rect x="6" y="9" width="1" height="1" fill="#FFFFFF" /><rect x="7" y="9" width="1" height="1" fill="#FFFFFF" /><rect x="8" y="9" width="1" height="1" fill="#FBFBFB" /><rect x="9" y="9" width="1" height="1" fill="#E8E8E8" />
  </g>
</svg>