<svg width="800" height="1000" version="1.1" xmlns="http://www.w3.org/2000/svg" xmlns:xlink="http://www.w3.org/1999/xlink">
  <defs>
      <linearGradient id="Gradient2" x1="0" x2="1" y1="0" y2="1">
        <stop offset="0%" stop-color="#2d3c96"/>
        <stop offset="100%" stop-color="#d53392"/>
      </linearGradient>
  </defs>
  <rect x="10" y="10" width="780" height="980" fill="url(#Gradient2)" rx="50" ry="50" stroke="#ffd700" stroke-width="20"/>
  <text x="400" y="920" width="780" text-anchor="middle" style="font: bold 200px 'Helvetica Neue'; fill: #ffd700">00614</text>

  <g transform="translate(80 80) scale(64)">
<rect x="0" y="0" width="1" height="1" fill="#E3E3E3" /><rect x="1" y="0" width="1" height="1" fill="#BDBDBD" /><rect x="2" y="0" width="1" height="1" fill="#D7D7D7" /><rect x="3" y="0" width="1" height="1" fill="#F3F3F3" /><rect x="4" y="0" width="1" height="1" fill="#DBDBDB" /><rect x="5" y="0" width="1" height="1" fill="#E2E2E2" /><rect x="6" y="0" width="1" height="1" fill="#BABABA" /><rect x="7" y="0" width="1" height="1" fill="#585858" /><rect x="8" y="0" width="1" height="1" fill="#D6D6D6" /><rect x="9" y="0" width="1" height="1" fill="#FFFFFF" /><rect x="0" y="1" width="1" height="1" fill="#C5C5C5" /><rect x="1" y="1" width="1" height="1" fill="#9B9B9B" /><rect x="2" y="1" width="1" height="1" fill="#BEBEBE" /><rect x="3" y="1" width="1" height="1" fill="#D7D7D7" /><rect x="4" y="1" width="1" height="1" fill="#C1C1C1" /><rect x="5" y="1" width="1" height="1" fill="#959595" /><rect x="6" y="1" width="1" height="1" fill="#424242" /><rect x="7" y="1" width="1" height="1" fill="#4F4F4F" /><rect x="8" y="1" width="1" height="1" fill="#DFDFDF" /><rect x="9" y="1" width="1" height="1" fill="#FFFFFF" /><rect x="0" y="2" width="1" height="1" fill="#7B7B7B" /><rect x="1" y="2" width="1" height="1" fill="#A6A6A6" /><rect x="2" y="2" width="1" height="1" fill="#9F9F9F" /><rect x="3" y="2" width="1" height="1" fill="#5F5F5F" /><rect x="4" y="2" width="1" height="1" fill="#242424" /><rect x="5" y="2" width="1" height="1" fill="#060606" /><rect x="6" y="2" width="1" height="1" fill="#000000" /><rect x="7" y="2" width="1" height="1" fill="#696969" /><rect x="8" y="2" width="1" height="1" fill="#EBEBEB" /><rect x="9" y="2" width="1" height="1" fill="#FFFFFF" /><rect x="0" y="3" width="1" height="1" fill="#2A2A2A" /><rect x="1" y="3" width="1" height="1" fill="#686868" /><rect x="2" y="3" width="1" height="1" fill="#888888" /><rect x="3" y="3" width="1" height="1" fill="#3E3E3E" /><rect x="4" y="3" width="1" height="1" fill="#000000" /><rect x="5" y="3" width="1" height="1" fill="#000000" /><rect x="6" y="3" width="1" height="1" fill="#000000" /><rect x="7" y="3" width="1" height="1" fill="#8C8C8C" /><rect x="8" y="3" width="1" height="1" fill="#F5F5F5" /><rect x="9" y="3" width="1" height="1" fill="#FFFFFF" /><rect x="0" y="4" width="1" height="1" fill="#000000" /><rect x="1" y="4" width="1" height="1" fill="#757575" /><rect x="2" y="4" width="1" height="1" fill="#DBDBDB" /><rect x="3" y="4" width="1" height="1" fill="#7A7A7A" /><rect x="4" y="4" width="1" height="1" fill="#000000" /><rect x="5" y="4" width="1" height="1" fill="#000000" /><rect x="6" y="4" width="1" height="1" fill="#1B1B1B" /><rect x="7" y="4" width="1" height="1" fill="#B4B4B4" /><rect x="8" y="4" width="1" height="1" fill="#FDFDFD" /><rect x="9" y="4" width="1" height="1" fill="#FFFFFF" /><rect x="0" y="5" width="1" height="1" fill="#000000" /><rect x="1" y="5" width="1" height="1" fill="#8C8C8C" /><rect x="2" y="5" width="1" height="1" fill="#E9E9E9" /><rect x="3" y="5" width="1" height="1" fill="#7D7D7D" /><rect x="4" y="5" width="1" height="1" fill="#000000" /><rect x="5" y="5" width="1" height="1" fill="#000000" /><rect x="6" y="5" width="1" height="1" fill="#515151" /><rect x="7" y="5" width="1" height="1" fill="#DBDBDB" /><rect x="8" y="5" width="1" height="1" fill="#FFFFFF" /><rect x="9" y="5" width="1" height="1" fill="#FFFFFF" /><rect x="0" y="6" width="1" height="1" fill="#000000" /><rect x="1" y="6" width="1" height="1" fill="#7E7E7E" /><rect x="2" y="6" width="1" height="1" fill="#DCDCDC" /><rect x="3" y="6" width="1" height="1" fill="#686868" /><rect x="4" y="6" width="1" height="1" fill="#000000" /><rect x="5" y="6" width="1" height="1" fill="#0F0F0F" /><rect x="6" y="6" width="1" height="1" fill="#989898" /><rect x="7" y="6" width="1" height="1" fill="#F5F5F5" /><rect x="8" y="6" width="1" height="1" fill="#FFFFFF" /><rect x="9" y="6" width="1" height="1" fill="#FFFFFF" /><rect x="0" y="7" width="1" height="1" fill="#000000" /><rect x="1" y="7" width="1" height="1" fill="#585858" /><rect x="2" y="7" width="1" height="1" fill="#C7C7C7" /><rect x="3" y="7" width="1" height="1" fill="#6E6E6E" /><rect x="4" y="7" width="1" height="1" fill="#363636" /><rect x="5" y="7" width="1" height="1" fill="#808080" /><rect x="6" y="7" width="1" height="1" fill="#DFDFDF" /><rect x="7" y="7" width="1" height="1" fill="#FFFFFF" /><rect x="8" y="7" width="1" height="1" fill="#FFFFFF" /><rect x="9" y="7" width="1" height="1" fill="#FFFFFF" /><rect x="0" y="8" width="1" height="1" fill="#3E3E3E" /><rect x="1" y="8" width="1" height="1" fill="#4F4F4F" /><rect x="2" y="8" width="1" height="1" fill="#C7C7C7" /><rect x="3" y="8" width="1" height="1" fill="#D5D5D5" /><rect x="4" y="8" width="1" height="1" fill="#CECECE" /><rect x="5" y="8" width="1" height="1" fill="#ECECEC" /><rect x="6" y="8" width="1" height="1" fill="#FEFEFE" /><rect x="7" y="8" width="1" height="1" fill="#FFFFFF" /><rect x="8" y="8" width="1" height="1" fill="#FFFFFF" /><rect x="9" y="8" width="1" height="1" fill="#FFFFFF" /><rect x="0" y="9" width="1" height="1" fill="#D6D6D6" /><rect x="1" y="9" width="1" height="1" fill="#D9D9D9" /><rect x="2" y="9" width="1" height="1" fill="#F4F4F4" /><rect x="3" y="9" width="1" height="1" fill="#FFFFFF" /><rect x="4" y="9" width="1" height="1" fill="#FFFFFF" /><rect x="5" y="9" width="1" height="1" fill="#FFFFFF" /><rect x="6" y="9" width="1" height="1" fill="#FFFFFF" /><rect x="7" y="9" width="1" height="1" fill="#FFFFFF" /><rect x="8" y="9" width="1" height="1" fill="#FFFFFF" /><rect x="9" y="9" width="1" height="1" fill="#FFFFFF" />
  </g>
</svg>