<svg width="800" height="1000" version="1.1" xmlns="http://www.w3.org/2000/svg" xmlns:xlink="http://www.w3.org/1999/xlink">
  <defs>
      <linearGradient id="Gradient2" x1="0" x2="1" y1="0" y2="1">
        <stop offset="0%" stop-color="#2d3c96"/>
        <stop offset="100%" stop-color="#d53392"/>
      </linearGradient>
  </defs>
  <rect x="10" y="10" width="780" height="980" fill="url(#Gradient2)" rx="50" ry="50" stroke="#ffd700" stroke-width="20"/>
  <text x="400" y="920" width="780" text-anchor="middle" style="font: bold 200px 'Helvetica Neue'; fill: #ffd700">00632</text>

  <g transform="translate(80 80) scale(64)">
<rect x="0" y="0" width="1" height="1" fill="#412f30" />
,<rect x="0" y="1" width="1" height="1" fill="#453232" />
,<rect x="0" y="2" width="1" height="1" fill="#59403e" />
,<rect x="0" y="3" width="1" height="1" fill="#674948" />
,<rect x="0" y="4" width="1" height="1" fill="#382c2e" />
,<rect x="0" y="5" width="1" height="1" fill="#332d30" />
,<rect x="0" y="6" width="1" height="1" fill="#655e62" />
,<rect x="0" y="7" width="1" height="1" fill="#6c6162" />
,<rect x="0" y="8" width="1" height="1" fill="#594747" />
,<rect x="0" y="9" width="1" height="1" fill="#544141" />
,<rect x="1" y="0" width="1" height="1" fill="#3c2c2b" />
,<rect x="1" y="1" width="1" height="1" fill="#4b3633" />
,<rect x="1" y="2" width="1" height="1" fill="#574341" />
,<rect x="1" y="3" width="1" height="1" fill="#403433" />
,<rect x="1" y="4" width="1" height="1" fill="#3a302f" />
,<rect x="1" y="5" width="1" height="1" fill="#403738" />
,<rect x="1" y="6" width="1" height="1" fill="#605c5e" />
,<rect x="1" y="7" width="1" height="1" fill="#aaa9ac" />
,<rect x="1" y="8" width="1" height="1" fill="#898485" />
,<rect x="1" y="9" width="1" height="1" fill="#564b49" />
,<rect x="2" y="0" width="1" height="1" fill="#382d2d" />
,<rect x="2" y="1" width="1" height="1" fill="#413737" />
,<rect x="2" y="2" width="1" height="1" fill="#5c5556" />
,<rect x="2" y="3" width="1" height="1" fill="#696465" />
,<rect x="2" y="4" width="1" height="1" fill="#5c5758" />
,<rect x="2" y="5" width="1" height="1" fill="#595355" />
,<rect x="2" y="6" width="1" height="1" fill="#5b5457" />
,<rect x="2" y="7" width="1" height="1" fill="#8f8b8f" />
,<rect x="2" y="8" width="1" height="1" fill="#6e676b" />
,<rect x="2" y="9" width="1" height="1" fill="#554948" />
,<rect x="3" y="0" width="1" height="1" fill="#453c3f" />
,<rect x="3" y="1" width="1" height="1" fill="#736d6e" />
,<rect x="3" y="2" width="1" height="1" fill="#8b898d" />
,<rect x="3" y="3" width="1" height="1" fill="#8c8b90" />
,<rect x="3" y="4" width="1" height="1" fill="#9c9ea5" />
,<rect x="3" y="5" width="1" height="1" fill="#909097" />
,<rect x="3" y="6" width="1" height="1" fill="#86858e" />
,<rect x="3" y="7" width="1" height="1" fill="#a3a5af" />
,<rect x="3" y="8" width="1" height="1" fill="#909299" />
,<rect x="3" y="9" width="1" height="1" fill="#97959c" />
,<rect x="4" y="0" width="1" height="1" fill="#78767b" />
,<rect x="4" y="1" width="1" height="1" fill="#757378" />
,<rect x="4" y="2" width="1" height="1" fill="#757173" />
,<rect x="4" y="3" width="1" height="1" fill="#7e7c7e" />
,<rect x="4" y="4" width="1" height="1" fill="#757478" />
,<rect x="4" y="5" width="1" height="1" fill="#74757a" />
,<rect x="4" y="6" width="1" height="1" fill="#6d6f77" />
,<rect x="4" y="7" width="1" height="1" fill="#78808c" />
,<rect x="4" y="8" width="1" height="1" fill="#828e99" />
,<rect x="4" y="9" width="1" height="1" fill="#939ca5" />
,<rect x="5" y="0" width="1" height="1" fill="#b4b7c0" />
,<rect x="5" y="1" width="1" height="1" fill="#aeb1ba" />
,<rect x="5" y="2" width="1" height="1" fill="#9a9ba3" />
,<rect x="5" y="3" width="1" height="1" fill="#7d7d81" />
,<rect x="5" y="4" width="1" height="1" fill="#616165" />
,<rect x="5" y="5" width="1" height="1" fill="#4f575d" />
,<rect x="5" y="6" width="1" height="1" fill="#4c5a64" />
,<rect x="5" y="7" width="1" height="1" fill="#4b5e6a" />
,<rect x="5" y="8" width="1" height="1" fill="#5b7688" />
,<rect x="5" y="9" width="1" height="1" fill="#4c6370" />
,<rect x="6" y="0" width="1" height="1" fill="#000000" />
,<rect x="6" y="1" width="1" height="1" fill="#000000" />
,<rect x="6" y="2" width="1" height="1" fill="#000000" />
,<rect x="6" y="3" width="1" height="1" fill="#000000" />
,<rect x="6" y="4" width="1" height="1" fill="#000000" />
,<rect x="6" y="5" width="1" height="1" fill="#000000" />
,<rect x="6" y="6" width="1" height="1" fill="#000000" />
,<rect x="6" y="7" width="1" height="1" fill="#000000" />
,<rect x="6" y="8" width="1" height="1" fill="#000000" />
,<rect x="6" y="9" width="1" height="1" fill="#000000" />
,<rect x="7" y="0" width="1" height="1" fill="#000000" />
,<rect x="7" y="1" width="1" height="1" fill="#000000" />
,<rect x="7" y="2" width="1" height="1" fill="#000000" />
,<rect x="7" y="3" width="1" height="1" fill="#000000" />
,<rect x="7" y="4" width="1" height="1" fill="#000000" />
,<rect x="7" y="5" width="1" height="1" fill="#000000" />
,<rect x="7" y="6" width="1" height="1" fill="#000000" />
,<rect x="7" y="7" width="1" height="1" fill="#000000" />
,<rect x="7" y="8" width="1" height="1" fill="#000000" />
,<rect x="7" y="9" width="1" height="1" fill="#000000" />
,<rect x="8" y="0" width="1" height="1" fill="#aeaeae" />
,<rect x="8" y="1" width="1" height="1" fill="#aeaeae" />
,<rect x="8" y="2" width="1" height="1" fill="#aeaeae" />
,<rect x="8" y="3" width="1" height="1" fill="#aeaeae" />
,<rect x="8" y="4" width="1" height="1" fill="#aeaeae" />
,<rect x="8" y="5" width="1" height="1" fill="#aeaeae" />
,<rect x="8" y="6" width="1" height="1" fill="#aeaeae" />
,<rect x="8" y="7" width="1" height="1" fill="#aeaeae" />
,<rect x="8" y="8" width="1" height="1" fill="#aeaeae" />
,<rect x="8" y="9" width="1" height="1" fill="#aeaeae" />
,<rect x="9" y="0" width="1" height="1" fill="#000000" />
,<rect x="9" y="1" width="1" height="1" fill="#000000" />
,<rect x="9" y="2" width="1" height="1" fill="#000000" />
,<rect x="9" y="3" width="1" height="1" fill="#000000" />
,<rect x="9" y="4" width="1" height="1" fill="#000000" />
,<rect x="9" y="5" width="1" height="1" fill="#000000" />
,<rect x="9" y="6" width="1" height="1" fill="#000000" />
,<rect x="9" y="7" width="1" height="1" fill="#000000" />
,<rect x="9" y="8" width="1" height="1" fill="#000000" />
,<rect x="9" y="9" width="1" height="1" fill="#000000" />

  </g>
</svg>