<svg width="800" height="1000" version="1.1" xmlns="http://www.w3.org/2000/svg" xmlns:xlink="http://www.w3.org/1999/xlink">
  <defs>
      <linearGradient id="Gradient2" x1="0" x2="1" y1="0" y2="1">
        <stop offset="0%" stop-color="#2d3c96"/>
        <stop offset="100%" stop-color="#d53392"/>
      </linearGradient>
  </defs>
  <rect x="10" y="10" width="780" height="980" fill="url(#Gradient2)" rx="50" ry="50" stroke="#ffd700" stroke-width="20"/>
  <text x="400" y="920" width="780" text-anchor="middle" style="font: bold 200px 'Helvetica Neue'; fill: #ffd700">00631</text>

  <g transform="translate(80 80) scale(64)">
<rect x="0" y="0" width="1" height="1" fill="#644844" /><rect x="1" y="0" width="1" height="1" fill="#997D77" /><rect x="2" y="0" width="1" height="1" fill="#CDABA2" /><rect x="3" y="0" width="1" height="1" fill="#D2B0A8" /><rect x="4" y="0" width="1" height="1" fill="#C3A49B" /><rect x="5" y="0" width="1" height="1" fill="#7D6761" /><rect x="6" y="0" width="1" height="1" fill="#6D4C47" /><rect x="7" y="0" width="1" height="1" fill="#8D6660" /><rect x="8" y="0" width="1" height="1" fill="#74504E" /><rect x="9" y="0" width="1" height="1" fill="#5B3D3C" /><rect x="0" y="1" width="1" height="1" fill="#5A4544" /><rect x="1" y="1" width="1" height="1" fill="#835F5C" /><rect x="2" y="1" width="1" height="1" fill="#BD9791" /><rect x="3" y="1" width="1" height="1" fill="#CDAAA1" /><rect x="4" y="1" width="1" height="1" fill="#AC857E" /><rect x="5" y="1" width="1" height="1" fill="#784E4A" /><rect x="6" y="1" width="1" height="1" fill="#513937" /><rect x="7" y="1" width="1" height="1" fill="#4A3737" /><rect x="8" y="1" width="1" height="1" fill="#4B302F" /><rect x="9" y="1" width="1" height="1" fill="#6F4C49" /><rect x="0" y="2" width="1" height="1" fill="#4A4445" /><rect x="1" y="2" width="1" height="1" fill="#8D6765" /><rect x="2" y="2" width="1" height="1" fill="#B18881" /><rect x="3" y="2" width="1" height="1" fill="#CFADA5" /><rect x="4" y="2" width="1" height="1" fill="#AC7F78" /><rect x="5" y="2" width="1" height="1" fill="#936B67" /><rect x="6" y="2" width="1" height="1" fill="#8F7776" /><rect x="7" y="2" width="1" height="1" fill="#4A4445" /><rect x="8" y="2" width="1" height="1" fill="#7A5350" /><rect x="9" y="2" width="1" height="1" fill="#8A615D" /><rect x="0" y="3" width="1" height="1" fill="#BA928C" /><rect x="1" y="3" width="1" height="1" fill="#C7A29A" /><rect x="2" y="3" width="1" height="1" fill="#C9A59D" /><rect x="3" y="3" width="1" height="1" fill="#DBC5BD" /><rect x="4" y="3" width="1" height="1" fill="#CDA8A2" /><rect x="5" y="3" width="1" height="1" fill="#D0B0A9" /><rect x="6" y="3" width="1" height="1" fill="#BE9991" /><rect x="7" y="3" width="1" height="1" fill="#B08881" /><rect x="8" y="3" width="1" height="1" fill="#BF928F" /><rect x="9" y="3" width="1" height="1" fill="#936663" /><rect x="0" y="4" width="1" height="1" fill="#DDC3BE" /><rect x="1" y="4" width="1" height="1" fill="#DBBEB9" /><rect x="2" y="4" width="1" height="1" fill="#D1AFAA" /><rect x="3" y="4" width="1" height="1" fill="#DDC9C2" /><rect x="4" y="4" width="1" height="1" fill="#CDABA6" /><rect x="5" y="4" width="1" height="1" fill="#D9BDB9" /><rect x="6" y="4" width="1" height="1" fill="#DBBDB8" /><rect x="7" y="4" width="1" height="1" fill="#D7B0AA" /><rect x="8" y="4" width="1" height="1" fill="#C1928F" /><rect x="9" y="4" width="1" height="1" fill="#825957" /><rect x="0" y="5" width="1" height="1" fill="#DEC3BD" /><rect x="1" y="5" width="1" height="1" fill="#DEC3BE" /><rect x="2" y="5" width="1" height="1" fill="#CFACA6" /><rect x="3" y="5" width="1" height="1" fill="#D7BFBB" /><rect x="4" y="5" width="1" height="1" fill="#C29C96" /><rect x="5" y="5" width="1" height="1" fill="#D6B7B1" /><rect x="6" y="5" width="1" height="1" fill="#D8B6AF" /><rect x="7" y="5" width="1" height="1" fill="#CCA29C" /><rect x="8" y="5" width="1" height="1" fill="#B0817D" /><rect x="9" y="5" width="1" height="1" fill="#745453" /><rect x="0" y="6" width="1" height="1" fill="#DBBEB9" /><rect x="1" y="6" width="1" height="1" fill="#DFC7C2" /><rect x="2" y="6" width="1" height="1" fill="#C19D99" /><rect x="3" y="6" width="1" height="1" fill="#AE8885" /><rect x="4" y="6" width="1" height="1" fill="#AD847F" /><rect x="5" y="6" width="1" height="1" fill="#D6B4AD" /><rect x="6" y="6" width="1" height="1" fill="#D4B0AA" /><rect x="7" y="6" width="1" height="1" fill="#C29892" /><rect x="8" y="6" width="1" height="1" fill="#A37A75" /><rect x="9" y="6" width="1" height="1" fill="#604D4E" /><rect x="0" y="7" width="1" height="1" fill="#CDAEA9" /><rect x="1" y="7" width="1" height="1" fill="#D7BCB4" /><rect x="2" y="7" width="1" height="1" fill="#CCA9A3" /><rect x="3" y="7" width="1" height="1" fill="#AA7A78" /><rect x="4" y="7" width="1" height="1" fill="#BC9593" /><rect x="5" y="7" width="1" height="1" fill="#CFB0AA" /><rect x="6" y="7" width="1" height="1" fill="#CBA8A1" /><rect x="7" y="7" width="1" height="1" fill="#B58C87" /><rect x="8" y="7" width="1" height="1" fill="#7C5D59" /><rect x="9" y="7" width="1" height="1" fill="#433537" /><rect x="0" y="8" width="1" height="1" fill="#99817F" /><rect x="1" y="8" width="1" height="1" fill="#C59F99" /><rect x="2" y="8" width="1" height="1" fill="#9E6063" /><rect x="3" y="8" width="1" height="1" fill="#90414C" /><rect x="4" y="8" width="1" height="1" fill="#924C53" /><rect x="5" y="8" width="1" height="1" fill="#B1817D" /><rect x="6" y="8" width="1" height="1" fill="#BE968D" /><rect x="7" y="8" width="1" height="1" fill="#97746E" /><rect x="8" y="8" width="1" height="1" fill="#543936" /><rect x="9" y="8" width="1" height="1" fill="#392B2E" /><rect x="0" y="9" width="1" height="1" fill="#695454" /><rect x="1" y="9" width="1" height="1" fill="#A6827B" /><rect x="2" y="9" width="1" height="1" fill="#C39691" /><rect x="3" y="9" width="1" height="1" fill="#B38684" /><rect x="4" y="9" width="1" height="1" fill="#BE938F" /><rect x="5" y="9" width="1" height="1" fill="#BE958C" /><rect x="6" y="9" width="1" height="1" fill="#9A736D" /><rect x="7" y="9" width="1" height="1" fill="#66433F" /><rect x="8" y="9" width="1" height="1" fill="#65413E" /><rect x="9" y="9" width="1" height="1" fill="#453437" />
  </g>
</svg>