<svg width="800" height="1000" version="1.1" xmlns="http://www.w3.org/2000/svg" xmlns:xlink="http://www.w3.org/1999/xlink">
  <defs>
      <linearGradient id="Gradient2" x1="0" x2="1" y1="0" y2="1">
        <stop offset="0%" stop-color="#2d3c96"/>
        <stop offset="100%" stop-color="#d53392"/>
      </linearGradient>
  </defs>
  <rect x="10" y="10" width="780" height="980" fill="url(#Gradient2)" rx="50" ry="50" stroke="#ffd700" stroke-width="20"/>
  <text x="400" y="920" width="780" text-anchor="middle" style="font: bold 200px 'Helvetica Neue'; fill: #ffd700">00632</text>

  <g transform="translate(80 80) scale(64)">
<rect x="0" y="0" width="1" height="1" fill="#412F30" /><rect x="1" y="0" width="1" height="1" fill="#3C2C2B" /><rect x="2" y="0" width="1" height="1" fill="#382D2D" /><rect x="3" y="0" width="1" height="1" fill="#453C3F" /><rect x="4" y="0" width="1" height="1" fill="#78767B" /><rect x="5" y="0" width="1" height="1" fill="#B4B7C0" /><rect x="6" y="0" width="1" height="1" fill="#000000" /><rect x="7" y="0" width="1" height="1" fill="#000000" /><rect x="8" y="0" width="1" height="1" fill="#AEAEAE" /><rect x="9" y="0" width="1" height="1" fill="#000000" /><rect x="0" y="1" width="1" height="1" fill="#453232" /><rect x="1" y="1" width="1" height="1" fill="#4B3633" /><rect x="2" y="1" width="1" height="1" fill="#413737" /><rect x="3" y="1" width="1" height="1" fill="#736D6E" /><rect x="4" y="1" width="1" height="1" fill="#757378" /><rect x="5" y="1" width="1" height="1" fill="#AEB1BA" /><rect x="6" y="1" width="1" height="1" fill="#000000" /><rect x="7" y="1" width="1" height="1" fill="#000000" /><rect x="8" y="1" width="1" height="1" fill="#AEAEAE" /><rect x="9" y="1" width="1" height="1" fill="#000000" /><rect x="0" y="2" width="1" height="1" fill="#59403E" /><rect x="1" y="2" width="1" height="1" fill="#574341" /><rect x="2" y="2" width="1" height="1" fill="#5C5556" /><rect x="3" y="2" width="1" height="1" fill="#8B898D" /><rect x="4" y="2" width="1" height="1" fill="#757173" /><rect x="5" y="2" width="1" height="1" fill="#9A9BA3" /><rect x="6" y="2" width="1" height="1" fill="#000000" /><rect x="7" y="2" width="1" height="1" fill="#000000" /><rect x="8" y="2" width="1" height="1" fill="#AEAEAE" /><rect x="9" y="2" width="1" height="1" fill="#000000" /><rect x="0" y="3" width="1" height="1" fill="#674948" /><rect x="1" y="3" width="1" height="1" fill="#403433" /><rect x="2" y="3" width="1" height="1" fill="#696465" /><rect x="3" y="3" width="1" height="1" fill="#8C8B90" /><rect x="4" y="3" width="1" height="1" fill="#7E7C7E" /><rect x="5" y="3" width="1" height="1" fill="#7D7D81" /><rect x="6" y="3" width="1" height="1" fill="#000000" /><rect x="7" y="3" width="1" height="1" fill="#000000" /><rect x="8" y="3" width="1" height="1" fill="#AEAEAE" /><rect x="9" y="3" width="1" height="1" fill="#000000" /><rect x="0" y="4" width="1" height="1" fill="#382C2E" /><rect x="1" y="4" width="1" height="1" fill="#3A302F" /><rect x="2" y="4" width="1" height="1" fill="#5C5758" /><rect x="3" y="4" width="1" height="1" fill="#9C9EA5" /><rect x="4" y="4" width="1" height="1" fill="#757478" /><rect x="5" y="4" width="1" height="1" fill="#616165" /><rect x="6" y="4" width="1" height="1" fill="#000000" /><rect x="7" y="4" width="1" height="1" fill="#000000" /><rect x="8" y="4" width="1" height="1" fill="#AEAEAE" /><rect x="9" y="4" width="1" height="1" fill="#000000" /><rect x="0" y="5" width="1" height="1" fill="#332D30" /><rect x="1" y="5" width="1" height="1" fill="#403738" /><rect x="2" y="5" width="1" height="1" fill="#595355" /><rect x="3" y="5" width="1" height="1" fill="#909097" /><rect x="4" y="5" width="1" height="1" fill="#74757A" /><rect x="5" y="5" width="1" height="1" fill="#4F575D" /><rect x="6" y="5" width="1" height="1" fill="#000000" /><rect x="7" y="5" width="1" height="1" fill="#000000" /><rect x="8" y="5" width="1" height="1" fill="#AEAEAE" /><rect x="9" y="5" width="1" height="1" fill="#000000" /><rect x="0" y="6" width="1" height="1" fill="#655E62" /><rect x="1" y="6" width="1" height="1" fill="#605C5E" /><rect x="2" y="6" width="1" height="1" fill="#5B5457" /><rect x="3" y="6" width="1" height="1" fill="#86858E" /><rect x="4" y="6" width="1" height="1" fill="#6D6F77" /><rect x="5" y="6" width="1" height="1" fill="#4C5A64" /><rect x="6" y="6" width="1" height="1" fill="#000000" /><rect x="7" y="6" width="1" height="1" fill="#000000" /><rect x="8" y="6" width="1" height="1" fill="#AEAEAE" /><rect x="9" y="6" width="1" height="1" fill="#000000" /><rect x="0" y="7" width="1" height="1" fill="#6C6162" /><rect x="1" y="7" width="1" height="1" fill="#AAA9AC" /><rect x="2" y="7" width="1" height="1" fill="#8F8B8F" /><rect x="3" y="7" width="1" height="1" fill="#A3A5AF" /><rect x="4" y="7" width="1" height="1" fill="#78808C" /><rect x="5" y="7" width="1" height="1" fill="#4B5E6A" /><rect x="6" y="7" width="1" height="1" fill="#000000" /><rect x="7" y="7" width="1" height="1" fill="#000000" /><rect x="8" y="7" width="1" height="1" fill="#AEAEAE" /><rect x="9" y="7" width="1" height="1" fill="#000000" /><rect x="0" y="8" width="1" height="1" fill="#594747" /><rect x="1" y="8" width="1" height="1" fill="#898485" /><rect x="2" y="8" width="1" height="1" fill="#6E676B" /><rect x="3" y="8" width="1" height="1" fill="#909299" /><rect x="4" y="8" width="1" height="1" fill="#828E99" /><rect x="5" y="8" width="1" height="1" fill="#5B7688" /><rect x="6" y="8" width="1" height="1" fill="#000000" /><rect x="7" y="8" width="1" height="1" fill="#000000" /><rect x="8" y="8" width="1" height="1" fill="#AEAEAE" /><rect x="9" y="8" width="1" height="1" fill="#000000" /><rect x="0" y="9" width="1" height="1" fill="#544141" /><rect x="1" y="9" width="1" height="1" fill="#564B49" /><rect x="2" y="9" width="1" height="1" fill="#554948" /><rect x="3" y="9" width="1" height="1" fill="#97959C" /><rect x="4" y="9" width="1" height="1" fill="#939CA5" /><rect x="5" y="9" width="1" height="1" fill="#4C6370" /><rect x="6" y="9" width="1" height="1" fill="#000000" /><rect x="7" y="9" width="1" height="1" fill="#000000" /><rect x="8" y="9" width="1" height="1" fill="#AEAEAE" /><rect x="9" y="9" width="1" height="1" fill="#000000" />
  </g>
</svg>