<svg width="800" height="1000" version="1.1" xmlns="http://www.w3.org/2000/svg" xmlns:xlink="http://www.w3.org/1999/xlink">
  <defs>
      <linearGradient id="Gradient2" x1="0" x2="1" y1="0" y2="1">
        <stop offset="0%" stop-color="#2d3c96"/>
        <stop offset="100%" stop-color="#d53392"/>
      </linearGradient>
  </defs>
  <rect x="10" y="10" width="780" height="980" fill="url(#Gradient2)" rx="50" ry="50" stroke="#ffd700" stroke-width="20"/>
  <text x="400" y="920" width="780" text-anchor="middle" style="font: bold 200px 'Helvetica Neue'; fill: #ffd700">00630</text>

  <g transform="translate(80 80) scale(64)">
<rect x="0" y="0" width="1" height="1" fill="#000000" /><rect x="1" y="0" width="1" height="1" fill="#B4BCC6" /><rect x="2" y="0" width="1" height="1" fill="#B4BCC5" /><rect x="3" y="0" width="1" height="1" fill="#A8ABB2" /><rect x="4" y="0" width="1" height="1" fill="#686568" /><rect x="5" y="0" width="1" height="1" fill="#403635" /><rect x="6" y="0" width="1" height="1" fill="#423838" /><rect x="7" y="0" width="1" height="1" fill="#453E3D" /><rect x="8" y="0" width="1" height="1" fill="#4E3F3D" /><rect x="9" y="0" width="1" height="1" fill="#583C39" /><rect x="0" y="1" width="1" height="1" fill="#000000" /><rect x="1" y="1" width="1" height="1" fill="#B4BBC5" /><rect x="2" y="1" width="1" height="1" fill="#B3BBC4" /><rect x="3" y="1" width="1" height="1" fill="#A0A3AA" /><rect x="4" y="1" width="1" height="1" fill="#534E4F" /><rect x="5" y="1" width="1" height="1" fill="#3D3433" /><rect x="6" y="1" width="1" height="1" fill="#332D2D" /><rect x="7" y="1" width="1" height="1" fill="#574343" /><rect x="8" y="1" width="1" height="1" fill="#5A413F" /><rect x="9" y="1" width="1" height="1" fill="#4D3B3B" /><rect x="0" y="2" width="1" height="1" fill="#000000" /><rect x="1" y="2" width="1" height="1" fill="#B2BAC4" /><rect x="2" y="2" width="1" height="1" fill="#B2B8BF" /><rect x="3" y="2" width="1" height="1" fill="#828286" /><rect x="4" y="2" width="1" height="1" fill="#3E3938" /><rect x="5" y="2" width="1" height="1" fill="#372F2F" /><rect x="6" y="2" width="1" height="1" fill="#322A2A" /><rect x="7" y="2" width="1" height="1" fill="#5F4846" /><rect x="8" y="2" width="1" height="1" fill="#8D6A65" /><rect x="9" y="2" width="1" height="1" fill="#857071" /><rect x="0" y="3" width="1" height="1" fill="#000000" /><rect x="1" y="3" width="1" height="1" fill="#B1B7C0" /><rect x="2" y="3" width="1" height="1" fill="#929296" /><rect x="3" y="3" width="1" height="1" fill="#4C494A" /><rect x="4" y="3" width="1" height="1" fill="#3B3434" /><rect x="5" y="3" width="1" height="1" fill="#362D2E" /><rect x="6" y="3" width="1" height="1" fill="#393132" /><rect x="7" y="3" width="1" height="1" fill="#5E4B4A" /><rect x="8" y="3" width="1" height="1" fill="#B68F89" /><rect x="9" y="3" width="1" height="1" fill="#BB9891" /><rect x="0" y="4" width="1" height="1" fill="#000000" /><rect x="1" y="4" width="1" height="1" fill="#979BA3" /><rect x="2" y="4" width="1" height="1" fill="#595759" /><rect x="3" y="4" width="1" height="1" fill="#393435" /><rect x="4" y="4" width="1" height="1" fill="#393333" /><rect x="5" y="4" width="1" height="1" fill="#352E2F" /><rect x="6" y="4" width="1" height="1" fill="#4C474B" /><rect x="7" y="4" width="1" height="1" fill="#5B5151" /><rect x="8" y="4" width="1" height="1" fill="#AB8782" /><rect x="9" y="4" width="1" height="1" fill="#DBBBB5" /><rect x="0" y="5" width="1" height="1" fill="#000000" /><rect x="1" y="5" width="1" height="1" fill="#6C6C70" /><rect x="2" y="5" width="1" height="1" fill="#373337" /><rect x="3" y="5" width="1" height="1" fill="#3B3639" /><rect x="4" y="5" width="1" height="1" fill="#383232" /><rect x="5" y="5" width="1" height="1" fill="#434041" /><rect x="6" y="5" width="1" height="1" fill="#817F82" /><rect x="7" y="5" width="1" height="1" fill="#544D4F" /><rect x="8" y="5" width="1" height="1" fill="#907977" /><rect x="9" y="5" width="1" height="1" fill="#D3AEA6" /><rect x="0" y="6" width="1" height="1" fill="#000000" /><rect x="1" y="6" width="1" height="1" fill="#6B6B71" /><rect x="2" y="6" width="1" height="1" fill="#373234" /><rect x="3" y="6" width="1" height="1" fill="#2E292B" /><rect x="4" y="6" width="1" height="1" fill="#312C2D" /><rect x="5" y="6" width="1" height="1" fill="#555153" /><rect x="6" y="6" width="1" height="1" fill="#848486" /><rect x="7" y="6" width="1" height="1" fill="#595356" /><rect x="8" y="6" width="1" height="1" fill="#837B7E" /><rect x="9" y="6" width="1" height="1" fill="#C1A19B" /><rect x="0" y="7" width="1" height="1" fill="#000000" /><rect x="1" y="7" width="1" height="1" fill="#676468" /><rect x="2" y="7" width="1" height="1" fill="#383334" /><rect x="3" y="7" width="1" height="1" fill="#302A2B" /><rect x="4" y="7" width="1" height="1" fill="#362C2D" /><rect x="5" y="7" width="1" height="1" fill="#413E40" /><rect x="6" y="7" width="1" height="1" fill="#55555A" /><rect x="7" y="7" width="1" height="1" fill="#6C6A71" /><rect x="8" y="7" width="1" height="1" fill="#7A797F" /><rect x="9" y="7" width="1" height="1" fill="#897879" /><rect x="0" y="8" width="1" height="1" fill="#000000" /><rect x="1" y="8" width="1" height="1" fill="#565051" /><rect x="2" y="8" width="1" height="1" fill="#382E2E" /><rect x="3" y="8" width="1" height="1" fill="#352B2A" /><rect x="4" y="8" width="1" height="1" fill="#453D40" /><rect x="5" y="8" width="1" height="1" fill="#5A5B61" /><rect x="6" y="8" width="1" height="1" fill="#6E707A" /><rect x="7" y="8" width="1" height="1" fill="#5A5860" /><rect x="8" y="8" width="1" height="1" fill="#5C585D" /><rect x="9" y="8" width="1" height="1" fill="#524D54" /><rect x="0" y="9" width="1" height="1" fill="#000000" /><rect x="1" y="9" width="1" height="1" fill="#59504F" /><rect x="2" y="9" width="1" height="1" fill="#3C3230" /><rect x="3" y="9" width="1" height="1" fill="#595558" /><rect x="4" y="9" width="1" height="1" fill="#878C94" /><rect x="5" y="9" width="1" height="1" fill="#747881" /><rect x="6" y="9" width="1" height="1" fill="#4C4C52" /><rect x="7" y="9" width="1" height="1" fill="#403A3C" /><rect x="8" y="9" width="1" height="1" fill="#595053" /><rect x="9" y="9" width="1" height="1" fill="#5A636E" />
  </g>
</svg>