<svg width="800" height="1000" xmlns="http://www.w3.org/2000/svg"><defs><linearGradient id="g" x1="0" x2="1" y1="0" y2="1"><stop offset="0%" stop-color="#2d3c96"/><stop offset="100%" stop-color="#d53392"/></linearGradient></defs><rect x="10" y="10" width="780" height="980" fill="url(#g)" rx="50" ry="50" stroke="gold" stroke-width="20"/><text x="400" y="920" width="780" text-anchor="middle" style="font:bold 200px 'Helvetica Neue';fill:gold">00631</text><g transform="translate(80 80) scale(64)"><rect x="0" y="0" width="1" height="1" fill="#644844" /><rect x="0" y="1" width="1" height="1" fill="#5a4544" /><rect x="0" y="2" width="1" height="1" fill="#4a4445" /><rect x="0" y="3" width="1" height="1" fill="#ba928c" /><rect x="0" y="4" width="1" height="1" fill="#ddc3be" /><rect x="0" y="5" width="1" height="1" fill="#dec3bd" /><rect x="0" y="6" width="1" height="1" fill="#dbbeb9" /><rect x="0" y="7" width="1" height="1" fill="#cdaea9" /><rect x="0" y="8" width="1" height="1" fill="#99817f" /><rect x="0" y="9" width="1" height="1" fill="#695454" /><rect x="1" y="0" width="1" height="1" fill="#997d77" /><rect x="1" y="1" width="1" height="1" fill="#835f5c" /><rect x="1" y="2" width="1" height="1" fill="#8d6765" /><rect x="1" y="3" width="1" height="1" fill="#c7a29a" /><rect x="1" y="4" width="1" height="1" fill="#dbbeb9" /><rect x="1" y="5" width="1" height="1" fill="#dec3be" /><rect x="1" y="6" width="1" height="1" fill="#dfc7c2" /><rect x="1" y="7" width="1" height="1" fill="#d7bcb4" /><rect x="1" y="8" width="1" height="1" fill="#c59f99" /><rect x="1" y="9" width="1" height="1" fill="#a6827b" /><rect x="2" y="0" width="1" height="1" fill="#cdaba2" /><rect x="2" y="1" width="1" height="1" fill="#bd9791" /><rect x="2" y="2" width="1" height="1" fill="#b18881" /><rect x="2" y="3" width="1" height="1" fill="#c9a59d" /><rect x="2" y="4" width="1" height="1" fill="#d1afaa" /><rect x="2" y="5" width="1" height="1" fill="#cfaca6" /><rect x="2" y="6" width="1" height="1" fill="#c19d99" /><rect x="2" y="7" width="1" height="1" fill="#cca9a3" /><rect x="2" y="8" width="1" height="1" fill="#9e6063" /><rect x="2" y="9" width="1" height="1" fill="#c39691" /><rect x="3" y="0" width="1" height="1" fill="#d2b0a8" /><rect x="3" y="1" width="1" height="1" fill="#cdaaa1" /><rect x="3" y="2" width="1" height="1" fill="#cfada5" /><rect x="3" y="3" width="1" height="1" fill="#dbc5bd" /><rect x="3" y="4" width="1" height="1" fill="#ddc9c2" /><rect x="3" y="5" width="1" height="1" fill="#d7bfbb" /><rect x="3" y="6" width="1" height="1" fill="#ae8885" /><rect x="3" y="7" width="1" height="1" fill="#aa7a78" /><rect x="3" y="8" width="1" height="1" fill="#90414c" /><rect x="3" y="9" width="1" height="1" fill="#b38684" /><rect x="4" y="0" width="1" height="1" fill="#c3a49b" /><rect x="4" y="1" width="1" height="1" fill="#ac857e" /><rect x="4" y="2" width="1" height="1" fill="#ac7f78" /><rect x="4" y="3" width="1" height="1" fill="#cda8a2" /><rect x="4" y="4" width="1" height="1" fill="#cdaba6" /><rect x="4" y="5" width="1" height="1" fill="#c29c96" /><rect x="4" y="6" width="1" height="1" fill="#ad847f" /><rect x="4" y="7" width="1" height="1" fill="#bc9593" /><rect x="4" y="8" width="1" height="1" fill="#924c53" /><rect x="4" y="9" width="1" height="1" fill="#be938f" /><rect x="5" y="0" width="1" height="1" fill="#7d6761" /><rect x="5" y="1" width="1" height="1" fill="#784e4a" /><rect x="5" y="2" width="1" height="1" fill="#936b67" /><rect x="5" y="3" width="1" height="1" fill="#d0b0a9" /><rect x="5" y="4" width="1" height="1" fill="#d9bdb9" /><rect x="5" y="5" width="1" height="1" fill="#d6b7b1" /><rect x="5" y="6" width="1" height="1" fill="#d6b4ad" /><rect x="5" y="7" width="1" height="1" fill="#cfb0aa" /><rect x="5" y="8" width="1" height="1" fill="#b1817d" /><rect x="5" y="9" width="1" height="1" fill="#be958c" /><rect x="6" y="0" width="1" height="1" fill="#6d4c47" /><rect x="6" y="1" width="1" height="1" fill="#513937" /><rect x="6" y="2" width="1" height="1" fill="#8f7776" /><rect x="6" y="3" width="1" height="1" fill="#be9991" /><rect x="6" y="4" width="1" height="1" fill="#dbbdb8" /><rect x="6" y="5" width="1" height="1" fill="#d8b6af" /><rect x="6" y="6" width="1" height="1" fill="#d4b0aa" /><rect x="6" y="7" width="1" height="1" fill="#cba8a1" /><rect x="6" y="8" width="1" height="1" fill="#be968d" /><rect x="6" y="9" width="1" height="1" fill="#9a736d" /><rect x="7" y="0" width="1" height="1" fill="#8d6660" /><rect x="7" y="1" width="1" height="1" fill="#4a3737" /><rect x="7" y="2" width="1" height="1" fill="#4a4445" /><rect x="7" y="3" width="1" height="1" fill="#b08881" /><rect x="7" y="4" width="1" height="1" fill="#d7b0aa" /><rect x="7" y="5" width="1" height="1" fill="#cca29c" /><rect x="7" y="6" width="1" height="1" fill="#c29892" /><rect x="7" y="7" width="1" height="1" fill="#b58c87" /><rect x="7" y="8" width="1" height="1" fill="#97746e" /><rect x="7" y="9" width="1" height="1" fill="#66433f" /><rect x="8" y="0" width="1" height="1" fill="#74504e" /><rect x="8" y="1" width="1" height="1" fill="#4b302f" /><rect x="8" y="2" width="1" height="1" fill="#7a5350" /><rect x="8" y="3" width="1" height="1" fill="#bf928f" /><rect x="8" y="4" width="1" height="1" fill="#c1928f" /><rect x="8" y="5" width="1" height="1" fill="#b0817d" /><rect x="8" y="6" width="1" height="1" fill="#a37a75" /><rect x="8" y="7" width="1" height="1" fill="#7c5d59" /><rect x="8" y="8" width="1" height="1" fill="#543936" /><rect x="8" y="9" width="1" height="1" fill="#65413e" /><rect x="9" y="0" width="1" height="1" fill="#5b3d3c" /><rect x="9" y="1" width="1" height="1" fill="#6f4c49" /><rect x="9" y="2" width="1" height="1" fill="#8a615d" /><rect x="9" y="3" width="1" height="1" fill="#936663" /><rect x="9" y="4" width="1" height="1" fill="#825957" /><rect x="9" y="5" width="1" height="1" fill="#745453" /><rect x="9" y="6" width="1" height="1" fill="#604d4e" /><rect x="9" y="7" width="1" height="1" fill="#433537" /><rect x="9" y="8" width="1" height="1" fill="#392b2e" /><rect x="9" y="9" width="1" height="1" fill="#453437" /></g></svg>