<svg width="800" height="1000" xmlns="http://www.w3.org/2000/svg"><defs><linearGradient id="g" x1="0" x2="1" y1="0" y2="1"><stop offset="0%" stop-color="#2d3c96"/><stop offset="100%" stop-color="#d53392"/></linearGradient></defs><rect x="10" y="10" width="780" height="980" fill="url(#g)" rx="50" ry="50" stroke="gold" stroke-width="20"/><text x="400" y="920" width="780" text-anchor="middle" style="font:bold 200px 'Helvetica Neue';fill:gold">00680</text><g transform="translate(80 80) scale(64)"><rect x="0" y="0" width="1" height="1" fill="#ffffff" /><rect x="0" y="1" width="1" height="1" fill="#ffffff" /><rect x="0" y="2" width="1" height="1" fill="#ffffff" /><rect x="0" y="3" width="1" height="1" fill="#868686" /><rect x="0" y="4" width="1" height="1" fill="#000000" /><rect x="0" y="5" width="1" height="1" fill="#000000" /><rect x="0" y="6" width="1" height="1" fill="#000000" /><rect x="0" y="7" width="1" height="1" fill="#434343" /><rect x="0" y="8" width="1" height="1" fill="#ebebeb" /><rect x="0" y="9" width="1" height="1" fill="#ffffff" /><rect x="1" y="0" width="1" height="1" fill="#ffffff" /><rect x="1" y="1" width="1" height="1" fill="#ffffff" /><rect x="1" y="2" width="1" height="1" fill="#ffffff" /><rect x="1" y="3" width="1" height="1" fill="#ffffff" /><rect x="1" y="4" width="1" height="1" fill="#c9c9c9" /><rect x="1" y="5" width="1" height="1" fill="#0a0a0a" /><rect x="1" y="6" width="1" height="1" fill="#dcdcdc" /><rect x="1" y="7" width="1" height="1" fill="#a6a6a6" /><rect x="1" y="8" width="1" height="1" fill="#0f0f0f" /><rect x="1" y="9" width="1" height="1" fill="#4b4b4b" /><rect x="2" y="0" width="1" height="1" fill="#ffffff" /><rect x="2" y="1" width="1" height="1" fill="#fefefe" /><rect x="2" y="2" width="1" height="1" fill="#ffffff" /><rect x="2" y="3" width="1" height="1" fill="#ffffff" /><rect x="2" y="4" width="1" height="1" fill="#fefefe" /><rect x="2" y="5" width="1" height="1" fill="#575757" /><rect x="2" y="6" width="1" height="1" fill="#000000" /><rect x="2" y="7" width="1" height="1" fill="#d2d2d2" /><rect x="2" y="8" width="1" height="1" fill="#ffffff" /><rect x="2" y="9" width="1" height="1" fill="#b3b3b3" /><rect x="3" y="0" width="1" height="1" fill="#ffffff" /><rect x="3" y="1" width="1" height="1" fill="#ffffff" /><rect x="3" y="2" width="1" height="1" fill="#c8c8c8" /><rect x="3" y="3" width="1" height="1" fill="#313131" /><rect x="3" y="4" width="1" height="1" fill="#2e2e2e" /><rect x="3" y="5" width="1" height="1" fill="#000000" /><rect x="3" y="6" width="1" height="1" fill="#101010" /><rect x="3" y="7" width="1" height="1" fill="#505050" /><rect x="3" y="8" width="1" height="1" fill="#414141" /><rect x="3" y="9" width="1" height="1" fill="#787878" /><rect x="4" y="0" width="1" height="1" fill="#9c9c9c" /><rect x="4" y="1" width="1" height="1" fill="#262626" /><rect x="4" y="2" width="1" height="1" fill="#616161" /><rect x="4" y="3" width="1" height="1" fill="#f4f4f4" /><rect x="4" y="4" width="1" height="1" fill="#ffffff" /><rect x="4" y="5" width="1" height="1" fill="#ffffff" /><rect x="4" y="6" width="1" height="1" fill="#fcfcfc" /><rect x="4" y="7" width="1" height="1" fill="#ffffff" /><rect x="4" y="8" width="1" height="1" fill="#ffffff" /><rect x="4" y="9" width="1" height="1" fill="#ffffff" /><rect x="5" y="0" width="1" height="1" fill="#959595" /><rect x="5" y="1" width="1" height="1" fill="#ffffff" /><rect x="5" y="2" width="1" height="1" fill="#ffffff" /><rect x="5" y="3" width="1" height="1" fill="#ffffff" /><rect x="5" y="4" width="1" height="1" fill="#fefefe" /><rect x="5" y="5" width="1" height="1" fill="#ffffff" /><rect x="5" y="6" width="1" height="1" fill="#ffffff" /><rect x="5" y="7" width="1" height="1" fill="#ffffff" /><rect x="5" y="8" width="1" height="1" fill="#ffffff" /><rect x="5" y="9" width="1" height="1" fill="#ffffff" /><rect x="6" y="0" width="1" height="1" fill="#ffffff" /><rect x="6" y="1" width="1" height="1" fill="#ffffff" /><rect x="6" y="2" width="1" height="1" fill="#ffffff" /><rect x="6" y="3" width="1" height="1" fill="#ffffff" /><rect x="6" y="4" width="1" height="1" fill="#ffffff" /><rect x="6" y="5" width="1" height="1" fill="#ffffff" /><rect x="6" y="6" width="1" height="1" fill="#ffffff" /><rect x="6" y="7" width="1" height="1" fill="#ffffff" /><rect x="6" y="8" width="1" height="1" fill="#ffffff" /><rect x="6" y="9" width="1" height="1" fill="#ffffff" /><rect x="7" y="0" width="1" height="1" fill="#d1d1d1" /><rect x="7" y="1" width="1" height="1" fill="#e2e2e2" /><rect x="7" y="2" width="1" height="1" fill="#efefef" /><rect x="7" y="3" width="1" height="1" fill="#fcfcfc" /><rect x="7" y="4" width="1" height="1" fill="#fefefe" /><rect x="7" y="5" width="1" height="1" fill="#ffffff" /><rect x="7" y="6" width="1" height="1" fill="#ffffff" /><rect x="7" y="7" width="1" height="1" fill="#ffffff" /><rect x="7" y="8" width="1" height="1" fill="#ffffff" /><rect x="7" y="9" width="1" height="1" fill="#ffffff" /><rect x="8" y="0" width="1" height="1" fill="#373737" /><rect x="8" y="1" width="1" height="1" fill="#262626" /><rect x="8" y="2" width="1" height="1" fill="#757575" /><rect x="8" y="3" width="1" height="1" fill="#ffffff" /><rect x="8" y="4" width="1" height="1" fill="#ffffff" /><rect x="8" y="5" width="1" height="1" fill="#ffffff" /><rect x="8" y="6" width="1" height="1" fill="#ffffff" /><rect x="8" y="7" width="1" height="1" fill="#ffffff" /><rect x="8" y="8" width="1" height="1" fill="#ffffff" /><rect x="8" y="9" width="1" height="1" fill="#ffffff" /><rect x="9" y="0" width="1" height="1" fill="#ffffff" /><rect x="9" y="1" width="1" height="1" fill="#ffffff" /><rect x="9" y="2" width="1" height="1" fill="#ffffff" /><rect x="9" y="3" width="1" height="1" fill="#ffffff" /><rect x="9" y="4" width="1" height="1" fill="#ffffff" /><rect x="9" y="5" width="1" height="1" fill="#ffffff" /><rect x="9" y="6" width="1" height="1" fill="#ffffff" /><rect x="9" y="7" width="1" height="1" fill="#ffffff" /><rect x="9" y="8" width="1" height="1" fill="#ffffff" /><rect x="9" y="9" width="1" height="1" fill="#ffffff" /></g></svg>