<svg width="800" height="1000" xmlns="http://www.w3.org/2000/svg"><defs><linearGradient id="g" x1="0" x2="1" y1="0" y2="1"><stop offset="0%" stop-color="#2d3c96"/><stop offset="100%" stop-color="#d53392"/></linearGradient></defs><rect x="10" y="10" width="780" height="980" fill="url(#g)" rx="50" ry="50" stroke="gold" stroke-width="20"/><text x="400" y="920" width="780" text-anchor="middle" style="font:bold 200px 'Helvetica Neue';fill:gold">00702</text><g transform="translate(80 80) scale(64)"><rect x="0" y="0" width="1" height="1" fill="#aa0000" /><rect x="0" y="1" width="1" height="1" fill="#000000" /><rect x="0" y="2" width="1" height="1" fill="#b60f24" /><rect x="0" y="3" width="1" height="1" fill="#ba1222" /><rect x="0" y="4" width="1" height="1" fill="#ba1323" /><rect x="0" y="5" width="1" height="1" fill="#bb1222" /><rect x="0" y="6" width="1" height="1" fill="#ba1a27" /><rect x="0" y="7" width="1" height="1" fill="#bc3742" /><rect x="0" y="8" width="1" height="1" fill="#000000" /><rect x="0" y="9" width="1" height="1" fill="#aa0055" /><rect x="1" y="0" width="1" height="1" fill="#000000" /><rect x="1" y="1" width="1" height="1" fill="#b81221" /><rect x="1" y="2" width="1" height="1" fill="#c21626" /><rect x="1" y="3" width="1" height="1" fill="#c92430" /><rect x="1" y="4" width="1" height="1" fill="#c42731" /><rect x="1" y="5" width="1" height="1" fill="#c42b35" /><rect x="1" y="6" width="1" height="1" fill="#c91223" /><rect x="1" y="7" width="1" height="1" fill="#bf0712" /><rect x="1" y="8" width="1" height="1" fill="#ba232b" /><rect x="1" y="9" width="1" height="1" fill="#000000" /><rect x="2" y="0" width="1" height="1" fill="#b90f23" /><rect x="2" y="1" width="1" height="1" fill="#c31726" /><rect x="2" y="2" width="1" height="1" fill="#bd1222" /><rect x="2" y="3" width="1" height="1" fill="#b80610" /><rect x="2" y="4" width="1" height="1" fill="#b60510" /><rect x="2" y="5" width="1" height="1" fill="#b4050f" /><rect x="2" y="6" width="1" height="1" fill="#bf3c44" /><rect x="2" y="7" width="1" height="1" fill="#d28e8f" /><rect x="2" y="8" width="1" height="1" fill="#bf0712" /><rect x="2" y="9" width="1" height="1" fill="#b83641" /><rect x="3" y="0" width="1" height="1" fill="#bb1324" /><rect x="3" y="1" width="1" height="1" fill="#c91d2b" /><rect x="3" y="2" width="1" height="1" fill="#b90610" /><rect x="3" y="3" width="1" height="1" fill="#d29596" /><rect x="3" y="4" width="1" height="1" fill="#e7cdcf" /><rect x="3" y="5" width="1" height="1" fill="#e0bcbd" /><rect x="3" y="6" width="1" height="1" fill="#efdede" /><rect x="3" y="7" width="1" height="1" fill="#e3c6c7" /><rect x="3" y="8" width="1" height="1" fill="#c20712" /><rect x="3" y="9" width="1" height="1" fill="#bd323b" /><rect x="4" y="0" width="1" height="1" fill="#bc1f2b" /><rect x="4" y="1" width="1" height="1" fill="#c00712" /><rect x="4" y="2" width="1" height="1" fill="#c45f62" /><rect x="4" y="3" width="1" height="1" fill="#fcf9f9" /><rect x="4" y="4" width="1" height="1" fill="#ffffff" /><rect x="4" y="5" width="1" height="1" fill="#ffffff" /><rect x="4" y="6" width="1" height="1" fill="#ffffff" /><rect x="4" y="7" width="1" height="1" fill="#e9d3d3" /><rect x="4" y="8" width="1" height="1" fill="#c00712" /><rect x="4" y="9" width="1" height="1" fill="#bb1e2a" /><rect x="5" y="0" width="1" height="1" fill="#ba1223" /><rect x="5" y="1" width="1" height="1" fill="#c2212d" /><rect x="5" y="2" width="1" height="1" fill="#b80610" /><rect x="5" y="3" width="1" height="1" fill="#e9d0d1" /><rect x="5" y="4" width="1" height="1" fill="#d8a7a8" /><rect x="5" y="5" width="1" height="1" fill="#eddbdc" /><rect x="5" y="6" width="1" height="1" fill="#e8cfd0" /><rect x="5" y="7" width="1" height="1" fill="#c97578" /><rect x="5" y="8" width="1" height="1" fill="#c31928" /><rect x="5" y="9" width="1" height="1" fill="#bb1423" /><rect x="6" y="0" width="1" height="1" fill="#bb1121" /><rect x="6" y="1" width="1" height="1" fill="#c82330" /><rect x="6" y="2" width="1" height="1" fill="#b80610" /><rect x="6" y="3" width="1" height="1" fill="#c66669" /><rect x="6" y="4" width="1" height="1" fill="#d08f90" /><rect x="6" y="5" width="1" height="1" fill="#c0494e" /><rect x="6" y="6" width="1" height="1" fill="#b90711" /><rect x="6" y="7" width="1" height="1" fill="#b70510" /><rect x="6" y="8" width="1" height="1" fill="#c81b29" /><rect x="6" y="9" width="1" height="1" fill="#bb1222" /><rect x="7" y="0" width="1" height="1" fill="#b61926" /><rect x="7" y="1" width="1" height="1" fill="#c61827" /><rect x="7" y="2" width="1" height="1" fill="#bb091d" /><rect x="7" y="3" width="1" height="1" fill="#d9abac" /><rect x="7" y="4" width="1" height="1" fill="#eddbdb" /><rect x="7" y="5" width="1" height="1" fill="#deb6b7" /><rect x="7" y="6" width="1" height="1" fill="#bb1324" /><rect x="7" y="7" width="1" height="1" fill="#bd252f" /><rect x="7" y="8" width="1" height="1" fill="#c51726" /><rect x="7" y="9" width="1" height="1" fill="#b91225" /><rect x="8" y="0" width="1" height="1" fill="#000000" /><rect x="8" y="1" width="1" height="1" fill="#ba060f" /><rect x="8" y="2" width="1" height="1" fill="#ca3b44" /><rect x="8" y="3" width="1" height="1" fill="#e9bbbc" /><rect x="8" y="4" width="1" height="1" fill="#e8c7c7" /><rect x="8" y="5" width="1" height="1" fill="#e3babb" /><rect x="8" y="6" width="1" height="1" fill="#cc4a50" /><rect x="8" y="7" width="1" height="1" fill="#c50816" /><rect x="8" y="8" width="1" height="1" fill="#bc212a" /><rect x="8" y="9" width="1" height="1" fill="#000000" /><rect x="9" y="0" width="1" height="1" fill="#000000" /><rect x="9" y="1" width="1" height="1" fill="#000000" /><rect x="9" y="2" width="1" height="1" fill="#b60410" /><rect x="9" y="3" width="1" height="1" fill="#b9050f" /><rect x="9" y="4" width="1" height="1" fill="#be3c42" /><rect x="9" y="5" width="1" height="1" fill="#b80610" /><rect x="9" y="6" width="1" height="1" fill="#b9050f" /><rect x="9" y="7" width="1" height="1" fill="#bb222e" /><rect x="9" y="8" width="1" height="1" fill="#000000" /><rect x="9" y="9" width="1" height="1" fill="#7f0000" /></g></svg>