<svg width="800" height="1000" version="1.1" xmlns="http://www.w3.org/2000/svg" xmlns:xlink="http://www.w3.org/1999/xlink">
  <defs>
      <linearGradient id="Gradient2" x1="0" x2="1" y1="0" y2="1">
        <stop offset="0%" stop-color="#2d3c96"/>
        <stop offset="100%" stop-color="#d53392"/>
      </linearGradient>
  </defs>
  <rect x="10" y="10" width="780" height="980" fill="url(#Gradient2)" rx="50" ry="50" stroke="#ffd700" stroke-width="20"/>
  <text x="400" y="920" width="780" text-anchor="middle" style="font: bold 200px 'Helvetica Neue'; fill: #ffd700">00730</text>

  <g transform="translate(80 80) scale(64)">
<rect x="0" y="0" width="1" height="1" fill="#000000" />
,<rect x="0" y="1" width="1" height="1" fill="#000000" />
,<rect x="0" y="2" width="1" height="1" fill="#000000" />
,<rect x="0" y="3" width="1" height="1" fill="#000000" />
,<rect x="0" y="4" width="1" height="1" fill="#000000" />
,<rect x="0" y="5" width="1" height="1" fill="#000000" />
,<rect x="0" y="6" width="1" height="1" fill="#000000" />
,<rect x="0" y="7" width="1" height="1" fill="#000000" />
,<rect x="0" y="8" width="1" height="1" fill="#000000" />
,<rect x="0" y="9" width="1" height="1" fill="#000000" />
,<rect x="1" y="0" width="1" height="1" fill="#594f4e" />
,<rect x="1" y="1" width="1" height="1" fill="#534a49" />
,<rect x="1" y="2" width="1" height="1" fill="#5b5556" />
,<rect x="1" y="3" width="1" height="1" fill="#86878e" />
,<rect x="1" y="4" width="1" height="1" fill="#a4a6b1" />
,<rect x="1" y="5" width="1" height="1" fill="#000000" />
,<rect x="1" y="6" width="1" height="1" fill="#000000" />
,<rect x="1" y="7" width="1" height="1" fill="#000000" />
,<rect x="1" y="8" width="1" height="1" fill="#000000" />
,<rect x="1" y="9" width="1" height="1" fill="#000000" />
,<rect x="2" y="0" width="1" height="1" fill="#5e595b" />
,<rect x="2" y="1" width="1" height="1" fill="#919095" />
,<rect x="2" y="2" width="1" height="1" fill="#b5b5bc" />
,<rect x="2" y="3" width="1" height="1" fill="#bcbfca" />
,<rect x="2" y="4" width="1" height="1" fill="#b2b2be" />
,<rect x="2" y="5" width="1" height="1" fill="#000000" />
,<rect x="2" y="6" width="1" height="1" fill="#000000" />
,<rect x="2" y="7" width="1" height="1" fill="#8c8c8c" />
,<rect x="2" y="8" width="1" height="1" fill="#8c8c8c" />
,<rect x="2" y="9" width="1" height="1" fill="#000000" />
,<rect x="3" y="0" width="1" height="1" fill="#adafb7" />
,<rect x="3" y="1" width="1" height="1" fill="#c7cbd4" />
,<rect x="3" y="2" width="1" height="1" fill="#c1c3ce" />
,<rect x="3" y="3" width="1" height="1" fill="#b4b4c0" />
,<rect x="3" y="4" width="1" height="1" fill="#b0aeba" />
,<rect x="3" y="5" width="1" height="1" fill="#000000" />
,<rect x="3" y="6" width="1" height="1" fill="#000000" />
,<rect x="3" y="7" width="1" height="1" fill="#000000" />
,<rect x="3" y="8" width="1" height="1" fill="#766d6e" />
,<rect x="3" y="9" width="1" height="1" fill="#000000" />
,<rect x="4" y="0" width="1" height="1" fill="#a2a5ac" />
,<rect x="4" y="1" width="1" height="1" fill="#a8a7b0" />
,<rect x="4" y="2" width="1" height="1" fill="#a6a3ad" />
,<rect x="4" y="3" width="1" height="1" fill="#a6a4ae" />
,<rect x="4" y="4" width="1" height="1" fill="#a6a3ad" />
,<rect x="4" y="5" width="1" height="1" fill="#000000" />
,<rect x="4" y="6" width="1" height="1" fill="#000000" />
,<rect x="4" y="7" width="1" height="1" fill="#8c8c8c" />
,<rect x="4" y="8" width="1" height="1" fill="#8c8c8c" />
,<rect x="4" y="9" width="1" height="1" fill="#000000" />
,<rect x="5" y="0" width="1" height="1" fill="#636065" />
,<rect x="5" y="1" width="1" height="1" fill="#877b7d" />
,<rect x="5" y="2" width="1" height="1" fill="#a7a3ac" />
,<rect x="5" y="3" width="1" height="1" fill="#b6b6bf" />
,<rect x="5" y="4" width="1" height="1" fill="#babbc4" />
,<rect x="5" y="5" width="1" height="1" fill="#000000" />
,<rect x="5" y="6" width="1" height="1" fill="#000000" />
,<rect x="5" y="7" width="1" height="1" fill="#000000" />
,<rect x="5" y="8" width="1" height="1" fill="#818181" />
,<rect x="5" y="9" width="1" height="1" fill="#000000" />
,<rect x="6" y="0" width="1" height="1" fill="#524849" />
,<rect x="6" y="1" width="1" height="1" fill="#948c8e" />
,<rect x="6" y="2" width="1" height="1" fill="#bebbc1" />
,<rect x="6" y="3" width="1" height="1" fill="#bcbbc1" />
,<rect x="6" y="4" width="1" height="1" fill="#b5b5bb" />
,<rect x="6" y="5" width="1" height="1" fill="#000000" />
,<rect x="6" y="6" width="1" height="1" fill="#000000" />
,<rect x="6" y="7" width="1" height="1" fill="#000000" />
,<rect x="6" y="8" width="1" height="1" fill="#000000" />
,<rect x="6" y="9" width="1" height="1" fill="#000000" />
,<rect x="7" y="0" width="1" height="1" fill="#695f62" />
,<rect x="7" y="1" width="1" height="1" fill="#8e858a" />
,<rect x="7" y="2" width="1" height="1" fill="#928e94" />
,<rect x="7" y="3" width="1" height="1" fill="#898d95" />
,<rect x="7" y="4" width="1" height="1" fill="#98a1aa" />
,<rect x="7" y="5" width="1" height="1" fill="#000000" />
,<rect x="7" y="6" width="1" height="1" fill="#000000" />
,<rect x="7" y="7" width="1" height="1" fill="#000000" />
,<rect x="7" y="8" width="1" height="1" fill="#000000" />
,<rect x="7" y="9" width="1" height="1" fill="#000000" />
,<rect x="8" y="0" width="1" height="1" fill="#676972" />
,<rect x="8" y="1" width="1" height="1" fill="#6c7e8c" />
,<rect x="8" y="2" width="1" height="1" fill="#6e90a4" />
,<rect x="8" y="3" width="1" height="1" fill="#6c92a9" />
,<rect x="8" y="4" width="1" height="1" fill="#749bb3" />
,<rect x="8" y="5" width="1" height="1" fill="#000000" />
,<rect x="8" y="6" width="1" height="1" fill="#000000" />
,<rect x="8" y="7" width="1" height="1" fill="#000000" />
,<rect x="8" y="8" width="1" height="1" fill="#000000" />
,<rect x="8" y="9" width="1" height="1" fill="#000000" />
,<rect x="9" y="0" width="1" height="1" fill="#5e7584" />
,<rect x="9" y="1" width="1" height="1" fill="#688699" />
,<rect x="9" y="2" width="1" height="1" fill="#7397ad" />
,<rect x="9" y="3" width="1" height="1" fill="#77a0b8" />
,<rect x="9" y="4" width="1" height="1" fill="#78a2ba" />
,<rect x="9" y="5" width="1" height="1" fill="#000000" />
,<rect x="9" y="6" width="1" height="1" fill="#000000" />
,<rect x="9" y="7" width="1" height="1" fill="#000000" />
,<rect x="9" y="8" width="1" height="1" fill="#000000" />
,<rect x="9" y="9" width="1" height="1" fill="#000000" />

  </g>
</svg>