<svg width="800" height="1000" version="1.1" xmlns="http://www.w3.org/2000/svg" xmlns:xlink="http://www.w3.org/1999/xlink">
  <defs>
      <linearGradient id="Gradient2" x1="0" x2="1" y1="0" y2="1">
        <stop offset="0%" stop-color="#2d3c96"/>
        <stop offset="100%" stop-color="#d53392"/>
      </linearGradient>
  </defs>
  <rect x="10" y="10" width="780" height="980" fill="url(#Gradient2)" rx="50" ry="50" stroke="#ffd700" stroke-width="20"/>
  <text x="400" y="920" width="780" text-anchor="middle" style="font: bold 200px 'Helvetica Neue'; fill: #ffd700">00732</text>

  <g transform="translate(80 80) scale(64)">
<rect x="0" y="0" width="1" height="1" fill="#897d7f" />
,<rect x="0" y="1" width="1" height="1" fill="#c3bec3" />
,<rect x="0" y="2" width="1" height="1" fill="#c0bcc3" />
,<rect x="0" y="3" width="1" height="1" fill="#c8c9d1" />
,<rect x="0" y="4" width="1" height="1" fill="#c8c8d2" />
,<rect x="0" y="5" width="1" height="1" fill="#000000" />
,<rect x="0" y="6" width="1" height="1" fill="#000000" />
,<rect x="0" y="7" width="1" height="1" fill="#000000" />
,<rect x="0" y="8" width="1" height="1" fill="#000000" />
,<rect x="0" y="9" width="1" height="1" fill="#000000" />
,<rect x="1" y="0" width="1" height="1" fill="#716465" />
,<rect x="1" y="1" width="1" height="1" fill="#bcbac0" />
,<rect x="1" y="2" width="1" height="1" fill="#b7b6be" />
,<rect x="1" y="3" width="1" height="1" fill="#b7b6c0" />
,<rect x="1" y="4" width="1" height="1" fill="#b5b5bf" />
,<rect x="1" y="5" width="1" height="1" fill="#000000" />
,<rect x="1" y="6" width="1" height="1" fill="#000000" />
,<rect x="1" y="7" width="1" height="1" fill="#000000" />
,<rect x="1" y="8" width="1" height="1" fill="#000000" />
,<rect x="1" y="9" width="1" height="1" fill="#000000" />
,<rect x="2" y="0" width="1" height="1" fill="#8c8386" />
,<rect x="2" y="1" width="1" height="1" fill="#b5b5bf" />
,<rect x="2" y="2" width="1" height="1" fill="#b0b0bb" />
,<rect x="2" y="3" width="1" height="1" fill="#aeaeb9" />
,<rect x="2" y="4" width="1" height="1" fill="#a8a8b2" />
,<rect x="2" y="5" width="1" height="1" fill="#000000" />
,<rect x="2" y="6" width="1" height="1" fill="#000000" />
,<rect x="2" y="7" width="1" height="1" fill="#8c8c8c" />
,<rect x="2" y="8" width="1" height="1" fill="#8c8c8c" />
,<rect x="2" y="9" width="1" height="1" fill="#000000" />
,<rect x="3" y="0" width="1" height="1" fill="#bbbdc3" />
,<rect x="3" y="1" width="1" height="1" fill="#bec1c6" />
,<rect x="3" y="2" width="1" height="1" fill="#c0c1c8" />
,<rect x="3" y="3" width="1" height="1" fill="#bec0c8" />
,<rect x="3" y="4" width="1" height="1" fill="#babec6" />
,<rect x="3" y="5" width="1" height="1" fill="#000000" />
,<rect x="3" y="6" width="1" height="1" fill="#000000" />
,<rect x="3" y="7" width="1" height="1" fill="#000000" />
,<rect x="3" y="8" width="1" height="1" fill="#000000" />
,<rect x="3" y="9" width="1" height="1" fill="#000000" />
,<rect x="4" y="0" width="1" height="1" fill="#838d96" />
,<rect x="4" y="1" width="1" height="1" fill="#889aa6" />
,<rect x="4" y="2" width="1" height="1" fill="#8a929a" />
,<rect x="4" y="3" width="1" height="1" fill="#979da5" />
,<rect x="4" y="4" width="1" height="1" fill="#a4a6ad" />
,<rect x="4" y="5" width="1" height="1" fill="#000000" />
,<rect x="4" y="6" width="1" height="1" fill="#000000" />
,<rect x="4" y="7" width="1" height="1" fill="#000000" />
,<rect x="4" y="8" width="1" height="1" fill="#000000" />
,<rect x="4" y="9" width="1" height="1" fill="#000000" />
,<rect x="5" y="0" width="1" height="1" fill="#435762" />
,<rect x="5" y="1" width="1" height="1" fill="#546c79" />
,<rect x="5" y="2" width="1" height="1" fill="#506875" />
,<rect x="5" y="3" width="1" height="1" fill="#4d606c" />
,<rect x="5" y="4" width="1" height="1" fill="#596e7d" />
,<rect x="5" y="5" width="1" height="1" fill="#000000" />
,<rect x="5" y="6" width="1" height="1" fill="#000000" />
,<rect x="5" y="7" width="1" height="1" fill="#000000" />
,<rect x="5" y="8" width="1" height="1" fill="#000000" />
,<rect x="5" y="9" width="1" height="1" fill="#000000" />
,<rect x="6" y="0" width="1" height="1" fill="#000000" />
,<rect x="6" y="1" width="1" height="1" fill="#000000" />
,<rect x="6" y="2" width="1" height="1" fill="#000000" />
,<rect x="6" y="3" width="1" height="1" fill="#000000" />
,<rect x="6" y="4" width="1" height="1" fill="#000000" />
,<rect x="6" y="5" width="1" height="1" fill="#000000" />
,<rect x="6" y="6" width="1" height="1" fill="#000000" />
,<rect x="6" y="7" width="1" height="1" fill="#000000" />
,<rect x="6" y="8" width="1" height="1" fill="#000000" />
,<rect x="6" y="9" width="1" height="1" fill="#000000" />
,<rect x="7" y="0" width="1" height="1" fill="#000000" />
,<rect x="7" y="1" width="1" height="1" fill="#000000" />
,<rect x="7" y="2" width="1" height="1" fill="#000000" />
,<rect x="7" y="3" width="1" height="1" fill="#000000" />
,<rect x="7" y="4" width="1" height="1" fill="#000000" />
,<rect x="7" y="5" width="1" height="1" fill="#000000" />
,<rect x="7" y="6" width="1" height="1" fill="#000000" />
,<rect x="7" y="7" width="1" height="1" fill="#000000" />
,<rect x="7" y="8" width="1" height="1" fill="#000000" />
,<rect x="7" y="9" width="1" height="1" fill="#000000" />
,<rect x="8" y="0" width="1" height="1" fill="#aeaeae" />
,<rect x="8" y="1" width="1" height="1" fill="#aeaeae" />
,<rect x="8" y="2" width="1" height="1" fill="#aeaeae" />
,<rect x="8" y="3" width="1" height="1" fill="#aeaeae" />
,<rect x="8" y="4" width="1" height="1" fill="#aeaeae" />
,<rect x="8" y="5" width="1" height="1" fill="#aeaeae" />
,<rect x="8" y="6" width="1" height="1" fill="#aeaeae" />
,<rect x="8" y="7" width="1" height="1" fill="#aeaeae" />
,<rect x="8" y="8" width="1" height="1" fill="#aeaeae" />
,<rect x="8" y="9" width="1" height="1" fill="#aeaeae" />
,<rect x="9" y="0" width="1" height="1" fill="#000000" />
,<rect x="9" y="1" width="1" height="1" fill="#000000" />
,<rect x="9" y="2" width="1" height="1" fill="#000000" />
,<rect x="9" y="3" width="1" height="1" fill="#000000" />
,<rect x="9" y="4" width="1" height="1" fill="#000000" />
,<rect x="9" y="5" width="1" height="1" fill="#000000" />
,<rect x="9" y="6" width="1" height="1" fill="#000000" />
,<rect x="9" y="7" width="1" height="1" fill="#000000" />
,<rect x="9" y="8" width="1" height="1" fill="#000000" />
,<rect x="9" y="9" width="1" height="1" fill="#000000" />

  </g>
</svg>