<svg width="800" height="1000" version="1.1" xmlns="http://www.w3.org/2000/svg" xmlns:xlink="http://www.w3.org/1999/xlink">
  <defs>
      <linearGradient id="Gradient2" x1="0" x2="1" y1="0" y2="1">
        <stop offset="0%" stop-color="#2d3c96"/>
        <stop offset="100%" stop-color="#d53392"/>
      </linearGradient>
  </defs>
  <rect x="10" y="10" width="780" height="980" fill="url(#Gradient2)" rx="50" ry="50" stroke="#ffd700" stroke-width="20"/>
  <text x="400" y="920" width="780" text-anchor="middle" style="font: bold 200px 'Helvetica Neue'; fill: #ffd700">00731</text>

  <g transform="translate(80 80) scale(64)">
<rect x="0" y="0" width="1" height="1" fill="#644846" /><rect x="1" y="0" width="1" height="1" fill="#78514D" /><rect x="2" y="0" width="1" height="1" fill="#936D69" /><rect x="3" y="0" width="1" height="1" fill="#BA9690" /><rect x="4" y="0" width="1" height="1" fill="#B69089" /><rect x="5" y="0" width="1" height="1" fill="#87605A" /><rect x="6" y="0" width="1" height="1" fill="#643E37" /><rect x="7" y="0" width="1" height="1" fill="#68453F" /><rect x="8" y="0" width="1" height="1" fill="#6D4C47" /><rect x="9" y="0" width="1" height="1" fill="#545259" /><rect x="0" y="1" width="1" height="1" fill="#5D4848" /><rect x="1" y="1" width="1" height="1" fill="#734E49" /><rect x="2" y="1" width="1" height="1" fill="#704742" /><rect x="3" y="1" width="1" height="1" fill="#6D443F" /><rect x="4" y="1" width="1" height="1" fill="#704741" /><rect x="5" y="1" width="1" height="1" fill="#6C423C" /><rect x="6" y="1" width="1" height="1" fill="#6B453E" /><rect x="7" y="1" width="1" height="1" fill="#74504A" /><rect x="8" y="1" width="1" height="1" fill="#56484E" /><rect x="9" y="1" width="1" height="1" fill="#6E717C" /><rect x="0" y="2" width="1" height="1" fill="#615A61" /><rect x="1" y="2" width="1" height="1" fill="#714E49" /><rect x="2" y="2" width="1" height="1" fill="#835A54" /><rect x="3" y="2" width="1" height="1" fill="#805852" /><rect x="4" y="2" width="1" height="1" fill="#825952" /><rect x="5" y="2" width="1" height="1" fill="#845B55" /><rect x="6" y="2" width="1" height="1" fill="#80615E" /><rect x="7" y="2" width="1" height="1" fill="#666068" /><rect x="8" y="2" width="1" height="1" fill="#485869" /><rect x="9" y="2" width="1" height="1" fill="#A0A0A7" /><rect x="0" y="3" width="1" height="1" fill="#6B8290" /><rect x="1" y="3" width="1" height="1" fill="#725C5A" /><rect x="2" y="3" width="1" height="1" fill="#886A67" /><rect x="3" y="3" width="1" height="1" fill="#8E7475" /><rect x="4" y="3" width="1" height="1" fill="#87767A" /><rect x="5" y="3" width="1" height="1" fill="#7B7B83" /><rect x="6" y="3" width="1" height="1" fill="#6C7F8F" /><rect x="7" y="3" width="1" height="1" fill="#587387" /><rect x="8" y="3" width="1" height="1" fill="#6F7C89" /><rect x="9" y="3" width="1" height="1" fill="#C2C3CA" /><rect x="0" y="4" width="1" height="1" fill="#6F94A8" /><rect x="1" y="4" width="1" height="1" fill="#728898" /><rect x="2" y="4" width="1" height="1" fill="#748A99" /><rect x="3" y="4" width="1" height="1" fill="#6E8A9D" /><rect x="4" y="4" width="1" height="1" fill="#65879C" /><rect x="5" y="4" width="1" height="1" fill="#618299" /><rect x="6" y="4" width="1" height="1" fill="#63869E" /><rect x="7" y="4" width="1" height="1" fill="#6B8DA2" /><rect x="8" y="4" width="1" height="1" fill="#ADB5BE" /><rect x="9" y="4" width="1" height="1" fill="#CACAD2" /><rect x="0" y="5" width="1" height="1" fill="#000000" /><rect x="1" y="5" width="1" height="1" fill="#000000" /><rect x="2" y="5" width="1" height="1" fill="#000000" /><rect x="3" y="5" width="1" height="1" fill="#000000" /><rect x="4" y="5" width="1" height="1" fill="#000000" /><rect x="5" y="5" width="1" height="1" fill="#000000" /><rect x="6" y="5" width="1" height="1" fill="#000000" /><rect x="7" y="5" width="1" height="1" fill="#000000" /><rect x="8" y="5" width="1" height="1" fill="#000000" /><rect x="9" y="5" width="1" height="1" fill="#000000" /><rect x="0" y="6" width="1" height="1" fill="#000000" /><rect x="1" y="6" width="1" height="1" fill="#000000" /><rect x="2" y="6" width="1" height="1" fill="#000000" /><rect x="3" y="6" width="1" height="1" fill="#000000" /><rect x="4" y="6" width="1" height="1" fill="#000000" /><rect x="5" y="6" width="1" height="1" fill="#000000" /><rect x="6" y="6" width="1" height="1" fill="#000000" /><rect x="7" y="6" width="1" height="1" fill="#000000" /><rect x="8" y="6" width="1" height="1" fill="#000000" /><rect x="9" y="6" width="1" height="1" fill="#000000" /><rect x="0" y="7" width="1" height="1" fill="#000000" /><rect x="1" y="7" width="1" height="1" fill="#766D6E" /><rect x="2" y="7" width="1" height="1" fill="#6C6465" /><rect x="3" y="7" width="1" height="1" fill="#717171" /><rect x="4" y="7" width="1" height="1" fill="#61595A" /><rect x="5" y="7" width="1" height="1" fill="#606060" /><rect x="6" y="7" width="1" height="1" fill="#000000" /><rect x="7" y="7" width="1" height="1" fill="#000000" /><rect x="8" y="7" width="1" height="1" fill="#000000" /><rect x="9" y="7" width="1" height="1" fill="#000000" /><rect x="0" y="8" width="1" height="1" fill="#000000" /><rect x="1" y="8" width="1" height="1" fill="#737373" /><rect x="2" y="8" width="1" height="1" fill="#000000" /><rect x="3" y="8" width="1" height="1" fill="#7D7D7D" /><rect x="4" y="8" width="1" height="1" fill="#766D6E" /><rect x="5" y="8" width="1" height="1" fill="#7C7C7C" /><rect x="6" y="8" width="1" height="1" fill="#8A8A8A" /><rect x="7" y="8" width="1" height="1" fill="#000000" /><rect x="8" y="8" width="1" height="1" fill="#000000" /><rect x="9" y="8" width="1" height="1" fill="#000000" /><rect x="0" y="9" width="1" height="1" fill="#000000" /><rect x="1" y="9" width="1" height="1" fill="#000000" /><rect x="2" y="9" width="1" height="1" fill="#000000" /><rect x="3" y="9" width="1" height="1" fill="#000000" /><rect x="4" y="9" width="1" height="1" fill="#000000" /><rect x="5" y="9" width="1" height="1" fill="#000000" /><rect x="6" y="9" width="1" height="1" fill="#000000" /><rect x="7" y="9" width="1" height="1" fill="#000000" /><rect x="8" y="9" width="1" height="1" fill="#000000" /><rect x="9" y="9" width="1" height="1" fill="#000000" />
  </g>
</svg>