<svg width="800" height="1000" version="1.1" xmlns="http://www.w3.org/2000/svg" xmlns:xlink="http://www.w3.org/1999/xlink">
  <defs>
      <linearGradient id="Gradient2" x1="0" x2="1" y1="0" y2="1">
        <stop offset="0%" stop-color="#2d3c96"/>
        <stop offset="100%" stop-color="#d53392"/>
      </linearGradient>
  </defs>
  <rect x="10" y="10" width="780" height="980" fill="url(#Gradient2)" rx="50" ry="50" stroke="#ffd700" stroke-width="20"/>
  <text x="400" y="920" width="780" text-anchor="middle" style="font: bold 200px 'Helvetica Neue'; fill: #ffd700">00730</text>

  <g transform="translate(80 80) scale(64)">
<rect x="0" y="0" width="1" height="1" fill="#000000" /><rect x="1" y="0" width="1" height="1" fill="#594F4E" /><rect x="2" y="0" width="1" height="1" fill="#5E595B" /><rect x="3" y="0" width="1" height="1" fill="#ADAFB7" /><rect x="4" y="0" width="1" height="1" fill="#A2A5AC" /><rect x="5" y="0" width="1" height="1" fill="#636065" /><rect x="6" y="0" width="1" height="1" fill="#524849" /><rect x="7" y="0" width="1" height="1" fill="#695F62" /><rect x="8" y="0" width="1" height="1" fill="#676972" /><rect x="9" y="0" width="1" height="1" fill="#5E7584" /><rect x="0" y="1" width="1" height="1" fill="#000000" /><rect x="1" y="1" width="1" height="1" fill="#534A49" /><rect x="2" y="1" width="1" height="1" fill="#919095" /><rect x="3" y="1" width="1" height="1" fill="#C7CBD4" /><rect x="4" y="1" width="1" height="1" fill="#A8A7B0" /><rect x="5" y="1" width="1" height="1" fill="#877B7D" /><rect x="6" y="1" width="1" height="1" fill="#948C8E" /><rect x="7" y="1" width="1" height="1" fill="#8E858A" /><rect x="8" y="1" width="1" height="1" fill="#6C7E8C" /><rect x="9" y="1" width="1" height="1" fill="#688699" /><rect x="0" y="2" width="1" height="1" fill="#000000" /><rect x="1" y="2" width="1" height="1" fill="#5B5556" /><rect x="2" y="2" width="1" height="1" fill="#B5B5BC" /><rect x="3" y="2" width="1" height="1" fill="#C1C3CE" /><rect x="4" y="2" width="1" height="1" fill="#A6A3AD" /><rect x="5" y="2" width="1" height="1" fill="#A7A3AC" /><rect x="6" y="2" width="1" height="1" fill="#BEBBC1" /><rect x="7" y="2" width="1" height="1" fill="#928E94" /><rect x="8" y="2" width="1" height="1" fill="#6E90A4" /><rect x="9" y="2" width="1" height="1" fill="#7397AD" /><rect x="0" y="3" width="1" height="1" fill="#000000" /><rect x="1" y="3" width="1" height="1" fill="#86878E" /><rect x="2" y="3" width="1" height="1" fill="#BCBFCA" /><rect x="3" y="3" width="1" height="1" fill="#B4B4C0" /><rect x="4" y="3" width="1" height="1" fill="#A6A4AE" /><rect x="5" y="3" width="1" height="1" fill="#B6B6BF" /><rect x="6" y="3" width="1" height="1" fill="#BCBBC1" /><rect x="7" y="3" width="1" height="1" fill="#898D95" /><rect x="8" y="3" width="1" height="1" fill="#6C92A9" /><rect x="9" y="3" width="1" height="1" fill="#77A0B8" /><rect x="0" y="4" width="1" height="1" fill="#000000" /><rect x="1" y="4" width="1" height="1" fill="#A4A6B1" /><rect x="2" y="4" width="1" height="1" fill="#B2B2BE" /><rect x="3" y="4" width="1" height="1" fill="#B0AEBA" /><rect x="4" y="4" width="1" height="1" fill="#A6A3AD" /><rect x="5" y="4" width="1" height="1" fill="#BABBC4" /><rect x="6" y="4" width="1" height="1" fill="#B5B5BB" /><rect x="7" y="4" width="1" height="1" fill="#98A1AA" /><rect x="8" y="4" width="1" height="1" fill="#749BB3" /><rect x="9" y="4" width="1" height="1" fill="#78A2BA" /><rect x="0" y="5" width="1" height="1" fill="#000000" /><rect x="1" y="5" width="1" height="1" fill="#000000" /><rect x="2" y="5" width="1" height="1" fill="#000000" /><rect x="3" y="5" width="1" height="1" fill="#000000" /><rect x="4" y="5" width="1" height="1" fill="#000000" /><rect x="5" y="5" width="1" height="1" fill="#000000" /><rect x="6" y="5" width="1" height="1" fill="#000000" /><rect x="7" y="5" width="1" height="1" fill="#000000" /><rect x="8" y="5" width="1" height="1" fill="#000000" /><rect x="9" y="5" width="1" height="1" fill="#000000" /><rect x="0" y="6" width="1" height="1" fill="#000000" /><rect x="1" y="6" width="1" height="1" fill="#000000" /><rect x="2" y="6" width="1" height="1" fill="#000000" /><rect x="3" y="6" width="1" height="1" fill="#000000" /><rect x="4" y="6" width="1" height="1" fill="#000000" /><rect x="5" y="6" width="1" height="1" fill="#000000" /><rect x="6" y="6" width="1" height="1" fill="#000000" /><rect x="7" y="6" width="1" height="1" fill="#000000" /><rect x="8" y="6" width="1" height="1" fill="#000000" /><rect x="9" y="6" width="1" height="1" fill="#000000" /><rect x="0" y="7" width="1" height="1" fill="#000000" /><rect x="1" y="7" width="1" height="1" fill="#000000" /><rect x="2" y="7" width="1" height="1" fill="#8C8C8C" /><rect x="3" y="7" width="1" height="1" fill="#000000" /><rect x="4" y="7" width="1" height="1" fill="#8C8C8C" /><rect x="5" y="7" width="1" height="1" fill="#000000" /><rect x="6" y="7" width="1" height="1" fill="#000000" /><rect x="7" y="7" width="1" height="1" fill="#000000" /><rect x="8" y="7" width="1" height="1" fill="#000000" /><rect x="9" y="7" width="1" height="1" fill="#000000" /><rect x="0" y="8" width="1" height="1" fill="#000000" /><rect x="1" y="8" width="1" height="1" fill="#000000" /><rect x="2" y="8" width="1" height="1" fill="#8C8C8C" /><rect x="3" y="8" width="1" height="1" fill="#766D6E" /><rect x="4" y="8" width="1" height="1" fill="#8C8C8C" /><rect x="5" y="8" width="1" height="1" fill="#818181" /><rect x="6" y="8" width="1" height="1" fill="#000000" /><rect x="7" y="8" width="1" height="1" fill="#000000" /><rect x="8" y="8" width="1" height="1" fill="#000000" /><rect x="9" y="8" width="1" height="1" fill="#000000" /><rect x="0" y="9" width="1" height="1" fill="#000000" /><rect x="1" y="9" width="1" height="1" fill="#000000" /><rect x="2" y="9" width="1" height="1" fill="#000000" /><rect x="3" y="9" width="1" height="1" fill="#000000" /><rect x="4" y="9" width="1" height="1" fill="#000000" /><rect x="5" y="9" width="1" height="1" fill="#000000" /><rect x="6" y="9" width="1" height="1" fill="#000000" /><rect x="7" y="9" width="1" height="1" fill="#000000" /><rect x="8" y="9" width="1" height="1" fill="#000000" /><rect x="9" y="9" width="1" height="1" fill="#000000" />
  </g>
</svg>