<svg width="800" height="1000" version="1.1" xmlns="http://www.w3.org/2000/svg" xmlns:xlink="http://www.w3.org/1999/xlink">
  <defs>
      <linearGradient id="Gradient2" x1="0" x2="1" y1="0" y2="1">
        <stop offset="0%" stop-color="#2d3c96"/>
        <stop offset="100%" stop-color="#d53392"/>
      </linearGradient>
  </defs>
  <rect x="10" y="10" width="780" height="980" fill="url(#Gradient2)" rx="50" ry="50" stroke="#ffd700" stroke-width="20"/>
  <text x="400" y="920" width="780" text-anchor="middle" style="font: bold 200px 'Helvetica Neue'; fill: #ffd700">00731</text>

  <g transform="translate(80 80) scale(64)">
<rect x="0" y="0" width="1" height="1" fill="#644846" />
,<rect x="0" y="1" width="1" height="1" fill="#5d4848" />
,<rect x="0" y="2" width="1" height="1" fill="#615a61" />
,<rect x="0" y="3" width="1" height="1" fill="#6b8290" />
,<rect x="0" y="4" width="1" height="1" fill="#6f94a8" />
,<rect x="0" y="5" width="1" height="1" fill="#000000" />
,<rect x="0" y="6" width="1" height="1" fill="#000000" />
,<rect x="0" y="7" width="1" height="1" fill="#000000" />
,<rect x="0" y="8" width="1" height="1" fill="#000000" />
,<rect x="0" y="9" width="1" height="1" fill="#000000" />
,<rect x="1" y="0" width="1" height="1" fill="#78514d" />
,<rect x="1" y="1" width="1" height="1" fill="#734e49" />
,<rect x="1" y="2" width="1" height="1" fill="#714e49" />
,<rect x="1" y="3" width="1" height="1" fill="#725c5a" />
,<rect x="1" y="4" width="1" height="1" fill="#728898" />
,<rect x="1" y="5" width="1" height="1" fill="#000000" />
,<rect x="1" y="6" width="1" height="1" fill="#000000" />
,<rect x="1" y="7" width="1" height="1" fill="#766d6e" />
,<rect x="1" y="8" width="1" height="1" fill="#737373" />
,<rect x="1" y="9" width="1" height="1" fill="#000000" />
,<rect x="2" y="0" width="1" height="1" fill="#936d69" />
,<rect x="2" y="1" width="1" height="1" fill="#704742" />
,<rect x="2" y="2" width="1" height="1" fill="#835a54" />
,<rect x="2" y="3" width="1" height="1" fill="#886a67" />
,<rect x="2" y="4" width="1" height="1" fill="#748a99" />
,<rect x="2" y="5" width="1" height="1" fill="#000000" />
,<rect x="2" y="6" width="1" height="1" fill="#000000" />
,<rect x="2" y="7" width="1" height="1" fill="#6c6465" />
,<rect x="2" y="8" width="1" height="1" fill="#000000" />
,<rect x="2" y="9" width="1" height="1" fill="#000000" />
,<rect x="3" y="0" width="1" height="1" fill="#ba9690" />
,<rect x="3" y="1" width="1" height="1" fill="#6d443f" />
,<rect x="3" y="2" width="1" height="1" fill="#805852" />
,<rect x="3" y="3" width="1" height="1" fill="#8e7475" />
,<rect x="3" y="4" width="1" height="1" fill="#6e8a9d" />
,<rect x="3" y="5" width="1" height="1" fill="#000000" />
,<rect x="3" y="6" width="1" height="1" fill="#000000" />
,<rect x="3" y="7" width="1" height="1" fill="#717171" />
,<rect x="3" y="8" width="1" height="1" fill="#7d7d7d" />
,<rect x="3" y="9" width="1" height="1" fill="#000000" />
,<rect x="4" y="0" width="1" height="1" fill="#b69089" />
,<rect x="4" y="1" width="1" height="1" fill="#704741" />
,<rect x="4" y="2" width="1" height="1" fill="#825952" />
,<rect x="4" y="3" width="1" height="1" fill="#87767a" />
,<rect x="4" y="4" width="1" height="1" fill="#65879c" />
,<rect x="4" y="5" width="1" height="1" fill="#000000" />
,<rect x="4" y="6" width="1" height="1" fill="#000000" />
,<rect x="4" y="7" width="1" height="1" fill="#61595a" />
,<rect x="4" y="8" width="1" height="1" fill="#766d6e" />
,<rect x="4" y="9" width="1" height="1" fill="#000000" />
,<rect x="5" y="0" width="1" height="1" fill="#87605a" />
,<rect x="5" y="1" width="1" height="1" fill="#6c423c" />
,<rect x="5" y="2" width="1" height="1" fill="#845b55" />
,<rect x="5" y="3" width="1" height="1" fill="#7b7b83" />
,<rect x="5" y="4" width="1" height="1" fill="#618299" />
,<rect x="5" y="5" width="1" height="1" fill="#000000" />
,<rect x="5" y="6" width="1" height="1" fill="#000000" />
,<rect x="5" y="7" width="1" height="1" fill="#606060" />
,<rect x="5" y="8" width="1" height="1" fill="#7c7c7c" />
,<rect x="5" y="9" width="1" height="1" fill="#000000" />
,<rect x="6" y="0" width="1" height="1" fill="#643e37" />
,<rect x="6" y="1" width="1" height="1" fill="#6b453e" />
,<rect x="6" y="2" width="1" height="1" fill="#80615e" />
,<rect x="6" y="3" width="1" height="1" fill="#6c7f8f" />
,<rect x="6" y="4" width="1" height="1" fill="#63869e" />
,<rect x="6" y="5" width="1" height="1" fill="#000000" />
,<rect x="6" y="6" width="1" height="1" fill="#000000" />
,<rect x="6" y="7" width="1" height="1" fill="#000000" />
,<rect x="6" y="8" width="1" height="1" fill="#8a8a8a" />
,<rect x="6" y="9" width="1" height="1" fill="#000000" />
,<rect x="7" y="0" width="1" height="1" fill="#68453f" />
,<rect x="7" y="1" width="1" height="1" fill="#74504a" />
,<rect x="7" y="2" width="1" height="1" fill="#666068" />
,<rect x="7" y="3" width="1" height="1" fill="#587387" />
,<rect x="7" y="4" width="1" height="1" fill="#6b8da2" />
,<rect x="7" y="5" width="1" height="1" fill="#000000" />
,<rect x="7" y="6" width="1" height="1" fill="#000000" />
,<rect x="7" y="7" width="1" height="1" fill="#000000" />
,<rect x="7" y="8" width="1" height="1" fill="#000000" />
,<rect x="7" y="9" width="1" height="1" fill="#000000" />
,<rect x="8" y="0" width="1" height="1" fill="#6d4c47" />
,<rect x="8" y="1" width="1" height="1" fill="#56484e" />
,<rect x="8" y="2" width="1" height="1" fill="#485869" />
,<rect x="8" y="3" width="1" height="1" fill="#6f7c89" />
,<rect x="8" y="4" width="1" height="1" fill="#adb5be" />
,<rect x="8" y="5" width="1" height="1" fill="#000000" />
,<rect x="8" y="6" width="1" height="1" fill="#000000" />
,<rect x="8" y="7" width="1" height="1" fill="#000000" />
,<rect x="8" y="8" width="1" height="1" fill="#000000" />
,<rect x="8" y="9" width="1" height="1" fill="#000000" />
,<rect x="9" y="0" width="1" height="1" fill="#545259" />
,<rect x="9" y="1" width="1" height="1" fill="#6e717c" />
,<rect x="9" y="2" width="1" height="1" fill="#a0a0a7" />
,<rect x="9" y="3" width="1" height="1" fill="#c2c3ca" />
,<rect x="9" y="4" width="1" height="1" fill="#cacad2" />
,<rect x="9" y="5" width="1" height="1" fill="#000000" />
,<rect x="9" y="6" width="1" height="1" fill="#000000" />
,<rect x="9" y="7" width="1" height="1" fill="#000000" />
,<rect x="9" y="8" width="1" height="1" fill="#000000" />
,<rect x="9" y="9" width="1" height="1" fill="#000000" />

  </g>
</svg>