<svg width="800" height="1000" version="1.1" xmlns="http://www.w3.org/2000/svg" xmlns:xlink="http://www.w3.org/1999/xlink">
  <defs>
      <linearGradient id="Gradient2" x1="0" x2="1" y1="0" y2="1">
        <stop offset="0%" stop-color="#2d3c96"/>
        <stop offset="100%" stop-color="#d53392"/>
      </linearGradient>
  </defs>
  <rect x="10" y="10" width="780" height="980" fill="url(#Gradient2)" rx="50" ry="50" stroke="#ffd700" stroke-width="20"/>
  <text x="400" y="920" width="780" text-anchor="middle" style="font: bold 200px 'Helvetica Neue'; fill: #ffd700">00789</text>

  <g transform="translate(80 80) scale(64)">
<rect x="0" y="0" width="1" height="1" fill="#fefeff" />
,<rect x="0" y="1" width="1" height="1" fill="#fffffe" />
,<rect x="0" y="2" width="1" height="1" fill="#fffeff" />
,<rect x="0" y="3" width="1" height="1" fill="#feffff" />
,<rect x="0" y="4" width="1" height="1" fill="#fffefe" />
,<rect x="0" y="5" width="1" height="1" fill="#fffffe" />
,<rect x="0" y="6" width="1" height="1" fill="#fefefe" />
,<rect x="0" y="7" width="1" height="1" fill="#fefefe" />
,<rect x="0" y="8" width="1" height="1" fill="#feffff" />
,<rect x="0" y="9" width="1" height="1" fill="#fefeff" />
,<rect x="1" y="0" width="1" height="1" fill="#fefefe" />
,<rect x="1" y="1" width="1" height="1" fill="#fefffe" />
,<rect x="1" y="2" width="1" height="1" fill="#fffefe" />
,<rect x="1" y="3" width="1" height="1" fill="#fffeff" />
,<rect x="1" y="4" width="1" height="1" fill="#fefeff" />
,<rect x="1" y="5" width="1" height="1" fill="#feffff" />
,<rect x="1" y="6" width="1" height="1" fill="#feffff" />
,<rect x="1" y="7" width="1" height="1" fill="#fffffe" />
,<rect x="1" y="8" width="1" height="1" fill="#fffeff" />
,<rect x="1" y="9" width="1" height="1" fill="#fffffe" />
,<rect x="2" y="0" width="1" height="1" fill="#fefefe" />
,<rect x="2" y="1" width="1" height="1" fill="#fffffe" />
,<rect x="2" y="2" width="1" height="1" fill="#ffe4ef" />
,<rect x="2" y="3" width="1" height="1" fill="#fecbdd" />
,<rect x="2" y="4" width="1" height="1" fill="#ffcadc" />
,<rect x="2" y="5" width="1" height="1" fill="#fed8e5" />
,<rect x="2" y="6" width="1" height="1" fill="#fefeff" />
,<rect x="2" y="7" width="1" height="1" fill="#fffffe" />
,<rect x="2" y="8" width="1" height="1" fill="#feffff" />
,<rect x="2" y="9" width="1" height="1" fill="#ffffff" />
,<rect x="3" y="0" width="1" height="1" fill="#fef3f6" />
,<rect x="3" y="1" width="1" height="1" fill="#fe508b" />
,<rect x="3" y="2" width="1" height="1" fill="#ff3377" />
,<rect x="3" y="3" width="1" height="1" fill="#fe3077" />
,<rect x="3" y="4" width="1" height="1" fill="#fe3376" />
,<rect x="3" y="5" width="1" height="1" fill="#f5317f" />
,<rect x="3" y="6" width="1" height="1" fill="#e03292" />
,<rect x="3" y="7" width="1" height="1" fill="#d659b6" />
,<rect x="3" y="8" width="1" height="1" fill="#d37fd5" />
,<rect x="3" y="9" width="1" height="1" fill="#f8f2fc" />
,<rect x="4" y="0" width="1" height="1" fill="#fe4987" />
,<rect x="4" y="1" width="1" height="1" fill="#fe3177" />
,<rect x="4" y="2" width="1" height="1" fill="#ff3076" />
,<rect x="4" y="3" width="1" height="1" fill="#ff3077" />
,<rect x="4" y="4" width="1" height="1" fill="#f8307a" />
,<rect x="4" y="5" width="1" height="1" fill="#e43391" />
,<rect x="4" y="6" width="1" height="1" fill="#d132a3" />
,<rect x="4" y="7" width="1" height="1" fill="#bc33b6" />
,<rect x="4" y="8" width="1" height="1" fill="#a633ca" />
,<rect x="4" y="9" width="1" height="1" fill="#ae66e6" />
,<rect x="5" y="0" width="1" height="1" fill="#ff3176" />
,<rect x="5" y="1" width="1" height="1" fill="#fe3076" />
,<rect x="5" y="2" width="1" height="1" fill="#fe3177" />
,<rect x="5" y="3" width="1" height="1" fill="#fe3276" />
,<rect x="5" y="4" width="1" height="1" fill="#f13383" />
,<rect x="5" y="5" width="1" height="1" fill="#d5329e" />
,<rect x="5" y="6" width="1" height="1" fill="#c133b4" />
,<rect x="5" y="7" width="1" height="1" fill="#aa33c7" />
,<rect x="5" y="8" width="1" height="1" fill="#9634da" />
,<rect x="5" y="9" width="1" height="1" fill="#934df1" />
,<rect x="6" y="0" width="1" height="1" fill="#ff4d88" />
,<rect x="6" y="1" width="1" height="1" fill="#fe3177" />
,<rect x="6" y="2" width="1" height="1" fill="#fe3275" />
,<rect x="6" y="3" width="1" height="1" fill="#ff3475" />
,<rect x="6" y="4" width="1" height="1" fill="#fe3973" />
,<rect x="6" y="5" width="1" height="1" fill="#e8509a" />
,<rect x="6" y="6" width="1" height="1" fill="#b43ec6" />
,<rect x="6" y="7" width="1" height="1" fill="#9b33d6" />
,<rect x="6" y="8" width="1" height="1" fill="#8632ea" />
,<rect x="6" y="9" width="1" height="1" fill="#cab2fe" />
,<rect x="7" y="0" width="1" height="1" fill="#fef2f6" />
,<rect x="7" y="1" width="1" height="1" fill="#fe3b7b" />
,<rect x="7" y="2" width="1" height="1" fill="#ff3575" />
,<rect x="7" y="3" width="1" height="1" fill="#fe3972" />
,<rect x="7" y="4" width="1" height="1" fill="#ff3e70" />
,<rect x="7" y="5" width="1" height="1" fill="#ff426d" />
,<rect x="7" y="6" width="1" height="1" fill="#ff9aab" />
,<rect x="7" y="7" width="1" height="1" fill="#f1e5fd" />
,<rect x="7" y="8" width="1" height="1" fill="#eee7ff" />
,<rect x="7" y="9" width="1" height="1" fill="#ffffff" />
,<rect x="8" y="0" width="1" height="1" fill="#ffffff" />
,<rect x="8" y="1" width="1" height="1" fill="#fed9e5" />
,<rect x="8" y="2" width="1" height="1" fill="#ff5e8d" />
,<rect x="8" y="3" width="1" height="1" fill="#fe3e70" />
,<rect x="8" y="4" width="1" height="1" fill="#fe436c" />
,<rect x="8" y="5" width="1" height="1" fill="#ff4c68" />
,<rect x="8" y="6" width="1" height="1" fill="#ff5464" />
,<rect x="8" y="7" width="1" height="1" fill="#ffc3c3" />
,<rect x="8" y="8" width="1" height="1" fill="#fffeff" />
,<rect x="8" y="9" width="1" height="1" fill="#fffffe" />
,<rect x="9" y="0" width="1" height="1" fill="#feffff" />
,<rect x="9" y="1" width="1" height="1" fill="#fefffe" />
,<rect x="9" y="2" width="1" height="1" fill="#fff2f6" />
,<rect x="9" y="3" width="1" height="1" fill="#fe6689" />
,<rect x="9" y="4" width="1" height="1" fill="#ff4c69" />
,<rect x="9" y="5" width="1" height="1" fill="#fe5664" />
,<rect x="9" y="6" width="1" height="1" fill="#fe6060" />
,<rect x="9" y="7" width="1" height="1" fill="#ff6b5b" />
,<rect x="9" y="8" width="1" height="1" fill="#fee4df" />
,<rect x="9" y="9" width="1" height="1" fill="#feffff" />

  </g>
</svg>