<svg width="800" height="1000" xmlns="http://www.w3.org/2000/svg"><defs><linearGradient id="g" x1="0" x2="1" y1="0" y2="1"><stop offset="0%" stop-color="#2d3c96"/><stop offset="100%" stop-color="#d53392"/></linearGradient></defs><rect x="10" y="10" width="780" height="980" fill="url(#g)" rx="50" ry="50" stroke="gold" stroke-width="20"/><text x="400" y="920" width="780" text-anchor="middle" style="font:bold 200px 'Helvetica Neue';fill:gold">00790</text><g transform="translate(80 80) scale(64)"><rect x="0" y="0" width="1" height="1" fill="#fffeff" /><rect x="0" y="1" width="1" height="1" fill="#fefefe" /><rect x="0" y="2" width="1" height="1" fill="#fffefe" /><rect x="0" y="3" width="1" height="1" fill="#fff4f7" /><rect x="0" y="4" width="1" height="1" fill="#ff7781" /><rect x="0" y="5" width="1" height="1" fill="#ff6061" /><rect x="0" y="6" width="1" height="1" fill="#ff6b5b" /><rect x="0" y="7" width="1" height="1" fill="#fe7756" /><rect x="0" y="8" width="1" height="1" fill="#ffa27b" /><rect x="0" y="9" width="1" height="1" fill="#fefeff" /><rect x="1" y="0" width="1" height="1" fill="#fffefe" /><rect x="1" y="1" width="1" height="1" fill="#fefeff" /><rect x="1" y="2" width="1" height="1" fill="#fffefe" /><rect x="1" y="3" width="1" height="1" fill="#feffff" /><rect x="1" y="4" width="1" height="1" fill="#feebeb" /><rect x="1" y="5" width="1" height="1" fill="#fe7565" /><rect x="1" y="6" width="1" height="1" fill="#ff7956" /><rect x="1" y="7" width="1" height="1" fill="#fe8550" /><rect x="1" y="8" width="1" height="1" fill="#ff934a" /><rect x="1" y="9" width="1" height="1" fill="#fef3e9" /><rect x="2" y="0" width="1" height="1" fill="#fffefe" /><rect x="2" y="1" width="1" height="1" fill="#fffffe" /><rect x="2" y="2" width="1" height="1" fill="#fefefe" /><rect x="2" y="3" width="1" height="1" fill="#fffffe" /><rect x="2" y="4" width="1" height="1" fill="#fffefe" /><rect x="2" y="5" width="1" height="1" fill="#ff9c78" /><rect x="2" y="6" width="1" height="1" fill="#ff8450" /><rect x="2" y="7" width="1" height="1" fill="#fe924a" /><rect x="2" y="8" width="1" height="1" fill="#fe9947" /><rect x="2" y="9" width="1" height="1" fill="#fed2af" /><rect x="3" y="0" width="1" height="1" fill="#feffff" /><rect x="3" y="1" width="1" height="1" fill="#ffe3a1" /><rect x="3" y="2" width="1" height="1" fill="#ffc567" /><rect x="3" y="3" width="1" height="1" fill="#febd6a" /><rect x="3" y="4" width="1" height="1" fill="#fea54e" /><rect x="3" y="5" width="1" height="1" fill="#ff9548" /><rect x="3" y="6" width="1" height="1" fill="#ff954a" /><rect x="3" y="7" width="1" height="1" fill="#ff9947" /><rect x="3" y="8" width="1" height="1" fill="#fe9b47" /><rect x="3" y="9" width="1" height="1" fill="#ffdbc1" /><rect x="4" y="0" width="1" height="1" fill="#ffef96" /><rect x="4" y="1" width="1" height="1" fill="#fec820" /><rect x="4" y="2" width="1" height="1" fill="#ffbc2b" /><rect x="4" y="3" width="1" height="1" fill="#ffae35" /><rect x="4" y="4" width="1" height="1" fill="#fea73c" /><rect x="4" y="5" width="1" height="1" fill="#ff9f43" /><rect x="4" y="6" width="1" height="1" fill="#fe9846" /><rect x="4" y="7" width="1" height="1" fill="#fe9846" /><rect x="4" y="8" width="1" height="1" fill="#fe9f50" /><rect x="4" y="9" width="1" height="1" fill="#fef8f3" /><rect x="5" y="0" width="1" height="1" fill="#fef384" /><rect x="5" y="1" width="1" height="1" fill="#fed714" /><rect x="5" y="2" width="1" height="1" fill="#fec923" /><rect x="5" y="3" width="1" height="1" fill="#ffbb2d" /><rect x="5" y="4" width="1" height="1" fill="#ffae36" /><rect x="5" y="5" width="1" height="1" fill="#ffa43d" /><rect x="5" y="6" width="1" height="1" fill="#ff9f42" /><rect x="5" y="7" width="1" height="1" fill="#fe9e51" /><rect x="5" y="8" width="1" height="1" fill="#feecdc" /><rect x="5" y="9" width="1" height="1" fill="#fffeff" /><rect x="6" y="0" width="1" height="1" fill="#fffbd0" /><rect x="6" y="1" width="1" height="1" fill="#fee718" /><rect x="6" y="2" width="1" height="1" fill="#fed515" /><rect x="6" y="3" width="1" height="1" fill="#fec622" /><rect x="6" y="4" width="1" height="1" fill="#feb92c" /><rect x="6" y="5" width="1" height="1" fill="#ffc169" /><rect x="6" y="6" width="1" height="1" fill="#fed09e" /><rect x="6" y="7" width="1" height="1" fill="#fff8f2" /><rect x="6" y="8" width="1" height="1" fill="#ffffff" /><rect x="6" y="9" width="1" height="1" fill="#fffffe" /><rect x="7" y="0" width="1" height="1" fill="#fefeff" /><rect x="7" y="1" width="1" height="1" fill="#fffeff" /><rect x="7" y="2" width="1" height="1" fill="#fefbd1" /><rect x="7" y="3" width="1" height="1" fill="#fefeff" /><rect x="7" y="4" width="1" height="1" fill="#fefffe" /><rect x="7" y="5" width="1" height="1" fill="#fffeff" /><rect x="7" y="6" width="1" height="1" fill="#feffff" /><rect x="7" y="7" width="1" height="1" fill="#ffffff" /><rect x="7" y="8" width="1" height="1" fill="#fffeff" /><rect x="7" y="9" width="1" height="1" fill="#feffff" /><rect x="8" y="0" width="1" height="1" fill="#fefeff" /><rect x="8" y="1" width="1" height="1" fill="#fefffe" /><rect x="8" y="2" width="1" height="1" fill="#ffffff" /><rect x="8" y="3" width="1" height="1" fill="#feffff" /><rect x="8" y="4" width="1" height="1" fill="#fffefe" /><rect x="8" y="5" width="1" height="1" fill="#fffffe" /><rect x="8" y="6" width="1" height="1" fill="#fffeff" /><rect x="8" y="7" width="1" height="1" fill="#fffffe" /><rect x="8" y="8" width="1" height="1" fill="#fefeff" /><rect x="8" y="9" width="1" height="1" fill="#fffffe" /><rect x="9" y="0" width="1" height="1" fill="#fffffe" /><rect x="9" y="1" width="1" height="1" fill="#fefeff" /><rect x="9" y="2" width="1" height="1" fill="#fffeff" /><rect x="9" y="3" width="1" height="1" fill="#feffff" /><rect x="9" y="4" width="1" height="1" fill="#ffffff" /><rect x="9" y="5" width="1" height="1" fill="#fefefe" /><rect x="9" y="6" width="1" height="1" fill="#feffff" /><rect x="9" y="7" width="1" height="1" fill="#fefffe" /><rect x="9" y="8" width="1" height="1" fill="#fefffe" /><rect x="9" y="9" width="1" height="1" fill="#fffeff" /></g></svg>