<svg width="800" height="1000" version="1.1" xmlns="http://www.w3.org/2000/svg" xmlns:xlink="http://www.w3.org/1999/xlink">
  <defs>
      <linearGradient id="Gradient2" x1="0" x2="1" y1="0" y2="1">
        <stop offset="0%" stop-color="#2d3c96"/>
        <stop offset="100%" stop-color="#d53392"/>
      </linearGradient>
  </defs>
  <rect x="10" y="10" width="780" height="980" fill="url(#Gradient2)" rx="50" ry="50" stroke="#ffd700" stroke-width="20"/>
  <text x="400" y="920" width="780" text-anchor="middle" style="font: bold 200px 'Helvetica Neue'; fill: #ffd700">00797</text>

  <g transform="translate(80 80) scale(64)">
<rect x="0" y="0" width="1" height="1" fill="#29050b" />
,<rect x="0" y="1" width="1" height="1" fill="#29060c" />
,<rect x="0" y="2" width="1" height="1" fill="#220205" />
,<rect x="0" y="3" width="1" height="1" fill="#26090d" />
,<rect x="0" y="4" width="1" height="1" fill="#21040a" />
,<rect x="0" y="5" width="1" height="1" fill="#1f070a" />
,<rect x="0" y="6" width="1" height="1" fill="#1e090b" />
,<rect x="0" y="7" width="1" height="1" fill="#1a0805" />
,<rect x="0" y="8" width="1" height="1" fill="#110001" />
,<rect x="0" y="9" width="1" height="1" fill="#130500" />
,<rect x="1" y="0" width="1" height="1" fill="#270206" />
,<rect x="1" y="1" width="1" height="1" fill="#270506" />
,<rect x="1" y="2" width="1" height="1" fill="#270606" />
,<rect x="1" y="3" width="1" height="1" fill="#200202" />
,<rect x="1" y="4" width="1" height="1" fill="#1c0302" />
,<rect x="1" y="5" width="1" height="1" fill="#1f0907" />
,<rect x="1" y="6" width="1" height="1" fill="#1d0905" />
,<rect x="1" y="7" width="1" height="1" fill="#200d04" />
,<rect x="1" y="8" width="1" height="1" fill="#574436" />
,<rect x="1" y="9" width="1" height="1" fill="#9c8a79" />
,<rect x="2" y="0" width="1" height="1" fill="#2d0604" />
,<rect x="2" y="1" width="1" height="1" fill="#280503" />
,<rect x="2" y="2" width="1" height="1" fill="#220400" />
,<rect x="2" y="3" width="1" height="1" fill="#170001" />
,<rect x="2" y="4" width="1" height="1" fill="#190501" />
,<rect x="2" y="5" width="1" height="1" fill="#130000" />
,<rect x="2" y="6" width="1" height="1" fill="#160501" />
,<rect x="2" y="7" width="1" height="1" fill="#67523e" />
,<rect x="2" y="8" width="1" height="1" fill="#dcc3a9" />
,<rect x="2" y="9" width="1" height="1" fill="#e0c4a6" />
,<rect x="3" y="0" width="1" height="1" fill="#2d0505" />
,<rect x="3" y="1" width="1" height="1" fill="#250000" />
,<rect x="3" y="2" width="1" height="1" fill="#2e1006" />
,<rect x="3" y="3" width="1" height="1" fill="#977f73" />
,<rect x="3" y="4" width="1" height="1" fill="#aa9689" />
,<rect x="3" y="5" width="1" height="1" fill="#9f8a7a" />
,<rect x="3" y="6" width="1" height="1" fill="#3d2915" />
,<rect x="3" y="7" width="1" height="1" fill="#795d44" />
,<rect x="3" y="8" width="1" height="1" fill="#d8b596" />
,<rect x="3" y="9" width="1" height="1" fill="#dbb291" />
,<rect x="4" y="0" width="1" height="1" fill="#2f0508" />
,<rect x="4" y="1" width="1" height="1" fill="#230000" />
,<rect x="4" y="2" width="1" height="1" fill="#7c5d57" />
,<rect x="4" y="3" width="1" height="1" fill="#d1b6ae" />
,<rect x="4" y="4" width="1" height="1" fill="#bfa79d" />
,<rect x="4" y="5" width="1" height="1" fill="#876f60" />
,<rect x="4" y="6" width="1" height="1" fill="#8c6f5e" />
,<rect x="4" y="7" width="1" height="1" fill="#4f2915" />
,<rect x="4" y="8" width="1" height="1" fill="#99684f" />
,<rect x="4" y="9" width="1" height="1" fill="#d19b7e" />
,<rect x="5" y="0" width="1" height="1" fill="#2d0107" />
,<rect x="5" y="1" width="1" height="1" fill="#290102" />
,<rect x="5" y="2" width="1" height="1" fill="#401d1b" />
,<rect x="5" y="3" width="1" height="1" fill="#5e4139" />
,<rect x="5" y="4" width="1" height="1" fill="#876b63" />
,<rect x="5" y="5" width="1" height="1" fill="#482c22" />
,<rect x="5" y="6" width="1" height="1" fill="#523122" />
,<rect x="5" y="7" width="1" height="1" fill="#49200f" />
,<rect x="5" y="8" width="1" height="1" fill="#64331b" />
,<rect x="5" y="9" width="1" height="1" fill="#642f12" />
,<rect x="6" y="0" width="1" height="1" fill="#310206" />
,<rect x="6" y="1" width="1" height="1" fill="#2b0003" />
,<rect x="6" y="2" width="1" height="1" fill="#290001" />
,<rect x="6" y="3" width="1" height="1" fill="#210000" />
,<rect x="6" y="4" width="1" height="1" fill="#230301" />
,<rect x="6" y="5" width="1" height="1" fill="#290b02" />
,<rect x="6" y="6" width="1" height="1" fill="#1e0000" />
,<rect x="6" y="7" width="1" height="1" fill="#442311" />
,<rect x="6" y="8" width="1" height="1" fill="#8c684f" />
,<rect x="6" y="9" width="1" height="1" fill="#603c1d" />
,<rect x="7" y="0" width="1" height="1" fill="#2c0103" />
,<rect x="7" y="1" width="1" height="1" fill="#2d0303" />
,<rect x="7" y="2" width="1" height="1" fill="#2d0400" />
,<rect x="7" y="3" width="1" height="1" fill="#2b0601" />
,<rect x="7" y="4" width="1" height="1" fill="#250500" />
,<rect x="7" y="5" width="1" height="1" fill="#1d0000" />
,<rect x="7" y="6" width="1" height="1" fill="#826458" />
,<rect x="7" y="7" width="1" height="1" fill="#cbae9d" />
,<rect x="7" y="8" width="1" height="1" fill="#ceb59b" />
,<rect x="7" y="9" width="1" height="1" fill="#b19878" />
,<rect x="8" y="0" width="1" height="1" fill="#290604" />
,<rect x="8" y="1" width="1" height="1" fill="#280502" />
,<rect x="8" y="2" width="1" height="1" fill="#280500" />
,<rect x="8" y="3" width="1" height="1" fill="#2a0b04" />
,<rect x="8" y="4" width="1" height="1" fill="#270602" />
,<rect x="8" y="5" width="1" height="1" fill="#210300" />
,<rect x="8" y="6" width="1" height="1" fill="#42251c" />
,<rect x="8" y="7" width="1" height="1" fill="#937b6a" />
,<rect x="8" y="8" width="1" height="1" fill="#b9a28c" />
,<rect x="8" y="9" width="1" height="1" fill="#b5a386" />
,<rect x="9" y="0" width="1" height="1" fill="#270905" />
,<rect x="9" y="1" width="1" height="1" fill="#290805" />
,<rect x="9" y="2" width="1" height="1" fill="#260600" />
,<rect x="9" y="3" width="1" height="1" fill="#240400" />
,<rect x="9" y="4" width="1" height="1" fill="#290804" />
,<rect x="9" y="5" width="1" height="1" fill="#250702" />
,<rect x="9" y="6" width="1" height="1" fill="#1d0100" />
,<rect x="9" y="7" width="1" height="1" fill="#30190c" />
,<rect x="9" y="8" width="1" height="1" fill="#36240e" />
,<rect x="9" y="9" width="1" height="1" fill="#423319" />

  </g>
</svg>