<svg width="800" height="1000" version="1.1" xmlns="http://www.w3.org/2000/svg" xmlns:xlink="http://www.w3.org/1999/xlink">
  <defs>
      <linearGradient id="Gradient2" x1="0" x2="1" y1="0" y2="1">
        <stop offset="0%" stop-color="#2d3c96"/>
        <stop offset="100%" stop-color="#d53392"/>
      </linearGradient>
  </defs>
  <rect x="10" y="10" width="780" height="980" fill="url(#Gradient2)" rx="50" ry="50" stroke="#ffd700" stroke-width="20"/>
  <text x="400" y="920" width="780" text-anchor="middle" style="font: bold 200px 'Helvetica Neue'; fill: #ffd700">00790</text>

  <g transform="translate(80 80) scale(64)">
<rect x="0" y="0" width="1" height="1" fill="#FFFEFF" /><rect x="1" y="0" width="1" height="1" fill="#FFFEFE" /><rect x="2" y="0" width="1" height="1" fill="#FFFEFE" /><rect x="3" y="0" width="1" height="1" fill="#FEFFFF" /><rect x="4" y="0" width="1" height="1" fill="#FFEF96" /><rect x="5" y="0" width="1" height="1" fill="#FEF384" /><rect x="6" y="0" width="1" height="1" fill="#FFFBD0" /><rect x="7" y="0" width="1" height="1" fill="#FEFEFF" /><rect x="8" y="0" width="1" height="1" fill="#FEFEFF" /><rect x="9" y="0" width="1" height="1" fill="#FFFFFE" /><rect x="0" y="1" width="1" height="1" fill="#FEFEFE" /><rect x="1" y="1" width="1" height="1" fill="#FEFEFF" /><rect x="2" y="1" width="1" height="1" fill="#FFFFFE" /><rect x="3" y="1" width="1" height="1" fill="#FFE3A1" /><rect x="4" y="1" width="1" height="1" fill="#FEC820" /><rect x="5" y="1" width="1" height="1" fill="#FED714" /><rect x="6" y="1" width="1" height="1" fill="#FEE718" /><rect x="7" y="1" width="1" height="1" fill="#FFFEFF" /><rect x="8" y="1" width="1" height="1" fill="#FEFFFE" /><rect x="9" y="1" width="1" height="1" fill="#FEFEFF" /><rect x="0" y="2" width="1" height="1" fill="#FFFEFE" /><rect x="1" y="2" width="1" height="1" fill="#FFFEFE" /><rect x="2" y="2" width="1" height="1" fill="#FEFEFE" /><rect x="3" y="2" width="1" height="1" fill="#FFC567" /><rect x="4" y="2" width="1" height="1" fill="#FFBC2B" /><rect x="5" y="2" width="1" height="1" fill="#FEC923" /><rect x="6" y="2" width="1" height="1" fill="#FED515" /><rect x="7" y="2" width="1" height="1" fill="#FEFBD1" /><rect x="8" y="2" width="1" height="1" fill="#FFFFFF" /><rect x="9" y="2" width="1" height="1" fill="#FFFEFF" /><rect x="0" y="3" width="1" height="1" fill="#FFF4F7" /><rect x="1" y="3" width="1" height="1" fill="#FEFFFF" /><rect x="2" y="3" width="1" height="1" fill="#FFFFFE" /><rect x="3" y="3" width="1" height="1" fill="#FEBD6A" /><rect x="4" y="3" width="1" height="1" fill="#FFAE35" /><rect x="5" y="3" width="1" height="1" fill="#FFBB2D" /><rect x="6" y="3" width="1" height="1" fill="#FEC622" /><rect x="7" y="3" width="1" height="1" fill="#FEFEFF" /><rect x="8" y="3" width="1" height="1" fill="#FEFFFF" /><rect x="9" y="3" width="1" height="1" fill="#FEFFFF" /><rect x="0" y="4" width="1" height="1" fill="#FF7781" /><rect x="1" y="4" width="1" height="1" fill="#FEEBEB" /><rect x="2" y="4" width="1" height="1" fill="#FFFEFE" /><rect x="3" y="4" width="1" height="1" fill="#FEA54E" /><rect x="4" y="4" width="1" height="1" fill="#FEA73C" /><rect x="5" y="4" width="1" height="1" fill="#FFAE36" /><rect x="6" y="4" width="1" height="1" fill="#FEB92C" /><rect x="7" y="4" width="1" height="1" fill="#FEFFFE" /><rect x="8" y="4" width="1" height="1" fill="#FFFEFE" /><rect x="9" y="4" width="1" height="1" fill="#FFFFFF" /><rect x="0" y="5" width="1" height="1" fill="#FF6061" /><rect x="1" y="5" width="1" height="1" fill="#FE7565" /><rect x="2" y="5" width="1" height="1" fill="#FF9C78" /><rect x="3" y="5" width="1" height="1" fill="#FF9548" /><rect x="4" y="5" width="1" height="1" fill="#FF9F43" /><rect x="5" y="5" width="1" height="1" fill="#FFA43D" /><rect x="6" y="5" width="1" height="1" fill="#FFC169" /><rect x="7" y="5" width="1" height="1" fill="#FFFEFF" /><rect x="8" y="5" width="1" height="1" fill="#FFFFFE" /><rect x="9" y="5" width="1" height="1" fill="#FEFEFE" /><rect x="0" y="6" width="1" height="1" fill="#FF6B5B" /><rect x="1" y="6" width="1" height="1" fill="#FF7956" /><rect x="2" y="6" width="1" height="1" fill="#FF8450" /><rect x="3" y="6" width="1" height="1" fill="#FF954A" /><rect x="4" y="6" width="1" height="1" fill="#FE9846" /><rect x="5" y="6" width="1" height="1" fill="#FF9F42" /><rect x="6" y="6" width="1" height="1" fill="#FED09E" /><rect x="7" y="6" width="1" height="1" fill="#FEFFFF" /><rect x="8" y="6" width="1" height="1" fill="#FFFEFF" /><rect x="9" y="6" width="1" height="1" fill="#FEFFFF" /><rect x="0" y="7" width="1" height="1" fill="#FE7756" /><rect x="1" y="7" width="1" height="1" fill="#FE8550" /><rect x="2" y="7" width="1" height="1" fill="#FE924A" /><rect x="3" y="7" width="1" height="1" fill="#FF9947" /><rect x="4" y="7" width="1" height="1" fill="#FE9846" /><rect x="5" y="7" width="1" height="1" fill="#FE9E51" /><rect x="6" y="7" width="1" height="1" fill="#FFF8F2" /><rect x="7" y="7" width="1" height="1" fill="#FFFFFF" /><rect x="8" y="7" width="1" height="1" fill="#FFFFFE" /><rect x="9" y="7" width="1" height="1" fill="#FEFFFE" /><rect x="0" y="8" width="1" height="1" fill="#FFA27B" /><rect x="1" y="8" width="1" height="1" fill="#FF934A" /><rect x="2" y="8" width="1" height="1" fill="#FE9947" /><rect x="3" y="8" width="1" height="1" fill="#FE9B47" /><rect x="4" y="8" width="1" height="1" fill="#FE9F50" /><rect x="5" y="8" width="1" height="1" fill="#FEECDC" /><rect x="6" y="8" width="1" height="1" fill="#FFFFFF" /><rect x="7" y="8" width="1" height="1" fill="#FFFEFF" /><rect x="8" y="8" width="1" height="1" fill="#FEFEFF" /><rect x="9" y="8" width="1" height="1" fill="#FEFFFE" /><rect x="0" y="9" width="1" height="1" fill="#FEFEFF" /><rect x="1" y="9" width="1" height="1" fill="#FEF3E9" /><rect x="2" y="9" width="1" height="1" fill="#FED2AF" /><rect x="3" y="9" width="1" height="1" fill="#FFDBC1" /><rect x="4" y="9" width="1" height="1" fill="#FEF8F3" /><rect x="5" y="9" width="1" height="1" fill="#FFFEFF" /><rect x="6" y="9" width="1" height="1" fill="#FFFFFE" /><rect x="7" y="9" width="1" height="1" fill="#FEFFFF" /><rect x="8" y="9" width="1" height="1" fill="#FFFFFE" /><rect x="9" y="9" width="1" height="1" fill="#FFFEFF" />
  </g>
</svg>