<svg width="800" height="1000" version="1.1" xmlns="http://www.w3.org/2000/svg" xmlns:xlink="http://www.w3.org/1999/xlink">
  <defs>
      <linearGradient id="Gradient2" x1="0" x2="1" y1="0" y2="1">
        <stop offset="0%" stop-color="#2d3c96"/>
        <stop offset="100%" stop-color="#d53392"/>
      </linearGradient>
  </defs>
  <rect x="10" y="10" width="780" height="980" fill="url(#Gradient2)" rx="50" ry="50" stroke="#ffd700" stroke-width="20"/>
  <text x="400" y="920" width="780" text-anchor="middle" style="font: bold 200px 'Helvetica Neue'; fill: #ffd700">00806</text>

  <g transform="translate(80 80) scale(64)">
<rect x="0" y="0" width="1" height="1" fill="#FFF6FF" /><rect x="1" y="0" width="1" height="1" fill="#F9C9D5" /><rect x="2" y="0" width="1" height="1" fill="#B45769" /><rect x="3" y="0" width="1" height="1" fill="#B84852" /><rect x="4" y="0" width="1" height="1" fill="#D56C5F" /><rect x="5" y="0" width="1" height="1" fill="#FDAD9C" /><rect x="6" y="0" width="1" height="1" fill="#F1CDC9" /><rect x="7" y="0" width="1" height="1" fill="#FFFAFD" /><rect x="8" y="0" width="1" height="1" fill="#000000" /><rect x="9" y="0" width="1" height="1" fill="#000000" /><rect x="0" y="1" width="1" height="1" fill="#FFEDFF" /><rect x="1" y="1" width="1" height="1" fill="#9E7892" /><rect x="2" y="1" width="1" height="1" fill="#6C203A" /><rect x="3" y="1" width="1" height="1" fill="#913647" /><rect x="4" y="1" width="1" height="1" fill="#D98488" /><rect x="5" y="1" width="1" height="1" fill="#E3A3A3" /><rect x="6" y="1" width="1" height="1" fill="#F6D9DD" /><rect x="7" y="1" width="1" height="1" fill="#FFF8FF" /><rect x="8" y="1" width="1" height="1" fill="#000000" /><rect x="9" y="1" width="1" height="1" fill="#000000" /><rect x="0" y="2" width="1" height="1" fill="#9C96D5" /><rect x="1" y="2" width="1" height="1" fill="#8573AB" /><rect x="2" y="2" width="1" height="1" fill="#B48AB2" /><rect x="3" y="2" width="1" height="1" fill="#663456" /><rect x="4" y="2" width="1" height="1" fill="#CFA4C9" /><rect x="5" y="2" width="1" height="1" fill="#8E7091" /><rect x="6" y="2" width="1" height="1" fill="#D1C4D8" /><rect x="7" y="2" width="1" height="1" fill="#E6E2F1" /><rect x="8" y="2" width="1" height="1" fill="#000000" /><rect x="9" y="2" width="1" height="1" fill="#000000" /><rect x="0" y="3" width="1" height="1" fill="#6468B9" /><rect x="1" y="3" width="1" height="1" fill="#6E68B0" /><rect x="2" y="3" width="1" height="1" fill="#DDC4FB" /><rect x="3" y="3" width="1" height="1" fill="#D4B5E6" /><rect x="4" y="3" width="1" height="1" fill="#CAAEE6" /><rect x="5" y="3" width="1" height="1" fill="#604D7C" /><rect x="6" y="3" width="1" height="1" fill="#5A526A" /><rect x="7" y="3" width="1" height="1" fill="#CFCDD9" /><rect x="8" y="3" width="1" height="1" fill="#000000" /><rect x="9" y="3" width="1" height="1" fill="#000000" /><rect x="0" y="4" width="1" height="1" fill="#F0F9FF" /><rect x="1" y="4" width="1" height="1" fill="#A09EEA" /><rect x="2" y="4" width="1" height="1" fill="#6B549B" /><rect x="3" y="4" width="1" height="1" fill="#825FA1" /><rect x="4" y="4" width="1" height="1" fill="#6A427F" /><rect x="5" y="4" width="1" height="1" fill="#C6A6D1" /><rect x="6" y="4" width="1" height="1" fill="#FFF5FF" /><rect x="7" y="4" width="1" height="1" fill="#FDF9F9" /><rect x="8" y="4" width="1" height="1" fill="#000000" /><rect x="9" y="4" width="1" height="1" fill="#000000" /><rect x="0" y="5" width="1" height="1" fill="#B6AFFB" /><rect x="1" y="5" width="1" height="1" fill="#1B0A50" /><rect x="2" y="5" width="1" height="1" fill="#23003C" /><rect x="3" y="5" width="1" height="1" fill="#6A3365" /><rect x="4" y="5" width="1" height="1" fill="#91466E" /><rect x="5" y="5" width="1" height="1" fill="#702C44" /><rect x="6" y="5" width="1" height="1" fill="#FFEFF1" /><rect x="7" y="5" width="1" height="1" fill="#FFFBF3" /><rect x="8" y="5" width="1" height="1" fill="#000000" /><rect x="9" y="5" width="1" height="1" fill="#000000" /><rect x="0" y="6" width="1" height="1" fill="#D8ACF2" /><rect x="1" y="6" width="1" height="1" fill="#36043A" /><rect x="2" y="6" width="1" height="1" fill="#74344D" /><rect x="3" y="6" width="1" height="1" fill="#CF7479" /><rect x="4" y="6" width="1" height="1" fill="#E25D58" /><rect x="5" y="6" width="1" height="1" fill="#C74A3F" /><rect x="6" y="6" width="1" height="1" fill="#E09A90" /><rect x="7" y="6" width="1" height="1" fill="#FFF4E9" /><rect x="8" y="6" width="1" height="1" fill="#000000" /><rect x="9" y="6" width="1" height="1" fill="#000000" /><rect x="0" y="7" width="1" height="1" fill="#F3BAFE" /><rect x="1" y="7" width="1" height="1" fill="#7F4376" /><rect x="2" y="7" width="1" height="1" fill="#F6B6C7" /><rect x="3" y="7" width="1" height="1" fill="#EC9293" /><rect x="4" y="7" width="1" height="1" fill="#CB4546" /><rect x="5" y="7" width="1" height="1" fill="#BC3D3C" /><rect x="6" y="7" width="1" height="1" fill="#D38E8B" /><rect x="7" y="7" width="1" height="1" fill="#FFF2ED" /><rect x="8" y="7" width="1" height="1" fill="#000000" /><rect x="9" y="7" width="1" height="1" fill="#000000" /><rect x="0" y="8" width="1" height="1" fill="#E5B9FD" /><rect x="1" y="8" width="1" height="1" fill="#663C77" /><rect x="2" y="8" width="1" height="1" fill="#906790" /><rect x="3" y="8" width="1" height="1" fill="#EDB9E1" /><rect x="4" y="8" width="1" height="1" fill="#8F407A" /><rect x="5" y="8" width="1" height="1" fill="#833A6F" /><rect x="6" y="8" width="1" height="1" fill="#FBDCF4" /><rect x="7" y="8" width="1" height="1" fill="#FFFBFF" /><rect x="8" y="8" width="1" height="1" fill="#000000" /><rect x="9" y="8" width="1" height="1" fill="#000000" /><rect x="0" y="9" width="1" height="1" fill="#CBA6EB" /><rect x="1" y="9" width="1" height="1" fill="#2C0A49" /><rect x="2" y="9" width="1" height="1" fill="#3F2357" /><rect x="3" y="9" width="1" height="1" fill="#D9B7F3" /><rect x="4" y="9" width="1" height="1" fill="#511E75" /><rect x="5" y="9" width="1" height="1" fill="#330756" /><rect x="6" y="9" width="1" height="1" fill="#A89BC1" /><rect x="7" y="9" width="1" height="1" fill="#F8FBFF" /><rect x="8" y="9" width="1" height="1" fill="#000000" /><rect x="9" y="9" width="1" height="1" fill="#000000" />
  </g>
</svg>