<svg width="800" height="1000" version="1.1" xmlns="http://www.w3.org/2000/svg" xmlns:xlink="http://www.w3.org/1999/xlink">
  <defs>
      <linearGradient id="Gradient2" x1="0" x2="1" y1="0" y2="1">
        <stop offset="0%" stop-color="#2d3c96"/>
        <stop offset="100%" stop-color="#d53392"/>
      </linearGradient>
  </defs>
  <rect x="10" y="10" width="780" height="980" fill="url(#Gradient2)" rx="50" ry="50" stroke="#ffd700" stroke-width="20"/>
  <text x="400" y="920" width="780" text-anchor="middle" style="font: bold 200px 'Helvetica Neue'; fill: #ffd700">00821</text>

  <g transform="translate(80 80) scale(64)">
<rect x="0" y="0" width="1" height="1" fill="#EC7E77" /><rect x="1" y="0" width="1" height="1" fill="#EC7971" /><rect x="2" y="0" width="1" height="1" fill="#EC7A73" /><rect x="3" y="0" width="1" height="1" fill="#EC7A73" /><rect x="4" y="0" width="1" height="1" fill="#EC7A73" /><rect x="5" y="0" width="1" height="1" fill="#EC7A73" /><rect x="6" y="0" width="1" height="1" fill="#EC7A73" /><rect x="7" y="0" width="1" height="1" fill="#EC7A73" /><rect x="8" y="0" width="1" height="1" fill="#EC7A73" /><rect x="9" y="0" width="1" height="1" fill="#ED8079" /><rect x="0" y="1" width="1" height="1" fill="#EB7871" /><rect x="1" y="1" width="1" height="1" fill="#E84C3D" /><rect x="2" y="1" width="1" height="1" fill="#E84C3D" /><rect x="3" y="1" width="1" height="1" fill="#E84C3D" /><rect x="4" y="1" width="1" height="1" fill="#E84C3D" /><rect x="5" y="1" width="1" height="1" fill="#E84C3D" /><rect x="6" y="1" width="1" height="1" fill="#E84C3D" /><rect x="7" y="1" width="1" height="1" fill="#E84C3D" /><rect x="8" y="1" width="1" height="1" fill="#E84C3D" /><rect x="9" y="1" width="1" height="1" fill="#E9574A" /><rect x="0" y="2" width="1" height="1" fill="#F0A5A2" /><rect x="1" y="2" width="1" height="1" fill="#E84C3D" /><rect x="2" y="2" width="1" height="1" fill="#E84C3D" /><rect x="3" y="2" width="1" height="1" fill="#E84C3D" /><rect x="4" y="2" width="1" height="1" fill="#EA645A" /><rect x="5" y="2" width="1" height="1" fill="#F8D7D5" /><rect x="6" y="2" width="1" height="1" fill="#F8D6D4" /><rect x="7" y="2" width="1" height="1" fill="#EA6359" /><rect x="8" y="2" width="1" height="1" fill="#E84C3D" /><rect x="9" y="2" width="1" height="1" fill="#E9574A" /><rect x="0" y="3" width="1" height="1" fill="#F7D6D4" /><rect x="1" y="3" width="1" height="1" fill="#E84C3D" /><rect x="2" y="3" width="1" height="1" fill="#E84C3D" /><rect x="3" y="3" width="1" height="1" fill="#E85143" /><rect x="4" y="3" width="1" height="1" fill="#FCF0EF" /><rect x="5" y="3" width="1" height="1" fill="#FFFFFF" /><rect x="6" y="3" width="1" height="1" fill="#FFFFFF" /><rect x="7" y="3" width="1" height="1" fill="#FCEFEE" /><rect x="8" y="3" width="1" height="1" fill="#E84F41" /><rect x="9" y="3" width="1" height="1" fill="#E9574A" /><rect x="0" y="4" width="1" height="1" fill="#FEFCFC" /><rect x="1" y="4" width="1" height="1" fill="#EB746C" /><rect x="2" y="4" width="1" height="1" fill="#E84C3D" /><rect x="3" y="4" width="1" height="1" fill="#E84C3D" /><rect x="4" y="4" width="1" height="1" fill="#FAE5E4" /><rect x="5" y="4" width="1" height="1" fill="#FFFFFF" /><rect x="6" y="4" width="1" height="1" fill="#FFFFFF" /><rect x="7" y="4" width="1" height="1" fill="#FAE3E2" /><rect x="8" y="4" width="1" height="1" fill="#E84C3D" /><rect x="9" y="4" width="1" height="1" fill="#E9574A" /><rect x="0" y="5" width="1" height="1" fill="#FFFFFF" /><rect x="1" y="5" width="1" height="1" fill="#F8D8D7" /><rect x="2" y="5" width="1" height="1" fill="#E84C3D" /><rect x="3" y="5" width="1" height="1" fill="#E84C3D" /><rect x="4" y="5" width="1" height="1" fill="#F2B6B3" /><rect x="5" y="5" width="1" height="1" fill="#FEF9F8" /><rect x="6" y="5" width="1" height="1" fill="#FEF9F8" /><rect x="7" y="5" width="1" height="1" fill="#F2B3B0" /><rect x="8" y="5" width="1" height="1" fill="#E84C3D" /><rect x="9" y="5" width="1" height="1" fill="#E9574A" /><rect x="0" y="6" width="1" height="1" fill="#FFFFFF" /><rect x="1" y="6" width="1" height="1" fill="#FFFFFF" /><rect x="2" y="6" width="1" height="1" fill="#F2B4B2" /><rect x="3" y="6" width="1" height="1" fill="#E84C3D" /><rect x="4" y="6" width="1" height="1" fill="#E84C3D" /><rect x="5" y="6" width="1" height="1" fill="#E84D3E" /><rect x="6" y="6" width="1" height="1" fill="#E84D3E" /><rect x="7" y="6" width="1" height="1" fill="#E84C3D" /><rect x="8" y="6" width="1" height="1" fill="#E84C3D" /><rect x="9" y="6" width="1" height="1" fill="#E9574A" /><rect x="0" y="7" width="1" height="1" fill="#FFFFFF" /><rect x="1" y="7" width="1" height="1" fill="#FFFFFF" /><rect x="2" y="7" width="1" height="1" fill="#FFFEFE" /><rect x="3" y="7" width="1" height="1" fill="#F2B4B2" /><rect x="4" y="7" width="1" height="1" fill="#E84C3D" /><rect x="5" y="7" width="1" height="1" fill="#E84C3D" /><rect x="6" y="7" width="1" height="1" fill="#E84C3D" /><rect x="7" y="7" width="1" height="1" fill="#E84C3D" /><rect x="8" y="7" width="1" height="1" fill="#E84C3D" /><rect x="9" y="7" width="1" height="1" fill="#E9584A" /><rect x="0" y="8" width="1" height="1" fill="#FFFFFF" /><rect x="1" y="8" width="1" height="1" fill="#FFFFFF" /><rect x="2" y="8" width="1" height="1" fill="#FFFFFF" /><rect x="3" y="8" width="1" height="1" fill="#FFFFFF" /><rect x="4" y="8" width="1" height="1" fill="#F8D8D7" /><rect x="5" y="8" width="1" height="1" fill="#EB746C" /><rect x="6" y="8" width="1" height="1" fill="#E84C3D" /><rect x="7" y="8" width="1" height="1" fill="#E84C3D" /><rect x="8" y="8" width="1" height="1" fill="#E84C3D" /><rect x="9" y="8" width="1" height="1" fill="#E9574A" /><rect x="0" y="9" width="1" height="1" fill="#FFFFFF" /><rect x="1" y="9" width="1" height="1" fill="#FFFFFF" /><rect x="2" y="9" width="1" height="1" fill="#FFFFFF" /><rect x="3" y="9" width="1" height="1" fill="#FFFFFF" /><rect x="4" y="9" width="1" height="1" fill="#FFFFFF" /><rect x="5" y="9" width="1" height="1" fill="#FEFCFC" /><rect x="6" y="9" width="1" height="1" fill="#F7D6D5" /><rect x="7" y="9" width="1" height="1" fill="#F0A5A2" /><rect x="8" y="9" width="1" height="1" fill="#EB766F" /><rect x="9" y="9" width="1" height="1" fill="#E95D52" />
  </g>
</svg>