<svg width="800" height="1000" xmlns="http://www.w3.org/2000/svg"><defs><linearGradient id="g" x1="0" x2="1" y1="0" y2="1"><stop offset="0%" stop-color="#2d3c96"/><stop offset="100%" stop-color="#d53392"/></linearGradient></defs><rect x="10" y="10" width="780" height="980" fill="url(#g)" rx="50" ry="50" stroke="gold" stroke-width="20"/><text x="400" y="920" width="780" text-anchor="middle" style="font:bold 200px 'Helvetica Neue';fill:gold">00847</text><g transform="translate(80 80) scale(64)"><rect x="0" y="0" width="1" height="1" fill="#e48974" /><rect x="0" y="1" width="1" height="1" fill="#db806b" /><rect x="0" y="2" width="1" height="1" fill="#e0846f" /><rect x="0" y="3" width="1" height="1" fill="#e58974" /><rect x="0" y="4" width="1" height="1" fill="#e0846b" /><rect x="0" y="5" width="1" height="1" fill="#e38869" /><rect x="0" y="6" width="1" height="1" fill="#f19870" /><rect x="0" y="7" width="1" height="1" fill="#f89f73" /><rect x="0" y="8" width="1" height="1" fill="#e17165" /><rect x="0" y="9" width="1" height="1" fill="#ae3b40" /><rect x="1" y="0" width="1" height="1" fill="#e68678" /><rect x="1" y="1" width="1" height="1" fill="#df806e" /><rect x="1" y="2" width="1" height="1" fill="#e3836d" /><rect x="1" y="3" width="1" height="1" fill="#e3836a" /><rect x="1" y="4" width="1" height="1" fill="#e8876e" /><rect x="1" y="5" width="1" height="1" fill="#fd9a83" /><rect x="1" y="6" width="1" height="1" fill="#f89283" /><rect x="1" y="7" width="1" height="1" fill="#d36d5f" /><rect x="1" y="8" width="1" height="1" fill="#9a3243" /><rect x="1" y="9" width="1" height="1" fill="#982f43" /><rect x="2" y="0" width="1" height="1" fill="#e07f76" /><rect x="2" y="1" width="1" height="1" fill="#e28170" /><rect x="2" y="2" width="1" height="1" fill="#e7866d" /><rect x="2" y="3" width="1" height="1" fill="#f18e6f" /><rect x="2" y="4" width="1" height="1" fill="#f69077" /><rect x="2" y="5" width="1" height="1" fill="#e97d71" /><rect x="2" y="6" width="1" height="1" fill="#bf4e52" /><rect x="2" y="7" width="1" height="1" fill="#94212e" /><rect x="2" y="8" width="1" height="1" fill="#8c2246" /><rect x="2" y="9" width="1" height="1" fill="#9b334a" /><rect x="3" y="0" width="1" height="1" fill="#d77b6c" /><rect x="3" y="1" width="1" height="1" fill="#d97e69" /><rect x="3" y="2" width="1" height="1" fill="#e38569" /><rect x="3" y="3" width="1" height="1" fill="#f09270" /><rect x="3" y="4" width="1" height="1" fill="#ec896c" /><rect x="3" y="5" width="1" height="1" fill="#c85e4e" /><rect x="3" y="6" width="1" height="1" fill="#a93938" /><rect x="3" y="7" width="1" height="1" fill="#a5333d" /><rect x="3" y="8" width="1" height="1" fill="#b24353" /><rect x="3" y="9" width="1" height="1" fill="#b04444" /><rect x="4" y="0" width="1" height="1" fill="#d9856b" /><rect x="4" y="1" width="1" height="1" fill="#dc896b" /><rect x="4" y="2" width="1" height="1" fill="#e89173" /><rect x="4" y="3" width="1" height="1" fill="#ee9374" /><rect x="4" y="4" width="1" height="1" fill="#e48567" /><rect x="4" y="5" width="1" height="1" fill="#da795e" /><rect x="4" y="6" width="1" height="1" fill="#e17b65" /><rect x="4" y="7" width="1" height="1" fill="#e9826f" /><rect x="4" y="8" width="1" height="1" fill="#e87f6c" /><rect x="4" y="9" width="1" height="1" fill="#e07761" /><rect x="5" y="0" width="1" height="1" fill="#e3906e" /><rect x="5" y="1" width="1" height="1" fill="#e79472" /><rect x="5" y="2" width="1" height="1" fill="#e69172" /><rect x="5" y="3" width="1" height="1" fill="#e1886a" /><rect x="5" y="4" width="1" height="1" fill="#e28768" /><rect x="5" y="5" width="1" height="1" fill="#ec8f6d" /><rect x="5" y="6" width="1" height="1" fill="#f3956f" /><rect x="5" y="7" width="1" height="1" fill="#f4956d" /><rect x="5" y="8" width="1" height="1" fill="#f19570" /><rect x="5" y="9" width="1" height="1" fill="#ef9273" /><rect x="6" y="0" width="1" height="1" fill="#f79d7a" /><rect x="6" y="1" width="1" height="1" fill="#f29778" /><rect x="6" y="2" width="1" height="1" fill="#e7896d" /><rect x="6" y="3" width="1" height="1" fill="#e2846a" /><rect x="6" y="4" width="1" height="1" fill="#ea8b6f" /><rect x="6" y="5" width="1" height="1" fill="#f09171" /><rect x="6" y="6" width="1" height="1" fill="#f0906d" /><rect x="6" y="7" width="1" height="1" fill="#f2936b" /><rect x="6" y="8" width="1" height="1" fill="#f19371" /><rect x="6" y="9" width="1" height="1" fill="#f19274" /><rect x="7" y="0" width="1" height="1" fill="#f28f70" /><rect x="7" y="1" width="1" height="1" fill="#e68366" /><rect x="7" y="2" width="1" height="1" fill="#e8846a" /><rect x="7" y="3" width="1" height="1" fill="#ee8a72" /><rect x="7" y="4" width="1" height="1" fill="#ec8870" /><rect x="7" y="5" width="1" height="1" fill="#ec8870" /><rect x="7" y="6" width="1" height="1" fill="#ef8970" /><rect x="7" y="7" width="1" height="1" fill="#eb866a" /><rect x="7" y="8" width="1" height="1" fill="#eb8265" /><rect x="7" y="9" width="1" height="1" fill="#ec8366" /><rect x="8" y="0" width="1" height="1" fill="#be5458" /><rect x="8" y="1" width="1" height="1" fill="#be5154" /><rect x="8" y="2" width="1" height="1" fill="#c35352" /><rect x="8" y="3" width="1" height="1" fill="#c04e4d" /><rect x="8" y="4" width="1" height="1" fill="#bf4d4c" /><rect x="8" y="5" width="1" height="1" fill="#c2504f" /><rect x="8" y="6" width="1" height="1" fill="#bd4d4c" /><rect x="8" y="7" width="1" height="1" fill="#ba4c4d" /><rect x="8" y="8" width="1" height="1" fill="#bc474d" /><rect x="8" y="9" width="1" height="1" fill="#bc474d" /><rect x="9" y="0" width="1" height="1" fill="#9a3555" /><rect x="9" y="1" width="1" height="1" fill="#9b3452" /><rect x="9" y="2" width="1" height="1" fill="#9f3551" /><rect x="9" y="3" width="1" height="1" fill="#9c304a" /><rect x="9" y="4" width="1" height="1" fill="#9a2e48" /><rect x="9" y="5" width="1" height="1" fill="#992d47" /><rect x="9" y="6" width="1" height="1" fill="#902642" /><rect x="9" y="7" width="1" height="1" fill="#8d2442" /><rect x="9" y="8" width="1" height="1" fill="#8e2947" /><rect x="9" y="9" width="1" height="1" fill="#8e2947" /></g></svg>