<svg width="800" height="1000" version="1.1" xmlns="http://www.w3.org/2000/svg" xmlns:xlink="http://www.w3.org/1999/xlink">
  <defs>
      <linearGradient id="Gradient2" x1="0" x2="1" y1="0" y2="1">
        <stop offset="0%" stop-color="#2d3c96"/>
        <stop offset="100%" stop-color="#d53392"/>
      </linearGradient>
  </defs>
  <rect x="10" y="10" width="780" height="980" fill="url(#Gradient2)" rx="50" ry="50" stroke="#ffd700" stroke-width="20"/>
  <text x="400" y="920" width="780" text-anchor="middle" style="font: bold 200px 'Helvetica Neue'; fill: #ffd700">00847</text>

  <g transform="translate(80 80) scale(64)">
<rect x="0" y="0" width="1" height="1" fill="#E48974" /><rect x="1" y="0" width="1" height="1" fill="#E68678" /><rect x="2" y="0" width="1" height="1" fill="#E07F76" /><rect x="3" y="0" width="1" height="1" fill="#D77B6C" /><rect x="4" y="0" width="1" height="1" fill="#D9856B" /><rect x="5" y="0" width="1" height="1" fill="#E3906E" /><rect x="6" y="0" width="1" height="1" fill="#F79D7A" /><rect x="7" y="0" width="1" height="1" fill="#F28F70" /><rect x="8" y="0" width="1" height="1" fill="#BE5458" /><rect x="9" y="0" width="1" height="1" fill="#9A3555" /><rect x="0" y="1" width="1" height="1" fill="#DB806B" /><rect x="1" y="1" width="1" height="1" fill="#DF806E" /><rect x="2" y="1" width="1" height="1" fill="#E28170" /><rect x="3" y="1" width="1" height="1" fill="#D97E69" /><rect x="4" y="1" width="1" height="1" fill="#DC896B" /><rect x="5" y="1" width="1" height="1" fill="#E79472" /><rect x="6" y="1" width="1" height="1" fill="#F29778" /><rect x="7" y="1" width="1" height="1" fill="#E68366" /><rect x="8" y="1" width="1" height="1" fill="#BE5154" /><rect x="9" y="1" width="1" height="1" fill="#9B3452" /><rect x="0" y="2" width="1" height="1" fill="#E0846F" /><rect x="1" y="2" width="1" height="1" fill="#E3836D" /><rect x="2" y="2" width="1" height="1" fill="#E7866D" /><rect x="3" y="2" width="1" height="1" fill="#E38569" /><rect x="4" y="2" width="1" height="1" fill="#E89173" /><rect x="5" y="2" width="1" height="1" fill="#E69172" /><rect x="6" y="2" width="1" height="1" fill="#E7896D" /><rect x="7" y="2" width="1" height="1" fill="#E8846A" /><rect x="8" y="2" width="1" height="1" fill="#C35352" /><rect x="9" y="2" width="1" height="1" fill="#9F3551" /><rect x="0" y="3" width="1" height="1" fill="#E58974" /><rect x="1" y="3" width="1" height="1" fill="#E3836A" /><rect x="2" y="3" width="1" height="1" fill="#F18E6F" /><rect x="3" y="3" width="1" height="1" fill="#F09270" /><rect x="4" y="3" width="1" height="1" fill="#EE9374" /><rect x="5" y="3" width="1" height="1" fill="#E1886A" /><rect x="6" y="3" width="1" height="1" fill="#E2846A" /><rect x="7" y="3" width="1" height="1" fill="#EE8A72" /><rect x="8" y="3" width="1" height="1" fill="#C04E4D" /><rect x="9" y="3" width="1" height="1" fill="#9C304A" /><rect x="0" y="4" width="1" height="1" fill="#E0846B" /><rect x="1" y="4" width="1" height="1" fill="#E8876E" /><rect x="2" y="4" width="1" height="1" fill="#F69077" /><rect x="3" y="4" width="1" height="1" fill="#EC896C" /><rect x="4" y="4" width="1" height="1" fill="#E48567" /><rect x="5" y="4" width="1" height="1" fill="#E28768" /><rect x="6" y="4" width="1" height="1" fill="#EA8B6F" /><rect x="7" y="4" width="1" height="1" fill="#EC8870" /><rect x="8" y="4" width="1" height="1" fill="#BF4D4C" /><rect x="9" y="4" width="1" height="1" fill="#9A2E48" /><rect x="0" y="5" width="1" height="1" fill="#E38869" /><rect x="1" y="5" width="1" height="1" fill="#FD9A83" /><rect x="2" y="5" width="1" height="1" fill="#E97D71" /><rect x="3" y="5" width="1" height="1" fill="#C85E4E" /><rect x="4" y="5" width="1" height="1" fill="#DA795E" /><rect x="5" y="5" width="1" height="1" fill="#EC8F6D" /><rect x="6" y="5" width="1" height="1" fill="#F09171" /><rect x="7" y="5" width="1" height="1" fill="#EC8870" /><rect x="8" y="5" width="1" height="1" fill="#C2504F" /><rect x="9" y="5" width="1" height="1" fill="#992D47" /><rect x="0" y="6" width="1" height="1" fill="#F19870" /><rect x="1" y="6" width="1" height="1" fill="#F89283" /><rect x="2" y="6" width="1" height="1" fill="#BF4E52" /><rect x="3" y="6" width="1" height="1" fill="#A93938" /><rect x="4" y="6" width="1" height="1" fill="#E17B65" /><rect x="5" y="6" width="1" height="1" fill="#F3956F" /><rect x="6" y="6" width="1" height="1" fill="#F0906D" /><rect x="7" y="6" width="1" height="1" fill="#EF8970" /><rect x="8" y="6" width="1" height="1" fill="#BD4D4C" /><rect x="9" y="6" width="1" height="1" fill="#902642" /><rect x="0" y="7" width="1" height="1" fill="#F89F73" /><rect x="1" y="7" width="1" height="1" fill="#D36D5F" /><rect x="2" y="7" width="1" height="1" fill="#94212E" /><rect x="3" y="7" width="1" height="1" fill="#A5333D" /><rect x="4" y="7" width="1" height="1" fill="#E9826F" /><rect x="5" y="7" width="1" height="1" fill="#F4956D" /><rect x="6" y="7" width="1" height="1" fill="#F2936B" /><rect x="7" y="7" width="1" height="1" fill="#EB866A" /><rect x="8" y="7" width="1" height="1" fill="#BA4C4D" /><rect x="9" y="7" width="1" height="1" fill="#8D2442" /><rect x="0" y="8" width="1" height="1" fill="#E17165" /><rect x="1" y="8" width="1" height="1" fill="#9A3243" /><rect x="2" y="8" width="1" height="1" fill="#8C2246" /><rect x="3" y="8" width="1" height="1" fill="#B24353" /><rect x="4" y="8" width="1" height="1" fill="#E87F6C" /><rect x="5" y="8" width="1" height="1" fill="#F19570" /><rect x="6" y="8" width="1" height="1" fill="#F19371" /><rect x="7" y="8" width="1" height="1" fill="#EB8265" /><rect x="8" y="8" width="1" height="1" fill="#BC474D" /><rect x="9" y="8" width="1" height="1" fill="#8E2947" /><rect x="0" y="9" width="1" height="1" fill="#AE3B40" /><rect x="1" y="9" width="1" height="1" fill="#982F43" /><rect x="2" y="9" width="1" height="1" fill="#9B334A" /><rect x="3" y="9" width="1" height="1" fill="#B04444" /><rect x="4" y="9" width="1" height="1" fill="#E07761" /><rect x="5" y="9" width="1" height="1" fill="#EF9273" /><rect x="6" y="9" width="1" height="1" fill="#F19274" /><rect x="7" y="9" width="1" height="1" fill="#EC8366" /><rect x="8" y="9" width="1" height="1" fill="#BC474D" /><rect x="9" y="9" width="1" height="1" fill="#8E2947" />
  </g>
</svg>