<svg width="800" height="1000" xmlns="http://www.w3.org/2000/svg"><defs><linearGradient id="g" x1="0" x2="1" y1="0" y2="1"><stop offset="0%" stop-color="#2d3c96"/><stop offset="100%" stop-color="#d53392"/></linearGradient></defs><rect x="10" y="10" width="780" height="980" fill="url(#g)" rx="50" ry="50" stroke="gold" stroke-width="20"/><text x="400" y="920" width="780" text-anchor="middle" style="font:bold 200px 'Helvetica Neue';fill:gold">00849</text><g transform="translate(80 80) scale(64)"><rect x="0" y="0" width="1" height="1" fill="#d45c5e" /><rect x="0" y="1" width="1" height="1" fill="#ce6663" /><rect x="0" y="2" width="1" height="1" fill="#c7645e" /><rect x="0" y="3" width="1" height="1" fill="#cf5c59" /><rect x="0" y="4" width="1" height="1" fill="#d65a5a" /><rect x="0" y="5" width="1" height="1" fill="#d15b5b" /><rect x="0" y="6" width="1" height="1" fill="#d0605f" /><rect x="0" y="7" width="1" height="1" fill="#d76366" /><rect x="0" y="8" width="1" height="1" fill="#bc5157" /><rect x="0" y="9" width="1" height="1" fill="#b64b51" /><rect x="1" y="0" width="1" height="1" fill="#d75f61" /><rect x="1" y="1" width="1" height="1" fill="#cf6764" /><rect x="1" y="2" width="1" height="1" fill="#ca6560" /><rect x="1" y="3" width="1" height="1" fill="#d15e5b" /><rect x="1" y="4" width="1" height="1" fill="#d85e5d" /><rect x="1" y="5" width="1" height="1" fill="#d46060" /><rect x="1" y="6" width="1" height="1" fill="#cb5d5e" /><rect x="1" y="7" width="1" height="1" fill="#c85558" /><rect x="1" y="8" width="1" height="1" fill="#b54a50" /><rect x="1" y="9" width="1" height="1" fill="#bc5157" /><rect x="2" y="0" width="1" height="1" fill="#d65f61" /><rect x="2" y="1" width="1" height="1" fill="#cd6460" /><rect x="2" y="2" width="1" height="1" fill="#ca635e" /><rect x="2" y="3" width="1" height="1" fill="#cf5c59" /><rect x="2" y="4" width="1" height="1" fill="#d45c5d" /><rect x="2" y="5" width="1" height="1" fill="#d26463" /><rect x="2" y="6" width="1" height="1" fill="#c45c5d" /><rect x="2" y="7" width="1" height="1" fill="#b6494e" /><rect x="2" y="8" width="1" height="1" fill="#bd535d" /><rect x="2" y="9" width="1" height="1" fill="#c05660" /><rect x="3" y="0" width="1" height="1" fill="#da6666" /><rect x="3" y="1" width="1" height="1" fill="#ce6561" /><rect x="3" y="2" width="1" height="1" fill="#ce6561" /><rect x="3" y="3" width="1" height="1" fill="#d35d5d" /><rect x="3" y="4" width="1" height="1" fill="#d45d5f" /><rect x="3" y="5" width="1" height="1" fill="#d06869" /><rect x="3" y="6" width="1" height="1" fill="#c56265" /><rect x="3" y="7" width="1" height="1" fill="#b85158" /><rect x="3" y="8" width="1" height="1" fill="#be5760" /><rect x="3" y="9" width="1" height="1" fill="#ba535c" /><rect x="4" y="0" width="1" height="1" fill="#d96967" /><rect x="4" y="1" width="1" height="1" fill="#cd645e" /><rect x="4" y="2" width="1" height="1" fill="#d26560" /><rect x="4" y="3" width="1" height="1" fill="#d65e5f" /><rect x="4" y="4" width="1" height="1" fill="#cf5c5f" /><rect x="4" y="5" width="1" height="1" fill="#c76768" /><rect x="4" y="6" width="1" height="1" fill="#bf6567" /><rect x="4" y="7" width="1" height="1" fill="#bf5e67" /><rect x="4" y="8" width="1" height="1" fill="#b8545c" /><rect x="4" y="9" width="1" height="1" fill="#bc5860" /><rect x="5" y="0" width="1" height="1" fill="#d26560" /><rect x="5" y="1" width="1" height="1" fill="#ca615b" /><rect x="5" y="2" width="1" height="1" fill="#d3635f" /><rect x="5" y="3" width="1" height="1" fill="#d55d5f" /><rect x="5" y="4" width="1" height="1" fill="#ce5d61" /><rect x="5" y="5" width="1" height="1" fill="#c16769" /><rect x="5" y="6" width="1" height="1" fill="#b86368" /><rect x="5" y="7" width="1" height="1" fill="#be626d" /><rect x="5" y="8" width="1" height="1" fill="#bb5a61" /><rect x="5" y="9" width="1" height="1" fill="#c4636a" /><rect x="6" y="0" width="1" height="1" fill="#d36860" /><rect x="6" y="1" width="1" height="1" fill="#ce655f" /><rect x="6" y="2" width="1" height="1" fill="#d76662" /><rect x="6" y="3" width="1" height="1" fill="#d75c5f" /><rect x="6" y="4" width="1" height="1" fill="#d16467" /><rect x="6" y="5" width="1" height="1" fill="#c87275" /><rect x="6" y="6" width="1" height="1" fill="#ba6b70" /><rect x="6" y="7" width="1" height="1" fill="#c06874" /><rect x="6" y="8" width="1" height="1" fill="#c46667" /><rect x="6" y="9" width="1" height="1" fill="#c86a6b" /><rect x="7" y="0" width="1" height="1" fill="#d0685f" /><rect x="7" y="1" width="1" height="1" fill="#cf675e" /><rect x="7" y="2" width="1" height="1" fill="#d5625f" /><rect x="7" y="3" width="1" height="1" fill="#d2575a" /><rect x="7" y="4" width="1" height="1" fill="#d3666b" /><rect x="7" y="5" width="1" height="1" fill="#cd7b7d" /><rect x="7" y="6" width="1" height="1" fill="#bd7076" /><rect x="7" y="7" width="1" height="1" fill="#c06a77" /><rect x="7" y="8" width="1" height="1" fill="#ca6c6d" /><rect x="7" y="9" width="1" height="1" fill="#d07273" /><rect x="8" y="0" width="1" height="1" fill="#d06668" /><rect x="8" y="1" width="1" height="1" fill="#d86061" /><rect x="8" y="2" width="1" height="1" fill="#d35c58" /><rect x="8" y="3" width="1" height="1" fill="#cf5155" /><rect x="8" y="4" width="1" height="1" fill="#cd686e" /><rect x="8" y="5" width="1" height="1" fill="#c58586" /><rect x="8" y="6" width="1" height="1" fill="#c3747a" /><rect x="8" y="7" width="1" height="1" fill="#c36871" /><rect x="8" y="8" width="1" height="1" fill="#c96f6f" /><rect x="8" y="9" width="1" height="1" fill="#cf7575" /><rect x="9" y="0" width="1" height="1" fill="#c86967" /><rect x="9" y="1" width="1" height="1" fill="#d36663" /><rect x="9" y="2" width="1" height="1" fill="#cc5f58" /><rect x="9" y="3" width="1" height="1" fill="#c45051" /><rect x="9" y="4" width="1" height="1" fill="#c96f71" /><rect x="9" y="5" width="1" height="1" fill="#cb9593" /><rect x="9" y="6" width="1" height="1" fill="#ca8588" /><rect x="9" y="7" width="1" height="1" fill="#c47379" /><rect x="9" y="8" width="1" height="1" fill="#cc7272" /><rect x="9" y="9" width="1" height="1" fill="#cc7272" /></g></svg>