<svg width="800" height="1000" version="1.1" xmlns="http://www.w3.org/2000/svg" xmlns:xlink="http://www.w3.org/1999/xlink">
  <defs>
      <linearGradient id="Gradient2" x1="0" x2="1" y1="0" y2="1">
        <stop offset="0%" stop-color="#2d3c96"/>
        <stop offset="100%" stop-color="#d53392"/>
      </linearGradient>
  </defs>
  <rect x="10" y="10" width="780" height="980" fill="url(#Gradient2)" rx="50" ry="50" stroke="#ffd700" stroke-width="20"/>
  <text x="400" y="920" width="780" text-anchor="middle" style="font: bold 200px 'Helvetica Neue'; fill: #ffd700">00848</text>

  <g transform="translate(80 80) scale(64)">
<rect x="0" y="0" width="1" height="1" fill="#AC4651" /><rect x="1" y="0" width="1" height="1" fill="#B34D5A" /><rect x="2" y="0" width="1" height="1" fill="#B34D58" /><rect x="3" y="0" width="1" height="1" fill="#B24B56" /><rect x="4" y="0" width="1" height="1" fill="#B95057" /><rect x="5" y="0" width="1" height="1" fill="#C0575B" /><rect x="6" y="0" width="1" height="1" fill="#C65D5A" /><rect x="7" y="0" width="1" height="1" fill="#CA615D" /><rect x="8" y="0" width="1" height="1" fill="#CF6361" /><rect x="9" y="0" width="1" height="1" fill="#CF6361" /><rect x="0" y="1" width="1" height="1" fill="#AA444F" /><rect x="1" y="1" width="1" height="1" fill="#B04954" /><rect x="2" y="1" width="1" height="1" fill="#B04954" /><rect x="3" y="1" width="1" height="1" fill="#AF454F" /><rect x="4" y="1" width="1" height="1" fill="#B64B51" /><rect x="5" y="1" width="1" height="1" fill="#BE5456" /><rect x="6" y="1" width="1" height="1" fill="#C75B59" /><rect x="7" y="1" width="1" height="1" fill="#CB605A" /><rect x="8" y="1" width="1" height="1" fill="#CF6160" /><rect x="9" y="1" width="1" height="1" fill="#CF6160" /><rect x="0" y="2" width="1" height="1" fill="#B04650" /><rect x="1" y="2" width="1" height="1" fill="#B44A54" /><rect x="2" y="2" width="1" height="1" fill="#B34852" /><rect x="3" y="2" width="1" height="1" fill="#B1464E" /><rect x="4" y="2" width="1" height="1" fill="#B94C51" /><rect x="5" y="2" width="1" height="1" fill="#C35556" /><rect x="6" y="2" width="1" height="1" fill="#C95C59" /><rect x="7" y="2" width="1" height="1" fill="#CD6059" /><rect x="8" y="2" width="1" height="1" fill="#CD5F5E" /><rect x="9" y="2" width="1" height="1" fill="#CE605F" /><rect x="0" y="3" width="1" height="1" fill="#B0454F" /><rect x="1" y="3" width="1" height="1" fill="#B44953" /><rect x="2" y="3" width="1" height="1" fill="#B44651" /><rect x="3" y="3" width="1" height="1" fill="#B1434C" /><rect x="4" y="3" width="1" height="1" fill="#B94A50" /><rect x="5" y="3" width="1" height="1" fill="#C35254" /><rect x="6" y="3" width="1" height="1" fill="#C85854" /><rect x="7" y="3" width="1" height="1" fill="#CB5C55" /><rect x="8" y="3" width="1" height="1" fill="#CE5E5D" /><rect x="9" y="3" width="1" height="1" fill="#CF5F5E" /><rect x="0" y="4" width="1" height="1" fill="#AE434D" /><rect x="1" y="4" width="1" height="1" fill="#B24751" /><rect x="2" y="4" width="1" height="1" fill="#B44651" /><rect x="3" y="4" width="1" height="1" fill="#B4454E" /><rect x="4" y="4" width="1" height="1" fill="#BB4C52" /><rect x="5" y="4" width="1" height="1" fill="#C55456" /><rect x="6" y="4" width="1" height="1" fill="#C95957" /><rect x="7" y="4" width="1" height="1" fill="#CC5B55" /><rect x="8" y="4" width="1" height="1" fill="#CD5D5C" /><rect x="9" y="4" width="1" height="1" fill="#CF5F5E" /><rect x="0" y="5" width="1" height="1" fill="#AA3E4B" /><rect x="1" y="5" width="1" height="1" fill="#B14552" /><rect x="2" y="5" width="1" height="1" fill="#B44653" /><rect x="3" y="5" width="1" height="1" fill="#B54752" /><rect x="4" y="5" width="1" height="1" fill="#BD4E55" /><rect x="5" y="5" width="1" height="1" fill="#C7565A" /><rect x="6" y="5" width="1" height="1" fill="#CB5B5A" /><rect x="7" y="5" width="1" height="1" fill="#CE5E5A" /><rect x="8" y="5" width="1" height="1" fill="#CD5B5B" /><rect x="9" y="5" width="1" height="1" fill="#CF5D5D" /><rect x="0" y="6" width="1" height="1" fill="#A33947" /><rect x="1" y="6" width="1" height="1" fill="#AB414F" /><rect x="2" y="6" width="1" height="1" fill="#AE4251" /><rect x="3" y="6" width="1" height="1" fill="#AE424F" /><rect x="4" y="6" width="1" height="1" fill="#B64853" /><rect x="5" y="6" width="1" height="1" fill="#BF5056" /><rect x="6" y="6" width="1" height="1" fill="#C35556" /><rect x="7" y="6" width="1" height="1" fill="#C65857" /><rect x="8" y="6" width="1" height="1" fill="#CA5858" /><rect x="9" y="6" width="1" height="1" fill="#CD5B5B" /><rect x="0" y="7" width="1" height="1" fill="#A33B4A" /><rect x="1" y="7" width="1" height="1" fill="#AD4252" /><rect x="2" y="7" width="1" height="1" fill="#AE4353" /><rect x="3" y="7" width="1" height="1" fill="#AE4251" /><rect x="4" y="7" width="1" height="1" fill="#B24653" /><rect x="5" y="7" width="1" height="1" fill="#BB4E54" /><rect x="6" y="7" width="1" height="1" fill="#C05255" /><rect x="7" y="7" width="1" height="1" fill="#C45657" /><rect x="8" y="7" width="1" height="1" fill="#CA5657" /><rect x="9" y="7" width="1" height="1" fill="#CD595A" /><rect x="0" y="8" width="1" height="1" fill="#A63B4D" /><rect x="1" y="8" width="1" height="1" fill="#AB4352" /><rect x="2" y="8" width="1" height="1" fill="#AD4553" /><rect x="3" y="8" width="1" height="1" fill="#AB444D" /><rect x="4" y="8" width="1" height="1" fill="#B34A51" /><rect x="5" y="8" width="1" height="1" fill="#BD5055" /><rect x="6" y="8" width="1" height="1" fill="#C45357" /><rect x="7" y="8" width="1" height="1" fill="#C95659" /><rect x="8" y="8" width="1" height="1" fill="#CB585B" /><rect x="9" y="8" width="1" height="1" fill="#CC595C" /><rect x="0" y="9" width="1" height="1" fill="#A63B4D" /><rect x="1" y="9" width="1" height="1" fill="#AB4352" /><rect x="2" y="9" width="1" height="1" fill="#AD4553" /><rect x="3" y="9" width="1" height="1" fill="#AB444D" /><rect x="4" y="9" width="1" height="1" fill="#B34A51" /><rect x="5" y="9" width="1" height="1" fill="#BD5055" /><rect x="6" y="9" width="1" height="1" fill="#C45357" /><rect x="7" y="9" width="1" height="1" fill="#C95659" /><rect x="8" y="9" width="1" height="1" fill="#CF5C5F" /><rect x="9" y="9" width="1" height="1" fill="#C55255" />
  </g>
</svg>