<svg width="800" height="1000" version="1.1" xmlns="http://www.w3.org/2000/svg" xmlns:xlink="http://www.w3.org/1999/xlink">
  <defs>
      <linearGradient id="Gradient2" x1="0" x2="1" y1="0" y2="1">
        <stop offset="0%" stop-color="#2d3c96"/>
        <stop offset="100%" stop-color="#d53392"/>
      </linearGradient>
  </defs>
  <rect x="10" y="10" width="780" height="980" fill="url(#Gradient2)" rx="50" ry="50" stroke="#ffd700" stroke-width="20"/>
  <text x="400" y="920" width="780" text-anchor="middle" style="font: bold 200px 'Helvetica Neue'; fill: #ffd700">00851</text>

  <g transform="translate(80 80) scale(64)">
<rect x="0" y="0" width="1" height="1" fill="#C6635E" /><rect x="1" y="0" width="1" height="1" fill="#C76365" /><rect x="2" y="0" width="1" height="1" fill="#BA555D" /><rect x="3" y="0" width="1" height="1" fill="#AC4852" /><rect x="4" y="0" width="1" height="1" fill="#BC595E" /><rect x="5" y="0" width="1" height="1" fill="#E3847E" /><rect x="6" y="0" width="1" height="1" fill="#E28574" /><rect x="7" y="0" width="1" height="1" fill="#DB7F66" /><rect x="8" y="0" width="1" height="1" fill="#DD7E6C" /><rect x="9" y="0" width="1" height="1" fill="#E0816F" /><rect x="0" y="1" width="1" height="1" fill="#D16A65" /><rect x="1" y="1" width="1" height="1" fill="#C65E5F" /><rect x="2" y="1" width="1" height="1" fill="#BD565D" /><rect x="3" y="1" width="1" height="1" fill="#B54F5A" /><rect x="4" y="1" width="1" height="1" fill="#AE4951" /><rect x="5" y="1" width="1" height="1" fill="#D06E6B" /><rect x="6" y="1" width="1" height="1" fill="#E48778" /><rect x="7" y="1" width="1" height="1" fill="#E48871" /><rect x="8" y="1" width="1" height="1" fill="#E28870" /><rect x="9" y="1" width="1" height="1" fill="#E38971" /><rect x="0" y="2" width="1" height="1" fill="#CA5D58" /><rect x="1" y="2" width="1" height="1" fill="#CE6061" /><rect x="2" y="2" width="1" height="1" fill="#C95B64" /><rect x="3" y="2" width="1" height="1" fill="#BB515D" /><rect x="4" y="2" width="1" height="1" fill="#AB444D" /><rect x="5" y="2" width="1" height="1" fill="#BF5D5E" /><rect x="6" y="2" width="1" height="1" fill="#DE8076" /><rect x="7" y="2" width="1" height="1" fill="#EB8E7D" /><rect x="8" y="2" width="1" height="1" fill="#E48D72" /><rect x="9" y="2" width="1" height="1" fill="#E18A6F" /><rect x="0" y="3" width="1" height="1" fill="#CC5B55" /><rect x="1" y="3" width="1" height="1" fill="#D36161" /><rect x="2" y="3" width="1" height="1" fill="#C75861" /><rect x="3" y="3" width="1" height="1" fill="#BE505D" /><rect x="4" y="3" width="1" height="1" fill="#B44A56" /><rect x="5" y="3" width="1" height="1" fill="#BD575B" /><rect x="6" y="3" width="1" height="1" fill="#D77670" /><rect x="7" y="3" width="1" height="1" fill="#E58579" /><rect x="8" y="3" width="1" height="1" fill="#DF8972" /><rect x="9" y="3" width="1" height="1" fill="#DC866F" /><rect x="0" y="4" width="1" height="1" fill="#D86763" /><rect x="1" y="4" width="1" height="1" fill="#D05D60" /><rect x="2" y="4" width="1" height="1" fill="#C4525C" /><rect x="3" y="4" width="1" height="1" fill="#BD4E5E" /><rect x="4" y="4" width="1" height="1" fill="#B84C5B" /><rect x="5" y="4" width="1" height="1" fill="#BF565D" /><rect x="6" y="4" width="1" height="1" fill="#D5706C" /><rect x="7" y="4" width="1" height="1" fill="#D7756A" /><rect x="8" y="4" width="1" height="1" fill="#D97F74" /><rect x="9" y="4" width="1" height="1" fill="#DE8479" /><rect x="0" y="5" width="1" height="1" fill="#C35554" /><rect x="1" y="5" width="1" height="1" fill="#CB5C62" /><rect x="2" y="5" width="1" height="1" fill="#CB5B69" /><rect x="3" y="5" width="1" height="1" fill="#BA4B5C" /><rect x="4" y="5" width="1" height="1" fill="#B34756" /><rect x="5" y="5" width="1" height="1" fill="#C0555D" /><rect x="6" y="5" width="1" height="1" fill="#D8706D" /><rect x="7" y="5" width="1" height="1" fill="#D87168" /><rect x="8" y="5" width="1" height="1" fill="#D6756F" /><rect x="9" y="5" width="1" height="1" fill="#E07F79" /><rect x="0" y="6" width="1" height="1" fill="#B34B4C" /><rect x="1" y="6" width="1" height="1" fill="#B84F56" /><rect x="2" y="6" width="1" height="1" fill="#C55968" /><rect x="3" y="6" width="1" height="1" fill="#B6495C" /><rect x="4" y="6" width="1" height="1" fill="#AF4352" /><rect x="5" y="6" width="1" height="1" fill="#BF545A" /><rect x="6" y="6" width="1" height="1" fill="#DC736F" /><rect x="7" y="6" width="1" height="1" fill="#E67C6F" /><rect x="8" y="6" width="1" height="1" fill="#DB746F" /><rect x="9" y="6" width="1" height="1" fill="#D7706B" /><rect x="0" y="7" width="1" height="1" fill="#C86367" /><rect x="1" y="7" width="1" height="1" fill="#9C353E" /><rect x="2" y="7" width="1" height="1" fill="#AB4352" /><rect x="3" y="7" width="1" height="1" fill="#B74C5E" /><rect x="4" y="7" width="1" height="1" fill="#AF4352" /><rect x="5" y="7" width="1" height="1" fill="#BE5157" /><rect x="6" y="7" width="1" height="1" fill="#E27771" /><rect x="7" y="7" width="1" height="1" fill="#ED8174" /><rect x="8" y="7" width="1" height="1" fill="#E77C74" /><rect x="9" y="7" width="1" height="1" fill="#CF645C" /><rect x="0" y="8" width="1" height="1" fill="#F3F8E4" /><rect x="1" y="8" width="1" height="1" fill="#B47377" /><rect x="2" y="8" width="1" height="1" fill="#841027" /><rect x="3" y="8" width="1" height="1" fill="#A2344D" /><rect x="4" y="8" width="1" height="1" fill="#A24357" /><rect x="5" y="8" width="1" height="1" fill="#B54E59" /><rect x="6" y="8" width="1" height="1" fill="#E27771" /><rect x="7" y="8" width="1" height="1" fill="#E6866D" /><rect x="8" y="8" width="1" height="1" fill="#E88073" /><rect x="9" y="8" width="1" height="1" fill="#CD6461" /><rect x="0" y="9" width="1" height="1" fill="#E6DFCF" /><rect x="1" y="9" width="1" height="1" fill="#FFEDE2" /><rect x="2" y="9" width="1" height="1" fill="#BB898A" /><rect x="3" y="9" width="1" height="1" fill="#8A3646" /><rect x="4" y="9" width="1" height="1" fill="#93273F" /><rect x="5" y="9" width="1" height="1" fill="#C14E5D" /><rect x="6" y="9" width="1" height="1" fill="#E27570" /><rect x="7" y="9" width="1" height="1" fill="#EA816B" /><rect x="8" y="9" width="1" height="1" fill="#E88073" /><rect x="9" y="9" width="1" height="1" fill="#D36A67" />
  </g>
</svg>