<svg width="800" height="1000" version="1.1" xmlns="http://www.w3.org/2000/svg" xmlns:xlink="http://www.w3.org/1999/xlink">
  <defs>
      <linearGradient id="Gradient2" x1="0" x2="1" y1="0" y2="1">
        <stop offset="0%" stop-color="#2d3c96"/>
        <stop offset="100%" stop-color="#d53392"/>
      </linearGradient>
  </defs>
  <rect x="10" y="10" width="780" height="980" fill="url(#Gradient2)" rx="50" ry="50" stroke="#ffd700" stroke-width="20"/>
  <text x="400" y="920" width="780" text-anchor="middle" style="font: bold 200px 'Helvetica Neue'; fill: #ffd700">00850</text>

  <g transform="translate(80 80) scale(64)">
<rect x="0" y="0" width="1" height="1" fill="#CF6360" /><rect x="1" y="0" width="1" height="1" fill="#D36663" /><rect x="2" y="0" width="1" height="1" fill="#CE615E" /><rect x="3" y="0" width="1" height="1" fill="#CC5F5C" /><rect x="4" y="0" width="1" height="1" fill="#D26562" /><rect x="5" y="0" width="1" height="1" fill="#D26663" /><rect x="6" y="0" width="1" height="1" fill="#CA615D" /><rect x="7" y="0" width="1" height="1" fill="#C7605B" /><rect x="8" y="0" width="1" height="1" fill="#C76363" /><rect x="9" y="0" width="1" height="1" fill="#CC5F62" /><rect x="0" y="1" width="1" height="1" fill="#C7665F" /><rect x="1" y="1" width="1" height="1" fill="#C6635D" /><rect x="2" y="1" width="1" height="1" fill="#CE6964" /><rect x="3" y="1" width="1" height="1" fill="#D56C68" /><rect x="4" y="1" width="1" height="1" fill="#D06461" /><rect x="5" y="1" width="1" height="1" fill="#CD605D" /><rect x="6" y="1" width="1" height="1" fill="#CF625F" /><rect x="7" y="1" width="1" height="1" fill="#D1615F" /><rect x="8" y="1" width="1" height="1" fill="#C8605F" /><rect x="9" y="1" width="1" height="1" fill="#CD6161" /><rect x="0" y="2" width="1" height="1" fill="#D86062" /><rect x="1" y="2" width="1" height="1" fill="#D25A5C" /><rect x="2" y="2" width="1" height="1" fill="#D15D5E" /><rect x="3" y="2" width="1" height="1" fill="#D36362" /><rect x="4" y="2" width="1" height="1" fill="#D06462" /><rect x="5" y="2" width="1" height="1" fill="#CD6562" /><rect x="6" y="2" width="1" height="1" fill="#CA6561" /><rect x="7" y="2" width="1" height="1" fill="#C25F5A" /><rect x="8" y="2" width="1" height="1" fill="#CF5F5D" /><rect x="9" y="2" width="1" height="1" fill="#CF5D5C" /><rect x="0" y="3" width="1" height="1" fill="#C44B50" /><rect x="1" y="3" width="1" height="1" fill="#C34C50" /><rect x="2" y="3" width="1" height="1" fill="#BE4A4D" /><rect x="3" y="3" width="1" height="1" fill="#C25153" /><rect x="4" y="3" width="1" height="1" fill="#CB5D5E" /><rect x="5" y="3" width="1" height="1" fill="#CC6060" /><rect x="6" y="3" width="1" height="1" fill="#CB5F5F" /><rect x="7" y="3" width="1" height="1" fill="#D06464" /><rect x="8" y="3" width="1" height="1" fill="#CB5E5B" /><rect x="9" y="3" width="1" height="1" fill="#CA5D5A" /><rect x="0" y="4" width="1" height="1" fill="#C48178" /><rect x="1" y="4" width="1" height="1" fill="#C58178" /><rect x="2" y="4" width="1" height="1" fill="#C57C75" /><rect x="3" y="4" width="1" height="1" fill="#C57470" /><rect x="4" y="4" width="1" height="1" fill="#C66868" /><rect x="5" y="4" width="1" height="1" fill="#C0565A" /><rect x="6" y="4" width="1" height="1" fill="#C44C55" /><rect x="7" y="4" width="1" height="1" fill="#D1535E" /><rect x="8" y="4" width="1" height="1" fill="#D06666" /><rect x="9" y="4" width="1" height="1" fill="#CD5F60" /><rect x="0" y="5" width="1" height="1" fill="#CEA796" /><rect x="1" y="5" width="1" height="1" fill="#D4AD9C" /><rect x="2" y="5" width="1" height="1" fill="#DEB4A4" /><rect x="3" y="5" width="1" height="1" fill="#E0B0A2" /><rect x="4" y="5" width="1" height="1" fill="#DFA69B" /><rect x="5" y="5" width="1" height="1" fill="#DC9991" /><rect x="6" y="5" width="1" height="1" fill="#C87A76" /><rect x="7" y="5" width="1" height="1" fill="#AA5654" /><rect x="8" y="5" width="1" height="1" fill="#BE4B52" /><rect x="9" y="5" width="1" height="1" fill="#D55661" /><rect x="0" y="6" width="1" height="1" fill="#CB9088" /><rect x="1" y="6" width="1" height="1" fill="#D09C91" /><rect x="2" y="6" width="1" height="1" fill="#D3A79A" /><rect x="3" y="6" width="1" height="1" fill="#D2AE9E" /><rect x="4" y="6" width="1" height="1" fill="#DCBDAB" /><rect x="5" y="6" width="1" height="1" fill="#EDD0BE" /><rect x="6" y="6" width="1" height="1" fill="#E8C7B6" /><rect x="7" y="6" width="1" height="1" fill="#CEAA9A" /><rect x="8" y="6" width="1" height="1" fill="#BF6D71" /><rect x="9" y="6" width="1" height="1" fill="#A83E4A" /><rect x="0" y="7" width="1" height="1" fill="#C5867F" /><rect x="1" y="7" width="1" height="1" fill="#D49B92" /><rect x="2" y="7" width="1" height="1" fill="#DCAEA1" /><rect x="3" y="7" width="1" height="1" fill="#D9B4A4" /><rect x="4" y="7" width="1" height="1" fill="#D3B4A2" /><rect x="5" y="7" width="1" height="1" fill="#D1B2A0" /><rect x="6" y="7" width="1" height="1" fill="#DBBAA9" /><rect x="7" y="7" width="1" height="1" fill="#EECABA" /><rect x="8" y="7" width="1" height="1" fill="#E7D7C8" /><rect x="9" y="7" width="1" height="1" fill="#D1A6A0" /><rect x="0" y="8" width="1" height="1" fill="#C97875" /><rect x="1" y="8" width="1" height="1" fill="#DE9791" /><rect x="2" y="8" width="1" height="1" fill="#E2A79F" /><rect x="3" y="8" width="1" height="1" fill="#D2A69B" /><rect x="4" y="8" width="1" height="1" fill="#D1AFA3" /><rect x="5" y="8" width="1" height="1" fill="#DCBEB3" /><rect x="6" y="8" width="1" height="1" fill="#E3C5BB" /><rect x="7" y="8" width="1" height="1" fill="#E4C6BC" /><rect x="8" y="8" width="1" height="1" fill="#E5CDC1" /><rect x="9" y="8" width="1" height="1" fill="#F3E6D6" /><rect x="0" y="9" width="1" height="1" fill="#CA7976" /><rect x="1" y="9" width="1" height="1" fill="#CF8882" /><rect x="2" y="9" width="1" height="1" fill="#D39890" /><rect x="3" y="9" width="1" height="1" fill="#D9ADA2" /><rect x="4" y="9" width="1" height="1" fill="#E5C3B7" /><rect x="5" y="9" width="1" height="1" fill="#E6C8BD" /><rect x="6" y="9" width="1" height="1" fill="#E0C2B8" /><rect x="7" y="9" width="1" height="1" fill="#E0C2B8" /><rect x="8" y="9" width="1" height="1" fill="#E4C2B9" /><rect x="9" y="9" width="1" height="1" fill="#E0C8BC" />
  </g>
</svg>