<svg width="800" height="1000" version="1.1" xmlns="http://www.w3.org/2000/svg" xmlns:xlink="http://www.w3.org/1999/xlink">
  <defs>
      <linearGradient id="Gradient2" x1="0" x2="1" y1="0" y2="1">
        <stop offset="0%" stop-color="#2d3c96"/>
        <stop offset="100%" stop-color="#d53392"/>
      </linearGradient>
  </defs>
  <rect x="10" y="10" width="780" height="980" fill="url(#Gradient2)" rx="50" ry="50" stroke="#ffd700" stroke-width="20"/>
  <text x="400" y="920" width="780" text-anchor="middle" style="font: bold 200px 'Helvetica Neue'; fill: #ffd700">00853</text>

  <g transform="translate(80 80) scale(64)">
<rect x="0" y="0" width="1" height="1" fill="#BC5C5D" /><rect x="1" y="0" width="1" height="1" fill="#C15B66" /><rect x="2" y="0" width="1" height="1" fill="#C65C68" /><rect x="3" y="0" width="1" height="1" fill="#C05859" /><rect x="4" y="0" width="1" height="1" fill="#C4605E" /><rect x="5" y="0" width="1" height="1" fill="#B95758" /><rect x="6" y="0" width="1" height="1" fill="#CA6761" /><rect x="7" y="0" width="1" height="1" fill="#C96752" /><rect x="8" y="0" width="1" height="1" fill="#CC6964" /><rect x="9" y="0" width="1" height="1" fill="#B85E60" /><rect x="0" y="1" width="1" height="1" fill="#B75B60" /><rect x="1" y="1" width="1" height="1" fill="#B85D5A" /><rect x="2" y="1" width="1" height="1" fill="#B95C57" /><rect x="3" y="1" width="1" height="1" fill="#C25D5B" /><rect x="4" y="1" width="1" height="1" fill="#C55758" /><rect x="5" y="1" width="1" height="1" fill="#D26260" /><rect x="6" y="1" width="1" height="1" fill="#DD7470" /><rect x="7" y="1" width="1" height="1" fill="#CA6664" /><rect x="8" y="1" width="1" height="1" fill="#792A4A" /><rect x="9" y="1" width="1" height="1" fill="#4A0035" /><rect x="0" y="2" width="1" height="1" fill="#A74156" /><rect x="1" y="2" width="1" height="1" fill="#C0635C" /><rect x="2" y="2" width="1" height="1" fill="#C16556" /><rect x="3" y="2" width="1" height="1" fill="#BD575B" /><rect x="4" y="2" width="1" height="1" fill="#D6646E" /><rect x="5" y="2" width="1" height="1" fill="#DF7373" /><rect x="6" y="2" width="1" height="1" fill="#A54A53" /><rect x="7" y="2" width="1" height="1" fill="#5E0E33" /><rect x="8" y="2" width="1" height="1" fill="#4A0641" /><rect x="9" y="2" width="1" height="1" fill="#53193F" /><rect x="0" y="3" width="1" height="1" fill="#C66763" /><rect x="1" y="3" width="1" height="1" fill="#A03A47" /><rect x="2" y="3" width="1" height="1" fill="#C05664" /><rect x="3" y="3" width="1" height="1" fill="#D66E6D" /><rect x="4" y="3" width="1" height="1" fill="#C96A6E" /><rect x="5" y="3" width="1" height="1" fill="#802F4F" /><rect x="6" y="3" width="1" height="1" fill="#410031" /><rect x="7" y="3" width="1" height="1" fill="#4E1849" /><rect x="8" y="3" width="1" height="1" fill="#621B39" /><rect x="9" y="3" width="1" height="1" fill="#631D3F" /><rect x="0" y="4" width="1" height="1" fill="#FFCD99" /><rect x="1" y="4" width="1" height="1" fill="#A15347" /><rect x="2" y="4" width="1" height="1" fill="#B75264" /><rect x="3" y="4" width="1" height="1" fill="#B85768" /><rect x="4" y="4" width="1" height="1" fill="#66192D" /><rect x="5" y="4" width="1" height="1" fill="#41042D" /><rect x="6" y="4" width="1" height="1" fill="#561D52" /><rect x="7" y="4" width="1" height="1" fill="#612558" /><rect x="8" y="4" width="1" height="1" fill="#651838" /><rect x="9" y="4" width="1" height="1" fill="#5F0E39" /><rect x="0" y="5" width="1" height="1" fill="#FFFCB1" /><rect x="1" y="5" width="1" height="1" fill="#FFEAB3" /><rect x="2" y="5" width="1" height="1" fill="#904947" /><rect x="3" y="5" width="1" height="1" fill="#4B0029" /><rect x="4" y="5" width="1" height="1" fill="#4E0439" /><rect x="5" y="5" width="1" height="1" fill="#5B1D36" /><rect x="6" y="5" width="1" height="1" fill="#69253C" /><rect x="7" y="5" width="1" height="1" fill="#641041" /><rect x="8" y="5" width="1" height="1" fill="#590F42" /><rect x="9" y="5" width="1" height="1" fill="#5F1138" /><rect x="0" y="6" width="1" height="1" fill="#FFDFAC" /><rect x="1" y="6" width="1" height="1" fill="#D5AB95" /><rect x="2" y="6" width="1" height="1" fill="#480E24" /><rect x="3" y="6" width="1" height="1" fill="#41002D" /><rect x="4" y="6" width="1" height="1" fill="#702254" /><rect x="5" y="6" width="1" height="1" fill="#6C1F43" /><rect x="6" y="6" width="1" height="1" fill="#651838" /><rect x="7" y="6" width="1" height="1" fill="#5D1034" /><rect x="8" y="6" width="1" height="1" fill="#5C1D3A" /><rect x="9" y="6" width="1" height="1" fill="#500732" /><rect x="0" y="7" width="1" height="1" fill="#96454C" /><rect x="1" y="7" width="1" height="1" fill="#460120" /><rect x="2" y="7" width="1" height="1" fill="#480C3F" /><rect x="3" y="7" width="1" height="1" fill="#622050" /><rect x="4" y="7" width="1" height="1" fill="#610F3D" /><rect x="5" y="7" width="1" height="1" fill="#671142" /><rect x="6" y="7" width="1" height="1" fill="#581342" /><rect x="7" y="7" width="1" height="1" fill="#501D46" /><rect x="8" y="7" width="1" height="1" fill="#4F0E39" /><rect x="9" y="7" width="1" height="1" fill="#863E54" /><rect x="0" y="8" width="1" height="1" fill="#440038" /><rect x="1" y="8" width="1" height="1" fill="#580E3F" /><rect x="2" y="8" width="1" height="1" fill="#6D1F47" /><rect x="3" y="8" width="1" height="1" fill="#63173B" /><rect x="4" y="8" width="1" height="1" fill="#5A163D" /><rect x="5" y="8" width="1" height="1" fill="#5B1A45" /><rect x="6" y="8" width="1" height="1" fill="#5A1846" /><rect x="7" y="8" width="1" height="1" fill="#6C2754" /><rect x="8" y="8" width="1" height="1" fill="#9B5464" /><rect x="9" y="8" width="1" height="1" fill="#E48D7C" /><rect x="0" y="9" width="1" height="1" fill="#5D1C3C" /><rect x="1" y="9" width="1" height="1" fill="#661F3F" /><rect x="2" y="9" width="1" height="1" fill="#63163A" /><rect x="3" y="9" width="1" height="1" fill="#62153F" /><rect x="4" y="9" width="1" height="1" fill="#5F1A47" /><rect x="5" y="9" width="1" height="1" fill="#56153D" /><rect x="6" y="9" width="1" height="1" fill="#743552" /><rect x="7" y="9" width="1" height="1" fill="#AF6E82" /><rect x="8" y="9" width="1" height="1" fill="#DD8F85" /><rect x="9" y="9" width="1" height="1" fill="#D5897C" />
  </g>
</svg>