<svg width="800" height="1000" xmlns="http://www.w3.org/2000/svg"><defs><linearGradient id="g" x1="0" x2="1" y1="0" y2="1"><stop offset="0%" stop-color="#2d3c96"/><stop offset="100%" stop-color="#d53392"/></linearGradient></defs><rect x="10" y="10" width="780" height="980" fill="url(#g)" rx="50" ry="50" stroke="gold" stroke-width="20"/><text x="400" y="920" width="780" text-anchor="middle" style="font:bold 200px 'Helvetica Neue';fill:gold">00851</text><g transform="translate(80 80) scale(64)"><rect x="0" y="0" width="1" height="1" fill="#c6635e" /><rect x="0" y="1" width="1" height="1" fill="#d16a65" /><rect x="0" y="2" width="1" height="1" fill="#ca5d58" /><rect x="0" y="3" width="1" height="1" fill="#cc5b55" /><rect x="0" y="4" width="1" height="1" fill="#d86763" /><rect x="0" y="5" width="1" height="1" fill="#c35554" /><rect x="0" y="6" width="1" height="1" fill="#b34b4c" /><rect x="0" y="7" width="1" height="1" fill="#c86367" /><rect x="0" y="8" width="1" height="1" fill="#f3f8e4" /><rect x="0" y="9" width="1" height="1" fill="#e6dfcf" /><rect x="1" y="0" width="1" height="1" fill="#c76365" /><rect x="1" y="1" width="1" height="1" fill="#c65e5f" /><rect x="1" y="2" width="1" height="1" fill="#ce6061" /><rect x="1" y="3" width="1" height="1" fill="#d36161" /><rect x="1" y="4" width="1" height="1" fill="#d05d60" /><rect x="1" y="5" width="1" height="1" fill="#cb5c62" /><rect x="1" y="6" width="1" height="1" fill="#b84f56" /><rect x="1" y="7" width="1" height="1" fill="#9c353e" /><rect x="1" y="8" width="1" height="1" fill="#b47377" /><rect x="1" y="9" width="1" height="1" fill="#ffede2" /><rect x="2" y="0" width="1" height="1" fill="#ba555d" /><rect x="2" y="1" width="1" height="1" fill="#bd565d" /><rect x="2" y="2" width="1" height="1" fill="#c95b64" /><rect x="2" y="3" width="1" height="1" fill="#c75861" /><rect x="2" y="4" width="1" height="1" fill="#c4525c" /><rect x="2" y="5" width="1" height="1" fill="#cb5b69" /><rect x="2" y="6" width="1" height="1" fill="#c55968" /><rect x="2" y="7" width="1" height="1" fill="#ab4352" /><rect x="2" y="8" width="1" height="1" fill="#841027" /><rect x="2" y="9" width="1" height="1" fill="#bb898a" /><rect x="3" y="0" width="1" height="1" fill="#ac4852" /><rect x="3" y="1" width="1" height="1" fill="#b54f5a" /><rect x="3" y="2" width="1" height="1" fill="#bb515d" /><rect x="3" y="3" width="1" height="1" fill="#be505d" /><rect x="3" y="4" width="1" height="1" fill="#bd4e5e" /><rect x="3" y="5" width="1" height="1" fill="#ba4b5c" /><rect x="3" y="6" width="1" height="1" fill="#b6495c" /><rect x="3" y="7" width="1" height="1" fill="#b74c5e" /><rect x="3" y="8" width="1" height="1" fill="#a2344d" /><rect x="3" y="9" width="1" height="1" fill="#8a3646" /><rect x="4" y="0" width="1" height="1" fill="#bc595e" /><rect x="4" y="1" width="1" height="1" fill="#ae4951" /><rect x="4" y="2" width="1" height="1" fill="#ab444d" /><rect x="4" y="3" width="1" height="1" fill="#b44a56" /><rect x="4" y="4" width="1" height="1" fill="#b84c5b" /><rect x="4" y="5" width="1" height="1" fill="#b34756" /><rect x="4" y="6" width="1" height="1" fill="#af4352" /><rect x="4" y="7" width="1" height="1" fill="#af4352" /><rect x="4" y="8" width="1" height="1" fill="#a24357" /><rect x="4" y="9" width="1" height="1" fill="#93273f" /><rect x="5" y="0" width="1" height="1" fill="#e3847e" /><rect x="5" y="1" width="1" height="1" fill="#d06e6b" /><rect x="5" y="2" width="1" height="1" fill="#bf5d5e" /><rect x="5" y="3" width="1" height="1" fill="#bd575b" /><rect x="5" y="4" width="1" height="1" fill="#bf565d" /><rect x="5" y="5" width="1" height="1" fill="#c0555d" /><rect x="5" y="6" width="1" height="1" fill="#bf545a" /><rect x="5" y="7" width="1" height="1" fill="#be5157" /><rect x="5" y="8" width="1" height="1" fill="#b54e59" /><rect x="5" y="9" width="1" height="1" fill="#c14e5d" /><rect x="6" y="0" width="1" height="1" fill="#e28574" /><rect x="6" y="1" width="1" height="1" fill="#e48778" /><rect x="6" y="2" width="1" height="1" fill="#de8076" /><rect x="6" y="3" width="1" height="1" fill="#d77670" /><rect x="6" y="4" width="1" height="1" fill="#d5706c" /><rect x="6" y="5" width="1" height="1" fill="#d8706d" /><rect x="6" y="6" width="1" height="1" fill="#dc736f" /><rect x="6" y="7" width="1" height="1" fill="#e27771" /><rect x="6" y="8" width="1" height="1" fill="#e27771" /><rect x="6" y="9" width="1" height="1" fill="#e27570" /><rect x="7" y="0" width="1" height="1" fill="#db7f66" /><rect x="7" y="1" width="1" height="1" fill="#e48871" /><rect x="7" y="2" width="1" height="1" fill="#eb8e7d" /><rect x="7" y="3" width="1" height="1" fill="#e58579" /><rect x="7" y="4" width="1" height="1" fill="#d7756a" /><rect x="7" y="5" width="1" height="1" fill="#d87168" /><rect x="7" y="6" width="1" height="1" fill="#e67c6f" /><rect x="7" y="7" width="1" height="1" fill="#ed8174" /><rect x="7" y="8" width="1" height="1" fill="#e6866d" /><rect x="7" y="9" width="1" height="1" fill="#ea816b" /><rect x="8" y="0" width="1" height="1" fill="#dd7e6c" /><rect x="8" y="1" width="1" height="1" fill="#e28870" /><rect x="8" y="2" width="1" height="1" fill="#e48d72" /><rect x="8" y="3" width="1" height="1" fill="#df8972" /><rect x="8" y="4" width="1" height="1" fill="#d97f74" /><rect x="8" y="5" width="1" height="1" fill="#d6756f" /><rect x="8" y="6" width="1" height="1" fill="#db746f" /><rect x="8" y="7" width="1" height="1" fill="#e77c74" /><rect x="8" y="8" width="1" height="1" fill="#e88073" /><rect x="8" y="9" width="1" height="1" fill="#e88073" /><rect x="9" y="0" width="1" height="1" fill="#e0816f" /><rect x="9" y="1" width="1" height="1" fill="#e38971" /><rect x="9" y="2" width="1" height="1" fill="#e18a6f" /><rect x="9" y="3" width="1" height="1" fill="#dc866f" /><rect x="9" y="4" width="1" height="1" fill="#de8479" /><rect x="9" y="5" width="1" height="1" fill="#e07f79" /><rect x="9" y="6" width="1" height="1" fill="#d7706b" /><rect x="9" y="7" width="1" height="1" fill="#cf645c" /><rect x="9" y="8" width="1" height="1" fill="#cd6461" /><rect x="9" y="9" width="1" height="1" fill="#d36a67" /></g></svg>