<svg width="800" height="1000" version="1.1" xmlns="http://www.w3.org/2000/svg" xmlns:xlink="http://www.w3.org/1999/xlink">
  <defs>
      <linearGradient id="Gradient2" x1="0" x2="1" y1="0" y2="1">
        <stop offset="0%" stop-color="#2d3c96"/>
        <stop offset="100%" stop-color="#d53392"/>
      </linearGradient>
  </defs>
  <rect x="10" y="10" width="780" height="980" fill="url(#Gradient2)" rx="50" ry="50" stroke="#ffd700" stroke-width="20"/>
  <text x="400" y="920" width="780" text-anchor="middle" style="font: bold 200px 'Helvetica Neue'; fill: #ffd700">00850</text>

  <g transform="translate(80 80) scale(64)">
<rect x="0" y="0" width="1" height="1" fill="#cf6360" />
,<rect x="0" y="1" width="1" height="1" fill="#c7665f" />
,<rect x="0" y="2" width="1" height="1" fill="#d86062" />
,<rect x="0" y="3" width="1" height="1" fill="#c44b50" />
,<rect x="0" y="4" width="1" height="1" fill="#c48178" />
,<rect x="0" y="5" width="1" height="1" fill="#cea796" />
,<rect x="0" y="6" width="1" height="1" fill="#cb9088" />
,<rect x="0" y="7" width="1" height="1" fill="#c5867f" />
,<rect x="0" y="8" width="1" height="1" fill="#c97875" />
,<rect x="0" y="9" width="1" height="1" fill="#ca7976" />
,<rect x="1" y="0" width="1" height="1" fill="#d36663" />
,<rect x="1" y="1" width="1" height="1" fill="#c6635d" />
,<rect x="1" y="2" width="1" height="1" fill="#d25a5c" />
,<rect x="1" y="3" width="1" height="1" fill="#c34c50" />
,<rect x="1" y="4" width="1" height="1" fill="#c58178" />
,<rect x="1" y="5" width="1" height="1" fill="#d4ad9c" />
,<rect x="1" y="6" width="1" height="1" fill="#d09c91" />
,<rect x="1" y="7" width="1" height="1" fill="#d49b92" />
,<rect x="1" y="8" width="1" height="1" fill="#de9791" />
,<rect x="1" y="9" width="1" height="1" fill="#cf8882" />
,<rect x="2" y="0" width="1" height="1" fill="#ce615e" />
,<rect x="2" y="1" width="1" height="1" fill="#ce6964" />
,<rect x="2" y="2" width="1" height="1" fill="#d15d5e" />
,<rect x="2" y="3" width="1" height="1" fill="#be4a4d" />
,<rect x="2" y="4" width="1" height="1" fill="#c57c75" />
,<rect x="2" y="5" width="1" height="1" fill="#deb4a4" />
,<rect x="2" y="6" width="1" height="1" fill="#d3a79a" />
,<rect x="2" y="7" width="1" height="1" fill="#dcaea1" />
,<rect x="2" y="8" width="1" height="1" fill="#e2a79f" />
,<rect x="2" y="9" width="1" height="1" fill="#d39890" />
,<rect x="3" y="0" width="1" height="1" fill="#cc5f5c" />
,<rect x="3" y="1" width="1" height="1" fill="#d56c68" />
,<rect x="3" y="2" width="1" height="1" fill="#d36362" />
,<rect x="3" y="3" width="1" height="1" fill="#c25153" />
,<rect x="3" y="4" width="1" height="1" fill="#c57470" />
,<rect x="3" y="5" width="1" height="1" fill="#e0b0a2" />
,<rect x="3" y="6" width="1" height="1" fill="#d2ae9e" />
,<rect x="3" y="7" width="1" height="1" fill="#d9b4a4" />
,<rect x="3" y="8" width="1" height="1" fill="#d2a69b" />
,<rect x="3" y="9" width="1" height="1" fill="#d9ada2" />
,<rect x="4" y="0" width="1" height="1" fill="#d26562" />
,<rect x="4" y="1" width="1" height="1" fill="#d06461" />
,<rect x="4" y="2" width="1" height="1" fill="#d06462" />
,<rect x="4" y="3" width="1" height="1" fill="#cb5d5e" />
,<rect x="4" y="4" width="1" height="1" fill="#c66868" />
,<rect x="4" y="5" width="1" height="1" fill="#dfa69b" />
,<rect x="4" y="6" width="1" height="1" fill="#dcbdab" />
,<rect x="4" y="7" width="1" height="1" fill="#d3b4a2" />
,<rect x="4" y="8" width="1" height="1" fill="#d1afa3" />
,<rect x="4" y="9" width="1" height="1" fill="#e5c3b7" />
,<rect x="5" y="0" width="1" height="1" fill="#d26663" />
,<rect x="5" y="1" width="1" height="1" fill="#cd605d" />
,<rect x="5" y="2" width="1" height="1" fill="#cd6562" />
,<rect x="5" y="3" width="1" height="1" fill="#cc6060" />
,<rect x="5" y="4" width="1" height="1" fill="#c0565a" />
,<rect x="5" y="5" width="1" height="1" fill="#dc9991" />
,<rect x="5" y="6" width="1" height="1" fill="#edd0be" />
,<rect x="5" y="7" width="1" height="1" fill="#d1b2a0" />
,<rect x="5" y="8" width="1" height="1" fill="#dcbeb3" />
,<rect x="5" y="9" width="1" height="1" fill="#e6c8bd" />
,<rect x="6" y="0" width="1" height="1" fill="#ca615d" />
,<rect x="6" y="1" width="1" height="1" fill="#cf625f" />
,<rect x="6" y="2" width="1" height="1" fill="#ca6561" />
,<rect x="6" y="3" width="1" height="1" fill="#cb5f5f" />
,<rect x="6" y="4" width="1" height="1" fill="#c44c55" />
,<rect x="6" y="5" width="1" height="1" fill="#c87a76" />
,<rect x="6" y="6" width="1" height="1" fill="#e8c7b6" />
,<rect x="6" y="7" width="1" height="1" fill="#dbbaa9" />
,<rect x="6" y="8" width="1" height="1" fill="#e3c5bb" />
,<rect x="6" y="9" width="1" height="1" fill="#e0c2b8" />
,<rect x="7" y="0" width="1" height="1" fill="#c7605b" />
,<rect x="7" y="1" width="1" height="1" fill="#d1615f" />
,<rect x="7" y="2" width="1" height="1" fill="#c25f5a" />
,<rect x="7" y="3" width="1" height="1" fill="#d06464" />
,<rect x="7" y="4" width="1" height="1" fill="#d1535e" />
,<rect x="7" y="5" width="1" height="1" fill="#aa5654" />
,<rect x="7" y="6" width="1" height="1" fill="#ceaa9a" />
,<rect x="7" y="7" width="1" height="1" fill="#eecaba" />
,<rect x="7" y="8" width="1" height="1" fill="#e4c6bc" />
,<rect x="7" y="9" width="1" height="1" fill="#e0c2b8" />
,<rect x="8" y="0" width="1" height="1" fill="#c76363" />
,<rect x="8" y="1" width="1" height="1" fill="#c8605f" />
,<rect x="8" y="2" width="1" height="1" fill="#cf5f5d" />
,<rect x="8" y="3" width="1" height="1" fill="#cb5e5b" />
,<rect x="8" y="4" width="1" height="1" fill="#d06666" />
,<rect x="8" y="5" width="1" height="1" fill="#be4b52" />
,<rect x="8" y="6" width="1" height="1" fill="#bf6d71" />
,<rect x="8" y="7" width="1" height="1" fill="#e7d7c8" />
,<rect x="8" y="8" width="1" height="1" fill="#e5cdc1" />
,<rect x="8" y="9" width="1" height="1" fill="#e4c2b9" />
,<rect x="9" y="0" width="1" height="1" fill="#cc5f62" />
,<rect x="9" y="1" width="1" height="1" fill="#cd6161" />
,<rect x="9" y="2" width="1" height="1" fill="#cf5d5c" />
,<rect x="9" y="3" width="1" height="1" fill="#ca5d5a" />
,<rect x="9" y="4" width="1" height="1" fill="#cd5f60" />
,<rect x="9" y="5" width="1" height="1" fill="#d55661" />
,<rect x="9" y="6" width="1" height="1" fill="#a83e4a" />
,<rect x="9" y="7" width="1" height="1" fill="#d1a6a0" />
,<rect x="9" y="8" width="1" height="1" fill="#f3e6d6" />
,<rect x="9" y="9" width="1" height="1" fill="#e0c8bc" />

  </g>
</svg>