<svg width="800" height="1000" xmlns="http://www.w3.org/2000/svg"><defs><linearGradient id="g" x1="0" x2="1" y1="0" y2="1"><stop offset="0%" stop-color="#2d3c96"/><stop offset="100%" stop-color="#d53392"/></linearGradient></defs><rect x="10" y="10" width="780" height="980" fill="url(#g)" rx="50" ry="50" stroke="gold" stroke-width="20"/><text x="400" y="920" width="780" text-anchor="middle" style="font:bold 200px 'Helvetica Neue';fill:gold">00853</text><g transform="translate(80 80) scale(64)"><rect x="0" y="0" width="1" height="1" fill="#bc5c5d" /><rect x="0" y="1" width="1" height="1" fill="#b75b60" /><rect x="0" y="2" width="1" height="1" fill="#a74156" /><rect x="0" y="3" width="1" height="1" fill="#c66763" /><rect x="0" y="4" width="1" height="1" fill="#ffcd99" /><rect x="0" y="5" width="1" height="1" fill="#fffcb1" /><rect x="0" y="6" width="1" height="1" fill="#ffdfac" /><rect x="0" y="7" width="1" height="1" fill="#96454c" /><rect x="0" y="8" width="1" height="1" fill="#440038" /><rect x="0" y="9" width="1" height="1" fill="#5d1c3c" /><rect x="1" y="0" width="1" height="1" fill="#c15b66" /><rect x="1" y="1" width="1" height="1" fill="#b85d5a" /><rect x="1" y="2" width="1" height="1" fill="#c0635c" /><rect x="1" y="3" width="1" height="1" fill="#a03a47" /><rect x="1" y="4" width="1" height="1" fill="#a15347" /><rect x="1" y="5" width="1" height="1" fill="#ffeab3" /><rect x="1" y="6" width="1" height="1" fill="#d5ab95" /><rect x="1" y="7" width="1" height="1" fill="#460120" /><rect x="1" y="8" width="1" height="1" fill="#580e3f" /><rect x="1" y="9" width="1" height="1" fill="#661f3f" /><rect x="2" y="0" width="1" height="1" fill="#c65c68" /><rect x="2" y="1" width="1" height="1" fill="#b95c57" /><rect x="2" y="2" width="1" height="1" fill="#c16556" /><rect x="2" y="3" width="1" height="1" fill="#c05664" /><rect x="2" y="4" width="1" height="1" fill="#b75264" /><rect x="2" y="5" width="1" height="1" fill="#904947" /><rect x="2" y="6" width="1" height="1" fill="#480e24" /><rect x="2" y="7" width="1" height="1" fill="#480c3f" /><rect x="2" y="8" width="1" height="1" fill="#6d1f47" /><rect x="2" y="9" width="1" height="1" fill="#63163a" /><rect x="3" y="0" width="1" height="1" fill="#c05859" /><rect x="3" y="1" width="1" height="1" fill="#c25d5b" /><rect x="3" y="2" width="1" height="1" fill="#bd575b" /><rect x="3" y="3" width="1" height="1" fill="#d66e6d" /><rect x="3" y="4" width="1" height="1" fill="#b85768" /><rect x="3" y="5" width="1" height="1" fill="#4b0029" /><rect x="3" y="6" width="1" height="1" fill="#41002d" /><rect x="3" y="7" width="1" height="1" fill="#622050" /><rect x="3" y="8" width="1" height="1" fill="#63173b" /><rect x="3" y="9" width="1" height="1" fill="#62153f" /><rect x="4" y="0" width="1" height="1" fill="#c4605e" /><rect x="4" y="1" width="1" height="1" fill="#c55758" /><rect x="4" y="2" width="1" height="1" fill="#d6646e" /><rect x="4" y="3" width="1" height="1" fill="#c96a6e" /><rect x="4" y="4" width="1" height="1" fill="#66192d" /><rect x="4" y="5" width="1" height="1" fill="#4e0439" /><rect x="4" y="6" width="1" height="1" fill="#702254" /><rect x="4" y="7" width="1" height="1" fill="#610f3d" /><rect x="4" y="8" width="1" height="1" fill="#5a163d" /><rect x="4" y="9" width="1" height="1" fill="#5f1a47" /><rect x="5" y="0" width="1" height="1" fill="#b95758" /><rect x="5" y="1" width="1" height="1" fill="#d26260" /><rect x="5" y="2" width="1" height="1" fill="#df7373" /><rect x="5" y="3" width="1" height="1" fill="#802f4f" /><rect x="5" y="4" width="1" height="1" fill="#41042d" /><rect x="5" y="5" width="1" height="1" fill="#5b1d36" /><rect x="5" y="6" width="1" height="1" fill="#6c1f43" /><rect x="5" y="7" width="1" height="1" fill="#671142" /><rect x="5" y="8" width="1" height="1" fill="#5b1a45" /><rect x="5" y="9" width="1" height="1" fill="#56153d" /><rect x="6" y="0" width="1" height="1" fill="#ca6761" /><rect x="6" y="1" width="1" height="1" fill="#dd7470" /><rect x="6" y="2" width="1" height="1" fill="#a54a53" /><rect x="6" y="3" width="1" height="1" fill="#410031" /><rect x="6" y="4" width="1" height="1" fill="#561d52" /><rect x="6" y="5" width="1" height="1" fill="#69253c" /><rect x="6" y="6" width="1" height="1" fill="#651838" /><rect x="6" y="7" width="1" height="1" fill="#581342" /><rect x="6" y="8" width="1" height="1" fill="#5a1846" /><rect x="6" y="9" width="1" height="1" fill="#743552" /><rect x="7" y="0" width="1" height="1" fill="#c96752" /><rect x="7" y="1" width="1" height="1" fill="#ca6664" /><rect x="7" y="2" width="1" height="1" fill="#5e0e33" /><rect x="7" y="3" width="1" height="1" fill="#4e1849" /><rect x="7" y="4" width="1" height="1" fill="#612558" /><rect x="7" y="5" width="1" height="1" fill="#641041" /><rect x="7" y="6" width="1" height="1" fill="#5d1034" /><rect x="7" y="7" width="1" height="1" fill="#501d46" /><rect x="7" y="8" width="1" height="1" fill="#6c2754" /><rect x="7" y="9" width="1" height="1" fill="#af6e82" /><rect x="8" y="0" width="1" height="1" fill="#cc6964" /><rect x="8" y="1" width="1" height="1" fill="#792a4a" /><rect x="8" y="2" width="1" height="1" fill="#4a0641" /><rect x="8" y="3" width="1" height="1" fill="#621b39" /><rect x="8" y="4" width="1" height="1" fill="#651838" /><rect x="8" y="5" width="1" height="1" fill="#590f42" /><rect x="8" y="6" width="1" height="1" fill="#5c1d3a" /><rect x="8" y="7" width="1" height="1" fill="#4f0e39" /><rect x="8" y="8" width="1" height="1" fill="#9b5464" /><rect x="8" y="9" width="1" height="1" fill="#dd8f85" /><rect x="9" y="0" width="1" height="1" fill="#b85e60" /><rect x="9" y="1" width="1" height="1" fill="#4a0035" /><rect x="9" y="2" width="1" height="1" fill="#53193f" /><rect x="9" y="3" width="1" height="1" fill="#631d3f" /><rect x="9" y="4" width="1" height="1" fill="#5f0e39" /><rect x="9" y="5" width="1" height="1" fill="#5f1138" /><rect x="9" y="6" width="1" height="1" fill="#500732" /><rect x="9" y="7" width="1" height="1" fill="#863e54" /><rect x="9" y="8" width="1" height="1" fill="#e48d7c" /><rect x="9" y="9" width="1" height="1" fill="#d5897c" /></g></svg>