<svg width="800" height="1000" version="1.1" xmlns="http://www.w3.org/2000/svg" xmlns:xlink="http://www.w3.org/1999/xlink">
  <defs>
      <linearGradient id="Gradient2" x1="0" x2="1" y1="0" y2="1">
        <stop offset="0%" stop-color="#2d3c96"/>
        <stop offset="100%" stop-color="#d53392"/>
      </linearGradient>
  </defs>
  <rect x="10" y="10" width="780" height="980" fill="url(#Gradient2)" rx="50" ry="50" stroke="#ffd700" stroke-width="20"/>
  <text x="400" y="920" width="780" text-anchor="middle" style="font: bold 200px 'Helvetica Neue'; fill: #ffd700">00852</text>

  <g transform="translate(80 80) scale(64)">
<rect x="0" y="0" width="1" height="1" fill="#DB856E" /><rect x="1" y="0" width="1" height="1" fill="#D87963" /><rect x="2" y="0" width="1" height="1" fill="#E07966" /><rect x="3" y="0" width="1" height="1" fill="#E88170" /><rect x="4" y="0" width="1" height="1" fill="#D47966" /><rect x="5" y="0" width="1" height="1" fill="#F0AE8C" /><rect x="6" y="0" width="1" height="1" fill="#FFECB5" /><rect x="7" y="0" width="1" height="1" fill="#D7C57B" /><rect x="8" y="0" width="1" height="1" fill="#A0394E" /><rect x="9" y="0" width="1" height="1" fill="#B04B5B" /><rect x="0" y="1" width="1" height="1" fill="#DB856E" /><rect x="1" y="1" width="1" height="1" fill="#E0846B" /><rect x="2" y="1" width="1" height="1" fill="#E5806A" /><rect x="3" y="1" width="1" height="1" fill="#E37E6C" /><rect x="4" y="1" width="1" height="1" fill="#D17462" /><rect x="5" y="1" width="1" height="1" fill="#CE8467" /><rect x="6" y="1" width="1" height="1" fill="#F3BF90" /><rect x="7" y="1" width="1" height="1" fill="#FFEEB0" /><rect x="8" y="1" width="1" height="1" fill="#CB987D" /><rect x="9" y="1" width="1" height="1" fill="#A3363B" /><rect x="0" y="2" width="1" height="1" fill="#E38971" /><rect x="1" y="2" width="1" height="1" fill="#E4896E" /><rect x="2" y="2" width="1" height="1" fill="#E18168" /><rect x="3" y="2" width="1" height="1" fill="#DF7F69" /><rect x="4" y="2" width="1" height="1" fill="#DF8271" /><rect x="5" y="2" width="1" height="1" fill="#CA7560" /><rect x="6" y="2" width="1" height="1" fill="#D18867" /><rect x="7" y="2" width="1" height="1" fill="#FFD2A4" /><rect x="8" y="2" width="1" height="1" fill="#FFF8B0" /><rect x="9" y="2" width="1" height="1" fill="#CE7E67" /><rect x="0" y="3" width="1" height="1" fill="#E1856C" /><rect x="1" y="3" width="1" height="1" fill="#DF8469" /><rect x="2" y="3" width="1" height="1" fill="#E18367" /><rect x="3" y="3" width="1" height="1" fill="#E1826C" /><rect x="4" y="3" width="1" height="1" fill="#E98979" /><rect x="5" y="3" width="1" height="1" fill="#DC7C6E" /><rect x="6" y="3" width="1" height="1" fill="#CA6E59" /><rect x="7" y="3" width="1" height="1" fill="#DF8467" /><rect x="8" y="3" width="1" height="1" fill="#FFF3AE" /><rect x="9" y="3" width="1" height="1" fill="#FBE2AA" /><rect x="0" y="4" width="1" height="1" fill="#DE7D6A" /><rect x="1" y="4" width="1" height="1" fill="#DF7F67" /><rect x="2" y="4" width="1" height="1" fill="#E2846A" /><rect x="3" y="4" width="1" height="1" fill="#E1826C" /><rect x="4" y="4" width="1" height="1" fill="#DC7A6D" /><rect x="5" y="4" width="1" height="1" fill="#DB746B" /><rect x="6" y="4" width="1" height="1" fill="#D86E61" /><rect x="7" y="4" width="1" height="1" fill="#CE6351" /><rect x="8" y="4" width="1" height="1" fill="#E69D7C" /><rect x="9" y="4" width="1" height="1" fill="#FFF5B5" /><rect x="0" y="5" width="1" height="1" fill="#E78173" /><rect x="1" y="5" width="1" height="1" fill="#E27D6B" /><rect x="2" y="5" width="1" height="1" fill="#D8765F" /><rect x="3" y="5" width="1" height="1" fill="#DB7964" /><rect x="4" y="5" width="1" height="1" fill="#D87266" /><rect x="5" y="5" width="1" height="1" fill="#D76C64" /><rect x="6" y="5" width="1" height="1" fill="#DE7266" /><rect x="7" y="5" width="1" height="1" fill="#D56758" /><rect x="8" y="5" width="1" height="1" fill="#D1605C" /><rect x="9" y="5" width="1" height="1" fill="#EAB486" /><rect x="0" y="6" width="1" height="1" fill="#DF7670" /><rect x="1" y="6" width="1" height="1" fill="#E47A6D" /><rect x="2" y="6" width="1" height="1" fill="#D76E5B" /><rect x="3" y="6" width="1" height="1" fill="#DA7060" /><rect x="4" y="6" width="1" height="1" fill="#E0756B" /><rect x="5" y="6" width="1" height="1" fill="#DA6F67" /><rect x="6" y="6" width="1" height="1" fill="#DB7164" /><rect x="7" y="6" width="1" height="1" fill="#D86E5E" /><rect x="8" y="6" width="1" height="1" fill="#D8635C" /><rect x="9" y="6" width="1" height="1" fill="#D97760" /><rect x="0" y="7" width="1" height="1" fill="#C45856" /><rect x="1" y="7" width="1" height="1" fill="#E2766C" /><rect x="2" y="7" width="1" height="1" fill="#E57A6A" /><rect x="3" y="7" width="1" height="1" fill="#DE7363" /><rect x="4" y="7" width="1" height="1" fill="#DF7367" /><rect x="5" y="7" width="1" height="1" fill="#D96E64" /><rect x="6" y="7" width="1" height="1" fill="#D76F62" /><rect x="7" y="7" width="1" height="1" fill="#DC7763" /><rect x="8" y="7" width="1" height="1" fill="#E48069" /><rect x="9" y="7" width="1" height="1" fill="#ED7D6F" /><rect x="0" y="8" width="1" height="1" fill="#7B2238" /><rect x="1" y="8" width="1" height="1" fill="#A43E54" /><rect x="2" y="8" width="1" height="1" fill="#ED8079" /><rect x="3" y="8" width="1" height="1" fill="#E77668" /><rect x="4" y="8" width="1" height="1" fill="#DE705F" /><rect x="5" y="8" width="1" height="1" fill="#DD7461" /><rect x="6" y="8" width="1" height="1" fill="#D86D67" /><rect x="7" y="8" width="1" height="1" fill="#E27763" /><rect x="8" y="8" width="1" height="1" fill="#FF8E76" /><rect x="9" y="8" width="1" height="1" fill="#A14457" /><rect x="0" y="9" width="1" height="1" fill="#712041" /><rect x="1" y="9" width="1" height="1" fill="#63022F" /><rect x="2" y="9" width="1" height="1" fill="#BC5260" /><rect x="3" y="9" width="1" height="1" fill="#EB7A72" /><rect x="4" y="9" width="1" height="1" fill="#E37365" /><rect x="5" y="9" width="1" height="1" fill="#DC6B65" /><rect x="6" y="9" width="1" height="1" fill="#E57076" /><rect x="7" y="9" width="1" height="1" fill="#F5806C" /><rect x="8" y="9" width="1" height="1" fill="#A94350" /><rect x="9" y="9" width="1" height="1" fill="#3A0231" />
  </g>
</svg>