<svg width="800" height="1000" version="1.1" xmlns="http://www.w3.org/2000/svg" xmlns:xlink="http://www.w3.org/1999/xlink">
  <defs>
      <linearGradient id="Gradient2" x1="0" x2="1" y1="0" y2="1">
        <stop offset="0%" stop-color="#2d3c96"/>
        <stop offset="100%" stop-color="#d53392"/>
      </linearGradient>
  </defs>
  <rect x="10" y="10" width="780" height="980" fill="url(#Gradient2)" rx="50" ry="50" stroke="#ffd700" stroke-width="20"/>
  <text x="400" y="920" width="780" text-anchor="middle" style="font: bold 200px 'Helvetica Neue'; fill: #ffd700">00919</text>

  <g transform="translate(80 80) scale(64)">
<rect x="0" y="0" width="1" height="1" fill="#0a0401" />
,<rect x="0" y="1" width="1" height="1" fill="#0a0401" />
,<rect x="0" y="2" width="1" height="1" fill="#0a0401" />
,<rect x="0" y="3" width="1" height="1" fill="#0a0401" />
,<rect x="0" y="4" width="1" height="1" fill="#0a0401" />
,<rect x="0" y="5" width="1" height="1" fill="#0a0401" />
,<rect x="0" y="6" width="1" height="1" fill="#0b0502" />
,<rect x="0" y="7" width="1" height="1" fill="#0f0906" />
,<rect x="0" y="8" width="1" height="1" fill="#110a08" />
,<rect x="0" y="9" width="1" height="1" fill="#090300" />
,<rect x="1" y="0" width="1" height="1" fill="#0a0402" />
,<rect x="1" y="1" width="1" height="1" fill="#4e4f4f" />
,<rect x="1" y="2" width="1" height="1" fill="#4d4e4e" />
,<rect x="1" y="3" width="1" height="1" fill="#4f5353" />
,<rect x="1" y="4" width="1" height="1" fill="#0a0401" />
,<rect x="1" y="5" width="1" height="1" fill="#100a07" />
,<rect x="1" y="6" width="1" height="1" fill="#4e5252" />
,<rect x="1" y="7" width="1" height="1" fill="#4d4f4f" />
,<rect x="1" y="8" width="1" height="1" fill="#4e5252" />
,<rect x="1" y="9" width="1" height="1" fill="#0c0804" />
,<rect x="2" y="0" width="1" height="1" fill="#0d0705" />
,<rect x="2" y="1" width="1" height="1" fill="#505455" />
,<rect x="2" y="2" width="1" height="1" fill="#ededed" />
,<rect x="2" y="3" width="1" height="1" fill="#4d4e4f" />
,<rect x="2" y="4" width="1" height="1" fill="#100906" />
,<rect x="2" y="5" width="1" height="1" fill="#100b07" />
,<rect x="2" y="6" width="1" height="1" fill="#525758" />
,<rect x="2" y="7" width="1" height="1" fill="#fafafa" />
,<rect x="2" y="8" width="1" height="1" fill="#4d4f4f" />
,<rect x="2" y="9" width="1" height="1" fill="#100b07" />
,<rect x="3" y="0" width="1" height="1" fill="#0d0705" />
,<rect x="3" y="1" width="1" height="1" fill="#4e5252" />
,<rect x="3" y="2" width="1" height="1" fill="#4e5050" />
,<rect x="3" y="3" width="1" height="1" fill="#4e5253" />
,<rect x="3" y="4" width="1" height="1" fill="#0a0401" />
,<rect x="3" y="5" width="1" height="1" fill="#0a0401" />
,<rect x="3" y="6" width="1" height="1" fill="#4e4f50" />
,<rect x="3" y="7" width="1" height="1" fill="#4d4f50" />
,<rect x="3" y="8" width="1" height="1" fill="#4f5151" />
,<rect x="3" y="9" width="1" height="1" fill="#0c0603" />
,<rect x="4" y="0" width="1" height="1" fill="#0a0401" />
,<rect x="4" y="1" width="1" height="1" fill="#0a0402" />
,<rect x="4" y="2" width="1" height="1" fill="#0c0804" />
,<rect x="4" y="3" width="1" height="1" fill="#0a0402" />
,<rect x="4" y="4" width="1" height="1" fill="#0a0401" />
,<rect x="4" y="5" width="1" height="1" fill="#0a0401" />
,<rect x="4" y="6" width="1" height="1" fill="#100a09" />
,<rect x="4" y="7" width="1" height="1" fill="#110c0a" />
,<rect x="4" y="8" width="1" height="1" fill="#0a0403" />
,<rect x="4" y="9" width="1" height="1" fill="#090300" />
,<rect x="5" y="0" width="1" height="1" fill="#0a0401" />
,<rect x="5" y="1" width="1" height="1" fill="#090401" />
,<rect x="5" y="2" width="1" height="1" fill="#0f0a08" />
,<rect x="5" y="3" width="1" height="1" fill="#080301" />
,<rect x="5" y="4" width="1" height="1" fill="#090300" />
,<rect x="5" y="5" width="1" height="1" fill="#0a0401" />
,<rect x="5" y="6" width="1" height="1" fill="#0c0500" />
,<rect x="5" y="7" width="1" height="1" fill="#180c00" />
,<rect x="5" y="8" width="1" height="1" fill="#100700" />
,<rect x="5" y="9" width="1" height="1" fill="#0a0401" />
,<rect x="6" y="0" width="1" height="1" fill="#0b0502" />
,<rect x="6" y="1" width="1" height="1" fill="#4e4f50" />
,<rect x="6" y="2" width="1" height="1" fill="#4e5354" />
,<rect x="6" y="3" width="1" height="1" fill="#4e5253" />
,<rect x="6" y="4" width="1" height="1" fill="#090401" />
,<rect x="6" y="5" width="1" height="1" fill="#0c0500" />
,<rect x="6" y="6" width="1" height="1" fill="#ff9800" />
,<rect x="6" y="7" width="1" height="1" fill="#ff9900" />
,<rect x="6" y="8" width="1" height="1" fill="#ff9b00" />
,<rect x="6" y="9" width="1" height="1" fill="#0d0700" />
,<rect x="7" y="0" width="1" height="1" fill="#0d0705" />
,<rect x="7" y="1" width="1" height="1" fill="#4f5050" />
,<rect x="7" y="2" width="1" height="1" fill="#f3f3f3" />
,<rect x="7" y="3" width="1" height="1" fill="#4c4e4f" />
,<rect x="7" y="4" width="1" height="1" fill="#0c0604" />
,<rect x="7" y="5" width="1" height="1" fill="#0f0700" />
,<rect x="7" y="6" width="1" height="1" fill="#ff9a00" />
,<rect x="7" y="7" width="1" height="1" fill="#fff7e3" />
,<rect x="7" y="8" width="1" height="1" fill="#ff9a00" />
,<rect x="7" y="9" width="1" height="1" fill="#140a01" />
,<rect x="8" y="0" width="1" height="1" fill="#0b0502" />
,<rect x="8" y="1" width="1" height="1" fill="#4e5050" />
,<rect x="8" y="2" width="1" height="1" fill="#4c4e4e" />
,<rect x="8" y="3" width="1" height="1" fill="#4e5252" />
,<rect x="8" y="4" width="1" height="1" fill="#100906" />
,<rect x="8" y="5" width="1" height="1" fill="#0c0500" />
,<rect x="8" y="6" width="1" height="1" fill="#ff9a00" />
,<rect x="8" y="7" width="1" height="1" fill="#ff9900" />
,<rect x="8" y="8" width="1" height="1" fill="#ff9900" />
,<rect x="8" y="9" width="1" height="1" fill="#0d0700" />
,<rect x="9" y="0" width="1" height="1" fill="#0a0401" />
,<rect x="9" y="1" width="1" height="1" fill="#0d0705" />
,<rect x="9" y="2" width="1" height="1" fill="#100a07" />
,<rect x="9" y="3" width="1" height="1" fill="#0b0502" />
,<rect x="9" y="4" width="1" height="1" fill="#0a0401" />
,<rect x="9" y="5" width="1" height="1" fill="#0a0401" />
,<rect x="9" y="6" width="1" height="1" fill="#0d0700" />
,<rect x="9" y="7" width="1" height="1" fill="#120900" />
,<rect x="9" y="8" width="1" height="1" fill="#0f0700" />
,<rect x="9" y="9" width="1" height="1" fill="#0a0401" />

  </g>
</svg>