<svg width="800" height="1000" version="1.1" xmlns="http://www.w3.org/2000/svg" xmlns:xlink="http://www.w3.org/1999/xlink">
  <defs>
      <linearGradient id="Gradient2" x1="0" x2="1" y1="0" y2="1">
        <stop offset="0%" stop-color="#2d3c96"/>
        <stop offset="100%" stop-color="#d53392"/>
      </linearGradient>
  </defs>
  <rect x="10" y="10" width="780" height="980" fill="url(#Gradient2)" rx="50" ry="50" stroke="#ffd700" stroke-width="20"/>
  <text x="400" y="920" width="780" text-anchor="middle" style="font: bold 200px 'Helvetica Neue'; fill: #ffd700">00948</text>

  <g transform="translate(80 80) scale(64)">
<rect x="0" y="0" width="1" height="1" fill="#a53f4c" />
,<rect x="0" y="1" width="1" height="1" fill="#9b343f" />
,<rect x="0" y="2" width="1" height="1" fill="#9e3742" />
,<rect x="0" y="3" width="1" height="1" fill="#a33c47" />
,<rect x="0" y="4" width="1" height="1" fill="#a83e4c" />
,<rect x="0" y="5" width="1" height="1" fill="#aa3f51" />
,<rect x="0" y="6" width="1" height="1" fill="#a73c50" />
,<rect x="0" y="7" width="1" height="1" fill="#a83b52" />
,<rect x="0" y="8" width="1" height="1" fill="#a03b4b" />
,<rect x="0" y="9" width="1" height="1" fill="#a33649" />
,<rect x="1" y="0" width="1" height="1" fill="#aa4356" />
,<rect x="1" y="1" width="1" height="1" fill="#a63f50" />
,<rect x="1" y="2" width="1" height="1" fill="#ab4553" />
,<rect x="1" y="3" width="1" height="1" fill="#ae4654" />
,<rect x="1" y="4" width="1" height="1" fill="#ad4351" />
,<rect x="1" y="5" width="1" height="1" fill="#ac4151" />
,<rect x="1" y="6" width="1" height="1" fill="#ac3f52" />
,<rect x="1" y="7" width="1" height="1" fill="#ae4154" />
,<rect x="1" y="8" width="1" height="1" fill="#a9424b" />
,<rect x="1" y="9" width="1" height="1" fill="#ad3f4a" />
,<rect x="2" y="0" width="1" height="1" fill="#ac4556" />
,<rect x="2" y="1" width="1" height="1" fill="#a8404f" />
,<rect x="2" y="2" width="1" height="1" fill="#ad4651" />
,<rect x="2" y="3" width="1" height="1" fill="#af464d" />
,<rect x="2" y="4" width="1" height="1" fill="#ae434b" />
,<rect x="2" y="5" width="1" height="1" fill="#b0424b" />
,<rect x="2" y="6" width="1" height="1" fill="#ae4049" />
,<rect x="2" y="7" width="1" height="1" fill="#ae3f48" />
,<rect x="2" y="8" width="1" height="1" fill="#ac424e" />
,<rect x="2" y="9" width="1" height="1" fill="#ac424e" />
,<rect x="3" y="0" width="1" height="1" fill="#b2444d" />
,<rect x="3" y="1" width="1" height="1" fill="#ae4147" />
,<rect x="3" y="2" width="1" height="1" fill="#b3444a" />
,<rect x="3" y="3" width="1" height="1" fill="#b14346" />
,<rect x="3" y="4" width="1" height="1" fill="#b14044" />
,<rect x="3" y="5" width="1" height="1" fill="#b44347" />
,<rect x="3" y="6" width="1" height="1" fill="#b34047" />
,<rect x="3" y="7" width="1" height="1" fill="#b33f48" />
,<rect x="3" y="8" width="1" height="1" fill="#af444e" />
,<rect x="3" y="9" width="1" height="1" fill="#ab404a" />
,<rect x="4" y="0" width="1" height="1" fill="#b94550" />
,<rect x="4" y="1" width="1" height="1" fill="#b7434e" />
,<rect x="4" y="2" width="1" height="1" fill="#bc4851" />
,<rect x="4" y="3" width="1" height="1" fill="#b8444d" />
,<rect x="4" y="4" width="1" height="1" fill="#b23e49" />
,<rect x="4" y="5" width="1" height="1" fill="#b4404d" />
,<rect x="4" y="6" width="1" height="1" fill="#b54052" />
,<rect x="4" y="7" width="1" height="1" fill="#b74255" />
,<rect x="4" y="8" width="1" height="1" fill="#b54049" />
,<rect x="4" y="9" width="1" height="1" fill="#b93f4a" />
,<rect x="5" y="0" width="1" height="1" fill="#c65164" />
,<rect x="5" y="1" width="1" height="1" fill="#bd485a" />
,<rect x="5" y="2" width="1" height="1" fill="#b94655" />
,<rect x="5" y="3" width="1" height="1" fill="#b0404c" />
,<rect x="5" y="4" width="1" height="1" fill="#a43845" />
,<rect x="5" y="5" width="1" height="1" fill="#9d3341" />
,<rect x="5" y="6" width="1" height="1" fill="#922a39" />
,<rect x="5" y="7" width="1" height="1" fill="#8c2536" />
,<rect x="5" y="8" width="1" height="1" fill="#972234" />
,<rect x="5" y="9" width="1" height="1" fill="#b7364c" />
,<rect x="6" y="0" width="1" height="1" fill="#b2474d" />
,<rect x="6" y="1" width="1" height="1" fill="#b34a4e" />
,<rect x="6" y="2" width="1" height="1" fill="#c3605b" />
,<rect x="6" y="3" width="1" height="1" fill="#d17369" />
,<rect x="6" y="4" width="1" height="1" fill="#d88170" />
,<rect x="6" y="5" width="1" height="1" fill="#df8e79" />
,<rect x="6" y="6" width="1" height="1" fill="#e2947e" />
,<rect x="6" y="7" width="1" height="1" fill="#e59a83" />
,<rect x="6" y="8" width="1" height="1" fill="#c1746e" />
,<rect x="6" y="9" width="1" height="1" fill="#9f3d3e" />
,<rect x="7" y="0" width="1" height="1" fill="#c9695b" />
,<rect x="7" y="1" width="1" height="1" fill="#d87b69" />
,<rect x="7" y="2" width="1" height="1" fill="#f39e81" />
,<rect x="7" y="3" width="1" height="1" fill="#fdb086" />
,<rect x="7" y="4" width="1" height="1" fill="#f3b07b" />
,<rect x="7" y="5" width="1" height="1" fill="#f0b476" />
,<rect x="7" y="6" width="1" height="1" fill="#f7c27e" />
,<rect x="7" y="7" width="1" height="1" fill="#ffd48d" />
,<rect x="7" y="8" width="1" height="1" fill="#ffe9ab" />
,<rect x="7" y="9" width="1" height="1" fill="#eab581" />
,<rect x="8" y="0" width="1" height="1" fill="#c96563" />
,<rect x="8" y="1" width="1" height="1" fill="#ce6569" />
,<rect x="8" y="2" width="1" height="1" fill="#b74851" />
,<rect x="8" y="3" width="1" height="1" fill="#ac3740" />
,<rect x="8" y="4" width="1" height="1" fill="#c54e52" />
,<rect x="8" y="5" width="1" height="1" fill="#e07065" />
,<rect x="8" y="6" width="1" height="1" fill="#ea8066" />
,<rect x="8" y="7" width="1" height="1" fill="#e6825e" />
,<rect x="8" y="8" width="1" height="1" fill="#e68866" />
,<rect x="8" y="9" width="1" height="1" fill="#fcbf88" />
,<rect x="9" y="0" width="1" height="1" fill="#ae404b" />
,<rect x="9" y="1" width="1" height="1" fill="#ac3d4d" />
,<rect x="9" y="2" width="1" height="1" fill="#ab3c4f" />
,<rect x="9" y="3" width="1" height="1" fill="#ad3e4f" />
,<rect x="9" y="4" width="1" height="1" fill="#b2424e" />
,<rect x="9" y="5" width="1" height="1" fill="#c95958" />
,<rect x="9" y="6" width="1" height="1" fill="#df6f61" />
,<rect x="9" y="7" width="1" height="1" fill="#d76952" />
,<rect x="9" y="8" width="1" height="1" fill="#d0575c" />
,<rect x="9" y="9" width="1" height="1" fill="#da8372" />

  </g>
</svg>