<svg width="800" height="1000" version="1.1" xmlns="http://www.w3.org/2000/svg" xmlns:xlink="http://www.w3.org/1999/xlink">
  <defs>
      <linearGradient id="Gradient2" x1="0" x2="1" y1="0" y2="1">
        <stop offset="0%" stop-color="#2d3c96"/>
        <stop offset="100%" stop-color="#d53392"/>
      </linearGradient>
  </defs>
  <rect x="10" y="10" width="780" height="980" fill="url(#Gradient2)" rx="50" ry="50" stroke="#ffd700" stroke-width="20"/>
  <text x="400" y="920" width="780" text-anchor="middle" style="font: bold 200px 'Helvetica Neue'; fill: #ffd700">00947</text>

  <g transform="translate(80 80) scale(64)">
<rect x="0" y="0" width="1" height="1" fill="#A2394F" /><rect x="1" y="0" width="1" height="1" fill="#A03A50" /><rect x="2" y="0" width="1" height="1" fill="#9D3246" /><rect x="3" y="0" width="1" height="1" fill="#B4424C" /><rect x="4" y="0" width="1" height="1" fill="#E17970" /><rect x="5" y="0" width="1" height="1" fill="#EC9278" /><rect x="6" y="0" width="1" height="1" fill="#EB9073" /><rect x="7" y="0" width="1" height="1" fill="#EF826D" /><rect x="8" y="0" width="1" height="1" fill="#BF4B54" /><rect x="9" y="0" width="1" height="1" fill="#8E2A4C" /><rect x="0" y="1" width="1" height="1" fill="#A1384C" /><rect x="1" y="1" width="1" height="1" fill="#9E384D" /><rect x="2" y="1" width="1" height="1" fill="#9A2F41" /><rect x="3" y="1" width="1" height="1" fill="#B03E46" /><rect x="4" y="1" width="1" height="1" fill="#DE766B" /><rect x="5" y="1" width="1" height="1" fill="#EB9176" /><rect x="6" y="1" width="1" height="1" fill="#EC9172" /><rect x="7" y="1" width="1" height="1" fill="#EB8169" /><rect x="8" y="1" width="1" height="1" fill="#BB484F" /><rect x="9" y="1" width="1" height="1" fill="#882544" /><rect x="0" y="2" width="1" height="1" fill="#A43C4B" /><rect x="1" y="2" width="1" height="1" fill="#A43D4E" /><rect x="2" y="2" width="1" height="1" fill="#A03443" /><rect x="3" y="2" width="1" height="1" fill="#B23F44" /><rect x="4" y="2" width="1" height="1" fill="#DE7466" /><rect x="5" y="2" width="1" height="1" fill="#EB9272" /><rect x="6" y="2" width="1" height="1" fill="#ED9472" /><rect x="7" y="2" width="1" height="1" fill="#EE866B" /><rect x="8" y="2" width="1" height="1" fill="#BD4A4D" /><rect x="9" y="2" width="1" height="1" fill="#882541" /><rect x="0" y="3" width="1" height="1" fill="#A9414F" /><rect x="1" y="3" width="1" height="1" fill="#AC4654" /><rect x="2" y="3" width="1" height="1" fill="#A93D4A" /><rect x="3" y="3" width="1" height="1" fill="#B94548" /><rect x="4" y="3" width="1" height="1" fill="#DF7565" /><rect x="5" y="3" width="1" height="1" fill="#EC9371" /><rect x="6" y="3" width="1" height="1" fill="#F09B74" /><rect x="7" y="3" width="1" height="1" fill="#F38F6F" /><rect x="8" y="3" width="1" height="1" fill="#C04E4E" /><rect x="9" y="3" width="1" height="1" fill="#8C2A43" /><rect x="0" y="4" width="1" height="1" fill="#AB444F" /><rect x="1" y="4" width="1" height="1" fill="#AC4653" /><rect x="2" y="4" width="1" height="1" fill="#AB3D48" /><rect x="3" y="4" width="1" height="1" fill="#BC4547" /><rect x="4" y="4" width="1" height="1" fill="#E27765" /><rect x="5" y="4" width="1" height="1" fill="#EE9974" /><rect x="6" y="4" width="1" height="1" fill="#F3A078" /><rect x="7" y="4" width="1" height="1" fill="#F29271" /><rect x="8" y="4" width="1" height="1" fill="#C04C4C" /><rect x="9" y="4" width="1" height="1" fill="#8E2A42" /><rect x="0" y="5" width="1" height="1" fill="#A9424D" /><rect x="1" y="5" width="1" height="1" fill="#A53F4C" /><rect x="2" y="5" width="1" height="1" fill="#A53541" /><rect x="3" y="5" width="1" height="1" fill="#BB4247" /><rect x="4" y="5" width="1" height="1" fill="#E57766" /><rect x="5" y="5" width="1" height="1" fill="#F09A77" /><rect x="6" y="5" width="1" height="1" fill="#F4A179" /><rect x="7" y="5" width="1" height="1" fill="#EF916F" /><rect x="8" y="5" width="1" height="1" fill="#C14D4D" /><rect x="9" y="5" width="1" height="1" fill="#8E2A42" /><rect x="0" y="6" width="1" height="1" fill="#A7414E" /><rect x="1" y="6" width="1" height="1" fill="#A43E4C" /><rect x="2" y="6" width="1" height="1" fill="#A73745" /><rect x="3" y="6" width="1" height="1" fill="#C1464B" /><rect x="4" y="6" width="1" height="1" fill="#E67869" /><rect x="5" y="6" width="1" height="1" fill="#EF9976" /><rect x="6" y="6" width="1" height="1" fill="#F2A07A" /><rect x="7" y="6" width="1" height="1" fill="#EF9270" /><rect x="8" y="6" width="1" height="1" fill="#C45051" /><rect x="9" y="6" width="1" height="1" fill="#8C2842" /><rect x="0" y="7" width="1" height="1" fill="#A7414E" /><rect x="1" y="7" width="1" height="1" fill="#A94351" /><rect x="2" y="7" width="1" height="1" fill="#B34051" /><rect x="3" y="7" width="1" height="1" fill="#C94D55" /><rect x="4" y="7" width="1" height="1" fill="#E8786C" /><rect x="5" y="7" width="1" height="1" fill="#EB9574" /><rect x="6" y="7" width="1" height="1" fill="#F2A07A" /><rect x="7" y="7" width="1" height="1" fill="#F29876" /><rect x="8" y="7" width="1" height="1" fill="#C55154" /><rect x="9" y="7" width="1" height="1" fill="#882440" /><rect x="0" y="8" width="1" height="1" fill="#B04654" /><rect x="1" y="8" width="1" height="1" fill="#AD4351" /><rect x="2" y="8" width="1" height="1" fill="#B13F49" /><rect x="3" y="8" width="1" height="1" fill="#C64C4B" /><rect x="4" y="8" width="1" height="1" fill="#EB7C68" /><rect x="5" y="8" width="1" height="1" fill="#F19973" /><rect x="6" y="8" width="1" height="1" fill="#F09D75" /><rect x="7" y="8" width="1" height="1" fill="#F39573" /><rect x="8" y="8" width="1" height="1" fill="#C75451" /><rect x="9" y="8" width="1" height="1" fill="#8C2747" /><rect x="0" y="9" width="1" height="1" fill="#B64C5A" /><rect x="1" y="9" width="1" height="1" fill="#B04654" /><rect x="2" y="9" width="1" height="1" fill="#B03E48" /><rect x="3" y="9" width="1" height="1" fill="#C24847" /><rect x="4" y="9" width="1" height="1" fill="#E77864" /><rect x="5" y="9" width="1" height="1" fill="#EE9670" /><rect x="6" y="9" width="1" height="1" fill="#F09D75" /><rect x="7" y="9" width="1" height="1" fill="#F59775" /><rect x="8" y="9" width="1" height="1" fill="#CA5754" /><rect x="9" y="9" width="1" height="1" fill="#892444" />
  </g>
</svg>