<svg width="800" height="1000" version="1.1" xmlns="http://www.w3.org/2000/svg" xmlns:xlink="http://www.w3.org/1999/xlink">
  <defs>
      <linearGradient id="Gradient2" x1="0" x2="1" y1="0" y2="1">
        <stop offset="0%" stop-color="#2d3c96"/>
        <stop offset="100%" stop-color="#d53392"/>
      </linearGradient>
  </defs>
  <rect x="10" y="10" width="780" height="980" fill="url(#Gradient2)" rx="50" ry="50" stroke="#ffd700" stroke-width="20"/>
  <text x="400" y="920" width="780" text-anchor="middle" style="font: bold 200px 'Helvetica Neue'; fill: #ffd700">00949</text>

  <g transform="translate(80 80) scale(64)">
<rect x="0" y="0" width="1" height="1" fill="#BB5058" /><rect x="1" y="0" width="1" height="1" fill="#BB5058" /><rect x="2" y="0" width="1" height="1" fill="#BD525A" /><rect x="3" y="0" width="1" height="1" fill="#C1585F" /><rect x="4" y="0" width="1" height="1" fill="#CC666A" /><rect x="5" y="0" width="1" height="1" fill="#D26D71" /><rect x="6" y="0" width="1" height="1" fill="#D16C70" /><rect x="7" y="0" width="1" height="1" fill="#D57275" /><rect x="8" y="0" width="1" height="1" fill="#C25A68" /><rect x="9" y="0" width="1" height="1" fill="#B95C66" /><rect x="0" y="1" width="1" height="1" fill="#B64750" /><rect x="1" y="1" width="1" height="1" fill="#BD4F58" /><rect x="2" y="1" width="1" height="1" fill="#C45961" /><rect x="3" y="1" width="1" height="1" fill="#C45B62" /><rect x="4" y="1" width="1" height="1" fill="#CA6468" /><rect x="5" y="1" width="1" height="1" fill="#D26F72" /><rect x="6" y="1" width="1" height="1" fill="#C56567" /><rect x="7" y="1" width="1" height="1" fill="#B65658" /><rect x="8" y="1" width="1" height="1" fill="#BD6E71" /><rect x="9" y="1" width="1" height="1" fill="#D18D8C" /><rect x="0" y="2" width="1" height="1" fill="#BE4C56" /><rect x="1" y="2" width="1" height="1" fill="#C1525B" /><rect x="2" y="2" width="1" height="1" fill="#C95B64" /><rect x="3" y="2" width="1" height="1" fill="#CA6168" /><rect x="4" y="2" width="1" height="1" fill="#C76266" /><rect x="5" y="2" width="1" height="1" fill="#B8585A" /><rect x="6" y="2" width="1" height="1" fill="#B85A5B" /><rect x="7" y="2" width="1" height="1" fill="#D07475" /><rect x="8" y="2" width="1" height="1" fill="#DFA097" /><rect x="9" y="2" width="1" height="1" fill="#DBA79A" /><rect x="0" y="3" width="1" height="1" fill="#BB4752" /><rect x="1" y="3" width="1" height="1" fill="#BE4C56" /><rect x="2" y="3" width="1" height="1" fill="#C4565F" /><rect x="3" y="3" width="1" height="1" fill="#BF565D" /><rect x="4" y="3" width="1" height="1" fill="#BB585B" /><rect x="5" y="3" width="1" height="1" fill="#C96B6C" /><rect x="6" y="3" width="1" height="1" fill="#D67C7C" /><rect x="7" y="3" width="1" height="1" fill="#DD8584" /><rect x="8" y="3" width="1" height="1" fill="#D0857F" /><rect x="9" y="3" width="1" height="1" fill="#D7978D" /><rect x="0" y="4" width="1" height="1" fill="#B4404B" /><rect x="1" y="4" width="1" height="1" fill="#C2505A" /><rect x="2" y="4" width="1" height="1" fill="#C4565F" /><rect x="3" y="4" width="1" height="1" fill="#BF565D" /><rect x="4" y="4" width="1" height="1" fill="#CC696C" /><rect x="5" y="4" width="1" height="1" fill="#D57778" /><rect x="6" y="4" width="1" height="1" fill="#CE7474" /><rect x="7" y="4" width="1" height="1" fill="#D07877" /><rect x="8" y="4" width="1" height="1" fill="#D97F7E" /><rect x="9" y="4" width="1" height="1" fill="#DC8D88" /><rect x="0" y="5" width="1" height="1" fill="#B0414A" /><rect x="1" y="5" width="1" height="1" fill="#B4464F" /><rect x="2" y="5" width="1" height="1" fill="#C85D65" /><rect x="3" y="5" width="1" height="1" fill="#D26B72" /><rect x="4" y="5" width="1" height="1" fill="#CF6C6F" /><rect x="5" y="5" width="1" height="1" fill="#CA6C6D" /><rect x="6" y="5" width="1" height="1" fill="#CB6F70" /><rect x="7" y="5" width="1" height="1" fill="#D47A7A" /><rect x="8" y="5" width="1" height="1" fill="#D37778" /><rect x="9" y="5" width="1" height="1" fill="#D07F7C" /><rect x="0" y="6" width="1" height="1" fill="#B64B53" /><rect x="1" y="6" width="1" height="1" fill="#C75C64" /><rect x="2" y="6" width="1" height="1" fill="#CE656C" /><rect x="3" y="6" width="1" height="1" fill="#C66167" /><rect x="4" y="6" width="1" height="1" fill="#C96669" /><rect x="5" y="6" width="1" height="1" fill="#CE6E70" /><rect x="6" y="6" width="1" height="1" fill="#CA6C6D" /><rect x="7" y="6" width="1" height="1" fill="#CC7071" /><rect x="8" y="6" width="1" height="1" fill="#D57A81" /><rect x="9" y="6" width="1" height="1" fill="#D08083" /><rect x="0" y="7" width="1" height="1" fill="#C25960" /><rect x="1" y="7" width="1" height="1" fill="#BA535A" /><rect x="2" y="7" width="1" height="1" fill="#C15A61" /><rect x="3" y="7" width="1" height="1" fill="#CD686E" /><rect x="4" y="7" width="1" height="1" fill="#CF6C6F" /><rect x="5" y="7" width="1" height="1" fill="#C56567" /><rect x="6" y="7" width="1" height="1" fill="#C26264" /><rect x="7" y="7" width="1" height="1" fill="#CE6E70" /><rect x="8" y="7" width="1" height="1" fill="#D67580" /><rect x="9" y="7" width="1" height="1" fill="#C56E76" /><rect x="0" y="8" width="1" height="1" fill="#C05B69" /><rect x="1" y="8" width="1" height="1" fill="#B7535B" /><rect x="2" y="8" width="1" height="1" fill="#C86667" /><rect x="3" y="8" width="1" height="1" fill="#C96768" /><rect x="4" y="8" width="1" height="1" fill="#C05B61" /><rect x="5" y="8" width="1" height="1" fill="#C45F67" /><rect x="6" y="8" width="1" height="1" fill="#D67177" /><rect x="7" y="8" width="1" height="1" fill="#D77276" /><rect x="8" y="8" width="1" height="1" fill="#B75971" /><rect x="9" y="8" width="1" height="1" fill="#9F4872" /><rect x="0" y="9" width="1" height="1" fill="#C55760" /><rect x="1" y="9" width="1" height="1" fill="#C95D6A" /><rect x="2" y="9" width="1" height="1" fill="#C95E6E" /><rect x="3" y="9" width="1" height="1" fill="#BA5462" /><rect x="4" y="9" width="1" height="1" fill="#C4606C" /><rect x="5" y="9" width="1" height="1" fill="#C66674" /><rect x="6" y="9" width="1" height="1" fill="#B4556B" /><rect x="7" y="9" width="1" height="1" fill="#A0425D" /><rect x="8" y="9" width="1" height="1" fill="#793662" /><rect x="9" y="9" width="1" height="1" fill="#5C205E" />
  </g>
</svg>