<svg width="800" height="1000" version="1.1" xmlns="http://www.w3.org/2000/svg" xmlns:xlink="http://www.w3.org/1999/xlink">
  <defs>
      <linearGradient id="Gradient2" x1="0" x2="1" y1="0" y2="1">
        <stop offset="0%" stop-color="#2d3c96"/>
        <stop offset="100%" stop-color="#d53392"/>
      </linearGradient>
  </defs>
  <rect x="10" y="10" width="780" height="980" fill="url(#Gradient2)" rx="50" ry="50" stroke="#ffd700" stroke-width="20"/>
  <text x="400" y="920" width="780" text-anchor="middle" style="font: bold 200px 'Helvetica Neue'; fill: #ffd700">00949</text>

  <g transform="translate(80 80) scale(64)">
<rect x="0" y="0" width="1" height="1" fill="#bb5058" />
,<rect x="0" y="1" width="1" height="1" fill="#b64750" />
,<rect x="0" y="2" width="1" height="1" fill="#be4c56" />
,<rect x="0" y="3" width="1" height="1" fill="#bb4752" />
,<rect x="0" y="4" width="1" height="1" fill="#b4404b" />
,<rect x="0" y="5" width="1" height="1" fill="#b0414a" />
,<rect x="0" y="6" width="1" height="1" fill="#b64b53" />
,<rect x="0" y="7" width="1" height="1" fill="#c25960" />
,<rect x="0" y="8" width="1" height="1" fill="#c05b69" />
,<rect x="0" y="9" width="1" height="1" fill="#c55760" />
,<rect x="1" y="0" width="1" height="1" fill="#bb5058" />
,<rect x="1" y="1" width="1" height="1" fill="#bd4f58" />
,<rect x="1" y="2" width="1" height="1" fill="#c1525b" />
,<rect x="1" y="3" width="1" height="1" fill="#be4c56" />
,<rect x="1" y="4" width="1" height="1" fill="#c2505a" />
,<rect x="1" y="5" width="1" height="1" fill="#b4464f" />
,<rect x="1" y="6" width="1" height="1" fill="#c75c64" />
,<rect x="1" y="7" width="1" height="1" fill="#ba535a" />
,<rect x="1" y="8" width="1" height="1" fill="#b7535b" />
,<rect x="1" y="9" width="1" height="1" fill="#c95d6a" />
,<rect x="2" y="0" width="1" height="1" fill="#bd525a" />
,<rect x="2" y="1" width="1" height="1" fill="#c45961" />
,<rect x="2" y="2" width="1" height="1" fill="#c95b64" />
,<rect x="2" y="3" width="1" height="1" fill="#c4565f" />
,<rect x="2" y="4" width="1" height="1" fill="#c4565f" />
,<rect x="2" y="5" width="1" height="1" fill="#c85d65" />
,<rect x="2" y="6" width="1" height="1" fill="#ce656c" />
,<rect x="2" y="7" width="1" height="1" fill="#c15a61" />
,<rect x="2" y="8" width="1" height="1" fill="#c86667" />
,<rect x="2" y="9" width="1" height="1" fill="#c95e6e" />
,<rect x="3" y="0" width="1" height="1" fill="#c1585f" />
,<rect x="3" y="1" width="1" height="1" fill="#c45b62" />
,<rect x="3" y="2" width="1" height="1" fill="#ca6168" />
,<rect x="3" y="3" width="1" height="1" fill="#bf565d" />
,<rect x="3" y="4" width="1" height="1" fill="#bf565d" />
,<rect x="3" y="5" width="1" height="1" fill="#d26b72" />
,<rect x="3" y="6" width="1" height="1" fill="#c66167" />
,<rect x="3" y="7" width="1" height="1" fill="#cd686e" />
,<rect x="3" y="8" width="1" height="1" fill="#c96768" />
,<rect x="3" y="9" width="1" height="1" fill="#ba5462" />
,<rect x="4" y="0" width="1" height="1" fill="#cc666a" />
,<rect x="4" y="1" width="1" height="1" fill="#ca6468" />
,<rect x="4" y="2" width="1" height="1" fill="#c76266" />
,<rect x="4" y="3" width="1" height="1" fill="#bb585b" />
,<rect x="4" y="4" width="1" height="1" fill="#cc696c" />
,<rect x="4" y="5" width="1" height="1" fill="#cf6c6f" />
,<rect x="4" y="6" width="1" height="1" fill="#c96669" />
,<rect x="4" y="7" width="1" height="1" fill="#cf6c6f" />
,<rect x="4" y="8" width="1" height="1" fill="#c05b61" />
,<rect x="4" y="9" width="1" height="1" fill="#c4606c" />
,<rect x="5" y="0" width="1" height="1" fill="#d26d71" />
,<rect x="5" y="1" width="1" height="1" fill="#d26f72" />
,<rect x="5" y="2" width="1" height="1" fill="#b8585a" />
,<rect x="5" y="3" width="1" height="1" fill="#c96b6c" />
,<rect x="5" y="4" width="1" height="1" fill="#d57778" />
,<rect x="5" y="5" width="1" height="1" fill="#ca6c6d" />
,<rect x="5" y="6" width="1" height="1" fill="#ce6e70" />
,<rect x="5" y="7" width="1" height="1" fill="#c56567" />
,<rect x="5" y="8" width="1" height="1" fill="#c45f67" />
,<rect x="5" y="9" width="1" height="1" fill="#c66674" />
,<rect x="6" y="0" width="1" height="1" fill="#d16c70" />
,<rect x="6" y="1" width="1" height="1" fill="#c56567" />
,<rect x="6" y="2" width="1" height="1" fill="#b85a5b" />
,<rect x="6" y="3" width="1" height="1" fill="#d67c7c" />
,<rect x="6" y="4" width="1" height="1" fill="#ce7474" />
,<rect x="6" y="5" width="1" height="1" fill="#cb6f70" />
,<rect x="6" y="6" width="1" height="1" fill="#ca6c6d" />
,<rect x="6" y="7" width="1" height="1" fill="#c26264" />
,<rect x="6" y="8" width="1" height="1" fill="#d67177" />
,<rect x="6" y="9" width="1" height="1" fill="#b4556b" />
,<rect x="7" y="0" width="1" height="1" fill="#d57275" />
,<rect x="7" y="1" width="1" height="1" fill="#b65658" />
,<rect x="7" y="2" width="1" height="1" fill="#d07475" />
,<rect x="7" y="3" width="1" height="1" fill="#dd8584" />
,<rect x="7" y="4" width="1" height="1" fill="#d07877" />
,<rect x="7" y="5" width="1" height="1" fill="#d47a7a" />
,<rect x="7" y="6" width="1" height="1" fill="#cc7071" />
,<rect x="7" y="7" width="1" height="1" fill="#ce6e70" />
,<rect x="7" y="8" width="1" height="1" fill="#d77276" />
,<rect x="7" y="9" width="1" height="1" fill="#a0425d" />
,<rect x="8" y="0" width="1" height="1" fill="#c25a68" />
,<rect x="8" y="1" width="1" height="1" fill="#bd6e71" />
,<rect x="8" y="2" width="1" height="1" fill="#dfa097" />
,<rect x="8" y="3" width="1" height="1" fill="#d0857f" />
,<rect x="8" y="4" width="1" height="1" fill="#d97f7e" />
,<rect x="8" y="5" width="1" height="1" fill="#d37778" />
,<rect x="8" y="6" width="1" height="1" fill="#d57a81" />
,<rect x="8" y="7" width="1" height="1" fill="#d67580" />
,<rect x="8" y="8" width="1" height="1" fill="#b75971" />
,<rect x="8" y="9" width="1" height="1" fill="#793662" />
,<rect x="9" y="0" width="1" height="1" fill="#b95c66" />
,<rect x="9" y="1" width="1" height="1" fill="#d18d8c" />
,<rect x="9" y="2" width="1" height="1" fill="#dba79a" />
,<rect x="9" y="3" width="1" height="1" fill="#d7978d" />
,<rect x="9" y="4" width="1" height="1" fill="#dc8d88" />
,<rect x="9" y="5" width="1" height="1" fill="#d07f7c" />
,<rect x="9" y="6" width="1" height="1" fill="#d08083" />
,<rect x="9" y="7" width="1" height="1" fill="#c56e76" />
,<rect x="9" y="8" width="1" height="1" fill="#9f4872" />
,<rect x="9" y="9" width="1" height="1" fill="#5c205e" />

  </g>
</svg>