<svg width="800" height="1000" version="1.1" xmlns="http://www.w3.org/2000/svg" xmlns:xlink="http://www.w3.org/1999/xlink">
  <defs>
      <linearGradient id="Gradient2" x1="0" x2="1" y1="0" y2="1">
        <stop offset="0%" stop-color="#2d3c96"/>
        <stop offset="100%" stop-color="#d53392"/>
      </linearGradient>
  </defs>
  <rect x="10" y="10" width="780" height="980" fill="url(#Gradient2)" rx="50" ry="50" stroke="#ffd700" stroke-width="20"/>
  <text x="400" y="920" width="780" text-anchor="middle" style="font: bold 200px 'Helvetica Neue'; fill: #ffd700">00951</text>

  <g transform="translate(80 80) scale(64)">
<rect x="0" y="0" width="1" height="1" fill="#E6C6B9" /><rect x="1" y="0" width="1" height="1" fill="#DACFBB" /><rect x="2" y="0" width="1" height="1" fill="#EDE8D5" /><rect x="3" y="0" width="1" height="1" fill="#E6BEBE" /><rect x="4" y="0" width="1" height="1" fill="#7D2032" /><rect x="5" y="0" width="1" height="1" fill="#AB3140" /><rect x="6" y="0" width="1" height="1" fill="#F37C76" /><rect x="7" y="0" width="1" height="1" fill="#E57D62" /><rect x="8" y="0" width="1" height="1" fill="#E67F76" /><rect x="9" y="0" width="1" height="1" fill="#D96766" /><rect x="0" y="1" width="1" height="1" fill="#DFC7BA" /><rect x="1" y="1" width="1" height="1" fill="#E4C8BC" /><rect x="2" y="1" width="1" height="1" fill="#DCCABC" /><rect x="3" y="1" width="1" height="1" fill="#FFF9F0" /><rect x="4" y="1" width="1" height="1" fill="#DCAEB0" /><rect x="5" y="1" width="1" height="1" fill="#7A1922" /><rect x="6" y="1" width="1" height="1" fill="#D96663" /><rect x="7" y="1" width="1" height="1" fill="#F18B74" /><rect x="8" y="1" width="1" height="1" fill="#E88975" /><rect x="9" y="1" width="1" height="1" fill="#D86866" /><rect x="0" y="2" width="1" height="1" fill="#DDBBB2" /><rect x="1" y="2" width="1" height="1" fill="#DCBEB3" /><rect x="2" y="2" width="1" height="1" fill="#D8C5B7" /><rect x="3" y="2" width="1" height="1" fill="#D8CEC2" /><rect x="4" y="2" width="1" height="1" fill="#F7E6DE" /><rect x="5" y="2" width="1" height="1" fill="#C2958F" /><rect x="6" y="2" width="1" height="1" fill="#BC655C" /><rect x="7" y="2" width="1" height="1" fill="#EE796F" /><rect x="8" y="2" width="1" height="1" fill="#EC7766" /><rect x="9" y="2" width="1" height="1" fill="#C45355" /><rect x="0" y="3" width="1" height="1" fill="#D5A5A3" /><rect x="1" y="3" width="1" height="1" fill="#DDC1B6" /><rect x="2" y="3" width="1" height="1" fill="#DDC5B8" /><rect x="3" y="3" width="1" height="1" fill="#DABCB4" /><rect x="4" y="3" width="1" height="1" fill="#DFC8C0" /><rect x="5" y="3" width="1" height="1" fill="#F0E0D1" /><rect x="6" y="3" width="1" height="1" fill="#D29D8F" /><rect x="7" y="3" width="1" height="1" fill="#DF726B" /><rect x="8" y="3" width="1" height="1" fill="#DB8876" /><rect x="9" y="3" width="1" height="1" fill="#D7998E" /><rect x="0" y="4" width="1" height="1" fill="#D9ADAC" /><rect x="1" y="4" width="1" height="1" fill="#E0B5AE" /><rect x="2" y="4" width="1" height="1" fill="#D4A59D" /><rect x="3" y="4" width="1" height="1" fill="#DDAEA8" /><rect x="4" y="4" width="1" height="1" fill="#C3A09A" /><rect x="5" y="4" width="1" height="1" fill="#C7A99F" /><rect x="6" y="4" width="1" height="1" fill="#E5B7AA" /><rect x="7" y="4" width="1" height="1" fill="#E8A497" /><rect x="8" y="4" width="1" height="1" fill="#DFC3AD" /><rect x="9" y="4" width="1" height="1" fill="#E7D5C1" /><rect x="0" y="5" width="1" height="1" fill="#DBAEAB" /><rect x="1" y="5" width="1" height="1" fill="#D09994" /><rect x="2" y="5" width="1" height="1" fill="#D1968E" /><rect x="3" y="5" width="1" height="1" fill="#C99389" /><rect x="4" y="5" width="1" height="1" fill="#D1A29C" /><rect x="5" y="5" width="1" height="1" fill="#DAADA7" /><rect x="6" y="5" width="1" height="1" fill="#DFB7AB" /><rect x="7" y="5" width="1" height="1" fill="#ECC9B5" /><rect x="8" y="5" width="1" height="1" fill="#DDBFB4" /><rect x="9" y="5" width="1" height="1" fill="#D9BFB2" /><rect x="0" y="6" width="1" height="1" fill="#C18587" /><rect x="1" y="6" width="1" height="1" fill="#C48B84" /><rect x="2" y="6" width="1" height="1" fill="#D7A294" /><rect x="3" y="6" width="1" height="1" fill="#DFAE9F" /><rect x="4" y="6" width="1" height="1" fill="#E5B9AE" /><rect x="5" y="6" width="1" height="1" fill="#E5BDB3" /><rect x="6" y="6" width="1" height="1" fill="#DCBBAC" /><rect x="7" y="6" width="1" height="1" fill="#D7BCA7" /><rect x="8" y="6" width="1" height="1" fill="#DBBBAC" /><rect x="9" y="6" width="1" height="1" fill="#E6C8C0" /><rect x="0" y="7" width="1" height="1" fill="#CE8E8F" /><rect x="1" y="7" width="1" height="1" fill="#E7A8A1" /><rect x="2" y="7" width="1" height="1" fill="#EFBCA9" /><rect x="3" y="7" width="1" height="1" fill="#E5C3AA" /><rect x="4" y="7" width="1" height="1" fill="#D9BDA8" /><rect x="5" y="7" width="1" height="1" fill="#D3B2A3" /><rect x="6" y="7" width="1" height="1" fill="#DCBBAC" /><rect x="7" y="7" width="1" height="1" fill="#EFD4BF" /><rect x="8" y="7" width="1" height="1" fill="#F4E0C5" /><rect x="9" y="7" width="1" height="1" fill="#E4B8B5" /><rect x="0" y="8" width="1" height="1" fill="#D9AB93" /><rect x="1" y="8" width="1" height="1" fill="#E8BDAA" /><rect x="2" y="8" width="1" height="1" fill="#E0B6A8" /><rect x="3" y="8" width="1" height="1" fill="#DBB4A5" /><rect x="4" y="8" width="1" height="1" fill="#D1B59F" /><rect x="5" y="8" width="1" height="1" fill="#DFCBB3" /><rect x="6" y="8" width="1" height="1" fill="#E8CCBE" /><rect x="7" y="8" width="1" height="1" fill="#D3A7A6" /><rect x="8" y="8" width="1" height="1" fill="#C19396" /><rect x="9" y="8" width="1" height="1" fill="#B5686E" /><rect x="0" y="9" width="1" height="1" fill="#D2B0A6" /><rect x="1" y="9" width="1" height="1" fill="#D2A5A0" /><rect x="2" y="9" width="1" height="1" fill="#D1A29C" /><rect x="3" y="9" width="1" height="1" fill="#D5ADA1" /><rect x="4" y="9" width="1" height="1" fill="#E4BFAD" /><rect x="5" y="9" width="1" height="1" fill="#DCAAA3" /><rect x="6" y="9" width="1" height="1" fill="#9B5C67" /><rect x="7" y="9" width="1" height="1" fill="#803752" /><rect x="8" y="9" width="1" height="1" fill="#874972" /><rect x="9" y="9" width="1" height="1" fill="#C97082" />
  </g>
</svg>