<svg width="800" height="1000" xmlns="http://www.w3.org/2000/svg"><defs><linearGradient id="g" x1="0" x2="1" y1="0" y2="1"><stop offset="0%" stop-color="#2d3c96"/><stop offset="100%" stop-color="#d53392"/></linearGradient></defs><rect x="10" y="10" width="780" height="980" fill="url(#g)" rx="50" ry="50" stroke="gold" stroke-width="20"/><text x="400" y="920" width="780" text-anchor="middle" style="font:bold 200px 'Helvetica Neue';fill:gold">00951</text><g transform="translate(80 80) scale(64)"><rect x="0" y="0" width="1" height="1" fill="#e6c6b9" /><rect x="0" y="1" width="1" height="1" fill="#dfc7ba" /><rect x="0" y="2" width="1" height="1" fill="#ddbbb2" /><rect x="0" y="3" width="1" height="1" fill="#d5a5a3" /><rect x="0" y="4" width="1" height="1" fill="#d9adac" /><rect x="0" y="5" width="1" height="1" fill="#dbaeab" /><rect x="0" y="6" width="1" height="1" fill="#c18587" /><rect x="0" y="7" width="1" height="1" fill="#ce8e8f" /><rect x="0" y="8" width="1" height="1" fill="#d9ab93" /><rect x="0" y="9" width="1" height="1" fill="#d2b0a6" /><rect x="1" y="0" width="1" height="1" fill="#dacfbb" /><rect x="1" y="1" width="1" height="1" fill="#e4c8bc" /><rect x="1" y="2" width="1" height="1" fill="#dcbeb3" /><rect x="1" y="3" width="1" height="1" fill="#ddc1b6" /><rect x="1" y="4" width="1" height="1" fill="#e0b5ae" /><rect x="1" y="5" width="1" height="1" fill="#d09994" /><rect x="1" y="6" width="1" height="1" fill="#c48b84" /><rect x="1" y="7" width="1" height="1" fill="#e7a8a1" /><rect x="1" y="8" width="1" height="1" fill="#e8bdaa" /><rect x="1" y="9" width="1" height="1" fill="#d2a5a0" /><rect x="2" y="0" width="1" height="1" fill="#ede8d5" /><rect x="2" y="1" width="1" height="1" fill="#dccabc" /><rect x="2" y="2" width="1" height="1" fill="#d8c5b7" /><rect x="2" y="3" width="1" height="1" fill="#ddc5b8" /><rect x="2" y="4" width="1" height="1" fill="#d4a59d" /><rect x="2" y="5" width="1" height="1" fill="#d1968e" /><rect x="2" y="6" width="1" height="1" fill="#d7a294" /><rect x="2" y="7" width="1" height="1" fill="#efbca9" /><rect x="2" y="8" width="1" height="1" fill="#e0b6a8" /><rect x="2" y="9" width="1" height="1" fill="#d1a29c" /><rect x="3" y="0" width="1" height="1" fill="#e6bebe" /><rect x="3" y="1" width="1" height="1" fill="#fff9f0" /><rect x="3" y="2" width="1" height="1" fill="#d8cec2" /><rect x="3" y="3" width="1" height="1" fill="#dabcb4" /><rect x="3" y="4" width="1" height="1" fill="#ddaea8" /><rect x="3" y="5" width="1" height="1" fill="#c99389" /><rect x="3" y="6" width="1" height="1" fill="#dfae9f" /><rect x="3" y="7" width="1" height="1" fill="#e5c3aa" /><rect x="3" y="8" width="1" height="1" fill="#dbb4a5" /><rect x="3" y="9" width="1" height="1" fill="#d5ada1" /><rect x="4" y="0" width="1" height="1" fill="#7d2032" /><rect x="4" y="1" width="1" height="1" fill="#dcaeb0" /><rect x="4" y="2" width="1" height="1" fill="#f7e6de" /><rect x="4" y="3" width="1" height="1" fill="#dfc8c0" /><rect x="4" y="4" width="1" height="1" fill="#c3a09a" /><rect x="4" y="5" width="1" height="1" fill="#d1a29c" /><rect x="4" y="6" width="1" height="1" fill="#e5b9ae" /><rect x="4" y="7" width="1" height="1" fill="#d9bda8" /><rect x="4" y="8" width="1" height="1" fill="#d1b59f" /><rect x="4" y="9" width="1" height="1" fill="#e4bfad" /><rect x="5" y="0" width="1" height="1" fill="#ab3140" /><rect x="5" y="1" width="1" height="1" fill="#7a1922" /><rect x="5" y="2" width="1" height="1" fill="#c2958f" /><rect x="5" y="3" width="1" height="1" fill="#f0e0d1" /><rect x="5" y="4" width="1" height="1" fill="#c7a99f" /><rect x="5" y="5" width="1" height="1" fill="#daada7" /><rect x="5" y="6" width="1" height="1" fill="#e5bdb3" /><rect x="5" y="7" width="1" height="1" fill="#d3b2a3" /><rect x="5" y="8" width="1" height="1" fill="#dfcbb3" /><rect x="5" y="9" width="1" height="1" fill="#dcaaa3" /><rect x="6" y="0" width="1" height="1" fill="#f37c76" /><rect x="6" y="1" width="1" height="1" fill="#d96663" /><rect x="6" y="2" width="1" height="1" fill="#bc655c" /><rect x="6" y="3" width="1" height="1" fill="#d29d8f" /><rect x="6" y="4" width="1" height="1" fill="#e5b7aa" /><rect x="6" y="5" width="1" height="1" fill="#dfb7ab" /><rect x="6" y="6" width="1" height="1" fill="#dcbbac" /><rect x="6" y="7" width="1" height="1" fill="#dcbbac" /><rect x="6" y="8" width="1" height="1" fill="#e8ccbe" /><rect x="6" y="9" width="1" height="1" fill="#9b5c67" /><rect x="7" y="0" width="1" height="1" fill="#e57d62" /><rect x="7" y="1" width="1" height="1" fill="#f18b74" /><rect x="7" y="2" width="1" height="1" fill="#ee796f" /><rect x="7" y="3" width="1" height="1" fill="#df726b" /><rect x="7" y="4" width="1" height="1" fill="#e8a497" /><rect x="7" y="5" width="1" height="1" fill="#ecc9b5" /><rect x="7" y="6" width="1" height="1" fill="#d7bca7" /><rect x="7" y="7" width="1" height="1" fill="#efd4bf" /><rect x="7" y="8" width="1" height="1" fill="#d3a7a6" /><rect x="7" y="9" width="1" height="1" fill="#803752" /><rect x="8" y="0" width="1" height="1" fill="#e67f76" /><rect x="8" y="1" width="1" height="1" fill="#e88975" /><rect x="8" y="2" width="1" height="1" fill="#ec7766" /><rect x="8" y="3" width="1" height="1" fill="#db8876" /><rect x="8" y="4" width="1" height="1" fill="#dfc3ad" /><rect x="8" y="5" width="1" height="1" fill="#ddbfb4" /><rect x="8" y="6" width="1" height="1" fill="#dbbbac" /><rect x="8" y="7" width="1" height="1" fill="#f4e0c5" /><rect x="8" y="8" width="1" height="1" fill="#c19396" /><rect x="8" y="9" width="1" height="1" fill="#874972" /><rect x="9" y="0" width="1" height="1" fill="#d96766" /><rect x="9" y="1" width="1" height="1" fill="#d86866" /><rect x="9" y="2" width="1" height="1" fill="#c45355" /><rect x="9" y="3" width="1" height="1" fill="#d7998e" /><rect x="9" y="4" width="1" height="1" fill="#e7d5c1" /><rect x="9" y="5" width="1" height="1" fill="#d9bfb2" /><rect x="9" y="6" width="1" height="1" fill="#e6c8c0" /><rect x="9" y="7" width="1" height="1" fill="#e4b8b5" /><rect x="9" y="8" width="1" height="1" fill="#b5686e" /><rect x="9" y="9" width="1" height="1" fill="#c97082" /></g></svg>