<svg width="800" height="1000" xmlns="http://www.w3.org/2000/svg"><defs><linearGradient id="g" x1="0" x2="1" y1="0" y2="1"><stop offset="0%" stop-color="#2d3c96"/><stop offset="100%" stop-color="#d53392"/></linearGradient></defs><rect x="10" y="10" width="780" height="980" fill="url(#g)" rx="50" ry="50" stroke="gold" stroke-width="20"/><text x="400" y="920" width="780" text-anchor="middle" style="font:bold 200px 'Helvetica Neue';fill:gold">00950</text><g transform="translate(80 80) scale(64)"><rect x="0" y="0" width="1" height="1" fill="#c37e77" /><rect x="0" y="1" width="1" height="1" fill="#e7aba0" /><rect x="0" y="2" width="1" height="1" fill="#d7a396" /><rect x="0" y="3" width="1" height="1" fill="#d69f98" /><rect x="0" y="4" width="1" height="1" fill="#da978e" /><rect x="0" y="5" width="1" height="1" fill="#da8c82" /><rect x="0" y="6" width="1" height="1" fill="#ce7885" /><rect x="0" y="7" width="1" height="1" fill="#bd608c" /><rect x="0" y="8" width="1" height="1" fill="#874463" /><rect x="0" y="9" width="1" height="1" fill="#5b1c51" /><rect x="1" y="0" width="1" height="1" fill="#dfa39b" /><rect x="1" y="1" width="1" height="1" fill="#e2aa9d" /><rect x="1" y="2" width="1" height="1" fill="#d8a499" /><rect x="1" y="3" width="1" height="1" fill="#d79e97" /><rect x="1" y="4" width="1" height="1" fill="#d8948b" /><rect x="1" y="5" width="1" height="1" fill="#e79a90" /><rect x="1" y="6" width="1" height="1" fill="#cb7985" /><rect x="1" y="7" width="1" height="1" fill="#953e68" /><rect x="1" y="8" width="1" height="1" fill="#662054" /><rect x="1" y="9" width="1" height="1" fill="#580f47" /><rect x="2" y="0" width="1" height="1" fill="#efbdb4" /><rect x="2" y="1" width="1" height="1" fill="#d8a89a" /><rect x="2" y="2" width="1" height="1" fill="#d8a89c" /><rect x="2" y="3" width="1" height="1" fill="#dda29e" /><rect x="2" y="4" width="1" height="1" fill="#da948c" /><rect x="2" y="5" width="1" height="1" fill="#e3998e" /><rect x="2" y="6" width="1" height="1" fill="#c37781" /><rect x="2" y="7" width="1" height="1" fill="#8b3f65" /><rect x="2" y="8" width="1" height="1" fill="#732d6c" /><rect x="2" y="9" width="1" height="1" fill="#7e3263" /><rect x="3" y="0" width="1" height="1" fill="#d9b3a6" /><rect x="3" y="1" width="1" height="1" fill="#d5ae9f" /><rect x="3" y="2" width="1" height="1" fill="#ddaea4" /><rect x="3" y="3" width="1" height="1" fill="#dba09c" /><rect x="3" y="4" width="1" height="1" fill="#dc968e" /><rect x="3" y="5" width="1" height="1" fill="#dd9589" /><rect x="3" y="6" width="1" height="1" fill="#cf8a8f" /><rect x="3" y="7" width="1" height="1" fill="#b67597" /><rect x="3" y="8" width="1" height="1" fill="#894882" /><rect x="3" y="9" width="1" height="1" fill="#682350" /><rect x="4" y="0" width="1" height="1" fill="#d5b5a8" /><rect x="4" y="1" width="1" height="1" fill="#e1c0af" /><rect x="4" y="2" width="1" height="1" fill="#dbb1a5" /><rect x="4" y="3" width="1" height="1" fill="#d79d9b" /><rect x="4" y="4" width="1" height="1" fill="#e5a198" /><rect x="4" y="5" width="1" height="1" fill="#dc968a" /><rect x="4" y="6" width="1" height="1" fill="#c9878b" /><rect x="4" y="7" width="1" height="1" fill="#9d5e7d" /><rect x="4" y="8" width="1" height="1" fill="#783b76" /><rect x="4" y="9" width="1" height="1" fill="#703a6c" /><rect x="5" y="0" width="1" height="1" fill="#d8baaf" /><rect x="5" y="1" width="1" height="1" fill="#ddbdae" /><rect x="5" y="2" width="1" height="1" fill="#d4aca2" /><rect x="5" y="3" width="1" height="1" fill="#d6a19d" /><rect x="5" y="4" width="1" height="1" fill="#e7a49b" /><rect x="5" y="5" width="1" height="1" fill="#d99387" /><rect x="5" y="6" width="1" height="1" fill="#cf8d91" /><rect x="5" y="7" width="1" height="1" fill="#8d4e6d" /><rect x="5" y="8" width="1" height="1" fill="#692e6e" /><rect x="5" y="9" width="1" height="1" fill="#602f67" /><rect x="6" y="0" width="1" height="1" fill="#e5c4bb" /><rect x="6" y="1" width="1" height="1" fill="#dfbfb2" /><rect x="6" y="2" width="1" height="1" fill="#ddb8af" /><rect x="6" y="3" width="1" height="1" fill="#ddaca7" /><rect x="6" y="4" width="1" height="1" fill="#da9b92" /><rect x="6" y="5" width="1" height="1" fill="#ce8a7d" /><rect x="6" y="6" width="1" height="1" fill="#e09ba0" /><rect x="6" y="7" width="1" height="1" fill="#9b5879" /><rect x="6" y="8" width="1" height="1" fill="#4a1251" /><rect x="6" y="9" width="1" height="1" fill="#69375c" /><rect x="7" y="0" width="1" height="1" fill="#e9c4be" /><rect x="7" y="1" width="1" height="1" fill="#dcbaae" /><rect x="7" y="2" width="1" height="1" fill="#dfbab1" /><rect x="7" y="3" width="1" height="1" fill="#e0b0ac" /><rect x="7" y="4" width="1" height="1" fill="#e1a79c" /><rect x="7" y="5" width="1" height="1" fill="#df9b8e" /><rect x="7" y="6" width="1" height="1" fill="#df989e" /><rect x="7" y="7" width="1" height="1" fill="#773052" /><rect x="7" y="8" width="1" height="1" fill="#400a3e" /><rect x="7" y="9" width="1" height="1" fill="#bf8790" /><rect x="8" y="0" width="1" height="1" fill="#e3c5ba" /><rect x="8" y="1" width="1" height="1" fill="#e0c5be" /><rect x="8" y="2" width="1" height="1" fill="#dabeb0" /><rect x="8" y="3" width="1" height="1" fill="#deb9a9" /><rect x="8" y="4" width="1" height="1" fill="#d4a19d" /><rect x="8" y="5" width="1" height="1" fill="#e2a69c" /><rect x="8" y="6" width="1" height="1" fill="#d7969c" /><rect x="8" y="7" width="1" height="1" fill="#530f3e" /><rect x="8" y="8" width="1" height="1" fill="#793453" /><rect x="8" y="9" width="1" height="1" fill="#f7bfa4" /><rect x="9" y="0" width="1" height="1" fill="#e6c8bd" /><rect x="9" y="1" width="1" height="1" fill="#dbc0b9" /><rect x="9" y="2" width="1" height="1" fill="#e1c5b7" /><rect x="9" y="3" width="1" height="1" fill="#dab5a5" /><rect x="9" y="4" width="1" height="1" fill="#deaba7" /><rect x="9" y="5" width="1" height="1" fill="#e4a89e" /><rect x="9" y="6" width="1" height="1" fill="#c18086" /><rect x="9" y="7" width="1" height="1" fill="#813d6c" /><rect x="9" y="8" width="1" height="1" fill="#d0958f" /><rect x="9" y="9" width="1" height="1" fill="#e6bdab" /></g></svg>