<svg width="800" height="1000" version="1.1" xmlns="http://www.w3.org/2000/svg" xmlns:xlink="http://www.w3.org/1999/xlink">
  <defs>
      <linearGradient id="Gradient2" x1="0" x2="1" y1="0" y2="1">
        <stop offset="0%" stop-color="#2d3c96"/>
        <stop offset="100%" stop-color="#d53392"/>
      </linearGradient>
  </defs>
  <rect x="10" y="10" width="780" height="980" fill="url(#Gradient2)" rx="50" ry="50" stroke="#ffd700" stroke-width="20"/>
  <text x="400" y="920" width="780" text-anchor="middle" style="font: bold 200px 'Helvetica Neue'; fill: #ffd700">00950</text>

  <g transform="translate(80 80) scale(64)">
<rect x="0" y="0" width="1" height="1" fill="#C37E77" /><rect x="1" y="0" width="1" height="1" fill="#DFA39B" /><rect x="2" y="0" width="1" height="1" fill="#EFBDB4" /><rect x="3" y="0" width="1" height="1" fill="#D9B3A6" /><rect x="4" y="0" width="1" height="1" fill="#D5B5A8" /><rect x="5" y="0" width="1" height="1" fill="#D8BAAF" /><rect x="6" y="0" width="1" height="1" fill="#E5C4BB" /><rect x="7" y="0" width="1" height="1" fill="#E9C4BE" /><rect x="8" y="0" width="1" height="1" fill="#E3C5BA" /><rect x="9" y="0" width="1" height="1" fill="#E6C8BD" /><rect x="0" y="1" width="1" height="1" fill="#E7ABA0" /><rect x="1" y="1" width="1" height="1" fill="#E2AA9D" /><rect x="2" y="1" width="1" height="1" fill="#D8A89A" /><rect x="3" y="1" width="1" height="1" fill="#D5AE9F" /><rect x="4" y="1" width="1" height="1" fill="#E1C0AF" /><rect x="5" y="1" width="1" height="1" fill="#DDBDAE" /><rect x="6" y="1" width="1" height="1" fill="#DFBFB2" /><rect x="7" y="1" width="1" height="1" fill="#DCBAAE" /><rect x="8" y="1" width="1" height="1" fill="#E0C5BE" /><rect x="9" y="1" width="1" height="1" fill="#DBC0B9" /><rect x="0" y="2" width="1" height="1" fill="#D7A396" /><rect x="1" y="2" width="1" height="1" fill="#D8A499" /><rect x="2" y="2" width="1" height="1" fill="#D8A89C" /><rect x="3" y="2" width="1" height="1" fill="#DDAEA4" /><rect x="4" y="2" width="1" height="1" fill="#DBB1A5" /><rect x="5" y="2" width="1" height="1" fill="#D4ACA2" /><rect x="6" y="2" width="1" height="1" fill="#DDB8AF" /><rect x="7" y="2" width="1" height="1" fill="#DFBAB1" /><rect x="8" y="2" width="1" height="1" fill="#DABEB0" /><rect x="9" y="2" width="1" height="1" fill="#E1C5B7" /><rect x="0" y="3" width="1" height="1" fill="#D69F98" /><rect x="1" y="3" width="1" height="1" fill="#D79E97" /><rect x="2" y="3" width="1" height="1" fill="#DDA29E" /><rect x="3" y="3" width="1" height="1" fill="#DBA09C" /><rect x="4" y="3" width="1" height="1" fill="#D79D9B" /><rect x="5" y="3" width="1" height="1" fill="#D6A19D" /><rect x="6" y="3" width="1" height="1" fill="#DDACA7" /><rect x="7" y="3" width="1" height="1" fill="#E0B0AC" /><rect x="8" y="3" width="1" height="1" fill="#DEB9A9" /><rect x="9" y="3" width="1" height="1" fill="#DAB5A5" /><rect x="0" y="4" width="1" height="1" fill="#DA978E" /><rect x="1" y="4" width="1" height="1" fill="#D8948B" /><rect x="2" y="4" width="1" height="1" fill="#DA948C" /><rect x="3" y="4" width="1" height="1" fill="#DC968E" /><rect x="4" y="4" width="1" height="1" fill="#E5A198" /><rect x="5" y="4" width="1" height="1" fill="#E7A49B" /><rect x="6" y="4" width="1" height="1" fill="#DA9B92" /><rect x="7" y="4" width="1" height="1" fill="#E1A79C" /><rect x="8" y="4" width="1" height="1" fill="#D4A19D" /><rect x="9" y="4" width="1" height="1" fill="#DEABA7" /><rect x="0" y="5" width="1" height="1" fill="#DA8C82" /><rect x="1" y="5" width="1" height="1" fill="#E79A90" /><rect x="2" y="5" width="1" height="1" fill="#E3998E" /><rect x="3" y="5" width="1" height="1" fill="#DD9589" /><rect x="4" y="5" width="1" height="1" fill="#DC968A" /><rect x="5" y="5" width="1" height="1" fill="#D99387" /><rect x="6" y="5" width="1" height="1" fill="#CE8A7D" /><rect x="7" y="5" width="1" height="1" fill="#DF9B8E" /><rect x="8" y="5" width="1" height="1" fill="#E2A69C" /><rect x="9" y="5" width="1" height="1" fill="#E4A89E" /><rect x="0" y="6" width="1" height="1" fill="#CE7885" /><rect x="1" y="6" width="1" height="1" fill="#CB7985" /><rect x="2" y="6" width="1" height="1" fill="#C37781" /><rect x="3" y="6" width="1" height="1" fill="#CF8A8F" /><rect x="4" y="6" width="1" height="1" fill="#C9878B" /><rect x="5" y="6" width="1" height="1" fill="#CF8D91" /><rect x="6" y="6" width="1" height="1" fill="#E09BA0" /><rect x="7" y="6" width="1" height="1" fill="#DF989E" /><rect x="8" y="6" width="1" height="1" fill="#D7969C" /><rect x="9" y="6" width="1" height="1" fill="#C18086" /><rect x="0" y="7" width="1" height="1" fill="#BD608C" /><rect x="1" y="7" width="1" height="1" fill="#953E68" /><rect x="2" y="7" width="1" height="1" fill="#8B3F65" /><rect x="3" y="7" width="1" height="1" fill="#B67597" /><rect x="4" y="7" width="1" height="1" fill="#9D5E7D" /><rect x="5" y="7" width="1" height="1" fill="#8D4E6D" /><rect x="6" y="7" width="1" height="1" fill="#9B5879" /><rect x="7" y="7" width="1" height="1" fill="#773052" /><rect x="8" y="7" width="1" height="1" fill="#530F3E" /><rect x="9" y="7" width="1" height="1" fill="#813D6C" /><rect x="0" y="8" width="1" height="1" fill="#874463" /><rect x="1" y="8" width="1" height="1" fill="#662054" /><rect x="2" y="8" width="1" height="1" fill="#732D6C" /><rect x="3" y="8" width="1" height="1" fill="#894882" /><rect x="4" y="8" width="1" height="1" fill="#783B76" /><rect x="5" y="8" width="1" height="1" fill="#692E6E" /><rect x="6" y="8" width="1" height="1" fill="#4A1251" /><rect x="7" y="8" width="1" height="1" fill="#400A3E" /><rect x="8" y="8" width="1" height="1" fill="#793453" /><rect x="9" y="8" width="1" height="1" fill="#D0958F" /><rect x="0" y="9" width="1" height="1" fill="#5B1C51" /><rect x="1" y="9" width="1" height="1" fill="#580F47" /><rect x="2" y="9" width="1" height="1" fill="#7E3263" /><rect x="3" y="9" width="1" height="1" fill="#682350" /><rect x="4" y="9" width="1" height="1" fill="#703A6C" /><rect x="5" y="9" width="1" height="1" fill="#602F67" /><rect x="6" y="9" width="1" height="1" fill="#69375C" /><rect x="7" y="9" width="1" height="1" fill="#BF8790" /><rect x="8" y="9" width="1" height="1" fill="#F7BFA4" /><rect x="9" y="9" width="1" height="1" fill="#E6BDAB" />
  </g>
</svg>