<svg width="800" height="1000" version="1.1" xmlns="http://www.w3.org/2000/svg" xmlns:xlink="http://www.w3.org/1999/xlink">
  <defs>
      <linearGradient id="Gradient2" x1="0" x2="1" y1="0" y2="1">
        <stop offset="0%" stop-color="#2d3c96"/>
        <stop offset="100%" stop-color="#d53392"/>
      </linearGradient>
  </defs>
  <rect x="10" y="10" width="780" height="980" fill="url(#Gradient2)" rx="50" ry="50" stroke="#ffd700" stroke-width="20"/>
  <text x="400" y="920" width="780" text-anchor="middle" style="font: bold 200px 'Helvetica Neue'; fill: #ffd700">00953</text>

  <g transform="translate(80 80) scale(64)">
<rect x="0" y="0" width="1" height="1" fill="#681c42" />
,<rect x="0" y="1" width="1" height="1" fill="#661e43" />
,<rect x="0" y="2" width="1" height="1" fill="#58143b" />
,<rect x="0" y="3" width="1" height="1" fill="#5a1743" />
,<rect x="0" y="4" width="1" height="1" fill="#520a3a" />
,<rect x="0" y="5" width="1" height="1" fill="#560830" />
,<rect x="0" y="6" width="1" height="1" fill="#943e59" />
,<rect x="0" y="7" width="1" height="1" fill="#ca7280" />
,<rect x="0" y="8" width="1" height="1" fill="#cb8178" />
,<rect x="0" y="9" width="1" height="1" fill="#d38980" />
,<rect x="1" y="0" width="1" height="1" fill="#631b41" />
,<rect x="1" y="1" width="1" height="1" fill="#641b46" />
,<rect x="1" y="2" width="1" height="1" fill="#5b1440" />
,<rect x="1" y="3" width="1" height="1" fill="#530b33" />
,<rect x="1" y="4" width="1" height="1" fill="#63193a" />
,<rect x="1" y="5" width="1" height="1" fill="#a4566e" />
,<rect x="1" y="6" width="1" height="1" fill="#df8c9c" />
,<rect x="1" y="7" width="1" height="1" fill="#d6838d" />
,<rect x="1" y="8" width="1" height="1" fill="#d78f81" />
,<rect x="1" y="9" width="1" height="1" fill="#de9688" />
,<rect x="2" y="0" width="1" height="1" fill="#65214a" />
,<rect x="2" y="1" width="1" height="1" fill="#611a46" />
,<rect x="2" y="2" width="1" height="1" fill="#510430" />
,<rect x="2" y="3" width="1" height="1" fill="#611232" />
,<rect x="2" y="4" width="1" height="1" fill="#b26472" />
,<rect x="2" y="5" width="1" height="1" fill="#df9093" />
,<rect x="2" y="6" width="1" height="1" fill="#cf817f" />
,<rect x="2" y="7" width="1" height="1" fill="#db8f8f" />
,<rect x="2" y="8" width="1" height="1" fill="#d4907d" />
,<rect x="2" y="9" width="1" height="1" fill="#d99582" />
,<rect x="3" y="0" width="1" height="1" fill="#5a1645" />
,<rect x="3" y="1" width="1" height="1" fill="#550c37" />
,<rect x="3" y="2" width="1" height="1" fill="#6d1e3e" />
,<rect x="3" y="3" width="1" height="1" fill="#be6b7b" />
,<rect x="3" y="4" width="1" height="1" fill="#e29190" />
,<rect x="3" y="5" width="1" height="1" fill="#d5877b" />
,<rect x="3" y="6" width="1" height="1" fill="#d98f82" />
,<rect x="3" y="7" width="1" height="1" fill="#cb8579" />
,<rect x="3" y="8" width="1" height="1" fill="#d18e7e" />
,<rect x="3" y="9" width="1" height="1" fill="#d39080" />
,<rect x="4" y="0" width="1" height="1" fill="#4a0732" />
,<rect x="4" y="1" width="1" height="1" fill="#6c2543" />
,<rect x="4" y="2" width="1" height="1" fill="#cc7e8c" />
,<rect x="4" y="3" width="1" height="1" fill="#e69292" />
,<rect x="4" y="4" width="1" height="1" fill="#d7827b" />
,<rect x="4" y="5" width="1" height="1" fill="#e19285" />
,<rect x="4" y="6" width="1" height="1" fill="#d38c7a" />
,<rect x="4" y="7" width="1" height="1" fill="#d08e78" />
,<rect x="4" y="8" width="1" height="1" fill="#d28d86" />
,<rect x="4" y="9" width="1" height="1" fill="#d28d86" />
,<rect x="5" y="0" width="1" height="1" fill="#6f2846" />
,<rect x="5" y="1" width="1" height="1" fill="#c67e8c" />
,<rect x="5" y="2" width="1" height="1" fill="#db8d8b" />
,<rect x="5" y="3" width="1" height="1" fill="#d48479" />
,<rect x="5" y="4" width="1" height="1" fill="#e18f83" />
,<rect x="5" y="5" width="1" height="1" fill="#d5877b" />
,<rect x="5" y="6" width="1" height="1" fill="#cd8475" />
,<rect x="5" y="7" width="1" height="1" fill="#cf8b78" />
,<rect x="5" y="8" width="1" height="1" fill="#ce8886" />
,<rect x="5" y="9" width="1" height="1" fill="#ce8886" />
,<rect x="6" y="0" width="1" height="1" fill="#bb747a" />
,<rect x="6" y="1" width="1" height="1" fill="#cf8586" />
,<rect x="6" y="2" width="1" height="1" fill="#d58880" />
,<rect x="6" y="3" width="1" height="1" fill="#d7897c" />
,<rect x="6" y="4" width="1" height="1" fill="#da8b7c" />
,<rect x="6" y="5" width="1" height="1" fill="#d88a7e" />
,<rect x="6" y="6" width="1" height="1" fill="#d68981" />
,<rect x="6" y="7" width="1" height="1" fill="#cd827c" />
,<rect x="6" y="8" width="1" height="1" fill="#ce8781" />
,<rect x="6" y="9" width="1" height="1" fill="#cf8882" />
,<rect x="7" y="0" width="1" height="1" fill="#c37b6f" />
,<rect x="7" y="1" width="1" height="1" fill="#d68c83" />
,<rect x="7" y="2" width="1" height="1" fill="#d58b82" />
,<rect x="7" y="3" width="1" height="1" fill="#d78b7e" />
,<rect x="7" y="4" width="1" height="1" fill="#d48777" />
,<rect x="7" y="5" width="1" height="1" fill="#d18376" />
,<rect x="7" y="6" width="1" height="1" fill="#d88a86" />
,<rect x="7" y="7" width="1" height="1" fill="#d18287" />
,<rect x="7" y="8" width="1" height="1" fill="#cd877d" />
,<rect x="7" y="9" width="1" height="1" fill="#cf897f" />
,<rect x="8" y="0" width="1" height="1" fill="#d28d7e" />
,<rect x="8" y="1" width="1" height="1" fill="#d58d7f" />
,<rect x="8" y="2" width="1" height="1" fill="#d48a7d" />
,<rect x="8" y="3" width="1" height="1" fill="#d3877a" />
,<rect x="8" y="4" width="1" height="1" fill="#d2857b" />
,<rect x="8" y="5" width="1" height="1" fill="#d3867c" />
,<rect x="8" y="6" width="1" height="1" fill="#d0867b" />
,<rect x="8" y="7" width="1" height="1" fill="#ce8479" />
,<rect x="8" y="8" width="1" height="1" fill="#ce857e" />
,<rect x="8" y="9" width="1" height="1" fill="#ce857e" />
,<rect x="9" y="0" width="1" height="1" fill="#d79283" />
,<rect x="9" y="1" width="1" height="1" fill="#d58d7f" />
,<rect x="9" y="2" width="1" height="1" fill="#d08679" />
,<rect x="9" y="3" width="1" height="1" fill="#cf8376" />
,<rect x="9" y="4" width="1" height="1" fill="#d2857b" />
,<rect x="9" y="5" width="1" height="1" fill="#d6897f" />
,<rect x="9" y="6" width="1" height="1" fill="#d2887d" />
,<rect x="9" y="7" width="1" height="1" fill="#ce8479" />
,<rect x="9" y="8" width="1" height="1" fill="#cd847d" />
,<rect x="9" y="9" width="1" height="1" fill="#cd847d" />

  </g>
</svg>