<svg width="800" height="1000" xmlns="http://www.w3.org/2000/svg"><defs><linearGradient id="g" x1="0" x2="1" y1="0" y2="1"><stop offset="0%" stop-color="#2d3c96"/><stop offset="100%" stop-color="#d53392"/></linearGradient></defs><rect x="10" y="10" width="780" height="980" fill="url(#g)" rx="50" ry="50" stroke="gold" stroke-width="20"/><text x="400" y="920" width="780" text-anchor="middle" style="font:bold 200px 'Helvetica Neue';fill:gold">00952</text><g transform="translate(80 80) scale(64)"><rect x="0" y="0" width="1" height="1" fill="#872d50" /><rect x="0" y="1" width="1" height="1" fill="#791f45" /><rect x="0" y="2" width="1" height="1" fill="#67323c" /><rect x="0" y="3" width="1" height="1" fill="#d8bdb2" /><rect x="0" y="4" width="1" height="1" fill="#ebcfcb" /><rect x="0" y="5" width="1" height="1" fill="#cbc2b0" /><rect x="0" y="6" width="1" height="1" fill="#ecddc0" /><rect x="0" y="7" width="1" height="1" fill="#dd9c98" /><rect x="0" y="8" width="1" height="1" fill="#a23d45" /><rect x="0" y="9" width="1" height="1" fill="#f69783" /><rect x="1" y="0" width="1" height="1" fill="#4a0531" /><rect x="1" y="1" width="1" height="1" fill="#3c0024" /><rect x="1" y="2" width="1" height="1" fill="#976c76" /><rect x="1" y="3" width="1" height="1" fill="#ffe3d9" /><rect x="1" y="4" width="1" height="1" fill="#e0b9b2" /><rect x="1" y="5" width="1" height="1" fill="#dfc8b6" /><rect x="1" y="6" width="1" height="1" fill="#fce6ce" /><rect x="1" y="7" width="1" height="1" fill="#aa7472" /><rect x="1" y="8" width="1" height="1" fill="#aa4f4c" /><rect x="1" y="9" width="1" height="1" fill="#feb595" /><rect x="2" y="0" width="1" height="1" fill="#580121" /><rect x="2" y="1" width="1" height="1" fill="#59213c" /><rect x="2" y="2" width="1" height="1" fill="#e2cac8" /><rect x="2" y="3" width="1" height="1" fill="#e6d5c3" /><rect x="2" y="4" width="1" height="1" fill="#dec1b9" /><rect x="2" y="5" width="1" height="1" fill="#f8d1c9" /><rect x="2" y="6" width="1" height="1" fill="#dca29e" /><rect x="2" y="7" width="1" height="1" fill="#8c394d" /><rect x="2" y="8" width="1" height="1" fill="#e9a08d" /><rect x="2" y="9" width="1" height="1" fill="#af6f6f" /><rect x="3" y="0" width="1" height="1" fill="#b04348" /><rect x="3" y="1" width="1" height="1" fill="#be8689" /><rect x="3" y="2" width="1" height="1" fill="#f5e3d5" /><rect x="3" y="3" width="1" height="1" fill="#dbccb7" /><rect x="3" y="4" width="1" height="1" fill="#e2c5bd" /><rect x="3" y="5" width="1" height="1" fill="#dba6a0" /><rect x="3" y="6" width="1" height="1" fill="#a75653" /><rect x="3" y="7" width="1" height="1" fill="#ba596a" /><rect x="3" y="8" width="1" height="1" fill="#d29990" /><rect x="3" y="9" width="1" height="1" fill="#49022c" /><rect x="4" y="0" width="1" height="1" fill="#df7f73" /><rect x="4" y="1" width="1" height="1" fill="#ffd5ca" /><rect x="4" y="2" width="1" height="1" fill="#e2d1bd" /><rect x="4" y="3" width="1" height="1" fill="#e6cab2" /><rect x="4" y="4" width="1" height="1" fill="#dbb4a3" /><rect x="4" y="5" width="1" height="1" fill="#bf8874" /><rect x="4" y="6" width="1" height="1" fill="#d4937d" /><rect x="4" y="7" width="1" height="1" fill="#eeb5ae" /><rect x="4" y="8" width="1" height="1" fill="#652643" /><rect x="4" y="9" width="1" height="1" fill="#4a012e" /><rect x="5" y="0" width="1" height="1" fill="#db7b6d" /><rect x="5" y="1" width="1" height="1" fill="#ffdbcc" /><rect x="5" y="2" width="1" height="1" fill="#ded8be" /><rect x="5" y="3" width="1" height="1" fill="#e6d9b9" /><rect x="5" y="4" width="1" height="1" fill="#ffecd6" /><rect x="5" y="5" width="1" height="1" fill="#fed8c5" /><rect x="5" y="6" width="1" height="1" fill="#d8a89c" /><rect x="5" y="7" width="1" height="1" fill="#764855" /><rect x="5" y="8" width="1" height="1" fill="#48002d" /><rect x="5" y="9" width="1" height="1" fill="#6a2341" /><rect x="6" y="0" width="1" height="1" fill="#e47772" /><rect x="6" y="1" width="1" height="1" fill="#e7b1b1" /><rect x="6" y="2" width="1" height="1" fill="#fff8ef" /><rect x="6" y="3" width="1" height="1" fill="#f9efe3" /><rect x="6" y="4" width="1" height="1" fill="#cdb0b2" /><rect x="6" y="5" width="1" height="1" fill="#90626c" /><rect x="6" y="6" width="1" height="1" fill="#50152b" /><rect x="6" y="7" width="1" height="1" fill="#420034" /><rect x="6" y="8" width="1" height="1" fill="#611843" /><rect x="6" y="9" width="1" height="1" fill="#5d1334" /><rect x="7" y="0" width="1" height="1" fill="#ab464e" /><rect x="7" y="1" width="1" height="1" fill="#5a162f" /><rect x="7" y="2" width="1" height="1" fill="#8a5f7b" /><rect x="7" y="3" width="1" height="1" fill="#6d3757" /><rect x="7" y="4" width="1" height="1" fill="#500732" /><rect x="7" y="5" width="1" height="1" fill="#44001f" /><rect x="7" y="6" width="1" height="1" fill="#531033" /><rect x="7" y="7" width="1" height="1" fill="#5f1955" /><rect x="7" y="8" width="1" height="1" fill="#591843" /><rect x="7" y="9" width="1" height="1" fill="#5c0b34" /><rect x="8" y="0" width="1" height="1" fill="#520b37" /><rect x="8" y="1" width="1" height="1" fill="#4c0531" /><rect x="8" y="2" width="1" height="1" fill="#45002a" /><rect x="8" y="3" width="1" height="1" fill="#4d0630" /><rect x="8" y="4" width="1" height="1" fill="#5a133d" /><rect x="8" y="5" width="1" height="1" fill="#621b45" /><rect x="8" y="6" width="1" height="1" fill="#621b43" /><rect x="8" y="7" width="1" height="1" fill="#550e36" /><rect x="8" y="8" width="1" height="1" fill="#4b0a40" /><rect x="8" y="9" width="1" height="1" fill="#7f375c" /><rect x="9" y="0" width="1" height="1" fill="#5a133f" /><rect x="9" y="1" width="1" height="1" fill="#67204c" /><rect x="9" y="2" width="1" height="1" fill="#641d49" /><rect x="9" y="3" width="1" height="1" fill="#5f1842" /><rect x="9" y="4" width="1" height="1" fill="#5d1640" /><rect x="9" y="5" width="1" height="1" fill="#5a133d" /><rect x="9" y="6" width="1" height="1" fill="#601941" /><rect x="9" y="7" width="1" height="1" fill="#6a234b" /><rect x="9" y="8" width="1" height="1" fill="#a95a6d" /><rect x="9" y="9" width="1" height="1" fill="#d78182" /></g></svg>