<svg width="800" height="1000" version="1.1" xmlns="http://www.w3.org/2000/svg" xmlns:xlink="http://www.w3.org/1999/xlink">
  <defs>
      <linearGradient id="Gradient2" x1="0" x2="1" y1="0" y2="1">
        <stop offset="0%" stop-color="#2d3c96"/>
        <stop offset="100%" stop-color="#d53392"/>
      </linearGradient>
  </defs>
  <rect x="10" y="10" width="780" height="980" fill="url(#Gradient2)" rx="50" ry="50" stroke="#ffd700" stroke-width="20"/>
  <text x="400" y="920" width="780" text-anchor="middle" style="font: bold 200px 'Helvetica Neue'; fill: #ffd700">00996</text>

  <g transform="translate(80 80) scale(64)">
<rect x="0" y="0" width="1" height="1" fill="#FFFFFF" /><rect x="1" y="0" width="1" height="1" fill="#FFFFFF" /><rect x="2" y="0" width="1" height="1" fill="#77735F" /><rect x="3" y="0" width="1" height="1" fill="#767361" /><rect x="4" y="0" width="1" height="1" fill="#FFFFFF" /><rect x="5" y="0" width="1" height="1" fill="#ECE4D1" /><rect x="6" y="0" width="1" height="1" fill="#6F7066" /><rect x="7" y="0" width="1" height="1" fill="#75756A" /><rect x="8" y="0" width="1" height="1" fill="#C3BBA3" /><rect x="9" y="0" width="1" height="1" fill="#FFFFFF" /><rect x="0" y="1" width="1" height="1" fill="#FFFFFF" /><rect x="1" y="1" width="1" height="1" fill="#FFFFFF" /><rect x="2" y="1" width="1" height="1" fill="#26281C" /><rect x="3" y="1" width="1" height="1" fill="#000130" /><rect x="4" y="1" width="1" height="1" fill="#BAB198" /><rect x="5" y="1" width="1" height="1" fill="#FDF0D2" /><rect x="6" y="1" width="1" height="1" fill="#021528" /><rect x="7" y="1" width="1" height="1" fill="#00102F" /><rect x="8" y="1" width="1" height="1" fill="#AFA483" /><rect x="9" y="1" width="1" height="1" fill="#FFFFFF" /><rect x="0" y="2" width="1" height="1" fill="#9C957B" /><rect x="1" y="2" width="1" height="1" fill="#50534B" /><rect x="2" y="2" width="1" height="1" fill="#585B54" /><rect x="3" y="2" width="1" height="1" fill="#00173D" /><rect x="4" y="2" width="1" height="1" fill="#182737" /><rect x="5" y="2" width="1" height="1" fill="#62635B" /><rect x="6" y="2" width="1" height="1" fill="#384248" /><rect x="7" y="2" width="1" height="1" fill="#18293C" /><rect x="8" y="2" width="1" height="1" fill="#676656" /><rect x="9" y="2" width="1" height="1" fill="#FFFFFC" /><rect x="0" y="3" width="1" height="1" fill="#968C6C" /><rect x="1" y="3" width="1" height="1" fill="#000735" /><rect x="2" y="3" width="1" height="1" fill="#333A39" /><rect x="3" y="3" width="1" height="1" fill="#051E3F" /><rect x="4" y="3" width="1" height="1" fill="#00173E" /><rect x="5" y="3" width="1" height="1" fill="#2F393E" /><rect x="6" y="3" width="1" height="1" fill="#24313C" /><rect x="7" y="3" width="1" height="1" fill="#15273D" /><rect x="8" y="3" width="1" height="1" fill="#021732" /><rect x="9" y="3" width="1" height="1" fill="#7B7A6C" /><rect x="0" y="4" width="1" height="1" fill="#FFFFEC" /><rect x="1" y="4" width="1" height="1" fill="#000027" /><rect x="2" y="4" width="1" height="1" fill="#D2BB84" /><rect x="3" y="4" width="1" height="1" fill="#001338" /><rect x="4" y="4" width="1" height="1" fill="#4C4934" /><rect x="5" y="4" width="1" height="1" fill="#4F5450" /><rect x="6" y="4" width="1" height="1" fill="#A4A093" /><rect x="7" y="4" width="1" height="1" fill="#454C4A" /><rect x="8" y="4" width="1" height="1" fill="#686A64" /><rect x="9" y="4" width="1" height="1" fill="#707470" /><rect x="0" y="5" width="1" height="1" fill="#FFFFEB" /><rect x="1" y="5" width="1" height="1" fill="#000027" /><rect x="2" y="5" width="1" height="1" fill="#D1BB84" /><rect x="3" y="5" width="1" height="1" fill="#00082F" /><rect x="4" y="5" width="1" height="1" fill="#F8DFA5" /><rect x="5" y="5" width="1" height="1" fill="#000435" /><rect x="6" y="5" width="1" height="1" fill="#675D38" /><rect x="7" y="5" width="1" height="1" fill="#4A5151" /><rect x="8" y="5" width="1" height="1" fill="#676A63" /><rect x="9" y="5" width="1" height="1" fill="#707570" /><rect x="0" y="6" width="1" height="1" fill="#A29777" /><rect x="1" y="6" width="1" height="1" fill="#000735" /><rect x="2" y="6" width="1" height="1" fill="#43473F" /><rect x="3" y="6" width="1" height="1" fill="#00163C" /><rect x="4" y="6" width="1" height="1" fill="#64614E" /><rect x="5" y="6" width="1" height="1" fill="#031B3B" /><rect x="6" y="6" width="1" height="1" fill="#061E3E" /><rect x="7" y="6" width="1" height="1" fill="#1F2E3F" /><rect x="8" y="6" width="1" height="1" fill="#0C2037" /><rect x="9" y="6" width="1" height="1" fill="#75766A" /><rect x="0" y="7" width="1" height="1" fill="#8F886E" /><rect x="1" y="7" width="1" height="1" fill="#393E3A" /><rect x="2" y="7" width="1" height="1" fill="#434A49" /><rect x="3" y="7" width="1" height="1" fill="#00183D" /><rect x="4" y="7" width="1" height="1" fill="#4D514B" /><rect x="5" y="7" width="1" height="1" fill="#383D37" /><rect x="6" y="7" width="1" height="1" fill="#00163E" /><rect x="7" y="7" width="1" height="1" fill="#12253B" /><rect x="8" y="7" width="1" height="1" fill="#424334" /><rect x="9" y="7" width="1" height="1" fill="#FFFFF4" /><rect x="0" y="8" width="1" height="1" fill="#FFFFFF" /><rect x="1" y="8" width="1" height="1" fill="#FFFFFF" /><rect x="2" y="8" width="1" height="1" fill="#3C3B2B" /><rect x="3" y="8" width="1" height="1" fill="#000A37" /><rect x="4" y="8" width="1" height="1" fill="#7F7350" /><rect x="5" y="8" width="1" height="1" fill="#FFFFFF" /><rect x="6" y="8" width="1" height="1" fill="#031322" /><rect x="7" y="8" width="1" height="1" fill="#343C3A" /><rect x="8" y="8" width="1" height="1" fill="#FFFFFF" /><rect x="9" y="8" width="1" height="1" fill="#FFFFFF" /><rect x="0" y="9" width="1" height="1" fill="#FFFFFF" /><rect x="1" y="9" width="1" height="1" fill="#FFFFFF" /><rect x="2" y="9" width="1" height="1" fill="#625F4D" /><rect x="3" y="9" width="1" height="1" fill="#666760" /><rect x="4" y="9" width="1" height="1" fill="#877F64" /><rect x="5" y="9" width="1" height="1" fill="#FFFFFF" /><rect x="6" y="9" width="1" height="1" fill="#B8AF97" /><rect x="7" y="9" width="1" height="1" fill="#7F775B" /><rect x="8" y="9" width="1" height="1" fill="#FFFFF2" /><rect x="9" y="9" width="1" height="1" fill="#FFFFFF" />
  </g>
</svg>