<svg width="800" height="1000" version="1.1" xmlns="http://www.w3.org/2000/svg" xmlns:xlink="http://www.w3.org/1999/xlink">
  <defs>
      <linearGradient id="Gradient2" x1="0" x2="1" y1="0" y2="1">
        <stop offset="0%" stop-color="#2d3c96"/>
        <stop offset="100%" stop-color="#d53392"/>
      </linearGradient>
  </defs>
  <rect x="10" y="10" width="780" height="980" fill="url(#Gradient2)" rx="50" ry="50" stroke="#ffd700" stroke-width="20"/>
  <text x="400" y="920" width="780" text-anchor="middle" style="font: bold 200px 'Helvetica Neue'; fill: #ffd700">01049</text>

  <g transform="translate(80 80) scale(64)">
<rect x="0" y="0" width="1" height="1" fill="#c36566" />
,<rect x="0" y="1" width="1" height="1" fill="#b14e51" />
,<rect x="0" y="2" width="1" height="1" fill="#bd5053" />
,<rect x="0" y="3" width="1" height="1" fill="#e6747e" />
,<rect x="0" y="4" width="1" height="1" fill="#a74461" />
,<rect x="0" y="5" width="1" height="1" fill="#681e53" />
,<rect x="0" y="6" width="1" height="1" fill="#6a2c6d" />
,<rect x="0" y="7" width="1" height="1" fill="#733272" />
,<rect x="0" y="8" width="1" height="1" fill="#62285b" />
,<rect x="0" y="9" width="1" height="1" fill="#52133e" />
,<rect x="1" y="0" width="1" height="1" fill="#b34f59" />
,<rect x="1" y="1" width="1" height="1" fill="#c45a64" />
,<rect x="1" y="2" width="1" height="1" fill="#da707c" />
,<rect x="1" y="3" width="1" height="1" fill="#b2536b" />
,<rect x="1" y="4" width="1" height="1" fill="#7d2f57" />
,<rect x="1" y="5" width="1" height="1" fill="#6e2d63" />
,<rect x="1" y="6" width="1" height="1" fill="#6f3774" />
,<rect x="1" y="7" width="1" height="1" fill="#7b4787" />
,<rect x="1" y="8" width="1" height="1" fill="#824d85" />
,<rect x="1" y="9" width="1" height="1" fill="#622642" />
,<rect x="2" y="0" width="1" height="1" fill="#c1596a" />
,<rect x="2" y="1" width="1" height="1" fill="#cf6373" />
,<rect x="2" y="2" width="1" height="1" fill="#aa4861" />
,<rect x="2" y="3" width="1" height="1" fill="#681d48" />
,<rect x="2" y="4" width="1" height="1" fill="#60275e" />
,<rect x="2" y="5" width="1" height="1" fill="#7c477d" />
,<rect x="2" y="6" width="1" height="1" fill="#905e93" />
,<rect x="2" y="7" width="1" height="1" fill="#a97eb6" />
,<rect x="2" y="8" width="1" height="1" fill="#804678" />
,<rect x="2" y="9" width="1" height="1" fill="#520f30" />
,<rect x="3" y="0" width="1" height="1" fill="#d26578" />
,<rect x="3" y="1" width="1" height="1" fill="#c75f76" />
,<rect x="3" y="2" width="1" height="1" fill="#772146" />
,<rect x="3" y="3" width="1" height="1" fill="#5d1d51" />
,<rect x="3" y="4" width="1" height="1" fill="#63306b" />
,<rect x="3" y="5" width="1" height="1" fill="#653068" />
,<rect x="3" y="6" width="1" height="1" fill="#5f295a" />
,<rect x="3" y="7" width="1" height="1" fill="#6d3864" />
,<rect x="3" y="8" width="1" height="1" fill="#884c72" />
,<rect x="3" y="9" width="1" height="1" fill="#ac596b" />
,<rect x="4" y="0" width="1" height="1" fill="#ce6373" />
,<rect x="4" y="1" width="1" height="1" fill="#9b415d" />
,<rect x="4" y="2" width="1" height="1" fill="#5f1641" />
,<rect x="4" y="3" width="1" height="1" fill="#632053" />
,<rect x="4" y="4" width="1" height="1" fill="#60245a" />
,<rect x="4" y="5" width="1" height="1" fill="#5c2255" />
,<rect x="4" y="6" width="1" height="1" fill="#500f3a" />
,<rect x="4" y="7" width="1" height="1" fill="#4e0427" />
,<rect x="4" y="8" width="1" height="1" fill="#662140" />
,<rect x="4" y="9" width="1" height="1" fill="#9f5b68" />
,<rect x="5" y="0" width="1" height="1" fill="#b35669" />
,<rect x="5" y="1" width="1" height="1" fill="#6f2246" />
,<rect x="5" y="2" width="1" height="1" fill="#5f1d4b" />
,<rect x="5" y="3" width="1" height="1" fill="#662150" />
,<rect x="5" y="4" width="1" height="1" fill="#5d1543" />
,<rect x="5" y="5" width="1" height="1" fill="#65204f" />
,<rect x="5" y="6" width="1" height="1" fill="#6e2550" />
,<rect x="5" y="7" width="1" height="1" fill="#631434" />
,<rect x="5" y="8" width="1" height="1" fill="#490536" />
,<rect x="5" y="9" width="1" height="1" fill="#3a0029" />
,<rect x="6" y="0" width="1" height="1" fill="#7b2e52" />
,<rect x="6" y="1" width="1" height="1" fill="#560f3b" />
,<rect x="6" y="2" width="1" height="1" fill="#672457" />
,<rect x="6" y="3" width="1" height="1" fill="#722e5f" />
,<rect x="6" y="4" width="1" height="1" fill="#651c49" />
,<rect x="6" y="5" width="1" height="1" fill="#681d46" />
,<rect x="6" y="6" width="1" height="1" fill="#5f1840" />
,<rect x="6" y="7" width="1" height="1" fill="#4d0a33" />
,<rect x="6" y="8" width="1" height="1" fill="#460b41" />
,<rect x="6" y="9" width="1" height="1" fill="#752548" />
,<rect x="7" y="0" width="1" height="1" fill="#813d70" />
,<rect x="7" y="1" width="1" height="1" fill="#5e184c" />
,<rect x="7" y="2" width="1" height="1" fill="#5a154b" />
,<rect x="7" y="3" width="1" height="1" fill="#541448" />
,<rect x="7" y="4" width="1" height="1" fill="#5a1542" />
,<rect x="7" y="5" width="1" height="1" fill="#772d50" />
,<rect x="7" y="6" width="1" height="1" fill="#4a0a2f" />
,<rect x="7" y="7" width="1" height="1" fill="#3b093a" />
,<rect x="7" y="8" width="1" height="1" fill="#914454" />
,<rect x="7" y="9" width="1" height="1" fill="#f29f99" />
,<rect x="8" y="0" width="1" height="1" fill="#6d2e63" />
,<rect x="8" y="1" width="1" height="1" fill="#732e5a" />
,<rect x="8" y="2" width="1" height="1" fill="#5c1744" />
,<rect x="8" y="3" width="1" height="1" fill="#69225a" />
,<rect x="8" y="4" width="1" height="1" fill="#6c275e" />
,<rect x="8" y="5" width="1" height="1" fill="#3d0032" />
,<rect x="8" y="6" width="1" height="1" fill="#541134" />
,<rect x="8" y="7" width="1" height="1" fill="#af5465" />
,<rect x="8" y="8" width="1" height="1" fill="#febda1" />
,<rect x="8" y="9" width="1" height="1" fill="#d5c0ad" />
,<rect x="9" y="0" width="1" height="1" fill="#5b174a" />
,<rect x="9" y="1" width="1" height="1" fill="#712e63" />
,<rect x="9" y="2" width="1" height="1" fill="#6f295b" />
,<rect x="9" y="3" width="1" height="1" fill="#662356" />
,<rect x="9" y="4" width="1" height="1" fill="#591d53" />
,<rect x="9" y="5" width="1" height="1" fill="#6e264c" />
,<rect x="9" y="6" width="1" height="1" fill="#c07272" />
,<rect x="9" y="7" width="1" height="1" fill="#ffbfa7" />
,<rect x="9" y="8" width="1" height="1" fill="#d3b3a4" />
,<rect x="9" y="9" width="1" height="1" fill="#5e1d3d" />

  </g>
</svg>