<svg width="800" height="1000" version="1.1" xmlns="http://www.w3.org/2000/svg" xmlns:xlink="http://www.w3.org/1999/xlink">
  <defs>
      <linearGradient id="Gradient2" x1="0" x2="1" y1="0" y2="1">
        <stop offset="0%" stop-color="#2d3c96"/>
        <stop offset="100%" stop-color="#d53392"/>
      </linearGradient>
  </defs>
  <rect x="10" y="10" width="780" height="980" fill="url(#Gradient2)" rx="50" ry="50" stroke="#ffd700" stroke-width="20"/>
  <text x="400" y="920" width="780" text-anchor="middle" style="font: bold 200px 'Helvetica Neue'; fill: #ffd700">01048</text>

  <g transform="translate(80 80) scale(64)">
<rect x="0" y="0" width="1" height="1" fill="#a6314e" />
,<rect x="0" y="1" width="1" height="1" fill="#9f3a4a" />
,<rect x="0" y="2" width="1" height="1" fill="#9d414c" />
,<rect x="0" y="3" width="1" height="1" fill="#a53e51" />
,<rect x="0" y="4" width="1" height="1" fill="#a93655" />
,<rect x="0" y="5" width="1" height="1" fill="#a32e4b" />
,<rect x="0" y="6" width="1" height="1" fill="#b74254" />
,<rect x="0" y="7" width="1" height="1" fill="#bc4048" />
,<rect x="0" y="8" width="1" height="1" fill="#af3b48" />
,<rect x="0" y="9" width="1" height="1" fill="#a94456" />
,<rect x="1" y="0" width="1" height="1" fill="#b24252" />
,<rect x="1" y="1" width="1" height="1" fill="#ad444b" />
,<rect x="1" y="2" width="1" height="1" fill="#a74546" />
,<rect x="1" y="3" width="1" height="1" fill="#ad4951" />
,<rect x="1" y="4" width="1" height="1" fill="#ac4050" />
,<rect x="1" y="5" width="1" height="1" fill="#b43f51" />
,<rect x="1" y="6" width="1" height="1" fill="#bf4c53" />
,<rect x="1" y="7" width="1" height="1" fill="#b84c4a" />
,<rect x="1" y="8" width="1" height="1" fill="#c1515d" />
,<rect x="1" y="9" width="1" height="1" fill="#c6546b" />
,<rect x="2" y="0" width="1" height="1" fill="#ac3c4a" />
,<rect x="2" y="1" width="1" height="1" fill="#b6444c" />
,<rect x="2" y="2" width="1" height="1" fill="#b44a4e" />
,<rect x="2" y="3" width="1" height="1" fill="#ad4a4f" />
,<rect x="2" y="4" width="1" height="1" fill="#af4853" />
,<rect x="2" y="5" width="1" height="1" fill="#ba4852" />
,<rect x="2" y="6" width="1" height="1" fill="#a3383e" />
,<rect x="2" y="7" width="1" height="1" fill="#b05457" />
,<rect x="2" y="8" width="1" height="1" fill="#c86d8c" />
,<rect x="2" y="9" width="1" height="1" fill="#a9597e" />
,<rect x="3" y="0" width="1" height="1" fill="#b03a54" />
,<rect x="3" y="1" width="1" height="1" fill="#b13c4e" />
,<rect x="3" y="2" width="1" height="1" fill="#b64654" />
,<rect x="3" y="3" width="1" height="1" fill="#ae4154" />
,<rect x="3" y="4" width="1" height="1" fill="#b14555" />
,<rect x="3" y="5" width="1" height="1" fill="#a13640" />
,<rect x="3" y="6" width="1" height="1" fill="#80202e" />
,<rect x="3" y="7" width="1" height="1" fill="#b36178" />
,<rect x="3" y="8" width="1" height="1" fill="#b06f9a" />
,<rect x="3" y="9" width="1" height="1" fill="#754575" />
,<rect x="4" y="0" width="1" height="1" fill="#b93f58" />
,<rect x="4" y="1" width="1" height="1" fill="#ad3d49" />
,<rect x="4" y="2" width="1" height="1" fill="#b44450" />
,<rect x="4" y="3" width="1" height="1" fill="#bc475a" />
,<rect x="4" y="4" width="1" height="1" fill="#b84552" />
,<rect x="4" y="5" width="1" height="1" fill="#a54644" />
,<rect x="4" y="6" width="1" height="1" fill="#ac5c67" />
,<rect x="4" y="7" width="1" height="1" fill="#b46a8f" />
,<rect x="4" y="8" width="1" height="1" fill="#72335e" />
,<rect x="4" y="9" width="1" height="1" fill="#75396d" />
,<rect x="5" y="0" width="1" height="1" fill="#be4854" />
,<rect x="5" y="1" width="1" height="1" fill="#c55957" />
,<rect x="5" y="2" width="1" height="1" fill="#c45655" />
,<rect x="5" y="3" width="1" height="1" fill="#c54c55" />
,<rect x="5" y="4" width="1" height="1" fill="#bc4644" />
,<rect x="5" y="5" width="1" height="1" fill="#da7f6c" />
,<rect x="5" y="6" width="1" height="1" fill="#ffb9b9" />
,<rect x="5" y="7" width="1" height="1" fill="#955379" />
,<rect x="5" y="8" width="1" height="1" fill="#500b42" />
,<rect x="5" y="9" width="1" height="1" fill="#692b6a" />
,<rect x="6" y="0" width="1" height="1" fill="#a6393f" />
,<rect x="6" y="1" width="1" height="1" fill="#bd514e" />
,<rect x="6" y="2" width="1" height="1" fill="#c85656" />
,<rect x="6" y="3" width="1" height="1" fill="#c95057" />
,<rect x="6" y="4" width="1" height="1" fill="#d26056" />
,<rect x="6" y="5" width="1" height="1" fill="#ee9279" />
,<rect x="6" y="6" width="1" height="1" fill="#cc8887" />
,<rect x="6" y="7" width="1" height="1" fill="#4c1340" />
,<rect x="6" y="8" width="1" height="1" fill="#6f326e" />
,<rect x="6" y="9" width="1" height="1" fill="#7a4d8e" />
,<rect x="7" y="0" width="1" height="1" fill="#bd5765" />
,<rect x="7" y="1" width="1" height="1" fill="#b34149" />
,<rect x="7" y="2" width="1" height="1" fill="#b8404a" />
,<rect x="7" y="3" width="1" height="1" fill="#c75161" />
,<rect x="7" y="4" width="1" height="1" fill="#f38381" />
,<rect x="7" y="5" width="1" height="1" fill="#e58473" />
,<rect x="7" y="6" width="1" height="1" fill="#762c39" />
,<rect x="7" y="7" width="1" height="1" fill="#5b2863" />
,<rect x="7" y="8" width="1" height="1" fill="#93628f" />
,<rect x="7" y="9" width="1" height="1" fill="#8f6398" />
,<rect x="8" y="0" width="1" height="1" fill="#fedb99" />
,<rect x="8" y="1" width="1" height="1" fill="#f8d6a6" />
,<rect x="8" y="2" width="1" height="1" fill="#ea927a" />
,<rect x="8" y="3" width="1" height="1" fill="#a53f43" />
,<rect x="8" y="4" width="1" height="1" fill="#8b3a49" />
,<rect x="8" y="5" width="1" height="1" fill="#974961" />
,<rect x="8" y="6" width="1" height="1" fill="#5b184d" />
,<rect x="8" y="7" width="1" height="1" fill="#926397" />
,<rect x="8" y="8" width="1" height="1" fill="#7a3c6f" />
,<rect x="8" y="9" width="1" height="1" fill="#5e1743" />
,<rect x="9" y="0" width="1" height="1" fill="#ea9a79" />
,<rect x="9" y="1" width="1" height="1" fill="#d88a73" />
,<rect x="9" y="2" width="1" height="1" fill="#d6715f" />
,<rect x="9" y="3" width="1" height="1" fill="#bb5c64" />
,<rect x="9" y="4" width="1" height="1" fill="#984966" />
,<rect x="9" y="5" width="1" height="1" fill="#712651" />
,<rect x="9" y="6" width="1" height="1" fill="#5e2260" />
,<rect x="9" y="7" width="1" height="1" fill="#5d235e" />
,<rect x="9" y="8" width="1" height="1" fill="#501245" />
,<rect x="9" y="9" width="1" height="1" fill="#58113d" />

  </g>
</svg>