<svg width="800" height="1000" version="1.1" xmlns="http://www.w3.org/2000/svg" xmlns:xlink="http://www.w3.org/1999/xlink">
  <defs>
      <linearGradient id="Gradient2" x1="0" x2="1" y1="0" y2="1">
        <stop offset="0%" stop-color="#2d3c96"/>
        <stop offset="100%" stop-color="#d53392"/>
      </linearGradient>
  </defs>
  <rect x="10" y="10" width="780" height="980" fill="url(#Gradient2)" rx="50" ry="50" stroke="#ffd700" stroke-width="20"/>
  <text x="400" y="920" width="780" text-anchor="middle" style="font: bold 200px 'Helvetica Neue'; fill: #ffd700">01048</text>

  <g transform="translate(80 80) scale(64)">
<rect x="0" y="0" width="1" height="1" fill="#A6314E" /><rect x="1" y="0" width="1" height="1" fill="#B24252" /><rect x="2" y="0" width="1" height="1" fill="#AC3C4A" /><rect x="3" y="0" width="1" height="1" fill="#B03A54" /><rect x="4" y="0" width="1" height="1" fill="#B93F58" /><rect x="5" y="0" width="1" height="1" fill="#BE4854" /><rect x="6" y="0" width="1" height="1" fill="#A6393F" /><rect x="7" y="0" width="1" height="1" fill="#BD5765" /><rect x="8" y="0" width="1" height="1" fill="#FEDB99" /><rect x="9" y="0" width="1" height="1" fill="#EA9A79" /><rect x="0" y="1" width="1" height="1" fill="#9F3A4A" /><rect x="1" y="1" width="1" height="1" fill="#AD444B" /><rect x="2" y="1" width="1" height="1" fill="#B6444C" /><rect x="3" y="1" width="1" height="1" fill="#B13C4E" /><rect x="4" y="1" width="1" height="1" fill="#AD3D49" /><rect x="5" y="1" width="1" height="1" fill="#C55957" /><rect x="6" y="1" width="1" height="1" fill="#BD514E" /><rect x="7" y="1" width="1" height="1" fill="#B34149" /><rect x="8" y="1" width="1" height="1" fill="#F8D6A6" /><rect x="9" y="1" width="1" height="1" fill="#D88A73" /><rect x="0" y="2" width="1" height="1" fill="#9D414C" /><rect x="1" y="2" width="1" height="1" fill="#A74546" /><rect x="2" y="2" width="1" height="1" fill="#B44A4E" /><rect x="3" y="2" width="1" height="1" fill="#B64654" /><rect x="4" y="2" width="1" height="1" fill="#B44450" /><rect x="5" y="2" width="1" height="1" fill="#C45655" /><rect x="6" y="2" width="1" height="1" fill="#C85656" /><rect x="7" y="2" width="1" height="1" fill="#B8404A" /><rect x="8" y="2" width="1" height="1" fill="#EA927A" /><rect x="9" y="2" width="1" height="1" fill="#D6715F" /><rect x="0" y="3" width="1" height="1" fill="#A53E51" /><rect x="1" y="3" width="1" height="1" fill="#AD4951" /><rect x="2" y="3" width="1" height="1" fill="#AD4A4F" /><rect x="3" y="3" width="1" height="1" fill="#AE4154" /><rect x="4" y="3" width="1" height="1" fill="#BC475A" /><rect x="5" y="3" width="1" height="1" fill="#C54C55" /><rect x="6" y="3" width="1" height="1" fill="#C95057" /><rect x="7" y="3" width="1" height="1" fill="#C75161" /><rect x="8" y="3" width="1" height="1" fill="#A53F43" /><rect x="9" y="3" width="1" height="1" fill="#BB5C64" /><rect x="0" y="4" width="1" height="1" fill="#A93655" /><rect x="1" y="4" width="1" height="1" fill="#AC4050" /><rect x="2" y="4" width="1" height="1" fill="#AF4853" /><rect x="3" y="4" width="1" height="1" fill="#B14555" /><rect x="4" y="4" width="1" height="1" fill="#B84552" /><rect x="5" y="4" width="1" height="1" fill="#BC4644" /><rect x="6" y="4" width="1" height="1" fill="#D26056" /><rect x="7" y="4" width="1" height="1" fill="#F38381" /><rect x="8" y="4" width="1" height="1" fill="#8B3A49" /><rect x="9" y="4" width="1" height="1" fill="#984966" /><rect x="0" y="5" width="1" height="1" fill="#A32E4B" /><rect x="1" y="5" width="1" height="1" fill="#B43F51" /><rect x="2" y="5" width="1" height="1" fill="#BA4852" /><rect x="3" y="5" width="1" height="1" fill="#A13640" /><rect x="4" y="5" width="1" height="1" fill="#A54644" /><rect x="5" y="5" width="1" height="1" fill="#DA7F6C" /><rect x="6" y="5" width="1" height="1" fill="#EE9279" /><rect x="7" y="5" width="1" height="1" fill="#E58473" /><rect x="8" y="5" width="1" height="1" fill="#974961" /><rect x="9" y="5" width="1" height="1" fill="#712651" /><rect x="0" y="6" width="1" height="1" fill="#B74254" /><rect x="1" y="6" width="1" height="1" fill="#BF4C53" /><rect x="2" y="6" width="1" height="1" fill="#A3383E" /><rect x="3" y="6" width="1" height="1" fill="#80202E" /><rect x="4" y="6" width="1" height="1" fill="#AC5C67" /><rect x="5" y="6" width="1" height="1" fill="#FFB9B9" /><rect x="6" y="6" width="1" height="1" fill="#CC8887" /><rect x="7" y="6" width="1" height="1" fill="#762C39" /><rect x="8" y="6" width="1" height="1" fill="#5B184D" /><rect x="9" y="6" width="1" height="1" fill="#5E2260" /><rect x="0" y="7" width="1" height="1" fill="#BC4048" /><rect x="1" y="7" width="1" height="1" fill="#B84C4A" /><rect x="2" y="7" width="1" height="1" fill="#B05457" /><rect x="3" y="7" width="1" height="1" fill="#B36178" /><rect x="4" y="7" width="1" height="1" fill="#B46A8F" /><rect x="5" y="7" width="1" height="1" fill="#955379" /><rect x="6" y="7" width="1" height="1" fill="#4C1340" /><rect x="7" y="7" width="1" height="1" fill="#5B2863" /><rect x="8" y="7" width="1" height="1" fill="#926397" /><rect x="9" y="7" width="1" height="1" fill="#5D235E" /><rect x="0" y="8" width="1" height="1" fill="#AF3B48" /><rect x="1" y="8" width="1" height="1" fill="#C1515D" /><rect x="2" y="8" width="1" height="1" fill="#C86D8C" /><rect x="3" y="8" width="1" height="1" fill="#B06F9A" /><rect x="4" y="8" width="1" height="1" fill="#72335E" /><rect x="5" y="8" width="1" height="1" fill="#500B42" /><rect x="6" y="8" width="1" height="1" fill="#6F326E" /><rect x="7" y="8" width="1" height="1" fill="#93628F" /><rect x="8" y="8" width="1" height="1" fill="#7A3C6F" /><rect x="9" y="8" width="1" height="1" fill="#501245" /><rect x="0" y="9" width="1" height="1" fill="#A94456" /><rect x="1" y="9" width="1" height="1" fill="#C6546B" /><rect x="2" y="9" width="1" height="1" fill="#A9597E" /><rect x="3" y="9" width="1" height="1" fill="#754575" /><rect x="4" y="9" width="1" height="1" fill="#75396D" /><rect x="5" y="9" width="1" height="1" fill="#692B6A" /><rect x="6" y="9" width="1" height="1" fill="#7A4D8E" /><rect x="7" y="9" width="1" height="1" fill="#8F6398" /><rect x="8" y="9" width="1" height="1" fill="#5E1743" /><rect x="9" y="9" width="1" height="1" fill="#58113D" />
  </g>
</svg>