<svg width="800" height="1000" version="1.1" xmlns="http://www.w3.org/2000/svg" xmlns:xlink="http://www.w3.org/1999/xlink">
  <defs>
      <linearGradient id="Gradient2" x1="0" x2="1" y1="0" y2="1">
        <stop offset="0%" stop-color="#2d3c96"/>
        <stop offset="100%" stop-color="#d53392"/>
      </linearGradient>
  </defs>
  <rect x="10" y="10" width="780" height="980" fill="url(#Gradient2)" rx="50" ry="50" stroke="#ffd700" stroke-width="20"/>
  <text x="400" y="920" width="780" text-anchor="middle" style="font: bold 200px 'Helvetica Neue'; fill: #ffd700">01049</text>

  <g transform="translate(80 80) scale(64)">
<rect x="0" y="0" width="1" height="1" fill="#C36566" /><rect x="1" y="0" width="1" height="1" fill="#B34F59" /><rect x="2" y="0" width="1" height="1" fill="#C1596A" /><rect x="3" y="0" width="1" height="1" fill="#D26578" /><rect x="4" y="0" width="1" height="1" fill="#CE6373" /><rect x="5" y="0" width="1" height="1" fill="#B35669" /><rect x="6" y="0" width="1" height="1" fill="#7B2E52" /><rect x="7" y="0" width="1" height="1" fill="#813D70" /><rect x="8" y="0" width="1" height="1" fill="#6D2E63" /><rect x="9" y="0" width="1" height="1" fill="#5B174A" /><rect x="0" y="1" width="1" height="1" fill="#B14E51" /><rect x="1" y="1" width="1" height="1" fill="#C45A64" /><rect x="2" y="1" width="1" height="1" fill="#CF6373" /><rect x="3" y="1" width="1" height="1" fill="#C75F76" /><rect x="4" y="1" width="1" height="1" fill="#9B415D" /><rect x="5" y="1" width="1" height="1" fill="#6F2246" /><rect x="6" y="1" width="1" height="1" fill="#560F3B" /><rect x="7" y="1" width="1" height="1" fill="#5E184C" /><rect x="8" y="1" width="1" height="1" fill="#732E5A" /><rect x="9" y="1" width="1" height="1" fill="#712E63" /><rect x="0" y="2" width="1" height="1" fill="#BD5053" /><rect x="1" y="2" width="1" height="1" fill="#DA707C" /><rect x="2" y="2" width="1" height="1" fill="#AA4861" /><rect x="3" y="2" width="1" height="1" fill="#772146" /><rect x="4" y="2" width="1" height="1" fill="#5F1641" /><rect x="5" y="2" width="1" height="1" fill="#5F1D4B" /><rect x="6" y="2" width="1" height="1" fill="#672457" /><rect x="7" y="2" width="1" height="1" fill="#5A154B" /><rect x="8" y="2" width="1" height="1" fill="#5C1744" /><rect x="9" y="2" width="1" height="1" fill="#6F295B" /><rect x="0" y="3" width="1" height="1" fill="#E6747E" /><rect x="1" y="3" width="1" height="1" fill="#B2536B" /><rect x="2" y="3" width="1" height="1" fill="#681D48" /><rect x="3" y="3" width="1" height="1" fill="#5D1D51" /><rect x="4" y="3" width="1" height="1" fill="#632053" /><rect x="5" y="3" width="1" height="1" fill="#662150" /><rect x="6" y="3" width="1" height="1" fill="#722E5F" /><rect x="7" y="3" width="1" height="1" fill="#541448" /><rect x="8" y="3" width="1" height="1" fill="#69225A" /><rect x="9" y="3" width="1" height="1" fill="#662356" /><rect x="0" y="4" width="1" height="1" fill="#A74461" /><rect x="1" y="4" width="1" height="1" fill="#7D2F57" /><rect x="2" y="4" width="1" height="1" fill="#60275E" /><rect x="3" y="4" width="1" height="1" fill="#63306B" /><rect x="4" y="4" width="1" height="1" fill="#60245A" /><rect x="5" y="4" width="1" height="1" fill="#5D1543" /><rect x="6" y="4" width="1" height="1" fill="#651C49" /><rect x="7" y="4" width="1" height="1" fill="#5A1542" /><rect x="8" y="4" width="1" height="1" fill="#6C275E" /><rect x="9" y="4" width="1" height="1" fill="#591D53" /><rect x="0" y="5" width="1" height="1" fill="#681E53" /><rect x="1" y="5" width="1" height="1" fill="#6E2D63" /><rect x="2" y="5" width="1" height="1" fill="#7C477D" /><rect x="3" y="5" width="1" height="1" fill="#653068" /><rect x="4" y="5" width="1" height="1" fill="#5C2255" /><rect x="5" y="5" width="1" height="1" fill="#65204F" /><rect x="6" y="5" width="1" height="1" fill="#681D46" /><rect x="7" y="5" width="1" height="1" fill="#772D50" /><rect x="8" y="5" width="1" height="1" fill="#3D0032" /><rect x="9" y="5" width="1" height="1" fill="#6E264C" /><rect x="0" y="6" width="1" height="1" fill="#6A2C6D" /><rect x="1" y="6" width="1" height="1" fill="#6F3774" /><rect x="2" y="6" width="1" height="1" fill="#905E93" /><rect x="3" y="6" width="1" height="1" fill="#5F295A" /><rect x="4" y="6" width="1" height="1" fill="#500F3A" /><rect x="5" y="6" width="1" height="1" fill="#6E2550" /><rect x="6" y="6" width="1" height="1" fill="#5F1840" /><rect x="7" y="6" width="1" height="1" fill="#4A0A2F" /><rect x="8" y="6" width="1" height="1" fill="#541134" /><rect x="9" y="6" width="1" height="1" fill="#C07272" /><rect x="0" y="7" width="1" height="1" fill="#733272" /><rect x="1" y="7" width="1" height="1" fill="#7B4787" /><rect x="2" y="7" width="1" height="1" fill="#A97EB6" /><rect x="3" y="7" width="1" height="1" fill="#6D3864" /><rect x="4" y="7" width="1" height="1" fill="#4E0427" /><rect x="5" y="7" width="1" height="1" fill="#631434" /><rect x="6" y="7" width="1" height="1" fill="#4D0A33" /><rect x="7" y="7" width="1" height="1" fill="#3B093A" /><rect x="8" y="7" width="1" height="1" fill="#AF5465" /><rect x="9" y="7" width="1" height="1" fill="#FFBFA7" /><rect x="0" y="8" width="1" height="1" fill="#62285B" /><rect x="1" y="8" width="1" height="1" fill="#824D85" /><rect x="2" y="8" width="1" height="1" fill="#804678" /><rect x="3" y="8" width="1" height="1" fill="#884C72" /><rect x="4" y="8" width="1" height="1" fill="#662140" /><rect x="5" y="8" width="1" height="1" fill="#490536" /><rect x="6" y="8" width="1" height="1" fill="#460B41" /><rect x="7" y="8" width="1" height="1" fill="#914454" /><rect x="8" y="8" width="1" height="1" fill="#FEBDA1" /><rect x="9" y="8" width="1" height="1" fill="#D3B3A4" /><rect x="0" y="9" width="1" height="1" fill="#52133E" /><rect x="1" y="9" width="1" height="1" fill="#622642" /><rect x="2" y="9" width="1" height="1" fill="#520F30" /><rect x="3" y="9" width="1" height="1" fill="#AC596B" /><rect x="4" y="9" width="1" height="1" fill="#9F5B68" /><rect x="5" y="9" width="1" height="1" fill="#3A0029" /><rect x="6" y="9" width="1" height="1" fill="#752548" /><rect x="7" y="9" width="1" height="1" fill="#F29F99" /><rect x="8" y="9" width="1" height="1" fill="#D5C0AD" /><rect x="9" y="9" width="1" height="1" fill="#5E1D3D" />
  </g>
</svg>