<svg width="800" height="1000" version="1.1" xmlns="http://www.w3.org/2000/svg" xmlns:xlink="http://www.w3.org/1999/xlink">
  <defs>
      <linearGradient id="Gradient2" x1="0" x2="1" y1="0" y2="1">
        <stop offset="0%" stop-color="#2d3c96"/>
        <stop offset="100%" stop-color="#d53392"/>
      </linearGradient>
  </defs>
  <rect x="10" y="10" width="780" height="980" fill="url(#Gradient2)" rx="50" ry="50" stroke="#ffd700" stroke-width="20"/>
  <text x="400" y="920" width="780" text-anchor="middle" style="font: bold 200px 'Helvetica Neue'; fill: #ffd700">01047</text>

  <g transform="translate(80 80) scale(64)">
<rect x="0" y="0" width="1" height="1" fill="#BB4D58" /><rect x="1" y="0" width="1" height="1" fill="#AF4956" /><rect x="2" y="0" width="1" height="1" fill="#A73F4E" /><rect x="3" y="0" width="1" height="1" fill="#B23E47" /><rect x="4" y="0" width="1" height="1" fill="#E2766C" /><rect x="5" y="0" width="1" height="1" fill="#F09779" /><rect x="6" y="0" width="1" height="1" fill="#F2A078" /><rect x="7" y="0" width="1" height="1" fill="#F09870" /><rect x="8" y="0" width="1" height="1" fill="#C75756" /><rect x="9" y="0" width="1" height="1" fill="#891F3B" /><rect x="0" y="1" width="1" height="1" fill="#B74954" /><rect x="1" y="1" width="1" height="1" fill="#AC4653" /><rect x="2" y="1" width="1" height="1" fill="#A43C4B" /><rect x="3" y="1" width="1" height="1" fill="#AF3B44" /><rect x="4" y="1" width="1" height="1" fill="#DF7369" /><rect x="5" y="1" width="1" height="1" fill="#EE9577" /><rect x="6" y="1" width="1" height="1" fill="#F19F77" /><rect x="7" y="1" width="1" height="1" fill="#F09870" /><rect x="8" y="1" width="1" height="1" fill="#C85A59" /><rect x="9" y="1" width="1" height="1" fill="#8F2742" /><rect x="0" y="2" width="1" height="1" fill="#B34550" /><rect x="1" y="2" width="1" height="1" fill="#AB4552" /><rect x="2" y="2" width="1" height="1" fill="#A43C4B" /><rect x="3" y="2" width="1" height="1" fill="#AD3B45" /><rect x="4" y="2" width="1" height="1" fill="#DE716A" /><rect x="5" y="2" width="1" height="1" fill="#EE9577" /><rect x="6" y="2" width="1" height="1" fill="#F2A078" /><rect x="7" y="2" width="1" height="1" fill="#F29A74" /><rect x="8" y="2" width="1" height="1" fill="#C65A5A" /><rect x="9" y="2" width="1" height="1" fill="#902946" /><rect x="0" y="3" width="1" height="1" fill="#B2444F" /><rect x="1" y="3" width="1" height="1" fill="#AD4755" /><rect x="2" y="3" width="1" height="1" fill="#A63E4D" /><rect x="3" y="3" width="1" height="1" fill="#AD3B45" /><rect x="4" y="3" width="1" height="1" fill="#DF726B" /><rect x="5" y="3" width="1" height="1" fill="#F09779" /><rect x="6" y="3" width="1" height="1" fill="#F4A27C" /><rect x="7" y="3" width="1" height="1" fill="#F49C76" /><rect x="8" y="3" width="1" height="1" fill="#C65A5A" /><rect x="9" y="3" width="1" height="1" fill="#8F2845" /><rect x="0" y="4" width="1" height="1" fill="#AF4350" /><rect x="1" y="4" width="1" height="1" fill="#AD4856" /><rect x="2" y="4" width="1" height="1" fill="#A43D4E" /><rect x="3" y="4" width="1" height="1" fill="#AB3943" /><rect x="4" y="4" width="1" height="1" fill="#DE736B" /><rect x="5" y="4" width="1" height="1" fill="#F0997D" /><rect x="6" y="4" width="1" height="1" fill="#F3A47D" /><rect x="7" y="4" width="1" height="1" fill="#F39E77" /><rect x="8" y="4" width="1" height="1" fill="#CA5C5B" /><rect x="9" y="4" width="1" height="1" fill="#902843" /><rect x="0" y="5" width="1" height="1" fill="#AE424F" /><rect x="1" y="5" width="1" height="1" fill="#AB4654" /><rect x="2" y="5" width="1" height="1" fill="#9E3748" /><rect x="3" y="5" width="1" height="1" fill="#A2323E" /><rect x="4" y="5" width="1" height="1" fill="#DB706A" /><rect x="5" y="5" width="1" height="1" fill="#F0997D" /><rect x="6" y="5" width="1" height="1" fill="#F4A57E" /><rect x="7" y="5" width="1" height="1" fill="#F39D79" /><rect x="8" y="5" width="1" height="1" fill="#CC5C5A" /><rect x="9" y="5" width="1" height="1" fill="#902640" /><rect x="0" y="6" width="1" height="1" fill="#AE424F" /><rect x="1" y="6" width="1" height="1" fill="#A94454" /><rect x="2" y="6" width="1" height="1" fill="#983142" /><rect x="3" y="6" width="1" height="1" fill="#9A2A36" /><rect x="4" y="6" width="1" height="1" fill="#D76C66" /><rect x="5" y="6" width="1" height="1" fill="#F19A7E" /><rect x="6" y="6" width="1" height="1" fill="#F7A782" /><rect x="7" y="6" width="1" height="1" fill="#F59F7B" /><rect x="8" y="6" width="1" height="1" fill="#CE5B58" /><rect x="9" y="6" width="1" height="1" fill="#962841" /><rect x="0" y="7" width="1" height="1" fill="#AF4553" /><rect x="1" y="7" width="1" height="1" fill="#A64453" /><rect x="2" y="7" width="1" height="1" fill="#952E3F" /><rect x="3" y="7" width="1" height="1" fill="#962632" /><rect x="4" y="7" width="1" height="1" fill="#D66B65" /><rect x="5" y="7" width="1" height="1" fill="#F39C80" /><rect x="6" y="7" width="1" height="1" fill="#FAAA85" /><rect x="7" y="7" width="1" height="1" fill="#F9A37F" /><rect x="8" y="7" width="1" height="1" fill="#D35E57" /><rect x="9" y="7" width="1" height="1" fill="#9F2F45" /><rect x="0" y="8" width="1" height="1" fill="#9B3E53" /><rect x="1" y="8" width="1" height="1" fill="#99374E" /><rect x="2" y="8" width="1" height="1" fill="#822345" /><rect x="3" y="8" width="1" height="1" fill="#831C39" /><rect x="4" y="8" width="1" height="1" fill="#D16660" /><rect x="5" y="8" width="1" height="1" fill="#F39E7F" /><rect x="6" y="8" width="1" height="1" fill="#F3AA87" /><rect x="7" y="8" width="1" height="1" fill="#FDA57D" /><rect x="8" y="8" width="1" height="1" fill="#D4615A" /><rect x="9" y="8" width="1" height="1" fill="#992C41" /><rect x="0" y="9" width="1" height="1" fill="#8D3045" /><rect x="1" y="9" width="1" height="1" fill="#8E2C43" /><rect x="2" y="9" width="1" height="1" fill="#7C1D3F" /><rect x="3" y="9" width="1" height="1" fill="#801936" /><rect x="4" y="9" width="1" height="1" fill="#D0655F" /><rect x="5" y="9" width="1" height="1" fill="#F09B7C" /><rect x="6" y="9" width="1" height="1" fill="#EEA582" /><rect x="7" y="9" width="1" height="1" fill="#F69E76" /><rect x="8" y="9" width="1" height="1" fill="#D36059" /><rect x="9" y="9" width="1" height="1" fill="#972A3F" />
  </g>
</svg>