<svg width="800" height="1000" xmlns="http://www.w3.org/2000/svg"><defs><linearGradient id="g" x1="0" x2="1" y1="0" y2="1"><stop offset="0%" stop-color="#2d3c96"/><stop offset="100%" stop-color="#d53392"/></linearGradient></defs><rect x="10" y="10" width="780" height="980" fill="url(#g)" rx="50" ry="50" stroke="gold" stroke-width="20"/><text x="400" y="920" width="780" text-anchor="middle" style="font:bold 200px 'Helvetica Neue';fill:gold">01047</text><g transform="translate(80 80) scale(64)"><rect x="0" y="0" width="1" height="1" fill="#bb4d58" /><rect x="0" y="1" width="1" height="1" fill="#b74954" /><rect x="0" y="2" width="1" height="1" fill="#b34550" /><rect x="0" y="3" width="1" height="1" fill="#b2444f" /><rect x="0" y="4" width="1" height="1" fill="#af4350" /><rect x="0" y="5" width="1" height="1" fill="#ae424f" /><rect x="0" y="6" width="1" height="1" fill="#ae424f" /><rect x="0" y="7" width="1" height="1" fill="#af4553" /><rect x="0" y="8" width="1" height="1" fill="#9b3e53" /><rect x="0" y="9" width="1" height="1" fill="#8d3045" /><rect x="1" y="0" width="1" height="1" fill="#af4956" /><rect x="1" y="1" width="1" height="1" fill="#ac4653" /><rect x="1" y="2" width="1" height="1" fill="#ab4552" /><rect x="1" y="3" width="1" height="1" fill="#ad4755" /><rect x="1" y="4" width="1" height="1" fill="#ad4856" /><rect x="1" y="5" width="1" height="1" fill="#ab4654" /><rect x="1" y="6" width="1" height="1" fill="#a94454" /><rect x="1" y="7" width="1" height="1" fill="#a64453" /><rect x="1" y="8" width="1" height="1" fill="#99374e" /><rect x="1" y="9" width="1" height="1" fill="#8e2c43" /><rect x="2" y="0" width="1" height="1" fill="#a73f4e" /><rect x="2" y="1" width="1" height="1" fill="#a43c4b" /><rect x="2" y="2" width="1" height="1" fill="#a43c4b" /><rect x="2" y="3" width="1" height="1" fill="#a63e4d" /><rect x="2" y="4" width="1" height="1" fill="#a43d4e" /><rect x="2" y="5" width="1" height="1" fill="#9e3748" /><rect x="2" y="6" width="1" height="1" fill="#983142" /><rect x="2" y="7" width="1" height="1" fill="#952e3f" /><rect x="2" y="8" width="1" height="1" fill="#822345" /><rect x="2" y="9" width="1" height="1" fill="#7c1d3f" /><rect x="3" y="0" width="1" height="1" fill="#b23e47" /><rect x="3" y="1" width="1" height="1" fill="#af3b44" /><rect x="3" y="2" width="1" height="1" fill="#ad3b45" /><rect x="3" y="3" width="1" height="1" fill="#ad3b45" /><rect x="3" y="4" width="1" height="1" fill="#ab3943" /><rect x="3" y="5" width="1" height="1" fill="#a2323e" /><rect x="3" y="6" width="1" height="1" fill="#9a2a36" /><rect x="3" y="7" width="1" height="1" fill="#962632" /><rect x="3" y="8" width="1" height="1" fill="#831c39" /><rect x="3" y="9" width="1" height="1" fill="#801936" /><rect x="4" y="0" width="1" height="1" fill="#e2766c" /><rect x="4" y="1" width="1" height="1" fill="#df7369" /><rect x="4" y="2" width="1" height="1" fill="#de716a" /><rect x="4" y="3" width="1" height="1" fill="#df726b" /><rect x="4" y="4" width="1" height="1" fill="#de736b" /><rect x="4" y="5" width="1" height="1" fill="#db706a" /><rect x="4" y="6" width="1" height="1" fill="#d76c66" /><rect x="4" y="7" width="1" height="1" fill="#d66b65" /><rect x="4" y="8" width="1" height="1" fill="#d16660" /><rect x="4" y="9" width="1" height="1" fill="#d0655f" /><rect x="5" y="0" width="1" height="1" fill="#f09779" /><rect x="5" y="1" width="1" height="1" fill="#ee9577" /><rect x="5" y="2" width="1" height="1" fill="#ee9577" /><rect x="5" y="3" width="1" height="1" fill="#f09779" /><rect x="5" y="4" width="1" height="1" fill="#f0997d" /><rect x="5" y="5" width="1" height="1" fill="#f0997d" /><rect x="5" y="6" width="1" height="1" fill="#f19a7e" /><rect x="5" y="7" width="1" height="1" fill="#f39c80" /><rect x="5" y="8" width="1" height="1" fill="#f39e7f" /><rect x="5" y="9" width="1" height="1" fill="#f09b7c" /><rect x="6" y="0" width="1" height="1" fill="#f2a078" /><rect x="6" y="1" width="1" height="1" fill="#f19f77" /><rect x="6" y="2" width="1" height="1" fill="#f2a078" /><rect x="6" y="3" width="1" height="1" fill="#f4a27c" /><rect x="6" y="4" width="1" height="1" fill="#f3a47d" /><rect x="6" y="5" width="1" height="1" fill="#f4a57e" /><rect x="6" y="6" width="1" height="1" fill="#f7a782" /><rect x="6" y="7" width="1" height="1" fill="#faaa85" /><rect x="6" y="8" width="1" height="1" fill="#f3aa87" /><rect x="6" y="9" width="1" height="1" fill="#eea582" /><rect x="7" y="0" width="1" height="1" fill="#f09870" /><rect x="7" y="1" width="1" height="1" fill="#f09870" /><rect x="7" y="2" width="1" height="1" fill="#f29a74" /><rect x="7" y="3" width="1" height="1" fill="#f49c76" /><rect x="7" y="4" width="1" height="1" fill="#f39e77" /><rect x="7" y="5" width="1" height="1" fill="#f39d79" /><rect x="7" y="6" width="1" height="1" fill="#f59f7b" /><rect x="7" y="7" width="1" height="1" fill="#f9a37f" /><rect x="7" y="8" width="1" height="1" fill="#fda57d" /><rect x="7" y="9" width="1" height="1" fill="#f69e76" /><rect x="8" y="0" width="1" height="1" fill="#c75756" /><rect x="8" y="1" width="1" height="1" fill="#c85a59" /><rect x="8" y="2" width="1" height="1" fill="#c65a5a" /><rect x="8" y="3" width="1" height="1" fill="#c65a5a" /><rect x="8" y="4" width="1" height="1" fill="#ca5c5b" /><rect x="8" y="5" width="1" height="1" fill="#cc5c5a" /><rect x="8" y="6" width="1" height="1" fill="#ce5b58" /><rect x="8" y="7" width="1" height="1" fill="#d35e57" /><rect x="8" y="8" width="1" height="1" fill="#d4615a" /><rect x="8" y="9" width="1" height="1" fill="#d36059" /><rect x="9" y="0" width="1" height="1" fill="#891f3b" /><rect x="9" y="1" width="1" height="1" fill="#8f2742" /><rect x="9" y="2" width="1" height="1" fill="#902946" /><rect x="9" y="3" width="1" height="1" fill="#8f2845" /><rect x="9" y="4" width="1" height="1" fill="#902843" /><rect x="9" y="5" width="1" height="1" fill="#902640" /><rect x="9" y="6" width="1" height="1" fill="#962841" /><rect x="9" y="7" width="1" height="1" fill="#9f2f45" /><rect x="9" y="8" width="1" height="1" fill="#992c41" /><rect x="9" y="9" width="1" height="1" fill="#972a3f" /></g></svg>