<svg width="800" height="1000" xmlns="http://www.w3.org/2000/svg"><defs><linearGradient id="g" x1="0" x2="1" y1="0" y2="1"><stop offset="0%" stop-color="#2d3c96"/><stop offset="100%" stop-color="#d53392"/></linearGradient></defs><rect x="10" y="10" width="780" height="980" fill="url(#g)" rx="50" ry="50" stroke="gold" stroke-width="20"/><text x="400" y="920" width="780" text-anchor="middle" style="font:bold 200px 'Helvetica Neue';fill:gold">01050</text><g transform="translate(80 80) scale(64)"><rect x="0" y="0" width="1" height="1" fill="#7a336b" /><rect x="0" y="1" width="1" height="1" fill="#813178" /><rect x="0" y="2" width="1" height="1" fill="#6a3482" /><rect x="0" y="3" width="1" height="1" fill="#411248" /><rect x="0" y="4" width="1" height="1" fill="#82323f" /><rect x="0" y="5" width="1" height="1" fill="#d07d77" /><rect x="0" y="6" width="1" height="1" fill="#ebbcb4" /><rect x="0" y="7" width="1" height="1" fill="#d0b0a1" /><rect x="0" y="8" width="1" height="1" fill="#912d45" /><rect x="0" y="9" width="1" height="1" fill="#8e243e" /><rect x="1" y="0" width="1" height="1" fill="#59173d" /><rect x="1" y="1" width="1" height="1" fill="#863c71" /><rect x="1" y="2" width="1" height="1" fill="#532152" /><rect x="1" y="3" width="1" height="1" fill="#6f2f47" /><rect x="1" y="4" width="1" height="1" fill="#dc7d79" /><rect x="1" y="5" width="1" height="1" fill="#efc4b4" /><rect x="1" y="6" width="1" height="1" fill="#e0cabd" /><rect x="1" y="7" width="1" height="1" fill="#b6534e" /><rect x="1" y="8" width="1" height="1" fill="#c83b43" /><rect x="1" y="9" width="1" height="1" fill="#e25b61" /><rect x="2" y="0" width="1" height="1" fill="#672146" /><rect x="2" y="1" width="1" height="1" fill="#370319" /><rect x="2" y="2" width="1" height="1" fill="#662334" /><rect x="2" y="3" width="1" height="1" fill="#e98e8d" /><rect x="2" y="4" width="1" height="1" fill="#f8b89c" /><rect x="2" y="5" width="1" height="1" fill="#eed8c3" /><rect x="2" y="6" width="1" height="1" fill="#c38789" /><rect x="2" y="7" width="1" height="1" fill="#cd4547" /><rect x="2" y="8" width="1" height="1" fill="#e56768" /><rect x="2" y="9" width="1" height="1" fill="#da6261" /><rect x="3" y="0" width="1" height="1" fill="#4f1045" /><rect x="3" y="1" width="1" height="1" fill="#581e2d" /><rect x="3" y="2" width="1" height="1" fill="#d4807e" /><rect x="3" y="3" width="1" height="1" fill="#e49888" /><rect x="3" y="4" width="1" height="1" fill="#ddbc9d" /><rect x="3" y="5" width="1" height="1" fill="#b37c79" /><rect x="3" y="6" width="1" height="1" fill="#a9344e" /><rect x="3" y="7" width="1" height="1" fill="#f97c82" /><rect x="3" y="8" width="1" height="1" fill="#e57f83" /><rect x="3" y="9" width="1" height="1" fill="#de7177" /><rect x="4" y="0" width="1" height="1" fill="#4e1a5a" /><rect x="4" y="1" width="1" height="1" fill="#b45d7f" /><rect x="4" y="2" width="1" height="1" fill="#f7b0ae" /><rect x="4" y="3" width="1" height="1" fill="#dcb9a3" /><rect x="4" y="4" width="1" height="1" fill="#d8a296" /><rect x="4" y="5" width="1" height="1" fill="#7f1430" /><rect x="4" y="6" width="1" height="1" fill="#921a3e" /><rect x="4" y="7" width="1" height="1" fill="#ee8488" /><rect x="4" y="8" width="1" height="1" fill="#ec928a" /><rect x="4" y="9" width="1" height="1" fill="#e6857f" /><rect x="5" y="0" width="1" height="1" fill="#823d74" /><rect x="5" y="1" width="1" height="1" fill="#b77694" /><rect x="5" y="2" width="1" height="1" fill="#c99c9f" /><rect x="5" y="3" width="1" height="1" fill="#f3c7ba" /><rect x="5" y="4" width="1" height="1" fill="#c9777b" /><rect x="5" y="5" width="1" height="1" fill="#72012f" /><rect x="5" y="6" width="1" height="1" fill="#8a1f4b" /><rect x="5" y="7" width="1" height="1" fill="#cc7472" /><rect x="5" y="8" width="1" height="1" fill="#f2a396" /><rect x="5" y="9" width="1" height="1" fill="#e79e8f" /><rect x="6" y="0" width="1" height="1" fill="#c17b93" /><rect x="6" y="1" width="1" height="1" fill="#c8a5a9" /><rect x="6" y="2" width="1" height="1" fill="#ccadab" /><rect x="6" y="3" width="1" height="1" fill="#ce8387" /><rect x="6" y="4" width="1" height="1" fill="#b95462" /><rect x="6" y="5" width="1" height="1" fill="#670d31" /><rect x="6" y="6" width="1" height="1" fill="#904161" /><rect x="6" y="7" width="1" height="1" fill="#cb7a77" /><rect x="6" y="8" width="1" height="1" fill="#ee9b97" /><rect x="6" y="9" width="1" height="1" fill="#ec9f99" /><rect x="7" y="0" width="1" height="1" fill="#d4aea3" /><rect x="7" y="1" width="1" height="1" fill="#e8b9a7" /><rect x="7" y="2" width="1" height="1" fill="#d5b5a8" /><rect x="7" y="3" width="1" height="1" fill="#c78189" /><rect x="7" y="4" width="1" height="1" fill="#ae3048" /><rect x="7" y="5" width="1" height="1" fill="#92495c" /><rect x="7" y="6" width="1" height="1" fill="#dfbec5" /><rect x="7" y="7" width="1" height="1" fill="#e4858b" /><rect x="7" y="8" width="1" height="1" fill="#e5988e" /><rect x="7" y="9" width="1" height="1" fill="#eb9890" /><rect x="8" y="0" width="1" height="1" fill="#dfb3a8" /><rect x="8" y="1" width="1" height="1" fill="#cb989d" /><rect x="8" y="2" width="1" height="1" fill="#d28a8d" /><rect x="8" y="3" width="1" height="1" fill="#e47e7f" /><rect x="8" y="4" width="1" height="1" fill="#a6364e" /><rect x="8" y="5" width="1" height="1" fill="#81233d" /><rect x="8" y="6" width="1" height="1" fill="#d2828d" /><rect x="8" y="7" width="1" height="1" fill="#e39299" /><rect x="8" y="8" width="1" height="1" fill="#e38b8a" /><rect x="8" y="9" width="1" height="1" fill="#e3827b" /><rect x="9" y="0" width="1" height="1" fill="#cca68f" /><rect x="9" y="1" width="1" height="1" fill="#d39695" /><rect x="9" y="2" width="1" height="1" fill="#d58a84" /><rect x="9" y="3" width="1" height="1" fill="#ec9f8d" /><rect x="9" y="4" width="1" height="1" fill="#c5666e" /><rect x="9" y="5" width="1" height="1" fill="#ae364f" /><rect x="9" y="6" width="1" height="1" fill="#b93c4c" /><rect x="9" y="7" width="1" height="1" fill="#db6971" /><rect x="9" y="8" width="1" height="1" fill="#df7278" /><rect x="9" y="9" width="1" height="1" fill="#df6969" /></g></svg>