<svg width="800" height="1000" version="1.1" xmlns="http://www.w3.org/2000/svg" xmlns:xlink="http://www.w3.org/1999/xlink">
  <defs>
      <linearGradient id="Gradient2" x1="0" x2="1" y1="0" y2="1">
        <stop offset="0%" stop-color="#2d3c96"/>
        <stop offset="100%" stop-color="#d53392"/>
      </linearGradient>
  </defs>
  <rect x="10" y="10" width="780" height="980" fill="url(#Gradient2)" rx="50" ry="50" stroke="#ffd700" stroke-width="20"/>
  <text x="400" y="920" width="780" text-anchor="middle" style="font: bold 200px 'Helvetica Neue'; fill: #ffd700">01052</text>

  <g transform="translate(80 80) scale(64)">
<rect x="0" y="0" width="1" height="1" fill="#C17581" /><rect x="1" y="0" width="1" height="1" fill="#60123C" /><rect x="2" y="0" width="1" height="1" fill="#580C3D" /><rect x="3" y="0" width="1" height="1" fill="#641D3B" /><rect x="4" y="0" width="1" height="1" fill="#67213B" /><rect x="5" y="0" width="1" height="1" fill="#621944" /><rect x="6" y="0" width="1" height="1" fill="#520634" /><rect x="7" y="0" width="1" height="1" fill="#6A1F3E" /><rect x="8" y="0" width="1" height="1" fill="#AB5967" /><rect x="9" y="0" width="1" height="1" fill="#C87684" /><rect x="0" y="1" width="1" height="1" fill="#7C3241" /><rect x="1" y="1" width="1" height="1" fill="#4A0024" /><rect x="2" y="1" width="1" height="1" fill="#5E1241" /><rect x="3" y="1" width="1" height="1" fill="#702947" /><rect x="4" y="1" width="1" height="1" fill="#67203E" /><rect x="5" y="1" width="1" height="1" fill="#5C103E" /><rect x="6" y="1" width="1" height="1" fill="#550834" /><rect x="7" y="1" width="1" height="1" fill="#873D56" /><rect x="8" y="1" width="1" height="1" fill="#C47D7B" /><rect x="9" y="1" width="1" height="1" fill="#C8817F" /><rect x="0" y="2" width="1" height="1" fill="#8F4459" /><rect x="1" y="2" width="1" height="1" fill="#550930" /><rect x="2" y="2" width="1" height="1" fill="#691E49" /><rect x="3" y="2" width="1" height="1" fill="#6D2646" /><rect x="4" y="2" width="1" height="1" fill="#631C3E" /><rect x="5" y="2" width="1" height="1" fill="#540837" /><rect x="6" y="2" width="1" height="1" fill="#6C2047" /><rect x="7" y="2" width="1" height="1" fill="#B36978" /><rect x="8" y="2" width="1" height="1" fill="#CE8F7E" /><rect x="9" y="2" width="1" height="1" fill="#D29382" /><rect x="0" y="3" width="1" height="1" fill="#A95F78" /><rect x="1" y="3" width="1" height="1" fill="#570B31" /><rect x="2" y="3" width="1" height="1" fill="#70254C" /><rect x="3" y="3" width="1" height="1" fill="#6A2345" /><rect x="4" y="3" width="1" height="1" fill="#5F173D" /><rect x="5" y="3" width="1" height="1" fill="#520634" /><rect x="6" y="3" width="1" height="1" fill="#924765" /><rect x="7" y="3" width="1" height="1" fill="#D28A8D" /><rect x="8" y="3" width="1" height="1" fill="#D1907A" /><rect x="9" y="3" width="1" height="1" fill="#D89781" /><rect x="0" y="4" width="1" height="1" fill="#BF758E" /><rect x="1" y="4" width="1" height="1" fill="#5C1233" /><rect x="2" y="4" width="1" height="1" fill="#6E264B" /><rect x="3" y="4" width="1" height="1" fill="#671F44" /><rect x="4" y="4" width="1" height="1" fill="#530B31" /><rect x="5" y="4" width="1" height="1" fill="#64183E" /><rect x="6" y="4" width="1" height="1" fill="#B06677" /><rect x="7" y="4" width="1" height="1" fill="#CC837A" /><rect x="8" y="4" width="1" height="1" fill="#DB9384" /><rect x="9" y="4" width="1" height="1" fill="#D08879" /><rect x="0" y="5" width="1" height="1" fill="#C57D91" /><rect x="1" y="5" width="1" height="1" fill="#6E2745" /><rect x="2" y="5" width="1" height="1" fill="#651D43" /><rect x="3" y="5" width="1" height="1" fill="#5D153B" /><rect x="4" y="5" width="1" height="1" fill="#4F052A" /><rect x="5" y="5" width="1" height="1" fill="#8E445D" /><rect x="6" y="5" width="1" height="1" fill="#D2878B" /><rect x="7" y="5" width="1" height="1" fill="#D48B7A" /><rect x="8" y="5" width="1" height="1" fill="#DA8C82" /><rect x="9" y="5" width="1" height="1" fill="#CF8177" /><rect x="0" y="6" width="1" height="1" fill="#B9737E" /><rect x="1" y="6" width="1" height="1" fill="#86405A" /><rect x="2" y="6" width="1" height="1" fill="#621A42" /><rect x="3" y="6" width="1" height="1" fill="#570E39" /><rect x="4" y="6" width="1" height="1" fill="#5F1634" /><rect x="5" y="6" width="1" height="1" fill="#AD6571" /><rect x="6" y="6" width="1" height="1" fill="#D48B82" /><rect x="7" y="6" width="1" height="1" fill="#D89078" /><rect x="8" y="6" width="1" height="1" fill="#CD8076" /><rect x="9" y="6" width="1" height="1" fill="#D08379" /><rect x="0" y="7" width="1" height="1" fill="#BB787F" /><rect x="1" y="7" width="1" height="1" fill="#924C64" /><rect x="2" y="7" width="1" height="1" fill="#560D38" /><rect x="3" y="7" width="1" height="1" fill="#4C032E" /><rect x="4" y="7" width="1" height="1" fill="#7F3653" /><rect x="5" y="7" width="1" height="1" fill="#C67F83" /><rect x="6" y="7" width="1" height="1" fill="#CE8677" /><rect x="7" y="7" width="1" height="1" fill="#D18970" /><rect x="8" y="7" width="1" height="1" fill="#CC8476" /><rect x="9" y="7" width="1" height="1" fill="#CB8375" /><rect x="0" y="8" width="1" height="1" fill="#BF7687" /><rect x="1" y="8" width="1" height="1" fill="#954F67" /><rect x="2" y="8" width="1" height="1" fill="#4B0230" /><rect x="3" y="8" width="1" height="1" fill="#570A34" /><rect x="4" y="8" width="1" height="1" fill="#A7585D" /><rect x="5" y="8" width="1" height="1" fill="#D7897F" /><rect x="6" y="8" width="1" height="1" fill="#D48A87" /><rect x="7" y="8" width="1" height="1" fill="#CA877F" /><rect x="8" y="8" width="1" height="1" fill="#CA817B" /><rect x="9" y="8" width="1" height="1" fill="#CC837D" /><rect x="0" y="9" width="1" height="1" fill="#B46D73" /><rect x="1" y="9" width="1" height="1" fill="#AD6976" /><rect x="2" y="9" width="1" height="1" fill="#470024" /><rect x="3" y="9" width="1" height="1" fill="#732847" /><rect x="4" y="9" width="1" height="1" fill="#C87B75" /><rect x="5" y="9" width="1" height="1" fill="#DB8E7A" /><rect x="6" y="9" width="1" height="1" fill="#D48C7E" /><rect x="7" y="9" width="1" height="1" fill="#C78674" /><rect x="8" y="9" width="1" height="1" fill="#CA817B" /><rect x="9" y="9" width="1" height="1" fill="#C67D77" />
  </g>
</svg>