<svg width="800" height="1000" xmlns="http://www.w3.org/2000/svg"><defs><linearGradient id="g" x1="0" x2="1" y1="0" y2="1"><stop offset="0%" stop-color="#2d3c96"/><stop offset="100%" stop-color="#d53392"/></linearGradient></defs><rect x="10" y="10" width="780" height="980" fill="url(#g)" rx="50" ry="50" stroke="gold" stroke-width="20"/><text x="400" y="920" width="780" text-anchor="middle" style="font:bold 200px 'Helvetica Neue';fill:gold">01052</text><g transform="translate(80 80) scale(64)"><rect x="0" y="0" width="1" height="1" fill="#c17581" /><rect x="0" y="1" width="1" height="1" fill="#7c3241" /><rect x="0" y="2" width="1" height="1" fill="#8f4459" /><rect x="0" y="3" width="1" height="1" fill="#a95f78" /><rect x="0" y="4" width="1" height="1" fill="#bf758e" /><rect x="0" y="5" width="1" height="1" fill="#c57d91" /><rect x="0" y="6" width="1" height="1" fill="#b9737e" /><rect x="0" y="7" width="1" height="1" fill="#bb787f" /><rect x="0" y="8" width="1" height="1" fill="#bf7687" /><rect x="0" y="9" width="1" height="1" fill="#b46d73" /><rect x="1" y="0" width="1" height="1" fill="#60123c" /><rect x="1" y="1" width="1" height="1" fill="#4a0024" /><rect x="1" y="2" width="1" height="1" fill="#550930" /><rect x="1" y="3" width="1" height="1" fill="#570b31" /><rect x="1" y="4" width="1" height="1" fill="#5c1233" /><rect x="1" y="5" width="1" height="1" fill="#6e2745" /><rect x="1" y="6" width="1" height="1" fill="#86405a" /><rect x="1" y="7" width="1" height="1" fill="#924c64" /><rect x="1" y="8" width="1" height="1" fill="#954f67" /><rect x="1" y="9" width="1" height="1" fill="#ad6976" /><rect x="2" y="0" width="1" height="1" fill="#580c3d" /><rect x="2" y="1" width="1" height="1" fill="#5e1241" /><rect x="2" y="2" width="1" height="1" fill="#691e49" /><rect x="2" y="3" width="1" height="1" fill="#70254c" /><rect x="2" y="4" width="1" height="1" fill="#6e264b" /><rect x="2" y="5" width="1" height="1" fill="#651d43" /><rect x="2" y="6" width="1" height="1" fill="#621a42" /><rect x="2" y="7" width="1" height="1" fill="#560d38" /><rect x="2" y="8" width="1" height="1" fill="#4b0230" /><rect x="2" y="9" width="1" height="1" fill="#470024" /><rect x="3" y="0" width="1" height="1" fill="#641d3b" /><rect x="3" y="1" width="1" height="1" fill="#702947" /><rect x="3" y="2" width="1" height="1" fill="#6d2646" /><rect x="3" y="3" width="1" height="1" fill="#6a2345" /><rect x="3" y="4" width="1" height="1" fill="#671f44" /><rect x="3" y="5" width="1" height="1" fill="#5d153b" /><rect x="3" y="6" width="1" height="1" fill="#570e39" /><rect x="3" y="7" width="1" height="1" fill="#4c032e" /><rect x="3" y="8" width="1" height="1" fill="#570a34" /><rect x="3" y="9" width="1" height="1" fill="#732847" /><rect x="4" y="0" width="1" height="1" fill="#67213b" /><rect x="4" y="1" width="1" height="1" fill="#67203e" /><rect x="4" y="2" width="1" height="1" fill="#631c3e" /><rect x="4" y="3" width="1" height="1" fill="#5f173d" /><rect x="4" y="4" width="1" height="1" fill="#530b31" /><rect x="4" y="5" width="1" height="1" fill="#4f052a" /><rect x="4" y="6" width="1" height="1" fill="#5f1634" /><rect x="4" y="7" width="1" height="1" fill="#7f3653" /><rect x="4" y="8" width="1" height="1" fill="#a7585d" /><rect x="4" y="9" width="1" height="1" fill="#c87b75" /><rect x="5" y="0" width="1" height="1" fill="#621944" /><rect x="5" y="1" width="1" height="1" fill="#5c103e" /><rect x="5" y="2" width="1" height="1" fill="#540837" /><rect x="5" y="3" width="1" height="1" fill="#520634" /><rect x="5" y="4" width="1" height="1" fill="#64183e" /><rect x="5" y="5" width="1" height="1" fill="#8e445d" /><rect x="5" y="6" width="1" height="1" fill="#ad6571" /><rect x="5" y="7" width="1" height="1" fill="#c67f83" /><rect x="5" y="8" width="1" height="1" fill="#d7897f" /><rect x="5" y="9" width="1" height="1" fill="#db8e7a" /><rect x="6" y="0" width="1" height="1" fill="#520634" /><rect x="6" y="1" width="1" height="1" fill="#550834" /><rect x="6" y="2" width="1" height="1" fill="#6c2047" /><rect x="6" y="3" width="1" height="1" fill="#924765" /><rect x="6" y="4" width="1" height="1" fill="#b06677" /><rect x="6" y="5" width="1" height="1" fill="#d2878b" /><rect x="6" y="6" width="1" height="1" fill="#d48b82" /><rect x="6" y="7" width="1" height="1" fill="#ce8677" /><rect x="6" y="8" width="1" height="1" fill="#d48a87" /><rect x="6" y="9" width="1" height="1" fill="#d48c7e" /><rect x="7" y="0" width="1" height="1" fill="#6a1f3e" /><rect x="7" y="1" width="1" height="1" fill="#873d56" /><rect x="7" y="2" width="1" height="1" fill="#b36978" /><rect x="7" y="3" width="1" height="1" fill="#d28a8d" /><rect x="7" y="4" width="1" height="1" fill="#cc837a" /><rect x="7" y="5" width="1" height="1" fill="#d48b7a" /><rect x="7" y="6" width="1" height="1" fill="#d89078" /><rect x="7" y="7" width="1" height="1" fill="#d18970" /><rect x="7" y="8" width="1" height="1" fill="#ca877f" /><rect x="7" y="9" width="1" height="1" fill="#c78674" /><rect x="8" y="0" width="1" height="1" fill="#ab5967" /><rect x="8" y="1" width="1" height="1" fill="#c47d7b" /><rect x="8" y="2" width="1" height="1" fill="#ce8f7e" /><rect x="8" y="3" width="1" height="1" fill="#d1907a" /><rect x="8" y="4" width="1" height="1" fill="#db9384" /><rect x="8" y="5" width="1" height="1" fill="#da8c82" /><rect x="8" y="6" width="1" height="1" fill="#cd8076" /><rect x="8" y="7" width="1" height="1" fill="#cc8476" /><rect x="8" y="8" width="1" height="1" fill="#ca817b" /><rect x="8" y="9" width="1" height="1" fill="#ca817b" /><rect x="9" y="0" width="1" height="1" fill="#c87684" /><rect x="9" y="1" width="1" height="1" fill="#c8817f" /><rect x="9" y="2" width="1" height="1" fill="#d29382" /><rect x="9" y="3" width="1" height="1" fill="#d89781" /><rect x="9" y="4" width="1" height="1" fill="#d08879" /><rect x="9" y="5" width="1" height="1" fill="#cf8177" /><rect x="9" y="6" width="1" height="1" fill="#d08379" /><rect x="9" y="7" width="1" height="1" fill="#cb8375" /><rect x="9" y="8" width="1" height="1" fill="#cc837d" /><rect x="9" y="9" width="1" height="1" fill="#c67d77" /></g></svg>