<svg width="800" height="1000" version="1.1" xmlns="http://www.w3.org/2000/svg" xmlns:xlink="http://www.w3.org/1999/xlink">
  <defs>
      <linearGradient id="Gradient2" x1="0" x2="1" y1="0" y2="1">
        <stop offset="0%" stop-color="#2d3c96"/>
        <stop offset="100%" stop-color="#d53392"/>
      </linearGradient>
  </defs>
  <rect x="10" y="10" width="780" height="980" fill="url(#Gradient2)" rx="50" ry="50" stroke="#ffd700" stroke-width="20"/>
  <text x="400" y="920" width="780" text-anchor="middle" style="font: bold 200px 'Helvetica Neue'; fill: #ffd700">01050</text>

  <g transform="translate(80 80) scale(64)">
<rect x="0" y="0" width="1" height="1" fill="#7A336B" /><rect x="1" y="0" width="1" height="1" fill="#59173D" /><rect x="2" y="0" width="1" height="1" fill="#672146" /><rect x="3" y="0" width="1" height="1" fill="#4F1045" /><rect x="4" y="0" width="1" height="1" fill="#4E1A5A" /><rect x="5" y="0" width="1" height="1" fill="#823D74" /><rect x="6" y="0" width="1" height="1" fill="#C17B93" /><rect x="7" y="0" width="1" height="1" fill="#D4AEA3" /><rect x="8" y="0" width="1" height="1" fill="#DFB3A8" /><rect x="9" y="0" width="1" height="1" fill="#CCA68F" /><rect x="0" y="1" width="1" height="1" fill="#813178" /><rect x="1" y="1" width="1" height="1" fill="#863C71" /><rect x="2" y="1" width="1" height="1" fill="#370319" /><rect x="3" y="1" width="1" height="1" fill="#581E2D" /><rect x="4" y="1" width="1" height="1" fill="#B45D7F" /><rect x="5" y="1" width="1" height="1" fill="#B77694" /><rect x="6" y="1" width="1" height="1" fill="#C8A5A9" /><rect x="7" y="1" width="1" height="1" fill="#E8B9A7" /><rect x="8" y="1" width="1" height="1" fill="#CB989D" /><rect x="9" y="1" width="1" height="1" fill="#D39695" /><rect x="0" y="2" width="1" height="1" fill="#6A3482" /><rect x="1" y="2" width="1" height="1" fill="#532152" /><rect x="2" y="2" width="1" height="1" fill="#662334" /><rect x="3" y="2" width="1" height="1" fill="#D4807E" /><rect x="4" y="2" width="1" height="1" fill="#F7B0AE" /><rect x="5" y="2" width="1" height="1" fill="#C99C9F" /><rect x="6" y="2" width="1" height="1" fill="#CCADAB" /><rect x="7" y="2" width="1" height="1" fill="#D5B5A8" /><rect x="8" y="2" width="1" height="1" fill="#D28A8D" /><rect x="9" y="2" width="1" height="1" fill="#D58A84" /><rect x="0" y="3" width="1" height="1" fill="#411248" /><rect x="1" y="3" width="1" height="1" fill="#6F2F47" /><rect x="2" y="3" width="1" height="1" fill="#E98E8D" /><rect x="3" y="3" width="1" height="1" fill="#E49888" /><rect x="4" y="3" width="1" height="1" fill="#DCB9A3" /><rect x="5" y="3" width="1" height="1" fill="#F3C7BA" /><rect x="6" y="3" width="1" height="1" fill="#CE8387" /><rect x="7" y="3" width="1" height="1" fill="#C78189" /><rect x="8" y="3" width="1" height="1" fill="#E47E7F" /><rect x="9" y="3" width="1" height="1" fill="#EC9F8D" /><rect x="0" y="4" width="1" height="1" fill="#82323F" /><rect x="1" y="4" width="1" height="1" fill="#DC7D79" /><rect x="2" y="4" width="1" height="1" fill="#F8B89C" /><rect x="3" y="4" width="1" height="1" fill="#DDBC9D" /><rect x="4" y="4" width="1" height="1" fill="#D8A296" /><rect x="5" y="4" width="1" height="1" fill="#C9777B" /><rect x="6" y="4" width="1" height="1" fill="#B95462" /><rect x="7" y="4" width="1" height="1" fill="#AE3048" /><rect x="8" y="4" width="1" height="1" fill="#A6364E" /><rect x="9" y="4" width="1" height="1" fill="#C5666E" /><rect x="0" y="5" width="1" height="1" fill="#D07D77" /><rect x="1" y="5" width="1" height="1" fill="#EFC4B4" /><rect x="2" y="5" width="1" height="1" fill="#EED8C3" /><rect x="3" y="5" width="1" height="1" fill="#B37C79" /><rect x="4" y="5" width="1" height="1" fill="#7F1430" /><rect x="5" y="5" width="1" height="1" fill="#72012F" /><rect x="6" y="5" width="1" height="1" fill="#670D31" /><rect x="7" y="5" width="1" height="1" fill="#92495C" /><rect x="8" y="5" width="1" height="1" fill="#81233D" /><rect x="9" y="5" width="1" height="1" fill="#AE364F" /><rect x="0" y="6" width="1" height="1" fill="#EBBCB4" /><rect x="1" y="6" width="1" height="1" fill="#E0CABD" /><rect x="2" y="6" width="1" height="1" fill="#C38789" /><rect x="3" y="6" width="1" height="1" fill="#A9344E" /><rect x="4" y="6" width="1" height="1" fill="#921A3E" /><rect x="5" y="6" width="1" height="1" fill="#8A1F4B" /><rect x="6" y="6" width="1" height="1" fill="#904161" /><rect x="7" y="6" width="1" height="1" fill="#DFBEC5" /><rect x="8" y="6" width="1" height="1" fill="#D2828D" /><rect x="9" y="6" width="1" height="1" fill="#B93C4C" /><rect x="0" y="7" width="1" height="1" fill="#D0B0A1" /><rect x="1" y="7" width="1" height="1" fill="#B6534E" /><rect x="2" y="7" width="1" height="1" fill="#CD4547" /><rect x="3" y="7" width="1" height="1" fill="#F97C82" /><rect x="4" y="7" width="1" height="1" fill="#EE8488" /><rect x="5" y="7" width="1" height="1" fill="#CC7472" /><rect x="6" y="7" width="1" height="1" fill="#CB7A77" /><rect x="7" y="7" width="1" height="1" fill="#E4858B" /><rect x="8" y="7" width="1" height="1" fill="#E39299" /><rect x="9" y="7" width="1" height="1" fill="#DB6971" /><rect x="0" y="8" width="1" height="1" fill="#912D45" /><rect x="1" y="8" width="1" height="1" fill="#C83B43" /><rect x="2" y="8" width="1" height="1" fill="#E56768" /><rect x="3" y="8" width="1" height="1" fill="#E57F83" /><rect x="4" y="8" width="1" height="1" fill="#EC928A" /><rect x="5" y="8" width="1" height="1" fill="#F2A396" /><rect x="6" y="8" width="1" height="1" fill="#EE9B97" /><rect x="7" y="8" width="1" height="1" fill="#E5988E" /><rect x="8" y="8" width="1" height="1" fill="#E38B8A" /><rect x="9" y="8" width="1" height="1" fill="#DF7278" /><rect x="0" y="9" width="1" height="1" fill="#8E243E" /><rect x="1" y="9" width="1" height="1" fill="#E25B61" /><rect x="2" y="9" width="1" height="1" fill="#DA6261" /><rect x="3" y="9" width="1" height="1" fill="#DE7177" /><rect x="4" y="9" width="1" height="1" fill="#E6857F" /><rect x="5" y="9" width="1" height="1" fill="#E79E8F" /><rect x="6" y="9" width="1" height="1" fill="#EC9F99" /><rect x="7" y="9" width="1" height="1" fill="#EB9890" /><rect x="8" y="9" width="1" height="1" fill="#E3827B" /><rect x="9" y="9" width="1" height="1" fill="#DF6969" />
  </g>
</svg>