<svg width="800" height="1000" version="1.1" xmlns="http://www.w3.org/2000/svg" xmlns:xlink="http://www.w3.org/1999/xlink">
  <defs>
      <linearGradient id="Gradient2" x1="0" x2="1" y1="0" y2="1">
        <stop offset="0%" stop-color="#2d3c96"/>
        <stop offset="100%" stop-color="#d53392"/>
      </linearGradient>
  </defs>
  <rect x="10" y="10" width="780" height="980" fill="url(#Gradient2)" rx="50" ry="50" stroke="#ffd700" stroke-width="20"/>
  <text x="400" y="920" width="780" text-anchor="middle" style="font: bold 200px 'Helvetica Neue'; fill: #ffd700">01051</text>

  <g transform="translate(80 80) scale(64)">
<rect x="0" y="0" width="1" height="1" fill="#d7a698" />
,<rect x="0" y="1" width="1" height="1" fill="#ce8f86" />
,<rect x="0" y="2" width="1" height="1" fill="#e5908b" />
,<rect x="0" y="3" width="1" height="1" fill="#fc9b95" />
,<rect x="0" y="4" width="1" height="1" fill="#e88780" />
,<rect x="0" y="5" width="1" height="1" fill="#c65857" />
,<rect x="0" y="6" width="1" height="1" fill="#cd4553" />
,<rect x="0" y="7" width="1" height="1" fill="#e14c62" />
,<rect x="0" y="8" width="1" height="1" fill="#da5c60" />
,<rect x="0" y="9" width="1" height="1" fill="#db5d61" />
,<rect x="1" y="0" width="1" height="1" fill="#c99a90" />
,<rect x="1" y="1" width="1" height="1" fill="#dca199" />
,<rect x="1" y="2" width="1" height="1" fill="#eaaea3" />
,<rect x="1" y="3" width="1" height="1" fill="#e6a393" />
,<rect x="1" y="4" width="1" height="1" fill="#f79a92" />
,<rect x="1" y="5" width="1" height="1" fill="#da7772" />
,<rect x="1" y="6" width="1" height="1" fill="#e07c7c" />
,<rect x="1" y="7" width="1" height="1" fill="#d6656b" />
,<rect x="1" y="8" width="1" height="1" fill="#de5461" />
,<rect x="1" y="9" width="1" height="1" fill="#d64c59" />
,<rect x="2" y="0" width="1" height="1" fill="#cbae9e" />
,<rect x="2" y="1" width="1" height="1" fill="#e2b6ab" />
,<rect x="2" y="2" width="1" height="1" fill="#eec3b2" />
,<rect x="2" y="3" width="1" height="1" fill="#e9b7a0" />
,<rect x="2" y="4" width="1" height="1" fill="#e99d8f" />
,<rect x="2" y="5" width="1" height="1" fill="#ffc0b4" />
,<rect x="2" y="6" width="1" height="1" fill="#fdd7c4" />
,<rect x="2" y="7" width="1" height="1" fill="#f6d2bc" />
,<rect x="2" y="8" width="1" height="1" fill="#f2c0c1" />
,<rect x="2" y="9" width="1" height="1" fill="#e9b7b8" />
,<rect x="3" y="0" width="1" height="1" fill="#ebaca3" />
,<rect x="3" y="1" width="1" height="1" fill="#f7b8af" />
,<rect x="3" y="2" width="1" height="1" fill="#f1b9a8" />
,<rect x="3" y="3" width="1" height="1" fill="#ebb89d" />
,<rect x="3" y="4" width="1" height="1" fill="#f7bead" />
,<rect x="3" y="5" width="1" height="1" fill="#ecafae" />
,<rect x="3" y="6" width="1" height="1" fill="#b67a7a" />
,<rect x="3" y="7" width="1" height="1" fill="#e3a79f" />
,<rect x="3" y="8" width="1" height="1" fill="#efcfc0" />
,<rect x="3" y="9" width="1" height="1" fill="#e8c8b9" />
,<rect x="4" y="0" width="1" height="1" fill="#f4b5a6" />
,<rect x="4" y="1" width="1" height="1" fill="#f9bdb2" />
,<rect x="4" y="2" width="1" height="1" fill="#f0c6ae" />
,<rect x="4" y="3" width="1" height="1" fill="#f0cdad" />
,<rect x="4" y="4" width="1" height="1" fill="#f6c1b3" />
,<rect x="4" y="5" width="1" height="1" fill="#772a3c" />
,<rect x="4" y="6" width="1" height="1" fill="#6f122d" />
,<rect x="4" y="7" width="1" height="1" fill="#e17487" />
,<rect x="4" y="8" width="1" height="1" fill="#e0817b" />
,<rect x="4" y="9" width="1" height="1" fill="#dc7d77" />
,<rect x="5" y="0" width="1" height="1" fill="#e7b2a2" />
,<rect x="5" y="1" width="1" height="1" fill="#ffcac4" />
,<rect x="5" y="2" width="1" height="1" fill="#fdddc6" />
,<rect x="5" y="3" width="1" height="1" fill="#ffe8c6" />
,<rect x="5" y="4" width="1" height="1" fill="#ce8a87" />
,<rect x="5" y="5" width="1" height="1" fill="#6f1b3c" />
,<rect x="5" y="6" width="1" height="1" fill="#ae6181" />
,<rect x="5" y="7" width="1" height="1" fill="#cf687d" />
,<rect x="5" y="8" width="1" height="1" fill="#dd6169" />
,<rect x="5" y="9" width="1" height="1" fill="#e46870" />
,<rect x="6" y="0" width="1" height="1" fill="#ab515a" />
,<rect x="6" y="1" width="1" height="1" fill="#e87b90" />
,<rect x="6" y="2" width="1" height="1" fill="#ffb4b4" />
,<rect x="6" y="3" width="1" height="1" fill="#ffd5c2" />
,<rect x="6" y="4" width="1" height="1" fill="#b35962" />
,<rect x="6" y="5" width="1" height="1" fill="#781c43" />
,<rect x="6" y="6" width="1" height="1" fill="#a65576" />
,<rect x="6" y="7" width="1" height="1" fill="#b34659" />
,<rect x="6" y="8" width="1" height="1" fill="#e26068" />
,<rect x="6" y="9" width="1" height="1" fill="#e5636b" />
,<rect x="7" y="0" width="1" height="1" fill="#7a303f" />
,<rect x="7" y="1" width="1" height="1" fill="#69001d" />
,<rect x="7" y="2" width="1" height="1" fill="#98293c" />
,<rect x="7" y="3" width="1" height="1" fill="#ba5251" />
,<rect x="7" y="4" width="1" height="1" fill="#b04454" />
,<rect x="7" y="5" width="1" height="1" fill="#71123a" />
,<rect x="7" y="6" width="1" height="1" fill="#560623" />
,<rect x="7" y="7" width="1" height="1" fill="#85292e" />
,<rect x="7" y="8" width="1" height="1" fill="#a63f50" />
,<rect x="7" y="9" width="1" height="1" fill="#922b3c" />
,<rect x="8" y="0" width="1" height="1" fill="#945779" />
,<rect x="8" y="1" width="1" height="1" fill="#5c1c41" />
,<rect x="8" y="2" width="1" height="1" fill="#3a0124" />
,<rect x="8" y="3" width="1" height="1" fill="#3c0024" />
,<rect x="8" y="4" width="1" height="1" fill="#560830" />
,<rect x="8" y="5" width="1" height="1" fill="#67173e" />
,<rect x="8" y="6" width="1" height="1" fill="#5f1536" />
,<rect x="8" y="7" width="1" height="1" fill="#611434" />
,<rect x="8" y="8" width="1" height="1" fill="#63153c" />
,<rect x="8" y="9" width="1" height="1" fill="#65173e" />
,<rect x="9" y="0" width="1" height="1" fill="#c47b8f" />
,<rect x="9" y="1" width="1" height="1" fill="#ba7c91" />
,<rect x="9" y="2" width="1" height="1" fill="#9f607b" />
,<rect x="9" y="3" width="1" height="1" fill="#7c365a" />
,<rect x="9" y="4" width="1" height="1" fill="#601c45" />
,<rect x="9" y="5" width="1" height="1" fill="#621645" />
,<rect x="9" y="6" width="1" height="1" fill="#691d4e" />
,<rect x="9" y="7" width="1" height="1" fill="#642554" />
,<rect x="9" y="8" width="1" height="1" fill="#6b1d44" />
,<rect x="9" y="9" width="1" height="1" fill="#6c1e45" />

  </g>
</svg>