<svg width="800" height="1000" version="1.1" xmlns="http://www.w3.org/2000/svg" xmlns:xlink="http://www.w3.org/1999/xlink">
  <defs>
      <linearGradient id="Gradient2" x1="0" x2="1" y1="0" y2="1">
        <stop offset="0%" stop-color="#2d3c96"/>
        <stop offset="100%" stop-color="#d53392"/>
      </linearGradient>
  </defs>
  <rect x="10" y="10" width="780" height="980" fill="url(#Gradient2)" rx="50" ry="50" stroke="#ffd700" stroke-width="20"/>
  <text x="400" y="920" width="780" text-anchor="middle" style="font: bold 200px 'Helvetica Neue'; fill: #ffd700">01053</text>

  <g transform="translate(80 80) scale(64)">
<rect x="0" y="0" width="1" height="1" fill="#DA9787" /><rect x="1" y="0" width="1" height="1" fill="#D99387" /><rect x="2" y="0" width="1" height="1" fill="#D69084" /><rect x="3" y="0" width="1" height="1" fill="#D48E82" /><rect x="4" y="0" width="1" height="1" fill="#D48E82" /><rect x="5" y="0" width="1" height="1" fill="#D58C83" /><rect x="6" y="0" width="1" height="1" fill="#D48B82" /><rect x="7" y="0" width="1" height="1" fill="#D28980" /><rect x="8" y="0" width="1" height="1" fill="#CC887D" /><rect x="9" y="0" width="1" height="1" fill="#CB877C" /><rect x="0" y="1" width="1" height="1" fill="#CE8B7B" /><rect x="1" y="1" width="1" height="1" fill="#CF8B7E" /><rect x="2" y="1" width="1" height="1" fill="#D28E81" /><rect x="3" y="1" width="1" height="1" fill="#D59184" /><rect x="4" y="1" width="1" height="1" fill="#D79187" /><rect x="5" y="1" width="1" height="1" fill="#D58F85" /><rect x="6" y="1" width="1" height="1" fill="#D38D85" /><rect x="7" y="1" width="1" height="1" fill="#D38D85" /><rect x="8" y="1" width="1" height="1" fill="#D38980" /><rect x="9" y="1" width="1" height="1" fill="#CD837A" /><rect x="0" y="2" width="1" height="1" fill="#CB8979" /><rect x="1" y="2" width="1" height="1" fill="#C98779" /><rect x="2" y="2" width="1" height="1" fill="#C78577" /><rect x="3" y="2" width="1" height="1" fill="#C8867A" /><rect x="4" y="2" width="1" height="1" fill="#CB897D" /><rect x="5" y="2" width="1" height="1" fill="#CD8980" /><rect x="6" y="2" width="1" height="1" fill="#CD8980" /><rect x="7" y="2" width="1" height="1" fill="#CD8881" /><rect x="8" y="2" width="1" height="1" fill="#D5877D" /><rect x="9" y="2" width="1" height="1" fill="#D18379" /><rect x="0" y="3" width="1" height="1" fill="#D18F7F" /><rect x="1" y="3" width="1" height="1" fill="#D49284" /><rect x="2" y="3" width="1" height="1" fill="#D29082" /><rect x="3" y="3" width="1" height="1" fill="#CB897D" /><rect x="4" y="3" width="1" height="1" fill="#C48178" /><rect x="5" y="3" width="1" height="1" fill="#BF7F76" /><rect x="6" y="3" width="1" height="1" fill="#BD7C76" /><rect x="7" y="3" width="1" height="1" fill="#BB7A74" /><rect x="8" y="3" width="1" height="1" fill="#C77C76" /><rect x="9" y="3" width="1" height="1" fill="#CD827C" /><rect x="0" y="4" width="1" height="1" fill="#CC8979" /><rect x="1" y="4" width="1" height="1" fill="#D49083" /><rect x="2" y="4" width="1" height="1" fill="#D59387" /><rect x="3" y="4" width="1" height="1" fill="#CD8A81" /><rect x="4" y="4" width="1" height="1" fill="#C5857C" /><rect x="5" y="4" width="1" height="1" fill="#C78680" /><rect x="6" y="4" width="1" height="1" fill="#C88783" /><rect x="7" y="4" width="1" height="1" fill="#C58681" /><rect x="8" y="4" width="1" height="1" fill="#BE7B84" /><rect x="9" y="4" width="1" height="1" fill="#B4717A" /><rect x="0" y="5" width="1" height="1" fill="#CA8576" /><rect x="1" y="5" width="1" height="1" fill="#CC867A" /><rect x="2" y="5" width="1" height="1" fill="#CB857B" /><rect x="3" y="5" width="1" height="1" fill="#C9857C" /><rect x="4" y="5" width="1" height="1" fill="#CB8882" /><rect x="5" y="5" width="1" height="1" fill="#CC8B87" /><rect x="6" y="5" width="1" height="1" fill="#C68583" /><rect x="7" y="5" width="1" height="1" fill="#BD7B7C" /><rect x="8" y="5" width="1" height="1" fill="#AF7180" /><rect x="9" y="5" width="1" height="1" fill="#A86A79" /><rect x="0" y="6" width="1" height="1" fill="#D3897C" /><rect x="1" y="6" width="1" height="1" fill="#CE867A" /><rect x="2" y="6" width="1" height="1" fill="#CD847B" /><rect x="3" y="6" width="1" height="1" fill="#CC857F" /><rect x="4" y="6" width="1" height="1" fill="#C9847F" /><rect x="5" y="6" width="1" height="1" fill="#BE7A79" /><rect x="6" y="6" width="1" height="1" fill="#B57172" /><rect x="7" y="6" width="1" height="1" fill="#AE6C6D" /><rect x="8" y="6" width="1" height="1" fill="#B57C71" /><rect x="9" y="6" width="1" height="1" fill="#C68D82" /><rect x="0" y="7" width="1" height="1" fill="#D08477" /><rect x="1" y="7" width="1" height="1" fill="#CD8378" /><rect x="2" y="7" width="1" height="1" fill="#CD837A" /><rect x="3" y="7" width="1" height="1" fill="#C87F79" /><rect x="4" y="7" width="1" height="1" fill="#B7706E" /><rect x="5" y="7" width="1" height="1" fill="#B16B6B" /><rect x="6" y="7" width="1" height="1" fill="#C68183" /><rect x="7" y="7" width="1" height="1" fill="#E5A0A3" /><rect x="8" y="7" width="1" height="1" fill="#EAB486" /><rect x="9" y="7" width="1" height="1" fill="#F0BA8C" /><rect x="0" y="8" width="1" height="1" fill="#C88081" /><rect x="1" y="8" width="1" height="1" fill="#C27D76" /><rect x="2" y="8" width="1" height="1" fill="#C58182" /><rect x="3" y="8" width="1" height="1" fill="#B06C79" /><rect x="4" y="8" width="1" height="1" fill="#AE6D73" /><rect x="5" y="8" width="1" height="1" fill="#DEA588" /><rect x="6" y="8" width="1" height="1" fill="#FBC98E" /><rect x="7" y="8" width="1" height="1" fill="#F2C37D" /><rect x="8" y="8" width="1" height="1" fill="#E8B681" /><rect x="9" y="8" width="1" height="1" fill="#EAB78C" /><rect x="0" y="9" width="1" height="1" fill="#C37D75" /><rect x="1" y="9" width="1" height="1" fill="#C47F78" /><rect x="2" y="9" width="1" height="1" fill="#B57172" /><rect x="3" y="9" width="1" height="1" fill="#B3726E" /><rect x="4" y="9" width="1" height="1" fill="#E2A787" /><rect x="5" y="9" width="1" height="1" fill="#FBC887" /><rect x="6" y="9" width="1" height="1" fill="#ECBB79" /><rect x="7" y="9" width="1" height="1" fill="#F0BE8D" /><rect x="8" y="9" width="1" height="1" fill="#EDC496" /><rect x="9" y="9" width="1" height="1" fill="#EFC4A1" />
  </g>
</svg>