<svg width="800" height="1000" xmlns="http://www.w3.org/2000/svg"><defs><linearGradient id="g" x1="0" x2="1" y1="0" y2="1"><stop offset="0%" stop-color="#2d3c96"/><stop offset="100%" stop-color="#d53392"/></linearGradient></defs><rect x="10" y="10" width="780" height="980" fill="url(#g)" rx="50" ry="50" stroke="gold" stroke-width="20"/><text x="400" y="920" width="780" text-anchor="middle" style="font:bold 200px 'Helvetica Neue';fill:gold">01076</text><g transform="translate(80 80) scale(64)"><rect x="0" y="0" width="1" height="1" fill="#1f1341" /><rect x="0" y="1" width="1" height="1" fill="#271c4b" /><rect x="0" y="2" width="1" height="1" fill="#201546" /><rect x="0" y="3" width="1" height="1" fill="#211744" /><rect x="0" y="4" width="1" height="1" fill="#60567a" /><rect x="0" y="5" width="1" height="1" fill="#96889f" /><rect x="0" y="6" width="1" height="1" fill="#7a676b" /><rect x="0" y="7" width="1" height="1" fill="#6a5047" /><rect x="0" y="8" width="1" height="1" fill="#6d4a36" /><rect x="0" y="9" width="1" height="1" fill="#572f16" /><rect x="1" y="0" width="1" height="1" fill="#241845" /><rect x="1" y="1" width="1" height="1" fill="#160a38" /><rect x="1" y="2" width="1" height="1" fill="#211646" /><rect x="1" y="3" width="1" height="1" fill="#241a46" /><rect x="1" y="4" width="1" height="1" fill="#201439" /><rect x="1" y="5" width="1" height="1" fill="#a99bb3" /><rect x="1" y="6" width="1" height="1" fill="#5b494f" /><rect x="1" y="7" width="1" height="1" fill="#563c35" /><rect x="1" y="8" width="1" height="1" fill="#72503f" /><rect x="1" y="9" width="1" height="1" fill="#714a34" /><rect x="2" y="0" width="1" height="1" fill="#22163f" /><rect x="2" y="1" width="1" height="1" fill="#261b45" /><rect x="2" y="2" width="1" height="1" fill="#281c4a" /><rect x="2" y="3" width="1" height="1" fill="#251a45" /><rect x="2" y="4" width="1" height="1" fill="#1f1237" /><rect x="2" y="5" width="1" height="1" fill="#6c5c77" /><rect x="2" y="6" width="1" height="1" fill="#624f5b" /><rect x="2" y="7" width="1" height="1" fill="#6d5453" /><rect x="2" y="8" width="1" height="1" fill="#4b2a20" /><rect x="2" y="9" width="1" height="1" fill="#623d2e" /><rect x="3" y="0" width="1" height="1" fill="#1c0e38" /><rect x="3" y="1" width="1" height="1" fill="#281a46" /><rect x="3" y="2" width="1" height="1" fill="#231645" /><rect x="3" y="3" width="1" height="1" fill="#271a49" /><rect x="3" y="4" width="1" height="1" fill="#2e204c" /><rect x="3" y="5" width="1" height="1" fill="#39284c" /><rect x="3" y="6" width="1" height="1" fill="#331f38" /><rect x="3" y="7" width="1" height="1" fill="#482e3f" /><rect x="3" y="8" width="1" height="1" fill="#593841" /><rect x="3" y="9" width="1" height="1" fill="#775357" /><rect x="4" y="0" width="1" height="1" fill="#251543" /><rect x="4" y="1" width="1" height="1" fill="#231343" /><rect x="4" y="2" width="1" height="1" fill="#221248" /><rect x="4" y="3" width="1" height="1" fill="#26164e" /><rect x="4" y="4" width="1" height="1" fill="#291851" /><rect x="4" y="5" width="1" height="1" fill="#38255b" /><rect x="4" y="6" width="1" height="1" fill="#321c4c" /><rect x="4" y="7" width="1" height="1" fill="#391e4a" /><rect x="4" y="8" width="1" height="1" fill="#49274f" /><rect x="4" y="9" width="1" height="1" fill="#5b375d" /><rect x="5" y="0" width="1" height="1" fill="#241240" /><rect x="5" y="1" width="1" height="1" fill="#271546" /><rect x="5" y="2" width="1" height="1" fill="#28164d" /><rect x="5" y="3" width="1" height="1" fill="#291753" /><rect x="5" y="4" width="1" height="1" fill="#301d5d" /><rect x="5" y="5" width="1" height="1" fill="#281355" /><rect x="5" y="6" width="1" height="1" fill="#3c2465" /><rect x="5" y="7" width="1" height="1" fill="#3b1f5f" /><rect x="5" y="8" width="1" height="1" fill="#401f5e" /><rect x="5" y="9" width="1" height="1" fill="#452160" /><rect x="6" y="0" width="1" height="1" fill="#27153e" /><rect x="6" y="1" width="1" height="1" fill="#25133f" /><rect x="6" y="2" width="1" height="1" fill="#281649" /><rect x="6" y="3" width="1" height="1" fill="#2b1852" /><rect x="6" y="4" width="1" height="1" fill="#301b5d" /><rect x="6" y="5" width="1" height="1" fill="#311b62" /><rect x="6" y="6" width="1" height="1" fill="#2f1761" /><rect x="6" y="7" width="1" height="1" fill="#3d226e" /><rect x="6" y="8" width="1" height="1" fill="#472876" /><rect x="6" y="9" width="1" height="1" fill="#482776" /><rect x="7" y="0" width="1" height="1" fill="#27143b" /><rect x="7" y="1" width="1" height="1" fill="#24113c" /><rect x="7" y="2" width="1" height="1" fill="#301d4e" /><rect x="7" y="3" width="1" height="1" fill="#28154e" /><rect x="7" y="4" width="1" height="1" fill="#2a1557" /><rect x="7" y="5" width="1" height="1" fill="#321c65" /><rect x="7" y="6" width="1" height="1" fill="#3b2372" /><rect x="7" y="7" width="1" height="1" fill="#371d70" /><rect x="7" y="8" width="1" height="1" fill="#3c1e74" /><rect x="7" y="9" width="1" height="1" fill="#42237a" /><rect x="8" y="0" width="1" height="1" fill="#27133d" /><rect x="8" y="1" width="1" height="1" fill="#281440" /><rect x="8" y="2" width="1" height="1" fill="#2a1648" /><rect x="8" y="3" width="1" height="1" fill="#2d1851" /><rect x="8" y="4" width="1" height="1" fill="#2f1a5c" /><rect x="8" y="5" width="1" height="1" fill="#331d66" /><rect x="8" y="6" width="1" height="1" fill="#372071" /><rect x="8" y="7" width="1" height="1" fill="#3a2176" /><rect x="8" y="8" width="1" height="1" fill="#3f247b" /><rect x="8" y="9" width="1" height="1" fill="#40257d" /><rect x="9" y="0" width="1" height="1" fill="#28133e" /><rect x="9" y="1" width="1" height="1" fill="#281441" /><rect x="9" y="2" width="1" height="1" fill="#2b1649" /><rect x="9" y="3" width="1" height="1" fill="#2d1851" /><rect x="9" y="4" width="1" height="1" fill="#301b5c" /><rect x="9" y="5" width="1" height="1" fill="#341e67" /><rect x="9" y="6" width="1" height="1" fill="#372072" /><rect x="9" y="7" width="1" height="1" fill="#392178" /><rect x="9" y="8" width="1" height="1" fill="#452b83" /><rect x="9" y="9" width="1" height="1" fill="#472d86" /></g></svg>