<svg width="800" height="1000" xmlns="http://www.w3.org/2000/svg"><defs><linearGradient id="g" x1="0" x2="1" y1="0" y2="1"><stop offset="0%" stop-color="#2d3c96"/><stop offset="100%" stop-color="#d53392"/></linearGradient></defs><rect x="10" y="10" width="780" height="980" fill="url(#g)" rx="50" ry="50" stroke="gold" stroke-width="20"/><text x="400" y="920" width="780" text-anchor="middle" style="font:bold 200px 'Helvetica Neue';fill:gold">01077</text><g transform="translate(80 80) scale(64)"><rect x="0" y="0" width="1" height="1" fill="#24123a" /><rect x="0" y="1" width="1" height="1" fill="#2b1546" /><rect x="0" y="2" width="1" height="1" fill="#311255" /><rect x="0" y="3" width="1" height="1" fill="#331463" /><rect x="0" y="4" width="1" height="1" fill="#341b71" /><rect x="0" y="5" width="1" height="1" fill="#341c79" /><rect x="0" y="6" width="1" height="1" fill="#371d81" /><rect x="0" y="7" width="1" height="1" fill="#3d2388" /><rect x="0" y="8" width="1" height="1" fill="#442b8f" /><rect x="0" y="9" width="1" height="1" fill="#462e90" /><rect x="1" y="0" width="1" height="1" fill="#291845" /><rect x="1" y="1" width="1" height="1" fill="#2b164a" /><rect x="1" y="2" width="1" height="1" fill="#301457" /><rect x="1" y="3" width="1" height="1" fill="#321664" /><rect x="1" y="4" width="1" height="1" fill="#2f196d" /><rect x="1" y="5" width="1" height="1" fill="#36217d" /><rect x="1" y="6" width="1" height="1" fill="#3d2689" /><rect x="1" y="7" width="1" height="1" fill="#3b2389" /><rect x="1" y="8" width="1" height="1" fill="#463095" /><rect x="1" y="9" width="1" height="1" fill="#442e93" /><rect x="2" y="0" width="1" height="1" fill="#211248" /><rect x="2" y="1" width="1" height="1" fill="#23124d" /><rect x="2" y="2" width="1" height="1" fill="#2c155a" /><rect x="2" y="3" width="1" height="1" fill="#301a66" /><rect x="2" y="4" width="1" height="1" fill="#302072" /><rect x="2" y="5" width="1" height="1" fill="#34267f" /><rect x="2" y="6" width="1" height="1" fill="#3a298a" /><rect x="2" y="7" width="1" height="1" fill="#3b288f" /><rect x="2" y="8" width="1" height="1" fill="#46339d" /><rect x="2" y="9" width="1" height="1" fill="#4e3ba6" /><rect x="3" y="0" width="1" height="1" fill="#23154f" /><rect x="3" y="1" width="1" height="1" fill="#281856" /><rect x="3" y="2" width="1" height="1" fill="#2c1960" /><rect x="3" y="3" width="1" height="1" fill="#301d6c" /><rect x="3" y="4" width="1" height="1" fill="#31247b" /><rect x="3" y="5" width="1" height="1" fill="#2f2381" /><rect x="3" y="6" width="1" height="1" fill="#34238b" /><rect x="3" y="7" width="1" height="1" fill="#402d9b" /><rect x="3" y="8" width="1" height="1" fill="#4c38aa" /><rect x="3" y="9" width="1" height="1" fill="#543fb4" /><rect x="4" y="0" width="1" height="1" fill="#25184f" /><rect x="4" y="1" width="1" height="1" fill="#261855" /><rect x="4" y="2" width="1" height="1" fill="#2b1962" /><rect x="4" y="3" width="1" height="1" fill="#2f1d72" /><rect x="4" y="4" width="1" height="1" fill="#302384" /><rect x="4" y="5" width="1" height="1" fill="#372894" /><rect x="4" y="6" width="1" height="1" fill="#432fa3" /><rect x="4" y="7" width="1" height="1" fill="#4c34ae" /><rect x="4" y="8" width="1" height="1" fill="#543ab9" /><rect x="4" y="9" width="1" height="1" fill="#573cbe" /><rect x="5" y="0" width="1" height="1" fill="#24164a" /><rect x="5" y="1" width="1" height="1" fill="#23134f" /><rect x="5" y="2" width="1" height="1" fill="#2e1b66" /><rect x="5" y="3" width="1" height="1" fill="#33207a" /><rect x="5" y="4" width="1" height="1" fill="#32228b" /><rect x="5" y="5" width="1" height="1" fill="#4231a2" /><rect x="5" y="6" width="1" height="1" fill="#523aac" /><rect x="5" y="7" width="1" height="1" fill="#4f32a5" /><rect x="5" y="8" width="1" height="1" fill="#6748ba" /><rect x="5" y="9" width="1" height="1" fill="#7453c6" /><rect x="6" y="0" width="1" height="1" fill="#2a1849" /><rect x="6" y="1" width="1" height="1" fill="#2d1954" /><rect x="6" y="2" width="1" height="1" fill="#331c6b" /><rect x="6" y="3" width="1" height="1" fill="#392282" /><rect x="6" y="4" width="1" height="1" fill="#3d2896" /><rect x="6" y="5" width="1" height="1" fill="#452f9d" /><rect x="6" y="6" width="1" height="1" fill="#533697" /><rect x="6" y="7" width="1" height="1" fill="#5f3d93" /><rect x="6" y="8" width="1" height="1" fill="#7d58a5" /><rect x="6" y="9" width="1" height="1" fill="#a781ca" /><rect x="7" y="0" width="1" height="1" fill="#291444" /><rect x="7" y="1" width="1" height="1" fill="#321c56" /><rect x="7" y="2" width="1" height="1" fill="#2e1566" /><rect x="7" y="3" width="1" height="1" fill="#371f7f" /><rect x="7" y="4" width="1" height="1" fill="#49339e" /><rect x="7" y="5" width="1" height="1" fill="#4a3293" /><rect x="7" y="6" width="1" height="1" fill="#5e3f83" /><rect x="7" y="7" width="1" height="1" fill="#8d6997" /><rect x="7" y="8" width="1" height="1" fill="#b28aaa" /><rect x="7" y="9" width="1" height="1" fill="#b78ea6" /><rect x="8" y="0" width="1" height="1" fill="#2d184a" /><rect x="8" y="1" width="1" height="1" fill="#28114e" /><rect x="8" y="2" width="1" height="1" fill="#3b2274" /><rect x="8" y="3" width="1" height="1" fill="#341c7a" /><rect x="8" y="4" width="1" height="1" fill="#463192" /><rect x="8" y="5" width="1" height="1" fill="#503985" /><rect x="8" y="6" width="1" height="1" fill="#6e506c" /><rect x="8" y="7" width="1" height="1" fill="#9d7975" /><rect x="8" y="8" width="1" height="1" fill="#764d38" /><rect x="8" y="9" width="1" height="1" fill="#74482b" /><rect x="9" y="0" width="1" height="1" fill="#2c1549" /><rect x="9" y="1" width="1" height="1" fill="#2f1856" /><rect x="9" y="2" width="1" height="1" fill="#361d70" /><rect x="9" y="3" width="1" height="1" fill="#3e2683" /><rect x="9" y="4" width="1" height="1" fill="#47328f" /><rect x="9" y="5" width="1" height="1" fill="#4f3979" /><rect x="9" y="6" width="1" height="1" fill="#7e6069" /><rect x="9" y="7" width="1" height="1" fill="#785438" /><rect x="9" y="8" width="1" height="1" fill="#7a5020" /><rect x="9" y="9" width="1" height="1" fill="#764910" /></g></svg>