<svg width="800" height="1000" xmlns="http://www.w3.org/2000/svg"><defs><linearGradient id="g" x1="0" x2="1" y1="0" y2="1"><stop offset="0%" stop-color="#2d3c96"/><stop offset="100%" stop-color="#d53392"/></linearGradient></defs><rect x="10" y="10" width="780" height="980" fill="url(#g)" rx="50" ry="50" stroke="gold" stroke-width="20"/><text x="400" y="920" width="780" text-anchor="middle" style="font:bold 200px 'Helvetica Neue';fill:gold">01075</text><g transform="translate(80 80) scale(64)"><rect x="0" y="0" width="1" height="1" fill="#2f194a" /><rect x="0" y="1" width="1" height="1" fill="#301b4e" /><rect x="0" y="2" width="1" height="1" fill="#2d1951" /><rect x="0" y="3" width="1" height="1" fill="#2d1950" /><rect x="0" y="4" width="1" height="1" fill="#331d4e" /><rect x="0" y="5" width="1" height="1" fill="#382355" /><rect x="0" y="6" width="1" height="1" fill="#2e1e57" /><rect x="0" y="7" width="1" height="1" fill="#352661" /><rect x="0" y="8" width="1" height="1" fill="#412f69" /><rect x="0" y="9" width="1" height="1" fill="#443169" /><rect x="1" y="0" width="1" height="1" fill="#2d1a47" /><rect x="1" y="1" width="1" height="1" fill="#291645" /><rect x="1" y="2" width="1" height="1" fill="#271547" /><rect x="1" y="3" width="1" height="1" fill="#2c184b" /><rect x="1" y="4" width="1" height="1" fill="#2f1948" /><rect x="1" y="5" width="1" height="1" fill="#2a1445" /><rect x="1" y="6" width="1" height="1" fill="#311f58" /><rect x="1" y="7" width="1" height="1" fill="#2e1e5a" /><rect x="1" y="8" width="1" height="1" fill="#332159" /><rect x="1" y="9" width="1" height="1" fill="#45346a" /><rect x="2" y="0" width="1" height="1" fill="#291b3f" /><rect x="2" y="1" width="1" height="1" fill="#28193f" /><rect x="2" y="2" width="1" height="1" fill="#2d1d45" /><rect x="2" y="3" width="1" height="1" fill="#26143d" /><rect x="2" y="4" width="1" height="1" fill="#311a45" /><rect x="2" y="5" width="1" height="1" fill="#2f1848" /><rect x="2" y="6" width="1" height="1" fill="#2e1953" /><rect x="2" y="7" width="1" height="1" fill="#33215c" /><rect x="2" y="8" width="1" height="1" fill="#35255a" /><rect x="2" y="9" width="1" height="1" fill="#3b2c5d" /><rect x="3" y="0" width="1" height="1" fill="#201433" /><rect x="3" y="1" width="1" height="1" fill="#261a39" /><rect x="3" y="2" width="1" height="1" fill="#291a3a" /><rect x="3" y="3" width="1" height="1" fill="#271538" /><rect x="3" y="4" width="1" height="1" fill="#2b163e" /><rect x="3" y="5" width="1" height="1" fill="#301a49" /><rect x="3" y="6" width="1" height="1" fill="#2e1b52" /><rect x="3" y="7" width="1" height="1" fill="#2a1b52" /><rect x="3" y="8" width="1" height="1" fill="#665d8a" /><rect x="3" y="9" width="1" height="1" fill="#413b62" /><rect x="4" y="0" width="1" height="1" fill="#221634" /><rect x="4" y="1" width="1" height="1" fill="#271938" /><rect x="4" y="2" width="1" height="1" fill="#22122f" /><rect x="4" y="3" width="1" height="1" fill="#332141" /><rect x="4" y="4" width="1" height="1" fill="#27143b" /><rect x="4" y="5" width="1" height="1" fill="#281743" /><rect x="4" y="6" width="1" height="1" fill="#302254" /><rect x="4" y="7" width="1" height="1" fill="#1b1441" /><rect x="4" y="8" width="1" height="1" fill="#9c9fc0" /><rect x="4" y="9" width="1" height="1" fill="#5e657f" /><rect x="5" y="0" width="1" height="1" fill="#281b3d" /><rect x="5" y="1" width="1" height="1" fill="#261839" /><rect x="5" y="2" width="1" height="1" fill="#281836" /><rect x="5" y="3" width="1" height="1" fill="#2d1c3d" /><rect x="5" y="4" width="1" height="1" fill="#2b1c42" /><rect x="5" y="5" width="1" height="1" fill="#2b1c46" /><rect x="5" y="6" width="1" height="1" fill="#251541" /><rect x="5" y="7" width="1" height="1" fill="#23183e" /><rect x="5" y="8" width="1" height="1" fill="#8e8da5" /><rect x="5" y="9" width="1" height="1" fill="#4f5365" /><rect x="6" y="0" width="1" height="1" fill="#21163e" /><rect x="6" y="1" width="1" height="1" fill="#21143b" /><rect x="6" y="2" width="1" height="1" fill="#2b1b40" /><rect x="6" y="3" width="1" height="1" fill="#1d0e34" /><rect x="6" y="4" width="1" height="1" fill="#2a1e46" /><rect x="6" y="5" width="1" height="1" fill="#26173f" /><rect x="6" y="6" width="1" height="1" fill="#341d42" /><rect x="6" y="7" width="1" height="1" fill="#2e1534" /><rect x="6" y="8" width="1" height="1" fill="#9f8a9f" /><rect x="6" y="9" width="1" height="1" fill="#544150" /><rect x="7" y="0" width="1" height="1" fill="#1f113e" /><rect x="7" y="1" width="1" height="1" fill="#251542" /><rect x="7" y="2" width="1" height="1" fill="#271641" /><rect x="7" y="3" width="1" height="1" fill="#251740" /><rect x="7" y="4" width="1" height="1" fill="#241c43" /><rect x="7" y="5" width="1" height="1" fill="#14092b" /><rect x="7" y="6" width="1" height="1" fill="#69516a" /><rect x="7" y="7" width="1" height="1" fill="#2b0c1e" /><rect x="7" y="8" width="1" height="1" fill="#a48592" /><rect x="7" y="9" width="1" height="1" fill="#3d1d28" /><rect x="8" y="0" width="1" height="1" fill="#261142" /><rect x="8" y="1" width="1" height="1" fill="#281344" /><rect x="8" y="2" width="1" height="1" fill="#261343" /><rect x="8" y="3" width="1" height="1" fill="#261945" /><rect x="8" y="4" width="1" height="1" fill="#202043" /><rect x="8" y="5" width="1" height="1" fill="#b4b2c9" /><rect x="8" y="6" width="1" height="1" fill="#5a464f" /><rect x="8" y="7" width="1" height="1" fill="#35181a" /><rect x="8" y="8" width="1" height="1" fill="#856568" /><rect x="8" y="9" width="1" height="1" fill="#3e1d20" /><rect x="9" y="0" width="1" height="1" fill="#260e40" /><rect x="9" y="1" width="1" height="1" fill="#291245" /><rect x="9" y="2" width="1" height="1" fill="#271244" /><rect x="9" y="3" width="1" height="1" fill="#180c39" /><rect x="9" y="4" width="1" height="1" fill="#b4b7d9" /><rect x="9" y="5" width="1" height="1" fill="#808295" /><rect x="9" y="6" width="1" height="1" fill="#7c6b6b" /><rect x="9" y="7" width="1" height="1" fill="#4e312a" /><rect x="9" y="8" width="1" height="1" fill="#4e2e2b" /><rect x="9" y="9" width="1" height="1" fill="#2a0807" /></g></svg>