<svg width="800" height="1000" xmlns="http://www.w3.org/2000/svg"><defs><linearGradient id="g" x1="0" x2="1" y1="0" y2="1"><stop offset="0%" stop-color="#2d3c96"/><stop offset="100%" stop-color="#d53392"/></linearGradient></defs><rect x="10" y="10" width="780" height="980" fill="url(#g)" rx="50" ry="50" stroke="gold" stroke-width="20"/><text x="400" y="920" width="780" text-anchor="middle" style="font:bold 200px 'Helvetica Neue';fill:gold">01081</text><g transform="translate(80 80) scale(64)"><rect x="0" y="0" width="1" height="1" fill="#281652" /><rect x="0" y="1" width="1" height="1" fill="#2b195c" /><rect x="0" y="2" width="1" height="1" fill="#301e6d" /><rect x="0" y="3" width="1" height="1" fill="#362481" /><rect x="0" y="4" width="1" height="1" fill="#3f2c99" /><rect x="0" y="5" width="1" height="1" fill="#4632ab" /><rect x="0" y="6" width="1" height="1" fill="#4c38ba" /><rect x="0" y="7" width="1" height="1" fill="#523ec5" /><rect x="0" y="8" width="1" height="1" fill="#5742cb" /><rect x="0" y="9" width="1" height="1" fill="#624dd6" /><rect x="1" y="0" width="1" height="1" fill="#25134e" /><rect x="1" y="1" width="1" height="1" fill="#281658" /><rect x="1" y="2" width="1" height="1" fill="#2b1967" /><rect x="1" y="3" width="1" height="1" fill="#301e7a" /><rect x="1" y="4" width="1" height="1" fill="#392692" /><rect x="1" y="5" width="1" height="1" fill="#3f2ba4" /><rect x="1" y="6" width="1" height="1" fill="#432fb2" /><rect x="1" y="7" width="1" height="1" fill="#4934bd" /><rect x="1" y="8" width="1" height="1" fill="#503bc5" /><rect x="1" y="9" width="1" height="1" fill="#5742cc" /><rect x="2" y="0" width="1" height="1" fill="#26144d" /><rect x="2" y="1" width="1" height="1" fill="#291857" /><rect x="2" y="2" width="1" height="1" fill="#2b1964" /><rect x="2" y="3" width="1" height="1" fill="#301d77" /><rect x="2" y="4" width="1" height="1" fill="#38248f" /><rect x="2" y="5" width="1" height="1" fill="#3e29a2" /><rect x="2" y="6" width="1" height="1" fill="#422db0" /><rect x="2" y="7" width="1" height="1" fill="#4732bc" /><rect x="2" y="8" width="1" height="1" fill="#4e39c5" /><rect x="2" y="9" width="1" height="1" fill="#745fec" /><rect x="3" y="0" width="1" height="1" fill="#27154e" /><rect x="3" y="1" width="1" height="1" fill="#2c1958" /><rect x="3" y="2" width="1" height="1" fill="#2e1b66" /><rect x="3" y="3" width="1" height="1" fill="#321e77" /><rect x="3" y="4" width="1" height="1" fill="#3c2891" /><rect x="3" y="5" width="1" height="1" fill="#422da4" /><rect x="3" y="6" width="1" height="1" fill="#4731b2" /><rect x="3" y="7" width="1" height="1" fill="#4c36be" /><rect x="3" y="8" width="1" height="1" fill="#543fc9" /><rect x="3" y="9" width="1" height="1" fill="#917cff" /><rect x="4" y="0" width="1" height="1" fill="#26124e" /><rect x="4" y="1" width="1" height="1" fill="#2c195a" /><rect x="4" y="2" width="1" height="1" fill="#2e1966" /><rect x="4" y="3" width="1" height="1" fill="#321c76" /><rect x="4" y="4" width="1" height="1" fill="#3d288f" /><rect x="4" y="5" width="1" height="1" fill="#442ea2" /><rect x="4" y="6" width="1" height="1" fill="#4731ae" /><rect x="4" y="7" width="1" height="1" fill="#4e37ba" /><rect x="4" y="8" width="1" height="1" fill="#503bbf" /><rect x="4" y="9" width="1" height="1" fill="#a08bff" /><rect x="5" y="0" width="1" height="1" fill="#26124e" /><rect x="5" y="1" width="1" height="1" fill="#2e195b" /><rect x="5" y="2" width="1" height="1" fill="#2d1864" /><rect x="5" y="3" width="1" height="1" fill="#301a72" /><rect x="5" y="4" width="1" height="1" fill="#3d278c" /><rect x="5" y="5" width="1" height="1" fill="#442d9e" /><rect x="5" y="6" width="1" height="1" fill="#462fa9" /><rect x="5" y="7" width="1" height="1" fill="#4b35b4" /><rect x="5" y="8" width="1" height="1" fill="#4d37b8" /><rect x="5" y="9" width="1" height="1" fill="#b5a0ff" /><rect x="6" y="0" width="1" height="1" fill="#28134d" /><rect x="6" y="1" width="1" height="1" fill="#301a59" /><rect x="6" y="2" width="1" height="1" fill="#2e1861" /><rect x="6" y="3" width="1" height="1" fill="#2f196d" /><rect x="6" y="4" width="1" height="1" fill="#3c2587" /><rect x="6" y="5" width="1" height="1" fill="#422c9a" /><rect x="6" y="6" width="1" height="1" fill="#442ca4" /><rect x="6" y="7" width="1" height="1" fill="#4a32b1" /><rect x="6" y="8" width="1" height="1" fill="#412aad" /><rect x="6" y="9" width="1" height="1" fill="#7d66eb" /><rect x="7" y="0" width="1" height="1" fill="#271246" /><rect x="7" y="1" width="1" height="1" fill="#2e1952" /><rect x="7" y="2" width="1" height="1" fill="#2d1759" /><rect x="7" y="3" width="1" height="1" fill="#2e1865" /><rect x="7" y="4" width="1" height="1" fill="#3a247f" /><rect x="7" y="5" width="1" height="1" fill="#412a91" /><rect x="7" y="6" width="1" height="1" fill="#422b9c" /><rect x="7" y="7" width="1" height="1" fill="#4830a9" /><rect x="7" y="8" width="1" height="1" fill="#4c35b3" /><rect x="7" y="9" width="1" height="1" fill="#8b73f4" /><rect x="8" y="0" width="1" height="1" fill="#27133e" /><rect x="8" y="1" width="1" height="1" fill="#2b1646" /><rect x="8" y="2" width="1" height="1" fill="#2c174f" /><rect x="8" y="3" width="1" height="1" fill="#2f1a5c" /><rect x="8" y="4" width="1" height="1" fill="#35206f" /><rect x="8" y="5" width="1" height="1" fill="#3b2580" /><rect x="8" y="6" width="1" height="1" fill="#3d278b" /><rect x="8" y="7" width="1" height="1" fill="#402996" /><rect x="8" y="8" width="1" height="1" fill="#4831a4" /><rect x="8" y="9" width="1" height="1" fill="#6852c8" /><rect x="9" y="0" width="1" height="1" fill="#29143b" /><rect x="9" y="1" width="1" height="1" fill="#2b1742" /><rect x="9" y="2" width="1" height="1" fill="#2d184b" /><rect x="9" y="3" width="1" height="1" fill="#2f1a57" /><rect x="9" y="4" width="1" height="1" fill="#331e67" /><rect x="9" y="5" width="1" height="1" fill="#372276" /><rect x="9" y="6" width="1" height="1" fill="#3a2482" /><rect x="9" y="7" width="1" height="1" fill="#3b258c" /><rect x="9" y="8" width="1" height="1" fill="#37218f" /><rect x="9" y="9" width="1" height="1" fill="#4e37a9" /></g></svg>