<svg width="800" height="1000" version="1.1" xmlns="http://www.w3.org/2000/svg" xmlns:xlink="http://www.w3.org/1999/xlink">
  <defs>
      <linearGradient id="Gradient2" x1="0" x2="1" y1="0" y2="1">
        <stop offset="0%" stop-color="#2d3c96"/>
        <stop offset="100%" stop-color="#d53392"/>
      </linearGradient>
  </defs>
  <rect x="10" y="10" width="780" height="980" fill="url(#Gradient2)" rx="50" ry="50" stroke="#ffd700" stroke-width="20"/>
  <text x="400" y="920" width="780" text-anchor="middle" style="font: bold 200px 'Helvetica Neue'; fill: #ffd700">01123</text>

  <g transform="translate(80 80) scale(64)">
<rect x="0" y="0" width="1" height="1" fill="#12733c" />
,<rect x="0" y="1" width="1" height="1" fill="#060002" />
,<rect x="0" y="2" width="1" height="1" fill="#000000" />
,<rect x="0" y="3" width="1" height="1" fill="#1b2e23" />
,<rect x="0" y="4" width="1" height="1" fill="#62a481" />
,<rect x="0" y="5" width="1" height="1" fill="#0d1010" />
,<rect x="0" y="6" width="1" height="1" fill="#000000" />
,<rect x="0" y="7" width="1" height="1" fill="#050505" />
,<rect x="0" y="8" width="1" height="1" fill="#050505" />
,<rect x="0" y="9" width="1" height="1" fill="#050505" />
,<rect x="1" y="0" width="1" height="1" fill="#12733c" />
,<rect x="1" y="1" width="1" height="1" fill="#000000" />
,<rect x="1" y="2" width="1" height="1" fill="#222924" />
,<rect x="1" y="3" width="1" height="1" fill="#2e3e33" />
,<rect x="1" y="4" width="1" height="1" fill="#000000" />
,<rect x="1" y="5" width="1" height="1" fill="#030303" />
,<rect x="1" y="6" width="1" height="1" fill="#060606" />
,<rect x="1" y="7" width="1" height="1" fill="#050505" />
,<rect x="1" y="8" width="1" height="1" fill="#050505" />
,<rect x="1" y="9" width="1" height="1" fill="#050505" />
,<rect x="2" y="0" width="1" height="1" fill="#12733c" />
,<rect x="2" y="1" width="1" height="1" fill="#000000" />
,<rect x="2" y="2" width="1" height="1" fill="#6c8778" />
,<rect x="2" y="3" width="1" height="1" fill="#a8dabf" />
,<rect x="2" y="4" width="1" height="1" fill="#000000" />
,<rect x="2" y="5" width="1" height="1" fill="#000000" />
,<rect x="2" y="6" width="1" height="1" fill="#050505" />
,<rect x="2" y="7" width="1" height="1" fill="#050505" />
,<rect x="2" y="8" width="1" height="1" fill="#050505" />
,<rect x="2" y="9" width="1" height="1" fill="#050404" />
,<rect x="3" y="0" width="1" height="1" fill="#13743d" />
,<rect x="3" y="1" width="1" height="1" fill="#040000" />
,<rect x="3" y="2" width="1" height="1" fill="#010000" />
,<rect x="3" y="3" width="1" height="1" fill="#0c0d0e" />
,<rect x="3" y="4" width="1" height="1" fill="#040203" />
,<rect x="3" y="5" width="1" height="1" fill="#020000" />
,<rect x="3" y="6" width="1" height="1" fill="#020000" />
,<rect x="3" y="7" width="1" height="1" fill="#030000" />
,<rect x="3" y="8" width="1" height="1" fill="#030000" />
,<rect x="3" y="9" width="1" height="1" fill="#030000" />
,<rect x="4" y="0" width="1" height="1" fill="#0d6831" />
,<rect x="4" y="1" width="1" height="1" fill="#12090f" />
,<rect x="4" y="2" width="1" height="1" fill="#aab1ae" />
,<rect x="4" y="3" width="1" height="1" fill="#2f2f2f" />
,<rect x="4" y="4" width="1" height="1" fill="#000000" />
,<rect x="4" y="5" width="1" height="1" fill="#0f2515" />
,<rect x="4" y="6" width="1" height="1" fill="#0e2213" />
,<rect x="4" y="7" width="1" height="1" fill="#0d321b" />
,<rect x="4" y="8" width="1" height="1" fill="#114827" />
,<rect x="4" y="9" width="1" height="1" fill="#11532d" />
,<rect x="5" y="0" width="1" height="1" fill="#0d6730" />
,<rect x="5" y="1" width="1" height="1" fill="#12090e" />
,<rect x="5" y="2" width="1" height="1" fill="#b3b9b7" />
,<rect x="5" y="3" width="1" height="1" fill="#373637" />
,<rect x="5" y="4" width="1" height="1" fill="#000000" />
,<rect x="5" y="5" width="1" height="1" fill="#16351e" />
,<rect x="5" y="6" width="1" height="1" fill="#1a6c38" />
,<rect x="5" y="7" width="1" height="1" fill="#1a9f50" />
,<rect x="5" y="8" width="1" height="1" fill="#19b95d" />
,<rect x="5" y="9" width="1" height="1" fill="#18c05f" />
,<rect x="6" y="0" width="1" height="1" fill="#13743d" />
,<rect x="6" y="1" width="1" height="1" fill="#050001" />
,<rect x="6" y="2" width="1" height="1" fill="#000000" />
,<rect x="6" y="3" width="1" height="1" fill="#030303" />
,<rect x="6" y="4" width="1" height="1" fill="#030202" />
,<rect x="6" y="5" width="1" height="1" fill="#020000" />
,<rect x="6" y="6" width="1" height="1" fill="#060606" />
,<rect x="6" y="7" width="1" height="1" fill="#0a1f13" />
,<rect x="6" y="8" width="1" height="1" fill="#0b371e" />
,<rect x="6" y="9" width="1" height="1" fill="#0f562e" />
,<rect x="7" y="0" width="1" height="1" fill="#0d6e37" />
,<rect x="7" y="1" width="1" height="1" fill="#000000" />
,<rect x="7" y="2" width="1" height="1" fill="#cddfd4" />
,<rect x="7" y="3" width="1" height="1" fill="#859189" />
,<rect x="7" y="4" width="1" height="1" fill="#000000" />
,<rect x="7" y="5" width="1" height="1" fill="#050505" />
,<rect x="7" y="6" width="1" height="1" fill="#040102" />
,<rect x="7" y="7" width="1" height="1" fill="#030000" />
,<rect x="7" y="8" width="1" height="1" fill="#020000" />
,<rect x="7" y="9" width="1" height="1" fill="#040000" />
,<rect x="8" y="0" width="1" height="1" fill="#10723b" />
,<rect x="8" y="1" width="1" height="1" fill="#000000" />
,<rect x="8" y="2" width="1" height="1" fill="#515855" />
,<rect x="8" y="3" width="1" height="1" fill="#2a2e2c" />
,<rect x="8" y="4" width="1" height="1" fill="#000000" />
,<rect x="8" y="5" width="1" height="1" fill="#060606" />
,<rect x="8" y="6" width="1" height="1" fill="#050505" />
,<rect x="8" y="7" width="1" height="1" fill="#050505" />
,<rect x="8" y="8" width="1" height="1" fill="#050505" />
,<rect x="8" y="9" width="1" height="1" fill="#050405" />
,<rect x="9" y="0" width="1" height="1" fill="#13743c" />
,<rect x="9" y="1" width="1" height="1" fill="#020000" />
,<rect x="9" y="2" width="1" height="1" fill="#000000" />
,<rect x="9" y="3" width="1" height="1" fill="#4f6d5e" />
,<rect x="9" y="4" width="1" height="1" fill="#2f4038" />
,<rect x="9" y="5" width="1" height="1" fill="#000000" />
,<rect x="9" y="6" width="1" height="1" fill="#050505" />
,<rect x="9" y="7" width="1" height="1" fill="#050505" />
,<rect x="9" y="8" width="1" height="1" fill="#050505" />
,<rect x="9" y="9" width="1" height="1" fill="#050505" />

  </g>
</svg>