<svg width="800" height="1000" version="1.1" xmlns="http://www.w3.org/2000/svg" xmlns:xlink="http://www.w3.org/1999/xlink">
  <defs>
      <linearGradient id="Gradient2" x1="0" x2="1" y1="0" y2="1">
        <stop offset="0%" stop-color="#2d3c96"/>
        <stop offset="100%" stop-color="#d53392"/>
      </linearGradient>
  </defs>
  <rect x="10" y="10" width="780" height="980" fill="url(#Gradient2)" rx="50" ry="50" stroke="#ffd700" stroke-width="20"/>
  <text x="400" y="920" width="780" text-anchor="middle" style="font: bold 200px 'Helvetica Neue'; fill: #ffd700">01149</text>

  <g transform="translate(80 80) scale(64)">
<rect x="0" y="0" width="1" height="1" fill="#54094a" />
,<rect x="0" y="1" width="1" height="1" fill="#672549" />
,<rect x="0" y="2" width="1" height="1" fill="#87465e" />
,<rect x="0" y="3" width="1" height="1" fill="#691e3d" />
,<rect x="0" y="4" width="1" height="1" fill="#a95576" />
,<rect x="0" y="5" width="1" height="1" fill="#b76687" />
,<rect x="0" y="6" width="1" height="1" fill="#a05c81" />
,<rect x="0" y="7" width="1" height="1" fill="#ad759c" />
,<rect x="0" y="8" width="1" height="1" fill="#875e98" />
,<rect x="0" y="9" width="1" height="1" fill="#875e98" />
,<rect x="1" y="0" width="1" height="1" fill="#893859" />
,<rect x="1" y="1" width="1" height="1" fill="#702a5e" />
,<rect x="1" y="2" width="1" height="1" fill="#340023" />
,<rect x="1" y="3" width="1" height="1" fill="#99596a" />
,<rect x="1" y="4" width="1" height="1" fill="#faaca8" />
,<rect x="1" y="5" width="1" height="1" fill="#f7aa98" />
,<rect x="1" y="6" width="1" height="1" fill="#bd7d7b" />
,<rect x="1" y="7" width="1" height="1" fill="#6f3d62" />
,<rect x="1" y="8" width="1" height="1" fill="#996593" />
,<rect x="1" y="9" width="1" height="1" fill="#a4709e" />
,<rect x="2" y="0" width="1" height="1" fill="#a95855" />
,<rect x="2" y="1" width="1" height="1" fill="#833a57" />
,<rect x="2" y="2" width="1" height="1" fill="#773a63" />
,<rect x="2" y="3" width="1" height="1" fill="#d2969e" />
,<rect x="2" y="4" width="1" height="1" fill="#eaa78d" />
,<rect x="2" y="5" width="1" height="1" fill="#d38a7b" />
,<rect x="2" y="6" width="1" height="1" fill="#733248" />
,<rect x="2" y="7" width="1" height="1" fill="#481041" />
,<rect x="2" y="8" width="1" height="1" fill="#996c8d" />
,<rect x="2" y="9" width="1" height="1" fill="#906384" />
,<rect x="3" y="0" width="1" height="1" fill="#ac5b6e" />
,<rect x="3" y="1" width="1" height="1" fill="#54091e" />
,<rect x="3" y="2" width="1" height="1" fill="#a76275" />
,<rect x="3" y="3" width="1" height="1" fill="#dc9ea1" />
,<rect x="3" y="4" width="1" height="1" fill="#a66869" />
,<rect x="3" y="5" width="1" height="1" fill="#6a274a" />
,<rect x="3" y="6" width="1" height="1" fill="#430038" />
,<rect x="3" y="7" width="1" height="1" fill="#551142" />
,<rect x="3" y="8" width="1" height="1" fill="#4f1b41" />
,<rect x="3" y="9" width="1" height="1" fill="#804c72" />
,<rect x="4" y="0" width="1" height="1" fill="#68144f" />
,<rect x="4" y="1" width="1" height="1" fill="#4c0021" />
,<rect x="4" y="2" width="1" height="1" fill="#b97477" />
,<rect x="4" y="3" width="1" height="1" fill="#aa6b73" />
,<rect x="4" y="4" width="1" height="1" fill="#68254e" />
,<rect x="4" y="5" width="1" height="1" fill="#520e41" />
,<rect x="4" y="6" width="1" height="1" fill="#652146" />
,<rect x="4" y="7" width="1" height="1" fill="#702b4a" />
,<rect x="4" y="8" width="1" height="1" fill="#6c1e48" />
,<rect x="4" y="9" width="1" height="1" fill="#6d1f49" />
,<rect x="5" y="0" width="1" height="1" fill="#5d1032" />
,<rect x="5" y="1" width="1" height="1" fill="#d79596" />
,<rect x="5" y="2" width="1" height="1" fill="#cf948e" />
,<rect x="5" y="3" width="1" height="1" fill="#65233e" />
,<rect x="5" y="4" width="1" height="1" fill="#4e0233" />
,<rect x="5" y="5" width="1" height="1" fill="#5f1337" />
,<rect x="5" y="6" width="1" height="1" fill="#66213d" />
,<rect x="5" y="7" width="1" height="1" fill="#62214b" />
,<rect x="5" y="8" width="1" height="1" fill="#6f2242" />
,<rect x="5" y="9" width="1" height="1" fill="#671a3a" />
,<rect x="6" y="0" width="1" height="1" fill="#b2786a" />
,<rect x="6" y="1" width="1" height="1" fill="#eeb4a6" />
,<rect x="6" y="2" width="1" height="1" fill="#7a3a48" />
,<rect x="6" y="3" width="1" height="1" fill="#4e032e" />
,<rect x="6" y="4" width="1" height="1" fill="#691b42" />
,<rect x="6" y="5" width="1" height="1" fill="#611436" />
,<rect x="6" y="6" width="1" height="1" fill="#641b49" />
,<rect x="6" y="7" width="1" height="1" fill="#5e1a4d" />
,<rect x="6" y="8" width="1" height="1" fill="#601f3f" />
,<rect x="6" y="9" width="1" height="1" fill="#652444" />
,<rect x="7" y="0" width="1" height="1" fill="#e8bea6" />
,<rect x="7" y="1" width="1" height="1" fill="#632443" />
,<rect x="7" y="2" width="1" height="1" fill="#4c0036" />
,<rect x="7" y="3" width="1" height="1" fill="#701d47" />
,<rect x="7" y="4" width="1" height="1" fill="#691c40" />
,<rect x="7" y="5" width="1" height="1" fill="#661d48" />
,<rect x="7" y="6" width="1" height="1" fill="#61193f" />
,<rect x="7" y="7" width="1" height="1" fill="#611835" />
,<rect x="7" y="8" width="1" height="1" fill="#5d1442" />
,<rect x="7" y="9" width="1" height="1" fill="#5c1341" />
,<rect x="8" y="0" width="1" height="1" fill="#511e3d" />
,<rect x="8" y="1" width="1" height="1" fill="#38001f" />
,<rect x="8" y="2" width="1" height="1" fill="#55102f" />
,<rect x="8" y="3" width="1" height="1" fill="#6b1e3e" />
,<rect x="8" y="4" width="1" height="1" fill="#722142" />
,<rect x="8" y="5" width="1" height="1" fill="#742545" />
,<rect x="8" y="6" width="1" height="1" fill="#6c2142" />
,<rect x="8" y="7" width="1" height="1" fill="#5d1638" />
,<rect x="8" y="8" width="1" height="1" fill="#5d163e" />
,<rect x="8" y="9" width="1" height="1" fill="#661f47" />
,<rect x="9" y="0" width="1" height="1" fill="#611039" />
,<rect x="9" y="1" width="1" height="1" fill="#7e2e55" />
,<rect x="9" y="2" width="1" height="1" fill="#853357" />
,<rect x="9" y="3" width="1" height="1" fill="#752445" />
,<rect x="9" y="4" width="1" height="1" fill="#782748" />
,<rect x="9" y="5" width="1" height="1" fill="#732243" />
,<rect x="9" y="6" width="1" height="1" fill="#6f1f42" />
,<rect x="9" y="7" width="1" height="1" fill="#6d1d42" />
,<rect x="9" y="8" width="1" height="1" fill="#601941" />
,<rect x="9" y="9" width="1" height="1" fill="#631c44" />

  </g>
</svg>