<svg width="800" height="1000" version="1.1" xmlns="http://www.w3.org/2000/svg" xmlns:xlink="http://www.w3.org/1999/xlink">
  <defs>
      <linearGradient id="Gradient2" x1="0" x2="1" y1="0" y2="1">
        <stop offset="0%" stop-color="#2d3c96"/>
        <stop offset="100%" stop-color="#d53392"/>
      </linearGradient>
  </defs>
  <rect x="10" y="10" width="780" height="980" fill="url(#Gradient2)" rx="50" ry="50" stroke="#ffd700" stroke-width="20"/>
  <text x="400" y="920" width="780" text-anchor="middle" style="font: bold 200px 'Helvetica Neue'; fill: #ffd700">01149</text>

  <g transform="translate(80 80) scale(64)">
<rect x="0" y="0" width="1" height="1" fill="#54094A" /><rect x="1" y="0" width="1" height="1" fill="#893859" /><rect x="2" y="0" width="1" height="1" fill="#A95855" /><rect x="3" y="0" width="1" height="1" fill="#AC5B6E" /><rect x="4" y="0" width="1" height="1" fill="#68144F" /><rect x="5" y="0" width="1" height="1" fill="#5D1032" /><rect x="6" y="0" width="1" height="1" fill="#B2786A" /><rect x="7" y="0" width="1" height="1" fill="#E8BEA6" /><rect x="8" y="0" width="1" height="1" fill="#511E3D" /><rect x="9" y="0" width="1" height="1" fill="#611039" /><rect x="0" y="1" width="1" height="1" fill="#672549" /><rect x="1" y="1" width="1" height="1" fill="#702A5E" /><rect x="2" y="1" width="1" height="1" fill="#833A57" /><rect x="3" y="1" width="1" height="1" fill="#54091E" /><rect x="4" y="1" width="1" height="1" fill="#4C0021" /><rect x="5" y="1" width="1" height="1" fill="#D79596" /><rect x="6" y="1" width="1" height="1" fill="#EEB4A6" /><rect x="7" y="1" width="1" height="1" fill="#632443" /><rect x="8" y="1" width="1" height="1" fill="#38001F" /><rect x="9" y="1" width="1" height="1" fill="#7E2E55" /><rect x="0" y="2" width="1" height="1" fill="#87465E" /><rect x="1" y="2" width="1" height="1" fill="#340023" /><rect x="2" y="2" width="1" height="1" fill="#773A63" /><rect x="3" y="2" width="1" height="1" fill="#A76275" /><rect x="4" y="2" width="1" height="1" fill="#B97477" /><rect x="5" y="2" width="1" height="1" fill="#CF948E" /><rect x="6" y="2" width="1" height="1" fill="#7A3A48" /><rect x="7" y="2" width="1" height="1" fill="#4C0036" /><rect x="8" y="2" width="1" height="1" fill="#55102F" /><rect x="9" y="2" width="1" height="1" fill="#853357" /><rect x="0" y="3" width="1" height="1" fill="#691E3D" /><rect x="1" y="3" width="1" height="1" fill="#99596A" /><rect x="2" y="3" width="1" height="1" fill="#D2969E" /><rect x="3" y="3" width="1" height="1" fill="#DC9EA1" /><rect x="4" y="3" width="1" height="1" fill="#AA6B73" /><rect x="5" y="3" width="1" height="1" fill="#65233E" /><rect x="6" y="3" width="1" height="1" fill="#4E032E" /><rect x="7" y="3" width="1" height="1" fill="#701D47" /><rect x="8" y="3" width="1" height="1" fill="#6B1E3E" /><rect x="9" y="3" width="1" height="1" fill="#752445" /><rect x="0" y="4" width="1" height="1" fill="#A95576" /><rect x="1" y="4" width="1" height="1" fill="#FAACA8" /><rect x="2" y="4" width="1" height="1" fill="#EAA78D" /><rect x="3" y="4" width="1" height="1" fill="#A66869" /><rect x="4" y="4" width="1" height="1" fill="#68254E" /><rect x="5" y="4" width="1" height="1" fill="#4E0233" /><rect x="6" y="4" width="1" height="1" fill="#691B42" /><rect x="7" y="4" width="1" height="1" fill="#691C40" /><rect x="8" y="4" width="1" height="1" fill="#722142" /><rect x="9" y="4" width="1" height="1" fill="#782748" /><rect x="0" y="5" width="1" height="1" fill="#B76687" /><rect x="1" y="5" width="1" height="1" fill="#F7AA98" /><rect x="2" y="5" width="1" height="1" fill="#D38A7B" /><rect x="3" y="5" width="1" height="1" fill="#6A274A" /><rect x="4" y="5" width="1" height="1" fill="#520E41" /><rect x="5" y="5" width="1" height="1" fill="#5F1337" /><rect x="6" y="5" width="1" height="1" fill="#611436" /><rect x="7" y="5" width="1" height="1" fill="#661D48" /><rect x="8" y="5" width="1" height="1" fill="#742545" /><rect x="9" y="5" width="1" height="1" fill="#732243" /><rect x="0" y="6" width="1" height="1" fill="#A05C81" /><rect x="1" y="6" width="1" height="1" fill="#BD7D7B" /><rect x="2" y="6" width="1" height="1" fill="#733248" /><rect x="3" y="6" width="1" height="1" fill="#430038" /><rect x="4" y="6" width="1" height="1" fill="#652146" /><rect x="5" y="6" width="1" height="1" fill="#66213D" /><rect x="6" y="6" width="1" height="1" fill="#641B49" /><rect x="7" y="6" width="1" height="1" fill="#61193F" /><rect x="8" y="6" width="1" height="1" fill="#6C2142" /><rect x="9" y="6" width="1" height="1" fill="#6F1F42" /><rect x="0" y="7" width="1" height="1" fill="#AD759C" /><rect x="1" y="7" width="1" height="1" fill="#6F3D62" /><rect x="2" y="7" width="1" height="1" fill="#481041" /><rect x="3" y="7" width="1" height="1" fill="#551142" /><rect x="4" y="7" width="1" height="1" fill="#702B4A" /><rect x="5" y="7" width="1" height="1" fill="#62214B" /><rect x="6" y="7" width="1" height="1" fill="#5E1A4D" /><rect x="7" y="7" width="1" height="1" fill="#611835" /><rect x="8" y="7" width="1" height="1" fill="#5D1638" /><rect x="9" y="7" width="1" height="1" fill="#6D1D42" /><rect x="0" y="8" width="1" height="1" fill="#875E98" /><rect x="1" y="8" width="1" height="1" fill="#996593" /><rect x="2" y="8" width="1" height="1" fill="#996C8D" /><rect x="3" y="8" width="1" height="1" fill="#4F1B41" /><rect x="4" y="8" width="1" height="1" fill="#6C1E48" /><rect x="5" y="8" width="1" height="1" fill="#6F2242" /><rect x="6" y="8" width="1" height="1" fill="#601F3F" /><rect x="7" y="8" width="1" height="1" fill="#5D1442" /><rect x="8" y="8" width="1" height="1" fill="#5D163E" /><rect x="9" y="8" width="1" height="1" fill="#601941" /><rect x="0" y="9" width="1" height="1" fill="#875E98" /><rect x="1" y="9" width="1" height="1" fill="#A4709E" /><rect x="2" y="9" width="1" height="1" fill="#906384" /><rect x="3" y="9" width="1" height="1" fill="#804C72" /><rect x="4" y="9" width="1" height="1" fill="#6D1F49" /><rect x="5" y="9" width="1" height="1" fill="#671A3A" /><rect x="6" y="9" width="1" height="1" fill="#652444" /><rect x="7" y="9" width="1" height="1" fill="#5C1341" /><rect x="8" y="9" width="1" height="1" fill="#661F47" /><rect x="9" y="9" width="1" height="1" fill="#631C44" />
  </g>
</svg>