<svg width="800" height="1000" version="1.1" xmlns="http://www.w3.org/2000/svg" xmlns:xlink="http://www.w3.org/1999/xlink">
  <defs>
      <linearGradient id="Gradient2" x1="0" x2="1" y1="0" y2="1">
        <stop offset="0%" stop-color="#2d3c96"/>
        <stop offset="100%" stop-color="#d53392"/>
      </linearGradient>
  </defs>
  <rect x="10" y="10" width="780" height="980" fill="url(#Gradient2)" rx="50" ry="50" stroke="#ffd700" stroke-width="20"/>
  <text x="400" y="920" width="780" text-anchor="middle" style="font: bold 200px 'Helvetica Neue'; fill: #ffd700">01147</text>

  <g transform="translate(80 80) scale(64)">
<rect x="0" y="0" width="1" height="1" fill="#8F3348" /><rect x="1" y="0" width="1" height="1" fill="#8B334C" /><rect x="2" y="0" width="1" height="1" fill="#781738" /><rect x="3" y="0" width="1" height="1" fill="#770624" /><rect x="4" y="0" width="1" height="1" fill="#CB5D66" /><rect x="5" y="0" width="1" height="1" fill="#F39B87" /><rect x="6" y="0" width="1" height="1" fill="#F1A27B" /><rect x="7" y="0" width="1" height="1" fill="#F3A074" /><rect x="8" y="0" width="1" height="1" fill="#D45F56" /><rect x="9" y="0" width="1" height="1" fill="#952442" /><rect x="0" y="1" width="1" height="1" fill="#923349" /><rect x="1" y="1" width="1" height="1" fill="#842A44" /><rect x="2" y="1" width="1" height="1" fill="#771838" /><rect x="3" y="1" width="1" height="1" fill="#871B35" /><rect x="4" y="1" width="1" height="1" fill="#D26970" /><rect x="5" y="1" width="1" height="1" fill="#EF9884" /><rect x="6" y="1" width="1" height="1" fill="#F1A37D" /><rect x="7" y="1" width="1" height="1" fill="#F3A076" /><rect x="8" y="1" width="1" height="1" fill="#CE635B" /><rect x="9" y="1" width="1" height="1" fill="#993250" /><rect x="0" y="2" width="1" height="1" fill="#922E48" /><rect x="1" y="2" width="1" height="1" fill="#852B45" /><rect x="2" y="2" width="1" height="1" fill="#7E213E" /><rect x="3" y="2" width="1" height="1" fill="#9B334A" /><rect x="4" y="2" width="1" height="1" fill="#DB787B" /><rect x="5" y="2" width="1" height="1" fill="#E6947E" /><rect x="6" y="2" width="1" height="1" fill="#EB9F7D" /><rect x="7" y="2" width="1" height="1" fill="#FAA682" /><rect x="8" y="2" width="1" height="1" fill="#D76857" /><rect x="9" y="2" width="1" height="1" fill="#93273E" /><rect x="0" y="3" width="1" height="1" fill="#872240" /><rect x="1" y="3" width="1" height="1" fill="#842A46" /><rect x="2" y="3" width="1" height="1" fill="#791F39" /><rect x="3" y="3" width="1" height="1" fill="#9D3A4E" /><rect x="4" y="3" width="1" height="1" fill="#E08280" /><rect x="5" y="3" width="1" height="1" fill="#E79780" /><rect x="6" y="3" width="1" height="1" fill="#EA9E7E" /><rect x="7" y="3" width="1" height="1" fill="#FCA788" /><rect x="8" y="3" width="1" height="1" fill="#DA6755" /><rect x="9" y="3" width="1" height="1" fill="#97273D" /><rect x="0" y="4" width="1" height="1" fill="#77193B" /><rect x="1" y="4" width="1" height="1" fill="#741F3E" /><rect x="2" y="4" width="1" height="1" fill="#6D1732" /><rect x="3" y="4" width="1" height="1" fill="#973647" /><rect x="4" y="4" width="1" height="1" fill="#DC7F7A" /><rect x="5" y="4" width="1" height="1" fill="#EE9E85" /><rect x="6" y="4" width="1" height="1" fill="#F0A484" /><rect x="7" y="4" width="1" height="1" fill="#F6A184" /><rect x="8" y="4" width="1" height="1" fill="#D36B6A" /><rect x="9" y="4" width="1" height="1" fill="#A13D63" /><rect x="0" y="5" width="1" height="1" fill="#68163E" /><rect x="1" y="5" width="1" height="1" fill="#65183C" /><rect x="2" y="5" width="1" height="1" fill="#76213E" /><rect x="3" y="5" width="1" height="1" fill="#A44251" /><rect x="4" y="5" width="1" height="1" fill="#D5726C" /><rect x="5" y="5" width="1" height="1" fill="#EB9A7D" /><rect x="6" y="5" width="1" height="1" fill="#F6AA88" /><rect x="7" y="5" width="1" height="1" fill="#F5A282" /><rect x="8" y="5" width="1" height="1" fill="#DA6E6C" /><rect x="9" y="5" width="1" height="1" fill="#932B50" /><rect x="0" y="6" width="1" height="1" fill="#5A133F" /><rect x="1" y="6" width="1" height="1" fill="#581139" /><rect x="2" y="6" width="1" height="1" fill="#7E2B49" /><rect x="3" y="6" width="1" height="1" fill="#B44E5C" /><rect x="4" y="6" width="1" height="1" fill="#D56E65" /><rect x="5" y="6" width="1" height="1" fill="#E99475" /><rect x="6" y="6" width="1" height="1" fill="#F2A780" /><rect x="7" y="6" width="1" height="1" fill="#F6A683" /><rect x="8" y="6" width="1" height="1" fill="#D9675D" /><rect x="9" y="6" width="1" height="1" fill="#861835" /><rect x="0" y="7" width="1" height="1" fill="#4D0F3E" /><rect x="1" y="7" width="1" height="1" fill="#470630" /><rect x="2" y="7" width="1" height="1" fill="#721E3F" /><rect x="3" y="7" width="1" height="1" fill="#B44959" /><rect x="4" y="7" width="1" height="1" fill="#E0746A" /><rect x="5" y="7" width="1" height="1" fill="#F09777" /><rect x="6" y="7" width="1" height="1" fill="#EBA078" /><rect x="7" y="7" width="1" height="1" fill="#F2A47E" /><rect x="8" y="7" width="1" height="1" fill="#CB645D" /><rect x="9" y="7" width="1" height="1" fill="#9C3958" /><rect x="0" y="8" width="1" height="1" fill="#76374C" /><rect x="1" y="8" width="1" height="1" fill="#520F32" /><rect x="2" y="8" width="1" height="1" fill="#580B2F" /><rect x="3" y="8" width="1" height="1" fill="#83283A" /><rect x="4" y="8" width="1" height="1" fill="#C86560" /><rect x="5" y="8" width="1" height="1" fill="#F79582" /><rect x="6" y="8" width="1" height="1" fill="#F1977F" /><rect x="7" y="8" width="1" height="1" fill="#F3A285" /><rect x="8" y="8" width="1" height="1" fill="#D4716C" /><rect x="9" y="8" width="1" height="1" fill="#994F6A" /><rect x="0" y="9" width="1" height="1" fill="#B8798C" /><rect x="1" y="9" width="1" height="1" fill="#A8677F" /><rect x="2" y="9" width="1" height="1" fill="#803355" /><rect x="3" y="9" width="1" height="1" fill="#680A2C" /><rect x="4" y="9" width="1" height="1" fill="#AB4550" /><rect x="5" y="9" width="1" height="1" fill="#F5937E" /><rect x="6" y="9" width="1" height="1" fill="#F39A78" /><rect x="7" y="9" width="1" height="1" fill="#EE9D7F" /><rect x="8" y="9" width="1" height="1" fill="#D87570" /><rect x="9" y="9" width="1" height="1" fill="#9E546F" />
  </g>
</svg>