<svg width="800" height="1000" version="1.1" xmlns="http://www.w3.org/2000/svg" xmlns:xlink="http://www.w3.org/1999/xlink">
  <defs>
      <linearGradient id="Gradient2" x1="0" x2="1" y1="0" y2="1">
        <stop offset="0%" stop-color="#2d3c96"/>
        <stop offset="100%" stop-color="#d53392"/>
      </linearGradient>
  </defs>
  <rect x="10" y="10" width="780" height="980" fill="url(#Gradient2)" rx="50" ry="50" stroke="#ffd700" stroke-width="20"/>
  <text x="400" y="920" width="780" text-anchor="middle" style="font: bold 200px 'Helvetica Neue'; fill: #ffd700">01148</text>

  <g transform="translate(80 80) scale(64)">
<rect x="0" y="0" width="1" height="1" fill="#b6596b" />
,<rect x="0" y="1" width="1" height="1" fill="#a84152" />
,<rect x="0" y="2" width="1" height="1" fill="#ab3a4c" />
,<rect x="0" y="3" width="1" height="1" fill="#b64559" />
,<rect x="0" y="4" width="1" height="1" fill="#b64f64" />
,<rect x="0" y="5" width="1" height="1" fill="#bf627d" />
,<rect x="0" y="6" width="1" height="1" fill="#a24d6e" />
,<rect x="0" y="7" width="1" height="1" fill="#8f3d65" />
,<rect x="0" y="8" width="1" height="1" fill="#81456b" />
,<rect x="0" y="9" width="1" height="1" fill="#64284e" />
,<rect x="1" y="0" width="1" height="1" fill="#bf6485" />
,<rect x="1" y="1" width="1" height="1" fill="#b04d6c" />
,<rect x="1" y="2" width="1" height="1" fill="#c05776" />
,<rect x="1" y="3" width="1" height="1" fill="#b85572" />
,<rect x="1" y="4" width="1" height="1" fill="#b15b78" />
,<rect x="1" y="5" width="1" height="1" fill="#8a415f" />
,<rect x="1" y="6" width="1" height="1" fill="#753156" />
,<rect x="1" y="7" width="1" height="1" fill="#712e59" />
,<rect x="1" y="8" width="1" height="1" fill="#561841" />
,<rect x="1" y="9" width="1" height="1" fill="#3d0028" />
,<rect x="2" y="0" width="1" height="1" fill="#8b3f6e" />
,<rect x="2" y="1" width="1" height="1" fill="#893767" />
,<rect x="2" y="2" width="1" height="1" fill="#86335f" />
,<rect x="2" y="3" width="1" height="1" fill="#84365e" />
,<rect x="2" y="4" width="1" height="1" fill="#712f55" />
,<rect x="2" y="5" width="1" height="1" fill="#733961" />
,<rect x="2" y="6" width="1" height="1" fill="#652c59" />
,<rect x="2" y="7" width="1" height="1" fill="#672b5e" />
,<rect x="2" y="8" width="1" height="1" fill="#6a2954" />
,<rect x="2" y="9" width="1" height="1" fill="#75345f" />
,<rect x="3" y="0" width="1" height="1" fill="#7a437a" />
,<rect x="3" y="1" width="1" height="1" fill="#773c72" />
,<rect x="3" y="2" width="1" height="1" fill="#723266" />
,<rect x="3" y="3" width="1" height="1" fill="#7c3e6f" />
,<rect x="3" y="4" width="1" height="1" fill="#58204d" />
,<rect x="3" y="5" width="1" height="1" fill="#5e2655" />
,<rect x="3" y="6" width="1" height="1" fill="#57194c" />
,<rect x="3" y="7" width="1" height="1" fill="#672259" />
,<rect x="3" y="8" width="1" height="1" fill="#601e4c" />
,<rect x="3" y="9" width="1" height="1" fill="#7c3a68" />
,<rect x="4" y="0" width="1" height="1" fill="#734279" />
,<rect x="4" y="1" width="1" height="1" fill="#703b73" />
,<rect x="4" y="2" width="1" height="1" fill="#6e3369" />
,<rect x="4" y="3" width="1" height="1" fill="#5c2255" />
,<rect x="4" y="4" width="1" height="1" fill="#5c2657" />
,<rect x="4" y="5" width="1" height="1" fill="#592354" />
,<rect x="4" y="6" width="1" height="1" fill="#55194c" />
,<rect x="4" y="7" width="1" height="1" fill="#4c073d" />
,<rect x="4" y="8" width="1" height="1" fill="#612251" />
,<rect x="4" y="9" width="1" height="1" fill="#894a79" />
,<rect x="5" y="0" width="1" height="1" fill="#6a356d" />
,<rect x="5" y="1" width="1" height="1" fill="#773c76" />
,<rect x="5" y="2" width="1" height="1" fill="#6e2d67" />
,<rect x="5" y="3" width="1" height="1" fill="#5d2157" />
,<rect x="5" y="4" width="1" height="1" fill="#774175" />
,<rect x="5" y="5" width="1" height="1" fill="#8b5b8b" />
,<rect x="5" y="6" width="1" height="1" fill="#875886" />
,<rect x="5" y="7" width="1" height="1" fill="#7b4777" />
,<rect x="5" y="8" width="1" height="1" fill="#692f5f" />
,<rect x="5" y="9" width="1" height="1" fill="#602656" />
,<rect x="6" y="0" width="1" height="1" fill="#82568b" />
,<rect x="6" y="1" width="1" height="1" fill="#79447c" />
,<rect x="6" y="2" width="1" height="1" fill="#6c2c69" />
,<rect x="6" y="3" width="1" height="1" fill="#793976" />
,<rect x="6" y="4" width="1" height="1" fill="#8a538c" />
,<rect x="6" y="5" width="1" height="1" fill="#9a6ea1" />
,<rect x="6" y="6" width="1" height="1" fill="#8e6698" />
,<rect x="6" y="7" width="1" height="1" fill="#825b8a" />
,<rect x="6" y="8" width="1" height="1" fill="#9e6a9a" />
,<rect x="6" y="9" width="1" height="1" fill="#632f5f" />
,<rect x="7" y="0" width="1" height="1" fill="#85699a" />
,<rect x="7" y="1" width="1" height="1" fill="#8c6499" />
,<rect x="7" y="2" width="1" height="1" fill="#9a629f" />
,<rect x="7" y="3" width="1" height="1" fill="#6d3171" />
,<rect x="7" y="4" width="1" height="1" fill="#6c3473" />
,<rect x="7" y="5" width="1" height="1" fill="#7c4c86" />
,<rect x="7" y="6" width="1" height="1" fill="#91669c" />
,<rect x="7" y="7" width="1" height="1" fill="#5e366a" />
,<rect x="7" y="8" width="1" height="1" fill="#794979" />
,<rect x="7" y="9" width="1" height="1" fill="#906090" />
,<rect x="8" y="0" width="1" height="1" fill="#621b53" />
,<rect x="8" y="1" width="1" height="1" fill="#7a4772" />
,<rect x="8" y="2" width="1" height="1" fill="#9874a0" />
,<rect x="8" y="3" width="1" height="1" fill="#7e5287" />
,<rect x="8" y="4" width="1" height="1" fill="#793e74" />
,<rect x="8" y="5" width="1" height="1" fill="#7b4c83" />
,<rect x="8" y="6" width="1" height="1" fill="#87649e" />
,<rect x="8" y="7" width="1" height="1" fill="#8b6096" />
,<rect x="8" y="8" width="1" height="1" fill="#845d8a" />
,<rect x="8" y="9" width="1" height="1" fill="#7b497a" />
,<rect x="9" y="0" width="1" height="1" fill="#541439" />
,<rect x="9" y="1" width="1" height="1" fill="#4d0938" />
,<rect x="9" y="2" width="1" height="1" fill="#722f5b" />
,<rect x="9" y="3" width="1" height="1" fill="#9d6990" />
,<rect x="9" y="4" width="1" height="1" fill="#794e7b" />
,<rect x="9" y="5" width="1" height="1" fill="#8f5587" />
,<rect x="9" y="6" width="1" height="1" fill="#97598a" />
,<rect x="9" y="7" width="1" height="1" fill="#996fa1" />
,<rect x="9" y="8" width="1" height="1" fill="#835a92" />
,<rect x="9" y="9" width="1" height="1" fill="#73407b" />

  </g>
</svg>