<svg width="800" height="1000" xmlns="http://www.w3.org/2000/svg"><defs><linearGradient id="g" x1="0" x2="1" y1="0" y2="1"><stop offset="0%" stop-color="#2d3c96"/><stop offset="100%" stop-color="#d53392"/></linearGradient></defs><rect x="10" y="10" width="780" height="980" fill="url(#g)" rx="50" ry="50" stroke="gold" stroke-width="20"/><text x="400" y="920" width="780" text-anchor="middle" style="font:bold 200px 'Helvetica Neue';fill:gold">01147</text><g transform="translate(80 80) scale(64)"><rect x="0" y="0" width="1" height="1" fill="#8f3348" /><rect x="0" y="1" width="1" height="1" fill="#923349" /><rect x="0" y="2" width="1" height="1" fill="#922e48" /><rect x="0" y="3" width="1" height="1" fill="#872240" /><rect x="0" y="4" width="1" height="1" fill="#77193b" /><rect x="0" y="5" width="1" height="1" fill="#68163e" /><rect x="0" y="6" width="1" height="1" fill="#5a133f" /><rect x="0" y="7" width="1" height="1" fill="#4d0f3e" /><rect x="0" y="8" width="1" height="1" fill="#76374c" /><rect x="0" y="9" width="1" height="1" fill="#b8798c" /><rect x="1" y="0" width="1" height="1" fill="#8b334c" /><rect x="1" y="1" width="1" height="1" fill="#842a44" /><rect x="1" y="2" width="1" height="1" fill="#852b45" /><rect x="1" y="3" width="1" height="1" fill="#842a46" /><rect x="1" y="4" width="1" height="1" fill="#741f3e" /><rect x="1" y="5" width="1" height="1" fill="#65183c" /><rect x="1" y="6" width="1" height="1" fill="#581139" /><rect x="1" y="7" width="1" height="1" fill="#470630" /><rect x="1" y="8" width="1" height="1" fill="#520f32" /><rect x="1" y="9" width="1" height="1" fill="#a8677f" /><rect x="2" y="0" width="1" height="1" fill="#781738" /><rect x="2" y="1" width="1" height="1" fill="#771838" /><rect x="2" y="2" width="1" height="1" fill="#7e213e" /><rect x="2" y="3" width="1" height="1" fill="#791f39" /><rect x="2" y="4" width="1" height="1" fill="#6d1732" /><rect x="2" y="5" width="1" height="1" fill="#76213e" /><rect x="2" y="6" width="1" height="1" fill="#7e2b49" /><rect x="2" y="7" width="1" height="1" fill="#721e3f" /><rect x="2" y="8" width="1" height="1" fill="#580b2f" /><rect x="2" y="9" width="1" height="1" fill="#803355" /><rect x="3" y="0" width="1" height="1" fill="#770624" /><rect x="3" y="1" width="1" height="1" fill="#871b35" /><rect x="3" y="2" width="1" height="1" fill="#9b334a" /><rect x="3" y="3" width="1" height="1" fill="#9d3a4e" /><rect x="3" y="4" width="1" height="1" fill="#973647" /><rect x="3" y="5" width="1" height="1" fill="#a44251" /><rect x="3" y="6" width="1" height="1" fill="#b44e5c" /><rect x="3" y="7" width="1" height="1" fill="#b44959" /><rect x="3" y="8" width="1" height="1" fill="#83283a" /><rect x="3" y="9" width="1" height="1" fill="#680a2c" /><rect x="4" y="0" width="1" height="1" fill="#cb5d66" /><rect x="4" y="1" width="1" height="1" fill="#d26970" /><rect x="4" y="2" width="1" height="1" fill="#db787b" /><rect x="4" y="3" width="1" height="1" fill="#e08280" /><rect x="4" y="4" width="1" height="1" fill="#dc7f7a" /><rect x="4" y="5" width="1" height="1" fill="#d5726c" /><rect x="4" y="6" width="1" height="1" fill="#d56e65" /><rect x="4" y="7" width="1" height="1" fill="#e0746a" /><rect x="4" y="8" width="1" height="1" fill="#c86560" /><rect x="4" y="9" width="1" height="1" fill="#ab4550" /><rect x="5" y="0" width="1" height="1" fill="#f39b87" /><rect x="5" y="1" width="1" height="1" fill="#ef9884" /><rect x="5" y="2" width="1" height="1" fill="#e6947e" /><rect x="5" y="3" width="1" height="1" fill="#e79780" /><rect x="5" y="4" width="1" height="1" fill="#ee9e85" /><rect x="5" y="5" width="1" height="1" fill="#eb9a7d" /><rect x="5" y="6" width="1" height="1" fill="#e99475" /><rect x="5" y="7" width="1" height="1" fill="#f09777" /><rect x="5" y="8" width="1" height="1" fill="#f79582" /><rect x="5" y="9" width="1" height="1" fill="#f5937e" /><rect x="6" y="0" width="1" height="1" fill="#f1a27b" /><rect x="6" y="1" width="1" height="1" fill="#f1a37d" /><rect x="6" y="2" width="1" height="1" fill="#eb9f7d" /><rect x="6" y="3" width="1" height="1" fill="#ea9e7e" /><rect x="6" y="4" width="1" height="1" fill="#f0a484" /><rect x="6" y="5" width="1" height="1" fill="#f6aa88" /><rect x="6" y="6" width="1" height="1" fill="#f2a780" /><rect x="6" y="7" width="1" height="1" fill="#eba078" /><rect x="6" y="8" width="1" height="1" fill="#f1977f" /><rect x="6" y="9" width="1" height="1" fill="#f39a78" /><rect x="7" y="0" width="1" height="1" fill="#f3a074" /><rect x="7" y="1" width="1" height="1" fill="#f3a076" /><rect x="7" y="2" width="1" height="1" fill="#faa682" /><rect x="7" y="3" width="1" height="1" fill="#fca788" /><rect x="7" y="4" width="1" height="1" fill="#f6a184" /><rect x="7" y="5" width="1" height="1" fill="#f5a282" /><rect x="7" y="6" width="1" height="1" fill="#f6a683" /><rect x="7" y="7" width="1" height="1" fill="#f2a47e" /><rect x="7" y="8" width="1" height="1" fill="#f3a285" /><rect x="7" y="9" width="1" height="1" fill="#ee9d7f" /><rect x="8" y="0" width="1" height="1" fill="#d45f56" /><rect x="8" y="1" width="1" height="1" fill="#ce635b" /><rect x="8" y="2" width="1" height="1" fill="#d76857" /><rect x="8" y="3" width="1" height="1" fill="#da6755" /><rect x="8" y="4" width="1" height="1" fill="#d36b6a" /><rect x="8" y="5" width="1" height="1" fill="#da6e6c" /><rect x="8" y="6" width="1" height="1" fill="#d9675d" /><rect x="8" y="7" width="1" height="1" fill="#cb645d" /><rect x="8" y="8" width="1" height="1" fill="#d4716c" /><rect x="8" y="9" width="1" height="1" fill="#d87570" /><rect x="9" y="0" width="1" height="1" fill="#952442" /><rect x="9" y="1" width="1" height="1" fill="#993250" /><rect x="9" y="2" width="1" height="1" fill="#93273e" /><rect x="9" y="3" width="1" height="1" fill="#97273d" /><rect x="9" y="4" width="1" height="1" fill="#a13d63" /><rect x="9" y="5" width="1" height="1" fill="#932b50" /><rect x="9" y="6" width="1" height="1" fill="#861835" /><rect x="9" y="7" width="1" height="1" fill="#9c3958" /><rect x="9" y="8" width="1" height="1" fill="#994f6a" /><rect x="9" y="9" width="1" height="1" fill="#9e546f" /></g></svg>