<svg width="800" height="1000" version="1.1" xmlns="http://www.w3.org/2000/svg" xmlns:xlink="http://www.w3.org/1999/xlink">
  <defs>
      <linearGradient id="Gradient2" x1="0" x2="1" y1="0" y2="1">
        <stop offset="0%" stop-color="#2d3c96"/>
        <stop offset="100%" stop-color="#d53392"/>
      </linearGradient>
  </defs>
  <rect x="10" y="10" width="780" height="980" fill="url(#Gradient2)" rx="50" ry="50" stroke="#ffd700" stroke-width="20"/>
  <text x="400" y="920" width="780" text-anchor="middle" style="font: bold 200px 'Helvetica Neue'; fill: #ffd700">01153</text>

  <g transform="translate(80 80) scale(64)">
<rect x="0" y="0" width="1" height="1" fill="#c57f87" />
,<rect x="0" y="1" width="1" height="1" fill="#c37b7c" />
,<rect x="0" y="2" width="1" height="1" fill="#c57c75" />
,<rect x="0" y="3" width="1" height="1" fill="#c0756f" />
,<rect x="0" y="4" width="1" height="1" fill="#be7378" />
,<rect x="0" y="5" width="1" height="1" fill="#b76e7f" />
,<rect x="0" y="6" width="1" height="1" fill="#a86378" />
,<rect x="0" y="7" width="1" height="1" fill="#a16076" />
,<rect x="0" y="8" width="1" height="1" fill="#8f4e64" />
,<rect x="0" y="9" width="1" height="1" fill="#923a48" />
,<rect x="1" y="0" width="1" height="1" fill="#bc757d" />
,<rect x="1" y="1" width="1" height="1" fill="#b97270" />
,<rect x="1" y="2" width="1" height="1" fill="#b26d5e" />
,<rect x="1" y="3" width="1" height="1" fill="#ae6a57" />
,<rect x="1" y="4" width="1" height="1" fill="#b26f5f" />
,<rect x="1" y="5" width="1" height="1" fill="#a86a5f" />
,<rect x="1" y="6" width="1" height="1" fill="#a36b5e" />
,<rect x="1" y="7" width="1" height="1" fill="#b88373" />
,<rect x="1" y="8" width="1" height="1" fill="#d0987f" />
,<rect x="1" y="9" width="1" height="1" fill="#cb8d78" />
,<rect x="2" y="0" width="1" height="1" fill="#ac665e" />
,<rect x="2" y="1" width="1" height="1" fill="#c5816e" />
,<rect x="2" y="2" width="1" height="1" fill="#d79676" />
,<rect x="2" y="3" width="1" height="1" fill="#dda17c" />
,<rect x="2" y="4" width="1" height="1" fill="#e9b38d" />
,<rect x="2" y="5" width="1" height="1" fill="#f2c29c" />
,<rect x="2" y="6" width="1" height="1" fill="#f7cea2" />
,<rect x="2" y="7" width="1" height="1" fill="#ffe3b3" />
,<rect x="2" y="8" width="1" height="1" fill="#ffda9c" />
,<rect x="2" y="9" width="1" height="1" fill="#ffdba6" />
,<rect x="3" y="0" width="1" height="1" fill="#df9e78" />
,<rect x="3" y="1" width="1" height="1" fill="#f3b488" />
,<rect x="3" y="2" width="1" height="1" fill="#ffc895" />
,<rect x="3" y="3" width="1" height="1" fill="#fbc996" />
,<rect x="3" y="4" width="1" height="1" fill="#f8cc9d" />
,<rect x="3" y="5" width="1" height="1" fill="#ffdbaf" />
,<rect x="3" y="6" width="1" height="1" fill="#fddeaf" />
,<rect x="3" y="7" width="1" height="1" fill="#f0d7a1" />
,<rect x="3" y="8" width="1" height="1" fill="#ebc78d" />
,<rect x="3" y="9" width="1" height="1" fill="#fad793" />
,<rect x="4" y="0" width="1" height="1" fill="#f4bb86" />
,<rect x="4" y="1" width="1" height="1" fill="#f3bc84" />
,<rect x="4" y="2" width="1" height="1" fill="#f3c288" />
,<rect x="4" y="3" width="1" height="1" fill="#f4c996" />
,<rect x="4" y="4" width="1" height="1" fill="#f4cfa3" />
,<rect x="4" y="5" width="1" height="1" fill="#f4d4ab" />
,<rect x="4" y="6" width="1" height="1" fill="#eed3a6" />
,<rect x="4" y="7" width="1" height="1" fill="#e3cc98" />
,<rect x="4" y="8" width="1" height="1" fill="#ffdaab" />
,<rect x="4" y="9" width="1" height="1" fill="#f4bb8d" />
,<rect x="5" y="0" width="1" height="1" fill="#eab788" />
,<rect x="5" y="1" width="1" height="1" fill="#efbf8e" />
,<rect x="5" y="2" width="1" height="1" fill="#edc391" />
,<rect x="5" y="3" width="1" height="1" fill="#f0cb9e" />
,<rect x="5" y="4" width="1" height="1" fill="#f3d1ab" />
,<rect x="5" y="5" width="1" height="1" fill="#edcda6" />
,<rect x="5" y="6" width="1" height="1" fill="#efd0a1" />
,<rect x="5" y="7" width="1" height="1" fill="#f9dca4" />
,<rect x="5" y="8" width="1" height="1" fill="#ffd69f" />
,<rect x="5" y="9" width="1" height="1" fill="#a14f53" />
,<rect x="6" y="0" width="1" height="1" fill="#e9be93" />
,<rect x="6" y="1" width="1" height="1" fill="#f4ce9f" />
,<rect x="6" y="2" width="1" height="1" fill="#f0cea0" />
,<rect x="6" y="3" width="1" height="1" fill="#eccba2" />
,<rect x="6" y="4" width="1" height="1" fill="#eccaa7" />
,<rect x="6" y="5" width="1" height="1" fill="#edcba5" />
,<rect x="6" y="6" width="1" height="1" fill="#f9d5a5" />
,<rect x="6" y="7" width="1" height="1" fill="#ffdda3" />
,<rect x="6" y="8" width="1" height="1" fill="#c17f67" />
,<rect x="6" y="9" width="1" height="1" fill="#620a30" />
,<rect x="7" y="0" width="1" height="1" fill="#eeca98" />
,<rect x="7" y="1" width="1" height="1" fill="#edcc99" />
,<rect x="7" y="2" width="1" height="1" fill="#eacb9c" />
,<rect x="7" y="3" width="1" height="1" fill="#eecea7" />
,<rect x="7" y="4" width="1" height="1" fill="#efcead" />
,<rect x="7" y="5" width="1" height="1" fill="#f5d1ad" />
,<rect x="7" y="6" width="1" height="1" fill="#f9d0a4" />
,<rect x="7" y="7" width="1" height="1" fill="#eabf88" />
,<rect x="7" y="8" width="1" height="1" fill="#681134" />
,<rect x="7" y="9" width="1" height="1" fill="#721e40" />
,<rect x="8" y="0" width="1" height="1" fill="#edc7a3" />
,<rect x="8" y="1" width="1" height="1" fill="#eacca6" />
,<rect x="8" y="2" width="1" height="1" fill="#eacda5" />
,<rect x="8" y="3" width="1" height="1" fill="#f3ceb3" />
,<rect x="8" y="4" width="1" height="1" fill="#f0ceb2" />
,<rect x="8" y="5" width="1" height="1" fill="#e7cf93" />
,<rect x="8" y="6" width="1" height="1" fill="#ffe2ad" />
,<rect x="8" y="7" width="1" height="1" fill="#b06c6d" />
,<rect x="8" y="8" width="1" height="1" fill="#4b0027" />
,<rect x="8" y="9" width="1" height="1" fill="#9b404f" />
,<rect x="9" y="0" width="1" height="1" fill="#ecc6a2" />
,<rect x="9" y="1" width="1" height="1" fill="#e9cba5" />
,<rect x="9" y="2" width="1" height="1" fill="#eccfa7" />
,<rect x="9" y="3" width="1" height="1" fill="#f1ccb1" />
,<rect x="9" y="4" width="1" height="1" fill="#edcbaf" />
,<rect x="9" y="5" width="1" height="1" fill="#eed69a" />
,<rect x="9" y="6" width="1" height="1" fill="#ffdba6" />
,<rect x="9" y="7" width="1" height="1" fill="#864243" />
,<rect x="9" y="8" width="1" height="1" fill="#67123c" />
,<rect x="9" y="9" width="1" height="1" fill="#a54052" />

  </g>
</svg>