<svg width="800" height="1000" version="1.1" xmlns="http://www.w3.org/2000/svg" xmlns:xlink="http://www.w3.org/1999/xlink">
  <defs>
      <linearGradient id="Gradient2" x1="0" x2="1" y1="0" y2="1">
        <stop offset="0%" stop-color="#2d3c96"/>
        <stop offset="100%" stop-color="#d53392"/>
      </linearGradient>
  </defs>
  <rect x="10" y="10" width="780" height="980" fill="url(#Gradient2)" rx="50" ry="50" stroke="#ffd700" stroke-width="20"/>
  <text x="400" y="920" width="780" text-anchor="middle" style="font: bold 200px 'Helvetica Neue'; fill: #ffd700">01153</text>

  <g transform="translate(80 80) scale(64)">
<rect x="0" y="0" width="1" height="1" fill="#C57F87" /><rect x="1" y="0" width="1" height="1" fill="#BC757D" /><rect x="2" y="0" width="1" height="1" fill="#AC665E" /><rect x="3" y="0" width="1" height="1" fill="#DF9E78" /><rect x="4" y="0" width="1" height="1" fill="#F4BB86" /><rect x="5" y="0" width="1" height="1" fill="#EAB788" /><rect x="6" y="0" width="1" height="1" fill="#E9BE93" /><rect x="7" y="0" width="1" height="1" fill="#EECA98" /><rect x="8" y="0" width="1" height="1" fill="#EDC7A3" /><rect x="9" y="0" width="1" height="1" fill="#ECC6A2" /><rect x="0" y="1" width="1" height="1" fill="#C37B7C" /><rect x="1" y="1" width="1" height="1" fill="#B97270" /><rect x="2" y="1" width="1" height="1" fill="#C5816E" /><rect x="3" y="1" width="1" height="1" fill="#F3B488" /><rect x="4" y="1" width="1" height="1" fill="#F3BC84" /><rect x="5" y="1" width="1" height="1" fill="#EFBF8E" /><rect x="6" y="1" width="1" height="1" fill="#F4CE9F" /><rect x="7" y="1" width="1" height="1" fill="#EDCC99" /><rect x="8" y="1" width="1" height="1" fill="#EACCA6" /><rect x="9" y="1" width="1" height="1" fill="#E9CBA5" /><rect x="0" y="2" width="1" height="1" fill="#C57C75" /><rect x="1" y="2" width="1" height="1" fill="#B26D5E" /><rect x="2" y="2" width="1" height="1" fill="#D79676" /><rect x="3" y="2" width="1" height="1" fill="#FFC895" /><rect x="4" y="2" width="1" height="1" fill="#F3C288" /><rect x="5" y="2" width="1" height="1" fill="#EDC391" /><rect x="6" y="2" width="1" height="1" fill="#F0CEA0" /><rect x="7" y="2" width="1" height="1" fill="#EACB9C" /><rect x="8" y="2" width="1" height="1" fill="#EACDA5" /><rect x="9" y="2" width="1" height="1" fill="#ECCFA7" /><rect x="0" y="3" width="1" height="1" fill="#C0756F" /><rect x="1" y="3" width="1" height="1" fill="#AE6A57" /><rect x="2" y="3" width="1" height="1" fill="#DDA17C" /><rect x="3" y="3" width="1" height="1" fill="#FBC996" /><rect x="4" y="3" width="1" height="1" fill="#F4C996" /><rect x="5" y="3" width="1" height="1" fill="#F0CB9E" /><rect x="6" y="3" width="1" height="1" fill="#ECCBA2" /><rect x="7" y="3" width="1" height="1" fill="#EECEA7" /><rect x="8" y="3" width="1" height="1" fill="#F3CEB3" /><rect x="9" y="3" width="1" height="1" fill="#F1CCB1" /><rect x="0" y="4" width="1" height="1" fill="#BE7378" /><rect x="1" y="4" width="1" height="1" fill="#B26F5F" /><rect x="2" y="4" width="1" height="1" fill="#E9B38D" /><rect x="3" y="4" width="1" height="1" fill="#F8CC9D" /><rect x="4" y="4" width="1" height="1" fill="#F4CFA3" /><rect x="5" y="4" width="1" height="1" fill="#F3D1AB" /><rect x="6" y="4" width="1" height="1" fill="#ECCAA7" /><rect x="7" y="4" width="1" height="1" fill="#EFCEAD" /><rect x="8" y="4" width="1" height="1" fill="#F0CEB2" /><rect x="9" y="4" width="1" height="1" fill="#EDCBAF" /><rect x="0" y="5" width="1" height="1" fill="#B76E7F" /><rect x="1" y="5" width="1" height="1" fill="#A86A5F" /><rect x="2" y="5" width="1" height="1" fill="#F2C29C" /><rect x="3" y="5" width="1" height="1" fill="#FFDBAF" /><rect x="4" y="5" width="1" height="1" fill="#F4D4AB" /><rect x="5" y="5" width="1" height="1" fill="#EDCDA6" /><rect x="6" y="5" width="1" height="1" fill="#EDCBA5" /><rect x="7" y="5" width="1" height="1" fill="#F5D1AD" /><rect x="8" y="5" width="1" height="1" fill="#E7CF93" /><rect x="9" y="5" width="1" height="1" fill="#EED69A" /><rect x="0" y="6" width="1" height="1" fill="#A86378" /><rect x="1" y="6" width="1" height="1" fill="#A36B5E" /><rect x="2" y="6" width="1" height="1" fill="#F7CEA2" /><rect x="3" y="6" width="1" height="1" fill="#FDDEAF" /><rect x="4" y="6" width="1" height="1" fill="#EED3A6" /><rect x="5" y="6" width="1" height="1" fill="#EFD0A1" /><rect x="6" y="6" width="1" height="1" fill="#F9D5A5" /><rect x="7" y="6" width="1" height="1" fill="#F9D0A4" /><rect x="8" y="6" width="1" height="1" fill="#FFE2AD" /><rect x="9" y="6" width="1" height="1" fill="#FFDBA6" /><rect x="0" y="7" width="1" height="1" fill="#A16076" /><rect x="1" y="7" width="1" height="1" fill="#B88373" /><rect x="2" y="7" width="1" height="1" fill="#FFE3B3" /><rect x="3" y="7" width="1" height="1" fill="#F0D7A1" /><rect x="4" y="7" width="1" height="1" fill="#E3CC98" /><rect x="5" y="7" width="1" height="1" fill="#F9DCA4" /><rect x="6" y="7" width="1" height="1" fill="#FFDDA3" /><rect x="7" y="7" width="1" height="1" fill="#EABF88" /><rect x="8" y="7" width="1" height="1" fill="#B06C6D" /><rect x="9" y="7" width="1" height="1" fill="#864243" /><rect x="0" y="8" width="1" height="1" fill="#8F4E64" /><rect x="1" y="8" width="1" height="1" fill="#D0987F" /><rect x="2" y="8" width="1" height="1" fill="#FFDA9C" /><rect x="3" y="8" width="1" height="1" fill="#EBC78D" /><rect x="4" y="8" width="1" height="1" fill="#FFDAAB" /><rect x="5" y="8" width="1" height="1" fill="#FFD69F" /><rect x="6" y="8" width="1" height="1" fill="#C17F67" /><rect x="7" y="8" width="1" height="1" fill="#681134" /><rect x="8" y="8" width="1" height="1" fill="#4B0027" /><rect x="9" y="8" width="1" height="1" fill="#67123C" /><rect x="0" y="9" width="1" height="1" fill="#923A48" /><rect x="1" y="9" width="1" height="1" fill="#CB8D78" /><rect x="2" y="9" width="1" height="1" fill="#FFDBA6" /><rect x="3" y="9" width="1" height="1" fill="#FAD793" /><rect x="4" y="9" width="1" height="1" fill="#F4BB8D" /><rect x="5" y="9" width="1" height="1" fill="#A14F53" /><rect x="6" y="9" width="1" height="1" fill="#620A30" /><rect x="7" y="9" width="1" height="1" fill="#721E40" /><rect x="8" y="9" width="1" height="1" fill="#9B404F" /><rect x="9" y="9" width="1" height="1" fill="#A54052" />
  </g>
</svg>