<svg width="800" height="1000" version="1.1" xmlns="http://www.w3.org/2000/svg" xmlns:xlink="http://www.w3.org/1999/xlink">
  <defs>
      <linearGradient id="Gradient2" x1="0" x2="1" y1="0" y2="1">
        <stop offset="0%" stop-color="#2d3c96"/>
        <stop offset="100%" stop-color="#d53392"/>
      </linearGradient>
  </defs>
  <rect x="10" y="10" width="780" height="980" fill="url(#Gradient2)" rx="50" ry="50" stroke="#ffd700" stroke-width="20"/>
  <text x="400" y="920" width="780" text-anchor="middle" style="font: bold 200px 'Helvetica Neue'; fill: #ffd700">01152</text>

  <g transform="translate(80 80) scale(64)">
<rect x="0" y="0" width="1" height="1" fill="#9A5E6A" /><rect x="1" y="0" width="1" height="1" fill="#CD8B95" /><rect x="2" y="0" width="1" height="1" fill="#3D0017" /><rect x="3" y="0" width="1" height="1" fill="#8F3F4A" /><rect x="4" y="0" width="1" height="1" fill="#DA8C7F" /><rect x="5" y="0" width="1" height="1" fill="#D58B80" /><rect x="6" y="0" width="1" height="1" fill="#CC896E" /><rect x="7" y="0" width="1" height="1" fill="#C78084" /><rect x="8" y="0" width="1" height="1" fill="#C9827E" /><rect x="9" y="0" width="1" height="1" fill="#C8817D" /><rect x="0" y="1" width="1" height="1" fill="#834258" /><rect x="1" y="1" width="1" height="1" fill="#C6828D" /><rect x="2" y="1" width="1" height="1" fill="#671B39" /><rect x="3" y="1" width="1" height="1" fill="#B06164" /><rect x="4" y="1" width="1" height="1" fill="#DE9181" /><rect x="5" y="1" width="1" height="1" fill="#D4877D" /><rect x="6" y="1" width="1" height="1" fill="#C9826C" /><rect x="7" y="1" width="1" height="1" fill="#C68082" /><rect x="8" y="1" width="1" height="1" fill="#C8817B" /><rect x="9" y="1" width="1" height="1" fill="#C7807A" /><rect x="0" y="2" width="1" height="1" fill="#712A4A" /><rect x="1" y="2" width="1" height="1" fill="#BE7682" /><rect x="2" y="2" width="1" height="1" fill="#9C4E5B" /><rect x="3" y="2" width="1" height="1" fill="#CB7F72" /><rect x="4" y="2" width="1" height="1" fill="#D98C7A" /><rect x="5" y="2" width="1" height="1" fill="#D0837B" /><rect x="6" y="2" width="1" height="1" fill="#C88071" /><rect x="7" y="2" width="1" height="1" fill="#CA8580" /><rect x="8" y="2" width="1" height="1" fill="#C47E76" /><rect x="9" y="2" width="1" height="1" fill="#C37D75" /><rect x="0" y="3" width="1" height="1" fill="#641640" /><rect x="1" y="3" width="1" height="1" fill="#AE6171" /><rect x="2" y="3" width="1" height="1" fill="#BD726C" /><rect x="3" y="3" width="1" height="1" fill="#D78C75" /><rect x="4" y="3" width="1" height="1" fill="#D28774" /><rect x="5" y="3" width="1" height="1" fill="#CE847B" /><rect x="6" y="3" width="1" height="1" fill="#C67D74" /><rect x="7" y="3" width="1" height="1" fill="#C37F76" /><rect x="8" y="3" width="1" height="1" fill="#C37D75" /><rect x="9" y="3" width="1" height="1" fill="#C37D75" /><rect x="0" y="4" width="1" height="1" fill="#64113F" /><rect x="1" y="4" width="1" height="1" fill="#A35467" /><rect x="2" y="4" width="1" height="1" fill="#CF8673" /><rect x="3" y="4" width="1" height="1" fill="#D18A6E" /><rect x="4" y="4" width="1" height="1" fill="#C9806F" /><rect x="5" y="4" width="1" height="1" fill="#CD847D" /><rect x="6" y="4" width="1" height="1" fill="#C6817C" /><rect x="7" y="4" width="1" height="1" fill="#C37F72" /><rect x="8" y="4" width="1" height="1" fill="#C48179" /><rect x="9" y="4" width="1" height="1" fill="#C27F77" /><rect x="0" y="5" width="1" height="1" fill="#691340" /><rect x="1" y="5" width="1" height="1" fill="#A4556B" /><rect x="2" y="5" width="1" height="1" fill="#E09880" /><rect x="3" y="5" width="1" height="1" fill="#D18B72" /><rect x="4" y="5" width="1" height="1" fill="#CC867A" /><rect x="5" y="5" width="1" height="1" fill="#CD897E" /><rect x="6" y="5" width="1" height="1" fill="#CB8788" /><rect x="7" y="5" width="1" height="1" fill="#C78877" /><rect x="8" y="5" width="1" height="1" fill="#C0817A" /><rect x="9" y="5" width="1" height="1" fill="#BC7D76" /><rect x="0" y="6" width="1" height="1" fill="#661138" /><rect x="1" y="6" width="1" height="1" fill="#A4546D" /><rect x="2" y="6" width="1" height="1" fill="#E59F86" /><rect x="3" y="6" width="1" height="1" fill="#CD8A77" /><rect x="4" y="6" width="1" height="1" fill="#CF8F86" /><rect x="5" y="6" width="1" height="1" fill="#C88A7D" /><rect x="6" y="6" width="1" height="1" fill="#C7868A" /><rect x="7" y="6" width="1" height="1" fill="#C48774" /><rect x="8" y="6" width="1" height="1" fill="#BD827E" /><rect x="9" y="6" width="1" height="1" fill="#B67B77" /><rect x="0" y="7" width="1" height="1" fill="#711D3F" /><rect x="1" y="7" width="1" height="1" fill="#A55570" /><rect x="2" y="7" width="1" height="1" fill="#D5917A" /><rect x="3" y="7" width="1" height="1" fill="#B16F61" /><rect x="4" y="7" width="1" height="1" fill="#BB7C77" /><rect x="5" y="7" width="1" height="1" fill="#B77C6E" /><rect x="6" y="7" width="1" height="1" fill="#C4868B" /><rect x="7" y="7" width="1" height="1" fill="#C98F7B" /><rect x="8" y="7" width="1" height="1" fill="#C08684" /><rect x="9" y="7" width="1" height="1" fill="#B87E7C" /><rect x="0" y="8" width="1" height="1" fill="#7A264A" /><rect x="1" y="8" width="1" height="1" fill="#BA6A73" /><rect x="2" y="8" width="1" height="1" fill="#C2756B" /><rect x="3" y="8" width="1" height="1" fill="#A95B57" /><rect x="4" y="8" width="1" height="1" fill="#A95A60" /><rect x="5" y="8" width="1" height="1" fill="#A95A60" /><rect x="6" y="8" width="1" height="1" fill="#A6575D" /><rect x="7" y="8" width="1" height="1" fill="#AC5C67" /><rect x="8" y="8" width="1" height="1" fill="#A7666E" /><rect x="9" y="8" width="1" height="1" fill="#A2666E" /><rect x="0" y="9" width="1" height="1" fill="#772347" /><rect x="1" y="9" width="1" height="1" fill="#BA6A73" /><rect x="2" y="9" width="1" height="1" fill="#D6897F" /><rect x="3" y="9" width="1" height="1" fill="#C97B77" /><rect x="4" y="9" width="1" height="1" fill="#C17278" /><rect x="5" y="9" width="1" height="1" fill="#B96A70" /><rect x="6" y="9" width="1" height="1" fill="#AB5C62" /><rect x="7" y="9" width="1" height="1" fill="#A1515C" /><rect x="8" y="9" width="1" height="1" fill="#923F59" /><rect x="9" y="9" width="1" height="1" fill="#A65156" />
  </g>
</svg>