<svg width="800" height="1000" xmlns="http://www.w3.org/2000/svg"><defs><linearGradient id="g" x1="0" x2="1" y1="0" y2="1"><stop offset="0%" stop-color="#2d3c96"/><stop offset="100%" stop-color="#d53392"/></linearGradient></defs><rect x="10" y="10" width="780" height="980" fill="url(#g)" rx="50" ry="50" stroke="gold" stroke-width="20"/><text x="400" y="920" width="780" text-anchor="middle" style="font:bold 200px 'Helvetica Neue';fill:gold">01150</text><g transform="translate(80 80) scale(64)"><rect x="0" y="0" width="1" height="1" fill="#9d283a" /><rect x="0" y="1" width="1" height="1" fill="#a22d40" /><rect x="0" y="2" width="1" height="1" fill="#bb4457" /><rect x="0" y="3" width="1" height="1" fill="#af3c4b" /><rect x="0" y="4" width="1" height="1" fill="#902a37" /><rect x="0" y="5" width="1" height="1" fill="#80293c" /><rect x="0" y="6" width="1" height="1" fill="#692244" /><rect x="0" y="7" width="1" height="1" fill="#5f204d" /><rect x="0" y="8" width="1" height="1" fill="#691f42" /><rect x="0" y="9" width="1" height="1" fill="#6f2548" /><rect x="1" y="0" width="1" height="1" fill="#ce565f" /><rect x="1" y="1" width="1" height="1" fill="#cb4f5a" /><rect x="1" y="2" width="1" height="1" fill="#d1535f" /><rect x="1" y="3" width="1" height="1" fill="#cb5259" /><rect x="1" y="4" width="1" height="1" fill="#b8474d" /><rect x="1" y="5" width="1" height="1" fill="#96323e" /><rect x="1" y="6" width="1" height="1" fill="#741e39" /><rect x="1" y="7" width="1" height="1" fill="#74264d" /><rect x="1" y="8" width="1" height="1" fill="#61173a" /><rect x="1" y="9" width="1" height="1" fill="#691f42" /><rect x="2" y="0" width="1" height="1" fill="#db6062" /><rect x="2" y="1" width="1" height="1" fill="#dc5e61" /><rect x="2" y="2" width="1" height="1" fill="#dd5a5f" /><rect x="2" y="3" width="1" height="1" fill="#e15f61" /><rect x="2" y="4" width="1" height="1" fill="#e06263" /><rect x="2" y="5" width="1" height="1" fill="#c04d52" /><rect x="2" y="6" width="1" height="1" fill="#90293a" /><rect x="2" y="7" width="1" height="1" fill="#73132f" /><rect x="2" y="8" width="1" height="1" fill="#7d2742" /><rect x="2" y="9" width="1" height="1" fill="#7a243f" /><rect x="3" y="0" width="1" height="1" fill="#de6b66" /><rect x="3" y="1" width="1" height="1" fill="#e36968" /><rect x="3" y="2" width="1" height="1" fill="#e16162" /><rect x="3" y="3" width="1" height="1" fill="#e15d5b" /><rect x="3" y="4" width="1" height="1" fill="#df5d5b" /><rect x="3" y="5" width="1" height="1" fill="#d3585a" /><rect x="3" y="6" width="1" height="1" fill="#af3c49" /><rect x="3" y="7" width="1" height="1" fill="#7e1229" /><rect x="3" y="8" width="1" height="1" fill="#ba4f59" /><rect x="3" y="9" width="1" height="1" fill="#be535d" /><rect x="4" y="0" width="1" height="1" fill="#e37a76" /><rect x="4" y="1" width="1" height="1" fill="#e47473" /><rect x="4" y="2" width="1" height="1" fill="#e46b70" /><rect x="4" y="3" width="1" height="1" fill="#e5676a" /><rect x="4" y="4" width="1" height="1" fill="#e0605f" /><rect x="4" y="5" width="1" height="1" fill="#d85d5f" /><rect x="4" y="6" width="1" height="1" fill="#c6525d" /><rect x="4" y="7" width="1" height="1" fill="#a6374a" /><rect x="4" y="8" width="1" height="1" fill="#cb575a" /><rect x="4" y="9" width="1" height="1" fill="#d35f62" /><rect x="5" y="0" width="1" height="1" fill="#de7f7b" /><rect x="5" y="1" width="1" height="1" fill="#de7879" /><rect x="5" y="2" width="1" height="1" fill="#e37278" /><rect x="5" y="3" width="1" height="1" fill="#e46b70" /><rect x="5" y="4" width="1" height="1" fill="#e66c6b" /><rect x="5" y="5" width="1" height="1" fill="#e46e6e" /><rect x="5" y="6" width="1" height="1" fill="#d3646b" /><rect x="5" y="7" width="1" height="1" fill="#bf5362" /><rect x="5" y="8" width="1" height="1" fill="#c85b61" /><rect x="5" y="9" width="1" height="1" fill="#cb5e64" /><rect x="6" y="0" width="1" height="1" fill="#e98c85" /><rect x="6" y="1" width="1" height="1" fill="#e48080" /><rect x="6" y="2" width="1" height="1" fill="#e6787b" /><rect x="6" y="3" width="1" height="1" fill="#d86163" /><rect x="6" y="4" width="1" height="1" fill="#d35956" /><rect x="6" y="5" width="1" height="1" fill="#e36d69" /><rect x="6" y="6" width="1" height="1" fill="#dc6e6f" /><rect x="6" y="7" width="1" height="1" fill="#c96067" /><rect x="6" y="8" width="1" height="1" fill="#cd6268" /><rect x="6" y="9" width="1" height="1" fill="#d66b71" /><rect x="7" y="0" width="1" height="1" fill="#ed8f87" /><rect x="7" y="1" width="1" height="1" fill="#e5807e" /><rect x="7" y="2" width="1" height="1" fill="#f58486" /><rect x="7" y="3" width="1" height="1" fill="#dd6566" /><rect x="7" y="4" width="1" height="1" fill="#c14840" /><rect x="7" y="5" width="1" height="1" fill="#d66158" /><rect x="7" y="6" width="1" height="1" fill="#e47470" /><rect x="7" y="7" width="1" height="1" fill="#d86e70" /><rect x="7" y="8" width="1" height="1" fill="#dc6a69" /><rect x="7" y="9" width="1" height="1" fill="#dc6a69" /><rect x="8" y="0" width="1" height="1" fill="#e17170" /><rect x="8" y="1" width="1" height="1" fill="#de6e6d" /><rect x="8" y="2" width="1" height="1" fill="#e78381" /><rect x="8" y="3" width="1" height="1" fill="#dd7171" /><rect x="8" y="4" width="1" height="1" fill="#d44853" /><rect x="8" y="5" width="1" height="1" fill="#d8505c" /><rect x="8" y="6" width="1" height="1" fill="#e57d7e" /><rect x="8" y="7" width="1" height="1" fill="#e58a87" /><rect x="8" y="8" width="1" height="1" fill="#db7777" /><rect x="8" y="9" width="1" height="1" fill="#d46669" /><rect x="9" y="0" width="1" height="1" fill="#d35b5d" /><rect x="9" y="1" width="1" height="1" fill="#cc5456" /><rect x="9" y="2" width="1" height="1" fill="#dc7272" /><rect x="9" y="3" width="1" height="1" fill="#df7172" /><rect x="9" y="4" width="1" height="1" fill="#dd545e" /><rect x="9" y="5" width="1" height="1" fill="#dc5a64" /><rect x="9" y="6" width="1" height="1" fill="#e48583" /><rect x="9" y="7" width="1" height="1" fill="#e5958e" /><rect x="9" y="8" width="1" height="1" fill="#d87474" /><rect x="9" y="9" width="1" height="1" fill="#dd6f72" /></g></svg>