<svg width="800" height="1000" version="1.1" xmlns="http://www.w3.org/2000/svg" xmlns:xlink="http://www.w3.org/1999/xlink">
  <defs>
      <linearGradient id="Gradient2" x1="0" x2="1" y1="0" y2="1">
        <stop offset="0%" stop-color="#2d3c96"/>
        <stop offset="100%" stop-color="#d53392"/>
      </linearGradient>
  </defs>
  <rect x="10" y="10" width="780" height="980" fill="url(#Gradient2)" rx="50" ry="50" stroke="#ffd700" stroke-width="20"/>
  <text x="400" y="920" width="780" text-anchor="middle" style="font: bold 200px 'Helvetica Neue'; fill: #ffd700">01150</text>

  <g transform="translate(80 80) scale(64)">
<rect x="0" y="0" width="1" height="1" fill="#9D283A" /><rect x="1" y="0" width="1" height="1" fill="#CE565F" /><rect x="2" y="0" width="1" height="1" fill="#DB6062" /><rect x="3" y="0" width="1" height="1" fill="#DE6B66" /><rect x="4" y="0" width="1" height="1" fill="#E37A76" /><rect x="5" y="0" width="1" height="1" fill="#DE7F7B" /><rect x="6" y="0" width="1" height="1" fill="#E98C85" /><rect x="7" y="0" width="1" height="1" fill="#ED8F87" /><rect x="8" y="0" width="1" height="1" fill="#E17170" /><rect x="9" y="0" width="1" height="1" fill="#D35B5D" /><rect x="0" y="1" width="1" height="1" fill="#A22D40" /><rect x="1" y="1" width="1" height="1" fill="#CB4F5A" /><rect x="2" y="1" width="1" height="1" fill="#DC5E61" /><rect x="3" y="1" width="1" height="1" fill="#E36968" /><rect x="4" y="1" width="1" height="1" fill="#E47473" /><rect x="5" y="1" width="1" height="1" fill="#DE7879" /><rect x="6" y="1" width="1" height="1" fill="#E48080" /><rect x="7" y="1" width="1" height="1" fill="#E5807E" /><rect x="8" y="1" width="1" height="1" fill="#DE6E6D" /><rect x="9" y="1" width="1" height="1" fill="#CC5456" /><rect x="0" y="2" width="1" height="1" fill="#BB4457" /><rect x="1" y="2" width="1" height="1" fill="#D1535F" /><rect x="2" y="2" width="1" height="1" fill="#DD5A5F" /><rect x="3" y="2" width="1" height="1" fill="#E16162" /><rect x="4" y="2" width="1" height="1" fill="#E46B70" /><rect x="5" y="2" width="1" height="1" fill="#E37278" /><rect x="6" y="2" width="1" height="1" fill="#E6787B" /><rect x="7" y="2" width="1" height="1" fill="#F58486" /><rect x="8" y="2" width="1" height="1" fill="#E78381" /><rect x="9" y="2" width="1" height="1" fill="#DC7272" /><rect x="0" y="3" width="1" height="1" fill="#AF3C4B" /><rect x="1" y="3" width="1" height="1" fill="#CB5259" /><rect x="2" y="3" width="1" height="1" fill="#E15F61" /><rect x="3" y="3" width="1" height="1" fill="#E15D5B" /><rect x="4" y="3" width="1" height="1" fill="#E5676A" /><rect x="5" y="3" width="1" height="1" fill="#E46B70" /><rect x="6" y="3" width="1" height="1" fill="#D86163" /><rect x="7" y="3" width="1" height="1" fill="#DD6566" /><rect x="8" y="3" width="1" height="1" fill="#DD7171" /><rect x="9" y="3" width="1" height="1" fill="#DF7172" /><rect x="0" y="4" width="1" height="1" fill="#902A37" /><rect x="1" y="4" width="1" height="1" fill="#B8474D" /><rect x="2" y="4" width="1" height="1" fill="#E06263" /><rect x="3" y="4" width="1" height="1" fill="#DF5D5B" /><rect x="4" y="4" width="1" height="1" fill="#E0605F" /><rect x="5" y="4" width="1" height="1" fill="#E66C6B" /><rect x="6" y="4" width="1" height="1" fill="#D35956" /><rect x="7" y="4" width="1" height="1" fill="#C14840" /><rect x="8" y="4" width="1" height="1" fill="#D44853" /><rect x="9" y="4" width="1" height="1" fill="#DD545E" /><rect x="0" y="5" width="1" height="1" fill="#80293C" /><rect x="1" y="5" width="1" height="1" fill="#96323E" /><rect x="2" y="5" width="1" height="1" fill="#C04D52" /><rect x="3" y="5" width="1" height="1" fill="#D3585A" /><rect x="4" y="5" width="1" height="1" fill="#D85D5F" /><rect x="5" y="5" width="1" height="1" fill="#E46E6E" /><rect x="6" y="5" width="1" height="1" fill="#E36D69" /><rect x="7" y="5" width="1" height="1" fill="#D66158" /><rect x="8" y="5" width="1" height="1" fill="#D8505C" /><rect x="9" y="5" width="1" height="1" fill="#DC5A64" /><rect x="0" y="6" width="1" height="1" fill="#692244" /><rect x="1" y="6" width="1" height="1" fill="#741E39" /><rect x="2" y="6" width="1" height="1" fill="#90293A" /><rect x="3" y="6" width="1" height="1" fill="#AF3C49" /><rect x="4" y="6" width="1" height="1" fill="#C6525D" /><rect x="5" y="6" width="1" height="1" fill="#D3646B" /><rect x="6" y="6" width="1" height="1" fill="#DC6E6F" /><rect x="7" y="6" width="1" height="1" fill="#E47470" /><rect x="8" y="6" width="1" height="1" fill="#E57D7E" /><rect x="9" y="6" width="1" height="1" fill="#E48583" /><rect x="0" y="7" width="1" height="1" fill="#5F204D" /><rect x="1" y="7" width="1" height="1" fill="#74264D" /><rect x="2" y="7" width="1" height="1" fill="#73132F" /><rect x="3" y="7" width="1" height="1" fill="#7E1229" /><rect x="4" y="7" width="1" height="1" fill="#A6374A" /><rect x="5" y="7" width="1" height="1" fill="#BF5362" /><rect x="6" y="7" width="1" height="1" fill="#C96067" /><rect x="7" y="7" width="1" height="1" fill="#D86E70" /><rect x="8" y="7" width="1" height="1" fill="#E58A87" /><rect x="9" y="7" width="1" height="1" fill="#E5958E" /><rect x="0" y="8" width="1" height="1" fill="#691F42" /><rect x="1" y="8" width="1" height="1" fill="#61173A" /><rect x="2" y="8" width="1" height="1" fill="#7D2742" /><rect x="3" y="8" width="1" height="1" fill="#BA4F59" /><rect x="4" y="8" width="1" height="1" fill="#CB575A" /><rect x="5" y="8" width="1" height="1" fill="#C85B61" /><rect x="6" y="8" width="1" height="1" fill="#CD6268" /><rect x="7" y="8" width="1" height="1" fill="#DC6A69" /><rect x="8" y="8" width="1" height="1" fill="#DB7777" /><rect x="9" y="8" width="1" height="1" fill="#D87474" /><rect x="0" y="9" width="1" height="1" fill="#6F2548" /><rect x="1" y="9" width="1" height="1" fill="#691F42" /><rect x="2" y="9" width="1" height="1" fill="#7A243F" /><rect x="3" y="9" width="1" height="1" fill="#BE535D" /><rect x="4" y="9" width="1" height="1" fill="#D35F62" /><rect x="5" y="9" width="1" height="1" fill="#CB5E64" /><rect x="6" y="9" width="1" height="1" fill="#D66B71" /><rect x="7" y="9" width="1" height="1" fill="#DC6A69" /><rect x="8" y="9" width="1" height="1" fill="#D46669" /><rect x="9" y="9" width="1" height="1" fill="#DD6F72" />
  </g>
</svg>