<svg width="800" height="1000" version="1.1" xmlns="http://www.w3.org/2000/svg" xmlns:xlink="http://www.w3.org/1999/xlink">
  <defs>
      <linearGradient id="Gradient2" x1="0" x2="1" y1="0" y2="1">
        <stop offset="0%" stop-color="#2d3c96"/>
        <stop offset="100%" stop-color="#d53392"/>
      </linearGradient>
  </defs>
  <rect x="10" y="10" width="780" height="980" fill="url(#Gradient2)" rx="50" ry="50" stroke="#ffd700" stroke-width="20"/>
  <text x="400" y="920" width="780" text-anchor="middle" style="font: bold 200px 'Helvetica Neue'; fill: #ffd700">01151</text>

  <g transform="translate(80 80) scale(64)">
<rect x="0" y="0" width="1" height="1" fill="#e55d61" />
,<rect x="0" y="1" width="1" height="1" fill="#d14a51" />
,<rect x="0" y="2" width="1" height="1" fill="#d16f6c" />
,<rect x="0" y="3" width="1" height="1" fill="#de837e" />
,<rect x="0" y="4" width="1" height="1" fill="#dd5a60" />
,<rect x="0" y="5" width="1" height="1" fill="#e86b6f" />
,<rect x="0" y="6" width="1" height="1" fill="#db807d" />
,<rect x="0" y="7" width="1" height="1" fill="#e98f91" />
,<rect x="0" y="8" width="1" height="1" fill="#d97b79" />
,<rect x="0" y="9" width="1" height="1" fill="#e08477" />
,<rect x="1" y="0" width="1" height="1" fill="#cd4b55" />
,<rect x="1" y="1" width="1" height="1" fill="#b0393d" />
,<rect x="1" y="2" width="1" height="1" fill="#dd9086" />
,<rect x="1" y="3" width="1" height="1" fill="#f3aea7" />
,<rect x="1" y="4" width="1" height="1" fill="#db6b79" />
,<rect x="1" y="5" width="1" height="1" fill="#e97383" />
,<rect x="1" y="6" width="1" height="1" fill="#df8483" />
,<rect x="1" y="7" width="1" height="1" fill="#f09288" />
,<rect x="1" y="8" width="1" height="1" fill="#dfa695" />
,<rect x="1" y="9" width="1" height="1" fill="#e3ab92" />
,<rect x="2" y="0" width="1" height="1" fill="#f5a4a1" />
,<rect x="2" y="1" width="1" height="1" fill="#d2817e" />
,<rect x="2" y="2" width="1" height="1" fill="#eeb2a8" />
,<rect x="2" y="3" width="1" height="1" fill="#e5a29a" />
,<rect x="2" y="4" width="1" height="1" fill="#d4656e" />
,<rect x="2" y="5" width="1" height="1" fill="#f37e8e" />
,<rect x="2" y="6" width="1" height="1" fill="#be626d" />
,<rect x="2" y="7" width="1" height="1" fill="#913544" />
,<rect x="2" y="8" width="1" height="1" fill="#e3b4a4" />
,<rect x="2" y="9" width="1" height="1" fill="#f0c3a4" />
,<rect x="3" y="0" width="1" height="1" fill="#fdcdc3" />
,<rect x="3" y="1" width="1" height="1" fill="#f0a9a5" />
,<rect x="3" y="2" width="1" height="1" fill="#eb9c97" />
,<rect x="3" y="3" width="1" height="1" fill="#e78884" />
,<rect x="3" y="4" width="1" height="1" fill="#e56c73" />
,<rect x="3" y="5" width="1" height="1" fill="#b54a5e" />
,<rect x="3" y="6" width="1" height="1" fill="#4d0628" />
,<rect x="3" y="7" width="1" height="1" fill="#3c0031" />
,<rect x="3" y="8" width="1" height="1" fill="#bd9492" />
,<rect x="3" y="9" width="1" height="1" fill="#f7d4ac" />
,<rect x="4" y="0" width="1" height="1" fill="#d6817c" />
,<rect x="4" y="1" width="1" height="1" fill="#d7726e" />
,<rect x="4" y="2" width="1" height="1" fill="#e57d7a" />
,<rect x="4" y="3" width="1" height="1" fill="#d67177" />
,<rect x="4" y="4" width="1" height="1" fill="#912a47" />
,<rect x="4" y="5" width="1" height="1" fill="#5a0d37" />
,<rect x="4" y="6" width="1" height="1" fill="#421242" />
,<rect x="4" y="7" width="1" height="1" fill="#350a3f" />
,<rect x="4" y="8" width="1" height="1" fill="#936778" />
,<rect x="4" y="9" width="1" height="1" fill="#ffe1bb" />
,<rect x="5" y="0" width="1" height="1" fill="#e76c65" />
,<rect x="5" y="1" width="1" height="1" fill="#f17a7e" />
,<rect x="5" y="2" width="1" height="1" fill="#b25466" />
,<rect x="5" y="3" width="1" height="1" fill="#6d2344" />
,<rect x="5" y="4" width="1" height="1" fill="#4d0b39" />
,<rect x="5" y="5" width="1" height="1" fill="#4f1346" />
,<rect x="5" y="6" width="1" height="1" fill="#5e2353" />
,<rect x="5" y="7" width="1" height="1" fill="#5b1343" />
,<rect x="5" y="8" width="1" height="1" fill="#622c4c" />
,<rect x="5" y="9" width="1" height="1" fill="#f8caba" />
,<rect x="6" y="0" width="1" height="1" fill="#c95b68" />
,<rect x="6" y="1" width="1" height="1" fill="#8f314b" />
,<rect x="6" y="2" width="1" height="1" fill="#500c31" />
,<rect x="6" y="3" width="1" height="1" fill="#450e38" />
,<rect x="6" y="4" width="1" height="1" fill="#561744" />
,<rect x="6" y="5" width="1" height="1" fill="#601840" />
,<rect x="6" y="6" width="1" height="1" fill="#6d1b43" />
,<rect x="6" y="7" width="1" height="1" fill="#70153e" />
,<rect x="6" y="8" width="1" height="1" fill="#31031f" />
,<rect x="6" y="9" width="1" height="1" fill="#9e727f" />
,<rect x="7" y="0" width="1" height="1" fill="#64104b" />
,<rect x="7" y="1" width="1" height="1" fill="#460231" />
,<rect x="7" y="2" width="1" height="1" fill="#511a3a" />
,<rect x="7" y="3" width="1" height="1" fill="#652645" />
,<rect x="7" y="4" width="1" height="1" fill="#741e45" />
,<rect x="7" y="5" width="1" height="1" fill="#791a42" />
,<rect x="7" y="6" width="1" height="1" fill="#712040" />
,<rect x="7" y="7" width="1" height="1" fill="#6f2e44" />
,<rect x="7" y="8" width="1" height="1" fill="#66243f" />
,<rect x="7" y="9" width="1" height="1" fill="#67224f" />
,<rect x="8" y="0" width="1" height="1" fill="#6f1f44" />
,<rect x="8" y="1" width="1" height="1" fill="#7c2947" />
,<rect x="8" y="2" width="1" height="1" fill="#87334a" />
,<rect x="8" y="3" width="1" height="1" fill="#893449" />
,<rect x="8" y="4" width="1" height="1" fill="#8a324a" />
,<rect x="8" y="5" width="1" height="1" fill="#8d354e" />
,<rect x="8" y="6" width="1" height="1" fill="#933e53" />
,<rect x="8" y="7" width="1" height="1" fill="#994555" />
,<rect x="8" y="8" width="1" height="1" fill="#9d4c5f" />
,<rect x="8" y="9" width="1" height="1" fill="#7b2846" />
,<rect x="9" y="0" width="1" height="1" fill="#712146" />
,<rect x="9" y="1" width="1" height="1" fill="#74213f" />
,<rect x="9" y="2" width="1" height="1" fill="#79253c" />
,<rect x="9" y="3" width="1" height="1" fill="#7f2a3f" />
,<rect x="9" y="4" width="1" height="1" fill="#812941" />
,<rect x="9" y="5" width="1" height="1" fill="#7f2740" />
,<rect x="9" y="6" width="1" height="1" fill="#822d42" />
,<rect x="9" y="7" width="1" height="1" fill="#8c3848" />
,<rect x="9" y="8" width="1" height="1" fill="#8a394c" />
,<rect x="9" y="9" width="1" height="1" fill="#7f2c4a" />

  </g>
</svg>