<svg width="800" height="1000" version="1.1" xmlns="http://www.w3.org/2000/svg" xmlns:xlink="http://www.w3.org/1999/xlink">
  <defs>
      <linearGradient id="Gradient2" x1="0" x2="1" y1="0" y2="1">
        <stop offset="0%" stop-color="#2d3c96"/>
        <stop offset="100%" stop-color="#d53392"/>
      </linearGradient>
  </defs>
  <rect x="10" y="10" width="780" height="980" fill="url(#Gradient2)" rx="50" ry="50" stroke="#ffd700" stroke-width="20"/>
  <text x="400" y="920" width="780" text-anchor="middle" style="font: bold 200px 'Helvetica Neue'; fill: #ffd700">01151</text>

  <g transform="translate(80 80) scale(64)">
<rect x="0" y="0" width="1" height="1" fill="#E55D61" /><rect x="1" y="0" width="1" height="1" fill="#CD4B55" /><rect x="2" y="0" width="1" height="1" fill="#F5A4A1" /><rect x="3" y="0" width="1" height="1" fill="#FDCDC3" /><rect x="4" y="0" width="1" height="1" fill="#D6817C" /><rect x="5" y="0" width="1" height="1" fill="#E76C65" /><rect x="6" y="0" width="1" height="1" fill="#C95B68" /><rect x="7" y="0" width="1" height="1" fill="#64104B" /><rect x="8" y="0" width="1" height="1" fill="#6F1F44" /><rect x="9" y="0" width="1" height="1" fill="#712146" /><rect x="0" y="1" width="1" height="1" fill="#D14A51" /><rect x="1" y="1" width="1" height="1" fill="#B0393D" /><rect x="2" y="1" width="1" height="1" fill="#D2817E" /><rect x="3" y="1" width="1" height="1" fill="#F0A9A5" /><rect x="4" y="1" width="1" height="1" fill="#D7726E" /><rect x="5" y="1" width="1" height="1" fill="#F17A7E" /><rect x="6" y="1" width="1" height="1" fill="#8F314B" /><rect x="7" y="1" width="1" height="1" fill="#460231" /><rect x="8" y="1" width="1" height="1" fill="#7C2947" /><rect x="9" y="1" width="1" height="1" fill="#74213F" /><rect x="0" y="2" width="1" height="1" fill="#D16F6C" /><rect x="1" y="2" width="1" height="1" fill="#DD9086" /><rect x="2" y="2" width="1" height="1" fill="#EEB2A8" /><rect x="3" y="2" width="1" height="1" fill="#EB9C97" /><rect x="4" y="2" width="1" height="1" fill="#E57D7A" /><rect x="5" y="2" width="1" height="1" fill="#B25466" /><rect x="6" y="2" width="1" height="1" fill="#500C31" /><rect x="7" y="2" width="1" height="1" fill="#511A3A" /><rect x="8" y="2" width="1" height="1" fill="#87334A" /><rect x="9" y="2" width="1" height="1" fill="#79253C" /><rect x="0" y="3" width="1" height="1" fill="#DE837E" /><rect x="1" y="3" width="1" height="1" fill="#F3AEA7" /><rect x="2" y="3" width="1" height="1" fill="#E5A29A" /><rect x="3" y="3" width="1" height="1" fill="#E78884" /><rect x="4" y="3" width="1" height="1" fill="#D67177" /><rect x="5" y="3" width="1" height="1" fill="#6D2344" /><rect x="6" y="3" width="1" height="1" fill="#450E38" /><rect x="7" y="3" width="1" height="1" fill="#652645" /><rect x="8" y="3" width="1" height="1" fill="#893449" /><rect x="9" y="3" width="1" height="1" fill="#7F2A3F" /><rect x="0" y="4" width="1" height="1" fill="#DD5A60" /><rect x="1" y="4" width="1" height="1" fill="#DB6B79" /><rect x="2" y="4" width="1" height="1" fill="#D4656E" /><rect x="3" y="4" width="1" height="1" fill="#E56C73" /><rect x="4" y="4" width="1" height="1" fill="#912A47" /><rect x="5" y="4" width="1" height="1" fill="#4D0B39" /><rect x="6" y="4" width="1" height="1" fill="#561744" /><rect x="7" y="4" width="1" height="1" fill="#741E45" /><rect x="8" y="4" width="1" height="1" fill="#8A324A" /><rect x="9" y="4" width="1" height="1" fill="#812941" /><rect x="0" y="5" width="1" height="1" fill="#E86B6F" /><rect x="1" y="5" width="1" height="1" fill="#E97383" /><rect x="2" y="5" width="1" height="1" fill="#F37E8E" /><rect x="3" y="5" width="1" height="1" fill="#B54A5E" /><rect x="4" y="5" width="1" height="1" fill="#5A0D37" /><rect x="5" y="5" width="1" height="1" fill="#4F1346" /><rect x="6" y="5" width="1" height="1" fill="#601840" /><rect x="7" y="5" width="1" height="1" fill="#791A42" /><rect x="8" y="5" width="1" height="1" fill="#8D354E" /><rect x="9" y="5" width="1" height="1" fill="#7F2740" /><rect x="0" y="6" width="1" height="1" fill="#DB807D" /><rect x="1" y="6" width="1" height="1" fill="#DF8483" /><rect x="2" y="6" width="1" height="1" fill="#BE626D" /><rect x="3" y="6" width="1" height="1" fill="#4D0628" /><rect x="4" y="6" width="1" height="1" fill="#421242" /><rect x="5" y="6" width="1" height="1" fill="#5E2353" /><rect x="6" y="6" width="1" height="1" fill="#6D1B43" /><rect x="7" y="6" width="1" height="1" fill="#712040" /><rect x="8" y="6" width="1" height="1" fill="#933E53" /><rect x="9" y="6" width="1" height="1" fill="#822D42" /><rect x="0" y="7" width="1" height="1" fill="#E98F91" /><rect x="1" y="7" width="1" height="1" fill="#F09288" /><rect x="2" y="7" width="1" height="1" fill="#913544" /><rect x="3" y="7" width="1" height="1" fill="#3C0031" /><rect x="4" y="7" width="1" height="1" fill="#350A3F" /><rect x="5" y="7" width="1" height="1" fill="#5B1343" /><rect x="6" y="7" width="1" height="1" fill="#70153E" /><rect x="7" y="7" width="1" height="1" fill="#6F2E44" /><rect x="8" y="7" width="1" height="1" fill="#994555" /><rect x="9" y="7" width="1" height="1" fill="#8C3848" /><rect x="0" y="8" width="1" height="1" fill="#D97B79" /><rect x="1" y="8" width="1" height="1" fill="#DFA695" /><rect x="2" y="8" width="1" height="1" fill="#E3B4A4" /><rect x="3" y="8" width="1" height="1" fill="#BD9492" /><rect x="4" y="8" width="1" height="1" fill="#936778" /><rect x="5" y="8" width="1" height="1" fill="#622C4C" /><rect x="6" y="8" width="1" height="1" fill="#31031F" /><rect x="7" y="8" width="1" height="1" fill="#66243F" /><rect x="8" y="8" width="1" height="1" fill="#9D4C5F" /><rect x="9" y="8" width="1" height="1" fill="#8A394C" /><rect x="0" y="9" width="1" height="1" fill="#E08477" /><rect x="1" y="9" width="1" height="1" fill="#E3AB92" /><rect x="2" y="9" width="1" height="1" fill="#F0C3A4" /><rect x="3" y="9" width="1" height="1" fill="#F7D4AC" /><rect x="4" y="9" width="1" height="1" fill="#FFE1BB" /><rect x="5" y="9" width="1" height="1" fill="#F8CABA" /><rect x="6" y="9" width="1" height="1" fill="#9E727F" /><rect x="7" y="9" width="1" height="1" fill="#67224F" /><rect x="8" y="9" width="1" height="1" fill="#7B2846" /><rect x="9" y="9" width="1" height="1" fill="#7F2C4A" />
  </g>
</svg>