<svg width="800" height="1000" version="1.1" xmlns="http://www.w3.org/2000/svg" xmlns:xlink="http://www.w3.org/1999/xlink">
  <defs>
      <linearGradient id="Gradient2" x1="0" x2="1" y1="0" y2="1">
        <stop offset="0%" stop-color="#2d3c96"/>
        <stop offset="100%" stop-color="#d53392"/>
      </linearGradient>
  </defs>
  <rect x="10" y="10" width="780" height="980" fill="url(#Gradient2)" rx="50" ry="50" stroke="#ffd700" stroke-width="20"/>
  <text x="400" y="920" width="780" text-anchor="middle" style="font: bold 200px 'Helvetica Neue'; fill: #ffd700">01152</text>

  <g transform="translate(80 80) scale(64)">
<rect x="0" y="0" width="1" height="1" fill="#9a5e6a" />
,<rect x="0" y="1" width="1" height="1" fill="#834258" />
,<rect x="0" y="2" width="1" height="1" fill="#712a4a" />
,<rect x="0" y="3" width="1" height="1" fill="#641640" />
,<rect x="0" y="4" width="1" height="1" fill="#64113f" />
,<rect x="0" y="5" width="1" height="1" fill="#691340" />
,<rect x="0" y="6" width="1" height="1" fill="#661138" />
,<rect x="0" y="7" width="1" height="1" fill="#711d3f" />
,<rect x="0" y="8" width="1" height="1" fill="#7a264a" />
,<rect x="0" y="9" width="1" height="1" fill="#772347" />
,<rect x="1" y="0" width="1" height="1" fill="#cd8b95" />
,<rect x="1" y="1" width="1" height="1" fill="#c6828d" />
,<rect x="1" y="2" width="1" height="1" fill="#be7682" />
,<rect x="1" y="3" width="1" height="1" fill="#ae6171" />
,<rect x="1" y="4" width="1" height="1" fill="#a35467" />
,<rect x="1" y="5" width="1" height="1" fill="#a4556b" />
,<rect x="1" y="6" width="1" height="1" fill="#a4546d" />
,<rect x="1" y="7" width="1" height="1" fill="#a55570" />
,<rect x="1" y="8" width="1" height="1" fill="#ba6a73" />
,<rect x="1" y="9" width="1" height="1" fill="#ba6a73" />
,<rect x="2" y="0" width="1" height="1" fill="#3d0017" />
,<rect x="2" y="1" width="1" height="1" fill="#671b39" />
,<rect x="2" y="2" width="1" height="1" fill="#9c4e5b" />
,<rect x="2" y="3" width="1" height="1" fill="#bd726c" />
,<rect x="2" y="4" width="1" height="1" fill="#cf8673" />
,<rect x="2" y="5" width="1" height="1" fill="#e09880" />
,<rect x="2" y="6" width="1" height="1" fill="#e59f86" />
,<rect x="2" y="7" width="1" height="1" fill="#d5917a" />
,<rect x="2" y="8" width="1" height="1" fill="#c2756b" />
,<rect x="2" y="9" width="1" height="1" fill="#d6897f" />
,<rect x="3" y="0" width="1" height="1" fill="#8f3f4a" />
,<rect x="3" y="1" width="1" height="1" fill="#b06164" />
,<rect x="3" y="2" width="1" height="1" fill="#cb7f72" />
,<rect x="3" y="3" width="1" height="1" fill="#d78c75" />
,<rect x="3" y="4" width="1" height="1" fill="#d18a6e" />
,<rect x="3" y="5" width="1" height="1" fill="#d18b72" />
,<rect x="3" y="6" width="1" height="1" fill="#cd8a77" />
,<rect x="3" y="7" width="1" height="1" fill="#b16f61" />
,<rect x="3" y="8" width="1" height="1" fill="#a95b57" />
,<rect x="3" y="9" width="1" height="1" fill="#c97b77" />
,<rect x="4" y="0" width="1" height="1" fill="#da8c7f" />
,<rect x="4" y="1" width="1" height="1" fill="#de9181" />
,<rect x="4" y="2" width="1" height="1" fill="#d98c7a" />
,<rect x="4" y="3" width="1" height="1" fill="#d28774" />
,<rect x="4" y="4" width="1" height="1" fill="#c9806f" />
,<rect x="4" y="5" width="1" height="1" fill="#cc867a" />
,<rect x="4" y="6" width="1" height="1" fill="#cf8f86" />
,<rect x="4" y="7" width="1" height="1" fill="#bb7c77" />
,<rect x="4" y="8" width="1" height="1" fill="#a95a60" />
,<rect x="4" y="9" width="1" height="1" fill="#c17278" />
,<rect x="5" y="0" width="1" height="1" fill="#d58b80" />
,<rect x="5" y="1" width="1" height="1" fill="#d4877d" />
,<rect x="5" y="2" width="1" height="1" fill="#d0837b" />
,<rect x="5" y="3" width="1" height="1" fill="#ce847b" />
,<rect x="5" y="4" width="1" height="1" fill="#cd847d" />
,<rect x="5" y="5" width="1" height="1" fill="#cd897e" />
,<rect x="5" y="6" width="1" height="1" fill="#c88a7d" />
,<rect x="5" y="7" width="1" height="1" fill="#b77c6e" />
,<rect x="5" y="8" width="1" height="1" fill="#a95a60" />
,<rect x="5" y="9" width="1" height="1" fill="#b96a70" />
,<rect x="6" y="0" width="1" height="1" fill="#cc896e" />
,<rect x="6" y="1" width="1" height="1" fill="#c9826c" />
,<rect x="6" y="2" width="1" height="1" fill="#c88071" />
,<rect x="6" y="3" width="1" height="1" fill="#c67d74" />
,<rect x="6" y="4" width="1" height="1" fill="#c6817c" />
,<rect x="6" y="5" width="1" height="1" fill="#cb8788" />
,<rect x="6" y="6" width="1" height="1" fill="#c7868a" />
,<rect x="6" y="7" width="1" height="1" fill="#c4868b" />
,<rect x="6" y="8" width="1" height="1" fill="#a6575d" />
,<rect x="6" y="9" width="1" height="1" fill="#ab5c62" />
,<rect x="7" y="0" width="1" height="1" fill="#c78084" />
,<rect x="7" y="1" width="1" height="1" fill="#c68082" />
,<rect x="7" y="2" width="1" height="1" fill="#ca8580" />
,<rect x="7" y="3" width="1" height="1" fill="#c37f76" />
,<rect x="7" y="4" width="1" height="1" fill="#c37f72" />
,<rect x="7" y="5" width="1" height="1" fill="#c78877" />
,<rect x="7" y="6" width="1" height="1" fill="#c48774" />
,<rect x="7" y="7" width="1" height="1" fill="#c98f7b" />
,<rect x="7" y="8" width="1" height="1" fill="#ac5c67" />
,<rect x="7" y="9" width="1" height="1" fill="#a1515c" />
,<rect x="8" y="0" width="1" height="1" fill="#c9827e" />
,<rect x="8" y="1" width="1" height="1" fill="#c8817b" />
,<rect x="8" y="2" width="1" height="1" fill="#c47e76" />
,<rect x="8" y="3" width="1" height="1" fill="#c37d75" />
,<rect x="8" y="4" width="1" height="1" fill="#c48179" />
,<rect x="8" y="5" width="1" height="1" fill="#c0817a" />
,<rect x="8" y="6" width="1" height="1" fill="#bd827e" />
,<rect x="8" y="7" width="1" height="1" fill="#c08684" />
,<rect x="8" y="8" width="1" height="1" fill="#a7666e" />
,<rect x="8" y="9" width="1" height="1" fill="#923f59" />
,<rect x="9" y="0" width="1" height="1" fill="#c8817d" />
,<rect x="9" y="1" width="1" height="1" fill="#c7807a" />
,<rect x="9" y="2" width="1" height="1" fill="#c37d75" />
,<rect x="9" y="3" width="1" height="1" fill="#c37d75" />
,<rect x="9" y="4" width="1" height="1" fill="#c27f77" />
,<rect x="9" y="5" width="1" height="1" fill="#bc7d76" />
,<rect x="9" y="6" width="1" height="1" fill="#b67b77" />
,<rect x="9" y="7" width="1" height="1" fill="#b87e7c" />
,<rect x="9" y="8" width="1" height="1" fill="#a2666e" />
,<rect x="9" y="9" width="1" height="1" fill="#a65156" />

  </g>
</svg>