<svg width="800" height="1000" xmlns="http://www.w3.org/2000/svg"><defs><linearGradient id="g" x1="0" x2="1" y1="0" y2="1"><stop offset="0%" stop-color="#2d3c96"/><stop offset="100%" stop-color="#d53392"/></linearGradient></defs><rect x="10" y="10" width="780" height="980" fill="url(#g)" rx="50" ry="50" stroke="gold" stroke-width="20"/><text x="400" y="920" width="780" text-anchor="middle" style="font:bold 200px 'Helvetica Neue';fill:gold">01179</text><g transform="translate(80 80) scale(64)"><rect x="0" y="0" width="1" height="1" fill="#827ae0" /><rect x="0" y="1" width="1" height="1" fill="#847be7" /><rect x="0" y="2" width="1" height="1" fill="#7e76ec" /><rect x="0" y="3" width="1" height="1" fill="#9089ff" /><rect x="0" y="4" width="1" height="1" fill="#4440b9" /><rect x="0" y="5" width="1" height="1" fill="#604ebf" /><rect x="0" y="6" width="1" height="1" fill="#9264c6" /><rect x="0" y="7" width="1" height="1" fill="#64247a" /><rect x="0" y="8" width="1" height="1" fill="#5d1662" /><rect x="0" y="9" width="1" height="1" fill="#540b52" /><rect x="1" y="0" width="1" height="1" fill="#877ce3" /><rect x="1" y="1" width="1" height="1" fill="#897dea" /><rect x="1" y="2" width="1" height="1" fill="#8377ed" /><rect x="1" y="3" width="1" height="1" fill="#9287ff" /><rect x="1" y="4" width="1" height="1" fill="#5f55ce" /><rect x="1" y="5" width="1" height="1" fill="#6f58c9" /><rect x="1" y="6" width="1" height="1" fill="#8e5abd" /><rect x="1" y="7" width="1" height="1" fill="#9c56ad" /><rect x="1" y="8" width="1" height="1" fill="#6d206d" /><rect x="1" y="9" width="1" height="1" fill="#5c0c53" /><rect x="2" y="0" width="1" height="1" fill="#9683ee" /><rect x="2" y="1" width="1" height="1" fill="#8a78e6" /><rect x="2" y="2" width="1" height="1" fill="#8c78f0" /><rect x="2" y="3" width="1" height="1" fill="#937ffa" /><rect x="2" y="4" width="1" height="1" fill="#7361d9" /><rect x="2" y="5" width="1" height="1" fill="#9474e3" /><rect x="2" y="6" width="1" height="1" fill="#9c5ec1" /><rect x="2" y="7" width="1" height="1" fill="#b563bb" /><rect x="2" y="8" width="1" height="1" fill="#842a77" /><rect x="2" y="9" width="1" height="1" fill="#690a52" /><rect x="3" y="0" width="1" height="1" fill="#9481ed" /><rect x="3" y="1" width="1" height="1" fill="#8c78e8" /><rect x="3" y="2" width="1" height="1" fill="#947ef7" /><rect x="3" y="3" width="1" height="1" fill="#917bf6" /><rect x="3" y="4" width="1" height="1" fill="#6d5ad0" /><rect x="3" y="5" width="1" height="1" fill="#9d7bea" /><rect x="3" y="6" width="1" height="1" fill="#b372d6" /><rect x="3" y="7" width="1" height="1" fill="#cf7cd5" /><rect x="3" y="8" width="1" height="1" fill="#8d317e" /><rect x="3" y="9" width="1" height="1" fill="#6c0c54" /><rect x="4" y="0" width="1" height="1" fill="#8777e4" /><rect x="4" y="1" width="1" height="1" fill="#8978ea" /><rect x="4" y="2" width="1" height="1" fill="#8875f0" /><rect x="4" y="3" width="1" height="1" fill="#8f7cf8" /><rect x="4" y="4" width="1" height="1" fill="#6757cc" /><rect x="4" y="5" width="1" height="1" fill="#8366d3" /><rect x="4" y="6" width="1" height="1" fill="#9a60c5" /><rect x="4" y="7" width="1" height="1" fill="#ae63bd" /><rect x="4" y="8" width="1" height="1" fill="#7f2e7b" /><rect x="4" y="9" width="1" height="1" fill="#610c54" /><rect x="5" y="0" width="1" height="1" fill="#7b70e0" /><rect x="5" y="1" width="1" height="1" fill="#877aef" /><rect x="5" y="2" width="1" height="1" fill="#8677f5" /><rect x="5" y="3" width="1" height="1" fill="#9588ff" /><rect x="5" y="4" width="1" height="1" fill="#554cc0" /><rect x="5" y="5" width="1" height="1" fill="#6754c0" /><rect x="5" y="6" width="1" height="1" fill="#8b5ec4" /><rect x="5" y="7" width="1" height="1" fill="#793e9a" /><rect x="5" y="8" width="1" height="1" fill="#662675" /><rect x="5" y="9" width="1" height="1" fill="#4e0c55" /><rect x="6" y="0" width="1" height="1" fill="#756ee1" /><rect x="6" y="1" width="1" height="1" fill="#7f77ef" /><rect x="6" y="2" width="1" height="1" fill="#7b71f2" /><rect x="6" y="3" width="1" height="1" fill="#9089ff" /><rect x="6" y="4" width="1" height="1" fill="#4243b5" /><rect x="6" y="5" width="1" height="1" fill="#4d47b2" /><rect x="6" y="6" width="1" height="1" fill="#765bc3" /><rect x="6" y="7" width="1" height="1" fill="#441f80" /><rect x="6" y="8" width="1" height="1" fill="#451f73" /><rect x="6" y="9" width="1" height="1" fill="#3c1664" /><rect x="7" y="0" width="1" height="1" fill="#6d66da" /><rect x="7" y="1" width="1" height="1" fill="#8078f1" /><rect x="7" y="2" width="1" height="1" fill="#7167e9" /><rect x="7" y="3" width="1" height="1" fill="#8984ff" /><rect x="7" y="4" width="1" height="1" fill="#3a40b0" /><rect x="7" y="5" width="1" height="1" fill="#31349d" /><rect x="7" y="6" width="1" height="1" fill="#6a5cc6" /><rect x="7" y="7" width="1" height="1" fill="#654fb5" /><rect x="7" y="8" width="1" height="1" fill="#2f1c76" /><rect x="7" y="9" width="1" height="1" fill="#39277b" /><rect x="8" y="0" width="1" height="1" fill="#665ccf" /><rect x="8" y="1" width="1" height="1" fill="#7a6fe7" /><rect x="8" y="2" width="1" height="1" fill="#796ced" /><rect x="8" y="3" width="1" height="1" fill="#7d76f3" /><rect x="8" y="4" width="1" height="1" fill="#373eaa" /><rect x="8" y="5" width="1" height="1" fill="#0f157c" /><rect x="8" y="6" width="1" height="1" fill="#7c74e2" /><rect x="8" y="7" width="1" height="1" fill="#786cd7" /><rect x="8" y="8" width="1" height="1" fill="#514aaa" /><rect x="8" y="9" width="1" height="1" fill="#36318b" /><rect x="9" y="0" width="1" height="1" fill="#5447b9" /><rect x="9" y="1" width="1" height="1" fill="#7062d9" /><rect x="9" y="2" width="1" height="1" fill="#7566e6" /><rect x="9" y="3" width="1" height="1" fill="#7970ed" /><rect x="9" y="4" width="1" height="1" fill="#363da7" /><rect x="9" y="5" width="1" height="1" fill="#141c81" /><rect x="9" y="6" width="1" height="1" fill="#7e79e8" /><rect x="9" y="7" width="1" height="1" fill="#736bd9" /><rect x="9" y="8" width="1" height="1" fill="#5959bb" /><rect x="9" y="9" width="1" height="1" fill="#3d409d" /></g></svg>