<svg width="800" height="1000" xmlns="http://www.w3.org/2000/svg"><defs><linearGradient id="g" x1="0" x2="1" y1="0" y2="1"><stop offset="0%" stop-color="#2d3c96"/><stop offset="100%" stop-color="#d53392"/></linearGradient></defs><rect x="10" y="10" width="780" height="980" fill="url(#g)" rx="50" ry="50" stroke="gold" stroke-width="20"/><text x="400" y="920" width="780" text-anchor="middle" style="font:bold 200px 'Helvetica Neue';fill:gold">01178</text><g transform="translate(80 80) scale(64)"><rect x="0" y="0" width="1" height="1" fill="#706552" /><rect x="0" y="1" width="1" height="1" fill="#363237" /><rect x="0" y="2" width="1" height="1" fill="#333c6e" /><rect x="0" y="3" width="1" height="1" fill="#323f8f" /><rect x="0" y="4" width="1" height="1" fill="#3d43a4" /><rect x="0" y="5" width="1" height="1" fill="#4b50ba" /><rect x="0" y="6" width="1" height="1" fill="#424cb7" /><rect x="0" y="7" width="1" height="1" fill="#3b3daa" /><rect x="0" y="8" width="1" height="1" fill="#3f2f9d" /><rect x="0" y="9" width="1" height="1" fill="#967cea" /><rect x="1" y="0" width="1" height="1" fill="#635759" /><rect x="1" y="1" width="1" height="1" fill="#373248" /><rect x="1" y="2" width="1" height="1" fill="#424b88" /><rect x="1" y="3" width="1" height="1" fill="#2c3990" /><rect x="1" y="4" width="1" height="1" fill="#373ea1" /><rect x="1" y="5" width="1" height="1" fill="#4b51bb" /><rect x="1" y="6" width="1" height="1" fill="#5d68d4" /><rect x="1" y="7" width="1" height="1" fill="#4348b5" /><rect x="1" y="8" width="1" height="1" fill="#2d208d" /><rect x="1" y="9" width="1" height="1" fill="#846edb" /><rect x="2" y="0" width="1" height="1" fill="#483964" /><rect x="2" y="1" width="1" height="1" fill="#433b74" /><rect x="2" y="2" width="1" height="1" fill="#454da1" /><rect x="2" y="3" width="1" height="1" fill="#3743a7" /><rect x="2" y="4" width="1" height="1" fill="#242b93" /><rect x="2" y="5" width="1" height="1" fill="#3b42ad" /><rect x="2" y="6" width="1" height="1" fill="#6e7ae7" /><rect x="2" y="7" width="1" height="1" fill="#4f57c4" /><rect x="2" y="8" width="1" height="1" fill="#352d99" /><rect x="2" y="9" width="1" height="1" fill="#695ac5" /><rect x="3" y="0" width="1" height="1" fill="#31216e" /><rect x="3" y="1" width="1" height="1" fill="#524a9f" /><rect x="3" y="2" width="1" height="1" fill="#494fb5" /><rect x="3" y="3" width="1" height="1" fill="#4753bf" /><rect x="3" y="4" width="1" height="1" fill="#202790" /><rect x="3" y="5" width="1" height="1" fill="#202891" /><rect x="3" y="6" width="1" height="1" fill="#6e7ce8" /><rect x="3" y="7" width="1" height="1" fill="#5b64d2" /><rect x="3" y="8" width="1" height="1" fill="#3e3ca7" /><rect x="3" y="9" width="1" height="1" fill="#433aa4" /><rect x="4" y="0" width="1" height="1" fill="#35268d" /><rect x="4" y="1" width="1" height="1" fill="#5b52bd" /><rect x="4" y="2" width="1" height="1" fill="#5a5fcf" /><rect x="4" y="3" width="1" height="1" fill="#4c57c5" /><rect x="4" y="4" width="1" height="1" fill="#323ba0" /><rect x="4" y="5" width="1" height="1" fill="#192286" /><rect x="4" y="6" width="1" height="1" fill="#6c79e3" /><rect x="4" y="7" width="1" height="1" fill="#626dd9" /><rect x="4" y="8" width="1" height="1" fill="#5456c1" /><rect x="4" y="9" width="1" height="1" fill="#2a2892" /><rect x="5" y="0" width="1" height="1" fill="#483bb0" /><rect x="5" y="1" width="1" height="1" fill="#6058cd" /><rect x="5" y="2" width="1" height="1" fill="#6569de" /><rect x="5" y="3" width="1" height="1" fill="#555ecd" /><rect x="5" y="4" width="1" height="1" fill="#3840a2" /><rect x="5" y="5" width="1" height="1" fill="#2a3393" /><rect x="5" y="6" width="1" height="1" fill="#6973dc" /><rect x="5" y="7" width="1" height="1" fill="#6870dc" /><rect x="5" y="8" width="1" height="1" fill="#595cc5" /><rect x="5" y="9" width="1" height="1" fill="#36369e" /><rect x="6" y="0" width="1" height="1" fill="#5d52c7" /><rect x="6" y="1" width="1" height="1" fill="#6963d7" /><rect x="6" y="2" width="1" height="1" fill="#6a6de0" /><rect x="6" y="3" width="1" height="1" fill="#6970dc" /><rect x="6" y="4" width="1" height="1" fill="#333a9a" /><rect x="6" y="5" width="1" height="1" fill="#282f8d" /><rect x="6" y="6" width="1" height="1" fill="#6d73db" /><rect x="6" y="7" width="1" height="1" fill="#6d71dc" /><rect x="6" y="8" width="1" height="1" fill="#5656bd" /><rect x="6" y="9" width="1" height="1" fill="#39389d" /><rect x="7" y="0" width="1" height="1" fill="#6b62d6" /><rect x="7" y="1" width="1" height="1" fill="#706ade" /><rect x="7" y="2" width="1" height="1" fill="#7675eb" /><rect x="7" y="3" width="1" height="1" fill="#787beb" /><rect x="7" y="4" width="1" height="1" fill="#373c9f" /><rect x="7" y="5" width="1" height="1" fill="#0f1374" /><rect x="7" y="6" width="1" height="1" fill="#7b7be5" /><rect x="7" y="7" width="1" height="1" fill="#7572dd" /><rect x="7" y="8" width="1" height="1" fill="#544fb2" /><rect x="7" y="9" width="1" height="1" fill="#403b99" /><rect x="8" y="0" width="1" height="1" fill="#6f67d7" /><rect x="8" y="1" width="1" height="1" fill="#7c75e8" /><rect x="8" y="2" width="1" height="1" fill="#6964dd" /><rect x="8" y="3" width="1" height="1" fill="#8684fb" /><rect x="8" y="4" width="1" height="1" fill="#3738a4" /><rect x="8" y="5" width="1" height="1" fill="#25238d" /><rect x="8" y="6" width="1" height="1" fill="#766cdc" /><rect x="8" y="7" width="1" height="1" fill="#7164cf" /><rect x="8" y="8" width="1" height="1" fill="#423693" /><rect x="8" y="9" width="1" height="1" fill="#3e3188" /><rect x="9" y="0" width="1" height="1" fill="#7870df" /><rect x="9" y="1" width="1" height="1" fill="#817aed" /><rect x="9" y="2" width="1" height="1" fill="#7770ec" /><rect x="9" y="3" width="1" height="1" fill="#8c87ff" /><rect x="9" y="4" width="1" height="1" fill="#4645b6" /><rect x="9" y="5" width="1" height="1" fill="#3d38a6" /><rect x="9" y="6" width="1" height="1" fill="#6658ca" /><rect x="9" y="7" width="1" height="1" fill="#43319d" /><rect x="9" y="8" width="1" height="1" fill="#2c1c77" /><rect x="9" y="9" width="1" height="1" fill="#27186b" /></g></svg>