<svg width="800" height="1000" xmlns="http://www.w3.org/2000/svg"><defs><linearGradient id="g" x1="0" x2="1" y1="0" y2="1"><stop offset="0%" stop-color="#2d3c96"/><stop offset="100%" stop-color="#d53392"/></linearGradient></defs><rect x="10" y="10" width="780" height="980" fill="url(#g)" rx="50" ry="50" stroke="gold" stroke-width="20"/><text x="400" y="920" width="780" text-anchor="middle" style="font:bold 200px 'Helvetica Neue';fill:gold">01180</text><g transform="translate(80 80) scale(64)"><rect x="0" y="0" width="1" height="1" fill="#3a3995" /><rect x="0" y="1" width="1" height="1" fill="#5f5ec6" /><rect x="0" y="2" width="1" height="1" fill="#6c6bea" /><rect x="0" y="3" width="1" height="1" fill="#6164de" /><rect x="0" y="4" width="1" height="1" fill="#38409a" /><rect x="0" y="5" width="1" height="1" fill="#252e82" /><rect x="0" y="6" width="1" height="1" fill="#7074dd" /><rect x="0" y="7" width="1" height="1" fill="#6e71e4" /><rect x="0" y="8" width="1" height="1" fill="#535acc" /><rect x="0" y="9" width="1" height="1" fill="#323cad" /><rect x="1" y="0" width="1" height="1" fill="#3d3a8a" /><rect x="1" y="1" width="1" height="1" fill="#5b59b6" /><rect x="1" y="2" width="1" height="1" fill="#5e5dd5" /><rect x="1" y="3" width="1" height="1" fill="#5659d1" /><rect x="1" y="4" width="1" height="1" fill="#39449f" /><rect x="1" y="5" width="1" height="1" fill="#222d85" /><rect x="1" y="6" width="1" height="1" fill="#6d72de" /><rect x="1" y="7" width="1" height="1" fill="#6569de" /><rect x="1" y="8" width="1" height="1" fill="#5156ca" /><rect x="1" y="9" width="1" height="1" fill="#3037aa" /><rect x="2" y="0" width="1" height="1" fill="#403871" /><rect x="2" y="1" width="1" height="1" fill="#55509a" /><rect x="2" y="2" width="1" height="1" fill="#5856c2" /><rect x="2" y="3" width="1" height="1" fill="#484cbf" /><rect x="2" y="4" width="1" height="1" fill="#273492" /><rect x="2" y="5" width="1" height="1" fill="#152481" /><rect x="2" y="6" width="1" height="1" fill="#6f76e8" /><rect x="2" y="7" width="1" height="1" fill="#6367e1" /><rect x="2" y="8" width="1" height="1" fill="#484ac2" /><rect x="2" y="9" width="1" height="1" fill="#2b2ca2" /><rect x="3" y="0" width="1" height="1" fill="#544765" /><rect x="3" y="1" width="1" height="1" fill="#4a4072" /><rect x="3" y="2" width="1" height="1" fill="#504da7" /><rect x="3" y="3" width="1" height="1" fill="#3b41a9" /><rect x="3" y="4" width="1" height="1" fill="#21318f" /><rect x="3" y="5" width="1" height="1" fill="#253698" /><rect x="3" y="6" width="1" height="1" fill="#757ff3" /><rect x="3" y="7" width="1" height="1" fill="#5559d6" /><rect x="3" y="8" width="1" height="1" fill="#3e3bb6" /><rect x="3" y="9" width="1" height="1" fill="#3f3ab2" /><rect x="4" y="0" width="1" height="1" fill="#685352" /><rect x="4" y="1" width="1" height="1" fill="#47374d" /><rect x="4" y="2" width="1" height="1" fill="#4b458a" /><rect x="4" y="3" width="1" height="1" fill="#3a3f9a" /><rect x="4" y="4" width="1" height="1" fill="#2d3f99" /><rect x="4" y="5" width="1" height="1" fill="#3b4fb1" /><rect x="4" y="6" width="1" height="1" fill="#6773e8" /><rect x="4" y="7" width="1" height="1" fill="#474bc8" /><rect x="4" y="8" width="1" height="1" fill="#29229c" /><rect x="4" y="9" width="1" height="1" fill="#695dd6" /><rect x="5" y="0" width="1" height="1" fill="#73563f" /><rect x="5" y="1" width="1" height="1" fill="#4f3839" /><rect x="5" y="2" width="1" height="1" fill="#483d6f" /><rect x="5" y="3" width="1" height="1" fill="#363885" /><rect x="5" y="4" width="1" height="1" fill="#354599" /><rect x="5" y="5" width="1" height="1" fill="#4154b4" /><rect x="5" y="6" width="1" height="1" fill="#4b56ca" /><rect x="5" y="7" width="1" height="1" fill="#4344c0" /><rect x="5" y="8" width="1" height="1" fill="#31269f" /><rect x="5" y="9" width="1" height="1" fill="#9b8aff" /><rect x="6" y="0" width="1" height="1" fill="#7c5732" /><rect x="6" y="1" width="1" height="1" fill="#644538" /><rect x="6" y="2" width="1" height="1" fill="#4a395b" /><rect x="6" y="3" width="1" height="1" fill="#343170" /><rect x="6" y="4" width="1" height="1" fill="#35408b" /><rect x="6" y="5" width="1" height="1" fill="#4251ac" /><rect x="6" y="6" width="1" height="1" fill="#3a42b1" /><rect x="6" y="7" width="1" height="1" fill="#3837af" /><rect x="6" y="8" width="1" height="1" fill="#6052c9" /><rect x="6" y="9" width="1" height="1" fill="#a592ff" /><rect x="7" y="0" width="1" height="1" fill="#754922" /><rect x="7" y="1" width="1" height="1" fill="#795442" /><rect x="7" y="2" width="1" height="1" fill="#644c65" /><rect x="7" y="3" width="1" height="1" fill="#473d73" /><rect x="7" y="4" width="1" height="1" fill="#31347a" /><rect x="7" y="5" width="1" height="1" fill="#3d449d" /><rect x="7" y="6" width="1" height="1" fill="#3a3ca9" /><rect x="7" y="7" width="1" height="1" fill="#3631a8" /><rect x="7" y="8" width="1" height="1" fill="#9e8eff" /><rect x="7" y="9" width="1" height="1" fill="#9984fa" /><rect x="8" y="0" width="1" height="1" fill="#7b482b" /><rect x="8" y="1" width="1" height="1" fill="#704438" /><rect x="8" y="2" width="1" height="1" fill="#ac8da4" /><rect x="8" y="3" width="1" height="1" fill="#9f8dbe" /><rect x="8" y="4" width="1" height="1" fill="#6f6aad" /><rect x="8" y="5" width="1" height="1" fill="#39388f" /><rect x="8" y="6" width="1" height="1" fill="#302b98" /><rect x="8" y="7" width="1" height="1" fill="#6f64dc" /><rect x="8" y="8" width="1" height="1" fill="#907ef6" /><rect x="8" y="9" width="1" height="1" fill="#9883fb" /><rect x="9" y="0" width="1" height="1" fill="#834d35" /><rect x="9" y="1" width="1" height="1" fill="#aa7b72" /><rect x="9" y="2" width="1" height="1" fill="#c09db3" /><rect x="9" y="3" width="1" height="1" fill="#a690bf" /><rect x="9" y="4" width="1" height="1" fill="#9d92d4" /><rect x="9" y="5" width="1" height="1" fill="#807ad1" /><rect x="9" y="6" width="1" height="1" fill="#7a72de" /><rect x="9" y="7" width="1" height="1" fill="#877bf2" /><rect x="9" y="8" width="1" height="1" fill="#8876ee" /><rect x="9" y="9" width="1" height="1" fill="#9681fa" /></g></svg>