<svg width="800" height="1000" xmlns="http://www.w3.org/2000/svg"><defs><linearGradient id="g" x1="0" x2="1" y1="0" y2="1"><stop offset="0%" stop-color="#2d3c96"/><stop offset="100%" stop-color="#d53392"/></linearGradient></defs><rect x="10" y="10" width="780" height="980" fill="url(#g)" rx="50" ry="50" stroke="gold" stroke-width="20"/><text x="400" y="920" width="780" text-anchor="middle" style="font:bold 200px 'Helvetica Neue';fill:gold">01219</text><g transform="translate(80 80) scale(64)"><rect x="0" y="0" width="1" height="1" fill="#4c4c4c" /><rect x="0" y="1" width="1" height="1" fill="#ffffff" /><rect x="0" y="2" width="1" height="1" fill="#ffffff" /><rect x="0" y="3" width="1" height="1" fill="#ffffff" /><rect x="0" y="4" width="1" height="1" fill="#ffffff" /><rect x="0" y="5" width="1" height="1" fill="#ffffff" /><rect x="0" y="6" width="1" height="1" fill="#ffffff" /><rect x="0" y="7" width="1" height="1" fill="#ffffff" /><rect x="0" y="8" width="1" height="1" fill="#ffffff" /><rect x="0" y="9" width="1" height="1" fill="#ffffff" /><rect x="1" y="0" width="1" height="1" fill="#262626" /><rect x="1" y="1" width="1" height="1" fill="#646464" /><rect x="1" y="2" width="1" height="1" fill="#bababa" /><rect x="1" y="3" width="1" height="1" fill="#ffffff" /><rect x="1" y="4" width="1" height="1" fill="#cbcbcb" /><rect x="1" y="5" width="1" height="1" fill="#9f9f9f" /><rect x="1" y="6" width="1" height="1" fill="#9d9d9d" /><rect x="1" y="7" width="1" height="1" fill="#a0a0a0" /><rect x="1" y="8" width="1" height="1" fill="#a0a0a0" /><rect x="1" y="9" width="1" height="1" fill="#989898" /><rect x="2" y="0" width="1" height="1" fill="#000000" /><rect x="2" y="1" width="1" height="1" fill="#303030" /><rect x="2" y="2" width="1" height="1" fill="#868686" /><rect x="2" y="3" width="1" height="1" fill="#272727" /><rect x="2" y="4" width="1" height="1" fill="#000000" /><rect x="2" y="5" width="1" height="1" fill="#000000" /><rect x="2" y="6" width="1" height="1" fill="#000000" /><rect x="2" y="7" width="1" height="1" fill="#000000" /><rect x="2" y="8" width="1" height="1" fill="#000000" /><rect x="2" y="9" width="1" height="1" fill="#000000" /><rect x="3" y="0" width="1" height="1" fill="#2c2c2c" /><rect x="3" y="1" width="1" height="1" fill="#aeaeae" /><rect x="3" y="2" width="1" height="1" fill="#0f0f0f" /><rect x="3" y="3" width="1" height="1" fill="#000000" /><rect x="3" y="4" width="1" height="1" fill="#000000" /><rect x="3" y="5" width="1" height="1" fill="#030303" /><rect x="3" y="6" width="1" height="1" fill="#030303" /><rect x="3" y="7" width="1" height="1" fill="#030303" /><rect x="3" y="8" width="1" height="1" fill="#030303" /><rect x="3" y="9" width="1" height="1" fill="#000000" /><rect x="4" y="0" width="1" height="1" fill="#7c7c7c" /><rect x="4" y="1" width="1" height="1" fill="#f4f4f4" /><rect x="4" y="2" width="1" height="1" fill="#0d0d0d" /><rect x="4" y="3" width="1" height="1" fill="#000000" /><rect x="4" y="4" width="1" height="1" fill="#050505" /><rect x="4" y="5" width="1" height="1" fill="#050505" /><rect x="4" y="6" width="1" height="1" fill="#050505" /><rect x="4" y="7" width="1" height="1" fill="#050505" /><rect x="4" y="8" width="1" height="1" fill="#050505" /><rect x="4" y="9" width="1" height="1" fill="#050505" /><rect x="5" y="0" width="1" height="1" fill="#666666" /><rect x="5" y="1" width="1" height="1" fill="#ffffff" /><rect x="5" y="2" width="1" height="1" fill="#f3f3f3" /><rect x="5" y="3" width="1" height="1" fill="#151515" /><rect x="5" y="4" width="1" height="1" fill="#000000" /><rect x="5" y="5" width="1" height="1" fill="#050505" /><rect x="5" y="6" width="1" height="1" fill="#050505" /><rect x="5" y="7" width="1" height="1" fill="#050505" /><rect x="5" y="8" width="1" height="1" fill="#050505" /><rect x="5" y="9" width="1" height="1" fill="#050505" /><rect x="6" y="0" width="1" height="1" fill="#080808" /><rect x="6" y="1" width="1" height="1" fill="#b7b7b7" /><rect x="6" y="2" width="1" height="1" fill="#c3c3c3" /><rect x="6" y="3" width="1" height="1" fill="#0b0b0b" /><rect x="6" y="4" width="1" height="1" fill="#000000" /><rect x="6" y="5" width="1" height="1" fill="#050505" /><rect x="6" y="6" width="1" height="1" fill="#050505" /><rect x="6" y="7" width="1" height="1" fill="#050505" /><rect x="6" y="8" width="1" height="1" fill="#050505" /><rect x="6" y="9" width="1" height="1" fill="#050505" /><rect x="7" y="0" width="1" height="1" fill="#030303" /><rect x="7" y="1" width="1" height="1" fill="#000000" /><rect x="7" y="2" width="1" height="1" fill="#000000" /><rect x="7" y="3" width="1" height="1" fill="#040404" /><rect x="7" y="4" width="1" height="1" fill="#060606" /><rect x="7" y="5" width="1" height="1" fill="#050505" /><rect x="7" y="6" width="1" height="1" fill="#050505" /><rect x="7" y="7" width="1" height="1" fill="#050505" /><rect x="7" y="8" width="1" height="1" fill="#050505" /><rect x="7" y="9" width="1" height="1" fill="#050505" /><rect x="8" y="0" width="1" height="1" fill="#616161" /><rect x="8" y="1" width="1" height="1" fill="#6a6a6a" /><rect x="8" y="2" width="1" height="1" fill="#000000" /><rect x="8" y="3" width="1" height="1" fill="#000000" /><rect x="8" y="4" width="1" height="1" fill="#000000" /><rect x="8" y="5" width="1" height="1" fill="#000000" /><rect x="8" y="6" width="1" height="1" fill="#000000" /><rect x="8" y="7" width="1" height="1" fill="#000000" /><rect x="8" y="8" width="1" height="1" fill="#000000" /><rect x="8" y="9" width="1" height="1" fill="#000000" /><rect x="9" y="0" width="1" height="1" fill="#707070" /><rect x="9" y="1" width="1" height="1" fill="#818181" /><rect x="9" y="2" width="1" height="1" fill="#000000" /><rect x="9" y="3" width="1" height="1" fill="#060606" /><rect x="9" y="4" width="1" height="1" fill="#060606" /><rect x="9" y="5" width="1" height="1" fill="#060606" /><rect x="9" y="6" width="1" height="1" fill="#060606" /><rect x="9" y="7" width="1" height="1" fill="#060606" /><rect x="9" y="8" width="1" height="1" fill="#040404" /><rect x="9" y="9" width="1" height="1" fill="#000000" /></g></svg>