<svg width="800" height="1000" version="1.1" xmlns="http://www.w3.org/2000/svg" xmlns:xlink="http://www.w3.org/1999/xlink">
  <defs>
      <linearGradient id="Gradient2" x1="0" x2="1" y1="0" y2="1">
        <stop offset="0%" stop-color="#2d3c96"/>
        <stop offset="100%" stop-color="#d53392"/>
      </linearGradient>
  </defs>
  <rect x="10" y="10" width="780" height="980" fill="url(#Gradient2)" rx="50" ry="50" stroke="#ffd700" stroke-width="20"/>
  <text x="400" y="920" width="780" text-anchor="middle" style="font: bold 200px 'Helvetica Neue'; fill: #ffd700">01226</text>

  <g transform="translate(80 80) scale(64)">
<rect x="0" y="0" width="1" height="1" fill="#ECE7EE" /><rect x="1" y="0" width="1" height="1" fill="#EFEAF0" /><rect x="2" y="0" width="1" height="1" fill="#F0ECED" /><rect x="3" y="0" width="1" height="1" fill="#F3EFEE" /><rect x="4" y="0" width="1" height="1" fill="#F3EFEE" /><rect x="5" y="0" width="1" height="1" fill="#F1F1EF" /><rect x="6" y="0" width="1" height="1" fill="#F3F7FA" /><rect x="7" y="0" width="1" height="1" fill="#EBF4F9" /><rect x="8" y="0" width="1" height="1" fill="#B8C6D1" /><rect x="9" y="0" width="1" height="1" fill="#D2E5F4" /><rect x="0" y="1" width="1" height="1" fill="#EEEBF2" /><rect x="1" y="1" width="1" height="1" fill="#F0EEF3" /><rect x="2" y="1" width="1" height="1" fill="#F3EEF2" /><rect x="3" y="1" width="1" height="1" fill="#F2EEEF" /><rect x="4" y="1" width="1" height="1" fill="#F2F0F1" /><rect x="5" y="1" width="1" height="1" fill="#F2F2F4" /><rect x="6" y="1" width="1" height="1" fill="#E7ECF0" /><rect x="7" y="1" width="1" height="1" fill="#DDE7F0" /><rect x="8" y="1" width="1" height="1" fill="#B0C0CD" /><rect x="9" y="1" width="1" height="1" fill="#BCD1E2" /><rect x="0" y="2" width="1" height="1" fill="#EBE8EF" /><rect x="1" y="2" width="1" height="1" fill="#ECE9F0" /><rect x="2" y="2" width="1" height="1" fill="#EEECF1" /><rect x="3" y="2" width="1" height="1" fill="#EAE8EB" /><rect x="4" y="2" width="1" height="1" fill="#EFEFF1" /><rect x="5" y="2" width="1" height="1" fill="#EBEEF3" /><rect x="6" y="2" width="1" height="1" fill="#D2D9E1" /><rect x="7" y="2" width="1" height="1" fill="#C8D6E1" /><rect x="8" y="2" width="1" height="1" fill="#AABDCC" /><rect x="9" y="2" width="1" height="1" fill="#ACC5D9" /><rect x="0" y="3" width="1" height="1" fill="#EEEBF4" /><rect x="1" y="3" width="1" height="1" fill="#EAE9EF" /><rect x="2" y="3" width="1" height="1" fill="#F0EFF4" /><rect x="3" y="3" width="1" height="1" fill="#EBECF0" /><rect x="4" y="3" width="1" height="1" fill="#EDF0F5" /><rect x="5" y="3" width="1" height="1" fill="#E0E7EF" /><rect x="6" y="3" width="1" height="1" fill="#BEC8D2" /><rect x="7" y="3" width="1" height="1" fill="#B9C9D9" /><rect x="8" y="3" width="1" height="1" fill="#A5BBD0" /><rect x="9" y="3" width="1" height="1" fill="#A2BCD5" /><rect x="0" y="4" width="1" height="1" fill="#EFECF7" /><rect x="1" y="4" width="1" height="1" fill="#E9E8ED" /><rect x="2" y="4" width="1" height="1" fill="#EFF0F5" /><rect x="3" y="4" width="1" height="1" fill="#E9EDF0" /><rect x="4" y="4" width="1" height="1" fill="#E5ECF2" /><rect x="5" y="4" width="1" height="1" fill="#CFD9E2" /><rect x="6" y="4" width="1" height="1" fill="#A6B6C5" /><rect x="7" y="4" width="1" height="1" fill="#A5BACD" /><rect x="8" y="4" width="1" height="1" fill="#ABC5DE" /><rect x="9" y="4" width="1" height="1" fill="#91AECC" /><rect x="0" y="5" width="1" height="1" fill="#EBE8F1" /><rect x="1" y="5" width="1" height="1" fill="#E7E6EE" /><rect x="2" y="5" width="1" height="1" fill="#EBEBF3" /><rect x="3" y="5" width="1" height="1" fill="#E6EBEF" /><rect x="4" y="5" width="1" height="1" fill="#E0E9F2" /><rect x="5" y="5" width="1" height="1" fill="#CBD7E3" /><rect x="6" y="5" width="1" height="1" fill="#A8B9CB" /><rect x="7" y="5" width="1" height="1" fill="#9EB4CB" /><rect x="8" y="5" width="1" height="1" fill="#BEDCF8" /><rect x="9" y="5" width="1" height="1" fill="#8DAECF" /><rect x="0" y="6" width="1" height="1" fill="#ECE9F2" /><rect x="1" y="6" width="1" height="1" fill="#ECEAF5" /><rect x="2" y="6" width="1" height="1" fill="#EBEBF3" /><rect x="3" y="6" width="1" height="1" fill="#E7EBF4" /><rect x="4" y="6" width="1" height="1" fill="#E5EFF9" /><rect x="5" y="6" width="1" height="1" fill="#DAE7F7" /><rect x="6" y="6" width="1" height="1" fill="#BDCFE3" /><rect x="7" y="6" width="1" height="1" fill="#A2BAD4" /><rect x="8" y="6" width="1" height="1" fill="#BEDBFB" /><rect x="9" y="6" width="1" height="1" fill="#94B4DA" /><rect x="0" y="7" width="1" height="1" fill="#E8E8F0" /><rect x="1" y="7" width="1" height="1" fill="#EDECF4" /><rect x="2" y="7" width="1" height="1" fill="#E6E6EE" /><rect x="3" y="7" width="1" height="1" fill="#E2E6F1" /><rect x="4" y="7" width="1" height="1" fill="#E2ECF8" /><rect x="5" y="7" width="1" height="1" fill="#DEEEFD" /><rect x="6" y="7" width="1" height="1" fill="#C5DAEF" /><rect x="7" y="7" width="1" height="1" fill="#9BB5CE" /><rect x="8" y="7" width="1" height="1" fill="#A8C7E6" /><rect x="9" y="7" width="1" height="1" fill="#97B7DD" /><rect x="0" y="8" width="1" height="1" fill="#E9E8EE" /><rect x="1" y="8" width="1" height="1" fill="#E8E7EF" /><rect x="2" y="8" width="1" height="1" fill="#E9ECF1" /><rect x="3" y="8" width="1" height="1" fill="#E2E9F3" /><rect x="4" y="8" width="1" height="1" fill="#DBE5F1" /><rect x="5" y="8" width="1" height="1" fill="#E3F3FF" /><rect x="6" y="8" width="1" height="1" fill="#ACC1D6" /><rect x="7" y="8" width="1" height="1" fill="#9FB7D1" /><rect x="8" y="8" width="1" height="1" fill="#9DBADC" /><rect x="9" y="8" width="1" height="1" fill="#95B3D9" /><rect x="0" y="9" width="1" height="1" fill="#DBDEE5" /><rect x="1" y="9" width="1" height="1" fill="#E2E5EE" /><rect x="2" y="9" width="1" height="1" fill="#E2E9F1" /><rect x="3" y="9" width="1" height="1" fill="#E1E9F3" /><rect x="4" y="9" width="1" height="1" fill="#DEEAF6" /><rect x="5" y="9" width="1" height="1" fill="#D3E3F0" /><rect x="6" y="9" width="1" height="1" fill="#A0B5C8" /><rect x="7" y="9" width="1" height="1" fill="#A0B8D2" /><rect x="8" y="9" width="1" height="1" fill="#99B4D2" /><rect x="9" y="9" width="1" height="1" fill="#9BB8DA" />
  </g>
</svg>