<svg width="800" height="1000" version="1.1" xmlns="http://www.w3.org/2000/svg" xmlns:xlink="http://www.w3.org/1999/xlink">
  <defs>
      <linearGradient id="Gradient2" x1="0" x2="1" y1="0" y2="1">
        <stop offset="0%" stop-color="#2d3c96"/>
        <stop offset="100%" stop-color="#d53392"/>
      </linearGradient>
  </defs>
  <rect x="10" y="10" width="780" height="980" fill="url(#Gradient2)" rx="50" ry="50" stroke="#ffd700" stroke-width="20"/>
  <text x="400" y="920" width="780" text-anchor="middle" style="font: bold 200px 'Helvetica Neue'; fill: #ffd700">01221</text>

  <g transform="translate(80 80) scale(64)">
<rect x="0" y="0" width="1" height="1" fill="#000000" />
,<rect x="0" y="1" width="1" height="1" fill="#4d4d4d" />
,<rect x="0" y="2" width="1" height="1" fill="#939393" />
,<rect x="0" y="3" width="1" height="1" fill="#090909" />
,<rect x="0" y="4" width="1" height="1" fill="#000000" />
,<rect x="0" y="5" width="1" height="1" fill="#000000" />
,<rect x="0" y="6" width="1" height="1" fill="#000000" />
,<rect x="0" y="7" width="1" height="1" fill="#000000" />
,<rect x="0" y="8" width="1" height="1" fill="#000000" />
,<rect x="0" y="9" width="1" height="1" fill="#000000" />
,<rect x="1" y="0" width="1" height="1" fill="#3b3b3b" />
,<rect x="1" y="1" width="1" height="1" fill="#e3e3e3" />
,<rect x="1" y="2" width="1" height="1" fill="#1e1e1e" />
,<rect x="1" y="3" width="1" height="1" fill="#000000" />
,<rect x="1" y="4" width="1" height="1" fill="#020202" />
,<rect x="1" y="5" width="1" height="1" fill="#050505" />
,<rect x="1" y="6" width="1" height="1" fill="#050505" />
,<rect x="1" y="7" width="1" height="1" fill="#050505" />
,<rect x="1" y="8" width="1" height="1" fill="#050505" />
,<rect x="1" y="9" width="1" height="1" fill="#040404" />
,<rect x="2" y="0" width="1" height="1" fill="#a1a1a1" />
,<rect x="2" y="1" width="1" height="1" fill="#c3c3c3" />
,<rect x="2" y="2" width="1" height="1" fill="#000000" />
,<rect x="2" y="3" width="1" height="1" fill="#000000" />
,<rect x="2" y="4" width="1" height="1" fill="#030303" />
,<rect x="2" y="5" width="1" height="1" fill="#030303" />
,<rect x="2" y="6" width="1" height="1" fill="#030303" />
,<rect x="2" y="7" width="1" height="1" fill="#030303" />
,<rect x="2" y="8" width="1" height="1" fill="#030303" />
,<rect x="2" y="9" width="1" height="1" fill="#000000" />
,<rect x="3" y="0" width="1" height="1" fill="#949494" />
,<rect x="3" y="1" width="1" height="1" fill="#ffffff" />
,<rect x="3" y="2" width="1" height="1" fill="#191919" />
,<rect x="3" y="3" width="1" height="1" fill="#000000" />
,<rect x="3" y="4" width="1" height="1" fill="#000000" />
,<rect x="3" y="5" width="1" height="1" fill="#000000" />
,<rect x="3" y="6" width="1" height="1" fill="#000000" />
,<rect x="3" y="7" width="1" height="1" fill="#000000" />
,<rect x="3" y="8" width="1" height="1" fill="#000000" />
,<rect x="3" y="9" width="1" height="1" fill="#000000" />
,<rect x="4" y="0" width="1" height="1" fill="#2e2e2e" />
,<rect x="4" y="1" width="1" height="1" fill="#ffffff" />
,<rect x="4" y="2" width="1" height="1" fill="#ffffff" />
,<rect x="4" y="3" width="1" height="1" fill="#b0b0b0" />
,<rect x="4" y="4" width="1" height="1" fill="#999999" />
,<rect x="4" y="5" width="1" height="1" fill="#9f9f9f" />
,<rect x="4" y="6" width="1" height="1" fill="#a0a0a0" />
,<rect x="4" y="7" width="1" height="1" fill="#a0a0a0" />
,<rect x="4" y="8" width="1" height="1" fill="#9e9e9e" />
,<rect x="4" y="9" width="1" height="1" fill="#969696" />
,<rect x="5" y="0" width="1" height="1" fill="#000000" />
,<rect x="5" y="1" width="1" height="1" fill="#333333" />
,<rect x="5" y="2" width="1" height="1" fill="#d5d5d5" />
,<rect x="5" y="3" width="1" height="1" fill="#ffffff" />
,<rect x="5" y="4" width="1" height="1" fill="#ffffff" />
,<rect x="5" y="5" width="1" height="1" fill="#ffffff" />
,<rect x="5" y="6" width="1" height="1" fill="#ffffff" />
,<rect x="5" y="7" width="1" height="1" fill="#ffffff" />
,<rect x="5" y="8" width="1" height="1" fill="#ffffff" />
,<rect x="5" y="9" width="1" height="1" fill="#ffffff" />
,<rect x="6" y="0" width="1" height="1" fill="#000000" />
,<rect x="6" y="1" width="1" height="1" fill="#000000" />
,<rect x="6" y="2" width="1" height="1" fill="#7f7f7f" />
,<rect x="6" y="3" width="1" height="1" fill="#a4a4a4" />
,<rect x="6" y="4" width="1" height="1" fill="#555555" />
,<rect x="6" y="5" width="1" height="1" fill="#4e4e4e" />
,<rect x="6" y="6" width="1" height="1" fill="#535353" />
,<rect x="6" y="7" width="1" height="1" fill="#535353" />
,<rect x="6" y="8" width="1" height="1" fill="#535353" />
,<rect x="6" y="9" width="1" height="1" fill="#454545" />
,<rect x="7" y="0" width="1" height="1" fill="#000000" />
,<rect x="7" y="1" width="1" height="1" fill="#bfbfbf" />
,<rect x="7" y="2" width="1" height="1" fill="#818181" />
,<rect x="7" y="3" width="1" height="1" fill="#000000" />
,<rect x="7" y="4" width="1" height="1" fill="#000000" />
,<rect x="7" y="5" width="1" height="1" fill="#000000" />
,<rect x="7" y="6" width="1" height="1" fill="#000000" />
,<rect x="7" y="7" width="1" height="1" fill="#000000" />
,<rect x="7" y="8" width="1" height="1" fill="#000000" />
,<rect x="7" y="9" width="1" height="1" fill="#000000" />
,<rect x="8" y="0" width="1" height="1" fill="#787878" />
,<rect x="8" y="1" width="1" height="1" fill="#c8c8c8" />
,<rect x="8" y="2" width="1" height="1" fill="#000000" />
,<rect x="8" y="3" width="1" height="1" fill="#000000" />
,<rect x="8" y="4" width="1" height="1" fill="#060606" />
,<rect x="8" y="5" width="1" height="1" fill="#050505" />
,<rect x="8" y="6" width="1" height="1" fill="#050505" />
,<rect x="8" y="7" width="1" height="1" fill="#050505" />
,<rect x="8" y="8" width="1" height="1" fill="#050505" />
,<rect x="8" y="9" width="1" height="1" fill="#050505" />
,<rect x="9" y="0" width="1" height="1" fill="#aaaaaa" />
,<rect x="9" y="1" width="1" height="1" fill="#c6c6c6" />
,<rect x="9" y="2" width="1" height="1" fill="#000000" />
,<rect x="9" y="3" width="1" height="1" fill="#000000" />
,<rect x="9" y="4" width="1" height="1" fill="#000000" />
,<rect x="9" y="5" width="1" height="1" fill="#000000" />
,<rect x="9" y="6" width="1" height="1" fill="#000000" />
,<rect x="9" y="7" width="1" height="1" fill="#000000" />
,<rect x="9" y="8" width="1" height="1" fill="#000000" />
,<rect x="9" y="9" width="1" height="1" fill="#000000" />

  </g>
</svg>