<svg width="800" height="1000" version="1.1" xmlns="http://www.w3.org/2000/svg" xmlns:xlink="http://www.w3.org/1999/xlink">
  <defs>
      <linearGradient id="Gradient2" x1="0" x2="1" y1="0" y2="1">
        <stop offset="0%" stop-color="#2d3c96"/>
        <stop offset="100%" stop-color="#d53392"/>
      </linearGradient>
  </defs>
  <rect x="10" y="10" width="780" height="980" fill="url(#Gradient2)" rx="50" ry="50" stroke="#ffd700" stroke-width="20"/>
  <text x="400" y="920" width="780" text-anchor="middle" style="font: bold 200px 'Helvetica Neue'; fill: #ffd700">01229</text>

  <g transform="translate(80 80) scale(64)">
<rect x="0" y="0" width="1" height="1" fill="#9ABEE2" /><rect x="1" y="0" width="1" height="1" fill="#9BBCDD" /><rect x="2" y="0" width="1" height="1" fill="#9BBBD4" /><rect x="3" y="0" width="1" height="1" fill="#9AB9CE" /><rect x="4" y="0" width="1" height="1" fill="#99B7CF" /><rect x="5" y="0" width="1" height="1" fill="#9CBCD5" /><rect x="6" y="0" width="1" height="1" fill="#99B8D4" /><rect x="7" y="0" width="1" height="1" fill="#93B5D1" /><rect x="8" y="0" width="1" height="1" fill="#96B8D4" /><rect x="9" y="0" width="1" height="1" fill="#93B5D1" /><rect x="0" y="1" width="1" height="1" fill="#9CBEDA" /><rect x="1" y="1" width="1" height="1" fill="#92B4CF" /><rect x="2" y="1" width="1" height="1" fill="#9CBCD1" /><rect x="3" y="1" width="1" height="1" fill="#99B9CE" /><rect x="4" y="1" width="1" height="1" fill="#95B8CE" /><rect x="5" y="1" width="1" height="1" fill="#99B9D2" /><rect x="6" y="1" width="1" height="1" fill="#97B6D2" /><rect x="7" y="1" width="1" height="1" fill="#94B8D2" /><rect x="8" y="1" width="1" height="1" fill="#98BAD5" /><rect x="9" y="1" width="1" height="1" fill="#96B8D3" /><rect x="0" y="2" width="1" height="1" fill="#A7C1D2" /><rect x="1" y="2" width="1" height="1" fill="#A2BDCE" /><rect x="2" y="2" width="1" height="1" fill="#9DBCD0" /><rect x="3" y="2" width="1" height="1" fill="#9BBBD0" /><rect x="4" y="2" width="1" height="1" fill="#99B9CE" /><rect x="5" y="2" width="1" height="1" fill="#97B7CE" /><rect x="6" y="2" width="1" height="1" fill="#98B8D1" /><rect x="7" y="2" width="1" height="1" fill="#97B9D2" /><rect x="8" y="2" width="1" height="1" fill="#98BAD3" /><rect x="9" y="2" width="1" height="1" fill="#97B9D2" /><rect x="0" y="3" width="1" height="1" fill="#A4BECB" /><rect x="1" y="3" width="1" height="1" fill="#9FBBC9" /><rect x="2" y="3" width="1" height="1" fill="#9DBCCE" /><rect x="3" y="3" width="1" height="1" fill="#9DBDD2" /><rect x="4" y="3" width="1" height="1" fill="#9FBFD4" /><rect x="5" y="3" width="1" height="1" fill="#9BBBD0" /><rect x="6" y="3" width="1" height="1" fill="#99BBD4" /><rect x="7" y="3" width="1" height="1" fill="#9CBCD3" /><rect x="8" y="3" width="1" height="1" fill="#97B7CC" /><rect x="9" y="3" width="1" height="1" fill="#98B8CD" /><rect x="0" y="4" width="1" height="1" fill="#9ABECE" /><rect x="1" y="4" width="1" height="1" fill="#9FC2D5" /><rect x="2" y="4" width="1" height="1" fill="#9BBED2" /><rect x="3" y="4" width="1" height="1" fill="#9DBED1" /><rect x="4" y="4" width="1" height="1" fill="#A0C1D4" /><rect x="5" y="4" width="1" height="1" fill="#9BBCCF" /><rect x="6" y="4" width="1" height="1" fill="#9DBED1" /><rect x="7" y="4" width="1" height="1" fill="#9EBFD2" /><rect x="8" y="4" width="1" height="1" fill="#99B8CA" /><rect x="9" y="4" width="1" height="1" fill="#A1C0D2" /><rect x="0" y="5" width="1" height="1" fill="#A3C6DA" /><rect x="1" y="5" width="1" height="1" fill="#98BBD1" /><rect x="2" y="5" width="1" height="1" fill="#A0C0D5" /><rect x="3" y="5" width="1" height="1" fill="#9CBFD2" /><rect x="4" y="5" width="1" height="1" fill="#A0C1D4" /><rect x="5" y="5" width="1" height="1" fill="#9BBACC" /><rect x="6" y="5" width="1" height="1" fill="#9FBED0" /><rect x="7" y="5" width="1" height="1" fill="#A2BFCF" /><rect x="8" y="5" width="1" height="1" fill="#A0BCC8" /><rect x="9" y="5" width="1" height="1" fill="#B2CEDA" /><rect x="0" y="6" width="1" height="1" fill="#9FB7D3" /><rect x="1" y="6" width="1" height="1" fill="#A7C1DA" /><rect x="2" y="6" width="1" height="1" fill="#A5C1D7" /><rect x="3" y="6" width="1" height="1" fill="#9FBED2" /><rect x="4" y="6" width="1" height="1" fill="#A2C1D3" /><rect x="5" y="6" width="1" height="1" fill="#A0BDCD" /><rect x="6" y="6" width="1" height="1" fill="#A3BFCD" /><rect x="7" y="6" width="1" height="1" fill="#A4BECB" /><rect x="8" y="6" width="1" height="1" fill="#A4BAC5" /><rect x="9" y="6" width="1" height="1" fill="#C0D6E1" /><rect x="0" y="7" width="1" height="1" fill="#B0C0D9" /><rect x="1" y="7" width="1" height="1" fill="#A6BAD3" /><rect x="2" y="7" width="1" height="1" fill="#A8C0D8" /><rect x="3" y="7" width="1" height="1" fill="#A2BDD2" /><rect x="4" y="7" width="1" height="1" fill="#A8C3D6" /><rect x="5" y="7" width="1" height="1" fill="#A5BFCE" /><rect x="6" y="7" width="1" height="1" fill="#AAC2CE" /><rect x="7" y="7" width="1" height="1" fill="#ABBFC8" /><rect x="8" y="7" width="1" height="1" fill="#A7B8C0" /><rect x="9" y="7" width="1" height="1" fill="#C6D7DF" /><rect x="0" y="8" width="1" height="1" fill="#B5BCCC" /><rect x="1" y="8" width="1" height="1" fill="#ABB8CB" /><rect x="2" y="8" width="1" height="1" fill="#ADC1D9" /><rect x="3" y="8" width="1" height="1" fill="#A3BCD2" /><rect x="4" y="8" width="1" height="1" fill="#A6BDCF" /><rect x="5" y="8" width="1" height="1" fill="#AFC5D3" /><rect x="6" y="8" width="1" height="1" fill="#ABBDC7" /><rect x="7" y="8" width="1" height="1" fill="#ADBCC3" /><rect x="8" y="8" width="1" height="1" fill="#BCC9CF" /><rect x="9" y="8" width="1" height="1" fill="#D3DEE4" /><rect x="0" y="9" width="1" height="1" fill="#5B5E6D" /><rect x="1" y="9" width="1" height="1" fill="#A9B1C4" /><rect x="2" y="9" width="1" height="1" fill="#A9BBD1" /><rect x="3" y="9" width="1" height="1" fill="#B2C7DC" /><rect x="4" y="9" width="1" height="1" fill="#B4C7D8" /><rect x="5" y="9" width="1" height="1" fill="#A3B5C3" /><rect x="6" y="9" width="1" height="1" fill="#B9C7D0" /><rect x="7" y="9" width="1" height="1" fill="#C6D1D7" /><rect x="8" y="9" width="1" height="1" fill="#E5ECF2" /><rect x="9" y="9" width="1" height="1" fill="#E5EAF0" />
  </g>
</svg>