<svg width="800" height="1000" version="1.1" xmlns="http://www.w3.org/2000/svg" xmlns:xlink="http://www.w3.org/1999/xlink">
  <defs>
      <linearGradient id="Gradient2" x1="0" x2="1" y1="0" y2="1">
        <stop offset="0%" stop-color="#2d3c96"/>
        <stop offset="100%" stop-color="#d53392"/>
      </linearGradient>
  </defs>
  <rect x="10" y="10" width="780" height="980" fill="url(#Gradient2)" rx="50" ry="50" stroke="#ffd700" stroke-width="20"/>
  <text x="400" y="920" width="780" text-anchor="middle" style="font: bold 200px 'Helvetica Neue'; fill: #ffd700">01227</text>

  <g transform="translate(80 80) scale(64)">
<rect x="0" y="0" width="1" height="1" fill="#B4CBDD" /><rect x="1" y="0" width="1" height="1" fill="#A3BED1" /><rect x="2" y="0" width="1" height="1" fill="#9BBCCD" /><rect x="3" y="0" width="1" height="1" fill="#9BBBCA" /><rect x="4" y="0" width="1" height="1" fill="#9BBBC8" /><rect x="5" y="0" width="1" height="1" fill="#9CBECA" /><rect x="6" y="0" width="1" height="1" fill="#9DBCCE" /><rect x="7" y="0" width="1" height="1" fill="#9BBED2" /><rect x="8" y="0" width="1" height="1" fill="#9ABED6" /><rect x="9" y="0" width="1" height="1" fill="#97BCD7" /><rect x="0" y="1" width="1" height="1" fill="#A2BBCF" /><rect x="1" y="1" width="1" height="1" fill="#97B6CA" /><rect x="2" y="1" width="1" height="1" fill="#9BBACE" /><rect x="3" y="1" width="1" height="1" fill="#9CBDCE" /><rect x="4" y="1" width="1" height="1" fill="#9BBCCB" /><rect x="5" y="1" width="1" height="1" fill="#A0BFD1" /><rect x="6" y="1" width="1" height="1" fill="#A0BFD4" /><rect x="7" y="1" width="1" height="1" fill="#97B5CF" /><rect x="8" y="1" width="1" height="1" fill="#88A7C3" /><rect x="9" y="1" width="1" height="1" fill="#5E7F9E" /><rect x="0" y="2" width="1" height="1" fill="#9EBAD0" /><rect x="1" y="2" width="1" height="1" fill="#98B6CE" /><rect x="2" y="2" width="1" height="1" fill="#9ABAD1" /><rect x="3" y="2" width="1" height="1" fill="#9FBFD4" /><rect x="4" y="2" width="1" height="1" fill="#9ABBCE" /><rect x="5" y="2" width="1" height="1" fill="#9FBED3" /><rect x="6" y="2" width="1" height="1" fill="#7D92B1" /><rect x="7" y="2" width="1" height="1" fill="#334569" /><rect x="8" y="2" width="1" height="1" fill="#1C3259" /><rect x="9" y="2" width="1" height="1" fill="#1E355F" /><rect x="0" y="3" width="1" height="1" fill="#9FBDD9" /><rect x="1" y="3" width="1" height="1" fill="#9BBAD7" /><rect x="2" y="3" width="1" height="1" fill="#98BAD5" /><rect x="3" y="3" width="1" height="1" fill="#9CBED7" /><rect x="4" y="3" width="1" height="1" fill="#98BBD1" /><rect x="5" y="3" width="1" height="1" fill="#9CBAD4" /><rect x="6" y="3" width="1" height="1" fill="#6E84A9" /><rect x="7" y="3" width="1" height="1" fill="#20335D" /><rect x="8" y="3" width="1" height="1" fill="#1E335E" /><rect x="9" y="3" width="1" height="1" fill="#314673" /><rect x="0" y="4" width="1" height="1" fill="#8FB0D1" /><rect x="1" y="4" width="1" height="1" fill="#96B8DB" /><rect x="2" y="4" width="1" height="1" fill="#98BADD" /><rect x="3" y="4" width="1" height="1" fill="#98BBD9" /><rect x="4" y="4" width="1" height="1" fill="#9ABCD8" /><rect x="5" y="4" width="1" height="1" fill="#9DBCDB" /><rect x="6" y="4" width="1" height="1" fill="#6D8AB2" /><rect x="7" y="4" width="1" height="1" fill="#25426E" /><rect x="8" y="4" width="1" height="1" fill="#223F69" /><rect x="9" y="4" width="1" height="1" fill="#36537D" /><rect x="0" y="5" width="1" height="1" fill="#82A4C9" /><rect x="1" y="5" width="1" height="1" fill="#92B4DA" /><rect x="2" y="5" width="1" height="1" fill="#9ABCE1" /><rect x="3" y="5" width="1" height="1" fill="#98B9DA" /><rect x="4" y="5" width="1" height="1" fill="#9FBEDD" /><rect x="5" y="5" width="1" height="1" fill="#98B7D6" /><rect x="6" y="5" width="1" height="1" fill="#7090B7" /><rect x="7" y="5" width="1" height="1" fill="#2E4D79" /><rect x="8" y="5" width="1" height="1" fill="#3B5B84" /><rect x="9" y="5" width="1" height="1" fill="#6686AD" /><rect x="0" y="6" width="1" height="1" fill="#85A7CD" /><rect x="1" y="6" width="1" height="1" fill="#90B1DA" /><rect x="2" y="6" width="1" height="1" fill="#98B8DF" /><rect x="3" y="6" width="1" height="1" fill="#9AB8DC" /><rect x="4" y="6" width="1" height="1" fill="#9FBCDC" /><rect x="5" y="6" width="1" height="1" fill="#7D97B8" /><rect x="6" y="6" width="1" height="1" fill="#4D678C" /><rect x="7" y="6" width="1" height="1" fill="#6C85AD" /><rect x="8" y="6" width="1" height="1" fill="#93ACD5" /><rect x="9" y="6" width="1" height="1" fill="#748DB6" /><rect x="0" y="7" width="1" height="1" fill="#8DAED7" /><rect x="1" y="7" width="1" height="1" fill="#8BACD5" /><rect x="2" y="7" width="1" height="1" fill="#90ADD5" /><rect x="3" y="7" width="1" height="1" fill="#9AB6DB" /><rect x="4" y="7" width="1" height="1" fill="#9CB6D7" /><rect x="5" y="7" width="1" height="1" fill="#5F7394" /><rect x="6" y="7" width="1" height="1" fill="#506286" /><rect x="7" y="7" width="1" height="1" fill="#2E3E62" /><rect x="8" y="7" width="1" height="1" fill="#2E3E62" /><rect x="9" y="7" width="1" height="1" fill="#364668" /><rect x="0" y="8" width="1" height="1" fill="#84A4CB" /><rect x="1" y="8" width="1" height="1" fill="#7794BC" /><rect x="2" y="8" width="1" height="1" fill="#7089B1" /><rect x="3" y="8" width="1" height="1" fill="#7991B5" /><rect x="4" y="8" width="1" height="1" fill="#697D9E" /><rect x="5" y="8" width="1" height="1" fill="#5C6B8C" /><rect x="6" y="8" width="1" height="1" fill="#3D476A" /><rect x="7" y="8" width="1" height="1" fill="#2D3357" /><rect x="8" y="8" width="1" height="1" fill="#2B2E4F" /><rect x="9" y="8" width="1" height="1" fill="#444460" /><rect x="0" y="9" width="1" height="1" fill="#8BA7CE" /><rect x="1" y="9" width="1" height="1" fill="#758EB6" /><rect x="2" y="9" width="1" height="1" fill="#62789D" /><rect x="3" y="9" width="1" height="1" fill="#4D5F83" /><rect x="4" y="9" width="1" height="1" fill="#495879" /><rect x="5" y="9" width="1" height="1" fill="#56617D" /><rect x="6" y="9" width="1" height="1" fill="#424966" /><rect x="7" y="9" width="1" height="1" fill="#3E3F5B" /><rect x="8" y="9" width="1" height="1" fill="#393953" /><rect x="9" y="9" width="1" height="1" fill="#444156" />
  </g>
</svg>