<svg width="800" height="1000" xmlns="http://www.w3.org/2000/svg"><defs><linearGradient id="g" x1="0" x2="1" y1="0" y2="1"><stop offset="0%" stop-color="#2d3c96"/><stop offset="100%" stop-color="#d53392"/></linearGradient></defs><rect x="10" y="10" width="780" height="980" fill="url(#g)" rx="50" ry="50" stroke="gold" stroke-width="20"/><text x="400" y="920" width="780" text-anchor="middle" style="font:bold 200px 'Helvetica Neue';fill:gold">01229</text><g transform="translate(80 80) scale(64)"><rect x="0" y="0" width="1" height="1" fill="#ec9fcb" /><rect x="0" y="1" width="1" height="1" fill="#f9b0db" /><rect x="0" y="2" width="1" height="1" fill="#e9a6cf" /><rect x="0" y="3" width="1" height="1" fill="#ebb1d7" /><rect x="0" y="4" width="1" height="1" fill="#b689aa" /><rect x="0" y="5" width="1" height="1" fill="#896684" /><rect x="0" y="6" width="1" height="1" fill="#9a809b" /><rect x="0" y="7" width="1" height="1" fill="#98869e" /><rect x="0" y="8" width="1" height="1" fill="#968aa0" /><rect x="0" y="9" width="1" height="1" fill="#e6ddf2" /><rect x="1" y="0" width="1" height="1" fill="#faadd9" /><rect x="1" y="1" width="1" height="1" fill="#e9a0cb" /><rect x="1" y="2" width="1" height="1" fill="#f2afd8" /><rect x="1" y="3" width="1" height="1" fill="#e0a7ca" /><rect x="1" y="4" width="1" height="1" fill="#b98aaa" /><rect x="1" y="5" width="1" height="1" fill="#be9ab6" /><rect x="1" y="6" width="1" height="1" fill="#d5bbd4" /><rect x="1" y="7" width="1" height="1" fill="#bdaac0" /><rect x="1" y="8" width="1" height="1" fill="#a79aae" /><rect x="1" y="9" width="1" height="1" fill="#e0d7ea" /><rect x="2" y="0" width="1" height="1" fill="#f5a8d4" /><rect x="2" y="1" width="1" height="1" fill="#f4a9d4" /><rect x="2" y="2" width="1" height="1" fill="#f0acd5" /><rect x="2" y="3" width="1" height="1" fill="#e9add1" /><rect x="2" y="4" width="1" height="1" fill="#bf90b0" /><rect x="2" y="5" width="1" height="1" fill="#b894b0" /><rect x="2" y="6" width="1" height="1" fill="#d6bad1" /><rect x="2" y="7" width="1" height="1" fill="#b6a0b5" /><rect x="2" y="8" width="1" height="1" fill="#a091a4" /><rect x="2" y="9" width="1" height="1" fill="#e0d3e5" /><rect x="3" y="0" width="1" height="1" fill="#f7a8d7" /><rect x="3" y="1" width="1" height="1" fill="#f7acd7" /><rect x="3" y="2" width="1" height="1" fill="#eeaad3" /><rect x="3" y="3" width="1" height="1" fill="#edb1d5" /><rect x="3" y="4" width="1" height="1" fill="#ba89a9" /><rect x="3" y="5" width="1" height="1" fill="#be97b2" /><rect x="3" y="6" width="1" height="1" fill="#d3b6cc" /><rect x="3" y="7" width="1" height="1" fill="#b49db1" /><rect x="3" y="8" width="1" height="1" fill="#a594a6" /><rect x="3" y="9" width="1" height="1" fill="#e9dbec" /><rect x="4" y="0" width="1" height="1" fill="#f6a7d6" /><rect x="4" y="1" width="1" height="1" fill="#f5a8d4" /><rect x="4" y="2" width="1" height="1" fill="#f4add7" /><rect x="4" y="3" width="1" height="1" fill="#edafd4" /><rect x="4" y="4" width="1" height="1" fill="#bc89a8" /><rect x="4" y="5" width="1" height="1" fill="#c69bb6" /><rect x="4" y="6" width="1" height="1" fill="#dabacf" /><rect x="4" y="7" width="1" height="1" fill="#bda4b7" /><rect x="4" y="8" width="1" height="1" fill="#a590a1" /><rect x="4" y="9" width="1" height="1" fill="#dfcddd" /><rect x="5" y="0" width="1" height="1" fill="#f19fcf" /><rect x="5" y="1" width="1" height="1" fill="#f6a9d7" /><rect x="5" y="2" width="1" height="1" fill="#eda6d0" /><rect x="5" y="3" width="1" height="1" fill="#f3b3d8" /><rect x="5" y="4" width="1" height="1" fill="#d9a3c3" /><rect x="5" y="5" width="1" height="1" fill="#b589a4" /><rect x="5" y="6" width="1" height="1" fill="#bb9aaf" /><rect x="5" y="7" width="1" height="1" fill="#b89dae" /><rect x="5" y="8" width="1" height="1" fill="#ab94a4" /><rect x="5" y="9" width="1" height="1" fill="#f3dcec" /><rect x="6" y="0" width="1" height="1" fill="#faa8d8" /><rect x="6" y="1" width="1" height="1" fill="#f4a5d4" /><rect x="6" y="2" width="1" height="1" fill="#f1a8d5" /><rect x="6" y="3" width="1" height="1" fill="#eeaed3" /><rect x="6" y="4" width="1" height="1" fill="#edb6d6" /><rect x="6" y="5" width="1" height="1" fill="#cd9fb9" /><rect x="6" y="6" width="1" height="1" fill="#b38da2" /><rect x="6" y="7" width="1" height="1" fill="#a8899b" /><rect x="6" y="8" width="1" height="1" fill="#a68b9a" /><rect x="6" y="9" width="1" height="1" fill="#fadfee" /><rect x="7" y="0" width="1" height="1" fill="#f7a3d5" /><rect x="7" y="1" width="1" height="1" fill="#faabda" /><rect x="7" y="2" width="1" height="1" fill="#f6adda" /><rect x="7" y="3" width="1" height="1" fill="#eba9cf" /><rect x="7" y="4" width="1" height="1" fill="#edb4d4" /><rect x="7" y="5" width="1" height="1" fill="#e6b6d0" /><rect x="7" y="6" width="1" height="1" fill="#c49db2" /><rect x="7" y="7" width="1" height="1" fill="#9d7c8d" /><rect x="7" y="8" width="1" height="1" fill="#8f707f" /><rect x="7" y="9" width="1" height="1" fill="#d1b5c3" /><rect x="8" y="0" width="1" height="1" fill="#fca8da" /><rect x="8" y="1" width="1" height="1" fill="#f5a3d3" /><rect x="8" y="2" width="1" height="1" fill="#f4a9d4" /><rect x="8" y="3" width="1" height="1" fill="#ecaad0" /><rect x="8" y="4" width="1" height="1" fill="#eaafcf" /><rect x="8" y="5" width="1" height="1" fill="#eab8d1" /><rect x="8" y="6" width="1" height="1" fill="#e5bbcf" /><rect x="8" y="7" width="1" height="1" fill="#b391a1" /><rect x="8" y="8" width="1" height="1" fill="#a98996" /><rect x="8" y="9" width="1" height="1" fill="#a78995" /><rect x="9" y="0" width="1" height="1" fill="#fea7da" /><rect x="9" y="1" width="1" height="1" fill="#f5a3d3" /><rect x="9" y="2" width="1" height="1" fill="#f3a8d3" /><rect x="9" y="3" width="1" height="1" fill="#eda9d0" /><rect x="9" y="4" width="1" height="1" fill="#eaafcf" /><rect x="9" y="5" width="1" height="1" fill="#eab5cf" /><rect x="9" y="6" width="1" height="1" fill="#e7bccf" /><rect x="9" y="7" width="1" height="1" fill="#f7d3e1" /><rect x="9" y="8" width="1" height="1" fill="#f1d1de" /><rect x="9" y="9" width="1" height="1" fill="#f0d0dd" /></g></svg>