<svg width="800" height="1000" version="1.1" xmlns="http://www.w3.org/2000/svg" xmlns:xlink="http://www.w3.org/1999/xlink">
  <defs>
      <linearGradient id="Gradient2" x1="0" x2="1" y1="0" y2="1">
        <stop offset="0%" stop-color="#2d3c96"/>
        <stop offset="100%" stop-color="#d53392"/>
      </linearGradient>
  </defs>
  <rect x="10" y="10" width="780" height="980" fill="url(#Gradient2)" rx="50" ry="50" stroke="#ffd700" stroke-width="20"/>
  <text x="400" y="920" width="780" text-anchor="middle" style="font: bold 200px 'Helvetica Neue'; fill: #ffd700">01228</text>

  <g transform="translate(80 80) scale(64)">
<rect x="0" y="0" width="1" height="1" fill="#F9A4DD" /><rect x="1" y="0" width="1" height="1" fill="#FBA3DD" /><rect x="2" y="0" width="1" height="1" fill="#FCA3DD" /><rect x="3" y="0" width="1" height="1" fill="#FDA2DD" /><rect x="4" y="0" width="1" height="1" fill="#FA9FDA" /><rect x="5" y="0" width="1" height="1" fill="#FFACE4" /><rect x="6" y="0" width="1" height="1" fill="#FCA1DC" /><rect x="7" y="0" width="1" height="1" fill="#FAA1DB" /><rect x="8" y="0" width="1" height="1" fill="#FEA9E2" /><rect x="9" y="0" width="1" height="1" fill="#F7A2DB" /><rect x="0" y="1" width="1" height="1" fill="#F9A5D9" /><rect x="1" y="1" width="1" height="1" fill="#FBA4D9" /><rect x="2" y="1" width="1" height="1" fill="#FCA3D9" /><rect x="3" y="1" width="1" height="1" fill="#FAA3D8" /><rect x="4" y="1" width="1" height="1" fill="#FFA6DC" /><rect x="5" y="1" width="1" height="1" fill="#F79ED4" /><rect x="6" y="1" width="1" height="1" fill="#FCA3D9" /><rect x="7" y="1" width="1" height="1" fill="#FFA8DD" /><rect x="8" y="1" width="1" height="1" fill="#F39FD3" /><rect x="9" y="1" width="1" height="1" fill="#FCA8DC" /><rect x="0" y="2" width="1" height="1" fill="#F9A6D2" /><rect x="1" y="2" width="1" height="1" fill="#FBA5D2" /><rect x="2" y="2" width="1" height="1" fill="#FBA5D2" /><rect x="3" y="2" width="1" height="1" fill="#FBA5D2" /><rect x="4" y="2" width="1" height="1" fill="#FDA7D4" /><rect x="5" y="2" width="1" height="1" fill="#F9A3D0" /><rect x="6" y="2" width="1" height="1" fill="#F9A6D2" /><rect x="7" y="2" width="1" height="1" fill="#FDAAD6" /><rect x="8" y="2" width="1" height="1" fill="#F8A7D2" /><rect x="9" y="2" width="1" height="1" fill="#F2A1CC" /><rect x="0" y="3" width="1" height="1" fill="#F6A8D2" /><rect x="1" y="3" width="1" height="1" fill="#F6A8D2" /><rect x="2" y="3" width="1" height="1" fill="#F6A8D2" /><rect x="3" y="3" width="1" height="1" fill="#F6A8D2" /><rect x="4" y="3" width="1" height="1" fill="#F6A8D2" /><rect x="5" y="3" width="1" height="1" fill="#F7AAD4" /><rect x="6" y="3" width="1" height="1" fill="#F8AAD4" /><rect x="7" y="3" width="1" height="1" fill="#F2A5CF" /><rect x="8" y="3" width="1" height="1" fill="#F6ABD4" /><rect x="9" y="3" width="1" height="1" fill="#F3A8D1" /><rect x="0" y="4" width="1" height="1" fill="#F3ABDB" /><rect x="1" y="4" width="1" height="1" fill="#F1ACDB" /><rect x="2" y="4" width="1" height="1" fill="#F1ACDB" /><rect x="3" y="4" width="1" height="1" fill="#F0ACDB" /><rect x="4" y="4" width="1" height="1" fill="#F3AFDE" /><rect x="5" y="4" width="1" height="1" fill="#E7A3D2" /><rect x="6" y="4" width="1" height="1" fill="#F3AFDE" /><rect x="7" y="4" width="1" height="1" fill="#ECAAD8" /><rect x="8" y="4" width="1" height="1" fill="#E7A3D2" /><rect x="9" y="4" width="1" height="1" fill="#FBB7E6" /><rect x="0" y="5" width="1" height="1" fill="#9A6591" /><rect x="1" y="5" width="1" height="1" fill="#996691" /><rect x="2" y="5" width="1" height="1" fill="#976791" /><rect x="3" y="5" width="1" height="1" fill="#966791" /><rect x="4" y="5" width="1" height="1" fill="#966791" /><rect x="5" y="5" width="1" height="1" fill="#8D5E88" /><rect x="6" y="5" width="1" height="1" fill="#986993" /><rect x="7" y="5" width="1" height="1" fill="#996A94" /><rect x="8" y="5" width="1" height="1" fill="#92628C" /><rect x="9" y="5" width="1" height="1" fill="#895983" /><rect x="0" y="6" width="1" height="1" fill="#A990AE" /><rect x="1" y="6" width="1" height="1" fill="#A891AE" /><rect x="2" y="6" width="1" height="1" fill="#A592AE" /><rect x="3" y="6" width="1" height="1" fill="#A393AE" /><rect x="4" y="6" width="1" height="1" fill="#A191AC" /><rect x="5" y="6" width="1" height="1" fill="#A393AE" /><rect x="6" y="6" width="1" height="1" fill="#A696B1" /><rect x="7" y="6" width="1" height="1" fill="#A494AF" /><rect x="8" y="6" width="1" height="1" fill="#AB98B4" /><rect x="9" y="6" width="1" height="1" fill="#8A7793" /><rect x="0" y="7" width="1" height="1" fill="#A99FB7" /><rect x="1" y="7" width="1" height="1" fill="#A8A0B7" /><rect x="2" y="7" width="1" height="1" fill="#A6A1B7" /><rect x="3" y="7" width="1" height="1" fill="#A6A3B8" /><rect x="4" y="7" width="1" height="1" fill="#A7A5BA" /><rect x="5" y="7" width="1" height="1" fill="#A19FB4" /><rect x="6" y="7" width="1" height="1" fill="#A9A7BC" /><rect x="7" y="7" width="1" height="1" fill="#9F9DB2" /><rect x="8" y="7" width="1" height="1" fill="#A5A2B7" /><rect x="9" y="7" width="1" height="1" fill="#A9A6BB" /><rect x="0" y="8" width="1" height="1" fill="#80768F" /><rect x="1" y="8" width="1" height="1" fill="#827A92" /><rect x="2" y="8" width="1" height="1" fill="#7F7A91" /><rect x="3" y="8" width="1" height="1" fill="#7D788F" /><rect x="4" y="8" width="1" height="1" fill="#817D94" /><rect x="5" y="8" width="1" height="1" fill="#79758C" /><rect x="6" y="8" width="1" height="1" fill="#827D94" /><rect x="7" y="8" width="1" height="1" fill="#7B768D" /><rect x="8" y="8" width="1" height="1" fill="#7E7990" /><rect x="9" y="8" width="1" height="1" fill="#8A849C" /><rect x="0" y="9" width="1" height="1" fill="#E3D8F6" /><rect x="1" y="9" width="1" height="1" fill="#E0D7F4" /><rect x="2" y="9" width="1" height="1" fill="#E0D7F4" /><rect x="3" y="9" width="1" height="1" fill="#E1D8F5" /><rect x="4" y="9" width="1" height="1" fill="#DDD4F1" /><rect x="5" y="9" width="1" height="1" fill="#E9E0FD" /><rect x="6" y="9" width="1" height="1" fill="#E0D7F4" /><rect x="7" y="9" width="1" height="1" fill="#E4DBF8" /><rect x="8" y="9" width="1" height="1" fill="#E2D9F6" /><rect x="9" y="9" width="1" height="1" fill="#DAD1EE" />
  </g>
</svg>