<svg width="800" height="1000" version="1.1" xmlns="http://www.w3.org/2000/svg" xmlns:xlink="http://www.w3.org/1999/xlink">
  <defs>
      <linearGradient id="Gradient2" x1="0" x2="1" y1="0" y2="1">
        <stop offset="0%" stop-color="#2d3c96"/>
        <stop offset="100%" stop-color="#d53392"/>
      </linearGradient>
  </defs>
  <rect x="10" y="10" width="780" height="980" fill="url(#Gradient2)" rx="50" ry="50" stroke="#ffd700" stroke-width="20"/>
  <text x="400" y="920" width="780" text-anchor="middle" style="font: bold 200px 'Helvetica Neue'; fill: #ffd700">01228</text>

  <g transform="translate(80 80) scale(64)">
<rect x="0" y="0" width="1" height="1" fill="#99BDDD" /><rect x="1" y="0" width="1" height="1" fill="#94B8DC" /><rect x="2" y="0" width="1" height="1" fill="#9FC2E8" /><rect x="3" y="0" width="1" height="1" fill="#97BDE4" /><rect x="4" y="0" width="1" height="1" fill="#6081AA" /><rect x="5" y="0" width="1" height="1" fill="#4B6B91" /><rect x="6" y="0" width="1" height="1" fill="#2B4B72" /><rect x="7" y="0" width="1" height="1" fill="#35557B" /><rect x="8" y="0" width="1" height="1" fill="#8FB1D6" /><rect x="9" y="0" width="1" height="1" fill="#97BBDF" /><rect x="0" y="1" width="1" height="1" fill="#54769B" /><rect x="1" y="1" width="1" height="1" fill="#7C9EC4" /><rect x="2" y="1" width="1" height="1" fill="#9CBDE6" /><rect x="3" y="1" width="1" height="1" fill="#83A3CC" /><rect x="4" y="1" width="1" height="1" fill="#5A779F" /><rect x="5" y="1" width="1" height="1" fill="#325076" /><rect x="6" y="1" width="1" height="1" fill="#324E73" /><rect x="7" y="1" width="1" height="1" fill="#4C698B" /><rect x="8" y="1" width="1" height="1" fill="#9EBDDC" /><rect x="9" y="1" width="1" height="1" fill="#97B6D3" /><rect x="0" y="2" width="1" height="1" fill="#3B537F" /><rect x="1" y="2" width="1" height="1" fill="#7590BD" /><rect x="2" y="2" width="1" height="1" fill="#8CA7D2" /><rect x="3" y="2" width="1" height="1" fill="#6880AC" /><rect x="4" y="2" width="1" height="1" fill="#496089" /><rect x="5" y="2" width="1" height="1" fill="#31496D" /><rect x="6" y="2" width="1" height="1" fill="#304766" /><rect x="7" y="2" width="1" height="1" fill="#8DA2BF" /><rect x="8" y="2" width="1" height="1" fill="#9FB8CE" /><rect x="9" y="2" width="1" height="1" fill="#A9C3D4" /><rect x="0" y="3" width="1" height="1" fill="#4B6190" /><rect x="1" y="3" width="1" height="1" fill="#768DB9" /><rect x="2" y="3" width="1" height="1" fill="#7D92BF" /><rect x="3" y="3" width="1" height="1" fill="#60769D" /><rect x="4" y="3" width="1" height="1" fill="#374B6E" /><rect x="5" y="3" width="1" height="1" fill="#344765" /><rect x="6" y="3" width="1" height="1" fill="#60718B" /><rect x="7" y="3" width="1" height="1" fill="#A3B8CD" /><rect x="8" y="3" width="1" height="1" fill="#ABC0D1" /><rect x="9" y="3" width="1" height="1" fill="#9CB3C1" /><rect x="0" y="4" width="1" height="1" fill="#6077A0" /><rect x="1" y="4" width="1" height="1" fill="#7E94B9" /><rect x="2" y="4" width="1" height="1" fill="#637697" /><rect x="3" y="4" width="1" height="1" fill="#394A66" /><rect x="4" y="4" width="1" height="1" fill="#374760" /><rect x="5" y="4" width="1" height="1" fill="#4D5C73" /><rect x="6" y="4" width="1" height="1" fill="#A8B9CB" /><rect x="7" y="4" width="1" height="1" fill="#A2B7C8" /><rect x="8" y="4" width="1" height="1" fill="#A9C3D4" /><rect x="9" y="4" width="1" height="1" fill="#A2BFCF" /><rect x="0" y="5" width="1" height="1" fill="#819BC0" /><rect x="1" y="5" width="1" height="1" fill="#627A9C" /><rect x="2" y="5" width="1" height="1" fill="#3B4E6E" /><rect x="3" y="5" width="1" height="1" fill="#3D4E6A" /><rect x="4" y="5" width="1" height="1" fill="#4B5973" /><rect x="5" y="5" width="1" height="1" fill="#97A6BD" /><rect x="6" y="5" width="1" height="1" fill="#ACBDD1" /><rect x="7" y="5" width="1" height="1" fill="#ADC2D5" /><rect x="8" y="5" width="1" height="1" fill="#99B2C6" /><rect x="9" y="5" width="1" height="1" fill="#9EBACF" /><rect x="0" y="6" width="1" height="1" fill="#4C658E" /><rect x="1" y="6" width="1" height="1" fill="#395079" /><rect x="2" y="6" width="1" height="1" fill="#354B72" /><rect x="3" y="6" width="1" height="1" fill="#3B4F72" /><rect x="4" y="6" width="1" height="1" fill="#7282A6" /><rect x="5" y="6" width="1" height="1" fill="#95A4C3" /><rect x="6" y="6" width="1" height="1" fill="#B0BFDC" /><rect x="7" y="6" width="1" height="1" fill="#A4B5CF" /><rect x="8" y="6" width="1" height="1" fill="#A9BAD4" /><rect x="9" y="6" width="1" height="1" fill="#B4C9E4" /><rect x="0" y="7" width="1" height="1" fill="#3F4D72" /><rect x="1" y="7" width="1" height="1" fill="#3B486B" /><rect x="2" y="7" width="1" height="1" fill="#3C4767" /><rect x="3" y="7" width="1" height="1" fill="#454E6D" /><rect x="4" y="7" width="1" height="1" fill="#474C69" /><rect x="5" y="7" width="1" height="1" fill="#606680" /><rect x="6" y="7" width="1" height="1" fill="#636981" /><rect x="7" y="7" width="1" height="1" fill="#989EB6" /><rect x="8" y="7" width="1" height="1" fill="#BFCAE0" /><rect x="9" y="7" width="1" height="1" fill="#A6B2CA" /><rect x="0" y="8" width="1" height="1" fill="#403C55" /><rect x="1" y="8" width="1" height="1" fill="#494055" /><rect x="2" y="8" width="1" height="1" fill="#473948" /><rect x="3" y="8" width="1" height="1" fill="#5A4953" /><rect x="4" y="8" width="1" height="1" fill="#5B484E" /><rect x="5" y="8" width="1" height="1" fill="#776468" /><rect x="6" y="8" width="1" height="1" fill="#A09196" /><rect x="7" y="8" width="1" height="1" fill="#A99EA6" /><rect x="8" y="8" width="1" height="1" fill="#9D9AA5" /><rect x="9" y="8" width="1" height="1" fill="#B6B8C5" /><rect x="0" y="9" width="1" height="1" fill="#373042" /><rect x="1" y="9" width="1" height="1" fill="#423644" /><rect x="2" y="9" width="1" height="1" fill="#45343E" /><rect x="3" y="9" width="1" height="1" fill="#3B262B" /><rect x="4" y="9" width="1" height="1" fill="#422C2E" /><rect x="5" y="9" width="1" height="1" fill="#3F292B" /><rect x="6" y="9" width="1" height="1" fill="#422F31" /><rect x="7" y="9" width="1" height="1" fill="#54454A" /><rect x="8" y="9" width="1" height="1" fill="#847D85" /><rect x="9" y="9" width="1" height="1" fill="#CFCDD8" />
  </g>
</svg>