<svg width="800" height="1000" version="1.1" xmlns="http://www.w3.org/2000/svg" xmlns:xlink="http://www.w3.org/1999/xlink">
  <defs>
      <linearGradient id="Gradient2" x1="0" x2="1" y1="0" y2="1">
        <stop offset="0%" stop-color="#2d3c96"/>
        <stop offset="100%" stop-color="#d53392"/>
      </linearGradient>
  </defs>
  <rect x="10" y="10" width="780" height="980" fill="url(#Gradient2)" rx="50" ry="50" stroke="#ffd700" stroke-width="20"/>
  <text x="400" y="920" width="780" text-anchor="middle" style="font: bold 200px 'Helvetica Neue'; fill: #ffd700">01220</text>

  <g transform="translate(80 80) scale(64)">
<rect x="0" y="0" width="1" height="1" fill="#4c4c4c" />
,<rect x="0" y="1" width="1" height="1" fill="#ffffff" />
,<rect x="0" y="2" width="1" height="1" fill="#fafafa" />
,<rect x="0" y="3" width="1" height="1" fill="#f7f7f7" />
,<rect x="0" y="4" width="1" height="1" fill="#f7f7f7" />
,<rect x="0" y="5" width="1" height="1" fill="#f7f7f7" />
,<rect x="0" y="6" width="1" height="1" fill="#f7f7f7" />
,<rect x="0" y="7" width="1" height="1" fill="#f7f7f7" />
,<rect x="0" y="8" width="1" height="1" fill="#f6f6f6" />
,<rect x="0" y="9" width="1" height="1" fill="#fafafa" />
,<rect x="1" y="0" width="1" height="1" fill="#434343" />
,<rect x="1" y="1" width="1" height="1" fill="#ffffff" />
,<rect x="1" y="2" width="1" height="1" fill="#ffffff" />
,<rect x="1" y="3" width="1" height="1" fill="#ffffff" />
,<rect x="1" y="4" width="1" height="1" fill="#ffffff" />
,<rect x="1" y="5" width="1" height="1" fill="#ffffff" />
,<rect x="1" y="6" width="1" height="1" fill="#ffffff" />
,<rect x="1" y="7" width="1" height="1" fill="#ffffff" />
,<rect x="1" y="8" width="1" height="1" fill="#ffffff" />
,<rect x="1" y="9" width="1" height="1" fill="#ffffff" />
,<rect x="2" y="0" width="1" height="1" fill="#080808" />
,<rect x="2" y="1" width="1" height="1" fill="#111111" />
,<rect x="2" y="2" width="1" height="1" fill="#101010" />
,<rect x="2" y="3" width="1" height="1" fill="#101010" />
,<rect x="2" y="4" width="1" height="1" fill="#101010" />
,<rect x="2" y="5" width="1" height="1" fill="#101010" />
,<rect x="2" y="6" width="1" height="1" fill="#101010" />
,<rect x="2" y="7" width="1" height="1" fill="#101010" />
,<rect x="2" y="8" width="1" height="1" fill="#101010" />
,<rect x="2" y="9" width="1" height="1" fill="#000000" />
,<rect x="3" y="0" width="1" height="1" fill="#030303" />
,<rect x="3" y="1" width="1" height="1" fill="#000000" />
,<rect x="3" y="2" width="1" height="1" fill="#000000" />
,<rect x="3" y="3" width="1" height="1" fill="#000000" />
,<rect x="3" y="4" width="1" height="1" fill="#000000" />
,<rect x="3" y="5" width="1" height="1" fill="#000000" />
,<rect x="3" y="6" width="1" height="1" fill="#000000" />
,<rect x="3" y="7" width="1" height="1" fill="#000000" />
,<rect x="3" y="8" width="1" height="1" fill="#000000" />
,<rect x="3" y="9" width="1" height="1" fill="#000000" />
,<rect x="4" y="0" width="1" height="1" fill="#030303" />
,<rect x="4" y="1" width="1" height="1" fill="#020202" />
,<rect x="4" y="2" width="1" height="1" fill="#060606" />
,<rect x="4" y="3" width="1" height="1" fill="#050505" />
,<rect x="4" y="4" width="1" height="1" fill="#050505" />
,<rect x="4" y="5" width="1" height="1" fill="#050505" />
,<rect x="4" y="6" width="1" height="1" fill="#050505" />
,<rect x="4" y="7" width="1" height="1" fill="#050505" />
,<rect x="4" y="8" width="1" height="1" fill="#050505" />
,<rect x="4" y="9" width="1" height="1" fill="#050505" />
,<rect x="5" y="0" width="1" height="1" fill="#212121" />
,<rect x="5" y="1" width="1" height="1" fill="#252525" />
,<rect x="5" y="2" width="1" height="1" fill="#000000" />
,<rect x="5" y="3" width="1" height="1" fill="#050505" />
,<rect x="5" y="4" width="1" height="1" fill="#050505" />
,<rect x="5" y="5" width="1" height="1" fill="#050505" />
,<rect x="5" y="6" width="1" height="1" fill="#050505" />
,<rect x="5" y="7" width="1" height="1" fill="#050505" />
,<rect x="5" y="8" width="1" height="1" fill="#050505" />
,<rect x="5" y="9" width="1" height="1" fill="#010101" />
,<rect x="6" y="0" width="1" height="1" fill="#717171" />
,<rect x="6" y="1" width="1" height="1" fill="#7b7b7b" />
,<rect x="6" y="2" width="1" height="1" fill="#000000" />
,<rect x="6" y="3" width="1" height="1" fill="#000000" />
,<rect x="6" y="4" width="1" height="1" fill="#000000" />
,<rect x="6" y="5" width="1" height="1" fill="#000000" />
,<rect x="6" y="6" width="1" height="1" fill="#000000" />
,<rect x="6" y="7" width="1" height="1" fill="#000000" />
,<rect x="6" y="8" width="1" height="1" fill="#000000" />
,<rect x="6" y="9" width="1" height="1" fill="#000000" />
,<rect x="7" y="0" width="1" height="1" fill="#626262" />
,<rect x="7" y="1" width="1" height="1" fill="#b4b4b4" />
,<rect x="7" y="2" width="1" height="1" fill="#424242" />
,<rect x="7" y="3" width="1" height="1" fill="#595959" />
,<rect x="7" y="4" width="1" height="1" fill="#595959" />
,<rect x="7" y="5" width="1" height="1" fill="#595959" />
,<rect x="7" y="6" width="1" height="1" fill="#595959" />
,<rect x="7" y="7" width="1" height="1" fill="#595959" />
,<rect x="7" y="8" width="1" height="1" fill="#575757" />
,<rect x="7" y="9" width="1" height="1" fill="#464646" />
,<rect x="8" y="0" width="1" height="1" fill="#4c4c4c" />
,<rect x="8" y="1" width="1" height="1" fill="#ffffff" />
,<rect x="8" y="2" width="1" height="1" fill="#ffffff" />
,<rect x="8" y="3" width="1" height="1" fill="#ffffff" />
,<rect x="8" y="4" width="1" height="1" fill="#ffffff" />
,<rect x="8" y="5" width="1" height="1" fill="#ffffff" />
,<rect x="8" y="6" width="1" height="1" fill="#ffffff" />
,<rect x="8" y="7" width="1" height="1" fill="#ffffff" />
,<rect x="8" y="8" width="1" height="1" fill="#ffffff" />
,<rect x="8" y="9" width="1" height="1" fill="#ffffff" />
,<rect x="9" y="0" width="1" height="1" fill="#1e1e1e" />
,<rect x="9" y="1" width="1" height="1" fill="#515151" />
,<rect x="9" y="2" width="1" height="1" fill="#c8c8c8" />
,<rect x="9" y="3" width="1" height="1" fill="#ffffff" />
,<rect x="9" y="4" width="1" height="1" fill="#a1a1a1" />
,<rect x="9" y="5" width="1" height="1" fill="#868686" />
,<rect x="9" y="6" width="1" height="1" fill="#8a8a8a" />
,<rect x="9" y="7" width="1" height="1" fill="#8b8b8b" />
,<rect x="9" y="8" width="1" height="1" fill="#8b8b8b" />
,<rect x="9" y="9" width="1" height="1" fill="#818181" />

  </g>
</svg>