<svg width="800" height="1000" xmlns="http://www.w3.org/2000/svg"><defs><linearGradient id="g" x1="0" x2="1" y1="0" y2="1"><stop offset="0%" stop-color="#2d3c96"/><stop offset="100%" stop-color="#d53392"/></linearGradient></defs><rect x="10" y="10" width="780" height="980" fill="url(#g)" rx="50" ry="50" stroke="gold" stroke-width="20"/><text x="400" y="920" width="780" text-anchor="middle" style="font:bold 200px 'Helvetica Neue';fill:gold">01224</text><g transform="translate(80 80) scale(64)"><rect x="0" y="0" width="1" height="1" fill="#050505" /><rect x="0" y="1" width="1" height="1" fill="#030001" /><rect x="0" y="2" width="1" height="1" fill="#080002" /><rect x="0" y="3" width="1" height="1" fill="#1b984b" /><rect x="0" y="4" width="1" height="1" fill="#159a4c" /><rect x="0" y="5" width="1" height="1" fill="#080504" /><rect x="0" y="6" width="1" height="1" fill="#010000" /><rect x="0" y="7" width="1" height="1" fill="#0e2a19" /><rect x="0" y="8" width="1" height="1" fill="#18522e" /><rect x="0" y="9" width="1" height="1" fill="#000000" /><rect x="1" y="0" width="1" height="1" fill="#050505" /><rect x="1" y="1" width="1" height="1" fill="#010000" /><rect x="1" y="2" width="1" height="1" fill="#114525" /><rect x="1" y="3" width="1" height="1" fill="#1f994e" /><rect x="1" y="4" width="1" height="1" fill="#0a110b" /><rect x="1" y="5" width="1" height="1" fill="#010000" /><rect x="1" y="6" width="1" height="1" fill="#050505" /><rect x="1" y="7" width="1" height="1" fill="#050505" /><rect x="1" y="8" width="1" height="1" fill="#060706" /><rect x="1" y="9" width="1" height="1" fill="#274536" /><rect x="2" y="0" width="1" height="1" fill="#040204" /><rect x="2" y="1" width="1" height="1" fill="#070305" /><rect x="2" y="2" width="1" height="1" fill="#194c2a" /><rect x="2" y="3" width="1" height="1" fill="#0c1f12" /><rect x="2" y="4" width="1" height="1" fill="#020000" /><rect x="2" y="5" width="1" height="1" fill="#050505" /><rect x="2" y="6" width="1" height="1" fill="#050504" /><rect x="2" y="7" width="1" height="1" fill="#000000" /><rect x="2" y="8" width="1" height="1" fill="#000000" /><rect x="2" y="9" width="1" height="1" fill="#59ab80" /><rect x="3" y="0" width="1" height="1" fill="#010001" /><rect x="3" y="1" width="1" height="1" fill="#080807" /><rect x="3" y="2" width="1" height="1" fill="#050503" /><rect x="3" y="3" width="1" height="1" fill="#020001" /><rect x="3" y="4" width="1" height="1" fill="#040303" /><rect x="3" y="5" width="1" height="1" fill="#000000" /><rect x="3" y="6" width="1" height="1" fill="#030000" /><rect x="3" y="7" width="1" height="1" fill="#318559" /><rect x="3" y="8" width="1" height="1" fill="#20563a" /><rect x="3" y="9" width="1" height="1" fill="#000000" /><rect x="4" y="0" width="1" height="1" fill="#165333" /><rect x="4" y="1" width="1" height="1" fill="#030000" /><rect x="4" y="2" width="1" height="1" fill="#0c2417" /><rect x="4" y="3" width="1" height="1" fill="#040002" /><rect x="4" y="4" width="1" height="1" fill="#102f1e" /><rect x="4" y="5" width="1" height="1" fill="#1d7245" /><rect x="4" y="6" width="1" height="1" fill="#070000" /><rect x="4" y="7" width="1" height="1" fill="#2c8657" /><rect x="4" y="8" width="1" height="1" fill="#1f5d3e" /><rect x="4" y="9" width="1" height="1" fill="#000000" /><rect x="5" y="0" width="1" height="1" fill="#17693d" /><rect x="5" y="1" width="1" height="1" fill="#070000" /><rect x="5" y="2" width="1" height="1" fill="#1eae62" /><rect x="5" y="3" width="1" height="1" fill="#082617" /><rect x="5" y="4" width="1" height="1" fill="#0d2c1c" /><rect x="5" y="5" width="1" height="1" fill="#209b5c" /><rect x="5" y="6" width="1" height="1" fill="#070906" /><rect x="5" y="7" width="1" height="1" fill="#000000" /><rect x="5" y="8" width="1" height="1" fill="#020202" /><rect x="5" y="9" width="1" height="1" fill="#060606" /><rect x="6" y="0" width="1" height="1" fill="#040000" /><rect x="6" y="1" width="1" height="1" fill="#050606" /><rect x="6" y="2" width="1" height="1" fill="#091e12" /><rect x="6" y="3" width="1" height="1" fill="#070e0a" /><rect x="6" y="4" width="1" height="1" fill="#040001" /><rect x="6" y="5" width="1" height="1" fill="#030000" /><rect x="6" y="6" width="1" height="1" fill="#040505" /><rect x="6" y="7" width="1" height="1" fill="#050404" /><rect x="6" y="8" width="1" height="1" fill="#050404" /><rect x="6" y="9" width="1" height="1" fill="#050505" /><rect x="7" y="0" width="1" height="1" fill="#040203" /><rect x="7" y="1" width="1" height="1" fill="#050304" /><rect x="7" y="2" width="1" height="1" fill="#030000" /><rect x="7" y="3" width="1" height="1" fill="#040203" /><rect x="7" y="4" width="1" height="1" fill="#050304" /><rect x="7" y="5" width="1" height="1" fill="#040002" /><rect x="7" y="6" width="1" height="1" fill="#050304" /><rect x="7" y="7" width="1" height="1" fill="#050304" /><rect x="7" y="8" width="1" height="1" fill="#050304" /><rect x="7" y="9" width="1" height="1" fill="#050304" /><rect x="8" y="0" width="1" height="1" fill="#050000" /><rect x="8" y="1" width="1" height="1" fill="#050000" /><rect x="8" y="2" width="1" height="1" fill="#050000" /><rect x="8" y="3" width="1" height="1" fill="#050000" /><rect x="8" y="4" width="1" height="1" fill="#050000" /><rect x="8" y="5" width="1" height="1" fill="#050000" /><rect x="8" y="6" width="1" height="1" fill="#050000" /><rect x="8" y="7" width="1" height="1" fill="#050000" /><rect x="8" y="8" width="1" height="1" fill="#050000" /><rect x="8" y="9" width="1" height="1" fill="#050000" /><rect x="9" y="0" width="1" height="1" fill="#12733c" /><rect x="9" y="1" width="1" height="1" fill="#12733c" /><rect x="9" y="2" width="1" height="1" fill="#12733c" /><rect x="9" y="3" width="1" height="1" fill="#12733c" /><rect x="9" y="4" width="1" height="1" fill="#12733c" /><rect x="9" y="5" width="1" height="1" fill="#12733c" /><rect x="9" y="6" width="1" height="1" fill="#12733c" /><rect x="9" y="7" width="1" height="1" fill="#12733c" /><rect x="9" y="8" width="1" height="1" fill="#12733c" /><rect x="9" y="9" width="1" height="1" fill="#12733c" /></g></svg>