<svg width="800" height="1000" version="1.1" xmlns="http://www.w3.org/2000/svg" xmlns:xlink="http://www.w3.org/1999/xlink">
  <defs>
      <linearGradient id="Gradient2" x1="0" x2="1" y1="0" y2="1">
        <stop offset="0%" stop-color="#2d3c96"/>
        <stop offset="100%" stop-color="#d53392"/>
      </linearGradient>
  </defs>
  <rect x="10" y="10" width="780" height="980" fill="url(#Gradient2)" rx="50" ry="50" stroke="#ffd700" stroke-width="20"/>
  <text x="400" y="920" width="780" text-anchor="middle" style="font: bold 200px 'Helvetica Neue'; fill: #ffd700">01227</text>

  <g transform="translate(80 80) scale(64)">
<rect x="0" y="0" width="1" height="1" fill="#FFA8D5" /><rect x="1" y="0" width="1" height="1" fill="#F8A1CC" /><rect x="2" y="0" width="1" height="1" fill="#FDA5D7" /><rect x="3" y="0" width="1" height="1" fill="#FEA1D0" /><rect x="4" y="0" width="1" height="1" fill="#FFACC8" /><rect x="5" y="0" width="1" height="1" fill="#FDA4C2" /><rect x="6" y="0" width="1" height="1" fill="#FAA7D5" /><rect x="7" y="0" width="1" height="1" fill="#F6A5DD" /><rect x="8" y="0" width="1" height="1" fill="#F6A5DD" /><rect x="9" y="0" width="1" height="1" fill="#F8A5DD" /><rect x="0" y="1" width="1" height="1" fill="#E49CAA" /><rect x="1" y="1" width="1" height="1" fill="#FBADC3" /><rect x="2" y="1" width="1" height="1" fill="#F09DC7" /><rect x="3" y="1" width="1" height="1" fill="#FDA7D6" /><rect x="4" y="1" width="1" height="1" fill="#F9A3C8" /><rect x="5" y="1" width="1" height="1" fill="#F9A5C9" /><rect x="6" y="1" width="1" height="1" fill="#F8A6D4" /><rect x="7" y="1" width="1" height="1" fill="#F6A6D9" /><rect x="8" y="1" width="1" height="1" fill="#F6A6D9" /><rect x="9" y="1" width="1" height="1" fill="#F8A5D9" /><rect x="0" y="2" width="1" height="1" fill="#B4855B" /><rect x="1" y="2" width="1" height="1" fill="#A16D57" /><rect x="2" y="2" width="1" height="1" fill="#86485D" /><rect x="3" y="2" width="1" height="1" fill="#EBA8D4" /><rect x="4" y="2" width="1" height="1" fill="#F1ADDC" /><rect x="5" y="2" width="1" height="1" fill="#F2A8D9" /><rect x="6" y="2" width="1" height="1" fill="#F6A7D4" /><rect x="7" y="2" width="1" height="1" fill="#F8A7D2" /><rect x="8" y="2" width="1" height="1" fill="#F8A7D2" /><rect x="9" y="2" width="1" height="1" fill="#F9A6D2" /><rect x="0" y="3" width="1" height="1" fill="#F3D58D" /><rect x="1" y="3" width="1" height="1" fill="#EAC598" /><rect x="2" y="3" width="1" height="1" fill="#956670" /><rect x="3" y="3" width="1" height="1" fill="#E5ACD7" /><rect x="4" y="3" width="1" height="1" fill="#E6AADE" /><rect x="5" y="3" width="1" height="1" fill="#ECA9DE" /><rect x="6" y="3" width="1" height="1" fill="#F4A8D6" /><rect x="7" y="3" width="1" height="1" fill="#F6A8D2" /><rect x="8" y="3" width="1" height="1" fill="#F6A8D2" /><rect x="9" y="3" width="1" height="1" fill="#F6A8D2" /><rect x="0" y="4" width="1" height="1" fill="#C3A861" /><rect x="1" y="4" width="1" height="1" fill="#EBCA9D" /><rect x="2" y="4" width="1" height="1" fill="#AA7F88" /><rect x="3" y="4" width="1" height="1" fill="#D39FC6" /><rect x="4" y="4" width="1" height="1" fill="#783E70" /><rect x="5" y="4" width="1" height="1" fill="#E3A4D9" /><rect x="6" y="4" width="1" height="1" fill="#F3ABDD" /><rect x="7" y="4" width="1" height="1" fill="#F6AADB" /><rect x="8" y="4" width="1" height="1" fill="#F4AADB" /><rect x="9" y="4" width="1" height="1" fill="#F4AADB" /><rect x="0" y="5" width="1" height="1" fill="#5B4A16" /><rect x="1" y="5" width="1" height="1" fill="#8E7556" /><rect x="2" y="5" width="1" height="1" fill="#704C58" /><rect x="3" y="5" width="1" height="1" fill="#7B4F73" /><rect x="4" y="5" width="1" height="1" fill="#72436D" /><rect x="5" y="5" width="1" height="1" fill="#8C5886" /><rect x="6" y="5" width="1" height="1" fill="#9D6491" /><rect x="7" y="5" width="1" height="1" fill="#9E6391" /><rect x="8" y="5" width="1" height="1" fill="#9D6491" /><rect x="9" y="5" width="1" height="1" fill="#9C6491" /><rect x="0" y="6" width="1" height="1" fill="#B1A99E" /><rect x="1" y="6" width="1" height="1" fill="#7F716E" /><rect x="2" y="6" width="1" height="1" fill="#AD98A9" /><rect x="3" y="6" width="1" height="1" fill="#AF95B0" /><rect x="4" y="6" width="1" height="1" fill="#A284A0" /><rect x="5" y="6" width="1" height="1" fill="#B698B4" /><rect x="6" y="6" width="1" height="1" fill="#AD8EAD" /><rect x="7" y="6" width="1" height="1" fill="#AC8FAE" /><rect x="8" y="6" width="1" height="1" fill="#AC8FAE" /><rect x="9" y="6" width="1" height="1" fill="#AA8FAE" /><rect x="0" y="7" width="1" height="1" fill="#C2BECD" /><rect x="1" y="7" width="1" height="1" fill="#C7BECF" /><rect x="2" y="7" width="1" height="1" fill="#A799B0" /><rect x="3" y="7" width="1" height="1" fill="#AA9AB4" /><rect x="4" y="7" width="1" height="1" fill="#B5A3B9" /><rect x="5" y="7" width="1" height="1" fill="#A998AB" /><rect x="6" y="7" width="1" height="1" fill="#AF9DB5" /><rect x="7" y="7" width="1" height="1" fill="#AC9EB7" /><rect x="8" y="7" width="1" height="1" fill="#AC9EB7" /><rect x="9" y="7" width="1" height="1" fill="#AB9FB7" /><rect x="0" y="8" width="1" height="1" fill="#7A7691" /><rect x="1" y="8" width="1" height="1" fill="#766D88" /><rect x="2" y="8" width="1" height="1" fill="#817694" /><rect x="3" y="8" width="1" height="1" fill="#867995" /><rect x="4" y="8" width="1" height="1" fill="#867891" /><rect x="5" y="8" width="1" height="1" fill="#7F7087" /><rect x="6" y="8" width="1" height="1" fill="#857790" /><rect x="7" y="8" width="1" height="1" fill="#847890" /><rect x="8" y="8" width="1" height="1" fill="#817790" /><rect x="9" y="8" width="1" height="1" fill="#7F758E" /><rect x="0" y="9" width="1" height="1" fill="#E7E0FF" /><rect x="1" y="9" width="1" height="1" fill="#E5DAFA" /><rect x="2" y="9" width="1" height="1" fill="#E5D9FD" /><rect x="3" y="9" width="1" height="1" fill="#D9CEF0" /><rect x="4" y="9" width="1" height="1" fill="#DFD7EF" /><rect x="5" y="9" width="1" height="1" fill="#E7DFF6" /><rect x="6" y="9" width="1" height="1" fill="#E2D9F4" /><rect x="7" y="9" width="1" height="1" fill="#E5DCF9" /><rect x="8" y="9" width="1" height="1" fill="#E7DEFB" /><rect x="9" y="9" width="1" height="1" fill="#E5DCF9" />
  </g>
</svg>