<svg width="800" height="1000" xmlns="http://www.w3.org/2000/svg"><defs><linearGradient id="g" x1="0" x2="1" y1="0" y2="1"><stop offset="0%" stop-color="#2d3c96"/><stop offset="100%" stop-color="#d53392"/></linearGradient></defs><rect x="10" y="10" width="780" height="980" fill="url(#g)" rx="50" ry="50" stroke="gold" stroke-width="20"/><text x="400" y="920" width="780" text-anchor="middle" style="font:bold 200px 'Helvetica Neue';fill:gold">01226</text><g transform="translate(80 80) scale(64)"><rect x="0" y="0" width="1" height="1" fill="#fca0e1" /><rect x="0" y="1" width="1" height="1" fill="#f8a0da" /><rect x="0" y="2" width="1" height="1" fill="#ffb4dd" /><rect x="0" y="3" width="1" height="1" fill="#eea1c5" /><rect x="0" y="4" width="1" height="1" fill="#feacd2" /><rect x="0" y="5" width="1" height="1" fill="#f9a7cb" /><rect x="0" y="6" width="1" height="1" fill="#f9b8ce" /><rect x="0" y="7" width="1" height="1" fill="#f9c7c6" /><rect x="0" y="8" width="1" height="1" fill="#f1cdab" /><rect x="0" y="9" width="1" height="1" fill="#f5dca4" /><rect x="1" y="0" width="1" height="1" fill="#fba0dd" /><rect x="1" y="1" width="1" height="1" fill="#ffaee6" /><rect x="1" y="2" width="1" height="1" fill="#f0a3cd" /><rect x="1" y="3" width="1" height="1" fill="#f5a9cf" /><rect x="1" y="4" width="1" height="1" fill="#ffb3da" /><rect x="1" y="5" width="1" height="1" fill="#fbabd2" /><rect x="1" y="6" width="1" height="1" fill="#fabbd8" /><rect x="1" y="7" width="1" height="1" fill="#edbec8" /><rect x="1" y="8" width="1" height="1" fill="#f2d1c2" /><rect x="1" y="9" width="1" height="1" fill="#f3dbb7" /><rect x="2" y="0" width="1" height="1" fill="#f99bd7" /><rect x="2" y="1" width="1" height="1" fill="#faa2d5" /><rect x="2" y="2" width="1" height="1" fill="#f4a7d1" /><rect x="2" y="3" width="1" height="1" fill="#f5aad1" /><rect x="2" y="4" width="1" height="1" fill="#ee9fce" /><rect x="2" y="5" width="1" height="1" fill="#c87fac" /><rect x="2" y="6" width="1" height="1" fill="#884f7a" /><rect x="2" y="7" width="1" height="1" fill="#94688b" /><rect x="2" y="8" width="1" height="1" fill="#917186" /><rect x="2" y="9" width="1" height="1" fill="#8b7578" /><rect x="3" y="0" width="1" height="1" fill="#fda5d7" /><rect x="3" y="1" width="1" height="1" fill="#ffa7d7" /><rect x="3" y="2" width="1" height="1" fill="#f3a4d1" /><rect x="3" y="3" width="1" height="1" fill="#eea7d3" /><rect x="3" y="4" width="1" height="1" fill="#f8afdd" /><rect x="3" y="5" width="1" height="1" fill="#aa6896" /><rect x="3" y="6" width="1" height="1" fill="#845380" /><rect x="3" y="7" width="1" height="1" fill="#ccacd5" /><rect x="3" y="8" width="1" height="1" fill="#d4bcde" /><rect x="3" y="9" width="1" height="1" fill="#d0bed6" /><rect x="4" y="0" width="1" height="1" fill="#fea6ce" /><rect x="4" y="1" width="1" height="1" fill="#fca4cc" /><rect x="4" y="2" width="1" height="1" fill="#eea2d1" /><rect x="4" y="3" width="1" height="1" fill="#f8b2e6" /><rect x="4" y="4" width="1" height="1" fill="#e7a3d4" /><rect x="4" y="5" width="1" height="1" fill="#a26b93" /><rect x="4" y="6" width="1" height="1" fill="#d7b4d4" /><rect x="4" y="7" width="1" height="1" fill="#78647f" /><rect x="4" y="8" width="1" height="1" fill="#c5b8d2" /><rect x="4" y="9" width="1" height="1" fill="#cec4dc" /><rect x="5" y="0" width="1" height="1" fill="#fe9cc3" /><rect x="5" y="1" width="1" height="1" fill="#fea5d1" /><rect x="5" y="2" width="1" height="1" fill="#eba1d2" /><rect x="5" y="3" width="1" height="1" fill="#f2aee1" /><rect x="5" y="4" width="1" height="1" fill="#f4b7e1" /><rect x="5" y="5" width="1" height="1" fill="#916284" /><rect x="5" y="6" width="1" height="1" fill="#e0c7dc" /><rect x="5" y="7" width="1" height="1" fill="#b8adbe" /><rect x="5" y="8" width="1" height="1" fill="#736f86" /><rect x="5" y="9" width="1" height="1" fill="#9995ae" /><rect x="6" y="0" width="1" height="1" fill="#ffa5d8" /><rect x="6" y="1" width="1" height="1" fill="#ffa7d9" /><rect x="6" y="2" width="1" height="1" fill="#f2aada" /><rect x="6" y="3" width="1" height="1" fill="#e5abd4" /><rect x="6" y="4" width="1" height="1" fill="#e7b1d1" /><rect x="6" y="5" width="1" height="1" fill="#977188" /><rect x="6" y="6" width="1" height="1" fill="#cbbbc8" /><rect x="6" y="7" width="1" height="1" fill="#c7c3d2" /><rect x="6" y="8" width="1" height="1" fill="#70728b" /><rect x="6" y="9" width="1" height="1" fill="#b7b7d1" /><rect x="7" y="0" width="1" height="1" fill="#ff9ed7" /><rect x="7" y="1" width="1" height="1" fill="#f8a2d1" /><rect x="7" y="2" width="1" height="1" fill="#a96983" /><rect x="7" y="3" width="1" height="1" fill="#966771" /><rect x="7" y="4" width="1" height="1" fill="#986e70" /><rect x="7" y="5" width="1" height="1" fill="#6e5050" /><rect x="7" y="6" width="1" height="1" fill="#c8bdc3" /><rect x="7" y="7" width="1" height="1" fill="#cbcadc" /><rect x="7" y="8" width="1" height="1" fill="#787c99" /><rect x="7" y="9" width="1" height="1" fill="#d6d7f3" /><rect x="8" y="0" width="1" height="1" fill="#fa9dd4" /><rect x="8" y="1" width="1" height="1" fill="#fca8ca" /><rect x="8" y="2" width="1" height="1" fill="#9a6557" /><rect x="8" y="3" width="1" height="1" fill="#ebc59e" /><rect x="8" y="4" width="1" height="1" fill="#d9ba8e" /><rect x="8" y="5" width="1" height="1" fill="#9a8663" /><rect x="8" y="6" width="1" height="1" fill="#cac2c0" /><rect x="8" y="7" width="1" height="1" fill="#c4c5d9" /><rect x="8" y="8" width="1" height="1" fill="#777a99" /><rect x="8" y="9" width="1" height="1" fill="#dfdefe" /><rect x="9" y="0" width="1" height="1" fill="#ffa7e1" /><rect x="9" y="1" width="1" height="1" fill="#faacc4" /><rect x="9" y="2" width="1" height="1" fill="#946440" /><rect x="9" y="3" width="1" height="1" fill="#f6d794" /><rect x="9" y="4" width="1" height="1" fill="#c9b16b" /><rect x="9" y="5" width="1" height="1" fill="#675724" /><rect x="9" y="6" width="1" height="1" fill="#cbc4bc" /><rect x="9" y="7" width="1" height="1" fill="#d2d0e5" /><rect x="9" y="8" width="1" height="1" fill="#7c7b9d" /><rect x="9" y="9" width="1" height="1" fill="#d1cbef" /></g></svg>