<svg width="800" height="1000" version="1.1" xmlns="http://www.w3.org/2000/svg" xmlns:xlink="http://www.w3.org/1999/xlink">
  <defs>
      <linearGradient id="Gradient2" x1="0" x2="1" y1="0" y2="1">
        <stop offset="0%" stop-color="#2d3c96"/>
        <stop offset="100%" stop-color="#d53392"/>
      </linearGradient>
  </defs>
  <rect x="10" y="10" width="780" height="980" fill="url(#Gradient2)" rx="50" ry="50" stroke="#ffd700" stroke-width="20"/>
  <text x="400" y="920" width="780" text-anchor="middle" style="font: bold 200px 'Helvetica Neue'; fill: #ffd700">01226</text>

  <g transform="translate(80 80) scale(64)">
<rect x="0" y="0" width="1" height="1" fill="#FCA0E1" /><rect x="1" y="0" width="1" height="1" fill="#FBA0DD" /><rect x="2" y="0" width="1" height="1" fill="#F99BD7" /><rect x="3" y="0" width="1" height="1" fill="#FDA5D7" /><rect x="4" y="0" width="1" height="1" fill="#FEA6CE" /><rect x="5" y="0" width="1" height="1" fill="#FE9CC3" /><rect x="6" y="0" width="1" height="1" fill="#FFA5D8" /><rect x="7" y="0" width="1" height="1" fill="#FF9ED7" /><rect x="8" y="0" width="1" height="1" fill="#FA9DD4" /><rect x="9" y="0" width="1" height="1" fill="#FFA7E1" /><rect x="0" y="1" width="1" height="1" fill="#F8A0DA" /><rect x="1" y="1" width="1" height="1" fill="#FFAEE6" /><rect x="2" y="1" width="1" height="1" fill="#FAA2D5" /><rect x="3" y="1" width="1" height="1" fill="#FFA7D7" /><rect x="4" y="1" width="1" height="1" fill="#FCA4CC" /><rect x="5" y="1" width="1" height="1" fill="#FEA5D1" /><rect x="6" y="1" width="1" height="1" fill="#FFA7D9" /><rect x="7" y="1" width="1" height="1" fill="#F8A2D1" /><rect x="8" y="1" width="1" height="1" fill="#FCA8CA" /><rect x="9" y="1" width="1" height="1" fill="#FAACC4" /><rect x="0" y="2" width="1" height="1" fill="#FFB4DD" /><rect x="1" y="2" width="1" height="1" fill="#F0A3CD" /><rect x="2" y="2" width="1" height="1" fill="#F4A7D1" /><rect x="3" y="2" width="1" height="1" fill="#F3A4D1" /><rect x="4" y="2" width="1" height="1" fill="#EEA2D1" /><rect x="5" y="2" width="1" height="1" fill="#EBA1D2" /><rect x="6" y="2" width="1" height="1" fill="#F2AADA" /><rect x="7" y="2" width="1" height="1" fill="#A96983" /><rect x="8" y="2" width="1" height="1" fill="#9A6557" /><rect x="9" y="2" width="1" height="1" fill="#946440" /><rect x="0" y="3" width="1" height="1" fill="#EEA1C5" /><rect x="1" y="3" width="1" height="1" fill="#F5A9CF" /><rect x="2" y="3" width="1" height="1" fill="#F5AAD1" /><rect x="3" y="3" width="1" height="1" fill="#EEA7D3" /><rect x="4" y="3" width="1" height="1" fill="#F8B2E6" /><rect x="5" y="3" width="1" height="1" fill="#F2AEE1" /><rect x="6" y="3" width="1" height="1" fill="#E5ABD4" /><rect x="7" y="3" width="1" height="1" fill="#966771" /><rect x="8" y="3" width="1" height="1" fill="#EBC59E" /><rect x="9" y="3" width="1" height="1" fill="#F6D794" /><rect x="0" y="4" width="1" height="1" fill="#FEACD2" /><rect x="1" y="4" width="1" height="1" fill="#FFB3DA" /><rect x="2" y="4" width="1" height="1" fill="#EE9FCE" /><rect x="3" y="4" width="1" height="1" fill="#F8AFDD" /><rect x="4" y="4" width="1" height="1" fill="#E7A3D4" /><rect x="5" y="4" width="1" height="1" fill="#F4B7E1" /><rect x="6" y="4" width="1" height="1" fill="#E7B1D1" /><rect x="7" y="4" width="1" height="1" fill="#986E70" /><rect x="8" y="4" width="1" height="1" fill="#D9BA8E" /><rect x="9" y="4" width="1" height="1" fill="#C9B16B" /><rect x="0" y="5" width="1" height="1" fill="#F9A7CB" /><rect x="1" y="5" width="1" height="1" fill="#FBABD2" /><rect x="2" y="5" width="1" height="1" fill="#C87FAC" /><rect x="3" y="5" width="1" height="1" fill="#AA6896" /><rect x="4" y="5" width="1" height="1" fill="#A26B93" /><rect x="5" y="5" width="1" height="1" fill="#916284" /><rect x="6" y="5" width="1" height="1" fill="#977188" /><rect x="7" y="5" width="1" height="1" fill="#6E5050" /><rect x="8" y="5" width="1" height="1" fill="#9A8663" /><rect x="9" y="5" width="1" height="1" fill="#675724" /><rect x="0" y="6" width="1" height="1" fill="#F9B8CE" /><rect x="1" y="6" width="1" height="1" fill="#FABBD8" /><rect x="2" y="6" width="1" height="1" fill="#884F7A" /><rect x="3" y="6" width="1" height="1" fill="#845380" /><rect x="4" y="6" width="1" height="1" fill="#D7B4D4" /><rect x="5" y="6" width="1" height="1" fill="#E0C7DC" /><rect x="6" y="6" width="1" height="1" fill="#CBBBC8" /><rect x="7" y="6" width="1" height="1" fill="#C8BDC3" /><rect x="8" y="6" width="1" height="1" fill="#CAC2C0" /><rect x="9" y="6" width="1" height="1" fill="#CBC4BC" /><rect x="0" y="7" width="1" height="1" fill="#F9C7C6" /><rect x="1" y="7" width="1" height="1" fill="#EDBEC8" /><rect x="2" y="7" width="1" height="1" fill="#94688B" /><rect x="3" y="7" width="1" height="1" fill="#CCACD5" /><rect x="4" y="7" width="1" height="1" fill="#78647F" /><rect x="5" y="7" width="1" height="1" fill="#B8ADBE" /><rect x="6" y="7" width="1" height="1" fill="#C7C3D2" /><rect x="7" y="7" width="1" height="1" fill="#CBCADC" /><rect x="8" y="7" width="1" height="1" fill="#C4C5D9" /><rect x="9" y="7" width="1" height="1" fill="#D2D0E5" /><rect x="0" y="8" width="1" height="1" fill="#F1CDAB" /><rect x="1" y="8" width="1" height="1" fill="#F2D1C2" /><rect x="2" y="8" width="1" height="1" fill="#917186" /><rect x="3" y="8" width="1" height="1" fill="#D4BCDE" /><rect x="4" y="8" width="1" height="1" fill="#C5B8D2" /><rect x="5" y="8" width="1" height="1" fill="#736F86" /><rect x="6" y="8" width="1" height="1" fill="#70728B" /><rect x="7" y="8" width="1" height="1" fill="#787C99" /><rect x="8" y="8" width="1" height="1" fill="#777A99" /><rect x="9" y="8" width="1" height="1" fill="#7C7B9D" /><rect x="0" y="9" width="1" height="1" fill="#F5DCA4" /><rect x="1" y="9" width="1" height="1" fill="#F3DBB7" /><rect x="2" y="9" width="1" height="1" fill="#8B7578" /><rect x="3" y="9" width="1" height="1" fill="#D0BED6" /><rect x="4" y="9" width="1" height="1" fill="#CEC4DC" /><rect x="5" y="9" width="1" height="1" fill="#9995AE" /><rect x="6" y="9" width="1" height="1" fill="#B7B7D1" /><rect x="7" y="9" width="1" height="1" fill="#D6D7F3" /><rect x="8" y="9" width="1" height="1" fill="#DFDEFE" /><rect x="9" y="9" width="1" height="1" fill="#D1CBEF" />
  </g>
</svg>