<svg width="800" height="1000" version="1.1" xmlns="http://www.w3.org/2000/svg" xmlns:xlink="http://www.w3.org/1999/xlink">
  <defs>
      <linearGradient id="Gradient2" x1="0" x2="1" y1="0" y2="1">
        <stop offset="0%" stop-color="#2d3c96"/>
        <stop offset="100%" stop-color="#d53392"/>
      </linearGradient>
  </defs>
  <rect x="10" y="10" width="780" height="980" fill="url(#Gradient2)" rx="50" ry="50" stroke="#ffd700" stroke-width="20"/>
  <text x="400" y="920" width="780" text-anchor="middle" style="font: bold 200px 'Helvetica Neue'; fill: #ffd700">01223</text>

  <g transform="translate(80 80) scale(64)">
<rect x="0" y="0" width="1" height="1" fill="#030000" /><rect x="1" y="0" width="1" height="1" fill="#050405" /><rect x="2" y="0" width="1" height="1" fill="#050304" /><rect x="3" y="0" width="1" height="1" fill="#060000" /><rect x="4" y="0" width="1" height="1" fill="#135F33" /><rect x="5" y="0" width="1" height="1" fill="#15C15E" /><rect x="6" y="0" width="1" height="1" fill="#116032" /><rect x="7" y="0" width="1" height="1" fill="#070000" /><rect x="8" y="0" width="1" height="1" fill="#040304" /><rect x="9" y="0" width="1" height="1" fill="#050505" /><rect x="0" y="1" width="1" height="1" fill="#0A150D" /><rect x="1" y="1" width="1" height="1" fill="#030000" /><rect x="2" y="1" width="1" height="1" fill="#020000" /><rect x="3" y="1" width="1" height="1" fill="#070000" /><rect x="4" y="1" width="1" height="1" fill="#155830" /><rect x="5" y="1" width="1" height="1" fill="#17BC5C" /><rect x="6" y="1" width="1" height="1" fill="#126130" /><rect x="7" y="1" width="1" height="1" fill="#060000" /><rect x="8" y="1" width="1" height="1" fill="#040304" /><rect x="9" y="1" width="1" height="1" fill="#050506" /><rect x="0" y="2" width="1" height="1" fill="#1FA354" /><rect x="1" y="2" width="1" height="1" fill="#13512B" /><rect x="2" y="2" width="1" height="1" fill="#040000" /><rect x="3" y="2" width="1" height="1" fill="#020000" /><rect x="4" y="2" width="1" height="1" fill="#12582F" /><rect x="5" y="2" width="1" height="1" fill="#19B75D" /><rect x="6" y="2" width="1" height="1" fill="#165D32" /><rect x="7" y="2" width="1" height="1" fill="#060000" /><rect x="8" y="2" width="1" height="1" fill="#020002" /><rect x="9" y="2" width="1" height="1" fill="#030000" /><rect x="0" y="3" width="1" height="1" fill="#16743E" /><rect x="1" y="3" width="1" height="1" fill="#1ACE66" /><rect x="2" y="3" width="1" height="1" fill="#166634" /><rect x="3" y="3" width="1" height="1" fill="#050000" /><rect x="4" y="3" width="1" height="1" fill="#0E4826" /><rect x="5" y="3" width="1" height="1" fill="#16BF5E" /><rect x="6" y="3" width="1" height="1" fill="#145B31" /><rect x="7" y="3" width="1" height="1" fill="#030000" /><rect x="8" y="3" width="1" height="1" fill="#030000" /><rect x="9" y="3" width="1" height="1" fill="#10341B" /><rect x="0" y="4" width="1" height="1" fill="#050303" /><rect x="1" y="4" width="1" height="1" fill="#138745" /><rect x="2" y="4" width="1" height="1" fill="#19CC63" /><rect x="3" y="4" width="1" height="1" fill="#124426" /><rect x="4" y="4" width="1" height="1" fill="#0C1A12" /><rect x="5" y="4" width="1" height="1" fill="#18B45A" /><rect x="6" y="4" width="1" height="1" fill="#0F4B26" /><rect x="7" y="4" width="1" height="1" fill="#030000" /><rect x="8" y="4" width="1" height="1" fill="#144F2B" /><rect x="9" y="4" width="1" height="1" fill="#1BCA62" /><rect x="0" y="5" width="1" height="1" fill="#020000" /><rect x="1" y="5" width="1" height="1" fill="#0A0E0A" /><rect x="2" y="5" width="1" height="1" fill="#119047" /><rect x="3" y="5" width="1" height="1" fill="#16BE5E" /><rect x="4" y="5" width="1" height="1" fill="#123E24" /><rect x="5" y="5" width="1" height="1" fill="#16743C" /><rect x="6" y="5" width="1" height="1" fill="#0E381D" /><rect x="7" y="5" width="1" height="1" fill="#114A29" /><rect x="8" y="5" width="1" height="1" fill="#1DC967" /><rect x="9" y="5" width="1" height="1" fill="#168241" /><rect x="0" y="6" width="1" height="1" fill="#010000" /><rect x="1" y="6" width="1" height="1" fill="#010000" /><rect x="2" y="6" width="1" height="1" fill="#090000" /><rect x="3" y="6" width="1" height="1" fill="#117139" /><rect x="4" y="6" width="1" height="1" fill="#16723A" /><rect x="5" y="6" width="1" height="1" fill="#163C20" /><rect x="6" y="6" width="1" height="1" fill="#175A2E" /><rect x="7" y="6" width="1" height="1" fill="#15994E" /><rect x="8" y="6" width="1" height="1" fill="#0C4628" /><rect x="9" y="6" width="1" height="1" fill="#030000" /><rect x="0" y="7" width="1" height="1" fill="#112D1B" /><rect x="1" y="7" width="1" height="1" fill="#165C31" /><rect x="2" y="7" width="1" height="1" fill="#116332" /><rect x="3" y="7" width="1" height="1" fill="#125C31" /><rect x="4" y="7" width="1" height="1" fill="#195B30" /><rect x="5" y="7" width="1" height="1" fill="#172517" /><rect x="6" y="7" width="1" height="1" fill="#174324" /><rect x="7" y="7" width="1" height="1" fill="#156633" /><rect x="8" y="7" width="1" height="1" fill="#0E4323" /><rect x="9" y="7" width="1" height="1" fill="#0D4626" /><rect x="0" y="8" width="1" height="1" fill="#10321B" /><rect x="1" y="8" width="1" height="1" fill="#176A39" /><rect x="2" y="8" width="1" height="1" fill="#158A45" /><rect x="3" y="8" width="1" height="1" fill="#17783E" /><rect x="4" y="8" width="1" height="1" fill="#1C4E2C" /><rect x="5" y="8" width="1" height="1" fill="#183220" /><rect x="6" y="8" width="1" height="1" fill="#1B4727" /><rect x="7" y="8" width="1" height="1" fill="#196332" /><rect x="8" y="8" width="1" height="1" fill="#168240" /><rect x="9" y="8" width="1" height="1" fill="#188C48" /><rect x="0" y="9" width="1" height="1" fill="#000000" /><rect x="1" y="9" width="1" height="1" fill="#030000" /><rect x="2" y="9" width="1" height="1" fill="#050000" /><rect x="3" y="9" width="1" height="1" fill="#080000" /><rect x="4" y="9" width="1" height="1" fill="#132619" /><rect x="5" y="9" width="1" height="1" fill="#0E2316" /><rect x="6" y="9" width="1" height="1" fill="#102C19" /><rect x="7" y="9" width="1" height="1" fill="#173520" /><rect x="8" y="9" width="1" height="1" fill="#0A0004" /><rect x="9" y="9" width="1" height="1" fill="#000000" />
  </g>
</svg>