<svg width="800" height="1000" version="1.1" xmlns="http://www.w3.org/2000/svg" xmlns:xlink="http://www.w3.org/1999/xlink">
  <defs>
      <linearGradient id="Gradient2" x1="0" x2="1" y1="0" y2="1">
        <stop offset="0%" stop-color="#2d3c96"/>
        <stop offset="100%" stop-color="#d53392"/>
      </linearGradient>
  </defs>
  <rect x="10" y="10" width="780" height="980" fill="url(#Gradient2)" rx="50" ry="50" stroke="#ffd700" stroke-width="20"/>
  <text x="400" y="920" width="780" text-anchor="middle" style="font: bold 200px 'Helvetica Neue'; fill: #ffd700">01248</text>

  <g transform="translate(80 80) scale(64)">
<rect x="0" y="0" width="1" height="1" fill="#52103E" /><rect x="1" y="0" width="1" height="1" fill="#601E4C" /><rect x="2" y="0" width="1" height="1" fill="#662754" /><rect x="3" y="0" width="1" height="1" fill="#551643" /><rect x="4" y="0" width="1" height="1" fill="#71325F" /><rect x="5" y="0" width="1" height="1" fill="#682956" /><rect x="6" y="0" width="1" height="1" fill="#5D204C" /><rect x="7" y="0" width="1" height="1" fill="#763965" /><rect x="8" y="0" width="1" height="1" fill="#6E316C" /><rect x="9" y="0" width="1" height="1" fill="#6F3C74" /><rect x="0" y="1" width="1" height="1" fill="#5A1846" /><rect x="1" y="1" width="1" height="1" fill="#5E1C4A" /><rect x="2" y="1" width="1" height="1" fill="#551643" /><rect x="3" y="1" width="1" height="1" fill="#642552" /><rect x="4" y="1" width="1" height="1" fill="#824370" /><rect x="5" y="1" width="1" height="1" fill="#5E1F4C" /><rect x="6" y="1" width="1" height="1" fill="#561945" /><rect x="7" y="1" width="1" height="1" fill="#6B2E5A" /><rect x="8" y="1" width="1" height="1" fill="#74356A" /><rect x="9" y="1" width="1" height="1" fill="#834F80" /><rect x="0" y="2" width="1" height="1" fill="#591745" /><rect x="1" y="2" width="1" height="1" fill="#571543" /><rect x="2" y="2" width="1" height="1" fill="#50113E" /><rect x="3" y="2" width="1" height="1" fill="#763764" /><rect x="4" y="2" width="1" height="1" fill="#864774" /><rect x="5" y="2" width="1" height="1" fill="#5A1B48" /><rect x="6" y="2" width="1" height="1" fill="#5E214D" /><rect x="7" y="2" width="1" height="1" fill="#581B47" /><rect x="8" y="2" width="1" height="1" fill="#551746" /><rect x="9" y="2" width="1" height="1" fill="#794671" /><rect x="0" y="3" width="1" height="1" fill="#55143F" /><rect x="1" y="3" width="1" height="1" fill="#5A1944" /><rect x="2" y="3" width="1" height="1" fill="#581944" /><rect x="3" y="3" width="1" height="1" fill="#6D2E59" /><rect x="4" y="3" width="1" height="1" fill="#6F305B" /><rect x="5" y="3" width="1" height="1" fill="#571843" /><rect x="6" y="3" width="1" height="1" fill="#5E214B" /><rect x="7" y="3" width="1" height="1" fill="#4A0D37" /><rect x="8" y="3" width="1" height="1" fill="#6A2A5C" /><rect x="9" y="3" width="1" height="1" fill="#5D2856" /><rect x="0" y="4" width="1" height="1" fill="#571641" /><rect x="1" y="4" width="1" height="1" fill="#601F4A" /><rect x="2" y="4" width="1" height="1" fill="#5E1F4A" /><rect x="3" y="4" width="1" height="1" fill="#5A1B46" /><rect x="4" y="4" width="1" height="1" fill="#63244F" /><rect x="5" y="4" width="1" height="1" fill="#60214C" /><rect x="6" y="4" width="1" height="1" fill="#5A1D47" /><rect x="7" y="4" width="1" height="1" fill="#571A44" /><rect x="8" y="4" width="1" height="1" fill="#6A2A5E" /><rect x="9" y="4" width="1" height="1" fill="#6D3768" /><rect x="0" y="5" width="1" height="1" fill="#5C1B46" /><rect x="1" y="5" width="1" height="1" fill="#571641" /><rect x="2" y="5" width="1" height="1" fill="#5D1E49" /><rect x="3" y="5" width="1" height="1" fill="#5C1D48" /><rect x="4" y="5" width="1" height="1" fill="#652651" /><rect x="5" y="5" width="1" height="1" fill="#672853" /><rect x="6" y="5" width="1" height="1" fill="#561943" /><rect x="7" y="5" width="1" height="1" fill="#5A1D47" /><rect x="8" y="5" width="1" height="1" fill="#551248" /><rect x="9" y="5" width="1" height="1" fill="#7E4578" /><rect x="0" y="6" width="1" height="1" fill="#5C1B45" /><rect x="1" y="6" width="1" height="1" fill="#54133D" /><rect x="2" y="6" width="1" height="1" fill="#5C1E47" /><rect x="3" y="6" width="1" height="1" fill="#5F214A" /><rect x="4" y="6" width="1" height="1" fill="#5D1F48" /><rect x="5" y="6" width="1" height="1" fill="#64264F" /><rect x="6" y="6" width="1" height="1" fill="#5A1D46" /><rect x="7" y="6" width="1" height="1" fill="#4D1039" /><rect x="8" y="6" width="1" height="1" fill="#601E4E" /><rect x="9" y="6" width="1" height="1" fill="#5A224F" /><rect x="0" y="7" width="1" height="1" fill="#54133D" /><rect x="1" y="7" width="1" height="1" fill="#61204A" /><rect x="2" y="7" width="1" height="1" fill="#5D1F48" /><rect x="3" y="7" width="1" height="1" fill="#571942" /><rect x="4" y="7" width="1" height="1" fill="#591B44" /><rect x="5" y="7" width="1" height="1" fill="#6D2F58" /><rect x="6" y="7" width="1" height="1" fill="#71345D" /><rect x="7" y="7" width="1" height="1" fill="#5B1E47" /><rect x="8" y="7" width="1" height="1" fill="#65224D" /><rect x="9" y="7" width="1" height="1" fill="#632B52" /><rect x="0" y="8" width="1" height="1" fill="#561841" /><rect x="1" y="8" width="1" height="1" fill="#61204A" /><rect x="2" y="8" width="1" height="1" fill="#662550" /><rect x="3" y="8" width="1" height="1" fill="#601E4C" /><rect x="4" y="8" width="1" height="1" fill="#612251" /><rect x="5" y="8" width="1" height="1" fill="#612656" /><rect x="6" y="8" width="1" height="1" fill="#7D4576" /><rect x="7" y="8" width="1" height="1" fill="#7B4576" /><rect x="8" y="8" width="1" height="1" fill="#632A57" /><rect x="9" y="8" width="1" height="1" fill="#6C3360" /><rect x="0" y="9" width="1" height="1" fill="#571942" /><rect x="1" y="9" width="1" height="1" fill="#62214B" /><rect x="2" y="9" width="1" height="1" fill="#6B2A55" /><rect x="3" y="9" width="1" height="1" fill="#692755" /><rect x="4" y="9" width="1" height="1" fill="#773867" /><rect x="5" y="9" width="1" height="1" fill="#652A5A" /><rect x="6" y="9" width="1" height="1" fill="#683061" /><rect x="7" y="9" width="1" height="1" fill="#7F497A" /><rect x="8" y="9" width="1" height="1" fill="#7E4572" /><rect x="9" y="9" width="1" height="1" fill="#69305D" />
  </g>
</svg>