<svg width="800" height="1000" version="1.1" xmlns="http://www.w3.org/2000/svg" xmlns:xlink="http://www.w3.org/1999/xlink">
  <defs>
      <linearGradient id="Gradient2" x1="0" x2="1" y1="0" y2="1">
        <stop offset="0%" stop-color="#2d3c96"/>
        <stop offset="100%" stop-color="#d53392"/>
      </linearGradient>
  </defs>
  <rect x="10" y="10" width="780" height="980" fill="url(#Gradient2)" rx="50" ry="50" stroke="#ffd700" stroke-width="20"/>
  <text x="400" y="920" width="780" text-anchor="middle" style="font: bold 200px 'Helvetica Neue'; fill: #ffd700">01247</text>

  <g transform="translate(80 80) scale(64)">
<rect x="0" y="0" width="1" height="1" fill="#895C73" /><rect x="1" y="0" width="1" height="1" fill="#C592A5" /><rect x="2" y="0" width="1" height="1" fill="#AE8B89" /><rect x="3" y="0" width="1" height="1" fill="#632534" /><rect x="4" y="0" width="1" height="1" fill="#AF3F4F" /><rect x="5" y="0" width="1" height="1" fill="#F8967F" /><rect x="6" y="0" width="1" height="1" fill="#EBA581" /><rect x="7" y="0" width="1" height="1" fill="#EA9570" /><rect x="8" y="0" width="1" height="1" fill="#EE927D" /><rect x="9" y="0" width="1" height="1" fill="#965A76" /><rect x="0" y="1" width="1" height="1" fill="#451431" /><rect x="1" y="1" width="1" height="1" fill="#B37F96" /><rect x="2" y="1" width="1" height="1" fill="#DAB8B7" /><rect x="3" y="1" width="1" height="1" fill="#6F3241" /><rect x="4" y="1" width="1" height="1" fill="#A13042" /><rect x="5" y="1" width="1" height="1" fill="#FD9B84" /><rect x="6" y="1" width="1" height="1" fill="#F0AA86" /><rect x="7" y="1" width="1" height="1" fill="#F8A37C" /><rect x="8" y="1" width="1" height="1" fill="#ED846F" /><rect x="9" y="1" width="1" height="1" fill="#853C59" /><rect x="0" y="2" width="1" height="1" fill="#320020" /><rect x="1" y="2" width="1" height="1" fill="#9D6685" /><rect x="2" y="2" width="1" height="1" fill="#E1C1C4" /><rect x="3" y="2" width="1" height="1" fill="#6B3243" /><rect x="4" y="2" width="1" height="1" fill="#98293A" /><rect x="5" y="2" width="1" height="1" fill="#FF9F88" /><rect x="6" y="2" width="1" height="1" fill="#ECA780" /><rect x="7" y="2" width="1" height="1" fill="#F49F76" /><rect x="8" y="2" width="1" height="1" fill="#EE8073" /><rect x="9" y="2" width="1" height="1" fill="#7D3054" /><rect x="0" y="3" width="1" height="1" fill="#43062F" /><rect x="1" y="3" width="1" height="1" fill="#8D5676" /><rect x="2" y="3" width="1" height="1" fill="#DBBEC2" /><rect x="3" y="3" width="1" height="1" fill="#73404F" /><rect x="4" y="3" width="1" height="1" fill="#932838" /><rect x="5" y="3" width="1" height="1" fill="#FD9B82" /><rect x="6" y="3" width="1" height="1" fill="#EEA980" /><rect x="7" y="3" width="1" height="1" fill="#F4A175" /><rect x="8" y="3" width="1" height="1" fill="#E67F78" /><rect x="9" y="3" width="1" height="1" fill="#762F59" /><rect x="0" y="4" width="1" height="1" fill="#3C0024" /><rect x="1" y="4" width="1" height="1" fill="#753C5D" /><rect x="2" y="4" width="1" height="1" fill="#D5BCBF" /><rect x="3" y="4" width="1" height="1" fill="#825663" /><rect x="4" y="4" width="1" height="1" fill="#8F2736" /><rect x="5" y="4" width="1" height="1" fill="#F9987F" /><rect x="6" y="4" width="1" height="1" fill="#F2AD84" /><rect x="7" y="4" width="1" height="1" fill="#F3A074" /><rect x="8" y="4" width="1" height="1" fill="#ED877B" /><rect x="9" y="4" width="1" height="1" fill="#843E63" /><rect x="0" y="5" width="1" height="1" fill="#470025" /><rect x="1" y="5" width="1" height="1" fill="#672C4A" /><rect x="2" y="5" width="1" height="1" fill="#CAB7B3" /><rect x="3" y="5" width="1" height="1" fill="#966E77" /><rect x="4" y="5" width="1" height="1" fill="#902C38" /><rect x="5" y="5" width="1" height="1" fill="#F39279" /><rect x="6" y="5" width="1" height="1" fill="#EBA67D" /><rect x="7" y="5" width="1" height="1" fill="#F29F73" /><rect x="8" y="5" width="1" height="1" fill="#E87965" /><rect x="9" y="5" width="1" height="1" fill="#90415E" /><rect x="0" y="6" width="1" height="1" fill="#6C1F41" /><rect x="1" y="6" width="1" height="1" fill="#7F455D" /><rect x="2" y="6" width="1" height="1" fill="#C8BAB1" /><rect x="3" y="6" width="1" height="1" fill="#AB888C" /><rect x="4" y="6" width="1" height="1" fill="#96353E" /><rect x="5" y="6" width="1" height="1" fill="#E6856A" /><rect x="6" y="6" width="1" height="1" fill="#E9A47B" /><rect x="7" y="6" width="1" height="1" fill="#FEAD82" /><rect x="8" y="6" width="1" height="1" fill="#E07263" /><rect x="9" y="6" width="1" height="1" fill="#843759" /><rect x="0" y="7" width="1" height="1" fill="#8C3D5C" /><rect x="1" y="7" width="1" height="1" fill="#9C6175" /><rect x="2" y="7" width="1" height="1" fill="#C0B2A5" /><rect x="3" y="7" width="1" height="1" fill="#AF8F90" /><rect x="4" y="7" width="1" height="1" fill="#9D3C43" /><rect x="5" y="7" width="1" height="1" fill="#E48368" /><rect x="6" y="7" width="1" height="1" fill="#F1AC83" /><rect x="7" y="7" width="1" height="1" fill="#FFAE83" /><rect x="8" y="7" width="1" height="1" fill="#DC7876" /><rect x="9" y="7" width="1" height="1" fill="#6A2655" /><rect x="0" y="8" width="1" height="1" fill="#5D1D3F" /><rect x="1" y="8" width="1" height="1" fill="#7E365E" /><rect x="2" y="8" width="1" height="1" fill="#BB9AA1" /><rect x="3" y="8" width="1" height="1" fill="#C4AD9B" /><rect x="4" y="8" width="1" height="1" fill="#A2514E" /><rect x="5" y="8" width="1" height="1" fill="#E37C6B" /><rect x="6" y="8" width="1" height="1" fill="#F7AA7C" /><rect x="7" y="8" width="1" height="1" fill="#FEB389" /><rect x="8" y="8" width="1" height="1" fill="#C76C67" /><rect x="9" y="8" width="1" height="1" fill="#581248" /><rect x="0" y="9" width="1" height="1" fill="#521234" /><rect x="1" y="9" width="1" height="1" fill="#5A123A" /><rect x="2" y="9" width="1" height="1" fill="#BE9DA4" /><rect x="3" y="9" width="1" height="1" fill="#F1DAC8" /><rect x="4" y="9" width="1" height="1" fill="#B76663" /><rect x="5" y="9" width="1" height="1" fill="#DC7564" /><rect x="6" y="9" width="1" height="1" fill="#F5A87A" /><rect x="7" y="9" width="1" height="1" fill="#FDB288" /><rect x="8" y="9" width="1" height="1" fill="#AE5B63" /><rect x="9" y="9" width="1" height="1" fill="#4B0F45" />
  </g>
</svg>