<svg width="800" height="1000" xmlns="http://www.w3.org/2000/svg"><defs><linearGradient id="g" x1="0" x2="1" y1="0" y2="1"><stop offset="0%" stop-color="#2d3c96"/><stop offset="100%" stop-color="#d53392"/></linearGradient></defs><rect x="10" y="10" width="780" height="980" fill="url(#g)" rx="50" ry="50" stroke="gold" stroke-width="20"/><text x="400" y="920" width="780" text-anchor="middle" style="font:bold 200px 'Helvetica Neue';fill:gold">01249</text><g transform="translate(80 80) scale(64)"><rect x="0" y="0" width="1" height="1" fill="#87568d" /><rect x="0" y="1" width="1" height="1" fill="#6e3f75" /><rect x="0" y="2" width="1" height="1" fill="#6b3e75" /><rect x="0" y="3" width="1" height="1" fill="#7c5085" /><rect x="0" y="4" width="1" height="1" fill="#5d3164" /><rect x="0" y="5" width="1" height="1" fill="#805281" /><rect x="0" y="6" width="1" height="1" fill="#8c5d89" /><rect x="0" y="7" width="1" height="1" fill="#592953" /><rect x="0" y="8" width="1" height="1" fill="#703668" /><rect x="0" y="9" width="1" height="1" fill="#6c2b56" /><rect x="1" y="0" width="1" height="1" fill="#a87aa9" /><rect x="1" y="1" width="1" height="1" fill="#9a6c9d" /><rect x="1" y="2" width="1" height="1" fill="#9a6e9f" /><rect x="1" y="3" width="1" height="1" fill="#ac80b1" /><rect x="1" y="4" width="1" height="1" fill="#794b7c" /><rect x="1" y="5" width="1" height="1" fill="#5a2b59" /><rect x="1" y="6" width="1" height="1" fill="#a16d9b" /><rect x="1" y="7" width="1" height="1" fill="#98638f" /><rect x="1" y="8" width="1" height="1" fill="#8b5684" /><rect x="1" y="9" width="1" height="1" fill="#652d5a" /><rect x="2" y="0" width="1" height="1" fill="#92658c" /><rect x="2" y="1" width="1" height="1" fill="#9b6e95" /><rect x="2" y="2" width="1" height="1" fill="#a3769f" /><rect x="2" y="3" width="1" height="1" fill="#845782" /><rect x="2" y="4" width="1" height="1" fill="#7d4e7a" /><rect x="2" y="5" width="1" height="1" fill="#68335f" /><rect x="2" y="6" width="1" height="1" fill="#864d78" /><rect x="2" y="7" width="1" height="1" fill="#824773" /><rect x="2" y="8" width="1" height="1" fill="#73406b" /><rect x="2" y="9" width="1" height="1" fill="#78436f" /><rect x="3" y="0" width="1" height="1" fill="#8f627f" /><rect x="3" y="1" width="1" height="1" fill="#623554" /><rect x="3" y="2" width="1" height="1" fill="#996b8f" /><rect x="3" y="3" width="1" height="1" fill="#85557b" /><rect x="3" y="4" width="1" height="1" fill="#87537a" /><rect x="3" y="5" width="1" height="1" fill="#7d436c" /><rect x="3" y="6" width="1" height="1" fill="#50113c" /><rect x="3" y="7" width="1" height="1" fill="#55123d" /><rect x="3" y="8" width="1" height="1" fill="#460e3b" /><rect x="3" y="9" width="1" height="1" fill="#672549" /><rect x="4" y="0" width="1" height="1" fill="#804e69" /><rect x="4" y="1" width="1" height="1" fill="#ab7996" /><rect x="4" y="2" width="1" height="1" fill="#a36d8d" /><rect x="4" y="3" width="1" height="1" fill="#6b3358" /><rect x="4" y="4" width="1" height="1" fill="#5c2046" /><rect x="4" y="5" width="1" height="1" fill="#66254d" /><rect x="4" y="6" width="1" height="1" fill="#550e36" /><rect x="4" y="7" width="1" height="1" fill="#540c34" /><rect x="4" y="8" width="1" height="1" fill="#4a0733" /><rect x="4" y="9" width="1" height="1" fill="#72162d" /><rect x="5" y="0" width="1" height="1" fill="#521332" /><rect x="5" y="1" width="1" height="1" fill="#521534" /><rect x="5" y="2" width="1" height="1" fill="#5a1d3f" /><rect x="5" y="3" width="1" height="1" fill="#753558" /><rect x="5" y="4" width="1" height="1" fill="#5b193d" /><rect x="5" y="5" width="1" height="1" fill="#581237" /><rect x="5" y="6" width="1" height="1" fill="#53092e" /><rect x="5" y="7" width="1" height="1" fill="#580b2f" /><rect x="5" y="8" width="1" height="1" fill="#641437" /><rect x="5" y="9" width="1" height="1" fill="#ab3740" /><rect x="6" y="0" width="1" height="1" fill="#6b2146" /><rect x="6" y="1" width="1" height="1" fill="#71274c" /><rect x="6" y="2" width="1" height="1" fill="#6b2349" /><rect x="6" y="3" width="1" height="1" fill="#843c62" /><rect x="6" y="4" width="1" height="1" fill="#6a2247" /><rect x="6" y="5" width="1" height="1" fill="#55092d" /><rect x="6" y="6" width="1" height="1" fill="#590c2c" /><rect x="6" y="7" width="1" height="1" fill="#681938" /><rect x="6" y="8" width="1" height="1" fill="#8d3045" /><rect x="6" y="9" width="1" height="1" fill="#d2534d" /><rect x="7" y="0" width="1" height="1" fill="#65143d" /><rect x="7" y="1" width="1" height="1" fill="#63123b" /><rect x="7" y="2" width="1" height="1" fill="#661842" /><rect x="7" y="3" width="1" height="1" fill="#7b2f56" /><rect x="7" y="4" width="1" height="1" fill="#5f1339" /><rect x="7" y="5" width="1" height="1" fill="#520527" /><rect x="7" y="6" width="1" height="1" fill="#813251" /><rect x="7" y="7" width="1" height="1" fill="#863653" /><rect x="7" y="8" width="1" height="1" fill="#9f3b45" /><rect x="7" y="9" width="1" height="1" fill="#da5a4d" /><rect x="8" y="0" width="1" height="1" fill="#662746" /><rect x="8" y="1" width="1" height="1" fill="#671f47" /><rect x="8" y="2" width="1" height="1" fill="#601744" /><rect x="8" y="3" width="1" height="1" fill="#540f3b" /><rect x="8" y="4" width="1" height="1" fill="#5d1034" /><rect x="8" y="5" width="1" height="1" fill="#983440" /><rect x="8" y="6" width="1" height="1" fill="#cd5f5e" /><rect x="8" y="7" width="1" height="1" fill="#a53742" /><rect x="8" y="8" width="1" height="1" fill="#ab444d" /><rect x="8" y="9" width="1" height="1" fill="#d95e57" /><rect x="9" y="0" width="1" height="1" fill="#65224e" /><rect x="9" y="1" width="1" height="1" fill="#661c3f" /><rect x="9" y="2" width="1" height="1" fill="#69193e" /><rect x="9" y="3" width="1" height="1" fill="#7c2643" /><rect x="9" y="4" width="1" height="1" fill="#ae4647" /><rect x="9" y="5" width="1" height="1" fill="#d96057" /><rect x="9" y="6" width="1" height="1" fill="#b9444c" /><rect x="9" y="7" width="1" height="1" fill="#922e46" /><rect x="9" y="8" width="1" height="1" fill="#d95e57" /><rect x="9" y="9" width="1" height="1" fill="#d85e59" /></g></svg>