<svg width="800" height="1000" xmlns="http://www.w3.org/2000/svg"><defs><linearGradient id="g" x1="0" x2="1" y1="0" y2="1"><stop offset="0%" stop-color="#2d3c96"/><stop offset="100%" stop-color="#d53392"/></linearGradient></defs><rect x="10" y="10" width="780" height="980" fill="url(#g)" rx="50" ry="50" stroke="gold" stroke-width="20"/><text x="400" y="920" width="780" text-anchor="middle" style="font:bold 200px 'Helvetica Neue';fill:gold">01253</text><g transform="translate(80 80) scale(64)"><rect x="0" y="0" width="1" height="1" fill="#bd5e42" /><rect x="0" y="1" width="1" height="1" fill="#f1a87d" /><rect x="0" y="2" width="1" height="1" fill="#ffd79c" /><rect x="0" y="3" width="1" height="1" fill="#e9d598" /><rect x="0" y="4" width="1" height="1" fill="#f0dea0" /><rect x="0" y="5" width="1" height="1" fill="#ffedb5" /><rect x="0" y="6" width="1" height="1" fill="#eaa98d" /><rect x="0" y="7" width="1" height="1" fill="#822a29" /><rect x="0" y="8" width="1" height="1" fill="#912f46" /><rect x="0" y="9" width="1" height="1" fill="#a34253" /><rect x="1" y="0" width="1" height="1" fill="#f5c49c" /><rect x="1" y="1" width="1" height="1" fill="#f9ca9c" /><rect x="1" y="2" width="1" height="1" fill="#ffdda4" /><rect x="1" y="3" width="1" height="1" fill="#ffde9b" /><rect x="1" y="4" width="1" height="1" fill="#ffd290" /><rect x="1" y="5" width="1" height="1" fill="#d48f66" /><rect x="1" y="6" width="1" height="1" fill="#802931" /><rect x="1" y="7" width="1" height="1" fill="#6c0638" /><rect x="1" y="8" width="1" height="1" fill="#8d3e51" /><rect x="1" y="9" width="1" height="1" fill="#904156" /><rect x="2" y="0" width="1" height="1" fill="#f4e1a7" /><rect x="2" y="1" width="1" height="1" fill="#ffedb7" /><rect x="2" y="2" width="1" height="1" fill="#ffc693" /><rect x="2" y="3" width="1" height="1" fill="#d8835a" /><rect x="2" y="4" width="1" height="1" fill="#c76250" /><rect x="2" y="5" width="1" height="1" fill="#962f3a" /><rect x="2" y="6" width="1" height="1" fill="#680426" /><rect x="2" y="7" width="1" height="1" fill="#8f335c" /><rect x="2" y="8" width="1" height="1" fill="#975062" /><rect x="2" y="9" width="1" height="1" fill="#813853" /><rect x="3" y="0" width="1" height="1" fill="#ffdf9d" /><rect x="3" y="1" width="1" height="1" fill="#dea47f" /><rect x="3" y="2" width="1" height="1" fill="#b0564e" /><rect x="3" y="3" width="1" height="1" fill="#af3d45" /><rect x="3" y="4" width="1" height="1" fill="#af3649" /><rect x="3" y="5" width="1" height="1" fill="#912441" /><rect x="3" y="6" width="1" height="1" fill="#8f3750" /><rect x="3" y="7" width="1" height="1" fill="#9d5465" /><rect x="3" y="8" width="1" height="1" fill="#823348" /><rect x="3" y="9" width="1" height="1" fill="#7c2c47" /><rect x="4" y="0" width="1" height="1" fill="#b46556" /><rect x="4" y="1" width="1" height="1" fill="#882c2f" /><rect x="4" y="2" width="1" height="1" fill="#902634" /><rect x="4" y="3" width="1" height="1" fill="#b84856" /><rect x="4" y="4" width="1" height="1" fill="#a53647" /><rect x="4" y="5" width="1" height="1" fill="#96344b" /><rect x="4" y="6" width="1" height="1" fill="#9e4f62" /><rect x="4" y="7" width="1" height="1" fill="#793840" /><rect x="4" y="8" width="1" height="1" fill="#701e35" /><rect x="4" y="9" width="1" height="1" fill="#a35263" /><rect x="5" y="0" width="1" height="1" fill="#821a3d" /><rect x="5" y="1" width="1" height="1" fill="#9d354c" /><rect x="5" y="2" width="1" height="1" fill="#bc575f" /><rect x="5" y="3" width="1" height="1" fill="#ab494a" /><rect x="5" y="4" width="1" height="1" fill="#963642" /><rect x="5" y="5" width="1" height="1" fill="#9e455b" /><rect x="5" y="6" width="1" height="1" fill="#924154" /><rect x="5" y="7" width="1" height="1" fill="#752933" /><rect x="5" y="8" width="1" height="1" fill="#9a5266" /><rect x="5" y="9" width="1" height="1" fill="#b9737e" /><rect x="6" y="0" width="1" height="1" fill="#9d3b52" /><rect x="6" y="1" width="1" height="1" fill="#b45364" /><rect x="6" y="2" width="1" height="1" fill="#b25260" /><rect x="6" y="3" width="1" height="1" fill="#9c3e4e" /><rect x="6" y="4" width="1" height="1" fill="#9f4254" /><rect x="6" y="5" width="1" height="1" fill="#963f4f" /><rect x="6" y="6" width="1" height="1" fill="#89384b" /><rect x="6" y="7" width="1" height="1" fill="#a3536c" /><rect x="6" y="8" width="1" height="1" fill="#b26e83" /><rect x="6" y="9" width="1" height="1" fill="#884557" /><rect x="7" y="0" width="1" height="1" fill="#a74c5d" /><rect x="7" y="1" width="1" height="1" fill="#a54b4b" /><rect x="7" y="2" width="1" height="1" fill="#9c3e3e" /><rect x="7" y="3" width="1" height="1" fill="#a94859" /><rect x="7" y="4" width="1" height="1" fill="#a34464" /><rect x="7" y="5" width="1" height="1" fill="#953e5e" /><rect x="7" y="6" width="1" height="1" fill="#a5576f" /><rect x="7" y="7" width="1" height="1" fill="#a1596f" /><rect x="7" y="8" width="1" height="1" fill="#8b435b" /><rect x="7" y="9" width="1" height="1" fill="#5e1533" /><rect x="8" y="0" width="1" height="1" fill="#a34752" /><rect x="8" y="1" width="1" height="1" fill="#973f4b" /><rect x="8" y="2" width="1" height="1" fill="#a6525f" /><rect x="8" y="3" width="1" height="1" fill="#994b59" /><rect x="8" y="4" width="1" height="1" fill="#914758" /><rect x="8" y="5" width="1" height="1" fill="#964d61" /><rect x="8" y="6" width="1" height="1" fill="#8c4259" /><rect x="8" y="7" width="1" height="1" fill="#7a3049" /><rect x="8" y="8" width="1" height="1" fill="#671d3e" /><rect x="8" y="9" width="1" height="1" fill="#60193b" /><rect x="9" y="0" width="1" height="1" fill="#9f4257" /><rect x="9" y="1" width="1" height="1" fill="#a95066" /><rect x="9" y="2" width="1" height="1" fill="#98435a" /><rect x="9" y="3" width="1" height="1" fill="#904059" /><rect x="9" y="4" width="1" height="1" fill="#914561" /><rect x="9" y="5" width="1" height="1" fill="#6f2443" /><rect x="9" y="6" width="1" height="1" fill="#681d3e" /><rect x="9" y="7" width="1" height="1" fill="#6f2347" /><rect x="9" y="8" width="1" height="1" fill="#5f183a" /><rect x="9" y="9" width="1" height="1" fill="#8e3345" /></g></svg>