<svg width="800" height="1000" xmlns="http://www.w3.org/2000/svg"><defs><linearGradient id="g" x1="0" x2="1" y1="0" y2="1"><stop offset="0%" stop-color="#2d3c96"/><stop offset="100%" stop-color="#d53392"/></linearGradient></defs><rect x="10" y="10" width="780" height="980" fill="url(#g)" rx="50" ry="50" stroke="gold" stroke-width="20"/><text x="400" y="920" width="780" text-anchor="middle" style="font:bold 200px 'Helvetica Neue';fill:gold">01251</text><g transform="translate(80 80) scale(64)"><rect x="0" y="0" width="1" height="1" fill="#e2867b" /><rect x="0" y="1" width="1" height="1" fill="#e0837b" /><rect x="0" y="2" width="1" height="1" fill="#db7c76" /><rect x="0" y="3" width="1" height="1" fill="#dc7b75" /><rect x="0" y="4" width="1" height="1" fill="#dd7572" /><rect x="0" y="5" width="1" height="1" fill="#db6e6b" /><rect x="0" y="6" width="1" height="1" fill="#dd6a65" /><rect x="0" y="7" width="1" height="1" fill="#de6962" /><rect x="0" y="8" width="1" height="1" fill="#db6f62" /><rect x="0" y="9" width="1" height="1" fill="#e27669" /><rect x="1" y="0" width="1" height="1" fill="#ea9787" /><rect x="1" y="1" width="1" height="1" fill="#de887b" /><rect x="1" y="2" width="1" height="1" fill="#db8377" /><rect x="1" y="3" width="1" height="1" fill="#df827a" /><rect x="1" y="4" width="1" height="1" fill="#df7c76" /><rect x="1" y="5" width="1" height="1" fill="#dd756c" /><rect x="1" y="6" width="1" height="1" fill="#de6f66" /><rect x="1" y="7" width="1" height="1" fill="#dc6a60" /><rect x="1" y="8" width="1" height="1" fill="#db6f63" /><rect x="1" y="9" width="1" height="1" fill="#e17569" /><rect x="2" y="0" width="1" height="1" fill="#eca48e" /><rect x="2" y="1" width="1" height="1" fill="#df9781" /><rect x="2" y="2" width="1" height="1" fill="#df9280" /><rect x="2" y="3" width="1" height="1" fill="#de8d7c" /><rect x="2" y="4" width="1" height="1" fill="#e08779" /><rect x="2" y="5" width="1" height="1" fill="#e38174" /><rect x="2" y="6" width="1" height="1" fill="#dd7568" /><rect x="2" y="7" width="1" height="1" fill="#de7265" /><rect x="2" y="8" width="1" height="1" fill="#df7067" /><rect x="2" y="9" width="1" height="1" fill="#e3746b" /><rect x="3" y="0" width="1" height="1" fill="#e5a98d" /><rect x="3" y="1" width="1" height="1" fill="#e3a78d" /><rect x="3" y="2" width="1" height="1" fill="#e6a68d" /><rect x="3" y="3" width="1" height="1" fill="#de9783" /><rect x="3" y="4" width="1" height="1" fill="#e0927e" /><rect x="3" y="5" width="1" height="1" fill="#e58e7b" /><rect x="3" y="6" width="1" height="1" fill="#de7f6d" /><rect x="3" y="7" width="1" height="1" fill="#e17f6c" /><rect x="3" y="8" width="1" height="1" fill="#e1766c" /><rect x="3" y="9" width="1" height="1" fill="#e2776d" /><rect x="4" y="0" width="1" height="1" fill="#e9b89a" /><rect x="4" y="1" width="1" height="1" fill="#e2b095" /><rect x="4" y="2" width="1" height="1" fill="#e8b298" /><rect x="4" y="3" width="1" height="1" fill="#e4aa94" /><rect x="4" y="4" width="1" height="1" fill="#e29f8c" /><rect x="4" y="5" width="1" height="1" fill="#e59a85" /><rect x="4" y="6" width="1" height="1" fill="#df8e79" /><rect x="4" y="7" width="1" height="1" fill="#de8974" /><rect x="4" y="8" width="1" height="1" fill="#e07f76" /><rect x="4" y="9" width="1" height="1" fill="#df7e75" /><rect x="5" y="0" width="1" height="1" fill="#f5ccb0" /><rect x="5" y="1" width="1" height="1" fill="#e3b9a0" /><rect x="5" y="2" width="1" height="1" fill="#e6b9a2" /><rect x="5" y="3" width="1" height="1" fill="#edbda7" /><rect x="5" y="4" width="1" height="1" fill="#e7b09c" /><rect x="5" y="5" width="1" height="1" fill="#e3a693" /><rect x="5" y="6" width="1" height="1" fill="#e3a08d" /><rect x="5" y="7" width="1" height="1" fill="#db9480" /><rect x="5" y="8" width="1" height="1" fill="#e08d7f" /><rect x="5" y="9" width="1" height="1" fill="#dc897b" /><rect x="6" y="0" width="1" height="1" fill="#f7d1ba" /><rect x="6" y="1" width="1" height="1" fill="#f5cfba" /><rect x="6" y="2" width="1" height="1" fill="#ebc5b2" /><rect x="6" y="3" width="1" height="1" fill="#eec5b3" /><rect x="6" y="4" width="1" height="1" fill="#eec0b0" /><rect x="6" y="5" width="1" height="1" fill="#e9b6a5" /><rect x="6" y="6" width="1" height="1" fill="#e9b1a0" /><rect x="6" y="7" width="1" height="1" fill="#dea592" /><rect x="6" y="8" width="1" height="1" fill="#e19c8c" /><rect x="6" y="9" width="1" height="1" fill="#dc9787" /><rect x="7" y="0" width="1" height="1" fill="#f0cab7" /><rect x="7" y="1" width="1" height="1" fill="#ffe6d4" /><rect x="7" y="2" width="1" height="1" fill="#f5d0c0" /><rect x="7" y="3" width="1" height="1" fill="#e7c2b2" /><rect x="7" y="4" width="1" height="1" fill="#f3c9bb" /><rect x="7" y="5" width="1" height="1" fill="#efc4b4" /><rect x="7" y="6" width="1" height="1" fill="#ecbdab" /><rect x="7" y="7" width="1" height="1" fill="#e7b4a3" /><rect x="7" y="8" width="1" height="1" fill="#e6a997" /><rect x="7" y="9" width="1" height="1" fill="#dfa290" /><rect x="8" y="0" width="1" height="1" fill="#68223e" /><rect x="8" y="1" width="1" height="1" fill="#dcc1ba" /><rect x="8" y="2" width="1" height="1" fill="#fffee1" /><rect x="8" y="3" width="1" height="1" fill="#fde7cf" /><rect x="8" y="4" width="1" height="1" fill="#f2c8b8" /><rect x="8" y="5" width="1" height="1" fill="#f0cbb9" /><rect x="8" y="6" width="1" height="1" fill="#eac6b6" /><rect x="8" y="7" width="1" height="1" fill="#edc0ba" /><rect x="8" y="8" width="1" height="1" fill="#e8b8ac" /><rect x="8" y="9" width="1" height="1" fill="#e0b0a4" /><rect x="9" y="0" width="1" height="1" fill="#5e0535" /><rect x="9" y="1" width="1" height="1" fill="#4c092a" /><rect x="9" y="2" width="1" height="1" fill="#95686f" /><rect x="9" y="3" width="1" height="1" fill="#d9b5a7" /><rect x="9" y="4" width="1" height="1" fill="#f9d5c5" /><rect x="9" y="5" width="1" height="1" fill="#f3cec6" /><rect x="9" y="6" width="1" height="1" fill="#f1cfc6" /><rect x="9" y="7" width="1" height="1" fill="#efcbbb" /><rect x="9" y="8" width="1" height="1" fill="#edc8b8" /><rect x="9" y="9" width="1" height="1" fill="#e5c0b0" /></g></svg>