<svg width="800" height="1000" version="1.1" xmlns="http://www.w3.org/2000/svg" xmlns:xlink="http://www.w3.org/1999/xlink">
  <defs>
      <linearGradient id="Gradient2" x1="0" x2="1" y1="0" y2="1">
        <stop offset="0%" stop-color="#2d3c96"/>
        <stop offset="100%" stop-color="#d53392"/>
      </linearGradient>
  </defs>
  <rect x="10" y="10" width="780" height="980" fill="url(#Gradient2)" rx="50" ry="50" stroke="#ffd700" stroke-width="20"/>
  <text x="400" y="920" width="780" text-anchor="middle" style="font: bold 200px 'Helvetica Neue'; fill: #ffd700">01253</text>

  <g transform="translate(80 80) scale(64)">
<rect x="0" y="0" width="1" height="1" fill="#BD5E42" /><rect x="1" y="0" width="1" height="1" fill="#F5C49C" /><rect x="2" y="0" width="1" height="1" fill="#F4E1A7" /><rect x="3" y="0" width="1" height="1" fill="#FFDF9D" /><rect x="4" y="0" width="1" height="1" fill="#B46556" /><rect x="5" y="0" width="1" height="1" fill="#821A3D" /><rect x="6" y="0" width="1" height="1" fill="#9D3B52" /><rect x="7" y="0" width="1" height="1" fill="#A74C5D" /><rect x="8" y="0" width="1" height="1" fill="#A34752" /><rect x="9" y="0" width="1" height="1" fill="#9F4257" /><rect x="0" y="1" width="1" height="1" fill="#F1A87D" /><rect x="1" y="1" width="1" height="1" fill="#F9CA9C" /><rect x="2" y="1" width="1" height="1" fill="#FFEDB7" /><rect x="3" y="1" width="1" height="1" fill="#DEA47F" /><rect x="4" y="1" width="1" height="1" fill="#882C2F" /><rect x="5" y="1" width="1" height="1" fill="#9D354C" /><rect x="6" y="1" width="1" height="1" fill="#B45364" /><rect x="7" y="1" width="1" height="1" fill="#A54B4B" /><rect x="8" y="1" width="1" height="1" fill="#973F4B" /><rect x="9" y="1" width="1" height="1" fill="#A95066" /><rect x="0" y="2" width="1" height="1" fill="#FFD79C" /><rect x="1" y="2" width="1" height="1" fill="#FFDDA4" /><rect x="2" y="2" width="1" height="1" fill="#FFC693" /><rect x="3" y="2" width="1" height="1" fill="#B0564E" /><rect x="4" y="2" width="1" height="1" fill="#902634" /><rect x="5" y="2" width="1" height="1" fill="#BC575F" /><rect x="6" y="2" width="1" height="1" fill="#B25260" /><rect x="7" y="2" width="1" height="1" fill="#9C3E3E" /><rect x="8" y="2" width="1" height="1" fill="#A6525F" /><rect x="9" y="2" width="1" height="1" fill="#98435A" /><rect x="0" y="3" width="1" height="1" fill="#E9D598" /><rect x="1" y="3" width="1" height="1" fill="#FFDE9B" /><rect x="2" y="3" width="1" height="1" fill="#D8835A" /><rect x="3" y="3" width="1" height="1" fill="#AF3D45" /><rect x="4" y="3" width="1" height="1" fill="#B84856" /><rect x="5" y="3" width="1" height="1" fill="#AB494A" /><rect x="6" y="3" width="1" height="1" fill="#9C3E4E" /><rect x="7" y="3" width="1" height="1" fill="#A94859" /><rect x="8" y="3" width="1" height="1" fill="#994B59" /><rect x="9" y="3" width="1" height="1" fill="#904059" /><rect x="0" y="4" width="1" height="1" fill="#F0DEA0" /><rect x="1" y="4" width="1" height="1" fill="#FFD290" /><rect x="2" y="4" width="1" height="1" fill="#C76250" /><rect x="3" y="4" width="1" height="1" fill="#AF3649" /><rect x="4" y="4" width="1" height="1" fill="#A53647" /><rect x="5" y="4" width="1" height="1" fill="#963642" /><rect x="6" y="4" width="1" height="1" fill="#9F4254" /><rect x="7" y="4" width="1" height="1" fill="#A34464" /><rect x="8" y="4" width="1" height="1" fill="#914758" /><rect x="9" y="4" width="1" height="1" fill="#914561" /><rect x="0" y="5" width="1" height="1" fill="#FFEDB5" /><rect x="1" y="5" width="1" height="1" fill="#D48F66" /><rect x="2" y="5" width="1" height="1" fill="#962F3A" /><rect x="3" y="5" width="1" height="1" fill="#912441" /><rect x="4" y="5" width="1" height="1" fill="#96344B" /><rect x="5" y="5" width="1" height="1" fill="#9E455B" /><rect x="6" y="5" width="1" height="1" fill="#963F4F" /><rect x="7" y="5" width="1" height="1" fill="#953E5E" /><rect x="8" y="5" width="1" height="1" fill="#964D61" /><rect x="9" y="5" width="1" height="1" fill="#6F2443" /><rect x="0" y="6" width="1" height="1" fill="#EAA98D" /><rect x="1" y="6" width="1" height="1" fill="#802931" /><rect x="2" y="6" width="1" height="1" fill="#680426" /><rect x="3" y="6" width="1" height="1" fill="#8F3750" /><rect x="4" y="6" width="1" height="1" fill="#9E4F62" /><rect x="5" y="6" width="1" height="1" fill="#924154" /><rect x="6" y="6" width="1" height="1" fill="#89384B" /><rect x="7" y="6" width="1" height="1" fill="#A5576F" /><rect x="8" y="6" width="1" height="1" fill="#8C4259" /><rect x="9" y="6" width="1" height="1" fill="#681D3E" /><rect x="0" y="7" width="1" height="1" fill="#822A29" /><rect x="1" y="7" width="1" height="1" fill="#6C0638" /><rect x="2" y="7" width="1" height="1" fill="#8F335C" /><rect x="3" y="7" width="1" height="1" fill="#9D5465" /><rect x="4" y="7" width="1" height="1" fill="#793840" /><rect x="5" y="7" width="1" height="1" fill="#752933" /><rect x="6" y="7" width="1" height="1" fill="#A3536C" /><rect x="7" y="7" width="1" height="1" fill="#A1596F" /><rect x="8" y="7" width="1" height="1" fill="#7A3049" /><rect x="9" y="7" width="1" height="1" fill="#6F2347" /><rect x="0" y="8" width="1" height="1" fill="#912F46" /><rect x="1" y="8" width="1" height="1" fill="#8D3E51" /><rect x="2" y="8" width="1" height="1" fill="#975062" /><rect x="3" y="8" width="1" height="1" fill="#823348" /><rect x="4" y="8" width="1" height="1" fill="#701E35" /><rect x="5" y="8" width="1" height="1" fill="#9A5266" /><rect x="6" y="8" width="1" height="1" fill="#B26E83" /><rect x="7" y="8" width="1" height="1" fill="#8B435B" /><rect x="8" y="8" width="1" height="1" fill="#671D3E" /><rect x="9" y="8" width="1" height="1" fill="#5F183A" /><rect x="0" y="9" width="1" height="1" fill="#A34253" /><rect x="1" y="9" width="1" height="1" fill="#904156" /><rect x="2" y="9" width="1" height="1" fill="#813853" /><rect x="3" y="9" width="1" height="1" fill="#7C2C47" /><rect x="4" y="9" width="1" height="1" fill="#A35263" /><rect x="5" y="9" width="1" height="1" fill="#B9737E" /><rect x="6" y="9" width="1" height="1" fill="#884557" /><rect x="7" y="9" width="1" height="1" fill="#5E1533" /><rect x="8" y="9" width="1" height="1" fill="#60193B" /><rect x="9" y="9" width="1" height="1" fill="#8E3345" />
  </g>
</svg>