<svg width="800" height="1000" version="1.1" xmlns="http://www.w3.org/2000/svg" xmlns:xlink="http://www.w3.org/1999/xlink">
  <defs>
      <linearGradient id="Gradient2" x1="0" x2="1" y1="0" y2="1">
        <stop offset="0%" stop-color="#2d3c96"/>
        <stop offset="100%" stop-color="#d53392"/>
      </linearGradient>
  </defs>
  <rect x="10" y="10" width="780" height="980" fill="url(#Gradient2)" rx="50" ry="50" stroke="#ffd700" stroke-width="20"/>
  <text x="400" y="920" width="780" text-anchor="middle" style="font: bold 200px 'Helvetica Neue'; fill: #ffd700">01251</text>

  <g transform="translate(80 80) scale(64)">
<rect x="0" y="0" width="1" height="1" fill="#E2867B" /><rect x="1" y="0" width="1" height="1" fill="#EA9787" /><rect x="2" y="0" width="1" height="1" fill="#ECA48E" /><rect x="3" y="0" width="1" height="1" fill="#E5A98D" /><rect x="4" y="0" width="1" height="1" fill="#E9B89A" /><rect x="5" y="0" width="1" height="1" fill="#F5CCB0" /><rect x="6" y="0" width="1" height="1" fill="#F7D1BA" /><rect x="7" y="0" width="1" height="1" fill="#F0CAB7" /><rect x="8" y="0" width="1" height="1" fill="#68223E" /><rect x="9" y="0" width="1" height="1" fill="#5E0535" /><rect x="0" y="1" width="1" height="1" fill="#E0837B" /><rect x="1" y="1" width="1" height="1" fill="#DE887B" /><rect x="2" y="1" width="1" height="1" fill="#DF9781" /><rect x="3" y="1" width="1" height="1" fill="#E3A78D" /><rect x="4" y="1" width="1" height="1" fill="#E2B095" /><rect x="5" y="1" width="1" height="1" fill="#E3B9A0" /><rect x="6" y="1" width="1" height="1" fill="#F5CFBA" /><rect x="7" y="1" width="1" height="1" fill="#FFE6D4" /><rect x="8" y="1" width="1" height="1" fill="#DCC1BA" /><rect x="9" y="1" width="1" height="1" fill="#4C092A" /><rect x="0" y="2" width="1" height="1" fill="#DB7C76" /><rect x="1" y="2" width="1" height="1" fill="#DB8377" /><rect x="2" y="2" width="1" height="1" fill="#DF9280" /><rect x="3" y="2" width="1" height="1" fill="#E6A68D" /><rect x="4" y="2" width="1" height="1" fill="#E8B298" /><rect x="5" y="2" width="1" height="1" fill="#E6B9A2" /><rect x="6" y="2" width="1" height="1" fill="#EBC5B2" /><rect x="7" y="2" width="1" height="1" fill="#F5D0C0" /><rect x="8" y="2" width="1" height="1" fill="#FFFEE1" /><rect x="9" y="2" width="1" height="1" fill="#95686F" /><rect x="0" y="3" width="1" height="1" fill="#DC7B75" /><rect x="1" y="3" width="1" height="1" fill="#DF827A" /><rect x="2" y="3" width="1" height="1" fill="#DE8D7C" /><rect x="3" y="3" width="1" height="1" fill="#DE9783" /><rect x="4" y="3" width="1" height="1" fill="#E4AA94" /><rect x="5" y="3" width="1" height="1" fill="#EDBDA7" /><rect x="6" y="3" width="1" height="1" fill="#EEC5B3" /><rect x="7" y="3" width="1" height="1" fill="#E7C2B2" /><rect x="8" y="3" width="1" height="1" fill="#FDE7CF" /><rect x="9" y="3" width="1" height="1" fill="#D9B5A7" /><rect x="0" y="4" width="1" height="1" fill="#DD7572" /><rect x="1" y="4" width="1" height="1" fill="#DF7C76" /><rect x="2" y="4" width="1" height="1" fill="#E08779" /><rect x="3" y="4" width="1" height="1" fill="#E0927E" /><rect x="4" y="4" width="1" height="1" fill="#E29F8C" /><rect x="5" y="4" width="1" height="1" fill="#E7B09C" /><rect x="6" y="4" width="1" height="1" fill="#EEC0B0" /><rect x="7" y="4" width="1" height="1" fill="#F3C9BB" /><rect x="8" y="4" width="1" height="1" fill="#F2C8B8" /><rect x="9" y="4" width="1" height="1" fill="#F9D5C5" /><rect x="0" y="5" width="1" height="1" fill="#DB6E6B" /><rect x="1" y="5" width="1" height="1" fill="#DD756C" /><rect x="2" y="5" width="1" height="1" fill="#E38174" /><rect x="3" y="5" width="1" height="1" fill="#E58E7B" /><rect x="4" y="5" width="1" height="1" fill="#E59A85" /><rect x="5" y="5" width="1" height="1" fill="#E3A693" /><rect x="6" y="5" width="1" height="1" fill="#E9B6A5" /><rect x="7" y="5" width="1" height="1" fill="#EFC4B4" /><rect x="8" y="5" width="1" height="1" fill="#F0CBB9" /><rect x="9" y="5" width="1" height="1" fill="#F3CEC6" /><rect x="0" y="6" width="1" height="1" fill="#DD6A65" /><rect x="1" y="6" width="1" height="1" fill="#DE6F66" /><rect x="2" y="6" width="1" height="1" fill="#DD7568" /><rect x="3" y="6" width="1" height="1" fill="#DE7F6D" /><rect x="4" y="6" width="1" height="1" fill="#DF8E79" /><rect x="5" y="6" width="1" height="1" fill="#E3A08D" /><rect x="6" y="6" width="1" height="1" fill="#E9B1A0" /><rect x="7" y="6" width="1" height="1" fill="#ECBDAB" /><rect x="8" y="6" width="1" height="1" fill="#EAC6B6" /><rect x="9" y="6" width="1" height="1" fill="#F1CFC6" /><rect x="0" y="7" width="1" height="1" fill="#DE6962" /><rect x="1" y="7" width="1" height="1" fill="#DC6A60" /><rect x="2" y="7" width="1" height="1" fill="#DE7265" /><rect x="3" y="7" width="1" height="1" fill="#E17F6C" /><rect x="4" y="7" width="1" height="1" fill="#DE8974" /><rect x="5" y="7" width="1" height="1" fill="#DB9480" /><rect x="6" y="7" width="1" height="1" fill="#DEA592" /><rect x="7" y="7" width="1" height="1" fill="#E7B4A3" /><rect x="8" y="7" width="1" height="1" fill="#EDC0BA" /><rect x="9" y="7" width="1" height="1" fill="#EFCBBB" /><rect x="0" y="8" width="1" height="1" fill="#DB6F62" /><rect x="1" y="8" width="1" height="1" fill="#DB6F63" /><rect x="2" y="8" width="1" height="1" fill="#DF7067" /><rect x="3" y="8" width="1" height="1" fill="#E1766C" /><rect x="4" y="8" width="1" height="1" fill="#E07F76" /><rect x="5" y="8" width="1" height="1" fill="#E08D7F" /><rect x="6" y="8" width="1" height="1" fill="#E19C8C" /><rect x="7" y="8" width="1" height="1" fill="#E6A997" /><rect x="8" y="8" width="1" height="1" fill="#E8B8AC" /><rect x="9" y="8" width="1" height="1" fill="#EDC8B8" /><rect x="0" y="9" width="1" height="1" fill="#E27669" /><rect x="1" y="9" width="1" height="1" fill="#E17569" /><rect x="2" y="9" width="1" height="1" fill="#E3746B" /><rect x="3" y="9" width="1" height="1" fill="#E2776D" /><rect x="4" y="9" width="1" height="1" fill="#DF7E75" /><rect x="5" y="9" width="1" height="1" fill="#DC897B" /><rect x="6" y="9" width="1" height="1" fill="#DC9787" /><rect x="7" y="9" width="1" height="1" fill="#DFA290" /><rect x="8" y="9" width="1" height="1" fill="#E0B0A4" /><rect x="9" y="9" width="1" height="1" fill="#E5C0B0" />
  </g>
</svg>