<svg width="800" height="1000" xmlns="http://www.w3.org/2000/svg"><defs><linearGradient id="g" x1="0" x2="1" y1="0" y2="1"><stop offset="0%" stop-color="#2d3c96"/><stop offset="100%" stop-color="#d53392"/></linearGradient></defs><rect x="10" y="10" width="780" height="980" fill="url(#g)" rx="50" ry="50" stroke="gold" stroke-width="20"/><text x="400" y="920" width="780" text-anchor="middle" style="font:bold 200px 'Helvetica Neue';fill:gold">01275</text><g transform="translate(80 80) scale(64)"><rect x="0" y="0" width="1" height="1" fill="#362849" /><rect x="0" y="1" width="1" height="1" fill="#382a4b" /><rect x="0" y="2" width="1" height="1" fill="#382a4c" /><rect x="0" y="3" width="1" height="1" fill="#35284b" /><rect x="0" y="4" width="1" height="1" fill="#35284d" /><rect x="0" y="5" width="1" height="1" fill="#372b52" /><rect x="0" y="6" width="1" height="1" fill="#281c43" /><rect x="0" y="7" width="1" height="1" fill="#372b53" /><rect x="0" y="8" width="1" height="1" fill="#21153d" /><rect x="0" y="9" width="1" height="1" fill="#21153d" /><rect x="1" y="0" width="1" height="1" fill="#3d2f50" /><rect x="1" y="1" width="1" height="1" fill="#382a4b" /><rect x="1" y="2" width="1" height="1" fill="#2f2143" /><rect x="1" y="3" width="1" height="1" fill="#3e3154" /><rect x="1" y="4" width="1" height="1" fill="#3c2f54" /><rect x="1" y="5" width="1" height="1" fill="#34284e" /><rect x="1" y="6" width="1" height="1" fill="#32264d" /><rect x="1" y="7" width="1" height="1" fill="#362a51" /><rect x="1" y="8" width="1" height="1" fill="#22163d" /><rect x="1" y="9" width="1" height="1" fill="#24183f" /><rect x="2" y="0" width="1" height="1" fill="#443657" /><rect x="2" y="1" width="1" height="1" fill="#47395a" /><rect x="2" y="2" width="1" height="1" fill="#3d2f51" /><rect x="2" y="3" width="1" height="1" fill="#403356" /><rect x="2" y="4" width="1" height="1" fill="#382b4f" /><rect x="2" y="5" width="1" height="1" fill="#382b50" /><rect x="2" y="6" width="1" height="1" fill="#3d3157" /><rect x="2" y="7" width="1" height="1" fill="#3c3057" /><rect x="2" y="8" width="1" height="1" fill="#23173e" /><rect x="2" y="9" width="1" height="1" fill="#24183f" /><rect x="3" y="0" width="1" height="1" fill="#47395a" /><rect x="3" y="1" width="1" height="1" fill="#3d2f51" /><rect x="3" y="2" width="1" height="1" fill="#382a4d" /><rect x="3" y="3" width="1" height="1" fill="#413356" /><rect x="3" y="4" width="1" height="1" fill="#46385c" /><rect x="3" y="5" width="1" height="1" fill="#493c61" /><rect x="3" y="6" width="1" height="1" fill="#392c52" /><rect x="3" y="7" width="1" height="1" fill="#372b51" /><rect x="3" y="8" width="1" height="1" fill="#271b41" /><rect x="3" y="9" width="1" height="1" fill="#261a40" /><rect x="4" y="0" width="1" height="1" fill="#554769" /><rect x="4" y="1" width="1" height="1" fill="#4b3d60" /><rect x="4" y="2" width="1" height="1" fill="#483a5d" /><rect x="4" y="3" width="1" height="1" fill="#4c3e62" /><rect x="4" y="4" width="1" height="1" fill="#493b5f" /><rect x="4" y="5" width="1" height="1" fill="#53466b" /><rect x="4" y="6" width="1" height="1" fill="#493b62" /><rect x="4" y="7" width="1" height="1" fill="#3a2d53" /><rect x="4" y="8" width="1" height="1" fill="#2b1f45" /><rect x="4" y="9" width="1" height="1" fill="#291d43" /><rect x="5" y="0" width="1" height="1" fill="#524468" /><rect x="5" y="1" width="1" height="1" fill="#493b5f" /><rect x="5" y="2" width="1" height="1" fill="#4c3e63" /><rect x="5" y="3" width="1" height="1" fill="#68597f" /><rect x="5" y="4" width="1" height="1" fill="#53446a" /><rect x="5" y="5" width="1" height="1" fill="#46375e" /><rect x="5" y="6" width="1" height="1" fill="#504168" /><rect x="5" y="7" width="1" height="1" fill="#3f3159" /><rect x="5" y="8" width="1" height="1" fill="#2d2047" /><rect x="5" y="9" width="1" height="1" fill="#2b1e45" /><rect x="6" y="0" width="1" height="1" fill="#4e3f67" /><rect x="6" y="1" width="1" height="1" fill="#51426a" /><rect x="6" y="2" width="1" height="1" fill="#4c3d65" /><rect x="6" y="3" width="1" height="1" fill="#5f5078" /><rect x="6" y="4" width="1" height="1" fill="#56476f" /><rect x="6" y="5" width="1" height="1" fill="#574870" /><rect x="6" y="6" width="1" height="1" fill="#61527a" /><rect x="6" y="7" width="1" height="1" fill="#473961" /><rect x="6" y="8" width="1" height="1" fill="#30224a" /><rect x="6" y="9" width="1" height="1" fill="#2d1f47" /><rect x="7" y="0" width="1" height="1" fill="#493965" /><rect x="7" y="1" width="1" height="1" fill="#5c4c78" /><rect x="7" y="2" width="1" height="1" fill="#574773" /><rect x="7" y="3" width="1" height="1" fill="#53436f" /><rect x="7" y="4" width="1" height="1" fill="#51416c" /><rect x="7" y="5" width="1" height="1" fill="#584973" /><rect x="7" y="6" width="1" height="1" fill="#4e3f69" /><rect x="7" y="7" width="1" height="1" fill="#43345e" /><rect x="7" y="8" width="1" height="1" fill="#372852" /><rect x="7" y="9" width="1" height="1" fill="#33244e" /><rect x="8" y="0" width="1" height="1" fill="#4e3c6c" /><rect x="8" y="1" width="1" height="1" fill="#5b4979" /><rect x="8" y="2" width="1" height="1" fill="#564474" /><rect x="8" y="3" width="1" height="1" fill="#564474" /><rect x="8" y="4" width="1" height="1" fill="#584775" /><rect x="8" y="5" width="1" height="1" fill="#594977" /><rect x="8" y="6" width="1" height="1" fill="#5b4b78" /><rect x="8" y="7" width="1" height="1" fill="#453561" /><rect x="8" y="8" width="1" height="1" fill="#362653" /><rect x="8" y="9" width="1" height="1" fill="#352551" /><rect x="9" y="0" width="1" height="1" fill="#4b396b" /><rect x="9" y="1" width="1" height="1" fill="#544274" /><rect x="9" y="2" width="1" height="1" fill="#513f71" /><rect x="9" y="3" width="1" height="1" fill="#584678" /><rect x="9" y="4" width="1" height="1" fill="#5a4879" /><rect x="9" y="5" width="1" height="1" fill="#574575" /><rect x="9" y="6" width="1" height="1" fill="#584876" /><rect x="9" y="7" width="1" height="1" fill="#473764" /><rect x="9" y="8" width="1" height="1" fill="#3a2a57" /><rect x="9" y="9" width="1" height="1" fill="#392956" /></g></svg>