<svg width="800" height="1000" xmlns="http://www.w3.org/2000/svg"><defs><linearGradient id="g" x1="0" x2="1" y1="0" y2="1"><stop offset="0%" stop-color="#2d3c96"/><stop offset="100%" stop-color="#d53392"/></linearGradient></defs><rect x="10" y="10" width="780" height="980" fill="url(#g)" rx="50" ry="50" stroke="gold" stroke-width="20"/><text x="400" y="920" width="780" text-anchor="middle" style="font:bold 200px 'Helvetica Neue';fill:gold">01277</text><g transform="translate(80 80) scale(64)"><rect x="0" y="0" width="1" height="1" fill="#ae7bd7" /><rect x="0" y="1" width="1" height="1" fill="#8f5dad" /><rect x="0" y="2" width="1" height="1" fill="#9c6ca7" /><rect x="0" y="3" width="1" height="1" fill="#775379" /><rect x="0" y="4" width="1" height="1" fill="#6e5f72" /><rect x="0" y="5" width="1" height="1" fill="#cbd0d6" /><rect x="0" y="6" width="1" height="1" fill="#708587" /><rect x="0" y="7" width="1" height="1" fill="#4a5e66" /><rect x="0" y="8" width="1" height="1" fill="#5a5a73" /><rect x="0" y="9" width="1" height="1" fill="#3f3557" /><rect x="1" y="0" width="1" height="1" fill="#9a6bd0" /><rect x="1" y="1" width="1" height="1" fill="#a375cf" /><rect x="1" y="2" width="1" height="1" fill="#a77bc0" /><rect x="1" y="3" width="1" height="1" fill="#9979a8" /><rect x="1" y="4" width="1" height="1" fill="#675e75" /><rect x="1" y="5" width="1" height="1" fill="#acb6c0" /><rect x="1" y="6" width="1" height="1" fill="#8ba3ab" /><rect x="1" y="7" width="1" height="1" fill="#394e5b" /><rect x="1" y="8" width="1" height="1" fill="#2d2d49" /><rect x="1" y="9" width="1" height="1" fill="#857a9d" /><rect x="2" y="0" width="1" height="1" fill="#a57ef6" /><rect x="2" y="1" width="1" height="1" fill="#ab85f3" /><rect x="2" y="2" width="1" height="1" fill="#a17dd8" /><rect x="2" y="3" width="1" height="1" fill="#a089ca" /><rect x="2" y="4" width="1" height="1" fill="#7c7e9e" /><rect x="2" y="5" width="1" height="1" fill="#90a3b3" /><rect x="2" y="6" width="1" height="1" fill="#678597" /><rect x="2" y="7" width="1" height="1" fill="#2b415a" /><rect x="2" y="8" width="1" height="1" fill="#2d2a4e" /><rect x="2" y="9" width="1" height="1" fill="#64557e" /><rect x="3" y="0" width="1" height="1" fill="#ab87ff" /><rect x="3" y="1" width="1" height="1" fill="#b08aff" /><rect x="3" y="2" width="1" height="1" fill="#b28bef" /><rect x="3" y="3" width="1" height="1" fill="#a387d0" /><rect x="3" y="4" width="1" height="1" fill="#9f9bbe" /><rect x="3" y="5" width="1" height="1" fill="#93a0b3" /><rect x="3" y="6" width="1" height="1" fill="#2f4660" /><rect x="3" y="7" width="1" height="1" fill="#91a1c3" /><rect x="3" y="8" width="1" height="1" fill="#443e6a" /><rect x="3" y="9" width="1" height="1" fill="#241242" /><rect x="4" y="0" width="1" height="1" fill="#b890ff" /><rect x="4" y="1" width="1" height="1" fill="#c69aff" /><rect x="4" y="2" width="1" height="1" fill="#c38ff0" /><rect x="4" y="3" width="1" height="1" fill="#c496dd" /><rect x="4" y="4" width="1" height="1" fill="#c1a9c9" /><rect x="4" y="5" width="1" height="1" fill="#726b7d" /><rect x="4" y="6" width="1" height="1" fill="#414665" /><rect x="4" y="7" width="1" height="1" fill="#6d709a" /><rect x="4" y="8" width="1" height="1" fill="#352a5d" /><rect x="4" y="9" width="1" height="1" fill="#24124a" /><rect x="5" y="0" width="1" height="1" fill="#af85f3" /><rect x="5" y="1" width="1" height="1" fill="#b484eb" /><rect x="5" y="2" width="1" height="1" fill="#c589e2" /><rect x="5" y="3" width="1" height="1" fill="#bd85c3" /><rect x="5" y="4" width="1" height="1" fill="#c29fb6" /><rect x="5" y="5" width="1" height="1" fill="#7a6670" /><rect x="5" y="6" width="1" height="1" fill="#382f45" /><rect x="5" y="7" width="1" height="1" fill="#3b3355" /><rect x="5" y="8" width="1" height="1" fill="#281542" /><rect x="5" y="9" width="1" height="1" fill="#856d9f" /><rect x="6" y="0" width="1" height="1" fill="#b58af4" /><rect x="6" y="1" width="1" height="1" fill="#b584e4" /><rect x="6" y="2" width="1" height="1" fill="#b97bc7" /><rect x="6" y="3" width="1" height="1" fill="#f3b8e7" /><rect x="6" y="4" width="1" height="1" fill="#d4acb6" /><rect x="6" y="5" width="1" height="1" fill="#9c827c" /><rect x="6" y="6" width="1" height="1" fill="#433232" /><rect x="6" y="7" width="1" height="1" fill="#3e2b35" /><rect x="6" y="8" width="1" height="1" fill="#6b4c64" /><rect x="6" y="9" width="1" height="1" fill="#a681a0" /><rect x="7" y="0" width="1" height="1" fill="#a16ed2" /><rect x="7" y="1" width="1" height="1" fill="#af75cb" /><rect x="7" y="2" width="1" height="1" fill="#ffb9f5" /><rect x="7" y="3" width="1" height="1" fill="#8a4363" /><rect x="7" y="4" width="1" height="1" fill="#7d484a" /><rect x="7" y="5" width="1" height="1" fill="#e6bfb1" /><rect x="7" y="6" width="1" height="1" fill="#563a2c" /><rect x="7" y="7" width="1" height="1" fill="#543733" /><rect x="7" y="8" width="1" height="1" fill="#946b7c" /><rect x="7" y="9" width="1" height="1" fill="#794b66" /><rect x="8" y="0" width="1" height="1" fill="#a462bc" /><rect x="8" y="1" width="1" height="1" fill="#d88dd7" /><rect x="8" y="2" width="1" height="1" fill="#852a55" /><rect x="8" y="3" width="1" height="1" fill="#781e2f" /><rect x="8" y="4" width="1" height="1" fill="#5d1412" /><rect x="8" y="5" width="1" height="1" fill="#c68c7e" /><rect x="8" y="6" width="1" height="1" fill="#d6aa96" /><rect x="8" y="7" width="1" height="1" fill="#b58d85" /><rect x="8" y="8" width="1" height="1" fill="#895971" /><rect x="8" y="9" width="1" height="1" fill="#b985ad" /><rect x="9" y="0" width="1" height="1" fill="#b86ec3" /><rect x="9" y="1" width="1" height="1" fill="#9a488b" /><rect x="9" y="2" width="1" height="1" fill="#751133" /><rect x="9" y="3" width="1" height="1" fill="#6f0b15" /><rect x="9" y="4" width="1" height="1" fill="#65130f" /><rect x="9" y="5" width="1" height="1" fill="#5d1b0c" /><rect x="9" y="6" width="1" height="1" fill="#88553e" /><rect x="9" y="7" width="1" height="1" fill="#73443b" /><rect x="9" y="8" width="1" height="1" fill="#a7728e" /><rect x="9" y="9" width="1" height="1" fill="#c28ab9" /></g></svg>