<svg width="800" height="1000" xmlns="http://www.w3.org/2000/svg"><defs><linearGradient id="g" x1="0" x2="1" y1="0" y2="1"><stop offset="0%" stop-color="#2d3c96"/><stop offset="100%" stop-color="#d53392"/></linearGradient></defs><rect x="10" y="10" width="780" height="980" fill="url(#g)" rx="50" ry="50" stroke="gold" stroke-width="20"/><text x="400" y="920" width="780" text-anchor="middle" style="font:bold 200px 'Helvetica Neue';fill:gold">01282</text><g transform="translate(80 80) scale(64)"><rect x="0" y="0" width="1" height="1" fill="#7d4ec0" /><rect x="0" y="1" width="1" height="1" fill="#7b4cbf" /><rect x="0" y="2" width="1" height="1" fill="#8352c7" /><rect x="0" y="3" width="1" height="1" fill="#7a49b7" /><rect x="0" y="4" width="1" height="1" fill="#7f4fac" /><rect x="0" y="5" width="1" height="1" fill="#714286" /><rect x="0" y="6" width="1" height="1" fill="#714365" /><rect x="0" y="7" width="1" height="1" fill="#efc3c9" /><rect x="0" y="8" width="1" height="1" fill="#d2a899" /><rect x="0" y="9" width="1" height="1" fill="#e5bba1" /><rect x="1" y="0" width="1" height="1" fill="#6b3eaa" /><rect x="1" y="1" width="1" height="1" fill="#7345b2" /><rect x="1" y="2" width="1" height="1" fill="#8657c8" /><rect x="1" y="3" width="1" height="1" fill="#7746b1" /><rect x="1" y="4" width="1" height="1" fill="#7d4da7" /><rect x="1" y="5" width="1" height="1" fill="#774789" /><rect x="1" y="6" width="1" height="1" fill="#754868" /><rect x="1" y="7" width="1" height="1" fill="#d9acb0" /><rect x="1" y="8" width="1" height="1" fill="#d8ad9b" /><rect x="1" y="9" width="1" height="1" fill="#fad0b2" /><rect x="2" y="0" width="1" height="1" fill="#673d9c" /><rect x="2" y="1" width="1" height="1" fill="#6e43a5" /><rect x="2" y="2" width="1" height="1" fill="#8355bd" /><rect x="2" y="3" width="1" height="1" fill="#7747aa" /><rect x="2" y="4" width="1" height="1" fill="#7f4fa4" /><rect x="2" y="5" width="1" height="1" fill="#6d3e7b" /><rect x="2" y="6" width="1" height="1" fill="#6e405c" /><rect x="2" y="7" width="1" height="1" fill="#e5b8b7" /><rect x="2" y="8" width="1" height="1" fill="#e5b89f" /><rect x="2" y="9" width="1" height="1" fill="#fbcfaa" /><rect x="3" y="0" width="1" height="1" fill="#6c449a" /><rect x="3" y="1" width="1" height="1" fill="#694098" /><rect x="3" y="2" width="1" height="1" fill="#7c50af" /><rect x="3" y="3" width="1" height="1" fill="#8253b0" /><rect x="3" y="4" width="1" height="1" fill="#79499b" /><rect x="3" y="5" width="1" height="1" fill="#643470" /><rect x="3" y="6" width="1" height="1" fill="#61324d" /><rect x="3" y="7" width="1" height="1" fill="#dcadac" /><rect x="3" y="8" width="1" height="1" fill="#f4c6ac" /><rect x="3" y="9" width="1" height="1" fill="#f1c39c" /><rect x="4" y="0" width="1" height="1" fill="#7c57a4" /><rect x="4" y="1" width="1" height="1" fill="#6a4394" /><rect x="4" y="2" width="1" height="1" fill="#774ca4" /><rect x="4" y="3" width="1" height="1" fill="#8254ac" /><rect x="4" y="4" width="1" height="1" fill="#6a3989" /><rect x="4" y="5" width="1" height="1" fill="#683672" /><rect x="4" y="6" width="1" height="1" fill="#633250" /><rect x="4" y="7" width="1" height="1" fill="#ca999c" /><rect x="4" y="8" width="1" height="1" fill="#fbcbb4" /><rect x="4" y="9" width="1" height="1" fill="#d0a17d" /><rect x="5" y="0" width="1" height="1" fill="#6a468e" /><rect x="5" y="1" width="1" height="1" fill="#69438f" /><rect x="5" y="2" width="1" height="1" fill="#73499d" /><rect x="5" y="3" width="1" height="1" fill="#7c4da3" /><rect x="5" y="4" width="1" height="1" fill="#703e8d" /><rect x="5" y="5" width="1" height="1" fill="#683473" /><rect x="5" y="6" width="1" height="1" fill="#5c284d" /><rect x="5" y="7" width="1" height="1" fill="#d39fab" /><rect x="5" y="8" width="1" height="1" fill="#e4b2a6" /><rect x="5" y="9" width="1" height="1" fill="#dfad95" /><rect x="6" y="0" width="1" height="1" fill="#57327a" /><rect x="6" y="1" width="1" height="1" fill="#643c89" /><rect x="6" y="2" width="1" height="1" fill="#72469a" /><rect x="6" y="3" width="1" height="1" fill="#6a3a8f" /><rect x="6" y="4" width="1" height="1" fill="#774394" /><rect x="6" y="5" width="1" height="1" fill="#6a3477" /><rect x="6" y="6" width="1" height="1" fill="#65305d" /><rect x="6" y="7" width="1" height="1" fill="#dfaac3" /><rect x="6" y="8" width="1" height="1" fill="#cf9ba0" /><rect x="6" y="9" width="1" height="1" fill="#f3bfbb" /><rect x="7" y="0" width="1" height="1" fill="#59327c" /><rect x="7" y="1" width="1" height="1" fill="#623985" /><rect x="7" y="2" width="1" height="1" fill="#8659ac" /><rect x="7" y="3" width="1" height="1" fill="#6e3d90" /><rect x="7" y="4" width="1" height="1" fill="#824d9c" /><rect x="7" y="5" width="1" height="1" fill="#864f93" /><rect x="7" y="6" width="1" height="1" fill="#864e83" /><rect x="7" y="7" width="1" height="1" fill="#c891b7" /><rect x="7" y="8" width="1" height="1" fill="#b57f97" /><rect x="7" y="9" width="1" height="1" fill="#855061" /><rect x="8" y="0" width="1" height="1" fill="#5e3781" /><rect x="8" y="1" width="1" height="1" fill="#704692" /><rect x="8" y="2" width="1" height="1" fill="#7f51a0" /><rect x="8" y="3" width="1" height="1" fill="#6e3c8b" /><rect x="8" y="4" width="1" height="1" fill="#7d4792" /><rect x="8" y="5" width="1" height="1" fill="#693275" /><rect x="8" y="6" width="1" height="1" fill="#68306a" /><rect x="8" y="7" width="1" height="1" fill="#9e6798" /><rect x="8" y="8" width="1" height="1" fill="#612b55" /><rect x="8" y="9" width="1" height="1" fill="#8f5b81" /><rect x="9" y="0" width="1" height="1" fill="#552c78" /><rect x="9" y="1" width="1" height="1" fill="#633985" /><rect x="9" y="2" width="1" height="1" fill="#784997" /><rect x="9" y="3" width="1" height="1" fill="#65327f" /><rect x="9" y="4" width="1" height="1" fill="#7e4991" /><rect x="9" y="5" width="1" height="1" fill="#885194" /><rect x="9" y="6" width="1" height="1" fill="#6f3673" /><rect x="9" y="7" width="1" height="1" fill="#5a2259" /><rect x="9" y="8" width="1" height="1" fill="#6d376b" /><rect x="9" y="9" width="1" height="1" fill="#4d194a" /></g></svg>