<svg width="800" height="1000" xmlns="http://www.w3.org/2000/svg"><defs><linearGradient id="g" x1="0" x2="1" y1="0" y2="1"><stop offset="0%" stop-color="#2d3c96"/><stop offset="100%" stop-color="#d53392"/></linearGradient></defs><rect x="10" y="10" width="780" height="980" fill="url(#g)" rx="50" ry="50" stroke="gold" stroke-width="20"/><text x="400" y="920" width="780" text-anchor="middle" style="font:bold 200px 'Helvetica Neue';fill:gold">01280</text><g transform="translate(80 80) scale(64)"><rect x="0" y="0" width="1" height="1" fill="#040e91" /><rect x="0" y="1" width="1" height="1" fill="#1a20a7" /><rect x="0" y="2" width="1" height="1" fill="#1e1ba9" /><rect x="0" y="3" width="1" height="1" fill="#1c13a3" /><rect x="0" y="4" width="1" height="1" fill="#21149f" /><rect x="0" y="5" width="1" height="1" fill="#201595" /><rect x="0" y="6" width="1" height="1" fill="#0f0a79" /><rect x="0" y="7" width="1" height="1" fill="#151474" /><rect x="0" y="8" width="1" height="1" fill="#101267" /><rect x="0" y="9" width="1" height="1" fill="#1d206f" /><rect x="1" y="0" width="1" height="1" fill="#1a189d" /><rect x="1" y="1" width="1" height="1" fill="#1a149c" /><rect x="1" y="2" width="1" height="1" fill="#1c0d9d" /><rect x="1" y="3" width="1" height="1" fill="#230e9f" /><rect x="1" y="4" width="1" height="1" fill="#270f9b" /><rect x="1" y="5" width="1" height="1" fill="#261090" /><rect x="1" y="6" width="1" height="1" fill="#1c0c7d" /><rect x="1" y="7" width="1" height="1" fill="#1b0f72" /><rect x="1" y="8" width="1" height="1" fill="#261f76" /><rect x="1" y="9" width="1" height="1" fill="#0f095b" /><rect x="2" y="0" width="1" height="1" fill="#462bb6" /><rect x="2" y="1" width="1" height="1" fill="#2c0e9b" /><rect x="2" y="2" width="1" height="1" fill="#3913a5" /><rect x="2" y="3" width="1" height="1" fill="#4f23b6" /><rect x="2" y="4" width="1" height="1" fill="#4517a4" /><rect x="2" y="5" width="1" height="1" fill="#3f1395" /><rect x="2" y="6" width="1" height="1" fill="#3c1789" /><rect x="2" y="7" width="1" height="1" fill="#2c0d72" /><rect x="2" y="8" width="1" height="1" fill="#2b116d" /><rect x="2" y="9" width="1" height="1" fill="#230b63" /><rect x="3" y="0" width="1" height="1" fill="#582bb9" /><rect x="3" y="1" width="1" height="1" fill="#5120af" /><rect x="3" y="2" width="1" height="1" fill="#5219ac" /><rect x="3" y="3" width="1" height="1" fill="#4d10a2" /><rect x="3" y="4" width="1" height="1" fill="#4f109c" /><rect x="3" y="5" width="1" height="1" fill="#490d8e" /><rect x="3" y="6" width="1" height="1" fill="#410c7f" /><rect x="3" y="7" width="1" height="1" fill="#3b0e74" /><rect x="3" y="8" width="1" height="1" fill="#38106f" /><rect x="3" y="9" width="1" height="1" fill="#35106a" /><rect x="4" y="0" width="1" height="1" fill="#783fcc" /><rect x="4" y="1" width="1" height="1" fill="#5216a4" /><rect x="4" y="2" width="1" height="1" fill="#6420b1" /><rect x="4" y="3" width="1" height="1" fill="#671fae" /><rect x="4" y="4" width="1" height="1" fill="#5b119a" /><rect x="4" y="5" width="1" height="1" fill="#4c0585" /><rect x="4" y="6" width="1" height="1" fill="#460779" /><rect x="4" y="7" width="1" height="1" fill="#400970" /><rect x="4" y="8" width="1" height="1" fill="#451471" /><rect x="4" y="9" width="1" height="1" fill="#2e005a" /><rect x="5" y="0" width="1" height="1" fill="#8e51dc" /><rect x="5" y="1" width="1" height="1" fill="#50109c" /><rect x="5" y="2" width="1" height="1" fill="#641baa" /><rect x="5" y="3" width="1" height="1" fill="#681ba8" /><rect x="5" y="4" width="1" height="1" fill="#6517a0" /><rect x="5" y="5" width="1" height="1" fill="#530888" /><rect x="5" y="6" width="1" height="1" fill="#420072" /><rect x="5" y="7" width="1" height="1" fill="#44076f" /><rect x="5" y="8" width="1" height="1" fill="#430d6a" /><rect x="5" y="9" width="1" height="1" fill="#77449b" /><rect x="6" y="0" width="1" height="1" fill="#a268f1" /><rect x="6" y="1" width="1" height="1" fill="#4e109a" /><rect x="6" y="2" width="1" height="1" fill="#6c26b3" /><rect x="6" y="3" width="1" height="1" fill="#681caa" /><rect x="6" y="4" width="1" height="1" fill="#60129f" /><rect x="6" y="5" width="1" height="1" fill="#671ba0" /><rect x="6" y="6" width="1" height="1" fill="#551188" /><rect x="6" y="7" width="1" height="1" fill="#3c0068" /><rect x="6" y="8" width="1" height="1" fill="#9760bb" /><rect x="6" y="9" width="1" height="1" fill="#ac79cc" /><rect x="7" y="0" width="1" height="1" fill="#c591ff" /><rect x="7" y="1" width="1" height="1" fill="#4d1593" /><rect x="7" y="2" width="1" height="1" fill="#5d1b9f" /><rect x="7" y="3" width="1" height="1" fill="#6119a0" /><rect x="7" y="4" width="1" height="1" fill="#661aa2" /><rect x="7" y="5" width="1" height="1" fill="#621799" /><rect x="7" y="6" width="1" height="1" fill="#510c80" /><rect x="7" y="7" width="1" height="1" fill="#5c1e81" /><rect x="7" y="8" width="1" height="1" fill="#9c64b4" /><rect x="7" y="9" width="1" height="1" fill="#774288" /><rect x="8" y="0" width="1" height="1" fill="#b287eb" /><rect x="8" y="1" width="1" height="1" fill="#ac7ce4" /><rect x="8" y="2" width="1" height="1" fill="#470c7b" /><rect x="8" y="3" width="1" height="1" fill="#58148b" /><rect x="8" y="4" width="1" height="1" fill="#5f1692" /><rect x="8" y="5" width="1" height="1" fill="#70259c" /><rect x="8" y="6" width="1" height="1" fill="#5e1880" /><rect x="8" y="7" width="1" height="1" fill="#4e0d61" /><rect x="8" y="8" width="1" height="1" fill="#9b609b" /><rect x="8" y="9" width="1" height="1" fill="#743c6b" /><rect x="9" y="0" width="1" height="1" fill="#9f78d1" /><rect x="9" y="1" width="1" height="1" fill="#dbafff" /><rect x="9" y="2" width="1" height="1" fill="#6e379d" /><rect x="9" y="3" width="1" height="1" fill="#531280" /><rect x="9" y="4" width="1" height="1" fill="#591187" /><rect x="9" y="5" width="1" height="1" fill="#63198b" /><rect x="9" y="6" width="1" height="1" fill="#5d1779" /><rect x="9" y="7" width="1" height="1" fill="#864492" /><rect x="9" y="8" width="1" height="1" fill="#935688" /><rect x="9" y="9" width="1" height="1" fill="#753c5f" /></g></svg>