<svg width="800" height="1000" xmlns="http://www.w3.org/2000/svg"><defs><linearGradient id="g" x1="0" x2="1" y1="0" y2="1"><stop offset="0%" stop-color="#2d3c96"/><stop offset="100%" stop-color="#d53392"/></linearGradient></defs><rect x="10" y="10" width="780" height="980" fill="url(#g)" rx="50" ry="50" stroke="gold" stroke-width="20"/><text x="400" y="920" width="780" text-anchor="middle" style="font:bold 200px 'Helvetica Neue';fill:gold">01281</text><g transform="translate(80 80) scale(64)"><rect x="0" y="0" width="1" height="1" fill="#b388f2" /><rect x="0" y="1" width="1" height="1" fill="#ad82e5" /><rect x="0" y="2" width="1" height="1" fill="#f0c7ff" /><rect x="0" y="3" width="1" height="1" fill="#744999" /><rect x="0" y="4" width="1" height="1" fill="#43136a" /><rect x="0" y="5" width="1" height="1" fill="#551f77" /><rect x="0" y="6" width="1" height="1" fill="#561769" /><rect x="0" y="7" width="1" height="1" fill="#814793" /><rect x="0" y="8" width="1" height="1" fill="#4d256b" /><rect x="0" y="9" width="1" height="1" fill="#8869ac" /><rect x="1" y="0" width="1" height="1" fill="#a877e4" /><rect x="1" y="1" width="1" height="1" fill="#b080e7" /><rect x="1" y="2" width="1" height="1" fill="#ae80db" /><rect x="1" y="3" width="1" height="1" fill="#ffd2ff" /><rect x="1" y="4" width="1" height="1" fill="#4d1c78" /><rect x="1" y="5" width="1" height="1" fill="#48136d" /><rect x="1" y="6" width="1" height="1" fill="#4f1466" /><rect x="1" y="7" width="1" height="1" fill="#6e3a86" /><rect x="1" y="8" width="1" height="1" fill="#36135d" /><rect x="1" y="9" width="1" height="1" fill="#7158a1" /><rect x="2" y="0" width="1" height="1" fill="#aa6ee0" /><rect x="2" y="1" width="1" height="1" fill="#c389f8" /><rect x="2" y="2" width="1" height="1" fill="#af77e3" /><rect x="2" y="3" width="1" height="1" fill="#ca95fe" /><rect x="2" y="4" width="1" height="1" fill="#b27fe4" /><rect x="2" y="5" width="1" height="1" fill="#370563" /><rect x="2" y="6" width="1" height="1" fill="#5a2879" /><rect x="2" y="7" width="1" height="1" fill="#5f3582" /><rect x="2" y="8" width="1" height="1" fill="#3e2779" /><rect x="2" y="9" width="1" height="1" fill="#403287" /><rect x="3" y="0" width="1" height="1" fill="#bb76e9" /><rect x="3" y="1" width="1" height="1" fill="#c481f4" /><rect x="3" y="2" width="1" height="1" fill="#c182f7" /><rect x="3" y="3" width="1" height="1" fill="#a66cdd" /><rect x="3" y="4" width="1" height="1" fill="#daa6ff" /><rect x="3" y="5" width="1" height="1" fill="#6a3b99" /><rect x="3" y="6" width="1" height="1" fill="#603483" /><rect x="3" y="7" width="1" height="1" fill="#482673" /><rect x="3" y="8" width="1" height="1" fill="#37277e" /><rect x="3" y="9" width="1" height="1" fill="#26207b" /><rect x="4" y="0" width="1" height="1" fill="#e79bff" /><rect x="4" y="1" width="1" height="1" fill="#eda3ff" /><rect x="4" y="2" width="1" height="1" fill="#d590ff" /><rect x="4" y="3" width="1" height="1" fill="#d394ff" /><rect x="4" y="4" width="1" height="1" fill="#a974dd" /><rect x="4" y="5" width="1" height="1" fill="#d8abff" /><rect x="4" y="6" width="1" height="1" fill="#8963ae" /><rect x="4" y="7" width="1" height="1" fill="#3d236c" /><rect x="4" y="8" width="1" height="1" fill="#362b81" /><rect x="4" y="9" width="1" height="1" fill="#2f2c88" /><rect x="5" y="0" width="1" height="1" fill="#e192ff" /><rect x="5" y="1" width="1" height="1" fill="#e69aff" /><rect x="5" y="2" width="1" height="1" fill="#cf88ff" /><rect x="5" y="3" width="1" height="1" fill="#cc8cff" /><rect x="5" y="4" width="1" height="1" fill="#c993fc" /><rect x="5" y="5" width="1" height="1" fill="#bb8ee9" /><rect x="5" y="6" width="1" height="1" fill="#ae8ad3" /><rect x="5" y="7" width="1" height="1" fill="#8066ab" /><rect x="5" y="8" width="1" height="1" fill="#281b68" /><rect x="5" y="9" width="1" height="1" fill="#292374" /><rect x="6" y="0" width="1" height="1" fill="#cf83ff" /><rect x="6" y="1" width="1" height="1" fill="#d288ff" /><rect x="6" y="2" width="1" height="1" fill="#cc87ff" /><rect x="6" y="3" width="1" height="1" fill="#c384f8" /><rect x="6" y="4" width="1" height="1" fill="#b078e2" /><rect x="6" y="5" width="1" height="1" fill="#ba8ae6" /><rect x="6" y="6" width="1" height="1" fill="#7e569f" /><rect x="6" y="7" width="1" height="1" fill="#735392" /><rect x="6" y="8" width="1" height="1" fill="#927bb7" /><rect x="6" y="9" width="1" height="1" fill="#9280ba" /><rect x="7" y="0" width="1" height="1" fill="#aa65e4" /><rect x="7" y="1" width="1" height="1" fill="#a561df" /><rect x="7" y="2" width="1" height="1" fill="#9b5bd3" /><rect x="7" y="3" width="1" height="1" fill="#a367d7" /><rect x="7" y="4" width="1" height="1" fill="#9861c8" /><rect x="7" y="5" width="1" height="1" fill="#8957b1" /><rect x="7" y="6" width="1" height="1" fill="#875aa2" /><rect x="7" y="7" width="1" height="1" fill="#5e376f" /><rect x="7" y="8" width="1" height="1" fill="#6e4c77" /><rect x="7" y="9" width="1" height="1" fill="#311136" /><rect x="8" y="0" width="1" height="1" fill="#8b51ce" /><rect x="8" y="1" width="1" height="1" fill="#965dd6" /><rect x="8" y="2" width="1" height="1" fill="#8b52c3" /><rect x="8" y="3" width="1" height="1" fill="#9159c3" /><rect x="8" y="4" width="1" height="1" fill="#824cad" /><rect x="8" y="5" width="1" height="1" fill="#9a66ba" /><rect x="8" y="6" width="1" height="1" fill="#734185" /><rect x="8" y="7" width="1" height="1" fill="#764677" /><rect x="8" y="8" width="1" height="1" fill="#70405d" /><rect x="8" y="9" width="1" height="1" fill="#693a4c" /><rect x="9" y="0" width="1" height="1" fill="#8955d1" /><rect x="9" y="1" width="1" height="1" fill="#814dc4" /><rect x="9" y="2" width="1" height="1" fill="#814dbb" /><rect x="9" y="3" width="1" height="1" fill="#9b65cb" /><rect x="9" y="4" width="1" height="1" fill="#8953b1" /><rect x="9" y="5" width="1" height="1" fill="#7e489b" /><rect x="9" y="6" width="1" height="1" fill="#6a3677" /><rect x="9" y="7" width="1" height="1" fill="#d7a2cf" /><rect x="9" y="8" width="1" height="1" fill="#9f687d" /><rect x="9" y="9" width="1" height="1" fill="#9f6770" /></g></svg>