<svg width="800" height="1000" xmlns="http://www.w3.org/2000/svg"><defs><linearGradient id="g" x1="0" x2="1" y1="0" y2="1"><stop offset="0%" stop-color="#2d3c96"/><stop offset="100%" stop-color="#d53392"/></linearGradient></defs><rect x="10" y="10" width="780" height="980" fill="url(#g)" rx="50" ry="50" stroke="gold" stroke-width="20"/><text x="400" y="920" width="780" text-anchor="middle" style="font:bold 200px 'Helvetica Neue';fill:gold">01295</text><g transform="translate(80 80) scale(64)"><rect x="0" y="0" width="1" height="1" fill="#fffdff" /><rect x="0" y="1" width="1" height="1" fill="#fffafd" /><rect x="0" y="2" width="1" height="1" fill="#e6d4d9" /><rect x="0" y="3" width="1" height="1" fill="#a4928f" /><rect x="0" y="4" width="1" height="1" fill="#7f7260" /><rect x="0" y="5" width="1" height="1" fill="#867d66" /><rect x="0" y="6" width="1" height="1" fill="#a19889" /><rect x="0" y="7" width="1" height="1" fill="#e4ddd6" /><rect x="0" y="8" width="1" height="1" fill="#fffdff" /><rect x="0" y="9" width="1" height="1" fill="#fffcff" /><rect x="1" y="0" width="1" height="1" fill="#fffcf8" /><rect x="1" y="1" width="1" height="1" fill="#c5bab7" /><rect x="1" y="2" width="1" height="1" fill="#0d0000" /><rect x="1" y="3" width="1" height="1" fill="#140000" /><rect x="1" y="4" width="1" height="1" fill="#4b3b28" /><rect x="1" y="5" width="1" height="1" fill="#524631" /><rect x="1" y="6" width="1" height="1" fill="#382f21" /><rect x="1" y="7" width="1" height="1" fill="#0a0200" /><rect x="1" y="8" width="1" height="1" fill="#c7bebf" /><rect x="1" y="9" width="1" height="1" fill="#fffcff" /><rect x="2" y="0" width="1" height="1" fill="#e1d8c8" /><rect x="2" y="1" width="1" height="1" fill="#382b1b" /><rect x="2" y="2" width="1" height="1" fill="#4d3a29" /><rect x="2" y="3" width="1" height="1" fill="#806957" /><rect x="2" y="4" width="1" height="1" fill="#5c4431" /><rect x="2" y="5" width="1" height="1" fill="#533f2e" /><rect x="2" y="6" width="1" height="1" fill="#32281e" /><rect x="2" y="7" width="1" height="1" fill="#5b524c" /><rect x="2" y="8" width="1" height="1" fill="#1f0d09" /><rect x="2" y="9" width="1" height="1" fill="#eed9d5" /><rect x="3" y="0" width="1" height="1" fill="#a89e8e" /><rect x="3" y="1" width="1" height="1" fill="#3f311f" /><rect x="3" y="2" width="1" height="1" fill="#5d4731" /><rect x="3" y="3" width="1" height="1" fill="#b09781" /><rect x="3" y="4" width="1" height="1" fill="#967c6c" /><rect x="3" y="5" width="1" height="1" fill="#856f61" /><rect x="3" y="6" width="1" height="1" fill="#84786a" /><rect x="3" y="7" width="1" height="1" fill="#413528" /><rect x="3" y="8" width="1" height="1" fill="#402c23" /><rect x="3" y="9" width="1" height="1" fill="#ad958d" /><rect x="4" y="0" width="1" height="1" fill="#a69b98" /><rect x="4" y="1" width="1" height="1" fill="#66564e" /><rect x="4" y="2" width="1" height="1" fill="#a68c79" /><rect x="4" y="3" width="1" height="1" fill="#9b7f6b" /><rect x="4" y="4" width="1" height="1" fill="#988278" /><rect x="4" y="5" width="1" height="1" fill="#8c7a6e" /><rect x="4" y="6" width="1" height="1" fill="#85765b" /><rect x="4" y="7" width="1" height="1" fill="#87775d" /><rect x="4" y="8" width="1" height="1" fill="#524034" /><rect x="4" y="9" width="1" height="1" fill="#75615e" /><rect x="5" y="0" width="1" height="1" fill="#a79f9e" /><rect x="5" y="1" width="1" height="1" fill="#736660" /><rect x="5" y="2" width="1" height="1" fill="#baa392" /><rect x="5" y="3" width="1" height="1" fill="#695041" /><rect x="5" y="4" width="1" height="1" fill="#170301" /><rect x="5" y="5" width="1" height="1" fill="#190905" /><rect x="5" y="6" width="1" height="1" fill="#897a65" /><rect x="5" y="7" width="1" height="1" fill="#998a73" /><rect x="5" y="8" width="1" height="1" fill="#4c3b31" /><rect x="5" y="9" width="1" height="1" fill="#715e5b" /><rect x="6" y="0" width="1" height="1" fill="#c3bfb6" /><rect x="6" y="1" width="1" height="1" fill="#676055" /><rect x="6" y="2" width="1" height="1" fill="#877c6b" /><rect x="6" y="3" width="1" height="1" fill="#eadbd0" /><rect x="6" y="4" width="1" height="1" fill="#8c7a81" /><rect x="6" y="5" width="1" height="1" fill="#10000a" /><rect x="6" y="6" width="1" height="1" fill="#594f51" /><rect x="6" y="7" width="1" height="1" fill="#504542" /><rect x="6" y="8" width="1" height="1" fill="#140200" /><rect x="6" y="9" width="1" height="1" fill="#a6908c" /><rect x="7" y="0" width="1" height="1" fill="#e7e7dc" /><rect x="7" y="1" width="1" height="1" fill="#87867a" /><rect x="7" y="2" width="1" height="1" fill="#5b574c" /><rect x="7" y="3" width="1" height="1" fill="#bab2ae" /><rect x="7" y="4" width="1" height="1" fill="#9e919a" /><rect x="7" y="5" width="1" height="1" fill="#110410" /><rect x="7" y="6" width="1" height="1" fill="#181016" /><rect x="7" y="7" width="1" height="1" fill="#453d3f" /><rect x="7" y="8" width="1" height="1" fill="#2c1e1e" /><rect x="7" y="9" width="1" height="1" fill="#e6d5d4" /><rect x="8" y="0" width="1" height="1" fill="#fefff9" /><rect x="8" y="1" width="1" height="1" fill="#c3c5c0" /><rect x="8" y="2" width="1" height="1" fill="#595a59" /><rect x="8" y="3" width="1" height="1" fill="#171617" /><rect x="8" y="4" width="1" height="1" fill="#4c494c" /><rect x="8" y="5" width="1" height="1" fill="#666060" /><rect x="8" y="6" width="1" height="1" fill="#534c43" /><rect x="8" y="7" width="1" height="1" fill="#2b241b" /><rect x="8" y="8" width="1" height="1" fill="#c1bbbc" /><rect x="8" y="9" width="1" height="1" fill="#fffbff" /><rect x="9" y="0" width="1" height="1" fill="#fafff9" /><rect x="9" y="1" width="1" height="1" fill="#fbfffd" /><rect x="9" y="2" width="1" height="1" fill="#d8dcdf" /><rect x="9" y="3" width="1" height="1" fill="#b0b2b7" /><rect x="9" y="4" width="1" height="1" fill="#acadad" /><rect x="9" y="5" width="1" height="1" fill="#a4a29b" /><rect x="9" y="6" width="1" height="1" fill="#b6b0a0" /><rect x="9" y="7" width="1" height="1" fill="#dcd6c8" /><rect x="9" y="8" width="1" height="1" fill="#fefcfd" /><rect x="9" y="9" width="1" height="1" fill="#fefeff" /></g></svg>