<svg width="800" height="1000" version="1.1" xmlns="http://www.w3.org/2000/svg" xmlns:xlink="http://www.w3.org/1999/xlink">
  <defs>
      <linearGradient id="Gradient2" x1="0" x2="1" y1="0" y2="1">
        <stop offset="0%" stop-color="#2d3c96"/>
        <stop offset="100%" stop-color="#d53392"/>
      </linearGradient>
  </defs>
  <rect x="10" y="10" width="780" height="980" fill="url(#Gradient2)" rx="50" ry="50" stroke="#ffd700" stroke-width="20"/>
  <text x="400" y="920" width="780" text-anchor="middle" style="font: bold 200px 'Helvetica Neue'; fill: #ffd700">01302</text>

  <g transform="translate(80 80) scale(64)">
<rect x="0" y="0" width="1" height="1" fill="#101921" /><rect x="1" y="0" width="1" height="1" fill="#111A22" /><rect x="2" y="0" width="1" height="1" fill="#141D25" /><rect x="3" y="0" width="1" height="1" fill="#151E28" /><rect x="4" y="0" width="1" height="1" fill="#17212A" /><rect x="5" y="0" width="1" height="1" fill="#19232C" /><rect x="6" y="0" width="1" height="1" fill="#1C252E" /><rect x="7" y="0" width="1" height="1" fill="#1D2831" /><rect x="8" y="0" width="1" height="1" fill="#1E2933" /><rect x="9" y="0" width="1" height="1" fill="#1F2D35" /><rect x="0" y="1" width="1" height="1" fill="#0F1820" /><rect x="1" y="1" width="1" height="1" fill="#121B22" /><rect x="2" y="1" width="1" height="1" fill="#131C24" /><rect x="3" y="1" width="1" height="1" fill="#141E28" /><rect x="4" y="1" width="1" height="1" fill="#162029" /><rect x="5" y="1" width="1" height="1" fill="#18222B" /><rect x="6" y="1" width="1" height="1" fill="#1B252E" /><rect x="7" y="1" width="1" height="1" fill="#1C2730" /><rect x="8" y="1" width="1" height="1" fill="#1D2933" /><rect x="9" y="1" width="1" height="1" fill="#1F2C35" /><rect x="0" y="2" width="1" height="1" fill="#0F1820" /><rect x="1" y="2" width="1" height="1" fill="#111A22" /><rect x="2" y="2" width="1" height="1" fill="#121C24" /><rect x="3" y="2" width="1" height="1" fill="#141D26" /><rect x="4" y="2" width="1" height="1" fill="#161F28" /><rect x="5" y="2" width="1" height="1" fill="#18222B" /><rect x="6" y="2" width="1" height="1" fill="#1B252E" /><rect x="7" y="2" width="1" height="1" fill="#1D262F" /><rect x="8" y="2" width="1" height="1" fill="#1D2832" /><rect x="9" y="2" width="1" height="1" fill="#1E2B34" /><rect x="0" y="3" width="1" height="1" fill="#0F1720" /><rect x="1" y="3" width="1" height="1" fill="#101922" /><rect x="2" y="3" width="1" height="1" fill="#131C23" /><rect x="3" y="3" width="1" height="1" fill="#141E27" /><rect x="4" y="3" width="1" height="1" fill="#152029" /><rect x="5" y="3" width="1" height="1" fill="#17212A" /><rect x="6" y="3" width="1" height="1" fill="#19232C" /><rect x="7" y="3" width="1" height="1" fill="#1C262F" /><rect x="8" y="3" width="1" height="1" fill="#1C2831" /><rect x="9" y="3" width="1" height="1" fill="#1E2B34" /><rect x="0" y="4" width="1" height="1" fill="#0F181F" /><rect x="1" y="4" width="1" height="1" fill="#111A22" /><rect x="2" y="4" width="1" height="1" fill="#121B23" /><rect x="3" y="4" width="1" height="1" fill="#141D25" /><rect x="4" y="4" width="1" height="1" fill="#151F27" /><rect x="5" y="4" width="1" height="1" fill="#18222B" /><rect x="6" y="4" width="1" height="1" fill="#1A242D" /><rect x="7" y="4" width="1" height="1" fill="#1C262F" /><rect x="8" y="4" width="1" height="1" fill="#1D2831" /><rect x="9" y="4" width="1" height="1" fill="#1D2A33" /><rect x="0" y="5" width="1" height="1" fill="#0E171F" /><rect x="1" y="5" width="1" height="1" fill="#101921" /><rect x="2" y="5" width="1" height="1" fill="#111A22" /><rect x="3" y="5" width="1" height="1" fill="#131D24" /><rect x="4" y="5" width="1" height="1" fill="#151E28" /><rect x="5" y="5" width="1" height="1" fill="#162029" /><rect x="6" y="5" width="1" height="1" fill="#18222B" /><rect x="7" y="5" width="1" height="1" fill="#1B252E" /><rect x="8" y="5" width="1" height="1" fill="#1D2831" /><rect x="9" y="5" width="1" height="1" fill="#1D2932" /><rect x="0" y="6" width="1" height="1" fill="#0E171E" /><rect x="1" y="6" width="1" height="1" fill="#0F1821" /><rect x="2" y="6" width="1" height="1" fill="#121B22" /><rect x="3" y="6" width="1" height="1" fill="#121C24" /><rect x="4" y="6" width="1" height="1" fill="#0D1721" /><rect x="5" y="6" width="1" height="1" fill="#07111B" /><rect x="6" y="6" width="1" height="1" fill="#08121C" /><rect x="7" y="6" width="1" height="1" fill="#121C25" /><rect x="8" y="6" width="1" height="1" fill="#1C262F" /><rect x="9" y="6" width="1" height="1" fill="#16222C" /><rect x="0" y="7" width="1" height="1" fill="#0E171E" /><rect x="1" y="7" width="1" height="1" fill="#0F1820" /><rect x="2" y="7" width="1" height="1" fill="#111A22" /><rect x="3" y="7" width="1" height="1" fill="#00060F" /><rect x="4" y="7" width="1" height="1" fill="#3C444B" /><rect x="5" y="7" width="1" height="1" fill="#A2A6A9" /><rect x="6" y="7" width="1" height="1" fill="#A7ABAE" /><rect x="7" y="7" width="1" height="1" fill="#565D64" /><rect x="8" y="7" width="1" height="1" fill="#0A151F" /><rect x="9" y="7" width="1" height="1" fill="#000D18" /><rect x="0" y="8" width="1" height="1" fill="#0E171E" /><rect x="1" y="8" width="1" height="1" fill="#10181F" /><rect x="2" y="8" width="1" height="1" fill="#00020B" /><rect x="3" y="8" width="1" height="1" fill="#9CA0A3" /><rect x="4" y="8" width="1" height="1" fill="#FFFFFF" /><rect x="5" y="8" width="1" height="1" fill="#FFFFFF" /><rect x="6" y="8" width="1" height="1" fill="#FFFFFF" /><rect x="7" y="8" width="1" height="1" fill="#FFFFFF" /><rect x="8" y="8" width="1" height="1" fill="#8E9397" /><rect x="9" y="8" width="1" height="1" fill="#676F75" /><rect x="0" y="9" width="1" height="1" fill="#0E171E" /><rect x="1" y="9" width="1" height="1" fill="#060F18" /><rect x="2" y="9" width="1" height="1" fill="#454B52" /><rect x="3" y="9" width="1" height="1" fill="#FFFFFF" /><rect x="4" y="9" width="1" height="1" fill="#FFFFFF" /><rect x="5" y="9" width="1" height="1" fill="#FFFFFF" /><rect x="6" y="9" width="1" height="1" fill="#FFFFFF" /><rect x="7" y="9" width="1" height="1" fill="#FFFFFF" /><rect x="8" y="9" width="1" height="1" fill="#05111A" /><rect x="9" y="9" width="1" height="1" fill="#FFFFFF" />
  </g>
</svg>