<svg width="800" height="1000" xmlns="http://www.w3.org/2000/svg"><defs><linearGradient id="g" x1="0" x2="1" y1="0" y2="1"><stop offset="0%" stop-color="#2d3c96"/><stop offset="100%" stop-color="#d53392"/></linearGradient></defs><rect x="10" y="10" width="780" height="980" fill="url(#g)" rx="50" ry="50" stroke="gold" stroke-width="20"/><text x="400" y="920" width="780" text-anchor="middle" style="font:bold 200px 'Helvetica Neue';fill:gold">01302</text><g transform="translate(80 80) scale(64)"><rect x="0" y="0" width="1" height="1" fill="#101921" /><rect x="0" y="1" width="1" height="1" fill="#0f1820" /><rect x="0" y="2" width="1" height="1" fill="#0f1820" /><rect x="0" y="3" width="1" height="1" fill="#0f1720" /><rect x="0" y="4" width="1" height="1" fill="#0f181f" /><rect x="0" y="5" width="1" height="1" fill="#0e171f" /><rect x="0" y="6" width="1" height="1" fill="#0e171e" /><rect x="0" y="7" width="1" height="1" fill="#0e171e" /><rect x="0" y="8" width="1" height="1" fill="#0e171e" /><rect x="0" y="9" width="1" height="1" fill="#0e171e" /><rect x="1" y="0" width="1" height="1" fill="#111a22" /><rect x="1" y="1" width="1" height="1" fill="#121b22" /><rect x="1" y="2" width="1" height="1" fill="#111a22" /><rect x="1" y="3" width="1" height="1" fill="#101922" /><rect x="1" y="4" width="1" height="1" fill="#111a22" /><rect x="1" y="5" width="1" height="1" fill="#101921" /><rect x="1" y="6" width="1" height="1" fill="#0f1821" /><rect x="1" y="7" width="1" height="1" fill="#0f1820" /><rect x="1" y="8" width="1" height="1" fill="#10181f" /><rect x="1" y="9" width="1" height="1" fill="#060f18" /><rect x="2" y="0" width="1" height="1" fill="#141d25" /><rect x="2" y="1" width="1" height="1" fill="#131c24" /><rect x="2" y="2" width="1" height="1" fill="#121c24" /><rect x="2" y="3" width="1" height="1" fill="#131c23" /><rect x="2" y="4" width="1" height="1" fill="#121b23" /><rect x="2" y="5" width="1" height="1" fill="#111a22" /><rect x="2" y="6" width="1" height="1" fill="#121b22" /><rect x="2" y="7" width="1" height="1" fill="#111a22" /><rect x="2" y="8" width="1" height="1" fill="#00020b" /><rect x="2" y="9" width="1" height="1" fill="#454b52" /><rect x="3" y="0" width="1" height="1" fill="#151e28" /><rect x="3" y="1" width="1" height="1" fill="#141e28" /><rect x="3" y="2" width="1" height="1" fill="#141d26" /><rect x="3" y="3" width="1" height="1" fill="#141e27" /><rect x="3" y="4" width="1" height="1" fill="#141d25" /><rect x="3" y="5" width="1" height="1" fill="#131d24" /><rect x="3" y="6" width="1" height="1" fill="#121c24" /><rect x="3" y="7" width="1" height="1" fill="#00060f" /><rect x="3" y="8" width="1" height="1" fill="#9ca0a3" /><rect x="3" y="9" width="1" height="1" fill="#ffffff" /><rect x="4" y="0" width="1" height="1" fill="#17212a" /><rect x="4" y="1" width="1" height="1" fill="#162029" /><rect x="4" y="2" width="1" height="1" fill="#161f28" /><rect x="4" y="3" width="1" height="1" fill="#152029" /><rect x="4" y="4" width="1" height="1" fill="#151f27" /><rect x="4" y="5" width="1" height="1" fill="#151e28" /><rect x="4" y="6" width="1" height="1" fill="#0d1721" /><rect x="4" y="7" width="1" height="1" fill="#3c444b" /><rect x="4" y="8" width="1" height="1" fill="#ffffff" /><rect x="4" y="9" width="1" height="1" fill="#ffffff" /><rect x="5" y="0" width="1" height="1" fill="#19232c" /><rect x="5" y="1" width="1" height="1" fill="#18222b" /><rect x="5" y="2" width="1" height="1" fill="#18222b" /><rect x="5" y="3" width="1" height="1" fill="#17212a" /><rect x="5" y="4" width="1" height="1" fill="#18222b" /><rect x="5" y="5" width="1" height="1" fill="#162029" /><rect x="5" y="6" width="1" height="1" fill="#07111b" /><rect x="5" y="7" width="1" height="1" fill="#a2a6a9" /><rect x="5" y="8" width="1" height="1" fill="#ffffff" /><rect x="5" y="9" width="1" height="1" fill="#ffffff" /><rect x="6" y="0" width="1" height="1" fill="#1c252e" /><rect x="6" y="1" width="1" height="1" fill="#1b252e" /><rect x="6" y="2" width="1" height="1" fill="#1b252e" /><rect x="6" y="3" width="1" height="1" fill="#19232c" /><rect x="6" y="4" width="1" height="1" fill="#1a242d" /><rect x="6" y="5" width="1" height="1" fill="#18222b" /><rect x="6" y="6" width="1" height="1" fill="#08121c" /><rect x="6" y="7" width="1" height="1" fill="#a7abae" /><rect x="6" y="8" width="1" height="1" fill="#ffffff" /><rect x="6" y="9" width="1" height="1" fill="#ffffff" /><rect x="7" y="0" width="1" height="1" fill="#1d2831" /><rect x="7" y="1" width="1" height="1" fill="#1c2730" /><rect x="7" y="2" width="1" height="1" fill="#1d262f" /><rect x="7" y="3" width="1" height="1" fill="#1c262f" /><rect x="7" y="4" width="1" height="1" fill="#1c262f" /><rect x="7" y="5" width="1" height="1" fill="#1b252e" /><rect x="7" y="6" width="1" height="1" fill="#121c25" /><rect x="7" y="7" width="1" height="1" fill="#565d64" /><rect x="7" y="8" width="1" height="1" fill="#ffffff" /><rect x="7" y="9" width="1" height="1" fill="#ffffff" /><rect x="8" y="0" width="1" height="1" fill="#1e2933" /><rect x="8" y="1" width="1" height="1" fill="#1d2933" /><rect x="8" y="2" width="1" height="1" fill="#1d2832" /><rect x="8" y="3" width="1" height="1" fill="#1c2831" /><rect x="8" y="4" width="1" height="1" fill="#1d2831" /><rect x="8" y="5" width="1" height="1" fill="#1d2831" /><rect x="8" y="6" width="1" height="1" fill="#1c262f" /><rect x="8" y="7" width="1" height="1" fill="#0a151f" /><rect x="8" y="8" width="1" height="1" fill="#8e9397" /><rect x="8" y="9" width="1" height="1" fill="#05111a" /><rect x="9" y="0" width="1" height="1" fill="#1f2d35" /><rect x="9" y="1" width="1" height="1" fill="#1f2c35" /><rect x="9" y="2" width="1" height="1" fill="#1e2b34" /><rect x="9" y="3" width="1" height="1" fill="#1e2b34" /><rect x="9" y="4" width="1" height="1" fill="#1d2a33" /><rect x="9" y="5" width="1" height="1" fill="#1d2932" /><rect x="9" y="6" width="1" height="1" fill="#16222c" /><rect x="9" y="7" width="1" height="1" fill="#000d18" /><rect x="9" y="8" width="1" height="1" fill="#676f75" /><rect x="9" y="9" width="1" height="1" fill="#ffffff" /></g></svg>