<svg width="800" height="1000" version="1.1" xmlns="http://www.w3.org/2000/svg" xmlns:xlink="http://www.w3.org/1999/xlink">
  <defs>
      <linearGradient id="Gradient2" x1="0" x2="1" y1="0" y2="1">
        <stop offset="0%" stop-color="#2d3c96"/>
        <stop offset="100%" stop-color="#d53392"/>
      </linearGradient>
  </defs>
  <rect x="10" y="10" width="780" height="980" fill="url(#Gradient2)" rx="50" ry="50" stroke="#ffd700" stroke-width="20"/>
  <text x="400" y="920" width="780" text-anchor="middle" style="font: bold 200px 'Helvetica Neue'; fill: #ffd700">01303</text>

  <g transform="translate(80 80) scale(64)">
<rect x="0" y="0" width="1" height="1" fill="#233038" /><rect x="1" y="0" width="1" height="1" fill="#24313A" /><rect x="2" y="0" width="1" height="1" fill="#26333C" /><rect x="3" y="0" width="1" height="1" fill="#28363F" /><rect x="4" y="0" width="1" height="1" fill="#2A3841" /><rect x="5" y="0" width="1" height="1" fill="#2B3942" /><rect x="6" y="0" width="1" height="1" fill="#2D3B44" /><rect x="7" y="0" width="1" height="1" fill="#2E3C46" /><rect x="8" y="0" width="1" height="1" fill="#303E48" /><rect x="9" y="0" width="1" height="1" fill="#303E49" /><rect x="0" y="1" width="1" height="1" fill="#222F38" /><rect x="1" y="1" width="1" height="1" fill="#233039" /><rect x="2" y="1" width="1" height="1" fill="#25333C" /><rect x="3" y="1" width="1" height="1" fill="#27363F" /><rect x="4" y="1" width="1" height="1" fill="#293740" /><rect x="5" y="1" width="1" height="1" fill="#2A3841" /><rect x="6" y="1" width="1" height="1" fill="#2C3A44" /><rect x="7" y="1" width="1" height="1" fill="#2D3B46" /><rect x="8" y="1" width="1" height="1" fill="#303E48" /><rect x="9" y="1" width="1" height="1" fill="#303E49" /><rect x="0" y="2" width="1" height="1" fill="#202D36" /><rect x="1" y="2" width="1" height="1" fill="#24313A" /><rect x="2" y="2" width="1" height="1" fill="#25323B" /><rect x="3" y="2" width="1" height="1" fill="#27343D" /><rect x="4" y="2" width="1" height="1" fill="#28363F" /><rect x="5" y="2" width="1" height="1" fill="#2B3942" /><rect x="6" y="2" width="1" height="1" fill="#2C3B44" /><rect x="7" y="2" width="1" height="1" fill="#2E3C45" /><rect x="8" y="2" width="1" height="1" fill="#2E3C47" /><rect x="9" y="2" width="1" height="1" fill="#303E49" /><rect x="0" y="3" width="1" height="1" fill="#212E36" /><rect x="1" y="3" width="1" height="1" fill="#222F39" /><rect x="2" y="3" width="1" height="1" fill="#25323B" /><rect x="3" y="3" width="1" height="1" fill="#26353E" /><rect x="4" y="3" width="1" height="1" fill="#293740" /><rect x="5" y="3" width="1" height="1" fill="#293740" /><rect x="6" y="3" width="1" height="1" fill="#2C3942" /><rect x="7" y="3" width="1" height="1" fill="#2D3B44" /><rect x="8" y="3" width="1" height="1" fill="#2F3D47" /><rect x="9" y="3" width="1" height="1" fill="#303E49" /><rect x="0" y="4" width="1" height="1" fill="#202D35" /><rect x="1" y="4" width="1" height="1" fill="#18252F" /><rect x="2" y="4" width="1" height="1" fill="#1D2B34" /><rect x="3" y="4" width="1" height="1" fill="#26343D" /><rect x="4" y="4" width="1" height="1" fill="#27363F" /><rect x="5" y="4" width="1" height="1" fill="#293740" /><rect x="6" y="4" width="1" height="1" fill="#2C3A43" /><rect x="7" y="4" width="1" height="1" fill="#2D3B44" /><rect x="8" y="4" width="1" height="1" fill="#2E3C47" /><rect x="9" y="4" width="1" height="1" fill="#2F3D48" /><rect x="0" y="5" width="1" height="1" fill="#0A1821" /><rect x="1" y="5" width="1" height="1" fill="#BCC0C2" /><rect x="2" y="5" width="1" height="1" fill="#4E5960" /><rect x="3" y="5" width="1" height="1" fill="#1E2D36" /><rect x="4" y="5" width="1" height="1" fill="#27353E" /><rect x="5" y="5" width="1" height="1" fill="#2A3841" /><rect x="6" y="5" width="1" height="1" fill="#2B3941" /><rect x="7" y="5" width="1" height="1" fill="#2C3A44" /><rect x="8" y="5" width="1" height="1" fill="#2E3C46" /><rect x="9" y="5" width="1" height="1" fill="#303E48" /><rect x="0" y="6" width="1" height="1" fill="#36424A" /><rect x="1" y="6" width="1" height="1" fill="#FFFFFF" /><rect x="2" y="6" width="1" height="1" fill="#F5F5F6" /><rect x="3" y="6" width="1" height="1" fill="#081822" /><rect x="4" y="6" width="1" height="1" fill="#26343D" /><rect x="5" y="6" width="1" height="1" fill="#28363F" /><rect x="6" y="6" width="1" height="1" fill="#2A3841" /><rect x="7" y="6" width="1" height="1" fill="#2C3A44" /><rect x="8" y="6" width="1" height="1" fill="#2E3B46" /><rect x="9" y="6" width="1" height="1" fill="#2F3D47" /><rect x="0" y="7" width="1" height="1" fill="#E7E8E9" /><rect x="1" y="7" width="1" height="1" fill="#FFFFFF" /><rect x="2" y="7" width="1" height="1" fill="#FFFFFF" /><rect x="3" y="7" width="1" height="1" fill="#8B9397" /><rect x="4" y="7" width="1" height="1" fill="#16252F" /><rect x="5" y="7" width="1" height="1" fill="#293740" /><rect x="6" y="7" width="1" height="1" fill="#2B3942" /><rect x="7" y="7" width="1" height="1" fill="#2B3943" /><rect x="8" y="7" width="1" height="1" fill="#2D3B45" /><rect x="9" y="7" width="1" height="1" fill="#2F3D48" /><rect x="0" y="8" width="1" height="1" fill="#FFFFFF" /><rect x="1" y="8" width="1" height="1" fill="#FFFFFF" /><rect x="2" y="8" width="1" height="1" fill="#FFFFFF" /><rect x="3" y="8" width="1" height="1" fill="#FFFFFF" /><rect x="4" y="8" width="1" height="1" fill="#25323B" /><rect x="5" y="8" width="1" height="1" fill="#24333C" /><rect x="6" y="8" width="1" height="1" fill="#2A3841" /><rect x="7" y="8" width="1" height="1" fill="#2C3A42" /><rect x="8" y="8" width="1" height="1" fill="#2D3B44" /><rect x="9" y="8" width="1" height="1" fill="#2F3D48" /><rect x="0" y="9" width="1" height="1" fill="#FFFFFF" /><rect x="1" y="9" width="1" height="1" fill="#EEEEEF" /><rect x="2" y="9" width="1" height="1" fill="#FFFFFF" /><rect x="3" y="9" width="1" height="1" fill="#FFFFFF" /><rect x="4" y="9" width="1" height="1" fill="#D4D7D8" /><rect x="5" y="9" width="1" height="1" fill="#0D1D27" /><rect x="6" y="9" width="1" height="1" fill="#293740" /><rect x="7" y="9" width="1" height="1" fill="#2B3942" /><rect x="8" y="9" width="1" height="1" fill="#2C3A44" /><rect x="9" y="9" width="1" height="1" fill="#2E3C46" />
  </g>
</svg>