<svg width="800" height="1000" xmlns="http://www.w3.org/2000/svg"><defs><linearGradient id="g" x1="0" x2="1" y1="0" y2="1"><stop offset="0%" stop-color="#2d3c96"/><stop offset="100%" stop-color="#d53392"/></linearGradient></defs><rect x="10" y="10" width="780" height="980" fill="url(#g)" rx="50" ry="50" stroke="gold" stroke-width="20"/><text x="400" y="920" width="780" text-anchor="middle" style="font:bold 200px 'Helvetica Neue';fill:gold">01317</text><g transform="translate(80 80) scale(64)"><rect x="0" y="0" width="1" height="1" fill="#13743c" /><rect x="0" y="1" width="1" height="1" fill="#13743c" /><rect x="0" y="2" width="1" height="1" fill="#13743c" /><rect x="0" y="3" width="1" height="1" fill="#13743c" /><rect x="0" y="4" width="1" height="1" fill="#13743c" /><rect x="0" y="5" width="1" height="1" fill="#13743c" /><rect x="0" y="6" width="1" height="1" fill="#13743c" /><rect x="0" y="7" width="1" height="1" fill="#13763d" /><rect x="0" y="8" width="1" height="1" fill="#116133" /><rect x="0" y="9" width="1" height="1" fill="#126b39" /><rect x="1" y="0" width="1" height="1" fill="#050001" /><rect x="1" y="1" width="1" height="1" fill="#050001" /><rect x="1" y="2" width="1" height="1" fill="#050001" /><rect x="1" y="3" width="1" height="1" fill="#050001" /><rect x="1" y="4" width="1" height="1" fill="#050001" /><rect x="1" y="5" width="1" height="1" fill="#050001" /><rect x="1" y="6" width="1" height="1" fill="#040000" /><rect x="1" y="7" width="1" height="1" fill="#050000" /><rect x="1" y="8" width="1" height="1" fill="#0e2e1a" /><rect x="1" y="9" width="1" height="1" fill="#09170e" /><rect x="2" y="0" width="1" height="1" fill="#040103" /><rect x="2" y="1" width="1" height="1" fill="#010001" /><rect x="2" y="2" width="1" height="1" fill="#050204" /><rect x="2" y="3" width="1" height="1" fill="#050204" /><rect x="2" y="4" width="1" height="1" fill="#050204" /><rect x="2" y="5" width="1" height="1" fill="#050204" /><rect x="2" y="6" width="1" height="1" fill="#040003" /><rect x="2" y="7" width="1" height="1" fill="#070000" /><rect x="2" y="8" width="1" height="1" fill="#108946" /><rect x="2" y="9" width="1" height="1" fill="#084422" /><rect x="3" y="0" width="1" height="1" fill="#242424" /><rect x="3" y="1" width="1" height="1" fill="#505050" /><rect x="3" y="2" width="1" height="1" fill="#000000" /><rect x="3" y="3" width="1" height="1" fill="#040404" /><rect x="3" y="4" width="1" height="1" fill="#050505" /><rect x="3" y="5" width="1" height="1" fill="#050505" /><rect x="3" y="6" width="1" height="1" fill="#050304" /><rect x="3" y="7" width="1" height="1" fill="#060000" /><rect x="3" y="8" width="1" height="1" fill="#0b7a3e" /><rect x="3" y="9" width="1" height="1" fill="#073f20" /><rect x="4" y="0" width="1" height="1" fill="#3f3f3f" /><rect x="4" y="1" width="1" height="1" fill="#9f9f9f" /><rect x="4" y="2" width="1" height="1" fill="#000000" /><rect x="4" y="3" width="1" height="1" fill="#020202" /><rect x="4" y="4" width="1" height="1" fill="#050505" /><rect x="4" y="5" width="1" height="1" fill="#050505" /><rect x="4" y="6" width="1" height="1" fill="#050204" /><rect x="4" y="7" width="1" height="1" fill="#060000" /><rect x="4" y="8" width="1" height="1" fill="#0b7a3d" /><rect x="4" y="9" width="1" height="1" fill="#073e20" /><rect x="5" y="0" width="1" height="1" fill="#b8b8b8" /><rect x="5" y="1" width="1" height="1" fill="#9f9f9f" /><rect x="5" y="2" width="1" height="1" fill="#000000" /><rect x="5" y="3" width="1" height="1" fill="#020202" /><rect x="5" y="4" width="1" height="1" fill="#050505" /><rect x="5" y="5" width="1" height="1" fill="#050505" /><rect x="5" y="6" width="1" height="1" fill="#050204" /><rect x="5" y="7" width="1" height="1" fill="#060000" /><rect x="5" y="8" width="1" height="1" fill="#0c7a3d" /><rect x="5" y="9" width="1" height="1" fill="#073e20" /><rect x="6" y="0" width="1" height="1" fill="#ffffff" /><rect x="6" y="1" width="1" height="1" fill="#a3a3a3" /><rect x="6" y="2" width="1" height="1" fill="#000000" /><rect x="6" y="3" width="1" height="1" fill="#020202" /><rect x="6" y="4" width="1" height="1" fill="#050505" /><rect x="6" y="5" width="1" height="1" fill="#050505" /><rect x="6" y="6" width="1" height="1" fill="#050204" /><rect x="6" y="7" width="1" height="1" fill="#060000" /><rect x="6" y="8" width="1" height="1" fill="#0c7a3d" /><rect x="6" y="9" width="1" height="1" fill="#043c1e" /><rect x="7" y="0" width="1" height="1" fill="#dbdbdb" /><rect x="7" y="1" width="1" height="1" fill="#a0a0a0" /><rect x="7" y="2" width="1" height="1" fill="#000000" /><rect x="7" y="3" width="1" height="1" fill="#020202" /><rect x="7" y="4" width="1" height="1" fill="#050505" /><rect x="7" y="5" width="1" height="1" fill="#050505" /><rect x="7" y="6" width="1" height="1" fill="#050204" /><rect x="7" y="7" width="1" height="1" fill="#060000" /><rect x="7" y="8" width="1" height="1" fill="#0c7a3d" /><rect x="7" y="9" width="1" height="1" fill="#003819" /><rect x="8" y="0" width="1" height="1" fill="#404040" /><rect x="8" y="1" width="1" height="1" fill="#9d9d9d" /><rect x="8" y="2" width="1" height="1" fill="#000000" /><rect x="8" y="3" width="1" height="1" fill="#020202" /><rect x="8" y="4" width="1" height="1" fill="#050505" /><rect x="8" y="5" width="1" height="1" fill="#050505" /><rect x="8" y="6" width="1" height="1" fill="#050204" /><rect x="8" y="7" width="1" height="1" fill="#060000" /><rect x="8" y="8" width="1" height="1" fill="#0c7a3d" /><rect x="8" y="9" width="1" height="1" fill="#033b1c" /><rect x="9" y="0" width="1" height="1" fill="#3d3d3d" /><rect x="9" y="1" width="1" height="1" fill="#999999" /><rect x="9" y="2" width="1" height="1" fill="#000000" /><rect x="9" y="3" width="1" height="1" fill="#020202" /><rect x="9" y="4" width="1" height="1" fill="#050505" /><rect x="9" y="5" width="1" height="1" fill="#050505" /><rect x="9" y="6" width="1" height="1" fill="#050204" /><rect x="9" y="7" width="1" height="1" fill="#060000" /><rect x="9" y="8" width="1" height="1" fill="#0c7a3d" /><rect x="9" y="9" width="1" height="1" fill="#073e20" /></g></svg>