<svg width="800" height="1000" xmlns="http://www.w3.org/2000/svg"><defs><linearGradient id="g" x1="0" x2="1" y1="0" y2="1"><stop offset="0%" stop-color="#2d3c96"/><stop offset="100%" stop-color="#d53392"/></linearGradient></defs><rect x="10" y="10" width="780" height="980" fill="url(#g)" rx="50" ry="50" stroke="gold" stroke-width="20"/><text x="400" y="920" width="780" text-anchor="middle" style="font:bold 200px 'Helvetica Neue';fill:gold">01323</text><g transform="translate(80 80) scale(64)"><rect x="0" y="0" width="1" height="1" fill="#589374" /><rect x="0" y="1" width="1" height="1" fill="#2b4838" /><rect x="0" y="2" width="1" height="1" fill="#000000" /><rect x="0" y="3" width="1" height="1" fill="#000000" /><rect x="0" y="4" width="1" height="1" fill="#4b4b4b" /><rect x="0" y="5" width="1" height="1" fill="#5e5e5e" /><rect x="0" y="6" width="1" height="1" fill="#4b494a" /><rect x="0" y="7" width="1" height="1" fill="#050000" /><rect x="0" y="8" width="1" height="1" fill="#09773a" /><rect x="0" y="9" width="1" height="1" fill="#073e20" /><rect x="1" y="0" width="1" height="1" fill="#000000" /><rect x="1" y="1" width="1" height="1" fill="#304038" /><rect x="1" y="2" width="1" height="1" fill="#2e4037" /><rect x="1" y="3" width="1" height="1" fill="#010000" /><rect x="1" y="4" width="1" height="1" fill="#717171" /><rect x="1" y="5" width="1" height="1" fill="#626262" /><rect x="1" y="6" width="1" height="1" fill="#545254" /><rect x="1" y="7" width="1" height="1" fill="#060000" /><rect x="1" y="8" width="1" height="1" fill="#08763a" /><rect x="1" y="9" width="1" height="1" fill="#033a1c" /><rect x="2" y="0" width="1" height="1" fill="#000000" /><rect x="2" y="1" width="1" height="1" fill="#88b19b" /><rect x="2" y="2" width="1" height="1" fill="#89b19d" /><rect x="2" y="3" width="1" height="1" fill="#000000" /><rect x="2" y="4" width="1" height="1" fill="#3b3b3b" /><rect x="2" y="5" width="1" height="1" fill="#8a8a8a" /><rect x="2" y="6" width="1" height="1" fill="#575556" /><rect x="2" y="7" width="1" height="1" fill="#000000" /><rect x="2" y="8" width="1" height="1" fill="#09773a" /><rect x="2" y="9" width="1" height="1" fill="#043c1d" /><rect x="3" y="0" width="1" height="1" fill="#040304" /><rect x="3" y="1" width="1" height="1" fill="#060606" /><rect x="3" y="2" width="1" height="1" fill="#000100" /><rect x="3" y="3" width="1" height="1" fill="#000000" /><rect x="3" y="4" width="1" height="1" fill="#2c2c2c" /><rect x="3" y="5" width="1" height="1" fill="#7a7a7a" /><rect x="3" y="6" width="1" height="1" fill="#3d3b3d" /><rect x="3" y="7" width="1" height="1" fill="#000000" /><rect x="3" y="8" width="1" height="1" fill="#0a783c" /><rect x="3" y="9" width="1" height="1" fill="#073e20" /><rect x="4" y="0" width="1" height="1" fill="#000000" /><rect x="4" y="1" width="1" height="1" fill="#100f10" /><rect x="4" y="2" width="1" height="1" fill="#b5c1b9" /><rect x="4" y="3" width="1" height="1" fill="#454846" /><rect x="4" y="4" width="1" height="1" fill="#514f50" /><rect x="4" y="5" width="1" height="1" fill="#202020" /><rect x="4" y="6" width="1" height="1" fill="#413f40" /><rect x="4" y="7" width="1" height="1" fill="#13040b" /><rect x="4" y="8" width="1" height="1" fill="#067538" /><rect x="4" y="9" width="1" height="1" fill="#073e20" /><rect x="5" y="0" width="1" height="1" fill="#000500" /><rect x="5" y="1" width="1" height="1" fill="#121011" /><rect x="5" y="2" width="1" height="1" fill="#9da4a0" /><rect x="5" y="3" width="1" height="1" fill="#2e2f2e" /><rect x="5" y="4" width="1" height="1" fill="#201f1f" /><rect x="5" y="5" width="1" height="1" fill="#222222" /><rect x="5" y="6" width="1" height="1" fill="#403e40" /><rect x="5" y="7" width="1" height="1" fill="#080001" /><rect x="5" y="8" width="1" height="1" fill="#09773b" /><rect x="5" y="9" width="1" height="1" fill="#053d1e" /><rect x="6" y="0" width="1" height="1" fill="#030000" /><rect x="6" y="1" width="1" height="1" fill="#050404" /><rect x="6" y="2" width="1" height="1" fill="#000001" /><rect x="6" y="3" width="1" height="1" fill="#020403" /><rect x="6" y="4" width="1" height="1" fill="#000000" /><rect x="6" y="5" width="1" height="1" fill="#111111" /><rect x="6" y="6" width="1" height="1" fill="#383638" /><rect x="6" y="7" width="1" height="1" fill="#050000" /><rect x="6" y="8" width="1" height="1" fill="#0a783c" /><rect x="6" y="9" width="1" height="1" fill="#063d1f" /><rect x="7" y="0" width="1" height="1" fill="#000000" /><rect x="7" y="1" width="1" height="1" fill="#414445" /><rect x="7" y="2" width="1" height="1" fill="#e5f9ef" /><rect x="7" y="3" width="1" height="1" fill="#1a1b19" /><rect x="7" y="4" width="1" height="1" fill="#000000" /><rect x="7" y="5" width="1" height="1" fill="#040404" /><rect x="7" y="6" width="1" height="1" fill="#010000" /><rect x="7" y="7" width="1" height="1" fill="#060000" /><rect x="7" y="8" width="1" height="1" fill="#0c7a3e" /><rect x="7" y="9" width="1" height="1" fill="#073e20" /><rect x="8" y="0" width="1" height="1" fill="#000000" /><rect x="8" y="1" width="1" height="1" fill="#0c0a0c" /><rect x="8" y="2" width="1" height="1" fill="#444c48" /><rect x="8" y="3" width="1" height="1" fill="#0e0f0e" /><rect x="8" y="4" width="1" height="1" fill="#000000" /><rect x="8" y="5" width="1" height="1" fill="#050505" /><rect x="8" y="6" width="1" height="1" fill="#050204" /><rect x="8" y="7" width="1" height="1" fill="#060000" /><rect x="8" y="8" width="1" height="1" fill="#0c7a3d" /><rect x="8" y="9" width="1" height="1" fill="#073e20" /><rect x="9" y="0" width="1" height="1" fill="#191c1a" /><rect x="9" y="1" width="1" height="1" fill="#658d77" /><rect x="9" y="2" width="1" height="1" fill="#0d1412" /><rect x="9" y="3" width="1" height="1" fill="#000000" /><rect x="9" y="4" width="1" height="1" fill="#060606" /><rect x="9" y="5" width="1" height="1" fill="#050505" /><rect x="9" y="6" width="1" height="1" fill="#050204" /><rect x="9" y="7" width="1" height="1" fill="#060000" /><rect x="9" y="8" width="1" height="1" fill="#0c7a3d" /><rect x="9" y="9" width="1" height="1" fill="#043b1d" /></g></svg>