<svg width="800" height="1000" xmlns="http://www.w3.org/2000/svg"><defs><linearGradient id="g" x1="0" x2="1" y1="0" y2="1"><stop offset="0%" stop-color="#2d3c96"/><stop offset="100%" stop-color="#d53392"/></linearGradient></defs><rect x="10" y="10" width="780" height="980" fill="url(#g)" rx="50" ry="50" stroke="gold" stroke-width="20"/><text x="400" y="920" width="780" text-anchor="middle" style="font:bold 200px 'Helvetica Neue';fill:gold">01322</text><g transform="translate(80 80) scale(64)"><rect x="0" y="0" width="1" height="1" fill="#636363" /><rect x="0" y="1" width="1" height="1" fill="#b0b0b0" /><rect x="0" y="2" width="1" height="1" fill="#000000" /><rect x="0" y="3" width="1" height="1" fill="#050505" /><rect x="0" y="4" width="1" height="1" fill="#464646" /><rect x="0" y="5" width="1" height="1" fill="#232323" /><rect x="0" y="6" width="1" height="1" fill="#161415" /><rect x="0" y="7" width="1" height="1" fill="#12040b" /><rect x="0" y="8" width="1" height="1" fill="#08763a" /><rect x="0" y="9" width="1" height="1" fill="#073e20" /><rect x="1" y="0" width="1" height="1" fill="#ffffff" /><rect x="1" y="1" width="1" height="1" fill="#a5a5a5" /><rect x="1" y="2" width="1" height="1" fill="#000000" /><rect x="1" y="3" width="1" height="1" fill="#000000" /><rect x="1" y="4" width="1" height="1" fill="#666666" /><rect x="1" y="5" width="1" height="1" fill="#959595" /><rect x="1" y="6" width="1" height="1" fill="#555355" /><rect x="1" y="7" width="1" height="1" fill="#000000" /><rect x="1" y="8" width="1" height="1" fill="#09773b" /><rect x="1" y="9" width="1" height="1" fill="#073e20" /><rect x="2" y="0" width="1" height="1" fill="#ffffff" /><rect x="2" y="1" width="1" height="1" fill="#a2a2a2" /><rect x="2" y="2" width="1" height="1" fill="#000000" /><rect x="2" y="3" width="1" height="1" fill="#090909" /><rect x="2" y="4" width="1" height="1" fill="#6d6d6d" /><rect x="2" y="5" width="1" height="1" fill="#5a5a5a" /><rect x="2" y="6" width="1" height="1" fill="#535052" /><rect x="2" y="7" width="1" height="1" fill="#070000" /><rect x="2" y="8" width="1" height="1" fill="#08763a" /><rect x="2" y="9" width="1" height="1" fill="#073e20" /><rect x="3" y="0" width="1" height="1" fill="#565656" /><rect x="3" y="1" width="1" height="1" fill="#9c9c9c" /><rect x="3" y="2" width="1" height="1" fill="#000000" /><rect x="3" y="3" width="1" height="1" fill="#080808" /><rect x="3" y="4" width="1" height="1" fill="#3a3a3a" /><rect x="3" y="5" width="1" height="1" fill="#494949" /><rect x="3" y="6" width="1" height="1" fill="#514f50" /><rect x="3" y="7" width="1" height="1" fill="#060000" /><rect x="3" y="8" width="1" height="1" fill="#08773a" /><rect x="3" y="9" width="1" height="1" fill="#063e1f" /><rect x="4" y="0" width="1" height="1" fill="#2a2a2a" /><rect x="4" y="1" width="1" height="1" fill="#7a7a7a" /><rect x="4" y="2" width="1" height="1" fill="#000000" /><rect x="4" y="3" width="1" height="1" fill="#000000" /><rect x="4" y="4" width="1" height="1" fill="#505050" /><rect x="4" y="5" width="1" height="1" fill="#696969" /><rect x="4" y="6" width="1" height="1" fill="#383637" /><rect x="4" y="7" width="1" height="1" fill="#070000" /><rect x="4" y="8" width="1" height="1" fill="#09773b" /><rect x="4" y="9" width="1" height="1" fill="#033b1c" /><rect x="5" y="0" width="1" height="1" fill="#040404" /><rect x="5" y="1" width="1" height="1" fill="#030303" /><rect x="5" y="2" width="1" height="1" fill="#000000" /><rect x="5" y="3" width="1" height="1" fill="#060606" /><rect x="5" y="4" width="1" height="1" fill="#717171" /><rect x="5" y="5" width="1" height="1" fill="#9b9b9b" /><rect x="5" y="6" width="1" height="1" fill="#5a5759" /><rect x="5" y="7" width="1" height="1" fill="#0b0003" /><rect x="5" y="8" width="1" height="1" fill="#067438" /><rect x="5" y="9" width="1" height="1" fill="#033b1c" /><rect x="6" y="0" width="1" height="1" fill="#050505" /><rect x="6" y="1" width="1" height="1" fill="#020202" /><rect x="6" y="2" width="1" height="1" fill="#010101" /><rect x="6" y="3" width="1" height="1" fill="#0d0d0d" /><rect x="6" y="4" width="1" height="1" fill="#101010" /><rect x="6" y="5" width="1" height="1" fill="#535353" /><rect x="6" y="6" width="1" height="1" fill="#545253" /><rect x="6" y="7" width="1" height="1" fill="#000000" /><rect x="6" y="8" width="1" height="1" fill="#0a783c" /><rect x="6" y="9" width="1" height="1" fill="#073e20" /><rect x="7" y="0" width="1" height="1" fill="#000000" /><rect x="7" y="1" width="1" height="1" fill="#040304" /><rect x="7" y="2" width="1" height="1" fill="#070707" /><rect x="7" y="3" width="1" height="1" fill="#030303" /><rect x="7" y="4" width="1" height="1" fill="#000000" /><rect x="7" y="5" width="1" height="1" fill="#000000" /><rect x="7" y="6" width="1" height="1" fill="#010000" /><rect x="7" y="7" width="1" height="1" fill="#060000" /><rect x="7" y="8" width="1" height="1" fill="#0c7a3e" /><rect x="7" y="9" width="1" height="1" fill="#063d1f" /><rect x="8" y="0" width="1" height="1" fill="#000000" /><rect x="8" y="1" width="1" height="1" fill="#000000" /><rect x="8" y="2" width="1" height="1" fill="#0a0a0a" /><rect x="8" y="3" width="1" height="1" fill="#767676" /><rect x="8" y="4" width="1" height="1" fill="#7a7a7a" /><rect x="8" y="5" width="1" height="1" fill="#7f7f7f" /><rect x="8" y="6" width="1" height="1" fill="#6c6a6c" /><rect x="8" y="7" width="1" height="1" fill="#020000" /><rect x="8" y="8" width="1" height="1" fill="#077639" /><rect x="8" y="9" width="1" height="1" fill="#033b1c" /><rect x="9" y="0" width="1" height="1" fill="#5ca27c" /><rect x="9" y="1" width="1" height="1" fill="#2d4f3b" /><rect x="9" y="2" width="1" height="1" fill="#000000" /><rect x="9" y="3" width="1" height="1" fill="#515151" /><rect x="9" y="4" width="1" height="1" fill="#5e5e5e" /><rect x="9" y="5" width="1" height="1" fill="#5c5c5c" /><rect x="9" y="6" width="1" height="1" fill="#575557" /><rect x="9" y="7" width="1" height="1" fill="#050000" /><rect x="9" y="8" width="1" height="1" fill="#08763a" /><rect x="9" y="9" width="1" height="1" fill="#063d1f" /></g></svg>