<svg width="800" height="1000" version="1.1" xmlns="http://www.w3.org/2000/svg" xmlns:xlink="http://www.w3.org/1999/xlink">
  <defs>
      <linearGradient id="Gradient2" x1="0" x2="1" y1="0" y2="1">
        <stop offset="0%" stop-color="#2d3c96"/>
        <stop offset="100%" stop-color="#d53392"/>
      </linearGradient>
  </defs>
  <rect x="10" y="10" width="780" height="980" fill="url(#Gradient2)" rx="50" ry="50" stroke="#ffd700" stroke-width="20"/>
  <text x="400" y="920" width="780" text-anchor="middle" style="font: bold 200px 'Helvetica Neue'; fill: #ffd700">01320</text>

  <g transform="translate(80 80) scale(64)">
<rect x="0" y="0" width="1" height="1" fill="#FFFFFF" /><rect x="1" y="0" width="1" height="1" fill="#FFFFFF" /><rect x="2" y="0" width="1" height="1" fill="#4B4B4B" /><rect x="3" y="0" width="1" height="1" fill="#262626" /><rect x="4" y="0" width="1" height="1" fill="#040404" /><rect x="5" y="0" width="1" height="1" fill="#111111" /><rect x="6" y="0" width="1" height="1" fill="#434343" /><rect x="7" y="0" width="1" height="1" fill="#C7C7C7" /><rect x="8" y="0" width="1" height="1" fill="#FFFFFF" /><rect x="9" y="0" width="1" height="1" fill="#BBBBBB" /><rect x="0" y="1" width="1" height="1" fill="#A3A3A3" /><rect x="1" y="1" width="1" height="1" fill="#9F9F9F" /><rect x="2" y="1" width="1" height="1" fill="#9C9C9C" /><rect x="3" y="1" width="1" height="1" fill="#717171" /><rect x="4" y="1" width="1" height="1" fill="#010101" /><rect x="5" y="1" width="1" height="1" fill="#252525" /><rect x="6" y="1" width="1" height="1" fill="#A1A1A1" /><rect x="7" y="1" width="1" height="1" fill="#B1B1B1" /><rect x="8" y="1" width="1" height="1" fill="#9A9A9A" /><rect x="9" y="1" width="1" height="1" fill="#9B9B9B" /><rect x="0" y="2" width="1" height="1" fill="#000000" /><rect x="1" y="2" width="1" height="1" fill="#000000" /><rect x="2" y="2" width="1" height="1" fill="#000000" /><rect x="3" y="2" width="1" height="1" fill="#000000" /><rect x="4" y="2" width="1" height="1" fill="#050505" /><rect x="5" y="2" width="1" height="1" fill="#020202" /><rect x="6" y="2" width="1" height="1" fill="#000000" /><rect x="7" y="2" width="1" height="1" fill="#000000" /><rect x="8" y="2" width="1" height="1" fill="#000000" /><rect x="9" y="2" width="1" height="1" fill="#000000" /><rect x="0" y="3" width="1" height="1" fill="#020202" /><rect x="1" y="3" width="1" height="1" fill="#020202" /><rect x="2" y="3" width="1" height="1" fill="#020202" /><rect x="3" y="3" width="1" height="1" fill="#030303" /><rect x="4" y="3" width="1" height="1" fill="#050505" /><rect x="5" y="3" width="1" height="1" fill="#010101" /><rect x="6" y="3" width="1" height="1" fill="#141414" /><rect x="7" y="3" width="1" height="1" fill="#545454" /><rect x="8" y="3" width="1" height="1" fill="#474747" /><rect x="9" y="3" width="1" height="1" fill="#4C4C4C" /><rect x="0" y="4" width="1" height="1" fill="#050505" /><rect x="1" y="4" width="1" height="1" fill="#050505" /><rect x="2" y="4" width="1" height="1" fill="#050505" /><rect x="3" y="4" width="1" height="1" fill="#050505" /><rect x="4" y="4" width="1" height="1" fill="#050505" /><rect x="5" y="4" width="1" height="1" fill="#000000" /><rect x="6" y="4" width="1" height="1" fill="#8D8D8D" /><rect x="7" y="4" width="1" height="1" fill="#808080" /><rect x="8" y="4" width="1" height="1" fill="#000000" /><rect x="9" y="4" width="1" height="1" fill="#2D2D2D" /><rect x="0" y="5" width="1" height="1" fill="#050505" /><rect x="1" y="5" width="1" height="1" fill="#050505" /><rect x="2" y="5" width="1" height="1" fill="#050505" /><rect x="3" y="5" width="1" height="1" fill="#050505" /><rect x="4" y="5" width="1" height="1" fill="#050505" /><rect x="5" y="5" width="1" height="1" fill="#000000" /><rect x="6" y="5" width="1" height="1" fill="#868686" /><rect x="7" y="5" width="1" height="1" fill="#757575" /><rect x="8" y="5" width="1" height="1" fill="#060606" /><rect x="9" y="5" width="1" height="1" fill="#7A7A7A" /><rect x="0" y="6" width="1" height="1" fill="#050204" /><rect x="1" y="6" width="1" height="1" fill="#050204" /><rect x="2" y="6" width="1" height="1" fill="#050204" /><rect x="3" y="6" width="1" height="1" fill="#050204" /><rect x="4" y="6" width="1" height="1" fill="#050204" /><rect x="5" y="6" width="1" height="1" fill="#020001" /><rect x="6" y="6" width="1" height="1" fill="#110F11" /><rect x="7" y="6" width="1" height="1" fill="#4C4A4B" /><rect x="8" y="6" width="1" height="1" fill="#504E4F" /><rect x="9" y="6" width="1" height="1" fill="#4C4A4B" /><rect x="0" y="7" width="1" height="1" fill="#060000" /><rect x="1" y="7" width="1" height="1" fill="#060000" /><rect x="2" y="7" width="1" height="1" fill="#060000" /><rect x="3" y="7" width="1" height="1" fill="#060000" /><rect x="4" y="7" width="1" height="1" fill="#060000" /><rect x="5" y="7" width="1" height="1" fill="#070000" /><rect x="6" y="7" width="1" height="1" fill="#000000" /><rect x="7" y="7" width="1" height="1" fill="#000000" /><rect x="8" y="7" width="1" height="1" fill="#1A0B12" /><rect x="9" y="7" width="1" height="1" fill="#000000" /><rect x="0" y="8" width="1" height="1" fill="#0C7A3D" /><rect x="1" y="8" width="1" height="1" fill="#0C7A3D" /><rect x="2" y="8" width="1" height="1" fill="#0C7A3D" /><rect x="3" y="8" width="1" height="1" fill="#0C7A3D" /><rect x="4" y="8" width="1" height="1" fill="#0C7A3D" /><rect x="5" y="8" width="1" height="1" fill="#0C7A3D" /><rect x="6" y="8" width="1" height="1" fill="#0C7A3E" /><rect x="7" y="8" width="1" height="1" fill="#09773B" /><rect x="8" y="8" width="1" height="1" fill="#057437" /><rect x="9" y="8" width="1" height="1" fill="#0A793C" /><rect x="0" y="9" width="1" height="1" fill="#033B1C" /><rect x="1" y="9" width="1" height="1" fill="#053C1E" /><rect x="2" y="9" width="1" height="1" fill="#073E20" /><rect x="3" y="9" width="1" height="1" fill="#073E20" /><rect x="4" y="9" width="1" height="1" fill="#023A1B" /><rect x="5" y="9" width="1" height="1" fill="#00381A" /><rect x="6" y="9" width="1" height="1" fill="#063D1F" /><rect x="7" y="9" width="1" height="1" fill="#073E20" /><rect x="8" y="9" width="1" height="1" fill="#073E20" /><rect x="9" y="9" width="1" height="1" fill="#033B1C" />
  </g>
</svg>