<svg width="800" height="1000" version="1.1" xmlns="http://www.w3.org/2000/svg" xmlns:xlink="http://www.w3.org/1999/xlink">
  <defs>
      <linearGradient id="Gradient2" x1="0" x2="1" y1="0" y2="1">
        <stop offset="0%" stop-color="#2d3c96"/>
        <stop offset="100%" stop-color="#d53392"/>
      </linearGradient>
  </defs>
  <rect x="10" y="10" width="780" height="980" fill="url(#Gradient2)" rx="50" ry="50" stroke="#ffd700" stroke-width="20"/>
  <text x="400" y="920" width="780" text-anchor="middle" style="font: bold 200px 'Helvetica Neue'; fill: #ffd700">01323</text>

  <g transform="translate(80 80) scale(64)">
<rect x="0" y="0" width="1" height="1" fill="#589374" /><rect x="1" y="0" width="1" height="1" fill="#000000" /><rect x="2" y="0" width="1" height="1" fill="#000000" /><rect x="3" y="0" width="1" height="1" fill="#040304" /><rect x="4" y="0" width="1" height="1" fill="#000000" /><rect x="5" y="0" width="1" height="1" fill="#000500" /><rect x="6" y="0" width="1" height="1" fill="#030000" /><rect x="7" y="0" width="1" height="1" fill="#000000" /><rect x="8" y="0" width="1" height="1" fill="#000000" /><rect x="9" y="0" width="1" height="1" fill="#191C1A" /><rect x="0" y="1" width="1" height="1" fill="#2B4838" /><rect x="1" y="1" width="1" height="1" fill="#304038" /><rect x="2" y="1" width="1" height="1" fill="#88B19B" /><rect x="3" y="1" width="1" height="1" fill="#060606" /><rect x="4" y="1" width="1" height="1" fill="#100F10" /><rect x="5" y="1" width="1" height="1" fill="#121011" /><rect x="6" y="1" width="1" height="1" fill="#050404" /><rect x="7" y="1" width="1" height="1" fill="#414445" /><rect x="8" y="1" width="1" height="1" fill="#0C0A0C" /><rect x="9" y="1" width="1" height="1" fill="#658D77" /><rect x="0" y="2" width="1" height="1" fill="#000000" /><rect x="1" y="2" width="1" height="1" fill="#2E4037" /><rect x="2" y="2" width="1" height="1" fill="#89B19D" /><rect x="3" y="2" width="1" height="1" fill="#000100" /><rect x="4" y="2" width="1" height="1" fill="#B5C1B9" /><rect x="5" y="2" width="1" height="1" fill="#9DA4A0" /><rect x="6" y="2" width="1" height="1" fill="#000001" /><rect x="7" y="2" width="1" height="1" fill="#E5F9EF" /><rect x="8" y="2" width="1" height="1" fill="#444C48" /><rect x="9" y="2" width="1" height="1" fill="#0D1412" /><rect x="0" y="3" width="1" height="1" fill="#000000" /><rect x="1" y="3" width="1" height="1" fill="#010000" /><rect x="2" y="3" width="1" height="1" fill="#000000" /><rect x="3" y="3" width="1" height="1" fill="#000000" /><rect x="4" y="3" width="1" height="1" fill="#454846" /><rect x="5" y="3" width="1" height="1" fill="#2E2F2E" /><rect x="6" y="3" width="1" height="1" fill="#020403" /><rect x="7" y="3" width="1" height="1" fill="#1A1B19" /><rect x="8" y="3" width="1" height="1" fill="#0E0F0E" /><rect x="9" y="3" width="1" height="1" fill="#000000" /><rect x="0" y="4" width="1" height="1" fill="#4B4B4B" /><rect x="1" y="4" width="1" height="1" fill="#717171" /><rect x="2" y="4" width="1" height="1" fill="#3B3B3B" /><rect x="3" y="4" width="1" height="1" fill="#2C2C2C" /><rect x="4" y="4" width="1" height="1" fill="#514F50" /><rect x="5" y="4" width="1" height="1" fill="#201F1F" /><rect x="6" y="4" width="1" height="1" fill="#000000" /><rect x="7" y="4" width="1" height="1" fill="#000000" /><rect x="8" y="4" width="1" height="1" fill="#000000" /><rect x="9" y="4" width="1" height="1" fill="#060606" /><rect x="0" y="5" width="1" height="1" fill="#5E5E5E" /><rect x="1" y="5" width="1" height="1" fill="#626262" /><rect x="2" y="5" width="1" height="1" fill="#8A8A8A" /><rect x="3" y="5" width="1" height="1" fill="#7A7A7A" /><rect x="4" y="5" width="1" height="1" fill="#202020" /><rect x="5" y="5" width="1" height="1" fill="#222222" /><rect x="6" y="5" width="1" height="1" fill="#111111" /><rect x="7" y="5" width="1" height="1" fill="#040404" /><rect x="8" y="5" width="1" height="1" fill="#050505" /><rect x="9" y="5" width="1" height="1" fill="#050505" /><rect x="0" y="6" width="1" height="1" fill="#4B494A" /><rect x="1" y="6" width="1" height="1" fill="#545254" /><rect x="2" y="6" width="1" height="1" fill="#575556" /><rect x="3" y="6" width="1" height="1" fill="#3D3B3D" /><rect x="4" y="6" width="1" height="1" fill="#413F40" /><rect x="5" y="6" width="1" height="1" fill="#403E40" /><rect x="6" y="6" width="1" height="1" fill="#383638" /><rect x="7" y="6" width="1" height="1" fill="#010000" /><rect x="8" y="6" width="1" height="1" fill="#050204" /><rect x="9" y="6" width="1" height="1" fill="#050204" /><rect x="0" y="7" width="1" height="1" fill="#050000" /><rect x="1" y="7" width="1" height="1" fill="#060000" /><rect x="2" y="7" width="1" height="1" fill="#000000" /><rect x="3" y="7" width="1" height="1" fill="#000000" /><rect x="4" y="7" width="1" height="1" fill="#13040B" /><rect x="5" y="7" width="1" height="1" fill="#080001" /><rect x="6" y="7" width="1" height="1" fill="#050000" /><rect x="7" y="7" width="1" height="1" fill="#060000" /><rect x="8" y="7" width="1" height="1" fill="#060000" /><rect x="9" y="7" width="1" height="1" fill="#060000" /><rect x="0" y="8" width="1" height="1" fill="#09773A" /><rect x="1" y="8" width="1" height="1" fill="#08763A" /><rect x="2" y="8" width="1" height="1" fill="#09773A" /><rect x="3" y="8" width="1" height="1" fill="#0A783C" /><rect x="4" y="8" width="1" height="1" fill="#067538" /><rect x="5" y="8" width="1" height="1" fill="#09773B" /><rect x="6" y="8" width="1" height="1" fill="#0A783C" /><rect x="7" y="8" width="1" height="1" fill="#0C7A3E" /><rect x="8" y="8" width="1" height="1" fill="#0C7A3D" /><rect x="9" y="8" width="1" height="1" fill="#0C7A3D" /><rect x="0" y="9" width="1" height="1" fill="#073E20" /><rect x="1" y="9" width="1" height="1" fill="#033A1C" /><rect x="2" y="9" width="1" height="1" fill="#043C1D" /><rect x="3" y="9" width="1" height="1" fill="#073E20" /><rect x="4" y="9" width="1" height="1" fill="#073E20" /><rect x="5" y="9" width="1" height="1" fill="#053D1E" /><rect x="6" y="9" width="1" height="1" fill="#063D1F" /><rect x="7" y="9" width="1" height="1" fill="#073E20" /><rect x="8" y="9" width="1" height="1" fill="#073E20" /><rect x="9" y="9" width="1" height="1" fill="#043B1D" />
  </g>
</svg>