<svg width="800" height="1000" xmlns="http://www.w3.org/2000/svg"><defs><linearGradient id="g" x1="0" x2="1" y1="0" y2="1"><stop offset="0%" stop-color="#2d3c96"/><stop offset="100%" stop-color="#d53392"/></linearGradient></defs><rect x="10" y="10" width="780" height="980" fill="url(#g)" rx="50" ry="50" stroke="gold" stroke-width="20"/><text x="400" y="920" width="780" text-anchor="middle" style="font:bold 200px 'Helvetica Neue';fill:gold">01326</text><g transform="translate(80 80) scale(64)"><rect x="0" y="0" width="1" height="1" fill="#fae39f" /><rect x="0" y="1" width="1" height="1" fill="#f0e395" /><rect x="0" y="2" width="1" height="1" fill="#f1f09e" /><rect x="0" y="3" width="1" height="1" fill="#f7fca2" /><rect x="0" y="4" width="1" height="1" fill="#f7f793" /><rect x="0" y="5" width="1" height="1" fill="#fbf992" /><rect x="0" y="6" width="1" height="1" fill="#f8f594" /><rect x="0" y="7" width="1" height="1" fill="#f0f797" /><rect x="0" y="8" width="1" height="1" fill="#e0fb9a" /><rect x="0" y="9" width="1" height="1" fill="#cffe9e" /><rect x="1" y="0" width="1" height="1" fill="#f8e2b0" /><rect x="1" y="1" width="1" height="1" fill="#f3e4a9" /><rect x="1" y="2" width="1" height="1" fill="#ececac" /><rect x="1" y="3" width="1" height="1" fill="#f0f2b0" /><rect x="1" y="4" width="1" height="1" fill="#f3f0ab" /><rect x="1" y="5" width="1" height="1" fill="#f7f0aa" /><rect x="1" y="6" width="1" height="1" fill="#f1f1ab" /><rect x="1" y="7" width="1" height="1" fill="#ecf2ac" /><rect x="1" y="8" width="1" height="1" fill="#e4f3ae" /><rect x="1" y="9" width="1" height="1" fill="#daf5b2" /><rect x="2" y="0" width="1" height="1" fill="#8f7c6e" /><rect x="2" y="1" width="1" height="1" fill="#8d8167" /><rect x="2" y="2" width="1" height="1" fill="#848367" /><rect x="2" y="3" width="1" height="1" fill="#81836d" /><rect x="2" y="4" width="1" height="1" fill="#898079" /><rect x="2" y="5" width="1" height="1" fill="#89807b" /><rect x="2" y="6" width="1" height="1" fill="#868475" /><rect x="2" y="7" width="1" height="1" fill="#858472" /><rect x="2" y="8" width="1" height="1" fill="#897f75" /><rect x="2" y="9" width="1" height="1" fill="#8a7d75" /><rect x="3" y="0" width="1" height="1" fill="#d0bfc9" /><rect x="3" y="1" width="1" height="1" fill="#d2c7c5" /><rect x="3" y="2" width="1" height="1" fill="#c7c8c2" /><rect x="3" y="3" width="1" height="1" fill="#c2c3c5" /><rect x="3" y="4" width="1" height="1" fill="#ccc2da" /><rect x="3" y="5" width="1" height="1" fill="#cbbeda" /><rect x="3" y="6" width="1" height="1" fill="#c7c3d2" /><rect x="3" y="7" width="1" height="1" fill="#c9c3cf" /><rect x="3" y="8" width="1" height="1" fill="#d1bed1" /><rect x="3" y="9" width="1" height="1" fill="#d5bcd1" /><rect x="4" y="0" width="1" height="1" fill="#ccc1d1" /><rect x="4" y="1" width="1" height="1" fill="#cdc6ce" /><rect x="4" y="2" width="1" height="1" fill="#c7cbcc" /><rect x="4" y="3" width="1" height="1" fill="#c3c6cb" /><rect x="4" y="4" width="1" height="1" fill="#ccc6de" /><rect x="4" y="5" width="1" height="1" fill="#ccbfdd" /><rect x="4" y="6" width="1" height="1" fill="#ccc3d8" /><rect x="4" y="7" width="1" height="1" fill="#ccc3d6" /><rect x="4" y="8" width="1" height="1" fill="#cec3d4" /><rect x="4" y="9" width="1" height="1" fill="#cfc2d4" /><rect x="5" y="0" width="1" height="1" fill="#9a92a7" /><rect x="5" y="1" width="1" height="1" fill="#97949f" /><rect x="5" y="2" width="1" height="1" fill="#979c9f" /><rect x="5" y="3" width="1" height="1" fill="#93969b" /><rect x="5" y="4" width="1" height="1" fill="#9f96ab" /><rect x="5" y="5" width="1" height="1" fill="#9c8ea8" /><rect x="5" y="6" width="1" height="1" fill="#9e91a5" /><rect x="5" y="7" width="1" height="1" fill="#9b92a3" /><rect x="5" y="8" width="1" height="1" fill="#9795a2" /><rect x="5" y="9" width="1" height="1" fill="#9496a2" /><rect x="6" y="0" width="1" height="1" fill="#c0bad2" /><rect x="6" y="1" width="1" height="1" fill="#bab6c4" /><rect x="6" y="2" width="1" height="1" fill="#bdc1c2" /><rect x="6" y="3" width="1" height="1" fill="#babbbd" /><rect x="6" y="4" width="1" height="1" fill="#c4bac5" /><rect x="6" y="5" width="1" height="1" fill="#c2b4c1" /><rect x="6" y="6" width="1" height="1" fill="#c5b7c4" /><rect x="6" y="7" width="1" height="1" fill="#c0b8c3" /><rect x="6" y="8" width="1" height="1" fill="#b9bec4" /><rect x="6" y="9" width="1" height="1" fill="#b5c0c4" /><rect x="7" y="0" width="1" height="1" fill="#e7e2f8" /><rect x="7" y="1" width="1" height="1" fill="#dfd9e5" /><rect x="7" y="2" width="1" height="1" fill="#e2e3e5" /><rect x="7" y="3" width="1" height="1" fill="#dcdcde" /><rect x="7" y="4" width="1" height="1" fill="#e5dbe4" /><rect x="7" y="5" width="1" height="1" fill="#e4d8e4" /><rect x="7" y="6" width="1" height="1" fill="#e7dbe7" /><rect x="7" y="7" width="1" height="1" fill="#e2dce6" /><rect x="7" y="8" width="1" height="1" fill="#dce1e7" /><rect x="7" y="9" width="1" height="1" fill="#d8e1e6" /><rect x="8" y="0" width="1" height="1" fill="#ccc3d8" /><rect x="8" y="1" width="1" height="1" fill="#c6bcc5" /><rect x="8" y="2" width="1" height="1" fill="#cccacd" /><rect x="8" y="3" width="1" height="1" fill="#c4c2c7" /><rect x="8" y="4" width="1" height="1" fill="#d5cada" /><rect x="8" y="5" width="1" height="1" fill="#cdbfd6" /><rect x="8" y="6" width="1" height="1" fill="#c9c5d6" /><rect x="8" y="7" width="1" height="1" fill="#cfcede" /><rect x="8" y="8" width="1" height="1" fill="#c7c6d4" /><rect x="8" y="9" width="1" height="1" fill="#cdc9d8" /><rect x="9" y="0" width="1" height="1" fill="#73677d" /><rect x="9" y="1" width="1" height="1" fill="#928692" /><rect x="9" y="2" width="1" height="1" fill="#919095" /><rect x="9" y="3" width="1" height="1" fill="#8d8c94" /><rect x="9" y="4" width="1" height="1" fill="#958c9f" /><rect x="9" y="5" width="1" height="1" fill="#90839d" /><rect x="9" y="6" width="1" height="1" fill="#8f879f" /><rect x="9" y="7" width="1" height="1" fill="#908ca3" /><rect x="9" y="8" width="1" height="1" fill="#87859a" /><rect x="9" y="9" width="1" height="1" fill="#79748a" /></g></svg>