<svg width="800" height="1000" version="1.1" xmlns="http://www.w3.org/2000/svg" xmlns:xlink="http://www.w3.org/1999/xlink">
  <defs>
      <linearGradient id="Gradient2" x1="0" x2="1" y1="0" y2="1">
        <stop offset="0%" stop-color="#2d3c96"/>
        <stop offset="100%" stop-color="#d53392"/>
      </linearGradient>
  </defs>
  <rect x="10" y="10" width="780" height="980" fill="url(#Gradient2)" rx="50" ry="50" stroke="#ffd700" stroke-width="20"/>
  <text x="400" y="920" width="780" text-anchor="middle" style="font: bold 200px 'Helvetica Neue'; fill: #ffd700">01321</text>

  <g transform="translate(80 80) scale(64)">
<rect x="0" y="0" width="1" height="1" fill="#373737" />
,<rect x="0" y="1" width="1" height="1" fill="#979797" />
,<rect x="0" y="2" width="1" height="1" fill="#000000" />
,<rect x="0" y="3" width="1" height="1" fill="#010101" />
,<rect x="0" y="4" width="1" height="1" fill="#1f1f1f" />
,<rect x="0" y="5" width="1" height="1" fill="#444444" />
,<rect x="0" y="6" width="1" height="1" fill="#4f4d4e" />
,<rect x="0" y="7" width="1" height="1" fill="#000000" />
,<rect x="0" y="8" width="1" height="1" fill="#09773b" />
,<rect x="0" y="9" width="1" height="1" fill="#033b1c" />
,<rect x="1" y="0" width="1" height="1" fill="#070707" />
,<rect x="1" y="1" width="1" height="1" fill="#121212" />
,<rect x="1" y="2" width="1" height="1" fill="#000000" />
,<rect x="1" y="3" width="1" height="1" fill="#090909" />
,<rect x="1" y="4" width="1" height="1" fill="#686868" />
,<rect x="1" y="5" width="1" height="1" fill="#949494" />
,<rect x="1" y="6" width="1" height="1" fill="#848284" />
,<rect x="1" y="7" width="1" height="1" fill="#020000" />
,<rect x="1" y="8" width="1" height="1" fill="#067438" />
,<rect x="1" y="9" width="1" height="1" fill="#053c1e" />
,<rect x="2" y="0" width="1" height="1" fill="#101010" />
,<rect x="2" y="1" width="1" height="1" fill="#2a2a2a" />
,<rect x="2" y="2" width="1" height="1" fill="#000000" />
,<rect x="2" y="3" width="1" height="1" fill="#000000" />
,<rect x="2" y="4" width="1" height="1" fill="#2a2a2a" />
,<rect x="2" y="5" width="1" height="1" fill="#5e5e5e" />
,<rect x="2" y="6" width="1" height="1" fill="#484648" />
,<rect x="2" y="7" width="1" height="1" fill="#020000" />
,<rect x="2" y="8" width="1" height="1" fill="#09773b" />
,<rect x="2" y="9" width="1" height="1" fill="#073e20" />
,<rect x="3" y="0" width="1" height="1" fill="#494949" />
,<rect x="3" y="1" width="1" height="1" fill="#a6a6a6" />
,<rect x="3" y="2" width="1" height="1" fill="#000000" />
,<rect x="3" y="3" width="1" height="1" fill="#000000" />
,<rect x="3" y="4" width="1" height="1" fill="#3b3b3b" />
,<rect x="3" y="5" width="1" height="1" fill="#616161" />
,<rect x="3" y="6" width="1" height="1" fill="#656364" />
,<rect x="3" y="7" width="1" height="1" fill="#090001" />
,<rect x="3" y="8" width="1" height="1" fill="#077539" />
,<rect x="3" y="9" width="1" height="1" fill="#053c1e" />
,<rect x="4" y="0" width="1" height="1" fill="#fbfbfb" />
,<rect x="4" y="1" width="1" height="1" fill="#afafaf" />
,<rect x="4" y="2" width="1" height="1" fill="#000000" />
,<rect x="4" y="3" width="1" height="1" fill="#090909" />
,<rect x="4" y="4" width="1" height="1" fill="#747474" />
,<rect x="4" y="5" width="1" height="1" fill="#424242" />
,<rect x="4" y="6" width="1" height="1" fill="#363435" />
,<rect x="4" y="7" width="1" height="1" fill="#0a0002" />
,<rect x="4" y="8" width="1" height="1" fill="#09773b" />
,<rect x="4" y="9" width="1" height="1" fill="#033b1c" />
,<rect x="5" y="0" width="1" height="1" fill="#ffffff" />
,<rect x="5" y="1" width="1" height="1" fill="#a3a3a3" />
,<rect x="5" y="2" width="1" height="1" fill="#000000" />
,<rect x="5" y="3" width="1" height="1" fill="#000000" />
,<rect x="5" y="4" width="1" height="1" fill="#535353" />
,<rect x="5" y="5" width="1" height="1" fill="#767676" />
,<rect x="5" y="6" width="1" height="1" fill="#292729" />
,<rect x="5" y="7" width="1" height="1" fill="#000000" />
,<rect x="5" y="8" width="1" height="1" fill="#0c7a3d" />
,<rect x="5" y="9" width="1" height="1" fill="#053c1e" />
,<rect x="6" y="0" width="1" height="1" fill="#898989" />
,<rect x="6" y="1" width="1" height="1" fill="#9c9c9c" />
,<rect x="6" y="2" width="1" height="1" fill="#000000" />
,<rect x="6" y="3" width="1" height="1" fill="#030303" />
,<rect x="6" y="4" width="1" height="1" fill="#3c3c3c" />
,<rect x="6" y="5" width="1" height="1" fill="#575757" />
,<rect x="6" y="6" width="1" height="1" fill="#696768" />
,<rect x="6" y="7" width="1" height="1" fill="#080000" />
,<rect x="6" y="8" width="1" height="1" fill="#077539" />
,<rect x="6" y="9" width="1" height="1" fill="#043b1d" />
,<rect x="7" y="0" width="1" height="1" fill="#2f2f2f" />
,<rect x="7" y="1" width="1" height="1" fill="#767676" />
,<rect x="7" y="2" width="1" height="1" fill="#111111" />
,<rect x="7" y="3" width="1" height="1" fill="#8c8c8c" />
,<rect x="7" y="4" width="1" height="1" fill="#6d6d6d" />
,<rect x="7" y="5" width="1" height="1" fill="#343434" />
,<rect x="7" y="6" width="1" height="1" fill="#5a585a" />
,<rect x="7" y="7" width="1" height="1" fill="#0a0002" />
,<rect x="7" y="8" width="1" height="1" fill="#077639" />
,<rect x="7" y="9" width="1" height="1" fill="#033b1c" />
,<rect x="8" y="0" width="1" height="1" fill="#040404" />
,<rect x="8" y="1" width="1" height="1" fill="#000000" />
,<rect x="8" y="2" width="1" height="1" fill="#090909" />
,<rect x="8" y="3" width="1" height="1" fill="#202020" />
,<rect x="8" y="4" width="1" height="1" fill="#595959" />
,<rect x="8" y="5" width="1" height="1" fill="#b8b8b8" />
,<rect x="8" y="6" width="1" height="1" fill="#4f4d4e" />
,<rect x="8" y="7" width="1" height="1" fill="#000000" />
,<rect x="8" y="8" width="1" height="1" fill="#0a793c" />
,<rect x="8" y="9" width="1" height="1" fill="#033b1c" />
,<rect x="9" y="0" width="1" height="1" fill="#1f1f1f" />
,<rect x="9" y="1" width="1" height="1" fill="#525252" />
,<rect x="9" y="2" width="1" height="1" fill="#000000" />
,<rect x="9" y="3" width="1" height="1" fill="#000000" />
,<rect x="9" y="4" width="1" height="1" fill="#505050" />
,<rect x="9" y="5" width="1" height="1" fill="#8b8b8b" />
,<rect x="9" y="6" width="1" height="1" fill="#575556" />
,<rect x="9" y="7" width="1" height="1" fill="#020000" />
,<rect x="9" y="8" width="1" height="1" fill="#08763a" />
,<rect x="9" y="9" width="1" height="1" fill="#043c1d" />

  </g>
</svg>