<svg width="800" height="1000" version="1.1" xmlns="http://www.w3.org/2000/svg" xmlns:xlink="http://www.w3.org/1999/xlink">
  <defs>
      <linearGradient id="Gradient2" x1="0" x2="1" y1="0" y2="1">
        <stop offset="0%" stop-color="#2d3c96"/>
        <stop offset="100%" stop-color="#d53392"/>
      </linearGradient>
  </defs>
  <rect x="10" y="10" width="780" height="980" fill="url(#Gradient2)" rx="50" ry="50" stroke="#ffd700" stroke-width="20"/>
  <text x="400" y="920" width="780" text-anchor="middle" style="font: bold 200px 'Helvetica Neue'; fill: #ffd700">01328</text>

  <g transform="translate(80 80) scale(64)">
<rect x="0" y="0" width="1" height="1" fill="#7b7496" />
,<rect x="0" y="1" width="1" height="1" fill="#8791aa" />
,<rect x="0" y="2" width="1" height="1" fill="#89b7b5" />
,<rect x="0" y="3" width="1" height="1" fill="#8bcdbf" />
,<rect x="0" y="4" width="1" height="1" fill="#89cfc4" />
,<rect x="0" y="5" width="1" height="1" fill="#88d6c8" />
,<rect x="0" y="6" width="1" height="1" fill="#84ddcb" />
,<rect x="0" y="7" width="1" height="1" fill="#78d5c3" />
,<rect x="0" y="8" width="1" height="1" fill="#86d9cf" />
,<rect x="0" y="9" width="1" height="1" fill="#80c8c5" />
,<rect x="1" y="0" width="1" height="1" fill="#7e7497" />
,<rect x="1" y="1" width="1" height="1" fill="#8a90aa" />
,<rect x="1" y="2" width="1" height="1" fill="#8ab2b2" />
,<rect x="1" y="3" width="1" height="1" fill="#99d3c7" />
,<rect x="1" y="4" width="1" height="1" fill="#9cd9d1" />
,<rect x="1" y="5" width="1" height="1" fill="#8dd5c9" />
,<rect x="1" y="6" width="1" height="1" fill="#78d5c0" />
,<rect x="1" y="7" width="1" height="1" fill="#80dfc9" />
,<rect x="1" y="8" width="1" height="1" fill="#7bcdbf" />
,<rect x="1" y="9" width="1" height="1" fill="#599b99" />
,<rect x="2" y="0" width="1" height="1" fill="#827498" />
,<rect x="2" y="1" width="1" height="1" fill="#898aa6" />
,<rect x="2" y="2" width="1" height="1" fill="#8dafb1" />
,<rect x="2" y="3" width="1" height="1" fill="#b5e8df" />
,<rect x="2" y="4" width="1" height="1" fill="#c4f7f2" />
,<rect x="2" y="5" width="1" height="1" fill="#9bddd1" />
,<rect x="2" y="6" width="1" height="1" fill="#74d2b8" />
,<rect x="2" y="7" width="1" height="1" fill="#7fddc5" />
,<rect x="2" y="8" width="1" height="1" fill="#47897f" />
,<rect x="2" y="9" width="1" height="1" fill="#add6dc" />
,<rect x="3" y="0" width="1" height="1" fill="#85759a" />
,<rect x="3" y="1" width="1" height="1" fill="#8787a3" />
,<rect x="3" y="2" width="1" height="1" fill="#92afb3" />
,<rect x="3" y="3" width="1" height="1" fill="#d2fff8" />
,<rect x="3" y="4" width="1" height="1" fill="#e1ffff" />
,<rect x="3" y="5" width="1" height="1" fill="#ace8e0" />
,<rect x="3" y="6" width="1" height="1" fill="#85ddc5" />
,<rect x="3" y="7" width="1" height="1" fill="#7ed6c0" />
,<rect x="3" y="8" width="1" height="1" fill="#7ab9ae" />
,<rect x="3" y="9" width="1" height="1" fill="#60898f" />
,<rect x="4" y="0" width="1" height="1" fill="#7d6f93" />
,<rect x="4" y="1" width="1" height="1" fill="#908daa" />
,<rect x="4" y="2" width="1" height="1" fill="#9ab6ba" />
,<rect x="4" y="3" width="1" height="1" fill="#d6fff9" />
,<rect x="4" y="4" width="1" height="1" fill="#ddffff" />
,<rect x="4" y="5" width="1" height="1" fill="#b4e7e2" />
,<rect x="4" y="6" width="1" height="1" fill="#8dd6c5" />
,<rect x="4" y="7" width="1" height="1" fill="#86d4c4" />
,<rect x="4" y="8" width="1" height="1" fill="#8cd5ca" />
,<rect x="4" y="9" width="1" height="1" fill="#88c8c7" />
,<rect x="5" y="0" width="1" height="1" fill="#887a9e" />
,<rect x="5" y="1" width="1" height="1" fill="#85809e" />
,<rect x="5" y="2" width="1" height="1" fill="#8fabaf" />
,<rect x="5" y="3" width="1" height="1" fill="#dcffff" />
,<rect x="5" y="4" width="1" height="1" fill="#e2feff" />
,<rect x="5" y="5" width="1" height="1" fill="#a6d4d2" />
,<rect x="5" y="6" width="1" height="1" fill="#8fd0c8" />
,<rect x="5" y="7" width="1" height="1" fill="#7eccbf" />
,<rect x="5" y="8" width="1" height="1" fill="#89dfd4" />
,<rect x="5" y="9" width="1" height="1" fill="#84d6d0" />
,<rect x="6" y="0" width="1" height="1" fill="#807296" />
,<rect x="6" y="1" width="1" height="1" fill="#8b8ba7" />
,<rect x="6" y="2" width="1" height="1" fill="#9bb8bc" />
,<rect x="6" y="3" width="1" height="1" fill="#d2fdf6" />
,<rect x="6" y="4" width="1" height="1" fill="#ddffff" />
,<rect x="6" y="5" width="1" height="1" fill="#aee0df" />
,<rect x="6" y="6" width="1" height="1" fill="#8dcfcd" />
,<rect x="6" y="7" width="1" height="1" fill="#64b5af" />
,<rect x="6" y="8" width="1" height="1" fill="#76dad2" />
,<rect x="6" y="9" width="1" height="1" fill="#3ba098" />
,<rect x="7" y="0" width="1" height="1" fill="#85779b" />
,<rect x="7" y="1" width="1" height="1" fill="#83839f" />
,<rect x="7" y="2" width="1" height="1" fill="#92b1b3" />
,<rect x="7" y="3" width="1" height="1" fill="#caf9f1" />
,<rect x="7" y="4" width="1" height="1" fill="#dffffe" />
,<rect x="7" y="5" width="1" height="1" fill="#a5d7d8" />
,<rect x="7" y="6" width="1" height="1" fill="#7cb3ba" />
,<rect x="7" y="7" width="1" height="1" fill="#387f83" />
,<rect x="7" y="8" width="1" height="1" fill="#50b0ae" />
,<rect x="7" y="9" width="1" height="1" fill="#35a49d" />
,<rect x="8" y="0" width="1" height="1" fill="#83779b" />
,<rect x="8" y="1" width="1" height="1" fill="#8485a1" />
,<rect x="8" y="2" width="1" height="1" fill="#94b6b8" />
,<rect x="8" y="3" width="1" height="1" fill="#b8ebe2" />
,<rect x="8" y="4" width="1" height="1" fill="#d5fffd" />
,<rect x="8" y="5" width="1" height="1" fill="#a8d5da" />
,<rect x="8" y="6" width="1" height="1" fill="#4a6880" />
,<rect x="8" y="7" width="1" height="1" fill="#608ea5" />
,<rect x="8" y="8" width="1" height="1" fill="#348f94" />
,<rect x="8" y="9" width="1" height="1" fill="#59ccc5" />
,<rect x="9" y="0" width="1" height="1" fill="#796d93" />
,<rect x="9" y="1" width="1" height="1" fill="#8286a1" />
,<rect x="9" y="2" width="1" height="1" fill="#90b6b7" />
,<rect x="9" y="3" width="1" height="1" fill="#92cabf" />
,<rect x="9" y="4" width="1" height="1" fill="#aee7e0" />
,<rect x="9" y="5" width="1" height="1" fill="#90bbc2" />
,<rect x="9" y="6" width="1" height="1" fill="#3d476b" />
,<rect x="9" y="7" width="1" height="1" fill="#8699c1" />
,<rect x="9" y="8" width="1" height="1" fill="#5a9faf" />
,<rect x="9" y="9" width="1" height="1" fill="#74d6d9" />

  </g>
</svg>