<svg width="800" height="1000" version="1.1" xmlns="http://www.w3.org/2000/svg" xmlns:xlink="http://www.w3.org/1999/xlink">
  <defs>
      <linearGradient id="Gradient2" x1="0" x2="1" y1="0" y2="1">
        <stop offset="0%" stop-color="#2d3c96"/>
        <stop offset="100%" stop-color="#d53392"/>
      </linearGradient>
  </defs>
  <rect x="10" y="10" width="780" height="980" fill="url(#Gradient2)" rx="50" ry="50" stroke="#ffd700" stroke-width="20"/>
  <text x="400" y="920" width="780" text-anchor="middle" style="font: bold 200px 'Helvetica Neue'; fill: #ffd700">01329</text>

  <g transform="translate(80 80) scale(64)">
<rect x="0" y="0" width="1" height="1" fill="#7F7F9B" /><rect x="1" y="0" width="1" height="1" fill="#797B92" /><rect x="2" y="0" width="1" height="1" fill="#777A8D" /><rect x="3" y="0" width="1" height="1" fill="#838697" /><rect x="4" y="0" width="1" height="1" fill="#727085" /><rect x="5" y="0" width="1" height="1" fill="#B5B1C2" /><rect x="6" y="0" width="1" height="1" fill="#E0D4E0" /><rect x="7" y="0" width="1" height="1" fill="#C3B3B3" /><rect x="8" y="0" width="1" height="1" fill="#B09E8A" /><rect x="9" y="0" width="1" height="1" fill="#F1DCBF" /><rect x="0" y="1" width="1" height="1" fill="#7C879B" /><rect x="1" y="1" width="1" height="1" fill="#7D8598" /><rect x="2" y="1" width="1" height="1" fill="#949BAB" /><rect x="3" y="1" width="1" height="1" fill="#B9BCCD" /><rect x="4" y="1" width="1" height="1" fill="#868499" /><rect x="5" y="1" width="1" height="1" fill="#BFBBCC" /><rect x="6" y="1" width="1" height="1" fill="#E6DAE4" /><rect x="7" y="1" width="1" height="1" fill="#C6B7B4" /><rect x="8" y="1" width="1" height="1" fill="#B2A289" /><rect x="9" y="1" width="1" height="1" fill="#F1DEBD" /><rect x="0" y="2" width="1" height="1" fill="#9ABBC0" /><rect x="1" y="2" width="1" height="1" fill="#9CB7BE" /><rect x="2" y="2" width="1" height="1" fill="#6D7B86" /><rect x="3" y="2" width="1" height="1" fill="#B6BCCC" /><rect x="4" y="2" width="1" height="1" fill="#89879C" /><rect x="5" y="2" width="1" height="1" fill="#C2BBCD" /><rect x="6" y="2" width="1" height="1" fill="#E0D6DF" /><rect x="7" y="2" width="1" height="1" fill="#C0B3AB" /><rect x="8" y="2" width="1" height="1" fill="#B3A686" /><rect x="9" y="2" width="1" height="1" fill="#FAEDC1" /><rect x="0" y="3" width="1" height="1" fill="#B8E2E1" /><rect x="1" y="3" width="1" height="1" fill="#A6C8CA" /><rect x="2" y="3" width="1" height="1" fill="#6B7C86" /><rect x="3" y="3" width="1" height="1" fill="#BFC2D3" /><rect x="4" y="3" width="1" height="1" fill="#8C8AA0" /><rect x="5" y="3" width="1" height="1" fill="#C6BED3" /><rect x="6" y="3" width="1" height="1" fill="#E2D8E1" /><rect x="7" y="3" width="1" height="1" fill="#BBB1A7" /><rect x="8" y="3" width="1" height="1" fill="#ABA37E" /><rect x="9" y="3" width="1" height="1" fill="#F4ECBB" /><rect x="0" y="4" width="1" height="1" fill="#D2FBFD" /><rect x="1" y="4" width="1" height="1" fill="#BDDEE3" /><rect x="2" y="4" width="1" height="1" fill="#6E7C89" /><rect x="3" y="4" width="1" height="1" fill="#B9BACE" /><rect x="4" y="4" width="1" height="1" fill="#868299" /><rect x="5" y="4" width="1" height="1" fill="#C4BCD1" /><rect x="6" y="4" width="1" height="1" fill="#E6DCE5" /><rect x="7" y="4" width="1" height="1" fill="#C2BAAF" /><rect x="8" y="4" width="1" height="1" fill="#B1AE85" /><rect x="9" y="4" width="1" height="1" fill="#FBF8C1" /><rect x="0" y="5" width="1" height="1" fill="#9BB7C5" /><rect x="1" y="5" width="1" height="1" fill="#8093A4" /><rect x="2" y="5" width="1" height="1" fill="#666881" /><rect x="3" y="5" width="1" height="1" fill="#B6B0CC" /><rect x="4" y="5" width="1" height="1" fill="#8E85A0" /><rect x="5" y="5" width="1" height="1" fill="#C8BFD4" /><rect x="6" y="5" width="1" height="1" fill="#E3D9E4" /><rect x="7" y="5" width="1" height="1" fill="#BCB3AA" /><rect x="8" y="5" width="1" height="1" fill="#ABA87F" /><rect x="9" y="5" width="1" height="1" fill="#F4F5BC" /><rect x="0" y="6" width="1" height="1" fill="#505076" /><rect x="1" y="6" width="1" height="1" fill="#706992" /><rect x="2" y="6" width="1" height="1" fill="#73628C" /><rect x="3" y="6" width="1" height="1" fill="#6B567D" /><rect x="4" y="6" width="1" height="1" fill="#7C6E8F" /><rect x="5" y="6" width="1" height="1" fill="#C9BCD6" /><rect x="6" y="6" width="1" height="1" fill="#EADCED" /><rect x="7" y="6" width="1" height="1" fill="#BDB2AE" /><rect x="8" y="6" width="1" height="1" fill="#A5A17B" /><rect x="9" y="6" width="1" height="1" fill="#EEEFB6" /><rect x="0" y="7" width="1" height="1" fill="#8F8CB7" /><rect x="1" y="7" width="1" height="1" fill="#8178A3" /><rect x="2" y="7" width="1" height="1" fill="#66507E" /><rect x="3" y="7" width="1" height="1" fill="#A38CB6" /><rect x="4" y="7" width="1" height="1" fill="#8B7B9F" /><rect x="5" y="7" width="1" height="1" fill="#CBBED8" /><rect x="6" y="7" width="1" height="1" fill="#E2D3E6" /><rect x="7" y="7" width="1" height="1" fill="#BBB1AF" /><rect x="8" y="7" width="1" height="1" fill="#ADAD89" /><rect x="9" y="7" width="1" height="1" fill="#F2F7C1" /><rect x="0" y="8" width="1" height="1" fill="#6C819E" /><rect x="1" y="8" width="1" height="1" fill="#7A85A3" /><rect x="2" y="8" width="1" height="1" fill="#53496C" /><rect x="3" y="8" width="1" height="1" fill="#79688C" /><rect x="4" y="8" width="1" height="1" fill="#5B5070" /><rect x="5" y="8" width="1" height="1" fill="#B9B0CB" /><rect x="6" y="8" width="1" height="1" fill="#E6DAEE" /><rect x="7" y="8" width="1" height="1" fill="#BDB7B7" /><rect x="8" y="8" width="1" height="1" fill="#A4A887" /><rect x="9" y="8" width="1" height="1" fill="#E9F1C0" /><rect x="0" y="9" width="1" height="1" fill="#7090A7" /><rect x="1" y="9" width="1" height="1" fill="#E5F9FF" /><rect x="2" y="9" width="1" height="1" fill="#F9F4FF" /><rect x="3" y="9" width="1" height="1" fill="#9082A3" /><rect x="4" y="9" width="1" height="1" fill="#5A5170" /><rect x="5" y="9" width="1" height="1" fill="#B0AAC4" /><rect x="6" y="9" width="1" height="1" fill="#E4DBEE" /><rect x="7" y="9" width="1" height="1" fill="#BEBABB" /><rect x="8" y="9" width="1" height="1" fill="#A1A688" /><rect x="9" y="9" width="1" height="1" fill="#E6EFC2" />
  </g>
</svg>