<svg width="800" height="1000" version="1.1" xmlns="http://www.w3.org/2000/svg" xmlns:xlink="http://www.w3.org/1999/xlink">
  <defs>
      <linearGradient id="Gradient2" x1="0" x2="1" y1="0" y2="1">
        <stop offset="0%" stop-color="#2d3c96"/>
        <stop offset="100%" stop-color="#d53392"/>
      </linearGradient>
  </defs>
  <rect x="10" y="10" width="780" height="980" fill="url(#Gradient2)" rx="50" ry="50" stroke="#ffd700" stroke-width="20"/>
  <text x="400" y="920" width="780" text-anchor="middle" style="font: bold 200px 'Helvetica Neue'; fill: #ffd700">01326</text>

  <g transform="translate(80 80) scale(64)">
<rect x="0" y="0" width="1" height="1" fill="#D5DBE7" /><rect x="1" y="0" width="1" height="1" fill="#E4ECF9" /><rect x="2" y="0" width="1" height="1" fill="#E2EAF5" /><rect x="3" y="0" width="1" height="1" fill="#D8E5EE" /><rect x="4" y="0" width="1" height="1" fill="#D9E7F2" /><rect x="5" y="0" width="1" height="1" fill="#C2D4E2" /><rect x="6" y="0" width="1" height="1" fill="#9FB6C8" /><rect x="7" y="0" width="1" height="1" fill="#A4BCD4" /><rect x="8" y="0" width="1" height="1" fill="#9FBAD7" /><rect x="9" y="0" width="1" height="1" fill="#9EB8D9" /><rect x="0" y="1" width="1" height="1" fill="#C1CDDB" /><rect x="1" y="1" width="1" height="1" fill="#D1DDEB" /><rect x="2" y="1" width="1" height="1" fill="#C9D7E4" /><rect x="3" y="1" width="1" height="1" fill="#B8C6D3" /><rect x="4" y="1" width="1" height="1" fill="#B9CAD4" /><rect x="5" y="1" width="1" height="1" fill="#ACBFCD" /><rect x="6" y="1" width="1" height="1" fill="#A3B8CB" /><rect x="7" y="1" width="1" height="1" fill="#A3B9D0" /><rect x="8" y="1" width="1" height="1" fill="#A0BAD3" /><rect x="9" y="1" width="1" height="1" fill="#9CB5D3" /><rect x="0" y="2" width="1" height="1" fill="#ABBECF" /><rect x="1" y="2" width="1" height="1" fill="#AFC0D2" /><rect x="2" y="2" width="1" height="1" fill="#ACBDCD" /><rect x="3" y="2" width="1" height="1" fill="#A0B2C0" /><rect x="4" y="2" width="1" height="1" fill="#A3B6C4" /><rect x="5" y="2" width="1" height="1" fill="#9DB3C0" /><rect x="6" y="2" width="1" height="1" fill="#A7BECE" /><rect x="7" y="2" width="1" height="1" fill="#9EB7CB" /><rect x="8" y="2" width="1" height="1" fill="#9BB3CB" /><rect x="9" y="2" width="1" height="1" fill="#A8C0DC" /><rect x="0" y="3" width="1" height="1" fill="#AAC0D7" /><rect x="1" y="3" width="1" height="1" fill="#9FB6C8" /><rect x="2" y="3" width="1" height="1" fill="#A1B8CA" /><rect x="3" y="3" width="1" height="1" fill="#A4B9CA" /><rect x="4" y="3" width="1" height="1" fill="#A7BDCB" /><rect x="5" y="3" width="1" height="1" fill="#A0B6C4" /><rect x="6" y="3" width="1" height="1" fill="#A8BFCF" /><rect x="7" y="3" width="1" height="1" fill="#A0BACB" /><rect x="8" y="3" width="1" height="1" fill="#A7C0D6" /><rect x="9" y="3" width="1" height="1" fill="#9EB6D0" /><rect x="0" y="4" width="1" height="1" fill="#A4C0D8" /><rect x="1" y="4" width="1" height="1" fill="#9CB8CE" /><rect x="2" y="4" width="1" height="1" fill="#9FBACF" /><rect x="3" y="4" width="1" height="1" fill="#A2BCCD" /><rect x="4" y="4" width="1" height="1" fill="#A7BECE" /><rect x="5" y="4" width="1" height="1" fill="#A3B9C7" /><rect x="6" y="4" width="1" height="1" fill="#A1B8C8" /><rect x="7" y="4" width="1" height="1" fill="#9FB9CA" /><rect x="8" y="4" width="1" height="1" fill="#A2B8CF" /><rect x="9" y="4" width="1" height="1" fill="#9BB1C9" /><rect x="0" y="5" width="1" height="1" fill="#9CBAD6" /><rect x="1" y="5" width="1" height="1" fill="#A2BDD8" /><rect x="2" y="5" width="1" height="1" fill="#A5BBD3" /><rect x="3" y="5" width="1" height="1" fill="#9DB2C5" /><rect x="4" y="5" width="1" height="1" fill="#A4BAC8" /><rect x="5" y="5" width="1" height="1" fill="#A8BFCD" /><rect x="6" y="5" width="1" height="1" fill="#A1B8CA" /><rect x="7" y="5" width="1" height="1" fill="#A6BCD3" /><rect x="8" y="5" width="1" height="1" fill="#A5B9D1" /><rect x="9" y="5" width="1" height="1" fill="#AABED6" /><rect x="0" y="6" width="1" height="1" fill="#9DBCD8" /><rect x="1" y="6" width="1" height="1" fill="#A2BCD7" /><rect x="2" y="6" width="1" height="1" fill="#B1BCD8" /><rect x="3" y="6" width="1" height="1" fill="#ACB4CB" /><rect x="4" y="6" width="1" height="1" fill="#ABB9C4" /><rect x="5" y="6" width="1" height="1" fill="#AEC0CC" /><rect x="6" y="6" width="1" height="1" fill="#A3B7D0" /><rect x="7" y="6" width="1" height="1" fill="#A5B8D6" /><rect x="8" y="6" width="1" height="1" fill="#AEBDD4" /><rect x="9" y="6" width="1" height="1" fill="#ACBBCE" /><rect x="0" y="7" width="1" height="1" fill="#A7C3DB" /><rect x="1" y="7" width="1" height="1" fill="#A8BBD9" /><rect x="2" y="7" width="1" height="1" fill="#ADB6D3" /><rect x="3" y="7" width="1" height="1" fill="#B2B8D2" /><rect x="4" y="7" width="1" height="1" fill="#AFBBC7" /><rect x="5" y="7" width="1" height="1" fill="#ABBBC8" /><rect x="6" y="7" width="1" height="1" fill="#ABBBD4" /><rect x="7" y="7" width="1" height="1" fill="#ABBBD5" /><rect x="8" y="7" width="1" height="1" fill="#AFB7CC" /><rect x="9" y="7" width="1" height="1" fill="#DBE4F5" /><rect x="0" y="8" width="1" height="1" fill="#A2B9C7" /><rect x="1" y="8" width="1" height="1" fill="#A8BACE" /><rect x="2" y="8" width="1" height="1" fill="#A8B6D3" /><rect x="3" y="8" width="1" height="1" fill="#B0BBD7" /><rect x="4" y="8" width="1" height="1" fill="#ACB9CA" /><rect x="5" y="8" width="1" height="1" fill="#AEBBCB" /><rect x="6" y="8" width="1" height="1" fill="#C1CDDD" /><rect x="7" y="8" width="1" height="1" fill="#C2CBDA" /><rect x="8" y="8" width="1" height="1" fill="#C8CCD8" /><rect x="9" y="8" width="1" height="1" fill="#D1D7E3" /><rect x="0" y="9" width="1" height="1" fill="#AEC2C9" /><rect x="1" y="9" width="1" height="1" fill="#B1C1CE" /><rect x="2" y="9" width="1" height="1" fill="#AFBBD3" /><rect x="3" y="9" width="1" height="1" fill="#ADB7D2" /><rect x="4" y="9" width="1" height="1" fill="#B1BACB" /><rect x="5" y="9" width="1" height="1" fill="#CED4E0" /><rect x="6" y="9" width="1" height="1" fill="#EFF4F8" /><rect x="7" y="9" width="1" height="1" fill="#F1F2F4" /><rect x="8" y="9" width="1" height="1" fill="#DFE0E5" /><rect x="9" y="9" width="1" height="1" fill="#F3F6FF" />
  </g>
</svg>