<svg width="800" height="1000" version="1.1" xmlns="http://www.w3.org/2000/svg" xmlns:xlink="http://www.w3.org/1999/xlink">
  <defs>
      <linearGradient id="Gradient2" x1="0" x2="1" y1="0" y2="1">
        <stop offset="0%" stop-color="#2d3c96"/>
        <stop offset="100%" stop-color="#d53392"/>
      </linearGradient>
  </defs>
  <rect x="10" y="10" width="780" height="980" fill="url(#Gradient2)" rx="50" ry="50" stroke="#ffd700" stroke-width="20"/>
  <text x="400" y="920" width="780" text-anchor="middle" style="font: bold 200px 'Helvetica Neue'; fill: #ffd700">01329</text>

  <g transform="translate(80 80) scale(64)">
<rect x="0" y="0" width="1" height="1" fill="#7f7f9b" />
,<rect x="0" y="1" width="1" height="1" fill="#7c879b" />
,<rect x="0" y="2" width="1" height="1" fill="#9abbc0" />
,<rect x="0" y="3" width="1" height="1" fill="#b8e2e1" />
,<rect x="0" y="4" width="1" height="1" fill="#d2fbfd" />
,<rect x="0" y="5" width="1" height="1" fill="#9bb7c5" />
,<rect x="0" y="6" width="1" height="1" fill="#505076" />
,<rect x="0" y="7" width="1" height="1" fill="#8f8cb7" />
,<rect x="0" y="8" width="1" height="1" fill="#6c819e" />
,<rect x="0" y="9" width="1" height="1" fill="#7090a7" />
,<rect x="1" y="0" width="1" height="1" fill="#797b92" />
,<rect x="1" y="1" width="1" height="1" fill="#7d8598" />
,<rect x="1" y="2" width="1" height="1" fill="#9cb7be" />
,<rect x="1" y="3" width="1" height="1" fill="#a6c8ca" />
,<rect x="1" y="4" width="1" height="1" fill="#bddee3" />
,<rect x="1" y="5" width="1" height="1" fill="#8093a4" />
,<rect x="1" y="6" width="1" height="1" fill="#706992" />
,<rect x="1" y="7" width="1" height="1" fill="#8178a3" />
,<rect x="1" y="8" width="1" height="1" fill="#7a85a3" />
,<rect x="1" y="9" width="1" height="1" fill="#e5f9ff" />
,<rect x="2" y="0" width="1" height="1" fill="#777a8d" />
,<rect x="2" y="1" width="1" height="1" fill="#949bab" />
,<rect x="2" y="2" width="1" height="1" fill="#6d7b86" />
,<rect x="2" y="3" width="1" height="1" fill="#6b7c86" />
,<rect x="2" y="4" width="1" height="1" fill="#6e7c89" />
,<rect x="2" y="5" width="1" height="1" fill="#666881" />
,<rect x="2" y="6" width="1" height="1" fill="#73628c" />
,<rect x="2" y="7" width="1" height="1" fill="#66507e" />
,<rect x="2" y="8" width="1" height="1" fill="#53496c" />
,<rect x="2" y="9" width="1" height="1" fill="#f9f4ff" />
,<rect x="3" y="0" width="1" height="1" fill="#838697" />
,<rect x="3" y="1" width="1" height="1" fill="#b9bccd" />
,<rect x="3" y="2" width="1" height="1" fill="#b6bccc" />
,<rect x="3" y="3" width="1" height="1" fill="#bfc2d3" />
,<rect x="3" y="4" width="1" height="1" fill="#b9bace" />
,<rect x="3" y="5" width="1" height="1" fill="#b6b0cc" />
,<rect x="3" y="6" width="1" height="1" fill="#6b567d" />
,<rect x="3" y="7" width="1" height="1" fill="#a38cb6" />
,<rect x="3" y="8" width="1" height="1" fill="#79688c" />
,<rect x="3" y="9" width="1" height="1" fill="#9082a3" />
,<rect x="4" y="0" width="1" height="1" fill="#727085" />
,<rect x="4" y="1" width="1" height="1" fill="#868499" />
,<rect x="4" y="2" width="1" height="1" fill="#89879c" />
,<rect x="4" y="3" width="1" height="1" fill="#8c8aa0" />
,<rect x="4" y="4" width="1" height="1" fill="#868299" />
,<rect x="4" y="5" width="1" height="1" fill="#8e85a0" />
,<rect x="4" y="6" width="1" height="1" fill="#7c6e8f" />
,<rect x="4" y="7" width="1" height="1" fill="#8b7b9f" />
,<rect x="4" y="8" width="1" height="1" fill="#5b5070" />
,<rect x="4" y="9" width="1" height="1" fill="#5a5170" />
,<rect x="5" y="0" width="1" height="1" fill="#b5b1c2" />
,<rect x="5" y="1" width="1" height="1" fill="#bfbbcc" />
,<rect x="5" y="2" width="1" height="1" fill="#c2bbcd" />
,<rect x="5" y="3" width="1" height="1" fill="#c6bed3" />
,<rect x="5" y="4" width="1" height="1" fill="#c4bcd1" />
,<rect x="5" y="5" width="1" height="1" fill="#c8bfd4" />
,<rect x="5" y="6" width="1" height="1" fill="#c9bcd6" />
,<rect x="5" y="7" width="1" height="1" fill="#cbbed8" />
,<rect x="5" y="8" width="1" height="1" fill="#b9b0cb" />
,<rect x="5" y="9" width="1" height="1" fill="#b0aac4" />
,<rect x="6" y="0" width="1" height="1" fill="#e0d4e0" />
,<rect x="6" y="1" width="1" height="1" fill="#e6dae4" />
,<rect x="6" y="2" width="1" height="1" fill="#e0d6df" />
,<rect x="6" y="3" width="1" height="1" fill="#e2d8e1" />
,<rect x="6" y="4" width="1" height="1" fill="#e6dce5" />
,<rect x="6" y="5" width="1" height="1" fill="#e3d9e4" />
,<rect x="6" y="6" width="1" height="1" fill="#eadced" />
,<rect x="6" y="7" width="1" height="1" fill="#e2d3e6" />
,<rect x="6" y="8" width="1" height="1" fill="#e6daee" />
,<rect x="6" y="9" width="1" height="1" fill="#e4dbee" />
,<rect x="7" y="0" width="1" height="1" fill="#c3b3b3" />
,<rect x="7" y="1" width="1" height="1" fill="#c6b7b4" />
,<rect x="7" y="2" width="1" height="1" fill="#c0b3ab" />
,<rect x="7" y="3" width="1" height="1" fill="#bbb1a7" />
,<rect x="7" y="4" width="1" height="1" fill="#c2baaf" />
,<rect x="7" y="5" width="1" height="1" fill="#bcb3aa" />
,<rect x="7" y="6" width="1" height="1" fill="#bdb2ae" />
,<rect x="7" y="7" width="1" height="1" fill="#bbb1af" />
,<rect x="7" y="8" width="1" height="1" fill="#bdb7b7" />
,<rect x="7" y="9" width="1" height="1" fill="#bebabb" />
,<rect x="8" y="0" width="1" height="1" fill="#b09e8a" />
,<rect x="8" y="1" width="1" height="1" fill="#b2a289" />
,<rect x="8" y="2" width="1" height="1" fill="#b3a686" />
,<rect x="8" y="3" width="1" height="1" fill="#aba37e" />
,<rect x="8" y="4" width="1" height="1" fill="#b1ae85" />
,<rect x="8" y="5" width="1" height="1" fill="#aba87f" />
,<rect x="8" y="6" width="1" height="1" fill="#a5a17b" />
,<rect x="8" y="7" width="1" height="1" fill="#adad89" />
,<rect x="8" y="8" width="1" height="1" fill="#a4a887" />
,<rect x="8" y="9" width="1" height="1" fill="#a1a688" />
,<rect x="9" y="0" width="1" height="1" fill="#f1dcbf" />
,<rect x="9" y="1" width="1" height="1" fill="#f1debd" />
,<rect x="9" y="2" width="1" height="1" fill="#faedc1" />
,<rect x="9" y="3" width="1" height="1" fill="#f4ecbb" />
,<rect x="9" y="4" width="1" height="1" fill="#fbf8c1" />
,<rect x="9" y="5" width="1" height="1" fill="#f4f5bc" />
,<rect x="9" y="6" width="1" height="1" fill="#eeefb6" />
,<rect x="9" y="7" width="1" height="1" fill="#f2f7c1" />
,<rect x="9" y="8" width="1" height="1" fill="#e9f1c0" />
,<rect x="9" y="9" width="1" height="1" fill="#e6efc2" />

  </g>
</svg>