<svg width="800" height="1000" version="1.1" xmlns="http://www.w3.org/2000/svg" xmlns:xlink="http://www.w3.org/1999/xlink">
  <defs>
      <linearGradient id="Gradient2" x1="0" x2="1" y1="0" y2="1">
        <stop offset="0%" stop-color="#2d3c96"/>
        <stop offset="100%" stop-color="#d53392"/>
      </linearGradient>
  </defs>
  <rect x="10" y="10" width="780" height="980" fill="url(#Gradient2)" rx="50" ry="50" stroke="#ffd700" stroke-width="20"/>
  <text x="400" y="920" width="780" text-anchor="middle" style="font: bold 200px 'Helvetica Neue'; fill: #ffd700">01329</text>

  <g transform="translate(80 80) scale(64)">
<rect x="0" y="0" width="1" height="1" fill="#41475D" /><rect x="1" y="0" width="1" height="1" fill="#636E84" /><rect x="2" y="0" width="1" height="1" fill="#ABBBD4" /><rect x="3" y="0" width="1" height="1" fill="#A9BBD1" /><rect x="4" y="0" width="1" height="1" fill="#B5C4D7" /><rect x="5" y="0" width="1" height="1" fill="#D0DEEB" /><rect x="6" y="0" width="1" height="1" fill="#C0CAD3" /><rect x="7" y="0" width="1" height="1" fill="#E2E9EF" /><rect x="8" y="0" width="1" height="1" fill="#E5EAEE" /><rect x="9" y="0" width="1" height="1" fill="#F0F1F5" /><rect x="0" y="1" width="1" height="1" fill="#2F3555" /><rect x="1" y="1" width="1" height="1" fill="#3C4669" /><rect x="2" y="1" width="1" height="1" fill="#93A1BC" /><rect x="3" y="1" width="1" height="1" fill="#AFBFD8" /><rect x="4" y="1" width="1" height="1" fill="#B3C0D3" /><rect x="5" y="1" width="1" height="1" fill="#CBD7E5" /><rect x="6" y="1" width="1" height="1" fill="#C5CED5" /><rect x="7" y="1" width="1" height="1" fill="#E8EDF1" /><rect x="8" y="1" width="1" height="1" fill="#F0F1F5" /><rect x="9" y="1" width="1" height="1" fill="#EDEDEF" /><rect x="0" y="2" width="1" height="1" fill="#464D7B" /><rect x="1" y="2" width="1" height="1" fill="#49527D" /><rect x="2" y="2" width="1" height="1" fill="#586587" /><rect x="3" y="2" width="1" height="1" fill="#D0DEF8" /><rect x="4" y="2" width="1" height="1" fill="#C9D6E7" /><rect x="5" y="2" width="1" height="1" fill="#D8E4F0" /><rect x="6" y="2" width="1" height="1" fill="#E3ECF3" /><rect x="7" y="2" width="1" height="1" fill="#E2E7EA" /><rect x="8" y="2" width="1" height="1" fill="#EBECF0" /><rect x="9" y="2" width="1" height="1" fill="#EEEEF0" /><rect x="0" y="3" width="1" height="1" fill="#454D7E" /><rect x="1" y="3" width="1" height="1" fill="#707BA8" /><rect x="2" y="3" width="1" height="1" fill="#7585A6" /><rect x="3" y="3" width="1" height="1" fill="#D8E6FF" /><rect x="4" y="3" width="1" height="1" fill="#DEEBFC" /><rect x="5" y="3" width="1" height="1" fill="#E2ECF8" /><rect x="6" y="3" width="1" height="1" fill="#E8F1F8" /><rect x="7" y="3" width="1" height="1" fill="#F0F5F8" /><rect x="8" y="3" width="1" height="1" fill="#E6E7E9" /><rect x="9" y="3" width="1" height="1" fill="#F0F0F2" /><rect x="0" y="4" width="1" height="1" fill="#27355A" /><rect x="1" y="4" width="1" height="1" fill="#4F5F83" /><rect x="2" y="4" width="1" height="1" fill="#5A6988" /><rect x="3" y="4" width="1" height="1" fill="#95A5BE" /><rect x="4" y="4" width="1" height="1" fill="#D3E0F1" /><rect x="5" y="4" width="1" height="1" fill="#E4EEF8" /><rect x="6" y="4" width="1" height="1" fill="#E3EBEE" /><rect x="7" y="4" width="1" height="1" fill="#DEE4E4" /><rect x="8" y="4" width="1" height="1" fill="#EBECEE" /><rect x="9" y="4" width="1" height="1" fill="#EBEBED" /><rect x="0" y="5" width="1" height="1" fill="#252F52" /><rect x="1" y="5" width="1" height="1" fill="#2E3959" /><rect x="2" y="5" width="1" height="1" fill="#384565" /><rect x="3" y="5" width="1" height="1" fill="#3C4A65" /><rect x="4" y="5" width="1" height="1" fill="#3A4557" /><rect x="5" y="5" width="1" height="1" fill="#CFD9E3" /><rect x="6" y="5" width="1" height="1" fill="#ECF3FB" /><rect x="7" y="5" width="1" height="1" fill="#DEE1E6" /><rect x="8" y="5" width="1" height="1" fill="#ECEDF2" /><rect x="9" y="5" width="1" height="1" fill="#ECECF4" /><rect x="0" y="6" width="1" height="1" fill="#2F2446" /><rect x="1" y="6" width="1" height="1" fill="#31294E" /><rect x="2" y="6" width="1" height="1" fill="#32375D" /><rect x="3" y="6" width="1" height="1" fill="#31395D" /><rect x="4" y="6" width="1" height="1" fill="#40485D" /><rect x="5" y="6" width="1" height="1" fill="#9197A7" /><rect x="6" y="6" width="1" height="1" fill="#CCD0DC" /><rect x="7" y="6" width="1" height="1" fill="#BCBECB" /><rect x="8" y="6" width="1" height="1" fill="#C8C9DB" /><rect x="9" y="6" width="1" height="1" fill="#BCBDD1" /><rect x="0" y="7" width="1" height="1" fill="#312845" /><rect x="1" y="7" width="1" height="1" fill="#2B2446" /><rect x="2" y="7" width="1" height="1" fill="#272C52" /><rect x="3" y="7" width="1" height="1" fill="#394366" /><rect x="4" y="7" width="1" height="1" fill="#323D51" /><rect x="5" y="7" width="1" height="1" fill="#757C8C" /><rect x="6" y="7" width="1" height="1" fill="#BAC0CE" /><rect x="7" y="7" width="1" height="1" fill="#C0C3D2" /><rect x="8" y="7" width="1" height="1" fill="#C4C6DB" /><rect x="9" y="7" width="1" height="1" fill="#CFD1E8" /><rect x="0" y="8" width="1" height="1" fill="#1B2137" /><rect x="1" y="8" width="1" height="1" fill="#162137" /><rect x="2" y="8" width="1" height="1" fill="#233354" /><rect x="3" y="8" width="1" height="1" fill="#142745" /><rect x="4" y="8" width="1" height="1" fill="#405362" /><rect x="5" y="8" width="1" height="1" fill="#9DAEB6" /><rect x="6" y="8" width="1" height="1" fill="#BCC9D2" /><rect x="7" y="8" width="1" height="1" fill="#BBC3CE" /><rect x="8" y="8" width="1" height="1" fill="#DBE2F4" /><rect x="9" y="8" width="1" height="1" fill="#E6EBFF" /><rect x="0" y="9" width="1" height="1" fill="#32475A" /><rect x="1" y="9" width="1" height="1" fill="#1F3449" /><rect x="2" y="9" width="1" height="1" fill="#1D3453" /><rect x="3" y="9" width="1" height="1" fill="#697E9B" /><rect x="4" y="9" width="1" height="1" fill="#B2C5D3" /><rect x="5" y="9" width="1" height="1" fill="#BACBD2" /><rect x="6" y="9" width="1" height="1" fill="#BBC8D0" /><rect x="7" y="9" width="1" height="1" fill="#BDC5CF" /><rect x="8" y="9" width="1" height="1" fill="#E4EAFA" /><rect x="9" y="9" width="1" height="1" fill="#E2E5F8" />
  </g>
</svg>