<svg width="800" height="1000" version="1.1" xmlns="http://www.w3.org/2000/svg" xmlns:xlink="http://www.w3.org/1999/xlink">
  <defs>
      <linearGradient id="Gradient2" x1="0" x2="1" y1="0" y2="1">
        <stop offset="0%" stop-color="#2d3c96"/>
        <stop offset="100%" stop-color="#d53392"/>
      </linearGradient>
  </defs>
  <rect x="10" y="10" width="780" height="980" fill="url(#Gradient2)" rx="50" ry="50" stroke="#ffd700" stroke-width="20"/>
  <text x="400" y="920" width="780" text-anchor="middle" style="font: bold 200px 'Helvetica Neue'; fill: #ffd700">01366</text>

  <g transform="translate(80 80) scale(64)">
<rect x="0" y="0" width="1" height="1" fill="#161616" /><rect x="1" y="0" width="1" height="1" fill="#F8F9F9" /><rect x="2" y="0" width="1" height="1" fill="#F8F9F8" /><rect x="3" y="0" width="1" height="1" fill="#F9F8F8" /><rect x="4" y="0" width="1" height="1" fill="#F8F9F8" /><rect x="5" y="0" width="1" height="1" fill="#F9F8F9" /><rect x="6" y="0" width="1" height="1" fill="#F9F9F8" /><rect x="7" y="0" width="1" height="1" fill="#000101" /><rect x="8" y="0" width="1" height="1" fill="#010101" /><rect x="9" y="0" width="1" height="1" fill="#010100" /><rect x="0" y="1" width="1" height="1" fill="#1B1B1B" /><rect x="1" y="1" width="1" height="1" fill="#181918" /><rect x="2" y="1" width="1" height="1" fill="#090808" /><rect x="3" y="1" width="1" height="1" fill="#434242" /><rect x="4" y="1" width="1" height="1" fill="#696868" /><rect x="5" y="1" width="1" height="1" fill="#BCBDBC" /><rect x="6" y="1" width="1" height="1" fill="#F8F9F8" /><rect x="7" y="1" width="1" height="1" fill="#424242" /><rect x="8" y="1" width="1" height="1" fill="#010001" /><rect x="9" y="1" width="1" height="1" fill="#010001" /><rect x="0" y="2" width="1" height="1" fill="#000000" /><rect x="1" y="2" width="1" height="1" fill="#040404" /><rect x="2" y="2" width="1" height="1" fill="#070706" /><rect x="3" y="2" width="1" height="1" fill="#010100" /><rect x="4" y="2" width="1" height="1" fill="#000000" /><rect x="5" y="2" width="1" height="1" fill="#000000" /><rect x="6" y="2" width="1" height="1" fill="#F9F8F8" /><rect x="7" y="2" width="1" height="1" fill="#434242" /><rect x="8" y="2" width="1" height="1" fill="#191919" /><rect x="9" y="2" width="1" height="1" fill="#181818" /><rect x="0" y="3" width="1" height="1" fill="#191819" /><rect x="1" y="3" width="1" height="1" fill="#161617" /><rect x="2" y="3" width="1" height="1" fill="#1C1D1D" /><rect x="3" y="3" width="1" height="1" fill="#000100" /><rect x="4" y="3" width="1" height="1" fill="#424242" /><rect x="5" y="3" width="1" height="1" fill="#434242" /><rect x="6" y="3" width="1" height="1" fill="#434243" /><rect x="7" y="3" width="1" height="1" fill="#424242" /><rect x="8" y="3" width="1" height="1" fill="#181819" /><rect x="9" y="3" width="1" height="1" fill="#181818" /><rect x="0" y="4" width="1" height="1" fill="#4D4C4D" /><rect x="1" y="4" width="1" height="1" fill="#F8F9F9" /><rect x="2" y="4" width="1" height="1" fill="#F9F8F8" /><rect x="3" y="4" width="1" height="1" fill="#F9F8F9" /><rect x="4" y="4" width="1" height="1" fill="#F8F8F9" /><rect x="5" y="4" width="1" height="1" fill="#F8F8F8" /><rect x="6" y="4" width="1" height="1" fill="#F8F8F9" /><rect x="7" y="4" width="1" height="1" fill="#F9F8F8" /><rect x="8" y="4" width="1" height="1" fill="#424242" /><rect x="9" y="4" width="1" height="1" fill="#191919" /><rect x="0" y="5" width="1" height="1" fill="#515050" /><rect x="1" y="5" width="1" height="1" fill="#F8F8F8" /><rect x="2" y="5" width="1" height="1" fill="#434342" /><rect x="3" y="5" width="1" height="1" fill="#505050" /><rect x="4" y="5" width="1" height="1" fill="#505050" /><rect x="5" y="5" width="1" height="1" fill="#505150" /><rect x="6" y="5" width="1" height="1" fill="#505150" /><rect x="7" y="5" width="1" height="1" fill="#FFFFFF" /><rect x="8" y="5" width="1" height="1" fill="#424342" /><rect x="9" y="5" width="1" height="1" fill="#191918" /><rect x="0" y="6" width="1" height="1" fill="#4C4D4D" /><rect x="1" y="6" width="1" height="1" fill="#F9F8F9" /><rect x="2" y="6" width="1" height="1" fill="#434342" /><rect x="3" y="6" width="1" height="1" fill="#202121" /><rect x="4" y="6" width="1" height="1" fill="#191819" /><rect x="5" y="6" width="1" height="1" fill="#191818" /><rect x="6" y="6" width="1" height="1" fill="#252425" /><rect x="7" y="6" width="1" height="1" fill="#FEFFFF" /><rect x="8" y="6" width="1" height="1" fill="#424242" /><rect x="9" y="6" width="1" height="1" fill="#181818" /><rect x="0" y="7" width="1" height="1" fill="#424242" /><rect x="1" y="7" width="1" height="1" fill="#F8F8F9" /><rect x="2" y="7" width="1" height="1" fill="#434342" /><rect x="3" y="7" width="1" height="1" fill="#424242" /><rect x="4" y="7" width="1" height="1" fill="#161617" /><rect x="5" y="7" width="1" height="1" fill="#171716" /><rect x="6" y="7" width="1" height="1" fill="#515051" /><rect x="7" y="7" width="1" height="1" fill="#FFFEFF" /><rect x="8" y="7" width="1" height="1" fill="#434243" /><rect x="9" y="7" width="1" height="1" fill="#0E0F0F" /><rect x="0" y="8" width="1" height="1" fill="#151514" /><rect x="1" y="8" width="1" height="1" fill="#090909" /><rect x="2" y="8" width="1" height="1" fill="#F9F8F9" /><rect x="3" y="8" width="1" height="1" fill="#505050" /><rect x="4" y="8" width="1" height="1" fill="#434243" /><rect x="5" y="8" width="1" height="1" fill="#434242" /><rect x="6" y="8" width="1" height="1" fill="#505050" /><rect x="7" y="8" width="1" height="1" fill="#EBEAEA" /><rect x="8" y="8" width="1" height="1" fill="#191819" /><rect x="9" y="8" width="1" height="1" fill="#000000" /><rect x="0" y="9" width="1" height="1" fill="#000000" /><rect x="1" y="9" width="1" height="1" fill="#171617" /><rect x="2" y="9" width="1" height="1" fill="#515151" /><rect x="3" y="9" width="1" height="1" fill="#F8F8F8" /><rect x="4" y="9" width="1" height="1" fill="#F8F8F8" /><rect x="5" y="9" width="1" height="1" fill="#F8F8F9" /><rect x="6" y="9" width="1" height="1" fill="#F8F8F8" /><rect x="7" y="9" width="1" height="1" fill="#242525" /><rect x="8" y="9" width="1" height="1" fill="#141514" /><rect x="9" y="9" width="1" height="1" fill="#000100" />
  </g>
</svg>