<svg width="800" height="1000" xmlns="http://www.w3.org/2000/svg"><defs><linearGradient id="g" x1="0" x2="1" y1="0" y2="1"><stop offset="0%" stop-color="#2d3c96"/><stop offset="100%" stop-color="#d53392"/></linearGradient></defs><rect x="10" y="10" width="780" height="980" fill="url(#g)" rx="50" ry="50" stroke="gold" stroke-width="20"/><text x="400" y="920" width="780" text-anchor="middle" style="font:bold 200px 'Helvetica Neue';fill:gold">01367</text><g transform="translate(80 80) scale(64)"><rect x="0" y="0" width="1" height="1" fill="#fefefe" /><rect x="0" y="1" width="1" height="1" fill="#ffffff" /><rect x="0" y="2" width="1" height="1" fill="#e7f2f4" /><rect x="0" y="3" width="1" height="1" fill="#93d0d4" /><rect x="0" y="4" width="1" height="1" fill="#4fc4be" /><rect x="0" y="5" width="1" height="1" fill="#4fc7be" /><rect x="0" y="6" width="1" height="1" fill="#98d7d1" /><rect x="0" y="7" width="1" height="1" fill="#ecf6f5" /><rect x="0" y="8" width="1" height="1" fill="#ffffff" /><rect x="0" y="9" width="1" height="1" fill="#fefefe" /><rect x="1" y="0" width="1" height="1" fill="#ffffff" /><rect x="1" y="1" width="1" height="1" fill="#c8e0e8" /><rect x="1" y="2" width="1" height="1" fill="#009cbc" /><rect x="1" y="3" width="1" height="1" fill="#44b4c9" /><rect x="1" y="4" width="1" height="1" fill="#a0d3d9" /><rect x="1" y="5" width="1" height="1" fill="#a1dad6" /><rect x="1" y="6" width="1" height="1" fill="#36c2bf" /><rect x="1" y="7" width="1" height="1" fill="#00b4b4" /><rect x="1" y="8" width="1" height="1" fill="#d0eae9" /><rect x="1" y="9" width="1" height="1" fill="#ffffff" /><rect x="2" y="0" width="1" height="1" fill="#e3eef4" /><rect x="2" y="1" width="1" height="1" fill="#0094c1" /><rect x="2" y="2" width="1" height="1" fill="#9fccde" /><rect x="2" y="3" width="1" height="1" fill="#ffffff" /><rect x="2" y="4" width="1" height="1" fill="#ffffff" /><rect x="2" y="5" width="1" height="1" fill="#ffffff" /><rect x="2" y="6" width="1" height="1" fill="#ffffff" /><rect x="2" y="7" width="1" height="1" fill="#97d4d7" /><rect x="2" y="8" width="1" height="1" fill="#00b0ba" /><rect x="2" y="9" width="1" height="1" fill="#ebf5f6" /><rect x="3" y="0" width="1" height="1" fill="#8abcdc" /><rect x="3" y="1" width="1" height="1" fill="#56aad4" /><rect x="3" y="2" width="1" height="1" fill="#ffffff" /><rect x="3" y="3" width="1" height="1" fill="#ffffff" /><rect x="3" y="4" width="1" height="1" fill="#e5f4f6" /><rect x="3" y="5" width="1" height="1" fill="#9bc8d5" /><rect x="3" y="6" width="1" height="1" fill="#a3c1cb" /><rect x="3" y="7" width="1" height="1" fill="#ffffff" /><rect x="3" y="8" width="1" height="1" fill="#3cb9cc" /><rect x="3" y="9" width="1" height="1" fill="#9ad0dc" /><rect x="4" y="0" width="1" height="1" fill="#3f9ed7" /><rect x="4" y="1" width="1" height="1" fill="#b1ceeb" /><rect x="4" y="2" width="1" height="1" fill="#fffffe" /><rect x="4" y="3" width="1" height="1" fill="#cfeff9" /><rect x="4" y="4" width="1" height="1" fill="#8ddff5" /><rect x="4" y="5" width="1" height="1" fill="#97d5e4" /><rect x="4" y="6" width="1" height="1" fill="#93bbc5" /><rect x="4" y="7" width="1" height="1" fill="#ffffff" /><rect x="4" y="8" width="1" height="1" fill="#aad4e4" /><rect x="4" y="9" width="1" height="1" fill="#58b9d4" /><rect x="5" y="0" width="1" height="1" fill="#4097db" /><rect x="5" y="1" width="1" height="1" fill="#b2ccea" /><rect x="5" y="2" width="1" height="1" fill="#fffffd" /><rect x="5" y="3" width="1" height="1" fill="#ace3f4" /><rect x="5" y="4" width="1" height="1" fill="#00cdef" /><rect x="5" y="5" width="1" height="1" fill="#74cfdf" /><rect x="5" y="6" width="1" height="1" fill="#96bfc9" /><rect x="5" y="7" width="1" height="1" fill="#ffffff" /><rect x="5" y="8" width="1" height="1" fill="#abd3e8" /><rect x="5" y="9" width="1" height="1" fill="#57b4da" /><rect x="6" y="0" width="1" height="1" fill="#86aedc" /><rect x="6" y="1" width="1" height="1" fill="#639fd7" /><rect x="6" y="2" width="1" height="1" fill="#ffffff" /><rect x="6" y="3" width="1" height="1" fill="#fffffe" /><rect x="6" y="4" width="1" height="1" fill="#e5f2f7" /><rect x="6" y="5" width="1" height="1" fill="#c0dbe4" /><rect x="6" y="6" width="1" height="1" fill="#b4ced5" /><rect x="6" y="7" width="1" height="1" fill="#ffffff" /><rect x="6" y="8" width="1" height="1" fill="#52afe0" /><rect x="6" y="9" width="1" height="1" fill="#96c7e7" /><rect x="7" y="0" width="1" height="1" fill="#dfe7f4" /><rect x="7" y="1" width="1" height="1" fill="#0065c7" /><rect x="7" y="2" width="1" height="1" fill="#abc0df" /><rect x="7" y="3" width="1" height="1" fill="#ffffff" /><rect x="7" y="4" width="1" height="1" fill="#ffffff" /><rect x="7" y="5" width="1" height="1" fill="#ffffff" /><rect x="7" y="6" width="1" height="1" fill="#ffffff" /><rect x="7" y="7" width="1" height="1" fill="#a7c9f3" /><rect x="7" y="8" width="1" height="1" fill="#008fe0" /><rect x="7" y="9" width="1" height="1" fill="#e8f0fa" /><rect x="8" y="0" width="1" height="1" fill="#ffffff" /><rect x="8" y="1" width="1" height="1" fill="#bfcce3" /><rect x="8" y="2" width="1" height="1" fill="#0055bb" /><rect x="8" y="3" width="1" height="1" fill="#6597d4" /><rect x="8" y="4" width="1" height="1" fill="#aec6e8" /><rect x="8" y="5" width="1" height="1" fill="#b2c9ed" /><rect x="8" y="6" width="1" height="1" fill="#63a2eb" /><rect x="8" y="7" width="1" height="1" fill="#0083ec" /><rect x="8" y="8" width="1" height="1" fill="#c8ddf7" /><rect x="8" y="9" width="1" height="1" fill="#ffffff" /><rect x="9" y="0" width="1" height="1" fill="#fefeff" /><rect x="9" y="1" width="1" height="1" fill="#ffffff" /><rect x="9" y="2" width="1" height="1" fill="#dfe6f1" /><rect x="9" y="3" width="1" height="1" fill="#88a9d9" /><rect x="9" y="4" width="1" height="1" fill="#478dd7" /><rect x="9" y="5" width="1" height="1" fill="#4693df" /><rect x="9" y="6" width="1" height="1" fill="#8cb5ed" /><rect x="9" y="7" width="1" height="1" fill="#e5edfb" /><rect x="9" y="8" width="1" height="1" fill="#ffffff" /><rect x="9" y="9" width="1" height="1" fill="#fefefe" /></g></svg>