<svg width="800" height="1000" version="1.1" xmlns="http://www.w3.org/2000/svg" xmlns:xlink="http://www.w3.org/1999/xlink">
  <defs>
      <linearGradient id="Gradient2" x1="0" x2="1" y1="0" y2="1">
        <stop offset="0%" stop-color="#2d3c96"/>
        <stop offset="100%" stop-color="#d53392"/>
      </linearGradient>
  </defs>
  <rect x="10" y="10" width="780" height="980" fill="url(#Gradient2)" rx="50" ry="50" stroke="#ffd700" stroke-width="20"/>
  <text x="400" y="920" width="780" text-anchor="middle" style="font: bold 200px 'Helvetica Neue'; fill: #ffd700">01367</text>

  <g transform="translate(80 80) scale(64)">
<rect x="0" y="0" width="1" height="1" fill="#FEFEFE" /><rect x="1" y="0" width="1" height="1" fill="#FFFFFF" /><rect x="2" y="0" width="1" height="1" fill="#E3EEF4" /><rect x="3" y="0" width="1" height="1" fill="#8ABCDC" /><rect x="4" y="0" width="1" height="1" fill="#3F9ED7" /><rect x="5" y="0" width="1" height="1" fill="#4097DB" /><rect x="6" y="0" width="1" height="1" fill="#86AEDC" /><rect x="7" y="0" width="1" height="1" fill="#DFE7F4" /><rect x="8" y="0" width="1" height="1" fill="#FFFFFF" /><rect x="9" y="0" width="1" height="1" fill="#FEFEFF" /><rect x="0" y="1" width="1" height="1" fill="#FFFFFF" /><rect x="1" y="1" width="1" height="1" fill="#C8E0E8" /><rect x="2" y="1" width="1" height="1" fill="#0094C1" /><rect x="3" y="1" width="1" height="1" fill="#56AAD4" /><rect x="4" y="1" width="1" height="1" fill="#B1CEEB" /><rect x="5" y="1" width="1" height="1" fill="#B2CCEA" /><rect x="6" y="1" width="1" height="1" fill="#639FD7" /><rect x="7" y="1" width="1" height="1" fill="#0065C7" /><rect x="8" y="1" width="1" height="1" fill="#BFCCE3" /><rect x="9" y="1" width="1" height="1" fill="#FFFFFF" /><rect x="0" y="2" width="1" height="1" fill="#E7F2F4" /><rect x="1" y="2" width="1" height="1" fill="#009CBC" /><rect x="2" y="2" width="1" height="1" fill="#9FCCDE" /><rect x="3" y="2" width="1" height="1" fill="#FFFFFF" /><rect x="4" y="2" width="1" height="1" fill="#FFFFFE" /><rect x="5" y="2" width="1" height="1" fill="#FFFFFD" /><rect x="6" y="2" width="1" height="1" fill="#FFFFFF" /><rect x="7" y="2" width="1" height="1" fill="#ABC0DF" /><rect x="8" y="2" width="1" height="1" fill="#0055BB" /><rect x="9" y="2" width="1" height="1" fill="#DFE6F1" /><rect x="0" y="3" width="1" height="1" fill="#93D0D4" /><rect x="1" y="3" width="1" height="1" fill="#44B4C9" /><rect x="2" y="3" width="1" height="1" fill="#FFFFFF" /><rect x="3" y="3" width="1" height="1" fill="#FFFFFF" /><rect x="4" y="3" width="1" height="1" fill="#CFEFF9" /><rect x="5" y="3" width="1" height="1" fill="#ACE3F4" /><rect x="6" y="3" width="1" height="1" fill="#FFFFFE" /><rect x="7" y="3" width="1" height="1" fill="#FFFFFF" /><rect x="8" y="3" width="1" height="1" fill="#6597D4" /><rect x="9" y="3" width="1" height="1" fill="#88A9D9" /><rect x="0" y="4" width="1" height="1" fill="#4FC4BE" /><rect x="1" y="4" width="1" height="1" fill="#A0D3D9" /><rect x="2" y="4" width="1" height="1" fill="#FFFFFF" /><rect x="3" y="4" width="1" height="1" fill="#E5F4F6" /><rect x="4" y="4" width="1" height="1" fill="#8DDFF5" /><rect x="5" y="4" width="1" height="1" fill="#00CDEF" /><rect x="6" y="4" width="1" height="1" fill="#E5F2F7" /><rect x="7" y="4" width="1" height="1" fill="#FFFFFF" /><rect x="8" y="4" width="1" height="1" fill="#AEC6E8" /><rect x="9" y="4" width="1" height="1" fill="#478DD7" /><rect x="0" y="5" width="1" height="1" fill="#4FC7BE" /><rect x="1" y="5" width="1" height="1" fill="#A1DAD6" /><rect x="2" y="5" width="1" height="1" fill="#FFFFFF" /><rect x="3" y="5" width="1" height="1" fill="#9BC8D5" /><rect x="4" y="5" width="1" height="1" fill="#97D5E4" /><rect x="5" y="5" width="1" height="1" fill="#74CFDF" /><rect x="6" y="5" width="1" height="1" fill="#C0DBE4" /><rect x="7" y="5" width="1" height="1" fill="#FFFFFF" /><rect x="8" y="5" width="1" height="1" fill="#B2C9ED" /><rect x="9" y="5" width="1" height="1" fill="#4693DF" /><rect x="0" y="6" width="1" height="1" fill="#98D7D1" /><rect x="1" y="6" width="1" height="1" fill="#36C2BF" /><rect x="2" y="6" width="1" height="1" fill="#FFFFFF" /><rect x="3" y="6" width="1" height="1" fill="#A3C1CB" /><rect x="4" y="6" width="1" height="1" fill="#93BBC5" /><rect x="5" y="6" width="1" height="1" fill="#96BFC9" /><rect x="6" y="6" width="1" height="1" fill="#B4CED5" /><rect x="7" y="6" width="1" height="1" fill="#FFFFFF" /><rect x="8" y="6" width="1" height="1" fill="#63A2EB" /><rect x="9" y="6" width="1" height="1" fill="#8CB5ED" /><rect x="0" y="7" width="1" height="1" fill="#ECF6F5" /><rect x="1" y="7" width="1" height="1" fill="#00B4B4" /><rect x="2" y="7" width="1" height="1" fill="#97D4D7" /><rect x="3" y="7" width="1" height="1" fill="#FFFFFF" /><rect x="4" y="7" width="1" height="1" fill="#FFFFFF" /><rect x="5" y="7" width="1" height="1" fill="#FFFFFF" /><rect x="6" y="7" width="1" height="1" fill="#FFFFFF" /><rect x="7" y="7" width="1" height="1" fill="#A7C9F3" /><rect x="8" y="7" width="1" height="1" fill="#0083EC" /><rect x="9" y="7" width="1" height="1" fill="#E5EDFB" /><rect x="0" y="8" width="1" height="1" fill="#FFFFFF" /><rect x="1" y="8" width="1" height="1" fill="#D0EAE9" /><rect x="2" y="8" width="1" height="1" fill="#00B0BA" /><rect x="3" y="8" width="1" height="1" fill="#3CB9CC" /><rect x="4" y="8" width="1" height="1" fill="#AAD4E4" /><rect x="5" y="8" width="1" height="1" fill="#ABD3E8" /><rect x="6" y="8" width="1" height="1" fill="#52AFE0" /><rect x="7" y="8" width="1" height="1" fill="#008FE0" /><rect x="8" y="8" width="1" height="1" fill="#C8DDF7" /><rect x="9" y="8" width="1" height="1" fill="#FFFFFF" /><rect x="0" y="9" width="1" height="1" fill="#FEFEFE" /><rect x="1" y="9" width="1" height="1" fill="#FFFFFF" /><rect x="2" y="9" width="1" height="1" fill="#EBF5F6" /><rect x="3" y="9" width="1" height="1" fill="#9AD0DC" /><rect x="4" y="9" width="1" height="1" fill="#58B9D4" /><rect x="5" y="9" width="1" height="1" fill="#57B4DA" /><rect x="6" y="9" width="1" height="1" fill="#96C7E7" /><rect x="7" y="9" width="1" height="1" fill="#E8F0FA" /><rect x="8" y="9" width="1" height="1" fill="#FFFFFF" /><rect x="9" y="9" width="1" height="1" fill="#FEFEFE" />
  </g>
</svg>