<svg width="800" height="1000" xmlns="http://www.w3.org/2000/svg"><defs><linearGradient id="g" x1="0" x2="1" y1="0" y2="1"><stop offset="0%" stop-color="#2d3c96"/><stop offset="100%" stop-color="#d53392"/></linearGradient></defs><rect x="10" y="10" width="780" height="980" fill="url(#g)" rx="50" ry="50" stroke="gold" stroke-width="20"/><text x="400" y="920" width="780" text-anchor="middle" style="font:bold 200px 'Helvetica Neue';fill:gold">01379</text><g transform="translate(80 80) scale(64)"><rect x="0" y="0" width="1" height="1" fill="#498929" /><rect x="0" y="1" width="1" height="1" fill="#437c2d" /><rect x="0" y="2" width="1" height="1" fill="#305d2f" /><rect x="0" y="3" width="1" height="1" fill="#32504e" /><rect x="0" y="4" width="1" height="1" fill="#222f63" /><rect x="0" y="5" width="1" height="1" fill="#2c2f7c" /><rect x="0" y="6" width="1" height="1" fill="#58569f" /><rect x="0" y="7" width="1" height="1" fill="#7976b4" /><rect x="0" y="8" width="1" height="1" fill="#4a4a76" /><rect x="0" y="9" width="1" height="1" fill="#535377" /><rect x="1" y="0" width="1" height="1" fill="#45822c" /><rect x="1" y="1" width="1" height="1" fill="#3c742d" /><rect x="1" y="2" width="1" height="1" fill="#36623a" /><rect x="1" y="3" width="1" height="1" fill="#314f50" /><rect x="1" y="4" width="1" height="1" fill="#1f2c60" /><rect x="1" y="5" width="1" height="1" fill="#272a76" /><rect x="1" y="6" width="1" height="1" fill="#6b6ab0" /><rect x="1" y="7" width="1" height="1" fill="#4d4b86" /><rect x="1" y="8" width="1" height="1" fill="#4b4b75" /><rect x="1" y="9" width="1" height="1" fill="#4d4d6e" /><rect x="2" y="0" width="1" height="1" fill="#457f3a" /><rect x="2" y="1" width="1" height="1" fill="#3f733b" /><rect x="2" y="2" width="1" height="1" fill="#275134" /><rect x="2" y="3" width="1" height="1" fill="#324f57" /><rect x="2" y="4" width="1" height="1" fill="#243167" /><rect x="2" y="5" width="1" height="1" fill="#2f337c" /><rect x="2" y="6" width="1" height="1" fill="#6968ab" /><rect x="2" y="7" width="1" height="1" fill="#545288" /><rect x="2" y="8" width="1" height="1" fill="#4d4e72" /><rect x="2" y="9" width="1" height="1" fill="#4c4d68" /><rect x="3" y="0" width="1" height="1" fill="#3d7147" /><rect x="3" y="1" width="1" height="1" fill="#3b6b4b" /><rect x="3" y="2" width="1" height="1" fill="#30564e" /><rect x="3" y="3" width="1" height="1" fill="#1f394f" /><rect x="3" y="4" width="1" height="1" fill="#2b3874" /><rect x="3" y="5" width="1" height="1" fill="#343883" /><rect x="3" y="6" width="1" height="1" fill="#6768aa" /><rect x="3" y="7" width="1" height="1" fill="#59598d" /><rect x="3" y="8" width="1" height="1" fill="#4f5073" /><rect x="3" y="9" width="1" height="1" fill="#53556e" /><rect x="4" y="0" width="1" height="1" fill="#28544e" /><rect x="4" y="1" width="1" height="1" fill="#20484a" /><rect x="4" y="2" width="1" height="1" fill="#26465a" /><rect x="4" y="3" width="1" height="1" fill="#1f3661" /><rect x="4" y="4" width="1" height="1" fill="#27327a" /><rect x="4" y="5" width="1" height="1" fill="#373b8c" /><rect x="4" y="6" width="1" height="1" fill="#7171b6" /><rect x="4" y="7" width="1" height="1" fill="#58588e" /><rect x="4" y="8" width="1" height="1" fill="#48496f" /><rect x="4" y="9" width="1" height="1" fill="#4f506e" /><rect x="5" y="0" width="1" height="1" fill="#2b5069" /><rect x="5" y="1" width="1" height="1" fill="#234563" /><rect x="5" y="2" width="1" height="1" fill="#142f59" /><rect x="5" y="3" width="1" height="1" fill="#233670" /><rect x="5" y="4" width="1" height="1" fill="#1f2978" /><rect x="5" y="5" width="1" height="1" fill="#383c8d" /><rect x="5" y="6" width="1" height="1" fill="#6f71b4" /><rect x="5" y="7" width="1" height="1" fill="#5c5d92" /><rect x="5" y="8" width="1" height="1" fill="#434469" /><rect x="5" y="9" width="1" height="1" fill="#474865" /><rect x="6" y="0" width="1" height="1" fill="#284777" /><rect x="6" y="1" width="1" height="1" fill="#284578" /><rect x="6" y="2" width="1" height="1" fill="#1c336d" /><rect x="6" y="3" width="1" height="1" fill="#142569" /><rect x="6" y="4" width="1" height="1" fill="#26307f" /><rect x="6" y="5" width="1" height="1" fill="#3d4390" /><rect x="6" y="6" width="1" height="1" fill="#7074b1" /><rect x="6" y="7" width="1" height="1" fill="#656895" /><rect x="6" y="8" width="1" height="1" fill="#434564" /><rect x="6" y="9" width="1" height="1" fill="#474961" /><rect x="7" y="0" width="1" height="1" fill="#253f83" /><rect x="7" y="1" width="1" height="1" fill="#1a3176" /><rect x="7" y="2" width="1" height="1" fill="#1d3178" /><rect x="7" y="3" width="1" height="1" fill="#2c3b86" /><rect x="7" y="4" width="1" height="1" fill="#2b3585" /><rect x="7" y="5" width="1" height="1" fill="#414792" /><rect x="7" y="6" width="1" height="1" fill="#535890" /><rect x="7" y="7" width="1" height="1" fill="#62678f" /><rect x="7" y="8" width="1" height="1" fill="#3a3d59" /><rect x="7" y="9" width="1" height="1" fill="#414359" /><rect x="8" y="0" width="1" height="1" fill="#05196b" /><rect x="8" y="1" width="1" height="1" fill="#203386" /><rect x="8" y="2" width="1" height="1" fill="#28388b" /><rect x="8" y="3" width="1" height="1" fill="#313f91" /><rect x="8" y="4" width="1" height="1" fill="#303a8b" /><rect x="8" y="5" width="1" height="1" fill="#464e97" /><rect x="8" y="6" width="1" height="1" fill="#474e84" /><rect x="8" y="7" width="1" height="1" fill="#6a6f96" /><rect x="8" y="8" width="1" height="1" fill="#4f536f" /><rect x="8" y="9" width="1" height="1" fill="#45475e" /><rect x="9" y="0" width="1" height="1" fill="#0d1e78" /><rect x="9" y="1" width="1" height="1" fill="#33449d" /><rect x="9" y="2" width="1" height="1" fill="#3c4aa2" /><rect x="9" y="3" width="1" height="1" fill="#38459b" /><rect x="9" y="4" width="1" height="1" fill="#343e90" /><rect x="9" y="5" width="1" height="1" fill="#4e569e" /><rect x="9" y="6" width="1" height="1" fill="#484f84" /><rect x="9" y="7" width="1" height="1" fill="#5d6289" /><rect x="9" y="8" width="1" height="1" fill="#424662" /><rect x="9" y="9" width="1" height="1" fill="#373950" /></g></svg>