<svg width="800" height="1000" xmlns="http://www.w3.org/2000/svg"><defs><linearGradient id="g" x1="0" x2="1" y1="0" y2="1"><stop offset="0%" stop-color="#2d3c96"/><stop offset="100%" stop-color="#d53392"/></linearGradient></defs><rect x="10" y="10" width="780" height="980" fill="url(#g)" rx="50" ry="50" stroke="gold" stroke-width="20"/><text x="400" y="920" width="780" text-anchor="middle" style="font:bold 200px 'Helvetica Neue';fill:gold">01376</text><g transform="translate(80 80) scale(64)"><rect x="0" y="0" width="1" height="1" fill="#3f275b" /><rect x="0" y="1" width="1" height="1" fill="#3f285e" /><rect x="0" y="2" width="1" height="1" fill="#3b2860" /><rect x="0" y="3" width="1" height="1" fill="#42336c" /><rect x="0" y="4" width="1" height="1" fill="#3e346a" /><rect x="0" y="5" width="1" height="1" fill="#3a3365" /><rect x="0" y="6" width="1" height="1" fill="#3b3962" /><rect x="0" y="7" width="1" height="1" fill="#49496e" /><rect x="0" y="8" width="1" height="1" fill="#454569" /><rect x="0" y="9" width="1" height="1" fill="#56567a" /><rect x="1" y="0" width="1" height="1" fill="#492f63" /><rect x="1" y="1" width="1" height="1" fill="#4a3369" /><rect x="1" y="2" width="1" height="1" fill="#3a255f" /><rect x="1" y="3" width="1" height="1" fill="#46366f" /><rect x="1" y="4" width="1" height="1" fill="#4d4179" /><rect x="1" y="5" width="1" height="1" fill="#3e376a" /><rect x="1" y="6" width="1" height="1" fill="#3e3b67" /><rect x="1" y="7" width="1" height="1" fill="#4b4a72" /><rect x="1" y="8" width="1" height="1" fill="#4b4a71" /><rect x="1" y="9" width="1" height="1" fill="#5b5a81" /><rect x="2" y="0" width="1" height="1" fill="#3c2155" /><rect x="2" y="1" width="1" height="1" fill="#4b3167" /><rect x="2" y="2" width="1" height="1" fill="#452f69" /><rect x="2" y="3" width="1" height="1" fill="#55437f" /><rect x="2" y="4" width="1" height="1" fill="#5b4d88" /><rect x="2" y="5" width="1" height="1" fill="#41386f" /><rect x="2" y="6" width="1" height="1" fill="#413c6c" /><rect x="2" y="7" width="1" height="1" fill="#4e4b78" /><rect x="2" y="8" width="1" height="1" fill="#524f7b" /><rect x="2" y="9" width="1" height="1" fill="#625f8a" /><rect x="3" y="0" width="1" height="1" fill="#57396c" /><rect x="3" y="1" width="1" height="1" fill="#54376d" /><rect x="3" y="2" width="1" height="1" fill="#583f7a" /><rect x="3" y="3" width="1" height="1" fill="#644f8d" /><rect x="3" y="4" width="1" height="1" fill="#625290" /><rect x="3" y="5" width="1" height="1" fill="#4a3f7a" /><rect x="3" y="6" width="1" height="1" fill="#4a4378" /><rect x="3" y="7" width="1" height="1" fill="#524d7f" /><rect x="3" y="8" width="1" height="1" fill="#534e7e" /><rect x="3" y="9" width="1" height="1" fill="#666191" /><rect x="4" y="0" width="1" height="1" fill="#745484" /><rect x="4" y="1" width="1" height="1" fill="#513266" /><rect x="4" y="2" width="1" height="1" fill="#664a85" /><rect x="4" y="3" width="1" height="1" fill="#6f5697" /><rect x="4" y="4" width="1" height="1" fill="#614f91" /><rect x="4" y="5" width="1" height="1" fill="#4c3e7f" /><rect x="4" y="6" width="1" height="1" fill="#504682" /><rect x="4" y="7" width="1" height="1" fill="#5f5790" /><rect x="4" y="8" width="1" height="1" fill="#5a5288" /><rect x="4" y="9" width="1" height="1" fill="#6f689c" /><rect x="5" y="0" width="1" height="1" fill="#a27fad" /><rect x="5" y="1" width="1" height="1" fill="#593769" /><rect x="5" y="2" width="1" height="1" fill="#5d3e79" /><rect x="5" y="3" width="1" height="1" fill="#5d4284" /><rect x="5" y="4" width="1" height="1" fill="#564086" /><rect x="5" y="5" width="1" height="1" fill="#4a397f" /><rect x="5" y="6" width="1" height="1" fill="#4e4082" /><rect x="5" y="7" width="1" height="1" fill="#5f5492" /><rect x="5" y="8" width="1" height="1" fill="#625892" /><rect x="5" y="9" width="1" height="1" fill="#766da5" /><rect x="6" y="0" width="1" height="1" fill="#97729b" /><rect x="6" y="1" width="1" height="1" fill="#684473" /><rect x="6" y="2" width="1" height="1" fill="#6e4e87" /><rect x="6" y="3" width="1" height="1" fill="#634688" /><rect x="6" y="4" width="1" height="1" fill="#5f468f" /><rect x="6" y="5" width="1" height="1" fill="#523d88" /><rect x="6" y="6" width="1" height="1" fill="#58488f" /><rect x="6" y="7" width="1" height="1" fill="#6a5c9f" /><rect x="6" y="8" width="1" height="1" fill="#675b99" /><rect x="6" y="9" width="1" height="1" fill="#7c71ac" /><rect x="7" y="0" width="1" height="1" fill="#825b80" /><rect x="7" y="1" width="1" height="1" fill="#7b5681" /><rect x="7" y="2" width="1" height="1" fill="#846199" /><rect x="7" y="3" width="1" height="1" fill="#6a4b8d" /><rect x="7" y="4" width="1" height="1" fill="#6a4e99" /><rect x="7" y="5" width="1" height="1" fill="#5c4593" /><rect x="7" y="6" width="1" height="1" fill="#62509a" /><rect x="7" y="7" width="1" height="1" fill="#6d5fa3" /><rect x="7" y="8" width="1" height="1" fill="#7366a5" /><rect x="7" y="9" width="1" height="1" fill="#897eb9" /><rect x="8" y="0" width="1" height="1" fill="#784f71" /><rect x="8" y="1" width="1" height="1" fill="#775078" /><rect x="8" y="2" width="1" height="1" fill="#a884ba" /><rect x="8" y="3" width="1" height="1" fill="#8969aa" /><rect x="8" y="4" width="1" height="1" fill="#7f63ae" /><rect x="8" y="5" width="1" height="1" fill="#604896" /><rect x="8" y="6" width="1" height="1" fill="#6755a0" /><rect x="8" y="7" width="1" height="1" fill="#67599e" /><rect x="8" y="8" width="1" height="1" fill="#7669a7" /><rect x="8" y="9" width="1" height="1" fill="#8176b0" /><rect x="9" y="0" width="1" height="1" fill="#986f8f" /><rect x="9" y="1" width="1" height="1" fill="#825b81" /><rect x="9" y="2" width="1" height="1" fill="#9873a8" /><rect x="9" y="3" width="1" height="1" fill="#745294" /><rect x="9" y="4" width="1" height="1" fill="#6c4f9a" /><rect x="9" y="5" width="1" height="1" fill="#5e4695" /><rect x="9" y="6" width="1" height="1" fill="#6f5ca7" /><rect x="9" y="7" width="1" height="1" fill="#7567ac" /><rect x="9" y="8" width="1" height="1" fill="#7b6eac" /><rect x="9" y="9" width="1" height="1" fill="#857ab4" /></g></svg>