<svg width="800" height="1000" xmlns="http://www.w3.org/2000/svg"><defs><linearGradient id="g" x1="0" x2="1" y1="0" y2="1"><stop offset="0%" stop-color="#2d3c96"/><stop offset="100%" stop-color="#d53392"/></linearGradient></defs><rect x="10" y="10" width="780" height="980" fill="url(#g)" rx="50" ry="50" stroke="gold" stroke-width="20"/><text x="400" y="920" width="780" text-anchor="middle" style="font:bold 200px 'Helvetica Neue';fill:gold">01377</text><g transform="translate(80 80) scale(64)"><rect x="0" y="0" width="1" height="1" fill="#614248" /><rect x="0" y="1" width="1" height="1" fill="#6f525b" /><rect x="0" y="2" width="1" height="1" fill="#7c6370" /><rect x="0" y="3" width="1" height="1" fill="#76617c" /><rect x="0" y="4" width="1" height="1" fill="#6e5c8f" /><rect x="0" y="5" width="1" height="1" fill="#68599a" /><rect x="0" y="6" width="1" height="1" fill="#5b5094" /><rect x="0" y="7" width="1" height="1" fill="#766eae" /><rect x="0" y="8" width="1" height="1" fill="#817cb2" /><rect x="0" y="9" width="1" height="1" fill="#7773a4" /><rect x="1" y="0" width="1" height="1" fill="#8c6e6f" /><rect x="1" y="1" width="1" height="1" fill="#3e2125" /><rect x="1" y="2" width="1" height="1" fill="#4f3740" /><rect x="1" y="3" width="1" height="1" fill="#644f68" /><rect x="1" y="4" width="1" height="1" fill="#917fb1" /><rect x="1" y="5" width="1" height="1" fill="#6e5fa0" /><rect x="1" y="6" width="1" height="1" fill="#665aa0" /><rect x="1" y="7" width="1" height="1" fill="#7268ad" /><rect x="1" y="8" width="1" height="1" fill="#8982be" /><rect x="1" y="9" width="1" height="1" fill="#706ba2" /><rect x="2" y="0" width="1" height="1" fill="#d4b6ae" /><rect x="2" y="1" width="1" height="1" fill="#e0c4c0" /><rect x="2" y="2" width="1" height="1" fill="#775e61" /><rect x="2" y="3" width="1" height="1" fill="#594358" /><rect x="2" y="4" width="1" height="1" fill="#715e8e" /><rect x="2" y="5" width="1" height="1" fill="#7060a2" /><rect x="2" y="6" width="1" height="1" fill="#7567b2" /><rect x="2" y="7" width="1" height="1" fill="#7d72be" /><rect x="2" y="8" width="1" height="1" fill="#9c92d8" /><rect x="2" y="9" width="1" height="1" fill="#6f67aa" /><rect x="3" y="0" width="1" height="1" fill="#6d4e4b" /><rect x="3" y="1" width="1" height="1" fill="#87696a" /><rect x="3" y="2" width="1" height="1" fill="#a78d95" /><rect x="3" y="3" width="1" height="1" fill="#7b647d" /><rect x="3" y="4" width="1" height="1" fill="#655186" /><rect x="3" y="5" width="1" height="1" fill="#7765ad" /><rect x="3" y="6" width="1" height="1" fill="#796abb" /><rect x="3" y="7" width="1" height="1" fill="#7c6fc1" /><rect x="3" y="8" width="1" height="1" fill="#a398e5" /><rect x="3" y="9" width="1" height="1" fill="#695ea9" /><rect x="4" y="0" width="1" height="1" fill="#cfadbc" /><rect x="4" y="1" width="1" height="1" fill="#ad8c9e" /><rect x="4" y="2" width="1" height="1" fill="#583c53" /><rect x="4" y="3" width="1" height="1" fill="#886f96" /><rect x="4" y="4" width="1" height="1" fill="#9e87c7" /><rect x="4" y="5" width="1" height="1" fill="#735faf" /><rect x="4" y="6" width="1" height="1" fill="#7867bd" /><rect x="4" y="7" width="1" height="1" fill="#8c7ed4" /><rect x="4" y="8" width="1" height="1" fill="#9f93e3" /><rect x="4" y="9" width="1" height="1" fill="#6358a5" /><rect x="5" y="0" width="1" height="1" fill="#a680a6" /><rect x="5" y="1" width="1" height="1" fill="#a784ab" /><rect x="5" y="2" width="1" height="1" fill="#a587b1" /><rect x="5" y="3" width="1" height="1" fill="#7e6398" /><rect x="5" y="4" width="1" height="1" fill="#7d65b0" /><rect x="5" y="5" width="1" height="1" fill="#7a65bb" /><rect x="5" y="6" width="1" height="1" fill="#9080d9" /><rect x="5" y="7" width="1" height="1" fill="#8376cc" /><rect x="5" y="8" width="1" height="1" fill="#9e93e1" /><rect x="5" y="9" width="1" height="1" fill="#665da6" /><rect x="6" y="0" width="1" height="1" fill="#8760a1" /><rect x="6" y="1" width="1" height="1" fill="#9f79ba" /><rect x="6" y="2" width="1" height="1" fill="#ddbdfd" /><rect x="6" y="3" width="1" height="1" fill="#ab90d6" /><rect x="6" y="4" width="1" height="1" fill="#a189de" /><rect x="6" y="5" width="1" height="1" fill="#7d6ac4" /><rect x="6" y="6" width="1" height="1" fill="#8273cc" /><rect x="6" y="7" width="1" height="1" fill="#8378ca" /><rect x="6" y="8" width="1" height="1" fill="#948bd3" /><rect x="6" y="9" width="1" height="1" fill="#675fa1" /><rect x="7" y="0" width="1" height="1" fill="#b38cdd" /><rect x="7" y="1" width="1" height="1" fill="#b893e2" /><rect x="7" y="2" width="1" height="1" fill="#d6b7ff" /><rect x="7" y="3" width="1" height="1" fill="#c1a7f5" /><rect x="7" y="4" width="1" height="1" fill="#ad97f0" /><rect x="7" y="5" width="1" height="1" fill="#7b69c5" /><rect x="7" y="6" width="1" height="1" fill="#796cc3" /><rect x="7" y="7" width="1" height="1" fill="#8980cf" /><rect x="7" y="8" width="1" height="1" fill="#8984c6" /><rect x="7" y="9" width="1" height="1" fill="#625e9b" /><rect x="8" y="0" width="1" height="1" fill="#b491e5" /><rect x="8" y="1" width="1" height="1" fill="#c8a7f8" /><rect x="8" y="2" width="1" height="1" fill="#ab8fdb" /><rect x="8" y="3" width="1" height="1" fill="#ceb7ff" /><rect x="8" y="4" width="1" height="1" fill="#806dc5" /><rect x="8" y="5" width="1" height="1" fill="#8f80da" /><rect x="8" y="6" width="1" height="1" fill="#6a61b5" /><rect x="8" y="7" width="1" height="1" fill="#837ec9" /><rect x="8" y="8" width="1" height="1" fill="#8886c6" /><rect x="8" y="9" width="1" height="1" fill="#6665a0" /><rect x="9" y="0" width="1" height="1" fill="#ab89df" /><rect x="9" y="1" width="1" height="1" fill="#c4a4f7" /><rect x="9" y="2" width="1" height="1" fill="#a98edb" /><rect x="9" y="3" width="1" height="1" fill="#bca6f5" /><rect x="9" y="4" width="1" height="1" fill="#ad9cf3" /><rect x="9" y="5" width="1" height="1" fill="#42358d" /><rect x="9" y="6" width="1" height="1" fill="#241c6f" /><rect x="9" y="7" width="1" height="1" fill="#3d3984" /><rect x="9" y="8" width="1" height="1" fill="#6767a6" /><rect x="9" y="9" width="1" height="1" fill="#63649d" /></g></svg>