<svg width="800" height="1000" xmlns="http://www.w3.org/2000/svg"><defs><linearGradient id="g" x1="0" x2="1" y1="0" y2="1"><stop offset="0%" stop-color="#2d3c96"/><stop offset="100%" stop-color="#d53392"/></linearGradient></defs><rect x="10" y="10" width="780" height="980" fill="url(#g)" rx="50" ry="50" stroke="gold" stroke-width="20"/><text x="400" y="920" width="780" text-anchor="middle" style="font:bold 200px 'Helvetica Neue';fill:gold">01380</text><g transform="translate(80 80) scale(64)"><rect x="0" y="0" width="1" height="1" fill="#262a96" /><rect x="0" y="1" width="1" height="1" fill="#585ecd" /><rect x="0" y="2" width="1" height="1" fill="#444cc0" /><rect x="0" y="3" width="1" height="1" fill="#313aaa" /><rect x="0" y="4" width="1" height="1" fill="#6e77db" /><rect x="0" y="5" width="1" height="1" fill="#41499d" /><rect x="0" y="6" width="1" height="1" fill="#4d5195" /><rect x="0" y="7" width="1" height="1" fill="#5c5f91" /><rect x="0" y="8" width="1" height="1" fill="#3e4260" /><rect x="0" y="9" width="1" height="1" fill="#2f3448" /><rect x="1" y="0" width="1" height="1" fill="#4b4ebe" /><rect x="1" y="1" width="1" height="1" fill="#5d61d4" /><rect x="1" y="2" width="1" height="1" fill="#4b51c9" /><rect x="1" y="3" width="1" height="1" fill="#4a52c6" /><rect x="1" y="4" width="1" height="1" fill="#5f67ce" /><rect x="1" y="5" width="1" height="1" fill="#4b52aa" /><rect x="1" y="6" width="1" height="1" fill="#3f438a" /><rect x="1" y="7" width="1" height="1" fill="#595c90" /><rect x="1" y="8" width="1" height="1" fill="#3e4363" /><rect x="1" y="9" width="1" height="1" fill="#31364c" /><rect x="2" y="0" width="1" height="1" fill="#6160d7" /><rect x="2" y="1" width="1" height="1" fill="#6c6de7" /><rect x="2" y="2" width="1" height="1" fill="#5559d8" /><rect x="2" y="3" width="1" height="1" fill="#5359d5" /><rect x="2" y="4" width="1" height="1" fill="#555bca" /><rect x="2" y="5" width="1" height="1" fill="#5b61c0" /><rect x="2" y="6" width="1" height="1" fill="#484b98" /><rect x="2" y="7" width="1" height="1" fill="#52558f" /><rect x="2" y="8" width="1" height="1" fill="#35395d" /><rect x="2" y="9" width="1" height="1" fill="#2a3048" /><rect x="3" y="0" width="1" height="1" fill="#716de7" /><rect x="3" y="1" width="1" height="1" fill="#716fec" /><rect x="3" y="2" width="1" height="1" fill="#6869ed" /><rect x="3" y="3" width="1" height="1" fill="#4d50d1" /><rect x="3" y="4" width="1" height="1" fill="#5e63d7" /><rect x="3" y="5" width="1" height="1" fill="#656ace" /><rect x="3" y="6" width="1" height="1" fill="#404396" /><rect x="3" y="7" width="1" height="1" fill="#484b89" /><rect x="3" y="8" width="1" height="1" fill="#33385f" /><rect x="3" y="9" width="1" height="1" fill="#2e344f" /><rect x="4" y="0" width="1" height="1" fill="#837cf4" /><rect x="4" y="1" width="1" height="1" fill="#756feb" /><rect x="4" y="2" width="1" height="1" fill="#6764e8" /><rect x="4" y="3" width="1" height="1" fill="#5253d6" /><rect x="4" y="4" width="1" height="1" fill="#575bd1" /><rect x="4" y="5" width="1" height="1" fill="#6166cd" /><rect x="4" y="6" width="1" height="1" fill="#5a5db3" /><rect x="4" y="7" width="1" height="1" fill="#414385" /><rect x="4" y="8" width="1" height="1" fill="#323862" /><rect x="4" y="9" width="1" height="1" fill="#323857" /><rect x="5" y="0" width="1" height="1" fill="#a69aff" /><rect x="5" y="1" width="1" height="1" fill="#776de1" /><rect x="5" y="2" width="1" height="1" fill="#645edc" /><rect x="5" y="3" width="1" height="1" fill="#7472f0" /><rect x="5" y="4" width="1" height="1" fill="#595bcf" /><rect x="5" y="5" width="1" height="1" fill="#5e61c8" /><rect x="5" y="6" width="1" height="1" fill="#5153a9" /><rect x="5" y="7" width="1" height="1" fill="#3f4184" /><rect x="5" y="8" width="1" height="1" fill="#2c305c" /><rect x="5" y="9" width="1" height="1" fill="#313758" /><rect x="6" y="0" width="1" height="1" fill="#b9a8ff" /><rect x="6" y="1" width="1" height="1" fill="#5445ab" /><rect x="6" y="2" width="1" height="1" fill="#6157c8" /><rect x="6" y="3" width="1" height="1" fill="#8f8afe" /><rect x="6" y="4" width="1" height="1" fill="#5353bf" /><rect x="6" y="5" width="1" height="1" fill="#6465c7" /><rect x="6" y="6" width="1" height="1" fill="#4b4c9f" /><rect x="6" y="7" width="1" height="1" fill="#464789" /><rect x="6" y="8" width="1" height="1" fill="#2e325f" /><rect x="6" y="9" width="1" height="1" fill="#373c5d" /><rect x="7" y="0" width="1" height="1" fill="#9a82d5" /><rect x="7" y="1" width="1" height="1" fill="#9985de" /><rect x="7" y="2" width="1" height="1" fill="#47399f" /><rect x="7" y="3" width="1" height="1" fill="#4f48b1" /><rect x="7" y="4" width="1" height="1" fill="#504eb3" /><rect x="7" y="5" width="1" height="1" fill="#5858b5" /><rect x="7" y="6" width="1" height="1" fill="#5353a3" /><rect x="7" y="7" width="1" height="1" fill="#515191" /><rect x="7" y="8" width="1" height="1" fill="#363863" /><rect x="7" y="9" width="1" height="1" fill="#404365" /><rect x="8" y="0" width="1" height="1" fill="#63438b" /><rect x="8" y="1" width="1" height="1" fill="#c9aefc" /><rect x="8" y="2" width="1" height="1" fill="#6956b2" /><rect x="8" y="3" width="1" height="1" fill="#443899" /><rect x="8" y="4" width="1" height="1" fill="#4f4aa7" /><rect x="8" y="5" width="1" height="1" fill="#8684db" /><rect x="8" y="6" width="1" height="1" fill="#6b69b5" /><rect x="8" y="7" width="1" height="1" fill="#4b4986" /><rect x="8" y="8" width="1" height="1" fill="#36355e" /><rect x="8" y="9" width="1" height="1" fill="#515171" /><rect x="9" y="0" width="1" height="1" fill="#6c498b" /><rect x="9" y="1" width="1" height="1" fill="#8062aa" /><rect x="9" y="2" width="1" height="1" fill="#937ed4" /><rect x="9" y="3" width="1" height="1" fill="#8274d1" /><rect x="9" y="4" width="1" height="1" fill="#b8b2ff" /><rect x="9" y="5" width="1" height="1" fill="#8b89dd" /><rect x="9" y="6" width="1" height="1" fill="#4a4791" /><rect x="9" y="7" width="1" height="1" fill="#4b4884" /><rect x="9" y="8" width="1" height="1" fill="#43426a" /><rect x="9" y="9" width="1" height="1" fill="#5f5e7d" /></g></svg>