<svg width="800" height="1000" xmlns="http://www.w3.org/2000/svg"><defs><linearGradient id="g" x1="0" x2="1" y1="0" y2="1"><stop offset="0%" stop-color="#2d3c96"/><stop offset="100%" stop-color="#d53392"/></linearGradient></defs><rect x="10" y="10" width="780" height="980" fill="url(#g)" rx="50" ry="50" stroke="gold" stroke-width="20"/><text x="400" y="920" width="780" text-anchor="middle" style="font:bold 200px 'Helvetica Neue';fill:gold">01382</text><g transform="translate(80 80) scale(64)"><rect x="0" y="0" width="1" height="1" fill="#b87d77" /><rect x="0" y="1" width="1" height="1" fill="#4b110f" /><rect x="0" y="2" width="1" height="1" fill="#d9a0a8" /><rect x="0" y="3" width="1" height="1" fill="#693446" /><rect x="0" y="4" width="1" height="1" fill="#774765" /><rect x="0" y="5" width="1" height="1" fill="#70476f" /><rect x="0" y="6" width="1" height="1" fill="#886897" /><rect x="0" y="7" width="1" height="1" fill="#7a6297" /><rect x="0" y="8" width="1" height="1" fill="#6f5f97" /><rect x="0" y="9" width="1" height="1" fill="#7368a2" /><rect x="1" y="0" width="1" height="1" fill="#bf827d" /><rect x="1" y="1" width="1" height="1" fill="#682c2c" /><rect x="1" y="2" width="1" height="1" fill="#723840" /><rect x="1" y="3" width="1" height="1" fill="#784254" /><rect x="1" y="4" width="1" height="1" fill="#7b4a67" /><rect x="1" y="5" width="1" height="1" fill="#72486f" /><rect x="1" y="6" width="1" height="1" fill="#886796" /><rect x="1" y="7" width="1" height="1" fill="#7a6296" /><rect x="1" y="8" width="1" height="1" fill="#625289" /><rect x="1" y="9" width="1" height="1" fill="#70649d" /><rect x="2" y="0" width="1" height="1" fill="#cb8d89" /><rect x="2" y="1" width="1" height="1" fill="#793c3c" /><rect x="2" y="2" width="1" height="1" fill="#ac7079" /><rect x="2" y="3" width="1" height="1" fill="#a36b7d" /><rect x="2" y="4" width="1" height="1" fill="#824f6d" /><rect x="2" y="5" width="1" height="1" fill="#6a3e65" /><rect x="2" y="6" width="1" height="1" fill="#83618e" /><rect x="2" y="7" width="1" height="1" fill="#6c5385" /><rect x="2" y="8" width="1" height="1" fill="#58477c" /><rect x="2" y="9" width="1" height="1" fill="#6d6197" /><rect x="3" y="0" width="1" height="1" fill="#da9a99" /><rect x="3" y="1" width="1" height="1" fill="#8f5052" /><rect x="3" y="2" width="1" height="1" fill="#793d46" /><rect x="3" y="3" width="1" height="1" fill="#5e2537" /><rect x="3" y="4" width="1" height="1" fill="#9a6683" /><rect x="3" y="5" width="1" height="1" fill="#73466c" /><rect x="3" y="6" width="1" height="1" fill="#815f8b" /><rect x="3" y="7" width="1" height="1" fill="#634a7a" /><rect x="3" y="8" width="1" height="1" fill="#574679" /><rect x="3" y="9" width="1" height="1" fill="#716498" /><rect x="4" y="0" width="1" height="1" fill="#edacaf" /><rect x="4" y="1" width="1" height="1" fill="#a4666b" /><rect x="4" y="2" width="1" height="1" fill="#531722" /><rect x="4" y="3" width="1" height="1" fill="#7e465a" /><rect x="4" y="4" width="1" height="1" fill="#915e7c" /><rect x="4" y="5" width="1" height="1" fill="#774c71" /><rect x="4" y="6" width="1" height="1" fill="#674570" /><rect x="4" y="7" width="1" height="1" fill="#523968" /><rect x="4" y="8" width="1" height="1" fill="#504070" /><rect x="4" y="9" width="1" height="1" fill="#645889" /><rect x="5" y="0" width="1" height="1" fill="#f1b2b9" /><rect x="5" y="1" width="1" height="1" fill="#9c5f68" /><rect x="5" y="2" width="1" height="1" fill="#a96f7e" /><rect x="5" y="3" width="1" height="1" fill="#966077" /><rect x="5" y="4" width="1" height="1" fill="#693958" /><rect x="5" y="5" width="1" height="1" fill="#6f466d" /><rect x="5" y="6" width="1" height="1" fill="#6a4975" /><rect x="5" y="7" width="1" height="1" fill="#4d3565" /><rect x="5" y="8" width="1" height="1" fill="#564676" /><rect x="5" y="9" width="1" height="1" fill="#5f5384" /><rect x="6" y="0" width="1" height="1" fill="#bb808c" /><rect x="6" y="1" width="1" height="1" fill="#8a5160" /><rect x="6" y="2" width="1" height="1" fill="#683347" /><rect x="6" y="3" width="1" height="1" fill="#703e59" /><rect x="6" y="4" width="1" height="1" fill="#5e3255" /><rect x="6" y="5" width="1" height="1" fill="#77527c" /><rect x="6" y="6" width="1" height="1" fill="#553867" /><rect x="6" y="7" width="1" height="1" fill="#503a6b" /><rect x="6" y="8" width="1" height="1" fill="#564779" /><rect x="6" y="9" width="1" height="1" fill="#56497d" /><rect x="7" y="0" width="1" height="1" fill="#4c1729" /><rect x="7" y="1" width="1" height="1" fill="#6e3a4f" /><rect x="7" y="2" width="1" height="1" fill="#481831" /><rect x="7" y="3" width="1" height="1" fill="#815575" /><rect x="7" y="4" width="1" height="1" fill="#633d64" /><rect x="7" y="5" width="1" height="1" fill="#6e4e7b" /><rect x="7" y="6" width="1" height="1" fill="#72598a" /><rect x="7" y="7" width="1" height="1" fill="#463266" /><rect x="7" y="8" width="1" height="1" fill="#54457b" /><rect x="7" y="9" width="1" height="1" fill="#4d4177" /><rect x="8" y="0" width="1" height="1" fill="#43142c" /><rect x="8" y="1" width="1" height="1" fill="#6f415c" /><rect x="8" y="2" width="1" height="1" fill="#4d2342" /><rect x="8" y="3" width="1" height="1" fill="#7d577c" /><rect x="8" y="4" width="1" height="1" fill="#51315d" /><rect x="8" y="5" width="1" height="1" fill="#4e3364" /><rect x="8" y="6" width="1" height="1" fill="#493468" /><rect x="8" y="7" width="1" height="1" fill="#4e3d73" /><rect x="8" y="8" width="1" height="1" fill="#493c73" /><rect x="8" y="9" width="1" height="1" fill="#4c4078" /><rect x="9" y="0" width="1" height="1" fill="#996d88" /><rect x="9" y="1" width="1" height="1" fill="#5a2f4c" /><rect x="9" y="2" width="1" height="1" fill="#31092c" /><rect x="9" y="3" width="1" height="1" fill="#815e86" /><rect x="9" y="4" width="1" height="1" fill="#593c6a" /><rect x="9" y="5" width="1" height="1" fill="#3b2356" /><rect x="9" y="6" width="1" height="1" fill="#49366c" /><rect x="9" y="7" width="1" height="1" fill="#493971" /><rect x="9" y="8" width="1" height="1" fill="#463a73" /><rect x="9" y="9" width="1" height="1" fill="#493e78" /></g></svg>