<svg width="800" height="1000" version="1.1" xmlns="http://www.w3.org/2000/svg" xmlns:xlink="http://www.w3.org/1999/xlink">
  <defs>
      <linearGradient id="Gradient2" x1="0" x2="1" y1="0" y2="1">
        <stop offset="0%" stop-color="#2d3c96"/>
        <stop offset="100%" stop-color="#d53392"/>
      </linearGradient>
  </defs>
  <rect x="10" y="10" width="780" height="980" fill="url(#Gradient2)" rx="50" ry="50" stroke="#ffd700" stroke-width="20"/>
  <text x="400" y="920" width="780" text-anchor="middle" style="font: bold 200px 'Helvetica Neue'; fill: #ffd700">01409</text>

  <g transform="translate(80 80) scale(64)">
<rect x="0" y="0" width="1" height="1" fill="#3f5058" />
,<rect x="0" y="1" width="1" height="1" fill="#3e4651" />
,<rect x="0" y="2" width="1" height="1" fill="#424854" />
,<rect x="0" y="3" width="1" height="1" fill="#555f61" />
,<rect x="0" y="4" width="1" height="1" fill="#555e65" />
,<rect x="0" y="5" width="1" height="1" fill="#4e595f" />
,<rect x="0" y="6" width="1" height="1" fill="#667175" />
,<rect x="0" y="7" width="1" height="1" fill="#828d89" />
,<rect x="0" y="8" width="1" height="1" fill="#8e9794" />
,<rect x="0" y="9" width="1" height="1" fill="#a0a19b" />
,<rect x="1" y="0" width="1" height="1" fill="#737d75" />
,<rect x="1" y="1" width="1" height="1" fill="#63666b" />
,<rect x="1" y="2" width="1" height="1" fill="#464e59" />
,<rect x="1" y="3" width="1" height="1" fill="#394752" />
,<rect x="1" y="4" width="1" height="1" fill="#5f6670" />
,<rect x="1" y="5" width="1" height="1" fill="#747e80" />
,<rect x="1" y="6" width="1" height="1" fill="#4d5761" />
,<rect x="1" y="7" width="1" height="1" fill="#717479" />
,<rect x="1" y="8" width="1" height="1" fill="#9b9c96" />
,<rect x="1" y="9" width="1" height="1" fill="#959e99" />
,<rect x="2" y="0" width="1" height="1" fill="#7c8276" />
,<rect x="2" y="1" width="1" height="1" fill="#606970" />
,<rect x="2" y="2" width="1" height="1" fill="#3f4659" />
,<rect x="2" y="3" width="1" height="1" fill="#4f585f" />
,<rect x="2" y="4" width="1" height="1" fill="#6d767b" />
,<rect x="2" y="5" width="1" height="1" fill="#777f82" />
,<rect x="2" y="6" width="1" height="1" fill="#70777f" />
,<rect x="2" y="7" width="1" height="1" fill="#7e8a8a" />
,<rect x="2" y="8" width="1" height="1" fill="#969a9b" />
,<rect x="2" y="9" width="1" height="1" fill="#99a099" />
,<rect x="3" y="0" width="1" height="1" fill="#4b5355" />
,<rect x="3" y="1" width="1" height="1" fill="#5e686a" />
,<rect x="3" y="2" width="1" height="1" fill="#6b747b" />
,<rect x="3" y="3" width="1" height="1" fill="#475059" />
,<rect x="3" y="4" width="1" height="1" fill="#56636c" />
,<rect x="3" y="5" width="1" height="1" fill="#757f7f" />
,<rect x="3" y="6" width="1" height="1" fill="#878c8f" />
,<rect x="3" y="7" width="1" height="1" fill="#979996" />
,<rect x="3" y="8" width="1" height="1" fill="#9ea198" />
,<rect x="3" y="9" width="1" height="1" fill="#999d9c" />
,<rect x="4" y="0" width="1" height="1" fill="#3d464b" />
,<rect x="4" y="1" width="1" height="1" fill="#586463" />
,<rect x="4" y="2" width="1" height="1" fill="#6e7877" />
,<rect x="4" y="3" width="1" height="1" fill="#5f686d" />
,<rect x="4" y="4" width="1" height="1" fill="#6b7479" />
,<rect x="4" y="5" width="1" height="1" fill="#80888b" />
,<rect x="4" y="6" width="1" height="1" fill="#909497" />
,<rect x="4" y="7" width="1" height="1" fill="#a9a9a1" />
,<rect x="4" y="8" width="1" height="1" fill="#8f989d" />
,<rect x="4" y="9" width="1" height="1" fill="#66808f" />
,<rect x="5" y="0" width="1" height="1" fill="#3b4d57" />
,<rect x="5" y="1" width="1" height="1" fill="#596966" />
,<rect x="5" y="2" width="1" height="1" fill="#757978" />
,<rect x="5" y="3" width="1" height="1" fill="#93938b" />
,<rect x="5" y="4" width="1" height="1" fill="#8e938f" />
,<rect x="5" y="5" width="1" height="1" fill="#929290" />
,<rect x="5" y="6" width="1" height="1" fill="#999b98" />
,<rect x="5" y="7" width="1" height="1" fill="#8b999c" />
,<rect x="5" y="8" width="1" height="1" fill="#658793" />
,<rect x="5" y="9" width="1" height="1" fill="#617d8b" />
,<rect x="6" y="0" width="1" height="1" fill="#45585f" />
,<rect x="6" y="1" width="1" height="1" fill="#4c5d64" />
,<rect x="6" y="2" width="1" height="1" fill="#616f70" />
,<rect x="6" y="3" width="1" height="1" fill="#8b8c86" />
,<rect x="6" y="4" width="1" height="1" fill="#838989" />
,<rect x="6" y="5" width="1" height="1" fill="#979b9c" />
,<rect x="6" y="6" width="1" height="1" fill="#9f9f9d" />
,<rect x="6" y="7" width="1" height="1" fill="#687f8f" />
,<rect x="6" y="8" width="1" height="1" fill="#678092" />
,<rect x="6" y="9" width="1" height="1" fill="#668290" />
,<rect x="7" y="0" width="1" height="1" fill="#455459" />
,<rect x="7" y="1" width="1" height="1" fill="#40555a" />
,<rect x="7" y="2" width="1" height="1" fill="#3f5258" />
,<rect x="7" y="3" width="1" height="1" fill="#6f7777" />
,<rect x="7" y="4" width="1" height="1" fill="#6e6f74" />
,<rect x="7" y="5" width="1" height="1" fill="#5c6471" />
,<rect x="7" y="6" width="1" height="1" fill="#677578" />
,<rect x="7" y="7" width="1" height="1" fill="#697f8c" />
,<rect x="7" y="8" width="1" height="1" fill="#657f90" />
,<rect x="7" y="9" width="1" height="1" fill="#628193" />
,<rect x="8" y="0" width="1" height="1" fill="#395354" />
,<rect x="8" y="1" width="1" height="1" fill="#455962" />
,<rect x="8" y="2" width="1" height="1" fill="#32464f" />
,<rect x="8" y="3" width="1" height="1" fill="#576264" />
,<rect x="8" y="4" width="1" height="1" fill="#6f7779" />
,<rect x="8" y="5" width="1" height="1" fill="#3c4951" />
,<rect x="8" y="6" width="1" height="1" fill="#495a62" />
,<rect x="8" y="7" width="1" height="1" fill="#6d8086" />
,<rect x="8" y="8" width="1" height="1" fill="#698392" />
,<rect x="8" y="9" width="1" height="1" fill="#66808f" />
,<rect x="9" y="0" width="1" height="1" fill="#36525d" />
,<rect x="9" y="1" width="1" height="1" fill="#3d535e" />
,<rect x="9" y="2" width="1" height="1" fill="#354552" />
,<rect x="9" y="3" width="1" height="1" fill="#4e575e" />
,<rect x="9" y="4" width="1" height="1" fill="#6f7777" />
,<rect x="9" y="5" width="1" height="1" fill="#626d6f" />
,<rect x="9" y="6" width="1" height="1" fill="#46555c" />
,<rect x="9" y="7" width="1" height="1" fill="#717b7d" />
,<rect x="9" y="8" width="1" height="1" fill="#7f8e91" />
,<rect x="9" y="9" width="1" height="1" fill="#7c8b8e" />

  </g>
</svg>