<svg width="800" height="1000" version="1.1" xmlns="http://www.w3.org/2000/svg" xmlns:xlink="http://www.w3.org/1999/xlink">
  <defs>
      <linearGradient id="Gradient2" x1="0" x2="1" y1="0" y2="1">
        <stop offset="0%" stop-color="#2d3c96"/>
        <stop offset="100%" stop-color="#d53392"/>
      </linearGradient>
  </defs>
  <rect x="10" y="10" width="780" height="980" fill="url(#Gradient2)" rx="50" ry="50" stroke="#ffd700" stroke-width="20"/>
  <text x="400" y="920" width="780" text-anchor="middle" style="font: bold 200px 'Helvetica Neue'; fill: #ffd700">01408</text>

  <g transform="translate(80 80) scale(64)">
<rect x="0" y="0" width="1" height="1" fill="#2D2F3B" /><rect x="1" y="0" width="1" height="1" fill="#2E3641" /><rect x="2" y="0" width="1" height="1" fill="#404A56" /><rect x="3" y="0" width="1" height="1" fill="#54636A" /><rect x="4" y="0" width="1" height="1" fill="#4A575D" /><rect x="5" y="0" width="1" height="1" fill="#4E595D" /><rect x="6" y="0" width="1" height="1" fill="#5E696D" /><rect x="7" y="0" width="1" height="1" fill="#5F676A" /><rect x="8" y="0" width="1" height="1" fill="#404A54" /><rect x="9" y="0" width="1" height="1" fill="#3E4C55" /><rect x="0" y="1" width="1" height="1" fill="#4F535E" /><rect x="1" y="1" width="1" height="1" fill="#3F4553" /><rect x="2" y="1" width="1" height="1" fill="#515763" /><rect x="3" y="1" width="1" height="1" fill="#59646A" /><rect x="4" y="1" width="1" height="1" fill="#586168" /><rect x="5" y="1" width="1" height="1" fill="#5B6469" /><rect x="6" y="1" width="1" height="1" fill="#656F71" /><rect x="7" y="1" width="1" height="1" fill="#6F7777" /><rect x="8" y="1" width="1" height="1" fill="#576063" /><rect x="9" y="1" width="1" height="1" fill="#47545D" /><rect x="0" y="2" width="1" height="1" fill="#4F5762" /><rect x="1" y="2" width="1" height="1" fill="#5A656B" /><rect x="2" y="2" width="1" height="1" fill="#5E696B" /><rect x="3" y="2" width="1" height="1" fill="#60696E" /><rect x="4" y="2" width="1" height="1" fill="#676C6F" /><rect x="5" y="2" width="1" height="1" fill="#656D6F" /><rect x="6" y="2" width="1" height="1" fill="#687070" /><rect x="7" y="2" width="1" height="1" fill="#5E686A" /><rect x="8" y="2" width="1" height="1" fill="#505960" /><rect x="9" y="2" width="1" height="1" fill="#535965" /><rect x="0" y="3" width="1" height="1" fill="#5E676E" /><rect x="1" y="3" width="1" height="1" fill="#566165" /><rect x="2" y="3" width="1" height="1" fill="#636C71" /><rect x="3" y="3" width="1" height="1" fill="#60676D" /><rect x="4" y="3" width="1" height="1" fill="#656D6F" /><rect x="5" y="3" width="1" height="1" fill="#6C7173" /><rect x="6" y="3" width="1" height="1" fill="#656F70" /><rect x="7" y="3" width="1" height="1" fill="#5D6C71" /><rect x="8" y="3" width="1" height="1" fill="#5A6569" /><rect x="9" y="3" width="1" height="1" fill="#71797B" /><rect x="0" y="4" width="1" height="1" fill="#697275" /><rect x="1" y="4" width="1" height="1" fill="#5C6769" /><rect x="2" y="4" width="1" height="1" fill="#626E6E" /><rect x="3" y="4" width="1" height="1" fill="#636A74" /><rect x="4" y="4" width="1" height="1" fill="#4A5360" /><rect x="5" y="4" width="1" height="1" fill="#46545D" /><rect x="6" y="4" width="1" height="1" fill="#4E5862" /><rect x="7" y="4" width="1" height="1" fill="#5E676E" /><rect x="8" y="4" width="1" height="1" fill="#5E6470" /><rect x="9" y="4" width="1" height="1" fill="#616973" /><rect x="0" y="5" width="1" height="1" fill="#6F7A7C" /><rect x="1" y="5" width="1" height="1" fill="#656D6F" /><rect x="2" y="5" width="1" height="1" fill="#677075" /><rect x="3" y="5" width="1" height="1" fill="#48525C" /><rect x="4" y="5" width="1" height="1" fill="#3B4753" /><rect x="5" y="5" width="1" height="1" fill="#424E5E" /><rect x="6" y="5" width="1" height="1" fill="#47535F" /><rect x="7" y="5" width="1" height="1" fill="#47555E" /><rect x="8" y="5" width="1" height="1" fill="#435060" /><rect x="9" y="5" width="1" height="1" fill="#3F4F5E" /><rect x="0" y="6" width="1" height="1" fill="#757E7D" /><rect x="1" y="6" width="1" height="1" fill="#586262" /><rect x="2" y="6" width="1" height="1" fill="#677276" /><rect x="3" y="6" width="1" height="1" fill="#5A656B" /><rect x="4" y="6" width="1" height="1" fill="#5B636D" /><rect x="5" y="6" width="1" height="1" fill="#4C5962" /><rect x="6" y="6" width="1" height="1" fill="#424E5A" /><rect x="7" y="6" width="1" height="1" fill="#404E5B" /><rect x="8" y="6" width="1" height="1" fill="#3E4E5E" /><rect x="9" y="6" width="1" height="1" fill="#4C595F" /><rect x="0" y="7" width="1" height="1" fill="#717C7E" /><rect x="1" y="7" width="1" height="1" fill="#5E696B" /><rect x="2" y="7" width="1" height="1" fill="#60686B" /><rect x="3" y="7" width="1" height="1" fill="#5A636A" /><rect x="4" y="7" width="1" height="1" fill="#515C62" /><rect x="5" y="7" width="1" height="1" fill="#4F5D68" /><rect x="6" y="7" width="1" height="1" fill="#45535E" /><rect x="7" y="7" width="1" height="1" fill="#4D5A62" /><rect x="8" y="7" width="1" height="1" fill="#616870" /><rect x="9" y="7" width="1" height="1" fill="#838788" /><rect x="0" y="8" width="1" height="1" fill="#525A65" /><rect x="1" y="8" width="1" height="1" fill="#565D65" /><rect x="2" y="8" width="1" height="1" fill="#4D5761" /><rect x="3" y="8" width="1" height="1" fill="#48525B" /><rect x="4" y="8" width="1" height="1" fill="#4F5C65" /><rect x="5" y="8" width="1" height="1" fill="#384855" /><rect x="6" y="8" width="1" height="1" fill="#516269" /><rect x="7" y="8" width="1" height="1" fill="#727A7C" /><rect x="8" y="8" width="1" height="1" fill="#7E8484" /><rect x="9" y="8" width="1" height="1" fill="#88918E" /><rect x="0" y="9" width="1" height="1" fill="#373F4A" /><rect x="1" y="9" width="1" height="1" fill="#474E60" /><rect x="2" y="9" width="1" height="1" fill="#66737B" /><rect x="3" y="9" width="1" height="1" fill="#687176" /><rect x="4" y="9" width="1" height="1" fill="#6C7578" /><rect x="5" y="9" width="1" height="1" fill="#56656C" /><rect x="6" y="9" width="1" height="1" fill="#6B747B" /><rect x="7" y="9" width="1" height="1" fill="#9FA299" /><rect x="8" y="9" width="1" height="1" fill="#A7A898" /><rect x="9" y="9" width="1" height="1" fill="#A3A39B" />
  </g>
</svg>