<svg width="800" height="1000" version="1.1" xmlns="http://www.w3.org/2000/svg" xmlns:xlink="http://www.w3.org/1999/xlink">
  <defs>
      <linearGradient id="Gradient2" x1="0" x2="1" y1="0" y2="1">
        <stop offset="0%" stop-color="#2d3c96"/>
        <stop offset="100%" stop-color="#d53392"/>
      </linearGradient>
  </defs>
  <rect x="10" y="10" width="780" height="980" fill="url(#Gradient2)" rx="50" ry="50" stroke="#ffd700" stroke-width="20"/>
  <text x="400" y="920" width="780" text-anchor="middle" style="font: bold 200px 'Helvetica Neue'; fill: #ffd700">01409</text>

  <g transform="translate(80 80) scale(64)">
<rect x="0" y="0" width="1" height="1" fill="#3F5058" /><rect x="1" y="0" width="1" height="1" fill="#737D75" /><rect x="2" y="0" width="1" height="1" fill="#7C8276" /><rect x="3" y="0" width="1" height="1" fill="#4B5355" /><rect x="4" y="0" width="1" height="1" fill="#3D464B" /><rect x="5" y="0" width="1" height="1" fill="#3B4D57" /><rect x="6" y="0" width="1" height="1" fill="#45585F" /><rect x="7" y="0" width="1" height="1" fill="#455459" /><rect x="8" y="0" width="1" height="1" fill="#395354" /><rect x="9" y="0" width="1" height="1" fill="#36525D" /><rect x="0" y="1" width="1" height="1" fill="#3E4651" /><rect x="1" y="1" width="1" height="1" fill="#63666B" /><rect x="2" y="1" width="1" height="1" fill="#606970" /><rect x="3" y="1" width="1" height="1" fill="#5E686A" /><rect x="4" y="1" width="1" height="1" fill="#586463" /><rect x="5" y="1" width="1" height="1" fill="#596966" /><rect x="6" y="1" width="1" height="1" fill="#4C5D64" /><rect x="7" y="1" width="1" height="1" fill="#40555A" /><rect x="8" y="1" width="1" height="1" fill="#455962" /><rect x="9" y="1" width="1" height="1" fill="#3D535E" /><rect x="0" y="2" width="1" height="1" fill="#424854" /><rect x="1" y="2" width="1" height="1" fill="#464E59" /><rect x="2" y="2" width="1" height="1" fill="#3F4659" /><rect x="3" y="2" width="1" height="1" fill="#6B747B" /><rect x="4" y="2" width="1" height="1" fill="#6E7877" /><rect x="5" y="2" width="1" height="1" fill="#757978" /><rect x="6" y="2" width="1" height="1" fill="#616F70" /><rect x="7" y="2" width="1" height="1" fill="#3F5258" /><rect x="8" y="2" width="1" height="1" fill="#32464F" /><rect x="9" y="2" width="1" height="1" fill="#354552" /><rect x="0" y="3" width="1" height="1" fill="#555F61" /><rect x="1" y="3" width="1" height="1" fill="#394752" /><rect x="2" y="3" width="1" height="1" fill="#4F585F" /><rect x="3" y="3" width="1" height="1" fill="#475059" /><rect x="4" y="3" width="1" height="1" fill="#5F686D" /><rect x="5" y="3" width="1" height="1" fill="#93938B" /><rect x="6" y="3" width="1" height="1" fill="#8B8C86" /><rect x="7" y="3" width="1" height="1" fill="#6F7777" /><rect x="8" y="3" width="1" height="1" fill="#576264" /><rect x="9" y="3" width="1" height="1" fill="#4E575E" /><rect x="0" y="4" width="1" height="1" fill="#555E65" /><rect x="1" y="4" width="1" height="1" fill="#5F6670" /><rect x="2" y="4" width="1" height="1" fill="#6D767B" /><rect x="3" y="4" width="1" height="1" fill="#56636C" /><rect x="4" y="4" width="1" height="1" fill="#6B7479" /><rect x="5" y="4" width="1" height="1" fill="#8E938F" /><rect x="6" y="4" width="1" height="1" fill="#838989" /><rect x="7" y="4" width="1" height="1" fill="#6E6F74" /><rect x="8" y="4" width="1" height="1" fill="#6F7779" /><rect x="9" y="4" width="1" height="1" fill="#6F7777" /><rect x="0" y="5" width="1" height="1" fill="#4E595F" /><rect x="1" y="5" width="1" height="1" fill="#747E80" /><rect x="2" y="5" width="1" height="1" fill="#777F82" /><rect x="3" y="5" width="1" height="1" fill="#757F7F" /><rect x="4" y="5" width="1" height="1" fill="#80888B" /><rect x="5" y="5" width="1" height="1" fill="#929290" /><rect x="6" y="5" width="1" height="1" fill="#979B9C" /><rect x="7" y="5" width="1" height="1" fill="#5C6471" /><rect x="8" y="5" width="1" height="1" fill="#3C4951" /><rect x="9" y="5" width="1" height="1" fill="#626D6F" /><rect x="0" y="6" width="1" height="1" fill="#667175" /><rect x="1" y="6" width="1" height="1" fill="#4D5761" /><rect x="2" y="6" width="1" height="1" fill="#70777F" /><rect x="3" y="6" width="1" height="1" fill="#878C8F" /><rect x="4" y="6" width="1" height="1" fill="#909497" /><rect x="5" y="6" width="1" height="1" fill="#999B98" /><rect x="6" y="6" width="1" height="1" fill="#9F9F9D" /><rect x="7" y="6" width="1" height="1" fill="#677578" /><rect x="8" y="6" width="1" height="1" fill="#495A62" /><rect x="9" y="6" width="1" height="1" fill="#46555C" /><rect x="0" y="7" width="1" height="1" fill="#828D89" /><rect x="1" y="7" width="1" height="1" fill="#717479" /><rect x="2" y="7" width="1" height="1" fill="#7E8A8A" /><rect x="3" y="7" width="1" height="1" fill="#979996" /><rect x="4" y="7" width="1" height="1" fill="#A9A9A1" /><rect x="5" y="7" width="1" height="1" fill="#8B999C" /><rect x="6" y="7" width="1" height="1" fill="#687F8F" /><rect x="7" y="7" width="1" height="1" fill="#697F8C" /><rect x="8" y="7" width="1" height="1" fill="#6D8086" /><rect x="9" y="7" width="1" height="1" fill="#717B7D" /><rect x="0" y="8" width="1" height="1" fill="#8E9794" /><rect x="1" y="8" width="1" height="1" fill="#9B9C96" /><rect x="2" y="8" width="1" height="1" fill="#969A9B" /><rect x="3" y="8" width="1" height="1" fill="#9EA198" /><rect x="4" y="8" width="1" height="1" fill="#8F989D" /><rect x="5" y="8" width="1" height="1" fill="#658793" /><rect x="6" y="8" width="1" height="1" fill="#678092" /><rect x="7" y="8" width="1" height="1" fill="#657F90" /><rect x="8" y="8" width="1" height="1" fill="#698392" /><rect x="9" y="8" width="1" height="1" fill="#7F8E91" /><rect x="0" y="9" width="1" height="1" fill="#A0A19B" /><rect x="1" y="9" width="1" height="1" fill="#959E99" /><rect x="2" y="9" width="1" height="1" fill="#99A099" /><rect x="3" y="9" width="1" height="1" fill="#999D9C" /><rect x="4" y="9" width="1" height="1" fill="#66808F" /><rect x="5" y="9" width="1" height="1" fill="#617D8B" /><rect x="6" y="9" width="1" height="1" fill="#668290" /><rect x="7" y="9" width="1" height="1" fill="#628193" /><rect x="8" y="9" width="1" height="1" fill="#66808F" /><rect x="9" y="9" width="1" height="1" fill="#7C8B8E" />
  </g>
</svg>