<svg width="800" height="1000" xmlns="http://www.w3.org/2000/svg"><defs><linearGradient id="g" x1="0" x2="1" y1="0" y2="1"><stop offset="0%" stop-color="#2d3c96"/><stop offset="100%" stop-color="#d53392"/></linearGradient></defs><rect x="10" y="10" width="780" height="980" fill="url(#g)" rx="50" ry="50" stroke="gold" stroke-width="20"/><text x="400" y="920" width="780" text-anchor="middle" style="font:bold 200px 'Helvetica Neue';fill:gold">01408</text><g transform="translate(80 80) scale(64)"><rect x="0" y="0" width="1" height="1" fill="#2d2f3b" /><rect x="0" y="1" width="1" height="1" fill="#4f535e" /><rect x="0" y="2" width="1" height="1" fill="#4f5762" /><rect x="0" y="3" width="1" height="1" fill="#5e676e" /><rect x="0" y="4" width="1" height="1" fill="#697275" /><rect x="0" y="5" width="1" height="1" fill="#6f7a7c" /><rect x="0" y="6" width="1" height="1" fill="#757e7d" /><rect x="0" y="7" width="1" height="1" fill="#717c7e" /><rect x="0" y="8" width="1" height="1" fill="#525a65" /><rect x="0" y="9" width="1" height="1" fill="#373f4a" /><rect x="1" y="0" width="1" height="1" fill="#2e3641" /><rect x="1" y="1" width="1" height="1" fill="#3f4553" /><rect x="1" y="2" width="1" height="1" fill="#5a656b" /><rect x="1" y="3" width="1" height="1" fill="#566165" /><rect x="1" y="4" width="1" height="1" fill="#5c6769" /><rect x="1" y="5" width="1" height="1" fill="#656d6f" /><rect x="1" y="6" width="1" height="1" fill="#586262" /><rect x="1" y="7" width="1" height="1" fill="#5e696b" /><rect x="1" y="8" width="1" height="1" fill="#565d65" /><rect x="1" y="9" width="1" height="1" fill="#474e60" /><rect x="2" y="0" width="1" height="1" fill="#404a56" /><rect x="2" y="1" width="1" height="1" fill="#515763" /><rect x="2" y="2" width="1" height="1" fill="#5e696b" /><rect x="2" y="3" width="1" height="1" fill="#636c71" /><rect x="2" y="4" width="1" height="1" fill="#626e6e" /><rect x="2" y="5" width="1" height="1" fill="#677075" /><rect x="2" y="6" width="1" height="1" fill="#677276" /><rect x="2" y="7" width="1" height="1" fill="#60686b" /><rect x="2" y="8" width="1" height="1" fill="#4d5761" /><rect x="2" y="9" width="1" height="1" fill="#66737b" /><rect x="3" y="0" width="1" height="1" fill="#54636a" /><rect x="3" y="1" width="1" height="1" fill="#59646a" /><rect x="3" y="2" width="1" height="1" fill="#60696e" /><rect x="3" y="3" width="1" height="1" fill="#60676d" /><rect x="3" y="4" width="1" height="1" fill="#636a74" /><rect x="3" y="5" width="1" height="1" fill="#48525c" /><rect x="3" y="6" width="1" height="1" fill="#5a656b" /><rect x="3" y="7" width="1" height="1" fill="#5a636a" /><rect x="3" y="8" width="1" height="1" fill="#48525b" /><rect x="3" y="9" width="1" height="1" fill="#687176" /><rect x="4" y="0" width="1" height="1" fill="#4a575d" /><rect x="4" y="1" width="1" height="1" fill="#586168" /><rect x="4" y="2" width="1" height="1" fill="#676c6f" /><rect x="4" y="3" width="1" height="1" fill="#656d6f" /><rect x="4" y="4" width="1" height="1" fill="#4a5360" /><rect x="4" y="5" width="1" height="1" fill="#3b4753" /><rect x="4" y="6" width="1" height="1" fill="#5b636d" /><rect x="4" y="7" width="1" height="1" fill="#515c62" /><rect x="4" y="8" width="1" height="1" fill="#4f5c65" /><rect x="4" y="9" width="1" height="1" fill="#6c7578" /><rect x="5" y="0" width="1" height="1" fill="#4e595d" /><rect x="5" y="1" width="1" height="1" fill="#5b6469" /><rect x="5" y="2" width="1" height="1" fill="#656d6f" /><rect x="5" y="3" width="1" height="1" fill="#6c7173" /><rect x="5" y="4" width="1" height="1" fill="#46545d" /><rect x="5" y="5" width="1" height="1" fill="#424e5e" /><rect x="5" y="6" width="1" height="1" fill="#4c5962" /><rect x="5" y="7" width="1" height="1" fill="#4f5d68" /><rect x="5" y="8" width="1" height="1" fill="#384855" /><rect x="5" y="9" width="1" height="1" fill="#56656c" /><rect x="6" y="0" width="1" height="1" fill="#5e696d" /><rect x="6" y="1" width="1" height="1" fill="#656f71" /><rect x="6" y="2" width="1" height="1" fill="#687070" /><rect x="6" y="3" width="1" height="1" fill="#656f70" /><rect x="6" y="4" width="1" height="1" fill="#4e5862" /><rect x="6" y="5" width="1" height="1" fill="#47535f" /><rect x="6" y="6" width="1" height="1" fill="#424e5a" /><rect x="6" y="7" width="1" height="1" fill="#45535e" /><rect x="6" y="8" width="1" height="1" fill="#516269" /><rect x="6" y="9" width="1" height="1" fill="#6b747b" /><rect x="7" y="0" width="1" height="1" fill="#5f676a" /><rect x="7" y="1" width="1" height="1" fill="#6f7777" /><rect x="7" y="2" width="1" height="1" fill="#5e686a" /><rect x="7" y="3" width="1" height="1" fill="#5d6c71" /><rect x="7" y="4" width="1" height="1" fill="#5e676e" /><rect x="7" y="5" width="1" height="1" fill="#47555e" /><rect x="7" y="6" width="1" height="1" fill="#404e5b" /><rect x="7" y="7" width="1" height="1" fill="#4d5a62" /><rect x="7" y="8" width="1" height="1" fill="#727a7c" /><rect x="7" y="9" width="1" height="1" fill="#9fa299" /><rect x="8" y="0" width="1" height="1" fill="#404a54" /><rect x="8" y="1" width="1" height="1" fill="#576063" /><rect x="8" y="2" width="1" height="1" fill="#505960" /><rect x="8" y="3" width="1" height="1" fill="#5a6569" /><rect x="8" y="4" width="1" height="1" fill="#5e6470" /><rect x="8" y="5" width="1" height="1" fill="#435060" /><rect x="8" y="6" width="1" height="1" fill="#3e4e5e" /><rect x="8" y="7" width="1" height="1" fill="#616870" /><rect x="8" y="8" width="1" height="1" fill="#7e8484" /><rect x="8" y="9" width="1" height="1" fill="#a7a898" /><rect x="9" y="0" width="1" height="1" fill="#3e4c55" /><rect x="9" y="1" width="1" height="1" fill="#47545d" /><rect x="9" y="2" width="1" height="1" fill="#535965" /><rect x="9" y="3" width="1" height="1" fill="#71797b" /><rect x="9" y="4" width="1" height="1" fill="#616973" /><rect x="9" y="5" width="1" height="1" fill="#3f4f5e" /><rect x="9" y="6" width="1" height="1" fill="#4c595f" /><rect x="9" y="7" width="1" height="1" fill="#838788" /><rect x="9" y="8" width="1" height="1" fill="#88918e" /><rect x="9" y="9" width="1" height="1" fill="#a3a39b" /></g></svg>