<svg width="800" height="1000" version="1.1" xmlns="http://www.w3.org/2000/svg" xmlns:xlink="http://www.w3.org/1999/xlink">
  <defs>
      <linearGradient id="Gradient2" x1="0" x2="1" y1="0" y2="1">
        <stop offset="0%" stop-color="#2d3c96"/>
        <stop offset="100%" stop-color="#d53392"/>
      </linearGradient>
  </defs>
  <rect x="10" y="10" width="780" height="980" fill="url(#Gradient2)" rx="50" ry="50" stroke="#ffd700" stroke-width="20"/>
  <text x="400" y="920" width="780" text-anchor="middle" style="font: bold 200px 'Helvetica Neue'; fill: #ffd700">01403</text>

  <g transform="translate(80 80) scale(64)">
<rect x="0" y="0" width="1" height="1" fill="#ffffff" />
,<rect x="0" y="1" width="1" height="1" fill="#b5b9bc" />
,<rect x="0" y="2" width="1" height="1" fill="#04111a" />
,<rect x="0" y="3" width="1" height="1" fill="#9fa3a7" />
,<rect x="0" y="4" width="1" height="1" fill="#959a9e" />
,<rect x="0" y="5" width="1" height="1" fill="#101b24" />
,<rect x="0" y="6" width="1" height="1" fill="#1c272f" />
,<rect x="0" y="7" width="1" height="1" fill="#1c252f" />
,<rect x="0" y="8" width="1" height="1" fill="#1b252e" />
,<rect x="0" y="9" width="1" height="1" fill="#1b252e" />
,<rect x="1" y="0" width="1" height="1" fill="#2f3b42" />
,<rect x="1" y="1" width="1" height="1" fill="#00020d" />
,<rect x="1" y="2" width="1" height="1" fill="#ffffff" />
,<rect x="1" y="3" width="1" height="1" fill="#ffffff" />
,<rect x="1" y="4" width="1" height="1" fill="#888e93" />
,<rect x="1" y="5" width="1" height="1" fill="#101c26" />
,<rect x="1" y="6" width="1" height="1" fill="#1d2931" />
,<rect x="1" y="7" width="1" height="1" fill="#1c2932" />
,<rect x="1" y="8" width="1" height="1" fill="#1d2831" />
,<rect x="1" y="9" width="1" height="1" fill="#1c2830" />
,<rect x="2" y="0" width="1" height="1" fill="#9ea3a7" />
,<rect x="2" y="1" width="1" height="1" fill="#000914" />
,<rect x="2" y="2" width="1" height="1" fill="#ffffff" />
,<rect x="2" y="3" width="1" height="1" fill="#ffffff" />
,<rect x="2" y="4" width="1" height="1" fill="#888e93" />
,<rect x="2" y="5" width="1" height="1" fill="#122029" />
,<rect x="2" y="6" width="1" height="1" fill="#1f2c35" />
,<rect x="2" y="7" width="1" height="1" fill="#1e2b34" />
,<rect x="2" y="8" width="1" height="1" fill="#1d2a34" />
,<rect x="2" y="9" width="1" height="1" fill="#1e2a33" />
,<rect x="3" y="0" width="1" height="1" fill="#ffffff" />
,<rect x="3" y="1" width="1" height="1" fill="#f7f8f8" />
,<rect x="3" y="2" width="1" height="1" fill="#fdfdfd" />
,<rect x="3" y="3" width="1" height="1" fill="#ffffff" />
,<rect x="3" y="4" width="1" height="1" fill="#899095" />
,<rect x="3" y="5" width="1" height="1" fill="#15222b" />
,<rect x="3" y="6" width="1" height="1" fill="#212e37" />
,<rect x="3" y="7" width="1" height="1" fill="#202d36" />
,<rect x="3" y="8" width="1" height="1" fill="#202d35" />
,<rect x="3" y="9" width="1" height="1" fill="#1f2c35" />
,<rect x="4" y="0" width="1" height="1" fill="#ffffff" />
,<rect x="4" y="1" width="1" height="1" fill="#ffffff" />
,<rect x="4" y="2" width="1" height="1" fill="#ffffff" />
,<rect x="4" y="3" width="1" height="1" fill="#ffffff" />
,<rect x="4" y="4" width="1" height="1" fill="#8a9196" />
,<rect x="4" y="5" width="1" height="1" fill="#17252e" />
,<rect x="4" y="6" width="1" height="1" fill="#233039" />
,<rect x="4" y="7" width="1" height="1" fill="#233039" />
,<rect x="4" y="8" width="1" height="1" fill="#222f38" />
,<rect x="4" y="9" width="1" height="1" fill="#222f38" />
,<rect x="5" y="0" width="1" height="1" fill="#616b72" />
,<rect x="5" y="1" width="1" height="1" fill="#ffffff" />
,<rect x="5" y="2" width="1" height="1" fill="#ffffff" />
,<rect x="5" y="3" width="1" height="1" fill="#ffffff" />
,<rect x="5" y="4" width="1" height="1" fill="#8b9297" />
,<rect x="5" y="5" width="1" height="1" fill="#182730" />
,<rect x="5" y="6" width="1" height="1" fill="#25333c" />
,<rect x="5" y="7" width="1" height="1" fill="#24323b" />
,<rect x="5" y="8" width="1" height="1" fill="#25313a" />
,<rect x="5" y="9" width="1" height="1" fill="#24313a" />
,<rect x="6" y="0" width="1" height="1" fill="#1e2d37" />
,<rect x="6" y="1" width="1" height="1" fill="#17262f" />
,<rect x="6" y="2" width="1" height="1" fill="#b0b5b8" />
,<rect x="6" y="3" width="1" height="1" fill="#ffffff" />
,<rect x="6" y="4" width="1" height="1" fill="#90989c" />
,<rect x="6" y="5" width="1" height="1" fill="#1b2933" />
,<rect x="6" y="6" width="1" height="1" fill="#26343d" />
,<rect x="6" y="7" width="1" height="1" fill="#27343d" />
,<rect x="6" y="8" width="1" height="1" fill="#26333c" />
,<rect x="6" y="9" width="1" height="1" fill="#25333c" />
,<rect x="7" y="0" width="1" height="1" fill="#2a3841" />
,<rect x="7" y="1" width="1" height="1" fill="#293740" />
,<rect x="7" y="2" width="1" height="1" fill="#14232d" />
,<rect x="7" y="3" width="1" height="1" fill="#4d5961" />
,<rect x="7" y="4" width="1" height="1" fill="#7b848a" />
,<rect x="7" y="5" width="1" height="1" fill="#212f38" />
,<rect x="7" y="6" width="1" height="1" fill="#28363f" />
,<rect x="7" y="7" width="1" height="1" fill="#283740" />
,<rect x="7" y="8" width="1" height="1" fill="#28353e" />
,<rect x="7" y="9" width="1" height="1" fill="#27363f" />
,<rect x="8" y="0" width="1" height="1" fill="#2d3b44" />
,<rect x="8" y="1" width="1" height="1" fill="#2c3a43" />
,<rect x="8" y="2" width="1" height="1" fill="#2c3a43" />
,<rect x="8" y="3" width="1" height="1" fill="#26343d" />
,<rect x="8" y="4" width="1" height="1" fill="#22313a" />
,<rect x="8" y="5" width="1" height="1" fill="#2a3841" />
,<rect x="8" y="6" width="1" height="1" fill="#2b3942" />
,<rect x="8" y="7" width="1" height="1" fill="#2a3841" />
,<rect x="8" y="8" width="1" height="1" fill="#293740" />
,<rect x="8" y="9" width="1" height="1" fill="#2a3841" />
,<rect x="9" y="0" width="1" height="1" fill="#2e3c46" />
,<rect x="9" y="1" width="1" height="1" fill="#2e3c46" />
,<rect x="9" y="2" width="1" height="1" fill="#2d3b45" />
,<rect x="9" y="3" width="1" height="1" fill="#2d3b44" />
,<rect x="9" y="4" width="1" height="1" fill="#2d3b44" />
,<rect x="9" y="5" width="1" height="1" fill="#2c3b44" />
,<rect x="9" y="6" width="1" height="1" fill="#2c3a43" />
,<rect x="9" y="7" width="1" height="1" fill="#2c3a43" />
,<rect x="9" y="8" width="1" height="1" fill="#2b3943" />
,<rect x="9" y="9" width="1" height="1" fill="#2b3942" />

  </g>
</svg>