<svg width="800" height="1000" version="1.1" xmlns="http://www.w3.org/2000/svg" xmlns:xlink="http://www.w3.org/1999/xlink">
  <defs>
      <linearGradient id="Gradient2" x1="0" x2="1" y1="0" y2="1">
        <stop offset="0%" stop-color="#2d3c96"/>
        <stop offset="100%" stop-color="#d53392"/>
      </linearGradient>
  </defs>
  <rect x="10" y="10" width="780" height="980" fill="url(#Gradient2)" rx="50" ry="50" stroke="#ffd700" stroke-width="20"/>
  <text x="400" y="920" width="780" text-anchor="middle" style="font: bold 200px 'Helvetica Neue'; fill: #ffd700">01402</text>

  <g transform="translate(80 80) scale(64)">
<rect x="0" y="0" width="1" height="1" fill="#0D161D" /><rect x="1" y="0" width="1" height="1" fill="#00060E" /><rect x="2" y="0" width="1" height="1" fill="#B1B4B6" /><rect x="3" y="0" width="1" height="1" fill="#FFFFFF" /><rect x="4" y="0" width="1" height="1" fill="#FFFFFF" /><rect x="5" y="0" width="1" height="1" fill="#000913" /><rect x="6" y="0" width="1" height="1" fill="#000B15" /><rect x="7" y="0" width="1" height="1" fill="#343D45" /><rect x="8" y="0" width="1" height="1" fill="#B4B7BA" /><rect x="9" y="0" width="1" height="1" fill="#FFFFFF" /><rect x="0" y="1" width="1" height="1" fill="#0D161D" /><rect x="1" y="1" width="1" height="1" fill="#00030B" /><rect x="2" y="1" width="1" height="1" fill="#C6C8CA" /><rect x="3" y="1" width="1" height="1" fill="#FFFFFF" /><rect x="4" y="1" width="1" height="1" fill="#DBDCDD" /><rect x="5" y="1" width="1" height="1" fill="#000001" /><rect x="6" y="1" width="1" height="1" fill="#030E18" /><rect x="7" y="1" width="1" height="1" fill="#384048" /><rect x="8" y="1" width="1" height="1" fill="#FFFFFF" /><rect x="9" y="1" width="1" height="1" fill="#FFFFFF" /><rect x="0" y="2" width="1" height="1" fill="#0D161D" /><rect x="1" y="2" width="1" height="1" fill="#000911" /><rect x="2" y="2" width="1" height="1" fill="#868B8F" /><rect x="3" y="2" width="1" height="1" fill="#FFFFFF" /><rect x="4" y="2" width="1" height="1" fill="#FFFFFF" /><rect x="5" y="2" width="1" height="1" fill="#808589" /><rect x="6" y="2" width="1" height="1" fill="#424A51" /><rect x="7" y="2" width="1" height="1" fill="#F6F6F6" /><rect x="8" y="2" width="1" height="1" fill="#FFFFFF" /><rect x="9" y="2" width="1" height="1" fill="#FFFFFF" /><rect x="0" y="3" width="1" height="1" fill="#0D161D" /><rect x="1" y="3" width="1" height="1" fill="#0C141C" /><rect x="2" y="3" width="1" height="1" fill="#030C14" /><rect x="3" y="3" width="1" height="1" fill="#FFFFFF" /><rect x="4" y="3" width="1" height="1" fill="#FFFFFF" /><rect x="5" y="3" width="1" height="1" fill="#FFFFFF" /><rect x="6" y="3" width="1" height="1" fill="#FFFFFF" /><rect x="7" y="3" width="1" height="1" fill="#FFFFFF" /><rect x="8" y="3" width="1" height="1" fill="#FFFFFF" /><rect x="9" y="3" width="1" height="1" fill="#62696F" /><rect x="0" y="4" width="1" height="1" fill="#0D161D" /><rect x="1" y="4" width="1" height="1" fill="#0D161E" /><rect x="2" y="4" width="1" height="1" fill="#071018" /><rect x="3" y="4" width="1" height="1" fill="#1C252C" /><rect x="4" y="4" width="1" height="1" fill="#ECECED" /><rect x="5" y="4" width="1" height="1" fill="#FFFFFF" /><rect x="6" y="4" width="1" height="1" fill="#FFFFFF" /><rect x="7" y="4" width="1" height="1" fill="#FFFFFF" /><rect x="8" y="4" width="1" height="1" fill="#878C90" /><rect x="9" y="4" width="1" height="1" fill="#000711" /><rect x="0" y="5" width="1" height="1" fill="#0E171E" /><rect x="1" y="5" width="1" height="1" fill="#0D161D" /><rect x="2" y="5" width="1" height="1" fill="#0F181F" /><rect x="3" y="5" width="1" height="1" fill="#0A131C" /><rect x="4" y="5" width="1" height="1" fill="#00030B" /><rect x="5" y="5" width="1" height="1" fill="#222A32" /><rect x="6" y="5" width="1" height="1" fill="#333B43" /><rect x="7" y="5" width="1" height="1" fill="#0B161E" /><rect x="8" y="5" width="1" height="1" fill="#09131D" /><rect x="9" y="5" width="1" height="1" fill="#1A242D" /><rect x="0" y="6" width="1" height="1" fill="#0E171E" /><rect x="1" y="6" width="1" height="1" fill="#0D161D" /><rect x="2" y="6" width="1" height="1" fill="#0E171F" /><rect x="3" y="6" width="1" height="1" fill="#0F1820" /><rect x="4" y="6" width="1" height="1" fill="#101922" /><rect x="5" y="6" width="1" height="1" fill="#0E1821" /><rect x="6" y="6" width="1" height="1" fill="#0F1821" /><rect x="7" y="6" width="1" height="1" fill="#131E27" /><rect x="8" y="6" width="1" height="1" fill="#18222B" /><rect x="9" y="6" width="1" height="1" fill="#1A242D" /><rect x="0" y="7" width="1" height="1" fill="#0E171E" /><rect x="1" y="7" width="1" height="1" fill="#0D161D" /><rect x="2" y="7" width="1" height="1" fill="#0D161E" /><rect x="3" y="7" width="1" height="1" fill="#101820" /><rect x="4" y="7" width="1" height="1" fill="#101922" /><rect x="5" y="7" width="1" height="1" fill="#121C24" /><rect x="6" y="7" width="1" height="1" fill="#141E26" /><rect x="7" y="7" width="1" height="1" fill="#151F28" /><rect x="8" y="7" width="1" height="1" fill="#17212A" /><rect x="9" y="7" width="1" height="1" fill="#1A242D" /><rect x="0" y="8" width="1" height="1" fill="#0E171E" /><rect x="1" y="8" width="1" height="1" fill="#0D161D" /><rect x="2" y="8" width="1" height="1" fill="#0F171E" /><rect x="3" y="8" width="1" height="1" fill="#0E181F" /><rect x="4" y="8" width="1" height="1" fill="#111A22" /><rect x="5" y="8" width="1" height="1" fill="#121B22" /><rect x="6" y="8" width="1" height="1" fill="#141D25" /><rect x="7" y="8" width="1" height="1" fill="#161F28" /><rect x="8" y="8" width="1" height="1" fill="#17212A" /><rect x="9" y="8" width="1" height="1" fill="#1A242D" /><rect x="0" y="9" width="1" height="1" fill="#0E171E" /><rect x="1" y="9" width="1" height="1" fill="#0E171E" /><rect x="2" y="9" width="1" height="1" fill="#0D161D" /><rect x="3" y="9" width="1" height="1" fill="#0E171F" /><rect x="4" y="9" width="1" height="1" fill="#101921" /><rect x="5" y="9" width="1" height="1" fill="#121B22" /><rect x="6" y="9" width="1" height="1" fill="#131C25" /><rect x="7" y="9" width="1" height="1" fill="#151E28" /><rect x="8" y="9" width="1" height="1" fill="#162029" /><rect x="9" y="9" width="1" height="1" fill="#19232C" />
  </g>
</svg>