<svg width="800" height="1000" version="1.1" xmlns="http://www.w3.org/2000/svg" xmlns:xlink="http://www.w3.org/1999/xlink">
  <defs>
      <linearGradient id="Gradient2" x1="0" x2="1" y1="0" y2="1">
        <stop offset="0%" stop-color="#2d3c96"/>
        <stop offset="100%" stop-color="#d53392"/>
      </linearGradient>
  </defs>
  <rect x="10" y="10" width="780" height="980" fill="url(#Gradient2)" rx="50" ry="50" stroke="#ffd700" stroke-width="20"/>
  <text x="400" y="920" width="780" text-anchor="middle" style="font: bold 200px 'Helvetica Neue'; fill: #ffd700">01410</text>

  <g transform="translate(80 80) scale(64)">
<rect x="0" y="0" width="1" height="1" fill="#334e57" />
,<rect x="0" y="1" width="1" height="1" fill="#3b525a" />
,<rect x="0" y="2" width="1" height="1" fill="#3b4c53" />
,<rect x="0" y="3" width="1" height="1" fill="#415053" />
,<rect x="0" y="4" width="1" height="1" fill="#606868" />
,<rect x="0" y="5" width="1" height="1" fill="#757b79" />
,<rect x="0" y="6" width="1" height="1" fill="#5c6466" />
,<rect x="0" y="7" width="1" height="1" fill="#626a6c" />
,<rect x="0" y="8" width="1" height="1" fill="#a1a08e" />
,<rect x="0" y="9" width="1" height="1" fill="#a39c88" />
,<rect x="1" y="0" width="1" height="1" fill="#2e444f" />
,<rect x="1" y="1" width="1" height="1" fill="#2e4a56" />
,<rect x="1" y="2" width="1" height="1" fill="#304b56" />
,<rect x="1" y="3" width="1" height="1" fill="#394752" />
,<rect x="1" y="4" width="1" height="1" fill="#404950" />
,<rect x="1" y="5" width="1" height="1" fill="#687073" />
,<rect x="1" y="6" width="1" height="1" fill="#6f777a" />
,<rect x="1" y="7" width="1" height="1" fill="#5b6366" />
,<rect x="1" y="8" width="1" height="1" fill="#757772" />
,<rect x="1" y="9" width="1" height="1" fill="#7e837d" />
,<rect x="2" y="0" width="1" height="1" fill="#2d3e48" />
,<rect x="2" y="1" width="1" height="1" fill="#37525d" />
,<rect x="2" y="2" width="1" height="1" fill="#2c4a55" />
,<rect x="2" y="3" width="1" height="1" fill="#344650" />
,<rect x="2" y="4" width="1" height="1" fill="#39464e" />
,<rect x="2" y="5" width="1" height="1" fill="#5b696c" />
,<rect x="2" y="6" width="1" height="1" fill="#747e80" />
,<rect x="2" y="7" width="1" height="1" fill="#5f6b69" />
,<rect x="2" y="8" width="1" height="1" fill="#4f5d68" />
,<rect x="2" y="9" width="1" height="1" fill="#5e6c6f" />
,<rect x="3" y="0" width="1" height="1" fill="#2e3c45" />
,<rect x="3" y="1" width="1" height="1" fill="#485a66" />
,<rect x="3" y="2" width="1" height="1" fill="#45626a" />
,<rect x="3" y="3" width="1" height="1" fill="#31454e" />
,<rect x="3" y="4" width="1" height="1" fill="#34454d" />
,<rect x="3" y="5" width="1" height="1" fill="#4c5f65" />
,<rect x="3" y="6" width="1" height="1" fill="#6c7c7b" />
,<rect x="3" y="7" width="1" height="1" fill="#647275" />
,<rect x="3" y="8" width="1" height="1" fill="#52666d" />
,<rect x="3" y="9" width="1" height="1" fill="#52636a" />
,<rect x="4" y="0" width="1" height="1" fill="#2d3e48" />
,<rect x="4" y="1" width="1" height="1" fill="#334a52" />
,<rect x="4" y="2" width="1" height="1" fill="#556c74" />
,<rect x="4" y="3" width="1" height="1" fill="#3b4f58" />
,<rect x="4" y="4" width="1" height="1" fill="#26404f" />
,<rect x="4" y="5" width="1" height="1" fill="#284a53" />
,<rect x="4" y="6" width="1" height="1" fill="#5a6c70" />
,<rect x="4" y="7" width="1" height="1" fill="#6e7d7a" />
,<rect x="4" y="8" width="1" height="1" fill="#5a6c76" />
,<rect x="4" y="9" width="1" height="1" fill="#48606a" />
,<rect x="5" y="0" width="1" height="1" fill="#2f414f" />
,<rect x="5" y="1" width="1" height="1" fill="#2d3b46" />
,<rect x="5" y="2" width="1" height="1" fill="#435760" />
,<rect x="5" y="3" width="1" height="1" fill="#415d60" />
,<rect x="5" y="4" width="1" height="1" fill="#234050" />
,<rect x="5" y="5" width="1" height="1" fill="#264152" />
,<rect x="5" y="6" width="1" height="1" fill="#435f6b" />
,<rect x="5" y="7" width="1" height="1" fill="#697b7d" />
,<rect x="5" y="8" width="1" height="1" fill="#6b797c" />
,<rect x="5" y="9" width="1" height="1" fill="#4a676d" />
,<rect x="6" y="0" width="1" height="1" fill="#37444a" />
,<rect x="6" y="1" width="1" height="1" fill="#2d3e48" />
,<rect x="6" y="2" width="1" height="1" fill="#2d3d4c" />
,<rect x="6" y="3" width="1" height="1" fill="#354f5e" />
,<rect x="6" y="4" width="1" height="1" fill="#27434f" />
,<rect x="6" y="5" width="1" height="1" fill="#28454d" />
,<rect x="6" y="6" width="1" height="1" fill="#35505b" />
,<rect x="6" y="7" width="1" height="1" fill="#496568" />
,<rect x="6" y="8" width="1" height="1" fill="#677578" />
,<rect x="6" y="9" width="1" height="1" fill="#3e5c67" />
,<rect x="7" y="0" width="1" height="1" fill="#303e49" />
,<rect x="7" y="1" width="1" height="1" fill="#314047" />
,<rect x="7" y="2" width="1" height="1" fill="#334350" />
,<rect x="7" y="3" width="1" height="1" fill="#546b73" />
,<rect x="7" y="4" width="1" height="1" fill="#395563" />
,<rect x="7" y="5" width="1" height="1" fill="#23414b" />
,<rect x="7" y="6" width="1" height="1" fill="#394d56" />
,<rect x="7" y="7" width="1" height="1" fill="#4a5e65" />
,<rect x="7" y="8" width="1" height="1" fill="#717979" />
,<rect x="7" y="9" width="1" height="1" fill="#5e696f" />
,<rect x="8" y="0" width="1" height="1" fill="#35424b" />
,<rect x="8" y="1" width="1" height="1" fill="#37444c" />
,<rect x="8" y="2" width="1" height="1" fill="#2b434f" />
,<rect x="8" y="3" width="1" height="1" fill="#2e4a56" />
,<rect x="8" y="4" width="1" height="1" fill="#233d4c" />
,<rect x="8" y="5" width="1" height="1" fill="#27424b" />
,<rect x="8" y="6" width="1" height="1" fill="#344d52" />
,<rect x="8" y="7" width="1" height="1" fill="#384e59" />
,<rect x="8" y="8" width="1" height="1" fill="#4c5f66" />
,<rect x="8" y="9" width="1" height="1" fill="#7f817c" />
,<rect x="9" y="0" width="1" height="1" fill="#364349" />
,<rect x="9" y="1" width="1" height="1" fill="#404b4d" />
,<rect x="9" y="2" width="1" height="1" fill="#3b454e" />
,<rect x="9" y="3" width="1" height="1" fill="#264056" />
,<rect x="9" y="4" width="1" height="1" fill="#223c4d" />
,<rect x="9" y="5" width="1" height="1" fill="#1b3743" />
,<rect x="9" y="6" width="1" height="1" fill="#2b4953" />
,<rect x="9" y="7" width="1" height="1" fill="#324f53" />
,<rect x="9" y="8" width="1" height="1" fill="#2b4252" />
,<rect x="9" y="9" width="1" height="1" fill="#7b807a" />

  </g>
</svg>