<svg width="800" height="1000" version="1.1" xmlns="http://www.w3.org/2000/svg" xmlns:xlink="http://www.w3.org/1999/xlink">
  <defs>
      <linearGradient id="Gradient2" x1="0" x2="1" y1="0" y2="1">
        <stop offset="0%" stop-color="#2d3c96"/>
        <stop offset="100%" stop-color="#d53392"/>
      </linearGradient>
  </defs>
  <rect x="10" y="10" width="780" height="980" fill="url(#Gradient2)" rx="50" ry="50" stroke="#ffd700" stroke-width="20"/>
  <text x="400" y="920" width="780" text-anchor="middle" style="font: bold 200px 'Helvetica Neue'; fill: #ffd700">01418</text>

  <g transform="translate(80 80) scale(64)">
<rect x="0" y="0" width="1" height="1" fill="#0A0001" /><rect x="1" y="0" width="1" height="1" fill="#000000" /><rect x="2" y="0" width="1" height="1" fill="#000000" /><rect x="3" y="0" width="1" height="1" fill="#100008" /><rect x="4" y="0" width="1" height="1" fill="#000000" /><rect x="5" y="0" width="1" height="1" fill="#000000" /><rect x="6" y="0" width="1" height="1" fill="#060000" /><rect x="7" y="0" width="1" height="1" fill="#000000" /><rect x="8" y="0" width="1" height="1" fill="#000000" /><rect x="9" y="0" width="1" height="1" fill="#110009" /><rect x="0" y="1" width="1" height="1" fill="#181818" /><rect x="1" y="1" width="1" height="1" fill="#7C7C7C" /><rect x="2" y="1" width="1" height="1" fill="#959595" /><rect x="3" y="1" width="1" height="1" fill="#494949" /><rect x="4" y="1" width="1" height="1" fill="#8E8E8E" /><rect x="5" y="1" width="1" height="1" fill="#323232" /><rect x="6" y="1" width="1" height="1" fill="#060606" /><rect x="7" y="1" width="1" height="1" fill="#6A6A6A" /><rect x="8" y="1" width="1" height="1" fill="#A3A3A3" /><rect x="9" y="1" width="1" height="1" fill="#444444" /><rect x="0" y="2" width="1" height="1" fill="#070707" /><rect x="1" y="2" width="1" height="1" fill="#999999" /><rect x="2" y="2" width="1" height="1" fill="#E8E8E8" /><rect x="3" y="2" width="1" height="1" fill="#000000" /><rect x="4" y="2" width="1" height="1" fill="#A3A3A3" /><rect x="5" y="2" width="1" height="1" fill="#FFFFFF" /><rect x="6" y="2" width="1" height="1" fill="#000000" /><rect x="7" y="2" width="1" height="1" fill="#686868" /><rect x="8" y="2" width="1" height="1" fill="#FFFFFF" /><rect x="9" y="2" width="1" height="1" fill="#000000" /><rect x="0" y="3" width="1" height="1" fill="#030303" /><rect x="1" y="3" width="1" height="1" fill="#8A8A8A" /><rect x="2" y="3" width="1" height="1" fill="#CFCFCF" /><rect x="3" y="3" width="1" height="1" fill="#252525" /><rect x="4" y="3" width="1" height="1" fill="#AEAEAE" /><rect x="5" y="3" width="1" height="1" fill="#888888" /><rect x="6" y="3" width="1" height="1" fill="#000000" /><rect x="7" y="3" width="1" height="1" fill="#5D5D5D" /><rect x="8" y="3" width="1" height="1" fill="#E2E2E2" /><rect x="9" y="3" width="1" height="1" fill="#000000" /><rect x="0" y="4" width="1" height="1" fill="#000000" /><rect x="1" y="4" width="1" height="1" fill="#8F8F8F" /><rect x="2" y="4" width="1" height="1" fill="#D5D5D5" /><rect x="3" y="4" width="1" height="1" fill="#444444" /><rect x="4" y="4" width="1" height="1" fill="#B8B8B8" /><rect x="5" y="4" width="1" height="1" fill="#727272" /><rect x="6" y="4" width="1" height="1" fill="#000000" /><rect x="7" y="4" width="1" height="1" fill="#5B5B5B" /><rect x="8" y="4" width="1" height="1" fill="#E2E2E2" /><rect x="9" y="4" width="1" height="1" fill="#000000" /><rect x="0" y="5" width="1" height="1" fill="#050505" /><rect x="1" y="5" width="1" height="1" fill="#929292" /><rect x="2" y="5" width="1" height="1" fill="#C9C9C9" /><rect x="3" y="5" width="1" height="1" fill="#000000" /><rect x="4" y="5" width="1" height="1" fill="#030303" /><rect x="5" y="5" width="1" height="1" fill="#FFFFFF" /><rect x="6" y="5" width="1" height="1" fill="#212121" /><rect x="7" y="5" width="1" height="1" fill="#3B3B3B" /><rect x="8" y="5" width="1" height="1" fill="#E2E2E2" /><rect x="9" y="5" width="1" height="1" fill="#000000" /><rect x="0" y="6" width="1" height="1" fill="#0D0D0D" /><rect x="1" y="6" width="1" height="1" fill="#949494" /><rect x="2" y="6" width="1" height="1" fill="#EBEBEB" /><rect x="3" y="6" width="1" height="1" fill="#000000" /><rect x="4" y="6" width="1" height="1" fill="#4E4E4E" /><rect x="5" y="6" width="1" height="1" fill="#FFFFFF" /><rect x="6" y="6" width="1" height="1" fill="#141414" /><rect x="7" y="6" width="1" height="1" fill="#545454" /><rect x="8" y="6" width="1" height="1" fill="#FFFFFF" /><rect x="9" y="6" width="1" height="1" fill="#000000" /><rect x="0" y="7" width="1" height="1" fill="#1A1719" /><rect x="1" y="7" width="1" height="1" fill="#787677" /><rect x="2" y="7" width="1" height="1" fill="#969495" /><rect x="3" y="7" width="1" height="1" fill="#424041" /><rect x="4" y="7" width="1" height="1" fill="#868385" /><rect x="5" y="7" width="1" height="1" fill="#484547" /><rect x="6" y="7" width="1" height="1" fill="#000000" /><rect x="7" y="7" width="1" height="1" fill="#686668" /><rect x="8" y="7" width="1" height="1" fill="#A29FA1" /><rect x="9" y="7" width="1" height="1" fill="#413F40" /><rect x="0" y="8" width="1" height="1" fill="#0B0004" /><rect x="1" y="8" width="1" height="1" fill="#000000" /><rect x="2" y="8" width="1" height="1" fill="#000000" /><rect x="3" y="8" width="1" height="1" fill="#12040C" /><rect x="4" y="8" width="1" height="1" fill="#000000" /><rect x="5" y="8" width="1" height="1" fill="#000000" /><rect x="6" y="8" width="1" height="1" fill="#070000" /><rect x="7" y="8" width="1" height="1" fill="#020000" /><rect x="8" y="8" width="1" height="1" fill="#000000" /><rect x="9" y="8" width="1" height="1" fill="#12040C" /><rect x="0" y="9" width="1" height="1" fill="#12733C" /><rect x="1" y="9" width="1" height="1" fill="#12733C" /><rect x="2" y="9" width="1" height="1" fill="#12733C" /><rect x="3" y="9" width="1" height="1" fill="#12733C" /><rect x="4" y="9" width="1" height="1" fill="#12733C" /><rect x="5" y="9" width="1" height="1" fill="#12733C" /><rect x="6" y="9" width="1" height="1" fill="#12733C" /><rect x="7" y="9" width="1" height="1" fill="#12733C" /><rect x="8" y="9" width="1" height="1" fill="#12733C" /><rect x="9" y="9" width="1" height="1" fill="#12733C" />
  </g>
</svg>