<svg width="800" height="1000" version="1.1" xmlns="http://www.w3.org/2000/svg" xmlns:xlink="http://www.w3.org/1999/xlink">
  <defs>
      <linearGradient id="Gradient2" x1="0" x2="1" y1="0" y2="1">
        <stop offset="0%" stop-color="#2d3c96"/>
        <stop offset="100%" stop-color="#d53392"/>
      </linearGradient>
  </defs>
  <rect x="10" y="10" width="780" height="980" fill="url(#Gradient2)" rx="50" ry="50" stroke="#ffd700" stroke-width="20"/>
  <text x="400" y="920" width="780" text-anchor="middle" style="font: bold 200px 'Helvetica Neue'; fill: #ffd700">01419</text>

  <g transform="translate(80 80) scale(64)">
<rect x="0" y="0" width="1" height="1" fill="#040000" /><rect x="1" y="0" width="1" height="1" fill="#000000" /><rect x="2" y="0" width="1" height="1" fill="#000000" /><rect x="3" y="0" width="1" height="1" fill="#050000" /><rect x="4" y="0" width="1" height="1" fill="#040000" /><rect x="5" y="0" width="1" height="1" fill="#090001" /><rect x="6" y="0" width="1" height="1" fill="#000000" /><rect x="7" y="0" width="1" height="1" fill="#000000" /><rect x="8" y="0" width="1" height="1" fill="#050000" /><rect x="9" y="0" width="1" height="1" fill="#050000" /><rect x="0" y="1" width="1" height="1" fill="#5F5F5F" /><rect x="1" y="1" width="1" height="1" fill="#666665" /><rect x="2" y="1" width="1" height="1" fill="#000000" /><rect x="3" y="1" width="1" height="1" fill="#020202" /><rect x="4" y="1" width="1" height="1" fill="#030303" /><rect x="5" y="1" width="1" height="1" fill="#1A1A1A" /><rect x="6" y="1" width="1" height="1" fill="#B2B2B2" /><rect x="7" y="1" width="1" height="1" fill="#7D7C7C" /><rect x="8" y="1" width="1" height="1" fill="#000000" /><rect x="9" y="1" width="1" height="1" fill="#131313" /><rect x="0" y="2" width="1" height="1" fill="#141414" /><rect x="1" y="2" width="1" height="1" fill="#B2B2B2" /><rect x="2" y="2" width="1" height="1" fill="#9C9C9C" /><rect x="3" y="2" width="1" height="1" fill="#000000" /><rect x="4" y="2" width="1" height="1" fill="#020202" /><rect x="5" y="2" width="1" height="1" fill="#000000" /><rect x="6" y="2" width="1" height="1" fill="#999999" /><rect x="7" y="2" width="1" height="1" fill="#FFFFFF" /><rect x="8" y="2" width="1" height="1" fill="#000000" /><rect x="9" y="2" width="1" height="1" fill="#252525" /><rect x="0" y="3" width="1" height="1" fill="#000000" /><rect x="1" y="3" width="1" height="1" fill="#222222" /><rect x="2" y="3" width="1" height="1" fill="#FFFFFF" /><rect x="3" y="3" width="1" height="1" fill="#242424" /><rect x="4" y="3" width="1" height="1" fill="#000000" /><rect x="5" y="3" width="1" height="1" fill="#010101" /><rect x="6" y="3" width="1" height="1" fill="#000000" /><rect x="7" y="3" width="1" height="1" fill="#F9F9F9" /><rect x="8" y="3" width="1" height="1" fill="#777777" /><rect x="9" y="3" width="1" height="1" fill="#313131" /><rect x="0" y="4" width="1" height="1" fill="#000000" /><rect x="1" y="4" width="1" height="1" fill="#0B0B0B" /><rect x="2" y="4" width="1" height="1" fill="#FAFAFA" /><rect x="3" y="4" width="1" height="1" fill="#4D4D4D" /><rect x="4" y="4" width="1" height="1" fill="#000000" /><rect x="5" y="4" width="1" height="1" fill="#050505" /><rect x="6" y="4" width="1" height="1" fill="#000000" /><rect x="7" y="4" width="1" height="1" fill="#424242" /><rect x="8" y="4" width="1" height="1" fill="#FFFFFF" /><rect x="9" y="4" width="1" height="1" fill="#505050" /><rect x="0" y="5" width="1" height="1" fill="#000000" /><rect x="1" y="5" width="1" height="1" fill="#282828" /><rect x="2" y="5" width="1" height="1" fill="#FFFFFF" /><rect x="3" y="5" width="1" height="1" fill="#222222" /><rect x="4" y="5" width="1" height="1" fill="#000000" /><rect x="5" y="5" width="1" height="1" fill="#050505" /><rect x="6" y="5" width="1" height="1" fill="#000000" /><rect x="7" y="5" width="1" height="1" fill="#000000" /><rect x="8" y="5" width="1" height="1" fill="#E1E1E1" /><rect x="9" y="5" width="1" height="1" fill="#585858" /><rect x="0" y="6" width="1" height="1" fill="#101010" /><rect x="1" y="6" width="1" height="1" fill="#B9B9B9" /><rect x="2" y="6" width="1" height="1" fill="#9C9C9C" /><rect x="3" y="6" width="1" height="1" fill="#000000" /><rect x="4" y="6" width="1" height="1" fill="#030303" /><rect x="5" y="6" width="1" height="1" fill="#050505" /><rect x="6" y="6" width="1" height="1" fill="#000000" /><rect x="7" y="6" width="1" height="1" fill="#000000" /><rect x="8" y="6" width="1" height="1" fill="#F8F8F8" /><rect x="9" y="6" width="1" height="1" fill="#5F5F5F" /><rect x="0" y="7" width="1" height="1" fill="#555254" /><rect x="1" y="7" width="1" height="1" fill="#656264" /><rect x="2" y="7" width="1" height="1" fill="#000000" /><rect x="3" y="7" width="1" height="1" fill="#030002" /><rect x="4" y="7" width="1" height="1" fill="#060405" /><rect x="5" y="7" width="1" height="1" fill="#040203" /><rect x="6" y="7" width="1" height="1" fill="#020001" /><rect x="7" y="7" width="1" height="1" fill="#2F2D2E" /><rect x="8" y="7" width="1" height="1" fill="#9F9C9E" /><rect x="9" y="7" width="1" height="1" fill="#5C5A5B" /><rect x="0" y="8" width="1" height="1" fill="#070000" /><rect x="1" y="8" width="1" height="1" fill="#000000" /><rect x="2" y="8" width="1" height="1" fill="#000000" /><rect x="3" y="8" width="1" height="1" fill="#060000" /><rect x="4" y="8" width="1" height="1" fill="#050000" /><rect x="5" y="8" width="1" height="1" fill="#050000" /><rect x="6" y="8" width="1" height="1" fill="#060000" /><rect x="7" y="8" width="1" height="1" fill="#0E0008" /><rect x="8" y="8" width="1" height="1" fill="#000000" /><rect x="9" y="8" width="1" height="1" fill="#020000" /><rect x="0" y="9" width="1" height="1" fill="#12733C" /><rect x="1" y="9" width="1" height="1" fill="#12733C" /><rect x="2" y="9" width="1" height="1" fill="#12733C" /><rect x="3" y="9" width="1" height="1" fill="#12733C" /><rect x="4" y="9" width="1" height="1" fill="#12733C" /><rect x="5" y="9" width="1" height="1" fill="#12733C" /><rect x="6" y="9" width="1" height="1" fill="#12733C" /><rect x="7" y="9" width="1" height="1" fill="#12733C" /><rect x="8" y="9" width="1" height="1" fill="#12733C" /><rect x="9" y="9" width="1" height="1" fill="#12733C" />
  </g>
</svg>