<svg width="800" height="1000" version="1.1" xmlns="http://www.w3.org/2000/svg" xmlns:xlink="http://www.w3.org/1999/xlink">
  <defs>
      <linearGradient id="Gradient2" x1="0" x2="1" y1="0" y2="1">
        <stop offset="0%" stop-color="#2d3c96"/>
        <stop offset="100%" stop-color="#d53392"/>
      </linearGradient>
  </defs>
  <rect x="10" y="10" width="780" height="980" fill="url(#Gradient2)" rx="50" ry="50" stroke="#ffd700" stroke-width="20"/>
  <text x="400" y="920" width="780" text-anchor="middle" style="font: bold 200px 'Helvetica Neue'; fill: #ffd700">01410</text>

  <g transform="translate(80 80) scale(64)">
<rect x="0" y="0" width="1" height="1" fill="#334E57" /><rect x="1" y="0" width="1" height="1" fill="#2E444F" /><rect x="2" y="0" width="1" height="1" fill="#2D3E48" /><rect x="3" y="0" width="1" height="1" fill="#2E3C45" /><rect x="4" y="0" width="1" height="1" fill="#2D3E48" /><rect x="5" y="0" width="1" height="1" fill="#2F414F" /><rect x="6" y="0" width="1" height="1" fill="#37444A" /><rect x="7" y="0" width="1" height="1" fill="#303E49" /><rect x="8" y="0" width="1" height="1" fill="#35424B" /><rect x="9" y="0" width="1" height="1" fill="#364349" /><rect x="0" y="1" width="1" height="1" fill="#3B525A" /><rect x="1" y="1" width="1" height="1" fill="#2E4A56" /><rect x="2" y="1" width="1" height="1" fill="#37525D" /><rect x="3" y="1" width="1" height="1" fill="#485A66" /><rect x="4" y="1" width="1" height="1" fill="#334A52" /><rect x="5" y="1" width="1" height="1" fill="#2D3B46" /><rect x="6" y="1" width="1" height="1" fill="#2D3E48" /><rect x="7" y="1" width="1" height="1" fill="#314047" /><rect x="8" y="1" width="1" height="1" fill="#37444C" /><rect x="9" y="1" width="1" height="1" fill="#404B4D" /><rect x="0" y="2" width="1" height="1" fill="#3B4C53" /><rect x="1" y="2" width="1" height="1" fill="#304B56" /><rect x="2" y="2" width="1" height="1" fill="#2C4A55" /><rect x="3" y="2" width="1" height="1" fill="#45626A" /><rect x="4" y="2" width="1" height="1" fill="#556C74" /><rect x="5" y="2" width="1" height="1" fill="#435760" /><rect x="6" y="2" width="1" height="1" fill="#2D3D4C" /><rect x="7" y="2" width="1" height="1" fill="#334350" /><rect x="8" y="2" width="1" height="1" fill="#2B434F" /><rect x="9" y="2" width="1" height="1" fill="#3B454E" /><rect x="0" y="3" width="1" height="1" fill="#415053" /><rect x="1" y="3" width="1" height="1" fill="#394752" /><rect x="2" y="3" width="1" height="1" fill="#344650" /><rect x="3" y="3" width="1" height="1" fill="#31454E" /><rect x="4" y="3" width="1" height="1" fill="#3B4F58" /><rect x="5" y="3" width="1" height="1" fill="#415D60" /><rect x="6" y="3" width="1" height="1" fill="#354F5E" /><rect x="7" y="3" width="1" height="1" fill="#546B73" /><rect x="8" y="3" width="1" height="1" fill="#2E4A56" /><rect x="9" y="3" width="1" height="1" fill="#264056" /><rect x="0" y="4" width="1" height="1" fill="#606868" /><rect x="1" y="4" width="1" height="1" fill="#404950" /><rect x="2" y="4" width="1" height="1" fill="#39464E" /><rect x="3" y="4" width="1" height="1" fill="#34454D" /><rect x="4" y="4" width="1" height="1" fill="#26404F" /><rect x="5" y="4" width="1" height="1" fill="#234050" /><rect x="6" y="4" width="1" height="1" fill="#27434F" /><rect x="7" y="4" width="1" height="1" fill="#395563" /><rect x="8" y="4" width="1" height="1" fill="#233D4C" /><rect x="9" y="4" width="1" height="1" fill="#223C4D" /><rect x="0" y="5" width="1" height="1" fill="#757B79" /><rect x="1" y="5" width="1" height="1" fill="#687073" /><rect x="2" y="5" width="1" height="1" fill="#5B696C" /><rect x="3" y="5" width="1" height="1" fill="#4C5F65" /><rect x="4" y="5" width="1" height="1" fill="#284A53" /><rect x="5" y="5" width="1" height="1" fill="#264152" /><rect x="6" y="5" width="1" height="1" fill="#28454D" /><rect x="7" y="5" width="1" height="1" fill="#23414B" /><rect x="8" y="5" width="1" height="1" fill="#27424B" /><rect x="9" y="5" width="1" height="1" fill="#1B3743" /><rect x="0" y="6" width="1" height="1" fill="#5C6466" /><rect x="1" y="6" width="1" height="1" fill="#6F777A" /><rect x="2" y="6" width="1" height="1" fill="#747E80" /><rect x="3" y="6" width="1" height="1" fill="#6C7C7B" /><rect x="4" y="6" width="1" height="1" fill="#5A6C70" /><rect x="5" y="6" width="1" height="1" fill="#435F6B" /><rect x="6" y="6" width="1" height="1" fill="#35505B" /><rect x="7" y="6" width="1" height="1" fill="#394D56" /><rect x="8" y="6" width="1" height="1" fill="#344D52" /><rect x="9" y="6" width="1" height="1" fill="#2B4953" /><rect x="0" y="7" width="1" height="1" fill="#626A6C" /><rect x="1" y="7" width="1" height="1" fill="#5B6366" /><rect x="2" y="7" width="1" height="1" fill="#5F6B69" /><rect x="3" y="7" width="1" height="1" fill="#647275" /><rect x="4" y="7" width="1" height="1" fill="#6E7D7A" /><rect x="5" y="7" width="1" height="1" fill="#697B7D" /><rect x="6" y="7" width="1" height="1" fill="#496568" /><rect x="7" y="7" width="1" height="1" fill="#4A5E65" /><rect x="8" y="7" width="1" height="1" fill="#384E59" /><rect x="9" y="7" width="1" height="1" fill="#324F53" /><rect x="0" y="8" width="1" height="1" fill="#A1A08E" /><rect x="1" y="8" width="1" height="1" fill="#757772" /><rect x="2" y="8" width="1" height="1" fill="#4F5D68" /><rect x="3" y="8" width="1" height="1" fill="#52666D" /><rect x="4" y="8" width="1" height="1" fill="#5A6C76" /><rect x="5" y="8" width="1" height="1" fill="#6B797C" /><rect x="6" y="8" width="1" height="1" fill="#677578" /><rect x="7" y="8" width="1" height="1" fill="#717979" /><rect x="8" y="8" width="1" height="1" fill="#4C5F66" /><rect x="9" y="8" width="1" height="1" fill="#2B4252" /><rect x="0" y="9" width="1" height="1" fill="#A39C88" /><rect x="1" y="9" width="1" height="1" fill="#7E837D" /><rect x="2" y="9" width="1" height="1" fill="#5E6C6F" /><rect x="3" y="9" width="1" height="1" fill="#52636A" /><rect x="4" y="9" width="1" height="1" fill="#48606A" /><rect x="5" y="9" width="1" height="1" fill="#4A676D" /><rect x="6" y="9" width="1" height="1" fill="#3E5C67" /><rect x="7" y="9" width="1" height="1" fill="#5E696F" /><rect x="8" y="9" width="1" height="1" fill="#7F817C" /><rect x="9" y="9" width="1" height="1" fill="#7B807A" />
  </g>
</svg>