<svg width="800" height="1000" version="1.1" xmlns="http://www.w3.org/2000/svg" xmlns:xlink="http://www.w3.org/1999/xlink">
  <defs>
      <linearGradient id="Gradient2" x1="0" x2="1" y1="0" y2="1">
        <stop offset="0%" stop-color="#2d3c96"/>
        <stop offset="100%" stop-color="#d53392"/>
      </linearGradient>
  </defs>
  <rect x="10" y="10" width="780" height="980" fill="url(#Gradient2)" rx="50" ry="50" stroke="#ffd700" stroke-width="20"/>
  <text x="400" y="920" width="780" text-anchor="middle" style="font: bold 200px 'Helvetica Neue'; fill: #ffd700">01411</text>

  <g transform="translate(80 80) scale(64)">
<rect x="0" y="0" width="1" height="1" fill="#313F48" /><rect x="1" y="0" width="1" height="1" fill="#2C3F46" /><rect x="2" y="0" width="1" height="1" fill="#213B48" /><rect x="3" y="0" width="1" height="1" fill="#223845" /><rect x="4" y="0" width="1" height="1" fill="#263D4B" /><rect x="5" y="0" width="1" height="1" fill="#273D4A" /><rect x="6" y="0" width="1" height="1" fill="#213945" /><rect x="7" y="0" width="1" height="1" fill="#24353D" /><rect x="8" y="0" width="1" height="1" fill="#2F3A40" /><rect x="9" y="0" width="1" height="1" fill="#252F38" /><rect x="0" y="1" width="1" height="1" fill="#414747" /><rect x="1" y="1" width="1" height="1" fill="#3A4245" /><rect x="2" y="1" width="1" height="1" fill="#2B3D47" /><rect x="3" y="1" width="1" height="1" fill="#2A3B43" /><rect x="4" y="1" width="1" height="1" fill="#233946" /><rect x="5" y="1" width="1" height="1" fill="#233B45" /><rect x="6" y="1" width="1" height="1" fill="#203C47" /><rect x="7" y="1" width="1" height="1" fill="#1F3543" /><rect x="8" y="1" width="1" height="1" fill="#2D3F49" /><rect x="9" y="1" width="1" height="1" fill="#2A3940" /><rect x="0" y="2" width="1" height="1" fill="#3F464E" /><rect x="1" y="2" width="1" height="1" fill="#3A474D" /><rect x="2" y="2" width="1" height="1" fill="#313F4A" /><rect x="3" y="2" width="1" height="1" fill="#2F3C45" /><rect x="4" y="2" width="1" height="1" fill="#2B3946" /><rect x="5" y="2" width="1" height="1" fill="#2A3845" /><rect x="6" y="2" width="1" height="1" fill="#273947" /><rect x="7" y="2" width="1" height="1" fill="#263A43" /><rect x="8" y="2" width="1" height="1" fill="#2C4049" /><rect x="9" y="2" width="1" height="1" fill="#294048" /><rect x="0" y="3" width="1" height="1" fill="#313E47" /><rect x="1" y="3" width="1" height="1" fill="#32454B" /><rect x="2" y="3" width="1" height="1" fill="#35434C" /><rect x="3" y="3" width="1" height="1" fill="#334249" /><rect x="4" y="3" width="1" height="1" fill="#314047" /><rect x="5" y="3" width="1" height="1" fill="#2B3942" /><rect x="6" y="3" width="1" height="1" fill="#2C3E48" /><rect x="7" y="3" width="1" height="1" fill="#263842" /><rect x="8" y="3" width="1" height="1" fill="#2A3A49" /><rect x="9" y="3" width="1" height="1" fill="#344758" /><rect x="0" y="4" width="1" height="1" fill="#203A47" /><rect x="1" y="4" width="1" height="1" fill="#2A3A49" /><rect x="2" y="4" width="1" height="1" fill="#253C44" /><rect x="3" y="4" width="1" height="1" fill="#2C3D4D" /><rect x="4" y="4" width="1" height="1" fill="#263846" /><rect x="5" y="4" width="1" height="1" fill="#273945" /><rect x="6" y="4" width="1" height="1" fill="#2B3D49" /><rect x="7" y="4" width="1" height="1" fill="#283A44" /><rect x="8" y="4" width="1" height="1" fill="#293C4A" /><rect x="9" y="4" width="1" height="1" fill="#354B56" /><rect x="0" y="5" width="1" height="1" fill="#1E3442" /><rect x="1" y="5" width="1" height="1" fill="#1C394B" /><rect x="2" y="5" width="1" height="1" fill="#294052" /><rect x="3" y="5" width="1" height="1" fill="#1C2E42" /><rect x="4" y="5" width="1" height="1" fill="#203141" /><rect x="5" y="5" width="1" height="1" fill="#233543" /><rect x="6" y="5" width="1" height="1" fill="#273746" /><rect x="7" y="5" width="1" height="1" fill="#253846" /><rect x="8" y="5" width="1" height="1" fill="#253C4C" /><rect x="9" y="5" width="1" height="1" fill="#243E4D" /><rect x="0" y="6" width="1" height="1" fill="#294658" /><rect x="1" y="6" width="1" height="1" fill="#223F51" /><rect x="2" y="6" width="1" height="1" fill="#1B3953" /><rect x="3" y="6" width="1" height="1" fill="#1A394D" /><rect x="4" y="6" width="1" height="1" fill="#1F3644" /><rect x="5" y="6" width="1" height="1" fill="#20303F" /><rect x="6" y="6" width="1" height="1" fill="#24323D" /><rect x="7" y="6" width="1" height="1" fill="#263844" /><rect x="8" y="6" width="1" height="1" fill="#1D3243" /><rect x="9" y="6" width="1" height="1" fill="#1F3A4D" /><rect x="0" y="7" width="1" height="1" fill="#354D59" /><rect x="1" y="7" width="1" height="1" fill="#304E59" /><rect x="2" y="7" width="1" height="1" fill="#2F515D" /><rect x="3" y="7" width="1" height="1" fill="#29485A" /><rect x="4" y="7" width="1" height="1" fill="#204152" /><rect x="5" y="7" width="1" height="1" fill="#1A3A4F" /><rect x="6" y="7" width="1" height="1" fill="#1C3947" /><rect x="7" y="7" width="1" height="1" fill="#233944" /><rect x="8" y="7" width="1" height="1" fill="#263947" /><rect x="9" y="7" width="1" height="1" fill="#223641" /><rect x="0" y="8" width="1" height="1" fill="#334956" /><rect x="1" y="8" width="1" height="1" fill="#334E5F" /><rect x="2" y="8" width="1" height="1" fill="#334F5A" /><rect x="3" y="8" width="1" height="1" fill="#2C4E5A" /><rect x="4" y="8" width="1" height="1" fill="#284C58" /><rect x="5" y="8" width="1" height="1" fill="#224559" /><rect x="6" y="8" width="1" height="1" fill="#224558" /><rect x="7" y="8" width="1" height="1" fill="#34474E" /><rect x="8" y="8" width="1" height="1" fill="#2E4249" /><rect x="9" y="8" width="1" height="1" fill="#24364C" /><rect x="0" y="9" width="1" height="1" fill="#757F77" /><rect x="1" y="9" width="1" height="1" fill="#68756E" /><rect x="2" y="9" width="1" height="1" fill="#55666E" /><rect x="3" y="9" width="1" height="1" fill="#33505E" /><rect x="4" y="9" width="1" height="1" fill="#2F4753" /><rect x="5" y="9" width="1" height="1" fill="#38525F" /><rect x="6" y="9" width="1" height="1" fill="#3E565E" /><rect x="7" y="9" width="1" height="1" fill="#3B515E" /><rect x="8" y="9" width="1" height="1" fill="#314550" /><rect x="9" y="9" width="1" height="1" fill="#273B42" />
  </g>
</svg>