<svg width="800" height="1000" xmlns="http://www.w3.org/2000/svg"><defs><linearGradient id="g" x1="0" x2="1" y1="0" y2="1"><stop offset="0%" stop-color="#2d3c96"/><stop offset="100%" stop-color="#d53392"/></linearGradient></defs><rect x="10" y="10" width="780" height="980" fill="url(#g)" rx="50" ry="50" stroke="gold" stroke-width="20"/><text x="400" y="920" width="780" text-anchor="middle" style="font:bold 200px 'Helvetica Neue';fill:gold">01411</text><g transform="translate(80 80) scale(64)"><rect x="0" y="0" width="1" height="1" fill="#313f48" /><rect x="0" y="1" width="1" height="1" fill="#414747" /><rect x="0" y="2" width="1" height="1" fill="#3f464e" /><rect x="0" y="3" width="1" height="1" fill="#313e47" /><rect x="0" y="4" width="1" height="1" fill="#203a47" /><rect x="0" y="5" width="1" height="1" fill="#1e3442" /><rect x="0" y="6" width="1" height="1" fill="#294658" /><rect x="0" y="7" width="1" height="1" fill="#354d59" /><rect x="0" y="8" width="1" height="1" fill="#334956" /><rect x="0" y="9" width="1" height="1" fill="#757f77" /><rect x="1" y="0" width="1" height="1" fill="#2c3f46" /><rect x="1" y="1" width="1" height="1" fill="#3a4245" /><rect x="1" y="2" width="1" height="1" fill="#3a474d" /><rect x="1" y="3" width="1" height="1" fill="#32454b" /><rect x="1" y="4" width="1" height="1" fill="#2a3a49" /><rect x="1" y="5" width="1" height="1" fill="#1c394b" /><rect x="1" y="6" width="1" height="1" fill="#223f51" /><rect x="1" y="7" width="1" height="1" fill="#304e59" /><rect x="1" y="8" width="1" height="1" fill="#334e5f" /><rect x="1" y="9" width="1" height="1" fill="#68756e" /><rect x="2" y="0" width="1" height="1" fill="#213b48" /><rect x="2" y="1" width="1" height="1" fill="#2b3d47" /><rect x="2" y="2" width="1" height="1" fill="#313f4a" /><rect x="2" y="3" width="1" height="1" fill="#35434c" /><rect x="2" y="4" width="1" height="1" fill="#253c44" /><rect x="2" y="5" width="1" height="1" fill="#294052" /><rect x="2" y="6" width="1" height="1" fill="#1b3953" /><rect x="2" y="7" width="1" height="1" fill="#2f515d" /><rect x="2" y="8" width="1" height="1" fill="#334f5a" /><rect x="2" y="9" width="1" height="1" fill="#55666e" /><rect x="3" y="0" width="1" height="1" fill="#223845" /><rect x="3" y="1" width="1" height="1" fill="#2a3b43" /><rect x="3" y="2" width="1" height="1" fill="#2f3c45" /><rect x="3" y="3" width="1" height="1" fill="#334249" /><rect x="3" y="4" width="1" height="1" fill="#2c3d4d" /><rect x="3" y="5" width="1" height="1" fill="#1c2e42" /><rect x="3" y="6" width="1" height="1" fill="#1a394d" /><rect x="3" y="7" width="1" height="1" fill="#29485a" /><rect x="3" y="8" width="1" height="1" fill="#2c4e5a" /><rect x="3" y="9" width="1" height="1" fill="#33505e" /><rect x="4" y="0" width="1" height="1" fill="#263d4b" /><rect x="4" y="1" width="1" height="1" fill="#233946" /><rect x="4" y="2" width="1" height="1" fill="#2b3946" /><rect x="4" y="3" width="1" height="1" fill="#314047" /><rect x="4" y="4" width="1" height="1" fill="#263846" /><rect x="4" y="5" width="1" height="1" fill="#203141" /><rect x="4" y="6" width="1" height="1" fill="#1f3644" /><rect x="4" y="7" width="1" height="1" fill="#204152" /><rect x="4" y="8" width="1" height="1" fill="#284c58" /><rect x="4" y="9" width="1" height="1" fill="#2f4753" /><rect x="5" y="0" width="1" height="1" fill="#273d4a" /><rect x="5" y="1" width="1" height="1" fill="#233b45" /><rect x="5" y="2" width="1" height="1" fill="#2a3845" /><rect x="5" y="3" width="1" height="1" fill="#2b3942" /><rect x="5" y="4" width="1" height="1" fill="#273945" /><rect x="5" y="5" width="1" height="1" fill="#233543" /><rect x="5" y="6" width="1" height="1" fill="#20303f" /><rect x="5" y="7" width="1" height="1" fill="#1a3a4f" /><rect x="5" y="8" width="1" height="1" fill="#224559" /><rect x="5" y="9" width="1" height="1" fill="#38525f" /><rect x="6" y="0" width="1" height="1" fill="#213945" /><rect x="6" y="1" width="1" height="1" fill="#203c47" /><rect x="6" y="2" width="1" height="1" fill="#273947" /><rect x="6" y="3" width="1" height="1" fill="#2c3e48" /><rect x="6" y="4" width="1" height="1" fill="#2b3d49" /><rect x="6" y="5" width="1" height="1" fill="#273746" /><rect x="6" y="6" width="1" height="1" fill="#24323d" /><rect x="6" y="7" width="1" height="1" fill="#1c3947" /><rect x="6" y="8" width="1" height="1" fill="#224558" /><rect x="6" y="9" width="1" height="1" fill="#3e565e" /><rect x="7" y="0" width="1" height="1" fill="#24353d" /><rect x="7" y="1" width="1" height="1" fill="#1f3543" /><rect x="7" y="2" width="1" height="1" fill="#263a43" /><rect x="7" y="3" width="1" height="1" fill="#263842" /><rect x="7" y="4" width="1" height="1" fill="#283a44" /><rect x="7" y="5" width="1" height="1" fill="#253846" /><rect x="7" y="6" width="1" height="1" fill="#263844" /><rect x="7" y="7" width="1" height="1" fill="#233944" /><rect x="7" y="8" width="1" height="1" fill="#34474e" /><rect x="7" y="9" width="1" height="1" fill="#3b515e" /><rect x="8" y="0" width="1" height="1" fill="#2f3a40" /><rect x="8" y="1" width="1" height="1" fill="#2d3f49" /><rect x="8" y="2" width="1" height="1" fill="#2c4049" /><rect x="8" y="3" width="1" height="1" fill="#2a3a49" /><rect x="8" y="4" width="1" height="1" fill="#293c4a" /><rect x="8" y="5" width="1" height="1" fill="#253c4c" /><rect x="8" y="6" width="1" height="1" fill="#1d3243" /><rect x="8" y="7" width="1" height="1" fill="#263947" /><rect x="8" y="8" width="1" height="1" fill="#2e4249" /><rect x="8" y="9" width="1" height="1" fill="#314550" /><rect x="9" y="0" width="1" height="1" fill="#252f38" /><rect x="9" y="1" width="1" height="1" fill="#2a3940" /><rect x="9" y="2" width="1" height="1" fill="#294048" /><rect x="9" y="3" width="1" height="1" fill="#344758" /><rect x="9" y="4" width="1" height="1" fill="#354b56" /><rect x="9" y="5" width="1" height="1" fill="#243e4d" /><rect x="9" y="6" width="1" height="1" fill="#1f3a4d" /><rect x="9" y="7" width="1" height="1" fill="#223641" /><rect x="9" y="8" width="1" height="1" fill="#24364c" /><rect x="9" y="9" width="1" height="1" fill="#273b42" /></g></svg>