<svg width="800" height="1000" version="1.1" xmlns="http://www.w3.org/2000/svg" xmlns:xlink="http://www.w3.org/1999/xlink">
  <defs>
      <linearGradient id="Gradient2" x1="0" x2="1" y1="0" y2="1">
        <stop offset="0%" stop-color="#2d3c96"/>
        <stop offset="100%" stop-color="#d53392"/>
      </linearGradient>
  </defs>
  <rect x="10" y="10" width="780" height="980" fill="url(#Gradient2)" rx="50" ry="50" stroke="#ffd700" stroke-width="20"/>
  <text x="400" y="920" width="780" text-anchor="middle" style="font: bold 200px 'Helvetica Neue'; fill: #ffd700">01428</text>

  <g transform="translate(80 80) scale(64)">
<rect x="0" y="0" width="1" height="1" fill="#253F70" /><rect x="1" y="0" width="1" height="1" fill="#5A6F9E" /><rect x="2" y="0" width="1" height="1" fill="#202B49" /><rect x="3" y="0" width="1" height="1" fill="#31374F" /><rect x="4" y="0" width="1" height="1" fill="#3D3E5C" /><rect x="5" y="0" width="1" height="1" fill="#484B6A" /><rect x="6" y="0" width="1" height="1" fill="#283756" /><rect x="7" y="0" width="1" height="1" fill="#1F3253" /><rect x="8" y="0" width="1" height="1" fill="#233354" /><rect x="9" y="0" width="1" height="1" fill="#30415D" /><rect x="0" y="1" width="1" height="1" fill="#2B406F" /><rect x="1" y="1" width="1" height="1" fill="#2C3E6C" /><rect x="2" y="1" width="1" height="1" fill="#303F5C" /><rect x="3" y="1" width="1" height="1" fill="#30384F" /><rect x="4" y="1" width="1" height="1" fill="#2A2A46" /><rect x="5" y="1" width="1" height="1" fill="#2E3150" /><rect x="6" y="1" width="1" height="1" fill="#1C2C50" /><rect x="7" y="1" width="1" height="1" fill="#24365A" /><rect x="8" y="1" width="1" height="1" fill="#182246" /><rect x="9" y="1" width="1" height="1" fill="#2B3558" /><rect x="0" y="2" width="1" height="1" fill="#2C355C" /><rect x="1" y="2" width="1" height="1" fill="#233053" /><rect x="2" y="2" width="1" height="1" fill="#45556C" /><rect x="3" y="2" width="1" height="1" fill="#3B4658" /><rect x="4" y="2" width="1" height="1" fill="#2C2A3F" /><rect x="5" y="2" width="1" height="1" fill="#36364E" /><rect x="6" y="2" width="1" height="1" fill="#1F294D" /><rect x="7" y="2" width="1" height="1" fill="#29325B" /><rect x="8" y="2" width="1" height="1" fill="#2B2A52" /><rect x="9" y="2" width="1" height="1" fill="#25244C" /><rect x="0" y="3" width="1" height="1" fill="#313A57" /><rect x="1" y="3" width="1" height="1" fill="#2C3852" /><rect x="2" y="3" width="1" height="1" fill="#1D2E42" /><rect x="3" y="3" width="1" height="1" fill="#43515E" /><rect x="4" y="3" width="1" height="1" fill="#2E313A" /><rect x="5" y="3" width="1" height="1" fill="#2A2939" /><rect x="6" y="3" width="1" height="1" fill="#1D2343" /><rect x="7" y="3" width="1" height="1" fill="#2B3058" /><rect x="8" y="3" width="1" height="1" fill="#312A53" /><rect x="9" y="3" width="1" height="1" fill="#221D46" /><rect x="0" y="4" width="1" height="1" fill="#354056" /><rect x="1" y="4" width="1" height="1" fill="#233041" /><rect x="2" y="4" width="1" height="1" fill="#132436" /><rect x="3" y="4" width="1" height="1" fill="#10202D" /><rect x="4" y="4" width="1" height="1" fill="#1C2124" /><rect x="5" y="4" width="1" height="1" fill="#303038" /><rect x="6" y="4" width="1" height="1" fill="#232742" /><rect x="7" y="4" width="1" height="1" fill="#292E4E" /><rect x="8" y="4" width="1" height="1" fill="#333357" /><rect x="9" y="4" width="1" height="1" fill="#24284D" /><rect x="0" y="5" width="1" height="1" fill="#243142" /><rect x="1" y="5" width="1" height="1" fill="#223242" /><rect x="2" y="5" width="1" height="1" fill="#1D2F45" /><rect x="3" y="5" width="1" height="1" fill="#152437" /><rect x="4" y="5" width="1" height="1" fill="#161B1F" /><rect x="5" y="5" width="1" height="1" fill="#15161B" /><rect x="6" y="5" width="1" height="1" fill="#171B34" /><rect x="7" y="5" width="1" height="1" fill="#1C1F3E" /><rect x="8" y="5" width="1" height="1" fill="#181A33" /><rect x="9" y="5" width="1" height="1" fill="#252B45" /><rect x="0" y="6" width="1" height="1" fill="#36445E" /><rect x="1" y="6" width="1" height="1" fill="#2E3F5B" /><rect x="2" y="6" width="1" height="1" fill="#203052" /><rect x="3" y="6" width="1" height="1" fill="#1E2947" /><rect x="4" y="6" width="1" height="1" fill="#1A1E2A" /><rect x="5" y="6" width="1" height="1" fill="#131522" /><rect x="6" y="6" width="1" height="1" fill="#1C213E" /><rect x="7" y="6" width="1" height="1" fill="#161A37" /><rect x="8" y="6" width="1" height="1" fill="#13111F" /><rect x="9" y="6" width="1" height="1" fill="#1F212E" /><rect x="0" y="7" width="1" height="1" fill="#414E6E" /><rect x="1" y="7" width="1" height="1" fill="#314369" /><rect x="2" y="7" width="1" height="1" fill="#263763" /><rect x="3" y="7" width="1" height="1" fill="#26325A" /><rect x="4" y="7" width="1" height="1" fill="#161C36" /><rect x="5" y="7" width="1" height="1" fill="#31354E" /><rect x="6" y="7" width="1" height="1" fill="#252B4B" /><rect x="7" y="7" width="1" height="1" fill="#222744" /><rect x="8" y="7" width="1" height="1" fill="#191826" /><rect x="9" y="7" width="1" height="1" fill="#1A202C" /><rect x="0" y="8" width="1" height="1" fill="#425075" /><rect x="1" y="8" width="1" height="1" fill="#354775" /><rect x="2" y="8" width="1" height="1" fill="#2F4173" /><rect x="3" y="8" width="1" height="1" fill="#243263" /><rect x="4" y="8" width="1" height="1" fill="#323F69" /><rect x="5" y="8" width="1" height="1" fill="#333F65" /><rect x="6" y="8" width="1" height="1" fill="#2F395D" /><rect x="7" y="8" width="1" height="1" fill="#1C2544" /><rect x="8" y="8" width="1" height="1" fill="#0D142E" /><rect x="9" y="8" width="1" height="1" fill="#2C3D57" /><rect x="0" y="9" width="1" height="1" fill="#5C5869" /><rect x="1" y="9" width="1" height="1" fill="#544E66" /><rect x="2" y="9" width="1" height="1" fill="#3D3C5B" /><rect x="3" y="9" width="1" height="1" fill="#303052" /><rect x="4" y="9" width="1" height="1" fill="#373A5D" /><rect x="5" y="9" width="1" height="1" fill="#42425E" /><rect x="6" y="9" width="1" height="1" fill="#5B505E" /><rect x="7" y="9" width="1" height="1" fill="#4D4552" /><rect x="8" y="9" width="1" height="1" fill="#373F54" /><rect x="9" y="9" width="1" height="1" fill="#334667" />
  </g>
</svg>