<svg width="800" height="1000" version="1.1" xmlns="http://www.w3.org/2000/svg" xmlns:xlink="http://www.w3.org/1999/xlink">
  <defs>
      <linearGradient id="Gradient2" x1="0" x2="1" y1="0" y2="1">
        <stop offset="0%" stop-color="#2d3c96"/>
        <stop offset="100%" stop-color="#d53392"/>
      </linearGradient>
  </defs>
  <rect x="10" y="10" width="780" height="980" fill="url(#Gradient2)" rx="50" ry="50" stroke="#ffd700" stroke-width="20"/>
  <text x="400" y="920" width="780" text-anchor="middle" style="font: bold 200px 'Helvetica Neue'; fill: #ffd700">01428</text>

  <g transform="translate(80 80) scale(64)">
<rect x="0" y="0" width="1" height="1" fill="#9AD7DC" /><rect x="1" y="0" width="1" height="1" fill="#50808A" /><rect x="2" y="0" width="1" height="1" fill="#D5ECFE" /><rect x="3" y="0" width="1" height="1" fill="#5C7589" /><rect x="4" y="0" width="1" height="1" fill="#9DCEDC" /><rect x="5" y="0" width="1" height="1" fill="#85CFD2" /><rect x="6" y="0" width="1" height="1" fill="#45A5A1" /><rect x="7" y="0" width="1" height="1" fill="#42B0A7" /><rect x="8" y="0" width="1" height="1" fill="#57CBC0" /><rect x="9" y="0" width="1" height="1" fill="#3EA39D" /><rect x="0" y="1" width="1" height="1" fill="#94C2D1" /><rect x="1" y="1" width="1" height="1" fill="#6E91A5" /><rect x="2" y="1" width="1" height="1" fill="#8599B4" /><rect x="3" y="1" width="1" height="1" fill="#7388A5" /><rect x="4" y="1" width="1" height="1" fill="#94C1D4" /><rect x="5" y="1" width="1" height="1" fill="#7FC2CB" /><rect x="6" y="1" width="1" height="1" fill="#84DCDD" /><rect x="7" y="1" width="1" height="1" fill="#0C716B" /><rect x="8" y="1" width="1" height="1" fill="#3A9E94" /><rect x="9" y="1" width="1" height="1" fill="#52A7A0" /><rect x="0" y="2" width="1" height="1" fill="#96B0C7" /><rect x="1" y="2" width="1" height="1" fill="#9CB1CC" /><rect x="2" y="2" width="1" height="1" fill="#839EB9" /><rect x="3" y="2" width="1" height="1" fill="#9ABFDA" /><rect x="4" y="2" width="1" height="1" fill="#80AEC5" /><rect x="5" y="2" width="1" height="1" fill="#95D0E0" /><rect x="6" y="2" width="1" height="1" fill="#88D7DC" /><rect x="7" y="2" width="1" height="1" fill="#86D6D3" /><rect x="8" y="2" width="1" height="1" fill="#83C5C3" /><rect x="9" y="2" width="1" height="1" fill="#A5D7D6" /><rect x="0" y="3" width="1" height="1" fill="#4B5171" /><rect x="1" y="3" width="1" height="1" fill="#5C5E84" /><rect x="2" y="3" width="1" height="1" fill="#8492B7" /><rect x="3" y="3" width="1" height="1" fill="#42587D" /><rect x="4" y="3" width="1" height="1" fill="#496686" /><rect x="5" y="3" width="1" height="1" fill="#59839B" /><rect x="6" y="3" width="1" height="1" fill="#88C8D2" /><rect x="7" y="3" width="1" height="1" fill="#8DD1D4" /><rect x="8" y="3" width="1" height="1" fill="#A1D4D5" /><rect x="9" y="3" width="1" height="1" fill="#9BC3C2" /><rect x="0" y="4" width="1" height="1" fill="#6C5D84" /><rect x="1" y="4" width="1" height="1" fill="#5E4171" /><rect x="2" y="4" width="1" height="1" fill="#6D598A" /><rect x="3" y="4" width="1" height="1" fill="#5D5181" /><rect x="4" y="4" width="1" height="1" fill="#756F9D" /><rect x="5" y="4" width="1" height="1" fill="#7886A9" /><rect x="6" y="4" width="1" height="1" fill="#8CB7C8" /><rect x="7" y="4" width="1" height="1" fill="#91CBCF" /><rect x="8" y="4" width="1" height="1" fill="#97CFCE" /><rect x="9" y="4" width="1" height="1" fill="#9CD4CB" /><rect x="0" y="5" width="1" height="1" fill="#9192B0" /><rect x="1" y="5" width="1" height="1" fill="#BEAFDA" /><rect x="2" y="5" width="1" height="1" fill="#AB9BCA" /><rect x="3" y="5" width="1" height="1" fill="#5B527F" /><rect x="4" y="5" width="1" height="1" fill="#4B4E77" /><rect x="5" y="5" width="1" height="1" fill="#839CBA" /><rect x="6" y="5" width="1" height="1" fill="#A2D7E5" /><rect x="7" y="5" width="1" height="1" fill="#95DBDB" /><rect x="8" y="5" width="1" height="1" fill="#81CDC1" /><rect x="9" y="5" width="1" height="1" fill="#85D2C0" /><rect x="0" y="6" width="1" height="1" fill="#73A4B2" /><rect x="1" y="6" width="1" height="1" fill="#5C8096" /><rect x="2" y="6" width="1" height="1" fill="#52708C" /><rect x="3" y="6" width="1" height="1" fill="#62819D" /><rect x="4" y="6" width="1" height="1" fill="#7FB6CA" /><rect x="5" y="6" width="1" height="1" fill="#8BD5DE" /><rect x="6" y="6" width="1" height="1" fill="#7DD7D5" /><rect x="7" y="6" width="1" height="1" fill="#76DCCF" /><rect x="8" y="6" width="1" height="1" fill="#71DCC8" /><rect x="9" y="6" width="1" height="1" fill="#74DCC3" /><rect x="0" y="7" width="1" height="1" fill="#86C7CD" /><rect x="1" y="7" width="1" height="1" fill="#97D1DC" /><rect x="2" y="7" width="1" height="1" fill="#9BC4D6" /><rect x="3" y="7" width="1" height="1" fill="#9CC9DE" /><rect x="4" y="7" width="1" height="1" fill="#90D4DD" /><rect x="5" y="7" width="1" height="1" fill="#80D4D6" /><rect x="6" y="7" width="1" height="1" fill="#72CDC8" /><rect x="7" y="7" width="1" height="1" fill="#79DACF" /><rect x="8" y="7" width="1" height="1" fill="#79DECC" /><rect x="9" y="7" width="1" height="1" fill="#74D3BF" /><rect x="0" y="8" width="1" height="1" fill="#8FBBC4" /><rect x="1" y="8" width="1" height="1" fill="#8EB4C1" /><rect x="2" y="8" width="1" height="1" fill="#99AFC4" /><rect x="3" y="8" width="1" height="1" fill="#A8BFD1" /><rect x="4" y="8" width="1" height="1" fill="#8AB6C1" /><rect x="5" y="8" width="1" height="1" fill="#88BFC6" /><rect x="6" y="8" width="1" height="1" fill="#95CACE" /><rect x="7" y="8" width="1" height="1" fill="#8BC3C4" /><rect x="8" y="8" width="1" height="1" fill="#88C0BD" /><rect x="9" y="8" width="1" height="1" fill="#93C7C5" /><rect x="0" y="9" width="1" height="1" fill="#778A98" /><rect x="1" y="9" width="1" height="1" fill="#7E909E" /><rect x="2" y="9" width="1" height="1" fill="#7D8A9A" /><rect x="3" y="9" width="1" height="1" fill="#6F7F8E" /><rect x="4" y="9" width="1" height="1" fill="#7B939F" /><rect x="5" y="9" width="1" height="1" fill="#718D98" /><rect x="6" y="9" width="1" height="1" fill="#77929D" /><rect x="7" y="9" width="1" height="1" fill="#677F89" /><rect x="8" y="9" width="1" height="1" fill="#6B818C" /><rect x="9" y="9" width="1" height="1" fill="#7F919D" />
  </g>
</svg>