<svg width="800" height="1000" version="1.1" xmlns="http://www.w3.org/2000/svg" xmlns:xlink="http://www.w3.org/1999/xlink">
  <defs>
      <linearGradient id="Gradient2" x1="0" x2="1" y1="0" y2="1">
        <stop offset="0%" stop-color="#2d3c96"/>
        <stop offset="100%" stop-color="#d53392"/>
      </linearGradient>
  </defs>
  <rect x="10" y="10" width="780" height="980" fill="url(#Gradient2)" rx="50" ry="50" stroke="#ffd700" stroke-width="20"/>
  <text x="400" y="920" width="780" text-anchor="middle" style="font: bold 200px 'Helvetica Neue'; fill: #ffd700">01426</text>

  <g transform="translate(80 80) scale(64)">
<rect x="0" y="0" width="1" height="1" fill="#C0FFA2" /><rect x="1" y="0" width="1" height="1" fill="#CDF6B4" /><rect x="2" y="0" width="1" height="1" fill="#877C78" /><rect x="3" y="0" width="1" height="1" fill="#D7B9D1" /><rect x="4" y="0" width="1" height="1" fill="#CFC2D4" /><rect x="5" y="0" width="1" height="1" fill="#9797A3" /><rect x="6" y="0" width="1" height="1" fill="#B5BFC1" /><rect x="7" y="0" width="1" height="1" fill="#DBE0E4" /><rect x="8" y="0" width="1" height="1" fill="#D6C7DA" /><rect x="9" y="0" width="1" height="1" fill="#907E96" /><rect x="0" y="1" width="1" height="1" fill="#B9FFA7" /><rect x="1" y="1" width="1" height="1" fill="#C8F5BA" /><rect x="2" y="1" width="1" height="1" fill="#847C7A" /><rect x="3" y="1" width="1" height="1" fill="#D4BAD3" /><rect x="4" y="1" width="1" height="1" fill="#CFC2D4" /><rect x="5" y="1" width="1" height="1" fill="#9896A1" /><rect x="6" y="1" width="1" height="1" fill="#B8BDC1" /><rect x="7" y="1" width="1" height="1" fill="#DEDFE4" /><rect x="8" y="1" width="1" height="1" fill="#DBCADD" /><rect x="9" y="1" width="1" height="1" fill="#937C96" /><rect x="0" y="2" width="1" height="1" fill="#B6FAAD" /><rect x="1" y="2" width="1" height="1" fill="#C4F3BF" /><rect x="2" y="2" width="1" height="1" fill="#7D7D7D" /><rect x="3" y="2" width="1" height="1" fill="#CDBED3" /><rect x="4" y="2" width="1" height="1" fill="#CCC4D3" /><rect x="5" y="2" width="1" height="1" fill="#99969F" /><rect x="6" y="2" width="1" height="1" fill="#BDBBC0" /><rect x="7" y="2" width="1" height="1" fill="#E1DCE3" /><rect x="8" y="2" width="1" height="1" fill="#DBCEDF" /><rect x="9" y="2" width="1" height="1" fill="#86748A" /><rect x="0" y="3" width="1" height="1" fill="#B5FAB7" /><rect x="1" y="3" width="1" height="1" fill="#BFF3C5" /><rect x="2" y="3" width="1" height="1" fill="#758181" /><rect x="3" y="3" width="1" height="1" fill="#C8C0D5" /><rect x="4" y="3" width="1" height="1" fill="#C9C5D3" /><rect x="5" y="3" width="1" height="1" fill="#9B969D" /><rect x="6" y="3" width="1" height="1" fill="#C0B9C0" /><rect x="7" y="3" width="1" height="1" fill="#E2DBE3" /><rect x="8" y="3" width="1" height="1" fill="#CDC7D5" /><rect x="9" y="3" width="1" height="1" fill="#968F9F" /><rect x="0" y="4" width="1" height="1" fill="#ABF6BD" /><rect x="1" y="4" width="1" height="1" fill="#B2EAC5" /><rect x="2" y="4" width="1" height="1" fill="#718387" /><rect x="3" y="4" width="1" height="1" fill="#C6C4D9" /><rect x="4" y="4" width="1" height="1" fill="#C7C5D0" /><rect x="5" y="4" width="1" height="1" fill="#9A979E" /><rect x="6" y="4" width="1" height="1" fill="#C0B9C0" /><rect x="7" y="4" width="1" height="1" fill="#E0DFE5" /><rect x="8" y="4" width="1" height="1" fill="#CAD3DC" /><rect x="9" y="4" width="1" height="1" fill="#77848C" /><rect x="0" y="5" width="1" height="1" fill="#9FF7C4" /><rect x="1" y="5" width="1" height="1" fill="#A7EAC9" /><rect x="2" y="5" width="1" height="1" fill="#6C838B" /><rect x="3" y="5" width="1" height="1" fill="#C4C5D9" /><rect x="4" y="5" width="1" height="1" fill="#C6C6D0" /><rect x="5" y="5" width="1" height="1" fill="#99999B" /><rect x="6" y="5" width="1" height="1" fill="#C1B7BF" /><rect x="7" y="5" width="1" height="1" fill="#E1DEE5" /><rect x="8" y="5" width="1" height="1" fill="#CCD6DF" /><rect x="9" y="5" width="1" height="1" fill="#7A8B93" /><rect x="0" y="6" width="1" height="1" fill="#8BFBC9" /><rect x="1" y="6" width="1" height="1" fill="#99EECF" /><rect x="2" y="6" width="1" height="1" fill="#68838C" /><rect x="3" y="6" width="1" height="1" fill="#C3C4D9" /><rect x="4" y="6" width="1" height="1" fill="#C5C5CD" /><rect x="5" y="6" width="1" height="1" fill="#99979A" /><rect x="6" y="6" width="1" height="1" fill="#C0B7BC" /><rect x="7" y="6" width="1" height="1" fill="#E3DBE6" /><rect x="8" y="6" width="1" height="1" fill="#D0CFDD" /><rect x="9" y="6" width="1" height="1" fill="#7B838E" /><rect x="0" y="7" width="1" height="1" fill="#7AFECD" /><rect x="1" y="7" width="1" height="1" fill="#8FEFD3" /><rect x="2" y="7" width="1" height="1" fill="#66828E" /><rect x="3" y="7" width="1" height="1" fill="#C7C3DA" /><rect x="4" y="7" width="1" height="1" fill="#C6C6CE" /><rect x="5" y="7" width="1" height="1" fill="#99979A" /><rect x="6" y="7" width="1" height="1" fill="#C0B7BC" /><rect x="7" y="7" width="1" height="1" fill="#E7DBE7" /><rect x="8" y="7" width="1" height="1" fill="#DBCFE3" /><rect x="9" y="7" width="1" height="1" fill="#827E8D" /><rect x="0" y="8" width="1" height="1" fill="#6EFDCF" /><rect x="1" y="8" width="1" height="1" fill="#84F0D6" /><rect x="2" y="8" width="1" height="1" fill="#668393" /><rect x="3" y="8" width="1" height="1" fill="#CAC4DE" /><rect x="4" y="8" width="1" height="1" fill="#C7C7CF" /><rect x="5" y="8" width="1" height="1" fill="#999999" /><rect x="6" y="8" width="1" height="1" fill="#C0B9C0" /><rect x="7" y="8" width="1" height="1" fill="#EADCE9" /><rect x="8" y="8" width="1" height="1" fill="#E4D0E9" /><rect x="9" y="8" width="1" height="1" fill="#937B93" /><rect x="0" y="9" width="1" height="1" fill="#68FBD1" /><rect x="1" y="9" width="1" height="1" fill="#82EED7" /><rect x="2" y="9" width="1" height="1" fill="#668194" /><rect x="3" y="9" width="1" height="1" fill="#CCC3DE" /><rect x="4" y="9" width="1" height="1" fill="#C5C8CF" /><rect x="5" y="9" width="1" height="1" fill="#969A99" /><rect x="6" y="9" width="1" height="1" fill="#BCBABF" /><rect x="7" y="9" width="1" height="1" fill="#E7DCEA" /><rect x="8" y="9" width="1" height="1" fill="#E4CDE7" /><rect x="9" y="9" width="1" height="1" fill="#897189" />
  </g>
</svg>