<svg width="800" height="1000" xmlns="http://www.w3.org/2000/svg"><defs><linearGradient id="g" x1="0" x2="1" y1="0" y2="1"><stop offset="0%" stop-color="#2d3c96"/><stop offset="100%" stop-color="#d53392"/></linearGradient></defs><rect x="10" y="10" width="780" height="980" fill="url(#g)" rx="50" ry="50" stroke="gold" stroke-width="20"/><text x="400" y="920" width="780" text-anchor="middle" style="font:bold 200px 'Helvetica Neue';fill:gold">01429</text><g transform="translate(80 80) scale(64)"><rect x="0" y="0" width="1" height="1" fill="#2d5e65" /><rect x="0" y="1" width="1" height="1" fill="#92bdc3" /><rect x="0" y="2" width="1" height="1" fill="#9dbac0" /><rect x="0" y="3" width="1" height="1" fill="#b3d2d4" /><rect x="0" y="4" width="1" height="1" fill="#96c8bf" /><rect x="0" y="5" width="1" height="1" fill="#98d6c7" /><rect x="0" y="6" width="1" height="1" fill="#98dccd" /><rect x="0" y="7" width="1" height="1" fill="#93ccc3" /><rect x="0" y="8" width="1" height="1" fill="#9cbbbe" /><rect x="0" y="9" width="1" height="1" fill="#74858f" /><rect x="1" y="0" width="1" height="1" fill="#b9dde9" /><rect x="1" y="1" width="1" height="1" fill="#7896a1" /><rect x="1" y="2" width="1" height="1" fill="#aabec9" /><rect x="1" y="3" width="1" height="1" fill="#b0c7cd" /><rect x="1" y="4" width="1" height="1" fill="#a5ccc9" /><rect x="1" y="5" width="1" height="1" fill="#98c9c3" /><rect x="1" y="6" width="1" height="1" fill="#92c7bf" /><rect x="1" y="7" width="1" height="1" fill="#9ecbc8" /><rect x="1" y="8" width="1" height="1" fill="#a5bcc2" /><rect x="1" y="9" width="1" height="1" fill="#76828e" /><rect x="2" y="0" width="1" height="1" fill="#e4ebff" /><rect x="2" y="1" width="1" height="1" fill="#464c64" /><rect x="2" y="2" width="1" height="1" fill="#70758b" /><rect x="2" y="3" width="1" height="1" fill="#71788a" /><rect x="2" y="4" width="1" height="1" fill="#6e7e8b" /><rect x="2" y="5" width="1" height="1" fill="#72868f" /><rect x="2" y="6" width="1" height="1" fill="#5a7179" /><rect x="2" y="7" width="1" height="1" fill="#7b8d97" /><rect x="2" y="8" width="1" height="1" fill="#6f7985" /><rect x="2" y="9" width="1" height="1" fill="#a2a5b4" /><rect x="3" y="0" width="1" height="1" fill="#8c89a6" /><rect x="3" y="1" width="1" height="1" fill="#75728d" /><rect x="3" y="2" width="1" height="1" fill="#bcbad2" /><rect x="3" y="3" width="1" height="1" fill="#bebfd4" /><rect x="3" y="4" width="1" height="1" fill="#afb4c7" /><rect x="3" y="5" width="1" height="1" fill="#c4cada" /><rect x="3" y="6" width="1" height="1" fill="#bdc5d2" /><rect x="3" y="7" width="1" height="1" fill="#b6bcca" /><rect x="3" y="8" width="1" height="1" fill="#b4b6c3" /><rect x="3" y="9" width="1" height="1" fill="#bcbbc9" /><rect x="4" y="0" width="1" height="1" fill="#76788f" /><rect x="4" y="1" width="1" height="1" fill="#76788d" /><rect x="4" y="2" width="1" height="1" fill="#7e8397" /><rect x="4" y="3" width="1" height="1" fill="#858a9d" /><rect x="4" y="4" width="1" height="1" fill="#858b99" /><rect x="4" y="5" width="1" height="1" fill="#818793" /><rect x="4" y="6" width="1" height="1" fill="#7c808b" /><rect x="4" y="7" width="1" height="1" fill="#8a8e97" /><rect x="4" y="8" width="1" height="1" fill="#81848b" /><rect x="4" y="9" width="1" height="1" fill="#8b8b93" /><rect x="5" y="0" width="1" height="1" fill="#bbc0d3" /><rect x="5" y="1" width="1" height="1" fill="#c0c6d6" /><rect x="5" y="2" width="1" height="1" fill="#b6bdcd" /><rect x="5" y="3" width="1" height="1" fill="#bdc5d2" /><rect x="5" y="4" width="1" height="1" fill="#b9bfcb" /><rect x="5" y="5" width="1" height="1" fill="#c1c5d0" /><rect x="5" y="6" width="1" height="1" fill="#bdc1ca" /><rect x="5" y="7" width="1" height="1" fill="#bcc0c9" /><rect x="5" y="8" width="1" height="1" fill="#c9ced4" /><rect x="5" y="9" width="1" height="1" fill="#bbbec5" /><rect x="6" y="0" width="1" height="1" fill="#dcdeed" /><rect x="6" y="1" width="1" height="1" fill="#dbdeed" /><rect x="6" y="2" width="1" height="1" fill="#d4dae8" /><rect x="6" y="3" width="1" height="1" fill="#dbe1ef" /><rect x="6" y="4" width="1" height="1" fill="#d9dfeb" /><rect x="6" y="5" width="1" height="1" fill="#dadeea" /><rect x="6" y="6" width="1" height="1" fill="#dee2ee" /><rect x="6" y="7" width="1" height="1" fill="#d5dbe7" /><rect x="6" y="8" width="1" height="1" fill="#dee4f2" /><rect x="6" y="9" width="1" height="1" fill="#dae0ee" /><rect x="7" y="0" width="1" height="1" fill="#b0b9b8" /><rect x="7" y="1" width="1" height="1" fill="#aeb7b6" /><rect x="7" y="2" width="1" height="1" fill="#aebaba" /><rect x="7" y="3" width="1" height="1" fill="#aebcbd" /><rect x="7" y="4" width="1" height="1" fill="#acbbbe" /><rect x="7" y="5" width="1" height="1" fill="#a9bbbf" /><rect x="7" y="6" width="1" height="1" fill="#a7b8bf" /><rect x="7" y="7" width="1" height="1" fill="#a8bbc2" /><rect x="7" y="8" width="1" height="1" fill="#a1b8c0" /><rect x="7" y="9" width="1" height="1" fill="#a7bfc9" /><rect x="8" y="0" width="1" height="1" fill="#96aa8e" /><rect x="8" y="1" width="1" height="1" fill="#94ab8f" /><rect x="8" y="2" width="1" height="1" fill="#91ad94" /><rect x="8" y="3" width="1" height="1" fill="#87a991" /><rect x="8" y="4" width="1" height="1" fill="#84ab98" /><rect x="8" y="5" width="1" height="1" fill="#86b1a0" /><rect x="8" y="6" width="1" height="1" fill="#7ca79d" /><rect x="8" y="7" width="1" height="1" fill="#7caba3" /><rect x="8" y="8" width="1" height="1" fill="#70a49f" /><rect x="8" y="9" width="1" height="1" fill="#75aca7" /><rect x="9" y="0" width="1" height="1" fill="#daf5ca" /><rect x="9" y="1" width="1" height="1" fill="#d4f3c9" /><rect x="9" y="2" width="1" height="1" fill="#cbefc9" /><rect x="9" y="3" width="1" height="1" fill="#bae3c1" /><rect x="9" y="4" width="1" height="1" fill="#bdeed0" /><rect x="9" y="5" width="1" height="1" fill="#b2e8ce" /><rect x="9" y="6" width="1" height="1" fill="#b9f2df" /><rect x="9" y="7" width="1" height="1" fill="#a5e2d3" /><rect x="9" y="8" width="1" height="1" fill="#9ce0d3" /><rect x="9" y="9" width="1" height="1" fill="#a9efe4" /></g></svg>