<svg width="800" height="1000" version="1.1" xmlns="http://www.w3.org/2000/svg" xmlns:xlink="http://www.w3.org/1999/xlink">
  <defs>
      <linearGradient id="Gradient2" x1="0" x2="1" y1="0" y2="1">
        <stop offset="0%" stop-color="#2d3c96"/>
        <stop offset="100%" stop-color="#d53392"/>
      </linearGradient>
  </defs>
  <rect x="10" y="10" width="780" height="980" fill="url(#Gradient2)" rx="50" ry="50" stroke="#ffd700" stroke-width="20"/>
  <text x="400" y="920" width="780" text-anchor="middle" style="font: bold 200px 'Helvetica Neue'; fill: #ffd700">01428</text>

  <g transform="translate(80 80) scale(64)">
<rect x="0" y="0" width="1" height="1" fill="#9ad7dc" />
,<rect x="0" y="1" width="1" height="1" fill="#94c2d1" />
,<rect x="0" y="2" width="1" height="1" fill="#96b0c7" />
,<rect x="0" y="3" width="1" height="1" fill="#4b5171" />
,<rect x="0" y="4" width="1" height="1" fill="#6c5d84" />
,<rect x="0" y="5" width="1" height="1" fill="#9192b0" />
,<rect x="0" y="6" width="1" height="1" fill="#73a4b2" />
,<rect x="0" y="7" width="1" height="1" fill="#86c7cd" />
,<rect x="0" y="8" width="1" height="1" fill="#8fbbc4" />
,<rect x="0" y="9" width="1" height="1" fill="#778a98" />
,<rect x="1" y="0" width="1" height="1" fill="#50808a" />
,<rect x="1" y="1" width="1" height="1" fill="#6e91a5" />
,<rect x="1" y="2" width="1" height="1" fill="#9cb1cc" />
,<rect x="1" y="3" width="1" height="1" fill="#5c5e84" />
,<rect x="1" y="4" width="1" height="1" fill="#5e4171" />
,<rect x="1" y="5" width="1" height="1" fill="#beafda" />
,<rect x="1" y="6" width="1" height="1" fill="#5c8096" />
,<rect x="1" y="7" width="1" height="1" fill="#97d1dc" />
,<rect x="1" y="8" width="1" height="1" fill="#8eb4c1" />
,<rect x="1" y="9" width="1" height="1" fill="#7e909e" />
,<rect x="2" y="0" width="1" height="1" fill="#d5ecfe" />
,<rect x="2" y="1" width="1" height="1" fill="#8599b4" />
,<rect x="2" y="2" width="1" height="1" fill="#839eb9" />
,<rect x="2" y="3" width="1" height="1" fill="#8492b7" />
,<rect x="2" y="4" width="1" height="1" fill="#6d598a" />
,<rect x="2" y="5" width="1" height="1" fill="#ab9bca" />
,<rect x="2" y="6" width="1" height="1" fill="#52708c" />
,<rect x="2" y="7" width="1" height="1" fill="#9bc4d6" />
,<rect x="2" y="8" width="1" height="1" fill="#99afc4" />
,<rect x="2" y="9" width="1" height="1" fill="#7d8a9a" />
,<rect x="3" y="0" width="1" height="1" fill="#5c7589" />
,<rect x="3" y="1" width="1" height="1" fill="#7388a5" />
,<rect x="3" y="2" width="1" height="1" fill="#9abfda" />
,<rect x="3" y="3" width="1" height="1" fill="#42587d" />
,<rect x="3" y="4" width="1" height="1" fill="#5d5181" />
,<rect x="3" y="5" width="1" height="1" fill="#5b527f" />
,<rect x="3" y="6" width="1" height="1" fill="#62819d" />
,<rect x="3" y="7" width="1" height="1" fill="#9cc9de" />
,<rect x="3" y="8" width="1" height="1" fill="#a8bfd1" />
,<rect x="3" y="9" width="1" height="1" fill="#6f7f8e" />
,<rect x="4" y="0" width="1" height="1" fill="#9dcedc" />
,<rect x="4" y="1" width="1" height="1" fill="#94c1d4" />
,<rect x="4" y="2" width="1" height="1" fill="#80aec5" />
,<rect x="4" y="3" width="1" height="1" fill="#496686" />
,<rect x="4" y="4" width="1" height="1" fill="#756f9d" />
,<rect x="4" y="5" width="1" height="1" fill="#4b4e77" />
,<rect x="4" y="6" width="1" height="1" fill="#7fb6ca" />
,<rect x="4" y="7" width="1" height="1" fill="#90d4dd" />
,<rect x="4" y="8" width="1" height="1" fill="#8ab6c1" />
,<rect x="4" y="9" width="1" height="1" fill="#7b939f" />
,<rect x="5" y="0" width="1" height="1" fill="#85cfd2" />
,<rect x="5" y="1" width="1" height="1" fill="#7fc2cb" />
,<rect x="5" y="2" width="1" height="1" fill="#95d0e0" />
,<rect x="5" y="3" width="1" height="1" fill="#59839b" />
,<rect x="5" y="4" width="1" height="1" fill="#7886a9" />
,<rect x="5" y="5" width="1" height="1" fill="#839cba" />
,<rect x="5" y="6" width="1" height="1" fill="#8bd5de" />
,<rect x="5" y="7" width="1" height="1" fill="#80d4d6" />
,<rect x="5" y="8" width="1" height="1" fill="#88bfc6" />
,<rect x="5" y="9" width="1" height="1" fill="#718d98" />
,<rect x="6" y="0" width="1" height="1" fill="#45a5a1" />
,<rect x="6" y="1" width="1" height="1" fill="#84dcdd" />
,<rect x="6" y="2" width="1" height="1" fill="#88d7dc" />
,<rect x="6" y="3" width="1" height="1" fill="#88c8d2" />
,<rect x="6" y="4" width="1" height="1" fill="#8cb7c8" />
,<rect x="6" y="5" width="1" height="1" fill="#a2d7e5" />
,<rect x="6" y="6" width="1" height="1" fill="#7dd7d5" />
,<rect x="6" y="7" width="1" height="1" fill="#72cdc8" />
,<rect x="6" y="8" width="1" height="1" fill="#95cace" />
,<rect x="6" y="9" width="1" height="1" fill="#77929d" />
,<rect x="7" y="0" width="1" height="1" fill="#42b0a7" />
,<rect x="7" y="1" width="1" height="1" fill="#0c716b" />
,<rect x="7" y="2" width="1" height="1" fill="#86d6d3" />
,<rect x="7" y="3" width="1" height="1" fill="#8dd1d4" />
,<rect x="7" y="4" width="1" height="1" fill="#91cbcf" />
,<rect x="7" y="5" width="1" height="1" fill="#95dbdb" />
,<rect x="7" y="6" width="1" height="1" fill="#76dccf" />
,<rect x="7" y="7" width="1" height="1" fill="#79dacf" />
,<rect x="7" y="8" width="1" height="1" fill="#8bc3c4" />
,<rect x="7" y="9" width="1" height="1" fill="#677f89" />
,<rect x="8" y="0" width="1" height="1" fill="#57cbc0" />
,<rect x="8" y="1" width="1" height="1" fill="#3a9e94" />
,<rect x="8" y="2" width="1" height="1" fill="#83c5c3" />
,<rect x="8" y="3" width="1" height="1" fill="#a1d4d5" />
,<rect x="8" y="4" width="1" height="1" fill="#97cfce" />
,<rect x="8" y="5" width="1" height="1" fill="#81cdc1" />
,<rect x="8" y="6" width="1" height="1" fill="#71dcc8" />
,<rect x="8" y="7" width="1" height="1" fill="#79decc" />
,<rect x="8" y="8" width="1" height="1" fill="#88c0bd" />
,<rect x="8" y="9" width="1" height="1" fill="#6b818c" />
,<rect x="9" y="0" width="1" height="1" fill="#3ea39d" />
,<rect x="9" y="1" width="1" height="1" fill="#52a7a0" />
,<rect x="9" y="2" width="1" height="1" fill="#a5d7d6" />
,<rect x="9" y="3" width="1" height="1" fill="#9bc3c2" />
,<rect x="9" y="4" width="1" height="1" fill="#9cd4cb" />
,<rect x="9" y="5" width="1" height="1" fill="#85d2c0" />
,<rect x="9" y="6" width="1" height="1" fill="#74dcc3" />
,<rect x="9" y="7" width="1" height="1" fill="#74d3bf" />
,<rect x="9" y="8" width="1" height="1" fill="#93c7c5" />
,<rect x="9" y="9" width="1" height="1" fill="#7f919d" />

  </g>
</svg>