<svg width="800" height="1000" version="1.1" xmlns="http://www.w3.org/2000/svg" xmlns:xlink="http://www.w3.org/1999/xlink">
  <defs>
      <linearGradient id="Gradient2" x1="0" x2="1" y1="0" y2="1">
        <stop offset="0%" stop-color="#2d3c96"/>
        <stop offset="100%" stop-color="#d53392"/>
      </linearGradient>
  </defs>
  <rect x="10" y="10" width="780" height="980" fill="url(#Gradient2)" rx="50" ry="50" stroke="#ffd700" stroke-width="20"/>
  <text x="400" y="920" width="780" text-anchor="middle" style="font: bold 200px 'Helvetica Neue'; fill: #ffd700">01427</text>

  <g transform="translate(80 80) scale(64)">
<rect x="0" y="0" width="1" height="1" fill="#BAB4CC" /><rect x="1" y="0" width="1" height="1" fill="#547183" /><rect x="2" y="0" width="1" height="1" fill="#5EB5BE" /><rect x="3" y="0" width="1" height="1" fill="#32959B" /><rect x="4" y="0" width="1" height="1" fill="#3C7E8A" /><rect x="5" y="0" width="1" height="1" fill="#598796" /><rect x="6" y="0" width="1" height="1" fill="#CDF5FF" /><rect x="7" y="0" width="1" height="1" fill="#96C1CA" /><rect x="8" y="0" width="1" height="1" fill="#64999F" /><rect x="9" y="0" width="1" height="1" fill="#89C3C7" /><rect x="0" y="1" width="1" height="1" fill="#D7CBE1" /><rect x="1" y="1" width="1" height="1" fill="#758698" /><rect x="2" y="1" width="1" height="1" fill="#256972" /><rect x="3" y="1" width="1" height="1" fill="#68B8BF" /><rect x="4" y="1" width="1" height="1" fill="#89BAC8" /><rect x="5" y="1" width="1" height="1" fill="#92B8C5" /><rect x="6" y="1" width="1" height="1" fill="#5A8991" /><rect x="7" y="1" width="1" height="1" fill="#33666A" /><rect x="8" y="1" width="1" height="1" fill="#8AC1C6" /><rect x="9" y="1" width="1" height="1" fill="#8FC1CA" /><rect x="0" y="2" width="1" height="1" fill="#D4C3D6" /><rect x="1" y="2" width="1" height="1" fill="#CACBDD" /><rect x="2" y="2" width="1" height="1" fill="#577B8B" /><rect x="3" y="2" width="1" height="1" fill="#A4CFDF" /><rect x="4" y="2" width="1" height="1" fill="#A9C3D4" /><rect x="5" y="2" width="1" height="1" fill="#9EB9CA" /><rect x="6" y="2" width="1" height="1" fill="#9ACACE" /><rect x="7" y="2" width="1" height="1" fill="#99D1D2" /><rect x="8" y="2" width="1" height="1" fill="#609198" /><rect x="9" y="2" width="1" height="1" fill="#6A91A0" /><rect x="0" y="3" width="1" height="1" fill="#CBC0CE" /><rect x="1" y="3" width="1" height="1" fill="#C3C2D0" /><rect x="2" y="3" width="1" height="1" fill="#677E8C" /><rect x="3" y="3" width="1" height="1" fill="#A6C3D3" /><rect x="4" y="3" width="1" height="1" fill="#B0C7D7" /><rect x="5" y="3" width="1" height="1" fill="#A9CAD3" /><rect x="6" y="3" width="1" height="1" fill="#9AD5D3" /><rect x="7" y="3" width="1" height="1" fill="#89C7C4" /><rect x="8" y="3" width="1" height="1" fill="#4F8085" /><rect x="9" y="3" width="1" height="1" fill="#708FA1" /><rect x="0" y="4" width="1" height="1" fill="#BEC7CC" /><rect x="1" y="4" width="1" height="1" fill="#C5D4D9" /><rect x="2" y="4" width="1" height="1" fill="#5A7B82" /><rect x="3" y="4" width="1" height="1" fill="#9CC7CE" /><rect x="4" y="4" width="1" height="1" fill="#A0CDD2" /><rect x="5" y="4" width="1" height="1" fill="#9BD3D2" /><rect x="6" y="4" width="1" height="1" fill="#8AD8CB" /><rect x="7" y="4" width="1" height="1" fill="#83CEC7" /><rect x="8" y="4" width="1" height="1" fill="#8CBFC3" /><rect x="9" y="4" width="1" height="1" fill="#5A7085" /><rect x="0" y="5" width="1" height="1" fill="#BFD1D3" /><rect x="1" y="5" width="1" height="1" fill="#B4CDCA" /><rect x="2" y="5" width="1" height="1" fill="#5E8887" /><rect x="3" y="5" width="1" height="1" fill="#9DD3D3" /><rect x="4" y="5" width="1" height="1" fill="#93D1D0" /><rect x="5" y="5" width="1" height="1" fill="#82CBC4" /><rect x="6" y="5" width="1" height="1" fill="#76CEC0" /><rect x="7" y="5" width="1" height="1" fill="#8FE2D8" /><rect x="8" y="5" width="1" height="1" fill="#90CDCE" /><rect x="9" y="5" width="1" height="1" fill="#6B8C9D" /><rect x="0" y="6" width="1" height="1" fill="#BECCCF" /><rect x="1" y="6" width="1" height="1" fill="#AFCCC8" /><rect x="2" y="6" width="1" height="1" fill="#50837E" /><rect x="3" y="6" width="1" height="1" fill="#8BC9C6" /><rect x="4" y="6" width="1" height="1" fill="#81C9C5" /><rect x="5" y="6" width="1" height="1" fill="#8ADBD4" /><rect x="6" y="6" width="1" height="1" fill="#7ED8CC" /><rect x="7" y="6" width="1" height="1" fill="#7CD6CA" /><rect x="8" y="6" width="1" height="1" fill="#80CFCA" /><rect x="9" y="6" width="1" height="1" fill="#8ECDD2" /><rect x="0" y="7" width="1" height="1" fill="#C1C4C9" /><rect x="1" y="7" width="1" height="1" fill="#C1D4D2" /><rect x="2" y="7" width="1" height="1" fill="#5D8785" /><rect x="3" y="7" width="1" height="1" fill="#9DD5D2" /><rect x="4" y="7" width="1" height="1" fill="#8BCBCA" /><rect x="5" y="7" width="1" height="1" fill="#8BD2CE" /><rect x="6" y="7" width="1" height="1" fill="#86D3CB" /><rect x="7" y="7" width="1" height="1" fill="#89D6CE" /><rect x="8" y="7" width="1" height="1" fill="#83C9C7" /><rect x="9" y="7" width="1" height="1" fill="#90D1D3" /><rect x="0" y="8" width="1" height="1" fill="#D6C9D3" /><rect x="1" y="8" width="1" height="1" fill="#C0BFC4" /><rect x="2" y="8" width="1" height="1" fill="#5E7678" /><rect x="3" y="8" width="1" height="1" fill="#8DB0B4" /><rect x="4" y="8" width="1" height="1" fill="#97BCC4" /><rect x="5" y="8" width="1" height="1" fill="#8BB3BB" /><rect x="6" y="8" width="1" height="1" fill="#8CB9BE" /><rect x="7" y="8" width="1" height="1" fill="#8BBBBF" /><rect x="8" y="8" width="1" height="1" fill="#90BBC2" /><rect x="9" y="8" width="1" height="1" fill="#9AC5CC" /><rect x="0" y="9" width="1" height="1" fill="#D7C3CF" /><rect x="1" y="9" width="1" height="1" fill="#CBC1C9" /><rect x="2" y="9" width="1" height="1" fill="#919AA1" /><rect x="3" y="9" width="1" height="1" fill="#7B8C96" /><rect x="4" y="9" width="1" height="1" fill="#8696A5" /><rect x="5" y="9" width="1" height="1" fill="#758696" /><rect x="6" y="9" width="1" height="1" fill="#748A97" /><rect x="7" y="9" width="1" height="1" fill="#78909C" /><rect x="8" y="9" width="1" height="1" fill="#7A8D9B" /><rect x="9" y="9" width="1" height="1" fill="#738694" />
  </g>
</svg>