<svg width="800" height="1000" xmlns="http://www.w3.org/2000/svg"><defs><linearGradient id="g" x1="0" x2="1" y1="0" y2="1"><stop offset="0%" stop-color="#2d3c96"/><stop offset="100%" stop-color="#d53392"/></linearGradient></defs><rect x="10" y="10" width="780" height="980" fill="url(#g)" rx="50" ry="50" stroke="gold" stroke-width="20"/><text x="400" y="920" width="780" text-anchor="middle" style="font:bold 200px 'Helvetica Neue';fill:gold">01426</text><g transform="translate(80 80) scale(64)"><rect x="0" y="0" width="1" height="1" fill="#c0ffa2" /><rect x="0" y="1" width="1" height="1" fill="#b9ffa7" /><rect x="0" y="2" width="1" height="1" fill="#b6faad" /><rect x="0" y="3" width="1" height="1" fill="#b5fab7" /><rect x="0" y="4" width="1" height="1" fill="#abf6bd" /><rect x="0" y="5" width="1" height="1" fill="#9ff7c4" /><rect x="0" y="6" width="1" height="1" fill="#8bfbc9" /><rect x="0" y="7" width="1" height="1" fill="#7afecd" /><rect x="0" y="8" width="1" height="1" fill="#6efdcf" /><rect x="0" y="9" width="1" height="1" fill="#68fbd1" /><rect x="1" y="0" width="1" height="1" fill="#cdf6b4" /><rect x="1" y="1" width="1" height="1" fill="#c8f5ba" /><rect x="1" y="2" width="1" height="1" fill="#c4f3bf" /><rect x="1" y="3" width="1" height="1" fill="#bff3c5" /><rect x="1" y="4" width="1" height="1" fill="#b2eac5" /><rect x="1" y="5" width="1" height="1" fill="#a7eac9" /><rect x="1" y="6" width="1" height="1" fill="#99eecf" /><rect x="1" y="7" width="1" height="1" fill="#8fefd3" /><rect x="1" y="8" width="1" height="1" fill="#84f0d6" /><rect x="1" y="9" width="1" height="1" fill="#82eed7" /><rect x="2" y="0" width="1" height="1" fill="#877c78" /><rect x="2" y="1" width="1" height="1" fill="#847c7a" /><rect x="2" y="2" width="1" height="1" fill="#7d7d7d" /><rect x="2" y="3" width="1" height="1" fill="#758181" /><rect x="2" y="4" width="1" height="1" fill="#718387" /><rect x="2" y="5" width="1" height="1" fill="#6c838b" /><rect x="2" y="6" width="1" height="1" fill="#68838c" /><rect x="2" y="7" width="1" height="1" fill="#66828e" /><rect x="2" y="8" width="1" height="1" fill="#668393" /><rect x="2" y="9" width="1" height="1" fill="#668194" /><rect x="3" y="0" width="1" height="1" fill="#d7b9d1" /><rect x="3" y="1" width="1" height="1" fill="#d4bad3" /><rect x="3" y="2" width="1" height="1" fill="#cdbed3" /><rect x="3" y="3" width="1" height="1" fill="#c8c0d5" /><rect x="3" y="4" width="1" height="1" fill="#c6c4d9" /><rect x="3" y="5" width="1" height="1" fill="#c4c5d9" /><rect x="3" y="6" width="1" height="1" fill="#c3c4d9" /><rect x="3" y="7" width="1" height="1" fill="#c7c3da" /><rect x="3" y="8" width="1" height="1" fill="#cac4de" /><rect x="3" y="9" width="1" height="1" fill="#ccc3de" /><rect x="4" y="0" width="1" height="1" fill="#cfc2d4" /><rect x="4" y="1" width="1" height="1" fill="#cfc2d4" /><rect x="4" y="2" width="1" height="1" fill="#ccc4d3" /><rect x="4" y="3" width="1" height="1" fill="#c9c5d3" /><rect x="4" y="4" width="1" height="1" fill="#c7c5d0" /><rect x="4" y="5" width="1" height="1" fill="#c6c6d0" /><rect x="4" y="6" width="1" height="1" fill="#c5c5cd" /><rect x="4" y="7" width="1" height="1" fill="#c6c6ce" /><rect x="4" y="8" width="1" height="1" fill="#c7c7cf" /><rect x="4" y="9" width="1" height="1" fill="#c5c8cf" /><rect x="5" y="0" width="1" height="1" fill="#9797a3" /><rect x="5" y="1" width="1" height="1" fill="#9896a1" /><rect x="5" y="2" width="1" height="1" fill="#99969f" /><rect x="5" y="3" width="1" height="1" fill="#9b969d" /><rect x="5" y="4" width="1" height="1" fill="#9a979e" /><rect x="5" y="5" width="1" height="1" fill="#99999b" /><rect x="5" y="6" width="1" height="1" fill="#99979a" /><rect x="5" y="7" width="1" height="1" fill="#99979a" /><rect x="5" y="8" width="1" height="1" fill="#999999" /><rect x="5" y="9" width="1" height="1" fill="#969a99" /><rect x="6" y="0" width="1" height="1" fill="#b5bfc1" /><rect x="6" y="1" width="1" height="1" fill="#b8bdc1" /><rect x="6" y="2" width="1" height="1" fill="#bdbbc0" /><rect x="6" y="3" width="1" height="1" fill="#c0b9c0" /><rect x="6" y="4" width="1" height="1" fill="#c0b9c0" /><rect x="6" y="5" width="1" height="1" fill="#c1b7bf" /><rect x="6" y="6" width="1" height="1" fill="#c0b7bc" /><rect x="6" y="7" width="1" height="1" fill="#c0b7bc" /><rect x="6" y="8" width="1" height="1" fill="#c0b9c0" /><rect x="6" y="9" width="1" height="1" fill="#bcbabf" /><rect x="7" y="0" width="1" height="1" fill="#dbe0e4" /><rect x="7" y="1" width="1" height="1" fill="#dedfe4" /><rect x="7" y="2" width="1" height="1" fill="#e1dce3" /><rect x="7" y="3" width="1" height="1" fill="#e2dbe3" /><rect x="7" y="4" width="1" height="1" fill="#e0dfe5" /><rect x="7" y="5" width="1" height="1" fill="#e1dee5" /><rect x="7" y="6" width="1" height="1" fill="#e3dbe6" /><rect x="7" y="7" width="1" height="1" fill="#e7dbe7" /><rect x="7" y="8" width="1" height="1" fill="#eadce9" /><rect x="7" y="9" width="1" height="1" fill="#e7dcea" /><rect x="8" y="0" width="1" height="1" fill="#d6c7da" /><rect x="8" y="1" width="1" height="1" fill="#dbcadd" /><rect x="8" y="2" width="1" height="1" fill="#dbcedf" /><rect x="8" y="3" width="1" height="1" fill="#cdc7d5" /><rect x="8" y="4" width="1" height="1" fill="#cad3dc" /><rect x="8" y="5" width="1" height="1" fill="#ccd6df" /><rect x="8" y="6" width="1" height="1" fill="#d0cfdd" /><rect x="8" y="7" width="1" height="1" fill="#dbcfe3" /><rect x="8" y="8" width="1" height="1" fill="#e4d0e9" /><rect x="8" y="9" width="1" height="1" fill="#e4cde7" /><rect x="9" y="0" width="1" height="1" fill="#907e96" /><rect x="9" y="1" width="1" height="1" fill="#937c96" /><rect x="9" y="2" width="1" height="1" fill="#86748a" /><rect x="9" y="3" width="1" height="1" fill="#968f9f" /><rect x="9" y="4" width="1" height="1" fill="#77848c" /><rect x="9" y="5" width="1" height="1" fill="#7a8b93" /><rect x="9" y="6" width="1" height="1" fill="#7b838e" /><rect x="9" y="7" width="1" height="1" fill="#827e8d" /><rect x="9" y="8" width="1" height="1" fill="#937b93" /><rect x="9" y="9" width="1" height="1" fill="#897189" /></g></svg>