<svg width="800" height="1000" version="1.1" xmlns="http://www.w3.org/2000/svg" xmlns:xlink="http://www.w3.org/1999/xlink">
  <defs>
      <linearGradient id="Gradient2" x1="0" x2="1" y1="0" y2="1">
        <stop offset="0%" stop-color="#2d3c96"/>
        <stop offset="100%" stop-color="#d53392"/>
      </linearGradient>
  </defs>
  <rect x="10" y="10" width="780" height="980" fill="url(#Gradient2)" rx="50" ry="50" stroke="#ffd700" stroke-width="20"/>
  <text x="400" y="920" width="780" text-anchor="middle" style="font: bold 200px 'Helvetica Neue'; fill: #ffd700">01420</text>

  <g transform="translate(80 80) scale(64)">
<rect x="0" y="0" width="1" height="1" fill="#000000" />
,<rect x="0" y="1" width="1" height="1" fill="#777777" />
,<rect x="0" y="2" width="1" height="1" fill="#686868" />
,<rect x="0" y="3" width="1" height="1" fill="#1d1d1d" />
,<rect x="0" y="4" width="1" height="1" fill="#000000" />
,<rect x="0" y="5" width="1" height="1" fill="#000000" />
,<rect x="0" y="6" width="1" height="1" fill="#000000" />
,<rect x="0" y="7" width="1" height="1" fill="#040103" />
,<rect x="0" y="8" width="1" height="1" fill="#060000" />
,<rect x="0" y="9" width="1" height="1" fill="#12733c" />
,<rect x="1" y="0" width="1" height="1" fill="#090000" />
,<rect x="1" y="1" width="1" height="1" fill="#333333" />
,<rect x="1" y="2" width="1" height="1" fill="#040404" />
,<rect x="1" y="3" width="1" height="1" fill="#000000" />
,<rect x="1" y="4" width="1" height="1" fill="#111111" />
,<rect x="1" y="5" width="1" height="1" fill="#050505" />
,<rect x="1" y="6" width="1" height="1" fill="#000000" />
,<rect x="1" y="7" width="1" height="1" fill="#020001" />
,<rect x="1" y="8" width="1" height="1" fill="#050000" />
,<rect x="1" y="9" width="1" height="1" fill="#12733c" />
,<rect x="2" y="0" width="1" height="1" fill="#000000" />
,<rect x="2" y="1" width="1" height="1" fill="#000000" />
,<rect x="2" y="2" width="1" height="1" fill="#7b7b7b" />
,<rect x="2" y="3" width="1" height="1" fill="#fcfcfc" />
,<rect x="2" y="4" width="1" height="1" fill="#ffffff" />
,<rect x="2" y="5" width="1" height="1" fill="#fafafa" />
,<rect x="2" y="6" width="1" height="1" fill="#808080" />
,<rect x="2" y="7" width="1" height="1" fill="#000000" />
,<rect x="2" y="8" width="1" height="1" fill="#000000" />
,<rect x="2" y="9" width="1" height="1" fill="#12733c" />
,<rect x="3" y="0" width="1" height="1" fill="#000000" />
,<rect x="3" y="1" width="1" height="1" fill="#5f5f5f" />
,<rect x="3" y="2" width="1" height="1" fill="#cecece" />
,<rect x="3" y="3" width="1" height="1" fill="#666666" />
,<rect x="3" y="4" width="1" height="1" fill="#434343" />
,<rect x="3" y="5" width="1" height="1" fill="#666666" />
,<rect x="3" y="6" width="1" height="1" fill="#d1d1d1" />
,<rect x="3" y="7" width="1" height="1" fill="#615f60" />
,<rect x="3" y="8" width="1" height="1" fill="#000000" />
,<rect x="3" y="9" width="1" height="1" fill="#12733c" />
,<rect x="4" y="0" width="1" height="1" fill="#0b0003" />
,<rect x="4" y="1" width="1" height="1" fill="#6a6a6a" />
,<rect x="4" y="2" width="1" height="1" fill="#121212" />
,<rect x="4" y="3" width="1" height="1" fill="#000000" />
,<rect x="4" y="4" width="1" height="1" fill="#000000" />
,<rect x="4" y="5" width="1" height="1" fill="#000000" />
,<rect x="4" y="6" width="1" height="1" fill="#0e0e0e" />
,<rect x="4" y="7" width="1" height="1" fill="#666365" />
,<rect x="4" y="8" width="1" height="1" fill="#0e0008" />
,<rect x="4" y="9" width="1" height="1" fill="#12733c" />
,<rect x="5" y="0" width="1" height="1" fill="#1b0712" />
,<rect x="5" y="1" width="1" height="1" fill="#545454" />
,<rect x="5" y="2" width="1" height="1" fill="#000000" />
,<rect x="5" y="3" width="1" height="1" fill="#000000" />
,<rect x="5" y="4" width="1" height="1" fill="#000000" />
,<rect x="5" y="5" width="1" height="1" fill="#000000" />
,<rect x="5" y="6" width="1" height="1" fill="#000000" />
,<rect x="5" y="7" width="1" height="1" fill="#504e4f" />
,<rect x="5" y="8" width="1" height="1" fill="#1b0d15" />
,<rect x="5" y="9" width="1" height="1" fill="#12733c" />
,<rect x="6" y="0" width="1" height="1" fill="#000000" />
,<rect x="6" y="1" width="1" height="1" fill="#898989" />
,<rect x="6" y="2" width="1" height="1" fill="#8d8d8d" />
,<rect x="6" y="3" width="1" height="1" fill="#000000" />
,<rect x="6" y="4" width="1" height="1" fill="#000000" />
,<rect x="6" y="5" width="1" height="1" fill="#000000" />
,<rect x="6" y="6" width="1" height="1" fill="#8a8a8a" />
,<rect x="6" y="7" width="1" height="1" fill="#7d7b7c" />
,<rect x="6" y="8" width="1" height="1" fill="#000000" />
,<rect x="6" y="9" width="1" height="1" fill="#12733c" />
,<rect x="7" y="0" width="1" height="1" fill="#000000" />
,<rect x="7" y="1" width="1" height="1" fill="#151515" />
,<rect x="7" y="2" width="1" height="1" fill="#d1d1d1" />
,<rect x="7" y="3" width="1" height="1" fill="#fcfcfc" />
,<rect x="7" y="4" width="1" height="1" fill="#eeeeee" />
,<rect x="7" y="5" width="1" height="1" fill="#f9f9f9" />
,<rect x="7" y="6" width="1" height="1" fill="#cccccc" />
,<rect x="7" y="7" width="1" height="1" fill="#181617" />
,<rect x="7" y="8" width="1" height="1" fill="#000000" />
,<rect x="7" y="9" width="1" height="1" fill="#12733c" />
,<rect x="8" y="0" width="1" height="1" fill="#060000" />
,<rect x="8" y="1" width="1" height="1" fill="#050505" />
,<rect x="8" y="2" width="1" height="1" fill="#000000" />
,<rect x="8" y="3" width="1" height="1" fill="#373737" />
,<rect x="8" y="4" width="1" height="1" fill="#676767" />
,<rect x="8" y="5" width="1" height="1" fill="#363636" />
,<rect x="8" y="6" width="1" height="1" fill="#000000" />
,<rect x="8" y="7" width="1" height="1" fill="#000000" />
,<rect x="8" y="8" width="1" height="1" fill="#060000" />
,<rect x="8" y="9" width="1" height="1" fill="#12733c" />
,<rect x="9" y="0" width="1" height="1" fill="#000000" />
,<rect x="9" y="1" width="1" height="1" fill="#707070" />
,<rect x="9" y="2" width="1" height="1" fill="#6a6a6a" />
,<rect x="9" y="3" width="1" height="1" fill="#3b3b3b" />
,<rect x="9" y="4" width="1" height="1" fill="#373737" />
,<rect x="9" y="5" width="1" height="1" fill="#454545" />
,<rect x="9" y="6" width="1" height="1" fill="#212121" />
,<rect x="9" y="7" width="1" height="1" fill="#000000" />
,<rect x="9" y="8" width="1" height="1" fill="#050000" />
,<rect x="9" y="9" width="1" height="1" fill="#12733c" />

  </g>
</svg>