<svg width="800" height="1000" version="1.1" xmlns="http://www.w3.org/2000/svg" xmlns:xlink="http://www.w3.org/1999/xlink">
  <defs>
      <linearGradient id="Gradient2" x1="0" x2="1" y1="0" y2="1">
        <stop offset="0%" stop-color="#2d3c96"/>
        <stop offset="100%" stop-color="#d53392"/>
      </linearGradient>
  </defs>
  <rect x="10" y="10" width="780" height="980" fill="url(#Gradient2)" rx="50" ry="50" stroke="#ffd700" stroke-width="20"/>
  <text x="400" y="920" width="780" text-anchor="middle" style="font: bold 200px 'Helvetica Neue'; fill: #ffd700">01423</text>

  <g transform="translate(80 80) scale(64)">
<rect x="0" y="0" width="1" height="1" fill="#050000" /><rect x="1" y="0" width="1" height="1" fill="#040000" /><rect x="2" y="0" width="1" height="1" fill="#030000" /><rect x="3" y="0" width="1" height="1" fill="#040000" /><rect x="4" y="0" width="1" height="1" fill="#040000" /><rect x="5" y="0" width="1" height="1" fill="#000000" /><rect x="6" y="0" width="1" height="1" fill="#000000" /><rect x="7" y="0" width="1" height="1" fill="#040000" /><rect x="8" y="0" width="1" height="1" fill="#040000" /><rect x="9" y="0" width="1" height="1" fill="#030000" /><rect x="0" y="1" width="1" height="1" fill="#020202" /><rect x="1" y="1" width="1" height="1" fill="#646363" /><rect x="2" y="1" width="1" height="1" fill="#575756" /><rect x="3" y="1" width="1" height="1" fill="#020201" /><rect x="4" y="1" width="1" height="1" fill="#000000" /><rect x="5" y="1" width="1" height="1" fill="#686868" /><rect x="6" y="1" width="1" height="1" fill="#4E4E4E" /><rect x="7" y="1" width="1" height="1" fill="#000000" /><rect x="8" y="1" width="1" height="1" fill="#020202" /><rect x="9" y="1" width="1" height="1" fill="#676766" /><rect x="0" y="2" width="1" height="1" fill="#000000" /><rect x="1" y="2" width="1" height="1" fill="#666666" /><rect x="2" y="2" width="1" height="1" fill="#353535" /><rect x="3" y="2" width="1" height="1" fill="#000000" /><rect x="4" y="2" width="1" height="1" fill="#000000" /><rect x="5" y="2" width="1" height="1" fill="#F2F2F2" /><rect x="6" y="2" width="1" height="1" fill="#C8C8C8" /><rect x="7" y="2" width="1" height="1" fill="#000000" /><rect x="8" y="2" width="1" height="1" fill="#000000" /><rect x="9" y="2" width="1" height="1" fill="#202020" /><rect x="0" y="3" width="1" height="1" fill="#000000" /><rect x="1" y="3" width="1" height="1" fill="#575757" /><rect x="2" y="3" width="1" height="1" fill="#000000" /><rect x="3" y="3" width="1" height="1" fill="#000000" /><rect x="4" y="3" width="1" height="1" fill="#2C2C2C" /><rect x="5" y="3" width="1" height="1" fill="#717171" /><rect x="6" y="3" width="1" height="1" fill="#C9C9C9" /><rect x="7" y="3" width="1" height="1" fill="#1C1C1C" /><rect x="8" y="3" width="1" height="1" fill="#000000" /><rect x="9" y="3" width="1" height="1" fill="#000000" /><rect x="0" y="4" width="1" height="1" fill="#0E0E0E" /><rect x="1" y="4" width="1" height="1" fill="#404040" /><rect x="2" y="4" width="1" height="1" fill="#000000" /><rect x="3" y="4" width="1" height="1" fill="#000000" /><rect x="4" y="4" width="1" height="1" fill="#848484" /><rect x="5" y="4" width="1" height="1" fill="#333333" /><rect x="6" y="4" width="1" height="1" fill="#D9D9D9" /><rect x="7" y="4" width="1" height="1" fill="#8C8C8C" /><rect x="8" y="4" width="1" height="1" fill="#000000" /><rect x="9" y="4" width="1" height="1" fill="#020202" /><rect x="0" y="5" width="1" height="1" fill="#5E5E5E" /><rect x="1" y="5" width="1" height="1" fill="#141414" /><rect x="2" y="5" width="1" height="1" fill="#000000" /><rect x="3" y="5" width="1" height="1" fill="#232323" /><rect x="4" y="5" width="1" height="1" fill="#888888" /><rect x="5" y="5" width="1" height="1" fill="#424242" /><rect x="6" y="5" width="1" height="1" fill="#8F8F8F" /><rect x="7" y="5" width="1" height="1" fill="#E4E4E4" /><rect x="8" y="5" width="1" height="1" fill="#000000" /><rect x="9" y="5" width="1" height="1" fill="#010101" /><rect x="0" y="6" width="1" height="1" fill="#B5B5B5" /><rect x="1" y="6" width="1" height="1" fill="#000000" /><rect x="2" y="6" width="1" height="1" fill="#000000" /><rect x="3" y="6" width="1" height="1" fill="#707070" /><rect x="4" y="6" width="1" height="1" fill="#3F3F3F" /><rect x="5" y="6" width="1" height="1" fill="#000000" /><rect x="6" y="6" width="1" height="1" fill="#000000" /><rect x="7" y="6" width="1" height="1" fill="#FFFFFF" /><rect x="8" y="6" width="1" height="1" fill="#797979" /><rect x="9" y="6" width="1" height="1" fill="#000000" /><rect x="0" y="7" width="1" height="1" fill="#4C4A4B" /><rect x="1" y="7" width="1" height="1" fill="#010000" /><rect x="2" y="7" width="1" height="1" fill="#171416" /><rect x="3" y="7" width="1" height="1" fill="#716E70" /><rect x="4" y="7" width="1" height="1" fill="#2F2D2E" /><rect x="5" y="7" width="1" height="1" fill="#020001" /><rect x="6" y="7" width="1" height="1" fill="#080507" /><rect x="7" y="7" width="1" height="1" fill="#979496" /><rect x="8" y="7" width="1" height="1" fill="#959294" /><rect x="9" y="7" width="1" height="1" fill="#040103" /><rect x="0" y="8" width="1" height="1" fill="#000000" /><rect x="1" y="8" width="1" height="1" fill="#060000" /><rect x="2" y="8" width="1" height="1" fill="#090003" /><rect x="3" y="8" width="1" height="1" fill="#010000" /><rect x="4" y="8" width="1" height="1" fill="#040000" /><rect x="5" y="8" width="1" height="1" fill="#060000" /><rect x="6" y="8" width="1" height="1" fill="#090002" /><rect x="7" y="8" width="1" height="1" fill="#000000" /><rect x="8" y="8" width="1" height="1" fill="#000000" /><rect x="9" y="8" width="1" height="1" fill="#060000" /><rect x="0" y="9" width="1" height="1" fill="#12733C" /><rect x="1" y="9" width="1" height="1" fill="#12733C" /><rect x="2" y="9" width="1" height="1" fill="#12733C" /><rect x="3" y="9" width="1" height="1" fill="#12733C" /><rect x="4" y="9" width="1" height="1" fill="#12733C" /><rect x="5" y="9" width="1" height="1" fill="#12733C" /><rect x="6" y="9" width="1" height="1" fill="#12733C" /><rect x="7" y="9" width="1" height="1" fill="#12733C" /><rect x="8" y="9" width="1" height="1" fill="#12733C" /><rect x="9" y="9" width="1" height="1" fill="#12733C" />
  </g>
</svg>