<svg width="800" height="1000" version="1.1" xmlns="http://www.w3.org/2000/svg" xmlns:xlink="http://www.w3.org/1999/xlink">
  <defs>
      <linearGradient id="Gradient2" x1="0" x2="1" y1="0" y2="1">
        <stop offset="0%" stop-color="#2d3c96"/>
        <stop offset="100%" stop-color="#d53392"/>
      </linearGradient>
  </defs>
  <rect x="10" y="10" width="780" height="980" fill="url(#Gradient2)" rx="50" ry="50" stroke="#ffd700" stroke-width="20"/>
  <text x="400" y="920" width="780" text-anchor="middle" style="font: bold 200px 'Helvetica Neue'; fill: #ffd700">01429</text>

  <g transform="translate(80 80) scale(64)">
<rect x="0" y="0" width="1" height="1" fill="#2D5E65" /><rect x="1" y="0" width="1" height="1" fill="#B9DDE9" /><rect x="2" y="0" width="1" height="1" fill="#E4EBFF" /><rect x="3" y="0" width="1" height="1" fill="#8C89A6" /><rect x="4" y="0" width="1" height="1" fill="#76788F" /><rect x="5" y="0" width="1" height="1" fill="#BBC0D3" /><rect x="6" y="0" width="1" height="1" fill="#DCDEED" /><rect x="7" y="0" width="1" height="1" fill="#B0B9B8" /><rect x="8" y="0" width="1" height="1" fill="#96AA8E" /><rect x="9" y="0" width="1" height="1" fill="#DAF5CA" /><rect x="0" y="1" width="1" height="1" fill="#92BDC3" /><rect x="1" y="1" width="1" height="1" fill="#7896A1" /><rect x="2" y="1" width="1" height="1" fill="#464C64" /><rect x="3" y="1" width="1" height="1" fill="#75728D" /><rect x="4" y="1" width="1" height="1" fill="#76788D" /><rect x="5" y="1" width="1" height="1" fill="#C0C6D6" /><rect x="6" y="1" width="1" height="1" fill="#DBDEED" /><rect x="7" y="1" width="1" height="1" fill="#AEB7B6" /><rect x="8" y="1" width="1" height="1" fill="#94AB8F" /><rect x="9" y="1" width="1" height="1" fill="#D4F3C9" /><rect x="0" y="2" width="1" height="1" fill="#9DBAC0" /><rect x="1" y="2" width="1" height="1" fill="#AABEC9" /><rect x="2" y="2" width="1" height="1" fill="#70758B" /><rect x="3" y="2" width="1" height="1" fill="#BCBAD2" /><rect x="4" y="2" width="1" height="1" fill="#7E8397" /><rect x="5" y="2" width="1" height="1" fill="#B6BDCD" /><rect x="6" y="2" width="1" height="1" fill="#D4DAE8" /><rect x="7" y="2" width="1" height="1" fill="#AEBABA" /><rect x="8" y="2" width="1" height="1" fill="#91AD94" /><rect x="9" y="2" width="1" height="1" fill="#CBEFC9" /><rect x="0" y="3" width="1" height="1" fill="#B3D2D4" /><rect x="1" y="3" width="1" height="1" fill="#B0C7CD" /><rect x="2" y="3" width="1" height="1" fill="#71788A" /><rect x="3" y="3" width="1" height="1" fill="#BEBFD4" /><rect x="4" y="3" width="1" height="1" fill="#858A9D" /><rect x="5" y="3" width="1" height="1" fill="#BDC5D2" /><rect x="6" y="3" width="1" height="1" fill="#DBE1EF" /><rect x="7" y="3" width="1" height="1" fill="#AEBCBD" /><rect x="8" y="3" width="1" height="1" fill="#87A991" /><rect x="9" y="3" width="1" height="1" fill="#BAE3C1" /><rect x="0" y="4" width="1" height="1" fill="#96C8BF" /><rect x="1" y="4" width="1" height="1" fill="#A5CCC9" /><rect x="2" y="4" width="1" height="1" fill="#6E7E8B" /><rect x="3" y="4" width="1" height="1" fill="#AFB4C7" /><rect x="4" y="4" width="1" height="1" fill="#858B99" /><rect x="5" y="4" width="1" height="1" fill="#B9BFCB" /><rect x="6" y="4" width="1" height="1" fill="#D9DFEB" /><rect x="7" y="4" width="1" height="1" fill="#ACBBBE" /><rect x="8" y="4" width="1" height="1" fill="#84AB98" /><rect x="9" y="4" width="1" height="1" fill="#BDEED0" /><rect x="0" y="5" width="1" height="1" fill="#98D6C7" /><rect x="1" y="5" width="1" height="1" fill="#98C9C3" /><rect x="2" y="5" width="1" height="1" fill="#72868F" /><rect x="3" y="5" width="1" height="1" fill="#C4CADA" /><rect x="4" y="5" width="1" height="1" fill="#818793" /><rect x="5" y="5" width="1" height="1" fill="#C1C5D0" /><rect x="6" y="5" width="1" height="1" fill="#DADEEA" /><rect x="7" y="5" width="1" height="1" fill="#A9BBBF" /><rect x="8" y="5" width="1" height="1" fill="#86B1A0" /><rect x="9" y="5" width="1" height="1" fill="#B2E8CE" /><rect x="0" y="6" width="1" height="1" fill="#98DCCD" /><rect x="1" y="6" width="1" height="1" fill="#92C7BF" /><rect x="2" y="6" width="1" height="1" fill="#5A7179" /><rect x="3" y="6" width="1" height="1" fill="#BDC5D2" /><rect x="4" y="6" width="1" height="1" fill="#7C808B" /><rect x="5" y="6" width="1" height="1" fill="#BDC1CA" /><rect x="6" y="6" width="1" height="1" fill="#DEE2EE" /><rect x="7" y="6" width="1" height="1" fill="#A7B8BF" /><rect x="8" y="6" width="1" height="1" fill="#7CA79D" /><rect x="9" y="6" width="1" height="1" fill="#B9F2DF" /><rect x="0" y="7" width="1" height="1" fill="#93CCC3" /><rect x="1" y="7" width="1" height="1" fill="#9ECBC8" /><rect x="2" y="7" width="1" height="1" fill="#7B8D97" /><rect x="3" y="7" width="1" height="1" fill="#B6BCCA" /><rect x="4" y="7" width="1" height="1" fill="#8A8E97" /><rect x="5" y="7" width="1" height="1" fill="#BCC0C9" /><rect x="6" y="7" width="1" height="1" fill="#D5DBE7" /><rect x="7" y="7" width="1" height="1" fill="#A8BBC2" /><rect x="8" y="7" width="1" height="1" fill="#7CABA3" /><rect x="9" y="7" width="1" height="1" fill="#A5E2D3" /><rect x="0" y="8" width="1" height="1" fill="#9CBBBE" /><rect x="1" y="8" width="1" height="1" fill="#A5BCC2" /><rect x="2" y="8" width="1" height="1" fill="#6F7985" /><rect x="3" y="8" width="1" height="1" fill="#B4B6C3" /><rect x="4" y="8" width="1" height="1" fill="#81848B" /><rect x="5" y="8" width="1" height="1" fill="#C9CED4" /><rect x="6" y="8" width="1" height="1" fill="#DEE4F2" /><rect x="7" y="8" width="1" height="1" fill="#A1B8C0" /><rect x="8" y="8" width="1" height="1" fill="#70A49F" /><rect x="9" y="8" width="1" height="1" fill="#9CE0D3" /><rect x="0" y="9" width="1" height="1" fill="#74858F" /><rect x="1" y="9" width="1" height="1" fill="#76828E" /><rect x="2" y="9" width="1" height="1" fill="#A2A5B4" /><rect x="3" y="9" width="1" height="1" fill="#BCBBC9" /><rect x="4" y="9" width="1" height="1" fill="#8B8B93" /><rect x="5" y="9" width="1" height="1" fill="#BBBEC5" /><rect x="6" y="9" width="1" height="1" fill="#DAE0EE" /><rect x="7" y="9" width="1" height="1" fill="#A7BFC9" /><rect x="8" y="9" width="1" height="1" fill="#75ACA7" /><rect x="9" y="9" width="1" height="1" fill="#A9EFE4" />
  </g>
</svg>