<svg width="800" height="1000" version="1.1" xmlns="http://www.w3.org/2000/svg" xmlns:xlink="http://www.w3.org/1999/xlink">
  <defs>
      <linearGradient id="Gradient2" x1="0" x2="1" y1="0" y2="1">
        <stop offset="0%" stop-color="#2d3c96"/>
        <stop offset="100%" stop-color="#d53392"/>
      </linearGradient>
  </defs>
  <rect x="10" y="10" width="780" height="980" fill="url(#Gradient2)" rx="50" ry="50" stroke="#ffd700" stroke-width="20"/>
  <text x="400" y="920" width="780" text-anchor="middle" style="font: bold 200px 'Helvetica Neue'; fill: #ffd700">01427</text>

  <g transform="translate(80 80) scale(64)">
<rect x="0" y="0" width="1" height="1" fill="#B5B9D2" /><rect x="1" y="0" width="1" height="1" fill="#666A8D" /><rect x="2" y="0" width="1" height="1" fill="#54597F" /><rect x="3" y="0" width="1" height="1" fill="#2D3355" /><rect x="4" y="0" width="1" height="1" fill="#1A213B" /><rect x="5" y="0" width="1" height="1" fill="#08142C" /><rect x="6" y="0" width="1" height="1" fill="#1B3254" /><rect x="7" y="0" width="1" height="1" fill="#244065" /><rect x="8" y="0" width="1" height="1" fill="#2F496E" /><rect x="9" y="0" width="1" height="1" fill="#304972" /><rect x="0" y="1" width="1" height="1" fill="#6B728F" /><rect x="1" y="1" width="1" height="1" fill="#49527B" /><rect x="2" y="1" width="1" height="1" fill="#4E5A82" /><rect x="3" y="1" width="1" height="1" fill="#353D61" /><rect x="4" y="1" width="1" height="1" fill="#202239" /><rect x="5" y="1" width="1" height="1" fill="#151C2F" /><rect x="6" y="1" width="1" height="1" fill="#0D1D37" /><rect x="7" y="1" width="1" height="1" fill="#1D3050" /><rect x="8" y="1" width="1" height="1" fill="#566989" /><rect x="9" y="1" width="1" height="1" fill="#2F4368" /><rect x="0" y="2" width="1" height="1" fill="#8191B5" /><rect x="1" y="2" width="1" height="1" fill="#364876" /><rect x="2" y="2" width="1" height="1" fill="#405685" /><rect x="3" y="2" width="1" height="1" fill="#2E4068" /><rect x="4" y="2" width="1" height="1" fill="#21273D" /><rect x="5" y="2" width="1" height="1" fill="#141726" /><rect x="6" y="2" width="1" height="1" fill="#12172A" /><rect x="7" y="2" width="1" height="1" fill="#2C3248" /><rect x="8" y="2" width="1" height="1" fill="#414862" /><rect x="9" y="2" width="1" height="1" fill="#3A4563" /><rect x="0" y="3" width="1" height="1" fill="#C3D2EF" /><rect x="1" y="3" width="1" height="1" fill="#3D537C" /><rect x="2" y="3" width="1" height="1" fill="#516D9C" /><rect x="3" y="3" width="1" height="1" fill="#3B547D" /><rect x="4" y="3" width="1" height="1" fill="#1A243F" /><rect x="5" y="3" width="1" height="1" fill="#181E2E" /><rect x="6" y="3" width="1" height="1" fill="#171B27" /><rect x="7" y="3" width="1" height="1" fill="#232937" /><rect x="8" y="3" width="1" height="1" fill="#3D435B" /><rect x="9" y="3" width="1" height="1" fill="#2E3853" /><rect x="0" y="4" width="1" height="1" fill="#E9ECFB" /><rect x="1" y="4" width="1" height="1" fill="#8E9CB6" /><rect x="2" y="4" width="1" height="1" fill="#3B557A" /><rect x="3" y="4" width="1" height="1" fill="#324E76" /><rect x="4" y="4" width="1" height="1" fill="#1C3150" /><rect x="5" y="4" width="1" height="1" fill="#12243A" /><rect x="6" y="4" width="1" height="1" fill="#14212A" /><rect x="7" y="4" width="1" height="1" fill="#16222E" /><rect x="8" y="4" width="1" height="1" fill="#38485F" /><rect x="9" y="4" width="1" height="1" fill="#36465F" /><rect x="0" y="5" width="1" height="1" fill="#F5F3F8" /><rect x="1" y="5" width="1" height="1" fill="#E3EBF8" /><rect x="2" y="5" width="1" height="1" fill="#304562" /><rect x="3" y="5" width="1" height="1" fill="#213D62" /><rect x="4" y="5" width="1" height="1" fill="#1B3556" /><rect x="5" y="5" width="1" height="1" fill="#162B46" /><rect x="6" y="5" width="1" height="1" fill="#0C1A27" /><rect x="7" y="5" width="1" height="1" fill="#07131F" /><rect x="8" y="5" width="1" height="1" fill="#1C2B3E" /><rect x="9" y="5" width="1" height="1" fill="#1E2C46" /><rect x="0" y="6" width="1" height="1" fill="#FAF3ED" /><rect x="1" y="6" width="1" height="1" fill="#E5E6EB" /><rect x="2" y="6" width="1" height="1" fill="#435063" /><rect x="3" y="6" width="1" height="1" fill="#344C68" /><rect x="4" y="6" width="1" height="1" fill="#193656" /><rect x="5" y="6" width="1" height="1" fill="#142D4B" /><rect x="6" y="6" width="1" height="1" fill="#0C1929" /><rect x="7" y="6" width="1" height="1" fill="#111924" /><rect x="8" y="6" width="1" height="1" fill="#1C1F32" /><rect x="9" y="6" width="1" height="1" fill="#272B44" /><rect x="0" y="7" width="1" height="1" fill="#F4E9E5" /><rect x="1" y="7" width="1" height="1" fill="#F5F1F2" /><rect x="2" y="7" width="1" height="1" fill="#89909A" /><rect x="3" y="7" width="1" height="1" fill="#223144" /><rect x="4" y="7" width="1" height="1" fill="#223850" /><rect x="5" y="7" width="1" height="1" fill="#0D233B" /><rect x="6" y="7" width="1" height="1" fill="#101B2D" /><rect x="7" y="7" width="1" height="1" fill="#1A1C2B" /><rect x="8" y="7" width="1" height="1" fill="#242037" /><rect x="9" y="7" width="1" height="1" fill="#35354D" /><rect x="0" y="8" width="1" height="1" fill="#F6E7E4" /><rect x="1" y="8" width="1" height="1" fill="#F8EDF1" /><rect x="2" y="8" width="1" height="1" fill="#EAE8EB" /><rect x="3" y="8" width="1" height="1" fill="#C3C3CB" /><rect x="4" y="8" width="1" height="1" fill="#757D8A" /><rect x="5" y="8" width="1" height="1" fill="#222B3C" /><rect x="6" y="8" width="1" height="1" fill="#0B1129" /><rect x="7" y="8" width="1" height="1" fill="#191B34" /><rect x="8" y="8" width="1" height="1" fill="#322C44" /><rect x="9" y="8" width="1" height="1" fill="#41415B" /><rect x="0" y="9" width="1" height="1" fill="#FFECE5" /><rect x="1" y="9" width="1" height="1" fill="#FFE2DE" /><rect x="2" y="9" width="1" height="1" fill="#FDE2D7" /><rect x="3" y="9" width="1" height="1" fill="#FCE6D9" /><rect x="4" y="9" width="1" height="1" fill="#F1DFD5" /><rect x="5" y="9" width="1" height="1" fill="#4E3E3E" /><rect x="6" y="9" width="1" height="1" fill="#403440" /><rect x="7" y="9" width="1" height="1" fill="#574E5F" /><rect x="8" y="9" width="1" height="1" fill="#5D5260" /><rect x="9" y="9" width="1" height="1" fill="#453D4C" />
  </g>
</svg>