<svg width="800" height="1000" version="1.1" xmlns="http://www.w3.org/2000/svg" xmlns:xlink="http://www.w3.org/1999/xlink">
  <defs>
      <linearGradient id="Gradient2" x1="0" x2="1" y1="0" y2="1">
        <stop offset="0%" stop-color="#2d3c96"/>
        <stop offset="100%" stop-color="#d53392"/>
      </linearGradient>
  </defs>
  <rect x="10" y="10" width="780" height="980" fill="url(#Gradient2)" rx="50" ry="50" stroke="#ffd700" stroke-width="20"/>
  <text x="400" y="920" width="780" text-anchor="middle" style="font: bold 200px 'Helvetica Neue'; fill: #ffd700">01422</text>

  <g transform="translate(80 80) scale(64)">
<rect x="0" y="0" width="1" height="1" fill="#000000" />
,<rect x="0" y="1" width="1" height="1" fill="#4b4b4b" />
,<rect x="0" y="2" width="1" height="1" fill="#ffffff" />
,<rect x="0" y="3" width="1" height="1" fill="#ffffff" />
,<rect x="0" y="4" width="1" height="1" fill="#373737" />
,<rect x="0" y="5" width="1" height="1" fill="#161616" />
,<rect x="0" y="6" width="1" height="1" fill="#ffffff" />
,<rect x="0" y="7" width="1" height="1" fill="#b5b3b4" />
,<rect x="0" y="8" width="1" height="1" fill="#000000" />
,<rect x="0" y="9" width="1" height="1" fill="#12733c" />
,<rect x="1" y="0" width="1" height="1" fill="#040000" />
,<rect x="1" y="1" width="1" height="1" fill="#000000" />
,<rect x="1" y="2" width="1" height="1" fill="#262626" />
,<rect x="1" y="3" width="1" height="1" fill="#272727" />
,<rect x="1" y="4" width="1" height="1" fill="#000000" />
,<rect x="1" y="5" width="1" height="1" fill="#000000" />
,<rect x="1" y="6" width="1" height="1" fill="#0f0f0f" />
,<rect x="1" y="7" width="1" height="1" fill="#575556" />
,<rect x="1" y="8" width="1" height="1" fill="#0a0004" />
,<rect x="1" y="9" width="1" height="1" fill="#12733c" />
,<rect x="2" y="0" width="1" height="1" fill="#040000" />
,<rect x="2" y="1" width="1" height="1" fill="#020202" />
,<rect x="2" y="2" width="1" height="1" fill="#000000" />
,<rect x="2" y="3" width="1" height="1" fill="#000000" />
,<rect x="2" y="4" width="1" height="1" fill="#040404" />
,<rect x="2" y="5" width="1" height="1" fill="#060606" />
,<rect x="2" y="6" width="1" height="1" fill="#010101" />
,<rect x="2" y="7" width="1" height="1" fill="#010000" />
,<rect x="2" y="8" width="1" height="1" fill="#060000" />
,<rect x="2" y="9" width="1" height="1" fill="#12733c" />
,<rect x="3" y="0" width="1" height="1" fill="#070000" />
,<rect x="3" y="1" width="1" height="1" fill="#0f0f0f" />
,<rect x="3" y="2" width="1" height="1" fill="#000000" />
,<rect x="3" y="3" width="1" height="1" fill="#000000" />
,<rect x="3" y="4" width="1" height="1" fill="#040404" />
,<rect x="3" y="5" width="1" height="1" fill="#060606" />
,<rect x="3" y="6" width="1" height="1" fill="#050505" />
,<rect x="3" y="7" width="1" height="1" fill="#040103" />
,<rect x="3" y="8" width="1" height="1" fill="#050000" />
,<rect x="3" y="9" width="1" height="1" fill="#12733c" />
,<rect x="4" y="0" width="1" height="1" fill="#000000" />
,<rect x="4" y="1" width="1" height="1" fill="#9c9c9b" />
,<rect x="4" y="2" width="1" height="1" fill="#919191" />
,<rect x="4" y="3" width="1" height="1" fill="#090909" />
,<rect x="4" y="4" width="1" height="1" fill="#000000" />
,<rect x="4" y="5" width="1" height="1" fill="#000000" />
,<rect x="4" y="6" width="1" height="1" fill="#010101" />
,<rect x="4" y="7" width="1" height="1" fill="#050304" />
,<rect x="4" y="8" width="1" height="1" fill="#050000" />
,<rect x="4" y="9" width="1" height="1" fill="#12733c" />
,<rect x="5" y="0" width="1" height="1" fill="#000000" />
,<rect x="5" y="1" width="1" height="1" fill="#898989" />
,<rect x="5" y="2" width="1" height="1" fill="#ededed" />
,<rect x="5" y="3" width="1" height="1" fill="#ebebeb" />
,<rect x="5" y="4" width="1" height="1" fill="#b6b6b6" />
,<rect x="5" y="5" width="1" height="1" fill="#4c4c4c" />
,<rect x="5" y="6" width="1" height="1" fill="#000000" />
,<rect x="5" y="7" width="1" height="1" fill="#000000" />
,<rect x="5" y="8" width="1" height="1" fill="#050000" />
,<rect x="5" y="9" width="1" height="1" fill="#12733c" />
,<rect x="6" y="0" width="1" height="1" fill="#060000" />
,<rect x="6" y="1" width="1" height="1" fill="#070706" />
,<rect x="6" y="2" width="1" height="1" fill="#000000" />
,<rect x="6" y="3" width="1" height="1" fill="#272727" />
,<rect x="6" y="4" width="1" height="1" fill="#888888" />
,<rect x="6" y="5" width="1" height="1" fill="#d5d5d5" />
,<rect x="6" y="6" width="1" height="1" fill="#ffffff" />
,<rect x="6" y="7" width="1" height="1" fill="#615e60" />
,<rect x="6" y="8" width="1" height="1" fill="#000000" />
,<rect x="6" y="9" width="1" height="1" fill="#12733c" />
,<rect x="7" y="0" width="1" height="1" fill="#000000" />
,<rect x="7" y="1" width="1" height="1" fill="#5f5f5f" />
,<rect x="7" y="2" width="1" height="1" fill="#575757" />
,<rect x="7" y="3" width="1" height="1" fill="#000000" />
,<rect x="7" y="4" width="1" height="1" fill="#000000" />
,<rect x="7" y="5" width="1" height="1" fill="#313131" />
,<rect x="7" y="6" width="1" height="1" fill="#9b9b9b" />
,<rect x="7" y="7" width="1" height="1" fill="#4b494a" />
,<rect x="7" y="8" width="1" height="1" fill="#000000" />
,<rect x="7" y="9" width="1" height="1" fill="#12733c" />
,<rect x="8" y="0" width="1" height="1" fill="#000000" />
,<rect x="8" y="1" width="1" height="1" fill="#989898" />
,<rect x="8" y="2" width="1" height="1" fill="#f7f7f7" />
,<rect x="8" y="3" width="1" height="1" fill="#fdfdfd" />
,<rect x="8" y="4" width="1" height="1" fill="#dadada" />
,<rect x="8" y="5" width="1" height="1" fill="#383838" />
,<rect x="8" y="6" width="1" height="1" fill="#000000" />
,<rect x="8" y="7" width="1" height="1" fill="#000000" />
,<rect x="8" y="8" width="1" height="1" fill="#050000" />
,<rect x="8" y="9" width="1" height="1" fill="#12733c" />
,<rect x="9" y="0" width="1" height="1" fill="#090000" />
,<rect x="9" y="1" width="1" height="1" fill="#101010" />
,<rect x="9" y="2" width="1" height="1" fill="#0b0b0b" />
,<rect x="9" y="3" width="1" height="1" fill="#505050" />
,<rect x="9" y="4" width="1" height="1" fill="#898989" />
,<rect x="9" y="5" width="1" height="1" fill="#c5c5c5" />
,<rect x="9" y="6" width="1" height="1" fill="#e1e1e1" />
,<rect x="9" y="7" width="1" height="1" fill="#504e4f" />
,<rect x="9" y="8" width="1" height="1" fill="#000000" />
,<rect x="9" y="9" width="1" height="1" fill="#12733c" />

  </g>
</svg>