<svg width="800" height="1000" xmlns="http://www.w3.org/2000/svg"><defs><linearGradient id="g" x1="0" x2="1" y1="0" y2="1"><stop offset="0%" stop-color="#2d3c96"/><stop offset="100%" stop-color="#d53392"/></linearGradient></defs><rect x="10" y="10" width="780" height="980" fill="url(#g)" rx="50" ry="50" stroke="gold" stroke-width="20"/><text x="400" y="920" width="780" text-anchor="middle" style="font:bold 200px 'Helvetica Neue';fill:gold">01421</text><g transform="translate(80 80) scale(64)"><rect x="0" y="0" width="1" height="1" fill="#000000" /><rect x="0" y="1" width="1" height="1" fill="#a4a4a4" /><rect x="0" y="2" width="1" height="1" fill="#ffffff" /><rect x="0" y="3" width="1" height="1" fill="#e3e3e3" /><rect x="0" y="4" width="1" height="1" fill="#e3e3e3" /><rect x="0" y="5" width="1" height="1" fill="#e9e9e9" /><rect x="0" y="6" width="1" height="1" fill="#f9f9f9" /><rect x="0" y="7" width="1" height="1" fill="#4f4c4e" /><rect x="0" y="8" width="1" height="1" fill="#000000" /><rect x="0" y="9" width="1" height="1" fill="#12733c" /><rect x="1" y="0" width="1" height="1" fill="#0c0004" /><rect x="1" y="1" width="1" height="1" fill="#2c2c2c" /><rect x="1" y="2" width="1" height="1" fill="#000000" /><rect x="1" y="3" width="1" height="1" fill="#000000" /><rect x="1" y="4" width="1" height="1" fill="#000000" /><rect x="1" y="5" width="1" height="1" fill="#000000" /><rect x="1" y="6" width="1" height="1" fill="#464646" /><rect x="1" y="7" width="1" height="1" fill="#918f90" /><rect x="1" y="8" width="1" height="1" fill="#000000" /><rect x="1" y="9" width="1" height="1" fill="#12733c" /><rect x="2" y="0" width="1" height="1" fill="#040000" /><rect x="2" y="1" width="1" height="1" fill="#020201" /><rect x="2" y="2" width="1" height="1" fill="#000000" /><rect x="2" y="3" width="1" height="1" fill="#000000" /><rect x="2" y="4" width="1" height="1" fill="#000000" /><rect x="2" y="5" width="1" height="1" fill="#000000" /><rect x="2" y="6" width="1" height="1" fill="#000000" /><rect x="2" y="7" width="1" height="1" fill="#4e4c4d" /><rect x="2" y="8" width="1" height="1" fill="#1d0e16" /><rect x="2" y="9" width="1" height="1" fill="#12733c" /><rect x="3" y="0" width="1" height="1" fill="#070000" /><rect x="3" y="1" width="1" height="1" fill="#323232" /><rect x="3" y="2" width="1" height="1" fill="#1a1a1a" /><rect x="3" y="3" width="1" height="1" fill="#161616" /><rect x="3" y="4" width="1" height="1" fill="#151515" /><rect x="3" y="5" width="1" height="1" fill="#121212" /><rect x="3" y="6" width="1" height="1" fill="#484848" /><rect x="3" y="7" width="1" height="1" fill="#535152" /><rect x="3" y="8" width="1" height="1" fill="#000000" /><rect x="3" y="9" width="1" height="1" fill="#12733c" /><rect x="4" y="0" width="1" height="1" fill="#010000" /><rect x="4" y="1" width="1" height="1" fill="#6b6b6b" /><rect x="4" y="2" width="1" height="1" fill="#676767" /><rect x="4" y="3" width="1" height="1" fill="#585858" /><rect x="4" y="4" width="1" height="1" fill="#595959" /><rect x="4" y="5" width="1" height="1" fill="#5b5b5b" /><rect x="4" y="6" width="1" height="1" fill="#5d5d5d" /><rect x="4" y="7" width="1" height="1" fill="#191718" /><rect x="4" y="8" width="1" height="1" fill="#000000" /><rect x="4" y="9" width="1" height="1" fill="#12733c" /><rect x="5" y="0" width="1" height="1" fill="#0c0004" /><rect x="5" y="1" width="1" height="1" fill="#2a2a2a" /><rect x="5" y="2" width="1" height="1" fill="#000000" /><rect x="5" y="3" width="1" height="1" fill="#000000" /><rect x="5" y="4" width="1" height="1" fill="#000000" /><rect x="5" y="5" width="1" height="1" fill="#000000" /><rect x="5" y="6" width="1" height="1" fill="#000000" /><rect x="5" y="7" width="1" height="1" fill="#0e0b0d" /><rect x="5" y="8" width="1" height="1" fill="#080002" /><rect x="5" y="9" width="1" height="1" fill="#12733c" /><rect x="6" y="0" width="1" height="1" fill="#000000" /><rect x="6" y="1" width="1" height="1" fill="#6c6c6c" /><rect x="6" y="2" width="1" height="1" fill="#858585" /><rect x="6" y="3" width="1" height="1" fill="#727272" /><rect x="6" y="4" width="1" height="1" fill="#676767" /><rect x="6" y="5" width="1" height="1" fill="#6f6f6f" /><rect x="6" y="6" width="1" height="1" fill="#878787" /><rect x="6" y="7" width="1" height="1" fill="#747173" /><rect x="6" y="8" width="1" height="1" fill="#000000" /><rect x="6" y="9" width="1" height="1" fill="#12733c" /><rect x="7" y="0" width="1" height="1" fill="#000000" /><rect x="7" y="1" width="1" height="1" fill="#989898" /><rect x="7" y="2" width="1" height="1" fill="#eeeeee" /><rect x="7" y="3" width="1" height="1" fill="#d2d2d2" /><rect x="7" y="4" width="1" height="1" fill="#cdcdcd" /><rect x="7" y="5" width="1" height="1" fill="#b9b9b9" /><rect x="7" y="6" width="1" height="1" fill="#f1f1f1" /><rect x="7" y="7" width="1" height="1" fill="#9b999a" /><rect x="7" y="8" width="1" height="1" fill="#000000" /><rect x="7" y="9" width="1" height="1" fill="#12733c" /><rect x="8" y="0" width="1" height="1" fill="#110009" /><rect x="8" y="1" width="1" height="1" fill="#474747" /><rect x="8" y="2" width="1" height="1" fill="#000000" /><rect x="8" y="3" width="1" height="1" fill="#000000" /><rect x="8" y="4" width="1" height="1" fill="#6b6b6b" /><rect x="8" y="5" width="1" height="1" fill="#393939" /><rect x="8" y="6" width="1" height="1" fill="#000000" /><rect x="8" y="7" width="1" height="1" fill="#1f1d1e" /><rect x="8" y="8" width="1" height="1" fill="#0c0006" /><rect x="8" y="9" width="1" height="1" fill="#12733c" /><rect x="9" y="0" width="1" height="1" fill="#000000" /><rect x="9" y="1" width="1" height="1" fill="#909090" /><rect x="9" y="2" width="1" height="1" fill="#4d4d4d" /><rect x="9" y="3" width="1" height="1" fill="#1f1f1f" /><rect x="9" y="4" width="1" height="1" fill="#d0d0d0" /><rect x="9" y="5" width="1" height="1" fill="#ffffff" /><rect x="9" y="6" width="1" height="1" fill="#8d8d8d" /><rect x="9" y="7" width="1" height="1" fill="#000000" /><rect x="9" y="8" width="1" height="1" fill="#000000" /><rect x="9" y="9" width="1" height="1" fill="#12733c" /></g></svg>