<svg width="800" height="1000" version="1.1" xmlns="http://www.w3.org/2000/svg" xmlns:xlink="http://www.w3.org/1999/xlink">
  <defs>
      <linearGradient id="Gradient2" x1="0" x2="1" y1="0" y2="1">
        <stop offset="0%" stop-color="#2d3c96"/>
        <stop offset="100%" stop-color="#d53392"/>
      </linearGradient>
  </defs>
  <rect x="10" y="10" width="780" height="980" fill="url(#Gradient2)" rx="50" ry="50" stroke="#ffd700" stroke-width="20"/>
  <text x="400" y="920" width="780" text-anchor="middle" style="font: bold 200px 'Helvetica Neue'; fill: #ffd700">01427</text>

  <g transform="translate(80 80) scale(64)">
<rect x="0" y="0" width="1" height="1" fill="#bab4cc" />
,<rect x="0" y="1" width="1" height="1" fill="#d7cbe1" />
,<rect x="0" y="2" width="1" height="1" fill="#d4c3d6" />
,<rect x="0" y="3" width="1" height="1" fill="#cbc0ce" />
,<rect x="0" y="4" width="1" height="1" fill="#bec7cc" />
,<rect x="0" y="5" width="1" height="1" fill="#bfd1d3" />
,<rect x="0" y="6" width="1" height="1" fill="#becccf" />
,<rect x="0" y="7" width="1" height="1" fill="#c1c4c9" />
,<rect x="0" y="8" width="1" height="1" fill="#d6c9d3" />
,<rect x="0" y="9" width="1" height="1" fill="#d7c3cf" />
,<rect x="1" y="0" width="1" height="1" fill="#547183" />
,<rect x="1" y="1" width="1" height="1" fill="#758698" />
,<rect x="1" y="2" width="1" height="1" fill="#cacbdd" />
,<rect x="1" y="3" width="1" height="1" fill="#c3c2d0" />
,<rect x="1" y="4" width="1" height="1" fill="#c5d4d9" />
,<rect x="1" y="5" width="1" height="1" fill="#b4cdca" />
,<rect x="1" y="6" width="1" height="1" fill="#afccc8" />
,<rect x="1" y="7" width="1" height="1" fill="#c1d4d2" />
,<rect x="1" y="8" width="1" height="1" fill="#c0bfc4" />
,<rect x="1" y="9" width="1" height="1" fill="#cbc1c9" />
,<rect x="2" y="0" width="1" height="1" fill="#5eb5be" />
,<rect x="2" y="1" width="1" height="1" fill="#256972" />
,<rect x="2" y="2" width="1" height="1" fill="#577b8b" />
,<rect x="2" y="3" width="1" height="1" fill="#677e8c" />
,<rect x="2" y="4" width="1" height="1" fill="#5a7b82" />
,<rect x="2" y="5" width="1" height="1" fill="#5e8887" />
,<rect x="2" y="6" width="1" height="1" fill="#50837e" />
,<rect x="2" y="7" width="1" height="1" fill="#5d8785" />
,<rect x="2" y="8" width="1" height="1" fill="#5e7678" />
,<rect x="2" y="9" width="1" height="1" fill="#919aa1" />
,<rect x="3" y="0" width="1" height="1" fill="#32959b" />
,<rect x="3" y="1" width="1" height="1" fill="#68b8bf" />
,<rect x="3" y="2" width="1" height="1" fill="#a4cfdf" />
,<rect x="3" y="3" width="1" height="1" fill="#a6c3d3" />
,<rect x="3" y="4" width="1" height="1" fill="#9cc7ce" />
,<rect x="3" y="5" width="1" height="1" fill="#9dd3d3" />
,<rect x="3" y="6" width="1" height="1" fill="#8bc9c6" />
,<rect x="3" y="7" width="1" height="1" fill="#9dd5d2" />
,<rect x="3" y="8" width="1" height="1" fill="#8db0b4" />
,<rect x="3" y="9" width="1" height="1" fill="#7b8c96" />
,<rect x="4" y="0" width="1" height="1" fill="#3c7e8a" />
,<rect x="4" y="1" width="1" height="1" fill="#89bac8" />
,<rect x="4" y="2" width="1" height="1" fill="#a9c3d4" />
,<rect x="4" y="3" width="1" height="1" fill="#b0c7d7" />
,<rect x="4" y="4" width="1" height="1" fill="#a0cdd2" />
,<rect x="4" y="5" width="1" height="1" fill="#93d1d0" />
,<rect x="4" y="6" width="1" height="1" fill="#81c9c5" />
,<rect x="4" y="7" width="1" height="1" fill="#8bcbca" />
,<rect x="4" y="8" width="1" height="1" fill="#97bcc4" />
,<rect x="4" y="9" width="1" height="1" fill="#8696a5" />
,<rect x="5" y="0" width="1" height="1" fill="#598796" />
,<rect x="5" y="1" width="1" height="1" fill="#92b8c5" />
,<rect x="5" y="2" width="1" height="1" fill="#9eb9ca" />
,<rect x="5" y="3" width="1" height="1" fill="#a9cad3" />
,<rect x="5" y="4" width="1" height="1" fill="#9bd3d2" />
,<rect x="5" y="5" width="1" height="1" fill="#82cbc4" />
,<rect x="5" y="6" width="1" height="1" fill="#8adbd4" />
,<rect x="5" y="7" width="1" height="1" fill="#8bd2ce" />
,<rect x="5" y="8" width="1" height="1" fill="#8bb3bb" />
,<rect x="5" y="9" width="1" height="1" fill="#758696" />
,<rect x="6" y="0" width="1" height="1" fill="#cdf5ff" />
,<rect x="6" y="1" width="1" height="1" fill="#5a8991" />
,<rect x="6" y="2" width="1" height="1" fill="#9acace" />
,<rect x="6" y="3" width="1" height="1" fill="#9ad5d3" />
,<rect x="6" y="4" width="1" height="1" fill="#8ad8cb" />
,<rect x="6" y="5" width="1" height="1" fill="#76cec0" />
,<rect x="6" y="6" width="1" height="1" fill="#7ed8cc" />
,<rect x="6" y="7" width="1" height="1" fill="#86d3cb" />
,<rect x="6" y="8" width="1" height="1" fill="#8cb9be" />
,<rect x="6" y="9" width="1" height="1" fill="#748a97" />
,<rect x="7" y="0" width="1" height="1" fill="#96c1ca" />
,<rect x="7" y="1" width="1" height="1" fill="#33666a" />
,<rect x="7" y="2" width="1" height="1" fill="#99d1d2" />
,<rect x="7" y="3" width="1" height="1" fill="#89c7c4" />
,<rect x="7" y="4" width="1" height="1" fill="#83cec7" />
,<rect x="7" y="5" width="1" height="1" fill="#8fe2d8" />
,<rect x="7" y="6" width="1" height="1" fill="#7cd6ca" />
,<rect x="7" y="7" width="1" height="1" fill="#89d6ce" />
,<rect x="7" y="8" width="1" height="1" fill="#8bbbbf" />
,<rect x="7" y="9" width="1" height="1" fill="#78909c" />
,<rect x="8" y="0" width="1" height="1" fill="#64999f" />
,<rect x="8" y="1" width="1" height="1" fill="#8ac1c6" />
,<rect x="8" y="2" width="1" height="1" fill="#609198" />
,<rect x="8" y="3" width="1" height="1" fill="#4f8085" />
,<rect x="8" y="4" width="1" height="1" fill="#8cbfc3" />
,<rect x="8" y="5" width="1" height="1" fill="#90cdce" />
,<rect x="8" y="6" width="1" height="1" fill="#80cfca" />
,<rect x="8" y="7" width="1" height="1" fill="#83c9c7" />
,<rect x="8" y="8" width="1" height="1" fill="#90bbc2" />
,<rect x="8" y="9" width="1" height="1" fill="#7a8d9b" />
,<rect x="9" y="0" width="1" height="1" fill="#89c3c7" />
,<rect x="9" y="1" width="1" height="1" fill="#8fc1ca" />
,<rect x="9" y="2" width="1" height="1" fill="#6a91a0" />
,<rect x="9" y="3" width="1" height="1" fill="#708fa1" />
,<rect x="9" y="4" width="1" height="1" fill="#5a7085" />
,<rect x="9" y="5" width="1" height="1" fill="#6b8c9d" />
,<rect x="9" y="6" width="1" height="1" fill="#8ecdd2" />
,<rect x="9" y="7" width="1" height="1" fill="#90d1d3" />
,<rect x="9" y="8" width="1" height="1" fill="#9ac5cc" />
,<rect x="9" y="9" width="1" height="1" fill="#738694" />

  </g>
</svg>