<svg width="800" height="1000" version="1.1" xmlns="http://www.w3.org/2000/svg" xmlns:xlink="http://www.w3.org/1999/xlink">
  <defs>
      <linearGradient id="Gradient2" x1="0" x2="1" y1="0" y2="1">
        <stop offset="0%" stop-color="#2d3c96"/>
        <stop offset="100%" stop-color="#d53392"/>
      </linearGradient>
  </defs>
  <rect x="10" y="10" width="780" height="980" fill="url(#Gradient2)" rx="50" ry="50" stroke="#ffd700" stroke-width="20"/>
  <text x="400" y="920" width="780" text-anchor="middle" style="font: bold 200px 'Helvetica Neue'; fill: #ffd700">01508</text>

  <g transform="translate(80 80) scale(64)">
<rect x="0" y="0" width="1" height="1" fill="#2E3643" /><rect x="1" y="0" width="1" height="1" fill="#404852" /><rect x="2" y="0" width="1" height="1" fill="#69777A" /><rect x="3" y="0" width="1" height="1" fill="#627178" /><rect x="4" y="0" width="1" height="1" fill="#767F84" /><rect x="5" y="0" width="1" height="1" fill="#8C908F" /><rect x="6" y="0" width="1" height="1" fill="#92948F" /><rect x="7" y="0" width="1" height="1" fill="#A5A397" /><rect x="8" y="0" width="1" height="1" fill="#A1A398" /><rect x="9" y="0" width="1" height="1" fill="#8D9190" /><rect x="0" y="1" width="1" height="1" fill="#354350" /><rect x="1" y="1" width="1" height="1" fill="#373E4E" /><rect x="2" y="1" width="1" height="1" fill="#3B4C5E" /><rect x="3" y="1" width="1" height="1" fill="#3C5260" /><rect x="4" y="1" width="1" height="1" fill="#485A66" /><rect x="5" y="1" width="1" height="1" fill="#74807C" /><rect x="6" y="1" width="1" height="1" fill="#989B92" /><rect x="7" y="1" width="1" height="1" fill="#9FA297" /><rect x="8" y="1" width="1" height="1" fill="#909189" /><rect x="9" y="1" width="1" height="1" fill="#3F515D" /><rect x="0" y="2" width="1" height="1" fill="#37454E" /><rect x="1" y="2" width="1" height="1" fill="#313B47" /><rect x="2" y="2" width="1" height="1" fill="#374757" /><rect x="3" y="2" width="1" height="1" fill="#344C58" /><rect x="4" y="2" width="1" height="1" fill="#1F3447" /><rect x="5" y="2" width="1" height="1" fill="#435B67" /><rect x="6" y="2" width="1" height="1" fill="#647177" /><rect x="7" y="2" width="1" height="1" fill="#747C7F" /><rect x="8" y="2" width="1" height="1" fill="#4E5660" /><rect x="9" y="2" width="1" height="1" fill="#2A3A4A" /><rect x="0" y="3" width="1" height="1" fill="#303E49" /><rect x="1" y="3" width="1" height="1" fill="#30424E" /><rect x="2" y="3" width="1" height="1" fill="#3A4C58" /><rect x="3" y="3" width="1" height="1" fill="#273C4F" /><rect x="4" y="3" width="1" height="1" fill="#243E4F" /><rect x="5" y="3" width="1" height="1" fill="#283A50" /><rect x="6" y="3" width="1" height="1" fill="#253A4D" /><rect x="7" y="3" width="1" height="1" fill="#1E2F3F" /><rect x="8" y="3" width="1" height="1" fill="#222939" /><rect x="9" y="3" width="1" height="1" fill="#28353E" /><rect x="0" y="4" width="1" height="1" fill="#2E3641" /><rect x="1" y="4" width="1" height="1" fill="#25333E" /><rect x="2" y="4" width="1" height="1" fill="#273341" /><rect x="3" y="4" width="1" height="1" fill="#1B2934" /><rect x="4" y="4" width="1" height="1" fill="#1F303A" /><rect x="5" y="4" width="1" height="1" fill="#253646" /><rect x="6" y="4" width="1" height="1" fill="#213C4F" /><rect x="7" y="4" width="1" height="1" fill="#233543" /><rect x="8" y="4" width="1" height="1" fill="#293541" /><rect x="9" y="4" width="1" height="1" fill="#3C4650" /><rect x="0" y="5" width="1" height="1" fill="#313743" /><rect x="1" y="5" width="1" height="1" fill="#112027" /><rect x="2" y="5" width="1" height="1" fill="#1C2536" /><rect x="3" y="5" width="1" height="1" fill="#1A222D" /><rect x="4" y="5" width="1" height="1" fill="#1E313F" /><rect x="5" y="5" width="1" height="1" fill="#395F72" /><rect x="6" y="5" width="1" height="1" fill="#42687B" /><rect x="7" y="5" width="1" height="1" fill="#415764" /><rect x="8" y="5" width="1" height="1" fill="#60747B" /><rect x="9" y="5" width="1" height="1" fill="#667E80" /><rect x="0" y="6" width="1" height="1" fill="#2D3540" /><rect x="1" y="6" width="1" height="1" fill="#131B25" /><rect x="2" y="6" width="1" height="1" fill="#161C28" /><rect x="3" y="6" width="1" height="1" fill="#1C2534" /><rect x="4" y="6" width="1" height="1" fill="#2A3C52" /><rect x="5" y="6" width="1" height="1" fill="#2B4657" /><rect x="6" y="6" width="1" height="1" fill="#364F65" /><rect x="7" y="6" width="1" height="1" fill="#37535F" /><rect x="8" y="6" width="1" height="1" fill="#4C646C" /><rect x="9" y="6" width="1" height="1" fill="#5F7077" /><rect x="0" y="7" width="1" height="1" fill="#29333D" /><rect x="1" y="7" width="1" height="1" fill="#111E26" /><rect x="2" y="7" width="1" height="1" fill="#1A2632" /><rect x="3" y="7" width="1" height="1" fill="#233239" /><rect x="4" y="7" width="1" height="1" fill="#2A3747" /><rect x="5" y="7" width="1" height="1" fill="#27384A" /><rect x="6" y="7" width="1" height="1" fill="#283848" /><rect x="7" y="7" width="1" height="1" fill="#304250" /><rect x="8" y="7" width="1" height="1" fill="#2B3C46" /><rect x="9" y="7" width="1" height="1" fill="#374552" /><rect x="0" y="8" width="1" height="1" fill="#2D3D4A" /><rect x="1" y="8" width="1" height="1" fill="#162431" /><rect x="2" y="8" width="1" height="1" fill="#243141" /><rect x="3" y="8" width="1" height="1" fill="#263741" /><rect x="4" y="8" width="1" height="1" fill="#2A3B45" /><rect x="5" y="8" width="1" height="1" fill="#253C4A" /><rect x="6" y="8" width="1" height="1" fill="#324554" /><rect x="7" y="8" width="1" height="1" fill="#3D4B54" /><rect x="8" y="8" width="1" height="1" fill="#3A444E" /><rect x="9" y="8" width="1" height="1" fill="#4D5B66" /><rect x="0" y="9" width="1" height="1" fill="#303B41" /><rect x="1" y="9" width="1" height="1" fill="#202B3D" /><rect x="2" y="9" width="1" height="1" fill="#313E4F" /><rect x="3" y="9" width="1" height="1" fill="#344652" /><rect x="4" y="9" width="1" height="1" fill="#273848" /><rect x="5" y="9" width="1" height="1" fill="#243748" /><rect x="6" y="9" width="1" height="1" fill="#37454E" /><rect x="7" y="9" width="1" height="1" fill="#43515A" /><rect x="8" y="9" width="1" height="1" fill="#434E52" /><rect x="9" y="9" width="1" height="1" fill="#556469" />
  </g>
</svg>