<svg width="800" height="1000" version="1.1" xmlns="http://www.w3.org/2000/svg" xmlns:xlink="http://www.w3.org/1999/xlink">
  <defs>
      <linearGradient id="Gradient2" x1="0" x2="1" y1="0" y2="1">
        <stop offset="0%" stop-color="#2d3c96"/>
        <stop offset="100%" stop-color="#d53392"/>
      </linearGradient>
  </defs>
  <rect x="10" y="10" width="780" height="980" fill="url(#Gradient2)" rx="50" ry="50" stroke="#ffd700" stroke-width="20"/>
  <text x="400" y="920" width="780" text-anchor="middle" style="font: bold 200px 'Helvetica Neue'; fill: #ffd700">01508</text>

  <g transform="translate(80 80) scale(64)">
<rect x="0" y="0" width="1" height="1" fill="#2e3643" />
,<rect x="0" y="1" width="1" height="1" fill="#354350" />
,<rect x="0" y="2" width="1" height="1" fill="#37454e" />
,<rect x="0" y="3" width="1" height="1" fill="#303e49" />
,<rect x="0" y="4" width="1" height="1" fill="#2e3641" />
,<rect x="0" y="5" width="1" height="1" fill="#313743" />
,<rect x="0" y="6" width="1" height="1" fill="#2d3540" />
,<rect x="0" y="7" width="1" height="1" fill="#29333d" />
,<rect x="0" y="8" width="1" height="1" fill="#2d3d4a" />
,<rect x="0" y="9" width="1" height="1" fill="#303b41" />
,<rect x="1" y="0" width="1" height="1" fill="#404852" />
,<rect x="1" y="1" width="1" height="1" fill="#373e4e" />
,<rect x="1" y="2" width="1" height="1" fill="#313b47" />
,<rect x="1" y="3" width="1" height="1" fill="#30424e" />
,<rect x="1" y="4" width="1" height="1" fill="#25333e" />
,<rect x="1" y="5" width="1" height="1" fill="#112027" />
,<rect x="1" y="6" width="1" height="1" fill="#131b25" />
,<rect x="1" y="7" width="1" height="1" fill="#111e26" />
,<rect x="1" y="8" width="1" height="1" fill="#162431" />
,<rect x="1" y="9" width="1" height="1" fill="#202b3d" />
,<rect x="2" y="0" width="1" height="1" fill="#69777a" />
,<rect x="2" y="1" width="1" height="1" fill="#3b4c5e" />
,<rect x="2" y="2" width="1" height="1" fill="#374757" />
,<rect x="2" y="3" width="1" height="1" fill="#3a4c58" />
,<rect x="2" y="4" width="1" height="1" fill="#273341" />
,<rect x="2" y="5" width="1" height="1" fill="#1c2536" />
,<rect x="2" y="6" width="1" height="1" fill="#161c28" />
,<rect x="2" y="7" width="1" height="1" fill="#1a2632" />
,<rect x="2" y="8" width="1" height="1" fill="#243141" />
,<rect x="2" y="9" width="1" height="1" fill="#313e4f" />
,<rect x="3" y="0" width="1" height="1" fill="#627178" />
,<rect x="3" y="1" width="1" height="1" fill="#3c5260" />
,<rect x="3" y="2" width="1" height="1" fill="#344c58" />
,<rect x="3" y="3" width="1" height="1" fill="#273c4f" />
,<rect x="3" y="4" width="1" height="1" fill="#1b2934" />
,<rect x="3" y="5" width="1" height="1" fill="#1a222d" />
,<rect x="3" y="6" width="1" height="1" fill="#1c2534" />
,<rect x="3" y="7" width="1" height="1" fill="#233239" />
,<rect x="3" y="8" width="1" height="1" fill="#263741" />
,<rect x="3" y="9" width="1" height="1" fill="#344652" />
,<rect x="4" y="0" width="1" height="1" fill="#767f84" />
,<rect x="4" y="1" width="1" height="1" fill="#485a66" />
,<rect x="4" y="2" width="1" height="1" fill="#1f3447" />
,<rect x="4" y="3" width="1" height="1" fill="#243e4f" />
,<rect x="4" y="4" width="1" height="1" fill="#1f303a" />
,<rect x="4" y="5" width="1" height="1" fill="#1e313f" />
,<rect x="4" y="6" width="1" height="1" fill="#2a3c52" />
,<rect x="4" y="7" width="1" height="1" fill="#2a3747" />
,<rect x="4" y="8" width="1" height="1" fill="#2a3b45" />
,<rect x="4" y="9" width="1" height="1" fill="#273848" />
,<rect x="5" y="0" width="1" height="1" fill="#8c908f" />
,<rect x="5" y="1" width="1" height="1" fill="#74807c" />
,<rect x="5" y="2" width="1" height="1" fill="#435b67" />
,<rect x="5" y="3" width="1" height="1" fill="#283a50" />
,<rect x="5" y="4" width="1" height="1" fill="#253646" />
,<rect x="5" y="5" width="1" height="1" fill="#395f72" />
,<rect x="5" y="6" width="1" height="1" fill="#2b4657" />
,<rect x="5" y="7" width="1" height="1" fill="#27384a" />
,<rect x="5" y="8" width="1" height="1" fill="#253c4a" />
,<rect x="5" y="9" width="1" height="1" fill="#243748" />
,<rect x="6" y="0" width="1" height="1" fill="#92948f" />
,<rect x="6" y="1" width="1" height="1" fill="#989b92" />
,<rect x="6" y="2" width="1" height="1" fill="#647177" />
,<rect x="6" y="3" width="1" height="1" fill="#253a4d" />
,<rect x="6" y="4" width="1" height="1" fill="#213c4f" />
,<rect x="6" y="5" width="1" height="1" fill="#42687b" />
,<rect x="6" y="6" width="1" height="1" fill="#364f65" />
,<rect x="6" y="7" width="1" height="1" fill="#283848" />
,<rect x="6" y="8" width="1" height="1" fill="#324554" />
,<rect x="6" y="9" width="1" height="1" fill="#37454e" />
,<rect x="7" y="0" width="1" height="1" fill="#a5a397" />
,<rect x="7" y="1" width="1" height="1" fill="#9fa297" />
,<rect x="7" y="2" width="1" height="1" fill="#747c7f" />
,<rect x="7" y="3" width="1" height="1" fill="#1e2f3f" />
,<rect x="7" y="4" width="1" height="1" fill="#233543" />
,<rect x="7" y="5" width="1" height="1" fill="#415764" />
,<rect x="7" y="6" width="1" height="1" fill="#37535f" />
,<rect x="7" y="7" width="1" height="1" fill="#304250" />
,<rect x="7" y="8" width="1" height="1" fill="#3d4b54" />
,<rect x="7" y="9" width="1" height="1" fill="#43515a" />
,<rect x="8" y="0" width="1" height="1" fill="#a1a398" />
,<rect x="8" y="1" width="1" height="1" fill="#909189" />
,<rect x="8" y="2" width="1" height="1" fill="#4e5660" />
,<rect x="8" y="3" width="1" height="1" fill="#222939" />
,<rect x="8" y="4" width="1" height="1" fill="#293541" />
,<rect x="8" y="5" width="1" height="1" fill="#60747b" />
,<rect x="8" y="6" width="1" height="1" fill="#4c646c" />
,<rect x="8" y="7" width="1" height="1" fill="#2b3c46" />
,<rect x="8" y="8" width="1" height="1" fill="#3a444e" />
,<rect x="8" y="9" width="1" height="1" fill="#434e52" />
,<rect x="9" y="0" width="1" height="1" fill="#8d9190" />
,<rect x="9" y="1" width="1" height="1" fill="#3f515d" />
,<rect x="9" y="2" width="1" height="1" fill="#2a3a4a" />
,<rect x="9" y="3" width="1" height="1" fill="#28353e" />
,<rect x="9" y="4" width="1" height="1" fill="#3c4650" />
,<rect x="9" y="5" width="1" height="1" fill="#667e80" />
,<rect x="9" y="6" width="1" height="1" fill="#5f7077" />
,<rect x="9" y="7" width="1" height="1" fill="#374552" />
,<rect x="9" y="8" width="1" height="1" fill="#4d5b66" />
,<rect x="9" y="9" width="1" height="1" fill="#556469" />

  </g>
</svg>