<svg width="800" height="1000" version="1.1" xmlns="http://www.w3.org/2000/svg" xmlns:xlink="http://www.w3.org/1999/xlink">
  <defs>
      <linearGradient id="Gradient2" x1="0" x2="1" y1="0" y2="1">
        <stop offset="0%" stop-color="#2d3c96"/>
        <stop offset="100%" stop-color="#d53392"/>
      </linearGradient>
  </defs>
  <rect x="10" y="10" width="780" height="980" fill="url(#Gradient2)" rx="50" ry="50" stroke="#ffd700" stroke-width="20"/>
  <text x="400" y="920" width="780" text-anchor="middle" style="font: bold 200px 'Helvetica Neue'; fill: #ffd700">01502</text>

  <g transform="translate(80 80) scale(64)">
<rect x="0" y="0" width="1" height="1" fill="#ffffff" />
,<rect x="0" y="1" width="1" height="1" fill="#fefefe" />
,<rect x="0" y="2" width="1" height="1" fill="#7c7c7c" />
,<rect x="0" y="3" width="1" height="1" fill="#000000" />
,<rect x="0" y="4" width="1" height="1" fill="#000000" />
,<rect x="0" y="5" width="1" height="1" fill="#000000" />
,<rect x="0" y="6" width="1" height="1" fill="#000000" />
,<rect x="0" y="7" width="1" height="1" fill="#000000" />
,<rect x="0" y="8" width="1" height="1" fill="#000001" />
,<rect x="0" y="9" width="1" height="1" fill="#000001" />
,<rect x="1" y="0" width="1" height="1" fill="#fefefe" />
,<rect x="1" y="1" width="1" height="1" fill="#818181" />
,<rect x="1" y="2" width="1" height="1" fill="#22534a" />
,<rect x="1" y="3" width="1" height="1" fill="#005e65" />
,<rect x="1" y="4" width="1" height="1" fill="#003f7a" />
,<rect x="1" y="5" width="1" height="1" fill="#00356d" />
,<rect x="1" y="6" width="1" height="1" fill="#00636a" />
,<rect x="1" y="7" width="1" height="1" fill="#007d78" />
,<rect x="1" y="8" width="1" height="1" fill="#00738e" />
,<rect x="1" y="9" width="1" height="1" fill="#005c9a" />
,<rect x="2" y="0" width="1" height="1" fill="#7c7c7c" />
,<rect x="2" y="1" width="1" height="1" fill="#22483e" />
,<rect x="2" y="2" width="1" height="1" fill="#006b4f" />
,<rect x="2" y="3" width="1" height="1" fill="#00887d" />
,<rect x="2" y="4" width="1" height="1" fill="#005e98" />
,<rect x="2" y="5" width="1" height="1" fill="#0082b6" />
,<rect x="2" y="6" width="1" height="1" fill="#008b9f" />
,<rect x="2" y="7" width="1" height="1" fill="#0094a0" />
,<rect x="2" y="8" width="1" height="1" fill="#00a2bb" />
,<rect x="2" y="9" width="1" height="1" fill="#00b0d4" />
,<rect x="3" y="0" width="1" height="1" fill="#000000" />
,<rect x="3" y="1" width="1" height="1" fill="#005d56" />
,<rect x="3" y="2" width="1" height="1" fill="#009582" />
,<rect x="3" y="3" width="1" height="1" fill="#00897d" />
,<rect x="3" y="4" width="1" height="1" fill="#00607d" />
,<rect x="3" y="5" width="1" height="1" fill="#009bd0" />
,<rect x="3" y="6" width="1" height="1" fill="#008aab" />
,<rect x="3" y="7" width="1" height="1" fill="#00789f" />
,<rect x="3" y="8" width="1" height="1" fill="#0097ad" />
,<rect x="3" y="9" width="1" height="1" fill="#00d8af" />
,<rect x="4" y="0" width="1" height="1" fill="#000000" />
,<rect x="4" y="1" width="1" height="1" fill="#00677c" />
,<rect x="4" y="2" width="1" height="1" fill="#0095bc" />
,<rect x="4" y="3" width="1" height="1" fill="#0082ac" />
,<rect x="4" y="4" width="1" height="1" fill="#005f7e" />
,<rect x="4" y="5" width="1" height="1" fill="#0057be" />
,<rect x="4" y="6" width="1" height="1" fill="#0080a0" />
,<rect x="4" y="7" width="1" height="1" fill="#0074a0" />
,<rect x="4" y="8" width="1" height="1" fill="#007999" />
,<rect x="4" y="9" width="1" height="1" fill="#00ba63" />
,<rect x="5" y="0" width="1" height="1" fill="#000000" />
,<rect x="5" y="1" width="1" height="1" fill="#004773" />
,<rect x="5" y="2" width="1" height="1" fill="#005892" />
,<rect x="5" y="3" width="1" height="1" fill="#004290" />
,<rect x="5" y="4" width="1" height="1" fill="#0032a5" />
,<rect x="5" y="5" width="1" height="1" fill="#010e30" />
,<rect x="5" y="6" width="1" height="1" fill="#011013" />
,<rect x="5" y="7" width="1" height="1" fill="#010e15" />
,<rect x="5" y="8" width="1" height="1" fill="#010e14" />
,<rect x="5" y="9" width="1" height="1" fill="#01190b" />
,<rect x="6" y="0" width="1" height="1" fill="#000000" />
,<rect x="6" y="1" width="1" height="1" fill="#002d62" />
,<rect x="6" y="2" width="1" height="1" fill="#008081" />
,<rect x="6" y="3" width="1" height="1" fill="#00825e" />
,<rect x="6" y="4" width="1" height="1" fill="#0e2149" />
,<rect x="6" y="5" width="1" height="1" fill="#a1a2a7" />
,<rect x="6" y="6" width="1" height="1" fill="#b8b7b6" />
,<rect x="6" y="7" width="1" height="1" fill="#b7b6b5" />
,<rect x="6" y="8" width="1" height="1" fill="#b7b6b5" />
,<rect x="6" y="9" width="1" height="1" fill="#b7b5b6" />
,<rect x="7" y="0" width="1" height="1" fill="#000001" />
,<rect x="7" y="1" width="1" height="1" fill="#005e82" />
,<rect x="7" y="2" width="1" height="1" fill="#008d9a" />
,<rect x="7" y="3" width="1" height="1" fill="#00614e" />
,<rect x="7" y="4" width="1" height="1" fill="#191c19" />
,<rect x="7" y="5" width="1" height="1" fill="#e5e5e4" />
,<rect x="7" y="6" width="1" height="1" fill="#ffffff" />
,<rect x="7" y="7" width="1" height="1" fill="#ffffff" />
,<rect x="7" y="8" width="1" height="1" fill="#ffffff" />
,<rect x="7" y="9" width="1" height="1" fill="#ffffff" />
,<rect x="8" y="0" width="1" height="1" fill="#000001" />
,<rect x="8" y="1" width="1" height="1" fill="#008087" />
,<rect x="8" y="2" width="1" height="1" fill="#0083a5" />
,<rect x="8" y="3" width="1" height="1" fill="#002e5a" />
,<rect x="8" y="4" width="1" height="1" fill="#191a1c" />
,<rect x="8" y="5" width="1" height="1" fill="#e1e1e1" />
,<rect x="8" y="6" width="1" height="1" fill="#ffffff" />
,<rect x="8" y="7" width="1" height="1" fill="#ffffff" />
,<rect x="8" y="8" width="1" height="1" fill="#ffffff" />
,<rect x="8" y="9" width="1" height="1" fill="#ffffff" />
,<rect x="9" y="0" width="1" height="1" fill="#000000" />
,<rect x="9" y="1" width="1" height="1" fill="#00573e" />
,<rect x="9" y="2" width="1" height="1" fill="#008c83" />
,<rect x="9" y="3" width="1" height="1" fill="#006572" />
,<rect x="9" y="4" width="1" height="1" fill="#191c1c" />
,<rect x="9" y="5" width="1" height="1" fill="#e3e3e3" />
,<rect x="9" y="6" width="1" height="1" fill="#e3e3e3" />
,<rect x="9" y="7" width="1" height="1" fill="#696969" />
,<rect x="9" y="8" width="1" height="1" fill="#5d5d5d" />
,<rect x="9" y="9" width="1" height="1" fill="#737373" />

  </g>
</svg>