<svg width="800" height="1000" version="1.1" xmlns="http://www.w3.org/2000/svg" xmlns:xlink="http://www.w3.org/1999/xlink">
  <defs>
      <linearGradient id="Gradient2" x1="0" x2="1" y1="0" y2="1">
        <stop offset="0%" stop-color="#2d3c96"/>
        <stop offset="100%" stop-color="#d53392"/>
      </linearGradient>
  </defs>
  <rect x="10" y="10" width="780" height="980" fill="url(#Gradient2)" rx="50" ry="50" stroke="#ffd700" stroke-width="20"/>
  <text x="400" y="920" width="780" text-anchor="middle" style="font: bold 200px 'Helvetica Neue'; fill: #ffd700">01503</text>

  <g transform="translate(80 80) scale(64)">
<rect x="0" y="0" width="1" height="1" fill="#000000" /><rect x="1" y="0" width="1" height="1" fill="#000100" /><rect x="2" y="0" width="1" height="1" fill="#000000" /><rect x="3" y="0" width="1" height="1" fill="#000000" /><rect x="4" y="0" width="1" height="1" fill="#000100" /><rect x="5" y="0" width="1" height="1" fill="#000000" /><rect x="6" y="0" width="1" height="1" fill="#000000" /><rect x="7" y="0" width="1" height="1" fill="#7C7C7C" /><rect x="8" y="0" width="1" height="1" fill="#FEFEFE" /><rect x="9" y="0" width="1" height="1" fill="#FFFFFF" /><rect x="0" y="1" width="1" height="1" fill="#00773D" /><rect x="1" y="1" width="1" height="1" fill="#008071" /><rect x="2" y="1" width="1" height="1" fill="#006C6A" /><rect x="3" y="1" width="1" height="1" fill="#006558" /><rect x="4" y="1" width="1" height="1" fill="#008172" /><rect x="5" y="1" width="1" height="1" fill="#007A6B" /><rect x="6" y="1" width="1" height="1" fill="#007F80" /><rect x="7" y="1" width="1" height="1" fill="#225E63" /><rect x="8" y="1" width="1" height="1" fill="#818181" /><rect x="9" y="1" width="1" height="1" fill="#FEFEFE" /><rect x="0" y="2" width="1" height="1" fill="#00B9A0" /><rect x="1" y="2" width="1" height="1" fill="#009FC0" /><rect x="2" y="2" width="1" height="1" fill="#00A2A7" /><rect x="3" y="2" width="1" height="1" fill="#00BA85" /><rect x="4" y="2" width="1" height="1" fill="#00BB91" /><rect x="5" y="2" width="1" height="1" fill="#008991" /><rect x="6" y="2" width="1" height="1" fill="#008294" /><rect x="7" y="2" width="1" height="1" fill="#00716C" /><rect x="8" y="2" width="1" height="1" fill="#22644F" /><rect x="9" y="2" width="1" height="1" fill="#7C7C7C" /><rect x="0" y="3" width="1" height="1" fill="#00869B" /><rect x="1" y="3" width="1" height="1" fill="#005695" /><rect x="2" y="3" width="1" height="1" fill="#008597" /><rect x="3" y="3" width="1" height="1" fill="#00CA95" /><rect x="4" y="3" width="1" height="1" fill="#00BA7F" /><rect x="5" y="3" width="1" height="1" fill="#006B7C" /><rect x="6" y="3" width="1" height="1" fill="#006C84" /><rect x="7" y="3" width="1" height="1" fill="#009C9A" /><rect x="8" y="3" width="1" height="1" fill="#008676" /><rect x="9" y="3" width="1" height="1" fill="#000100" /><rect x="0" y="4" width="1" height="1" fill="#191E1F" /><rect x="1" y="4" width="1" height="1" fill="#191A1C" /><rect x="2" y="4" width="1" height="1" fill="#064963" /><rect x="3" y="4" width="1" height="1" fill="#00889E" /><rect x="4" y="4" width="1" height="1" fill="#00AB87" /><rect x="5" y="4" width="1" height="1" fill="#008673" /><rect x="6" y="4" width="1" height="1" fill="#00B3B5" /><rect x="7" y="4" width="1" height="1" fill="#00B9D8" /><rect x="8" y="4" width="1" height="1" fill="#007396" /><rect x="9" y="4" width="1" height="1" fill="#000001" /><rect x="0" y="5" width="1" height="1" fill="#E3E3E3" /><rect x="1" y="5" width="1" height="1" fill="#E4E4E4" /><rect x="2" y="5" width="1" height="1" fill="#747B7D" /><rect x="3" y="5" width="1" height="1" fill="#001F39" /><rect x="4" y="5" width="1" height="1" fill="#005B95" /><rect x="5" y="5" width="1" height="1" fill="#00969B" /><rect x="6" y="5" width="1" height="1" fill="#0091C5" /><rect x="7" y="5" width="1" height="1" fill="#0089C0" /><rect x="8" y="5" width="1" height="1" fill="#005D74" /><rect x="9" y="5" width="1" height="1" fill="#000000" /><rect x="0" y="6" width="1" height="1" fill="#E3E3E3" /><rect x="1" y="6" width="1" height="1" fill="#FFFFFF" /><rect x="2" y="6" width="1" height="1" fill="#DFDFDE" /><rect x="3" y="6" width="1" height="1" fill="#82858D" /><rect x="4" y="6" width="1" height="1" fill="#002834" /><rect x="5" y="6" width="1" height="1" fill="#00AB62" /><rect x="6" y="6" width="1" height="1" fill="#009CAD" /><rect x="7" y="6" width="1" height="1" fill="#0096A9" /><rect x="8" y="6" width="1" height="1" fill="#00705C" /><rect x="9" y="6" width="1" height="1" fill="#000000" /><rect x="0" y="7" width="1" height="1" fill="#696969" /><rect x="1" y="7" width="1" height="1" fill="#FFFFFF" /><rect x="2" y="7" width="1" height="1" fill="#FFFFFF" /><rect x="3" y="7" width="1" height="1" fill="#BAB8B8" /><rect x="4" y="7" width="1" height="1" fill="#010E0B" /><rect x="5" y="7" width="1" height="1" fill="#007B70" /><rect x="6" y="7" width="1" height="1" fill="#007982" /><rect x="7" y="7" width="1" height="1" fill="#008D96" /><rect x="8" y="7" width="1" height="1" fill="#007576" /><rect x="9" y="7" width="1" height="1" fill="#000000" /><rect x="0" y="8" width="1" height="1" fill="#5D5D5D" /><rect x="1" y="8" width="1" height="1" fill="#FFFFFF" /><rect x="2" y="8" width="1" height="1" fill="#FFFFFF" /><rect x="3" y="8" width="1" height="1" fill="#B7B6B5" /><rect x="4" y="8" width="1" height="1" fill="#010C15" /><rect x="5" y="8" width="1" height="1" fill="#006AA3" /><rect x="6" y="8" width="1" height="1" fill="#006C82" /><rect x="7" y="8" width="1" height="1" fill="#00749B" /><rect x="8" y="8" width="1" height="1" fill="#00588F" /><rect x="9" y="8" width="1" height="1" fill="#000001" /><rect x="0" y="9" width="1" height="1" fill="#737373" /><rect x="1" y="9" width="1" height="1" fill="#FFFFFF" /><rect x="2" y="9" width="1" height="1" fill="#FFFFFF" /><rect x="3" y="9" width="1" height="1" fill="#BAB8B8" /><rect x="4" y="9" width="1" height="1" fill="#011715" /><rect x="5" y="9" width="1" height="1" fill="#00B4B2" /><rect x="6" y="9" width="1" height="1" fill="#00A9B9" /><rect x="7" y="9" width="1" height="1" fill="#006BB4" /><rect x="8" y="9" width="1" height="1" fill="#002A7F" /><rect x="9" y="9" width="1" height="1" fill="#000001" />
  </g>
</svg>