<svg width="800" height="1000" version="1.1" xmlns="http://www.w3.org/2000/svg" xmlns:xlink="http://www.w3.org/1999/xlink">
  <defs>
      <linearGradient id="Gradient2" x1="0" x2="1" y1="0" y2="1">
        <stop offset="0%" stop-color="#2d3c96"/>
        <stop offset="100%" stop-color="#d53392"/>
      </linearGradient>
  </defs>
  <rect x="10" y="10" width="780" height="980" fill="url(#Gradient2)" rx="50" ry="50" stroke="#ffd700" stroke-width="20"/>
  <text x="400" y="920" width="780" text-anchor="middle" style="font: bold 200px 'Helvetica Neue'; fill: #ffd700">01509</text>

  <g transform="translate(80 80) scale(64)">
<rect x="0" y="0" width="1" height="1" fill="#6b727a" />
,<rect x="0" y="1" width="1" height="1" fill="#2b3747" />
,<rect x="0" y="2" width="1" height="1" fill="#343d4c" />
,<rect x="0" y="3" width="1" height="1" fill="#3a4750" />
,<rect x="0" y="4" width="1" height="1" fill="#928e83" />
,<rect x="0" y="5" width="1" height="1" fill="#8c938b" />
,<rect x="0" y="6" width="1" height="1" fill="#606d75" />
,<rect x="0" y="7" width="1" height="1" fill="#5c6b70" />
,<rect x="0" y="8" width="1" height="1" fill="#5a6b72" />
,<rect x="0" y="9" width="1" height="1" fill="#626f75" />
,<rect x="1" y="0" width="1" height="1" fill="#7c898f" />
,<rect x="1" y="1" width="1" height="1" fill="#3b4954" />
,<rect x="1" y="2" width="1" height="1" fill="#3a4652" />
,<rect x="1" y="3" width="1" height="1" fill="#7f817c" />
,<rect x="1" y="4" width="1" height="1" fill="#b3ab96" />
,<rect x="1" y="5" width="1" height="1" fill="#5b686e" />
,<rect x="1" y="6" width="1" height="1" fill="#45585e" />
,<rect x="1" y="7" width="1" height="1" fill="#54676e" />
,<rect x="1" y="8" width="1" height="1" fill="#556670" />
,<rect x="1" y="9" width="1" height="1" fill="#617077" />
,<rect x="2" y="0" width="1" height="1" fill="#828b90" />
,<rect x="2" y="1" width="1" height="1" fill="#536770" />
,<rect x="2" y="2" width="1" height="1" fill="#475860" />
,<rect x="2" y="3" width="1" height="1" fill="#9b988f" />
,<rect x="2" y="4" width="1" height="1" fill="#898c83" />
,<rect x="2" y="5" width="1" height="1" fill="#4d5a63" />
,<rect x="2" y="6" width="1" height="1" fill="#55686f" />
,<rect x="2" y="7" width="1" height="1" fill="#5d6e76" />
,<rect x="2" y="8" width="1" height="1" fill="#68777c" />
,<rect x="2" y="9" width="1" height="1" fill="#717f7f" />
,<rect x="3" y="0" width="1" height="1" fill="#647a87" />
,<rect x="3" y="1" width="1" height="1" fill="#3f565e" />
,<rect x="3" y="2" width="1" height="1" fill="#4b5a5f" />
,<rect x="3" y="3" width="1" height="1" fill="#9a9b8d" />
,<rect x="3" y="4" width="1" height="1" fill="#7c837b" />
,<rect x="3" y="5" width="1" height="1" fill="#58656b" />
,<rect x="3" y="6" width="1" height="1" fill="#6c7878" />
,<rect x="3" y="7" width="1" height="1" fill="#6f7a74" />
,<rect x="3" y="8" width="1" height="1" fill="#757b7b" />
,<rect x="3" y="9" width="1" height="1" fill="#7f8581" />
,<rect x="4" y="0" width="1" height="1" fill="#526e7c" />
,<rect x="4" y="1" width="1" height="1" fill="#415765" />
,<rect x="4" y="2" width="1" height="1" fill="#485963" />
,<rect x="4" y="3" width="1" height="1" fill="#aba58d" />
,<rect x="4" y="4" width="1" height="1" fill="#9d9e8c" />
,<rect x="4" y="5" width="1" height="1" fill="#627071" />
,<rect x="4" y="6" width="1" height="1" fill="#6a797e" />
,<rect x="4" y="7" width="1" height="1" fill="#808d83" />
,<rect x="4" y="8" width="1" height="1" fill="#8d8d81" />
,<rect x="4" y="9" width="1" height="1" fill="#96988b" />
,<rect x="5" y="0" width="1" height="1" fill="#667e8a" />
,<rect x="5" y="1" width="1" height="1" fill="#5d7b85" />
,<rect x="5" y="2" width="1" height="1" fill="#818d89" />
,<rect x="5" y="3" width="1" height="1" fill="#c2af91" />
,<rect x="5" y="4" width="1" height="1" fill="#949689" />
,<rect x="5" y="5" width="1" height="1" fill="#546263" />
,<rect x="5" y="6" width="1" height="1" fill="#5b6d71" />
,<rect x="5" y="7" width="1" height="1" fill="#798581" />
,<rect x="5" y="8" width="1" height="1" fill="#8e917e" />
,<rect x="5" y="9" width="1" height="1" fill="#9b9e8d" />
,<rect x="6" y="0" width="1" height="1" fill="#768990" />
,<rect x="6" y="1" width="1" height="1" fill="#658089" />
,<rect x="6" y="2" width="1" height="1" fill="#8c9791" />
,<rect x="6" y="3" width="1" height="1" fill="#bdab93" />
,<rect x="6" y="4" width="1" height="1" fill="#afad94" />
,<rect x="6" y="5" width="1" height="1" fill="#6d7979" />
,<rect x="6" y="6" width="1" height="1" fill="#3b4f5a" />
,<rect x="6" y="7" width="1" height="1" fill="#828982" />
,<rect x="6" y="8" width="1" height="1" fill="#a7a08c" />
,<rect x="6" y="9" width="1" height="1" fill="#a09d8a" />
,<rect x="7" y="0" width="1" height="1" fill="#748d92" />
,<rect x="7" y="1" width="1" height="1" fill="#798d8c" />
,<rect x="7" y="2" width="1" height="1" fill="#959c95" />
,<rect x="7" y="3" width="1" height="1" fill="#b4a98b" />
,<rect x="7" y="4" width="1" height="1" fill="#bab29d" />
,<rect x="7" y="5" width="1" height="1" fill="#baac8f" />
,<rect x="7" y="6" width="1" height="1" fill="#78817a" />
,<rect x="7" y="7" width="1" height="1" fill="#858b87" />
,<rect x="7" y="8" width="1" height="1" fill="#98968a" />
,<rect x="7" y="9" width="1" height="1" fill="#989989" />
,<rect x="8" y="0" width="1" height="1" fill="#8d938f" />
,<rect x="8" y="1" width="1" height="1" fill="#8e988d" />
,<rect x="8" y="2" width="1" height="1" fill="#99a090" />
,<rect x="8" y="3" width="1" height="1" fill="#b3ae91" />
,<rect x="8" y="4" width="1" height="1" fill="#bdb296" />
,<rect x="8" y="5" width="1" height="1" fill="#c0ad8d" />
,<rect x="8" y="6" width="1" height="1" fill="#aca589" />
,<rect x="8" y="7" width="1" height="1" fill="#9e9f91" />
,<rect x="8" y="8" width="1" height="1" fill="#9d9a91" />
,<rect x="8" y="9" width="1" height="1" fill="#8f9480" />
,<rect x="9" y="0" width="1" height="1" fill="#9aa092" />
,<rect x="9" y="1" width="1" height="1" fill="#a1a290" />
,<rect x="9" y="2" width="1" height="1" fill="#ada78f" />
,<rect x="9" y="3" width="1" height="1" fill="#b9af96" />
,<rect x="9" y="4" width="1" height="1" fill="#baab8a" />
,<rect x="9" y="5" width="1" height="1" fill="#bfab8a" />
,<rect x="9" y="6" width="1" height="1" fill="#bea98a" />
,<rect x="9" y="7" width="1" height="1" fill="#b4a88e" />
,<rect x="9" y="8" width="1" height="1" fill="#a5a08d" />
,<rect x="9" y="9" width="1" height="1" fill="#979684" />

  </g>
</svg>