<svg width="800" height="1000" xmlns="http://www.w3.org/2000/svg"><defs><linearGradient id="g" x1="0" x2="1" y1="0" y2="1"><stop offset="0%" stop-color="#2d3c96"/><stop offset="100%" stop-color="#d53392"/></linearGradient></defs><rect x="10" y="10" width="780" height="980" fill="url(#g)" rx="50" ry="50" stroke="gold" stroke-width="20"/><text x="400" y="920" width="780" text-anchor="middle" style="font:bold 200px 'Helvetica Neue';fill:gold">01510</text><g transform="translate(80 80) scale(64)"><rect x="0" y="0" width="1" height="1" fill="#9e9b8c" /><rect x="0" y="1" width="1" height="1" fill="#a5a38e" /><rect x="0" y="2" width="1" height="1" fill="#aeab9a" /><rect x="0" y="3" width="1" height="1" fill="#bcac92" /><rect x="0" y="4" width="1" height="1" fill="#baab8c" /><rect x="0" y="5" width="1" height="1" fill="#b6a989" /><rect x="0" y="6" width="1" height="1" fill="#b5a687" /><rect x="0" y="7" width="1" height="1" fill="#b6a684" /><rect x="0" y="8" width="1" height="1" fill="#b3a986" /><rect x="0" y="9" width="1" height="1" fill="#a9a38b" /><rect x="1" y="0" width="1" height="1" fill="#9d9586" /><rect x="1" y="1" width="1" height="1" fill="#b6aa90" /><rect x="1" y="2" width="1" height="1" fill="#b4aa91" /><rect x="1" y="3" width="1" height="1" fill="#b6ac91" /><rect x="1" y="4" width="1" height="1" fill="#b9ab90" /><rect x="1" y="5" width="1" height="1" fill="#b4aa8f" /><rect x="1" y="6" width="1" height="1" fill="#b1a688" /><rect x="1" y="7" width="1" height="1" fill="#b4a385" /><rect x="1" y="8" width="1" height="1" fill="#aca289" /><rect x="1" y="9" width="1" height="1" fill="#a49f89" /><rect x="2" y="0" width="1" height="1" fill="#949889" /><rect x="2" y="1" width="1" height="1" fill="#959789" /><rect x="2" y="2" width="1" height="1" fill="#aba58d" /><rect x="2" y="3" width="1" height="1" fill="#baaa90" /><rect x="2" y="4" width="1" height="1" fill="#baac8f" /><rect x="2" y="5" width="1" height="1" fill="#b9a88e" /><rect x="2" y="6" width="1" height="1" fill="#b2a88c" /><rect x="2" y="7" width="1" height="1" fill="#b1a187" /><rect x="2" y="8" width="1" height="1" fill="#aaa085" /><rect x="2" y="9" width="1" height="1" fill="#a7a388" /><rect x="3" y="0" width="1" height="1" fill="#7c817a" /><rect x="3" y="1" width="1" height="1" fill="#9f9e8c" /><rect x="3" y="2" width="1" height="1" fill="#a59f8f" /><rect x="3" y="3" width="1" height="1" fill="#b9ad93" /><rect x="3" y="4" width="1" height="1" fill="#b2a88c" /><rect x="3" y="5" width="1" height="1" fill="#b6a587" /><rect x="3" y="6" width="1" height="1" fill="#aaa48c" /><rect x="3" y="7" width="1" height="1" fill="#ada187" /><rect x="3" y="8" width="1" height="1" fill="#b2a585" /><rect x="3" y="9" width="1" height="1" fill="#b6a88b" /><rect x="4" y="0" width="1" height="1" fill="#4e6269" /><rect x="4" y="1" width="1" height="1" fill="#697b7b" /><rect x="4" y="2" width="1" height="1" fill="#a7a28e" /><rect x="4" y="3" width="1" height="1" fill="#c0ac93" /><rect x="4" y="4" width="1" height="1" fill="#aaa48a" /><rect x="4" y="5" width="1" height="1" fill="#a59e84" /><rect x="4" y="6" width="1" height="1" fill="#959281" /><rect x="4" y="7" width="1" height="1" fill="#9a9889" /><rect x="4" y="8" width="1" height="1" fill="#a59f89" /><rect x="4" y="9" width="1" height="1" fill="#a49f8c" /><rect x="5" y="0" width="1" height="1" fill="#556c72" /><rect x="5" y="1" width="1" height="1" fill="#41545b" /><rect x="5" y="2" width="1" height="1" fill="#7f8b7f" /><rect x="5" y="3" width="1" height="1" fill="#bcae94" /><rect x="5" y="4" width="1" height="1" fill="#b3a58a" /><rect x="5" y="5" width="1" height="1" fill="#8a9380" /><rect x="5" y="6" width="1" height="1" fill="#9e9880" /><rect x="5" y="7" width="1" height="1" fill="#959883" /><rect x="5" y="8" width="1" height="1" fill="#7c9286" /><rect x="5" y="9" width="1" height="1" fill="#89958b" /><rect x="6" y="0" width="1" height="1" fill="#708080" /><rect x="6" y="1" width="1" height="1" fill="#5d6663" /><rect x="6" y="2" width="1" height="1" fill="#3f5c64" /><rect x="6" y="3" width="1" height="1" fill="#9c9e89" /><rect x="6" y="4" width="1" height="1" fill="#afa389" /><rect x="6" y="5" width="1" height="1" fill="#596e6f" /><rect x="6" y="6" width="1" height="1" fill="#a2a089" /><rect x="6" y="7" width="1" height="1" fill="#88988b" /><rect x="6" y="8" width="1" height="1" fill="#598584" /><rect x="6" y="9" width="1" height="1" fill="#758a85" /><rect x="7" y="0" width="1" height="1" fill="#636f6f" /><rect x="7" y="1" width="1" height="1" fill="#707070" /><rect x="7" y="2" width="1" height="1" fill="#35515c" /><rect x="7" y="3" width="1" height="1" fill="#979982" /><rect x="7" y="4" width="1" height="1" fill="#7f8d80" /><rect x="7" y="5" width="1" height="1" fill="#305963" /><rect x="7" y="6" width="1" height="1" fill="#6d8882" /><rect x="7" y="7" width="1" height="1" fill="#8d9b8c" /><rect x="7" y="8" width="1" height="1" fill="#5c7f83" /><rect x="7" y="9" width="1" height="1" fill="#486e79" /><rect x="8" y="0" width="1" height="1" fill="#80857f" /><rect x="8" y="1" width="1" height="1" fill="#64696d" /><rect x="8" y="2" width="1" height="1" fill="#2d4452" /><rect x="8" y="3" width="1" height="1" fill="#818b82" /><rect x="8" y="4" width="1" height="1" fill="#6a8282" /><rect x="8" y="5" width="1" height="1" fill="#1d475d" /><rect x="8" y="6" width="1" height="1" fill="#55737d" /><rect x="8" y="7" width="1" height="1" fill="#7d998d" /><rect x="8" y="8" width="1" height="1" fill="#6d8d8a" /><rect x="8" y="9" width="1" height="1" fill="#57737f" /><rect x="9" y="0" width="1" height="1" fill="#8d897d" /><rect x="9" y="1" width="1" height="1" fill="#51646a" /><rect x="9" y="2" width="1" height="1" fill="#30444f" /><rect x="9" y="3" width="1" height="1" fill="#6f7c73" /><rect x="9" y="4" width="1" height="1" fill="#9b9c8e" /><rect x="9" y="5" width="1" height="1" fill="#4f6d75" /><rect x="9" y="6" width="1" height="1" fill="#4e757c" /><rect x="9" y="7" width="1" height="1" fill="#839388" /><rect x="9" y="8" width="1" height="1" fill="#648a8a" /><rect x="9" y="9" width="1" height="1" fill="#718584" /></g></svg>