<svg width="800" height="1000" version="1.1" xmlns="http://www.w3.org/2000/svg" xmlns:xlink="http://www.w3.org/1999/xlink">
  <defs>
      <linearGradient id="Gradient2" x1="0" x2="1" y1="0" y2="1">
        <stop offset="0%" stop-color="#2d3c96"/>
        <stop offset="100%" stop-color="#d53392"/>
      </linearGradient>
  </defs>
  <rect x="10" y="10" width="780" height="980" fill="url(#Gradient2)" rx="50" ry="50" stroke="#ffd700" stroke-width="20"/>
  <text x="400" y="920" width="780" text-anchor="middle" style="font: bold 200px 'Helvetica Neue'; fill: #ffd700">01510</text>

  <g transform="translate(80 80) scale(64)">
<rect x="0" y="0" width="1" height="1" fill="#9E9B8C" /><rect x="1" y="0" width="1" height="1" fill="#9D9586" /><rect x="2" y="0" width="1" height="1" fill="#949889" /><rect x="3" y="0" width="1" height="1" fill="#7C817A" /><rect x="4" y="0" width="1" height="1" fill="#4E6269" /><rect x="5" y="0" width="1" height="1" fill="#556C72" /><rect x="6" y="0" width="1" height="1" fill="#708080" /><rect x="7" y="0" width="1" height="1" fill="#636F6F" /><rect x="8" y="0" width="1" height="1" fill="#80857F" /><rect x="9" y="0" width="1" height="1" fill="#8D897D" /><rect x="0" y="1" width="1" height="1" fill="#A5A38E" /><rect x="1" y="1" width="1" height="1" fill="#B6AA90" /><rect x="2" y="1" width="1" height="1" fill="#959789" /><rect x="3" y="1" width="1" height="1" fill="#9F9E8C" /><rect x="4" y="1" width="1" height="1" fill="#697B7B" /><rect x="5" y="1" width="1" height="1" fill="#41545B" /><rect x="6" y="1" width="1" height="1" fill="#5D6663" /><rect x="7" y="1" width="1" height="1" fill="#707070" /><rect x="8" y="1" width="1" height="1" fill="#64696D" /><rect x="9" y="1" width="1" height="1" fill="#51646A" /><rect x="0" y="2" width="1" height="1" fill="#AEAB9A" /><rect x="1" y="2" width="1" height="1" fill="#B4AA91" /><rect x="2" y="2" width="1" height="1" fill="#ABA58D" /><rect x="3" y="2" width="1" height="1" fill="#A59F8F" /><rect x="4" y="2" width="1" height="1" fill="#A7A28E" /><rect x="5" y="2" width="1" height="1" fill="#7F8B7F" /><rect x="6" y="2" width="1" height="1" fill="#3F5C64" /><rect x="7" y="2" width="1" height="1" fill="#35515C" /><rect x="8" y="2" width="1" height="1" fill="#2D4452" /><rect x="9" y="2" width="1" height="1" fill="#30444F" /><rect x="0" y="3" width="1" height="1" fill="#BCAC92" /><rect x="1" y="3" width="1" height="1" fill="#B6AC91" /><rect x="2" y="3" width="1" height="1" fill="#BAAA90" /><rect x="3" y="3" width="1" height="1" fill="#B9AD93" /><rect x="4" y="3" width="1" height="1" fill="#C0AC93" /><rect x="5" y="3" width="1" height="1" fill="#BCAE94" /><rect x="6" y="3" width="1" height="1" fill="#9C9E89" /><rect x="7" y="3" width="1" height="1" fill="#979982" /><rect x="8" y="3" width="1" height="1" fill="#818B82" /><rect x="9" y="3" width="1" height="1" fill="#6F7C73" /><rect x="0" y="4" width="1" height="1" fill="#BAAB8C" /><rect x="1" y="4" width="1" height="1" fill="#B9AB90" /><rect x="2" y="4" width="1" height="1" fill="#BAAC8F" /><rect x="3" y="4" width="1" height="1" fill="#B2A88C" /><rect x="4" y="4" width="1" height="1" fill="#AAA48A" /><rect x="5" y="4" width="1" height="1" fill="#B3A58A" /><rect x="6" y="4" width="1" height="1" fill="#AFA389" /><rect x="7" y="4" width="1" height="1" fill="#7F8D80" /><rect x="8" y="4" width="1" height="1" fill="#6A8282" /><rect x="9" y="4" width="1" height="1" fill="#9B9C8E" /><rect x="0" y="5" width="1" height="1" fill="#B6A989" /><rect x="1" y="5" width="1" height="1" fill="#B4AA8F" /><rect x="2" y="5" width="1" height="1" fill="#B9A88E" /><rect x="3" y="5" width="1" height="1" fill="#B6A587" /><rect x="4" y="5" width="1" height="1" fill="#A59E84" /><rect x="5" y="5" width="1" height="1" fill="#8A9380" /><rect x="6" y="5" width="1" height="1" fill="#596E6F" /><rect x="7" y="5" width="1" height="1" fill="#305963" /><rect x="8" y="5" width="1" height="1" fill="#1D475D" /><rect x="9" y="5" width="1" height="1" fill="#4F6D75" /><rect x="0" y="6" width="1" height="1" fill="#B5A687" /><rect x="1" y="6" width="1" height="1" fill="#B1A688" /><rect x="2" y="6" width="1" height="1" fill="#B2A88C" /><rect x="3" y="6" width="1" height="1" fill="#AAA48C" /><rect x="4" y="6" width="1" height="1" fill="#959281" /><rect x="5" y="6" width="1" height="1" fill="#9E9880" /><rect x="6" y="6" width="1" height="1" fill="#A2A089" /><rect x="7" y="6" width="1" height="1" fill="#6D8882" /><rect x="8" y="6" width="1" height="1" fill="#55737D" /><rect x="9" y="6" width="1" height="1" fill="#4E757C" /><rect x="0" y="7" width="1" height="1" fill="#B6A684" /><rect x="1" y="7" width="1" height="1" fill="#B4A385" /><rect x="2" y="7" width="1" height="1" fill="#B1A187" /><rect x="3" y="7" width="1" height="1" fill="#ADA187" /><rect x="4" y="7" width="1" height="1" fill="#9A9889" /><rect x="5" y="7" width="1" height="1" fill="#959883" /><rect x="6" y="7" width="1" height="1" fill="#88988B" /><rect x="7" y="7" width="1" height="1" fill="#8D9B8C" /><rect x="8" y="7" width="1" height="1" fill="#7D998D" /><rect x="9" y="7" width="1" height="1" fill="#839388" /><rect x="0" y="8" width="1" height="1" fill="#B3A986" /><rect x="1" y="8" width="1" height="1" fill="#ACA289" /><rect x="2" y="8" width="1" height="1" fill="#AAA085" /><rect x="3" y="8" width="1" height="1" fill="#B2A585" /><rect x="4" y="8" width="1" height="1" fill="#A59F89" /><rect x="5" y="8" width="1" height="1" fill="#7C9286" /><rect x="6" y="8" width="1" height="1" fill="#598584" /><rect x="7" y="8" width="1" height="1" fill="#5C7F83" /><rect x="8" y="8" width="1" height="1" fill="#6D8D8A" /><rect x="9" y="8" width="1" height="1" fill="#648A8A" /><rect x="0" y="9" width="1" height="1" fill="#A9A38B" /><rect x="1" y="9" width="1" height="1" fill="#A49F89" /><rect x="2" y="9" width="1" height="1" fill="#A7A388" /><rect x="3" y="9" width="1" height="1" fill="#B6A88B" /><rect x="4" y="9" width="1" height="1" fill="#A49F8C" /><rect x="5" y="9" width="1" height="1" fill="#89958B" /><rect x="6" y="9" width="1" height="1" fill="#758A85" /><rect x="7" y="9" width="1" height="1" fill="#486E79" /><rect x="8" y="9" width="1" height="1" fill="#57737F" /><rect x="9" y="9" width="1" height="1" fill="#718584" />
  </g>
</svg>