<svg width="800" height="1000" version="1.1" xmlns="http://www.w3.org/2000/svg" xmlns:xlink="http://www.w3.org/1999/xlink">
  <defs>
      <linearGradient id="Gradient2" x1="0" x2="1" y1="0" y2="1">
        <stop offset="0%" stop-color="#2d3c96"/>
        <stop offset="100%" stop-color="#d53392"/>
      </linearGradient>
  </defs>
  <rect x="10" y="10" width="780" height="980" fill="url(#Gradient2)" rx="50" ry="50" stroke="#ffd700" stroke-width="20"/>
  <text x="400" y="920" width="780" text-anchor="middle" style="font: bold 200px 'Helvetica Neue'; fill: #ffd700">01511</text>

  <g transform="translate(80 80) scale(64)">
<rect x="0" y="0" width="1" height="1" fill="#929286" /><rect x="1" y="0" width="1" height="1" fill="#98948B" /><rect x="2" y="0" width="1" height="1" fill="#A29784" /><rect x="3" y="0" width="1" height="1" fill="#657372" /><rect x="4" y="0" width="1" height="1" fill="#445660" /><rect x="5" y="0" width="1" height="1" fill="#425B62" /><rect x="6" y="0" width="1" height="1" fill="#3B4F56" /><rect x="7" y="0" width="1" height="1" fill="#30444F" /><rect x="8" y="0" width="1" height="1" fill="#3A4E57" /><rect x="9" y="0" width="1" height="1" fill="#2A3D43" /><rect x="0" y="1" width="1" height="1" fill="#646E70" /><rect x="1" y="1" width="1" height="1" fill="#687470" /><rect x="2" y="1" width="1" height="1" fill="#6F7777" /><rect x="3" y="1" width="1" height="1" fill="#6F7779" /><rect x="4" y="1" width="1" height="1" fill="#6C7578" /><rect x="5" y="1" width="1" height="1" fill="#58676C" /><rect x="6" y="1" width="1" height="1" fill="#465B60" /><rect x="7" y="1" width="1" height="1" fill="#485D5E" /><rect x="8" y="1" width="1" height="1" fill="#495C62" /><rect x="9" y="1" width="1" height="1" fill="#425158" /><rect x="0" y="2" width="1" height="1" fill="#3B484E" /><rect x="1" y="2" width="1" height="1" fill="#455964" /><rect x="2" y="2" width="1" height="1" fill="#40545F" /><rect x="3" y="2" width="1" height="1" fill="#3F535A" /><rect x="4" y="2" width="1" height="1" fill="#4F5C62" /><rect x="5" y="2" width="1" height="1" fill="#5C676D" /><rect x="6" y="2" width="1" height="1" fill="#55666D" /><rect x="7" y="2" width="1" height="1" fill="#3C5B6D" /><rect x="8" y="2" width="1" height="1" fill="#41636C" /><rect x="9" y="2" width="1" height="1" fill="#596768" /><rect x="0" y="3" width="1" height="1" fill="#486064" /><rect x="1" y="3" width="1" height="1" fill="#355059" /><rect x="2" y="3" width="1" height="1" fill="#34525D" /><rect x="3" y="3" width="1" height="1" fill="#32505B" /><rect x="4" y="3" width="1" height="1" fill="#304B56" /><rect x="5" y="3" width="1" height="1" fill="#364751" /><rect x="6" y="3" width="1" height="1" fill="#314550" /><rect x="7" y="3" width="1" height="1" fill="#354954" /><rect x="8" y="3" width="1" height="1" fill="#4D5E65" /><rect x="9" y="3" width="1" height="1" fill="#5C6568" /><rect x="0" y="4" width="1" height="1" fill="#657B79" /><rect x="1" y="4" width="1" height="1" fill="#3C626B" /><rect x="2" y="4" width="1" height="1" fill="#365D6C" /><rect x="3" y="4" width="1" height="1" fill="#365E68" /><rect x="4" y="4" width="1" height="1" fill="#30576C" /><rect x="5" y="4" width="1" height="1" fill="#2E4F62" /><rect x="6" y="4" width="1" height="1" fill="#354F5C" /><rect x="7" y="4" width="1" height="1" fill="#394B55" /><rect x="8" y="4" width="1" height="1" fill="#384C53" /><rect x="9" y="4" width="1" height="1" fill="#647676" /><rect x="0" y="5" width="1" height="1" fill="#4E6A6E" /><rect x="1" y="5" width="1" height="1" fill="#42656B" /><rect x="2" y="5" width="1" height="1" fill="#406A78" /><rect x="3" y="5" width="1" height="1" fill="#395F68" /><rect x="4" y="5" width="1" height="1" fill="#3F6572" /><rect x="5" y="5" width="1" height="1" fill="#355F6F" /><rect x="6" y="5" width="1" height="1" fill="#395360" /><rect x="7" y="5" width="1" height="1" fill="#354D59" /><rect x="8" y="5" width="1" height="1" fill="#39565E" /><rect x="9" y="5" width="1" height="1" fill="#2F5464" /><rect x="0" y="6" width="1" height="1" fill="#253F50" /><rect x="1" y="6" width="1" height="1" fill="#132A3C" /><rect x="2" y="6" width="1" height="1" fill="#1B3240" /><rect x="3" y="6" width="1" height="1" fill="#213141" /><rect x="4" y="6" width="1" height="1" fill="#243441" /><rect x="5" y="6" width="1" height="1" fill="#1D3744" /><rect x="6" y="6" width="1" height="1" fill="#283F4D" /><rect x="7" y="6" width="1" height="1" fill="#2C4351" /><rect x="8" y="6" width="1" height="1" fill="#2C515A" /><rect x="9" y="6" width="1" height="1" fill="#355A6C" /><rect x="0" y="7" width="1" height="1" fill="#6D807E" /><rect x="1" y="7" width="1" height="1" fill="#243F50" /><rect x="2" y="7" width="1" height="1" fill="#192A3E" /><rect x="3" y="7" width="1" height="1" fill="#1C2F3D" /><rect x="4" y="7" width="1" height="1" fill="#243745" /><rect x="5" y="7" width="1" height="1" fill="#1D3041" /><rect x="6" y="7" width="1" height="1" fill="#162635" /><rect x="7" y="7" width="1" height="1" fill="#1B2E3C" /><rect x="8" y="7" width="1" height="1" fill="#13293E" /><rect x="9" y="7" width="1" height="1" fill="#4D646C" /><rect x="0" y="8" width="1" height="1" fill="#728886" /><rect x="1" y="8" width="1" height="1" fill="#62757C" /><rect x="2" y="8" width="1" height="1" fill="#1D3C4E" /><rect x="3" y="8" width="1" height="1" fill="#263646" /><rect x="4" y="8" width="1" height="1" fill="#283F4D" /><rect x="5" y="8" width="1" height="1" fill="#274A5D" /><rect x="6" y="8" width="1" height="1" fill="#254959" /><rect x="7" y="8" width="1" height="1" fill="#2E4D5F" /><rect x="8" y="8" width="1" height="1" fill="#2B4A5F" /><rect x="9" y="8" width="1" height="1" fill="#4F6C74" /><rect x="0" y="9" width="1" height="1" fill="#3D6171" /><rect x="1" y="9" width="1" height="1" fill="#486B6F" /><rect x="2" y="9" width="1" height="1" fill="#44656C" /><rect x="3" y="9" width="1" height="1" fill="#345163" /><rect x="4" y="9" width="1" height="1" fill="#25485E" /><rect x="5" y="9" width="1" height="1" fill="#2B586F" /><rect x="6" y="9" width="1" height="1" fill="#306178" /><rect x="7" y="9" width="1" height="1" fill="#2C5767" /><rect x="8" y="9" width="1" height="1" fill="#2D4E5D" /><rect x="9" y="9" width="1" height="1" fill="#46646F" />
  </g>
</svg>