<svg width="800" height="1000" version="1.1" xmlns="http://www.w3.org/2000/svg" xmlns:xlink="http://www.w3.org/1999/xlink">
  <defs>
      <linearGradient id="Gradient2" x1="0" x2="1" y1="0" y2="1">
        <stop offset="0%" stop-color="#2d3c96"/>
        <stop offset="100%" stop-color="#d53392"/>
      </linearGradient>
  </defs>
  <rect x="10" y="10" width="780" height="980" fill="url(#Gradient2)" rx="50" ry="50" stroke="#ffd700" stroke-width="20"/>
  <text x="400" y="920" width="780" text-anchor="middle" style="font: bold 200px 'Helvetica Neue'; fill: #ffd700">01526</text>

  <g transform="translate(80 80) scale(64)">
<rect x="0" y="0" width="1" height="1" fill="#73edd8" />
,<rect x="0" y="1" width="1" height="1" fill="#6eeddc" />
,<rect x="0" y="2" width="1" height="1" fill="#62e8e1" />
,<rect x="0" y="3" width="1" height="1" fill="#65efef" />
,<rect x="0" y="4" width="1" height="1" fill="#55dfe1" />
,<rect x="0" y="5" width="1" height="1" fill="#53dde0" />
,<rect x="0" y="6" width="1" height="1" fill="#5de2e7" />
,<rect x="0" y="7" width="1" height="1" fill="#5ee1e9" />
,<rect x="0" y="8" width="1" height="1" fill="#55d8e2" />
,<rect x="0" y="9" width="1" height="1" fill="#54d4e1" />
,<rect x="1" y="0" width="1" height="1" fill="#89e6db" />
,<rect x="1" y="1" width="1" height="1" fill="#84e5dc" />
,<rect x="1" y="2" width="1" height="1" fill="#79e1e0" />
,<rect x="1" y="3" width="1" height="1" fill="#6fdbde" />
,<rect x="1" y="4" width="1" height="1" fill="#7de9ec" />
,<rect x="1" y="5" width="1" height="1" fill="#6dd8de" />
,<rect x="1" y="6" width="1" height="1" fill="#6fd6df" />
,<rect x="1" y="7" width="1" height="1" fill="#73d7e4" />
,<rect x="1" y="8" width="1" height="1" fill="#71d5e4" />
,<rect x="1" y="9" width="1" height="1" fill="#72d6e5" />
,<rect x="2" y="0" width="1" height="1" fill="#5e848d" />
,<rect x="2" y="1" width="1" height="1" fill="#5c848e" />
,<rect x="2" y="2" width="1" height="1" fill="#54808b" />
,<rect x="2" y="3" width="1" height="1" fill="#578690" />
,<rect x="2" y="4" width="1" height="1" fill="#578690" />
,<rect x="2" y="5" width="1" height="1" fill="#537f8c" />
,<rect x="2" y="6" width="1" height="1" fill="#3e6979" />
,<rect x="2" y="7" width="1" height="1" fill="#396274" />
,<rect x="2" y="8" width="1" height="1" fill="#43697e" />
,<rect x="2" y="9" width="1" height="1" fill="#486e83" />
,<rect x="3" y="0" width="1" height="1" fill="#c0c9d8" />
,<rect x="3" y="1" width="1" height="1" fill="#c0c9d8" />
,<rect x="3" y="2" width="1" height="1" fill="#bfcbd7" />
,<rect x="3" y="3" width="1" height="1" fill="#c3cfdb" />
,<rect x="3" y="4" width="1" height="1" fill="#b5c1cd" />
,<rect x="3" y="5" width="1" height="1" fill="#c4cddc" />
,<rect x="3" y="6" width="1" height="1" fill="#9198aa" />
,<rect x="3" y="7" width="1" height="1" fill="#9299ac" />
,<rect x="3" y="8" width="1" height="1" fill="#acb1c7" />
,<rect x="3" y="9" width="1" height="1" fill="#797e94" />
,<rect x="4" y="0" width="1" height="1" fill="#c1cbcd" />
,<rect x="4" y="1" width="1" height="1" fill="#c1cbcd" />
,<rect x="4" y="2" width="1" height="1" fill="#c0c7cd" />
,<rect x="4" y="3" width="1" height="1" fill="#c0c5cb" />
,<rect x="4" y="4" width="1" height="1" fill="#c6c9d2" />
,<rect x="4" y="5" width="1" height="1" fill="#c6c6d2" />
,<rect x="4" y="6" width="1" height="1" fill="#c2c1cf" />
,<rect x="4" y="7" width="1" height="1" fill="#c4c1d2" />
,<rect x="4" y="8" width="1" height="1" fill="#c7c2d6" />
,<rect x="4" y="9" width="1" height="1" fill="#ccc7db" />
,<rect x="5" y="0" width="1" height="1" fill="#939c9b" />
,<rect x="5" y="1" width="1" height="1" fill="#949a9a" />
,<rect x="5" y="2" width="1" height="1" fill="#9ca0a1" />
,<rect x="5" y="3" width="1" height="1" fill="#909195" />
,<rect x="5" y="4" width="1" height="1" fill="#a09fa7" />
,<rect x="5" y="5" width="1" height="1" fill="#9795a0" />
,<rect x="5" y="6" width="1" height="1" fill="#9895a0" />
,<rect x="5" y="7" width="1" height="1" fill="#a29baa" />
,<rect x="5" y="8" width="1" height="1" fill="#a198a9" />
,<rect x="5" y="9" width="1" height="1" fill="#92899c" />
,<rect x="6" y="0" width="1" height="1" fill="#b7bcc0" />
,<rect x="6" y="1" width="1" height="1" fill="#b6bbbe" />
,<rect x="6" y="2" width="1" height="1" fill="#b9bec1" />
,<rect x="6" y="3" width="1" height="1" fill="#bdc1c4" />
,<rect x="6" y="4" width="1" height="1" fill="#babbc0" />
,<rect x="6" y="5" width="1" height="1" fill="#b8b8c0" />
,<rect x="6" y="6" width="1" height="1" fill="#bdbbc8" />
,<rect x="6" y="7" width="1" height="1" fill="#bdb9c8" />
,<rect x="6" y="8" width="1" height="1" fill="#bab3c5" />
,<rect x="6" y="9" width="1" height="1" fill="#c0b9cb" />
,<rect x="7" y="0" width="1" height="1" fill="#dde0e9" />
,<rect x="7" y="1" width="1" height="1" fill="#dde0e7" />
,<rect x="7" y="2" width="1" height="1" fill="#d6dbde" />
,<rect x="7" y="3" width="1" height="1" fill="#dde2e5" />
,<rect x="7" y="4" width="1" height="1" fill="#d8dbe0" />
,<rect x="7" y="5" width="1" height="1" fill="#e0e0e8" />
,<rect x="7" y="6" width="1" height="1" fill="#dbd9e6" />
,<rect x="7" y="7" width="1" height="1" fill="#dcd8e9" />
,<rect x="7" y="8" width="1" height="1" fill="#e3def2" />
,<rect x="7" y="9" width="1" height="1" fill="#e3dbf0" />
,<rect x="8" y="0" width="1" height="1" fill="#d7d5e3" />
,<rect x="8" y="1" width="1" height="1" fill="#e2e2ec" />
,<rect x="8" y="2" width="1" height="1" fill="#dbe0e4" />
,<rect x="8" y="3" width="1" height="1" fill="#e0e8ea" />
,<rect x="8" y="4" width="1" height="1" fill="#d9dce1" />
,<rect x="8" y="5" width="1" height="1" fill="#dcdce6" />
,<rect x="8" y="6" width="1" height="1" fill="#e0deec" />
,<rect x="8" y="7" width="1" height="1" fill="#e0dbef" />
,<rect x="8" y="8" width="1" height="1" fill="#e0dbf1" />
,<rect x="8" y="9" width="1" height="1" fill="#dfd7ef" />
,<rect x="9" y="0" width="1" height="1" fill="#706c7d" />
,<rect x="9" y="1" width="1" height="1" fill="#d4d4e0" />
,<rect x="9" y="2" width="1" height="1" fill="#d7dce0" />
,<rect x="9" y="3" width="1" height="1" fill="#d7dfe1" />
,<rect x="9" y="4" width="1" height="1" fill="#dde0e5" />
,<rect x="9" y="5" width="1" height="1" fill="#b9b9c3" />
,<rect x="9" y="6" width="1" height="1" fill="#9593a1" />
,<rect x="9" y="7" width="1" height="1" fill="#8d889c" />
,<rect x="9" y="8" width="1" height="1" fill="#948ea6" />
,<rect x="9" y="9" width="1" height="1" fill="#9c93ae" />

  </g>
</svg>