<svg width="800" height="1000" version="1.1" xmlns="http://www.w3.org/2000/svg" xmlns:xlink="http://www.w3.org/1999/xlink">
  <defs>
      <linearGradient id="Gradient2" x1="0" x2="1" y1="0" y2="1">
        <stop offset="0%" stop-color="#2d3c96"/>
        <stop offset="100%" stop-color="#d53392"/>
      </linearGradient>
  </defs>
  <rect x="10" y="10" width="780" height="980" fill="url(#Gradient2)" rx="50" ry="50" stroke="#ffd700" stroke-width="20"/>
  <text x="400" y="920" width="780" text-anchor="middle" style="font: bold 200px 'Helvetica Neue'; fill: #ffd700">01528</text>

  <g transform="translate(80 80) scale(64)">
<rect x="0" y="0" width="1" height="1" fill="#BA8C74" /><rect x="1" y="0" width="1" height="1" fill="#C6947B" /><rect x="2" y="0" width="1" height="1" fill="#B38E7E" /><rect x="3" y="0" width="1" height="1" fill="#9F827A" /><rect x="4" y="0" width="1" height="1" fill="#63484D" /><rect x="5" y="0" width="1" height="1" fill="#A88782" /><rect x="6" y="0" width="1" height="1" fill="#C48D6E" /><rect x="7" y="0" width="1" height="1" fill="#BB8D73" /><rect x="8" y="0" width="1" height="1" fill="#827C8A" /><rect x="9" y="0" width="1" height="1" fill="#344267" /><rect x="0" y="1" width="1" height="1" fill="#B58368" /><rect x="1" y="1" width="1" height="1" fill="#C08563" /><rect x="2" y="1" width="1" height="1" fill="#B48162" /><rect x="3" y="1" width="1" height="1" fill="#75472D" /><rect x="4" y="1" width="1" height="1" fill="#784C3F" /><rect x="5" y="1" width="1" height="1" fill="#936452" /><rect x="6" y="1" width="1" height="1" fill="#C88F72" /><rect x="7" y="1" width="1" height="1" fill="#926756" /><rect x="8" y="1" width="1" height="1" fill="#635B72" /><rect x="9" y="1" width="1" height="1" fill="#505C82" /><rect x="0" y="2" width="1" height="1" fill="#BFAFBA" /><rect x="1" y="2" width="1" height="1" fill="#B49590" /><rect x="2" y="2" width="1" height="1" fill="#C29786" /><rect x="3" y="2" width="1" height="1" fill="#B4846D" /><rect x="4" y="2" width="1" height="1" fill="#AA7B61" /><rect x="5" y="2" width="1" height="1" fill="#B18C83" /><rect x="6" y="2" width="1" height="1" fill="#685B6F" /><rect x="7" y="2" width="1" height="1" fill="#6A6C92" /><rect x="8" y="2" width="1" height="1" fill="#8689B2" /><rect x="9" y="2" width="1" height="1" fill="#445078" /><rect x="0" y="3" width="1" height="1" fill="#A6A0B8" /><rect x="1" y="3" width="1" height="1" fill="#A2878C" /><rect x="2" y="3" width="1" height="1" fill="#BA8C7C" /><rect x="3" y="3" width="1" height="1" fill="#BE886C" /><rect x="4" y="3" width="1" height="1" fill="#B7815F" /><rect x="5" y="3" width="1" height="1" fill="#88665D" /><rect x="6" y="3" width="1" height="1" fill="#5A618F" /><rect x="7" y="3" width="1" height="1" fill="#4D62A3" /><rect x="8" y="3" width="1" height="1" fill="#556193" /><rect x="9" y="3" width="1" height="1" fill="#27345E" /><rect x="0" y="4" width="1" height="1" fill="#705B6A" /><rect x="1" y="4" width="1" height="1" fill="#B2877E" /><rect x="2" y="4" width="1" height="1" fill="#C0876A" /><rect x="3" y="4" width="1" height="1" fill="#D08F69" /><rect x="4" y="4" width="1" height="1" fill="#C58A62" /><rect x="5" y="4" width="1" height="1" fill="#8A6457" /><rect x="6" y="4" width="1" height="1" fill="#626590" /><rect x="7" y="4" width="1" height="1" fill="#566BAC" /><rect x="8" y="4" width="1" height="1" fill="#26366A" /><rect x="9" y="4" width="1" height="1" fill="#1C2953" /><rect x="0" y="5" width="1" height="1" fill="#78616B" /><rect x="1" y="5" width="1" height="1" fill="#AB8077" /><rect x="2" y="5" width="1" height="1" fill="#AB745F" /><rect x="3" y="5" width="1" height="1" fill="#8A5335" /><rect x="4" y="5" width="1" height="1" fill="#B88B6E" /><rect x="5" y="5" width="1" height="1" fill="#AF8E85" /><rect x="6" y="5" width="1" height="1" fill="#70637D" /><rect x="7" y="5" width="1" height="1" fill="#5F628F" /><rect x="8" y="5" width="1" height="1" fill="#4E5A8A" /><rect x="9" y="5" width="1" height="1" fill="#28365B" /><rect x="0" y="6" width="1" height="1" fill="#745D6D" /><rect x="1" y="6" width="1" height="1" fill="#987F85" /><rect x="2" y="6" width="1" height="1" fill="#9A7E7D" /><rect x="3" y="6" width="1" height="1" fill="#6E5652" /><rect x="4" y="6" width="1" height="1" fill="#5A504E" /><rect x="5" y="6" width="1" height="1" fill="#A29292" /><rect x="6" y="6" width="1" height="1" fill="#B28A88" /><rect x="7" y="6" width="1" height="1" fill="#79585F" /><rect x="8" y="6" width="1" height="1" fill="#5C617E" /><rect x="9" y="6" width="1" height="1" fill="#41526E" /><rect x="0" y="7" width="1" height="1" fill="#765B64" /><rect x="1" y="7" width="1" height="1" fill="#967D80" /><rect x="2" y="7" width="1" height="1" fill="#9D8386" /><rect x="3" y="7" width="1" height="1" fill="#66575A" /><rect x="4" y="7" width="1" height="1" fill="#5E5E66" /><rect x="5" y="7" width="1" height="1" fill="#625658" /><rect x="6" y="7" width="1" height="1" fill="#C08B7B" /><rect x="7" y="7" width="1" height="1" fill="#C18D80" /><rect x="8" y="7" width="1" height="1" fill="#635B66" /><rect x="9" y="7" width="1" height="1" fill="#545768" /><rect x="0" y="8" width="1" height="1" fill="#B48D85" /><rect x="1" y="8" width="1" height="1" fill="#C29582" /><rect x="2" y="8" width="1" height="1" fill="#B28B7A" /><rect x="3" y="8" width="1" height="1" fill="#A1837B" /><rect x="4" y="8" width="1" height="1" fill="#5C514D" /><rect x="5" y="8" width="1" height="1" fill="#97827F" /><rect x="6" y="8" width="1" height="1" fill="#C48E82" /><rect x="7" y="8" width="1" height="1" fill="#C58B80" /><rect x="8" y="8" width="1" height="1" fill="#B09294" /><rect x="9" y="8" width="1" height="1" fill="#967C7B" /><rect x="0" y="9" width="1" height="1" fill="#80533E" /><rect x="1" y="9" width="1" height="1" fill="#844D2F" /><rect x="2" y="9" width="1" height="1" fill="#83533C" /><rect x="3" y="9" width="1" height="1" fill="#755040" /><rect x="4" y="9" width="1" height="1" fill="#68544D" /><rect x="5" y="9" width="1" height="1" fill="#674B47" /><rect x="6" y="9" width="1" height="1" fill="#6B3529" /><rect x="7" y="9" width="1" height="1" fill="#81453B" /><rect x="8" y="9" width="1" height="1" fill="#7B4F4C" /><rect x="9" y="9" width="1" height="1" fill="#744D46" />
  </g>
</svg>