<svg width="800" height="1000" version="1.1" xmlns="http://www.w3.org/2000/svg" xmlns:xlink="http://www.w3.org/1999/xlink">
  <defs>
      <linearGradient id="Gradient2" x1="0" x2="1" y1="0" y2="1">
        <stop offset="0%" stop-color="#2d3c96"/>
        <stop offset="100%" stop-color="#d53392"/>
      </linearGradient>
  </defs>
  <rect x="10" y="10" width="780" height="980" fill="url(#Gradient2)" rx="50" ry="50" stroke="#ffd700" stroke-width="20"/>
  <text x="400" y="920" width="780" text-anchor="middle" style="font: bold 200px 'Helvetica Neue'; fill: #ffd700">01527</text>

  <g transform="translate(80 80) scale(64)">
<rect x="0" y="0" width="1" height="1" fill="#C48468" /><rect x="1" y="0" width="1" height="1" fill="#EBAA8E" /><rect x="2" y="0" width="1" height="1" fill="#C28765" /><rect x="3" y="0" width="1" height="1" fill="#C8936B" /><rect x="4" y="0" width="1" height="1" fill="#C8916A" /><rect x="5" y="0" width="1" height="1" fill="#CA9575" /><rect x="6" y="0" width="1" height="1" fill="#B98D80" /><rect x="7" y="0" width="1" height="1" fill="#AD8F87" /><rect x="8" y="0" width="1" height="1" fill="#9D8883" /><rect x="9" y="0" width="1" height="1" fill="#806659" /><rect x="0" y="1" width="1" height="1" fill="#FFB794" /><rect x="1" y="1" width="1" height="1" fill="#FEDBBD" /><rect x="2" y="1" width="1" height="1" fill="#FFD7B3" /><rect x="3" y="1" width="1" height="1" fill="#C58760" /><rect x="4" y="1" width="1" height="1" fill="#B57954" /><rect x="5" y="1" width="1" height="1" fill="#CB9476" /><rect x="6" y="1" width="1" height="1" fill="#E7BCAC" /><rect x="7" y="1" width="1" height="1" fill="#A0837D" /><rect x="8" y="1" width="1" height="1" fill="#A59693" /><rect x="9" y="1" width="1" height="1" fill="#988179" /><rect x="0" y="2" width="1" height="1" fill="#F7BEA1" /><rect x="1" y="2" width="1" height="1" fill="#FED7C8" /><rect x="2" y="2" width="1" height="1" fill="#E9BFAF" /><rect x="3" y="2" width="1" height="1" fill="#AF8B7B" /><rect x="4" y="2" width="1" height="1" fill="#AD8C83" /><rect x="5" y="2" width="1" height="1" fill="#9F8785" /><rect x="6" y="2" width="1" height="1" fill="#ACA3A8" /><rect x="7" y="2" width="1" height="1" fill="#B7B6C6" /><rect x="8" y="2" width="1" height="1" fill="#AFB8D7" /><rect x="9" y="2" width="1" height="1" fill="#BDC1DE" /><rect x="0" y="3" width="1" height="1" fill="#DEB5A3" /><rect x="1" y="3" width="1" height="1" fill="#CFB6B2" /><rect x="2" y="3" width="1" height="1" fill="#9D807C" /><rect x="3" y="3" width="1" height="1" fill="#AB8E8A" /><rect x="4" y="3" width="1" height="1" fill="#A38988" /><rect x="5" y="3" width="1" height="1" fill="#C2AEAF" /><rect x="6" y="3" width="1" height="1" fill="#B7ADAE" /><rect x="7" y="3" width="1" height="1" fill="#9EA0AF" /><rect x="8" y="3" width="1" height="1" fill="#A2AFDB" /><rect x="9" y="3" width="1" height="1" fill="#96A3D0" /><rect x="0" y="4" width="1" height="1" fill="#7F6765" /><rect x="1" y="4" width="1" height="1" fill="#4E3B3F" /><rect x="2" y="4" width="1" height="1" fill="#8D7372" /><rect x="3" y="4" width="1" height="1" fill="#B28F8B" /><rect x="4" y="4" width="1" height="1" fill="#BC9085" /><rect x="5" y="4" width="1" height="1" fill="#BF927F" /><rect x="6" y="4" width="1" height="1" fill="#BC927A" /><rect x="7" y="4" width="1" height="1" fill="#A58C85" /><rect x="8" y="4" width="1" height="1" fill="#686E90" /><rect x="9" y="4" width="1" height="1" fill="#60688F" /><rect x="0" y="5" width="1" height="1" fill="#736268" /><rect x="1" y="5" width="1" height="1" fill="#91818B" /><rect x="2" y="5" width="1" height="1" fill="#A78D8E" /><rect x="3" y="5" width="1" height="1" fill="#B7928A" /><rect x="4" y="5" width="1" height="1" fill="#AF8174" /><rect x="5" y="5" width="1" height="1" fill="#9F7060" /><rect x="6" y="5" width="1" height="1" fill="#997261" /><rect x="7" y="5" width="1" height="1" fill="#A28887" /><rect x="8" y="5" width="1" height="1" fill="#70708C" /><rect x="9" y="5" width="1" height="1" fill="#726E8F" /><rect x="0" y="6" width="1" height="1" fill="#7F6C72" /><rect x="1" y="6" width="1" height="1" fill="#938592" /><rect x="2" y="6" width="1" height="1" fill="#A78989" /><rect x="3" y="6" width="1" height="1" fill="#A98680" /><rect x="4" y="6" width="1" height="1" fill="#A27F7B" /><rect x="5" y="6" width="1" height="1" fill="#8D767C" /><rect x="6" y="6" width="1" height="1" fill="#737186" /><rect x="7" y="6" width="1" height="1" fill="#737291" /><rect x="8" y="6" width="1" height="1" fill="#6A5B78" /><rect x="9" y="6" width="1" height="1" fill="#6F5B76" /><rect x="0" y="7" width="1" height="1" fill="#937A7E" /><rect x="1" y="7" width="1" height="1" fill="#A08C95" /><rect x="2" y="7" width="1" height="1" fill="#95726E" /><rect x="3" y="7" width="1" height="1" fill="#B38881" /><rect x="4" y="7" width="1" height="1" fill="#A6837F" /><rect x="5" y="7" width="1" height="1" fill="#7F6A71" /><rect x="6" y="7" width="1" height="1" fill="#6A6C83" /><rect x="7" y="7" width="1" height="1" fill="#5E6180" /><rect x="8" y="7" width="1" height="1" fill="#9585A0" /><rect x="9" y="7" width="1" height="1" fill="#93788B" /><rect x="0" y="8" width="1" height="1" fill="#B59694" /><rect x="1" y="8" width="1" height="1" fill="#A18182" /><rect x="2" y="8" width="1" height="1" fill="#B99187" /><rect x="3" y="8" width="1" height="1" fill="#BC9083" /><rect x="4" y="8" width="1" height="1" fill="#B78B80" /><rect x="5" y="8" width="1" height="1" fill="#BC968B" /><rect x="6" y="8" width="1" height="1" fill="#B69991" /><rect x="7" y="8" width="1" height="1" fill="#A89493" /><rect x="8" y="8" width="1" height="1" fill="#9F8E9E" /><rect x="9" y="8" width="1" height="1" fill="#6A5662" /><rect x="0" y="9" width="1" height="1" fill="#A27F7D" /><rect x="1" y="9" width="1" height="1" fill="#906D67" /><rect x="2" y="9" width="1" height="1" fill="#986E62" /><rect x="3" y="9" width="1" height="1" fill="#9A6C5D" /><rect x="4" y="9" width="1" height="1" fill="#946354" /><rect x="5" y="9" width="1" height="1" fill="#8F5F4B" /><rect x="6" y="9" width="1" height="1" fill="#8D6148" /><rect x="7" y="9" width="1" height="1" fill="#7D5C4D" /><rect x="8" y="9" width="1" height="1" fill="#6D606A" /><rect x="9" y="9" width="1" height="1" fill="#705F67" />
  </g>
</svg>