<svg width="800" height="1000" xmlns="http://www.w3.org/2000/svg"><defs><linearGradient id="g" x1="0" x2="1" y1="0" y2="1"><stop offset="0%" stop-color="#2d3c96"/><stop offset="100%" stop-color="#d53392"/></linearGradient></defs><rect x="10" y="10" width="780" height="980" fill="url(#g)" rx="50" ry="50" stroke="gold" stroke-width="20"/><text x="400" y="920" width="780" text-anchor="middle" style="font:bold 200px 'Helvetica Neue';fill:gold">01527</text><g transform="translate(80 80) scale(64)"><rect x="0" y="0" width="1" height="1" fill="#837582" /><rect x="0" y="1" width="1" height="1" fill="#e6d8e9" /><rect x="0" y="2" width="1" height="1" fill="#e0d0ea" /><rect x="0" y="3" width="1" height="1" fill="#ecdbfb" /><rect x="0" y="4" width="1" height="1" fill="#ebd4fe" /><rect x="0" y="5" width="1" height="1" fill="#8e73a6" /><rect x="0" y="6" width="1" height="1" fill="#5a3b77" /><rect x="0" y="7" width="1" height="1" fill="#5a3779" /><rect x="0" y="8" width="1" height="1" fill="#633e84" /><rect x="0" y="9" width="1" height="1" fill="#5b337c" /><rect x="1" y="0" width="1" height="1" fill="#847987" /><rect x="1" y="1" width="1" height="1" fill="#e8dbef" /><rect x="1" y="2" width="1" height="1" fill="#efdefe" /><rect x="1" y="3" width="1" height="1" fill="#dec9f2" /><rect x="1" y="4" width="1" height="1" fill="#dec6f8" /><rect x="1" y="5" width="1" height="1" fill="#8d6fab" /><rect x="1" y="6" width="1" height="1" fill="#765298" /><rect x="1" y="7" width="1" height="1" fill="#946ebb" /><rect x="1" y="8" width="1" height="1" fill="#a57bcd" /><rect x="1" y="9" width="1" height="1" fill="#875bb0" /><rect x="2" y="0" width="1" height="1" fill="#867f91" /><rect x="2" y="1" width="1" height="1" fill="#dcd2ed" /><rect x="2" y="2" width="1" height="1" fill="#b3a0cd" /><rect x="2" y="3" width="1" height="1" fill="#472e68" /><rect x="2" y="4" width="1" height="1" fill="#56367f" /><rect x="2" y="5" width="1" height="1" fill="#512b7e" /><rect x="2" y="6" width="1" height="1" fill="#683d99" /><rect x="2" y="7" width="1" height="1" fill="#9a6ace" /><rect x="2" y="8" width="1" height="1" fill="#b07de6" /><rect x="2" y="9" width="1" height="1" fill="#8652be" /><rect x="3" y="0" width="1" height="1" fill="#757188" /><rect x="3" y="1" width="1" height="1" fill="#e5dbfd" /><rect x="3" y="2" width="1" height="1" fill="#b9a5da" /><rect x="3" y="3" width="1" height="1" fill="#503376" /><rect x="3" y="4" width="1" height="1" fill="#7855a7" /><rect x="3" y="5" width="1" height="1" fill="#9165c4" /><rect x="3" y="6" width="1" height="1" fill="#9665ce" /><rect x="3" y="7" width="1" height="1" fill="#a670e0" /><rect x="3" y="8" width="1" height="1" fill="#b67cf4" /><rect x="3" y="9" width="1" height="1" fill="#b379f2" /><rect x="4" y="0" width="1" height="1" fill="#7d7994" /><rect x="4" y="1" width="1" height="1" fill="#dbd1f4" /><rect x="4" y="2" width="1" height="1" fill="#b69fd5" /><rect x="4" y="3" width="1" height="1" fill="#68498d" /><rect x="4" y="4" width="1" height="1" fill="#9770c1" /><rect x="4" y="5" width="1" height="1" fill="#ae7fdd" /><rect x="4" y="6" width="1" height="1" fill="#ba85ef" /><rect x="4" y="7" width="1" height="1" fill="#be85f8" /><rect x="4" y="8" width="1" height="1" fill="#ba7ff7" /><rect x="4" y="9" width="1" height="1" fill="#b779f4" /><rect x="5" y="0" width="1" height="1" fill="#7d7a95" /><rect x="5" y="1" width="1" height="1" fill="#e2dbfc" /><rect x="5" y="2" width="1" height="1" fill="#dfcefb" /><rect x="5" y="3" width="1" height="1" fill="#674b86" /><rect x="5" y="4" width="1" height="1" fill="#6d498f" /><rect x="5" y="5" width="1" height="1" fill="#724799" /><rect x="5" y="6" width="1" height="1" fill="#8a58b7" /><rect x="5" y="7" width="1" height="1" fill="#a770d8" /><rect x="5" y="8" width="1" height="1" fill="#ae76e3" /><rect x="5" y="9" width="1" height="1" fill="#a067d8" /><rect x="6" y="0" width="1" height="1" fill="#7c7d92" /><rect x="6" y="1" width="1" height="1" fill="#dfddf5" /><rect x="6" y="2" width="1" height="1" fill="#ddd4f3" /><rect x="6" y="3" width="1" height="1" fill="#e8d8fd" /><rect x="6" y="4" width="1" height="1" fill="#f0d6ff" /><rect x="6" y="5" width="1" height="1" fill="#9b7ab3" /><rect x="6" y="6" width="1" height="1" fill="#7a5098" /><rect x="6" y="7" width="1" height="1" fill="#9669ba" /><rect x="6" y="8" width="1" height="1" fill="#a67acf" /><rect x="6" y="9" width="1" height="1" fill="#7c50a9" /><rect x="7" y="0" width="1" height="1" fill="#7b7c90" /><rect x="7" y="1" width="1" height="1" fill="#deddef" /><rect x="7" y="2" width="1" height="1" fill="#e7e4f5" /><rect x="7" y="3" width="1" height="1" fill="#e1d9ee" /><rect x="7" y="4" width="1" height="1" fill="#e2d4ee" /><rect x="7" y="5" width="1" height="1" fill="#9d89ac" /><rect x="7" y="6" width="1" height="1" fill="#735988" /><rect x="7" y="7" width="1" height="1" fill="#7c5f95" /><rect x="7" y="8" width="1" height="1" fill="#8b6fa9" /><rect x="7" y="9" width="1" height="1" fill="#79609a" /><rect x="8" y="0" width="1" height="1" fill="#7a7788" /><rect x="8" y="1" width="1" height="1" fill="#d8d7e5" /><rect x="8" y="2" width="1" height="1" fill="#dee1e6" /><rect x="8" y="3" width="1" height="1" fill="#d1d5d8" /><rect x="8" y="4" width="1" height="1" fill="#e2e2ea" /><rect x="8" y="5" width="1" height="1" fill="#d4d2df" /><rect x="8" y="6" width="1" height="1" fill="#b3aec2" /><rect x="8" y="7" width="1" height="1" fill="#9e98b0" /><rect x="8" y="8" width="1" height="1" fill="#9d99b2" /><rect x="8" y="9" width="1" height="1" fill="#9793ae" /><rect x="9" y="0" width="1" height="1" fill="#7c7889" /><rect x="9" y="1" width="1" height="1" fill="#e4e4ee" /><rect x="9" y="2" width="1" height="1" fill="#dee4e4" /><rect x="9" y="3" width="1" height="1" fill="#dbe4df" /><rect x="9" y="4" width="1" height="1" fill="#dee7e6" /><rect x="9" y="5" width="1" height="1" fill="#e1e6e9" /><rect x="9" y="6" width="1" height="1" fill="#d7dce2" /><rect x="9" y="7" width="1" height="1" fill="#d9dde6" /><rect x="9" y="8" width="1" height="1" fill="#dee5ef" /><rect x="9" y="9" width="1" height="1" fill="#d8deea" /></g></svg>