<svg width="800" height="1000" version="1.1" xmlns="http://www.w3.org/2000/svg" xmlns:xlink="http://www.w3.org/1999/xlink">
  <defs>
      <linearGradient id="Gradient2" x1="0" x2="1" y1="0" y2="1">
        <stop offset="0%" stop-color="#2d3c96"/>
        <stop offset="100%" stop-color="#d53392"/>
      </linearGradient>
  </defs>
  <rect x="10" y="10" width="780" height="980" fill="url(#Gradient2)" rx="50" ry="50" stroke="#ffd700" stroke-width="20"/>
  <text x="400" y="920" width="780" text-anchor="middle" style="font: bold 200px 'Helvetica Neue'; fill: #ffd700">01527</text>

  <g transform="translate(80 80) scale(64)">
<rect x="0" y="0" width="1" height="1" fill="#837582" /><rect x="1" y="0" width="1" height="1" fill="#847987" /><rect x="2" y="0" width="1" height="1" fill="#867F91" /><rect x="3" y="0" width="1" height="1" fill="#757188" /><rect x="4" y="0" width="1" height="1" fill="#7D7994" /><rect x="5" y="0" width="1" height="1" fill="#7D7A95" /><rect x="6" y="0" width="1" height="1" fill="#7C7D92" /><rect x="7" y="0" width="1" height="1" fill="#7B7C90" /><rect x="8" y="0" width="1" height="1" fill="#7A7788" /><rect x="9" y="0" width="1" height="1" fill="#7C7889" /><rect x="0" y="1" width="1" height="1" fill="#E6D8E9" /><rect x="1" y="1" width="1" height="1" fill="#E8DBEF" /><rect x="2" y="1" width="1" height="1" fill="#DCD2ED" /><rect x="3" y="1" width="1" height="1" fill="#E5DBFD" /><rect x="4" y="1" width="1" height="1" fill="#DBD1F4" /><rect x="5" y="1" width="1" height="1" fill="#E2DBFC" /><rect x="6" y="1" width="1" height="1" fill="#DFDDF5" /><rect x="7" y="1" width="1" height="1" fill="#DEDDEF" /><rect x="8" y="1" width="1" height="1" fill="#D8D7E5" /><rect x="9" y="1" width="1" height="1" fill="#E4E4EE" /><rect x="0" y="2" width="1" height="1" fill="#E0D0EA" /><rect x="1" y="2" width="1" height="1" fill="#EFDEFE" /><rect x="2" y="2" width="1" height="1" fill="#B3A0CD" /><rect x="3" y="2" width="1" height="1" fill="#B9A5DA" /><rect x="4" y="2" width="1" height="1" fill="#B69FD5" /><rect x="5" y="2" width="1" height="1" fill="#DFCEFB" /><rect x="6" y="2" width="1" height="1" fill="#DDD4F3" /><rect x="7" y="2" width="1" height="1" fill="#E7E4F5" /><rect x="8" y="2" width="1" height="1" fill="#DEE1E6" /><rect x="9" y="2" width="1" height="1" fill="#DEE4E4" /><rect x="0" y="3" width="1" height="1" fill="#ECDBFB" /><rect x="1" y="3" width="1" height="1" fill="#DEC9F2" /><rect x="2" y="3" width="1" height="1" fill="#472E68" /><rect x="3" y="3" width="1" height="1" fill="#503376" /><rect x="4" y="3" width="1" height="1" fill="#68498D" /><rect x="5" y="3" width="1" height="1" fill="#674B86" /><rect x="6" y="3" width="1" height="1" fill="#E8D8FD" /><rect x="7" y="3" width="1" height="1" fill="#E1D9EE" /><rect x="8" y="3" width="1" height="1" fill="#D1D5D8" /><rect x="9" y="3" width="1" height="1" fill="#DBE4DF" /><rect x="0" y="4" width="1" height="1" fill="#EBD4FE" /><rect x="1" y="4" width="1" height="1" fill="#DEC6F8" /><rect x="2" y="4" width="1" height="1" fill="#56367F" /><rect x="3" y="4" width="1" height="1" fill="#7855A7" /><rect x="4" y="4" width="1" height="1" fill="#9770C1" /><rect x="5" y="4" width="1" height="1" fill="#6D498F" /><rect x="6" y="4" width="1" height="1" fill="#F0D6FF" /><rect x="7" y="4" width="1" height="1" fill="#E2D4EE" /><rect x="8" y="4" width="1" height="1" fill="#E2E2EA" /><rect x="9" y="4" width="1" height="1" fill="#DEE7E6" /><rect x="0" y="5" width="1" height="1" fill="#8E73A6" /><rect x="1" y="5" width="1" height="1" fill="#8D6FAB" /><rect x="2" y="5" width="1" height="1" fill="#512B7E" /><rect x="3" y="5" width="1" height="1" fill="#9165C4" /><rect x="4" y="5" width="1" height="1" fill="#AE7FDD" /><rect x="5" y="5" width="1" height="1" fill="#724799" /><rect x="6" y="5" width="1" height="1" fill="#9B7AB3" /><rect x="7" y="5" width="1" height="1" fill="#9D89AC" /><rect x="8" y="5" width="1" height="1" fill="#D4D2DF" /><rect x="9" y="5" width="1" height="1" fill="#E1E6E9" /><rect x="0" y="6" width="1" height="1" fill="#5A3B77" /><rect x="1" y="6" width="1" height="1" fill="#765298" /><rect x="2" y="6" width="1" height="1" fill="#683D99" /><rect x="3" y="6" width="1" height="1" fill="#9665CE" /><rect x="4" y="6" width="1" height="1" fill="#BA85EF" /><rect x="5" y="6" width="1" height="1" fill="#8A58B7" /><rect x="6" y="6" width="1" height="1" fill="#7A5098" /><rect x="7" y="6" width="1" height="1" fill="#735988" /><rect x="8" y="6" width="1" height="1" fill="#B3AEC2" /><rect x="9" y="6" width="1" height="1" fill="#D7DCE2" /><rect x="0" y="7" width="1" height="1" fill="#5A3779" /><rect x="1" y="7" width="1" height="1" fill="#946EBB" /><rect x="2" y="7" width="1" height="1" fill="#9A6ACE" /><rect x="3" y="7" width="1" height="1" fill="#A670E0" /><rect x="4" y="7" width="1" height="1" fill="#BE85F8" /><rect x="5" y="7" width="1" height="1" fill="#A770D8" /><rect x="6" y="7" width="1" height="1" fill="#9669BA" /><rect x="7" y="7" width="1" height="1" fill="#7C5F95" /><rect x="8" y="7" width="1" height="1" fill="#9E98B0" /><rect x="9" y="7" width="1" height="1" fill="#D9DDE6" /><rect x="0" y="8" width="1" height="1" fill="#633E84" /><rect x="1" y="8" width="1" height="1" fill="#A57BCD" /><rect x="2" y="8" width="1" height="1" fill="#B07DE6" /><rect x="3" y="8" width="1" height="1" fill="#B67CF4" /><rect x="4" y="8" width="1" height="1" fill="#BA7FF7" /><rect x="5" y="8" width="1" height="1" fill="#AE76E3" /><rect x="6" y="8" width="1" height="1" fill="#A67ACF" /><rect x="7" y="8" width="1" height="1" fill="#8B6FA9" /><rect x="8" y="8" width="1" height="1" fill="#9D99B2" /><rect x="9" y="8" width="1" height="1" fill="#DEE5EF" /><rect x="0" y="9" width="1" height="1" fill="#5B337C" /><rect x="1" y="9" width="1" height="1" fill="#875BB0" /><rect x="2" y="9" width="1" height="1" fill="#8652BE" /><rect x="3" y="9" width="1" height="1" fill="#B379F2" /><rect x="4" y="9" width="1" height="1" fill="#B779F4" /><rect x="5" y="9" width="1" height="1" fill="#A067D8" /><rect x="6" y="9" width="1" height="1" fill="#7C50A9" /><rect x="7" y="9" width="1" height="1" fill="#79609A" /><rect x="8" y="9" width="1" height="1" fill="#9793AE" /><rect x="9" y="9" width="1" height="1" fill="#D8DEEA" />
  </g>
</svg>