<svg width="800" height="1000" version="1.1" xmlns="http://www.w3.org/2000/svg" xmlns:xlink="http://www.w3.org/1999/xlink">
  <defs>
      <linearGradient id="Gradient2" x1="0" x2="1" y1="0" y2="1">
        <stop offset="0%" stop-color="#2d3c96"/>
        <stop offset="100%" stop-color="#d53392"/>
      </linearGradient>
  </defs>
  <rect x="10" y="10" width="780" height="980" fill="url(#Gradient2)" rx="50" ry="50" stroke="#ffd700" stroke-width="20"/>
  <text x="400" y="920" width="780" text-anchor="middle" style="font: bold 200px 'Helvetica Neue'; fill: #ffd700">01529</text>

  <g transform="translate(80 80) scale(64)">
<rect x="0" y="0" width="1" height="1" fill="#414E7A" /><rect x="1" y="0" width="1" height="1" fill="#494D73" /><rect x="2" y="0" width="1" height="1" fill="#5C4E68" /><rect x="3" y="0" width="1" height="1" fill="#836C7E" /><rect x="4" y="0" width="1" height="1" fill="#A5949C" /><rect x="5" y="0" width="1" height="1" fill="#61565E" /><rect x="6" y="0" width="1" height="1" fill="#4D4958" /><rect x="7" y="0" width="1" height="1" fill="#1B1D36" /><rect x="8" y="0" width="1" height="1" fill="#394166" /><rect x="9" y="0" width="1" height="1" fill="#3A4773" /><rect x="0" y="1" width="1" height="1" fill="#48547E" /><rect x="1" y="1" width="1" height="1" fill="#575471" /><rect x="2" y="1" width="1" height="1" fill="#6A4F5E" /><rect x="3" y="1" width="1" height="1" fill="#9B7374" /><rect x="4" y="1" width="1" height="1" fill="#B78F85" /><rect x="5" y="1" width="1" height="1" fill="#93746F" /><rect x="6" y="1" width="1" height="1" fill="#534552" /><rect x="7" y="1" width="1" height="1" fill="#2B2843" /><rect x="8" y="1" width="1" height="1" fill="#363C60" /><rect x="9" y="1" width="1" height="1" fill="#303962" /><rect x="0" y="2" width="1" height="1" fill="#3D507A" /><rect x="1" y="2" width="1" height="1" fill="#49506C" /><rect x="2" y="2" width="1" height="1" fill="#6D5354" /><rect x="3" y="2" width="1" height="1" fill="#9E6B5A" /><rect x="4" y="2" width="1" height="1" fill="#C28266" /><rect x="5" y="2" width="1" height="1" fill="#AF7E6D" /><rect x="6" y="2" width="1" height="1" fill="#594E5F" /><rect x="7" y="2" width="1" height="1" fill="#222C50" /><rect x="8" y="2" width="1" height="1" fill="#233158" /><rect x="9" y="2" width="1" height="1" fill="#273661" /><rect x="0" y="3" width="1" height="1" fill="#354B72" /><rect x="1" y="3" width="1" height="1" fill="#3B4255" /><rect x="2" y="3" width="1" height="1" fill="#93756A" /><rect x="3" y="3" width="1" height="1" fill="#854D2C" /><rect x="4" y="3" width="1" height="1" fill="#A85D33" /><rect x="5" y="3" width="1" height="1" fill="#C7876B" /><rect x="6" y="3" width="1" height="1" fill="#715D66" /><rect x="7" y="3" width="1" height="1" fill="#1E223F" /><rect x="8" y="3" width="1" height="1" fill="#263053" /><rect x="9" y="3" width="1" height="1" fill="#2B3B5F" /><rect x="0" y="4" width="1" height="1" fill="#263657" /><rect x="1" y="4" width="1" height="1" fill="#44424F" /><rect x="2" y="4" width="1" height="1" fill="#966E55" /><rect x="3" y="4" width="1" height="1" fill="#682B00" /><rect x="4" y="4" width="1" height="1" fill="#934716" /><rect x="5" y="4" width="1" height="1" fill="#CD8861" /><rect x="6" y="4" width="1" height="1" fill="#9D7262" /><rect x="7" y="4" width="1" height="1" fill="#362224" /><rect x="8" y="4" width="1" height="1" fill="#242537" /><rect x="9" y="4" width="1" height="1" fill="#242E49" /><rect x="0" y="5" width="1" height="1" fill="#364155" /><rect x="1" y="5" width="1" height="1" fill="#524C50" /><rect x="2" y="5" width="1" height="1" fill="#AD9082" /><rect x="3" y="5" width="1" height="1" fill="#C5977D" /><rect x="4" y="5" width="1" height="1" fill="#C48E72" /><rect x="5" y="5" width="1" height="1" fill="#C1896E" /><rect x="6" y="5" width="1" height="1" fill="#B8846C" /><rect x="7" y="5" width="1" height="1" fill="#4C281C" /><rect x="8" y="5" width="1" height="1" fill="#362C35" /><rect x="9" y="5" width="1" height="1" fill="#1E2337" /><rect x="0" y="6" width="1" height="1" fill="#323337" /><rect x="1" y="6" width="1" height="1" fill="#7E7878" /><rect x="2" y="6" width="1" height="1" fill="#484A57" /><rect x="3" y="6" width="1" height="1" fill="#4E5164" /><rect x="4" y="6" width="1" height="1" fill="#666271" /><rect x="5" y="6" width="1" height="1" fill="#6B5759" /><rect x="6" y="6" width="1" height="1" fill="#BD8F7F" /><rect x="7" y="6" width="1" height="1" fill="#714636" /><rect x="8" y="6" width="1" height="1" fill="#291A21" /><rect x="9" y="6" width="1" height="1" fill="#292A3C" /><rect x="0" y="7" width="1" height="1" fill="#493830" /><rect x="1" y="7" width="1" height="1" fill="#8B7E78" /><rect x="2" y="7" width="1" height="1" fill="#444E69" /><rect x="3" y="7" width="1" height="1" fill="#42587D" /><rect x="4" y="7" width="1" height="1" fill="#4B5B7D" /><rect x="5" y="7" width="1" height="1" fill="#40374A" /><rect x="6" y="7" width="1" height="1" fill="#B68777" /><rect x="7" y="7" width="1" height="1" fill="#A06C57" /><rect x="8" y="7" width="1" height="1" fill="#331F21" /><rect x="9" y="7" width="1" height="1" fill="#1E1A29" /><rect x="0" y="8" width="1" height="1" fill="#B38D80" /><rect x="1" y="8" width="1" height="1" fill="#B4968C" /><rect x="2" y="8" width="1" height="1" fill="#7C7587" /><rect x="3" y="8" width="1" height="1" fill="#474C6C" /><rect x="4" y="8" width="1" height="1" fill="#404968" /><rect x="5" y="8" width="1" height="1" fill="#877A8B" /><rect x="6" y="8" width="1" height="1" fill="#C28872" /><rect x="7" y="8" width="1" height="1" fill="#CC8C70" /><rect x="8" y="8" width="1" height="1" fill="#A48783" /><rect x="9" y="8" width="1" height="1" fill="#2A1E28" /><rect x="0" y="9" width="1" height="1" fill="#6D3D29" /><rect x="1" y="9" width="1" height="1" fill="#4D2519" /><rect x="2" y="9" width="1" height="1" fill="#514352" /><rect x="3" y="9" width="1" height="1" fill="#454561" /><rect x="4" y="9" width="1" height="1" fill="#525673" /><rect x="5" y="9" width="1" height="1" fill="#604E5A" /><rect x="6" y="9" width="1" height="1" fill="#581701" /><rect x="7" y="9" width="1" height="1" fill="#6F2A0B" /><rect x="8" y="9" width="1" height="1" fill="#4E2D26" /><rect x="9" y="9" width="1" height="1" fill="#2F2027" />
  </g>
</svg>