<svg width="800" height="1000" version="1.1" xmlns="http://www.w3.org/2000/svg" xmlns:xlink="http://www.w3.org/1999/xlink">
  <defs>
      <linearGradient id="Gradient2" x1="0" x2="1" y1="0" y2="1">
        <stop offset="0%" stop-color="#2d3c96"/>
        <stop offset="100%" stop-color="#d53392"/>
      </linearGradient>
  </defs>
  <rect x="10" y="10" width="780" height="980" fill="url(#Gradient2)" rx="50" ry="50" stroke="#ffd700" stroke-width="20"/>
  <text x="400" y="920" width="780" text-anchor="middle" style="font: bold 200px 'Helvetica Neue'; fill: #ffd700">01528</text>

  <g transform="translate(80 80) scale(64)">
<rect x="0" y="0" width="1" height="1" fill="#817486" /><rect x="1" y="0" width="1" height="1" fill="#807A88" /><rect x="2" y="0" width="1" height="1" fill="#777E88" /><rect x="3" y="0" width="1" height="1" fill="#768187" /><rect x="4" y="0" width="1" height="1" fill="#6F787F" /><rect x="5" y="0" width="1" height="1" fill="#70777F" /><rect x="6" y="0" width="1" height="1" fill="#7C7E8B" /><rect x="7" y="0" width="1" height="1" fill="#838091" /><rect x="8" y="0" width="1" height="1" fill="#827A8F" /><rect x="9" y="0" width="1" height="1" fill="#80748C" /><rect x="0" y="1" width="1" height="1" fill="#E2D7E5" /><rect x="1" y="1" width="1" height="1" fill="#E2DCE6" /><rect x="2" y="1" width="1" height="1" fill="#D5DAE0" /><rect x="3" y="1" width="1" height="1" fill="#DAE4E6" /><rect x="4" y="1" width="1" height="1" fill="#DAE1E7" /><rect x="5" y="1" width="1" height="1" fill="#DCE3E9" /><rect x="6" y="1" width="1" height="1" fill="#D3D6DF" /><rect x="7" y="1" width="1" height="1" fill="#E0DEEB" /><rect x="8" y="1" width="1" height="1" fill="#E6DFF1" /><rect x="9" y="1" width="1" height="1" fill="#E1D5EB" /><rect x="0" y="2" width="1" height="1" fill="#E3DEE2" /><rect x="1" y="2" width="1" height="1" fill="#DAD8D9" /><rect x="2" y="2" width="1" height="1" fill="#E2E2E0" /><rect x="3" y="2" width="1" height="1" fill="#DCE0DF" /><rect x="4" y="2" width="1" height="1" fill="#D9DFDF" /><rect x="5" y="2" width="1" height="1" fill="#DCE1E4" /><rect x="6" y="2" width="1" height="1" fill="#DAE0E0" /><rect x="7" y="2" width="1" height="1" fill="#E2E3E7" /><rect x="8" y="2" width="1" height="1" fill="#E3DAEB" /><rect x="9" y="2" width="1" height="1" fill="#DED2E8" /><rect x="0" y="3" width="1" height="1" fill="#E2E1DD" /><rect x="1" y="3" width="1" height="1" fill="#E3E4DF" /><rect x="2" y="3" width="1" height="1" fill="#E0E1DB" /><rect x="3" y="3" width="1" height="1" fill="#DADCD7" /><rect x="4" y="3" width="1" height="1" fill="#D7DDDD" /><rect x="5" y="3" width="1" height="1" fill="#E3E8EB" /><rect x="6" y="3" width="1" height="1" fill="#DADEDD" /><rect x="7" y="3" width="1" height="1" fill="#DEDEE0" /><rect x="8" y="3" width="1" height="1" fill="#D8CDDE" /><rect x="9" y="3" width="1" height="1" fill="#6D5E75" /><rect x="0" y="4" width="1" height="1" fill="#D7D9D4" /><rect x="1" y="4" width="1" height="1" fill="#D7DCD5" /><rect x="2" y="4" width="1" height="1" fill="#DDE2DB" /><rect x="3" y="4" width="1" height="1" fill="#DCE2DE" /><rect x="4" y="4" width="1" height="1" fill="#DCE1E5" /><rect x="5" y="4" width="1" height="1" fill="#DADDE4" /><rect x="6" y="4" width="1" height="1" fill="#E2E1E6" /><rect x="7" y="4" width="1" height="1" fill="#DED6E1" /><rect x="8" y="4" width="1" height="1" fill="#BEAFC4" /><rect x="9" y="4" width="1" height="1" fill="#55415D" /><rect x="0" y="5" width="1" height="1" fill="#DEE5DE" /><rect x="1" y="5" width="1" height="1" fill="#D9E0D9" /><rect x="2" y="5" width="1" height="1" fill="#E0E7DF" /><rect x="3" y="5" width="1" height="1" fill="#D9DFDD" /><rect x="4" y="5" width="1" height="1" fill="#DCDEEA" /><rect x="5" y="5" width="1" height="1" fill="#DEDCEA" /><rect x="6" y="5" width="1" height="1" fill="#D9CEDC" /><rect x="7" y="5" width="1" height="1" fill="#F3E5F6" /><rect x="8" y="5" width="1" height="1" fill="#C6AFCB" /><rect x="9" y="5" width="1" height="1" fill="#462D4D" /><rect x="0" y="6" width="1" height="1" fill="#DBE4DF" /><rect x="1" y="6" width="1" height="1" fill="#D8E1DC" /><rect x="2" y="6" width="1" height="1" fill="#DDE3DF" /><rect x="3" y="6" width="1" height="1" fill="#DBDCE0" /><rect x="4" y="6" width="1" height="1" fill="#E2DDF1" /><rect x="5" y="6" width="1" height="1" fill="#DED0EA" /><rect x="6" y="6" width="1" height="1" fill="#D2BBD5" /><rect x="7" y="6" width="1" height="1" fill="#E5CBE8" /><rect x="8" y="6" width="1" height="1" fill="#E0C2E4" /><rect x="9" y="6" width="1" height="1" fill="#6F5177" /><rect x="0" y="7" width="1" height="1" fill="#D7E0DB" /><rect x="1" y="7" width="1" height="1" fill="#DEE4E0" /><rect x="2" y="7" width="1" height="1" fill="#DCE0DF" /><rect x="3" y="7" width="1" height="1" fill="#E2DFE8" /><rect x="4" y="7" width="1" height="1" fill="#C5B5D0" /><rect x="5" y="7" width="1" height="1" fill="#977DA2" /><rect x="6" y="7" width="1" height="1" fill="#B28EB4" /><rect x="7" y="7" width="1" height="1" fill="#B48EB3" /><rect x="8" y="7" width="1" height="1" fill="#CBA6CF" /><rect x="9" y="7" width="1" height="1" fill="#C19EC8" /><rect x="0" y="8" width="1" height="1" fill="#D8E2DA" /><rect x="1" y="8" width="1" height="1" fill="#E3E8E4" /><rect x="2" y="8" width="1" height="1" fill="#DDDBDC" /><rect x="3" y="8" width="1" height="1" fill="#E4D8E6" /><rect x="4" y="8" width="1" height="1" fill="#886A90" /><rect x="5" y="8" width="1" height="1" fill="#653B6B" /><rect x="6" y="8" width="1" height="1" fill="#A773A3" /><rect x="7" y="8" width="1" height="1" fill="#A5719F" /><rect x="8" y="8" width="1" height="1" fill="#A178A2" /><rect x="9" y="8" width="1" height="1" fill="#E4BFEA" /><rect x="0" y="9" width="1" height="1" fill="#DDE4DD" /><rect x="1" y="9" width="1" height="1" fill="#DEE3DD" /><rect x="2" y="9" width="1" height="1" fill="#D7D3D4" /><rect x="3" y="9" width="1" height="1" fill="#CCBBCB" /><rect x="4" y="9" width="1" height="1" fill="#542F5A" /><rect x="5" y="9" width="1" height="1" fill="#AF7CB4" /><rect x="6" y="9" width="1" height="1" fill="#DDA2D8" /><rect x="7" y="9" width="1" height="1" fill="#D99FD1" /><rect x="8" y="9" width="1" height="1" fill="#AA7CAA" /><rect x="9" y="9" width="1" height="1" fill="#AD86B2" />
  </g>
</svg>