<svg width="800" height="1000" version="1.1" xmlns="http://www.w3.org/2000/svg" xmlns:xlink="http://www.w3.org/1999/xlink">
  <defs>
      <linearGradient id="Gradient2" x1="0" x2="1" y1="0" y2="1">
        <stop offset="0%" stop-color="#2d3c96"/>
        <stop offset="100%" stop-color="#d53392"/>
      </linearGradient>
  </defs>
  <rect x="10" y="10" width="780" height="980" fill="url(#Gradient2)" rx="50" ry="50" stroke="#ffd700" stroke-width="20"/>
  <text x="400" y="920" width="780" text-anchor="middle" style="font: bold 200px 'Helvetica Neue'; fill: #ffd700">01528</text>

  <g transform="translate(80 80) scale(64)">
<rect x="0" y="0" width="1" height="1" fill="#817486" />
,<rect x="0" y="1" width="1" height="1" fill="#e2d7e5" />
,<rect x="0" y="2" width="1" height="1" fill="#e3dee2" />
,<rect x="0" y="3" width="1" height="1" fill="#e2e1dd" />
,<rect x="0" y="4" width="1" height="1" fill="#d7d9d4" />
,<rect x="0" y="5" width="1" height="1" fill="#dee5de" />
,<rect x="0" y="6" width="1" height="1" fill="#dbe4df" />
,<rect x="0" y="7" width="1" height="1" fill="#d7e0db" />
,<rect x="0" y="8" width="1" height="1" fill="#d8e2da" />
,<rect x="0" y="9" width="1" height="1" fill="#dde4dd" />
,<rect x="1" y="0" width="1" height="1" fill="#807a88" />
,<rect x="1" y="1" width="1" height="1" fill="#e2dce6" />
,<rect x="1" y="2" width="1" height="1" fill="#dad8d9" />
,<rect x="1" y="3" width="1" height="1" fill="#e3e4df" />
,<rect x="1" y="4" width="1" height="1" fill="#d7dcd5" />
,<rect x="1" y="5" width="1" height="1" fill="#d9e0d9" />
,<rect x="1" y="6" width="1" height="1" fill="#d8e1dc" />
,<rect x="1" y="7" width="1" height="1" fill="#dee4e0" />
,<rect x="1" y="8" width="1" height="1" fill="#e3e8e4" />
,<rect x="1" y="9" width="1" height="1" fill="#dee3dd" />
,<rect x="2" y="0" width="1" height="1" fill="#777e88" />
,<rect x="2" y="1" width="1" height="1" fill="#d5dae0" />
,<rect x="2" y="2" width="1" height="1" fill="#e2e2e0" />
,<rect x="2" y="3" width="1" height="1" fill="#e0e1db" />
,<rect x="2" y="4" width="1" height="1" fill="#dde2db" />
,<rect x="2" y="5" width="1" height="1" fill="#e0e7df" />
,<rect x="2" y="6" width="1" height="1" fill="#dde3df" />
,<rect x="2" y="7" width="1" height="1" fill="#dce0df" />
,<rect x="2" y="8" width="1" height="1" fill="#dddbdc" />
,<rect x="2" y="9" width="1" height="1" fill="#d7d3d4" />
,<rect x="3" y="0" width="1" height="1" fill="#768187" />
,<rect x="3" y="1" width="1" height="1" fill="#dae4e6" />
,<rect x="3" y="2" width="1" height="1" fill="#dce0df" />
,<rect x="3" y="3" width="1" height="1" fill="#dadcd7" />
,<rect x="3" y="4" width="1" height="1" fill="#dce2de" />
,<rect x="3" y="5" width="1" height="1" fill="#d9dfdd" />
,<rect x="3" y="6" width="1" height="1" fill="#dbdce0" />
,<rect x="3" y="7" width="1" height="1" fill="#e2dfe8" />
,<rect x="3" y="8" width="1" height="1" fill="#e4d8e6" />
,<rect x="3" y="9" width="1" height="1" fill="#ccbbcb" />
,<rect x="4" y="0" width="1" height="1" fill="#6f787f" />
,<rect x="4" y="1" width="1" height="1" fill="#dae1e7" />
,<rect x="4" y="2" width="1" height="1" fill="#d9dfdf" />
,<rect x="4" y="3" width="1" height="1" fill="#d7dddd" />
,<rect x="4" y="4" width="1" height="1" fill="#dce1e5" />
,<rect x="4" y="5" width="1" height="1" fill="#dcdeea" />
,<rect x="4" y="6" width="1" height="1" fill="#e2ddf1" />
,<rect x="4" y="7" width="1" height="1" fill="#c5b5d0" />
,<rect x="4" y="8" width="1" height="1" fill="#886a90" />
,<rect x="4" y="9" width="1" height="1" fill="#542f5a" />
,<rect x="5" y="0" width="1" height="1" fill="#70777f" />
,<rect x="5" y="1" width="1" height="1" fill="#dce3e9" />
,<rect x="5" y="2" width="1" height="1" fill="#dce1e4" />
,<rect x="5" y="3" width="1" height="1" fill="#e3e8eb" />
,<rect x="5" y="4" width="1" height="1" fill="#dadde4" />
,<rect x="5" y="5" width="1" height="1" fill="#dedcea" />
,<rect x="5" y="6" width="1" height="1" fill="#ded0ea" />
,<rect x="5" y="7" width="1" height="1" fill="#977da2" />
,<rect x="5" y="8" width="1" height="1" fill="#653b6b" />
,<rect x="5" y="9" width="1" height="1" fill="#af7cb4" />
,<rect x="6" y="0" width="1" height="1" fill="#7c7e8b" />
,<rect x="6" y="1" width="1" height="1" fill="#d3d6df" />
,<rect x="6" y="2" width="1" height="1" fill="#dae0e0" />
,<rect x="6" y="3" width="1" height="1" fill="#dadedd" />
,<rect x="6" y="4" width="1" height="1" fill="#e2e1e6" />
,<rect x="6" y="5" width="1" height="1" fill="#d9cedc" />
,<rect x="6" y="6" width="1" height="1" fill="#d2bbd5" />
,<rect x="6" y="7" width="1" height="1" fill="#b28eb4" />
,<rect x="6" y="8" width="1" height="1" fill="#a773a3" />
,<rect x="6" y="9" width="1" height="1" fill="#dda2d8" />
,<rect x="7" y="0" width="1" height="1" fill="#838091" />
,<rect x="7" y="1" width="1" height="1" fill="#e0deeb" />
,<rect x="7" y="2" width="1" height="1" fill="#e2e3e7" />
,<rect x="7" y="3" width="1" height="1" fill="#dedee0" />
,<rect x="7" y="4" width="1" height="1" fill="#ded6e1" />
,<rect x="7" y="5" width="1" height="1" fill="#f3e5f6" />
,<rect x="7" y="6" width="1" height="1" fill="#e5cbe8" />
,<rect x="7" y="7" width="1" height="1" fill="#b48eb3" />
,<rect x="7" y="8" width="1" height="1" fill="#a5719f" />
,<rect x="7" y="9" width="1" height="1" fill="#d99fd1" />
,<rect x="8" y="0" width="1" height="1" fill="#827a8f" />
,<rect x="8" y="1" width="1" height="1" fill="#e6dff1" />
,<rect x="8" y="2" width="1" height="1" fill="#e3daeb" />
,<rect x="8" y="3" width="1" height="1" fill="#d8cdde" />
,<rect x="8" y="4" width="1" height="1" fill="#beafc4" />
,<rect x="8" y="5" width="1" height="1" fill="#c6afcb" />
,<rect x="8" y="6" width="1" height="1" fill="#e0c2e4" />
,<rect x="8" y="7" width="1" height="1" fill="#cba6cf" />
,<rect x="8" y="8" width="1" height="1" fill="#a178a2" />
,<rect x="8" y="9" width="1" height="1" fill="#aa7caa" />
,<rect x="9" y="0" width="1" height="1" fill="#80748c" />
,<rect x="9" y="1" width="1" height="1" fill="#e1d5eb" />
,<rect x="9" y="2" width="1" height="1" fill="#ded2e8" />
,<rect x="9" y="3" width="1" height="1" fill="#6d5e75" />
,<rect x="9" y="4" width="1" height="1" fill="#55415d" />
,<rect x="9" y="5" width="1" height="1" fill="#462d4d" />
,<rect x="9" y="6" width="1" height="1" fill="#6f5177" />
,<rect x="9" y="7" width="1" height="1" fill="#c19ec8" />
,<rect x="9" y="8" width="1" height="1" fill="#e4bfea" />
,<rect x="9" y="9" width="1" height="1" fill="#ad86b2" />

  </g>
</svg>