<svg width="800" height="1000" version="1.1" xmlns="http://www.w3.org/2000/svg" xmlns:xlink="http://www.w3.org/1999/xlink">
  <defs>
      <linearGradient id="Gradient2" x1="0" x2="1" y1="0" y2="1">
        <stop offset="0%" stop-color="#2d3c96"/>
        <stop offset="100%" stop-color="#d53392"/>
      </linearGradient>
  </defs>
  <rect x="10" y="10" width="780" height="980" fill="url(#Gradient2)" rx="50" ry="50" stroke="#ffd700" stroke-width="20"/>
  <text x="400" y="920" width="780" text-anchor="middle" style="font: bold 200px 'Helvetica Neue'; fill: #ffd700">01526</text>

  <g transform="translate(80 80) scale(64)">
<rect x="0" y="0" width="1" height="1" fill="#73EDD8" /><rect x="1" y="0" width="1" height="1" fill="#89E6DB" /><rect x="2" y="0" width="1" height="1" fill="#5E848D" /><rect x="3" y="0" width="1" height="1" fill="#C0C9D8" /><rect x="4" y="0" width="1" height="1" fill="#C1CBCD" /><rect x="5" y="0" width="1" height="1" fill="#939C9B" /><rect x="6" y="0" width="1" height="1" fill="#B7BCC0" /><rect x="7" y="0" width="1" height="1" fill="#DDE0E9" /><rect x="8" y="0" width="1" height="1" fill="#D7D5E3" /><rect x="9" y="0" width="1" height="1" fill="#706C7D" /><rect x="0" y="1" width="1" height="1" fill="#6EEDDC" /><rect x="1" y="1" width="1" height="1" fill="#84E5DC" /><rect x="2" y="1" width="1" height="1" fill="#5C848E" /><rect x="3" y="1" width="1" height="1" fill="#C0C9D8" /><rect x="4" y="1" width="1" height="1" fill="#C1CBCD" /><rect x="5" y="1" width="1" height="1" fill="#949A9A" /><rect x="6" y="1" width="1" height="1" fill="#B6BBBE" /><rect x="7" y="1" width="1" height="1" fill="#DDE0E7" /><rect x="8" y="1" width="1" height="1" fill="#E2E2EC" /><rect x="9" y="1" width="1" height="1" fill="#D4D4E0" /><rect x="0" y="2" width="1" height="1" fill="#62E8E1" /><rect x="1" y="2" width="1" height="1" fill="#79E1E0" /><rect x="2" y="2" width="1" height="1" fill="#54808B" /><rect x="3" y="2" width="1" height="1" fill="#BFCBD7" /><rect x="4" y="2" width="1" height="1" fill="#C0C7CD" /><rect x="5" y="2" width="1" height="1" fill="#9CA0A1" /><rect x="6" y="2" width="1" height="1" fill="#B9BEC1" /><rect x="7" y="2" width="1" height="1" fill="#D6DBDE" /><rect x="8" y="2" width="1" height="1" fill="#DBE0E4" /><rect x="9" y="2" width="1" height="1" fill="#D7DCE0" /><rect x="0" y="3" width="1" height="1" fill="#65EFEF" /><rect x="1" y="3" width="1" height="1" fill="#6FDBDE" /><rect x="2" y="3" width="1" height="1" fill="#578690" /><rect x="3" y="3" width="1" height="1" fill="#C3CFDB" /><rect x="4" y="3" width="1" height="1" fill="#C0C5CB" /><rect x="5" y="3" width="1" height="1" fill="#909195" /><rect x="6" y="3" width="1" height="1" fill="#BDC1C4" /><rect x="7" y="3" width="1" height="1" fill="#DDE2E5" /><rect x="8" y="3" width="1" height="1" fill="#E0E8EA" /><rect x="9" y="3" width="1" height="1" fill="#D7DFE1" /><rect x="0" y="4" width="1" height="1" fill="#55DFE1" /><rect x="1" y="4" width="1" height="1" fill="#7DE9EC" /><rect x="2" y="4" width="1" height="1" fill="#578690" /><rect x="3" y="4" width="1" height="1" fill="#B5C1CD" /><rect x="4" y="4" width="1" height="1" fill="#C6C9D2" /><rect x="5" y="4" width="1" height="1" fill="#A09FA7" /><rect x="6" y="4" width="1" height="1" fill="#BABBC0" /><rect x="7" y="4" width="1" height="1" fill="#D8DBE0" /><rect x="8" y="4" width="1" height="1" fill="#D9DCE1" /><rect x="9" y="4" width="1" height="1" fill="#DDE0E5" /><rect x="0" y="5" width="1" height="1" fill="#53DDE0" /><rect x="1" y="5" width="1" height="1" fill="#6DD8DE" /><rect x="2" y="5" width="1" height="1" fill="#537F8C" /><rect x="3" y="5" width="1" height="1" fill="#C4CDDC" /><rect x="4" y="5" width="1" height="1" fill="#C6C6D2" /><rect x="5" y="5" width="1" height="1" fill="#9795A0" /><rect x="6" y="5" width="1" height="1" fill="#B8B8C0" /><rect x="7" y="5" width="1" height="1" fill="#E0E0E8" /><rect x="8" y="5" width="1" height="1" fill="#DCDCE6" /><rect x="9" y="5" width="1" height="1" fill="#B9B9C3" /><rect x="0" y="6" width="1" height="1" fill="#5DE2E7" /><rect x="1" y="6" width="1" height="1" fill="#6FD6DF" /><rect x="2" y="6" width="1" height="1" fill="#3E6979" /><rect x="3" y="6" width="1" height="1" fill="#9198AA" /><rect x="4" y="6" width="1" height="1" fill="#C2C1CF" /><rect x="5" y="6" width="1" height="1" fill="#9895A0" /><rect x="6" y="6" width="1" height="1" fill="#BDBBC8" /><rect x="7" y="6" width="1" height="1" fill="#DBD9E6" /><rect x="8" y="6" width="1" height="1" fill="#E0DEEC" /><rect x="9" y="6" width="1" height="1" fill="#9593A1" /><rect x="0" y="7" width="1" height="1" fill="#5EE1E9" /><rect x="1" y="7" width="1" height="1" fill="#73D7E4" /><rect x="2" y="7" width="1" height="1" fill="#396274" /><rect x="3" y="7" width="1" height="1" fill="#9299AC" /><rect x="4" y="7" width="1" height="1" fill="#C4C1D2" /><rect x="5" y="7" width="1" height="1" fill="#A29BAA" /><rect x="6" y="7" width="1" height="1" fill="#BDB9C8" /><rect x="7" y="7" width="1" height="1" fill="#DCD8E9" /><rect x="8" y="7" width="1" height="1" fill="#E0DBEF" /><rect x="9" y="7" width="1" height="1" fill="#8D889C" /><rect x="0" y="8" width="1" height="1" fill="#55D8E2" /><rect x="1" y="8" width="1" height="1" fill="#71D5E4" /><rect x="2" y="8" width="1" height="1" fill="#43697E" /><rect x="3" y="8" width="1" height="1" fill="#ACB1C7" /><rect x="4" y="8" width="1" height="1" fill="#C7C2D6" /><rect x="5" y="8" width="1" height="1" fill="#A198A9" /><rect x="6" y="8" width="1" height="1" fill="#BAB3C5" /><rect x="7" y="8" width="1" height="1" fill="#E3DEF2" /><rect x="8" y="8" width="1" height="1" fill="#E0DBF1" /><rect x="9" y="8" width="1" height="1" fill="#948EA6" /><rect x="0" y="9" width="1" height="1" fill="#54D4E1" /><rect x="1" y="9" width="1" height="1" fill="#72D6E5" /><rect x="2" y="9" width="1" height="1" fill="#486E83" /><rect x="3" y="9" width="1" height="1" fill="#797E94" /><rect x="4" y="9" width="1" height="1" fill="#CCC7DB" /><rect x="5" y="9" width="1" height="1" fill="#92899C" /><rect x="6" y="9" width="1" height="1" fill="#C0B9CB" /><rect x="7" y="9" width="1" height="1" fill="#E3DBF0" /><rect x="8" y="9" width="1" height="1" fill="#DFD7EF" /><rect x="9" y="9" width="1" height="1" fill="#9C93AE" />
  </g>
</svg>