<svg width="800" height="1000" xmlns="http://www.w3.org/2000/svg"><defs><linearGradient id="g" x1="0" x2="1" y1="0" y2="1"><stop offset="0%" stop-color="#2d3c96"/><stop offset="100%" stop-color="#d53392"/></linearGradient></defs><rect x="10" y="10" width="780" height="980" fill="url(#g)" rx="50" ry="50" stroke="gold" stroke-width="20"/><text x="400" y="920" width="780" text-anchor="middle" style="font:bold 200px 'Helvetica Neue';fill:gold">01530</text><g transform="translate(80 80) scale(64)"><rect x="0" y="0" width="1" height="1" fill="#638697" /><rect x="0" y="1" width="1" height="1" fill="#638697" /><rect x="0" y="2" width="1" height="1" fill="#638697" /><rect x="0" y="3" width="1" height="1" fill="#5c809c" /><rect x="0" y="4" width="1" height="1" fill="#5379a2" /><rect x="0" y="5" width="1" height="1" fill="#648797" /><rect x="0" y="6" width="1" height="1" fill="#648796" /><rect x="0" y="7" width="1" height="1" fill="#648796" /><rect x="0" y="8" width="1" height="1" fill="#638697" /><rect x="0" y="9" width="1" height="1" fill="#638697" /><rect x="1" y="0" width="1" height="1" fill="#638697" /><rect x="1" y="1" width="1" height="1" fill="#638697" /><rect x="1" y="2" width="1" height="1" fill="#648796" /><rect x="1" y="3" width="1" height="1" fill="#4b70a4" /><rect x="1" y="4" width="1" height="1" fill="#2851b7" /><rect x="1" y="5" width="1" height="1" fill="#5076a4" /><rect x="1" y="6" width="1" height="1" fill="#5177a4" /><rect x="1" y="7" width="1" height="1" fill="#5479a1" /><rect x="1" y="8" width="1" height="1" fill="#628598" /><rect x="1" y="9" width="1" height="1" fill="#638697" /><rect x="2" y="0" width="1" height="1" fill="#638697" /><rect x="2" y="1" width="1" height="1" fill="#638697" /><rect x="2" y="2" width="1" height="1" fill="#648797" /><rect x="2" y="3" width="1" height="1" fill="#4b6e9e" /><rect x="2" y="4" width="1" height="1" fill="#123cb4" /><rect x="2" y="5" width="1" height="1" fill="#1440be" /><rect x="2" y="6" width="1" height="1" fill="#1842ba" /><rect x="2" y="7" width="1" height="1" fill="#345db5" /><rect x="2" y="8" width="1" height="1" fill="#61859b" /><rect x="2" y="9" width="1" height="1" fill="#648899" /><rect x="3" y="0" width="1" height="1" fill="#638697" /><rect x="3" y="1" width="1" height="1" fill="#638697" /><rect x="3" y="2" width="1" height="1" fill="#658796" /><rect x="3" y="3" width="1" height="1" fill="#4c72a4" /><rect x="3" y="4" width="1" height="1" fill="#123cb8" /><rect x="3" y="5" width="1" height="1" fill="#12349b" /><rect x="3" y="6" width="1" height="1" fill="#2d4e8e" /><rect x="3" y="7" width="1" height="1" fill="#587c94" /><rect x="3" y="8" width="1" height="1" fill="#4e6c7c" /><rect x="3" y="9" width="1" height="1" fill="#4d6a7a" /><rect x="4" y="0" width="1" height="1" fill="#638697" /><rect x="4" y="1" width="1" height="1" fill="#638697" /><rect x="4" y="2" width="1" height="1" fill="#608397" /><rect x="4" y="3" width="1" height="1" fill="#41649c" /><rect x="4" y="4" width="1" height="1" fill="#0d2d91" /><rect x="4" y="5" width="1" height="1" fill="#1a3470" /><rect x="4" y="6" width="1" height="1" fill="#4c697d" /><rect x="4" y="7" width="1" height="1" fill="#4a606a" /><rect x="4" y="8" width="1" height="1" fill="#2b2821" /><rect x="4" y="9" width="1" height="1" fill="#252019" /><rect x="5" y="0" width="1" height="1" fill="#648797" /><rect x="5" y="1" width="1" height="1" fill="#608397" /><rect x="5" y="2" width="1" height="1" fill="#42679f" /><rect x="5" y="3" width="1" height="1" fill="#1439a2" /><rect x="5" y="4" width="1" height="1" fill="#071f67" /><rect x="5" y="5" width="1" height="1" fill="#000106" /><rect x="5" y="6" width="1" height="1" fill="#010304" /><rect x="5" y="7" width="1" height="1" fill="#232017" /><rect x="5" y="8" width="1" height="1" fill="#a78761" /><rect x="5" y="9" width="1" height="1" fill="#c19c70" /><rect x="6" y="0" width="1" height="1" fill="#608397" /><rect x="6" y="1" width="1" height="1" fill="#42669e" /><rect x="6" y="2" width="1" height="1" fill="#153fb2" /><rect x="6" y="3" width="1" height="1" fill="#1240c6" /><rect x="6" y="4" width="1" height="1" fill="#092a89" /><rect x="6" y="5" width="1" height="1" fill="#000001" /><rect x="6" y="6" width="1" height="1" fill="#060002" /><rect x="6" y="7" width="1" height="1" fill="#100106" /><rect x="6" y="8" width="1" height="1" fill="#462b24" /><rect x="6" y="9" width="1" height="1" fill="#b7926a" /><rect x="7" y="0" width="1" height="1" fill="#43679c" /><rect x="7" y="1" width="1" height="1" fill="#173faf" /><rect x="7" y="2" width="1" height="1" fill="#1240c8" /><rect x="7" y="3" width="1" height="1" fill="#123fc3" /><rect x="7" y="4" width="1" height="1" fill="#06247a" /><rect x="7" y="5" width="1" height="1" fill="#11000b" /><rect x="7" y="6" width="1" height="1" fill="#61033e" /><rect x="7" y="7" width="1" height="1" fill="#840751" /><rect x="7" y="8" width="1" height="1" fill="#7f1344" /><rect x="7" y="9" width="1" height="1" fill="#291713" /><rect x="8" y="0" width="1" height="1" fill="#3f639c" /><rect x="8" y="1" width="1" height="1" fill="#1038b2" /><rect x="8" y="2" width="1" height="1" fill="#1241cb" /><rect x="8" y="3" width="1" height="1" fill="#113ec1" /><rect x="8" y="4" width="1" height="1" fill="#062377" /><rect x="8" y="5" width="1" height="1" fill="#14010d" /><rect x="8" y="6" width="1" height="1" fill="#6e0446" /><rect x="8" y="7" width="1" height="1" fill="#960a5e" /><rect x="8" y="8" width="1" height="1" fill="#8b134c" /><rect x="8" y="9" width="1" height="1" fill="#110305" /><rect x="9" y="0" width="1" height="1" fill="#40639c" /><rect x="9" y="1" width="1" height="1" fill="#1139b2" /><rect x="9" y="2" width="1" height="1" fill="#1241ca" /><rect x="9" y="3" width="1" height="1" fill="#113ec1" /><rect x="9" y="4" width="1" height="1" fill="#062377" /><rect x="9" y="5" width="1" height="1" fill="#14010d" /><rect x="9" y="6" width="1" height="1" fill="#6d0446" /><rect x="9" y="7" width="1" height="1" fill="#950a5d" /><rect x="9" y="8" width="1" height="1" fill="#8a134c" /><rect x="9" y="9" width="1" height="1" fill="#120406" /></g></svg>