<svg width="800" height="1000" version="1.1" xmlns="http://www.w3.org/2000/svg" xmlns:xlink="http://www.w3.org/1999/xlink">
  <defs>
      <linearGradient id="Gradient2" x1="0" x2="1" y1="0" y2="1">
        <stop offset="0%" stop-color="#2d3c96"/>
        <stop offset="100%" stop-color="#d53392"/>
      </linearGradient>
  </defs>
  <rect x="10" y="10" width="780" height="980" fill="url(#Gradient2)" rx="50" ry="50" stroke="#ffd700" stroke-width="20"/>
  <text x="400" y="920" width="780" text-anchor="middle" style="font: bold 200px 'Helvetica Neue'; fill: #ffd700">01531</text>

  <g transform="translate(80 80) scale(64)">
<rect x="0" y="0" width="1" height="1" fill="#40639c" />
,<rect x="0" y="1" width="1" height="1" fill="#1139b2" />
,<rect x="0" y="2" width="1" height="1" fill="#1241ca" />
,<rect x="0" y="3" width="1" height="1" fill="#113ec2" />
,<rect x="0" y="4" width="1" height="1" fill="#09257e" />
,<rect x="0" y="5" width="1" height="1" fill="#000106" />
,<rect x="0" y="6" width="1" height="1" fill="#030001" />
,<rect x="0" y="7" width="1" height="1" fill="#120606" />
,<rect x="0" y="8" width="1" height="1" fill="#3c291f" />
,<rect x="0" y="9" width="1" height="1" fill="#c49d72" />
,<rect x="1" y="0" width="1" height="1" fill="#40639c" />
,<rect x="1" y="1" width="1" height="1" fill="#1139b2" />
,<rect x="1" y="2" width="1" height="1" fill="#1241ca" />
,<rect x="1" y="3" width="1" height="1" fill="#1241c9" />
,<rect x="1" y="4" width="1" height="1" fill="#0e38b1" />
,<rect x="1" y="5" width="1" height="1" fill="#03185c" />
,<rect x="1" y="6" width="1" height="1" fill="#211a13" />
,<rect x="1" y="7" width="1" height="1" fill="#9e805b" />
,<rect x="1" y="8" width="1" height="1" fill="#b18f66" />
,<rect x="1" y="9" width="1" height="1" fill="#daaf7f" />
,<rect x="2" y="0" width="1" height="1" fill="#40639c" />
,<rect x="2" y="1" width="1" height="1" fill="#1139b2" />
,<rect x="2" y="2" width="1" height="1" fill="#1241ca" />
,<rect x="2" y="3" width="1" height="1" fill="#1242cd" />
,<rect x="2" y="4" width="1" height="1" fill="#0b319d" />
,<rect x="2" y="5" width="1" height="1" fill="#010319" />
,<rect x="2" y="6" width="1" height="1" fill="#070303" />
,<rect x="2" y="7" width="1" height="1" fill="#322119" />
,<rect x="2" y="8" width="1" height="1" fill="#553f2e" />
,<rect x="2" y="9" width="1" height="1" fill="#c8a175" />
,<rect x="3" y="0" width="1" height="1" fill="#3f639c" />
,<rect x="3" y="1" width="1" height="1" fill="#1139b2" />
,<rect x="3" y="2" width="1" height="1" fill="#1241ca" />
,<rect x="3" y="3" width="1" height="1" fill="#1242cd" />
,<rect x="3" y="4" width="1" height="1" fill="#092c90" />
,<rect x="3" y="5" width="1" height="1" fill="#0d0009" />
,<rect x="3" y="6" width="1" height="1" fill="#520234" />
,<rect x="3" y="7" width="1" height="1" fill="#6f0444" />
,<rect x="3" y="8" width="1" height="1" fill="#72133e" />
,<rect x="3" y="9" width="1" height="1" fill="#402b21" />
,<rect x="4" y="0" width="1" height="1" fill="#40649c" />
,<rect x="4" y="1" width="1" height="1" fill="#123ab1" />
,<rect x="4" y="2" width="1" height="1" fill="#1241c9" />
,<rect x="4" y="3" width="1" height="1" fill="#113ec2" />
,<rect x="4" y="4" width="1" height="1" fill="#06247b" />
,<rect x="4" y="5" width="1" height="1" fill="#14010e" />
,<rect x="4" y="6" width="1" height="1" fill="#6f0447" />
,<rect x="4" y="7" width="1" height="1" fill="#970a5e" />
,<rect x="4" y="8" width="1" height="1" fill="#8c134d" />
,<rect x="4" y="9" width="1" height="1" fill="#0e0204" />
,<rect x="5" y="0" width="1" height="1" fill="#5b7e98" />
,<rect x="5" y="1" width="1" height="1" fill="#385da2" />
,<rect x="5" y="2" width="1" height="1" fill="#123ab1" />
,<rect x="5" y="3" width="1" height="1" fill="#0b2b8a" />
,<rect x="5" y="4" width="1" height="1" fill="#01051f" />
,<rect x="5" y="5" width="1" height="1" fill="#13000a" />
,<rect x="5" y="6" width="1" height="1" fill="#6b0444" />
,<rect x="5" y="7" width="1" height="1" fill="#92095b" />
,<rect x="5" y="8" width="1" height="1" fill="#89134b" />
,<rect x="5" y="9" width="1" height="1" fill="#0a0104" />
,<rect x="6" y="0" width="1" height="1" fill="#648797" />
,<rect x="6" y="1" width="1" height="1" fill="#5c7e98" />
,<rect x="6" y="2" width="1" height="1" fill="#4b6e9b" />
,<rect x="6" y="3" width="1" height="1" fill="#4a698d" />
,<rect x="6" y="4" width="1" height="1" fill="#2e414a" />
,<rect x="6" y="5" width="1" height="1" fill="#030102" />
,<rect x="6" y="6" width="1" height="1" fill="#1c0110" />
,<rect x="6" y="7" width="1" height="1" fill="#2a0118" />
,<rect x="6" y="8" width="1" height="1" fill="#351429" />
,<rect x="6" y="9" width="1" height="1" fill="#425563" />
,<rect x="7" y="0" width="1" height="1" fill="#638697" />
,<rect x="7" y="1" width="1" height="1" fill="#638697" />
,<rect x="7" y="2" width="1" height="1" fill="#648797" />
,<rect x="7" y="3" width="1" height="1" fill="#658898" />
,<rect x="7" y="4" width="1" height="1" fill="#5b7b8b" />
,<rect x="7" y="5" width="1" height="1" fill="#415a66" />
,<rect x="7" y="6" width="1" height="1" fill="#3f5864" />
,<rect x="7" y="7" width="1" height="1" fill="#3e5863" />
,<rect x="7" y="8" width="1" height="1" fill="#45626d" />
,<rect x="7" y="9" width="1" height="1" fill="#628595" />
,<rect x="8" y="0" width="1" height="1" fill="#638697" />
,<rect x="8" y="1" width="1" height="1" fill="#638697" />
,<rect x="8" y="2" width="1" height="1" fill="#638697" />
,<rect x="8" y="3" width="1" height="1" fill="#638697" />
,<rect x="8" y="4" width="1" height="1" fill="#638798" />
,<rect x="8" y="5" width="1" height="1" fill="#658899" />
,<rect x="8" y="6" width="1" height="1" fill="#65889a" />
,<rect x="8" y="7" width="1" height="1" fill="#65889a" />
,<rect x="8" y="8" width="1" height="1" fill="#648899" />
,<rect x="8" y="9" width="1" height="1" fill="#638697" />
,<rect x="9" y="0" width="1" height="1" fill="#638697" />
,<rect x="9" y="1" width="1" height="1" fill="#638697" />
,<rect x="9" y="2" width="1" height="1" fill="#638697" />
,<rect x="9" y="3" width="1" height="1" fill="#638697" />
,<rect x="9" y="4" width="1" height="1" fill="#638697" />
,<rect x="9" y="5" width="1" height="1" fill="#638697" />
,<rect x="9" y="6" width="1" height="1" fill="#638697" />
,<rect x="9" y="7" width="1" height="1" fill="#638697" />
,<rect x="9" y="8" width="1" height="1" fill="#638697" />
,<rect x="9" y="9" width="1" height="1" fill="#638697" />

  </g>
</svg>