<svg width="800" height="1000" version="1.1" xmlns="http://www.w3.org/2000/svg" xmlns:xlink="http://www.w3.org/1999/xlink">
  <defs>
      <linearGradient id="Gradient2" x1="0" x2="1" y1="0" y2="1">
        <stop offset="0%" stop-color="#2d3c96"/>
        <stop offset="100%" stop-color="#d53392"/>
      </linearGradient>
  </defs>
  <rect x="10" y="10" width="780" height="980" fill="url(#Gradient2)" rx="50" ry="50" stroke="#ffd700" stroke-width="20"/>
  <text x="400" y="920" width="780" text-anchor="middle" style="font: bold 200px 'Helvetica Neue'; fill: #ffd700">01530</text>

  <g transform="translate(80 80) scale(64)">
<rect x="0" y="0" width="1" height="1" fill="#638697" /><rect x="1" y="0" width="1" height="1" fill="#638697" /><rect x="2" y="0" width="1" height="1" fill="#638697" /><rect x="3" y="0" width="1" height="1" fill="#638697" /><rect x="4" y="0" width="1" height="1" fill="#638697" /><rect x="5" y="0" width="1" height="1" fill="#648797" /><rect x="6" y="0" width="1" height="1" fill="#608397" /><rect x="7" y="0" width="1" height="1" fill="#43679C" /><rect x="8" y="0" width="1" height="1" fill="#3F639C" /><rect x="9" y="0" width="1" height="1" fill="#40639C" /><rect x="0" y="1" width="1" height="1" fill="#638697" /><rect x="1" y="1" width="1" height="1" fill="#638697" /><rect x="2" y="1" width="1" height="1" fill="#638697" /><rect x="3" y="1" width="1" height="1" fill="#638697" /><rect x="4" y="1" width="1" height="1" fill="#638697" /><rect x="5" y="1" width="1" height="1" fill="#608397" /><rect x="6" y="1" width="1" height="1" fill="#42669E" /><rect x="7" y="1" width="1" height="1" fill="#173FAF" /><rect x="8" y="1" width="1" height="1" fill="#1038B2" /><rect x="9" y="1" width="1" height="1" fill="#1139B2" /><rect x="0" y="2" width="1" height="1" fill="#638697" /><rect x="1" y="2" width="1" height="1" fill="#648796" /><rect x="2" y="2" width="1" height="1" fill="#648797" /><rect x="3" y="2" width="1" height="1" fill="#658796" /><rect x="4" y="2" width="1" height="1" fill="#608397" /><rect x="5" y="2" width="1" height="1" fill="#42679F" /><rect x="6" y="2" width="1" height="1" fill="#153FB2" /><rect x="7" y="2" width="1" height="1" fill="#1240C8" /><rect x="8" y="2" width="1" height="1" fill="#1241CB" /><rect x="9" y="2" width="1" height="1" fill="#1241CA" /><rect x="0" y="3" width="1" height="1" fill="#5C809C" /><rect x="1" y="3" width="1" height="1" fill="#4B70A4" /><rect x="2" y="3" width="1" height="1" fill="#4B6E9E" /><rect x="3" y="3" width="1" height="1" fill="#4C72A4" /><rect x="4" y="3" width="1" height="1" fill="#41649C" /><rect x="5" y="3" width="1" height="1" fill="#1439A2" /><rect x="6" y="3" width="1" height="1" fill="#1240C6" /><rect x="7" y="3" width="1" height="1" fill="#123FC3" /><rect x="8" y="3" width="1" height="1" fill="#113EC1" /><rect x="9" y="3" width="1" height="1" fill="#113EC1" /><rect x="0" y="4" width="1" height="1" fill="#5379A2" /><rect x="1" y="4" width="1" height="1" fill="#2851B7" /><rect x="2" y="4" width="1" height="1" fill="#123CB4" /><rect x="3" y="4" width="1" height="1" fill="#123CB8" /><rect x="4" y="4" width="1" height="1" fill="#0D2D91" /><rect x="5" y="4" width="1" height="1" fill="#071F67" /><rect x="6" y="4" width="1" height="1" fill="#092A89" /><rect x="7" y="4" width="1" height="1" fill="#06247A" /><rect x="8" y="4" width="1" height="1" fill="#062377" /><rect x="9" y="4" width="1" height="1" fill="#062377" /><rect x="0" y="5" width="1" height="1" fill="#648797" /><rect x="1" y="5" width="1" height="1" fill="#5076A4" /><rect x="2" y="5" width="1" height="1" fill="#1440BE" /><rect x="3" y="5" width="1" height="1" fill="#12349B" /><rect x="4" y="5" width="1" height="1" fill="#1A3470" /><rect x="5" y="5" width="1" height="1" fill="#000106" /><rect x="6" y="5" width="1" height="1" fill="#000001" /><rect x="7" y="5" width="1" height="1" fill="#11000B" /><rect x="8" y="5" width="1" height="1" fill="#14010D" /><rect x="9" y="5" width="1" height="1" fill="#14010D" /><rect x="0" y="6" width="1" height="1" fill="#648796" /><rect x="1" y="6" width="1" height="1" fill="#5177A4" /><rect x="2" y="6" width="1" height="1" fill="#1842BA" /><rect x="3" y="6" width="1" height="1" fill="#2D4E8E" /><rect x="4" y="6" width="1" height="1" fill="#4C697D" /><rect x="5" y="6" width="1" height="1" fill="#010304" /><rect x="6" y="6" width="1" height="1" fill="#060002" /><rect x="7" y="6" width="1" height="1" fill="#61033E" /><rect x="8" y="6" width="1" height="1" fill="#6E0446" /><rect x="9" y="6" width="1" height="1" fill="#6D0446" /><rect x="0" y="7" width="1" height="1" fill="#648796" /><rect x="1" y="7" width="1" height="1" fill="#5479A1" /><rect x="2" y="7" width="1" height="1" fill="#345DB5" /><rect x="3" y="7" width="1" height="1" fill="#587C94" /><rect x="4" y="7" width="1" height="1" fill="#4A606A" /><rect x="5" y="7" width="1" height="1" fill="#232017" /><rect x="6" y="7" width="1" height="1" fill="#100106" /><rect x="7" y="7" width="1" height="1" fill="#840751" /><rect x="8" y="7" width="1" height="1" fill="#960A5E" /><rect x="9" y="7" width="1" height="1" fill="#950A5D" /><rect x="0" y="8" width="1" height="1" fill="#638697" /><rect x="1" y="8" width="1" height="1" fill="#628598" /><rect x="2" y="8" width="1" height="1" fill="#61859B" /><rect x="3" y="8" width="1" height="1" fill="#4E6C7C" /><rect x="4" y="8" width="1" height="1" fill="#2B2821" /><rect x="5" y="8" width="1" height="1" fill="#A78761" /><rect x="6" y="8" width="1" height="1" fill="#462B24" /><rect x="7" y="8" width="1" height="1" fill="#7F1344" /><rect x="8" y="8" width="1" height="1" fill="#8B134C" /><rect x="9" y="8" width="1" height="1" fill="#8A134C" /><rect x="0" y="9" width="1" height="1" fill="#638697" /><rect x="1" y="9" width="1" height="1" fill="#638697" /><rect x="2" y="9" width="1" height="1" fill="#648899" /><rect x="3" y="9" width="1" height="1" fill="#4D6A7A" /><rect x="4" y="9" width="1" height="1" fill="#252019" /><rect x="5" y="9" width="1" height="1" fill="#C19C70" /><rect x="6" y="9" width="1" height="1" fill="#B7926A" /><rect x="7" y="9" width="1" height="1" fill="#291713" /><rect x="8" y="9" width="1" height="1" fill="#110305" /><rect x="9" y="9" width="1" height="1" fill="#120406" />
  </g>
</svg>