<svg width="800" height="1000" version="1.1" xmlns="http://www.w3.org/2000/svg" xmlns:xlink="http://www.w3.org/1999/xlink">
  <defs>
      <linearGradient id="Gradient2" x1="0" x2="1" y1="0" y2="1">
        <stop offset="0%" stop-color="#2d3c96"/>
        <stop offset="100%" stop-color="#d53392"/>
      </linearGradient>
  </defs>
  <rect x="10" y="10" width="780" height="980" fill="url(#Gradient2)" rx="50" ry="50" stroke="#ffd700" stroke-width="20"/>
  <text x="400" y="920" width="780" text-anchor="middle" style="font: bold 200px 'Helvetica Neue'; fill: #ffd700">01562</text>

  <g transform="translate(80 80) scale(64)">
<rect x="0" y="0" width="1" height="1" fill="#112F51" /><rect x="1" y="0" width="1" height="1" fill="#1D3B5C" /><rect x="2" y="0" width="1" height="1" fill="#14304F" /><rect x="3" y="0" width="1" height="1" fill="#1A3552" /><rect x="4" y="0" width="1" height="1" fill="#17324C" /><rect x="5" y="0" width="1" height="1" fill="#16334B" /><rect x="6" y="0" width="1" height="1" fill="#1C3950" /><rect x="7" y="0" width="1" height="1" fill="#1B3A50" /><rect x="8" y="0" width="1" height="1" fill="#2A4A61" /><rect x="9" y="0" width="1" height="1" fill="#14344B" /><rect x="0" y="1" width="1" height="1" fill="#0D2643" /><rect x="1" y="1" width="1" height="1" fill="#0D2541" /><rect x="2" y="1" width="1" height="1" fill="#001732" /><rect x="3" y="1" width="1" height="1" fill="#031931" /><rect x="4" y="1" width="1" height="1" fill="#11273D" /><rect x="5" y="1" width="1" height="1" fill="#0C2437" /><rect x="6" y="1" width="1" height="1" fill="#021A2C" /><rect x="7" y="1" width="1" height="1" fill="#112B3D" /><rect x="8" y="1" width="1" height="1" fill="#153043" /><rect x="9" y="1" width="1" height="1" fill="#001A2D" /><rect x="0" y="2" width="1" height="1" fill="#3E4D61" /><rect x="1" y="2" width="1" height="1" fill="#0B192C" /><rect x="2" y="2" width="1" height="1" fill="#3C495A" /><rect x="3" y="2" width="1" height="1" fill="#394655" /><rect x="4" y="2" width="1" height="1" fill="#36424F" /><rect x="5" y="2" width="1" height="1" fill="#34414C" /><rect x="6" y="2" width="1" height="1" fill="#192731" /><rect x="7" y="2" width="1" height="1" fill="#091822" /><rect x="8" y="2" width="1" height="1" fill="#21323D" /><rect x="9" y="2" width="1" height="1" fill="#334551" /><rect x="0" y="3" width="1" height="1" fill="#ECF5FF" /><rect x="1" y="3" width="1" height="1" fill="#58616F" /><rect x="2" y="3" width="1" height="1" fill="#ECF4FF" /><rect x="3" y="3" width="1" height="1" fill="#F5FDFF" /><rect x="4" y="3" width="1" height="1" fill="#E4EBF3" /><rect x="5" y="3" width="1" height="1" fill="#F9FFFF" /><rect x="6" y="3" width="1" height="1" fill="#D5DEE3" /><rect x="7" y="3" width="1" height="1" fill="#4A545A" /><rect x="8" y="3" width="1" height="1" fill="#3E4A51" /><rect x="9" y="3" width="1" height="1" fill="#F1FEFF" /><rect x="0" y="4" width="1" height="1" fill="#ECF5FF" /><rect x="1" y="4" width="1" height="1" fill="#49525F" /><rect x="2" y="4" width="1" height="1" fill="#F8FFFF" /><rect x="3" y="4" width="1" height="1" fill="#F8FFFF" /><rect x="4" y="4" width="1" height="1" fill="#F9FFFF" /><rect x="5" y="4" width="1" height="1" fill="#EFF7FC" /><rect x="6" y="4" width="1" height="1" fill="#F2FBFF" /><rect x="7" y="4" width="1" height="1" fill="#9CA6AC" /><rect x="8" y="4" width="1" height="1" fill="#404C53" /><rect x="9" y="4" width="1" height="1" fill="#F3FFFF" /><rect x="0" y="5" width="1" height="1" fill="#85919F" /><rect x="1" y="5" width="1" height="1" fill="#444F5D" /><rect x="2" y="5" width="1" height="1" fill="#F3FEFF" /><rect x="3" y="5" width="1" height="1" fill="#949EA8" /><rect x="4" y="5" width="1" height="1" fill="#707981" /><rect x="5" y="5" width="1" height="1" fill="#778087" /><rect x="6" y="5" width="1" height="1" fill="#E7F1F9" /><rect x="7" y="5" width="1" height="1" fill="#E1EDF5" /><rect x="8" y="5" width="1" height="1" fill="#46545D" /><rect x="9" y="5" width="1" height="1" fill="#C2D0DA" /><rect x="0" y="6" width="1" height="1" fill="#071629" /><rect x="1" y="6" width="1" height="1" fill="#394759" /><rect x="2" y="6" width="1" height="1" fill="#EBF9FF" /><rect x="3" y="6" width="1" height="1" fill="#505D6B" /><rect x="4" y="6" width="1" height="1" fill="#05111E" /><rect x="5" y="6" width="1" height="1" fill="#000A15" /><rect x="6" y="6" width="1" height="1" fill="#8A99A5" /><rect x="7" y="6" width="1" height="1" fill="#F1FFFF" /><rect x="8" y="6" width="1" height="1" fill="#142534" /><rect x="9" y="6" width="1" height="1" fill="#0F2130" /><rect x="0" y="7" width="1" height="1" fill="#0A182C" /><rect x="1" y="7" width="1" height="1" fill="#435164" /><rect x="2" y="7" width="1" height="1" fill="#EDFAFF" /><rect x="3" y="7" width="1" height="1" fill="#586574" /><rect x="4" y="7" width="1" height="1" fill="#1B2735" /><rect x="5" y="7" width="1" height="1" fill="#111E2C" /><rect x="6" y="7" width="1" height="1" fill="#6C7B88" /><rect x="7" y="7" width="1" height="1" fill="#EFFFFF" /><rect x="8" y="7" width="1" height="1" fill="#2B3C4C" /><rect x="9" y="7" width="1" height="1" fill="#0E1F30" /><rect x="0" y="8" width="1" height="1" fill="#566072" /><rect x="1" y="8" width="1" height="1" fill="#3F4859" /><rect x="2" y="8" width="1" height="1" fill="#F2FBFF" /><rect x="3" y="8" width="1" height="1" fill="#49515F" /><rect x="4" y="8" width="1" height="1" fill="#09111E" /><rect x="5" y="8" width="1" height="1" fill="#000714" /><rect x="6" y="8" width="1" height="1" fill="#99A4B1" /><rect x="7" y="8" width="1" height="1" fill="#F5FFFF" /><rect x="8" y="8" width="1" height="1" fill="#172535" /><rect x="9" y="8" width="1" height="1" fill="#152434" /><rect x="0" y="9" width="1" height="1" fill="#BDC4D6" /><rect x="1" y="9" width="1" height="1" fill="#343B4C" /><rect x="2" y="9" width="1" height="1" fill="#F0F6FF" /><rect x="3" y="9" width="1" height="1" fill="#ADB3C1" /><rect x="4" y="9" width="1" height="1" fill="#888E9B" /><rect x="5" y="9" width="1" height="1" fill="#9198A4" /><rect x="6" y="9" width="1" height="1" fill="#F0F9FF" /><rect x="7" y="9" width="1" height="1" fill="#D1DCE9" /><rect x="8" y="9" width="1" height="1" fill="#202D3C" /><rect x="9" y="9" width="1" height="1" fill="#1E2B3B" />
  </g>
</svg>