<svg width="800" height="1000" version="1.1" xmlns="http://www.w3.org/2000/svg" xmlns:xlink="http://www.w3.org/1999/xlink">
  <defs>
      <linearGradient id="Gradient2" x1="0" x2="1" y1="0" y2="1">
        <stop offset="0%" stop-color="#2d3c96"/>
        <stop offset="100%" stop-color="#d53392"/>
      </linearGradient>
  </defs>
  <rect x="10" y="10" width="780" height="980" fill="url(#Gradient2)" rx="50" ry="50" stroke="#ffd700" stroke-width="20"/>
  <text x="400" y="920" width="780" text-anchor="middle" style="font: bold 200px 'Helvetica Neue'; fill: #ffd700">01560</text>

  <g transform="translate(80 80) scale(64)">
<rect x="0" y="0" width="1" height="1" fill="#283D4E" /><rect x="1" y="0" width="1" height="1" fill="#132C42" /><rect x="2" y="0" width="1" height="1" fill="#14314F" /><rect x="3" y="0" width="1" height="1" fill="#17395C" /><rect x="4" y="0" width="1" height="1" fill="#163959" /><rect x="5" y="0" width="1" height="1" fill="#1A3D59" /><rect x="6" y="0" width="1" height="1" fill="#1C3A54" /><rect x="7" y="0" width="1" height="1" fill="#1D374E" /><rect x="8" y="0" width="1" height="1" fill="#293E59" /><rect x="9" y="0" width="1" height="1" fill="#20344F" /><rect x="0" y="1" width="1" height="1" fill="#162938" /><rect x="1" y="1" width="1" height="1" fill="#071E30" /><rect x="2" y="1" width="1" height="1" fill="#02203C" /><rect x="3" y="1" width="1" height="1" fill="#0E2F4E" /><rect x="4" y="1" width="1" height="1" fill="#143755" /><rect x="5" y="1" width="1" height="1" fill="#0B2D48" /><rect x="6" y="1" width="1" height="1" fill="#0F2B41" /><rect x="7" y="1" width="1" height="1" fill="#072034" /><rect x="8" y="1" width="1" height="1" fill="#1B2F47" /><rect x="9" y="1" width="1" height="1" fill="#0D1F37" /><rect x="0" y="2" width="1" height="1" fill="#0B1D27" /><rect x="1" y="2" width="1" height="1" fill="#425865" /><rect x="2" y="2" width="1" height="1" fill="#1A344B" /><rect x="3" y="2" width="1" height="1" fill="#092741" /><rect x="4" y="2" width="1" height="1" fill="#173750" /><rect x="5" y="2" width="1" height="1" fill="#09283D" /><rect x="6" y="2" width="1" height="1" fill="#354F5E" /><rect x="7" y="2" width="1" height="1" fill="#2A404E" /><rect x="8" y="2" width="1" height="1" fill="#0D202F" /><rect x="9" y="2" width="1" height="1" fill="#384959" /><rect x="0" y="3" width="1" height="1" fill="#304148" /><rect x="1" y="3" width="1" height="1" fill="#DDF1FA" /><rect x="2" y="3" width="1" height="1" fill="#7992A6" /><rect x="3" y="3" width="1" height="1" fill="#0E2A40" /><rect x="4" y="3" width="1" height="1" fill="#06253A" /><rect x="5" y="3" width="1" height="1" fill="#0B2838" /><rect x="6" y="3" width="1" height="1" fill="#AFC7D3" /><rect x="7" y="3" width="1" height="1" fill="#D4E6F0" /><rect x="8" y="3" width="1" height="1" fill="#3E4F59" /><rect x="9" y="3" width="1" height="1" fill="#EBF9FF" /><rect x="0" y="4" width="1" height="1" fill="#0D1C21" /><rect x="1" y="4" width="1" height="1" fill="#F2FFFF" /><rect x="2" y="4" width="1" height="1" fill="#879EB0" /><rect x="3" y="4" width="1" height="1" fill="#072237" /><rect x="4" y="4" width="1" height="1" fill="#0A2538" /><rect x="5" y="4" width="1" height="1" fill="#082231" /><rect x="6" y="4" width="1" height="1" fill="#C6DAE3" /><rect x="7" y="4" width="1" height="1" fill="#DCEDF4" /><rect x="8" y="4" width="1" height="1" fill="#2E3B43" /><rect x="9" y="4" width="1" height="1" fill="#F7FFFF" /><rect x="0" y="5" width="1" height="1" fill="#2E3B41" /><rect x="1" y="5" width="1" height="1" fill="#EAFBFF" /><rect x="2" y="5" width="1" height="1" fill="#7D92A5" /><rect x="3" y="5" width="1" height="1" fill="#031C32" /><rect x="4" y="5" width="1" height="1" fill="#142D41" /><rect x="5" y="5" width="1" height="1" fill="#132A3A" /><rect x="6" y="5" width="1" height="1" fill="#CDDFE9" /><rect x="7" y="5" width="1" height="1" fill="#DBEAEF" /><rect x="8" y="5" width="1" height="1" fill="#3B444D" /><rect x="9" y="5" width="1" height="1" fill="#F0F9FF" /><rect x="0" y="6" width="1" height="1" fill="#29333D" /><rect x="1" y="6" width="1" height="1" fill="#EAF7FF" /><rect x="2" y="6" width="1" height="1" fill="#92A4BC" /><rect x="3" y="6" width="1" height="1" fill="#102842" /><rect x="4" y="6" width="1" height="1" fill="#122A42" /><rect x="5" y="6" width="1" height="1" fill="#02192B" /><rect x="6" y="6" width="1" height="1" fill="#C7D7E4" /><rect x="7" y="6" width="1" height="1" fill="#E1EEF6" /><rect x="8" y="6" width="1" height="1" fill="#535965" /><rect x="9" y="6" width="1" height="1" fill="#F2F9FF" /><rect x="0" y="7" width="1" height="1" fill="#242E3A" /><rect x="1" y="7" width="1" height="1" fill="#F0FDFF" /><rect x="2" y="7" width="1" height="1" fill="#8B9CB6" /><rect x="3" y="7" width="1" height="1" fill="#061B38" /><rect x="4" y="7" width="1" height="1" fill="#1A324C" /><rect x="5" y="7" width="1" height="1" fill="#0F2439" /><rect x="6" y="7" width="1" height="1" fill="#D0E0EF" /><rect x="7" y="7" width="1" height="1" fill="#DBE5EF" /><rect x="8" y="7" width="1" height="1" fill="#383E4A" /><rect x="9" y="7" width="1" height="1" fill="#FBFFFF" /><rect x="0" y="8" width="1" height="1" fill="#283442" /><rect x="1" y="8" width="1" height="1" fill="#EEFBFF" /><rect x="2" y="8" width="1" height="1" fill="#899AB4" /><rect x="3" y="8" width="1" height="1" fill="#051A37" /><rect x="4" y="8" width="1" height="1" fill="#1A324C" /><rect x="5" y="8" width="1" height="1" fill="#0D2237" /><rect x="6" y="8" width="1" height="1" fill="#CBDBEA" /><rect x="7" y="8" width="1" height="1" fill="#DBE8F1" /><rect x="8" y="8" width="1" height="1" fill="#3D434F" /><rect x="9" y="8" width="1" height="1" fill="#F6FAFF" /><rect x="0" y="9" width="1" height="1" fill="#283442" /><rect x="1" y="9" width="1" height="1" fill="#ECFCFF" /><rect x="2" y="9" width="1" height="1" fill="#899AB6" /><rect x="3" y="9" width="1" height="1" fill="#051A37" /><rect x="4" y="9" width="1" height="1" fill="#1A324E" /><rect x="5" y="9" width="1" height="1" fill="#0C2239" /><rect x="6" y="9" width="1" height="1" fill="#CBDBEA" /><rect x="7" y="9" width="1" height="1" fill="#DBE8F1" /><rect x="8" y="9" width="1" height="1" fill="#434955" /><rect x="9" y="9" width="1" height="1" fill="#FAFEFF" />
  </g>
</svg>