<svg width="800" height="1000" version="1.1" xmlns="http://www.w3.org/2000/svg" xmlns:xlink="http://www.w3.org/1999/xlink">
  <defs>
      <linearGradient id="Gradient2" x1="0" x2="1" y1="0" y2="1">
        <stop offset="0%" stop-color="#2d3c96"/>
        <stop offset="100%" stop-color="#d53392"/>
      </linearGradient>
  </defs>
  <rect x="10" y="10" width="780" height="980" fill="url(#Gradient2)" rx="50" ry="50" stroke="#ffd700" stroke-width="20"/>
  <text x="400" y="920" width="780" text-anchor="middle" style="font: bold 200px 'Helvetica Neue'; fill: #ffd700">01564</text>

  <g transform="translate(80 80) scale(64)">
<rect x="0" y="0" width="1" height="1" fill="#153250" /><rect x="1" y="0" width="1" height="1" fill="#1B3650" /><rect x="2" y="0" width="1" height="1" fill="#193143" /><rect x="3" y="0" width="1" height="1" fill="#1D303E" /><rect x="4" y="0" width="1" height="1" fill="#253640" /><rect x="5" y="0" width="1" height="1" fill="#192733" /><rect x="6" y="0" width="1" height="1" fill="#1C273A" /><rect x="7" y="0" width="1" height="1" fill="#202C44" /><rect x="8" y="0" width="1" height="1" fill="#1B2946" /><rect x="9" y="0" width="1" height="1" fill="#1E2D4C" /><rect x="0" y="1" width="1" height="1" fill="#04203D" /><rect x="1" y="1" width="1" height="1" fill="#0F2942" /><rect x="2" y="1" width="1" height="1" fill="#102738" /><rect x="3" y="1" width="1" height="1" fill="#0E202D" /><rect x="4" y="1" width="1" height="1" fill="#01101A" /><rect x="5" y="1" width="1" height="1" fill="#121E2A" /><rect x="6" y="1" width="1" height="1" fill="#050F21" /><rect x="7" y="1" width="1" height="1" fill="#09132C" /><rect x="8" y="1" width="1" height="1" fill="#0D1B37" /><rect x="9" y="1" width="1" height="1" fill="#122140" /><rect x="0" y="2" width="1" height="1" fill="#021B36" /><rect x="1" y="2" width="1" height="1" fill="#021930" /><rect x="2" y="2" width="1" height="1" fill="#152837" /><rect x="3" y="2" width="1" height="1" fill="#23333D" /><rect x="4" y="2" width="1" height="1" fill="#58646C" /><rect x="5" y="2" width="1" height="1" fill="#8C96A0" /><rect x="6" y="2" width="1" height="1" fill="#565F70" /><rect x="7" y="2" width="1" height="1" fill="#00071E" /><rect x="8" y="2" width="1" height="1" fill="#0D1936" /><rect x="9" y="2" width="1" height="1" fill="#142141" /><rect x="0" y="3" width="1" height="1" fill="#001129" /><rect x="1" y="3" width="1" height="1" fill="#1B3044" /><rect x="2" y="3" width="1" height="1" fill="#000B19" /><rect x="3" y="3" width="1" height="1" fill="#9FACB5" /><rect x="4" y="3" width="1" height="1" fill="#F0FAFF" /><rect x="5" y="3" width="1" height="1" fill="#F9FFFF" /><rect x="6" y="3" width="1" height="1" fill="#F0F7FF" /><rect x="7" y="3" width="1" height="1" fill="#424A60" /><rect x="8" y="3" width="1" height="1" fill="#0A1531" /><rect x="9" y="3" width="1" height="1" fill="#101C3B" /><rect x="0" y="4" width="1" height="1" fill="#001228" /><rect x="1" y="4" width="1" height="1" fill="#031426" /><rect x="2" y="4" width="1" height="1" fill="#313F4A" /><rect x="3" y="4" width="1" height="1" fill="#F7FFFF" /><rect x="4" y="4" width="1" height="1" fill="#F6FEFF" /><rect x="5" y="4" width="1" height="1" fill="#D9DFE6" /><rect x="6" y="4" width="1" height="1" fill="#F2F8FF" /><rect x="7" y="4" width="1" height="1" fill="#CED5EA" /><rect x="8" y="4" width="1" height="1" fill="#0B1530" /><rect x="9" y="4" width="1" height="1" fill="#0E1A39" /><rect x="0" y="5" width="1" height="1" fill="#06152A" /><rect x="1" y="5" width="1" height="1" fill="#0A1829" /><rect x="2" y="5" width="1" height="1" fill="#717C86" /><rect x="3" y="5" width="1" height="1" fill="#F8FFFF" /><rect x="4" y="5" width="1" height="1" fill="#7A8183" /><rect x="5" y="5" width="1" height="1" fill="#34393F" /><rect x="6" y="5" width="1" height="1" fill="#999EAB" /><rect x="7" y="5" width="1" height="1" fill="#EEF5FF" /><rect x="8" y="5" width="1" height="1" fill="#141E38" /><rect x="9" y="5" width="1" height="1" fill="#16223F" /><rect x="0" y="6" width="1" height="1" fill="#243247" /><rect x="1" y="6" width="1" height="1" fill="#0C192A" /><rect x="2" y="6" width="1" height="1" fill="#96A1AA" /><rect x="3" y="6" width="1" height="1" fill="#ECF4F8" /><rect x="4" y="6" width="1" height="1" fill="#252A2D" /><rect x="5" y="6" width="1" height="1" fill="#060B0F" /><rect x="6" y="6" width="1" height="1" fill="#272C38" /><rect x="7" y="6" width="1" height="1" fill="#8C93A5" /><rect x="8" y="6" width="1" height="1" fill="#111D34" /><rect x="9" y="6" width="1" height="1" fill="#15223C" /><rect x="0" y="7" width="1" height="1" fill="#39465D" /><rect x="1" y="7" width="1" height="1" fill="#0E1A2D" /><rect x="2" y="7" width="1" height="1" fill="#87919B" /><rect x="3" y="7" width="1" height="1" fill="#F9FFFF" /><rect x="4" y="7" width="1" height="1" fill="#4E5456" /><rect x="5" y="7" width="1" height="1" fill="#0B1014" /><rect x="6" y="7" width="1" height="1" fill="#060D17" /><rect x="7" y="7" width="1" height="1" fill="#131C2C" /><rect x="8" y="7" width="1" height="1" fill="#0E1C31" /><rect x="9" y="7" width="1" height="1" fill="#14243C" /><rect x="0" y="8" width="1" height="1" fill="#6F7C96" /><rect x="1" y="8" width="1" height="1" fill="#041026" /><rect x="2" y="8" width="1" height="1" fill="#76818E" /><rect x="3" y="8" width="1" height="1" fill="#F6FFFF" /><rect x="4" y="8" width="1" height="1" fill="#F8FFFF" /><rect x="5" y="8" width="1" height="1" fill="#A6AEB2" /><rect x="6" y="8" width="1" height="1" fill="#505862" /><rect x="7" y="8" width="1" height="1" fill="#091524" /><rect x="8" y="8" width="1" height="1" fill="#0B1C2F" /><rect x="9" y="8" width="1" height="1" fill="#13263C" /><rect x="0" y="9" width="1" height="1" fill="#9AA8C3" /><rect x="1" y="9" width="1" height="1" fill="#0D1A31" /><rect x="2" y="9" width="1" height="1" fill="#283341" /><rect x="3" y="9" width="1" height="1" fill="#F1FBFF" /><rect x="4" y="9" width="1" height="1" fill="#F3FBFF" /><rect x="5" y="9" width="1" height="1" fill="#F7FFFF" /><rect x="6" y="9" width="1" height="1" fill="#F4FEFF" /><rect x="7" y="9" width="1" height="1" fill="#8592A1" /><rect x="8" y="9" width="1" height="1" fill="#081A2D" /><rect x="9" y="9" width="1" height="1" fill="#12273C" />
  </g>
</svg>