<svg width="800" height="1000" xmlns="http://www.w3.org/2000/svg"><defs><linearGradient id="g" x1="0" x2="1" y1="0" y2="1"><stop offset="0%" stop-color="#2d3c96"/><stop offset="100%" stop-color="#d53392"/></linearGradient></defs><rect x="10" y="10" width="780" height="980" fill="url(#g)" rx="50" ry="50" stroke="gold" stroke-width="20"/><text x="400" y="920" width="780" text-anchor="middle" style="font:bold 200px 'Helvetica Neue';fill:gold">01560</text><g transform="translate(80 80) scale(64)"><rect x="0" y="0" width="1" height="1" fill="#283d4e" /><rect x="0" y="1" width="1" height="1" fill="#162938" /><rect x="0" y="2" width="1" height="1" fill="#0b1d27" /><rect x="0" y="3" width="1" height="1" fill="#304148" /><rect x="0" y="4" width="1" height="1" fill="#0d1c21" /><rect x="0" y="5" width="1" height="1" fill="#2e3b41" /><rect x="0" y="6" width="1" height="1" fill="#29333d" /><rect x="0" y="7" width="1" height="1" fill="#242e3a" /><rect x="0" y="8" width="1" height="1" fill="#283442" /><rect x="0" y="9" width="1" height="1" fill="#283442" /><rect x="1" y="0" width="1" height="1" fill="#132c42" /><rect x="1" y="1" width="1" height="1" fill="#071e30" /><rect x="1" y="2" width="1" height="1" fill="#425865" /><rect x="1" y="3" width="1" height="1" fill="#ddf1fa" /><rect x="1" y="4" width="1" height="1" fill="#f2ffff" /><rect x="1" y="5" width="1" height="1" fill="#eafbff" /><rect x="1" y="6" width="1" height="1" fill="#eaf7ff" /><rect x="1" y="7" width="1" height="1" fill="#f0fdff" /><rect x="1" y="8" width="1" height="1" fill="#eefbff" /><rect x="1" y="9" width="1" height="1" fill="#ecfcff" /><rect x="2" y="0" width="1" height="1" fill="#14314f" /><rect x="2" y="1" width="1" height="1" fill="#02203c" /><rect x="2" y="2" width="1" height="1" fill="#1a344b" /><rect x="2" y="3" width="1" height="1" fill="#7992a6" /><rect x="2" y="4" width="1" height="1" fill="#879eb0" /><rect x="2" y="5" width="1" height="1" fill="#7d92a5" /><rect x="2" y="6" width="1" height="1" fill="#92a4bc" /><rect x="2" y="7" width="1" height="1" fill="#8b9cb6" /><rect x="2" y="8" width="1" height="1" fill="#899ab4" /><rect x="2" y="9" width="1" height="1" fill="#899ab6" /><rect x="3" y="0" width="1" height="1" fill="#17395c" /><rect x="3" y="1" width="1" height="1" fill="#0e2f4e" /><rect x="3" y="2" width="1" height="1" fill="#092741" /><rect x="3" y="3" width="1" height="1" fill="#0e2a40" /><rect x="3" y="4" width="1" height="1" fill="#072237" /><rect x="3" y="5" width="1" height="1" fill="#031c32" /><rect x="3" y="6" width="1" height="1" fill="#102842" /><rect x="3" y="7" width="1" height="1" fill="#061b38" /><rect x="3" y="8" width="1" height="1" fill="#051a37" /><rect x="3" y="9" width="1" height="1" fill="#051a37" /><rect x="4" y="0" width="1" height="1" fill="#163959" /><rect x="4" y="1" width="1" height="1" fill="#143755" /><rect x="4" y="2" width="1" height="1" fill="#173750" /><rect x="4" y="3" width="1" height="1" fill="#06253a" /><rect x="4" y="4" width="1" height="1" fill="#0a2538" /><rect x="4" y="5" width="1" height="1" fill="#142d41" /><rect x="4" y="6" width="1" height="1" fill="#122a42" /><rect x="4" y="7" width="1" height="1" fill="#1a324c" /><rect x="4" y="8" width="1" height="1" fill="#1a324c" /><rect x="4" y="9" width="1" height="1" fill="#1a324e" /><rect x="5" y="0" width="1" height="1" fill="#1a3d59" /><rect x="5" y="1" width="1" height="1" fill="#0b2d48" /><rect x="5" y="2" width="1" height="1" fill="#09283d" /><rect x="5" y="3" width="1" height="1" fill="#0b2838" /><rect x="5" y="4" width="1" height="1" fill="#082231" /><rect x="5" y="5" width="1" height="1" fill="#132a3a" /><rect x="5" y="6" width="1" height="1" fill="#02192b" /><rect x="5" y="7" width="1" height="1" fill="#0f2439" /><rect x="5" y="8" width="1" height="1" fill="#0d2237" /><rect x="5" y="9" width="1" height="1" fill="#0c2239" /><rect x="6" y="0" width="1" height="1" fill="#1c3a54" /><rect x="6" y="1" width="1" height="1" fill="#0f2b41" /><rect x="6" y="2" width="1" height="1" fill="#354f5e" /><rect x="6" y="3" width="1" height="1" fill="#afc7d3" /><rect x="6" y="4" width="1" height="1" fill="#c6dae3" /><rect x="6" y="5" width="1" height="1" fill="#cddfe9" /><rect x="6" y="6" width="1" height="1" fill="#c7d7e4" /><rect x="6" y="7" width="1" height="1" fill="#d0e0ef" /><rect x="6" y="8" width="1" height="1" fill="#cbdbea" /><rect x="6" y="9" width="1" height="1" fill="#cbdbea" /><rect x="7" y="0" width="1" height="1" fill="#1d374e" /><rect x="7" y="1" width="1" height="1" fill="#072034" /><rect x="7" y="2" width="1" height="1" fill="#2a404e" /><rect x="7" y="3" width="1" height="1" fill="#d4e6f0" /><rect x="7" y="4" width="1" height="1" fill="#dcedf4" /><rect x="7" y="5" width="1" height="1" fill="#dbeaef" /><rect x="7" y="6" width="1" height="1" fill="#e1eef6" /><rect x="7" y="7" width="1" height="1" fill="#dbe5ef" /><rect x="7" y="8" width="1" height="1" fill="#dbe8f1" /><rect x="7" y="9" width="1" height="1" fill="#dbe8f1" /><rect x="8" y="0" width="1" height="1" fill="#293e59" /><rect x="8" y="1" width="1" height="1" fill="#1b2f47" /><rect x="8" y="2" width="1" height="1" fill="#0d202f" /><rect x="8" y="3" width="1" height="1" fill="#3e4f59" /><rect x="8" y="4" width="1" height="1" fill="#2e3b43" /><rect x="8" y="5" width="1" height="1" fill="#3b444d" /><rect x="8" y="6" width="1" height="1" fill="#535965" /><rect x="8" y="7" width="1" height="1" fill="#383e4a" /><rect x="8" y="8" width="1" height="1" fill="#3d434f" /><rect x="8" y="9" width="1" height="1" fill="#434955" /><rect x="9" y="0" width="1" height="1" fill="#20344f" /><rect x="9" y="1" width="1" height="1" fill="#0d1f37" /><rect x="9" y="2" width="1" height="1" fill="#384959" /><rect x="9" y="3" width="1" height="1" fill="#ebf9ff" /><rect x="9" y="4" width="1" height="1" fill="#f7ffff" /><rect x="9" y="5" width="1" height="1" fill="#f0f9ff" /><rect x="9" y="6" width="1" height="1" fill="#f2f9ff" /><rect x="9" y="7" width="1" height="1" fill="#fbffff" /><rect x="9" y="8" width="1" height="1" fill="#f6faff" /><rect x="9" y="9" width="1" height="1" fill="#fafeff" /></g></svg>