<svg width="800" height="1000" xmlns="http://www.w3.org/2000/svg"><defs><linearGradient id="g" x1="0" x2="1" y1="0" y2="1"><stop offset="0%" stop-color="#2d3c96"/><stop offset="100%" stop-color="#d53392"/></linearGradient></defs><rect x="10" y="10" width="780" height="980" fill="url(#g)" rx="50" ry="50" stroke="gold" stroke-width="20"/><text x="400" y="920" width="780" text-anchor="middle" style="font:bold 200px 'Helvetica Neue';fill:gold">01563</text><g transform="translate(80 80) scale(64)"><rect x="0" y="0" width="1" height="1" fill="#2f414f" /><rect x="0" y="1" width="1" height="1" fill="#0a1a27" /><rect x="0" y="2" width="1" height="1" fill="#2c3a45" /><rect x="0" y="3" width="1" height="1" fill="#f3feff" /><rect x="0" y="4" width="1" height="1" fill="#f5feff" /><rect x="0" y="5" width="1" height="1" fill="#c9cfd5" /><rect x="0" y="6" width="1" height="1" fill="#373d43" /><rect x="0" y="7" width="1" height="1" fill="#2f353c" /><rect x="0" y="8" width="1" height="1" fill="#3a404a" /><rect x="0" y="9" width="1" height="1" fill="#343a46" /><rect x="1" y="0" width="1" height="1" fill="#223647" /><rect x="1" y="1" width="1" height="1" fill="#061929" /><rect x="1" y="2" width="1" height="1" fill="#3b4b59" /><rect x="1" y="3" width="1" height="1" fill="#eaf8ff" /><rect x="1" y="4" width="1" height="1" fill="#f1fcff" /><rect x="1" y="5" width="1" height="1" fill="#f8ffff" /><rect x="1" y="6" width="1" height="1" fill="#e6eef7" /><rect x="1" y="7" width="1" height="1" fill="#f8ffff" /><rect x="1" y="8" width="1" height="1" fill="#f4fcff" /><rect x="1" y="9" width="1" height="1" fill="#f4fdff" /><rect x="2" y="0" width="1" height="1" fill="#2b425a" /><rect x="2" y="1" width="1" height="1" fill="#081e35" /><rect x="2" y="2" width="1" height="1" fill="#384d60" /><rect x="2" y="3" width="1" height="1" fill="#e4f7ff" /><rect x="2" y="4" width="1" height="1" fill="#ebfbff" /><rect x="2" y="5" width="1" height="1" fill="#ddecf9" /><rect x="2" y="6" width="1" height="1" fill="#8794a2" /><rect x="2" y="7" width="1" height="1" fill="#919eae" /><rect x="2" y="8" width="1" height="1" fill="#8e9cae" /><rect x="2" y="9" width="1" height="1" fill="#8a98ac" /><rect x="3" y="0" width="1" height="1" fill="#26415d" /><rect x="3" y="1" width="1" height="1" fill="#0a243e" /><rect x="3" y="2" width="1" height="1" fill="#2b425a" /><rect x="3" y="3" width="1" height="1" fill="#eaffff" /><rect x="3" y="4" width="1" height="1" fill="#ebfeff" /><rect x="3" y="5" width="1" height="1" fill="#bbccdd" /><rect x="3" y="6" width="1" height="1" fill="#09192a" /><rect x="3" y="7" width="1" height="1" fill="#0d1d30" /><rect x="3" y="8" width="1" height="1" fill="#07172d" /><rect x="3" y="9" width="1" height="1" fill="#192940" /><rect x="4" y="0" width="1" height="1" fill="#163251" /><rect x="4" y="1" width="1" height="1" fill="#082340" /><rect x="4" y="2" width="1" height="1" fill="#1a324d" /><rect x="4" y="3" width="1" height="1" fill="#b2c8df" /><rect x="4" y="4" width="1" height="1" fill="#b7cbdf" /><rect x="4" y="5" width="1" height="1" fill="#91a3b6" /><rect x="4" y="6" width="1" height="1" fill="#1e2f42" /><rect x="4" y="7" width="1" height="1" fill="#0e1f33" /><rect x="4" y="8" width="1" height="1" fill="#192b41" /><rect x="4" y="9" width="1" height="1" fill="#13253c" /><rect x="5" y="0" width="1" height="1" fill="#1e3857" /><rect x="5" y="1" width="1" height="1" fill="#102946" /><rect x="5" y="2" width="1" height="1" fill="#0e253f" /><rect x="5" y="3" width="1" height="1" fill="#0f243a" /><rect x="5" y="4" width="1" height="1" fill="#06182b" /><rect x="5" y="5" width="1" height="1" fill="#051526" /><rect x="5" y="6" width="1" height="1" fill="#162537" /><rect x="5" y="7" width="1" height="1" fill="#29384b" /><rect x="5" y="8" width="1" height="1" fill="#142338" /><rect x="5" y="9" width="1" height="1" fill="#011127" /><rect x="6" y="0" width="1" height="1" fill="#253c57" /><rect x="6" y="1" width="1" height="1" fill="#142943" /><rect x="6" y="2" width="1" height="1" fill="#1b2d43" /><rect x="6" y="3" width="1" height="1" fill="#0f1f31" /><rect x="6" y="4" width="1" height="1" fill="#101d2c" /><rect x="6" y="5" width="1" height="1" fill="#1e2a37" /><rect x="6" y="6" width="1" height="1" fill="#45505d" /><rect x="6" y="7" width="1" height="1" fill="#677280" /><rect x="6" y="8" width="1" height="1" fill="#a0acbc" /><rect x="6" y="9" width="1" height="1" fill="#cbd7e8" /><rect x="7" y="0" width="1" height="1" fill="#1e3149" /><rect x="7" y="1" width="1" height="1" fill="#0c1e35" /><rect x="7" y="2" width="1" height="1" fill="#243347" /><rect x="7" y="3" width="1" height="1" fill="#aab7c7" /><rect x="7" y="4" width="1" height="1" fill="#d4dfea" /><rect x="7" y="5" width="1" height="1" fill="#eff8ff" /><rect x="7" y="6" width="1" height="1" fill="#f6feff" /><rect x="7" y="7" width="1" height="1" fill="#f4fcff" /><rect x="7" y="8" width="1" height="1" fill="#f1f9ff" /><rect x="7" y="9" width="1" height="1" fill="#d3dce9" /><rect x="8" y="0" width="1" height="1" fill="#192b42" /><rect x="8" y="1" width="1" height="1" fill="#04142a" /><rect x="8" y="2" width="1" height="1" fill="#364455" /><rect x="8" y="3" width="1" height="1" fill="#f2fdff" /><rect x="8" y="4" width="1" height="1" fill="#f7ffff" /><rect x="8" y="5" width="1" height="1" fill="#edf5fa" /><rect x="8" y="6" width="1" height="1" fill="#9aa0a5" /><rect x="8" y="7" width="1" height="1" fill="#545a60" /><rect x="8" y="8" width="1" height="1" fill="#131a21" /><rect x="8" y="9" width="1" height="1" fill="#0c131b" /><rect x="9" y="0" width="1" height="1" fill="#28384f" /><rect x="9" y="1" width="1" height="1" fill="#0e1d32" /><rect x="9" y="2" width="1" height="1" fill="#142131" /><rect x="9" y="3" width="1" height="1" fill="#8f9aa5" /><rect x="9" y="4" width="1" height="1" fill="#b6bfc5" /><rect x="9" y="5" width="1" height="1" fill="#e8eff2" /><rect x="9" y="6" width="1" height="1" fill="#f6fdff" /><rect x="9" y="7" width="1" height="1" fill="#f7fdff" /><rect x="9" y="8" width="1" height="1" fill="#f0f6fb" /><rect x="9" y="9" width="1" height="1" fill="#e2e9ef" /></g></svg>