<svg width="800" height="1000" version="1.1" xmlns="http://www.w3.org/2000/svg" xmlns:xlink="http://www.w3.org/1999/xlink">
  <defs>
      <linearGradient id="Gradient2" x1="0" x2="1" y1="0" y2="1">
        <stop offset="0%" stop-color="#2d3c96"/>
        <stop offset="100%" stop-color="#d53392"/>
      </linearGradient>
  </defs>
  <rect x="10" y="10" width="780" height="980" fill="url(#Gradient2)" rx="50" ry="50" stroke="#ffd700" stroke-width="20"/>
  <text x="400" y="920" width="780" text-anchor="middle" style="font: bold 200px 'Helvetica Neue'; fill: #ffd700">01561</text>

  <g transform="translate(80 80) scale(64)">
<rect x="0" y="0" width="1" height="1" fill="#153854" /><rect x="1" y="0" width="1" height="1" fill="#193B57" /><rect x="2" y="0" width="1" height="1" fill="#153651" /><rect x="3" y="0" width="1" height="1" fill="#13324D" /><rect x="4" y="0" width="1" height="1" fill="#213F59" /><rect x="5" y="0" width="1" height="1" fill="#112F49" /><rect x="6" y="0" width="1" height="1" fill="#23415B" /><rect x="7" y="0" width="1" height="1" fill="#18364F" /><rect x="8" y="0" width="1" height="1" fill="#17374F" /><rect x="9" y="0" width="1" height="1" fill="#1A3A51" /><rect x="0" y="1" width="1" height="1" fill="#022038" /><rect x="1" y="1" width="1" height="1" fill="#143149" /><rect x="2" y="1" width="1" height="1" fill="#09253C" /><rect x="3" y="1" width="1" height="1" fill="#0E283F" /><rect x="4" y="1" width="1" height="1" fill="#132C42" /><rect x="5" y="1" width="1" height="1" fill="#132C42" /><rect x="6" y="1" width="1" height="1" fill="#00142A" /><rect x="7" y="1" width="1" height="1" fill="#0D263B" /><rect x="8" y="1" width="1" height="1" fill="#062135" /><rect x="9" y="1" width="1" height="1" fill="#00192C" /><rect x="0" y="2" width="1" height="1" fill="#2D404F" /><rect x="1" y="2" width="1" height="1" fill="#364958" /><rect x="2" y="2" width="1" height="1" fill="#2E404E" /><rect x="3" y="2" width="1" height="1" fill="#20303F" /><rect x="4" y="2" width="1" height="1" fill="#071624" /><rect x="5" y="2" width="1" height="1" fill="#182634" /><rect x="6" y="2" width="1" height="1" fill="#3A4956" /><rect x="7" y="2" width="1" height="1" fill="#2B3B48" /><rect x="8" y="2" width="1" height="1" fill="#31424E" /><rect x="9" y="2" width="1" height="1" fill="#273945" /><rect x="0" y="3" width="1" height="1" fill="#EBF9FF" /><rect x="1" y="3" width="1" height="1" fill="#E2F0FA" /><rect x="2" y="3" width="1" height="1" fill="#F4FFFF" /><rect x="3" y="3" width="1" height="1" fill="#C6D1DB" /><rect x="4" y="3" width="1" height="1" fill="#38424C" /><rect x="5" y="3" width="1" height="1" fill="#4E5661" /><rect x="6" y="3" width="1" height="1" fill="#EEF8FF" /><rect x="7" y="3" width="1" height="1" fill="#F7FFFF" /><rect x="8" y="3" width="1" height="1" fill="#F1FDFF" /><rect x="9" y="3" width="1" height="1" fill="#F4FFFF" /><rect x="0" y="4" width="1" height="1" fill="#EFFDFF" /><rect x="1" y="4" width="1" height="1" fill="#F3FFFF" /><rect x="2" y="4" width="1" height="1" fill="#EBF7FF" /><rect x="3" y="4" width="1" height="1" fill="#F6FFFF" /><rect x="4" y="4" width="1" height="1" fill="#A5AEB7" /><rect x="5" y="4" width="1" height="1" fill="#313943" /><rect x="6" y="4" width="1" height="1" fill="#F8FFFF" /><rect x="7" y="4" width="1" height="1" fill="#F1FBFF" /><rect x="8" y="4" width="1" height="1" fill="#F0FAFF" /><rect x="9" y="4" width="1" height="1" fill="#F3FEFF" /><rect x="0" y="5" width="1" height="1" fill="#8697A1" /><rect x="1" y="5" width="1" height="1" fill="#576670" /><rect x="2" y="5" width="1" height="1" fill="#596771" /><rect x="3" y="5" width="1" height="1" fill="#E6F1FB" /><rect x="4" y="5" width="1" height="1" fill="#D5E0EA" /><rect x="5" y="5" width="1" height="1" fill="#49535D" /><rect x="6" y="5" width="1" height="1" fill="#F4FEFF" /><rect x="7" y="5" width="1" height="1" fill="#A3AEB8" /><rect x="8" y="5" width="1" height="1" fill="#8F9AA4" /><rect x="9" y="5" width="1" height="1" fill="#89969F" /><rect x="0" y="6" width="1" height="1" fill="#4D616C" /><rect x="1" y="6" width="1" height="1" fill="#031622" /><rect x="2" y="6" width="1" height="1" fill="#000D19" /><rect x="3" y="6" width="1" height="1" fill="#ADBCC9" /><rect x="4" y="6" width="1" height="1" fill="#E8F6FF" /><rect x="5" y="6" width="1" height="1" fill="#404C59" /><rect x="6" y="6" width="1" height="1" fill="#F0FCFF" /><rect x="7" y="6" width="1" height="1" fill="#3D4B57" /><rect x="8" y="6" width="1" height="1" fill="#071623" /><rect x="9" y="6" width="1" height="1" fill="#02121F" /><rect x="0" y="7" width="1" height="1" fill="#4F636E" /><rect x="1" y="7" width="1" height="1" fill="#0D1F2B" /><rect x="2" y="7" width="1" height="1" fill="#061723" /><rect x="3" y="7" width="1" height="1" fill="#9EADB9" /><rect x="4" y="7" width="1" height="1" fill="#EFFBFF" /><rect x="5" y="7" width="1" height="1" fill="#48535F" /><rect x="6" y="7" width="1" height="1" fill="#F5FFFF" /><rect x="7" y="7" width="1" height="1" fill="#36424F" /><rect x="8" y="7" width="1" height="1" fill="#03121E" /><rect x="9" y="7" width="1" height="1" fill="#0C1B28" /><rect x="0" y="8" width="1" height="1" fill="#78888F" /><rect x="1" y="8" width="1" height="1" fill="#3A4850" /><rect x="2" y="8" width="1" height="1" fill="#4E5A62" /><rect x="3" y="8" width="1" height="1" fill="#E5EFF8" /><rect x="4" y="8" width="1" height="1" fill="#BEC6D0" /><rect x="5" y="8" width="1" height="1" fill="#404751" /><rect x="6" y="8" width="1" height="1" fill="#F6FDFF" /><rect x="7" y="8" width="1" height="1" fill="#878F99" /><rect x="8" y="8" width="1" height="1" fill="#5A646D" /><rect x="9" y="8" width="1" height="1" fill="#59646D" /><rect x="0" y="9" width="1" height="1" fill="#EFFCFF" /><rect x="1" y="9" width="1" height="1" fill="#F1FDFF" /><rect x="2" y="9" width="1" height="1" fill="#F7FFFF" /><rect x="3" y="9" width="1" height="1" fill="#EDF4FC" /><rect x="4" y="9" width="1" height="1" fill="#545A62" /><rect x="5" y="9" width="1" height="1" fill="#474B54" /><rect x="6" y="9" width="1" height="1" fill="#F8FCFF" /><rect x="7" y="9" width="1" height="1" fill="#F3F9FF" /><rect x="8" y="9" width="1" height="1" fill="#F9FFFF" /><rect x="9" y="9" width="1" height="1" fill="#F8FFFF" />
  </g>
</svg>