<svg width="800" height="1000" xmlns="http://www.w3.org/2000/svg"><defs><linearGradient id="g" x1="0" x2="1" y1="0" y2="1"><stop offset="0%" stop-color="#2d3c96"/><stop offset="100%" stop-color="#d53392"/></linearGradient></defs><rect x="10" y="10" width="780" height="980" fill="url(#g)" rx="50" ry="50" stroke="gold" stroke-width="20"/><text x="400" y="920" width="780" text-anchor="middle" style="font:bold 200px 'Helvetica Neue';fill:gold">01561</text><g transform="translate(80 80) scale(64)"><rect x="0" y="0" width="1" height="1" fill="#153854" /><rect x="0" y="1" width="1" height="1" fill="#022038" /><rect x="0" y="2" width="1" height="1" fill="#2d404f" /><rect x="0" y="3" width="1" height="1" fill="#ebf9ff" /><rect x="0" y="4" width="1" height="1" fill="#effdff" /><rect x="0" y="5" width="1" height="1" fill="#8697a1" /><rect x="0" y="6" width="1" height="1" fill="#4d616c" /><rect x="0" y="7" width="1" height="1" fill="#4f636e" /><rect x="0" y="8" width="1" height="1" fill="#78888f" /><rect x="0" y="9" width="1" height="1" fill="#effcff" /><rect x="1" y="0" width="1" height="1" fill="#193b57" /><rect x="1" y="1" width="1" height="1" fill="#143149" /><rect x="1" y="2" width="1" height="1" fill="#364958" /><rect x="1" y="3" width="1" height="1" fill="#e2f0fa" /><rect x="1" y="4" width="1" height="1" fill="#f3ffff" /><rect x="1" y="5" width="1" height="1" fill="#576670" /><rect x="1" y="6" width="1" height="1" fill="#031622" /><rect x="1" y="7" width="1" height="1" fill="#0d1f2b" /><rect x="1" y="8" width="1" height="1" fill="#3a4850" /><rect x="1" y="9" width="1" height="1" fill="#f1fdff" /><rect x="2" y="0" width="1" height="1" fill="#153651" /><rect x="2" y="1" width="1" height="1" fill="#09253c" /><rect x="2" y="2" width="1" height="1" fill="#2e404e" /><rect x="2" y="3" width="1" height="1" fill="#f4ffff" /><rect x="2" y="4" width="1" height="1" fill="#ebf7ff" /><rect x="2" y="5" width="1" height="1" fill="#596771" /><rect x="2" y="6" width="1" height="1" fill="#000d19" /><rect x="2" y="7" width="1" height="1" fill="#061723" /><rect x="2" y="8" width="1" height="1" fill="#4e5a62" /><rect x="2" y="9" width="1" height="1" fill="#f7ffff" /><rect x="3" y="0" width="1" height="1" fill="#13324d" /><rect x="3" y="1" width="1" height="1" fill="#0e283f" /><rect x="3" y="2" width="1" height="1" fill="#20303f" /><rect x="3" y="3" width="1" height="1" fill="#c6d1db" /><rect x="3" y="4" width="1" height="1" fill="#f6ffff" /><rect x="3" y="5" width="1" height="1" fill="#e6f1fb" /><rect x="3" y="6" width="1" height="1" fill="#adbcc9" /><rect x="3" y="7" width="1" height="1" fill="#9eadb9" /><rect x="3" y="8" width="1" height="1" fill="#e5eff8" /><rect x="3" y="9" width="1" height="1" fill="#edf4fc" /><rect x="4" y="0" width="1" height="1" fill="#213f59" /><rect x="4" y="1" width="1" height="1" fill="#132c42" /><rect x="4" y="2" width="1" height="1" fill="#071624" /><rect x="4" y="3" width="1" height="1" fill="#38424c" /><rect x="4" y="4" width="1" height="1" fill="#a5aeb7" /><rect x="4" y="5" width="1" height="1" fill="#d5e0ea" /><rect x="4" y="6" width="1" height="1" fill="#e8f6ff" /><rect x="4" y="7" width="1" height="1" fill="#effbff" /><rect x="4" y="8" width="1" height="1" fill="#bec6d0" /><rect x="4" y="9" width="1" height="1" fill="#545a62" /><rect x="5" y="0" width="1" height="1" fill="#112f49" /><rect x="5" y="1" width="1" height="1" fill="#132c42" /><rect x="5" y="2" width="1" height="1" fill="#182634" /><rect x="5" y="3" width="1" height="1" fill="#4e5661" /><rect x="5" y="4" width="1" height="1" fill="#313943" /><rect x="5" y="5" width="1" height="1" fill="#49535d" /><rect x="5" y="6" width="1" height="1" fill="#404c59" /><rect x="5" y="7" width="1" height="1" fill="#48535f" /><rect x="5" y="8" width="1" height="1" fill="#404751" /><rect x="5" y="9" width="1" height="1" fill="#474b54" /><rect x="6" y="0" width="1" height="1" fill="#23415b" /><rect x="6" y="1" width="1" height="1" fill="#00142a" /><rect x="6" y="2" width="1" height="1" fill="#3a4956" /><rect x="6" y="3" width="1" height="1" fill="#eef8ff" /><rect x="6" y="4" width="1" height="1" fill="#f8ffff" /><rect x="6" y="5" width="1" height="1" fill="#f4feff" /><rect x="6" y="6" width="1" height="1" fill="#f0fcff" /><rect x="6" y="7" width="1" height="1" fill="#f5ffff" /><rect x="6" y="8" width="1" height="1" fill="#f6fdff" /><rect x="6" y="9" width="1" height="1" fill="#f8fcff" /><rect x="7" y="0" width="1" height="1" fill="#18364f" /><rect x="7" y="1" width="1" height="1" fill="#0d263b" /><rect x="7" y="2" width="1" height="1" fill="#2b3b48" /><rect x="7" y="3" width="1" height="1" fill="#f7ffff" /><rect x="7" y="4" width="1" height="1" fill="#f1fbff" /><rect x="7" y="5" width="1" height="1" fill="#a3aeb8" /><rect x="7" y="6" width="1" height="1" fill="#3d4b57" /><rect x="7" y="7" width="1" height="1" fill="#36424f" /><rect x="7" y="8" width="1" height="1" fill="#878f99" /><rect x="7" y="9" width="1" height="1" fill="#f3f9ff" /><rect x="8" y="0" width="1" height="1" fill="#17374f" /><rect x="8" y="1" width="1" height="1" fill="#062135" /><rect x="8" y="2" width="1" height="1" fill="#31424e" /><rect x="8" y="3" width="1" height="1" fill="#f1fdff" /><rect x="8" y="4" width="1" height="1" fill="#f0faff" /><rect x="8" y="5" width="1" height="1" fill="#8f9aa4" /><rect x="8" y="6" width="1" height="1" fill="#071623" /><rect x="8" y="7" width="1" height="1" fill="#03121e" /><rect x="8" y="8" width="1" height="1" fill="#5a646d" /><rect x="8" y="9" width="1" height="1" fill="#f9ffff" /><rect x="9" y="0" width="1" height="1" fill="#1a3a51" /><rect x="9" y="1" width="1" height="1" fill="#00192c" /><rect x="9" y="2" width="1" height="1" fill="#273945" /><rect x="9" y="3" width="1" height="1" fill="#f4ffff" /><rect x="9" y="4" width="1" height="1" fill="#f3feff" /><rect x="9" y="5" width="1" height="1" fill="#89969f" /><rect x="9" y="6" width="1" height="1" fill="#02121f" /><rect x="9" y="7" width="1" height="1" fill="#0c1b28" /><rect x="9" y="8" width="1" height="1" fill="#59646d" /><rect x="9" y="9" width="1" height="1" fill="#f8ffff" /></g></svg>