<svg width="800" height="1000" version="1.1" xmlns="http://www.w3.org/2000/svg" xmlns:xlink="http://www.w3.org/1999/xlink">
  <defs>
      <linearGradient id="Gradient2" x1="0" x2="1" y1="0" y2="1">
        <stop offset="0%" stop-color="#2d3c96"/>
        <stop offset="100%" stop-color="#d53392"/>
      </linearGradient>
  </defs>
  <rect x="10" y="10" width="780" height="980" fill="url(#Gradient2)" rx="50" ry="50" stroke="#ffd700" stroke-width="20"/>
  <text x="400" y="920" width="780" text-anchor="middle" style="font: bold 200px 'Helvetica Neue'; fill: #ffd700">01592</text>

  <g transform="translate(80 80) scale(64)">
<rect x="0" y="0" width="1" height="1" fill="#05060a" />
,<rect x="0" y="1" width="1" height="1" fill="#070004" />
,<rect x="0" y="2" width="1" height="1" fill="#190008" />
,<rect x="0" y="3" width="1" height="1" fill="#37222d" />
,<rect x="0" y="4" width="1" height="1" fill="#c6e2de" />
,<rect x="0" y="5" width="1" height="1" fill="#bdd7d4" />
,<rect x="0" y="6" width="1" height="1" fill="#290d18" />
,<rect x="0" y="7" width="1" height="1" fill="#180002" />
,<rect x="0" y="8" width="1" height="1" fill="#010103" />
,<rect x="0" y="9" width="1" height="1" fill="#000506" />
,<rect x="1" y="0" width="1" height="1" fill="#0a0004" />
,<rect x="1" y="1" width="1" height="1" fill="#200313" />
,<rect x="1" y="2" width="1" height="1" fill="#622941" />
,<rect x="1" y="3" width="1" height="1" fill="#1f0004" />
,<rect x="1" y="4" width="1" height="1" fill="#eae8ed" />
,<rect x="1" y="5" width="1" height="1" fill="#b7b5ba" />
,<rect x="1" y="6" width="1" height="1" fill="#2a000a" />
,<rect x="1" y="7" width="1" height="1" fill="#50162c" />
,<rect x="1" y="8" width="1" height="1" fill="#0c0004" />
,<rect x="1" y="9" width="1" height="1" fill="#060004" />
,<rect x="2" y="0" width="1" height="1" fill="#200004" />
,<rect x="2" y="1" width="1" height="1" fill="#310009" />
,<rect x="2" y="2" width="1" height="1" fill="#ed85ac" />
,<rect x="2" y="3" width="1" height="1" fill="#79113c" />
,<rect x="2" y="4" width="1" height="1" fill="#2b000a" />
,<rect x="2" y="5" width="1" height="1" fill="#2e000d" />
,<rect x="2" y="6" width="1" height="1" fill="#8c264c" />
,<rect x="2" y="7" width="1" height="1" fill="#d77699" />
,<rect x="2" y="8" width="1" height="1" fill="#2e0213" />
,<rect x="2" y="9" width="1" height="1" fill="#150006" />
,<rect x="3" y="0" width="1" height="1" fill="#3e0012" />
,<rect x="3" y="1" width="1" height="1" fill="#913459" />
,<rect x="3" y="2" width="1" height="1" fill="#e96c9b" />
,<rect x="3" y="3" width="1" height="1" fill="#c34c7a" />
,<rect x="3" y="4" width="1" height="1" fill="#430015" />
,<rect x="3" y="5" width="1" height="1" fill="#300003" />
,<rect x="3" y="6" width="1" height="1" fill="#e06692" />
,<rect x="3" y="7" width="1" height="1" fill="#dd6691" />
,<rect x="3" y="8" width="1" height="1" fill="#641d38" />
,<rect x="3" y="9" width="1" height="1" fill="#330013" />
,<rect x="4" y="0" width="1" height="1" fill="#61032c" />
,<rect x="4" y="1" width="1" height="1" fill="#cf6c92" />
,<rect x="4" y="2" width="1" height="1" fill="#d15b88" />
,<rect x="4" y="3" width="1" height="1" fill="#530013" />
,<rect x="4" y="4" width="1" height="1" fill="#3a0013" />
,<rect x="4" y="5" width="1" height="1" fill="#280001" />
,<rect x="4" y="6" width="1" height="1" fill="#760030" />
,<rect x="4" y="7" width="1" height="1" fill="#d65a87" />
,<rect x="4" y="8" width="1" height="1" fill="#ca6889" />
,<rect x="4" y="9" width="1" height="1" fill="#630025" />
,<rect x="5" y="0" width="1" height="1" fill="#862d51" />
,<rect x="5" y="1" width="1" height="1" fill="#bc5c81" />
,<rect x="5" y="2" width="1" height="1" fill="#d1628c" />
,<rect x="5" y="3" width="1" height="1" fill="#520016" />
,<rect x="5" y="4" width="1" height="1" fill="#240001" />
,<rect x="5" y="5" width="1" height="1" fill="#3b0017" />
,<rect x="5" y="6" width="1" height="1" fill="#5b001a" />
,<rect x="5" y="7" width="1" height="1" fill="#cf5984" />
,<rect x="5" y="8" width="1" height="1" fill="#d77596" />
,<rect x="5" y="9" width="1" height="1" fill="#670029" />
,<rect x="6" y="0" width="1" height="1" fill="#280001" />
,<rect x="6" y="1" width="1" height="1" fill="#9e4f6c" />
,<rect x="6" y="2" width="1" height="1" fill="#d0688e" />
,<rect x="6" y="3" width="1" height="1" fill="#b9577b" />
,<rect x="6" y="4" width="1" height="1" fill="#270001" />
,<rect x="6" y="5" width="1" height="1" fill="#2c0005" />
,<rect x="6" y="6" width="1" height="1" fill="#ad4b6f" />
,<rect x="6" y="7" width="1" height="1" fill="#e57fa3" />
,<rect x="6" y="8" width="1" height="1" fill="#762e46" />
,<rect x="6" y="9" width="1" height="1" fill="#390011" />
,<rect x="7" y="0" width="1" height="1" fill="#220007" />
,<rect x="7" y="1" width="1" height="1" fill="#3f021b" />
,<rect x="7" y="2" width="1" height="1" fill="#d37d9c" />
,<rect x="7" y="3" width="1" height="1" fill="#913e5c" />
,<rect x="7" y="4" width="1" height="1" fill="#210001" />
,<rect x="7" y="5" width="1" height="1" fill="#280009" />
,<rect x="7" y="6" width="1" height="1" fill="#ae5e7b" />
,<rect x="7" y="7" width="1" height="1" fill="#c57693" />
,<rect x="7" y="8" width="1" height="1" fill="#410f20" />
,<rect x="7" y="9" width="1" height="1" fill="#190004" />
,<rect x="8" y="0" width="1" height="1" fill="#160008" />
,<rect x="8" y="1" width="1" height="1" fill="#230210" />
,<rect x="8" y="2" width="1" height="1" fill="#581f34" />
,<rect x="8" y="3" width="1" height="1" fill="#3f041c" />
,<rect x="8" y="4" width="1" height="1" fill="#1a0006" />
,<rect x="8" y="5" width="1" height="1" fill="#22020d" />
,<rect x="8" y="6" width="1" height="1" fill="#3b071a" />
,<rect x="8" y="7" width="1" height="1" fill="#643041" />
,<rect x="8" y="8" width="1" height="1" fill="#120001" />
,<rect x="8" y="9" width="1" height="1" fill="#090001" />
,<rect x="9" y="0" width="1" height="1" fill="#060003" />
,<rect x="9" y="1" width="1" height="1" fill="#0a0003" />
,<rect x="9" y="2" width="1" height="1" fill="#240210" />
,<rect x="9" y="3" width="1" height="1" fill="#180006" />
,<rect x="9" y="4" width="1" height="1" fill="#040000" />
,<rect x="9" y="5" width="1" height="1" fill="#060203" />
,<rect x="9" y="6" width="1" height="1" fill="#170006" />
,<rect x="9" y="7" width="1" height="1" fill="#22020d" />
,<rect x="9" y="8" width="1" height="1" fill="#0a0001" />
,<rect x="9" y="9" width="1" height="1" fill="#050001" />

  </g>
</svg>