<svg width="800" height="1000" version="1.1" xmlns="http://www.w3.org/2000/svg" xmlns:xlink="http://www.w3.org/1999/xlink">
  <defs>
      <linearGradient id="Gradient2" x1="0" x2="1" y1="0" y2="1">
        <stop offset="0%" stop-color="#2d3c96"/>
        <stop offset="100%" stop-color="#d53392"/>
      </linearGradient>
  </defs>
  <rect x="10" y="10" width="780" height="980" fill="url(#Gradient2)" rx="50" ry="50" stroke="#ffd700" stroke-width="20"/>
  <text x="400" y="920" width="780" text-anchor="middle" style="font: bold 200px 'Helvetica Neue'; fill: #ffd700">01609</text>

  <g transform="translate(80 80) scale(64)">
<rect x="0" y="0" width="1" height="1" fill="#707676" />
,<rect x="0" y="1" width="1" height="1" fill="#6f7779" />
,<rect x="0" y="2" width="1" height="1" fill="#6f746e" />
,<rect x="0" y="3" width="1" height="1" fill="#6e7063" />
,<rect x="0" y="4" width="1" height="1" fill="#797971" />
,<rect x="0" y="5" width="1" height="1" fill="#898a85" />
,<rect x="0" y="6" width="1" height="1" fill="#8a9187" />
,<rect x="0" y="7" width="1" height="1" fill="#949689" />
,<rect x="0" y="8" width="1" height="1" fill="#9c998a" />
,<rect x="0" y="9" width="1" height="1" fill="#a09d8a" />
,<rect x="1" y="0" width="1" height="1" fill="#7b817f" />
,<rect x="1" y="1" width="1" height="1" fill="#797e7a" />
,<rect x="1" y="2" width="1" height="1" fill="#7c837c" />
,<rect x="1" y="3" width="1" height="1" fill="#898b80" />
,<rect x="1" y="4" width="1" height="1" fill="#8c8f84" />
,<rect x="1" y="5" width="1" height="1" fill="#8d8c87" />
,<rect x="1" y="6" width="1" height="1" fill="#92928a" />
,<rect x="1" y="7" width="1" height="1" fill="#9d9b8e" />
,<rect x="1" y="8" width="1" height="1" fill="#a49d89" />
,<rect x="1" y="9" width="1" height="1" fill="#aa9e88" />
,<rect x="2" y="0" width="1" height="1" fill="#747c7f" />
,<rect x="2" y="1" width="1" height="1" fill="#747e7f" />
,<rect x="2" y="2" width="1" height="1" fill="#7f8585" />
,<rect x="2" y="3" width="1" height="1" fill="#808682" />
,<rect x="2" y="4" width="1" height="1" fill="#878c86" />
,<rect x="2" y="5" width="1" height="1" fill="#8a8c87" />
,<rect x="2" y="6" width="1" height="1" fill="#95978c" />
,<rect x="2" y="7" width="1" height="1" fill="#a19a8a" />
,<rect x="2" y="8" width="1" height="1" fill="#a99e8a" />
,<rect x="2" y="9" width="1" height="1" fill="#a89e85" />
,<rect x="3" y="0" width="1" height="1" fill="#888d87" />
,<rect x="3" y="1" width="1" height="1" fill="#8e938c" />
,<rect x="3" y="2" width="1" height="1" fill="#90968c" />
,<rect x="3" y="3" width="1" height="1" fill="#91968f" />
,<rect x="3" y="4" width="1" height="1" fill="#94948c" />
,<rect x="3" y="5" width="1" height="1" fill="#9c9a8d" />
,<rect x="3" y="6" width="1" height="1" fill="#9ea18e" />
,<rect x="3" y="7" width="1" height="1" fill="#a09e91" />
,<rect x="3" y="8" width="1" height="1" fill="#9c9a8b" />
,<rect x="3" y="9" width="1" height="1" fill="#a59989" />
,<rect x="4" y="0" width="1" height="1" fill="#a2a18b" />
,<rect x="4" y="1" width="1" height="1" fill="#aba58f" />
,<rect x="4" y="2" width="1" height="1" fill="#aba690" />
,<rect x="4" y="3" width="1" height="1" fill="#a8a690" />
,<rect x="4" y="4" width="1" height="1" fill="#a2a18f" />
,<rect x="4" y="5" width="1" height="1" fill="#a09e8f" />
,<rect x="4" y="6" width="1" height="1" fill="#999b8e" />
,<rect x="4" y="7" width="1" height="1" fill="#99998d" />
,<rect x="4" y="8" width="1" height="1" fill="#9c9e89" />
,<rect x="4" y="9" width="1" height="1" fill="#a6a18b" />
,<rect x="5" y="0" width="1" height="1" fill="#aba490" />
,<rect x="5" y="1" width="1" height="1" fill="#ada58e" />
,<rect x="5" y="2" width="1" height="1" fill="#a3a18b" />
,<rect x="5" y="3" width="1" height="1" fill="#9a9a8e" />
,<rect x="5" y="4" width="1" height="1" fill="#9b9d90" />
,<rect x="5" y="5" width="1" height="1" fill="#9ba08c" />
,<rect x="5" y="6" width="1" height="1" fill="#9ea18e" />
,<rect x="5" y="7" width="1" height="1" fill="#a69e91" />
,<rect x="5" y="8" width="1" height="1" fill="#aca690" />
,<rect x="5" y="9" width="1" height="1" fill="#ab9f87" />
,<rect x="6" y="0" width="1" height="1" fill="#9b9d88" />
,<rect x="6" y="1" width="1" height="1" fill="#979682" />
,<rect x="6" y="2" width="1" height="1" fill="#9b9e8d" />
,<rect x="6" y="3" width="1" height="1" fill="#a0a193" />
,<rect x="6" y="4" width="1" height="1" fill="#a3a290" />
,<rect x="6" y="5" width="1" height="1" fill="#a3a590" />
,<rect x="6" y="6" width="1" height="1" fill="#a1a38e" />
,<rect x="6" y="7" width="1" height="1" fill="#a4a18e" />
,<rect x="6" y="8" width="1" height="1" fill="#aaa28d" />
,<rect x="6" y="9" width="1" height="1" fill="#aea288" />
,<rect x="7" y="0" width="1" height="1" fill="#999a88" />
,<rect x="7" y="1" width="1" height="1" fill="#999b83" />
,<rect x="7" y="2" width="1" height="1" fill="#9b9e8d" />
,<rect x="7" y="3" width="1" height="1" fill="#9c9f8c" />
,<rect x="7" y="4" width="1" height="1" fill="#a3a28c" />
,<rect x="7" y="5" width="1" height="1" fill="#a6a58f" />
,<rect x="7" y="6" width="1" height="1" fill="#aaa68d" />
,<rect x="7" y="7" width="1" height="1" fill="#aca791" />
,<rect x="7" y="8" width="1" height="1" fill="#aaa28b" />
,<rect x="7" y="9" width="1" height="1" fill="#aaa387" />
,<rect x="8" y="0" width="1" height="1" fill="#8f9684" />
,<rect x="8" y="1" width="1" height="1" fill="#959789" />
,<rect x="8" y="2" width="1" height="1" fill="#95978a" />
,<rect x="8" y="3" width="1" height="1" fill="#999c87" />
,<rect x="8" y="4" width="1" height="1" fill="#a4a387" />
,<rect x="8" y="5" width="1" height="1" fill="#a9a38d" />
,<rect x="8" y="6" width="1" height="1" fill="#a7a189" />
,<rect x="8" y="7" width="1" height="1" fill="#a5a08d" />
,<rect x="8" y="8" width="1" height="1" fill="#a7a38a" />
,<rect x="8" y="9" width="1" height="1" fill="#ada58c" />
,<rect x="9" y="0" width="1" height="1" fill="#8e8f89" />
,<rect x="9" y="1" width="1" height="1" fill="#858f87" />
,<rect x="9" y="2" width="1" height="1" fill="#899086" />
,<rect x="9" y="3" width="1" height="1" fill="#8f9287" />
,<rect x="9" y="4" width="1" height="1" fill="#959887" />
,<rect x="9" y="5" width="1" height="1" fill="#9a9d8a" />
,<rect x="9" y="6" width="1" height="1" fill="#a09f89" />
,<rect x="9" y="7" width="1" height="1" fill="#a4a68e" />
,<rect x="9" y="8" width="1" height="1" fill="#aaa58f" />
,<rect x="9" y="9" width="1" height="1" fill="#aaa28b" />

  </g>
</svg>