<svg width="800" height="1000" xmlns="http://www.w3.org/2000/svg"><defs><linearGradient id="g" x1="0" x2="1" y1="0" y2="1"><stop offset="0%" stop-color="#2d3c96"/><stop offset="100%" stop-color="#d53392"/></linearGradient></defs><rect x="10" y="10" width="780" height="980" fill="url(#g)" rx="50" ry="50" stroke="gold" stroke-width="20"/><text x="400" y="920" width="780" text-anchor="middle" style="font:bold 200px 'Helvetica Neue';fill:gold">01603</text><g transform="translate(80 80) scale(64)"><rect x="0" y="0" width="1" height="1" fill="#eff0f0" /><rect x="0" y="1" width="1" height="1" fill="#cecece" /><rect x="0" y="2" width="1" height="1" fill="#040a09" /><rect x="0" y="3" width="1" height="1" fill="#00322c" /><rect x="0" y="4" width="1" height="1" fill="#003846" /><rect x="0" y="5" width="1" height="1" fill="#0080c0" /><rect x="0" y="6" width="1" height="1" fill="#0072b9" /><rect x="0" y="7" width="1" height="1" fill="#007fa7" /><rect x="0" y="8" width="1" height="1" fill="#00686e" /><rect x="0" y="9" width="1" height="1" fill="#000000" /><rect x="1" y="0" width="1" height="1" fill="#ffffff" /><rect x="1" y="1" width="1" height="1" fill="#d1d0d0" /><rect x="1" y="2" width="1" height="1" fill="#071811" /><rect x="1" y="3" width="1" height="1" fill="#00a85f" /><rect x="1" y="4" width="1" height="1" fill="#00b26e" /><rect x="1" y="5" width="1" height="1" fill="#0081ab" /><rect x="1" y="6" width="1" height="1" fill="#00a2a2" /><rect x="1" y="7" width="1" height="1" fill="#00be83" /><rect x="1" y="8" width="1" height="1" fill="#00884a" /><rect x="1" y="9" width="1" height="1" fill="#000100" /><rect x="2" y="0" width="1" height="1" fill="#d2d1d1" /><rect x="2" y="1" width="1" height="1" fill="#66726c" /><rect x="2" y="2" width="1" height="1" fill="#02324d" /><rect x="2" y="3" width="1" height="1" fill="#00838a" /><rect x="2" y="4" width="1" height="1" fill="#00b49d" /><rect x="2" y="5" width="1" height="1" fill="#0063bd" /><rect x="2" y="6" width="1" height="1" fill="#009687" /><rect x="2" y="7" width="1" height="1" fill="#00b672" /><rect x="2" y="8" width="1" height="1" fill="#007e51" /><rect x="2" y="9" width="1" height="1" fill="#000000" /><rect x="3" y="0" width="1" height="1" fill="#6d7d80" /><rect x="3" y="1" width="1" height="1" fill="#002139" /><rect x="3" y="2" width="1" height="1" fill="#00558c" /><rect x="3" y="3" width="1" height="1" fill="#0071b5" /><rect x="3" y="4" width="1" height="1" fill="#00afd2" /><rect x="3" y="5" width="1" height="1" fill="#0077cc" /><rect x="3" y="6" width="1" height="1" fill="#008390" /><rect x="3" y="7" width="1" height="1" fill="#009187" /><rect x="3" y="8" width="1" height="1" fill="#006568" /><rect x="3" y="9" width="1" height="1" fill="#000000" /><rect x="4" y="0" width="1" height="1" fill="#004354" /><rect x="4" y="1" width="1" height="1" fill="#005bad" /><rect x="4" y="2" width="1" height="1" fill="#007693" /><rect x="4" y="3" width="1" height="1" fill="#00b189" /><rect x="4" y="4" width="1" height="1" fill="#00c5aa" /><rect x="4" y="5" width="1" height="1" fill="#00d494" /><rect x="4" y="6" width="1" height="1" fill="#009ab9" /><rect x="4" y="7" width="1" height="1" fill="#007eab" /><rect x="4" y="8" width="1" height="1" fill="#00565c" /><rect x="4" y="9" width="1" height="1" fill="#000000" /><rect x="5" y="0" width="1" height="1" fill="#007fb5" /><rect x="5" y="1" width="1" height="1" fill="#0088a7" /><rect x="5" y="2" width="1" height="1" fill="#00b496" /><rect x="5" y="3" width="1" height="1" fill="#00d390" /><rect x="5" y="4" width="1" height="1" fill="#00c783" /><rect x="5" y="5" width="1" height="1" fill="#00d56e" /><rect x="5" y="6" width="1" height="1" fill="#007c79" /><rect x="5" y="7" width="1" height="1" fill="#004e75" /><rect x="5" y="8" width="1" height="1" fill="#003346" /><rect x="5" y="9" width="1" height="1" fill="#000000" /><rect x="6" y="0" width="1" height="1" fill="#007e8a" /><rect x="6" y="1" width="1" height="1" fill="#007eb4" /><rect x="6" y="2" width="1" height="1" fill="#00afa8" /><rect x="6" y="3" width="1" height="1" fill="#00bc94" /><rect x="6" y="4" width="1" height="1" fill="#008bb8" /><rect x="6" y="5" width="1" height="1" fill="#00d1ad" /><rect x="6" y="6" width="1" height="1" fill="#00878f" /><rect x="6" y="7" width="1" height="1" fill="#008c72" /><rect x="6" y="8" width="1" height="1" fill="#00803f" /><rect x="6" y="9" width="1" height="1" fill="#000000" /><rect x="7" y="0" width="1" height="1" fill="#006d94" /><rect x="7" y="1" width="1" height="1" fill="#0094a4" /><rect x="7" y="2" width="1" height="1" fill="#00a4ae" /><rect x="7" y="3" width="1" height="1" fill="#0086ac" /><rect x="7" y="4" width="1" height="1" fill="#005ab1" /><rect x="7" y="5" width="1" height="1" fill="#00b1cb" /><rect x="7" y="6" width="1" height="1" fill="#0075a0" /><rect x="7" y="7" width="1" height="1" fill="#006158" /><rect x="7" y="8" width="1" height="1" fill="#22713b" /><rect x="7" y="9" width="1" height="1" fill="#7c7c7c" /><rect x="8" y="0" width="1" height="1" fill="#004180" /><rect x="8" y="1" width="1" height="1" fill="#007a5f" /><rect x="8" y="2" width="1" height="1" fill="#006e75" /><rect x="8" y="3" width="1" height="1" fill="#003e84" /><rect x="8" y="4" width="1" height="1" fill="#002c5f" /><rect x="8" y="5" width="1" height="1" fill="#00638b" /><rect x="8" y="6" width="1" height="1" fill="#003c6d" /><rect x="8" y="7" width="1" height="1" fill="#222d4b" /><rect x="8" y="8" width="1" height="1" fill="#818181" /><rect x="8" y="9" width="1" height="1" fill="#fefefe" /><rect x="9" y="0" width="1" height="1" fill="#000001" /><rect x="9" y="1" width="1" height="1" fill="#000000" /><rect x="9" y="2" width="1" height="1" fill="#000000" /><rect x="9" y="3" width="1" height="1" fill="#000001" /><rect x="9" y="4" width="1" height="1" fill="#000000" /><rect x="9" y="5" width="1" height="1" fill="#000001" /><rect x="9" y="6" width="1" height="1" fill="#000000" /><rect x="9" y="7" width="1" height="1" fill="#7c7c7c" /><rect x="9" y="8" width="1" height="1" fill="#fefefe" /><rect x="9" y="9" width="1" height="1" fill="#ffffff" /></g></svg>