<svg width="800" height="1000" version="1.1" xmlns="http://www.w3.org/2000/svg" xmlns:xlink="http://www.w3.org/1999/xlink">
  <defs>
      <linearGradient id="Gradient2" x1="0" x2="1" y1="0" y2="1">
        <stop offset="0%" stop-color="#2d3c96"/>
        <stop offset="100%" stop-color="#d53392"/>
      </linearGradient>
  </defs>
  <rect x="10" y="10" width="780" height="980" fill="url(#Gradient2)" rx="50" ry="50" stroke="#ffd700" stroke-width="20"/>
  <text x="400" y="920" width="780" text-anchor="middle" style="font: bold 200px 'Helvetica Neue'; fill: #ffd700">01609</text>

  <g transform="translate(80 80) scale(64)">
<rect x="0" y="0" width="1" height="1" fill="#707676" /><rect x="1" y="0" width="1" height="1" fill="#7B817F" /><rect x="2" y="0" width="1" height="1" fill="#747C7F" /><rect x="3" y="0" width="1" height="1" fill="#888D87" /><rect x="4" y="0" width="1" height="1" fill="#A2A18B" /><rect x="5" y="0" width="1" height="1" fill="#ABA490" /><rect x="6" y="0" width="1" height="1" fill="#9B9D88" /><rect x="7" y="0" width="1" height="1" fill="#999A88" /><rect x="8" y="0" width="1" height="1" fill="#8F9684" /><rect x="9" y="0" width="1" height="1" fill="#8E8F89" /><rect x="0" y="1" width="1" height="1" fill="#6F7779" /><rect x="1" y="1" width="1" height="1" fill="#797E7A" /><rect x="2" y="1" width="1" height="1" fill="#747E7F" /><rect x="3" y="1" width="1" height="1" fill="#8E938C" /><rect x="4" y="1" width="1" height="1" fill="#ABA58F" /><rect x="5" y="1" width="1" height="1" fill="#ADA58E" /><rect x="6" y="1" width="1" height="1" fill="#979682" /><rect x="7" y="1" width="1" height="1" fill="#999B83" /><rect x="8" y="1" width="1" height="1" fill="#959789" /><rect x="9" y="1" width="1" height="1" fill="#858F87" /><rect x="0" y="2" width="1" height="1" fill="#6F746E" /><rect x="1" y="2" width="1" height="1" fill="#7C837C" /><rect x="2" y="2" width="1" height="1" fill="#7F8585" /><rect x="3" y="2" width="1" height="1" fill="#90968C" /><rect x="4" y="2" width="1" height="1" fill="#ABA690" /><rect x="5" y="2" width="1" height="1" fill="#A3A18B" /><rect x="6" y="2" width="1" height="1" fill="#9B9E8D" /><rect x="7" y="2" width="1" height="1" fill="#9B9E8D" /><rect x="8" y="2" width="1" height="1" fill="#95978A" /><rect x="9" y="2" width="1" height="1" fill="#899086" /><rect x="0" y="3" width="1" height="1" fill="#6E7063" /><rect x="1" y="3" width="1" height="1" fill="#898B80" /><rect x="2" y="3" width="1" height="1" fill="#808682" /><rect x="3" y="3" width="1" height="1" fill="#91968F" /><rect x="4" y="3" width="1" height="1" fill="#A8A690" /><rect x="5" y="3" width="1" height="1" fill="#9A9A8E" /><rect x="6" y="3" width="1" height="1" fill="#A0A193" /><rect x="7" y="3" width="1" height="1" fill="#9C9F8C" /><rect x="8" y="3" width="1" height="1" fill="#999C87" /><rect x="9" y="3" width="1" height="1" fill="#8F9287" /><rect x="0" y="4" width="1" height="1" fill="#797971" /><rect x="1" y="4" width="1" height="1" fill="#8C8F84" /><rect x="2" y="4" width="1" height="1" fill="#878C86" /><rect x="3" y="4" width="1" height="1" fill="#94948C" /><rect x="4" y="4" width="1" height="1" fill="#A2A18F" /><rect x="5" y="4" width="1" height="1" fill="#9B9D90" /><rect x="6" y="4" width="1" height="1" fill="#A3A290" /><rect x="7" y="4" width="1" height="1" fill="#A3A28C" /><rect x="8" y="4" width="1" height="1" fill="#A4A387" /><rect x="9" y="4" width="1" height="1" fill="#959887" /><rect x="0" y="5" width="1" height="1" fill="#898A85" /><rect x="1" y="5" width="1" height="1" fill="#8D8C87" /><rect x="2" y="5" width="1" height="1" fill="#8A8C87" /><rect x="3" y="5" width="1" height="1" fill="#9C9A8D" /><rect x="4" y="5" width="1" height="1" fill="#A09E8F" /><rect x="5" y="5" width="1" height="1" fill="#9BA08C" /><rect x="6" y="5" width="1" height="1" fill="#A3A590" /><rect x="7" y="5" width="1" height="1" fill="#A6A58F" /><rect x="8" y="5" width="1" height="1" fill="#A9A38D" /><rect x="9" y="5" width="1" height="1" fill="#9A9D8A" /><rect x="0" y="6" width="1" height="1" fill="#8A9187" /><rect x="1" y="6" width="1" height="1" fill="#92928A" /><rect x="2" y="6" width="1" height="1" fill="#95978C" /><rect x="3" y="6" width="1" height="1" fill="#9EA18E" /><rect x="4" y="6" width="1" height="1" fill="#999B8E" /><rect x="5" y="6" width="1" height="1" fill="#9EA18E" /><rect x="6" y="6" width="1" height="1" fill="#A1A38E" /><rect x="7" y="6" width="1" height="1" fill="#AAA68D" /><rect x="8" y="6" width="1" height="1" fill="#A7A189" /><rect x="9" y="6" width="1" height="1" fill="#A09F89" /><rect x="0" y="7" width="1" height="1" fill="#949689" /><rect x="1" y="7" width="1" height="1" fill="#9D9B8E" /><rect x="2" y="7" width="1" height="1" fill="#A19A8A" /><rect x="3" y="7" width="1" height="1" fill="#A09E91" /><rect x="4" y="7" width="1" height="1" fill="#99998D" /><rect x="5" y="7" width="1" height="1" fill="#A69E91" /><rect x="6" y="7" width="1" height="1" fill="#A4A18E" /><rect x="7" y="7" width="1" height="1" fill="#ACA791" /><rect x="8" y="7" width="1" height="1" fill="#A5A08D" /><rect x="9" y="7" width="1" height="1" fill="#A4A68E" /><rect x="0" y="8" width="1" height="1" fill="#9C998A" /><rect x="1" y="8" width="1" height="1" fill="#A49D89" /><rect x="2" y="8" width="1" height="1" fill="#A99E8A" /><rect x="3" y="8" width="1" height="1" fill="#9C9A8B" /><rect x="4" y="8" width="1" height="1" fill="#9C9E89" /><rect x="5" y="8" width="1" height="1" fill="#ACA690" /><rect x="6" y="8" width="1" height="1" fill="#AAA28D" /><rect x="7" y="8" width="1" height="1" fill="#AAA28B" /><rect x="8" y="8" width="1" height="1" fill="#A7A38A" /><rect x="9" y="8" width="1" height="1" fill="#AAA58F" /><rect x="0" y="9" width="1" height="1" fill="#A09D8A" /><rect x="1" y="9" width="1" height="1" fill="#AA9E88" /><rect x="2" y="9" width="1" height="1" fill="#A89E85" /><rect x="3" y="9" width="1" height="1" fill="#A59989" /><rect x="4" y="9" width="1" height="1" fill="#A6A18B" /><rect x="5" y="9" width="1" height="1" fill="#AB9F87" /><rect x="6" y="9" width="1" height="1" fill="#AEA288" /><rect x="7" y="9" width="1" height="1" fill="#AAA387" /><rect x="8" y="9" width="1" height="1" fill="#ADA58C" /><rect x="9" y="9" width="1" height="1" fill="#AAA28B" />
  </g>
</svg>