<svg width="800" height="1000" xmlns="http://www.w3.org/2000/svg"><defs><linearGradient id="g" x1="0" x2="1" y1="0" y2="1"><stop offset="0%" stop-color="#2d3c96"/><stop offset="100%" stop-color="#d53392"/></linearGradient></defs><rect x="10" y="10" width="780" height="980" fill="url(#g)" rx="50" ry="50" stroke="gold" stroke-width="20"/><text x="400" y="920" width="780" text-anchor="middle" style="font:bold 200px 'Helvetica Neue';fill:gold">01602</text><g transform="translate(80 80) scale(64)"><rect x="0" y="0" width="1" height="1" fill="#000100" /><rect x="0" y="1" width="1" height="1" fill="#000101" /><rect x="0" y="2" width="1" height="1" fill="#000101" /><rect x="0" y="3" width="1" height="1" fill="#000000" /><rect x="0" y="4" width="1" height="1" fill="#000000" /><rect x="0" y="5" width="1" height="1" fill="#000100" /><rect x="0" y="6" width="1" height="1" fill="#000000" /><rect x="0" y="7" width="1" height="1" fill="#7c7c7c" /><rect x="0" y="8" width="1" height="1" fill="#fefefe" /><rect x="0" y="9" width="1" height="1" fill="#ffffff" /><rect x="1" y="0" width="1" height="1" fill="#008d7e" /><rect x="1" y="1" width="1" height="1" fill="#008c94" /><rect x="1" y="2" width="1" height="1" fill="#008884" /><rect x="1" y="3" width="1" height="1" fill="#007e63" /><rect x="1" y="4" width="1" height="1" fill="#006a5e" /><rect x="1" y="5" width="1" height="1" fill="#008b71" /><rect x="1" y="6" width="1" height="1" fill="#00556b" /><rect x="1" y="7" width="1" height="1" fill="#223a51" /><rect x="1" y="8" width="1" height="1" fill="#818181" /><rect x="1" y="9" width="1" height="1" fill="#fefefe" /><rect x="2" y="0" width="1" height="1" fill="#00b8c2" /><rect x="2" y="1" width="1" height="1" fill="#0098ca" /><rect x="2" y="2" width="1" height="1" fill="#00b2ab" /><rect x="2" y="3" width="1" height="1" fill="#00ba86" /><rect x="2" y="4" width="1" height="1" fill="#007c8c" /><rect x="2" y="5" width="1" height="1" fill="#0092a5" /><rect x="2" y="6" width="1" height="1" fill="#0077b4" /><rect x="2" y="7" width="1" height="1" fill="#004170" /><rect x="2" y="8" width="1" height="1" fill="#22333a" /><rect x="2" y="9" width="1" height="1" fill="#7c7c7c" /><rect x="3" y="0" width="1" height="1" fill="#00a1bc" /><rect x="3" y="1" width="1" height="1" fill="#0063b8" /><rect x="3" y="2" width="1" height="1" fill="#00839b" /><rect x="3" y="3" width="1" height="1" fill="#00a085" /><rect x="3" y="4" width="1" height="1" fill="#006c92" /><rect x="3" y="5" width="1" height="1" fill="#0072a7" /><rect x="3" y="6" width="1" height="1" fill="#0080be" /><rect x="3" y="7" width="1" height="1" fill="#00799d" /><rect x="3" y="8" width="1" height="1" fill="#00494c" /><rect x="3" y="9" width="1" height="1" fill="#000000" /><rect x="4" y="0" width="1" height="1" fill="#008781" /><rect x="4" y="1" width="1" height="1" fill="#005397" /><rect x="4" y="2" width="1" height="1" fill="#004193" /><rect x="4" y="3" width="1" height="1" fill="#005387" /><rect x="4" y="4" width="1" height="1" fill="#007e88" /><rect x="4" y="5" width="1" height="1" fill="#009ca1" /><rect x="4" y="6" width="1" height="1" fill="#0098a0" /><rect x="4" y="7" width="1" height="1" fill="#00a0a5" /><rect x="4" y="8" width="1" height="1" fill="#007776" /><rect x="4" y="9" width="1" height="1" fill="#000000" /><rect x="5" y="0" width="1" height="1" fill="#011110" /><rect x="5" y="1" width="1" height="1" fill="#010913" /><rect x="5" y="2" width="1" height="1" fill="#010613" /><rect x="5" y="3" width="1" height="1" fill="#010710" /><rect x="5" y="4" width="1" height="1" fill="#011c21" /><rect x="5" y="5" width="1" height="1" fill="#006b81" /><rect x="5" y="6" width="1" height="1" fill="#00637f" /><rect x="5" y="7" width="1" height="1" fill="#0051a5" /><rect x="5" y="8" width="1" height="1" fill="#003193" /><rect x="5" y="9" width="1" height="1" fill="#000001" /><rect x="6" y="0" width="1" height="1" fill="#b7b6b6" /><rect x="6" y="1" width="1" height="1" fill="#b7b6b5" /><rect x="6" y="2" width="1" height="1" fill="#b7b6b6" /><rect x="6" y="3" width="1" height="1" fill="#b8b7b7" /><rect x="6" y="4" width="1" height="1" fill="#a1a4a6" /><rect x="6" y="5" width="1" height="1" fill="#0e3339" /><rect x="6" y="6" width="1" height="1" fill="#008d61" /><rect x="6" y="7" width="1" height="1" fill="#00afa8" /><rect x="6" y="8" width="1" height="1" fill="#006c91" /><rect x="6" y="9" width="1" height="1" fill="#000001" /><rect x="7" y="0" width="1" height="1" fill="#ffffff" /><rect x="7" y="1" width="1" height="1" fill="#ffffff" /><rect x="7" y="2" width="1" height="1" fill="#ffffff" /><rect x="7" y="3" width="1" height="1" fill="#ffffff" /><rect x="7" y="4" width="1" height="1" fill="#e5e4e4" /><rect x="7" y="5" width="1" height="1" fill="#191b1b" /><rect x="7" y="6" width="1" height="1" fill="#006e67" /><rect x="7" y="7" width="1" height="1" fill="#00beb9" /><rect x="7" y="8" width="1" height="1" fill="#009495" /><rect x="7" y="9" width="1" height="1" fill="#000101" /><rect x="8" y="0" width="1" height="1" fill="#ffffff" /><rect x="8" y="1" width="1" height="1" fill="#ffffff" /><rect x="8" y="2" width="1" height="1" fill="#ffffff" /><rect x="8" y="3" width="1" height="1" fill="#ffffff" /><rect x="8" y="4" width="1" height="1" fill="#e2e2e1" /><rect x="8" y="5" width="1" height="1" fill="#191a1c" /><rect x="8" y="6" width="1" height="1" fill="#00317b" /><rect x="8" y="7" width="1" height="1" fill="#0081b9" /><rect x="8" y="8" width="1" height="1" fill="#007b82" /><rect x="8" y="9" width="1" height="1" fill="#000001" /><rect x="9" y="0" width="1" height="1" fill="#efefef" /><rect x="9" y="1" width="1" height="1" fill="#e3e3e3" /><rect x="9" y="2" width="1" height="1" fill="#6d6d6d" /><rect x="9" y="3" width="1" height="1" fill="#646060" /><rect x="9" y="4" width="1" height="1" fill="#565f62" /><rect x="9" y="5" width="1" height="1" fill="#044e69" /><rect x="9" y="6" width="1" height="1" fill="#00439e" /><rect x="9" y="7" width="1" height="1" fill="#004e95" /><rect x="9" y="8" width="1" height="1" fill="#003d4e" /><rect x="9" y="9" width="1" height="1" fill="#000000" /></g></svg>