<svg width="800" height="1000" version="1.1" xmlns="http://www.w3.org/2000/svg" xmlns:xlink="http://www.w3.org/1999/xlink">
  <defs>
      <linearGradient id="Gradient2" x1="0" x2="1" y1="0" y2="1">
        <stop offset="0%" stop-color="#2d3c96"/>
        <stop offset="100%" stop-color="#d53392"/>
      </linearGradient>
  </defs>
  <rect x="10" y="10" width="780" height="980" fill="url(#Gradient2)" rx="50" ry="50" stroke="#ffd700" stroke-width="20"/>
  <text x="400" y="920" width="780" text-anchor="middle" style="font: bold 200px 'Helvetica Neue'; fill: #ffd700">01603</text>

  <g transform="translate(80 80) scale(64)">
<rect x="0" y="0" width="1" height="1" fill="#EFF0F0" /><rect x="1" y="0" width="1" height="1" fill="#FFFFFF" /><rect x="2" y="0" width="1" height="1" fill="#D2D1D1" /><rect x="3" y="0" width="1" height="1" fill="#6D7D80" /><rect x="4" y="0" width="1" height="1" fill="#004354" /><rect x="5" y="0" width="1" height="1" fill="#007FB5" /><rect x="6" y="0" width="1" height="1" fill="#007E8A" /><rect x="7" y="0" width="1" height="1" fill="#006D94" /><rect x="8" y="0" width="1" height="1" fill="#004180" /><rect x="9" y="0" width="1" height="1" fill="#000001" /><rect x="0" y="1" width="1" height="1" fill="#CECECE" /><rect x="1" y="1" width="1" height="1" fill="#D1D0D0" /><rect x="2" y="1" width="1" height="1" fill="#66726C" /><rect x="3" y="1" width="1" height="1" fill="#002139" /><rect x="4" y="1" width="1" height="1" fill="#005BAD" /><rect x="5" y="1" width="1" height="1" fill="#0088A7" /><rect x="6" y="1" width="1" height="1" fill="#007EB4" /><rect x="7" y="1" width="1" height="1" fill="#0094A4" /><rect x="8" y="1" width="1" height="1" fill="#007A5F" /><rect x="9" y="1" width="1" height="1" fill="#000000" /><rect x="0" y="2" width="1" height="1" fill="#040A09" /><rect x="1" y="2" width="1" height="1" fill="#071811" /><rect x="2" y="2" width="1" height="1" fill="#02324D" /><rect x="3" y="2" width="1" height="1" fill="#00558C" /><rect x="4" y="2" width="1" height="1" fill="#007693" /><rect x="5" y="2" width="1" height="1" fill="#00B496" /><rect x="6" y="2" width="1" height="1" fill="#00AFA8" /><rect x="7" y="2" width="1" height="1" fill="#00A4AE" /><rect x="8" y="2" width="1" height="1" fill="#006E75" /><rect x="9" y="2" width="1" height="1" fill="#000000" /><rect x="0" y="3" width="1" height="1" fill="#00322C" /><rect x="1" y="3" width="1" height="1" fill="#00A85F" /><rect x="2" y="3" width="1" height="1" fill="#00838A" /><rect x="3" y="3" width="1" height="1" fill="#0071B5" /><rect x="4" y="3" width="1" height="1" fill="#00B189" /><rect x="5" y="3" width="1" height="1" fill="#00D390" /><rect x="6" y="3" width="1" height="1" fill="#00BC94" /><rect x="7" y="3" width="1" height="1" fill="#0086AC" /><rect x="8" y="3" width="1" height="1" fill="#003E84" /><rect x="9" y="3" width="1" height="1" fill="#000001" /><rect x="0" y="4" width="1" height="1" fill="#003846" /><rect x="1" y="4" width="1" height="1" fill="#00B26E" /><rect x="2" y="4" width="1" height="1" fill="#00B49D" /><rect x="3" y="4" width="1" height="1" fill="#00AFD2" /><rect x="4" y="4" width="1" height="1" fill="#00C5AA" /><rect x="5" y="4" width="1" height="1" fill="#00C783" /><rect x="6" y="4" width="1" height="1" fill="#008BB8" /><rect x="7" y="4" width="1" height="1" fill="#005AB1" /><rect x="8" y="4" width="1" height="1" fill="#002C5F" /><rect x="9" y="4" width="1" height="1" fill="#000000" /><rect x="0" y="5" width="1" height="1" fill="#0080C0" /><rect x="1" y="5" width="1" height="1" fill="#0081AB" /><rect x="2" y="5" width="1" height="1" fill="#0063BD" /><rect x="3" y="5" width="1" height="1" fill="#0077CC" /><rect x="4" y="5" width="1" height="1" fill="#00D494" /><rect x="5" y="5" width="1" height="1" fill="#00D56E" /><rect x="6" y="5" width="1" height="1" fill="#00D1AD" /><rect x="7" y="5" width="1" height="1" fill="#00B1CB" /><rect x="8" y="5" width="1" height="1" fill="#00638B" /><rect x="9" y="5" width="1" height="1" fill="#000001" /><rect x="0" y="6" width="1" height="1" fill="#0072B9" /><rect x="1" y="6" width="1" height="1" fill="#00A2A2" /><rect x="2" y="6" width="1" height="1" fill="#009687" /><rect x="3" y="6" width="1" height="1" fill="#008390" /><rect x="4" y="6" width="1" height="1" fill="#009AB9" /><rect x="5" y="6" width="1" height="1" fill="#007C79" /><rect x="6" y="6" width="1" height="1" fill="#00878F" /><rect x="7" y="6" width="1" height="1" fill="#0075A0" /><rect x="8" y="6" width="1" height="1" fill="#003C6D" /><rect x="9" y="6" width="1" height="1" fill="#000000" /><rect x="0" y="7" width="1" height="1" fill="#007FA7" /><rect x="1" y="7" width="1" height="1" fill="#00BE83" /><rect x="2" y="7" width="1" height="1" fill="#00B672" /><rect x="3" y="7" width="1" height="1" fill="#009187" /><rect x="4" y="7" width="1" height="1" fill="#007EAB" /><rect x="5" y="7" width="1" height="1" fill="#004E75" /><rect x="6" y="7" width="1" height="1" fill="#008C72" /><rect x="7" y="7" width="1" height="1" fill="#006158" /><rect x="8" y="7" width="1" height="1" fill="#222D4B" /><rect x="9" y="7" width="1" height="1" fill="#7C7C7C" /><rect x="0" y="8" width="1" height="1" fill="#00686E" /><rect x="1" y="8" width="1" height="1" fill="#00884A" /><rect x="2" y="8" width="1" height="1" fill="#007E51" /><rect x="3" y="8" width="1" height="1" fill="#006568" /><rect x="4" y="8" width="1" height="1" fill="#00565C" /><rect x="5" y="8" width="1" height="1" fill="#003346" /><rect x="6" y="8" width="1" height="1" fill="#00803F" /><rect x="7" y="8" width="1" height="1" fill="#22713B" /><rect x="8" y="8" width="1" height="1" fill="#818181" /><rect x="9" y="8" width="1" height="1" fill="#FEFEFE" /><rect x="0" y="9" width="1" height="1" fill="#000000" /><rect x="1" y="9" width="1" height="1" fill="#000100" /><rect x="2" y="9" width="1" height="1" fill="#000000" /><rect x="3" y="9" width="1" height="1" fill="#000000" /><rect x="4" y="9" width="1" height="1" fill="#000000" /><rect x="5" y="9" width="1" height="1" fill="#000000" /><rect x="6" y="9" width="1" height="1" fill="#000000" /><rect x="7" y="9" width="1" height="1" fill="#7C7C7C" /><rect x="8" y="9" width="1" height="1" fill="#FEFEFE" /><rect x="9" y="9" width="1" height="1" fill="#FFFFFF" />
  </g>
</svg>