<svg width="800" height="1000" version="1.1" xmlns="http://www.w3.org/2000/svg" xmlns:xlink="http://www.w3.org/1999/xlink">
  <defs>
      <linearGradient id="Gradient2" x1="0" x2="1" y1="0" y2="1">
        <stop offset="0%" stop-color="#2d3c96"/>
        <stop offset="100%" stop-color="#d53392"/>
      </linearGradient>
  </defs>
  <rect x="10" y="10" width="780" height="980" fill="url(#Gradient2)" rx="50" ry="50" stroke="#ffd700" stroke-width="20"/>
  <text x="400" y="920" width="780" text-anchor="middle" style="font: bold 200px 'Helvetica Neue'; fill: #ffd700">01610</text>

  <g transform="translate(80 80) scale(64)">
<rect x="0" y="0" width="1" height="1" fill="#999A88" /><rect x="1" y="0" width="1" height="1" fill="#9D9A89" /><rect x="2" y="0" width="1" height="1" fill="#A3A188" /><rect x="3" y="0" width="1" height="1" fill="#A9A48F" /><rect x="4" y="0" width="1" height="1" fill="#92958C" /><rect x="5" y="0" width="1" height="1" fill="#808D84" /><rect x="6" y="0" width="1" height="1" fill="#738984" /><rect x="7" y="0" width="1" height="1" fill="#56747F" /><rect x="8" y="0" width="1" height="1" fill="#2B5A78" /><rect x="9" y="0" width="1" height="1" fill="#375867" /><rect x="0" y="1" width="1" height="1" fill="#8B9183" /><rect x="1" y="1" width="1" height="1" fill="#929486" /><rect x="2" y="1" width="1" height="1" fill="#999A8C" /><rect x="3" y="1" width="1" height="1" fill="#989A8D" /><rect x="4" y="1" width="1" height="1" fill="#90968C" /><rect x="5" y="1" width="1" height="1" fill="#818C86" /><rect x="6" y="1" width="1" height="1" fill="#8C9789" /><rect x="7" y="1" width="1" height="1" fill="#698183" /><rect x="8" y="1" width="1" height="1" fill="#4E757C" /><rect x="9" y="1" width="1" height="1" fill="#355564" /><rect x="0" y="2" width="1" height="1" fill="#878E87" /><rect x="1" y="2" width="1" height="1" fill="#8E9188" /><rect x="2" y="2" width="1" height="1" fill="#92958A" /><rect x="3" y="2" width="1" height="1" fill="#90938A" /><rect x="4" y="2" width="1" height="1" fill="#8B8D88" /><rect x="5" y="2" width="1" height="1" fill="#858F86" /><rect x="6" y="2" width="1" height="1" fill="#979B8A" /><rect x="7" y="2" width="1" height="1" fill="#838D84" /><rect x="8" y="2" width="1" height="1" fill="#8C9584" /><rect x="9" y="2" width="1" height="1" fill="#818B80" /><rect x="0" y="3" width="1" height="1" fill="#888F87" /><rect x="1" y="3" width="1" height="1" fill="#878E87" /><rect x="2" y="3" width="1" height="1" fill="#868B85" /><rect x="3" y="3" width="1" height="1" fill="#848F87" /><rect x="4" y="3" width="1" height="1" fill="#818B83" /><rect x="5" y="3" width="1" height="1" fill="#8B9187" /><rect x="6" y="3" width="1" height="1" fill="#86938A" /><rect x="7" y="3" width="1" height="1" fill="#8B9089" /><rect x="8" y="3" width="1" height="1" fill="#909485" /><rect x="9" y="3" width="1" height="1" fill="#A9A491" /><rect x="0" y="4" width="1" height="1" fill="#8A9189" /><rect x="1" y="4" width="1" height="1" fill="#858B87" /><rect x="2" y="4" width="1" height="1" fill="#818B83" /><rect x="3" y="4" width="1" height="1" fill="#838987" /><rect x="4" y="4" width="1" height="1" fill="#898E88" /><rect x="5" y="4" width="1" height="1" fill="#91928A" /><rect x="6" y="4" width="1" height="1" fill="#7E8A88" /><rect x="7" y="4" width="1" height="1" fill="#7B8A87" /><rect x="8" y="4" width="1" height="1" fill="#7E8782" /><rect x="9" y="4" width="1" height="1" fill="#7D837F" /><rect x="0" y="5" width="1" height="1" fill="#919489" /><rect x="1" y="5" width="1" height="1" fill="#8B8D88" /><rect x="2" y="5" width="1" height="1" fill="#8D978C" /><rect x="3" y="5" width="1" height="1" fill="#858E8B" /><rect x="4" y="5" width="1" height="1" fill="#8B958C" /><rect x="5" y="5" width="1" height="1" fill="#939789" /><rect x="6" y="5" width="1" height="1" fill="#8C918B" /><rect x="7" y="5" width="1" height="1" fill="#7E8A86" /><rect x="8" y="5" width="1" height="1" fill="#6A7A7A" /><rect x="9" y="5" width="1" height="1" fill="#66757A" /><rect x="0" y="6" width="1" height="1" fill="#969A89" /><rect x="1" y="6" width="1" height="1" fill="#94978C" /><rect x="2" y="6" width="1" height="1" fill="#9C9E91" /><rect x="3" y="6" width="1" height="1" fill="#8F948D" /><rect x="4" y="6" width="1" height="1" fill="#878D89" /><rect x="5" y="6" width="1" height="1" fill="#8F9591" /><rect x="6" y="6" width="1" height="1" fill="#8F918C" /><rect x="7" y="6" width="1" height="1" fill="#8A9587" /><rect x="8" y="6" width="1" height="1" fill="#828D85" /><rect x="9" y="6" width="1" height="1" fill="#828982" /><rect x="0" y="7" width="1" height="1" fill="#A09F89" /><rect x="1" y="7" width="1" height="1" fill="#9A9B8D" /><rect x="2" y="7" width="1" height="1" fill="#A3A08D" /><rect x="3" y="7" width="1" height="1" fill="#9A9A90" /><rect x="4" y="7" width="1" height="1" fill="#8B9187" /><rect x="5" y="7" width="1" height="1" fill="#8C938C" /><rect x="6" y="7" width="1" height="1" fill="#90968C" /><rect x="7" y="7" width="1" height="1" fill="#8C928E" /><rect x="8" y="7" width="1" height="1" fill="#90988B" /><rect x="9" y="7" width="1" height="1" fill="#939587" /><rect x="0" y="8" width="1" height="1" fill="#A39E88" /><rect x="1" y="8" width="1" height="1" fill="#9FA090" /><rect x="2" y="8" width="1" height="1" fill="#A1A38E" /><rect x="3" y="8" width="1" height="1" fill="#A29E92" /><rect x="4" y="8" width="1" height="1" fill="#8F968E" /><rect x="5" y="8" width="1" height="1" fill="#8A938C" /><rect x="6" y="8" width="1" height="1" fill="#909287" /><rect x="7" y="8" width="1" height="1" fill="#898E88" /><rect x="8" y="8" width="1" height="1" fill="#949587" /><rect x="9" y="8" width="1" height="1" fill="#9A9B89" /><rect x="0" y="9" width="1" height="1" fill="#A69D8A" /><rect x="1" y="9" width="1" height="1" fill="#9C9F8E" /><rect x="2" y="9" width="1" height="1" fill="#9C9E87" /><rect x="3" y="9" width="1" height="1" fill="#9D998D" /><rect x="4" y="9" width="1" height="1" fill="#969A8C" /><rect x="5" y="9" width="1" height="1" fill="#97998B" /><rect x="6" y="9" width="1" height="1" fill="#8F9385" /><rect x="7" y="9" width="1" height="1" fill="#8B8E83" /><rect x="8" y="9" width="1" height="1" fill="#959185" /><rect x="9" y="9" width="1" height="1" fill="#A29D8A" />
  </g>
</svg>