<svg width="800" height="1000" version="1.1" xmlns="http://www.w3.org/2000/svg" xmlns:xlink="http://www.w3.org/1999/xlink">
  <defs>
      <linearGradient id="Gradient2" x1="0" x2="1" y1="0" y2="1">
        <stop offset="0%" stop-color="#2d3c96"/>
        <stop offset="100%" stop-color="#d53392"/>
      </linearGradient>
  </defs>
  <rect x="10" y="10" width="780" height="980" fill="url(#Gradient2)" rx="50" ry="50" stroke="#ffd700" stroke-width="20"/>
  <text x="400" y="920" width="780" text-anchor="middle" style="font: bold 200px 'Helvetica Neue'; fill: #ffd700">01631</text>

  <g transform="translate(80 80) scale(64)">
<rect x="0" y="0" width="1" height="1" fill="#DAB07F" /><rect x="1" y="0" width="1" height="1" fill="#BD996E" /><rect x="2" y="0" width="1" height="1" fill="#B7946A" /><rect x="3" y="0" width="1" height="1" fill="#D4AB7C" /><rect x="4" y="0" width="1" height="1" fill="#D8AE7E" /><rect x="5" y="0" width="1" height="1" fill="#3D3021" /><rect x="6" y="0" width="1" height="1" fill="#405A67" /><rect x="7" y="0" width="1" height="1" fill="#658899" /><rect x="8" y="0" width="1" height="1" fill="#638697" /><rect x="9" y="0" width="1" height="1" fill="#638697" /><rect x="0" y="1" width="1" height="1" fill="#D0A87A" /><rect x="1" y="1" width="1" height="1" fill="#53412D" /><rect x="2" y="1" width="1" height="1" fill="#362A1B" /><rect x="3" y="1" width="1" height="1" fill="#B7936A" /><rect x="4" y="1" width="1" height="1" fill="#DAAF7F" /><rect x="5" y="1" width="1" height="1" fill="#3D3021" /><rect x="6" y="1" width="1" height="1" fill="#405A67" /><rect x="7" y="1" width="1" height="1" fill="#658899" /><rect x="8" y="1" width="1" height="1" fill="#638697" /><rect x="9" y="1" width="1" height="1" fill="#638697" /><rect x="0" y="2" width="1" height="1" fill="#D6AA77" /><rect x="1" y="2" width="1" height="1" fill="#C39A6B" /><rect x="2" y="2" width="1" height="1" fill="#BF9768" /><rect x="3" y="2" width="1" height="1" fill="#D4A977" /><rect x="4" y="2" width="1" height="1" fill="#D7AD7C" /><rect x="5" y="2" width="1" height="1" fill="#3D3121" /><rect x="6" y="2" width="1" height="1" fill="#405A67" /><rect x="7" y="2" width="1" height="1" fill="#658899" /><rect x="8" y="2" width="1" height="1" fill="#638697" /><rect x="9" y="2" width="1" height="1" fill="#638697" /><rect x="0" y="3" width="1" height="1" fill="#9F6E30" /><rect x="1" y="3" width="1" height="1" fill="#9E6D30" /><rect x="2" y="3" width="1" height="1" fill="#A06E31" /><rect x="3" y="3" width="1" height="1" fill="#BC8745" /><rect x="4" y="3" width="1" height="1" fill="#D1A470" /><rect x="5" y="3" width="1" height="1" fill="#3D3122" /><rect x="6" y="3" width="1" height="1" fill="#405A67" /><rect x="7" y="3" width="1" height="1" fill="#658899" /><rect x="8" y="3" width="1" height="1" fill="#638697" /><rect x="9" y="3" width="1" height="1" fill="#638697" /><rect x="0" y="4" width="1" height="1" fill="#2D1E0A" /><rect x="1" y="4" width="1" height="1" fill="#241807" /><rect x="2" y="4" width="1" height="1" fill="#2C1C09" /><rect x="3" y="4" width="1" height="1" fill="#8F6127" /><rect x="4" y="4" width="1" height="1" fill="#CD9F69" /><rect x="5" y="4" width="1" height="1" fill="#3E3223" /><rect x="6" y="4" width="1" height="1" fill="#405A67" /><rect x="7" y="4" width="1" height="1" fill="#658899" /><rect x="8" y="4" width="1" height="1" fill="#638697" /><rect x="9" y="4" width="1" height="1" fill="#638697" /><rect x="0" y="5" width="1" height="1" fill="#B79268" /><rect x="1" y="5" width="1" height="1" fill="#B8946B" /><rect x="2" y="5" width="1" height="1" fill="#B79368" /><rect x="3" y="5" width="1" height="1" fill="#B07E40" /><rect x="4" y="5" width="1" height="1" fill="#C09562" /><rect x="5" y="5" width="1" height="1" fill="#3E3428" /><rect x="6" y="5" width="1" height="1" fill="#425D6A" /><rect x="7" y="5" width="1" height="1" fill="#658899" /><rect x="8" y="5" width="1" height="1" fill="#638697" /><rect x="9" y="5" width="1" height="1" fill="#638697" /><rect x="0" y="6" width="1" height="1" fill="#D2A97A" /><rect x="1" y="6" width="1" height="1" fill="#D3AA7B" /><rect x="2" y="6" width="1" height="1" fill="#D3A97A" /><rect x="3" y="6" width="1" height="1" fill="#C49B6A" /><rect x="4" y="6" width="1" height="1" fill="#554532" /><rect x="5" y="6" width="1" height="1" fill="#435760" /><rect x="6" y="6" width="1" height="1" fill="#5E8090" /><rect x="7" y="6" width="1" height="1" fill="#638697" /><rect x="8" y="6" width="1" height="1" fill="#638697" /><rect x="9" y="6" width="1" height="1" fill="#638697" /><rect x="0" y="7" width="1" height="1" fill="#2E251B" /><rect x="1" y="7" width="1" height="1" fill="#2E271B" /><rect x="2" y="7" width="1" height="1" fill="#2E271B" /><rect x="3" y="7" width="1" height="1" fill="#312920" /><rect x="4" y="7" width="1" height="1" fill="#445861" /><rect x="5" y="7" width="1" height="1" fill="#5E8090" /><rect x="6" y="7" width="1" height="1" fill="#648798" /><rect x="7" y="7" width="1" height="1" fill="#638697" /><rect x="8" y="7" width="1" height="1" fill="#638697" /><rect x="9" y="7" width="1" height="1" fill="#638697" /><rect x="0" y="8" width="1" height="1" fill="#445F6C" /><rect x="1" y="8" width="1" height="1" fill="#486573" /><rect x="2" y="8" width="1" height="1" fill="#476473" /><rect x="3" y="8" width="1" height="1" fill="#486674" /><rect x="4" y="8" width="1" height="1" fill="#5D7F8F" /><rect x="5" y="8" width="1" height="1" fill="#648798" /><rect x="6" y="8" width="1" height="1" fill="#638697" /><rect x="7" y="8" width="1" height="1" fill="#638697" /><rect x="8" y="8" width="1" height="1" fill="#638697" /><rect x="9" y="8" width="1" height="1" fill="#638697" /><rect x="0" y="9" width="1" height="1" fill="#5F8191" /><rect x="1" y="9" width="1" height="1" fill="#65889A" /><rect x="2" y="9" width="1" height="1" fill="#658899" /><rect x="3" y="9" width="1" height="1" fill="#658899" /><rect x="4" y="9" width="1" height="1" fill="#638798" /><rect x="5" y="9" width="1" height="1" fill="#638697" /><rect x="6" y="9" width="1" height="1" fill="#638697" /><rect x="7" y="9" width="1" height="1" fill="#638697" /><rect x="8" y="9" width="1" height="1" fill="#638697" /><rect x="9" y="9" width="1" height="1" fill="#638697" />
  </g>
</svg>