<svg width="800" height="1000" xmlns="http://www.w3.org/2000/svg"><defs><linearGradient id="g" x1="0" x2="1" y1="0" y2="1"><stop offset="0%" stop-color="#2d3c96"/><stop offset="100%" stop-color="#d53392"/></linearGradient></defs><rect x="10" y="10" width="780" height="980" fill="url(#g)" rx="50" ry="50" stroke="gold" stroke-width="20"/><text x="400" y="920" width="780" text-anchor="middle" style="font:bold 200px 'Helvetica Neue';fill:gold">01642</text><g transform="translate(80 80) scale(64)"><rect x="0" y="0" width="1" height="1" fill="#062031" /><rect x="0" y="1" width="1" height="1" fill="#071f30" /><rect x="0" y="2" width="1" height="1" fill="#092030" /><rect x="0" y="3" width="1" height="1" fill="#0f2131" /><rect x="0" y="4" width="1" height="1" fill="#132231" /><rect x="0" y="5" width="1" height="1" fill="#724637" /><rect x="0" y="6" width="1" height="1" fill="#a4603d" /><rect x="0" y="7" width="1" height="1" fill="#b56940" /><rect x="0" y="8" width="1" height="1" fill="#a5603d" /><rect x="0" y="9" width="1" height="1" fill="#3e2e33" /><rect x="1" y="0" width="1" height="1" fill="#082031" /><rect x="1" y="1" width="1" height="1" fill="#001e31" /><rect x="1" y="2" width="1" height="1" fill="#2a2732" /><rect x="1" y="3" width="1" height="1" fill="#000a2f" /><rect x="1" y="4" width="1" height="1" fill="#5f3d35" /><rect x="1" y="5" width="1" height="1" fill="#f18b4a" /><rect x="1" y="6" width="1" height="1" fill="#ff984e" /><rect x="1" y="7" width="1" height="1" fill="#ff954e" /><rect x="1" y="8" width="1" height="1" fill="#ff9a50" /><rect x="1" y="9" width="1" height="1" fill="#e88549" /><rect x="2" y="0" width="1" height="1" fill="#082031" /><rect x="2" y="1" width="1" height="1" fill="#001e31" /><rect x="2" y="2" width="1" height="1" fill="#392b32" /><rect x="2" y="3" width="1" height="1" fill="#010028" /><rect x="2" y="4" width="1" height="1" fill="#d27845" /><rect x="2" y="5" width="1" height="1" fill="#e78549" /><rect x="2" y="6" width="1" height="1" fill="#a6613e" /><rect x="2" y="7" width="1" height="1" fill="#ed8849" /><rect x="2" y="8" width="1" height="1" fill="#ce7744" /><rect x="2" y="9" width="1" height="1" fill="#ff964f" /><rect x="3" y="0" width="1" height="1" fill="#082031" /><rect x="3" y="1" width="1" height="1" fill="#001f30" /><rect x="3" y="2" width="1" height="1" fill="#382b32" /><rect x="3" y="3" width="1" height="1" fill="#010028" /><rect x="3" y="4" width="1" height="1" fill="#d77c45" /><rect x="3" y="5" width="1" height="1" fill="#e58448" /><rect x="3" y="6" width="1" height="1" fill="#c77242" /><rect x="3" y="7" width="1" height="1" fill="#de8046" /><rect x="3" y="8" width="1" height="1" fill="#483234" /><rect x="3" y="9" width="1" height="1" fill="#ff954e" /><rect x="4" y="0" width="1" height="1" fill="#082031" /><rect x="4" y="1" width="1" height="1" fill="#001e31" /><rect x="4" y="2" width="1" height="1" fill="#2d2832" /><rect x="4" y="3" width="1" height="1" fill="#01002e" /><rect x="4" y="4" width="1" height="1" fill="#764838" /><rect x="4" y="5" width="1" height="1" fill="#f18b4a" /><rect x="4" y="6" width="1" height="1" fill="#ffa052" /><rect x="4" y="7" width="1" height="1" fill="#c47043" /><rect x="4" y="8" width="1" height="1" fill="#804d38" /><rect x="4" y="9" width="1" height="1" fill="#f48b4b" /><rect x="5" y="0" width="1" height="1" fill="#062031" /><rect x="5" y="1" width="1" height="1" fill="#051f30" /><rect x="5" y="2" width="1" height="1" fill="#0d2131" /><rect x="5" y="3" width="1" height="1" fill="#051f30" /><rect x="5" y="4" width="1" height="1" fill="#001830" /><rect x="5" y="5" width="1" height="1" fill="#754737" /><rect x="5" y="6" width="1" height="1" fill="#a9623e" /><rect x="5" y="7" width="1" height="1" fill="#623f35" /><rect x="5" y="8" width="1" height="1" fill="#000d2f" /><rect x="5" y="9" width="1" height="1" fill="#8a5339" /><rect x="6" y="0" width="1" height="1" fill="#082031" /><rect x="6" y="1" width="1" height="1" fill="#001e31" /><rect x="6" y="2" width="1" height="1" fill="#382b32" /><rect x="6" y="3" width="1" height="1" fill="#010029" /><rect x="6" y="4" width="1" height="1" fill="#a9633e" /><rect x="6" y="5" width="1" height="1" fill="#e58348" /><rect x="6" y="6" width="1" height="1" fill="#98593b" /><rect x="6" y="7" width="1" height="1" fill="#a05d3d" /><rect x="6" y="8" width="1" height="1" fill="#a6603d" /><rect x="6" y="9" width="1" height="1" fill="#e58348" /><rect x="7" y="0" width="1" height="1" fill="#082031" /><rect x="7" y="1" width="1" height="1" fill="#001e31" /><rect x="7" y="2" width="1" height="1" fill="#362a32" /><rect x="7" y="3" width="1" height="1" fill="#01002b" /><rect x="7" y="4" width="1" height="1" fill="#b66a40" /><rect x="7" y="5" width="1" height="1" fill="#ff964f" /><rect x="7" y="6" width="1" height="1" fill="#ff9a4f" /><rect x="7" y="7" width="1" height="1" fill="#ff984f" /><rect x="7" y="8" width="1" height="1" fill="#ff9850" /><rect x="7" y="9" width="1" height="1" fill="#ff9b50" /><rect x="8" y="0" width="1" height="1" fill="#082031" /><rect x="8" y="1" width="1" height="1" fill="#001e31" /><rect x="8" y="2" width="1" height="1" fill="#342a33" /><rect x="8" y="3" width="1" height="1" fill="#01002b" /><rect x="8" y="4" width="1" height="1" fill="#9e5c3c" /><rect x="8" y="5" width="1" height="1" fill="#ff934d" /><rect x="8" y="6" width="1" height="1" fill="#b66a40" /><rect x="8" y="7" width="1" height="1" fill="#98593b" /><rect x="8" y="8" width="1" height="1" fill="#9b5a3b" /><rect x="8" y="9" width="1" height="1" fill="#eb8749" /><rect x="9" y="0" width="1" height="1" fill="#082031" /><rect x="9" y="1" width="1" height="1" fill="#001f30" /><rect x="9" y="2" width="1" height="1" fill="#2e2832" /><rect x="9" y="3" width="1" height="1" fill="#01002d" /><rect x="9" y="4" width="1" height="1" fill="#a6613d" /><rect x="9" y="5" width="1" height="1" fill="#e08147" /><rect x="9" y="6" width="1" height="1" fill="#2e2932" /><rect x="9" y="7" width="1" height="1" fill="#010028" /><rect x="9" y="8" width="1" height="1" fill="#010029" /><rect x="9" y="9" width="1" height="1" fill="#633f36" /></g></svg>