<svg width="800" height="1000" version="1.1" xmlns="http://www.w3.org/2000/svg" xmlns:xlink="http://www.w3.org/1999/xlink">
  <defs>
      <linearGradient id="Gradient2" x1="0" x2="1" y1="0" y2="1">
        <stop offset="0%" stop-color="#2d3c96"/>
        <stop offset="100%" stop-color="#d53392"/>
      </linearGradient>
  </defs>
  <rect x="10" y="10" width="780" height="980" fill="url(#Gradient2)" rx="50" ry="50" stroke="#ffd700" stroke-width="20"/>
  <text x="400" y="920" width="780" text-anchor="middle" style="font: bold 200px 'Helvetica Neue'; fill: #ffd700">01642</text>

  <g transform="translate(80 80) scale(64)">
<rect x="0" y="0" width="1" height="1" fill="#062031" /><rect x="1" y="0" width="1" height="1" fill="#082031" /><rect x="2" y="0" width="1" height="1" fill="#082031" /><rect x="3" y="0" width="1" height="1" fill="#082031" /><rect x="4" y="0" width="1" height="1" fill="#082031" /><rect x="5" y="0" width="1" height="1" fill="#062031" /><rect x="6" y="0" width="1" height="1" fill="#082031" /><rect x="7" y="0" width="1" height="1" fill="#082031" /><rect x="8" y="0" width="1" height="1" fill="#082031" /><rect x="9" y="0" width="1" height="1" fill="#082031" /><rect x="0" y="1" width="1" height="1" fill="#071F30" /><rect x="1" y="1" width="1" height="1" fill="#001E31" /><rect x="2" y="1" width="1" height="1" fill="#001E31" /><rect x="3" y="1" width="1" height="1" fill="#001F30" /><rect x="4" y="1" width="1" height="1" fill="#001E31" /><rect x="5" y="1" width="1" height="1" fill="#051F30" /><rect x="6" y="1" width="1" height="1" fill="#001E31" /><rect x="7" y="1" width="1" height="1" fill="#001E31" /><rect x="8" y="1" width="1" height="1" fill="#001E31" /><rect x="9" y="1" width="1" height="1" fill="#001F30" /><rect x="0" y="2" width="1" height="1" fill="#092030" /><rect x="1" y="2" width="1" height="1" fill="#2A2732" /><rect x="2" y="2" width="1" height="1" fill="#392B32" /><rect x="3" y="2" width="1" height="1" fill="#382B32" /><rect x="4" y="2" width="1" height="1" fill="#2D2832" /><rect x="5" y="2" width="1" height="1" fill="#0D2131" /><rect x="6" y="2" width="1" height="1" fill="#382B32" /><rect x="7" y="2" width="1" height="1" fill="#362A32" /><rect x="8" y="2" width="1" height="1" fill="#342A33" /><rect x="9" y="2" width="1" height="1" fill="#2E2832" /><rect x="0" y="3" width="1" height="1" fill="#0F2131" /><rect x="1" y="3" width="1" height="1" fill="#000A2F" /><rect x="2" y="3" width="1" height="1" fill="#010028" /><rect x="3" y="3" width="1" height="1" fill="#010028" /><rect x="4" y="3" width="1" height="1" fill="#01002E" /><rect x="5" y="3" width="1" height="1" fill="#051F30" /><rect x="6" y="3" width="1" height="1" fill="#010029" /><rect x="7" y="3" width="1" height="1" fill="#01002B" /><rect x="8" y="3" width="1" height="1" fill="#01002B" /><rect x="9" y="3" width="1" height="1" fill="#01002D" /><rect x="0" y="4" width="1" height="1" fill="#132231" /><rect x="1" y="4" width="1" height="1" fill="#5F3D35" /><rect x="2" y="4" width="1" height="1" fill="#D27845" /><rect x="3" y="4" width="1" height="1" fill="#D77C45" /><rect x="4" y="4" width="1" height="1" fill="#764838" /><rect x="5" y="4" width="1" height="1" fill="#001830" /><rect x="6" y="4" width="1" height="1" fill="#A9633E" /><rect x="7" y="4" width="1" height="1" fill="#B66A40" /><rect x="8" y="4" width="1" height="1" fill="#9E5C3C" /><rect x="9" y="4" width="1" height="1" fill="#A6613D" /><rect x="0" y="5" width="1" height="1" fill="#724637" /><rect x="1" y="5" width="1" height="1" fill="#F18B4A" /><rect x="2" y="5" width="1" height="1" fill="#E78549" /><rect x="3" y="5" width="1" height="1" fill="#E58448" /><rect x="4" y="5" width="1" height="1" fill="#F18B4A" /><rect x="5" y="5" width="1" height="1" fill="#754737" /><rect x="6" y="5" width="1" height="1" fill="#E58348" /><rect x="7" y="5" width="1" height="1" fill="#FF964F" /><rect x="8" y="5" width="1" height="1" fill="#FF934D" /><rect x="9" y="5" width="1" height="1" fill="#E08147" /><rect x="0" y="6" width="1" height="1" fill="#A4603D" /><rect x="1" y="6" width="1" height="1" fill="#FF984E" /><rect x="2" y="6" width="1" height="1" fill="#A6613E" /><rect x="3" y="6" width="1" height="1" fill="#C77242" /><rect x="4" y="6" width="1" height="1" fill="#FFA052" /><rect x="5" y="6" width="1" height="1" fill="#A9623E" /><rect x="6" y="6" width="1" height="1" fill="#98593B" /><rect x="7" y="6" width="1" height="1" fill="#FF9A4F" /><rect x="8" y="6" width="1" height="1" fill="#B66A40" /><rect x="9" y="6" width="1" height="1" fill="#2E2932" /><rect x="0" y="7" width="1" height="1" fill="#B56940" /><rect x="1" y="7" width="1" height="1" fill="#FF954E" /><rect x="2" y="7" width="1" height="1" fill="#ED8849" /><rect x="3" y="7" width="1" height="1" fill="#DE8046" /><rect x="4" y="7" width="1" height="1" fill="#C47043" /><rect x="5" y="7" width="1" height="1" fill="#623F35" /><rect x="6" y="7" width="1" height="1" fill="#A05D3D" /><rect x="7" y="7" width="1" height="1" fill="#FF984F" /><rect x="8" y="7" width="1" height="1" fill="#98593B" /><rect x="9" y="7" width="1" height="1" fill="#010028" /><rect x="0" y="8" width="1" height="1" fill="#A5603D" /><rect x="1" y="8" width="1" height="1" fill="#FF9A50" /><rect x="2" y="8" width="1" height="1" fill="#CE7744" /><rect x="3" y="8" width="1" height="1" fill="#483234" /><rect x="4" y="8" width="1" height="1" fill="#804D38" /><rect x="5" y="8" width="1" height="1" fill="#000D2F" /><rect x="6" y="8" width="1" height="1" fill="#A6603D" /><rect x="7" y="8" width="1" height="1" fill="#FF9850" /><rect x="8" y="8" width="1" height="1" fill="#9B5A3B" /><rect x="9" y="8" width="1" height="1" fill="#010029" /><rect x="0" y="9" width="1" height="1" fill="#3E2E33" /><rect x="1" y="9" width="1" height="1" fill="#E88549" /><rect x="2" y="9" width="1" height="1" fill="#FF964F" /><rect x="3" y="9" width="1" height="1" fill="#FF954E" /><rect x="4" y="9" width="1" height="1" fill="#F48B4B" /><rect x="5" y="9" width="1" height="1" fill="#8A5339" /><rect x="6" y="9" width="1" height="1" fill="#E58348" /><rect x="7" y="9" width="1" height="1" fill="#FF9B50" /><rect x="8" y="9" width="1" height="1" fill="#EB8749" /><rect x="9" y="9" width="1" height="1" fill="#633F36" />
  </g>
</svg>