<svg width="800" height="1000" xmlns="http://www.w3.org/2000/svg"><defs><linearGradient id="g" x1="0" x2="1" y1="0" y2="1"><stop offset="0%" stop-color="#2d3c96"/><stop offset="100%" stop-color="#d53392"/></linearGradient></defs><rect x="10" y="10" width="780" height="980" fill="url(#g)" rx="50" ry="50" stroke="gold" stroke-width="20"/><text x="400" y="920" width="780" text-anchor="middle" style="font:bold 200px 'Helvetica Neue';fill:gold">01643</text><g transform="translate(80 80) scale(64)"><rect x="0" y="0" width="1" height="1" fill="#062031" /><rect x="0" y="1" width="1" height="1" fill="#001e31" /><rect x="0" y="2" width="1" height="1" fill="#342a31" /><rect x="0" y="3" width="1" height="1" fill="#010027" /><rect x="0" y="4" width="1" height="1" fill="#9d5b3c" /><rect x="0" y="5" width="1" height="1" fill="#c17042" /><rect x="0" y="6" width="1" height="1" fill="#322b33" /><rect x="0" y="7" width="1" height="1" fill="#262632" /><rect x="0" y="8" width="1" height="1" fill="#3c2d32" /><rect x="0" y="9" width="1" height="1" fill="#01002b" /><rect x="1" y="0" width="1" height="1" fill="#001f32" /><rect x="1" y="1" width="1" height="1" fill="#2c2832" /><rect x="1" y="2" width="1" height="1" fill="#01002e" /><rect x="1" y="3" width="1" height="1" fill="#8c533a" /><rect x="1" y="4" width="1" height="1" fill="#f88d4b" /><rect x="1" y="5" width="1" height="1" fill="#ff924e" /><rect x="1" y="6" width="1" height="1" fill="#f58c4a" /><rect x="1" y="7" width="1" height="1" fill="#f68c4c" /><rect x="1" y="8" width="1" height="1" fill="#f68c4c" /><rect x="1" y="9" width="1" height="1" fill="#d97d46" /><rect x="2" y="0" width="1" height="1" fill="#152231" /><rect x="2" y="1" width="1" height="1" fill="#182231" /><rect x="2" y="2" width="1" height="1" fill="#00102f" /><rect x="2" y="3" width="1" height="1" fill="#c57243" /><rect x="2" y="4" width="1" height="1" fill="#fc904c" /><rect x="2" y="5" width="1" height="1" fill="#fa8f4c" /><rect x="2" y="6" width="1" height="1" fill="#e98648" /><rect x="2" y="7" width="1" height="1" fill="#e78549" /><rect x="2" y="8" width="1" height="1" fill="#ef8a4a" /><rect x="2" y="9" width="1" height="1" fill="#ff9950" /><rect x="3" y="0" width="1" height="1" fill="#062031" /><rect x="3" y="1" width="1" height="1" fill="#001e31" /><rect x="3" y="2" width="1" height="1" fill="#443033" /><rect x="3" y="3" width="1" height="1" fill="#010026" /><rect x="3" y="4" width="1" height="1" fill="#ca7443" /><rect x="3" y="5" width="1" height="1" fill="#e98648" /><rect x="3" y="6" width="1" height="1" fill="#001c31" /><rect x="3" y="7" width="1" height="1" fill="#01002b" /><rect x="3" y="8" width="1" height="1" fill="#653f36" /><rect x="3" y="9" width="1" height="1" fill="#ff964e" /><rect x="4" y="0" width="1" height="1" fill="#122131" /><rect x="4" y="1" width="1" height="1" fill="#001b31" /><rect x="4" y="2" width="1" height="1" fill="#00082f" /><rect x="4" y="3" width="1" height="1" fill="#010029" /><rect x="4" y="4" width="1" height="1" fill="#9a593b" /><rect x="4" y="5" width="1" height="1" fill="#ab643f" /><rect x="4" y="6" width="1" height="1" fill="#00032e" /><rect x="4" y="7" width="1" height="1" fill="#01002c" /><rect x="4" y="8" width="1" height="1" fill="#242631" /><rect x="4" y="9" width="1" height="1" fill="#bb6d41" /><rect x="5" y="0" width="1" height="1" fill="#001730" /><rect x="5" y="1" width="1" height="1" fill="#2e2932" /><rect x="5" y="2" width="1" height="1" fill="#92553b" /><rect x="5" y="3" width="1" height="1" fill="#4a3334" /><rect x="5" y="4" width="1" height="1" fill="#7d4b38" /><rect x="5" y="5" width="1" height="1" fill="#c06f42" /><rect x="5" y="6" width="1" height="1" fill="#734637" /><rect x="5" y="7" width="1" height="1" fill="#6a4136" /><rect x="5" y="8" width="1" height="1" fill="#684136" /><rect x="5" y="9" width="1" height="1" fill="#ce7744" /><rect x="6" y="0" width="1" height="1" fill="#01002c" /><rect x="6" y="1" width="1" height="1" fill="#774837" /><rect x="6" y="2" width="1" height="1" fill="#ff9d51" /><rect x="6" y="3" width="1" height="1" fill="#c26f42" /><rect x="6" y="4" width="1" height="1" fill="#bb6d41" /><rect x="6" y="5" width="1" height="1" fill="#ff9e52" /><rect x="6" y="6" width="1" height="1" fill="#ff984f" /><rect x="6" y="7" width="1" height="1" fill="#ff944d" /><rect x="6" y="8" width="1" height="1" fill="#ff954e" /><rect x="6" y="9" width="1" height="1" fill="#ff9d51" /><rect x="7" y="0" width="1" height="1" fill="#000a2f" /><rect x="7" y="1" width="1" height="1" fill="#603d35" /><rect x="7" y="2" width="1" height="1" fill="#cf7644" /><rect x="7" y="3" width="1" height="1" fill="#855039" /><rect x="7" y="4" width="1" height="1" fill="#8c533a" /><rect x="7" y="5" width="1" height="1" fill="#c06f41" /><rect x="7" y="6" width="1" height="1" fill="#bf6e41" /><rect x="7" y="7" width="1" height="1" fill="#cb7443" /><rect x="7" y="8" width="1" height="1" fill="#c26f42" /><rect x="7" y="9" width="1" height="1" fill="#ed8849" /><rect x="8" y="0" width="1" height="1" fill="#1d2331" /><rect x="8" y="1" width="1" height="1" fill="#000f2f" /><rect x="8" y="2" width="1" height="1" fill="#01002b" /><rect x="8" y="3" width="1" height="1" fill="#001830" /><rect x="8" y="4" width="1" height="1" fill="#01002b" /><rect x="8" y="5" width="1" height="1" fill="#372b32" /><rect x="8" y="6" width="1" height="1" fill="#714537" /><rect x="8" y="7" width="1" height="1" fill="#01002b" /><rect x="8" y="8" width="1" height="1" fill="#372b32" /><rect x="8" y="9" width="1" height="1" fill="#be6e41" /><rect x="9" y="0" width="1" height="1" fill="#001f32" /><rect x="9" y="1" width="1" height="1" fill="#152231" /><rect x="9" y="2" width="1" height="1" fill="#392b32" /><rect x="9" y="3" width="1" height="1" fill="#00062f" /><rect x="9" y="4" width="1" height="1" fill="#714537" /><rect x="9" y="5" width="1" height="1" fill="#f68c4c" /><rect x="9" y="6" width="1" height="1" fill="#ff9a4f" /><rect x="9" y="7" width="1" height="1" fill="#bb6d40" /><rect x="9" y="8" width="1" height="1" fill="#9c5b3c" /><rect x="9" y="9" width="1" height="1" fill="#fe914d" /></g></svg>