<svg width="800" height="1000" version="1.1" xmlns="http://www.w3.org/2000/svg" xmlns:xlink="http://www.w3.org/1999/xlink">
  <defs>
      <linearGradient id="Gradient2" x1="0" x2="1" y1="0" y2="1">
        <stop offset="0%" stop-color="#2d3c96"/>
        <stop offset="100%" stop-color="#d53392"/>
      </linearGradient>
  </defs>
  <rect x="10" y="10" width="780" height="980" fill="url(#Gradient2)" rx="50" ry="50" stroke="#ffd700" stroke-width="20"/>
  <text x="400" y="920" width="780" text-anchor="middle" style="font: bold 200px 'Helvetica Neue'; fill: #ffd700">01647</text>

  <g transform="translate(80 80) scale(64)">
<rect x="0" y="0" width="1" height="1" fill="#E6E326" /><rect x="1" y="0" width="1" height="1" fill="#E4E235" /><rect x="2" y="0" width="1" height="1" fill="#F1F266" /><rect x="3" y="0" width="1" height="1" fill="#B4B558" /><rect x="4" y="0" width="1" height="1" fill="#CECAAD" /><rect x="5" y="0" width="1" height="1" fill="#B8B799" /><rect x="6" y="0" width="1" height="1" fill="#C0C767" /><rect x="7" y="0" width="1" height="1" fill="#DEE655" /><rect x="8" y="0" width="1" height="1" fill="#E1E634" /><rect x="9" y="0" width="1" height="1" fill="#ECE928" /><rect x="0" y="1" width="1" height="1" fill="#EEEA2F" /><rect x="1" y="1" width="1" height="1" fill="#E1DE3B" /><rect x="2" y="1" width="1" height="1" fill="#C7C451" /><rect x="3" y="1" width="1" height="1" fill="#555401" /><rect x="4" y="1" width="1" height="1" fill="#2E3000" /><rect x="5" y="1" width="1" height="1" fill="#404503" /><rect x="6" y="1" width="1" height="1" fill="#474C00" /><rect x="7" y="1" width="1" height="1" fill="#C1C44F" /><rect x="8" y="1" width="1" height="1" fill="#E0E33A" /><rect x="9" y="1" width="1" height="1" fill="#EDEB27" /><rect x="0" y="2" width="1" height="1" fill="#F5F13A" /><rect x="1" y="2" width="1" height="1" fill="#D7D041" /><rect x="2" y="2" width="1" height="1" fill="#453A00" /><rect x="3" y="2" width="1" height="1" fill="#BBB776" /><rect x="4" y="2" width="1" height="1" fill="#D1DF54" /><rect x="5" y="2" width="1" height="1" fill="#C2D24B" /><rect x="6" y="2" width="1" height="1" fill="#B6B77D" /><rect x="7" y="2" width="1" height="1" fill="#4F490B" /><rect x="8" y="2" width="1" height="1" fill="#D7D83F" /><rect x="9" y="2" width="1" height="1" fill="#E8E622" /><rect x="0" y="3" width="1" height="1" fill="#E0DD1E" /><rect x="1" y="3" width="1" height="1" fill="#D7D041" /><rect x="2" y="3" width="1" height="1" fill="#433506" /><rect x="3" y="3" width="1" height="1" fill="#D1CB99" /><rect x="4" y="3" width="1" height="1" fill="#DFEE5D" /><rect x="5" y="3" width="1" height="1" fill="#EBFC6E" /><rect x="6" y="3" width="1" height="1" fill="#D7D5AE" /><rect x="7" y="3" width="1" height="1" fill="#4D441B" /><rect x="8" y="3" width="1" height="1" fill="#D3D33D" /><rect x="9" y="3" width="1" height="1" fill="#E6E519" /><rect x="0" y="4" width="1" height="1" fill="#F2F21E" /><rect x="1" y="4" width="1" height="1" fill="#D9D633" /><rect x="2" y="4" width="1" height="1" fill="#4F4404" /><rect x="3" y="4" width="1" height="1" fill="#C1B992" /><rect x="4" y="4" width="1" height="1" fill="#D9DF87" /><rect x="5" y="4" width="1" height="1" fill="#C0C873" /><rect x="6" y="4" width="1" height="1" fill="#B0AC8F" /><rect x="7" y="4" width="1" height="1" fill="#D2CB95" /><rect x="8" y="4" width="1" height="1" fill="#DADC39" /><rect x="9" y="4" width="1" height="1" fill="#EEEF15" /><rect x="0" y="5" width="1" height="1" fill="#F1F11D" /><rect x="1" y="5" width="1" height="1" fill="#D6D330" /><rect x="2" y="5" width="1" height="1" fill="#3E3300" /><rect x="3" y="5" width="1" height="1" fill="#D9D1AA" /><rect x="4" y="5" width="1" height="1" fill="#CCD17D" /><rect x="5" y="5" width="1" height="1" fill="#434A00" /><rect x="6" y="5" width="1" height="1" fill="#3B371C" /><rect x="7" y="5" width="1" height="1" fill="#3E3701" /><rect x="8" y="5" width="1" height="1" fill="#D8DA37" /><rect x="9" y="5" width="1" height="1" fill="#EEF013" /><rect x="0" y="6" width="1" height="1" fill="#EFEC2F" /><rect x="1" y="6" width="1" height="1" fill="#CCC536" /><rect x="2" y="6" width="1" height="1" fill="#4C3F0A" /><rect x="3" y="6" width="1" height="1" fill="#CFC997" /><rect x="4" y="6" width="1" height="1" fill="#E0ED69" /><rect x="5" y="6" width="1" height="1" fill="#CDDC5D" /><rect x="6" y="6" width="1" height="1" fill="#BCBA94" /><rect x="7" y="6" width="1" height="1" fill="#433A0F" /><rect x="8" y="6" width="1" height="1" fill="#D0D03A" /><rect x="9" y="6" width="1" height="1" fill="#E9E81A" /><rect x="0" y="7" width="1" height="1" fill="#EAE728" /><rect x="1" y="7" width="1" height="1" fill="#DDD743" /><rect x="2" y="7" width="1" height="1" fill="#483D00" /><rect x="3" y="7" width="1" height="1" fill="#BCB780" /><rect x="4" y="7" width="1" height="1" fill="#C8D35D" /><rect x="5" y="7" width="1" height="1" fill="#BBC852" /><rect x="6" y="7" width="1" height="1" fill="#B8B884" /><rect x="7" y="7" width="1" height="1" fill="#534E0C" /><rect x="8" y="7" width="1" height="1" fill="#D2D433" /><rect x="9" y="7" width="1" height="1" fill="#ECEB1D" /><rect x="0" y="8" width="1" height="1" fill="#E9EB0E" /><rect x="1" y="8" width="1" height="1" fill="#E1E02E" /><rect x="2" y="8" width="1" height="1" fill="#C1BA5F" /><rect x="3" y="8" width="1" height="1" fill="#5F5929" /><rect x="4" y="8" width="1" height="1" fill="#38370B" /><rect x="5" y="8" width="1" height="1" fill="#383B06" /><rect x="6" y="8" width="1" height="1" fill="#54580C" /><rect x="7" y="8" width="1" height="1" fill="#BFC34A" /><rect x="8" y="8" width="1" height="1" fill="#E2E929" /><rect x="9" y="8" width="1" height="1" fill="#E9EB0E" /><rect x="0" y="9" width="1" height="1" fill="#EBEF04" /><rect x="1" y="9" width="1" height="1" fill="#E9EA2A" /><rect x="2" y="9" width="1" height="1" fill="#D9D56A" /><rect x="3" y="9" width="1" height="1" fill="#C4BE8C" /><rect x="4" y="9" width="1" height="1" fill="#CCC6B6" /><rect x="5" y="9" width="1" height="1" fill="#CFCEB0" /><rect x="6" y="9" width="1" height="1" fill="#C0C670" /><rect x="7" y="9" width="1" height="1" fill="#DAE251" /><rect x="8" y="9" width="1" height="1" fill="#E2EC1C" /><rect x="9" y="9" width="1" height="1" fill="#E9EC07" />
  </g>
</svg>