<svg width="800" height="1000" xmlns="http://www.w3.org/2000/svg"><defs><linearGradient id="g" x1="0" x2="1" y1="0" y2="1"><stop offset="0%" stop-color="#2d3c96"/><stop offset="100%" stop-color="#d53392"/></linearGradient></defs><rect x="10" y="10" width="780" height="980" fill="url(#g)" rx="50" ry="50" stroke="gold" stroke-width="20"/><text x="400" y="920" width="780" text-anchor="middle" style="font:bold 200px 'Helvetica Neue';fill:gold">01640</text><g transform="translate(80 80) scale(64)"><rect x="0" y="0" width="1" height="1" fill="#062031" /><rect x="0" y="1" width="1" height="1" fill="#062031" /><rect x="0" y="2" width="1" height="1" fill="#052031" /><rect x="0" y="3" width="1" height="1" fill="#092031" /><rect x="0" y="4" width="1" height="1" fill="#192331" /><rect x="0" y="5" width="1" height="1" fill="#1e2431" /><rect x="0" y="6" width="1" height="1" fill="#132231" /><rect x="0" y="7" width="1" height="1" fill="#001931" /><rect x="0" y="8" width="1" height="1" fill="#01002d" /><rect x="0" y="9" width="1" height="1" fill="#00042f" /><rect x="1" y="0" width="1" height="1" fill="#082031" /><rect x="1" y="1" width="1" height="1" fill="#001f30" /><rect x="1" y="2" width="1" height="1" fill="#122131" /><rect x="1" y="3" width="1" height="1" fill="#1e2431" /><rect x="1" y="4" width="1" height="1" fill="#001b31" /><rect x="1" y="5" width="1" height="1" fill="#01002d" /><rect x="1" y="6" width="1" height="1" fill="#01002c" /><rect x="1" y="7" width="1" height="1" fill="#001e31" /><rect x="1" y="8" width="1" height="1" fill="#865039" /><rect x="1" y="9" width="1" height="1" fill="#d77c46" /><rect x="2" y="0" width="1" height="1" fill="#001f32" /><rect x="2" y="1" width="1" height="1" fill="#102131" /><rect x="2" y="2" width="1" height="1" fill="#001d31" /><rect x="2" y="3" width="1" height="1" fill="#01002d" /><rect x="2" y="4" width="1" height="1" fill="#000f2f" /><rect x="2" y="5" width="1" height="1" fill="#704437" /><rect x="2" y="6" width="1" height="1" fill="#b46940" /><rect x="2" y="7" width="1" height="1" fill="#e68448" /><rect x="2" y="8" width="1" height="1" fill="#ff954e" /><rect x="2" y="9" width="1" height="1" fill="#ff9c50" /><rect x="3" y="0" width="1" height="1" fill="#122131" /><rect x="3" y="1" width="1" height="1" fill="#071f30" /><rect x="3" y="2" width="1" height="1" fill="#132231" /><rect x="3" y="3" width="1" height="1" fill="#87513a" /><rect x="3" y="4" width="1" height="1" fill="#cf7644" /><rect x="3" y="5" width="1" height="1" fill="#f0894a" /><rect x="3" y="6" width="1" height="1" fill="#ff934d" /><rect x="3" y="7" width="1" height="1" fill="#ff914d" /><rect x="3" y="8" width="1" height="1" fill="#ad643f" /><rect x="3" y="9" width="1" height="1" fill="#e98648" /><rect x="4" y="0" width="1" height="1" fill="#382b32" /><rect x="4" y="1" width="1" height="1" fill="#01002b" /><rect x="4" y="2" width="1" height="1" fill="#895239" /><rect x="4" y="3" width="1" height="1" fill="#ff954e" /><rect x="4" y="4" width="1" height="1" fill="#ff974f" /><rect x="4" y="5" width="1" height="1" fill="#a7613e" /><rect x="4" y="6" width="1" height="1" fill="#ab643f" /><rect x="4" y="7" width="1" height="1" fill="#e88549" /><rect x="4" y="8" width="1" height="1" fill="#010027" /><rect x="4" y="9" width="1" height="1" fill="#423033" /><rect x="5" y="0" width="1" height="1" fill="#332b32" /><rect x="5" y="1" width="1" height="1" fill="#01002c" /><rect x="5" y="2" width="1" height="1" fill="#88513a" /><rect x="5" y="3" width="1" height="1" fill="#f38a4b" /><rect x="5" y="4" width="1" height="1" fill="#ff934d" /><rect x="5" y="5" width="1" height="1" fill="#ee894a" /><rect x="5" y="6" width="1" height="1" fill="#ed8849" /><rect x="5" y="7" width="1" height="1" fill="#f18b4a" /><rect x="5" y="8" width="1" height="1" fill="#87513a" /><rect x="5" y="9" width="1" height="1" fill="#c47141" /><rect x="6" y="0" width="1" height="1" fill="#082031" /><rect x="6" y="1" width="1" height="1" fill="#132131" /><rect x="6" y="2" width="1" height="1" fill="#001f30" /><rect x="6" y="3" width="1" height="1" fill="#5e3c34" /><rect x="6" y="4" width="1" height="1" fill="#a6613d" /><rect x="6" y="5" width="1" height="1" fill="#e38248" /><rect x="6" y="6" width="1" height="1" fill="#ff944d" /><rect x="6" y="7" width="1" height="1" fill="#ff9950" /><rect x="6" y="8" width="1" height="1" fill="#ff964e" /><rect x="6" y="9" width="1" height="1" fill="#ff9950" /><rect x="7" y="0" width="1" height="1" fill="#021f32" /><rect x="7" y="1" width="1" height="1" fill="#0c2030" /><rect x="7" y="2" width="1" height="1" fill="#001d31" /><rect x="7" y="3" width="1" height="1" fill="#01002d" /><rect x="7" y="4" width="1" height="1" fill="#01002d" /><rect x="7" y="5" width="1" height="1" fill="#00022e" /><rect x="7" y="6" width="1" height="1" fill="#412f33" /><rect x="7" y="7" width="1" height="1" fill="#995a3b" /><rect x="7" y="8" width="1" height="1" fill="#d77b45" /><rect x="7" y="9" width="1" height="1" fill="#ff944d" /><rect x="8" y="0" width="1" height="1" fill="#092031" /><rect x="8" y="1" width="1" height="1" fill="#021f30" /><rect x="8" y="2" width="1" height="1" fill="#082031" /><rect x="8" y="3" width="1" height="1" fill="#362a32" /><rect x="8" y="4" width="1" height="1" fill="#001930" /><rect x="8" y="5" width="1" height="1" fill="#001530" /><rect x="8" y="6" width="1" height="1" fill="#774837" /><rect x="8" y="7" width="1" height="1" fill="#8f533a" /><rect x="8" y="8" width="1" height="1" fill="#804d38" /><rect x="8" y="9" width="1" height="1" fill="#834e39" /><rect x="9" y="0" width="1" height="1" fill="#052031" /><rect x="9" y="1" width="1" height="1" fill="#021f30" /><rect x="9" y="2" width="1" height="1" fill="#2e2932" /><rect x="9" y="3" width="1" height="1" fill="#001a30" /><rect x="9" y="4" width="1" height="1" fill="#3a2c32" /><rect x="9" y="5" width="1" height="1" fill="#e48348" /><rect x="9" y="6" width="1" height="1" fill="#ff9a4f" /><rect x="9" y="7" width="1" height="1" fill="#ff9950" /><rect x="9" y="8" width="1" height="1" fill="#ff964e" /><rect x="9" y="9" width="1" height="1" fill="#d87c46" /></g></svg>