<svg width="800" height="1000" xmlns="http://www.w3.org/2000/svg"><defs><linearGradient id="g" x1="0" x2="1" y1="0" y2="1"><stop offset="0%" stop-color="#2d3c96"/><stop offset="100%" stop-color="#d53392"/></linearGradient></defs><rect x="10" y="10" width="780" height="980" fill="url(#g)" rx="50" ry="50" stroke="gold" stroke-width="20"/><text x="400" y="920" width="780" text-anchor="middle" style="font:bold 200px 'Helvetica Neue';fill:gold">01647</text><g transform="translate(80 80) scale(64)"><rect x="0" y="0" width="1" height="1" fill="#e6e326" /><rect x="0" y="1" width="1" height="1" fill="#eeea2f" /><rect x="0" y="2" width="1" height="1" fill="#f5f13a" /><rect x="0" y="3" width="1" height="1" fill="#e0dd1e" /><rect x="0" y="4" width="1" height="1" fill="#f2f21e" /><rect x="0" y="5" width="1" height="1" fill="#f1f11d" /><rect x="0" y="6" width="1" height="1" fill="#efec2f" /><rect x="0" y="7" width="1" height="1" fill="#eae728" /><rect x="0" y="8" width="1" height="1" fill="#e9eb0e" /><rect x="0" y="9" width="1" height="1" fill="#ebef04" /><rect x="1" y="0" width="1" height="1" fill="#e4e235" /><rect x="1" y="1" width="1" height="1" fill="#e1de3b" /><rect x="1" y="2" width="1" height="1" fill="#d7d041" /><rect x="1" y="3" width="1" height="1" fill="#d7d041" /><rect x="1" y="4" width="1" height="1" fill="#d9d633" /><rect x="1" y="5" width="1" height="1" fill="#d6d330" /><rect x="1" y="6" width="1" height="1" fill="#ccc536" /><rect x="1" y="7" width="1" height="1" fill="#ddd743" /><rect x="1" y="8" width="1" height="1" fill="#e1e02e" /><rect x="1" y="9" width="1" height="1" fill="#e9ea2a" /><rect x="2" y="0" width="1" height="1" fill="#f1f266" /><rect x="2" y="1" width="1" height="1" fill="#c7c451" /><rect x="2" y="2" width="1" height="1" fill="#453a00" /><rect x="2" y="3" width="1" height="1" fill="#433506" /><rect x="2" y="4" width="1" height="1" fill="#4f4404" /><rect x="2" y="5" width="1" height="1" fill="#3e3300" /><rect x="2" y="6" width="1" height="1" fill="#4c3f0a" /><rect x="2" y="7" width="1" height="1" fill="#483d00" /><rect x="2" y="8" width="1" height="1" fill="#c1ba5f" /><rect x="2" y="9" width="1" height="1" fill="#d9d56a" /><rect x="3" y="0" width="1" height="1" fill="#b4b558" /><rect x="3" y="1" width="1" height="1" fill="#555401" /><rect x="3" y="2" width="1" height="1" fill="#bbb776" /><rect x="3" y="3" width="1" height="1" fill="#d1cb99" /><rect x="3" y="4" width="1" height="1" fill="#c1b992" /><rect x="3" y="5" width="1" height="1" fill="#d9d1aa" /><rect x="3" y="6" width="1" height="1" fill="#cfc997" /><rect x="3" y="7" width="1" height="1" fill="#bcb780" /><rect x="3" y="8" width="1" height="1" fill="#5f5929" /><rect x="3" y="9" width="1" height="1" fill="#c4be8c" /><rect x="4" y="0" width="1" height="1" fill="#cecaad" /><rect x="4" y="1" width="1" height="1" fill="#2e3000" /><rect x="4" y="2" width="1" height="1" fill="#d1df54" /><rect x="4" y="3" width="1" height="1" fill="#dfee5d" /><rect x="4" y="4" width="1" height="1" fill="#d9df87" /><rect x="4" y="5" width="1" height="1" fill="#ccd17d" /><rect x="4" y="6" width="1" height="1" fill="#e0ed69" /><rect x="4" y="7" width="1" height="1" fill="#c8d35d" /><rect x="4" y="8" width="1" height="1" fill="#38370b" /><rect x="4" y="9" width="1" height="1" fill="#ccc6b6" /><rect x="5" y="0" width="1" height="1" fill="#b8b799" /><rect x="5" y="1" width="1" height="1" fill="#404503" /><rect x="5" y="2" width="1" height="1" fill="#c2d24b" /><rect x="5" y="3" width="1" height="1" fill="#ebfc6e" /><rect x="5" y="4" width="1" height="1" fill="#c0c873" /><rect x="5" y="5" width="1" height="1" fill="#434a00" /><rect x="5" y="6" width="1" height="1" fill="#cddc5d" /><rect x="5" y="7" width="1" height="1" fill="#bbc852" /><rect x="5" y="8" width="1" height="1" fill="#383b06" /><rect x="5" y="9" width="1" height="1" fill="#cfceb0" /><rect x="6" y="0" width="1" height="1" fill="#c0c767" /><rect x="6" y="1" width="1" height="1" fill="#474c00" /><rect x="6" y="2" width="1" height="1" fill="#b6b77d" /><rect x="6" y="3" width="1" height="1" fill="#d7d5ae" /><rect x="6" y="4" width="1" height="1" fill="#b0ac8f" /><rect x="6" y="5" width="1" height="1" fill="#3b371c" /><rect x="6" y="6" width="1" height="1" fill="#bcba94" /><rect x="6" y="7" width="1" height="1" fill="#b8b884" /><rect x="6" y="8" width="1" height="1" fill="#54580c" /><rect x="6" y="9" width="1" height="1" fill="#c0c670" /><rect x="7" y="0" width="1" height="1" fill="#dee655" /><rect x="7" y="1" width="1" height="1" fill="#c1c44f" /><rect x="7" y="2" width="1" height="1" fill="#4f490b" /><rect x="7" y="3" width="1" height="1" fill="#4d441b" /><rect x="7" y="4" width="1" height="1" fill="#d2cb95" /><rect x="7" y="5" width="1" height="1" fill="#3e3701" /><rect x="7" y="6" width="1" height="1" fill="#433a0f" /><rect x="7" y="7" width="1" height="1" fill="#534e0c" /><rect x="7" y="8" width="1" height="1" fill="#bfc34a" /><rect x="7" y="9" width="1" height="1" fill="#dae251" /><rect x="8" y="0" width="1" height="1" fill="#e1e634" /><rect x="8" y="1" width="1" height="1" fill="#e0e33a" /><rect x="8" y="2" width="1" height="1" fill="#d7d83f" /><rect x="8" y="3" width="1" height="1" fill="#d3d33d" /><rect x="8" y="4" width="1" height="1" fill="#dadc39" /><rect x="8" y="5" width="1" height="1" fill="#d8da37" /><rect x="8" y="6" width="1" height="1" fill="#d0d03a" /><rect x="8" y="7" width="1" height="1" fill="#d2d433" /><rect x="8" y="8" width="1" height="1" fill="#e2e929" /><rect x="8" y="9" width="1" height="1" fill="#e2ec1c" /><rect x="9" y="0" width="1" height="1" fill="#ece928" /><rect x="9" y="1" width="1" height="1" fill="#edeb27" /><rect x="9" y="2" width="1" height="1" fill="#e8e622" /><rect x="9" y="3" width="1" height="1" fill="#e6e519" /><rect x="9" y="4" width="1" height="1" fill="#eeef15" /><rect x="9" y="5" width="1" height="1" fill="#eef013" /><rect x="9" y="6" width="1" height="1" fill="#e9e81a" /><rect x="9" y="7" width="1" height="1" fill="#eceb1d" /><rect x="9" y="8" width="1" height="1" fill="#e9eb0e" /><rect x="9" y="9" width="1" height="1" fill="#e9ec07" /></g></svg>