<svg width="800" height="1000" version="1.1" xmlns="http://www.w3.org/2000/svg" xmlns:xlink="http://www.w3.org/1999/xlink">
  <defs>
      <linearGradient id="Gradient2" x1="0" x2="1" y1="0" y2="1">
        <stop offset="0%" stop-color="#2d3c96"/>
        <stop offset="100%" stop-color="#d53392"/>
      </linearGradient>
  </defs>
  <rect x="10" y="10" width="780" height="980" fill="url(#Gradient2)" rx="50" ry="50" stroke="#ffd700" stroke-width="20"/>
  <text x="400" y="920" width="780" text-anchor="middle" style="font: bold 200px 'Helvetica Neue'; fill: #ffd700">01641</text>

  <g transform="translate(80 80) scale(64)">
<rect x="0" y="0" width="1" height="1" fill="#0f2131" />
,<rect x="0" y="1" width="1" height="1" fill="#001d31" />
,<rect x="0" y="2" width="1" height="1" fill="#001530" />
,<rect x="0" y="3" width="1" height="1" fill="#010026" />
,<rect x="0" y="4" width="1" height="1" fill="#bb6d40" />
,<rect x="0" y="5" width="1" height="1" fill="#fb8f4c" />
,<rect x="0" y="6" width="1" height="1" fill="#b66a40" />
,<rect x="0" y="7" width="1" height="1" fill="#a35f3e" />
,<rect x="0" y="8" width="1" height="1" fill="#d47a45" />
,<rect x="0" y="9" width="1" height="1" fill="#ff994f" />
,<rect x="1" y="0" width="1" height="1" fill="#001b31" />
,<rect x="1" y="1" width="1" height="1" fill="#032030" />
,<rect x="1" y="2" width="1" height="1" fill="#ab643f" />
,<rect x="1" y="3" width="1" height="1" fill="#092131" />
,<rect x="1" y="4" width="1" height="1" fill="#d47944" />
,<rect x="1" y="5" width="1" height="1" fill="#df8047" />
,<rect x="1" y="6" width="1" height="1" fill="#01002b" />
,<rect x="1" y="7" width="1" height="1" fill="#010025" />
,<rect x="1" y="8" width="1" height="1" fill="#3f2f33" />
,<rect x="1" y="9" width="1" height="1" fill="#fb8f4c" />
,<rect x="2" y="0" width="1" height="1" fill="#01002e" />
,<rect x="2" y="1" width="1" height="1" fill="#583a35" />
,<rect x="2" y="2" width="1" height="1" fill="#ff924c" />
,<rect x="2" y="3" width="1" height="1" fill="#fc904c" />
,<rect x="2" y="4" width="1" height="1" fill="#f88e4b" />
,<rect x="2" y="5" width="1" height="1" fill="#ff934d" />
,<rect x="2" y="6" width="1" height="1" fill="#f18b4a" />
,<rect x="2" y="7" width="1" height="1" fill="#ed8849" />
,<rect x="2" y="8" width="1" height="1" fill="#f48b4b" />
,<rect x="2" y="9" width="1" height="1" fill="#fe914d" />
,<rect x="3" y="0" width="1" height="1" fill="#01002e" />
,<rect x="3" y="1" width="1" height="1" fill="#6a4136" />
,<rect x="3" y="2" width="1" height="1" fill="#e08147" />
,<rect x="3" y="3" width="1" height="1" fill="#f58b4a" />
,<rect x="3" y="4" width="1" height="1" fill="#e88549" />
,<rect x="3" y="5" width="1" height="1" fill="#e58348" />
,<rect x="3" y="6" width="1" height="1" fill="#ee894a" />
,<rect x="3" y="7" width="1" height="1" fill="#f38a4b" />
,<rect x="3" y="8" width="1" height="1" fill="#f38a4b" />
,<rect x="3" y="9" width="1" height="1" fill="#ff964e" />
,<rect x="4" y="0" width="1" height="1" fill="#0b2031" />
,<rect x="4" y="1" width="1" height="1" fill="#001d31" />
,<rect x="4" y="2" width="1" height="1" fill="#352b32" />
,<rect x="4" y="3" width="1" height="1" fill="#00022e" />
,<rect x="4" y="4" width="1" height="1" fill="#8a533a" />
,<rect x="4" y="5" width="1" height="1" fill="#94573c" />
,<rect x="4" y="6" width="1" height="1" fill="#001d31" />
,<rect x="4" y="7" width="1" height="1" fill="#01002b" />
,<rect x="4" y="8" width="1" height="1" fill="#01002e" />
,<rect x="4" y="9" width="1" height="1" fill="#a15e3d" />
,<rect x="5" y="0" width="1" height="1" fill="#092031" />
,<rect x="5" y="1" width="1" height="1" fill="#001d31" />
,<rect x="5" y="2" width="1" height="1" fill="#2f2932" />
,<rect x="5" y="3" width="1" height="1" fill="#010027" />
,<rect x="5" y="4" width="1" height="1" fill="#c57143" />
,<rect x="5" y="5" width="1" height="1" fill="#ff9850" />
,<rect x="5" y="6" width="1" height="1" fill="#ea8648" />
,<rect x="5" y="7" width="1" height="1" fill="#b66940" />
,<rect x="5" y="8" width="1" height="1" fill="#704436" />
,<rect x="5" y="9" width="1" height="1" fill="#01002a" />
,<rect x="6" y="0" width="1" height="1" fill="#052031" />
,<rect x="6" y="1" width="1" height="1" fill="#021f30" />
,<rect x="6" y="2" width="1" height="1" fill="#402e33" />
,<rect x="6" y="3" width="1" height="1" fill="#01002c" />
,<rect x="6" y="4" width="1" height="1" fill="#bb6d40" />
,<rect x="6" y="5" width="1" height="1" fill="#f2894a" />
,<rect x="6" y="6" width="1" height="1" fill="#f78d4b" />
,<rect x="6" y="7" width="1" height="1" fill="#ff944d" />
,<rect x="6" y="8" width="1" height="1" fill="#f68c4c" />
,<rect x="6" y="9" width="1" height="1" fill="#df7f46" />
,<rect x="7" y="0" width="1" height="1" fill="#082031" />
,<rect x="7" y="1" width="1" height="1" fill="#001f30" />
,<rect x="7" y="2" width="1" height="1" fill="#1f2431" />
,<rect x="7" y="3" width="1" height="1" fill="#01002e" />
,<rect x="7" y="4" width="1" height="1" fill="#7d4b38" />
,<rect x="7" y="5" width="1" height="1" fill="#503634" />
,<rect x="7" y="6" width="1" height="1" fill="#01002d" />
,<rect x="7" y="7" width="1" height="1" fill="#b06640" />
,<rect x="7" y="8" width="1" height="1" fill="#ff944e" />
,<rect x="7" y="9" width="1" height="1" fill="#ff9e51" />
,<rect x="8" y="0" width="1" height="1" fill="#082031" />
,<rect x="8" y="1" width="1" height="1" fill="#001e31" />
,<rect x="8" y="2" width="1" height="1" fill="#342a33" />
,<rect x="8" y="3" width="1" height="1" fill="#01002b" />
,<rect x="8" y="4" width="1" height="1" fill="#b4683f" />
,<rect x="8" y="5" width="1" height="1" fill="#dc7f47" />
,<rect x="8" y="6" width="1" height="1" fill="#e08147" />
,<rect x="8" y="7" width="1" height="1" fill="#f48b4b" />
,<rect x="8" y="8" width="1" height="1" fill="#df8147" />
,<rect x="8" y="9" width="1" height="1" fill="#a05d3d" />
,<rect x="9" y="0" width="1" height="1" fill="#082031" />
,<rect x="9" y="1" width="1" height="1" fill="#001e31" />
,<rect x="9" y="2" width="1" height="1" fill="#392b32" />
,<rect x="9" y="3" width="1" height="1" fill="#010029" />
,<rect x="9" y="4" width="1" height="1" fill="#c17042" />
,<rect x="9" y="5" width="1" height="1" fill="#ff934d" />
,<rect x="9" y="6" width="1" height="1" fill="#cd7644" />
,<rect x="9" y="7" width="1" height="1" fill="#784938" />
,<rect x="9" y="8" width="1" height="1" fill="#01002c" />
,<rect x="9" y="9" width="1" height="1" fill="#01002c" />

  </g>
</svg>