<svg width="800" height="1000" version="1.1" xmlns="http://www.w3.org/2000/svg" xmlns:xlink="http://www.w3.org/1999/xlink">
  <defs>
      <linearGradient id="Gradient2" x1="0" x2="1" y1="0" y2="1">
        <stop offset="0%" stop-color="#2d3c96"/>
        <stop offset="100%" stop-color="#d53392"/>
      </linearGradient>
  </defs>
  <rect x="10" y="10" width="780" height="980" fill="url(#Gradient2)" rx="50" ry="50" stroke="#ffd700" stroke-width="20"/>
  <text x="400" y="920" width="780" text-anchor="middle" style="font: bold 200px 'Helvetica Neue'; fill: #ffd700">01644</text>

  <g transform="translate(80 80) scale(64)">
<rect x="0" y="0" width="1" height="1" fill="#082031" /><rect x="1" y="0" width="1" height="1" fill="#082031" /><rect x="2" y="0" width="1" height="1" fill="#082031" /><rect x="3" y="0" width="1" height="1" fill="#072031" /><rect x="4" y="0" width="1" height="1" fill="#062030" /><rect x="5" y="0" width="1" height="1" fill="#072030" /><rect x="6" y="0" width="1" height="1" fill="#072031" /><rect x="7" y="0" width="1" height="1" fill="#062031" /><rect x="8" y="0" width="1" height="1" fill="#082031" /><rect x="9" y="0" width="1" height="1" fill="#062031" /><rect x="0" y="1" width="1" height="1" fill="#001E31" /><rect x="1" y="1" width="1" height="1" fill="#001E31" /><rect x="2" y="1" width="1" height="1" fill="#001E31" /><rect x="3" y="1" width="1" height="1" fill="#061F30" /><rect x="4" y="1" width="1" height="1" fill="#042030" /><rect x="5" y="1" width="1" height="1" fill="#001E30" /><rect x="6" y="1" width="1" height="1" fill="#001E31" /><rect x="7" y="1" width="1" height="1" fill="#001F30" /><rect x="8" y="1" width="1" height="1" fill="#001E31" /><rect x="9" y="1" width="1" height="1" fill="#041F30" /><rect x="0" y="2" width="1" height="1" fill="#3C2D32" /><rect x="1" y="2" width="1" height="1" fill="#3A2B32" /><rect x="2" y="2" width="1" height="1" fill="#362B31" /><rect x="3" y="2" width="1" height="1" fill="#182231" /><rect x="4" y="2" width="1" height="1" fill="#0C2031" /><rect x="5" y="2" width="1" height="1" fill="#2D2831" /><rect x="6" y="2" width="1" height="1" fill="#3A2C32" /><rect x="7" y="2" width="1" height="1" fill="#372B32" /><rect x="8" y="2" width="1" height="1" fill="#322A32" /><rect x="9" y="2" width="1" height="1" fill="#0E2131" /><rect x="0" y="3" width="1" height="1" fill="#010028" /><rect x="1" y="3" width="1" height="1" fill="#010027" /><rect x="2" y="3" width="1" height="1" fill="#00002A" /><rect x="3" y="3" width="1" height="1" fill="#191D30" /><rect x="4" y="3" width="1" height="1" fill="#132232" /><rect x="5" y="3" width="1" height="1" fill="#00112E" /><rect x="6" y="3" width="1" height="1" fill="#010027" /><rect x="7" y="3" width="1" height="1" fill="#010028" /><rect x="8" y="3" width="1" height="1" fill="#03062D" /><rect x="9" y="3" width="1" height="1" fill="#132231" /><rect x="0" y="4" width="1" height="1" fill="#CE7744" /><rect x="1" y="4" width="1" height="1" fill="#D97D45" /><rect x="2" y="4" width="1" height="1" fill="#A8623E" /><rect x="3" y="4" width="1" height="1" fill="#4E2D33" /><rect x="4" y="4" width="1" height="1" fill="#00002F" /><rect x="5" y="4" width="1" height="1" fill="#834F39" /><rect x="6" y="4" width="1" height="1" fill="#D17944" /><rect x="7" y="4" width="1" height="1" fill="#D67B45" /><rect x="8" y="4" width="1" height="1" fill="#90543B" /><rect x="9" y="4" width="1" height="1" fill="#000930" /><rect x="0" y="5" width="1" height="1" fill="#DC7F47" /><rect x="1" y="5" width="1" height="1" fill="#DE8047" /><rect x="2" y="5" width="1" height="1" fill="#F98E4C" /><rect x="3" y="5" width="1" height="1" fill="#874A38" /><rect x="4" y="5" width="1" height="1" fill="#99573B" /><rect x="5" y="5" width="1" height="1" fill="#EF884A" /><rect x="6" y="5" width="1" height="1" fill="#EF8849" /><rect x="7" y="5" width="1" height="1" fill="#DE7F47" /><rect x="8" y="5" width="1" height="1" fill="#F78D4C" /><rect x="9" y="5" width="1" height="1" fill="#9B5B3C" /><rect x="0" y="6" width="1" height="1" fill="#E78548" /><rect x="1" y="6" width="1" height="1" fill="#9B5B3C" /><rect x="2" y="6" width="1" height="1" fill="#7A4A38" /><rect x="3" y="6" width="1" height="1" fill="#503434" /><rect x="4" y="6" width="1" height="1" fill="#D27C45" /><rect x="5" y="6" width="1" height="1" fill="#F48F4C" /><rect x="6" y="6" width="1" height="1" fill="#B66940" /><rect x="7" y="6" width="1" height="1" fill="#B46C41" /><rect x="8" y="6" width="1" height="1" fill="#FF9E51" /><rect x="9" y="6" width="1" height="1" fill="#E38248" /><rect x="0" y="7" width="1" height="1" fill="#FF974F" /><rect x="1" y="7" width="1" height="1" fill="#FF984F" /><rect x="2" y="7" width="1" height="1" fill="#C47242" /><rect x="3" y="7" width="1" height="1" fill="#7C4B38" /><rect x="4" y="7" width="1" height="1" fill="#D47C45" /><rect x="5" y="7" width="1" height="1" fill="#FF944E" /><rect x="6" y="7" width="1" height="1" fill="#EE884A" /><rect x="7" y="7" width="1" height="1" fill="#DC7F46" /><rect x="8" y="7" width="1" height="1" fill="#C67243" /><rect x="9" y="7" width="1" height="1" fill="#95573B" /><rect x="0" y="8" width="1" height="1" fill="#7E4B38" /><rect x="1" y="8" width="1" height="1" fill="#E58348" /><rect x="2" y="8" width="1" height="1" fill="#FF964E" /><rect x="3" y="8" width="1" height="1" fill="#AE673F" /><rect x="4" y="8" width="1" height="1" fill="#D07845" /><rect x="5" y="8" width="1" height="1" fill="#FF944E" /><rect x="6" y="8" width="1" height="1" fill="#CD7643" /><rect x="7" y="8" width="1" height="1" fill="#4F3534" /><rect x="8" y="8" width="1" height="1" fill="#6E4336" /><rect x="9" y="8" width="1" height="1" fill="#603D35" /><rect x="0" y="9" width="1" height="1" fill="#EA8749" /><rect x="1" y="9" width="1" height="1" fill="#FB8F4C" /><rect x="2" y="9" width="1" height="1" fill="#EE894A" /><rect x="3" y="9" width="1" height="1" fill="#784335" /><rect x="4" y="9" width="1" height="1" fill="#874B38" /><rect x="5" y="9" width="1" height="1" fill="#E6874A" /><rect x="6" y="9" width="1" height="1" fill="#FF984F" /><rect x="7" y="9" width="1" height="1" fill="#FF944D" /><rect x="8" y="9" width="1" height="1" fill="#F78F4B" /><rect x="9" y="9" width="1" height="1" fill="#A7613D" />
  </g>
</svg>