<svg width="800" height="1000" version="1.1" xmlns="http://www.w3.org/2000/svg" xmlns:xlink="http://www.w3.org/1999/xlink">
  <defs>
      <linearGradient id="Gradient2" x1="0" x2="1" y1="0" y2="1">
        <stop offset="0%" stop-color="#2d3c96"/>
        <stop offset="100%" stop-color="#d53392"/>
      </linearGradient>
  </defs>
  <rect x="10" y="10" width="780" height="980" fill="url(#Gradient2)" rx="50" ry="50" stroke="#ffd700" stroke-width="20"/>
  <text x="400" y="920" width="780" text-anchor="middle" style="font: bold 200px 'Helvetica Neue'; fill: #ffd700">01661</text>

  <g transform="translate(80 80) scale(64)">
<rect x="0" y="0" width="1" height="1" fill="#DFEBF7" /><rect x="1" y="0" width="1" height="1" fill="#E1ECF8" /><rect x="2" y="0" width="1" height="1" fill="#E2EDF8" /><rect x="3" y="0" width="1" height="1" fill="#F0FAFF" /><rect x="4" y="0" width="1" height="1" fill="#7B848D" /><rect x="5" y="0" width="1" height="1" fill="#404951" /><rect x="6" y="0" width="1" height="1" fill="#F8FFFF" /><rect x="7" y="0" width="1" height="1" fill="#ECF5FC" /><rect x="8" y="0" width="1" height="1" fill="#EAF1F9" /><rect x="9" y="0" width="1" height="1" fill="#EFF6FE" /><rect x="0" y="1" width="1" height="1" fill="#6A7885" /><rect x="1" y="1" width="1" height="1" fill="#182532" /><rect x="2" y="1" width="1" height="1" fill="#1F2B37" /><rect x="3" y="1" width="1" height="1" fill="#BCC7D2" /><rect x="4" y="1" width="1" height="1" fill="#E6F0FA" /><rect x="5" y="1" width="1" height="1" fill="#4F5963" /><rect x="6" y="1" width="1" height="1" fill="#EBF5FE" /><rect x="7" y="1" width="1" height="1" fill="#606A72" /><rect x="8" y="1" width="1" height="1" fill="#1C252D" /><rect x="9" y="1" width="1" height="1" fill="#242D35" /><rect x="0" y="2" width="1" height="1" fill="#4E5E6D" /><rect x="1" y="2" width="1" height="1" fill="#142433" /><rect x="2" y="2" width="1" height="1" fill="#000E1C" /><rect x="3" y="2" width="1" height="1" fill="#818F9C" /><rect x="4" y="2" width="1" height="1" fill="#ECF9FF" /><rect x="5" y="2" width="1" height="1" fill="#47535F" /><rect x="6" y="2" width="1" height="1" fill="#F5FFFF" /><rect x="7" y="2" width="1" height="1" fill="#3B4852" /><rect x="8" y="2" width="1" height="1" fill="#15222C" /><rect x="9" y="2" width="1" height="1" fill="#18252F" /><rect x="0" y="3" width="1" height="1" fill="#4D5D6C" /><rect x="1" y="3" width="1" height="1" fill="#081827" /><rect x="2" y="3" width="1" height="1" fill="#0A1927" /><rect x="3" y="3" width="1" height="1" fill="#84929F" /><rect x="4" y="3" width="1" height="1" fill="#F4FFFF" /><rect x="5" y="3" width="1" height="1" fill="#5E6B76" /><rect x="6" y="3" width="1" height="1" fill="#F5FFFF" /><rect x="7" y="3" width="1" height="1" fill="#3D4A54" /><rect x="8" y="3" width="1" height="1" fill="#0A1721" /><rect x="9" y="3" width="1" height="1" fill="#06131D" /><rect x="0" y="4" width="1" height="1" fill="#8E9CA9" /><rect x="1" y="4" width="1" height="1" fill="#4D5A67" /><rect x="2" y="4" width="1" height="1" fill="#67737F" /><rect x="3" y="4" width="1" height="1" fill="#D8E3EE" /><rect x="4" y="4" width="1" height="1" fill="#EDF8FF" /><rect x="5" y="4" width="1" height="1" fill="#4D5862" /><rect x="6" y="4" width="1" height="1" fill="#F4FEFF" /><rect x="7" y="4" width="1" height="1" fill="#A8B2BA" /><rect x="8" y="4" width="1" height="1" fill="#8F99A1" /><rect x="9" y="4" width="1" height="1" fill="#8A949C" /><rect x="0" y="5" width="1" height="1" fill="#F0FDFF" /><rect x="1" y="5" width="1" height="1" fill="#EFFBFF" /><rect x="2" y="5" width="1" height="1" fill="#F5FFFF" /><rect x="3" y="5" width="1" height="1" fill="#F3FEFF" /><rect x="4" y="5" width="1" height="1" fill="#C8D3DD" /><rect x="5" y="5" width="1" height="1" fill="#3A454F" /><rect x="6" y="5" width="1" height="1" fill="#F6FFFF" /><rect x="7" y="5" width="1" height="1" fill="#EFF9FF" /><rect x="8" y="5" width="1" height="1" fill="#F7FFFF" /><rect x="9" y="5" width="1" height="1" fill="#F4FEFF" /><rect x="0" y="6" width="1" height="1" fill="#EDFCFF" /><rect x="1" y="6" width="1" height="1" fill="#EBFAFF" /><rect x="2" y="6" width="1" height="1" fill="#F0FFFF" /><rect x="3" y="6" width="1" height="1" fill="#DFEEFA" /><rect x="4" y="6" width="1" height="1" fill="#404F5B" /><rect x="5" y="6" width="1" height="1" fill="#42505B" /><rect x="6" y="6" width="1" height="1" fill="#F0FEFF" /><rect x="7" y="6" width="1" height="1" fill="#F5FFFF" /><rect x="8" y="6" width="1" height="1" fill="#EFFCFF" /><rect x="9" y="6" width="1" height="1" fill="#EEFBFF" /><rect x="0" y="7" width="1" height="1" fill="#3C5063" /><rect x="1" y="7" width="1" height="1" fill="#374B5D" /><rect x="2" y="7" width="1" height="1" fill="#3B4F61" /><rect x="3" y="7" width="1" height="1" fill="#2D4152" /><rect x="4" y="7" width="1" height="1" fill="#15293A" /><rect x="5" y="7" width="1" height="1" fill="#213545" /><rect x="6" y="7" width="1" height="1" fill="#364A59" /><rect x="7" y="7" width="1" height="1" fill="#354857" /><rect x="8" y="7" width="1" height="1" fill="#394C5B" /><rect x="9" y="7" width="1" height="1" fill="#3E5160" /><rect x="0" y="8" width="1" height="1" fill="#092741" /><rect x="1" y="8" width="1" height="1" fill="#07253F" /><rect x="2" y="8" width="1" height="1" fill="#0F2D47" /><rect x="3" y="8" width="1" height="1" fill="#03213B" /><rect x="4" y="8" width="1" height="1" fill="#0F2D46" /><rect x="5" y="8" width="1" height="1" fill="#112F47" /><rect x="6" y="8" width="1" height="1" fill="#0C2B41" /><rect x="7" y="8" width="1" height="1" fill="#07253C" /><rect x="8" y="8" width="1" height="1" fill="#0B283F" /><rect x="9" y="8" width="1" height="1" fill="#032037" /><rect x="0" y="9" width="1" height="1" fill="#274A68" /><rect x="1" y="9" width="1" height="1" fill="#224563" /><rect x="2" y="9" width="1" height="1" fill="#2C4F6D" /><rect x="3" y="9" width="1" height="1" fill="#1F4260" /><rect x="4" y="9" width="1" height="1" fill="#264966" /><rect x="5" y="9" width="1" height="1" fill="#264965" /><rect x="6" y="9" width="1" height="1" fill="#254963" /><rect x="7" y="9" width="1" height="1" fill="#21455F" /><rect x="8" y="9" width="1" height="1" fill="#264863" /><rect x="9" y="9" width="1" height="1" fill="#1C3E59" />
  </g>
</svg>