<svg width="800" height="1000" version="1.1" xmlns="http://www.w3.org/2000/svg" xmlns:xlink="http://www.w3.org/1999/xlink">
  <defs>
      <linearGradient id="Gradient2" x1="0" x2="1" y1="0" y2="1">
        <stop offset="0%" stop-color="#2d3c96"/>
        <stop offset="100%" stop-color="#d53392"/>
      </linearGradient>
  </defs>
  <rect x="10" y="10" width="780" height="980" fill="url(#Gradient2)" rx="50" ry="50" stroke="#ffd700" stroke-width="20"/>
  <text x="400" y="920" width="780" text-anchor="middle" style="font: bold 200px 'Helvetica Neue'; fill: #ffd700">01663</text>

  <g transform="translate(80 80) scale(64)">
<rect x="0" y="0" width="1" height="1" fill="#2B3B4B" /><rect x="1" y="0" width="1" height="1" fill="#F0FFFF" /><rect x="2" y="0" width="1" height="1" fill="#8E9EAE" /><rect x="3" y="0" width="1" height="1" fill="#132333" /><rect x="4" y="0" width="1" height="1" fill="#182838" /><rect x="5" y="0" width="1" height="1" fill="#111F2F" /><rect x="6" y="0" width="1" height="1" fill="#F6FFFF" /><rect x="7" y="0" width="1" height="1" fill="#77808C" /><rect x="8" y="0" width="1" height="1" fill="#00020B" /><rect x="9" y="0" width="1" height="1" fill="#B2B9C1" /><rect x="0" y="1" width="1" height="1" fill="#304050" /><rect x="1" y="1" width="1" height="1" fill="#EEFEFF" /><rect x="2" y="1" width="1" height="1" fill="#90A0B0" /><rect x="3" y="1" width="1" height="1" fill="#061626" /><rect x="4" y="1" width="1" height="1" fill="#172737" /><rect x="5" y="1" width="1" height="1" fill="#2E3D4C" /><rect x="6" y="1" width="1" height="1" fill="#E8F4FF" /><rect x="7" y="1" width="1" height="1" fill="#67707C" /><rect x="8" y="1" width="1" height="1" fill="#343B45" /><rect x="9" y="1" width="1" height="1" fill="#9299A1" /><rect x="0" y="2" width="1" height="1" fill="#324252" /><rect x="1" y="2" width="1" height="1" fill="#F1FFFF" /><rect x="2" y="2" width="1" height="1" fill="#8898A8" /><rect x="3" y="2" width="1" height="1" fill="#142535" /><rect x="4" y="2" width="1" height="1" fill="#172838" /><rect x="5" y="2" width="1" height="1" fill="#526271" /><rect x="6" y="2" width="1" height="1" fill="#F2FFFF" /><rect x="7" y="2" width="1" height="1" fill="#EAF5FF" /><rect x="8" y="2" width="1" height="1" fill="#E9F1FC" /><rect x="9" y="2" width="1" height="1" fill="#F4FBFF" /><rect x="0" y="3" width="1" height="1" fill="#273849" /><rect x="1" y="3" width="1" height="1" fill="#EAFBFF" /><rect x="2" y="3" width="1" height="1" fill="#8293A4" /><rect x="3" y="3" width="1" height="1" fill="#162939" /><rect x="4" y="3" width="1" height="1" fill="#0B1E2E" /><rect x="5" y="3" width="1" height="1" fill="#8293A3" /><rect x="6" y="3" width="1" height="1" fill="#F1FFFF" /><rect x="7" y="3" width="1" height="1" fill="#F3FFFF" /><rect x="8" y="3" width="1" height="1" fill="#F7FFFF" /><rect x="9" y="3" width="1" height="1" fill="#F6FEFF" /><rect x="0" y="4" width="1" height="1" fill="#2A3E4F" /><rect x="1" y="4" width="1" height="1" fill="#EAFEFF" /><rect x="2" y="4" width="1" height="1" fill="#8FA3B5" /><rect x="3" y="4" width="1" height="1" fill="#0B1F31" /><rect x="4" y="4" width="1" height="1" fill="#0F2335" /><rect x="5" y="4" width="1" height="1" fill="#B6C9DA" /><rect x="6" y="4" width="1" height="1" fill="#D4E5F5" /><rect x="7" y="4" width="1" height="1" fill="#5E6D7C" /><rect x="8" y="4" width="1" height="1" fill="#65717F" /><rect x="9" y="4" width="1" height="1" fill="#75808D" /><rect x="0" y="5" width="1" height="1" fill="#354C5E" /><rect x="1" y="5" width="1" height="1" fill="#E1F8FF" /><rect x="2" y="5" width="1" height="1" fill="#8EA5B8" /><rect x="3" y="5" width="1" height="1" fill="#0F2639" /><rect x="4" y="5" width="1" height="1" fill="#1A3045" /><rect x="5" y="5" width="1" height="1" fill="#D4EAFE" /><rect x="6" y="5" width="1" height="1" fill="#BACEE0" /><rect x="7" y="5" width="1" height="1" fill="#07182A" /><rect x="8" y="5" width="1" height="1" fill="#051525" /><rect x="9" y="5" width="1" height="1" fill="#071525" /><rect x="0" y="6" width="1" height="1" fill="#213C4F" /><rect x="1" y="6" width="1" height="1" fill="#E6FFFF" /><rect x="2" y="6" width="1" height="1" fill="#8CA7BC" /><rect x="3" y="6" width="1" height="1" fill="#051F35" /><rect x="4" y="6" width="1" height="1" fill="#365067" /><rect x="5" y="6" width="1" height="1" fill="#E3FCFF" /><rect x="6" y="6" width="1" height="1" fill="#97AEC5" /><rect x="7" y="6" width="1" height="1" fill="#0F2439" /><rect x="8" y="6" width="1" height="1" fill="#1A2E41" /><rect x="9" y="6" width="1" height="1" fill="#0D1F33" /><rect x="0" y="7" width="1" height="1" fill="#1C3B50" /><rect x="1" y="7" width="1" height="1" fill="#325166" /><rect x="2" y="7" width="1" height="1" fill="#1F3E54" /><rect x="3" y="7" width="1" height="1" fill="#1C3A52" /><rect x="4" y="7" width="1" height="1" fill="#1F3D56" /><rect x="5" y="7" width="1" height="1" fill="#3F5C76" /><rect x="6" y="7" width="1" height="1" fill="#27425C" /><rect x="7" y="7" width="1" height="1" fill="#122C45" /><rect x="8" y="7" width="1" height="1" fill="#182F47" /><rect x="9" y="7" width="1" height="1" fill="#172E45" /><rect x="0" y="8" width="1" height="1" fill="#163950" /><rect x="1" y="8" width="1" height="1" fill="#062940" /><rect x="2" y="8" width="1" height="1" fill="#193C54" /><rect x="3" y="8" width="1" height="1" fill="#1C4059" /><rect x="4" y="8" width="1" height="1" fill="#193C58" /><rect x="5" y="8" width="1" height="1" fill="#022440" /><rect x="6" y="8" width="1" height="1" fill="#12324F" /><rect x="7" y="8" width="1" height="1" fill="#1C3A56" /><rect x="8" y="8" width="1" height="1" fill="#15314D" /><rect x="9" y="8" width="1" height="1" fill="#112C48" /><rect x="0" y="9" width="1" height="1" fill="#22465E" /><rect x="1" y="9" width="1" height="1" fill="#1A3E56" /><rect x="2" y="9" width="1" height="1" fill="#1F445D" /><rect x="3" y="9" width="1" height="1" fill="#1D425D" /><rect x="4" y="9" width="1" height="1" fill="#2F5470" /><rect x="5" y="9" width="1" height="1" fill="#224664" /><rect x="6" y="9" width="1" height="1" fill="#214361" /><rect x="7" y="9" width="1" height="1" fill="#1A3A59" /><rect x="8" y="9" width="1" height="1" fill="#284765" /><rect x="9" y="9" width="1" height="1" fill="#1F3C5A" />
  </g>
</svg>