<svg width="800" height="1000" version="1.1" xmlns="http://www.w3.org/2000/svg" xmlns:xlink="http://www.w3.org/1999/xlink">
  <defs>
      <linearGradient id="Gradient2" x1="0" x2="1" y1="0" y2="1">
        <stop offset="0%" stop-color="#2d3c96"/>
        <stop offset="100%" stop-color="#d53392"/>
      </linearGradient>
  </defs>
  <rect x="10" y="10" width="780" height="980" fill="url(#Gradient2)" rx="50" ry="50" stroke="#ffd700" stroke-width="20"/>
  <text x="400" y="920" width="780" text-anchor="middle" style="font: bold 200px 'Helvetica Neue'; fill: #ffd700">01660</text>

  <g transform="translate(80 80) scale(64)">
<rect x="0" y="0" width="1" height="1" fill="#24323B" /><rect x="1" y="0" width="1" height="1" fill="#EDFCFF" /><rect x="2" y="0" width="1" height="1" fill="#8C9CAB" /><rect x="3" y="0" width="1" height="1" fill="#0D1F31" /><rect x="4" y="0" width="1" height="1" fill="#182C3F" /><rect x="5" y="0" width="1" height="1" fill="#0C2033" /><rect x="6" y="0" width="1" height="1" fill="#C9DCEB" /><rect x="7" y="0" width="1" height="1" fill="#D6E7F2" /><rect x="8" y="0" width="1" height="1" fill="#3A474C" /><rect x="9" y="0" width="1" height="1" fill="#F0FBFD" /><rect x="0" y="1" width="1" height="1" fill="#26353F" /><rect x="1" y="1" width="1" height="1" fill="#EBFBFF" /><rect x="2" y="1" width="1" height="1" fill="#8799A8" /><rect x="3" y="1" width="1" height="1" fill="#071A2C" /><rect x="4" y="1" width="1" height="1" fill="#1A2F43" /><rect x="5" y="1" width="1" height="1" fill="#152A3E" /><rect x="6" y="1" width="1" height="1" fill="#C5D8E9" /><rect x="7" y="1" width="1" height="1" fill="#DDEEFA" /><rect x="8" y="1" width="1" height="1" fill="#3D4C52" /><rect x="9" y="1" width="1" height="1" fill="#F4FFFF" /><rect x="0" y="2" width="1" height="1" fill="#22333E" /><rect x="1" y="2" width="1" height="1" fill="#F1FFFF" /><rect x="2" y="2" width="1" height="1" fill="#91A4B4" /><rect x="3" y="2" width="1" height="1" fill="#14293C" /><rect x="4" y="2" width="1" height="1" fill="#162C42" /><rect x="5" y="2" width="1" height="1" fill="#11273D" /><rect x="6" y="2" width="1" height="1" fill="#C6DBEE" /><rect x="7" y="2" width="1" height="1" fill="#D1E4F3" /><rect x="8" y="2" width="1" height="1" fill="#3A4B54" /><rect x="9" y="2" width="1" height="1" fill="#E9F9FF" /><rect x="0" y="3" width="1" height="1" fill="#2F404A" /><rect x="1" y="3" width="1" height="1" fill="#ECFDFF" /><rect x="2" y="3" width="1" height="1" fill="#7D8F9E" /><rect x="3" y="3" width="1" height="1" fill="#061A2C" /><rect x="4" y="3" width="1" height="1" fill="#13283D" /><rect x="5" y="3" width="1" height="1" fill="#10253A" /><rect x="6" y="3" width="1" height="1" fill="#B9CDE0" /><rect x="7" y="3" width="1" height="1" fill="#DFF1FF" /><rect x="8" y="3" width="1" height="1" fill="#3D4E58" /><rect x="9" y="3" width="1" height="1" fill="#F2FFFF" /><rect x="0" y="4" width="1" height="1" fill="#2B3840" /><rect x="1" y="4" width="1" height="1" fill="#EFFCFF" /><rect x="2" y="4" width="1" height="1" fill="#E7F5FF" /><rect x="3" y="4" width="1" height="1" fill="#C6D5E4" /><rect x="4" y="4" width="1" height="1" fill="#C5D6E7" /><rect x="5" y="4" width="1" height="1" fill="#7E8FA1" /><rect x="6" y="4" width="1" height="1" fill="#C6D6E7" /><rect x="7" y="4" width="1" height="1" fill="#D9E8F6" /><rect x="8" y="4" width="1" height="1" fill="#3A4750" /><rect x="9" y="4" width="1" height="1" fill="#ECF8FF" /><rect x="0" y="5" width="1" height="1" fill="#2D3940" /><rect x="1" y="5" width="1" height="1" fill="#EDF8FF" /><rect x="2" y="5" width="1" height="1" fill="#EDF9FF" /><rect x="3" y="5" width="1" height="1" fill="#F0FDFF" /><rect x="4" y="5" width="1" height="1" fill="#F0FEFF" /><rect x="5" y="5" width="1" height="1" fill="#91A0B0" /><rect x="6" y="5" width="1" height="1" fill="#C7D5E6" /><rect x="7" y="5" width="1" height="1" fill="#DDEAF8" /><rect x="8" y="5" width="1" height="1" fill="#424F59" /><rect x="9" y="5" width="1" height="1" fill="#F6FFFF" /><rect x="0" y="6" width="1" height="1" fill="#2A363F" /><rect x="1" y="6" width="1" height="1" fill="#ECF9FF" /><rect x="2" y="6" width="1" height="1" fill="#EDFAFF" /><rect x="3" y="6" width="1" height="1" fill="#ECF9FF" /><rect x="4" y="6" width="1" height="1" fill="#F2FFFF" /><rect x="5" y="6" width="1" height="1" fill="#97A6B8" /><rect x="6" y="6" width="1" height="1" fill="#B6C5D5" /><rect x="7" y="6" width="1" height="1" fill="#DDECFB" /><rect x="8" y="6" width="1" height="1" fill="#43525E" /><rect x="9" y="6" width="1" height="1" fill="#ECFBFF" /><rect x="0" y="7" width="1" height="1" fill="#132532" /><rect x="1" y="7" width="1" height="1" fill="#415361" /><rect x="2" y="7" width="1" height="1" fill="#3C4D5F" /><rect x="3" y="7" width="1" height="1" fill="#314357" /><rect x="4" y="7" width="1" height="1" fill="#3C4F64" /><rect x="5" y="7" width="1" height="1" fill="#2C3F55" /><rect x="6" y="7" width="1" height="1" fill="#304359" /><rect x="7" y="7" width="1" height="1" fill="#314559" /><rect x="8" y="7" width="1" height="1" fill="#24384A" /><rect x="9" y="7" width="1" height="1" fill="#495D6E" /><rect x="0" y="8" width="1" height="1" fill="#183348" /><rect x="1" y="8" width="1" height="1" fill="#082239" /><rect x="2" y="8" width="1" height="1" fill="#0C2740" /><rect x="3" y="8" width="1" height="1" fill="#09243F" /><rect x="4" y="8" width="1" height="1" fill="#0A2541" /><rect x="5" y="8" width="1" height="1" fill="#112C48" /><rect x="6" y="8" width="1" height="1" fill="#0A2643" /><rect x="7" y="8" width="1" height="1" fill="#122E4B" /><rect x="8" y="8" width="1" height="1" fill="#0F2D47" /><rect x="9" y="8" width="1" height="1" fill="#092741" /><rect x="0" y="9" width="1" height="1" fill="#294962" /><rect x="1" y="9" width="1" height="1" fill="#203F5A" /><rect x="2" y="9" width="1" height="1" fill="#21405D" /><rect x="3" y="9" width="1" height="1" fill="#2A4967" /><rect x="4" y="9" width="1" height="1" fill="#294867" /><rect x="5" y="9" width="1" height="1" fill="#214161" /><rect x="6" y="9" width="1" height="1" fill="#234364" /><rect x="7" y="9" width="1" height="1" fill="#274869" /><rect x="8" y="9" width="1" height="1" fill="#214463" /><rect x="9" y="9" width="1" height="1" fill="#244765" />
  </g>
</svg>