<svg width="800" height="1000" xmlns="http://www.w3.org/2000/svg"><defs><linearGradient id="g" x1="0" x2="1" y1="0" y2="1"><stop offset="0%" stop-color="#2d3c96"/><stop offset="100%" stop-color="#d53392"/></linearGradient></defs><rect x="10" y="10" width="780" height="980" fill="url(#g)" rx="50" ry="50" stroke="gold" stroke-width="20"/><text x="400" y="920" width="780" text-anchor="middle" style="font:bold 200px 'Helvetica Neue';fill:gold">01660</text><g transform="translate(80 80) scale(64)"><rect x="0" y="0" width="1" height="1" fill="#24323b" /><rect x="0" y="1" width="1" height="1" fill="#26353f" /><rect x="0" y="2" width="1" height="1" fill="#22333e" /><rect x="0" y="3" width="1" height="1" fill="#2f404a" /><rect x="0" y="4" width="1" height="1" fill="#2b3840" /><rect x="0" y="5" width="1" height="1" fill="#2d3940" /><rect x="0" y="6" width="1" height="1" fill="#2a363f" /><rect x="0" y="7" width="1" height="1" fill="#132532" /><rect x="0" y="8" width="1" height="1" fill="#183348" /><rect x="0" y="9" width="1" height="1" fill="#294962" /><rect x="1" y="0" width="1" height="1" fill="#edfcff" /><rect x="1" y="1" width="1" height="1" fill="#ebfbff" /><rect x="1" y="2" width="1" height="1" fill="#f1ffff" /><rect x="1" y="3" width="1" height="1" fill="#ecfdff" /><rect x="1" y="4" width="1" height="1" fill="#effcff" /><rect x="1" y="5" width="1" height="1" fill="#edf8ff" /><rect x="1" y="6" width="1" height="1" fill="#ecf9ff" /><rect x="1" y="7" width="1" height="1" fill="#415361" /><rect x="1" y="8" width="1" height="1" fill="#082239" /><rect x="1" y="9" width="1" height="1" fill="#203f5a" /><rect x="2" y="0" width="1" height="1" fill="#8c9cab" /><rect x="2" y="1" width="1" height="1" fill="#8799a8" /><rect x="2" y="2" width="1" height="1" fill="#91a4b4" /><rect x="2" y="3" width="1" height="1" fill="#7d8f9e" /><rect x="2" y="4" width="1" height="1" fill="#e7f5ff" /><rect x="2" y="5" width="1" height="1" fill="#edf9ff" /><rect x="2" y="6" width="1" height="1" fill="#edfaff" /><rect x="2" y="7" width="1" height="1" fill="#3c4d5f" /><rect x="2" y="8" width="1" height="1" fill="#0c2740" /><rect x="2" y="9" width="1" height="1" fill="#21405d" /><rect x="3" y="0" width="1" height="1" fill="#0d1f31" /><rect x="3" y="1" width="1" height="1" fill="#071a2c" /><rect x="3" y="2" width="1" height="1" fill="#14293c" /><rect x="3" y="3" width="1" height="1" fill="#061a2c" /><rect x="3" y="4" width="1" height="1" fill="#c6d5e4" /><rect x="3" y="5" width="1" height="1" fill="#f0fdff" /><rect x="3" y="6" width="1" height="1" fill="#ecf9ff" /><rect x="3" y="7" width="1" height="1" fill="#314357" /><rect x="3" y="8" width="1" height="1" fill="#09243f" /><rect x="3" y="9" width="1" height="1" fill="#2a4967" /><rect x="4" y="0" width="1" height="1" fill="#182c3f" /><rect x="4" y="1" width="1" height="1" fill="#1a2f43" /><rect x="4" y="2" width="1" height="1" fill="#162c42" /><rect x="4" y="3" width="1" height="1" fill="#13283d" /><rect x="4" y="4" width="1" height="1" fill="#c5d6e7" /><rect x="4" y="5" width="1" height="1" fill="#f0feff" /><rect x="4" y="6" width="1" height="1" fill="#f2ffff" /><rect x="4" y="7" width="1" height="1" fill="#3c4f64" /><rect x="4" y="8" width="1" height="1" fill="#0a2541" /><rect x="4" y="9" width="1" height="1" fill="#294867" /><rect x="5" y="0" width="1" height="1" fill="#0c2033" /><rect x="5" y="1" width="1" height="1" fill="#152a3e" /><rect x="5" y="2" width="1" height="1" fill="#11273d" /><rect x="5" y="3" width="1" height="1" fill="#10253a" /><rect x="5" y="4" width="1" height="1" fill="#7e8fa1" /><rect x="5" y="5" width="1" height="1" fill="#91a0b0" /><rect x="5" y="6" width="1" height="1" fill="#97a6b8" /><rect x="5" y="7" width="1" height="1" fill="#2c3f55" /><rect x="5" y="8" width="1" height="1" fill="#112c48" /><rect x="5" y="9" width="1" height="1" fill="#214161" /><rect x="6" y="0" width="1" height="1" fill="#c9dceb" /><rect x="6" y="1" width="1" height="1" fill="#c5d8e9" /><rect x="6" y="2" width="1" height="1" fill="#c6dbee" /><rect x="6" y="3" width="1" height="1" fill="#b9cde0" /><rect x="6" y="4" width="1" height="1" fill="#c6d6e7" /><rect x="6" y="5" width="1" height="1" fill="#c7d5e6" /><rect x="6" y="6" width="1" height="1" fill="#b6c5d5" /><rect x="6" y="7" width="1" height="1" fill="#304359" /><rect x="6" y="8" width="1" height="1" fill="#0a2643" /><rect x="6" y="9" width="1" height="1" fill="#234364" /><rect x="7" y="0" width="1" height="1" fill="#d6e7f2" /><rect x="7" y="1" width="1" height="1" fill="#ddeefa" /><rect x="7" y="2" width="1" height="1" fill="#d1e4f3" /><rect x="7" y="3" width="1" height="1" fill="#dff1ff" /><rect x="7" y="4" width="1" height="1" fill="#d9e8f6" /><rect x="7" y="5" width="1" height="1" fill="#ddeaf8" /><rect x="7" y="6" width="1" height="1" fill="#ddecfb" /><rect x="7" y="7" width="1" height="1" fill="#314559" /><rect x="7" y="8" width="1" height="1" fill="#122e4b" /><rect x="7" y="9" width="1" height="1" fill="#274869" /><rect x="8" y="0" width="1" height="1" fill="#3a474c" /><rect x="8" y="1" width="1" height="1" fill="#3d4c52" /><rect x="8" y="2" width="1" height="1" fill="#3a4b54" /><rect x="8" y="3" width="1" height="1" fill="#3d4e58" /><rect x="8" y="4" width="1" height="1" fill="#3a4750" /><rect x="8" y="5" width="1" height="1" fill="#424f59" /><rect x="8" y="6" width="1" height="1" fill="#43525e" /><rect x="8" y="7" width="1" height="1" fill="#24384a" /><rect x="8" y="8" width="1" height="1" fill="#0f2d47" /><rect x="8" y="9" width="1" height="1" fill="#214463" /><rect x="9" y="0" width="1" height="1" fill="#f0fbfd" /><rect x="9" y="1" width="1" height="1" fill="#f4ffff" /><rect x="9" y="2" width="1" height="1" fill="#e9f9ff" /><rect x="9" y="3" width="1" height="1" fill="#f2ffff" /><rect x="9" y="4" width="1" height="1" fill="#ecf8ff" /><rect x="9" y="5" width="1" height="1" fill="#f6ffff" /><rect x="9" y="6" width="1" height="1" fill="#ecfbff" /><rect x="9" y="7" width="1" height="1" fill="#495d6e" /><rect x="9" y="8" width="1" height="1" fill="#092741" /><rect x="9" y="9" width="1" height="1" fill="#244765" /></g></svg>