<svg width="800" height="1000" xmlns="http://www.w3.org/2000/svg"><defs><linearGradient id="g" x1="0" x2="1" y1="0" y2="1"><stop offset="0%" stop-color="#2d3c96"/><stop offset="100%" stop-color="#d53392"/></linearGradient></defs><rect x="10" y="10" width="780" height="980" fill="url(#g)" rx="50" ry="50" stroke="gold" stroke-width="20"/><text x="400" y="920" width="780" text-anchor="middle" style="font:bold 200px 'Helvetica Neue';fill:gold">01662</text><g transform="translate(80 80) scale(64)"><rect x="0" y="0" width="1" height="1" fill="#b3b6c7" /><rect x="0" y="1" width="1" height="1" fill="#292d3e" /><rect x="0" y="2" width="1" height="1" fill="#1a1f2f" /><rect x="0" y="3" width="1" height="1" fill="#111727" /><rect x="0" y="4" width="1" height="1" fill="#8c95a5" /><rect x="0" y="5" width="1" height="1" fill="#f4ffff" /><rect x="0" y="6" width="1" height="1" fill="#eafbff" /><rect x="0" y="7" width="1" height="1" fill="#3f556a" /><rect x="0" y="8" width="1" height="1" fill="#09253b" /><rect x="0" y="9" width="1" height="1" fill="#213f57" /><rect x="1" y="0" width="1" height="1" fill="#3d4151" /><rect x="1" y="1" width="1" height="1" fill="#3c4150" /><rect x="1" y="2" width="1" height="1" fill="#525867" /><rect x="1" y="3" width="1" height="1" fill="#3c4353" /><rect x="1" y="4" width="1" height="1" fill="#555e6e" /><rect x="1" y="5" width="1" height="1" fill="#5e6b7c" /><rect x="1" y="6" width="1" height="1" fill="#556679" /><rect x="1" y="7" width="1" height="1" fill="#182e43" /><rect x="1" y="8" width="1" height="1" fill="#132f46" /><rect x="1" y="9" width="1" height="1" fill="#1f3d56" /><rect x="2" y="0" width="1" height="1" fill="#f4f9ff" /><rect x="2" y="1" width="1" height="1" fill="#f9ffff" /><rect x="2" y="2" width="1" height="1" fill="#eef5ff" /><rect x="2" y="3" width="1" height="1" fill="#f4fcff" /><rect x="2" y="4" width="1" height="1" fill="#f3fdff" /><rect x="2" y="5" width="1" height="1" fill="#edfaff" /><rect x="2" y="6" width="1" height="1" fill="#ebfdff" /><rect x="2" y="7" width="1" height="1" fill="#3b5166" /><rect x="2" y="8" width="1" height="1" fill="#042037" /><rect x="2" y="9" width="1" height="1" fill="#1a3851" /><rect x="3" y="0" width="1" height="1" fill="#f8ffff" /><rect x="3" y="1" width="1" height="1" fill="#d6dee9" /><rect x="3" y="2" width="1" height="1" fill="#565e69" /><rect x="3" y="3" width="1" height="1" fill="#59636e" /><rect x="3" y="4" width="1" height="1" fill="#596572" /><rect x="3" y="5" width="1" height="1" fill="#576674" /><rect x="3" y="6" width="1" height="1" fill="#546879" /><rect x="3" y="7" width="1" height="1" fill="#172f43" /><rect x="3" y="8" width="1" height="1" fill="#143048" /><rect x="3" y="9" width="1" height="1" fill="#22405a" /><rect x="4" y="0" width="1" height="1" fill="#f3feff" /><rect x="4" y="1" width="1" height="1" fill="#bcc7d0" /><rect x="4" y="2" width="1" height="1" fill="#1b262f" /><rect x="4" y="3" width="1" height="1" fill="#000c15" /><rect x="4" y="4" width="1" height="1" fill="#1f2d38" /><rect x="4" y="5" width="1" height="1" fill="#091a27" /><rect x="4" y="6" width="1" height="1" fill="#122637" /><rect x="4" y="7" width="1" height="1" fill="#284156" /><rect x="4" y="8" width="1" height="1" fill="#0e2b44" /><rect x="4" y="9" width="1" height="1" fill="#1d3c57" /><rect x="5" y="0" width="1" height="1" fill="#f1ffff" /><rect x="5" y="1" width="1" height="1" fill="#f4ffff" /><rect x="5" y="2" width="1" height="1" fill="#8d9ba4" /><rect x="5" y="3" width="1" height="1" fill="#596771" /><rect x="5" y="4" width="1" height="1" fill="#2f404a" /><rect x="5" y="5" width="1" height="1" fill="#223542" /><rect x="5" y="6" width="1" height="1" fill="#182f3f" /><rect x="5" y="7" width="1" height="1" fill="#102a3f" /><rect x="5" y="8" width="1" height="1" fill="#102e47" /><rect x="5" y="9" width="1" height="1" fill="#20415b" /><rect x="6" y="0" width="1" height="1" fill="#e0effb" /><rect x="6" y="1" width="1" height="1" fill="#c2d1dd" /><rect x="6" y="2" width="1" height="1" fill="#e7f6ff" /><rect x="6" y="3" width="1" height="1" fill="#edfdff" /><rect x="6" y="4" width="1" height="1" fill="#e4f6ff" /><rect x="6" y="5" width="1" height="1" fill="#e5faff" /><rect x="6" y="6" width="1" height="1" fill="#99b1c2" /><rect x="6" y="7" width="1" height="1" fill="#2a465a" /><rect x="6" y="8" width="1" height="1" fill="#0d2d44" /><rect x="6" y="9" width="1" height="1" fill="#1a3b54" /><rect x="7" y="0" width="1" height="1" fill="#516170" /><rect x="7" y="1" width="1" height="1" fill="#0c1c2b" /><rect x="7" y="2" width="1" height="1" fill="#1c2c3b" /><rect x="7" y="3" width="1" height="1" fill="#384a58" /><rect x="7" y="4" width="1" height="1" fill="#6f8291" /><rect x="7" y="5" width="1" height="1" fill="#e0f6ff" /><rect x="7" y="6" width="1" height="1" fill="#e3fcff" /><rect x="7" y="7" width="1" height="1" fill="#7692a7" /><rect x="7" y="8" width="1" height="1" fill="#022239" /><rect x="7" y="9" width="1" height="1" fill="#1d3f58" /><rect x="8" y="0" width="1" height="1" fill="#0f2032" /><rect x="8" y="1" width="1" height="1" fill="#102133" /><rect x="8" y="2" width="1" height="1" fill="#192a3c" /><rect x="8" y="3" width="1" height="1" fill="#0c1f30" /><rect x="8" y="4" width="1" height="1" fill="#14283a" /><rect x="8" y="5" width="1" height="1" fill="#647b8d" /><rect x="8" y="6" width="1" height="1" fill="#738ca0" /><rect x="8" y="7" width="1" height="1" fill="#112d43" /><rect x="8" y="8" width="1" height="1" fill="#0a2a41" /><rect x="8" y="9" width="1" height="1" fill="#1f415a" /><rect x="9" y="0" width="1" height="1" fill="#16273b" /><rect x="9" y="1" width="1" height="1" fill="#132438" /><rect x="9" y="2" width="1" height="1" fill="#1a2c40" /><rect x="9" y="3" width="1" height="1" fill="#25394c" /><rect x="9" y="4" width="1" height="1" fill="#192d40" /><rect x="9" y="5" width="1" height="1" fill="#071d31" /><rect x="9" y="6" width="1" height="1" fill="#0d263b" /><rect x="9" y="7" width="1" height="1" fill="#173349" /><rect x="9" y="8" width="1" height="1" fill="#0c2c44" /><rect x="9" y="9" width="1" height="1" fill="#23455e" /></g></svg>