<svg width="800" height="1000" version="1.1" xmlns="http://www.w3.org/2000/svg" xmlns:xlink="http://www.w3.org/1999/xlink">
  <defs>
      <linearGradient id="Gradient2" x1="0" x2="1" y1="0" y2="1">
        <stop offset="0%" stop-color="#2d3c96"/>
        <stop offset="100%" stop-color="#d53392"/>
      </linearGradient>
  </defs>
  <rect x="10" y="10" width="780" height="980" fill="url(#Gradient2)" rx="50" ry="50" stroke="#ffd700" stroke-width="20"/>
  <text x="400" y="920" width="780" text-anchor="middle" style="font: bold 200px 'Helvetica Neue'; fill: #ffd700">01664</text>

  <g transform="translate(80 80) scale(64)">
<rect x="0" y="0" width="1" height="1" fill="#DAE6F6" /><rect x="1" y="0" width="1" height="1" fill="#192333" /><rect x="2" y="0" width="1" height="1" fill="#0C1523" /><rect x="3" y="0" width="1" height="1" fill="#707884" /><rect x="4" y="0" width="1" height="1" fill="#DDE4EF" /><rect x="5" y="0" width="1" height="1" fill="#F5FCFF" /><rect x="6" y="0" width="1" height="1" fill="#F2FCFF" /><rect x="7" y="0" width="1" height="1" fill="#F2FDFF" /><rect x="8" y="0" width="1" height="1" fill="#32414E" /><rect x="9" y="0" width="1" height="1" fill="#182837" /><rect x="0" y="1" width="1" height="1" fill="#F2FEFF" /><rect x="1" y="1" width="1" height="1" fill="#121D2B" /><rect x="2" y="1" width="1" height="1" fill="#0E1724" /><rect x="3" y="1" width="1" height="1" fill="#040C18" /><rect x="4" y="1" width="1" height="1" fill="#242B35" /><rect x="5" y="1" width="1" height="1" fill="#606872" /><rect x="6" y="1" width="1" height="1" fill="#D6E0EA" /><rect x="7" y="1" width="1" height="1" fill="#F3FEFF" /><rect x="8" y="1" width="1" height="1" fill="#6C7B88" /><rect x="9" y="1" width="1" height="1" fill="#162635" /><rect x="0" y="2" width="1" height="1" fill="#F5FFFF" /><rect x="1" y="2" width="1" height="1" fill="#2C3742" /><rect x="2" y="2" width="1" height="1" fill="#35404A" /><rect x="3" y="2" width="1" height="1" fill="#4B555E" /><rect x="4" y="2" width="1" height="1" fill="#0C151D" /><rect x="5" y="2" width="1" height="1" fill="#19222A" /><rect x="6" y="2" width="1" height="1" fill="#162029" /><rect x="7" y="2" width="1" height="1" fill="#F5FFFF" /><rect x="8" y="2" width="1" height="1" fill="#8E9DAA" /><rect x="9" y="2" width="1" height="1" fill="#091928" /><rect x="0" y="3" width="1" height="1" fill="#F2FFFF" /><rect x="1" y="3" width="1" height="1" fill="#505D66" /><rect x="2" y="3" width="1" height="1" fill="#B3BFC7" /><rect x="3" y="3" width="1" height="1" fill="#ABB5BD" /><rect x="4" y="3" width="1" height="1" fill="#0F1920" /><rect x="5" y="3" width="1" height="1" fill="#030D14" /><rect x="6" y="3" width="1" height="1" fill="#212B34" /><rect x="7" y="3" width="1" height="1" fill="#F2FFFF" /><rect x="8" y="3" width="1" height="1" fill="#8A99A6" /><rect x="9" y="3" width="1" height="1" fill="#0D1D2C" /><rect x="0" y="4" width="1" height="1" fill="#ECFCFF" /><rect x="1" y="4" width="1" height="1" fill="#8A98A1" /><rect x="2" y="4" width="1" height="1" fill="#8D9AA2" /><rect x="3" y="4" width="1" height="1" fill="#F2FEFF" /><rect x="4" y="4" width="1" height="1" fill="#8D979E" /><rect x="5" y="4" width="1" height="1" fill="#162028" /><rect x="6" y="4" width="1" height="1" fill="#717C85" /><rect x="7" y="4" width="1" height="1" fill="#EDFBFF" /><rect x="8" y="4" width="1" height="1" fill="#627280" /><rect x="9" y="4" width="1" height="1" fill="#152636" /><rect x="0" y="5" width="1" height="1" fill="#E8FAFF" /><rect x="1" y="5" width="1" height="1" fill="#AABBC5" /><rect x="2" y="5" width="1" height="1" fill="#304049" /><rect x="3" y="5" width="1" height="1" fill="#EFFDFF" /><rect x="4" y="5" width="1" height="1" fill="#EFFCFF" /><rect x="5" y="5" width="1" height="1" fill="#E9F6FF" /><rect x="6" y="5" width="1" height="1" fill="#ECFAFF" /><rect x="7" y="5" width="1" height="1" fill="#F1FFFF" /><rect x="8" y="5" width="1" height="1" fill="#283949" /><rect x="9" y="5" width="1" height="1" fill="#182B3C" /><rect x="0" y="6" width="1" height="1" fill="#BBD1DF" /><rect x="1" y="6" width="1" height="1" fill="#D8EDFA" /><rect x="2" y="6" width="1" height="1" fill="#031623" /><rect x="3" y="6" width="1" height="1" fill="#91A3AF" /><rect x="4" y="6" width="1" height="1" fill="#EDFEFF" /><rect x="5" y="6" width="1" height="1" fill="#EDFEFF" /><rect x="6" y="6" width="1" height="1" fill="#EFFFFF" /><rect x="7" y="6" width="1" height="1" fill="#8C9FAE" /><rect x="8" y="6" width="1" height="1" fill="#0E2234" /><rect x="9" y="6" width="1" height="1" fill="#1C3144" /><rect x="0" y="7" width="1" height="1" fill="#1F384C" /><rect x="1" y="7" width="1" height="1" fill="#3A5265" /><rect x="2" y="7" width="1" height="1" fill="#0E2536" /><rect x="3" y="7" width="1" height="1" fill="#112536" /><rect x="4" y="7" width="1" height="1" fill="#536777" /><rect x="5" y="7" width="1" height="1" fill="#9FB3C3" /><rect x="6" y="7" width="1" height="1" fill="#667A8B" /><rect x="7" y="7" width="1" height="1" fill="#061B2D" /><rect x="8" y="7" width="1" height="1" fill="#0E263A" /><rect x="9" y="7" width="1" height="1" fill="#162E43" /><rect x="0" y="8" width="1" height="1" fill="#0B2641" /><rect x="1" y="8" width="1" height="1" fill="#0B2640" /><rect x="2" y="8" width="1" height="1" fill="#102941" /><rect x="3" y="8" width="1" height="1" fill="#112840" /><rect x="4" y="8" width="1" height="1" fill="#051C32" /><rect x="5" y="8" width="1" height="1" fill="#061C31" /><rect x="6" y="8" width="1" height="1" fill="#071E32" /><rect x="7" y="8" width="1" height="1" fill="#142C41" /><rect x="8" y="8" width="1" height="1" fill="#0F2940" /><rect x="9" y="8" width="1" height="1" fill="#0E2840" /><rect x="0" y="9" width="1" height="1" fill="#203D5B" /><rect x="1" y="9" width="1" height="1" fill="#213D5B" /><rect x="2" y="9" width="1" height="1" fill="#243F5B" /><rect x="3" y="9" width="1" height="1" fill="#26405A" /><rect x="4" y="9" width="1" height="1" fill="#1E364F" /><rect x="5" y="9" width="1" height="1" fill="#1E374E" /><rect x="6" y="9" width="1" height="1" fill="#1C354B" /><rect x="7" y="9" width="1" height="1" fill="#274056" /><rect x="8" y="9" width="1" height="1" fill="#27425A" /><rect x="9" y="9" width="1" height="1" fill="#26425A" />
  </g>
</svg>