<svg width="800" height="1000" version="1.1" xmlns="http://www.w3.org/2000/svg" xmlns:xlink="http://www.w3.org/1999/xlink">
  <defs>
      <linearGradient id="Gradient2" x1="0" x2="1" y1="0" y2="1">
        <stop offset="0%" stop-color="#2d3c96"/>
        <stop offset="100%" stop-color="#d53392"/>
      </linearGradient>
  </defs>
  <rect x="10" y="10" width="780" height="980" fill="url(#Gradient2)" rx="50" ry="50" stroke="#ffd700" stroke-width="20"/>
  <text x="400" y="920" width="780" text-anchor="middle" style="font: bold 200px 'Helvetica Neue'; fill: #ffd700">01663</text>

  <g transform="translate(80 80) scale(64)">
<rect x="0" y="0" width="1" height="1" fill="#2b3b4b" />
,<rect x="0" y="1" width="1" height="1" fill="#304050" />
,<rect x="0" y="2" width="1" height="1" fill="#324252" />
,<rect x="0" y="3" width="1" height="1" fill="#273849" />
,<rect x="0" y="4" width="1" height="1" fill="#2a3e4f" />
,<rect x="0" y="5" width="1" height="1" fill="#354c5e" />
,<rect x="0" y="6" width="1" height="1" fill="#213c4f" />
,<rect x="0" y="7" width="1" height="1" fill="#1c3b50" />
,<rect x="0" y="8" width="1" height="1" fill="#163950" />
,<rect x="0" y="9" width="1" height="1" fill="#22465e" />
,<rect x="1" y="0" width="1" height="1" fill="#f0ffff" />
,<rect x="1" y="1" width="1" height="1" fill="#eefeff" />
,<rect x="1" y="2" width="1" height="1" fill="#f1ffff" />
,<rect x="1" y="3" width="1" height="1" fill="#eafbff" />
,<rect x="1" y="4" width="1" height="1" fill="#eafeff" />
,<rect x="1" y="5" width="1" height="1" fill="#e1f8ff" />
,<rect x="1" y="6" width="1" height="1" fill="#e6ffff" />
,<rect x="1" y="7" width="1" height="1" fill="#325166" />
,<rect x="1" y="8" width="1" height="1" fill="#062940" />
,<rect x="1" y="9" width="1" height="1" fill="#1a3e56" />
,<rect x="2" y="0" width="1" height="1" fill="#8e9eae" />
,<rect x="2" y="1" width="1" height="1" fill="#90a0b0" />
,<rect x="2" y="2" width="1" height="1" fill="#8898a8" />
,<rect x="2" y="3" width="1" height="1" fill="#8293a4" />
,<rect x="2" y="4" width="1" height="1" fill="#8fa3b5" />
,<rect x="2" y="5" width="1" height="1" fill="#8ea5b8" />
,<rect x="2" y="6" width="1" height="1" fill="#8ca7bc" />
,<rect x="2" y="7" width="1" height="1" fill="#1f3e54" />
,<rect x="2" y="8" width="1" height="1" fill="#193c54" />
,<rect x="2" y="9" width="1" height="1" fill="#1f445d" />
,<rect x="3" y="0" width="1" height="1" fill="#132333" />
,<rect x="3" y="1" width="1" height="1" fill="#061626" />
,<rect x="3" y="2" width="1" height="1" fill="#142535" />
,<rect x="3" y="3" width="1" height="1" fill="#162939" />
,<rect x="3" y="4" width="1" height="1" fill="#0b1f31" />
,<rect x="3" y="5" width="1" height="1" fill="#0f2639" />
,<rect x="3" y="6" width="1" height="1" fill="#051f35" />
,<rect x="3" y="7" width="1" height="1" fill="#1c3a52" />
,<rect x="3" y="8" width="1" height="1" fill="#1c4059" />
,<rect x="3" y="9" width="1" height="1" fill="#1d425d" />
,<rect x="4" y="0" width="1" height="1" fill="#182838" />
,<rect x="4" y="1" width="1" height="1" fill="#172737" />
,<rect x="4" y="2" width="1" height="1" fill="#172838" />
,<rect x="4" y="3" width="1" height="1" fill="#0b1e2e" />
,<rect x="4" y="4" width="1" height="1" fill="#0f2335" />
,<rect x="4" y="5" width="1" height="1" fill="#1a3045" />
,<rect x="4" y="6" width="1" height="1" fill="#365067" />
,<rect x="4" y="7" width="1" height="1" fill="#1f3d56" />
,<rect x="4" y="8" width="1" height="1" fill="#193c58" />
,<rect x="4" y="9" width="1" height="1" fill="#2f5470" />
,<rect x="5" y="0" width="1" height="1" fill="#111f2f" />
,<rect x="5" y="1" width="1" height="1" fill="#2e3d4c" />
,<rect x="5" y="2" width="1" height="1" fill="#526271" />
,<rect x="5" y="3" width="1" height="1" fill="#8293a3" />
,<rect x="5" y="4" width="1" height="1" fill="#b6c9da" />
,<rect x="5" y="5" width="1" height="1" fill="#d4eafe" />
,<rect x="5" y="6" width="1" height="1" fill="#e3fcff" />
,<rect x="5" y="7" width="1" height="1" fill="#3f5c76" />
,<rect x="5" y="8" width="1" height="1" fill="#022440" />
,<rect x="5" y="9" width="1" height="1" fill="#224664" />
,<rect x="6" y="0" width="1" height="1" fill="#f6ffff" />
,<rect x="6" y="1" width="1" height="1" fill="#e8f4ff" />
,<rect x="6" y="2" width="1" height="1" fill="#f2ffff" />
,<rect x="6" y="3" width="1" height="1" fill="#f1ffff" />
,<rect x="6" y="4" width="1" height="1" fill="#d4e5f5" />
,<rect x="6" y="5" width="1" height="1" fill="#bacee0" />
,<rect x="6" y="6" width="1" height="1" fill="#97aec5" />
,<rect x="6" y="7" width="1" height="1" fill="#27425c" />
,<rect x="6" y="8" width="1" height="1" fill="#12324f" />
,<rect x="6" y="9" width="1" height="1" fill="#214361" />
,<rect x="7" y="0" width="1" height="1" fill="#77808c" />
,<rect x="7" y="1" width="1" height="1" fill="#67707c" />
,<rect x="7" y="2" width="1" height="1" fill="#eaf5ff" />
,<rect x="7" y="3" width="1" height="1" fill="#f3ffff" />
,<rect x="7" y="4" width="1" height="1" fill="#5e6d7c" />
,<rect x="7" y="5" width="1" height="1" fill="#07182a" />
,<rect x="7" y="6" width="1" height="1" fill="#0f2439" />
,<rect x="7" y="7" width="1" height="1" fill="#122c45" />
,<rect x="7" y="8" width="1" height="1" fill="#1c3a56" />
,<rect x="7" y="9" width="1" height="1" fill="#1a3a59" />
,<rect x="8" y="0" width="1" height="1" fill="#00020b" />
,<rect x="8" y="1" width="1" height="1" fill="#343b45" />
,<rect x="8" y="2" width="1" height="1" fill="#e9f1fc" />
,<rect x="8" y="3" width="1" height="1" fill="#f7ffff" />
,<rect x="8" y="4" width="1" height="1" fill="#65717f" />
,<rect x="8" y="5" width="1" height="1" fill="#051525" />
,<rect x="8" y="6" width="1" height="1" fill="#1a2e41" />
,<rect x="8" y="7" width="1" height="1" fill="#182f47" />
,<rect x="8" y="8" width="1" height="1" fill="#15314d" />
,<rect x="8" y="9" width="1" height="1" fill="#284765" />
,<rect x="9" y="0" width="1" height="1" fill="#b2b9c1" />
,<rect x="9" y="1" width="1" height="1" fill="#9299a1" />
,<rect x="9" y="2" width="1" height="1" fill="#f4fbff" />
,<rect x="9" y="3" width="1" height="1" fill="#f6feff" />
,<rect x="9" y="4" width="1" height="1" fill="#75808d" />
,<rect x="9" y="5" width="1" height="1" fill="#071525" />
,<rect x="9" y="6" width="1" height="1" fill="#0d1f33" />
,<rect x="9" y="7" width="1" height="1" fill="#172e45" />
,<rect x="9" y="8" width="1" height="1" fill="#112c48" />
,<rect x="9" y="9" width="1" height="1" fill="#1f3c5a" />

  </g>
</svg>