<svg width="800" height="1000" version="1.1" xmlns="http://www.w3.org/2000/svg" xmlns:xlink="http://www.w3.org/1999/xlink">
  <defs>
      <linearGradient id="Gradient2" x1="0" x2="1" y1="0" y2="1">
        <stop offset="0%" stop-color="#2d3c96"/>
        <stop offset="100%" stop-color="#d53392"/>
      </linearGradient>
  </defs>
  <rect x="10" y="10" width="780" height="980" fill="url(#Gradient2)" rx="50" ry="50" stroke="#ffd700" stroke-width="20"/>
  <text x="400" y="920" width="780" text-anchor="middle" style="font: bold 200px 'Helvetica Neue'; fill: #ffd700">01662</text>

  <g transform="translate(80 80) scale(64)">
<rect x="0" y="0" width="1" height="1" fill="#B3B6C7" /><rect x="1" y="0" width="1" height="1" fill="#3D4151" /><rect x="2" y="0" width="1" height="1" fill="#F4F9FF" /><rect x="3" y="0" width="1" height="1" fill="#F8FFFF" /><rect x="4" y="0" width="1" height="1" fill="#F3FEFF" /><rect x="5" y="0" width="1" height="1" fill="#F1FFFF" /><rect x="6" y="0" width="1" height="1" fill="#E0EFFB" /><rect x="7" y="0" width="1" height="1" fill="#516170" /><rect x="8" y="0" width="1" height="1" fill="#0F2032" /><rect x="9" y="0" width="1" height="1" fill="#16273B" /><rect x="0" y="1" width="1" height="1" fill="#292D3E" /><rect x="1" y="1" width="1" height="1" fill="#3C4150" /><rect x="2" y="1" width="1" height="1" fill="#F9FFFF" /><rect x="3" y="1" width="1" height="1" fill="#D6DEE9" /><rect x="4" y="1" width="1" height="1" fill="#BCC7D0" /><rect x="5" y="1" width="1" height="1" fill="#F4FFFF" /><rect x="6" y="1" width="1" height="1" fill="#C2D1DD" /><rect x="7" y="1" width="1" height="1" fill="#0C1C2B" /><rect x="8" y="1" width="1" height="1" fill="#102133" /><rect x="9" y="1" width="1" height="1" fill="#132438" /><rect x="0" y="2" width="1" height="1" fill="#1A1F2F" /><rect x="1" y="2" width="1" height="1" fill="#525867" /><rect x="2" y="2" width="1" height="1" fill="#EEF5FF" /><rect x="3" y="2" width="1" height="1" fill="#565E69" /><rect x="4" y="2" width="1" height="1" fill="#1B262F" /><rect x="5" y="2" width="1" height="1" fill="#8D9BA4" /><rect x="6" y="2" width="1" height="1" fill="#E7F6FF" /><rect x="7" y="2" width="1" height="1" fill="#1C2C3B" /><rect x="8" y="2" width="1" height="1" fill="#192A3C" /><rect x="9" y="2" width="1" height="1" fill="#1A2C40" /><rect x="0" y="3" width="1" height="1" fill="#111727" /><rect x="1" y="3" width="1" height="1" fill="#3C4353" /><rect x="2" y="3" width="1" height="1" fill="#F4FCFF" /><rect x="3" y="3" width="1" height="1" fill="#59636E" /><rect x="4" y="3" width="1" height="1" fill="#000C15" /><rect x="5" y="3" width="1" height="1" fill="#596771" /><rect x="6" y="3" width="1" height="1" fill="#EDFDFF" /><rect x="7" y="3" width="1" height="1" fill="#384A58" /><rect x="8" y="3" width="1" height="1" fill="#0C1F30" /><rect x="9" y="3" width="1" height="1" fill="#25394C" /><rect x="0" y="4" width="1" height="1" fill="#8C95A5" /><rect x="1" y="4" width="1" height="1" fill="#555E6E" /><rect x="2" y="4" width="1" height="1" fill="#F3FDFF" /><rect x="3" y="4" width="1" height="1" fill="#596572" /><rect x="4" y="4" width="1" height="1" fill="#1F2D38" /><rect x="5" y="4" width="1" height="1" fill="#2F404A" /><rect x="6" y="4" width="1" height="1" fill="#E4F6FF" /><rect x="7" y="4" width="1" height="1" fill="#6F8291" /><rect x="8" y="4" width="1" height="1" fill="#14283A" /><rect x="9" y="4" width="1" height="1" fill="#192D40" /><rect x="0" y="5" width="1" height="1" fill="#F4FFFF" /><rect x="1" y="5" width="1" height="1" fill="#5E6B7C" /><rect x="2" y="5" width="1" height="1" fill="#EDFAFF" /><rect x="3" y="5" width="1" height="1" fill="#576674" /><rect x="4" y="5" width="1" height="1" fill="#091A27" /><rect x="5" y="5" width="1" height="1" fill="#223542" /><rect x="6" y="5" width="1" height="1" fill="#E5FAFF" /><rect x="7" y="5" width="1" height="1" fill="#E0F6FF" /><rect x="8" y="5" width="1" height="1" fill="#647B8D" /><rect x="9" y="5" width="1" height="1" fill="#071D31" /><rect x="0" y="6" width="1" height="1" fill="#EAFBFF" /><rect x="1" y="6" width="1" height="1" fill="#556679" /><rect x="2" y="6" width="1" height="1" fill="#EBFDFF" /><rect x="3" y="6" width="1" height="1" fill="#546879" /><rect x="4" y="6" width="1" height="1" fill="#122637" /><rect x="5" y="6" width="1" height="1" fill="#182F3F" /><rect x="6" y="6" width="1" height="1" fill="#99B1C2" /><rect x="7" y="6" width="1" height="1" fill="#E3FCFF" /><rect x="8" y="6" width="1" height="1" fill="#738CA0" /><rect x="9" y="6" width="1" height="1" fill="#0D263B" /><rect x="0" y="7" width="1" height="1" fill="#3F556A" /><rect x="1" y="7" width="1" height="1" fill="#182E43" /><rect x="2" y="7" width="1" height="1" fill="#3B5166" /><rect x="3" y="7" width="1" height="1" fill="#172F43" /><rect x="4" y="7" width="1" height="1" fill="#284156" /><rect x="5" y="7" width="1" height="1" fill="#102A3F" /><rect x="6" y="7" width="1" height="1" fill="#2A465A" /><rect x="7" y="7" width="1" height="1" fill="#7692A7" /><rect x="8" y="7" width="1" height="1" fill="#112D43" /><rect x="9" y="7" width="1" height="1" fill="#173349" /><rect x="0" y="8" width="1" height="1" fill="#09253B" /><rect x="1" y="8" width="1" height="1" fill="#132F46" /><rect x="2" y="8" width="1" height="1" fill="#042037" /><rect x="3" y="8" width="1" height="1" fill="#143048" /><rect x="4" y="8" width="1" height="1" fill="#0E2B44" /><rect x="5" y="8" width="1" height="1" fill="#102E47" /><rect x="6" y="8" width="1" height="1" fill="#0D2D44" /><rect x="7" y="8" width="1" height="1" fill="#022239" /><rect x="8" y="8" width="1" height="1" fill="#0A2A41" /><rect x="9" y="8" width="1" height="1" fill="#0C2C44" /><rect x="0" y="9" width="1" height="1" fill="#213F57" /><rect x="1" y="9" width="1" height="1" fill="#1F3D56" /><rect x="2" y="9" width="1" height="1" fill="#1A3851" /><rect x="3" y="9" width="1" height="1" fill="#22405A" /><rect x="4" y="9" width="1" height="1" fill="#1D3C57" /><rect x="5" y="9" width="1" height="1" fill="#20415B" /><rect x="6" y="9" width="1" height="1" fill="#1A3B54" /><rect x="7" y="9" width="1" height="1" fill="#1D3F58" /><rect x="8" y="9" width="1" height="1" fill="#1F415A" /><rect x="9" y="9" width="1" height="1" fill="#23455E" />
  </g>
</svg>