<svg width="800" height="1000" version="1.1" xmlns="http://www.w3.org/2000/svg" xmlns:xlink="http://www.w3.org/1999/xlink">
  <defs>
      <linearGradient id="Gradient2" x1="0" x2="1" y1="0" y2="1">
        <stop offset="0%" stop-color="#2d3c96"/>
        <stop offset="100%" stop-color="#d53392"/>
      </linearGradient>
  </defs>
  <rect x="10" y="10" width="780" height="980" fill="url(#Gradient2)" rx="50" ry="50" stroke="#ffd700" stroke-width="20"/>
  <text x="400" y="920" width="780" text-anchor="middle" style="font: bold 200px 'Helvetica Neue'; fill: #ffd700">01708</text>

  <g transform="translate(80 80) scale(64)">
<rect x="0" y="0" width="1" height="1" fill="#6f737c" />
,<rect x="0" y="1" width="1" height="1" fill="#3a3a44" />
,<rect x="0" y="2" width="1" height="1" fill="#181820" />
,<rect x="0" y="3" width="1" height="1" fill="#1f2229" />
,<rect x="0" y="4" width="1" height="1" fill="#323136" />
,<rect x="0" y="5" width="1" height="1" fill="#323337" />
,<rect x="0" y="6" width="1" height="1" fill="#8a817a" />
,<rect x="0" y="7" width="1" height="1" fill="#968b75" />
,<rect x="0" y="8" width="1" height="1" fill="#8b806c" />
,<rect x="0" y="9" width="1" height="1" fill="#928572" />
,<rect x="1" y="0" width="1" height="1" fill="#5a626d" />
,<rect x="1" y="1" width="1" height="1" fill="#3f484f" />
,<rect x="1" y="2" width="1" height="1" fill="#18191e" />
,<rect x="1" y="3" width="1" height="1" fill="#101116" />
,<rect x="1" y="4" width="1" height="1" fill="#111016" />
,<rect x="1" y="5" width="1" height="1" fill="#0d1112" />
,<rect x="1" y="6" width="1" height="1" fill="#998d7d" />
,<rect x="1" y="7" width="1" height="1" fill="#908069" />
,<rect x="1" y="8" width="1" height="1" fill="#827966" />
,<rect x="1" y="9" width="1" height="1" fill="#89806d" />
,<rect x="2" y="0" width="1" height="1" fill="#838884" />
,<rect x="2" y="1" width="1" height="1" fill="#7b7d7c" />
,<rect x="2" y="2" width="1" height="1" fill="#262834" />
,<rect x="2" y="3" width="1" height="1" fill="#13131b" />
,<rect x="2" y="4" width="1" height="1" fill="#111518" />
,<rect x="2" y="5" width="1" height="1" fill="#121119" />
,<rect x="2" y="6" width="1" height="1" fill="#9c8f7e" />
,<rect x="2" y="7" width="1" height="1" fill="#9d8c72" />
,<rect x="2" y="8" width="1" height="1" fill="#82826a" />
,<rect x="2" y="9" width="1" height="1" fill="#988a70" />
,<rect x="3" y="0" width="1" height="1" fill="#7f7e7c" />
,<rect x="3" y="1" width="1" height="1" fill="#7e7d7b" />
,<rect x="3" y="2" width="1" height="1" fill="#3b3f4a" />
,<rect x="3" y="3" width="1" height="1" fill="#101318" />
,<rect x="3" y="4" width="1" height="1" fill="#111111" />
,<rect x="3" y="5" width="1" height="1" fill="#0e0d15" />
,<rect x="3" y="6" width="1" height="1" fill="#948570" />
,<rect x="3" y="7" width="1" height="1" fill="#a39379" />
,<rect x="3" y="8" width="1" height="1" fill="#8b8670" />
,<rect x="3" y="9" width="1" height="1" fill="#988a6d" />
,<rect x="4" y="0" width="1" height="1" fill="#7d7c77" />
,<rect x="4" y="1" width="1" height="1" fill="#8f8a84" />
,<rect x="4" y="2" width="1" height="1" fill="#57545b" />
,<rect x="4" y="3" width="1" height="1" fill="#0d1113" />
,<rect x="4" y="4" width="1" height="1" fill="#101012" />
,<rect x="4" y="5" width="1" height="1" fill="#08090e" />
,<rect x="4" y="6" width="1" height="1" fill="#7b6e65" />
,<rect x="4" y="7" width="1" height="1" fill="#a8987e" />
,<rect x="4" y="8" width="1" height="1" fill="#8b8470" />
,<rect x="4" y="9" width="1" height="1" fill="#a39379" />
,<rect x="5" y="0" width="1" height="1" fill="#918a7a" />
,<rect x="5" y="1" width="1" height="1" fill="#9f9685" />
,<rect x="5" y="2" width="1" height="1" fill="#766c6a" />
,<rect x="5" y="3" width="1" height="1" fill="#141318" />
,<rect x="5" y="4" width="1" height="1" fill="#0f0e14" />
,<rect x="5" y="5" width="1" height="1" fill="#02050a" />
,<rect x="5" y="6" width="1" height="1" fill="#71675b" />
,<rect x="5" y="7" width="1" height="1" fill="#a89a7f" />
,<rect x="5" y="8" width="1" height="1" fill="#8d8578" />
,<rect x="5" y="9" width="1" height="1" fill="#9a927b" />
,<rect x="6" y="0" width="1" height="1" fill="#928c7e" />
,<rect x="6" y="1" width="1" height="1" fill="#a29582" />
,<rect x="6" y="2" width="1" height="1" fill="#726761" />
,<rect x="6" y="3" width="1" height="1" fill="#121119" />
,<rect x="6" y="4" width="1" height="1" fill="#0b0e13" />
,<rect x="6" y="5" width="1" height="1" fill="#03080c" />
,<rect x="6" y="6" width="1" height="1" fill="#796d5d" />
,<rect x="6" y="7" width="1" height="1" fill="#ab9d80" />
,<rect x="6" y="8" width="1" height="1" fill="#8d8578" />
,<rect x="6" y="9" width="1" height="1" fill="#9e9681" />
,<rect x="7" y="0" width="1" height="1" fill="#958d82" />
,<rect x="7" y="1" width="1" height="1" fill="#a69a82" />
,<rect x="7" y="2" width="1" height="1" fill="#504845" />
,<rect x="7" y="3" width="1" height="1" fill="#0d1015" />
,<rect x="7" y="4" width="1" height="1" fill="#11110f" />
,<rect x="7" y="5" width="1" height="1" fill="#050511" />
,<rect x="7" y="6" width="1" height="1" fill="#807361" />
,<rect x="7" y="7" width="1" height="1" fill="#b09d7f" />
,<rect x="7" y="8" width="1" height="1" fill="#8f8979" />
,<rect x="7" y="9" width="1" height="1" fill="#a59885" />
,<rect x="8" y="0" width="1" height="1" fill="#9c9380" />
,<rect x="8" y="1" width="1" height="1" fill="#a69480" />
,<rect x="8" y="2" width="1" height="1" fill="#37363b" />
,<rect x="8" y="3" width="1" height="1" fill="#0f1012" />
,<rect x="8" y="4" width="1" height="1" fill="#101417" />
,<rect x="8" y="5" width="1" height="1" fill="#05080d" />
,<rect x="8" y="6" width="1" height="1" fill="#827263" />
,<rect x="8" y="7" width="1" height="1" fill="#b4a586" />
,<rect x="8" y="8" width="1" height="1" fill="#968a7c" />
,<rect x="8" y="9" width="1" height="1" fill="#a99b7e" />
,<rect x="9" y="0" width="1" height="1" fill="#a89c82" />
,<rect x="9" y="1" width="1" height="1" fill="#a7957d" />
,<rect x="9" y="2" width="1" height="1" fill="#343237" />
,<rect x="9" y="3" width="1" height="1" fill="#0f0e16" />
,<rect x="9" y="4" width="1" height="1" fill="#110f12" />
,<rect x="9" y="5" width="1" height="1" fill="#07060c" />
,<rect x="9" y="6" width="1" height="1" fill="#7d7161" />
,<rect x="9" y="7" width="1" height="1" fill="#c2ad8e" />
,<rect x="9" y="8" width="1" height="1" fill="#a49d83" />
,<rect x="9" y="9" width="1" height="1" fill="#a99d83" />

  </g>
</svg>