<svg width="800" height="1000" version="1.1" xmlns="http://www.w3.org/2000/svg" xmlns:xlink="http://www.w3.org/1999/xlink">
  <defs>
      <linearGradient id="Gradient2" x1="0" x2="1" y1="0" y2="1">
        <stop offset="0%" stop-color="#2d3c96"/>
        <stop offset="100%" stop-color="#d53392"/>
      </linearGradient>
  </defs>
  <rect x="10" y="10" width="780" height="980" fill="url(#Gradient2)" rx="50" ry="50" stroke="#ffd700" stroke-width="20"/>
  <text x="400" y="920" width="780" text-anchor="middle" style="font: bold 200px 'Helvetica Neue'; fill: #ffd700">01708</text>

  <g transform="translate(80 80) scale(64)">
<rect x="0" y="0" width="1" height="1" fill="#6F737C" /><rect x="1" y="0" width="1" height="1" fill="#5A626D" /><rect x="2" y="0" width="1" height="1" fill="#838884" /><rect x="3" y="0" width="1" height="1" fill="#7F7E7C" /><rect x="4" y="0" width="1" height="1" fill="#7D7C77" /><rect x="5" y="0" width="1" height="1" fill="#918A7A" /><rect x="6" y="0" width="1" height="1" fill="#928C7E" /><rect x="7" y="0" width="1" height="1" fill="#958D82" /><rect x="8" y="0" width="1" height="1" fill="#9C9380" /><rect x="9" y="0" width="1" height="1" fill="#A89C82" /><rect x="0" y="1" width="1" height="1" fill="#3A3A44" /><rect x="1" y="1" width="1" height="1" fill="#3F484F" /><rect x="2" y="1" width="1" height="1" fill="#7B7D7C" /><rect x="3" y="1" width="1" height="1" fill="#7E7D7B" /><rect x="4" y="1" width="1" height="1" fill="#8F8A84" /><rect x="5" y="1" width="1" height="1" fill="#9F9685" /><rect x="6" y="1" width="1" height="1" fill="#A29582" /><rect x="7" y="1" width="1" height="1" fill="#A69A82" /><rect x="8" y="1" width="1" height="1" fill="#A69480" /><rect x="9" y="1" width="1" height="1" fill="#A7957D" /><rect x="0" y="2" width="1" height="1" fill="#181820" /><rect x="1" y="2" width="1" height="1" fill="#18191E" /><rect x="2" y="2" width="1" height="1" fill="#262834" /><rect x="3" y="2" width="1" height="1" fill="#3B3F4A" /><rect x="4" y="2" width="1" height="1" fill="#57545B" /><rect x="5" y="2" width="1" height="1" fill="#766C6A" /><rect x="6" y="2" width="1" height="1" fill="#726761" /><rect x="7" y="2" width="1" height="1" fill="#504845" /><rect x="8" y="2" width="1" height="1" fill="#37363B" /><rect x="9" y="2" width="1" height="1" fill="#343237" /><rect x="0" y="3" width="1" height="1" fill="#1F2229" /><rect x="1" y="3" width="1" height="1" fill="#101116" /><rect x="2" y="3" width="1" height="1" fill="#13131B" /><rect x="3" y="3" width="1" height="1" fill="#101318" /><rect x="4" y="3" width="1" height="1" fill="#0D1113" /><rect x="5" y="3" width="1" height="1" fill="#141318" /><rect x="6" y="3" width="1" height="1" fill="#121119" /><rect x="7" y="3" width="1" height="1" fill="#0D1015" /><rect x="8" y="3" width="1" height="1" fill="#0F1012" /><rect x="9" y="3" width="1" height="1" fill="#0F0E16" /><rect x="0" y="4" width="1" height="1" fill="#323136" /><rect x="1" y="4" width="1" height="1" fill="#111016" /><rect x="2" y="4" width="1" height="1" fill="#111518" /><rect x="3" y="4" width="1" height="1" fill="#111111" /><rect x="4" y="4" width="1" height="1" fill="#101012" /><rect x="5" y="4" width="1" height="1" fill="#0F0E14" /><rect x="6" y="4" width="1" height="1" fill="#0B0E13" /><rect x="7" y="4" width="1" height="1" fill="#11110F" /><rect x="8" y="4" width="1" height="1" fill="#101417" /><rect x="9" y="4" width="1" height="1" fill="#110F12" /><rect x="0" y="5" width="1" height="1" fill="#323337" /><rect x="1" y="5" width="1" height="1" fill="#0D1112" /><rect x="2" y="5" width="1" height="1" fill="#121119" /><rect x="3" y="5" width="1" height="1" fill="#0E0D15" /><rect x="4" y="5" width="1" height="1" fill="#08090E" /><rect x="5" y="5" width="1" height="1" fill="#02050A" /><rect x="6" y="5" width="1" height="1" fill="#03080C" /><rect x="7" y="5" width="1" height="1" fill="#050511" /><rect x="8" y="5" width="1" height="1" fill="#05080D" /><rect x="9" y="5" width="1" height="1" fill="#07060C" /><rect x="0" y="6" width="1" height="1" fill="#8A817A" /><rect x="1" y="6" width="1" height="1" fill="#998D7D" /><rect x="2" y="6" width="1" height="1" fill="#9C8F7E" /><rect x="3" y="6" width="1" height="1" fill="#948570" /><rect x="4" y="6" width="1" height="1" fill="#7B6E65" /><rect x="5" y="6" width="1" height="1" fill="#71675B" /><rect x="6" y="6" width="1" height="1" fill="#796D5D" /><rect x="7" y="6" width="1" height="1" fill="#807361" /><rect x="8" y="6" width="1" height="1" fill="#827263" /><rect x="9" y="6" width="1" height="1" fill="#7D7161" /><rect x="0" y="7" width="1" height="1" fill="#968B75" /><rect x="1" y="7" width="1" height="1" fill="#908069" /><rect x="2" y="7" width="1" height="1" fill="#9D8C72" /><rect x="3" y="7" width="1" height="1" fill="#A39379" /><rect x="4" y="7" width="1" height="1" fill="#A8987E" /><rect x="5" y="7" width="1" height="1" fill="#A89A7F" /><rect x="6" y="7" width="1" height="1" fill="#AB9D80" /><rect x="7" y="7" width="1" height="1" fill="#B09D7F" /><rect x="8" y="7" width="1" height="1" fill="#B4A586" /><rect x="9" y="7" width="1" height="1" fill="#C2AD8E" /><rect x="0" y="8" width="1" height="1" fill="#8B806C" /><rect x="1" y="8" width="1" height="1" fill="#827966" /><rect x="2" y="8" width="1" height="1" fill="#82826A" /><rect x="3" y="8" width="1" height="1" fill="#8B8670" /><rect x="4" y="8" width="1" height="1" fill="#8B8470" /><rect x="5" y="8" width="1" height="1" fill="#8D8578" /><rect x="6" y="8" width="1" height="1" fill="#8D8578" /><rect x="7" y="8" width="1" height="1" fill="#8F8979" /><rect x="8" y="8" width="1" height="1" fill="#968A7C" /><rect x="9" y="8" width="1" height="1" fill="#A49D83" /><rect x="0" y="9" width="1" height="1" fill="#928572" /><rect x="1" y="9" width="1" height="1" fill="#89806D" /><rect x="2" y="9" width="1" height="1" fill="#988A70" /><rect x="3" y="9" width="1" height="1" fill="#988A6D" /><rect x="4" y="9" width="1" height="1" fill="#A39379" /><rect x="5" y="9" width="1" height="1" fill="#9A927B" /><rect x="6" y="9" width="1" height="1" fill="#9E9681" /><rect x="7" y="9" width="1" height="1" fill="#A59885" /><rect x="8" y="9" width="1" height="1" fill="#A99B7E" /><rect x="9" y="9" width="1" height="1" fill="#A99D83" />
  </g>
</svg>