<svg width="800" height="1000" version="1.1" xmlns="http://www.w3.org/2000/svg" xmlns:xlink="http://www.w3.org/1999/xlink">
  <defs>
      <linearGradient id="Gradient2" x1="0" x2="1" y1="0" y2="1">
        <stop offset="0%" stop-color="#2d3c96"/>
        <stop offset="100%" stop-color="#d53392"/>
      </linearGradient>
  </defs>
  <rect x="10" y="10" width="780" height="980" fill="url(#Gradient2)" rx="50" ry="50" stroke="#ffd700" stroke-width="20"/>
  <text x="400" y="920" width="780" text-anchor="middle" style="font: bold 200px 'Helvetica Neue'; fill: #ffd700">01709</text>

  <g transform="translate(80 80) scale(64)">
<rect x="0" y="0" width="1" height="1" fill="#AA9C82" /><rect x="1" y="0" width="1" height="1" fill="#AB9B82" /><rect x="2" y="0" width="1" height="1" fill="#ABA188" /><rect x="3" y="0" width="1" height="1" fill="#A49880" /><rect x="4" y="0" width="1" height="1" fill="#A79A8A" /><rect x="5" y="0" width="1" height="1" fill="#AD9E89" /><rect x="6" y="0" width="1" height="1" fill="#A8A185" /><rect x="7" y="0" width="1" height="1" fill="#A8A38D" /><rect x="8" y="0" width="1" height="1" fill="#A9A48F" /><rect x="9" y="0" width="1" height="1" fill="#AAA48E" /><rect x="0" y="1" width="1" height="1" fill="#AC9C82" /><rect x="1" y="1" width="1" height="1" fill="#9B8E7B" /><rect x="2" y="1" width="1" height="1" fill="#A09380" /><rect x="3" y="1" width="1" height="1" fill="#B1A386" /><rect x="4" y="1" width="1" height="1" fill="#B1A388" /><rect x="5" y="1" width="1" height="1" fill="#B2A88D" /><rect x="6" y="1" width="1" height="1" fill="#A5A28F" /><rect x="7" y="1" width="1" height="1" fill="#9FA092" /><rect x="8" y="1" width="1" height="1" fill="#A19F90" /><rect x="9" y="1" width="1" height="1" fill="#969B87" /><rect x="0" y="2" width="1" height="1" fill="#403E42" /><rect x="1" y="2" width="1" height="1" fill="#2F2C33" /><rect x="2" y="2" width="1" height="1" fill="#2B2B2D" /><rect x="3" y="2" width="1" height="1" fill="#545454" /><rect x="4" y="2" width="1" height="1" fill="#726B65" /><rect x="5" y="2" width="1" height="1" fill="#7F776C" /><rect x="6" y="2" width="1" height="1" fill="#969286" /><rect x="7" y="2" width="1" height="1" fill="#9C9C92" /><rect x="8" y="2" width="1" height="1" fill="#929790" /><rect x="9" y="2" width="1" height="1" fill="#95968E" /><rect x="0" y="3" width="1" height="1" fill="#0D0C14" /><rect x="1" y="3" width="1" height="1" fill="#131218" /><rect x="2" y="3" width="1" height="1" fill="#121317" /><rect x="3" y="3" width="1" height="1" fill="#121318" /><rect x="4" y="3" width="1" height="1" fill="#15141C" /><rect x="5" y="3" width="1" height="1" fill="#14141C" /><rect x="6" y="3" width="1" height="1" fill="#26252D" /><rect x="7" y="3" width="1" height="1" fill="#36353B" /><rect x="8" y="3" width="1" height="1" fill="#3F3F41" /><rect x="9" y="3" width="1" height="1" fill="#5E5E5E" /><rect x="0" y="4" width="1" height="1" fill="#121317" /><rect x="1" y="4" width="1" height="1" fill="#101318" /><rect x="2" y="4" width="1" height="1" fill="#101114" /><rect x="3" y="4" width="1" height="1" fill="#0F1013" /><rect x="4" y="4" width="1" height="1" fill="#15161A" /><rect x="5" y="4" width="1" height="1" fill="#151419" /><rect x="6" y="4" width="1" height="1" fill="#0F0E12" /><rect x="7" y="4" width="1" height="1" fill="#0E0F11" /><rect x="8" y="4" width="1" height="1" fill="#0E0B16" /><rect x="9" y="4" width="1" height="1" fill="#111119" /><rect x="0" y="5" width="1" height="1" fill="#07060B" /><rect x="1" y="5" width="1" height="1" fill="#07060C" /><rect x="2" y="5" width="1" height="1" fill="#06050D" /><rect x="3" y="5" width="1" height="1" fill="#05040A" /><rect x="4" y="5" width="1" height="1" fill="#05040A" /><rect x="5" y="5" width="1" height="1" fill="#07060C" /><rect x="6" y="5" width="1" height="1" fill="#05050D" /><rect x="7" y="5" width="1" height="1" fill="#04030B" /><rect x="8" y="5" width="1" height="1" fill="#03070A" /><rect x="9" y="5" width="1" height="1" fill="#07080D" /><rect x="0" y="6" width="1" height="1" fill="#7C7064" /><rect x="1" y="6" width="1" height="1" fill="#786F5E" /><rect x="2" y="6" width="1" height="1" fill="#7A6E62" /><rect x="3" y="6" width="1" height="1" fill="#71675D" /><rect x="4" y="6" width="1" height="1" fill="#696057" /><rect x="5" y="6" width="1" height="1" fill="#5C554D" /><rect x="6" y="6" width="1" height="1" fill="#554B42" /><rect x="7" y="6" width="1" height="1" fill="#534C44" /><rect x="8" y="6" width="1" height="1" fill="#4F463D" /><rect x="9" y="6" width="1" height="1" fill="#4D4540" /><rect x="0" y="7" width="1" height="1" fill="#CAB393" /><rect x="1" y="7" width="1" height="1" fill="#CAB391" /><rect x="2" y="7" width="1" height="1" fill="#C7B392" /><rect x="3" y="7" width="1" height="1" fill="#C5B292" /><rect x="4" y="7" width="1" height="1" fill="#C7B293" /><rect x="5" y="7" width="1" height="1" fill="#C7B496" /><rect x="6" y="7" width="1" height="1" fill="#C8B597" /><rect x="7" y="7" width="1" height="1" fill="#CAB799" /><rect x="8" y="7" width="1" height="1" fill="#CAB695" /><rect x="9" y="7" width="1" height="1" fill="#C8B394" /><rect x="0" y="8" width="1" height="1" fill="#B09F83" /><rect x="1" y="8" width="1" height="1" fill="#B7A38A" /><rect x="2" y="8" width="1" height="1" fill="#B6A989" /><rect x="3" y="8" width="1" height="1" fill="#B4A787" /><rect x="4" y="8" width="1" height="1" fill="#B8A789" /><rect x="5" y="8" width="1" height="1" fill="#BCA68E" /><rect x="6" y="8" width="1" height="1" fill="#BBAB91" /><rect x="7" y="8" width="1" height="1" fill="#B9A88E" /><rect x="8" y="8" width="1" height="1" fill="#BBAA90" /><rect x="9" y="8" width="1" height="1" fill="#B9A78F" /><rect x="0" y="9" width="1" height="1" fill="#ADA187" /><rect x="1" y="9" width="1" height="1" fill="#B6A68D" /><rect x="2" y="9" width="1" height="1" fill="#B7A68C" /><rect x="3" y="9" width="1" height="1" fill="#BBA78E" /><rect x="4" y="9" width="1" height="1" fill="#B7A38B" /><rect x="5" y="9" width="1" height="1" fill="#B7A98F" /><rect x="6" y="9" width="1" height="1" fill="#BBA687" /><rect x="7" y="9" width="1" height="1" fill="#B8A88E" /><rect x="8" y="9" width="1" height="1" fill="#B4A48B" /><rect x="9" y="9" width="1" height="1" fill="#B2A28B" />
  </g>
</svg>