<svg width="800" height="1000" xmlns="http://www.w3.org/2000/svg"><defs><linearGradient id="g" x1="0" x2="1" y1="0" y2="1"><stop offset="0%" stop-color="#2d3c96"/><stop offset="100%" stop-color="#d53392"/></linearGradient></defs><rect x="10" y="10" width="780" height="980" fill="url(#g)" rx="50" ry="50" stroke="gold" stroke-width="20"/><text x="400" y="920" width="780" text-anchor="middle" style="font:bold 200px 'Helvetica Neue';fill:gold">01711</text><g transform="translate(80 80) scale(64)"><rect x="0" y="0" width="1" height="1" fill="#a59f85" /><rect x="0" y="1" width="1" height="1" fill="#aa9a81" /><rect x="0" y="2" width="1" height="1" fill="#ae9e85" /><rect x="0" y="3" width="1" height="1" fill="#7d776b" /><rect x="0" y="4" width="1" height="1" fill="#111419" /><rect x="0" y="5" width="1" height="1" fill="#08070d" /><rect x="0" y="6" width="1" height="1" fill="#5a5750" /><rect x="0" y="7" width="1" height="1" fill="#b0a086" /><rect x="0" y="8" width="1" height="1" fill="#a49a7e" /><rect x="0" y="9" width="1" height="1" fill="#9f9780" /><rect x="1" y="0" width="1" height="1" fill="#a69e89" /><rect x="1" y="1" width="1" height="1" fill="#aa9c7f" /><rect x="1" y="2" width="1" height="1" fill="#ae9e84" /><rect x="1" y="3" width="1" height="1" fill="#81786f" /><rect x="1" y="4" width="1" height="1" fill="#17181c" /><rect x="1" y="5" width="1" height="1" fill="#0a0911" /><rect x="1" y="6" width="1" height="1" fill="#5c5b56" /><rect x="1" y="7" width="1" height="1" fill="#a89c84" /><rect x="1" y="8" width="1" height="1" fill="#a49983" /><rect x="1" y="9" width="1" height="1" fill="#9e9783" /><rect x="2" y="0" width="1" height="1" fill="#a6a086" /><rect x="2" y="1" width="1" height="1" fill="#af9f85" /><rect x="2" y="2" width="1" height="1" fill="#aea083" /><rect x="2" y="3" width="1" height="1" fill="#65605a" /><rect x="2" y="4" width="1" height="1" fill="#121318" /><rect x="2" y="5" width="1" height="1" fill="#060a13" /><rect x="2" y="6" width="1" height="1" fill="#5b5853" /><rect x="2" y="7" width="1" height="1" fill="#a49880" /><rect x="2" y="8" width="1" height="1" fill="#9f9981" /><rect x="2" y="9" width="1" height="1" fill="#9e9681" /><rect x="3" y="0" width="1" height="1" fill="#a99988" /><rect x="3" y="1" width="1" height="1" fill="#a89d87" /><rect x="3" y="2" width="1" height="1" fill="#ac9c82" /><rect x="3" y="3" width="1" height="1" fill="#595450" /><rect x="3" y="4" width="1" height="1" fill="#0f0e16" /><rect x="3" y="5" width="1" height="1" fill="#080b12" /><rect x="3" y="6" width="1" height="1" fill="#57544f" /><rect x="3" y="7" width="1" height="1" fill="#a3977d" /><rect x="3" y="8" width="1" height="1" fill="#99927f" /><rect x="3" y="9" width="1" height="1" fill="#95907a" /><rect x="4" y="0" width="1" height="1" fill="#aba08c" /><rect x="4" y="1" width="1" height="1" fill="#a59f87" /><rect x="4" y="2" width="1" height="1" fill="#b0a087" /><rect x="4" y="3" width="1" height="1" fill="#544f4c" /><rect x="4" y="4" width="1" height="1" fill="#0d0b10" /><rect x="4" y="5" width="1" height="1" fill="#08090e" /><rect x="4" y="6" width="1" height="1" fill="#56514b" /><rect x="4" y="7" width="1" height="1" fill="#968e77" /><rect x="4" y="8" width="1" height="1" fill="#8f8c7d" /><rect x="4" y="9" width="1" height="1" fill="#8c8976" /><rect x="5" y="0" width="1" height="1" fill="#999781" /><rect x="5" y="1" width="1" height="1" fill="#a09985" /><rect x="5" y="2" width="1" height="1" fill="#a89d87" /><rect x="5" y="3" width="1" height="1" fill="#433f40" /><rect x="5" y="4" width="1" height="1" fill="#08090b" /><rect x="5" y="5" width="1" height="1" fill="#05050d" /><rect x="5" y="6" width="1" height="1" fill="#5f5553" /><rect x="5" y="7" width="1" height="1" fill="#9b937a" /><rect x="5" y="8" width="1" height="1" fill="#86867a" /><rect x="5" y="9" width="1" height="1" fill="#888574" /><rect x="6" y="0" width="1" height="1" fill="#596c73" /><rect x="6" y="1" width="1" height="1" fill="#959185" /><rect x="6" y="2" width="1" height="1" fill="#9d9789" /><rect x="6" y="3" width="1" height="1" fill="#353334" /><rect x="6" y="4" width="1" height="1" fill="#0a090f" /><rect x="6" y="5" width="1" height="1" fill="#090810" /><rect x="6" y="6" width="1" height="1" fill="#655e56" /><rect x="6" y="7" width="1" height="1" fill="#9c9579" /><rect x="6" y="8" width="1" height="1" fill="#807c70" /><rect x="6" y="9" width="1" height="1" fill="#878471" /><rect x="7" y="0" width="1" height="1" fill="#42606b" /><rect x="7" y="1" width="1" height="1" fill="#7b8680" /><rect x="7" y="2" width="1" height="1" fill="#959188" /><rect x="7" y="3" width="1" height="1" fill="#42413f" /><rect x="7" y="4" width="1" height="1" fill="#09080e" /><rect x="7" y="5" width="1" height="1" fill="#0a0a12" /><rect x="7" y="6" width="1" height="1" fill="#645955" /><rect x="7" y="7" width="1" height="1" fill="#938c70" /><rect x="7" y="8" width="1" height="1" fill="#777566" /><rect x="7" y="9" width="1" height="1" fill="#89846e" /><rect x="8" y="0" width="1" height="1" fill="#335267" /><rect x="8" y="1" width="1" height="1" fill="#77827e" /><rect x="8" y="2" width="1" height="1" fill="#9e9a8e" /><rect x="8" y="3" width="1" height="1" fill="#565752" /><rect x="8" y="4" width="1" height="1" fill="#0e0d11" /><rect x="8" y="5" width="1" height="1" fill="#0c0c14" /><rect x="8" y="6" width="1" height="1" fill="#5f554c" /><rect x="8" y="7" width="1" height="1" fill="#918972" /><rect x="8" y="8" width="1" height="1" fill="#6c6a5e" /><rect x="8" y="9" width="1" height="1" fill="#827c66" /><rect x="9" y="0" width="1" height="1" fill="#344f62" /><rect x="9" y="1" width="1" height="1" fill="#6e7376" /><rect x="9" y="2" width="1" height="1" fill="#949085" /><rect x="9" y="3" width="1" height="1" fill="#6c6865" /><rect x="9" y="4" width="1" height="1" fill="#17141b" /><rect x="9" y="5" width="1" height="1" fill="#15141a" /><rect x="9" y="6" width="1" height="1" fill="#736b60" /><rect x="9" y="7" width="1" height="1" fill="#938874" /><rect x="9" y="8" width="1" height="1" fill="#79776a" /><rect x="9" y="9" width="1" height="1" fill="#857f67" /></g></svg>