<svg width="800" height="1000" version="1.1" xmlns="http://www.w3.org/2000/svg" xmlns:xlink="http://www.w3.org/1999/xlink">
  <defs>
      <linearGradient id="Gradient2" x1="0" x2="1" y1="0" y2="1">
        <stop offset="0%" stop-color="#2d3c96"/>
        <stop offset="100%" stop-color="#d53392"/>
      </linearGradient>
  </defs>
  <rect x="10" y="10" width="780" height="980" fill="url(#Gradient2)" rx="50" ry="50" stroke="#ffd700" stroke-width="20"/>
  <text x="400" y="920" width="780" text-anchor="middle" style="font: bold 200px 'Helvetica Neue'; fill: #ffd700">01710</text>

  <g transform="translate(80 80) scale(64)">
<rect x="0" y="0" width="1" height="1" fill="#a29f8e" />
,<rect x="0" y="1" width="1" height="1" fill="#939486" />
,<rect x="0" y="2" width="1" height="1" fill="#98988e" />
,<rect x="0" y="3" width="1" height="1" fill="#84847c" />
,<rect x="0" y="4" width="1" height="1" fill="#1d1c22" />
,<rect x="0" y="5" width="1" height="1" fill="#04040c" />
,<rect x="0" y="6" width="1" height="1" fill="#4d443b" />
,<rect x="0" y="7" width="1" height="1" fill="#cab894" />
,<rect x="0" y="8" width="1" height="1" fill="#b8a891" />
,<rect x="0" y="9" width="1" height="1" fill="#b4a48b" />
,<rect x="1" y="0" width="1" height="1" fill="#979588" />
,<rect x="1" y="1" width="1" height="1" fill="#959589" />
,<rect x="1" y="2" width="1" height="1" fill="#9b998a" />
,<rect x="1" y="3" width="1" height="1" fill="#8c8c82" />
,<rect x="1" y="4" width="1" height="1" fill="#232228" />
,<rect x="1" y="5" width="1" height="1" fill="#03030b" />
,<rect x="1" y="6" width="1" height="1" fill="#504941" />
,<rect x="1" y="7" width="1" height="1" fill="#c8b394" />
,<rect x="1" y="8" width="1" height="1" fill="#b3a491" />
,<rect x="1" y="9" width="1" height="1" fill="#b3a78d" />
,<rect x="2" y="0" width="1" height="1" fill="#989987" />
,<rect x="2" y="1" width="1" height="1" fill="#989689" />
,<rect x="2" y="2" width="1" height="1" fill="#a19c89" />
,<rect x="2" y="3" width="1" height="1" fill="#838079" />
,<rect x="2" y="4" width="1" height="1" fill="#17181c" />
,<rect x="2" y="5" width="1" height="1" fill="#04040c" />
,<rect x="2" y="6" width="1" height="1" fill="#534e48" />
,<rect x="2" y="7" width="1" height="1" fill="#c9b696" />
,<rect x="2" y="8" width="1" height="1" fill="#b6a790" />
,<rect x="2" y="9" width="1" height="1" fill="#b4a590" />
,<rect x="3" y="0" width="1" height="1" fill="#9c9a8b" />
,<rect x="3" y="1" width="1" height="1" fill="#a6a090" />
,<rect x="3" y="2" width="1" height="1" fill="#a7a08e" />
,<rect x="3" y="3" width="1" height="1" fill="#706c6b" />
,<rect x="3" y="4" width="1" height="1" fill="#0d1112" />
,<rect x="3" y="5" width="1" height="1" fill="#05040a" />
,<rect x="3" y="6" width="1" height="1" fill="#57504a" />
,<rect x="3" y="7" width="1" height="1" fill="#c7b392" />
,<rect x="3" y="8" width="1" height="1" fill="#b8a891" />
,<rect x="3" y="9" width="1" height="1" fill="#b4a38f" />
,<rect x="4" y="0" width="1" height="1" fill="#9e9c85" />
,<rect x="4" y="1" width="1" height="1" fill="#a59989" />
,<rect x="4" y="2" width="1" height="1" fill="#a9a08e" />
,<rect x="4" y="3" width="1" height="1" fill="#565251" />
,<rect x="4" y="4" width="1" height="1" fill="#0b080f" />
,<rect x="4" y="5" width="1" height="1" fill="#01040b" />
,<rect x="4" y="6" width="1" height="1" fill="#61584f" />
,<rect x="4" y="7" width="1" height="1" fill="#cab391" />
,<rect x="4" y="8" width="1" height="1" fill="#b2a489" />
,<rect x="4" y="9" width="1" height="1" fill="#ada28e" />
,<rect x="5" y="0" width="1" height="1" fill="#9d9b85" />
,<rect x="5" y="1" width="1" height="1" fill="#a39a87" />
,<rect x="5" y="2" width="1" height="1" fill="#a69d8c" />
,<rect x="5" y="3" width="1" height="1" fill="#403f43" />
,<rect x="5" y="4" width="1" height="1" fill="#0c0a0f" />
,<rect x="5" y="5" width="1" height="1" fill="#04050a" />
,<rect x="5" y="6" width="1" height="1" fill="#655e58" />
,<rect x="5" y="7" width="1" height="1" fill="#ccb48e" />
,<rect x="5" y="8" width="1" height="1" fill="#b0a087" />
,<rect x="5" y="9" width="1" height="1" fill="#a39d87" />
,<rect x="6" y="0" width="1" height="1" fill="#9d9885" />
,<rect x="6" y="1" width="1" height="1" fill="#a9a18c" />
,<rect x="6" y="2" width="1" height="1" fill="#9a9283" />
,<rect x="6" y="3" width="1" height="1" fill="#2b2b33" />
,<rect x="6" y="4" width="1" height="1" fill="#0f0e12" />
,<rect x="6" y="5" width="1" height="1" fill="#05040a" />
,<rect x="6" y="6" width="1" height="1" fill="#5d5852" />
,<rect x="6" y="7" width="1" height="1" fill="#c3b08f" />
,<rect x="6" y="8" width="1" height="1" fill="#ad9f85" />
,<rect x="6" y="9" width="1" height="1" fill="#9d9c8a" />
,<rect x="7" y="0" width="1" height="1" fill="#9a947e" />
,<rect x="7" y="1" width="1" height="1" fill="#aa9e86" />
,<rect x="7" y="2" width="1" height="1" fill="#938c7a" />
,<rect x="7" y="3" width="1" height="1" fill="#28272f" />
,<rect x="7" y="4" width="1" height="1" fill="#0e0f11" />
,<rect x="7" y="5" width="1" height="1" fill="#07060e" />
,<rect x="7" y="6" width="1" height="1" fill="#585550" />
,<rect x="7" y="7" width="1" height="1" fill="#baa787" />
,<rect x="7" y="8" width="1" height="1" fill="#a89881" />
,<rect x="7" y="9" width="1" height="1" fill="#9b9889" />
,<rect x="8" y="0" width="1" height="1" fill="#9d9483" />
,<rect x="8" y="1" width="1" height="1" fill="#a39b86" />
,<rect x="8" y="2" width="1" height="1" fill="#a39683" />
,<rect x="8" y="3" width="1" height="1" fill="#474644" />
,<rect x="8" y="4" width="1" height="1" fill="#0b0f11" />
,<rect x="8" y="5" width="1" height="1" fill="#08050e" />
,<rect x="8" y="6" width="1" height="1" fill="#575651" />
,<rect x="8" y="7" width="1" height="1" fill="#b6a88b" />
,<rect x="8" y="8" width="1" height="1" fill="#a49a81" />
,<rect x="8" y="9" width="1" height="1" fill="#9f9886" />
,<rect x="9" y="0" width="1" height="1" fill="#a19984" />
,<rect x="9" y="1" width="1" height="1" fill="#a7997e" />
,<rect x="9" y="2" width="1" height="1" fill="#ad9e87" />
,<rect x="9" y="3" width="1" height="1" fill="#6d6960" />
,<rect x="9" y="4" width="1" height="1" fill="#101116" />
,<rect x="9" y="5" width="1" height="1" fill="#03060b" />
,<rect x="9" y="6" width="1" height="1" fill="#57544b" />
,<rect x="9" y="7" width="1" height="1" fill="#b0a288" />
,<rect x="9" y="8" width="1" height="1" fill="#a5977d" />
,<rect x="9" y="9" width="1" height="1" fill="#9f9683" />

  </g>
</svg>