<svg width="800" height="1000" version="1.1" xmlns="http://www.w3.org/2000/svg" xmlns:xlink="http://www.w3.org/1999/xlink">
  <defs>
      <linearGradient id="Gradient2" x1="0" x2="1" y1="0" y2="1">
        <stop offset="0%" stop-color="#2d3c96"/>
        <stop offset="100%" stop-color="#d53392"/>
      </linearGradient>
  </defs>
  <rect x="10" y="10" width="780" height="980" fill="url(#Gradient2)" rx="50" ry="50" stroke="#ffd700" stroke-width="20"/>
  <text x="400" y="920" width="780" text-anchor="middle" style="font: bold 200px 'Helvetica Neue'; fill: #ffd700">01711</text>

  <g transform="translate(80 80) scale(64)">
<rect x="0" y="0" width="1" height="1" fill="#A59F85" /><rect x="1" y="0" width="1" height="1" fill="#A69E89" /><rect x="2" y="0" width="1" height="1" fill="#A6A086" /><rect x="3" y="0" width="1" height="1" fill="#A99988" /><rect x="4" y="0" width="1" height="1" fill="#ABA08C" /><rect x="5" y="0" width="1" height="1" fill="#999781" /><rect x="6" y="0" width="1" height="1" fill="#596C73" /><rect x="7" y="0" width="1" height="1" fill="#42606B" /><rect x="8" y="0" width="1" height="1" fill="#335267" /><rect x="9" y="0" width="1" height="1" fill="#344F62" /><rect x="0" y="1" width="1" height="1" fill="#AA9A81" /><rect x="1" y="1" width="1" height="1" fill="#AA9C7F" /><rect x="2" y="1" width="1" height="1" fill="#AF9F85" /><rect x="3" y="1" width="1" height="1" fill="#A89D87" /><rect x="4" y="1" width="1" height="1" fill="#A59F87" /><rect x="5" y="1" width="1" height="1" fill="#A09985" /><rect x="6" y="1" width="1" height="1" fill="#959185" /><rect x="7" y="1" width="1" height="1" fill="#7B8680" /><rect x="8" y="1" width="1" height="1" fill="#77827E" /><rect x="9" y="1" width="1" height="1" fill="#6E7376" /><rect x="0" y="2" width="1" height="1" fill="#AE9E85" /><rect x="1" y="2" width="1" height="1" fill="#AE9E84" /><rect x="2" y="2" width="1" height="1" fill="#AEA083" /><rect x="3" y="2" width="1" height="1" fill="#AC9C82" /><rect x="4" y="2" width="1" height="1" fill="#B0A087" /><rect x="5" y="2" width="1" height="1" fill="#A89D87" /><rect x="6" y="2" width="1" height="1" fill="#9D9789" /><rect x="7" y="2" width="1" height="1" fill="#959188" /><rect x="8" y="2" width="1" height="1" fill="#9E9A8E" /><rect x="9" y="2" width="1" height="1" fill="#949085" /><rect x="0" y="3" width="1" height="1" fill="#7D776B" /><rect x="1" y="3" width="1" height="1" fill="#81786F" /><rect x="2" y="3" width="1" height="1" fill="#65605A" /><rect x="3" y="3" width="1" height="1" fill="#595450" /><rect x="4" y="3" width="1" height="1" fill="#544F4C" /><rect x="5" y="3" width="1" height="1" fill="#433F40" /><rect x="6" y="3" width="1" height="1" fill="#353334" /><rect x="7" y="3" width="1" height="1" fill="#42413F" /><rect x="8" y="3" width="1" height="1" fill="#565752" /><rect x="9" y="3" width="1" height="1" fill="#6C6865" /><rect x="0" y="4" width="1" height="1" fill="#111419" /><rect x="1" y="4" width="1" height="1" fill="#17181C" /><rect x="2" y="4" width="1" height="1" fill="#121318" /><rect x="3" y="4" width="1" height="1" fill="#0F0E16" /><rect x="4" y="4" width="1" height="1" fill="#0D0B10" /><rect x="5" y="4" width="1" height="1" fill="#08090B" /><rect x="6" y="4" width="1" height="1" fill="#0A090F" /><rect x="7" y="4" width="1" height="1" fill="#09080E" /><rect x="8" y="4" width="1" height="1" fill="#0E0D11" /><rect x="9" y="4" width="1" height="1" fill="#17141B" /><rect x="0" y="5" width="1" height="1" fill="#08070D" /><rect x="1" y="5" width="1" height="1" fill="#0A0911" /><rect x="2" y="5" width="1" height="1" fill="#060A13" /><rect x="3" y="5" width="1" height="1" fill="#080B12" /><rect x="4" y="5" width="1" height="1" fill="#08090E" /><rect x="5" y="5" width="1" height="1" fill="#05050D" /><rect x="6" y="5" width="1" height="1" fill="#090810" /><rect x="7" y="5" width="1" height="1" fill="#0A0A12" /><rect x="8" y="5" width="1" height="1" fill="#0C0C14" /><rect x="9" y="5" width="1" height="1" fill="#15141A" /><rect x="0" y="6" width="1" height="1" fill="#5A5750" /><rect x="1" y="6" width="1" height="1" fill="#5C5B56" /><rect x="2" y="6" width="1" height="1" fill="#5B5853" /><rect x="3" y="6" width="1" height="1" fill="#57544F" /><rect x="4" y="6" width="1" height="1" fill="#56514B" /><rect x="5" y="6" width="1" height="1" fill="#5F5553" /><rect x="6" y="6" width="1" height="1" fill="#655E56" /><rect x="7" y="6" width="1" height="1" fill="#645955" /><rect x="8" y="6" width="1" height="1" fill="#5F554C" /><rect x="9" y="6" width="1" height="1" fill="#736B60" /><rect x="0" y="7" width="1" height="1" fill="#B0A086" /><rect x="1" y="7" width="1" height="1" fill="#A89C84" /><rect x="2" y="7" width="1" height="1" fill="#A49880" /><rect x="3" y="7" width="1" height="1" fill="#A3977D" /><rect x="4" y="7" width="1" height="1" fill="#968E77" /><rect x="5" y="7" width="1" height="1" fill="#9B937A" /><rect x="6" y="7" width="1" height="1" fill="#9C9579" /><rect x="7" y="7" width="1" height="1" fill="#938C70" /><rect x="8" y="7" width="1" height="1" fill="#918972" /><rect x="9" y="7" width="1" height="1" fill="#938874" /><rect x="0" y="8" width="1" height="1" fill="#A49A7E" /><rect x="1" y="8" width="1" height="1" fill="#A49983" /><rect x="2" y="8" width="1" height="1" fill="#9F9981" /><rect x="3" y="8" width="1" height="1" fill="#99927F" /><rect x="4" y="8" width="1" height="1" fill="#8F8C7D" /><rect x="5" y="8" width="1" height="1" fill="#86867A" /><rect x="6" y="8" width="1" height="1" fill="#807C70" /><rect x="7" y="8" width="1" height="1" fill="#777566" /><rect x="8" y="8" width="1" height="1" fill="#6C6A5E" /><rect x="9" y="8" width="1" height="1" fill="#79776A" /><rect x="0" y="9" width="1" height="1" fill="#9F9780" /><rect x="1" y="9" width="1" height="1" fill="#9E9783" /><rect x="2" y="9" width="1" height="1" fill="#9E9681" /><rect x="3" y="9" width="1" height="1" fill="#95907A" /><rect x="4" y="9" width="1" height="1" fill="#8C8976" /><rect x="5" y="9" width="1" height="1" fill="#888574" /><rect x="6" y="9" width="1" height="1" fill="#878471" /><rect x="7" y="9" width="1" height="1" fill="#89846E" /><rect x="8" y="9" width="1" height="1" fill="#827C66" /><rect x="9" y="9" width="1" height="1" fill="#857F67" />
  </g>
</svg>