<svg width="800" height="1000" version="1.1" xmlns="http://www.w3.org/2000/svg" xmlns:xlink="http://www.w3.org/1999/xlink">
  <defs>
      <linearGradient id="Gradient2" x1="0" x2="1" y1="0" y2="1">
        <stop offset="0%" stop-color="#2d3c96"/>
        <stop offset="100%" stop-color="#d53392"/>
      </linearGradient>
  </defs>
  <rect x="10" y="10" width="780" height="980" fill="url(#Gradient2)" rx="50" ry="50" stroke="#ffd700" stroke-width="20"/>
  <text x="400" y="920" width="780" text-anchor="middle" style="font: bold 200px 'Helvetica Neue'; fill: #ffd700">01743</text>

  <g transform="translate(80 80) scale(64)">
<rect x="0" y="0" width="1" height="1" fill="#00092E" /><rect x="1" y="0" width="1" height="1" fill="#422F33" /><rect x="2" y="0" width="1" height="1" fill="#9F5C3C" /><rect x="3" y="0" width="1" height="1" fill="#97583B" /><rect x="4" y="0" width="1" height="1" fill="#4D3433" /><rect x="5" y="0" width="1" height="1" fill="#7A4938" /><rect x="6" y="0" width="1" height="1" fill="#8D5239" /><rect x="7" y="0" width="1" height="1" fill="#865039" /><rect x="8" y="0" width="1" height="1" fill="#663F36" /><rect x="9" y="0" width="1" height="1" fill="#895239" /><rect x="0" y="1" width="1" height="1" fill="#1F2431" /><rect x="1" y="1" width="1" height="1" fill="#001A31" /><rect x="2" y="1" width="1" height="1" fill="#01002D" /><rect x="3" y="1" width="1" height="1" fill="#01002D" /><rect x="4" y="1" width="1" height="1" fill="#001931" /><rect x="5" y="1" width="1" height="1" fill="#000A2F" /><rect x="6" y="1" width="1" height="1" fill="#01002D" /><rect x="7" y="1" width="1" height="1" fill="#01002E" /><rect x="8" y="1" width="1" height="1" fill="#00102F" /><rect x="9" y="1" width="1" height="1" fill="#01002E" /><rect x="0" y="2" width="1" height="1" fill="#001730" /><rect x="1" y="2" width="1" height="1" fill="#001730" /><rect x="2" y="2" width="1" height="1" fill="#2A2732" /><rect x="3" y="2" width="1" height="1" fill="#001E31" /><rect x="4" y="2" width="1" height="1" fill="#00062E" /><rect x="5" y="2" width="1" height="1" fill="#001A30" /><rect x="6" y="2" width="1" height="1" fill="#252631" /><rect x="7" y="2" width="1" height="1" fill="#1D2331" /><rect x="8" y="2" width="1" height="1" fill="#142231" /><rect x="9" y="2" width="1" height="1" fill="#1E2431" /><rect x="0" y="3" width="1" height="1" fill="#242632" /><rect x="1" y="3" width="1" height="1" fill="#513634" /><rect x="2" y="3" width="1" height="1" fill="#00032E" /><rect x="3" y="3" width="1" height="1" fill="#302933" /><rect x="4" y="3" width="1" height="1" fill="#734637" /><rect x="5" y="3" width="1" height="1" fill="#3E2E33" /><rect x="6" y="3" width="1" height="1" fill="#00062F" /><rect x="7" y="3" width="1" height="1" fill="#172231" /><rect x="8" y="3" width="1" height="1" fill="#041F32" /><rect x="9" y="3" width="1" height="1" fill="#041F32" /><rect x="0" y="4" width="1" height="1" fill="#F0894A" /><rect x="1" y="4" width="1" height="1" fill="#C57143" /><rect x="2" y="4" width="1" height="1" fill="#643E35" /><rect x="3" y="4" width="1" height="1" fill="#EE894A" /><rect x="4" y="4" width="1" height="1" fill="#FF924C" /><rect x="5" y="4" width="1" height="1" fill="#EF884A" /><rect x="6" y="4" width="1" height="1" fill="#824E39" /><rect x="7" y="4" width="1" height="1" fill="#01002D" /><rect x="8" y="4" width="1" height="1" fill="#2C2832" /><rect x="9" y="4" width="1" height="1" fill="#001F30" /><rect x="0" y="5" width="1" height="1" fill="#DE8046" /><rect x="1" y="5" width="1" height="1" fill="#87513A" /><rect x="2" y="5" width="1" height="1" fill="#E78549" /><rect x="3" y="5" width="1" height="1" fill="#F48B4B" /><rect x="4" y="5" width="1" height="1" fill="#804D38" /><rect x="5" y="5" width="1" height="1" fill="#FF924E" /><rect x="6" y="5" width="1" height="1" fill="#EC8849" /><rect x="7" y="5" width="1" height="1" fill="#00062F" /><rect x="8" y="5" width="1" height="1" fill="#001E31" /><rect x="9" y="5" width="1" height="1" fill="#202531" /><rect x="0" y="6" width="1" height="1" fill="#01002D" /><rect x="1" y="6" width="1" height="1" fill="#001D31" /><rect x="2" y="6" width="1" height="1" fill="#FD904D" /><rect x="3" y="6" width="1" height="1" fill="#EA8648" /><rect x="4" y="6" width="1" height="1" fill="#CD7644" /><rect x="5" y="6" width="1" height="1" fill="#F98E4C" /><rect x="6" y="6" width="1" height="1" fill="#E28147" /><rect x="7" y="6" width="1" height="1" fill="#443033" /><rect x="8" y="6" width="1" height="1" fill="#000D2F" /><rect x="9" y="6" width="1" height="1" fill="#2A2732" /><rect x="0" y="7" width="1" height="1" fill="#433033" /><rect x="1" y="7" width="1" height="1" fill="#3C2D33" /><rect x="2" y="7" width="1" height="1" fill="#FA8F4C" /><rect x="3" y="7" width="1" height="1" fill="#FF924C" /><rect x="4" y="7" width="1" height="1" fill="#BC6C40" /><rect x="5" y="7" width="1" height="1" fill="#7E4C38" /><rect x="6" y="7" width="1" height="1" fill="#543834" /><rect x="7" y="7" width="1" height="1" fill="#001E31" /><rect x="8" y="7" width="1" height="1" fill="#0C2031" /><rect x="9" y="7" width="1" height="1" fill="#092031" /><rect x="0" y="8" width="1" height="1" fill="#9E5C3C" /><rect x="1" y="8" width="1" height="1" fill="#01002B" /><rect x="2" y="8" width="1" height="1" fill="#DA7D46" /><rect x="3" y="8" width="1" height="1" fill="#FF964E" /><rect x="4" y="8" width="1" height="1" fill="#C67143" /><rect x="5" y="8" width="1" height="1" fill="#CE7744" /><rect x="6" y="8" width="1" height="1" fill="#B56940" /><rect x="7" y="8" width="1" height="1" fill="#01002D" /><rect x="8" y="8" width="1" height="1" fill="#212531" /><rect x="9" y="8" width="1" height="1" fill="#0D2131" /><rect x="0" y="9" width="1" height="1" fill="#C67242" /><rect x="1" y="9" width="1" height="1" fill="#000D2F" /><rect x="2" y="9" width="1" height="1" fill="#543734" /><rect x="3" y="9" width="1" height="1" fill="#D67B45" /><rect x="4" y="9" width="1" height="1" fill="#F78D4B" /><rect x="5" y="9" width="1" height="1" fill="#EB8749" /><rect x="6" y="9" width="1" height="1" fill="#9D5C3C" /><rect x="7" y="9" width="1" height="1" fill="#00082F" /><rect x="8" y="9" width="1" height="1" fill="#202531" /><rect x="9" y="9" width="1" height="1" fill="#0B2030" />
  </g>
</svg>