<svg width="800" height="1000" version="1.1" xmlns="http://www.w3.org/2000/svg" xmlns:xlink="http://www.w3.org/1999/xlink">
  <defs>
      <linearGradient id="Gradient2" x1="0" x2="1" y1="0" y2="1">
        <stop offset="0%" stop-color="#2d3c96"/>
        <stop offset="100%" stop-color="#d53392"/>
      </linearGradient>
  </defs>
  <rect x="10" y="10" width="780" height="980" fill="url(#Gradient2)" rx="50" ry="50" stroke="#ffd700" stroke-width="20"/>
  <text x="400" y="920" width="780" text-anchor="middle" style="font: bold 200px 'Helvetica Neue'; fill: #ffd700">01744</text>

  <g transform="translate(80 80) scale(64)">
<rect x="0" y="0" width="1" height="1" fill="#B86A40" /><rect x="1" y="0" width="1" height="1" fill="#A6603D" /><rect x="2" y="0" width="1" height="1" fill="#543734" /><rect x="3" y="0" width="1" height="1" fill="#00142F" /><rect x="4" y="0" width="1" height="1" fill="#00052F" /><rect x="5" y="0" width="1" height="1" fill="#5A3835" /><rect x="6" y="0" width="1" height="1" fill="#985A3C" /><rect x="7" y="0" width="1" height="1" fill="#9E5D3C" /><rect x="8" y="0" width="1" height="1" fill="#6B4236" /><rect x="9" y="0" width="1" height="1" fill="#001D30" /><rect x="0" y="1" width="1" height="1" fill="#01002C" /><rect x="1" y="1" width="1" height="1" fill="#01002D" /><rect x="2" y="1" width="1" height="1" fill="#001730" /><rect x="3" y="1" width="1" height="1" fill="#132131" /><rect x="4" y="1" width="1" height="1" fill="#112231" /><rect x="5" y="1" width="1" height="1" fill="#03152F" /><rect x="6" y="1" width="1" height="1" fill="#01002D" /><rect x="7" y="1" width="1" height="1" fill="#01002C" /><rect x="8" y="1" width="1" height="1" fill="#000A2F" /><rect x="9" y="1" width="1" height="1" fill="#001F30" /><rect x="0" y="2" width="1" height="1" fill="#252531" /><rect x="1" y="2" width="1" height="1" fill="#222531" /><rect x="2" y="2" width="1" height="1" fill="#142130" /><rect x="3" y="2" width="1" height="1" fill="#061F30" /><rect x="4" y="2" width="1" height="1" fill="#041F30" /><rect x="5" y="2" width="1" height="1" fill="#142230" /><rect x="6" y="2" width="1" height="1" fill="#212531" /><rect x="7" y="2" width="1" height="1" fill="#232531" /><rect x="8" y="2" width="1" height="1" fill="#182331" /><rect x="9" y="2" width="1" height="1" fill="#072030" /><rect x="0" y="3" width="1" height="1" fill="#031F30" /><rect x="1" y="3" width="1" height="1" fill="#032031" /><rect x="2" y="3" width="1" height="1" fill="#052030" /><rect x="3" y="3" width="1" height="1" fill="#062031" /><rect x="4" y="3" width="1" height="1" fill="#062030" /><rect x="5" y="3" width="1" height="1" fill="#052030" /><rect x="6" y="3" width="1" height="1" fill="#032031" /><rect x="7" y="3" width="1" height="1" fill="#041F30" /><rect x="8" y="3" width="1" height="1" fill="#052031" /><rect x="9" y="3" width="1" height="1" fill="#062031" /><rect x="0" y="4" width="1" height="1" fill="#082030" /><rect x="1" y="4" width="1" height="1" fill="#062030" /><rect x="2" y="4" width="1" height="1" fill="#062030" /><rect x="3" y="4" width="1" height="1" fill="#062030" /><rect x="4" y="4" width="1" height="1" fill="#071F30" /><rect x="5" y="4" width="1" height="1" fill="#071F30" /><rect x="6" y="4" width="1" height="1" fill="#062030" /><rect x="7" y="4" width="1" height="1" fill="#062030" /><rect x="8" y="4" width="1" height="1" fill="#062030" /><rect x="9" y="4" width="1" height="1" fill="#062030" /><rect x="0" y="5" width="1" height="1" fill="#001F30" /><rect x="1" y="5" width="1" height="1" fill="#052031" /><rect x="2" y="5" width="1" height="1" fill="#062030" /><rect x="3" y="5" width="1" height="1" fill="#062031" /><rect x="4" y="5" width="1" height="1" fill="#062030" /><rect x="5" y="5" width="1" height="1" fill="#062030" /><rect x="6" y="5" width="1" height="1" fill="#062031" /><rect x="7" y="5" width="1" height="1" fill="#062030" /><rect x="8" y="5" width="1" height="1" fill="#062031" /><rect x="9" y="5" width="1" height="1" fill="#062031" /><rect x="0" y="6" width="1" height="1" fill="#001E31" /><rect x="1" y="6" width="1" height="1" fill="#052030" /><rect x="2" y="6" width="1" height="1" fill="#062030" /><rect x="3" y="6" width="1" height="1" fill="#062030" /><rect x="4" y="6" width="1" height="1" fill="#071F30" /><rect x="5" y="6" width="1" height="1" fill="#071F30" /><rect x="6" y="6" width="1" height="1" fill="#062030" /><rect x="7" y="6" width="1" height="1" fill="#062030" /><rect x="8" y="6" width="1" height="1" fill="#062030" /><rect x="9" y="6" width="1" height="1" fill="#062030" /><rect x="0" y="7" width="1" height="1" fill="#062030" /><rect x="1" y="7" width="1" height="1" fill="#062031" /><rect x="2" y="7" width="1" height="1" fill="#062030" /><rect x="3" y="7" width="1" height="1" fill="#062031" /><rect x="4" y="7" width="1" height="1" fill="#071F30" /><rect x="5" y="7" width="1" height="1" fill="#071F30" /><rect x="6" y="7" width="1" height="1" fill="#062031" /><rect x="7" y="7" width="1" height="1" fill="#062030" /><rect x="8" y="7" width="1" height="1" fill="#062031" /><rect x="9" y="7" width="1" height="1" fill="#062030" /><rect x="0" y="8" width="1" height="1" fill="#051F30" /><rect x="1" y="8" width="1" height="1" fill="#051F30" /><rect x="2" y="8" width="1" height="1" fill="#071F30" /><rect x="3" y="8" width="1" height="1" fill="#062030" /><rect x="4" y="8" width="1" height="1" fill="#071F30" /><rect x="5" y="8" width="1" height="1" fill="#071F31" /><rect x="6" y="8" width="1" height="1" fill="#061F30" /><rect x="7" y="8" width="1" height="1" fill="#061E2F" /><rect x="8" y="8" width="1" height="1" fill="#051E2F" /><rect x="9" y="8" width="1" height="1" fill="#071F30" /><rect x="0" y="9" width="1" height="1" fill="#072232" /><rect x="1" y="9" width="1" height="1" fill="#082534" /><rect x="2" y="9" width="1" height="1" fill="#062131" /><rect x="3" y="9" width="1" height="1" fill="#062031" /><rect x="4" y="9" width="1" height="1" fill="#062030" /><rect x="5" y="9" width="1" height="1" fill="#051F2F" /><rect x="6" y="9" width="1" height="1" fill="#072333" /><rect x="7" y="9" width="1" height="1" fill="#0C2E3B" /><rect x="8" y="9" width="1" height="1" fill="#0E313D" /><rect x="9" y="9" width="1" height="1" fill="#092434" />
  </g>
</svg>