<svg width="800" height="1000" xmlns="http://www.w3.org/2000/svg"><defs><linearGradient id="g" x1="0" x2="1" y1="0" y2="1"><stop offset="0%" stop-color="#2d3c96"/><stop offset="100%" stop-color="#d53392"/></linearGradient></defs><rect x="10" y="10" width="780" height="980" fill="url(#g)" rx="50" ry="50" stroke="gold" stroke-width="20"/><text x="400" y="920" width="780" text-anchor="middle" style="font:bold 200px 'Helvetica Neue';fill:gold">01743</text><g transform="translate(80 80) scale(64)"><rect x="0" y="0" width="1" height="1" fill="#00092e" /><rect x="0" y="1" width="1" height="1" fill="#1f2431" /><rect x="0" y="2" width="1" height="1" fill="#001730" /><rect x="0" y="3" width="1" height="1" fill="#242632" /><rect x="0" y="4" width="1" height="1" fill="#f0894a" /><rect x="0" y="5" width="1" height="1" fill="#de8046" /><rect x="0" y="6" width="1" height="1" fill="#01002d" /><rect x="0" y="7" width="1" height="1" fill="#433033" /><rect x="0" y="8" width="1" height="1" fill="#9e5c3c" /><rect x="0" y="9" width="1" height="1" fill="#c67242" /><rect x="1" y="0" width="1" height="1" fill="#422f33" /><rect x="1" y="1" width="1" height="1" fill="#001a31" /><rect x="1" y="2" width="1" height="1" fill="#001730" /><rect x="1" y="3" width="1" height="1" fill="#513634" /><rect x="1" y="4" width="1" height="1" fill="#c57143" /><rect x="1" y="5" width="1" height="1" fill="#87513a" /><rect x="1" y="6" width="1" height="1" fill="#001d31" /><rect x="1" y="7" width="1" height="1" fill="#3c2d33" /><rect x="1" y="8" width="1" height="1" fill="#01002b" /><rect x="1" y="9" width="1" height="1" fill="#000d2f" /><rect x="2" y="0" width="1" height="1" fill="#9f5c3c" /><rect x="2" y="1" width="1" height="1" fill="#01002d" /><rect x="2" y="2" width="1" height="1" fill="#2a2732" /><rect x="2" y="3" width="1" height="1" fill="#00032e" /><rect x="2" y="4" width="1" height="1" fill="#643e35" /><rect x="2" y="5" width="1" height="1" fill="#e78549" /><rect x="2" y="6" width="1" height="1" fill="#fd904d" /><rect x="2" y="7" width="1" height="1" fill="#fa8f4c" /><rect x="2" y="8" width="1" height="1" fill="#da7d46" /><rect x="2" y="9" width="1" height="1" fill="#543734" /><rect x="3" y="0" width="1" height="1" fill="#97583b" /><rect x="3" y="1" width="1" height="1" fill="#01002d" /><rect x="3" y="2" width="1" height="1" fill="#001e31" /><rect x="3" y="3" width="1" height="1" fill="#302933" /><rect x="3" y="4" width="1" height="1" fill="#ee894a" /><rect x="3" y="5" width="1" height="1" fill="#f48b4b" /><rect x="3" y="6" width="1" height="1" fill="#ea8648" /><rect x="3" y="7" width="1" height="1" fill="#ff924c" /><rect x="3" y="8" width="1" height="1" fill="#ff964e" /><rect x="3" y="9" width="1" height="1" fill="#d67b45" /><rect x="4" y="0" width="1" height="1" fill="#4d3433" /><rect x="4" y="1" width="1" height="1" fill="#001931" /><rect x="4" y="2" width="1" height="1" fill="#00062e" /><rect x="4" y="3" width="1" height="1" fill="#734637" /><rect x="4" y="4" width="1" height="1" fill="#ff924c" /><rect x="4" y="5" width="1" height="1" fill="#804d38" /><rect x="4" y="6" width="1" height="1" fill="#cd7644" /><rect x="4" y="7" width="1" height="1" fill="#bc6c40" /><rect x="4" y="8" width="1" height="1" fill="#c67143" /><rect x="4" y="9" width="1" height="1" fill="#f78d4b" /><rect x="5" y="0" width="1" height="1" fill="#7a4938" /><rect x="5" y="1" width="1" height="1" fill="#000a2f" /><rect x="5" y="2" width="1" height="1" fill="#001a30" /><rect x="5" y="3" width="1" height="1" fill="#3e2e33" /><rect x="5" y="4" width="1" height="1" fill="#ef884a" /><rect x="5" y="5" width="1" height="1" fill="#ff924e" /><rect x="5" y="6" width="1" height="1" fill="#f98e4c" /><rect x="5" y="7" width="1" height="1" fill="#7e4c38" /><rect x="5" y="8" width="1" height="1" fill="#ce7744" /><rect x="5" y="9" width="1" height="1" fill="#eb8749" /><rect x="6" y="0" width="1" height="1" fill="#8d5239" /><rect x="6" y="1" width="1" height="1" fill="#01002d" /><rect x="6" y="2" width="1" height="1" fill="#252631" /><rect x="6" y="3" width="1" height="1" fill="#00062f" /><rect x="6" y="4" width="1" height="1" fill="#824e39" /><rect x="6" y="5" width="1" height="1" fill="#ec8849" /><rect x="6" y="6" width="1" height="1" fill="#e28147" /><rect x="6" y="7" width="1" height="1" fill="#543834" /><rect x="6" y="8" width="1" height="1" fill="#b56940" /><rect x="6" y="9" width="1" height="1" fill="#9d5c3c" /><rect x="7" y="0" width="1" height="1" fill="#865039" /><rect x="7" y="1" width="1" height="1" fill="#01002e" /><rect x="7" y="2" width="1" height="1" fill="#1d2331" /><rect x="7" y="3" width="1" height="1" fill="#172231" /><rect x="7" y="4" width="1" height="1" fill="#01002d" /><rect x="7" y="5" width="1" height="1" fill="#00062f" /><rect x="7" y="6" width="1" height="1" fill="#443033" /><rect x="7" y="7" width="1" height="1" fill="#001e31" /><rect x="7" y="8" width="1" height="1" fill="#01002d" /><rect x="7" y="9" width="1" height="1" fill="#00082f" /><rect x="8" y="0" width="1" height="1" fill="#663f36" /><rect x="8" y="1" width="1" height="1" fill="#00102f" /><rect x="8" y="2" width="1" height="1" fill="#142231" /><rect x="8" y="3" width="1" height="1" fill="#041f32" /><rect x="8" y="4" width="1" height="1" fill="#2c2832" /><rect x="8" y="5" width="1" height="1" fill="#001e31" /><rect x="8" y="6" width="1" height="1" fill="#000d2f" /><rect x="8" y="7" width="1" height="1" fill="#0c2031" /><rect x="8" y="8" width="1" height="1" fill="#212531" /><rect x="8" y="9" width="1" height="1" fill="#202531" /><rect x="9" y="0" width="1" height="1" fill="#895239" /><rect x="9" y="1" width="1" height="1" fill="#01002e" /><rect x="9" y="2" width="1" height="1" fill="#1e2431" /><rect x="9" y="3" width="1" height="1" fill="#041f32" /><rect x="9" y="4" width="1" height="1" fill="#001f30" /><rect x="9" y="5" width="1" height="1" fill="#202531" /><rect x="9" y="6" width="1" height="1" fill="#2a2732" /><rect x="9" y="7" width="1" height="1" fill="#092031" /><rect x="9" y="8" width="1" height="1" fill="#0d2131" /><rect x="9" y="9" width="1" height="1" fill="#0b2030" /></g></svg>