<svg width="800" height="1000" version="1.1" xmlns="http://www.w3.org/2000/svg" xmlns:xlink="http://www.w3.org/1999/xlink">
  <defs>
      <linearGradient id="Gradient2" x1="0" x2="1" y1="0" y2="1">
        <stop offset="0%" stop-color="#2d3c96"/>
        <stop offset="100%" stop-color="#d53392"/>
      </linearGradient>
  </defs>
  <rect x="10" y="10" width="780" height="980" fill="url(#Gradient2)" rx="50" ry="50" stroke="#ffd700" stroke-width="20"/>
  <text x="400" y="920" width="780" text-anchor="middle" style="font: bold 200px 'Helvetica Neue'; fill: #ffd700">01744</text>

  <g transform="translate(80 80) scale(64)">
<rect x="0" y="0" width="1" height="1" fill="#b86a40" />
,<rect x="0" y="1" width="1" height="1" fill="#01002c" />
,<rect x="0" y="2" width="1" height="1" fill="#252531" />
,<rect x="0" y="3" width="1" height="1" fill="#031f30" />
,<rect x="0" y="4" width="1" height="1" fill="#082030" />
,<rect x="0" y="5" width="1" height="1" fill="#001f30" />
,<rect x="0" y="6" width="1" height="1" fill="#001e31" />
,<rect x="0" y="7" width="1" height="1" fill="#062030" />
,<rect x="0" y="8" width="1" height="1" fill="#051f30" />
,<rect x="0" y="9" width="1" height="1" fill="#072232" />
,<rect x="1" y="0" width="1" height="1" fill="#a6603d" />
,<rect x="1" y="1" width="1" height="1" fill="#01002d" />
,<rect x="1" y="2" width="1" height="1" fill="#222531" />
,<rect x="1" y="3" width="1" height="1" fill="#032031" />
,<rect x="1" y="4" width="1" height="1" fill="#062030" />
,<rect x="1" y="5" width="1" height="1" fill="#052031" />
,<rect x="1" y="6" width="1" height="1" fill="#052030" />
,<rect x="1" y="7" width="1" height="1" fill="#062031" />
,<rect x="1" y="8" width="1" height="1" fill="#051f30" />
,<rect x="1" y="9" width="1" height="1" fill="#082534" />
,<rect x="2" y="0" width="1" height="1" fill="#543734" />
,<rect x="2" y="1" width="1" height="1" fill="#001730" />
,<rect x="2" y="2" width="1" height="1" fill="#142130" />
,<rect x="2" y="3" width="1" height="1" fill="#052030" />
,<rect x="2" y="4" width="1" height="1" fill="#062030" />
,<rect x="2" y="5" width="1" height="1" fill="#062030" />
,<rect x="2" y="6" width="1" height="1" fill="#062030" />
,<rect x="2" y="7" width="1" height="1" fill="#062030" />
,<rect x="2" y="8" width="1" height="1" fill="#071f30" />
,<rect x="2" y="9" width="1" height="1" fill="#062131" />
,<rect x="3" y="0" width="1" height="1" fill="#00142f" />
,<rect x="3" y="1" width="1" height="1" fill="#132131" />
,<rect x="3" y="2" width="1" height="1" fill="#061f30" />
,<rect x="3" y="3" width="1" height="1" fill="#062031" />
,<rect x="3" y="4" width="1" height="1" fill="#062030" />
,<rect x="3" y="5" width="1" height="1" fill="#062031" />
,<rect x="3" y="6" width="1" height="1" fill="#062030" />
,<rect x="3" y="7" width="1" height="1" fill="#062031" />
,<rect x="3" y="8" width="1" height="1" fill="#062030" />
,<rect x="3" y="9" width="1" height="1" fill="#062031" />
,<rect x="4" y="0" width="1" height="1" fill="#00052f" />
,<rect x="4" y="1" width="1" height="1" fill="#112231" />
,<rect x="4" y="2" width="1" height="1" fill="#041f30" />
,<rect x="4" y="3" width="1" height="1" fill="#062030" />
,<rect x="4" y="4" width="1" height="1" fill="#071f30" />
,<rect x="4" y="5" width="1" height="1" fill="#062030" />
,<rect x="4" y="6" width="1" height="1" fill="#071f30" />
,<rect x="4" y="7" width="1" height="1" fill="#071f30" />
,<rect x="4" y="8" width="1" height="1" fill="#071f30" />
,<rect x="4" y="9" width="1" height="1" fill="#062030" />
,<rect x="5" y="0" width="1" height="1" fill="#5a3835" />
,<rect x="5" y="1" width="1" height="1" fill="#03152f" />
,<rect x="5" y="2" width="1" height="1" fill="#142230" />
,<rect x="5" y="3" width="1" height="1" fill="#052030" />
,<rect x="5" y="4" width="1" height="1" fill="#071f30" />
,<rect x="5" y="5" width="1" height="1" fill="#062030" />
,<rect x="5" y="6" width="1" height="1" fill="#071f30" />
,<rect x="5" y="7" width="1" height="1" fill="#071f30" />
,<rect x="5" y="8" width="1" height="1" fill="#071f31" />
,<rect x="5" y="9" width="1" height="1" fill="#051f2f" />
,<rect x="6" y="0" width="1" height="1" fill="#985a3c" />
,<rect x="6" y="1" width="1" height="1" fill="#01002d" />
,<rect x="6" y="2" width="1" height="1" fill="#212531" />
,<rect x="6" y="3" width="1" height="1" fill="#032031" />
,<rect x="6" y="4" width="1" height="1" fill="#062030" />
,<rect x="6" y="5" width="1" height="1" fill="#062031" />
,<rect x="6" y="6" width="1" height="1" fill="#062030" />
,<rect x="6" y="7" width="1" height="1" fill="#062031" />
,<rect x="6" y="8" width="1" height="1" fill="#061f30" />
,<rect x="6" y="9" width="1" height="1" fill="#072333" />
,<rect x="7" y="0" width="1" height="1" fill="#9e5d3c" />
,<rect x="7" y="1" width="1" height="1" fill="#01002c" />
,<rect x="7" y="2" width="1" height="1" fill="#232531" />
,<rect x="7" y="3" width="1" height="1" fill="#041f30" />
,<rect x="7" y="4" width="1" height="1" fill="#062030" />
,<rect x="7" y="5" width="1" height="1" fill="#062030" />
,<rect x="7" y="6" width="1" height="1" fill="#062030" />
,<rect x="7" y="7" width="1" height="1" fill="#062030" />
,<rect x="7" y="8" width="1" height="1" fill="#061e2f" />
,<rect x="7" y="9" width="1" height="1" fill="#0c2e3b" />
,<rect x="8" y="0" width="1" height="1" fill="#6b4236" />
,<rect x="8" y="1" width="1" height="1" fill="#000a2f" />
,<rect x="8" y="2" width="1" height="1" fill="#182331" />
,<rect x="8" y="3" width="1" height="1" fill="#052031" />
,<rect x="8" y="4" width="1" height="1" fill="#062030" />
,<rect x="8" y="5" width="1" height="1" fill="#062031" />
,<rect x="8" y="6" width="1" height="1" fill="#062030" />
,<rect x="8" y="7" width="1" height="1" fill="#062031" />
,<rect x="8" y="8" width="1" height="1" fill="#051e2f" />
,<rect x="8" y="9" width="1" height="1" fill="#0e313d" />
,<rect x="9" y="0" width="1" height="1" fill="#001d30" />
,<rect x="9" y="1" width="1" height="1" fill="#001f30" />
,<rect x="9" y="2" width="1" height="1" fill="#072030" />
,<rect x="9" y="3" width="1" height="1" fill="#062031" />
,<rect x="9" y="4" width="1" height="1" fill="#062030" />
,<rect x="9" y="5" width="1" height="1" fill="#062031" />
,<rect x="9" y="6" width="1" height="1" fill="#062030" />
,<rect x="9" y="7" width="1" height="1" fill="#062030" />
,<rect x="9" y="8" width="1" height="1" fill="#071f30" />
,<rect x="9" y="9" width="1" height="1" fill="#092434" />

  </g>
</svg>