<svg width="800" height="1000" xmlns="http://www.w3.org/2000/svg"><defs><linearGradient id="g" x1="0" x2="1" y1="0" y2="1"><stop offset="0%" stop-color="#2d3c96"/><stop offset="100%" stop-color="#d53392"/></linearGradient></defs><rect x="10" y="10" width="780" height="980" fill="url(#g)" rx="50" ry="50" stroke="gold" stroke-width="20"/><text x="400" y="920" width="780" text-anchor="middle" style="font:bold 200px 'Helvetica Neue';fill:gold">01742</text><g transform="translate(80 80) scale(64)"><rect x="0" y="0" width="1" height="1" fill="#001930" /><rect x="0" y="1" width="1" height="1" fill="#01002e" /><rect x="0" y="2" width="1" height="1" fill="#da7d46" /><rect x="0" y="3" width="1" height="1" fill="#ff9a4f" /><rect x="0" y="4" width="1" height="1" fill="#fe914d" /><rect x="0" y="5" width="1" height="1" fill="#fe914d" /><rect x="0" y="6" width="1" height="1" fill="#fb8f4c" /><rect x="0" y="7" width="1" height="1" fill="#ff934e" /><rect x="0" y="8" width="1" height="1" fill="#ff9a4f" /><rect x="0" y="9" width="1" height="1" fill="#e08147" /><rect x="1" y="0" width="1" height="1" fill="#382b32" /><rect x="1" y="1" width="1" height="1" fill="#01002e" /><rect x="1" y="2" width="1" height="1" fill="#b66940" /><rect x="1" y="3" width="1" height="1" fill="#b86b41" /><rect x="1" y="4" width="1" height="1" fill="#242632" /><rect x="1" y="5" width="1" height="1" fill="#443133" /><rect x="1" y="6" width="1" height="1" fill="#4c3533" /><rect x="1" y="7" width="1" height="1" fill="#372d32" /><rect x="1" y="8" width="1" height="1" fill="#a05d3d" /><rect x="1" y="9" width="1" height="1" fill="#bb6d41" /><rect x="2" y="0" width="1" height="1" fill="#995a3b" /><rect x="2" y="1" width="1" height="1" fill="#01002d" /><rect x="2" y="2" width="1" height="1" fill="#001430" /><rect x="2" y="3" width="1" height="1" fill="#01002c" /><rect x="2" y="4" width="1" height="1" fill="#382b32" /><rect x="2" y="5" width="1" height="1" fill="#c67143" /><rect x="2" y="6" width="1" height="1" fill="#e48348" /><rect x="2" y="7" width="1" height="1" fill="#e08147" /><rect x="2" y="8" width="1" height="1" fill="#af663e" /><rect x="2" y="9" width="1" height="1" fill="#001130" /><rect x="3" y="0" width="1" height="1" fill="#9f5d3d" /><rect x="3" y="1" width="1" height="1" fill="#01002d" /><rect x="3" y="2" width="1" height="1" fill="#212531" /><rect x="3" y="3" width="1" height="1" fill="#0a2131" /><rect x="3" y="4" width="1" height="1" fill="#df8047" /><rect x="3" y="5" width="1" height="1" fill="#ff964e" /><rect x="3" y="6" width="1" height="1" fill="#f98e4b" /><rect x="3" y="7" width="1" height="1" fill="#ff974f" /><rect x="3" y="8" width="1" height="1" fill="#ff9a4f" /><rect x="3" y="9" width="1" height="1" fill="#c57143" /><rect x="4" y="0" width="1" height="1" fill="#593a35" /><rect x="4" y="1" width="1" height="1" fill="#001530" /><rect x="4" y="2" width="1" height="1" fill="#00092f" /><rect x="4" y="3" width="1" height="1" fill="#6f4436" /><rect x="4" y="4" width="1" height="1" fill="#fe914d" /><rect x="4" y="5" width="1" height="1" fill="#855039" /><rect x="4" y="6" width="1" height="1" fill="#c97443" /><rect x="4" y="7" width="1" height="1" fill="#cb7543" /><rect x="4" y="8" width="1" height="1" fill="#d27845" /><rect x="4" y="9" width="1" height="1" fill="#f38a4b" /><rect x="5" y="0" width="1" height="1" fill="#252631" /><rect x="5" y="1" width="1" height="1" fill="#041f32" /><rect x="5" y="2" width="1" height="1" fill="#00122f" /><rect x="5" y="3" width="1" height="1" fill="#543734" /><rect x="5" y="4" width="1" height="1" fill="#fa8e4c" /><rect x="5" y="5" width="1" height="1" fill="#eb8749" /><rect x="5" y="6" width="1" height="1" fill="#f38a4b" /><rect x="5" y="7" width="1" height="1" fill="#895239" /><rect x="5" y="8" width="1" height="1" fill="#ca7443" /><rect x="5" y="9" width="1" height="1" fill="#f58b4a" /><rect x="6" y="0" width="1" height="1" fill="#834e39" /><rect x="6" y="1" width="1" height="1" fill="#01002e" /><rect x="6" y="2" width="1" height="1" fill="#1f2431" /><rect x="6" y="3" width="1" height="1" fill="#00092f" /><rect x="6" y="4" width="1" height="1" fill="#97583b" /><rect x="6" y="5" width="1" height="1" fill="#fe914d" /><rect x="6" y="6" width="1" height="1" fill="#f18b4a" /><rect x="6" y="7" width="1" height="1" fill="#613e35" /><rect x="6" y="8" width="1" height="1" fill="#c16e41" /><rect x="6" y="9" width="1" height="1" fill="#a8623e" /><rect x="7" y="0" width="1" height="1" fill="#8a513a" /><rect x="7" y="1" width="1" height="1" fill="#01002e" /><rect x="7" y="2" width="1" height="1" fill="#1e2431" /><rect x="7" y="3" width="1" height="1" fill="#001931" /><rect x="7" y="4" width="1" height="1" fill="#7e4c38" /><rect x="7" y="5" width="1" height="1" fill="#774838" /><rect x="7" y="6" width="1" height="1" fill="#523734" /><rect x="7" y="7" width="1" height="1" fill="#01002e" /><rect x="7" y="8" width="1" height="1" fill="#663f36" /><rect x="7" y="9" width="1" height="1" fill="#8e543a" /><rect x="8" y="0" width="1" height="1" fill="#88513a" /><rect x="8" y="1" width="1" height="1" fill="#01002e" /><rect x="8" y="2" width="1" height="1" fill="#001b30" /><rect x="8" y="3" width="1" height="1" fill="#3d2e33" /><rect x="8" y="4" width="1" height="1" fill="#f88d4b" /><rect x="8" y="5" width="1" height="1" fill="#e88549" /><rect x="8" y="6" width="1" height="1" fill="#cb7543" /><rect x="8" y="7" width="1" height="1" fill="#da7d46" /><rect x="8" y="8" width="1" height="1" fill="#ef8a4a" /><rect x="8" y="9" width="1" height="1" fill="#db7e47" /><rect x="9" y="0" width="1" height="1" fill="#483234" /><rect x="9" y="1" width="1" height="1" fill="#001b31" /><rect x="9" y="2" width="1" height="1" fill="#001830" /><rect x="9" y="3" width="1" height="1" fill="#422f33" /><rect x="9" y="4" width="1" height="1" fill="#e88549" /><rect x="9" y="5" width="1" height="1" fill="#ff954e" /><rect x="9" y="6" width="1" height="1" fill="#ff924e" /><rect x="9" y="7" width="1" height="1" fill="#fe914d" /><rect x="9" y="8" width="1" height="1" fill="#ff9850" /><rect x="9" y="9" width="1" height="1" fill="#e28147" /></g></svg>