<svg width="800" height="1000" version="1.1" xmlns="http://www.w3.org/2000/svg" xmlns:xlink="http://www.w3.org/1999/xlink">
  <defs>
      <linearGradient id="Gradient2" x1="0" x2="1" y1="0" y2="1">
        <stop offset="0%" stop-color="#2d3c96"/>
        <stop offset="100%" stop-color="#d53392"/>
      </linearGradient>
  </defs>
  <rect x="10" y="10" width="780" height="980" fill="url(#Gradient2)" rx="50" ry="50" stroke="#ffd700" stroke-width="20"/>
  <text x="400" y="920" width="780" text-anchor="middle" style="font: bold 200px 'Helvetica Neue'; fill: #ffd700">01741</text>

  <g transform="translate(80 80) scale(64)">
<rect x="0" y="0" width="1" height="1" fill="#A05D3D" /><rect x="1" y="0" width="1" height="1" fill="#875138" /><rect x="2" y="0" width="1" height="1" fill="#784938" /><rect x="3" y="0" width="1" height="1" fill="#8B5239" /><rect x="4" y="0" width="1" height="1" fill="#493234" /><rect x="5" y="0" width="1" height="1" fill="#000A2F" /><rect x="6" y="0" width="1" height="1" fill="#784938" /><rect x="7" y="0" width="1" height="1" fill="#96583B" /><rect x="8" y="0" width="1" height="1" fill="#2E2932" /><rect x="9" y="0" width="1" height="1" fill="#0B2030" /><rect x="0" y="1" width="1" height="1" fill="#01002D" /><rect x="1" y="1" width="1" height="1" fill="#01002E" /><rect x="2" y="1" width="1" height="1" fill="#00072F" /><rect x="3" y="1" width="1" height="1" fill="#01002E" /><rect x="4" y="1" width="1" height="1" fill="#01002E" /><rect x="5" y="1" width="1" height="1" fill="#01002E" /><rect x="6" y="1" width="1" height="1" fill="#01002A" /><rect x="7" y="1" width="1" height="1" fill="#01002B" /><rect x="8" y="1" width="1" height="1" fill="#00082F" /><rect x="9" y="1" width="1" height="1" fill="#01002E" /><rect x="0" y="2" width="1" height="1" fill="#232531" /><rect x="1" y="2" width="1" height="1" fill="#252631" /><rect x="2" y="2" width="1" height="1" fill="#001F30" /><rect x="3" y="2" width="1" height="1" fill="#001E31" /><rect x="4" y="2" width="1" height="1" fill="#B56940" /><rect x="5" y="2" width="1" height="1" fill="#D87C46" /><rect x="6" y="2" width="1" height="1" fill="#DD7F46" /><rect x="7" y="2" width="1" height="1" fill="#9E5C3C" /><rect x="8" y="2" width="1" height="1" fill="#A15E3D" /><rect x="9" y="2" width="1" height="1" fill="#D87C46" /><rect x="0" y="3" width="1" height="1" fill="#021F32" /><rect x="1" y="3" width="1" height="1" fill="#132131" /><rect x="2" y="3" width="1" height="1" fill="#031F32" /><rect x="3" y="3" width="1" height="1" fill="#00042E" /><rect x="4" y="3" width="1" height="1" fill="#B56940" /><rect x="5" y="3" width="1" height="1" fill="#FF9950" /><rect x="6" y="3" width="1" height="1" fill="#FF944D" /><rect x="7" y="3" width="1" height="1" fill="#8D543A" /><rect x="8" y="3" width="1" height="1" fill="#8E543A" /><rect x="9" y="3" width="1" height="1" fill="#FF934D" /><rect x="0" y="4" width="1" height="1" fill="#082030" /><rect x="1" y="4" width="1" height="1" fill="#001F30" /><rect x="2" y="4" width="1" height="1" fill="#282732" /><rect x="3" y="4" width="1" height="1" fill="#01002E" /><rect x="4" y="4" width="1" height="1" fill="#392C32" /><rect x="5" y="4" width="1" height="1" fill="#FB8F4C" /><rect x="6" y="4" width="1" height="1" fill="#DF8147" /><rect x="7" y="4" width="1" height="1" fill="#01002B" /><rect x="8" y="4" width="1" height="1" fill="#010027" /><rect x="9" y="4" width="1" height="1" fill="#E28147" /><rect x="0" y="5" width="1" height="1" fill="#062031" /><rect x="1" y="5" width="1" height="1" fill="#041F30" /><rect x="2" y="5" width="1" height="1" fill="#242532" /><rect x="3" y="5" width="1" height="1" fill="#01002E" /><rect x="4" y="5" width="1" height="1" fill="#6A4137" /><rect x="5" y="5" width="1" height="1" fill="#F88D4B" /><rect x="6" y="5" width="1" height="1" fill="#FD914D" /><rect x="7" y="5" width="1" height="1" fill="#E18247" /><rect x="8" y="5" width="1" height="1" fill="#E68448" /><rect x="9" y="5" width="1" height="1" fill="#FC904C" /><rect x="0" y="6" width="1" height="1" fill="#062030" /><rect x="1" y="6" width="1" height="1" fill="#021F30" /><rect x="2" y="6" width="1" height="1" fill="#262632" /><rect x="3" y="6" width="1" height="1" fill="#01002E" /><rect x="4" y="6" width="1" height="1" fill="#5F3D35" /><rect x="5" y="6" width="1" height="1" fill="#F78D4B" /><rect x="6" y="6" width="1" height="1" fill="#FA8F4C" /><rect x="7" y="6" width="1" height="1" fill="#DA7D46" /><rect x="8" y="6" width="1" height="1" fill="#DF8047" /><rect x="9" y="6" width="1" height="1" fill="#FA8F4C" /><rect x="0" y="7" width="1" height="1" fill="#062031" /><rect x="1" y="7" width="1" height="1" fill="#001F30" /><rect x="2" y="7" width="1" height="1" fill="#262632" /><rect x="3" y="7" width="1" height="1" fill="#01002E" /><rect x="4" y="7" width="1" height="1" fill="#4C3334" /><rect x="5" y="7" width="1" height="1" fill="#FE914D" /><rect x="6" y="7" width="1" height="1" fill="#E28147" /><rect x="7" y="7" width="1" height="1" fill="#010027" /><rect x="8" y="7" width="1" height="1" fill="#000023" /><rect x="9" y="7" width="1" height="1" fill="#E38247" /><rect x="0" y="8" width="1" height="1" fill="#051F30" /><rect x="1" y="8" width="1" height="1" fill="#122131" /><rect x="2" y="8" width="1" height="1" fill="#0E2030" /><rect x="3" y="8" width="1" height="1" fill="#00012D" /><rect x="4" y="8" width="1" height="1" fill="#A9633E" /><rect x="5" y="8" width="1" height="1" fill="#FF974F" /><rect x="6" y="8" width="1" height="1" fill="#FF924E" /><rect x="7" y="8" width="1" height="1" fill="#895239" /><rect x="8" y="8" width="1" height="1" fill="#865039" /><rect x="9" y="8" width="1" height="1" fill="#FC904D" /><rect x="0" y="9" width="1" height="1" fill="#052031" /><rect x="1" y="9" width="1" height="1" fill="#172130" /><rect x="2" y="9" width="1" height="1" fill="#001C32" /><rect x="3" y="9" width="1" height="1" fill="#001F35" /><rect x="4" y="9" width="1" height="1" fill="#B86C42" /><rect x="5" y="9" width="1" height="1" fill="#DF8046" /><rect x="6" y="9" width="1" height="1" fill="#E38248" /><rect x="7" y="9" width="1" height="1" fill="#A15E3D" /><rect x="8" y="9" width="1" height="1" fill="#A35F3E" /><rect x="9" y="9" width="1" height="1" fill="#DE8046" />
  </g>
</svg>