<svg width="800" height="1000" xmlns="http://www.w3.org/2000/svg"><defs><linearGradient id="g" x1="0" x2="1" y1="0" y2="1"><stop offset="0%" stop-color="#2d3c96"/><stop offset="100%" stop-color="#d53392"/></linearGradient></defs><rect x="10" y="10" width="780" height="980" fill="url(#g)" rx="50" ry="50" stroke="gold" stroke-width="20"/><text x="400" y="920" width="780" text-anchor="middle" style="font:bold 200px 'Helvetica Neue';fill:gold">01741</text><g transform="translate(80 80) scale(64)"><rect x="0" y="0" width="1" height="1" fill="#a05d3d" /><rect x="0" y="1" width="1" height="1" fill="#01002d" /><rect x="0" y="2" width="1" height="1" fill="#232531" /><rect x="0" y="3" width="1" height="1" fill="#021f32" /><rect x="0" y="4" width="1" height="1" fill="#082030" /><rect x="0" y="5" width="1" height="1" fill="#062031" /><rect x="0" y="6" width="1" height="1" fill="#062030" /><rect x="0" y="7" width="1" height="1" fill="#062031" /><rect x="0" y="8" width="1" height="1" fill="#051f30" /><rect x="0" y="9" width="1" height="1" fill="#052031" /><rect x="1" y="0" width="1" height="1" fill="#875138" /><rect x="1" y="1" width="1" height="1" fill="#01002e" /><rect x="1" y="2" width="1" height="1" fill="#252631" /><rect x="1" y="3" width="1" height="1" fill="#132131" /><rect x="1" y="4" width="1" height="1" fill="#001f30" /><rect x="1" y="5" width="1" height="1" fill="#041f30" /><rect x="1" y="6" width="1" height="1" fill="#021f30" /><rect x="1" y="7" width="1" height="1" fill="#001f30" /><rect x="1" y="8" width="1" height="1" fill="#122131" /><rect x="1" y="9" width="1" height="1" fill="#172130" /><rect x="2" y="0" width="1" height="1" fill="#784938" /><rect x="2" y="1" width="1" height="1" fill="#00072f" /><rect x="2" y="2" width="1" height="1" fill="#001f30" /><rect x="2" y="3" width="1" height="1" fill="#031f32" /><rect x="2" y="4" width="1" height="1" fill="#282732" /><rect x="2" y="5" width="1" height="1" fill="#242532" /><rect x="2" y="6" width="1" height="1" fill="#262632" /><rect x="2" y="7" width="1" height="1" fill="#262632" /><rect x="2" y="8" width="1" height="1" fill="#0e2030" /><rect x="2" y="9" width="1" height="1" fill="#001c32" /><rect x="3" y="0" width="1" height="1" fill="#8b5239" /><rect x="3" y="1" width="1" height="1" fill="#01002e" /><rect x="3" y="2" width="1" height="1" fill="#001e31" /><rect x="3" y="3" width="1" height="1" fill="#00042e" /><rect x="3" y="4" width="1" height="1" fill="#01002e" /><rect x="3" y="5" width="1" height="1" fill="#01002e" /><rect x="3" y="6" width="1" height="1" fill="#01002e" /><rect x="3" y="7" width="1" height="1" fill="#01002e" /><rect x="3" y="8" width="1" height="1" fill="#00012d" /><rect x="3" y="9" width="1" height="1" fill="#001f35" /><rect x="4" y="0" width="1" height="1" fill="#493234" /><rect x="4" y="1" width="1" height="1" fill="#01002e" /><rect x="4" y="2" width="1" height="1" fill="#b56940" /><rect x="4" y="3" width="1" height="1" fill="#b56940" /><rect x="4" y="4" width="1" height="1" fill="#392c32" /><rect x="4" y="5" width="1" height="1" fill="#6a4137" /><rect x="4" y="6" width="1" height="1" fill="#5f3d35" /><rect x="4" y="7" width="1" height="1" fill="#4c3334" /><rect x="4" y="8" width="1" height="1" fill="#a9633e" /><rect x="4" y="9" width="1" height="1" fill="#b86c42" /><rect x="5" y="0" width="1" height="1" fill="#000a2f" /><rect x="5" y="1" width="1" height="1" fill="#01002e" /><rect x="5" y="2" width="1" height="1" fill="#d87c46" /><rect x="5" y="3" width="1" height="1" fill="#ff9950" /><rect x="5" y="4" width="1" height="1" fill="#fb8f4c" /><rect x="5" y="5" width="1" height="1" fill="#f88d4b" /><rect x="5" y="6" width="1" height="1" fill="#f78d4b" /><rect x="5" y="7" width="1" height="1" fill="#fe914d" /><rect x="5" y="8" width="1" height="1" fill="#ff974f" /><rect x="5" y="9" width="1" height="1" fill="#df8046" /><rect x="6" y="0" width="1" height="1" fill="#784938" /><rect x="6" y="1" width="1" height="1" fill="#01002a" /><rect x="6" y="2" width="1" height="1" fill="#dd7f46" /><rect x="6" y="3" width="1" height="1" fill="#ff944d" /><rect x="6" y="4" width="1" height="1" fill="#df8147" /><rect x="6" y="5" width="1" height="1" fill="#fd914d" /><rect x="6" y="6" width="1" height="1" fill="#fa8f4c" /><rect x="6" y="7" width="1" height="1" fill="#e28147" /><rect x="6" y="8" width="1" height="1" fill="#ff924e" /><rect x="6" y="9" width="1" height="1" fill="#e38248" /><rect x="7" y="0" width="1" height="1" fill="#96583b" /><rect x="7" y="1" width="1" height="1" fill="#01002b" /><rect x="7" y="2" width="1" height="1" fill="#9e5c3c" /><rect x="7" y="3" width="1" height="1" fill="#8d543a" /><rect x="7" y="4" width="1" height="1" fill="#01002b" /><rect x="7" y="5" width="1" height="1" fill="#e18247" /><rect x="7" y="6" width="1" height="1" fill="#da7d46" /><rect x="7" y="7" width="1" height="1" fill="#010027" /><rect x="7" y="8" width="1" height="1" fill="#895239" /><rect x="7" y="9" width="1" height="1" fill="#a15e3d" /><rect x="8" y="0" width="1" height="1" fill="#2e2932" /><rect x="8" y="1" width="1" height="1" fill="#00082f" /><rect x="8" y="2" width="1" height="1" fill="#a15e3d" /><rect x="8" y="3" width="1" height="1" fill="#8e543a" /><rect x="8" y="4" width="1" height="1" fill="#010027" /><rect x="8" y="5" width="1" height="1" fill="#e68448" /><rect x="8" y="6" width="1" height="1" fill="#df8047" /><rect x="8" y="7" width="1" height="1" fill="#000023" /><rect x="8" y="8" width="1" height="1" fill="#865039" /><rect x="8" y="9" width="1" height="1" fill="#a35f3e" /><rect x="9" y="0" width="1" height="1" fill="#0b2030" /><rect x="9" y="1" width="1" height="1" fill="#01002e" /><rect x="9" y="2" width="1" height="1" fill="#d87c46" /><rect x="9" y="3" width="1" height="1" fill="#ff934d" /><rect x="9" y="4" width="1" height="1" fill="#e28147" /><rect x="9" y="5" width="1" height="1" fill="#fc904c" /><rect x="9" y="6" width="1" height="1" fill="#fa8f4c" /><rect x="9" y="7" width="1" height="1" fill="#e38247" /><rect x="9" y="8" width="1" height="1" fill="#fc904d" /><rect x="9" y="9" width="1" height="1" fill="#de8046" /></g></svg>