<svg width="800" height="1000" version="1.1" xmlns="http://www.w3.org/2000/svg" xmlns:xlink="http://www.w3.org/1999/xlink">
  <defs>
      <linearGradient id="Gradient2" x1="0" x2="1" y1="0" y2="1">
        <stop offset="0%" stop-color="#2d3c96"/>
        <stop offset="100%" stop-color="#d53392"/>
      </linearGradient>
  </defs>
  <rect x="10" y="10" width="780" height="980" fill="url(#Gradient2)" rx="50" ry="50" stroke="#ffd700" stroke-width="20"/>
  <text x="400" y="920" width="780" text-anchor="middle" style="font: bold 200px 'Helvetica Neue'; fill: #ffd700">01742</text>

  <g transform="translate(80 80) scale(64)">
<rect x="0" y="0" width="1" height="1" fill="#001930" /><rect x="1" y="0" width="1" height="1" fill="#382B32" /><rect x="2" y="0" width="1" height="1" fill="#995A3B" /><rect x="3" y="0" width="1" height="1" fill="#9F5D3D" /><rect x="4" y="0" width="1" height="1" fill="#593A35" /><rect x="5" y="0" width="1" height="1" fill="#252631" /><rect x="6" y="0" width="1" height="1" fill="#834E39" /><rect x="7" y="0" width="1" height="1" fill="#8A513A" /><rect x="8" y="0" width="1" height="1" fill="#88513A" /><rect x="9" y="0" width="1" height="1" fill="#483234" /><rect x="0" y="1" width="1" height="1" fill="#01002E" /><rect x="1" y="1" width="1" height="1" fill="#01002E" /><rect x="2" y="1" width="1" height="1" fill="#01002D" /><rect x="3" y="1" width="1" height="1" fill="#01002D" /><rect x="4" y="1" width="1" height="1" fill="#001530" /><rect x="5" y="1" width="1" height="1" fill="#041F32" /><rect x="6" y="1" width="1" height="1" fill="#01002E" /><rect x="7" y="1" width="1" height="1" fill="#01002E" /><rect x="8" y="1" width="1" height="1" fill="#01002E" /><rect x="9" y="1" width="1" height="1" fill="#001B31" /><rect x="0" y="2" width="1" height="1" fill="#DA7D46" /><rect x="1" y="2" width="1" height="1" fill="#B66940" /><rect x="2" y="2" width="1" height="1" fill="#001430" /><rect x="3" y="2" width="1" height="1" fill="#212531" /><rect x="4" y="2" width="1" height="1" fill="#00092F" /><rect x="5" y="2" width="1" height="1" fill="#00122F" /><rect x="6" y="2" width="1" height="1" fill="#1F2431" /><rect x="7" y="2" width="1" height="1" fill="#1E2431" /><rect x="8" y="2" width="1" height="1" fill="#001B30" /><rect x="9" y="2" width="1" height="1" fill="#001830" /><rect x="0" y="3" width="1" height="1" fill="#FF9A4F" /><rect x="1" y="3" width="1" height="1" fill="#B86B41" /><rect x="2" y="3" width="1" height="1" fill="#01002C" /><rect x="3" y="3" width="1" height="1" fill="#0A2131" /><rect x="4" y="3" width="1" height="1" fill="#6F4436" /><rect x="5" y="3" width="1" height="1" fill="#543734" /><rect x="6" y="3" width="1" height="1" fill="#00092F" /><rect x="7" y="3" width="1" height="1" fill="#001931" /><rect x="8" y="3" width="1" height="1" fill="#3D2E33" /><rect x="9" y="3" width="1" height="1" fill="#422F33" /><rect x="0" y="4" width="1" height="1" fill="#FE914D" /><rect x="1" y="4" width="1" height="1" fill="#242632" /><rect x="2" y="4" width="1" height="1" fill="#382B32" /><rect x="3" y="4" width="1" height="1" fill="#DF8047" /><rect x="4" y="4" width="1" height="1" fill="#FE914D" /><rect x="5" y="4" width="1" height="1" fill="#FA8E4C" /><rect x="6" y="4" width="1" height="1" fill="#97583B" /><rect x="7" y="4" width="1" height="1" fill="#7E4C38" /><rect x="8" y="4" width="1" height="1" fill="#F88D4B" /><rect x="9" y="4" width="1" height="1" fill="#E88549" /><rect x="0" y="5" width="1" height="1" fill="#FE914D" /><rect x="1" y="5" width="1" height="1" fill="#443133" /><rect x="2" y="5" width="1" height="1" fill="#C67143" /><rect x="3" y="5" width="1" height="1" fill="#FF964E" /><rect x="4" y="5" width="1" height="1" fill="#855039" /><rect x="5" y="5" width="1" height="1" fill="#EB8749" /><rect x="6" y="5" width="1" height="1" fill="#FE914D" /><rect x="7" y="5" width="1" height="1" fill="#774838" /><rect x="8" y="5" width="1" height="1" fill="#E88549" /><rect x="9" y="5" width="1" height="1" fill="#FF954E" /><rect x="0" y="6" width="1" height="1" fill="#FB8F4C" /><rect x="1" y="6" width="1" height="1" fill="#4C3533" /><rect x="2" y="6" width="1" height="1" fill="#E48348" /><rect x="3" y="6" width="1" height="1" fill="#F98E4B" /><rect x="4" y="6" width="1" height="1" fill="#C97443" /><rect x="5" y="6" width="1" height="1" fill="#F38A4B" /><rect x="6" y="6" width="1" height="1" fill="#F18B4A" /><rect x="7" y="6" width="1" height="1" fill="#523734" /><rect x="8" y="6" width="1" height="1" fill="#CB7543" /><rect x="9" y="6" width="1" height="1" fill="#FF924E" /><rect x="0" y="7" width="1" height="1" fill="#FF934E" /><rect x="1" y="7" width="1" height="1" fill="#372D32" /><rect x="2" y="7" width="1" height="1" fill="#E08147" /><rect x="3" y="7" width="1" height="1" fill="#FF974F" /><rect x="4" y="7" width="1" height="1" fill="#CB7543" /><rect x="5" y="7" width="1" height="1" fill="#895239" /><rect x="6" y="7" width="1" height="1" fill="#613E35" /><rect x="7" y="7" width="1" height="1" fill="#01002E" /><rect x="8" y="7" width="1" height="1" fill="#DA7D46" /><rect x="9" y="7" width="1" height="1" fill="#FE914D" /><rect x="0" y="8" width="1" height="1" fill="#FF9A4F" /><rect x="1" y="8" width="1" height="1" fill="#A05D3D" /><rect x="2" y="8" width="1" height="1" fill="#AF663E" /><rect x="3" y="8" width="1" height="1" fill="#FF9A4F" /><rect x="4" y="8" width="1" height="1" fill="#D27845" /><rect x="5" y="8" width="1" height="1" fill="#CA7443" /><rect x="6" y="8" width="1" height="1" fill="#C16E41" /><rect x="7" y="8" width="1" height="1" fill="#663F36" /><rect x="8" y="8" width="1" height="1" fill="#EF8A4A" /><rect x="9" y="8" width="1" height="1" fill="#FF9850" /><rect x="0" y="9" width="1" height="1" fill="#E08147" /><rect x="1" y="9" width="1" height="1" fill="#BB6D41" /><rect x="2" y="9" width="1" height="1" fill="#001130" /><rect x="3" y="9" width="1" height="1" fill="#C57143" /><rect x="4" y="9" width="1" height="1" fill="#F38A4B" /><rect x="5" y="9" width="1" height="1" fill="#F58B4A" /><rect x="6" y="9" width="1" height="1" fill="#A8623E" /><rect x="7" y="9" width="1" height="1" fill="#8E543A" /><rect x="8" y="9" width="1" height="1" fill="#DB7E47" /><rect x="9" y="9" width="1" height="1" fill="#E28147" />
  </g>
</svg>