<svg width="800" height="1000" version="1.1" xmlns="http://www.w3.org/2000/svg" xmlns:xlink="http://www.w3.org/1999/xlink">
  <defs>
      <linearGradient id="Gradient2" x1="0" x2="1" y1="0" y2="1">
        <stop offset="0%" stop-color="#2d3c96"/>
        <stop offset="100%" stop-color="#d53392"/>
      </linearGradient>
  </defs>
  <rect x="10" y="10" width="780" height="980" fill="url(#Gradient2)" rx="50" ry="50" stroke="#ffd700" stroke-width="20"/>
  <text x="400" y="920" width="780" text-anchor="middle" style="font: bold 200px 'Helvetica Neue'; fill: #ffd700">01750</text>

  <g transform="translate(80 80) scale(64)">
<rect x="0" y="0" width="1" height="1" fill="#ce0b00" />
,<rect x="0" y="1" width="1" height="1" fill="#ce0b00" />
,<rect x="0" y="2" width="1" height="1" fill="#ce0b00" />
,<rect x="0" y="3" width="1" height="1" fill="#ce0b00" />
,<rect x="0" y="4" width="1" height="1" fill="#282f30" />
,<rect x="0" y="5" width="1" height="1" fill="#173234" />
,<rect x="0" y="6" width="1" height="1" fill="#cb150a" />
,<rect x="0" y="7" width="1" height="1" fill="#550000" />
,<rect x="0" y="8" width="1" height="1" fill="#000c05" />
,<rect x="0" y="9" width="1" height="1" fill="#5f8f36" />
,<rect x="1" y="0" width="1" height="1" fill="#ce0b00" />
,<rect x="1" y="1" width="1" height="1" fill="#ce0b00" />
,<rect x="1" y="2" width="1" height="1" fill="#ce0b00" />
,<rect x="1" y="3" width="1" height="1" fill="#ce0b00" />
,<rect x="1" y="4" width="1" height="1" fill="#173234" />
,<rect x="1" y="5" width="1" height="1" fill="#173234" />
,<rect x="1" y="6" width="1" height="1" fill="#d1170c" />
,<rect x="1" y="7" width="1" height="1" fill="#540000" />
,<rect x="1" y="8" width="1" height="1" fill="#000c04" />
,<rect x="1" y="9" width="1" height="1" fill="#5f8f36" />
,<rect x="2" y="0" width="1" height="1" fill="#e31b0d" />
,<rect x="2" y="1" width="1" height="1" fill="#ce0b00" />
,<rect x="2" y="2" width="1" height="1" fill="#ce0b00" />
,<rect x="2" y="3" width="1" height="1" fill="#ce0b00" />
,<rect x="2" y="4" width="1" height="1" fill="#d11408" />
,<rect x="2" y="5" width="1" height="1" fill="#d41207" />
,<rect x="2" y="6" width="1" height="1" fill="#e21b0e" />
,<rect x="2" y="7" width="1" height="1" fill="#540001" />
,<rect x="2" y="8" width="1" height="1" fill="#000b04" />
,<rect x="2" y="9" width="1" height="1" fill="#5f8f36" />
,<rect x="3" y="0" width="1" height="1" fill="#4b0704" />
,<rect x="3" y="1" width="1" height="1" fill="#400603" />
,<rect x="3" y="2" width="1" height="1" fill="#400703" />
,<rect x="3" y="3" width="1" height="1" fill="#400703" />
,<rect x="3" y="4" width="1" height="1" fill="#420604" />
,<rect x="3" y="5" width="1" height="1" fill="#410503" />
,<rect x="3" y="6" width="1" height="1" fill="#480403" />
,<rect x="3" y="7" width="1" height="1" fill="#150000" />
,<rect x="3" y="8" width="1" height="1" fill="#020d04" />
,<rect x="3" y="9" width="1" height="1" fill="#5f8f36" />
,<rect x="4" y="0" width="1" height="1" fill="#000100" />
,<rect x="4" y="1" width="1" height="1" fill="#000000" />
,<rect x="4" y="2" width="1" height="1" fill="#000000" />
,<rect x="4" y="3" width="1" height="1" fill="#000000" />
,<rect x="4" y="4" width="1" height="1" fill="#000000" />
,<rect x="4" y="5" width="1" height="1" fill="#000200" />
,<rect x="4" y="6" width="1" height="1" fill="#000701" />
,<rect x="4" y="7" width="1" height="1" fill="#000000" />
,<rect x="4" y="8" width="1" height="1" fill="#0c1407" />
,<rect x="4" y="9" width="1" height="1" fill="#5f8f36" />
,<rect x="5" y="0" width="1" height="1" fill="#283d16" />
,<rect x="5" y="1" width="1" height="1" fill="#0f1708" />
,<rect x="5" y="2" width="1" height="1" fill="#0f1708" />
,<rect x="5" y="3" width="1" height="1" fill="#1e2e11" />
,<rect x="5" y="4" width="1" height="1" fill="#1e2e11" />
,<rect x="5" y="5" width="1" height="1" fill="#283d16" />
,<rect x="5" y="6" width="1" height="1" fill="#4a7527" />
,<rect x="5" y="7" width="1" height="1" fill="#5f8f36" />
,<rect x="5" y="8" width="1" height="1" fill="#5f8f36" />
,<rect x="5" y="9" width="1" height="1" fill="#5f8f36" />
,<rect x="6" y="0" width="1" height="1" fill="#283d16" />
,<rect x="6" y="1" width="1" height="1" fill="#1e2e11" />
,<rect x="6" y="2" width="1" height="1" fill="#0f1708" />
,<rect x="6" y="3" width="1" height="1" fill="#000200" />
,<rect x="6" y="4" width="1" height="1" fill="#000200" />
,<rect x="6" y="5" width="1" height="1" fill="#283d16" />
,<rect x="6" y="6" width="1" height="1" fill="#4a7527" />
,<rect x="6" y="7" width="1" height="1" fill="#5f8f36" />
,<rect x="6" y="8" width="1" height="1" fill="#5f8f36" />
,<rect x="6" y="9" width="1" height="1" fill="#ed3546" />
,<rect x="7" y="0" width="1" height="1" fill="#283d16" />
,<rect x="7" y="1" width="1" height="1" fill="#283d16" />
,<rect x="7" y="2" width="1" height="1" fill="#1e2e11" />
,<rect x="7" y="3" width="1" height="1" fill="#000200" />
,<rect x="7" y="4" width="1" height="1" fill="#1e2e11" />
,<rect x="7" y="5" width="1" height="1" fill="#283d16" />
,<rect x="7" y="6" width="1" height="1" fill="#4a7527" />
,<rect x="7" y="7" width="1" height="1" fill="#5f8f36" />
,<rect x="7" y="8" width="1" height="1" fill="#5f8f36" />
,<rect x="7" y="9" width="1" height="1" fill="#e43d44" />
,<rect x="8" y="0" width="1" height="1" fill="#283d16" />
,<rect x="8" y="1" width="1" height="1" fill="#ce0b00" />
,<rect x="8" y="2" width="1" height="1" fill="#ce0b00" />
,<rect x="8" y="3" width="1" height="1" fill="#283d16" />
,<rect x="8" y="4" width="1" height="1" fill="#283d16" />
,<rect x="8" y="5" width="1" height="1" fill="#283d16" />
,<rect x="8" y="6" width="1" height="1" fill="#5f8f36" />
,<rect x="8" y="7" width="1" height="1" fill="#5f8f36" />
,<rect x="8" y="8" width="1" height="1" fill="#5f8f36" />
,<rect x="8" y="9" width="1" height="1" fill="#e63c44" />
,<rect x="9" y="0" width="1" height="1" fill="#283d16" />
,<rect x="9" y="1" width="1" height="1" fill="#ce0b00" />
,<rect x="9" y="2" width="1" height="1" fill="#ce0b00" />
,<rect x="9" y="3" width="1" height="1" fill="#283d16" />
,<rect x="9" y="4" width="1" height="1" fill="#283d16" />
,<rect x="9" y="5" width="1" height="1" fill="#283d16" />
,<rect x="9" y="6" width="1" height="1" fill="#5f8f36" />
,<rect x="9" y="7" width="1" height="1" fill="#5f8f36" />
,<rect x="9" y="8" width="1" height="1" fill="#5f8f36" />
,<rect x="9" y="9" width="1" height="1" fill="#e63b44" />

  </g>
</svg>