<svg width="800" height="1000" xmlns="http://www.w3.org/2000/svg"><defs><linearGradient id="g" x1="0" x2="1" y1="0" y2="1"><stop offset="0%" stop-color="#2d3c96"/><stop offset="100%" stop-color="#d53392"/></linearGradient></defs><rect x="10" y="10" width="780" height="980" fill="url(#g)" rx="50" ry="50" stroke="gold" stroke-width="20"/><text x="400" y="920" width="780" text-anchor="middle" style="font:bold 200px 'Helvetica Neue';fill:gold">01793</text><g transform="translate(80 80) scale(64)"><rect x="0" y="0" width="1" height="1" fill="#00c3d9" /><rect x="0" y="1" width="1" height="1" fill="#00897c" /><rect x="0" y="2" width="1" height="1" fill="#57b242" /><rect x="0" y="3" width="1" height="1" fill="#92c44a" /><rect x="0" y="4" width="1" height="1" fill="#d7e034" /><rect x="0" y="5" width="1" height="1" fill="#fff442" /><rect x="0" y="6" width="1" height="1" fill="#ffbb00" /><rect x="0" y="7" width="1" height="1" fill="#ff9500" /><rect x="0" y="8" width="1" height="1" fill="#ff4928" /><rect x="0" y="9" width="1" height="1" fill="#f13e3b" /><rect x="1" y="0" width="1" height="1" fill="#00a6fc" /><rect x="1" y="1" width="1" height="1" fill="#00cadf" /><rect x="1" y="2" width="1" height="1" fill="#008683" /><rect x="1" y="3" width="1" height="1" fill="#4fb043" /><rect x="1" y="4" width="1" height="1" fill="#8ac14c" /><rect x="1" y="5" width="1" height="1" fill="#d1de34" /><rect x="1" y="6" width="1" height="1" fill="#fff948" /><rect x="1" y="7" width="1" height="1" fill="#ffc000" /><rect x="1" y="8" width="1" height="1" fill="#ff9e00" /><rect x="1" y="9" width="1" height="1" fill="#ff4928" /><rect x="2" y="0" width="1" height="1" fill="#2499fa" /><rect x="2" y="1" width="1" height="1" fill="#00a9fc" /><rect x="2" y="2" width="1" height="1" fill="#00cadf" /><rect x="2" y="3" width="1" height="1" fill="#008683" /><rect x="2" y="4" width="1" height="1" fill="#4fb043" /><rect x="2" y="5" width="1" height="1" fill="#8ac14c" /><rect x="2" y="6" width="1" height="1" fill="#d1de34" /><rect x="2" y="7" width="1" height="1" fill="#fff948" /><rect x="2" y="8" width="1" height="1" fill="#ffc000" /><rect x="2" y="9" width="1" height="1" fill="#ff9500" /><rect x="3" y="0" width="1" height="1" fill="#4142a5" /><rect x="3" y="1" width="1" height="1" fill="#21a2ff" /><rect x="3" y="2" width="1" height="1" fill="#00a9fc" /><rect x="3" y="3" width="1" height="1" fill="#00cadf" /><rect x="3" y="4" width="1" height="1" fill="#008683" /><rect x="3" y="5" width="1" height="1" fill="#4fb043" /><rect x="3" y="6" width="1" height="1" fill="#8ac14c" /><rect x="3" y="7" width="1" height="1" fill="#d1de34" /><rect x="3" y="8" width="1" height="1" fill="#fff948" /><rect x="3" y="9" width="1" height="1" fill="#ffbb00" /><rect x="4" y="0" width="1" height="1" fill="#6a36b8" /><rect x="4" y="1" width="1" height="1" fill="#3c45a5" /><rect x="4" y="2" width="1" height="1" fill="#21a2ff" /><rect x="4" y="3" width="1" height="1" fill="#00a9fc" /><rect x="4" y="4" width="1" height="1" fill="#00cadf" /><rect x="4" y="5" width="1" height="1" fill="#008683" /><rect x="4" y="6" width="1" height="1" fill="#4fb043" /><rect x="4" y="7" width="1" height="1" fill="#8ac14c" /><rect x="4" y="8" width="1" height="1" fill="#d1de34" /><rect x="4" y="9" width="1" height="1" fill="#fff442" /><rect x="5" y="0" width="1" height="1" fill="#9f23b7" /><rect x="5" y="1" width="1" height="1" fill="#6339b9" /><rect x="5" y="2" width="1" height="1" fill="#3c45a5" /><rect x="5" y="3" width="1" height="1" fill="#21a2ff" /><rect x="5" y="4" width="1" height="1" fill="#00a9fc" /><rect x="5" y="5" width="1" height="1" fill="#00cadf" /><rect x="5" y="6" width="1" height="1" fill="#008683" /><rect x="5" y="7" width="1" height="1" fill="#4fb043" /><rect x="5" y="8" width="1" height="1" fill="#8ac14c" /><rect x="5" y="9" width="1" height="1" fill="#d7e034" /><rect x="6" y="0" width="1" height="1" fill="#fa1755" /><rect x="6" y="1" width="1" height="1" fill="#9624c1" /><rect x="6" y="2" width="1" height="1" fill="#6339b9" /><rect x="6" y="3" width="1" height="1" fill="#3c45a5" /><rect x="6" y="4" width="1" height="1" fill="#21a2ff" /><rect x="6" y="5" width="1" height="1" fill="#00a9fc" /><rect x="6" y="6" width="1" height="1" fill="#00cadf" /><rect x="6" y="7" width="1" height="1" fill="#008683" /><rect x="6" y="8" width="1" height="1" fill="#4fb043" /><rect x="6" y="9" width="1" height="1" fill="#92c44a" /><rect x="7" y="0" width="1" height="1" fill="#f5492d" /><rect x="7" y="1" width="1" height="1" fill="#f9125b" /><rect x="7" y="2" width="1" height="1" fill="#9624c1" /><rect x="7" y="3" width="1" height="1" fill="#6339b9" /><rect x="7" y="4" width="1" height="1" fill="#3c45a5" /><rect x="7" y="5" width="1" height="1" fill="#21a2ff" /><rect x="7" y="6" width="1" height="1" fill="#00a9fc" /><rect x="7" y="7" width="1" height="1" fill="#00cadf" /><rect x="7" y="8" width="1" height="1" fill="#008683" /><rect x="7" y="9" width="1" height="1" fill="#57b242" /><rect x="8" y="0" width="1" height="1" fill="#ff5321" /><rect x="8" y="1" width="1" height="1" fill="#f4472f" /><rect x="8" y="2" width="1" height="1" fill="#f9125b" /><rect x="8" y="3" width="1" height="1" fill="#9624c1" /><rect x="8" y="4" width="1" height="1" fill="#6339b9" /><rect x="8" y="5" width="1" height="1" fill="#3c45a5" /><rect x="8" y="6" width="1" height="1" fill="#21a2ff" /><rect x="8" y="7" width="1" height="1" fill="#00a9fc" /><rect x="8" y="8" width="1" height="1" fill="#00cadf" /><rect x="8" y="9" width="1" height="1" fill="#00897c" /><rect x="9" y="0" width="1" height="1" fill="#ffa800" /><rect x="9" y="1" width="1" height="1" fill="#ff5321" /><rect x="9" y="2" width="1" height="1" fill="#f5492d" /><rect x="9" y="3" width="1" height="1" fill="#fa1755" /><rect x="9" y="4" width="1" height="1" fill="#9f23b7" /><rect x="9" y="5" width="1" height="1" fill="#6a36b8" /><rect x="9" y="6" width="1" height="1" fill="#4142a5" /><rect x="9" y="7" width="1" height="1" fill="#2499fa" /><rect x="9" y="8" width="1" height="1" fill="#00a6fc" /><rect x="9" y="9" width="1" height="1" fill="#00c3d9" /></g></svg>