<svg width="800" height="1000" version="1.1" xmlns="http://www.w3.org/2000/svg" xmlns:xlink="http://www.w3.org/1999/xlink">
  <defs>
      <linearGradient id="Gradient2" x1="0" x2="1" y1="0" y2="1">
        <stop offset="0%" stop-color="#2d3c96"/>
        <stop offset="100%" stop-color="#d53392"/>
      </linearGradient>
  </defs>
  <rect x="10" y="10" width="780" height="980" fill="url(#Gradient2)" rx="50" ry="50" stroke="#ffd700" stroke-width="20"/>
  <text x="400" y="920" width="780" text-anchor="middle" style="font: bold 200px 'Helvetica Neue'; fill: #ffd700">01842</text>

  <g transform="translate(80 80) scale(64)">
<rect x="0" y="0" width="1" height="1" fill="#01002c" />
,<rect x="0" y="1" width="1" height="1" fill="#1d2d39" />
,<rect x="0" y="2" width="1" height="1" fill="#110013" />
,<rect x="0" y="3" width="1" height="1" fill="#0f3944" />
,<rect x="0" y="4" width="1" height="1" fill="#368a90" />
,<rect x="0" y="5" width="1" height="1" fill="#307f85" />
,<rect x="0" y="6" width="1" height="1" fill="#276870" />
,<rect x="0" y="7" width="1" height="1" fill="#286a71" />
,<rect x="0" y="8" width="1" height="1" fill="#276b73" />
,<rect x="0" y="9" width="1" height="1" fill="#41a3aa" />
,<rect x="1" y="0" width="1" height="1" fill="#01002c" />
,<rect x="1" y="1" width="1" height="1" fill="#183641" />
,<rect x="1" y="2" width="1" height="1" fill="#000000" />
,<rect x="1" y="3" width="1" height="1" fill="#24646c" />
,<rect x="1" y="4" width="1" height="1" fill="#56d5db" />
,<rect x="1" y="5" width="1" height="1" fill="#55d1d7" />
,<rect x="1" y="6" width="1" height="1" fill="#4fc2c9" />
,<rect x="1" y="7" width="1" height="1" fill="#4bbbc2" />
,<rect x="1" y="8" width="1" height="1" fill="#1e575f" />
,<rect x="1" y="9" width="1" height="1" fill="#000000" />
,<rect x="2" y="0" width="1" height="1" fill="#001930" />
,<rect x="2" y="1" width="1" height="1" fill="#222e39" />
,<rect x="2" y="2" width="1" height="1" fill="#000004" />
,<rect x="2" y="3" width="1" height="1" fill="#1c5059" />
,<rect x="2" y="4" width="1" height="1" fill="#42a7ae" />
,<rect x="2" y="5" width="1" height="1" fill="#49b6bd" />
,<rect x="2" y="6" width="1" height="1" fill="#46afb6" />
,<rect x="2" y="7" width="1" height="1" fill="#5be1e7" />
,<rect x="2" y="8" width="1" height="1" fill="#45aeb5" />
,<rect x="2" y="9" width="1" height="1" fill="#000000" />
,<rect x="3" y="0" width="1" height="1" fill="#01002a" />
,<rect x="3" y="1" width="1" height="1" fill="#30323a" />
,<rect x="3" y="2" width="1" height="1" fill="#000000" />
,<rect x="3" y="3" width="1" height="1" fill="#17444e" />
,<rect x="3" y="4" width="1" height="1" fill="#368d93" />
,<rect x="3" y="5" width="1" height="1" fill="#205c64" />
,<rect x="3" y="6" width="1" height="1" fill="#000424" />
,<rect x="3" y="7" width="1" height="1" fill="#4dc0c7" />
,<rect x="3" y="8" width="1" height="1" fill="#3d999f" />
,<rect x="3" y="9" width="1" height="1" fill="#000000" />
,<rect x="4" y="0" width="1" height="1" fill="#000d2d" />
,<rect x="4" y="1" width="1" height="1" fill="#003241" />
,<rect x="4" y="2" width="1" height="1" fill="#040000" />
,<rect x="4" y="3" width="1" height="1" fill="#256970" />
,<rect x="4" y="4" width="1" height="1" fill="#5bdee4" />
,<rect x="4" y="5" width="1" height="1" fill="#5ee7ed" />
,<rect x="4" y="6" width="1" height="1" fill="#59dbe1" />
,<rect x="4" y="7" width="1" height="1" fill="#5ee7ed" />
,<rect x="4" y="8" width="1" height="1" fill="#3d9ba1" />
,<rect x="4" y="9" width="1" height="1" fill="#000000" />
,<rect x="5" y="0" width="1" height="1" fill="#01002b" />
,<rect x="5" y="1" width="1" height="1" fill="#1d2835" />
,<rect x="5" y="2" width="1" height="1" fill="#190e24" />
,<rect x="5" y="3" width="1" height="1" fill="#0f3c46" />
,<rect x="5" y="4" width="1" height="1" fill="#2f7e84" />
,<rect x="5" y="5" width="1" height="1" fill="#34888e" />
,<rect x="5" y="6" width="1" height="1" fill="#328288" />
,<rect x="5" y="7" width="1" height="1" fill="#46b1b8" />
,<rect x="5" y="8" width="1" height="1" fill="#317e84" />
,<rect x="5" y="9" width="1" height="1" fill="#000000" />
,<rect x="6" y="0" width="1" height="1" fill="#010028" />
,<rect x="6" y="1" width="1" height="1" fill="#34353c" />
,<rect x="6" y="2" width="1" height="1" fill="#000000" />
,<rect x="6" y="3" width="1" height="1" fill="#143f49" />
,<rect x="6" y="4" width="1" height="1" fill="#45aeb5" />
,<rect x="6" y="5" width="1" height="1" fill="#328288" />
,<rect x="6" y="6" width="1" height="1" fill="#378c92" />
,<rect x="6" y="7" width="1" height="1" fill="#56d5db" />
,<rect x="6" y="8" width="1" height="1" fill="#307f85" />
,<rect x="6" y="9" width="1" height="1" fill="#000000" />
,<rect x="7" y="0" width="1" height="1" fill="#00042d" />
,<rect x="7" y="1" width="1" height="1" fill="#1b3842" />
,<rect x="7" y="2" width="1" height="1" fill="#000000" />
,<rect x="7" y="3" width="1" height="1" fill="#318389" />
,<rect x="7" y="4" width="1" height="1" fill="#53cdd4" />
,<rect x="7" y="5" width="1" height="1" fill="#3e9ca2" />
,<rect x="7" y="6" width="1" height="1" fill="#3fa0a7" />
,<rect x="7" y="7" width="1" height="1" fill="#55d3d9" />
,<rect x="7" y="8" width="1" height="1" fill="#41a3aa" />
,<rect x="7" y="9" width="1" height="1" fill="#000000" />
,<rect x="8" y="0" width="1" height="1" fill="#01002c" />
,<rect x="8" y="1" width="1" height="1" fill="#1b3842" />
,<rect x="8" y="2" width="1" height="1" fill="#000000" />
,<rect x="8" y="3" width="1" height="1" fill="#308086" />
,<rect x="8" y="4" width="1" height="1" fill="#55d3d9" />
,<rect x="8" y="5" width="1" height="1" fill="#51c8cf" />
,<rect x="8" y="6" width="1" height="1" fill="#4bbdc3" />
,<rect x="8" y="7" width="1" height="1" fill="#52c9d0" />
,<rect x="8" y="8" width="1" height="1" fill="#3a9298" />
,<rect x="8" y="9" width="1" height="1" fill="#000000" />
,<rect x="9" y="0" width="1" height="1" fill="#01002c" />
,<rect x="9" y="1" width="1" height="1" fill="#1d2c38" />
,<rect x="9" y="2" width="1" height="1" fill="#170d24" />
,<rect x="9" y="3" width="1" height="1" fill="#062837" />
,<rect x="9" y="4" width="1" height="1" fill="#43a6ad" />
,<rect x="9" y="5" width="1" height="1" fill="#54d0d5" />
,<rect x="9" y="6" width="1" height="1" fill="#51c8ce" />
,<rect x="9" y="7" width="1" height="1" fill="#5adce2" />
,<rect x="9" y="8" width="1" height="1" fill="#39939a" />
,<rect x="9" y="9" width="1" height="1" fill="#000000" />

  </g>
</svg>