<svg width="800" height="1000" version="1.1" xmlns="http://www.w3.org/2000/svg" xmlns:xlink="http://www.w3.org/1999/xlink">
  <defs>
      <linearGradient id="Gradient2" x1="0" x2="1" y1="0" y2="1">
        <stop offset="0%" stop-color="#2d3c96"/>
        <stop offset="100%" stop-color="#d53392"/>
      </linearGradient>
  </defs>
  <rect x="10" y="10" width="780" height="980" fill="url(#Gradient2)" rx="50" ry="50" stroke="#ffd700" stroke-width="20"/>
  <text x="400" y="920" width="780" text-anchor="middle" style="font: bold 200px 'Helvetica Neue'; fill: #ffd700">01843</text>

  <g transform="translate(80 80) scale(64)">
<rect x="0" y="0" width="1" height="1" fill="#01002D" /><rect x="1" y="0" width="1" height="1" fill="#20222F" /><rect x="2" y="0" width="1" height="1" fill="#00042D" /><rect x="3" y="0" width="1" height="1" fill="#01002B" /><rect x="4" y="0" width="1" height="1" fill="#000E2F" /><rect x="5" y="0" width="1" height="1" fill="#010027" /><rect x="6" y="0" width="1" height="1" fill="#010028" /><rect x="7" y="0" width="1" height="1" fill="#1C2230" /><rect x="8" y="0" width="1" height="1" fill="#011E31" /><rect x="9" y="0" width="1" height="1" fill="#042131" /><rect x="0" y="1" width="1" height="1" fill="#102836" /><rect x="1" y="1" width="1" height="1" fill="#013440" /><rect x="2" y="1" width="1" height="1" fill="#2C3740" /><rect x="3" y="1" width="1" height="1" fill="#28333D" /><rect x="4" y="1" width="1" height="1" fill="#001F34" /><rect x="5" y="1" width="1" height="1" fill="#2A3942" /><rect x="6" y="1" width="1" height="1" fill="#333A42" /><rect x="7" y="1" width="1" height="1" fill="#002836" /><rect x="8" y="1" width="1" height="1" fill="#061C2E" /><rect x="9" y="1" width="1" height="1" fill="#0A2736" /><rect x="0" y="2" width="1" height="1" fill="#10001A" /><rect x="1" y="2" width="1" height="1" fill="#000000" /><rect x="2" y="2" width="1" height="1" fill="#000000" /><rect x="3" y="2" width="1" height="1" fill="#000000" /><rect x="4" y="2" width="1" height="1" fill="#252934" /><rect x="5" y="2" width="1" height="1" fill="#000000" /><rect x="6" y="2" width="1" height="1" fill="#000000" /><rect x="7" y="2" width="1" height="1" fill="#05182D" /><rect x="8" y="2" width="1" height="1" fill="#0D313D" /><rect x="9" y="2" width="1" height="1" fill="#000000" /><rect x="0" y="3" width="1" height="1" fill="#0E3843" /><rect x="1" y="3" width="1" height="1" fill="#27666E" /><rect x="2" y="3" width="1" height="1" fill="#205A62" /><rect x="3" y="3" width="1" height="1" fill="#23636B" /><rect x="4" y="3" width="1" height="1" fill="#000000" /><rect x="5" y="3" width="1" height="1" fill="#2B767D" /><rect x="6" y="3" width="1" height="1" fill="#2E7B81" /><rect x="7" y="3" width="1" height="1" fill="#000020" /><rect x="8" y="3" width="1" height="1" fill="#00000F" /><rect x="9" y="3" width="1" height="1" fill="#0C2E3A" /><rect x="0" y="4" width="1" height="1" fill="#2C7279" /><rect x="1" y="4" width="1" height="1" fill="#58D5DB" /><rect x="2" y="4" width="1" height="1" fill="#54D2D8" /><rect x="3" y="4" width="1" height="1" fill="#47B0B7" /><rect x="4" y="4" width="1" height="1" fill="#378C92" /><rect x="5" y="4" width="1" height="1" fill="#53CBD2" /><rect x="6" y="4" width="1" height="1" fill="#51C8CF" /><rect x="7" y="4" width="1" height="1" fill="#44ACB2" /><rect x="8" y="4" width="1" height="1" fill="#000000" /><rect x="9" y="4" width="1" height="1" fill="#3A959A" /><rect x="0" y="5" width="1" height="1" fill="#184751" /><rect x="1" y="5" width="1" height="1" fill="#59DBE1" /><rect x="2" y="5" width="1" height="1" fill="#4FC5CB" /><rect x="3" y="5" width="1" height="1" fill="#25656C" /><rect x="4" y="5" width="1" height="1" fill="#55D3D9" /><rect x="5" y="5" width="1" height="1" fill="#4FC3CA" /><rect x="6" y="5" width="1" height="1" fill="#52CBD1" /><rect x="7" y="5" width="1" height="1" fill="#58DCE2" /><rect x="8" y="5" width="1" height="1" fill="#000000" /><rect x="9" y="5" width="1" height="1" fill="#4EBFC6" /><rect x="0" y="6" width="1" height="1" fill="#000000" /><rect x="1" y="6" width="1" height="1" fill="#54D0D6" /><rect x="2" y="6" width="1" height="1" fill="#3A959C" /><rect x="3" y="6" width="1" height="1" fill="#000000" /><rect x="4" y="6" width="1" height="1" fill="#5CDFE5" /><rect x="5" y="6" width="1" height="1" fill="#50C6CD" /><rect x="6" y="6" width="1" height="1" fill="#3A949B" /><rect x="7" y="6" width="1" height="1" fill="#2D767D" /><rect x="8" y="6" width="1" height="1" fill="#286C73" /><rect x="9" y="6" width="1" height="1" fill="#53CDD4" /><rect x="0" y="7" width="1" height="1" fill="#378E94" /><rect x="1" y="7" width="1" height="1" fill="#5DE3E9" /><rect x="2" y="7" width="1" height="1" fill="#54CED5" /><rect x="3" y="7" width="1" height="1" fill="#072132" /><rect x="4" y="7" width="1" height="1" fill="#4AB9C0" /><rect x="5" y="7" width="1" height="1" fill="#5CE4EA" /><rect x="6" y="7" width="1" height="1" fill="#4BBDC4" /><rect x="7" y="7" width="1" height="1" fill="#35898F" /><rect x="8" y="7" width="1" height="1" fill="#42A9B0" /><rect x="9" y="7" width="1" height="1" fill="#61EDF4" /><rect x="0" y="8" width="1" height="1" fill="#328288" /><rect x="1" y="8" width="1" height="1" fill="#3D9BA1" /><rect x="2" y="8" width="1" height="1" fill="#3F9EA3" /><rect x="3" y="8" width="1" height="1" fill="#123B46" /><rect x="4" y="8" width="1" height="1" fill="#15414B" /><rect x="5" y="8" width="1" height="1" fill="#41A3AA" /><rect x="6" y="8" width="1" height="1" fill="#45AEB4" /><rect x="7" y="8" width="1" height="1" fill="#2E7B81" /><rect x="8" y="8" width="1" height="1" fill="#2E7D83" /><rect x="9" y="8" width="1" height="1" fill="#42A9AF" /><rect x="0" y="9" width="1" height="1" fill="#000000" /><rect x="1" y="9" width="1" height="1" fill="#000000" /><rect x="2" y="9" width="1" height="1" fill="#000000" /><rect x="3" y="9" width="1" height="1" fill="#051F30" /><rect x="4" y="9" width="1" height="1" fill="#000011" /><rect x="5" y="9" width="1" height="1" fill="#000000" /><rect x="6" y="9" width="1" height="1" fill="#000000" /><rect x="7" y="9" width="1" height="1" fill="#000000" /><rect x="8" y="9" width="1" height="1" fill="#000000" /><rect x="9" y="9" width="1" height="1" fill="#000000" />
  </g>
</svg>