<svg width="800" height="1000" version="1.1" xmlns="http://www.w3.org/2000/svg" xmlns:xlink="http://www.w3.org/1999/xlink">
  <defs>
      <linearGradient id="Gradient2" x1="0" x2="1" y1="0" y2="1">
        <stop offset="0%" stop-color="#2d3c96"/>
        <stop offset="100%" stop-color="#d53392"/>
      </linearGradient>
  </defs>
  <rect x="10" y="10" width="780" height="980" fill="url(#Gradient2)" rx="50" ry="50" stroke="#ffd700" stroke-width="20"/>
  <text x="400" y="920" width="780" text-anchor="middle" style="font: bold 200px 'Helvetica Neue'; fill: #ffd700">01843</text>

  <g transform="translate(80 80) scale(64)">
<rect x="0" y="0" width="1" height="1" fill="#01002d" />
,<rect x="0" y="1" width="1" height="1" fill="#102836" />
,<rect x="0" y="2" width="1" height="1" fill="#10001a" />
,<rect x="0" y="3" width="1" height="1" fill="#0e3843" />
,<rect x="0" y="4" width="1" height="1" fill="#2c7279" />
,<rect x="0" y="5" width="1" height="1" fill="#184751" />
,<rect x="0" y="6" width="1" height="1" fill="#000000" />
,<rect x="0" y="7" width="1" height="1" fill="#378e94" />
,<rect x="0" y="8" width="1" height="1" fill="#328288" />
,<rect x="0" y="9" width="1" height="1" fill="#000000" />
,<rect x="1" y="0" width="1" height="1" fill="#20222f" />
,<rect x="1" y="1" width="1" height="1" fill="#013440" />
,<rect x="1" y="2" width="1" height="1" fill="#000000" />
,<rect x="1" y="3" width="1" height="1" fill="#27666e" />
,<rect x="1" y="4" width="1" height="1" fill="#58d5db" />
,<rect x="1" y="5" width="1" height="1" fill="#59dbe1" />
,<rect x="1" y="6" width="1" height="1" fill="#54d0d6" />
,<rect x="1" y="7" width="1" height="1" fill="#5de3e9" />
,<rect x="1" y="8" width="1" height="1" fill="#3d9ba1" />
,<rect x="1" y="9" width="1" height="1" fill="#000000" />
,<rect x="2" y="0" width="1" height="1" fill="#00042d" />
,<rect x="2" y="1" width="1" height="1" fill="#2c3740" />
,<rect x="2" y="2" width="1" height="1" fill="#000000" />
,<rect x="2" y="3" width="1" height="1" fill="#205a62" />
,<rect x="2" y="4" width="1" height="1" fill="#54d2d8" />
,<rect x="2" y="5" width="1" height="1" fill="#4fc5cb" />
,<rect x="2" y="6" width="1" height="1" fill="#3a959c" />
,<rect x="2" y="7" width="1" height="1" fill="#54ced5" />
,<rect x="2" y="8" width="1" height="1" fill="#3f9ea3" />
,<rect x="2" y="9" width="1" height="1" fill="#000000" />
,<rect x="3" y="0" width="1" height="1" fill="#01002b" />
,<rect x="3" y="1" width="1" height="1" fill="#28333d" />
,<rect x="3" y="2" width="1" height="1" fill="#000000" />
,<rect x="3" y="3" width="1" height="1" fill="#23636b" />
,<rect x="3" y="4" width="1" height="1" fill="#47b0b7" />
,<rect x="3" y="5" width="1" height="1" fill="#25656c" />
,<rect x="3" y="6" width="1" height="1" fill="#000000" />
,<rect x="3" y="7" width="1" height="1" fill="#072132" />
,<rect x="3" y="8" width="1" height="1" fill="#123b46" />
,<rect x="3" y="9" width="1" height="1" fill="#051f30" />
,<rect x="4" y="0" width="1" height="1" fill="#000e2f" />
,<rect x="4" y="1" width="1" height="1" fill="#001f34" />
,<rect x="4" y="2" width="1" height="1" fill="#252934" />
,<rect x="4" y="3" width="1" height="1" fill="#000000" />
,<rect x="4" y="4" width="1" height="1" fill="#378c92" />
,<rect x="4" y="5" width="1" height="1" fill="#55d3d9" />
,<rect x="4" y="6" width="1" height="1" fill="#5cdfe5" />
,<rect x="4" y="7" width="1" height="1" fill="#4ab9c0" />
,<rect x="4" y="8" width="1" height="1" fill="#15414b" />
,<rect x="4" y="9" width="1" height="1" fill="#000011" />
,<rect x="5" y="0" width="1" height="1" fill="#010027" />
,<rect x="5" y="1" width="1" height="1" fill="#2a3942" />
,<rect x="5" y="2" width="1" height="1" fill="#000000" />
,<rect x="5" y="3" width="1" height="1" fill="#2b767d" />
,<rect x="5" y="4" width="1" height="1" fill="#53cbd2" />
,<rect x="5" y="5" width="1" height="1" fill="#4fc3ca" />
,<rect x="5" y="6" width="1" height="1" fill="#50c6cd" />
,<rect x="5" y="7" width="1" height="1" fill="#5ce4ea" />
,<rect x="5" y="8" width="1" height="1" fill="#41a3aa" />
,<rect x="5" y="9" width="1" height="1" fill="#000000" />
,<rect x="6" y="0" width="1" height="1" fill="#010028" />
,<rect x="6" y="1" width="1" height="1" fill="#333a42" />
,<rect x="6" y="2" width="1" height="1" fill="#000000" />
,<rect x="6" y="3" width="1" height="1" fill="#2e7b81" />
,<rect x="6" y="4" width="1" height="1" fill="#51c8cf" />
,<rect x="6" y="5" width="1" height="1" fill="#52cbd1" />
,<rect x="6" y="6" width="1" height="1" fill="#3a949b" />
,<rect x="6" y="7" width="1" height="1" fill="#4bbdc4" />
,<rect x="6" y="8" width="1" height="1" fill="#45aeb4" />
,<rect x="6" y="9" width="1" height="1" fill="#000000" />
,<rect x="7" y="0" width="1" height="1" fill="#1c2230" />
,<rect x="7" y="1" width="1" height="1" fill="#002836" />
,<rect x="7" y="2" width="1" height="1" fill="#05182d" />
,<rect x="7" y="3" width="1" height="1" fill="#000020" />
,<rect x="7" y="4" width="1" height="1" fill="#44acb2" />
,<rect x="7" y="5" width="1" height="1" fill="#58dce2" />
,<rect x="7" y="6" width="1" height="1" fill="#2d767d" />
,<rect x="7" y="7" width="1" height="1" fill="#35898f" />
,<rect x="7" y="8" width="1" height="1" fill="#2e7b81" />
,<rect x="7" y="9" width="1" height="1" fill="#000000" />
,<rect x="8" y="0" width="1" height="1" fill="#011e31" />
,<rect x="8" y="1" width="1" height="1" fill="#061c2e" />
,<rect x="8" y="2" width="1" height="1" fill="#0d313d" />
,<rect x="8" y="3" width="1" height="1" fill="#00000f" />
,<rect x="8" y="4" width="1" height="1" fill="#000000" />
,<rect x="8" y="5" width="1" height="1" fill="#000000" />
,<rect x="8" y="6" width="1" height="1" fill="#286c73" />
,<rect x="8" y="7" width="1" height="1" fill="#42a9b0" />
,<rect x="8" y="8" width="1" height="1" fill="#2e7d83" />
,<rect x="8" y="9" width="1" height="1" fill="#000000" />
,<rect x="9" y="0" width="1" height="1" fill="#042131" />
,<rect x="9" y="1" width="1" height="1" fill="#0a2736" />
,<rect x="9" y="2" width="1" height="1" fill="#000000" />
,<rect x="9" y="3" width="1" height="1" fill="#0c2e3a" />
,<rect x="9" y="4" width="1" height="1" fill="#3a959a" />
,<rect x="9" y="5" width="1" height="1" fill="#4ebfc6" />
,<rect x="9" y="6" width="1" height="1" fill="#53cdd4" />
,<rect x="9" y="7" width="1" height="1" fill="#61edf4" />
,<rect x="9" y="8" width="1" height="1" fill="#42a9af" />
,<rect x="9" y="9" width="1" height="1" fill="#000000" />

  </g>
</svg>