<svg width="800" height="1000" version="1.1" xmlns="http://www.w3.org/2000/svg" xmlns:xlink="http://www.w3.org/1999/xlink">
  <defs>
      <linearGradient id="Gradient2" x1="0" x2="1" y1="0" y2="1">
        <stop offset="0%" stop-color="#2d3c96"/>
        <stop offset="100%" stop-color="#d53392"/>
      </linearGradient>
  </defs>
  <rect x="10" y="10" width="780" height="980" fill="url(#Gradient2)" rx="50" ry="50" stroke="#ffd700" stroke-width="20"/>
  <text x="400" y="920" width="780" text-anchor="middle" style="font: bold 200px 'Helvetica Neue'; fill: #ffd700">01844</text>

  <g transform="translate(80 80) scale(64)">
<rect x="0" y="0" width="1" height="1" fill="#092635" />
,<rect x="0" y="1" width="1" height="1" fill="#000000" />
,<rect x="0" y="2" width="1" height="1" fill="#307e84" />
,<rect x="0" y="3" width="1" height="1" fill="#55d2d8" />
,<rect x="0" y="4" width="1" height="1" fill="#4ab9c0" />
,<rect x="0" y="5" width="1" height="1" fill="#51cad1" />
,<rect x="0" y="6" width="1" height="1" fill="#49b5bc" />
,<rect x="0" y="7" width="1" height="1" fill="#297077" />
,<rect x="0" y="8" width="1" height="1" fill="#25636b" />
,<rect x="0" y="9" width="1" height="1" fill="#02152b" />
,<rect x="1" y="0" width="1" height="1" fill="#082333" />
,<rect x="1" y="1" width="1" height="1" fill="#000000" />
,<rect x="1" y="2" width="1" height="1" fill="#3d9da3" />
,<rect x="1" y="3" width="1" height="1" fill="#64f3f9" />
,<rect x="1" y="4" width="1" height="1" fill="#55d0d6" />
,<rect x="1" y="5" width="1" height="1" fill="#52ccd3" />
,<rect x="1" y="6" width="1" height="1" fill="#43a9af" />
,<rect x="1" y="7" width="1" height="1" fill="#25676f" />
,<rect x="1" y="8" width="1" height="1" fill="#25666d" />
,<rect x="1" y="9" width="1" height="1" fill="#000a26" />
,<rect x="2" y="0" width="1" height="1" fill="#072232" />
,<rect x="2" y="1" width="1" height="1" fill="#041828" />
,<rect x="2" y="2" width="1" height="1" fill="#1f5861" />
,<rect x="2" y="3" width="1" height="1" fill="#3e9ba2" />
,<rect x="2" y="4" width="1" height="1" fill="#4dbec5" />
,<rect x="2" y="5" width="1" height="1" fill="#5adde3" />
,<rect x="2" y="6" width="1" height="1" fill="#5bdfe5" />
,<rect x="2" y="7" width="1" height="1" fill="#5be0e7" />
,<rect x="2" y="8" width="1" height="1" fill="#3c99a0" />
,<rect x="2" y="9" width="1" height="1" fill="#00010c" />
,<rect x="3" y="0" width="1" height="1" fill="#052031" />
,<rect x="3" y="1" width="1" height="1" fill="#072032" />
,<rect x="3" y="2" width="1" height="1" fill="#020d26" />
,<rect x="3" y="3" width="1" height="1" fill="#0d2e33" />
,<rect x="3" y="4" width="1" height="1" fill="#236064" />
,<rect x="3" y="5" width="1" height="1" fill="#2c7477" />
,<rect x="3" y="6" width="1" height="1" fill="#3e9ea5" />
,<rect x="3" y="7" width="1" height="1" fill="#56d3da" />
,<rect x="3" y="8" width="1" height="1" fill="#3c9aa0" />
,<rect x="3" y="9" width="1" height="1" fill="#000000" />
,<rect x="4" y="0" width="1" height="1" fill="#061f30" />
,<rect x="4" y="1" width="1" height="1" fill="#072131" />
,<rect x="4" y="2" width="1" height="1" fill="#082535" />
,<rect x="4" y="3" width="1" height="1" fill="#000000" />
,<rect x="4" y="4" width="1" height="1" fill="#1b4a4e" />
,<rect x="4" y="5" width="1" height="1" fill="#3a9499" />
,<rect x="4" y="6" width="1" height="1" fill="#44adb3" />
,<rect x="4" y="7" width="1" height="1" fill="#43a8af" />
,<rect x="4" y="8" width="1" height="1" fill="#246369" />
,<rect x="4" y="9" width="1" height="1" fill="#000016" />
,<rect x="5" y="0" width="1" height="1" fill="#072132" />
,<rect x="5" y="1" width="1" height="1" fill="#082433" />
,<rect x="5" y="2" width="1" height="1" fill="#010519" />
,<rect x="5" y="3" width="1" height="1" fill="#09242f" />
,<rect x="5" y="4" width="1" height="1" fill="#44abb2" />
,<rect x="5" y="5" width="1" height="1" fill="#54ced5" />
,<rect x="5" y="6" width="1" height="1" fill="#50c9cf" />
,<rect x="5" y="7" width="1" height="1" fill="#51c6cd" />
,<rect x="5" y="8" width="1" height="1" fill="#2d777e" />
,<rect x="5" y="9" width="1" height="1" fill="#000016" />
,<rect x="6" y="0" width="1" height="1" fill="#041a28" />
,<rect x="6" y="1" width="1" height="1" fill="#143e48" />
,<rect x="6" y="2" width="1" height="1" fill="#174548" />
,<rect x="6" y="3" width="1" height="1" fill="#2a7179" />
,<rect x="6" y="4" width="1" height="1" fill="#54d1d8" />
,<rect x="6" y="5" width="1" height="1" fill="#3fa3aa" />
,<rect x="6" y="6" width="1" height="1" fill="#318288" />
,<rect x="6" y="7" width="1" height="1" fill="#5bdce3" />
,<rect x="6" y="8" width="1" height="1" fill="#43aab0" />
,<rect x="6" y="9" width="1" height="1" fill="#000000" />
,<rect x="7" y="0" width="1" height="1" fill="#000000" />
,<rect x="7" y="1" width="1" height="1" fill="#225e65" />
,<rect x="7" y="2" width="1" height="1" fill="#41a6ac" />
,<rect x="7" y="3" width="1" height="1" fill="#4abac1" />
,<rect x="7" y="4" width="1" height="1" fill="#54ced5" />
,<rect x="7" y="5" width="1" height="1" fill="#32858b" />
,<rect x="7" y="6" width="1" height="1" fill="#266668" />
,<rect x="7" y="7" width="1" height="1" fill="#51c7cd" />
,<rect x="7" y="8" width="1" height="1" fill="#3fa0a7" />
,<rect x="7" y="9" width="1" height="1" fill="#000000" />
,<rect x="8" y="0" width="1" height="1" fill="#000007" />
,<rect x="8" y="1" width="1" height="1" fill="#266870" />
,<rect x="8" y="2" width="1" height="1" fill="#59dce2" />
,<rect x="8" y="3" width="1" height="1" fill="#5ae0e6" />
,<rect x="8" y="4" width="1" height="1" fill="#57d7dd" />
,<rect x="8" y="5" width="1" height="1" fill="#5adee4" />
,<rect x="8" y="6" width="1" height="1" fill="#5adde3" />
,<rect x="8" y="7" width="1" height="1" fill="#5ee5eb" />
,<rect x="8" y="8" width="1" height="1" fill="#3b979d" />
,<rect x="8" y="9" width="1" height="1" fill="#000000" />
,<rect x="9" y="0" width="1" height="1" fill="#000424" />
,<rect x="9" y="1" width="1" height="1" fill="#15404b" />
,<rect x="9" y="2" width="1" height="1" fill="#318085" />
,<rect x="9" y="3" width="1" height="1" fill="#37898f" />
,<rect x="9" y="4" width="1" height="1" fill="#32878d" />
,<rect x="9" y="5" width="1" height="1" fill="#368b90" />
,<rect x="9" y="6" width="1" height="1" fill="#32848a" />
,<rect x="9" y="7" width="1" height="1" fill="#43aab1" />
,<rect x="9" y="8" width="1" height="1" fill="#328187" />
,<rect x="9" y="9" width="1" height="1" fill="#000000" />

  </g>
</svg>