<svg width="800" height="1000" version="1.1" xmlns="http://www.w3.org/2000/svg" xmlns:xlink="http://www.w3.org/1999/xlink">
  <defs>
      <linearGradient id="Gradient2" x1="0" x2="1" y1="0" y2="1">
        <stop offset="0%" stop-color="#2d3c96"/>
        <stop offset="100%" stop-color="#d53392"/>
      </linearGradient>
  </defs>
  <rect x="10" y="10" width="780" height="980" fill="url(#Gradient2)" rx="50" ry="50" stroke="#ffd700" stroke-width="20"/>
  <text x="400" y="920" width="780" text-anchor="middle" style="font: bold 200px 'Helvetica Neue'; fill: #ffd700">01842</text>

  <g transform="translate(80 80) scale(64)">
<rect x="0" y="0" width="1" height="1" fill="#01002C" /><rect x="1" y="0" width="1" height="1" fill="#01002C" /><rect x="2" y="0" width="1" height="1" fill="#001930" /><rect x="3" y="0" width="1" height="1" fill="#01002A" /><rect x="4" y="0" width="1" height="1" fill="#000D2D" /><rect x="5" y="0" width="1" height="1" fill="#01002B" /><rect x="6" y="0" width="1" height="1" fill="#010028" /><rect x="7" y="0" width="1" height="1" fill="#00042D" /><rect x="8" y="0" width="1" height="1" fill="#01002C" /><rect x="9" y="0" width="1" height="1" fill="#01002C" /><rect x="0" y="1" width="1" height="1" fill="#1D2D39" /><rect x="1" y="1" width="1" height="1" fill="#183641" /><rect x="2" y="1" width="1" height="1" fill="#222E39" /><rect x="3" y="1" width="1" height="1" fill="#30323A" /><rect x="4" y="1" width="1" height="1" fill="#003241" /><rect x="5" y="1" width="1" height="1" fill="#1D2835" /><rect x="6" y="1" width="1" height="1" fill="#34353C" /><rect x="7" y="1" width="1" height="1" fill="#1B3842" /><rect x="8" y="1" width="1" height="1" fill="#1B3842" /><rect x="9" y="1" width="1" height="1" fill="#1D2C38" /><rect x="0" y="2" width="1" height="1" fill="#110013" /><rect x="1" y="2" width="1" height="1" fill="#000000" /><rect x="2" y="2" width="1" height="1" fill="#000004" /><rect x="3" y="2" width="1" height="1" fill="#000000" /><rect x="4" y="2" width="1" height="1" fill="#040000" /><rect x="5" y="2" width="1" height="1" fill="#190E24" /><rect x="6" y="2" width="1" height="1" fill="#000000" /><rect x="7" y="2" width="1" height="1" fill="#000000" /><rect x="8" y="2" width="1" height="1" fill="#000000" /><rect x="9" y="2" width="1" height="1" fill="#170D24" /><rect x="0" y="3" width="1" height="1" fill="#0F3944" /><rect x="1" y="3" width="1" height="1" fill="#24646C" /><rect x="2" y="3" width="1" height="1" fill="#1C5059" /><rect x="3" y="3" width="1" height="1" fill="#17444E" /><rect x="4" y="3" width="1" height="1" fill="#256970" /><rect x="5" y="3" width="1" height="1" fill="#0F3C46" /><rect x="6" y="3" width="1" height="1" fill="#143F49" /><rect x="7" y="3" width="1" height="1" fill="#318389" /><rect x="8" y="3" width="1" height="1" fill="#308086" /><rect x="9" y="3" width="1" height="1" fill="#062837" /><rect x="0" y="4" width="1" height="1" fill="#368A90" /><rect x="1" y="4" width="1" height="1" fill="#56D5DB" /><rect x="2" y="4" width="1" height="1" fill="#42A7AE" /><rect x="3" y="4" width="1" height="1" fill="#368D93" /><rect x="4" y="4" width="1" height="1" fill="#5BDEE4" /><rect x="5" y="4" width="1" height="1" fill="#2F7E84" /><rect x="6" y="4" width="1" height="1" fill="#45AEB5" /><rect x="7" y="4" width="1" height="1" fill="#53CDD4" /><rect x="8" y="4" width="1" height="1" fill="#55D3D9" /><rect x="9" y="4" width="1" height="1" fill="#43A6AD" /><rect x="0" y="5" width="1" height="1" fill="#307F85" /><rect x="1" y="5" width="1" height="1" fill="#55D1D7" /><rect x="2" y="5" width="1" height="1" fill="#49B6BD" /><rect x="3" y="5" width="1" height="1" fill="#205C64" /><rect x="4" y="5" width="1" height="1" fill="#5EE7ED" /><rect x="5" y="5" width="1" height="1" fill="#34888E" /><rect x="6" y="5" width="1" height="1" fill="#328288" /><rect x="7" y="5" width="1" height="1" fill="#3E9CA2" /><rect x="8" y="5" width="1" height="1" fill="#51C8CF" /><rect x="9" y="5" width="1" height="1" fill="#54D0D5" /><rect x="0" y="6" width="1" height="1" fill="#276870" /><rect x="1" y="6" width="1" height="1" fill="#4FC2C9" /><rect x="2" y="6" width="1" height="1" fill="#46AFB6" /><rect x="3" y="6" width="1" height="1" fill="#000424" /><rect x="4" y="6" width="1" height="1" fill="#59DBE1" /><rect x="5" y="6" width="1" height="1" fill="#328288" /><rect x="6" y="6" width="1" height="1" fill="#378C92" /><rect x="7" y="6" width="1" height="1" fill="#3FA0A7" /><rect x="8" y="6" width="1" height="1" fill="#4BBDC3" /><rect x="9" y="6" width="1" height="1" fill="#51C8CE" /><rect x="0" y="7" width="1" height="1" fill="#286A71" /><rect x="1" y="7" width="1" height="1" fill="#4BBBC2" /><rect x="2" y="7" width="1" height="1" fill="#5BE1E7" /><rect x="3" y="7" width="1" height="1" fill="#4DC0C7" /><rect x="4" y="7" width="1" height="1" fill="#5EE7ED" /><rect x="5" y="7" width="1" height="1" fill="#46B1B8" /><rect x="6" y="7" width="1" height="1" fill="#56D5DB" /><rect x="7" y="7" width="1" height="1" fill="#55D3D9" /><rect x="8" y="7" width="1" height="1" fill="#52C9D0" /><rect x="9" y="7" width="1" height="1" fill="#5ADCE2" /><rect x="0" y="8" width="1" height="1" fill="#276B73" /><rect x="1" y="8" width="1" height="1" fill="#1E575F" /><rect x="2" y="8" width="1" height="1" fill="#45AEB5" /><rect x="3" y="8" width="1" height="1" fill="#3D999F" /><rect x="4" y="8" width="1" height="1" fill="#3D9BA1" /><rect x="5" y="8" width="1" height="1" fill="#317E84" /><rect x="6" y="8" width="1" height="1" fill="#307F85" /><rect x="7" y="8" width="1" height="1" fill="#41A3AA" /><rect x="8" y="8" width="1" height="1" fill="#3A9298" /><rect x="9" y="8" width="1" height="1" fill="#39939A" /><rect x="0" y="9" width="1" height="1" fill="#41A3AA" /><rect x="1" y="9" width="1" height="1" fill="#000000" /><rect x="2" y="9" width="1" height="1" fill="#000000" /><rect x="3" y="9" width="1" height="1" fill="#000000" /><rect x="4" y="9" width="1" height="1" fill="#000000" /><rect x="5" y="9" width="1" height="1" fill="#000000" /><rect x="6" y="9" width="1" height="1" fill="#000000" /><rect x="7" y="9" width="1" height="1" fill="#000000" /><rect x="8" y="9" width="1" height="1" fill="#000000" /><rect x="9" y="9" width="1" height="1" fill="#000000" />
  </g>
</svg>