<svg width="800" height="1000" version="1.1" xmlns="http://www.w3.org/2000/svg" xmlns:xlink="http://www.w3.org/1999/xlink">
  <defs>
      <linearGradient id="Gradient2" x1="0" x2="1" y1="0" y2="1">
        <stop offset="0%" stop-color="#2d3c96"/>
        <stop offset="100%" stop-color="#d53392"/>
      </linearGradient>
  </defs>
  <rect x="10" y="10" width="780" height="980" fill="url(#Gradient2)" rx="50" ry="50" stroke="#ffd700" stroke-width="20"/>
  <text x="400" y="920" width="780" text-anchor="middle" style="font: bold 200px 'Helvetica Neue'; fill: #ffd700">01841</text>

  <g transform="translate(80 80) scale(64)">
<rect x="0" y="0" width="1" height="1" fill="#051D30" /><rect x="1" y="0" width="1" height="1" fill="#072736" /><rect x="2" y="0" width="1" height="1" fill="#102C3A" /><rect x="3" y="0" width="1" height="1" fill="#071B2D" /><rect x="4" y="0" width="1" height="1" fill="#001335" /><rect x="5" y="0" width="1" height="1" fill="#000C34" /><rect x="6" y="0" width="1" height="1" fill="#01002B" /><rect x="7" y="0" width="1" height="1" fill="#00032D" /><rect x="8" y="0" width="1" height="1" fill="#01002C" /><rect x="9" y="0" width="1" height="1" fill="#01002B" /><rect x="0" y="1" width="1" height="1" fill="#0A2D3A" /><rect x="1" y="1" width="1" height="1" fill="#021128" /><rect x="2" y="1" width="1" height="1" fill="#000000" /><rect x="3" y="1" width="1" height="1" fill="#000000" /><rect x="4" y="1" width="1" height="1" fill="#000000" /><rect x="5" y="1" width="1" height="1" fill="#10000E" /><rect x="6" y="1" width="1" height="1" fill="#1D2D39" /><rect x="7" y="1" width="1" height="1" fill="#17343E" /><rect x="8" y="1" width="1" height="1" fill="#1A3842" /><rect x="9" y="1" width="1" height="1" fill="#1E343F" /><rect x="0" y="2" width="1" height="1" fill="#00000B" /><rect x="1" y="2" width="1" height="1" fill="#000223" /><rect x="2" y="2" width="1" height="1" fill="#33848A" /><rect x="3" y="2" width="1" height="1" fill="#46B1B7" /><rect x="4" y="2" width="1" height="1" fill="#409CA2" /><rect x="5" y="2" width="1" height="1" fill="#255159" /><rect x="6" y="2" width="1" height="1" fill="#160F25" /><rect x="7" y="2" width="1" height="1" fill="#000000" /><rect x="8" y="2" width="1" height="1" fill="#000000" /><rect x="9" y="2" width="1" height="1" fill="#000000" /><rect x="0" y="3" width="1" height="1" fill="#0D313D" /><rect x="1" y="3" width="1" height="1" fill="#368A90" /><rect x="2" y="3" width="1" height="1" fill="#5ADAE1" /><rect x="3" y="3" width="1" height="1" fill="#49B6BD" /><rect x="4" y="3" width="1" height="1" fill="#5BDEE4" /><rect x="5" y="3" width="1" height="1" fill="#3C9CA2" /><rect x="6" y="3" width="1" height="1" fill="#000000" /><rect x="7" y="3" width="1" height="1" fill="#286C73" /><rect x="8" y="3" width="1" height="1" fill="#33848A" /><rect x="9" y="3" width="1" height="1" fill="#1F5B63" /><rect x="0" y="4" width="1" height="1" fill="#378E94" /><rect x="1" y="4" width="1" height="1" fill="#43ABB1" /><rect x="2" y="4" width="1" height="1" fill="#61EDF4" /><rect x="3" y="4" width="1" height="1" fill="#2E7A80" /><rect x="4" y="4" width="1" height="1" fill="#328086" /><rect x="5" y="4" width="1" height="1" fill="#215962" /><rect x="6" y="4" width="1" height="1" fill="#328288" /><rect x="7" y="4" width="1" height="1" fill="#54D0D6" /><rect x="8" y="4" width="1" height="1" fill="#56D2D8" /><rect x="9" y="4" width="1" height="1" fill="#55D1D7" /><rect x="0" y="5" width="1" height="1" fill="#43A6AD" /><rect x="1" y="5" width="1" height="1" fill="#0C2E3B" /><rect x="2" y="5" width="1" height="1" fill="#54D2D8" /><rect x="3" y="5" width="1" height="1" fill="#60ECF2" /><rect x="4" y="5" width="1" height="1" fill="#46AFB6" /><rect x="5" y="5" width="1" height="1" fill="#14424C" /><rect x="6" y="5" width="1" height="1" fill="#54D2D8" /><rect x="7" y="5" width="1" height="1" fill="#47B5BC" /><rect x="8" y="5" width="1" height="1" fill="#2C777E" /><rect x="9" y="5" width="1" height="1" fill="#5FE8EE" /><rect x="0" y="6" width="1" height="1" fill="#3E9CA2" /><rect x="1" y="6" width="1" height="1" fill="#1F5B63" /><rect x="2" y="6" width="1" height="1" fill="#2A6F77" /><rect x="3" y="6" width="1" height="1" fill="#43A6AD" /><rect x="4" y="6" width="1" height="1" fill="#62EFF5" /><rect x="5" y="6" width="1" height="1" fill="#45B0B7" /><rect x="6" y="6" width="1" height="1" fill="#55D3D9" /><rect x="7" y="6" width="1" height="1" fill="#3C9AA0" /><rect x="8" y="6" width="1" height="1" fill="#000000" /><rect x="9" y="6" width="1" height="1" fill="#5BE1E7" /><rect x="0" y="7" width="1" height="1" fill="#4AB9C0" /><rect x="1" y="7" width="1" height="1" fill="#4CBEC5" /><rect x="2" y="7" width="1" height="1" fill="#55D1D7" /><rect x="3" y="7" width="1" height="1" fill="#49B5BC" /><rect x="4" y="7" width="1" height="1" fill="#5DE1E7" /><rect x="5" y="7" width="1" height="1" fill="#34858B" /><rect x="6" y="7" width="1" height="1" fill="#46B1B7" /><rect x="7" y="7" width="1" height="1" fill="#5BE1E7" /><rect x="8" y="7" width="1" height="1" fill="#4DC2C8" /><rect x="9" y="7" width="1" height="1" fill="#5DE3E9" /><rect x="0" y="8" width="1" height="1" fill="#348A8F" /><rect x="1" y="8" width="1" height="1" fill="#2E7B81" /><rect x="2" y="8" width="1" height="1" fill="#46B1B8" /><rect x="3" y="8" width="1" height="1" fill="#45B0B6" /><rect x="4" y="8" width="1" height="1" fill="#308287" /><rect x="5" y="8" width="1" height="1" fill="#000000" /><rect x="6" y="8" width="1" height="1" fill="#1F565E" /><rect x="7" y="8" width="1" height="1" fill="#409FA5" /><rect x="8" y="8" width="1" height="1" fill="#48B2B9" /><rect x="9" y="8" width="1" height="1" fill="#5DE1E7" /><rect x="0" y="9" width="1" height="1" fill="#000000" /><rect x="1" y="9" width="1" height="1" fill="#000000" /><rect x="2" y="9" width="1" height="1" fill="#000000" /><rect x="3" y="9" width="1" height="1" fill="#000000" /><rect x="4" y="9" width="1" height="1" fill="#000000" /><rect x="5" y="9" width="1" height="1" fill="#092635" /><rect x="6" y="9" width="1" height="1" fill="#00001E" /><rect x="7" y="9" width="1" height="1" fill="#000000" /><rect x="8" y="9" width="1" height="1" fill="#42A7AC" /><rect x="9" y="9" width="1" height="1" fill="#61EDF3" />
  </g>
</svg>