<svg width="800" height="1000" version="1.1" xmlns="http://www.w3.org/2000/svg" xmlns:xlink="http://www.w3.org/1999/xlink">
  <defs>
      <linearGradient id="Gradient2" x1="0" x2="1" y1="0" y2="1">
        <stop offset="0%" stop-color="#2d3c96"/>
        <stop offset="100%" stop-color="#d53392"/>
      </linearGradient>
  </defs>
  <rect x="10" y="10" width="780" height="980" fill="url(#Gradient2)" rx="50" ry="50" stroke="#ffd700" stroke-width="20"/>
  <text x="400" y="920" width="780" text-anchor="middle" style="font: bold 200px 'Helvetica Neue'; fill: #ffd700">01844</text>

  <g transform="translate(80 80) scale(64)">
<rect x="0" y="0" width="1" height="1" fill="#092635" /><rect x="1" y="0" width="1" height="1" fill="#082333" /><rect x="2" y="0" width="1" height="1" fill="#072232" /><rect x="3" y="0" width="1" height="1" fill="#052031" /><rect x="4" y="0" width="1" height="1" fill="#061F30" /><rect x="5" y="0" width="1" height="1" fill="#072132" /><rect x="6" y="0" width="1" height="1" fill="#041A28" /><rect x="7" y="0" width="1" height="1" fill="#000000" /><rect x="8" y="0" width="1" height="1" fill="#000007" /><rect x="9" y="0" width="1" height="1" fill="#000424" /><rect x="0" y="1" width="1" height="1" fill="#000000" /><rect x="1" y="1" width="1" height="1" fill="#000000" /><rect x="2" y="1" width="1" height="1" fill="#041828" /><rect x="3" y="1" width="1" height="1" fill="#072032" /><rect x="4" y="1" width="1" height="1" fill="#072131" /><rect x="5" y="1" width="1" height="1" fill="#082433" /><rect x="6" y="1" width="1" height="1" fill="#143E48" /><rect x="7" y="1" width="1" height="1" fill="#225E65" /><rect x="8" y="1" width="1" height="1" fill="#266870" /><rect x="9" y="1" width="1" height="1" fill="#15404B" /><rect x="0" y="2" width="1" height="1" fill="#307E84" /><rect x="1" y="2" width="1" height="1" fill="#3D9DA3" /><rect x="2" y="2" width="1" height="1" fill="#1F5861" /><rect x="3" y="2" width="1" height="1" fill="#020D26" /><rect x="4" y="2" width="1" height="1" fill="#082535" /><rect x="5" y="2" width="1" height="1" fill="#010519" /><rect x="6" y="2" width="1" height="1" fill="#174548" /><rect x="7" y="2" width="1" height="1" fill="#41A6AC" /><rect x="8" y="2" width="1" height="1" fill="#59DCE2" /><rect x="9" y="2" width="1" height="1" fill="#318085" /><rect x="0" y="3" width="1" height="1" fill="#55D2D8" /><rect x="1" y="3" width="1" height="1" fill="#64F3F9" /><rect x="2" y="3" width="1" height="1" fill="#3E9BA2" /><rect x="3" y="3" width="1" height="1" fill="#0D2E33" /><rect x="4" y="3" width="1" height="1" fill="#000000" /><rect x="5" y="3" width="1" height="1" fill="#09242F" /><rect x="6" y="3" width="1" height="1" fill="#2A7179" /><rect x="7" y="3" width="1" height="1" fill="#4ABAC1" /><rect x="8" y="3" width="1" height="1" fill="#5AE0E6" /><rect x="9" y="3" width="1" height="1" fill="#37898F" /><rect x="0" y="4" width="1" height="1" fill="#4AB9C0" /><rect x="1" y="4" width="1" height="1" fill="#55D0D6" /><rect x="2" y="4" width="1" height="1" fill="#4DBEC5" /><rect x="3" y="4" width="1" height="1" fill="#236064" /><rect x="4" y="4" width="1" height="1" fill="#1B4A4E" /><rect x="5" y="4" width="1" height="1" fill="#44ABB2" /><rect x="6" y="4" width="1" height="1" fill="#54D1D8" /><rect x="7" y="4" width="1" height="1" fill="#54CED5" /><rect x="8" y="4" width="1" height="1" fill="#57D7DD" /><rect x="9" y="4" width="1" height="1" fill="#32878D" /><rect x="0" y="5" width="1" height="1" fill="#51CAD1" /><rect x="1" y="5" width="1" height="1" fill="#52CCD3" /><rect x="2" y="5" width="1" height="1" fill="#5ADDE3" /><rect x="3" y="5" width="1" height="1" fill="#2C7477" /><rect x="4" y="5" width="1" height="1" fill="#3A9499" /><rect x="5" y="5" width="1" height="1" fill="#54CED5" /><rect x="6" y="5" width="1" height="1" fill="#3FA3AA" /><rect x="7" y="5" width="1" height="1" fill="#32858B" /><rect x="8" y="5" width="1" height="1" fill="#5ADEE4" /><rect x="9" y="5" width="1" height="1" fill="#368B90" /><rect x="0" y="6" width="1" height="1" fill="#49B5BC" /><rect x="1" y="6" width="1" height="1" fill="#43A9AF" /><rect x="2" y="6" width="1" height="1" fill="#5BDFE5" /><rect x="3" y="6" width="1" height="1" fill="#3E9EA5" /><rect x="4" y="6" width="1" height="1" fill="#44ADB3" /><rect x="5" y="6" width="1" height="1" fill="#50C9CF" /><rect x="6" y="6" width="1" height="1" fill="#318288" /><rect x="7" y="6" width="1" height="1" fill="#266668" /><rect x="8" y="6" width="1" height="1" fill="#5ADDE3" /><rect x="9" y="6" width="1" height="1" fill="#32848A" /><rect x="0" y="7" width="1" height="1" fill="#297077" /><rect x="1" y="7" width="1" height="1" fill="#25676F" /><rect x="2" y="7" width="1" height="1" fill="#5BE0E7" /><rect x="3" y="7" width="1" height="1" fill="#56D3DA" /><rect x="4" y="7" width="1" height="1" fill="#43A8AF" /><rect x="5" y="7" width="1" height="1" fill="#51C6CD" /><rect x="6" y="7" width="1" height="1" fill="#5BDCE3" /><rect x="7" y="7" width="1" height="1" fill="#51C7CD" /><rect x="8" y="7" width="1" height="1" fill="#5EE5EB" /><rect x="9" y="7" width="1" height="1" fill="#43AAB1" /><rect x="0" y="8" width="1" height="1" fill="#25636B" /><rect x="1" y="8" width="1" height="1" fill="#25666D" /><rect x="2" y="8" width="1" height="1" fill="#3C99A0" /><rect x="3" y="8" width="1" height="1" fill="#3C9AA0" /><rect x="4" y="8" width="1" height="1" fill="#246369" /><rect x="5" y="8" width="1" height="1" fill="#2D777E" /><rect x="6" y="8" width="1" height="1" fill="#43AAB0" /><rect x="7" y="8" width="1" height="1" fill="#3FA0A7" /><rect x="8" y="8" width="1" height="1" fill="#3B979D" /><rect x="9" y="8" width="1" height="1" fill="#328187" /><rect x="0" y="9" width="1" height="1" fill="#02152B" /><rect x="1" y="9" width="1" height="1" fill="#000A26" /><rect x="2" y="9" width="1" height="1" fill="#00010C" /><rect x="3" y="9" width="1" height="1" fill="#000000" /><rect x="4" y="9" width="1" height="1" fill="#000016" /><rect x="5" y="9" width="1" height="1" fill="#000016" /><rect x="6" y="9" width="1" height="1" fill="#000000" /><rect x="7" y="9" width="1" height="1" fill="#000000" /><rect x="8" y="9" width="1" height="1" fill="#000000" /><rect x="9" y="9" width="1" height="1" fill="#000000" />
  </g>
</svg>