<svg width="800" height="1000" version="1.1" xmlns="http://www.w3.org/2000/svg" xmlns:xlink="http://www.w3.org/1999/xlink">
  <defs>
      <linearGradient id="Gradient2" x1="0" x2="1" y1="0" y2="1">
        <stop offset="0%" stop-color="#2d3c96"/>
        <stop offset="100%" stop-color="#d53392"/>
      </linearGradient>
  </defs>
  <rect x="10" y="10" width="780" height="980" fill="url(#Gradient2)" rx="50" ry="50" stroke="#ffd700" stroke-width="20"/>
  <text x="400" y="920" width="780" text-anchor="middle" style="font: bold 200px 'Helvetica Neue'; fill: #ffd700">01841</text>

  <g transform="translate(80 80) scale(64)">
<rect x="0" y="0" width="1" height="1" fill="#051d30" />
,<rect x="0" y="1" width="1" height="1" fill="#0a2d3a" />
,<rect x="0" y="2" width="1" height="1" fill="#00000b" />
,<rect x="0" y="3" width="1" height="1" fill="#0d313d" />
,<rect x="0" y="4" width="1" height="1" fill="#378e94" />
,<rect x="0" y="5" width="1" height="1" fill="#43a6ad" />
,<rect x="0" y="6" width="1" height="1" fill="#3e9ca2" />
,<rect x="0" y="7" width="1" height="1" fill="#4ab9c0" />
,<rect x="0" y="8" width="1" height="1" fill="#348a8f" />
,<rect x="0" y="9" width="1" height="1" fill="#000000" />
,<rect x="1" y="0" width="1" height="1" fill="#072736" />
,<rect x="1" y="1" width="1" height="1" fill="#021128" />
,<rect x="1" y="2" width="1" height="1" fill="#000223" />
,<rect x="1" y="3" width="1" height="1" fill="#368a90" />
,<rect x="1" y="4" width="1" height="1" fill="#43abb1" />
,<rect x="1" y="5" width="1" height="1" fill="#0c2e3b" />
,<rect x="1" y="6" width="1" height="1" fill="#1f5b63" />
,<rect x="1" y="7" width="1" height="1" fill="#4cbec5" />
,<rect x="1" y="8" width="1" height="1" fill="#2e7b81" />
,<rect x="1" y="9" width="1" height="1" fill="#000000" />
,<rect x="2" y="0" width="1" height="1" fill="#102c3a" />
,<rect x="2" y="1" width="1" height="1" fill="#000000" />
,<rect x="2" y="2" width="1" height="1" fill="#33848a" />
,<rect x="2" y="3" width="1" height="1" fill="#5adae1" />
,<rect x="2" y="4" width="1" height="1" fill="#61edf4" />
,<rect x="2" y="5" width="1" height="1" fill="#54d2d8" />
,<rect x="2" y="6" width="1" height="1" fill="#2a6f77" />
,<rect x="2" y="7" width="1" height="1" fill="#55d1d7" />
,<rect x="2" y="8" width="1" height="1" fill="#46b1b8" />
,<rect x="2" y="9" width="1" height="1" fill="#000000" />
,<rect x="3" y="0" width="1" height="1" fill="#071b2d" />
,<rect x="3" y="1" width="1" height="1" fill="#000000" />
,<rect x="3" y="2" width="1" height="1" fill="#46b1b7" />
,<rect x="3" y="3" width="1" height="1" fill="#49b6bd" />
,<rect x="3" y="4" width="1" height="1" fill="#2e7a80" />
,<rect x="3" y="5" width="1" height="1" fill="#60ecf2" />
,<rect x="3" y="6" width="1" height="1" fill="#43a6ad" />
,<rect x="3" y="7" width="1" height="1" fill="#49b5bc" />
,<rect x="3" y="8" width="1" height="1" fill="#45b0b6" />
,<rect x="3" y="9" width="1" height="1" fill="#000000" />
,<rect x="4" y="0" width="1" height="1" fill="#001335" />
,<rect x="4" y="1" width="1" height="1" fill="#000000" />
,<rect x="4" y="2" width="1" height="1" fill="#409ca2" />
,<rect x="4" y="3" width="1" height="1" fill="#5bdee4" />
,<rect x="4" y="4" width="1" height="1" fill="#328086" />
,<rect x="4" y="5" width="1" height="1" fill="#46afb6" />
,<rect x="4" y="6" width="1" height="1" fill="#62eff5" />
,<rect x="4" y="7" width="1" height="1" fill="#5de1e7" />
,<rect x="4" y="8" width="1" height="1" fill="#308287" />
,<rect x="4" y="9" width="1" height="1" fill="#000000" />
,<rect x="5" y="0" width="1" height="1" fill="#000c34" />
,<rect x="5" y="1" width="1" height="1" fill="#10000e" />
,<rect x="5" y="2" width="1" height="1" fill="#255159" />
,<rect x="5" y="3" width="1" height="1" fill="#3c9ca2" />
,<rect x="5" y="4" width="1" height="1" fill="#215962" />
,<rect x="5" y="5" width="1" height="1" fill="#14424c" />
,<rect x="5" y="6" width="1" height="1" fill="#45b0b7" />
,<rect x="5" y="7" width="1" height="1" fill="#34858b" />
,<rect x="5" y="8" width="1" height="1" fill="#000000" />
,<rect x="5" y="9" width="1" height="1" fill="#092635" />
,<rect x="6" y="0" width="1" height="1" fill="#01002b" />
,<rect x="6" y="1" width="1" height="1" fill="#1d2d39" />
,<rect x="6" y="2" width="1" height="1" fill="#160f25" />
,<rect x="6" y="3" width="1" height="1" fill="#000000" />
,<rect x="6" y="4" width="1" height="1" fill="#328288" />
,<rect x="6" y="5" width="1" height="1" fill="#54d2d8" />
,<rect x="6" y="6" width="1" height="1" fill="#55d3d9" />
,<rect x="6" y="7" width="1" height="1" fill="#46b1b7" />
,<rect x="6" y="8" width="1" height="1" fill="#1f565e" />
,<rect x="6" y="9" width="1" height="1" fill="#00001e" />
,<rect x="7" y="0" width="1" height="1" fill="#00032d" />
,<rect x="7" y="1" width="1" height="1" fill="#17343e" />
,<rect x="7" y="2" width="1" height="1" fill="#000000" />
,<rect x="7" y="3" width="1" height="1" fill="#286c73" />
,<rect x="7" y="4" width="1" height="1" fill="#54d0d6" />
,<rect x="7" y="5" width="1" height="1" fill="#47b5bc" />
,<rect x="7" y="6" width="1" height="1" fill="#3c9aa0" />
,<rect x="7" y="7" width="1" height="1" fill="#5be1e7" />
,<rect x="7" y="8" width="1" height="1" fill="#409fa5" />
,<rect x="7" y="9" width="1" height="1" fill="#000000" />
,<rect x="8" y="0" width="1" height="1" fill="#01002c" />
,<rect x="8" y="1" width="1" height="1" fill="#1a3842" />
,<rect x="8" y="2" width="1" height="1" fill="#000000" />
,<rect x="8" y="3" width="1" height="1" fill="#33848a" />
,<rect x="8" y="4" width="1" height="1" fill="#56d2d8" />
,<rect x="8" y="5" width="1" height="1" fill="#2c777e" />
,<rect x="8" y="6" width="1" height="1" fill="#000000" />
,<rect x="8" y="7" width="1" height="1" fill="#4dc2c8" />
,<rect x="8" y="8" width="1" height="1" fill="#48b2b9" />
,<rect x="8" y="9" width="1" height="1" fill="#42a7ac" />
,<rect x="9" y="0" width="1" height="1" fill="#01002b" />
,<rect x="9" y="1" width="1" height="1" fill="#1e343f" />
,<rect x="9" y="2" width="1" height="1" fill="#000000" />
,<rect x="9" y="3" width="1" height="1" fill="#1f5b63" />
,<rect x="9" y="4" width="1" height="1" fill="#55d1d7" />
,<rect x="9" y="5" width="1" height="1" fill="#5fe8ee" />
,<rect x="9" y="6" width="1" height="1" fill="#5be1e7" />
,<rect x="9" y="7" width="1" height="1" fill="#5de3e9" />
,<rect x="9" y="8" width="1" height="1" fill="#5de1e7" />
,<rect x="9" y="9" width="1" height="1" fill="#61edf3" />

  </g>
</svg>