<svg width="800" height="1000" version="1.1" xmlns="http://www.w3.org/2000/svg" xmlns:xlink="http://www.w3.org/1999/xlink">
  <defs>
      <linearGradient id="Gradient2" x1="0" x2="1" y1="0" y2="1">
        <stop offset="0%" stop-color="#2d3c96"/>
        <stop offset="100%" stop-color="#d53392"/>
      </linearGradient>
  </defs>
  <rect x="10" y="10" width="780" height="980" fill="url(#Gradient2)" rx="50" ry="50" stroke="#ffd700" stroke-width="20"/>
  <text x="400" y="920" width="780" text-anchor="middle" style="font: bold 200px 'Helvetica Neue'; fill: #ffd700">01942</text>

  <g transform="translate(80 80) scale(64)">
<rect x="0" y="0" width="1" height="1" fill="#2D747B" /><rect x="1" y="0" width="1" height="1" fill="#092938" /><rect x="2" y="0" width="1" height="1" fill="#051E2F" /><rect x="3" y="0" width="1" height="1" fill="#103641" /><rect x="4" y="0" width="1" height="1" fill="#000000" /><rect x="5" y="0" width="1" height="1" fill="#43ACB2" /><rect x="6" y="0" width="1" height="1" fill="#50C7CE" /><rect x="7" y="0" width="1" height="1" fill="#1C5059" /><rect x="8" y="0" width="1" height="1" fill="#4BB9C0" /><rect x="9" y="0" width="1" height="1" fill="#45ACB3" /><rect x="0" y="1" width="1" height="1" fill="#041618" /><rect x="1" y="1" width="1" height="1" fill="#000000" /><rect x="2" y="1" width="1" height="1" fill="#000000" /><rect x="3" y="1" width="1" height="1" fill="#000000" /><rect x="4" y="1" width="1" height="1" fill="#000000" /><rect x="5" y="1" width="1" height="1" fill="#33848A" /><rect x="6" y="1" width="1" height="1" fill="#41A4AB" /><rect x="7" y="1" width="1" height="1" fill="#072335" /><rect x="8" y="1" width="1" height="1" fill="#55D0D6" /><rect x="9" y="1" width="1" height="1" fill="#53CBD2" /><rect x="0" y="2" width="1" height="1" fill="#25646B" /><rect x="1" y="2" width="1" height="1" fill="#4BB8BE" /><rect x="2" y="2" width="1" height="1" fill="#4CC0C6" /><rect x="3" y="2" width="1" height="1" fill="#3A949B" /><rect x="4" y="2" width="1" height="1" fill="#0B2835" /><rect x="5" y="2" width="1" height="1" fill="#42A5AC" /><rect x="6" y="2" width="1" height="1" fill="#43A7AE" /><rect x="7" y="2" width="1" height="1" fill="#00020D" /><rect x="8" y="2" width="1" height="1" fill="#4DBFC5" /><rect x="9" y="2" width="1" height="1" fill="#53CAD1" /><rect x="0" y="3" width="1" height="1" fill="#34888E" /><rect x="1" y="3" width="1" height="1" fill="#4EC1C8" /><rect x="2" y="3" width="1" height="1" fill="#47B4BA" /><rect x="3" y="3" width="1" height="1" fill="#58D7DD" /><rect x="4" y="3" width="1" height="1" fill="#215E66" /><rect x="5" y="3" width="1" height="1" fill="#4AB9C0" /><rect x="6" y="3" width="1" height="1" fill="#55D2D8" /><rect x="7" y="3" width="1" height="1" fill="#000000" /><rect x="8" y="3" width="1" height="1" fill="#4AB9C0" /><rect x="9" y="3" width="1" height="1" fill="#53CBD2" /><rect x="0" y="4" width="1" height="1" fill="#1D555D" /><rect x="1" y="4" width="1" height="1" fill="#40A3AA" /><rect x="2" y="4" width="1" height="1" fill="#43A8AE" /><rect x="3" y="4" width="1" height="1" fill="#5DE2E8" /><rect x="4" y="4" width="1" height="1" fill="#215C64" /><rect x="5" y="4" width="1" height="1" fill="#3FA3A8" /><rect x="6" y="4" width="1" height="1" fill="#5ADDE3" /><rect x="7" y="4" width="1" height="1" fill="#000000" /><rect x="8" y="4" width="1" height="1" fill="#49B7BD" /><rect x="9" y="4" width="1" height="1" fill="#51C7CE" /><rect x="0" y="5" width="1" height="1" fill="#2D7880" /><rect x="1" y="5" width="1" height="1" fill="#4AB8BF" /><rect x="2" y="5" width="1" height="1" fill="#44A9AF" /><rect x="3" y="5" width="1" height="1" fill="#5CE2E8" /><rect x="4" y="5" width="1" height="1" fill="#25666D" /><rect x="5" y="5" width="1" height="1" fill="#3C999F" /><rect x="6" y="5" width="1" height="1" fill="#5BDEE4" /><rect x="7" y="5" width="1" height="1" fill="#020C1B" /><rect x="8" y="5" width="1" height="1" fill="#4CBCC3" /><rect x="9" y="5" width="1" height="1" fill="#53CED4" /><rect x="0" y="6" width="1" height="1" fill="#47B1B8" /><rect x="1" y="6" width="1" height="1" fill="#59DADF" /><rect x="2" y="6" width="1" height="1" fill="#43A8AE" /><rect x="3" y="6" width="1" height="1" fill="#5ADFE5" /><rect x="4" y="6" width="1" height="1" fill="#399399" /><rect x="5" y="6" width="1" height="1" fill="#48B4BB" /><rect x="6" y="6" width="1" height="1" fill="#5BDEE5" /><rect x="7" y="6" width="1" height="1" fill="#296F76" /><rect x="8" y="6" width="1" height="1" fill="#51C6CD" /><rect x="9" y="6" width="1" height="1" fill="#57D9DF" /><rect x="0" y="7" width="1" height="1" fill="#35898D" /><rect x="1" y="7" width="1" height="1" fill="#4CBCC1" /><rect x="2" y="7" width="1" height="1" fill="#44A8AF" /><rect x="3" y="7" width="1" height="1" fill="#46ACB3" /><rect x="4" y="7" width="1" height="1" fill="#3B989F" /><rect x="5" y="7" width="1" height="1" fill="#42A8AF" /><rect x="6" y="7" width="1" height="1" fill="#49B4BB" /><rect x="7" y="7" width="1" height="1" fill="#3A959B" /><rect x="8" y="7" width="1" height="1" fill="#44A9B0" /><rect x="9" y="7" width="1" height="1" fill="#4BBAC0" /><rect x="0" y="8" width="1" height="1" fill="#000000" /><rect x="1" y="8" width="1" height="1" fill="#000000" /><rect x="2" y="8" width="1" height="1" fill="#000000" /><rect x="3" y="8" width="1" height="1" fill="#000000" /><rect x="4" y="8" width="1" height="1" fill="#000000" /><rect x="5" y="8" width="1" height="1" fill="#000000" /><rect x="6" y="8" width="1" height="1" fill="#000000" /><rect x="7" y="8" width="1" height="1" fill="#00001E" /><rect x="8" y="8" width="1" height="1" fill="#000000" /><rect x="9" y="8" width="1" height="1" fill="#000000" /><rect x="0" y="9" width="1" height="1" fill="#061F2F" /><rect x="1" y="9" width="1" height="1" fill="#010C26" /><rect x="2" y="9" width="1" height="1" fill="#03162C" /><rect x="3" y="9" width="1" height="1" fill="#04182D" /><rect x="4" y="9" width="1" height="1" fill="#041A2E" /><rect x="5" y="9" width="1" height="1" fill="#03172C" /><rect x="6" y="9" width="1" height="1" fill="#03162B" /><rect x="7" y="9" width="1" height="1" fill="#04162C" /><rect x="8" y="9" width="1" height="1" fill="#04172C" /><rect x="9" y="9" width="1" height="1" fill="#03142A" />
  </g>
</svg>