<svg width="800" height="1000" version="1.1" xmlns="http://www.w3.org/2000/svg" xmlns:xlink="http://www.w3.org/1999/xlink">
  <defs>
      <linearGradient id="Gradient2" x1="0" x2="1" y1="0" y2="1">
        <stop offset="0%" stop-color="#2d3c96"/>
        <stop offset="100%" stop-color="#d53392"/>
      </linearGradient>
  </defs>
  <rect x="10" y="10" width="780" height="980" fill="url(#Gradient2)" rx="50" ry="50" stroke="#ffd700" stroke-width="20"/>
  <text x="400" y="920" width="780" text-anchor="middle" style="font: bold 200px 'Helvetica Neue'; fill: #ffd700">01943</text>

  <g transform="translate(80 80) scale(64)">
<rect x="0" y="0" width="1" height="1" fill="#00001A" /><rect x="1" y="0" width="1" height="1" fill="#04172C" /><rect x="2" y="0" width="1" height="1" fill="#072031" /><rect x="3" y="0" width="1" height="1" fill="#0B2A39" /><rect x="4" y="0" width="1" height="1" fill="#113A45" /><rect x="5" y="0" width="1" height="1" fill="#062232" /><rect x="6" y="0" width="1" height="1" fill="#0C2B39" /><rect x="7" y="0" width="1" height="1" fill="#0E3440" /><rect x="8" y="0" width="1" height="1" fill="#0E343F" /><rect x="9" y="0" width="1" height="1" fill="#052031" /><rect x="0" y="1" width="1" height="1" fill="#000017" /><rect x="1" y="1" width="1" height="1" fill="#010F28" /><rect x="2" y="1" width="1" height="1" fill="#0E323E" /><rect x="3" y="1" width="1" height="1" fill="#000019" /><rect x="4" y="1" width="1" height="1" fill="#000000" /><rect x="5" y="1" width="1" height="1" fill="#000000" /><rect x="6" y="1" width="1" height="1" fill="#000000" /><rect x="7" y="1" width="1" height="1" fill="#010924" /><rect x="8" y="1" width="1" height="1" fill="#000000" /><rect x="9" y="1" width="1" height="1" fill="#000000" /><rect x="0" y="2" width="1" height="1" fill="#000017" /><rect x="1" y="2" width="1" height="1" fill="#000020" /><rect x="2" y="2" width="1" height="1" fill="#03172D" /><rect x="3" y="2" width="1" height="1" fill="#051F2F" /><rect x="4" y="2" width="1" height="1" fill="#40A4AA" /><rect x="5" y="2" width="1" height="1" fill="#4EC2C7" /><rect x="6" y="2" width="1" height="1" fill="#3A9399" /><rect x="7" y="2" width="1" height="1" fill="#000007" /><rect x="8" y="2" width="1" height="1" fill="#389195" /><rect x="9" y="2" width="1" height="1" fill="#4EC4C9" /><rect x="0" y="3" width="1" height="1" fill="#00001C" /><rect x="1" y="3" width="1" height="1" fill="#0B2B39" /><rect x="2" y="3" width="1" height="1" fill="#00000F" /><rect x="3" y="3" width="1" height="1" fill="#3B979E" /><rect x="4" y="3" width="1" height="1" fill="#54D0D7" /><rect x="5" y="3" width="1" height="1" fill="#4DC0C7" /><rect x="6" y="3" width="1" height="1" fill="#4CBCC4" /><rect x="7" y="3" width="1" height="1" fill="#338489" /><rect x="8" y="3" width="1" height="1" fill="#51C8CD" /><rect x="9" y="3" width="1" height="1" fill="#4AB8BE" /><rect x="0" y="4" width="1" height="1" fill="#00000D" /><rect x="1" y="4" width="1" height="1" fill="#000002" /><rect x="2" y="4" width="1" height="1" fill="#000000" /><rect x="3" y="4" width="1" height="1" fill="#51CAD1" /><rect x="4" y="4" width="1" height="1" fill="#4EC2C9" /><rect x="5" y="4" width="1" height="1" fill="#26686D" /><rect x="6" y="4" width="1" height="1" fill="#2F7D82" /><rect x="7" y="4" width="1" height="1" fill="#49B5BB" /><rect x="8" y="4" width="1" height="1" fill="#52CBD1" /><rect x="9" y="4" width="1" height="1" fill="#225D61" /><rect x="0" y="5" width="1" height="1" fill="#000006" /><rect x="1" y="5" width="1" height="1" fill="#215D61" /><rect x="2" y="5" width="1" height="1" fill="#194A4F" /><rect x="3" y="5" width="1" height="1" fill="#53CDD3" /><rect x="4" y="5" width="1" height="1" fill="#52C9D0" /><rect x="5" y="5" width="1" height="1" fill="#144145" /><rect x="6" y="5" width="1" height="1" fill="#11393D" /><rect x="7" y="5" width="1" height="1" fill="#4EBFC6" /><rect x="8" y="5" width="1" height="1" fill="#55D1D7" /><rect x="9" y="5" width="1" height="1" fill="#0E2F36" /><rect x="0" y="6" width="1" height="1" fill="#103845" /><rect x="1" y="6" width="1" height="1" fill="#44ADB3" /><rect x="2" y="6" width="1" height="1" fill="#399097" /><rect x="3" y="6" width="1" height="1" fill="#3E9CA3" /><rect x="4" y="6" width="1" height="1" fill="#5BDEE4" /><rect x="5" y="6" width="1" height="1" fill="#45AFB5" /><rect x="6" y="6" width="1" height="1" fill="#39949B" /><rect x="7" y="6" width="1" height="1" fill="#3F9EA5" /><rect x="8" y="6" width="1" height="1" fill="#58D7DE" /><rect x="9" y="6" width="1" height="1" fill="#43A6AE" /><rect x="0" y="7" width="1" height="1" fill="#1E575F" /><rect x="1" y="7" width="1" height="1" fill="#49B7BD" /><rect x="2" y="7" width="1" height="1" fill="#3E9EA4" /><rect x="3" y="7" width="1" height="1" fill="#041C2C" /><rect x="4" y="7" width="1" height="1" fill="#47B3BA" /><rect x="5" y="7" width="1" height="1" fill="#51CBD1" /><rect x="6" y="7" width="1" height="1" fill="#3D9DA4" /><rect x="7" y="7" width="1" height="1" fill="#113B44" /><rect x="8" y="7" width="1" height="1" fill="#42A5AC" /><rect x="9" y="7" width="1" height="1" fill="#53CBD2" /><rect x="0" y="8" width="1" height="1" fill="#02152A" /><rect x="1" y="8" width="1" height="1" fill="#020E27" /><rect x="2" y="8" width="1" height="1" fill="#00001F" /><rect x="3" y="8" width="1" height="1" fill="#00000C" /><rect x="4" y="8" width="1" height="1" fill="#000000" /><rect x="5" y="8" width="1" height="1" fill="#000008" /><rect x="6" y="8" width="1" height="1" fill="#000000" /><rect x="7" y="8" width="1" height="1" fill="#000000" /><rect x="8" y="8" width="1" height="1" fill="#000000" /><rect x="9" y="8" width="1" height="1" fill="#00001A" /><rect x="0" y="9" width="1" height="1" fill="#061E2F" /><rect x="1" y="9" width="1" height="1" fill="#000020" /><rect x="2" y="9" width="1" height="1" fill="#031229" /><rect x="3" y="9" width="1" height="1" fill="#092535" /><rect x="4" y="9" width="1" height="1" fill="#03162B" /><rect x="5" y="9" width="1" height="1" fill="#000021" /><rect x="6" y="9" width="1" height="1" fill="#041A2E" /><rect x="7" y="9" width="1" height="1" fill="#072534" /><rect x="8" y="9" width="1" height="1" fill="#04192D" /><rect x="9" y="9" width="1" height="1" fill="#00001F" />
  </g>
</svg>