<svg width="800" height="1000" version="1.1" xmlns="http://www.w3.org/2000/svg" xmlns:xlink="http://www.w3.org/1999/xlink">
  <defs>
      <linearGradient id="Gradient2" x1="0" x2="1" y1="0" y2="1">
        <stop offset="0%" stop-color="#2d3c96"/>
        <stop offset="100%" stop-color="#d53392"/>
      </linearGradient>
  </defs>
  <rect x="10" y="10" width="780" height="980" fill="url(#Gradient2)" rx="50" ry="50" stroke="#ffd700" stroke-width="20"/>
  <text x="400" y="920" width="780" text-anchor="middle" style="font: bold 200px 'Helvetica Neue'; fill: #ffd700">01941</text>

  <g transform="translate(80 80) scale(64)">
<rect x="0" y="0" width="1" height="1" fill="#0A2E3A" /><rect x="1" y="0" width="1" height="1" fill="#072736" /><rect x="2" y="0" width="1" height="1" fill="#062132" /><rect x="3" y="0" width="1" height="1" fill="#0B2C3A" /><rect x="4" y="0" width="1" height="1" fill="#113843" /><rect x="5" y="0" width="1" height="1" fill="#0D333E" /><rect x="6" y="0" width="1" height="1" fill="#103641" /><rect x="7" y="0" width="1" height="1" fill="#0F3541" /><rect x="8" y="0" width="1" height="1" fill="#308086" /><rect x="9" y="0" width="1" height="1" fill="#399298" /><rect x="0" y="1" width="1" height="1" fill="#000000" /><rect x="1" y="1" width="1" height="1" fill="#000000" /><rect x="2" y="1" width="1" height="1" fill="#000000" /><rect x="3" y="1" width="1" height="1" fill="#000000" /><rect x="4" y="1" width="1" height="1" fill="#000000" /><rect x="5" y="1" width="1" height="1" fill="#000000" /><rect x="6" y="1" width="1" height="1" fill="#000000" /><rect x="7" y="1" width="1" height="1" fill="#000000" /><rect x="8" y="1" width="1" height="1" fill="#000000" /><rect x="9" y="1" width="1" height="1" fill="#0C2C2E" /><rect x="0" y="2" width="1" height="1" fill="#41A7AD" /><rect x="1" y="2" width="1" height="1" fill="#46ADB4" /><rect x="2" y="2" width="1" height="1" fill="#3A969D" /><rect x="3" y="2" width="1" height="1" fill="#3FA1A6" /><rect x="4" y="2" width="1" height="1" fill="#42AAB0" /><rect x="5" y="2" width="1" height="1" fill="#48B4BA" /><rect x="6" y="2" width="1" height="1" fill="#3C989E" /><rect x="7" y="2" width="1" height="1" fill="#45ACB2" /><rect x="8" y="2" width="1" height="1" fill="#48B5BB" /><rect x="9" y="2" width="1" height="1" fill="#17454D" /><rect x="0" y="3" width="1" height="1" fill="#55D1D7" /><rect x="1" y="3" width="1" height="1" fill="#55D0D7" /><rect x="2" y="3" width="1" height="1" fill="#368D95" /><rect x="3" y="3" width="1" height="1" fill="#5ADBE2" /><rect x="4" y="3" width="1" height="1" fill="#4EC1C9" /><rect x="5" y="3" width="1" height="1" fill="#50C5CD" /><rect x="6" y="3" width="1" height="1" fill="#58D7DD" /><rect x="7" y="3" width="1" height="1" fill="#47B1B7" /><rect x="8" y="3" width="1" height="1" fill="#5CE0E6" /><rect x="9" y="3" width="1" height="1" fill="#399299" /><rect x="0" y="4" width="1" height="1" fill="#59DCE2" /><rect x="1" y="4" width="1" height="1" fill="#48B4BB" /><rect x="2" y="4" width="1" height="1" fill="#16454A" /><rect x="3" y="4" width="1" height="1" fill="#5BE0E7" /><rect x="4" y="4" width="1" height="1" fill="#3E9DA3" /><rect x="5" y="4" width="1" height="1" fill="#3C989F" /><rect x="6" y="4" width="1" height="1" fill="#5CDFE5" /><rect x="7" y="4" width="1" height="1" fill="#256668" /><rect x="8" y="4" width="1" height="1" fill="#56D1D7" /><rect x="9" y="4" width="1" height="1" fill="#45AEB5" /><rect x="0" y="5" width="1" height="1" fill="#4ABAC0" /><rect x="1" y="5" width="1" height="1" fill="#236166" /><rect x="2" y="5" width="1" height="1" fill="#0F3036" /><rect x="3" y="5" width="1" height="1" fill="#5BDFE5" /><rect x="4" y="5" width="1" height="1" fill="#358C90" /><rect x="5" y="5" width="1" height="1" fill="#328289" /><rect x="6" y="5" width="1" height="1" fill="#5BDEE4" /><rect x="7" y="5" width="1" height="1" fill="#04151F" /><rect x="8" y="5" width="1" height="1" fill="#51C9D0" /><rect x="9" y="5" width="1" height="1" fill="#48B4BB" /><rect x="0" y="6" width="1" height="1" fill="#42A7AC" /><rect x="1" y="6" width="1" height="1" fill="#1F5459" /><rect x="2" y="6" width="1" height="1" fill="#2A6F77" /><rect x="3" y="6" width="1" height="1" fill="#5DE3E9" /><rect x="4" y="6" width="1" height="1" fill="#44AAB0" /><rect x="5" y="6" width="1" height="1" fill="#41A4AB" /><rect x="6" y="6" width="1" height="1" fill="#5BE0E6" /><rect x="7" y="6" width="1" height="1" fill="#307F86" /><rect x="8" y="6" width="1" height="1" fill="#56D3D9" /><rect x="9" y="6" width="1" height="1" fill="#4CBDC4" /><rect x="0" y="7" width="1" height="1" fill="#56D6DC" /><rect x="1" y="7" width="1" height="1" fill="#4BB9C0" /><rect x="2" y="7" width="1" height="1" fill="#2B757A" /><rect x="3" y="7" width="1" height="1" fill="#4CBDC3" /><rect x="4" y="7" width="1" height="1" fill="#41A2A9" /><rect x="5" y="7" width="1" height="1" fill="#3E9EA5" /><rect x="6" y="7" width="1" height="1" fill="#49B6BD" /><rect x="7" y="7" width="1" height="1" fill="#3B99A0" /><rect x="8" y="7" width="1" height="1" fill="#45ADB4" /><rect x="9" y="7" width="1" height="1" fill="#44ADB4" /><rect x="0" y="8" width="1" height="1" fill="#50C8CF" /><rect x="1" y="8" width="1" height="1" fill="#53CFD5" /><rect x="2" y="8" width="1" height="1" fill="#000000" /><rect x="3" y="8" width="1" height="1" fill="#000000" /><rect x="4" y="8" width="1" height="1" fill="#000000" /><rect x="5" y="8" width="1" height="1" fill="#000001" /><rect x="6" y="8" width="1" height="1" fill="#000000" /><rect x="7" y="8" width="1" height="1" fill="#000017" /><rect x="8" y="8" width="1" height="1" fill="#000000" /><rect x="9" y="8" width="1" height="1" fill="#000000" /><rect x="0" y="9" width="1" height="1" fill="#4BBAC1" /><rect x="1" y="9" width="1" height="1" fill="#24646B" /><rect x="2" y="9" width="1" height="1" fill="#000000" /><rect x="3" y="9" width="1" height="1" fill="#062031" /><rect x="4" y="9" width="1" height="1" fill="#04152B" /><rect x="5" y="9" width="1" height="1" fill="#04182D" /><rect x="6" y="9" width="1" height="1" fill="#03162B" /><rect x="7" y="9" width="1" height="1" fill="#04162C" /><rect x="8" y="9" width="1" height="1" fill="#04172C" /><rect x="9" y="9" width="1" height="1" fill="#03162B" />
  </g>
</svg>