<svg width="800" height="1000" xmlns="http://www.w3.org/2000/svg"><defs><linearGradient id="g" x1="0" x2="1" y1="0" y2="1"><stop offset="0%" stop-color="#2d3c96"/><stop offset="100%" stop-color="#d53392"/></linearGradient></defs><rect x="10" y="10" width="780" height="980" fill="url(#g)" rx="50" ry="50" stroke="gold" stroke-width="20"/><text x="400" y="920" width="780" text-anchor="middle" style="font:bold 200px 'Helvetica Neue';fill:gold">01940</text><g transform="translate(80 80) scale(64)"><rect x="0" y="0" width="1" height="1" fill="#051f30" /><rect x="0" y="1" width="1" height="1" fill="#082837" /><rect x="0" y="2" width="1" height="1" fill="#01080e" /><rect x="0" y="3" width="1" height="1" fill="#021123" /><rect x="0" y="4" width="1" height="1" fill="#1f565f" /><rect x="0" y="5" width="1" height="1" fill="#2a6f76" /><rect x="0" y="6" width="1" height="1" fill="#1f565e" /><rect x="0" y="7" width="1" height="1" fill="#000001" /><rect x="0" y="8" width="1" height="1" fill="#010725" /><rect x="0" y="9" width="1" height="1" fill="#082433" /><rect x="1" y="0" width="1" height="1" fill="#103642" /><rect x="1" y="1" width="1" height="1" fill="#000000" /><rect x="1" y="2" width="1" height="1" fill="#25676d" /><rect x="1" y="3" width="1" height="1" fill="#46afb5" /><rect x="1" y="4" width="1" height="1" fill="#4ec0c8" /><rect x="1" y="5" width="1" height="1" fill="#4ec3ca" /><rect x="1" y="6" width="1" height="1" fill="#50c6cd" /><rect x="1" y="7" width="1" height="1" fill="#41a5ac" /><rect x="1" y="8" width="1" height="1" fill="#00000c" /><rect x="1" y="9" width="1" height="1" fill="#020d26" /><rect x="2" y="0" width="1" height="1" fill="#000000" /><rect x="2" y="1" width="1" height="1" fill="#26666d" /><rect x="2" y="2" width="1" height="1" fill="#48b3ba" /><rect x="2" y="3" width="1" height="1" fill="#3c989f" /><rect x="2" y="4" width="1" height="1" fill="#318188" /><rect x="2" y="5" width="1" height="1" fill="#2b747b" /><rect x="2" y="6" width="1" height="1" fill="#33878e" /><rect x="2" y="7" width="1" height="1" fill="#4ab9c0" /><rect x="2" y="8" width="1" height="1" fill="#3a9399" /><rect x="2" y="9" width="1" height="1" fill="#000000" /><rect x="3" y="0" width="1" height="1" fill="#000000" /><rect x="3" y="1" width="1" height="1" fill="#41a4aa" /><rect x="3" y="2" width="1" height="1" fill="#328188" /><rect x="3" y="3" width="1" height="1" fill="#388f96" /><rect x="3" y="4" width="1" height="1" fill="#4ab7be" /><rect x="3" y="5" width="1" height="1" fill="#51c8cf" /><rect x="3" y="6" width="1" height="1" fill="#43a8af" /><rect x="3" y="7" width="1" height="1" fill="#296e75" /><rect x="3" y="8" width="1" height="1" fill="#3f9fa4" /><rect x="3" y="9" width="1" height="1" fill="#000000" /><rect x="4" y="0" width="1" height="1" fill="#03162a" /><rect x="4" y="1" width="1" height="1" fill="#3fa0a5" /><rect x="4" y="2" width="1" height="1" fill="#2d767d" /><rect x="4" y="3" width="1" height="1" fill="#42a4ab" /><rect x="4" y="4" width="1" height="1" fill="#45aeb5" /><rect x="4" y="5" width="1" height="1" fill="#46b1b8" /><rect x="4" y="6" width="1" height="1" fill="#41a4ab" /><rect x="4" y="7" width="1" height="1" fill="#123b46" /><rect x="4" y="8" width="1" height="1" fill="#0d2f3c" /><rect x="4" y="9" width="1" height="1" fill="#071e2f" /><rect x="5" y="0" width="1" height="1" fill="#000000" /><rect x="5" y="1" width="1" height="1" fill="#3a959b" /><rect x="5" y="2" width="1" height="1" fill="#44acb3" /><rect x="5" y="3" width="1" height="1" fill="#39959b" /><rect x="5" y="4" width="1" height="1" fill="#318288" /><rect x="5" y="5" width="1" height="1" fill="#44abb1" /><rect x="5" y="6" width="1" height="1" fill="#46afb6" /><rect x="5" y="7" width="1" height="1" fill="#153f4a" /><rect x="5" y="8" width="1" height="1" fill="#00001f" /><rect x="5" y="9" width="1" height="1" fill="#0c2f3b" /><rect x="6" y="0" width="1" height="1" fill="#00001f" /><rect x="6" y="1" width="1" height="1" fill="#082130" /><rect x="6" y="2" width="1" height="1" fill="#3d9da4" /><rect x="6" y="3" width="1" height="1" fill="#43a9b0" /><rect x="6" y="4" width="1" height="1" fill="#41a2a9" /><rect x="6" y="5" width="1" height="1" fill="#3e9ea4" /><rect x="6" y="6" width="1" height="1" fill="#2d787d" /><rect x="6" y="7" width="1" height="1" fill="#000000" /><rect x="6" y="8" width="1" height="1" fill="#000005" /><rect x="6" y="9" width="1" height="1" fill="#00001f" /><rect x="7" y="0" width="1" height="1" fill="#0c313d" /><rect x="7" y="1" width="1" height="1" fill="#010b13" /><rect x="7" y="2" width="1" height="1" fill="#000000" /><rect x="7" y="3" width="1" height="1" fill="#34868b" /><rect x="7" y="4" width="1" height="1" fill="#3f9ea4" /><rect x="7" y="5" width="1" height="1" fill="#276a6e" /><rect x="7" y="6" width="1" height="1" fill="#00000b" /><rect x="7" y="7" width="1" height="1" fill="#296d74" /><rect x="7" y="8" width="1" height="1" fill="#3a969b" /><rect x="7" y="9" width="1" height="1" fill="#194852" /><rect x="8" y="0" width="1" height="1" fill="#0f3541" /><rect x="8" y="1" width="1" height="1" fill="#000000" /><rect x="8" y="2" width="1" height="1" fill="#34878c" /><rect x="8" y="3" width="1" height="1" fill="#54cfd5" /><rect x="8" y="4" width="1" height="1" fill="#59dce2" /><rect x="8" y="5" width="1" height="1" fill="#52ccd3" /><rect x="8" y="6" width="1" height="1" fill="#51c7ce" /><rect x="8" y="7" width="1" height="1" fill="#56d4db" /><rect x="8" y="8" width="1" height="1" fill="#5adfe5" /><rect x="8" y="9" width="1" height="1" fill="#47b2b9" /><rect x="9" y="0" width="1" height="1" fill="#03172a" /><rect x="9" y="1" width="1" height="1" fill="#000000" /><rect x="9" y="2" width="1" height="1" fill="#4abbc2" /><rect x="9" y="3" width="1" height="1" fill="#3c9ba1" /><rect x="9" y="4" width="1" height="1" fill="#399399" /><rect x="9" y="5" width="1" height="1" fill="#4ec1c8" /><rect x="9" y="6" width="1" height="1" fill="#56d1d9" /><rect x="9" y="7" width="1" height="1" fill="#4bbbc1" /><rect x="9" y="8" width="1" height="1" fill="#368c92" /><rect x="9" y="9" width="1" height="1" fill="#52cbd2" /></g></svg>