<svg width="800" height="1000" version="1.1" xmlns="http://www.w3.org/2000/svg" xmlns:xlink="http://www.w3.org/1999/xlink">
  <defs>
      <linearGradient id="Gradient2" x1="0" x2="1" y1="0" y2="1">
        <stop offset="0%" stop-color="#2d3c96"/>
        <stop offset="100%" stop-color="#d53392"/>
      </linearGradient>
  </defs>
  <rect x="10" y="10" width="780" height="980" fill="url(#Gradient2)" rx="50" ry="50" stroke="#ffd700" stroke-width="20"/>
  <text x="400" y="920" width="780" text-anchor="middle" style="font: bold 200px 'Helvetica Neue'; fill: #ffd700">01947</text>

  <g transform="translate(80 80) scale(64)">
<rect x="0" y="0" width="1" height="1" fill="#190000" />
,<rect x="0" y="1" width="1" height="1" fill="#270001" />
,<rect x="0" y="2" width="1" height="1" fill="#3f0000" />
,<rect x="0" y="3" width="1" height="1" fill="#3c0003" />
,<rect x="0" y="4" width="1" height="1" fill="#140000" />
,<rect x="0" y="5" width="1" height="1" fill="#110000" />
,<rect x="0" y="6" width="1" height="1" fill="#320000" />
,<rect x="0" y="7" width="1" height="1" fill="#3a0001" />
,<rect x="0" y="8" width="1" height="1" fill="#270001" />
,<rect x="0" y="9" width="1" height="1" fill="#1c0000" />
,<rect x="1" y="0" width="1" height="1" fill="#260002" />
,<rect x="1" y="1" width="1" height="1" fill="#944c64" />
,<rect x="1" y="2" width="1" height="1" fill="#a83e62" />
,<rect x="1" y="3" width="1" height="1" fill="#9e4160" />
,<rect x="1" y="4" width="1" height="1" fill="#fff1fc" />
,<rect x="1" y="5" width="1" height="1" fill="#fff5ff" />
,<rect x="1" y="6" width="1" height="1" fill="#9e4966" />
,<rect x="1" y="7" width="1" height="1" fill="#a03f60" />
,<rect x="1" y="8" width="1" height="1" fill="#944c64" />
,<rect x="1" y="9" width="1" height="1" fill="#260000" />
,<rect x="2" y="0" width="1" height="1" fill="#390000" />
,<rect x="2" y="1" width="1" height="1" fill="#aa4567" />
,<rect x="2" y="2" width="1" height="1" fill="#b83561" />
,<rect x="2" y="3" width="1" height="1" fill="#ab3d62" />
,<rect x="2" y="4" width="1" height="1" fill="#1c0000" />
,<rect x="2" y="5" width="1" height="1" fill="#200005" />
,<rect x="2" y="6" width="1" height="1" fill="#a13c5e" />
,<rect x="2" y="7" width="1" height="1" fill="#b73e67" />
,<rect x="2" y="8" width="1" height="1" fill="#a64264" />
,<rect x="2" y="9" width="1" height="1" fill="#3b0000" />
,<rect x="3" y="0" width="1" height="1" fill="#430000" />
,<rect x="3" y="1" width="1" height="1" fill="#ad3d63" />
,<rect x="3" y="2" width="1" height="1" fill="#b93662" />
,<rect x="3" y="3" width="1" height="1" fill="#4d0005" />
,<rect x="3" y="4" width="1" height="1" fill="#1c0001" />
,<rect x="3" y="5" width="1" height="1" fill="#190000" />
,<rect x="3" y="6" width="1" height="1" fill="#430000" />
,<rect x="3" y="7" width="1" height="1" fill="#b43761" />
,<rect x="3" y="8" width="1" height="1" fill="#ab3d62" />
,<rect x="3" y="9" width="1" height="1" fill="#470002" />
,<rect x="4" y="0" width="1" height="1" fill="#400000" />
,<rect x="4" y="1" width="1" height="1" fill="#a84365" />
,<rect x="4" y="2" width="1" height="1" fill="#ac3c62" />
,<rect x="4" y="3" width="1" height="1" fill="#390000" />
,<rect x="4" y="4" width="1" height="1" fill="#120001" />
,<rect x="4" y="5" width="1" height="1" fill="#110002" />
,<rect x="4" y="6" width="1" height="1" fill="#3b0003" />
,<rect x="4" y="7" width="1" height="1" fill="#ab3b61" />
,<rect x="4" y="8" width="1" height="1" fill="#a93f63" />
,<rect x="4" y="9" width="1" height="1" fill="#450000" />
,<rect x="5" y="0" width="1" height="1" fill="#400000" />
,<rect x="5" y="1" width="1" height="1" fill="#a63e61" />
,<rect x="5" y="2" width="1" height="1" fill="#b24268" />
,<rect x="5" y="3" width="1" height="1" fill="#380000" />
,<rect x="5" y="4" width="1" height="1" fill="#110002" />
,<rect x="5" y="5" width="1" height="1" fill="#0f0000" />
,<rect x="5" y="6" width="1" height="1" fill="#390000" />
,<rect x="5" y="7" width="1" height="1" fill="#b13e65" />
,<rect x="5" y="8" width="1" height="1" fill="#aa4064" />
,<rect x="5" y="9" width="1" height="1" fill="#430000" />
,<rect x="6" y="0" width="1" height="1" fill="#460000" />
,<rect x="6" y="1" width="1" height="1" fill="#b23f66" />
,<rect x="6" y="2" width="1" height="1" fill="#b6335f" />
,<rect x="6" y="3" width="1" height="1" fill="#490003" />
,<rect x="6" y="4" width="1" height="1" fill="#180000" />
,<rect x="6" y="5" width="1" height="1" fill="#1a0002" />
,<rect x="6" y="6" width="1" height="1" fill="#4a0004" />
,<rect x="6" y="7" width="1" height="1" fill="#b73460" />
,<rect x="6" y="8" width="1" height="1" fill="#ab3d62" />
,<rect x="6" y="9" width="1" height="1" fill="#430000" />
,<rect x="7" y="0" width="1" height="1" fill="#3f0000" />
,<rect x="7" y="1" width="1" height="1" fill="#ab4165" />
,<rect x="7" y="2" width="1" height="1" fill="#b83662" />
,<rect x="7" y="3" width="1" height="1" fill="#ab4165" />
,<rect x="7" y="4" width="1" height="1" fill="#1b0000" />
,<rect x="7" y="5" width="1" height="1" fill="#1b0000" />
,<rect x="7" y="6" width="1" height="1" fill="#aa3e62" />
,<rect x="7" y="7" width="1" height="1" fill="#b83964" />
,<rect x="7" y="8" width="1" height="1" fill="#a64264" />
,<rect x="7" y="9" width="1" height="1" fill="#3b0002" />
,<rect x="8" y="0" width="1" height="1" fill="#2f0001" />
,<rect x="8" y="1" width="1" height="1" fill="#994964" />
,<rect x="8" y="2" width="1" height="1" fill="#a74264" />
,<rect x="8" y="3" width="1" height="1" fill="#9d4764" />
,<rect x="8" y="4" width="1" height="1" fill="#160000" />
,<rect x="8" y="5" width="1" height="1" fill="#180002" />
,<rect x="8" y="6" width="1" height="1" fill="#9f4664" />
,<rect x="8" y="7" width="1" height="1" fill="#a43c5f" />
,<rect x="8" y="8" width="1" height="1" fill="#934761" />
,<rect x="8" y="9" width="1" height="1" fill="#2c0003" />
,<rect x="9" y="0" width="1" height="1" fill="#260000" />
,<rect x="9" y="1" width="1" height="1" fill="#2d0000" />
,<rect x="9" y="2" width="1" height="1" fill="#3b0000" />
,<rect x="9" y="3" width="1" height="1" fill="#380006" />
,<rect x="9" y="4" width="1" height="1" fill="#140000" />
,<rect x="9" y="5" width="1" height="1" fill="#180003" />
,<rect x="9" y="6" width="1" height="1" fill="#350000" />
,<rect x="9" y="7" width="1" height="1" fill="#410005" />
,<rect x="9" y="8" width="1" height="1" fill="#2a0000" />
,<rect x="9" y="9" width="1" height="1" fill="#200000" />

  </g>
</svg>