<svg width="800" height="1000" version="1.1" xmlns="http://www.w3.org/2000/svg" xmlns:xlink="http://www.w3.org/1999/xlink">
  <defs>
      <linearGradient id="Gradient2" x1="0" x2="1" y1="0" y2="1">
        <stop offset="0%" stop-color="#2d3c96"/>
        <stop offset="100%" stop-color="#d53392"/>
      </linearGradient>
  </defs>
  <rect x="10" y="10" width="780" height="980" fill="url(#Gradient2)" rx="50" ry="50" stroke="#ffd700" stroke-width="20"/>
  <text x="400" y="920" width="780" text-anchor="middle" style="font: bold 200px 'Helvetica Neue'; fill: #ffd700">01947</text>

  <g transform="translate(80 80) scale(64)">
<rect x="0" y="0" width="1" height="1" fill="#190000" /><rect x="1" y="0" width="1" height="1" fill="#260002" /><rect x="2" y="0" width="1" height="1" fill="#390000" /><rect x="3" y="0" width="1" height="1" fill="#430000" /><rect x="4" y="0" width="1" height="1" fill="#400000" /><rect x="5" y="0" width="1" height="1" fill="#400000" /><rect x="6" y="0" width="1" height="1" fill="#460000" /><rect x="7" y="0" width="1" height="1" fill="#3F0000" /><rect x="8" y="0" width="1" height="1" fill="#2F0001" /><rect x="9" y="0" width="1" height="1" fill="#260000" /><rect x="0" y="1" width="1" height="1" fill="#270001" /><rect x="1" y="1" width="1" height="1" fill="#944C64" /><rect x="2" y="1" width="1" height="1" fill="#AA4567" /><rect x="3" y="1" width="1" height="1" fill="#AD3D63" /><rect x="4" y="1" width="1" height="1" fill="#A84365" /><rect x="5" y="1" width="1" height="1" fill="#A63E61" /><rect x="6" y="1" width="1" height="1" fill="#B23F66" /><rect x="7" y="1" width="1" height="1" fill="#AB4165" /><rect x="8" y="1" width="1" height="1" fill="#994964" /><rect x="9" y="1" width="1" height="1" fill="#2D0000" /><rect x="0" y="2" width="1" height="1" fill="#3F0000" /><rect x="1" y="2" width="1" height="1" fill="#A83E62" /><rect x="2" y="2" width="1" height="1" fill="#B83561" /><rect x="3" y="2" width="1" height="1" fill="#B93662" /><rect x="4" y="2" width="1" height="1" fill="#AC3C62" /><rect x="5" y="2" width="1" height="1" fill="#B24268" /><rect x="6" y="2" width="1" height="1" fill="#B6335F" /><rect x="7" y="2" width="1" height="1" fill="#B83662" /><rect x="8" y="2" width="1" height="1" fill="#A74264" /><rect x="9" y="2" width="1" height="1" fill="#3B0000" /><rect x="0" y="3" width="1" height="1" fill="#3C0003" /><rect x="1" y="3" width="1" height="1" fill="#9E4160" /><rect x="2" y="3" width="1" height="1" fill="#AB3D62" /><rect x="3" y="3" width="1" height="1" fill="#4D0005" /><rect x="4" y="3" width="1" height="1" fill="#390000" /><rect x="5" y="3" width="1" height="1" fill="#380000" /><rect x="6" y="3" width="1" height="1" fill="#490003" /><rect x="7" y="3" width="1" height="1" fill="#AB4165" /><rect x="8" y="3" width="1" height="1" fill="#9D4764" /><rect x="9" y="3" width="1" height="1" fill="#380006" /><rect x="0" y="4" width="1" height="1" fill="#140000" /><rect x="1" y="4" width="1" height="1" fill="#FFF1FC" /><rect x="2" y="4" width="1" height="1" fill="#1C0000" /><rect x="3" y="4" width="1" height="1" fill="#1C0001" /><rect x="4" y="4" width="1" height="1" fill="#120001" /><rect x="5" y="4" width="1" height="1" fill="#110002" /><rect x="6" y="4" width="1" height="1" fill="#180000" /><rect x="7" y="4" width="1" height="1" fill="#1B0000" /><rect x="8" y="4" width="1" height="1" fill="#160000" /><rect x="9" y="4" width="1" height="1" fill="#140000" /><rect x="0" y="5" width="1" height="1" fill="#110000" /><rect x="1" y="5" width="1" height="1" fill="#FFF5FF" /><rect x="2" y="5" width="1" height="1" fill="#200005" /><rect x="3" y="5" width="1" height="1" fill="#190000" /><rect x="4" y="5" width="1" height="1" fill="#110002" /><rect x="5" y="5" width="1" height="1" fill="#0F0000" /><rect x="6" y="5" width="1" height="1" fill="#1A0002" /><rect x="7" y="5" width="1" height="1" fill="#1B0000" /><rect x="8" y="5" width="1" height="1" fill="#180002" /><rect x="9" y="5" width="1" height="1" fill="#180003" /><rect x="0" y="6" width="1" height="1" fill="#320000" /><rect x="1" y="6" width="1" height="1" fill="#9E4966" /><rect x="2" y="6" width="1" height="1" fill="#A13C5E" /><rect x="3" y="6" width="1" height="1" fill="#430000" /><rect x="4" y="6" width="1" height="1" fill="#3B0003" /><rect x="5" y="6" width="1" height="1" fill="#390000" /><rect x="6" y="6" width="1" height="1" fill="#4A0004" /><rect x="7" y="6" width="1" height="1" fill="#AA3E62" /><rect x="8" y="6" width="1" height="1" fill="#9F4664" /><rect x="9" y="6" width="1" height="1" fill="#350000" /><rect x="0" y="7" width="1" height="1" fill="#3A0001" /><rect x="1" y="7" width="1" height="1" fill="#A03F60" /><rect x="2" y="7" width="1" height="1" fill="#B73E67" /><rect x="3" y="7" width="1" height="1" fill="#B43761" /><rect x="4" y="7" width="1" height="1" fill="#AB3B61" /><rect x="5" y="7" width="1" height="1" fill="#B13E65" /><rect x="6" y="7" width="1" height="1" fill="#B73460" /><rect x="7" y="7" width="1" height="1" fill="#B83964" /><rect x="8" y="7" width="1" height="1" fill="#A43C5F" /><rect x="9" y="7" width="1" height="1" fill="#410005" /><rect x="0" y="8" width="1" height="1" fill="#270001" /><rect x="1" y="8" width="1" height="1" fill="#944C64" /><rect x="2" y="8" width="1" height="1" fill="#A64264" /><rect x="3" y="8" width="1" height="1" fill="#AB3D62" /><rect x="4" y="8" width="1" height="1" fill="#A93F63" /><rect x="5" y="8" width="1" height="1" fill="#AA4064" /><rect x="6" y="8" width="1" height="1" fill="#AB3D62" /><rect x="7" y="8" width="1" height="1" fill="#A64264" /><rect x="8" y="8" width="1" height="1" fill="#934761" /><rect x="9" y="8" width="1" height="1" fill="#2A0000" /><rect x="0" y="9" width="1" height="1" fill="#1C0000" /><rect x="1" y="9" width="1" height="1" fill="#260000" /><rect x="2" y="9" width="1" height="1" fill="#3B0000" /><rect x="3" y="9" width="1" height="1" fill="#470002" /><rect x="4" y="9" width="1" height="1" fill="#450000" /><rect x="5" y="9" width="1" height="1" fill="#430000" /><rect x="6" y="9" width="1" height="1" fill="#430000" /><rect x="7" y="9" width="1" height="1" fill="#3B0002" /><rect x="8" y="9" width="1" height="1" fill="#2C0003" /><rect x="9" y="9" width="1" height="1" fill="#200000" />
  </g>
</svg>