<svg width="800" height="1000" xmlns="http://www.w3.org/2000/svg"><defs><linearGradient id="g" x1="0" x2="1" y1="0" y2="1"><stop offset="0%" stop-color="#2d3c96"/><stop offset="100%" stop-color="#d53392"/></linearGradient></defs><rect x="10" y="10" width="780" height="980" fill="url(#g)" rx="50" ry="50" stroke="gold" stroke-width="20"/><text x="400" y="920" width="780" text-anchor="middle" style="font:bold 200px 'Helvetica Neue';fill:gold">01942</text><g transform="translate(80 80) scale(64)"><rect x="0" y="0" width="1" height="1" fill="#2d747b" /><rect x="0" y="1" width="1" height="1" fill="#041618" /><rect x="0" y="2" width="1" height="1" fill="#25646b" /><rect x="0" y="3" width="1" height="1" fill="#34888e" /><rect x="0" y="4" width="1" height="1" fill="#1d555d" /><rect x="0" y="5" width="1" height="1" fill="#2d7880" /><rect x="0" y="6" width="1" height="1" fill="#47b1b8" /><rect x="0" y="7" width="1" height="1" fill="#35898d" /><rect x="0" y="8" width="1" height="1" fill="#000000" /><rect x="0" y="9" width="1" height="1" fill="#061f2f" /><rect x="1" y="0" width="1" height="1" fill="#092938" /><rect x="1" y="1" width="1" height="1" fill="#000000" /><rect x="1" y="2" width="1" height="1" fill="#4bb8be" /><rect x="1" y="3" width="1" height="1" fill="#4ec1c8" /><rect x="1" y="4" width="1" height="1" fill="#40a3aa" /><rect x="1" y="5" width="1" height="1" fill="#4ab8bf" /><rect x="1" y="6" width="1" height="1" fill="#59dadf" /><rect x="1" y="7" width="1" height="1" fill="#4cbcc1" /><rect x="1" y="8" width="1" height="1" fill="#000000" /><rect x="1" y="9" width="1" height="1" fill="#010c26" /><rect x="2" y="0" width="1" height="1" fill="#051e2f" /><rect x="2" y="1" width="1" height="1" fill="#000000" /><rect x="2" y="2" width="1" height="1" fill="#4cc0c6" /><rect x="2" y="3" width="1" height="1" fill="#47b4ba" /><rect x="2" y="4" width="1" height="1" fill="#43a8ae" /><rect x="2" y="5" width="1" height="1" fill="#44a9af" /><rect x="2" y="6" width="1" height="1" fill="#43a8ae" /><rect x="2" y="7" width="1" height="1" fill="#44a8af" /><rect x="2" y="8" width="1" height="1" fill="#000000" /><rect x="2" y="9" width="1" height="1" fill="#03162c" /><rect x="3" y="0" width="1" height="1" fill="#103641" /><rect x="3" y="1" width="1" height="1" fill="#000000" /><rect x="3" y="2" width="1" height="1" fill="#3a949b" /><rect x="3" y="3" width="1" height="1" fill="#58d7dd" /><rect x="3" y="4" width="1" height="1" fill="#5de2e8" /><rect x="3" y="5" width="1" height="1" fill="#5ce2e8" /><rect x="3" y="6" width="1" height="1" fill="#5adfe5" /><rect x="3" y="7" width="1" height="1" fill="#46acb3" /><rect x="3" y="8" width="1" height="1" fill="#000000" /><rect x="3" y="9" width="1" height="1" fill="#04182d" /><rect x="4" y="0" width="1" height="1" fill="#000000" /><rect x="4" y="1" width="1" height="1" fill="#000000" /><rect x="4" y="2" width="1" height="1" fill="#0b2835" /><rect x="4" y="3" width="1" height="1" fill="#215e66" /><rect x="4" y="4" width="1" height="1" fill="#215c64" /><rect x="4" y="5" width="1" height="1" fill="#25666d" /><rect x="4" y="6" width="1" height="1" fill="#399399" /><rect x="4" y="7" width="1" height="1" fill="#3b989f" /><rect x="4" y="8" width="1" height="1" fill="#000000" /><rect x="4" y="9" width="1" height="1" fill="#041a2e" /><rect x="5" y="0" width="1" height="1" fill="#43acb2" /><rect x="5" y="1" width="1" height="1" fill="#33848a" /><rect x="5" y="2" width="1" height="1" fill="#42a5ac" /><rect x="5" y="3" width="1" height="1" fill="#4ab9c0" /><rect x="5" y="4" width="1" height="1" fill="#3fa3a8" /><rect x="5" y="5" width="1" height="1" fill="#3c999f" /><rect x="5" y="6" width="1" height="1" fill="#48b4bb" /><rect x="5" y="7" width="1" height="1" fill="#42a8af" /><rect x="5" y="8" width="1" height="1" fill="#000000" /><rect x="5" y="9" width="1" height="1" fill="#03172c" /><rect x="6" y="0" width="1" height="1" fill="#50c7ce" /><rect x="6" y="1" width="1" height="1" fill="#41a4ab" /><rect x="6" y="2" width="1" height="1" fill="#43a7ae" /><rect x="6" y="3" width="1" height="1" fill="#55d2d8" /><rect x="6" y="4" width="1" height="1" fill="#5adde3" /><rect x="6" y="5" width="1" height="1" fill="#5bdee4" /><rect x="6" y="6" width="1" height="1" fill="#5bdee5" /><rect x="6" y="7" width="1" height="1" fill="#49b4bb" /><rect x="6" y="8" width="1" height="1" fill="#000000" /><rect x="6" y="9" width="1" height="1" fill="#03162b" /><rect x="7" y="0" width="1" height="1" fill="#1c5059" /><rect x="7" y="1" width="1" height="1" fill="#072335" /><rect x="7" y="2" width="1" height="1" fill="#00020d" /><rect x="7" y="3" width="1" height="1" fill="#000000" /><rect x="7" y="4" width="1" height="1" fill="#000000" /><rect x="7" y="5" width="1" height="1" fill="#020c1b" /><rect x="7" y="6" width="1" height="1" fill="#296f76" /><rect x="7" y="7" width="1" height="1" fill="#3a959b" /><rect x="7" y="8" width="1" height="1" fill="#00001e" /><rect x="7" y="9" width="1" height="1" fill="#04162c" /><rect x="8" y="0" width="1" height="1" fill="#4bb9c0" /><rect x="8" y="1" width="1" height="1" fill="#55d0d6" /><rect x="8" y="2" width="1" height="1" fill="#4dbfc5" /><rect x="8" y="3" width="1" height="1" fill="#4ab9c0" /><rect x="8" y="4" width="1" height="1" fill="#49b7bd" /><rect x="8" y="5" width="1" height="1" fill="#4cbcc3" /><rect x="8" y="6" width="1" height="1" fill="#51c6cd" /><rect x="8" y="7" width="1" height="1" fill="#44a9b0" /><rect x="8" y="8" width="1" height="1" fill="#000000" /><rect x="8" y="9" width="1" height="1" fill="#04172c" /><rect x="9" y="0" width="1" height="1" fill="#45acb3" /><rect x="9" y="1" width="1" height="1" fill="#53cbd2" /><rect x="9" y="2" width="1" height="1" fill="#53cad1" /><rect x="9" y="3" width="1" height="1" fill="#53cbd2" /><rect x="9" y="4" width="1" height="1" fill="#51c7ce" /><rect x="9" y="5" width="1" height="1" fill="#53ced4" /><rect x="9" y="6" width="1" height="1" fill="#57d9df" /><rect x="9" y="7" width="1" height="1" fill="#4bbac0" /><rect x="9" y="8" width="1" height="1" fill="#000000" /><rect x="9" y="9" width="1" height="1" fill="#03142a" /></g></svg>