<svg width="800" height="1000" version="1.1" xmlns="http://www.w3.org/2000/svg" xmlns:xlink="http://www.w3.org/1999/xlink">
  <defs>
      <linearGradient id="Gradient2" x1="0" x2="1" y1="0" y2="1">
        <stop offset="0%" stop-color="#2d3c96"/>
        <stop offset="100%" stop-color="#d53392"/>
      </linearGradient>
  </defs>
  <rect x="10" y="10" width="780" height="980" fill="url(#Gradient2)" rx="50" ry="50" stroke="#ffd700" stroke-width="20"/>
  <text x="400" y="920" width="780" text-anchor="middle" style="font: bold 200px 'Helvetica Neue'; fill: #ffd700">01944</text>

  <g transform="translate(80 80) scale(64)">
<rect x="0" y="0" width="1" height="1" fill="#0C313D" /><rect x="1" y="0" width="1" height="1" fill="#0A2B39" /><rect x="2" y="0" width="1" height="1" fill="#0D303D" /><rect x="3" y="0" width="1" height="1" fill="#0D303D" /><rect x="4" y="0" width="1" height="1" fill="#0E3440" /><rect x="5" y="0" width="1" height="1" fill="#0C303C" /><rect x="6" y="0" width="1" height="1" fill="#0C2E3B" /><rect x="7" y="0" width="1" height="1" fill="#113642" /><rect x="8" y="0" width="1" height="1" fill="#0A2A38" /><rect x="9" y="0" width="1" height="1" fill="#0C2F3B" /><rect x="0" y="1" width="1" height="1" fill="#000000" /><rect x="1" y="1" width="1" height="1" fill="#000012" /><rect x="2" y="1" width="1" height="1" fill="#000000" /><rect x="3" y="1" width="1" height="1" fill="#000000" /><rect x="4" y="1" width="1" height="1" fill="#000000" /><rect x="5" y="1" width="1" height="1" fill="#000000" /><rect x="6" y="1" width="1" height="1" fill="#000000" /><rect x="7" y="1" width="1" height="1" fill="#000000" /><rect x="8" y="1" width="1" height="1" fill="#000000" /><rect x="9" y="1" width="1" height="1" fill="#000000" /><rect x="0" y="2" width="1" height="1" fill="#3E9CA1" /><rect x="1" y="2" width="1" height="1" fill="#103841" /><rect x="2" y="2" width="1" height="1" fill="#35878D" /><rect x="3" y="2" width="1" height="1" fill="#40A3A8" /><rect x="4" y="2" width="1" height="1" fill="#44ADB3" /><rect x="5" y="2" width="1" height="1" fill="#45AFB6" /><rect x="6" y="2" width="1" height="1" fill="#40A2A8" /><rect x="7" y="2" width="1" height="1" fill="#409FA5" /><rect x="8" y="2" width="1" height="1" fill="#4BBAC0" /><rect x="9" y="2" width="1" height="1" fill="#368F95" /><rect x="0" y="3" width="1" height="1" fill="#59DAE1" /><rect x="1" y="3" width="1" height="1" fill="#388F95" /><rect x="2" y="3" width="1" height="1" fill="#43A8AE" /><rect x="3" y="3" width="1" height="1" fill="#57D5DB" /><rect x="4" y="3" width="1" height="1" fill="#4FC6CC" /><rect x="5" y="3" width="1" height="1" fill="#4FC4CB" /><rect x="6" y="3" width="1" height="1" fill="#57D5DC" /><rect x="7" y="3" width="1" height="1" fill="#4DBEC5" /><rect x="8" y="3" width="1" height="1" fill="#51C7CE" /><rect x="9" y="3" width="1" height="1" fill="#57D4DA" /><rect x="0" y="4" width="1" height="1" fill="#59DAE0" /><rect x="1" y="4" width="1" height="1" fill="#48B4BB" /><rect x="2" y="4" width="1" height="1" fill="#3D9DA3" /><rect x="3" y="4" width="1" height="1" fill="#55D2D9" /><rect x="4" y="4" width="1" height="1" fill="#40A4A9" /><rect x="5" y="4" width="1" height="1" fill="#3F9EA4" /><rect x="6" y="4" width="1" height="1" fill="#56D2D9" /><rect x="7" y="4" width="1" height="1" fill="#3E9EA5" /><rect x="8" y="4" width="1" height="1" fill="#379096" /><rect x="9" y="4" width="1" height="1" fill="#5DE2E8" /><rect x="0" y="5" width="1" height="1" fill="#56D4DA" /><rect x="1" y="5" width="1" height="1" fill="#48B5BB" /><rect x="2" y="5" width="1" height="1" fill="#3A969D" /><rect x="3" y="5" width="1" height="1" fill="#54D0D6" /><rect x="4" y="5" width="1" height="1" fill="#399296" /><rect x="5" y="5" width="1" height="1" fill="#368A90" /><rect x="6" y="5" width="1" height="1" fill="#54CED5" /><rect x="7" y="5" width="1" height="1" fill="#378C93" /><rect x="8" y="5" width="1" height="1" fill="#2C7279" /><rect x="9" y="5" width="1" height="1" fill="#5EE5EB" /><rect x="0" y="6" width="1" height="1" fill="#56D3DA" /><rect x="1" y="6" width="1" height="1" fill="#399096" /><rect x="2" y="6" width="1" height="1" fill="#40A5AC" /><rect x="3" y="6" width="1" height="1" fill="#59D9DF" /><rect x="4" y="6" width="1" height="1" fill="#45ADB3" /><rect x="5" y="6" width="1" height="1" fill="#43A6AD" /><rect x="6" y="6" width="1" height="1" fill="#58D5DB" /><rect x="7" y="6" width="1" height="1" fill="#45ADB4" /><rect x="8" y="6" width="1" height="1" fill="#3E9DA3" /><rect x="9" y="6" width="1" height="1" fill="#5EE7ED" /><rect x="0" y="7" width="1" height="1" fill="#409EA5" /><rect x="1" y="7" width="1" height="1" fill="#113844" /><rect x="2" y="7" width="1" height="1" fill="#39949B" /><rect x="3" y="7" width="1" height="1" fill="#48B6BD" /><rect x="4" y="7" width="1" height="1" fill="#41A4AB" /><rect x="5" y="7" width="1" height="1" fill="#409FA6" /><rect x="6" y="7" width="1" height="1" fill="#47B0B7" /><rect x="7" y="7" width="1" height="1" fill="#41A6AD" /><rect x="8" y="7" width="1" height="1" fill="#3C9CA3" /><rect x="9" y="7" width="1" height="1" fill="#4BBCC2" /><rect x="0" y="8" width="1" height="1" fill="#000000" /><rect x="1" y="8" width="1" height="1" fill="#000019" /><rect x="2" y="8" width="1" height="1" fill="#000006" /><rect x="3" y="8" width="1" height="1" fill="#000000" /><rect x="4" y="8" width="1" height="1" fill="#000000" /><rect x="5" y="8" width="1" height="1" fill="#000000" /><rect x="6" y="8" width="1" height="1" fill="#000000" /><rect x="7" y="8" width="1" height="1" fill="#000000" /><rect x="8" y="8" width="1" height="1" fill="#00000A" /><rect x="9" y="8" width="1" height="1" fill="#000000" /><rect x="0" y="9" width="1" height="1" fill="#061C2E" /><rect x="1" y="9" width="1" height="1" fill="#072332" /><rect x="2" y="9" width="1" height="1" fill="#04192D" /><rect x="3" y="9" width="1" height="1" fill="#03152B" /><rect x="4" y="9" width="1" height="1" fill="#03172B" /><rect x="5" y="9" width="1" height="1" fill="#04182B" /><rect x="6" y="9" width="1" height="1" fill="#04172C" /><rect x="7" y="9" width="1" height="1" fill="#03162B" /><rect x="8" y="9" width="1" height="1" fill="#04182D" /><rect x="9" y="9" width="1" height="1" fill="#04152B" />
  </g>
</svg>