<svg width="800" height="1000" xmlns="http://www.w3.org/2000/svg"><defs><linearGradient id="g" x1="0" x2="1" y1="0" y2="1"><stop offset="0%" stop-color="#2d3c96"/><stop offset="100%" stop-color="#d53392"/></linearGradient></defs><rect x="10" y="10" width="780" height="980" fill="url(#g)" rx="50" ry="50" stroke="gold" stroke-width="20"/><text x="400" y="920" width="780" text-anchor="middle" style="font:bold 200px 'Helvetica Neue';fill:gold">01943</text><g transform="translate(80 80) scale(64)"><rect x="0" y="0" width="1" height="1" fill="#00001a" /><rect x="0" y="1" width="1" height="1" fill="#000017" /><rect x="0" y="2" width="1" height="1" fill="#000017" /><rect x="0" y="3" width="1" height="1" fill="#00001c" /><rect x="0" y="4" width="1" height="1" fill="#00000d" /><rect x="0" y="5" width="1" height="1" fill="#000006" /><rect x="0" y="6" width="1" height="1" fill="#103845" /><rect x="0" y="7" width="1" height="1" fill="#1e575f" /><rect x="0" y="8" width="1" height="1" fill="#02152a" /><rect x="0" y="9" width="1" height="1" fill="#061e2f" /><rect x="1" y="0" width="1" height="1" fill="#04172c" /><rect x="1" y="1" width="1" height="1" fill="#010f28" /><rect x="1" y="2" width="1" height="1" fill="#000020" /><rect x="1" y="3" width="1" height="1" fill="#0b2b39" /><rect x="1" y="4" width="1" height="1" fill="#000002" /><rect x="1" y="5" width="1" height="1" fill="#215d61" /><rect x="1" y="6" width="1" height="1" fill="#44adb3" /><rect x="1" y="7" width="1" height="1" fill="#49b7bd" /><rect x="1" y="8" width="1" height="1" fill="#020e27" /><rect x="1" y="9" width="1" height="1" fill="#000020" /><rect x="2" y="0" width="1" height="1" fill="#072031" /><rect x="2" y="1" width="1" height="1" fill="#0e323e" /><rect x="2" y="2" width="1" height="1" fill="#03172d" /><rect x="2" y="3" width="1" height="1" fill="#00000f" /><rect x="2" y="4" width="1" height="1" fill="#000000" /><rect x="2" y="5" width="1" height="1" fill="#194a4f" /><rect x="2" y="6" width="1" height="1" fill="#399097" /><rect x="2" y="7" width="1" height="1" fill="#3e9ea4" /><rect x="2" y="8" width="1" height="1" fill="#00001f" /><rect x="2" y="9" width="1" height="1" fill="#031229" /><rect x="3" y="0" width="1" height="1" fill="#0b2a39" /><rect x="3" y="1" width="1" height="1" fill="#000019" /><rect x="3" y="2" width="1" height="1" fill="#051f2f" /><rect x="3" y="3" width="1" height="1" fill="#3b979e" /><rect x="3" y="4" width="1" height="1" fill="#51cad1" /><rect x="3" y="5" width="1" height="1" fill="#53cdd3" /><rect x="3" y="6" width="1" height="1" fill="#3e9ca3" /><rect x="3" y="7" width="1" height="1" fill="#041c2c" /><rect x="3" y="8" width="1" height="1" fill="#00000c" /><rect x="3" y="9" width="1" height="1" fill="#092535" /><rect x="4" y="0" width="1" height="1" fill="#113a45" /><rect x="4" y="1" width="1" height="1" fill="#000000" /><rect x="4" y="2" width="1" height="1" fill="#40a4aa" /><rect x="4" y="3" width="1" height="1" fill="#54d0d7" /><rect x="4" y="4" width="1" height="1" fill="#4ec2c9" /><rect x="4" y="5" width="1" height="1" fill="#52c9d0" /><rect x="4" y="6" width="1" height="1" fill="#5bdee4" /><rect x="4" y="7" width="1" height="1" fill="#47b3ba" /><rect x="4" y="8" width="1" height="1" fill="#000000" /><rect x="4" y="9" width="1" height="1" fill="#03162b" /><rect x="5" y="0" width="1" height="1" fill="#062232" /><rect x="5" y="1" width="1" height="1" fill="#000000" /><rect x="5" y="2" width="1" height="1" fill="#4ec2c7" /><rect x="5" y="3" width="1" height="1" fill="#4dc0c7" /><rect x="5" y="4" width="1" height="1" fill="#26686d" /><rect x="5" y="5" width="1" height="1" fill="#144145" /><rect x="5" y="6" width="1" height="1" fill="#45afb5" /><rect x="5" y="7" width="1" height="1" fill="#51cbd1" /><rect x="5" y="8" width="1" height="1" fill="#000008" /><rect x="5" y="9" width="1" height="1" fill="#000021" /><rect x="6" y="0" width="1" height="1" fill="#0c2b39" /><rect x="6" y="1" width="1" height="1" fill="#000000" /><rect x="6" y="2" width="1" height="1" fill="#3a9399" /><rect x="6" y="3" width="1" height="1" fill="#4cbcc4" /><rect x="6" y="4" width="1" height="1" fill="#2f7d82" /><rect x="6" y="5" width="1" height="1" fill="#11393d" /><rect x="6" y="6" width="1" height="1" fill="#39949b" /><rect x="6" y="7" width="1" height="1" fill="#3d9da4" /><rect x="6" y="8" width="1" height="1" fill="#000000" /><rect x="6" y="9" width="1" height="1" fill="#041a2e" /><rect x="7" y="0" width="1" height="1" fill="#0e3440" /><rect x="7" y="1" width="1" height="1" fill="#010924" /><rect x="7" y="2" width="1" height="1" fill="#000007" /><rect x="7" y="3" width="1" height="1" fill="#338489" /><rect x="7" y="4" width="1" height="1" fill="#49b5bb" /><rect x="7" y="5" width="1" height="1" fill="#4ebfc6" /><rect x="7" y="6" width="1" height="1" fill="#3f9ea5" /><rect x="7" y="7" width="1" height="1" fill="#113b44" /><rect x="7" y="8" width="1" height="1" fill="#000000" /><rect x="7" y="9" width="1" height="1" fill="#072534" /><rect x="8" y="0" width="1" height="1" fill="#0e343f" /><rect x="8" y="1" width="1" height="1" fill="#000000" /><rect x="8" y="2" width="1" height="1" fill="#389195" /><rect x="8" y="3" width="1" height="1" fill="#51c8cd" /><rect x="8" y="4" width="1" height="1" fill="#52cbd1" /><rect x="8" y="5" width="1" height="1" fill="#55d1d7" /><rect x="8" y="6" width="1" height="1" fill="#58d7de" /><rect x="8" y="7" width="1" height="1" fill="#42a5ac" /><rect x="8" y="8" width="1" height="1" fill="#000000" /><rect x="8" y="9" width="1" height="1" fill="#04192d" /><rect x="9" y="0" width="1" height="1" fill="#052031" /><rect x="9" y="1" width="1" height="1" fill="#000000" /><rect x="9" y="2" width="1" height="1" fill="#4ec4c9" /><rect x="9" y="3" width="1" height="1" fill="#4ab8be" /><rect x="9" y="4" width="1" height="1" fill="#225d61" /><rect x="9" y="5" width="1" height="1" fill="#0e2f36" /><rect x="9" y="6" width="1" height="1" fill="#43a6ae" /><rect x="9" y="7" width="1" height="1" fill="#53cbd2" /><rect x="9" y="8" width="1" height="1" fill="#00001a" /><rect x="9" y="9" width="1" height="1" fill="#00001f" /></g></svg>