<svg width="800" height="1000" version="1.1" xmlns="http://www.w3.org/2000/svg" xmlns:xlink="http://www.w3.org/1999/xlink">
  <defs>
      <linearGradient id="Gradient2" x1="0" x2="1" y1="0" y2="1">
        <stop offset="0%" stop-color="#2d3c96"/>
        <stop offset="100%" stop-color="#d53392"/>
      </linearGradient>
  </defs>
  <rect x="10" y="10" width="780" height="980" fill="url(#Gradient2)" rx="50" ry="50" stroke="#ffd700" stroke-width="20"/>
  <text x="400" y="920" width="780" text-anchor="middle" style="font: bold 200px 'Helvetica Neue'; fill: #ffd700">01940</text>

  <g transform="translate(80 80) scale(64)">
<rect x="0" y="0" width="1" height="1" fill="#051F30" /><rect x="1" y="0" width="1" height="1" fill="#103642" /><rect x="2" y="0" width="1" height="1" fill="#000000" /><rect x="3" y="0" width="1" height="1" fill="#000000" /><rect x="4" y="0" width="1" height="1" fill="#03162A" /><rect x="5" y="0" width="1" height="1" fill="#000000" /><rect x="6" y="0" width="1" height="1" fill="#00001F" /><rect x="7" y="0" width="1" height="1" fill="#0C313D" /><rect x="8" y="0" width="1" height="1" fill="#0F3541" /><rect x="9" y="0" width="1" height="1" fill="#03172A" /><rect x="0" y="1" width="1" height="1" fill="#082837" /><rect x="1" y="1" width="1" height="1" fill="#000000" /><rect x="2" y="1" width="1" height="1" fill="#26666D" /><rect x="3" y="1" width="1" height="1" fill="#41A4AA" /><rect x="4" y="1" width="1" height="1" fill="#3FA0A5" /><rect x="5" y="1" width="1" height="1" fill="#3A959B" /><rect x="6" y="1" width="1" height="1" fill="#082130" /><rect x="7" y="1" width="1" height="1" fill="#010B13" /><rect x="8" y="1" width="1" height="1" fill="#000000" /><rect x="9" y="1" width="1" height="1" fill="#000000" /><rect x="0" y="2" width="1" height="1" fill="#01080E" /><rect x="1" y="2" width="1" height="1" fill="#25676D" /><rect x="2" y="2" width="1" height="1" fill="#48B3BA" /><rect x="3" y="2" width="1" height="1" fill="#328188" /><rect x="4" y="2" width="1" height="1" fill="#2D767D" /><rect x="5" y="2" width="1" height="1" fill="#44ACB3" /><rect x="6" y="2" width="1" height="1" fill="#3D9DA4" /><rect x="7" y="2" width="1" height="1" fill="#000000" /><rect x="8" y="2" width="1" height="1" fill="#34878C" /><rect x="9" y="2" width="1" height="1" fill="#4ABBC2" /><rect x="0" y="3" width="1" height="1" fill="#021123" /><rect x="1" y="3" width="1" height="1" fill="#46AFB5" /><rect x="2" y="3" width="1" height="1" fill="#3C989F" /><rect x="3" y="3" width="1" height="1" fill="#388F96" /><rect x="4" y="3" width="1" height="1" fill="#42A4AB" /><rect x="5" y="3" width="1" height="1" fill="#39959B" /><rect x="6" y="3" width="1" height="1" fill="#43A9B0" /><rect x="7" y="3" width="1" height="1" fill="#34868B" /><rect x="8" y="3" width="1" height="1" fill="#54CFD5" /><rect x="9" y="3" width="1" height="1" fill="#3C9BA1" /><rect x="0" y="4" width="1" height="1" fill="#1F565F" /><rect x="1" y="4" width="1" height="1" fill="#4EC0C8" /><rect x="2" y="4" width="1" height="1" fill="#318188" /><rect x="3" y="4" width="1" height="1" fill="#4AB7BE" /><rect x="4" y="4" width="1" height="1" fill="#45AEB5" /><rect x="5" y="4" width="1" height="1" fill="#318288" /><rect x="6" y="4" width="1" height="1" fill="#41A2A9" /><rect x="7" y="4" width="1" height="1" fill="#3F9EA4" /><rect x="8" y="4" width="1" height="1" fill="#59DCE2" /><rect x="9" y="4" width="1" height="1" fill="#399399" /><rect x="0" y="5" width="1" height="1" fill="#2A6F76" /><rect x="1" y="5" width="1" height="1" fill="#4EC3CA" /><rect x="2" y="5" width="1" height="1" fill="#2B747B" /><rect x="3" y="5" width="1" height="1" fill="#51C8CF" /><rect x="4" y="5" width="1" height="1" fill="#46B1B8" /><rect x="5" y="5" width="1" height="1" fill="#44ABB1" /><rect x="6" y="5" width="1" height="1" fill="#3E9EA4" /><rect x="7" y="5" width="1" height="1" fill="#276A6E" /><rect x="8" y="5" width="1" height="1" fill="#52CCD3" /><rect x="9" y="5" width="1" height="1" fill="#4EC1C8" /><rect x="0" y="6" width="1" height="1" fill="#1F565E" /><rect x="1" y="6" width="1" height="1" fill="#50C6CD" /><rect x="2" y="6" width="1" height="1" fill="#33878E" /><rect x="3" y="6" width="1" height="1" fill="#43A8AF" /><rect x="4" y="6" width="1" height="1" fill="#41A4AB" /><rect x="5" y="6" width="1" height="1" fill="#46AFB6" /><rect x="6" y="6" width="1" height="1" fill="#2D787D" /><rect x="7" y="6" width="1" height="1" fill="#00000B" /><rect x="8" y="6" width="1" height="1" fill="#51C7CE" /><rect x="9" y="6" width="1" height="1" fill="#56D1D9" /><rect x="0" y="7" width="1" height="1" fill="#000001" /><rect x="1" y="7" width="1" height="1" fill="#41A5AC" /><rect x="2" y="7" width="1" height="1" fill="#4AB9C0" /><rect x="3" y="7" width="1" height="1" fill="#296E75" /><rect x="4" y="7" width="1" height="1" fill="#123B46" /><rect x="5" y="7" width="1" height="1" fill="#153F4A" /><rect x="6" y="7" width="1" height="1" fill="#000000" /><rect x="7" y="7" width="1" height="1" fill="#296D74" /><rect x="8" y="7" width="1" height="1" fill="#56D4DB" /><rect x="9" y="7" width="1" height="1" fill="#4BBBC1" /><rect x="0" y="8" width="1" height="1" fill="#010725" /><rect x="1" y="8" width="1" height="1" fill="#00000C" /><rect x="2" y="8" width="1" height="1" fill="#3A9399" /><rect x="3" y="8" width="1" height="1" fill="#3F9FA4" /><rect x="4" y="8" width="1" height="1" fill="#0D2F3C" /><rect x="5" y="8" width="1" height="1" fill="#00001F" /><rect x="6" y="8" width="1" height="1" fill="#000005" /><rect x="7" y="8" width="1" height="1" fill="#3A969B" /><rect x="8" y="8" width="1" height="1" fill="#5ADFE5" /><rect x="9" y="8" width="1" height="1" fill="#368C92" /><rect x="0" y="9" width="1" height="1" fill="#082433" /><rect x="1" y="9" width="1" height="1" fill="#020D26" /><rect x="2" y="9" width="1" height="1" fill="#000000" /><rect x="3" y="9" width="1" height="1" fill="#000000" /><rect x="4" y="9" width="1" height="1" fill="#071E2F" /><rect x="5" y="9" width="1" height="1" fill="#0C2F3B" /><rect x="6" y="9" width="1" height="1" fill="#00001F" /><rect x="7" y="9" width="1" height="1" fill="#194852" /><rect x="8" y="9" width="1" height="1" fill="#47B2B9" /><rect x="9" y="9" width="1" height="1" fill="#52CBD2" />
  </g>
</svg>