<svg width="800" height="1000" version="1.1" xmlns="http://www.w3.org/2000/svg" xmlns:xlink="http://www.w3.org/1999/xlink">
  <defs>
      <linearGradient id="Gradient2" x1="0" x2="1" y1="0" y2="1">
        <stop offset="0%" stop-color="#2d3c96"/>
        <stop offset="100%" stop-color="#d53392"/>
      </linearGradient>
  </defs>
  <rect x="10" y="10" width="780" height="980" fill="url(#Gradient2)" rx="50" ry="50" stroke="#ffd700" stroke-width="20"/>
  <text x="400" y="920" width="780" text-anchor="middle" style="font: bold 200px 'Helvetica Neue'; fill: #ffd700">02022</text>

  <g transform="translate(80 80) scale(64)">
<rect x="0" y="0" width="1" height="1" fill="#FBCECB" /><rect x="1" y="0" width="1" height="1" fill="#F55547" /><rect x="2" y="0" width="1" height="1" fill="#F55247" /><rect x="3" y="0" width="1" height="1" fill="#FCD4D0" /><rect x="4" y="0" width="1" height="1" fill="#FFFEFD" /><rect x="5" y="0" width="1" height="1" fill="#FFFDFD" /><rect x="6" y="0" width="1" height="1" fill="#FCD8D6" /><rect x="7" y="0" width="1" height="1" fill="#F5695D" /><rect x="8" y="0" width="1" height="1" fill="#F5564A" /><rect x="9" y="0" width="1" height="1" fill="#FBCEC9" /><rect x="0" y="1" width="1" height="1" fill="#F5554A" /><rect x="1" y="1" width="1" height="1" fill="#F44336" /><rect x="2" y="1" width="1" height="1" fill="#F44335" /><rect x="3" y="1" width="1" height="1" fill="#F6665B" /><rect x="4" y="1" width="1" height="1" fill="#FDD9D6" /><rect x="5" y="1" width="1" height="1" fill="#FDD7D5" /><rect x="6" y="1" width="1" height="1" fill="#F77A71" /><rect x="7" y="1" width="1" height="1" fill="#FAB3AE" /><rect x="8" y="1" width="1" height="1" fill="#F6695E" /><rect x="9" y="1" width="1" height="1" fill="#F5564B" /><rect x="0" y="2" width="1" height="1" fill="#F44133" /><rect x="1" y="2" width="1" height="1" fill="#F44133" /><rect x="2" y="2" width="1" height="1" fill="#F34033" /><rect x="3" y="2" width="1" height="1" fill="#F44336" /><rect x="4" y="2" width="1" height="1" fill="#F55549" /><rect x="5" y="2" width="1" height="1" fill="#F45447" /><rect x="6" y="2" width="1" height="1" fill="#F44538" /><rect x="7" y="2" width="1" height="1" fill="#F6675C" /><rect x="8" y="2" width="1" height="1" fill="#FAB5B0" /><rect x="9" y="2" width="1" height="1" fill="#F66B61" /><rect x="0" y="3" width="1" height="1" fill="#EE3C30" /><rect x="1" y="3" width="1" height="1" fill="#F34032" /><rect x="2" y="3" width="1" height="1" fill="#F44133" /><rect x="3" y="3" width="1" height="1" fill="#F34033" /><rect x="4" y="3" width="1" height="1" fill="#F44133" /><rect x="5" y="3" width="1" height="1" fill="#F44133" /><rect x="6" y="3" width="1" height="1" fill="#F34032" /><rect x="7" y="3" width="1" height="1" fill="#F44133" /><rect x="8" y="3" width="1" height="1" fill="#F6685D" /><rect x="9" y="3" width="1" height="1" fill="#FBCAC6" /><rect x="0" y="4" width="1" height="1" fill="#C51F1B" /><rect x="1" y="4" width="1" height="1" fill="#E8382C" /><rect x="2" y="4" width="1" height="1" fill="#F34032" /><rect x="3" y="4" width="1" height="1" fill="#F44133" /><rect x="4" y="4" width="1" height="1" fill="#F34033" /><rect x="5" y="4" width="1" height="1" fill="#F44133" /><rect x="6" y="4" width="1" height="1" fill="#F44133" /><rect x="7" y="4" width="1" height="1" fill="#F34032" /><rect x="8" y="4" width="1" height="1" fill="#F44436" /><rect x="9" y="4" width="1" height="1" fill="#F56055" /><rect x="0" y="5" width="1" height="1" fill="#C02D2D" /><rect x="1" y="5" width="1" height="1" fill="#C3201D" /><rect x="2" y="5" width="1" height="1" fill="#E9382C" /><rect x="3" y="5" width="1" height="1" fill="#F34032" /><rect x="4" y="5" width="1" height="1" fill="#F44133" /><rect x="5" y="5" width="1" height="1" fill="#F34033" /><rect x="6" y="5" width="1" height="1" fill="#F44133" /><rect x="7" y="5" width="1" height="1" fill="#F44133" /><rect x="8" y="5" width="1" height="1" fill="#F34235" /><rect x="9" y="5" width="1" height="1" fill="#F45245" /><rect x="0" y="6" width="1" height="1" fill="#EECACA" /><rect x="1" y="6" width="1" height="1" fill="#C74444" /><rect x="2" y="6" width="1" height="1" fill="#C3201D" /><rect x="3" y="6" width="1" height="1" fill="#E9382C" /><rect x="4" y="6" width="1" height="1" fill="#F34032" /><rect x="5" y="6" width="1" height="1" fill="#F44133" /><rect x="6" y="6" width="1" height="1" fill="#F34033" /><rect x="7" y="6" width="1" height="1" fill="#F44335" /><rect x="8" y="6" width="1" height="1" fill="#F6665B" /><rect x="9" y="6" width="1" height="1" fill="#FCD4D0" /><rect x="0" y="7" width="1" height="1" fill="#FEFDFD" /><rect x="1" y="7" width="1" height="1" fill="#F0D2D2" /><rect x="2" y="7" width="1" height="1" fill="#C64343" /><rect x="3" y="7" width="1" height="1" fill="#C3201D" /><rect x="4" y="7" width="1" height="1" fill="#E9382C" /><rect x="5" y="7" width="1" height="1" fill="#F34032" /><rect x="6" y="7" width="1" height="1" fill="#F44335" /><rect x="7" y="7" width="1" height="1" fill="#F4665A" /><rect x="8" y="7" width="1" height="1" fill="#FDDBD7" /><rect x="9" y="7" width="1" height="1" fill="#FFFEFD" /><rect x="0" y="8" width="1" height="1" fill="#FFFFFF" /><rect x="1" y="8" width="1" height="1" fill="#FEFDFD" /><rect x="2" y="8" width="1" height="1" fill="#F0D2D2" /><rect x="3" y="8" width="1" height="1" fill="#C74444" /><rect x="4" y="8" width="1" height="1" fill="#C4201D" /><rect x="5" y="8" width="1" height="1" fill="#E83A2E" /><rect x="6" y="8" width="1" height="1" fill="#F4665B" /><rect x="7" y="8" width="1" height="1" fill="#FDDBD7" /><rect x="8" y="8" width="1" height="1" fill="#FFFEFD" /><rect x="9" y="8" width="1" height="1" fill="#FFFFFF" /><rect x="0" y="9" width="1" height="1" fill="#FFFFFF" /><rect x="1" y="9" width="1" height="1" fill="#FFFFFF" /><rect x="2" y="9" width="1" height="1" fill="#FEFDFD" /><rect x="3" y="9" width="1" height="1" fill="#EECACA" /><rect x="4" y="9" width="1" height="1" fill="#BE2B2B" /><rect x="5" y="9" width="1" height="1" fill="#C63230" /><rect x="6" y="9" width="1" height="1" fill="#F6D0CE" /><rect x="7" y="9" width="1" height="1" fill="#FFFEFE" /><rect x="8" y="9" width="1" height="1" fill="#FFFFFF" /><rect x="9" y="9" width="1" height="1" fill="#FFFFFF" />
  </g>
</svg>