<svg width="800" height="1000" version="1.1" xmlns="http://www.w3.org/2000/svg" xmlns:xlink="http://www.w3.org/1999/xlink">
  <defs>
      <linearGradient id="Gradient2" x1="0" x2="1" y1="0" y2="1">
        <stop offset="0%" stop-color="#2d3c96"/>
        <stop offset="100%" stop-color="#d53392"/>
      </linearGradient>
  </defs>
  <rect x="10" y="10" width="780" height="980" fill="url(#Gradient2)" rx="50" ry="50" stroke="#ffd700" stroke-width="20"/>
  <text x="400" y="920" width="780" text-anchor="middle" style="font: bold 200px 'Helvetica Neue'; fill: #ffd700">02024</text>

  <g transform="translate(80 80) scale(64)">
<rect x="0" y="0" width="1" height="1" fill="#fbcecb" />
,<rect x="0" y="1" width="1" height="1" fill="#f5554a" />
,<rect x="0" y="2" width="1" height="1" fill="#f44133" />
,<rect x="0" y="3" width="1" height="1" fill="#ee3c30" />
,<rect x="0" y="4" width="1" height="1" fill="#c51f1b" />
,<rect x="0" y="5" width="1" height="1" fill="#c02d2d" />
,<rect x="0" y="6" width="1" height="1" fill="#eecaca" />
,<rect x="0" y="7" width="1" height="1" fill="#fefdfd" />
,<rect x="0" y="8" width="1" height="1" fill="#ffffff" />
,<rect x="0" y="9" width="1" height="1" fill="#ffffff" />
,<rect x="1" y="0" width="1" height="1" fill="#f55547" />
,<rect x="1" y="1" width="1" height="1" fill="#f44336" />
,<rect x="1" y="2" width="1" height="1" fill="#f44133" />
,<rect x="1" y="3" width="1" height="1" fill="#f34032" />
,<rect x="1" y="4" width="1" height="1" fill="#e8382c" />
,<rect x="1" y="5" width="1" height="1" fill="#c3201d" />
,<rect x="1" y="6" width="1" height="1" fill="#c74444" />
,<rect x="1" y="7" width="1" height="1" fill="#f0d2d2" />
,<rect x="1" y="8" width="1" height="1" fill="#fefdfd" />
,<rect x="1" y="9" width="1" height="1" fill="#ffffff" />
,<rect x="2" y="0" width="1" height="1" fill="#f55247" />
,<rect x="2" y="1" width="1" height="1" fill="#f44335" />
,<rect x="2" y="2" width="1" height="1" fill="#f34033" />
,<rect x="2" y="3" width="1" height="1" fill="#f44133" />
,<rect x="2" y="4" width="1" height="1" fill="#f34032" />
,<rect x="2" y="5" width="1" height="1" fill="#e9382c" />
,<rect x="2" y="6" width="1" height="1" fill="#c3201d" />
,<rect x="2" y="7" width="1" height="1" fill="#c64343" />
,<rect x="2" y="8" width="1" height="1" fill="#f0d2d2" />
,<rect x="2" y="9" width="1" height="1" fill="#fefdfd" />
,<rect x="3" y="0" width="1" height="1" fill="#fcd4d0" />
,<rect x="3" y="1" width="1" height="1" fill="#f6665b" />
,<rect x="3" y="2" width="1" height="1" fill="#f44336" />
,<rect x="3" y="3" width="1" height="1" fill="#f34033" />
,<rect x="3" y="4" width="1" height="1" fill="#f44133" />
,<rect x="3" y="5" width="1" height="1" fill="#f34032" />
,<rect x="3" y="6" width="1" height="1" fill="#e9382c" />
,<rect x="3" y="7" width="1" height="1" fill="#c3201d" />
,<rect x="3" y="8" width="1" height="1" fill="#c74444" />
,<rect x="3" y="9" width="1" height="1" fill="#eecaca" />
,<rect x="4" y="0" width="1" height="1" fill="#fffefd" />
,<rect x="4" y="1" width="1" height="1" fill="#fdd9d6" />
,<rect x="4" y="2" width="1" height="1" fill="#f55549" />
,<rect x="4" y="3" width="1" height="1" fill="#f44133" />
,<rect x="4" y="4" width="1" height="1" fill="#f34033" />
,<rect x="4" y="5" width="1" height="1" fill="#f44133" />
,<rect x="4" y="6" width="1" height="1" fill="#f34032" />
,<rect x="4" y="7" width="1" height="1" fill="#e9382c" />
,<rect x="4" y="8" width="1" height="1" fill="#c4201d" />
,<rect x="4" y="9" width="1" height="1" fill="#be2b2b" />
,<rect x="5" y="0" width="1" height="1" fill="#fffdfd" />
,<rect x="5" y="1" width="1" height="1" fill="#fdd7d5" />
,<rect x="5" y="2" width="1" height="1" fill="#f45447" />
,<rect x="5" y="3" width="1" height="1" fill="#f44133" />
,<rect x="5" y="4" width="1" height="1" fill="#f44133" />
,<rect x="5" y="5" width="1" height="1" fill="#f34033" />
,<rect x="5" y="6" width="1" height="1" fill="#f44133" />
,<rect x="5" y="7" width="1" height="1" fill="#f34032" />
,<rect x="5" y="8" width="1" height="1" fill="#e83a2e" />
,<rect x="5" y="9" width="1" height="1" fill="#c63230" />
,<rect x="6" y="0" width="1" height="1" fill="#fcd8d6" />
,<rect x="6" y="1" width="1" height="1" fill="#f77a71" />
,<rect x="6" y="2" width="1" height="1" fill="#f44538" />
,<rect x="6" y="3" width="1" height="1" fill="#f34032" />
,<rect x="6" y="4" width="1" height="1" fill="#f44133" />
,<rect x="6" y="5" width="1" height="1" fill="#f44133" />
,<rect x="6" y="6" width="1" height="1" fill="#f34033" />
,<rect x="6" y="7" width="1" height="1" fill="#f44335" />
,<rect x="6" y="8" width="1" height="1" fill="#f4665b" />
,<rect x="6" y="9" width="1" height="1" fill="#f6d0ce" />
,<rect x="7" y="0" width="1" height="1" fill="#f5695d" />
,<rect x="7" y="1" width="1" height="1" fill="#fab3ae" />
,<rect x="7" y="2" width="1" height="1" fill="#f6675c" />
,<rect x="7" y="3" width="1" height="1" fill="#f44133" />
,<rect x="7" y="4" width="1" height="1" fill="#f34032" />
,<rect x="7" y="5" width="1" height="1" fill="#f44133" />
,<rect x="7" y="6" width="1" height="1" fill="#f44335" />
,<rect x="7" y="7" width="1" height="1" fill="#f4665a" />
,<rect x="7" y="8" width="1" height="1" fill="#fddbd7" />
,<rect x="7" y="9" width="1" height="1" fill="#fffefe" />
,<rect x="8" y="0" width="1" height="1" fill="#f5564a" />
,<rect x="8" y="1" width="1" height="1" fill="#f6695e" />
,<rect x="8" y="2" width="1" height="1" fill="#fab5b0" />
,<rect x="8" y="3" width="1" height="1" fill="#f6685d" />
,<rect x="8" y="4" width="1" height="1" fill="#f44436" />
,<rect x="8" y="5" width="1" height="1" fill="#f34235" />
,<rect x="8" y="6" width="1" height="1" fill="#f6665b" />
,<rect x="8" y="7" width="1" height="1" fill="#fddbd7" />
,<rect x="8" y="8" width="1" height="1" fill="#fffefd" />
,<rect x="8" y="9" width="1" height="1" fill="#ffffff" />
,<rect x="9" y="0" width="1" height="1" fill="#fbcec9" />
,<rect x="9" y="1" width="1" height="1" fill="#f5564b" />
,<rect x="9" y="2" width="1" height="1" fill="#f66b61" />
,<rect x="9" y="3" width="1" height="1" fill="#fbcac6" />
,<rect x="9" y="4" width="1" height="1" fill="#f56055" />
,<rect x="9" y="5" width="1" height="1" fill="#f45245" />
,<rect x="9" y="6" width="1" height="1" fill="#fcd4d0" />
,<rect x="9" y="7" width="1" height="1" fill="#fffefd" />
,<rect x="9" y="8" width="1" height="1" fill="#ffffff" />
,<rect x="9" y="9" width="1" height="1" fill="#ffffff" />

  </g>
</svg>