<svg width="800" height="1000" version="1.1" xmlns="http://www.w3.org/2000/svg" xmlns:xlink="http://www.w3.org/1999/xlink">
  <defs>
      <linearGradient id="Gradient2" x1="0" x2="1" y1="0" y2="1">
        <stop offset="0%" stop-color="#2d3c96"/>
        <stop offset="100%" stop-color="#d53392"/>
      </linearGradient>
  </defs>
  <rect x="10" y="10" width="780" height="980" fill="url(#Gradient2)" rx="50" ry="50" stroke="#ffd700" stroke-width="20"/>
  <text x="400" y="920" width="780" text-anchor="middle" style="font: bold 200px 'Helvetica Neue'; fill: #ffd700">02060</text>

  <g transform="translate(80 80) scale(64)">
<rect x="0" y="0" width="1" height="1" fill="#000000" />
,<rect x="0" y="1" width="1" height="1" fill="#000000" />
,<rect x="0" y="2" width="1" height="1" fill="#000000" />
,<rect x="0" y="3" width="1" height="1" fill="#000000" />
,<rect x="0" y="4" width="1" height="1" fill="#000000" />
,<rect x="0" y="5" width="1" height="1" fill="#000000" />
,<rect x="0" y="6" width="1" height="1" fill="#000000" />
,<rect x="0" y="7" width="1" height="1" fill="#000000" />
,<rect x="0" y="8" width="1" height="1" fill="#000000" />
,<rect x="0" y="9" width="1" height="1" fill="#000000" />
,<rect x="1" y="0" width="1" height="1" fill="#000000" />
,<rect x="1" y="1" width="1" height="1" fill="#000000" />
,<rect x="1" y="2" width="1" height="1" fill="#000000" />
,<rect x="1" y="3" width="1" height="1" fill="#000000" />
,<rect x="1" y="4" width="1" height="1" fill="#000000" />
,<rect x="1" y="5" width="1" height="1" fill="#000000" />
,<rect x="1" y="6" width="1" height="1" fill="#000000" />
,<rect x="1" y="7" width="1" height="1" fill="#000000" />
,<rect x="1" y="8" width="1" height="1" fill="#000000" />
,<rect x="1" y="9" width="1" height="1" fill="#020202" />
,<rect x="2" y="0" width="1" height="1" fill="#000000" />
,<rect x="2" y="1" width="1" height="1" fill="#000000" />
,<rect x="2" y="2" width="1" height="1" fill="#000000" />
,<rect x="2" y="3" width="1" height="1" fill="#000000" />
,<rect x="2" y="4" width="1" height="1" fill="#000000" />
,<rect x="2" y="5" width="1" height="1" fill="#000000" />
,<rect x="2" y="6" width="1" height="1" fill="#000000" />
,<rect x="2" y="7" width="1" height="1" fill="#060505" />
,<rect x="2" y="8" width="1" height="1" fill="#000000" />
,<rect x="2" y="9" width="1" height="1" fill="#000000" />
,<rect x="3" y="0" width="1" height="1" fill="#000000" />
,<rect x="3" y="1" width="1" height="1" fill="#000000" />
,<rect x="3" y="2" width="1" height="1" fill="#000000" />
,<rect x="3" y="3" width="1" height="1" fill="#000000" />
,<rect x="3" y="4" width="1" height="1" fill="#000000" />
,<rect x="3" y="5" width="1" height="1" fill="#020102" />
,<rect x="3" y="6" width="1" height="1" fill="#000000" />
,<rect x="3" y="7" width="1" height="1" fill="#000000" />
,<rect x="3" y="8" width="1" height="1" fill="#000000" />
,<rect x="3" y="9" width="1" height="1" fill="#333132" />
,<rect x="4" y="0" width="1" height="1" fill="#000000" />
,<rect x="4" y="1" width="1" height="1" fill="#000000" />
,<rect x="4" y="2" width="1" height="1" fill="#000000" />
,<rect x="4" y="3" width="1" height="1" fill="#000000" />
,<rect x="4" y="4" width="1" height="1" fill="#010101" />
,<rect x="4" y="5" width="1" height="1" fill="#000000" />
,<rect x="4" y="6" width="1" height="1" fill="#191a1c" />
,<rect x="4" y="7" width="1" height="1" fill="#666264" />
,<rect x="4" y="8" width="1" height="1" fill="#958f93" />
,<rect x="4" y="9" width="1" height="1" fill="#a49ca1" />
,<rect x="5" y="0" width="1" height="1" fill="#000000" />
,<rect x="5" y="1" width="1" height="1" fill="#000000" />
,<rect x="5" y="2" width="1" height="1" fill="#000000" />
,<rect x="5" y="3" width="1" height="1" fill="#010101" />
,<rect x="5" y="4" width="1" height="1" fill="#000000" />
,<rect x="5" y="5" width="1" height="1" fill="#312e2e" />
,<rect x="5" y="6" width="1" height="1" fill="#807b7d" />
,<rect x="5" y="7" width="1" height="1" fill="#b3acaf" />
,<rect x="5" y="8" width="1" height="1" fill="#c6c0c5" />
,<rect x="5" y="9" width="1" height="1" fill="#c3bbc0" />
,<rect x="6" y="0" width="1" height="1" fill="#000000" />
,<rect x="6" y="1" width="1" height="1" fill="#000000" />
,<rect x="6" y="2" width="1" height="1" fill="#000000" />
,<rect x="6" y="3" width="1" height="1" fill="#000000" />
,<rect x="6" y="4" width="1" height="1" fill="#1c1a1a" />
,<rect x="6" y="5" width="1" height="1" fill="#6e6a69" />
,<rect x="6" y="6" width="1" height="1" fill="#989191" />
,<rect x="6" y="7" width="1" height="1" fill="#beb7b8" />
,<rect x="6" y="8" width="1" height="1" fill="#cbc2c4" />
,<rect x="6" y="9" width="1" height="1" fill="#d7cfd2" />
,<rect x="7" y="0" width="1" height="1" fill="#000000" />
,<rect x="7" y="1" width="1" height="1" fill="#000000" />
,<rect x="7" y="2" width="1" height="1" fill="#010101" />
,<rect x="7" y="3" width="1" height="1" fill="#000000" />
,<rect x="7" y="4" width="1" height="1" fill="#504d4d" />
,<rect x="7" y="5" width="1" height="1" fill="#85807f" />
,<rect x="7" y="6" width="1" height="1" fill="#a39c9b" />
,<rect x="7" y="7" width="1" height="1" fill="#b5afae" />
,<rect x="7" y="8" width="1" height="1" fill="#cac2c2" />
,<rect x="7" y="9" width="1" height="1" fill="#eae1e5" />
,<rect x="8" y="0" width="1" height="1" fill="#000000" />
,<rect x="8" y="1" width="1" height="1" fill="#000000" />
,<rect x="8" y="2" width="1" height="1" fill="#000000" />
,<rect x="8" y="3" width="1" height="1" fill="#080808" />
,<rect x="8" y="4" width="1" height="1" fill="#625f5f" />
,<rect x="8" y="5" width="1" height="1" fill="#888281" />
,<rect x="8" y="6" width="1" height="1" fill="#a59e9d" />
,<rect x="8" y="7" width="1" height="1" fill="#bab3b3" />
,<rect x="8" y="8" width="1" height="1" fill="#c4bfbf" />
,<rect x="8" y="9" width="1" height="1" fill="#e7898b" />
,<rect x="9" y="0" width="1" height="1" fill="#000000" />
,<rect x="9" y="1" width="1" height="1" fill="#000000" />
,<rect x="9" y="2" width="1" height="1" fill="#000000" />
,<rect x="9" y="3" width="1" height="1" fill="#171616" />
,<rect x="9" y="4" width="1" height="1" fill="#676564" />
,<rect x="9" y="5" width="1" height="1" fill="#847f7e" />
,<rect x="9" y="6" width="1" height="1" fill="#8c8783" />
,<rect x="9" y="7" width="1" height="1" fill="#a89f9c" />
,<rect x="9" y="8" width="1" height="1" fill="#b8b4b3" />
,<rect x="9" y="9" width="1" height="1" fill="#cb9190" />

  </g>
</svg>