<svg width="800" height="1000" version="1.1" xmlns="http://www.w3.org/2000/svg" xmlns:xlink="http://www.w3.org/1999/xlink">
  <defs>
      <linearGradient id="Gradient2" x1="0" x2="1" y1="0" y2="1">
        <stop offset="0%" stop-color="#2d3c96"/>
        <stop offset="100%" stop-color="#d53392"/>
      </linearGradient>
  </defs>
  <rect x="10" y="10" width="780" height="980" fill="url(#Gradient2)" rx="50" ry="50" stroke="#ffd700" stroke-width="20"/>
  <text x="400" y="920" width="780" text-anchor="middle" style="font: bold 200px 'Helvetica Neue'; fill: #ffd700">02106</text>

  <g transform="translate(80 80) scale(64)">
<rect x="0" y="0" width="1" height="1" fill="#949494" /><rect x="1" y="0" width="1" height="1" fill="#737373" /><rect x="2" y="0" width="1" height="1" fill="#737373" /><rect x="3" y="0" width="1" height="1" fill="#737373" /><rect x="4" y="0" width="1" height="1" fill="#C8C8C8" /><rect x="5" y="0" width="1" height="1" fill="#CFCFCF" /><rect x="6" y="0" width="1" height="1" fill="#919191" /><rect x="7" y="0" width="1" height="1" fill="#919191" /><rect x="8" y="0" width="1" height="1" fill="#919191" /><rect x="9" y="0" width="1" height="1" fill="#B4B4B4" /><rect x="0" y="1" width="1" height="1" fill="#E6E6E6" /><rect x="1" y="1" width="1" height="1" fill="#444444" /><rect x="2" y="1" width="1" height="1" fill="#444444" /><rect x="3" y="1" width="1" height="1" fill="#444444" /><rect x="4" y="1" width="1" height="1" fill="#545454" /><rect x="5" y="1" width="1" height="1" fill="#FEFEFE" /><rect x="6" y="1" width="1" height="1" fill="#7D7D7D" /><rect x="7" y="1" width="1" height="1" fill="#6C6C6C" /><rect x="8" y="1" width="1" height="1" fill="#6C6C6C" /><rect x="9" y="1" width="1" height="1" fill="#DBDBDB" /><rect x="0" y="2" width="1" height="1" fill="#FFFFFF" /><rect x="1" y="2" width="1" height="1" fill="#888888" /><rect x="2" y="2" width="1" height="1" fill="#444444" /><rect x="3" y="2" width="1" height="1" fill="#444444" /><rect x="4" y="2" width="1" height="1" fill="#444444" /><rect x="5" y="2" width="1" height="1" fill="#A1A1A1" /><rect x="6" y="2" width="1" height="1" fill="#D4D4D4" /><rect x="7" y="2" width="1" height="1" fill="#6C6C6C" /><rect x="8" y="2" width="1" height="1" fill="#AAAAAA" /><rect x="9" y="2" width="1" height="1" fill="#FFFFFF" /><rect x="0" y="3" width="1" height="1" fill="#FFFFFF" /><rect x="1" y="3" width="1" height="1" fill="#F3F3F3" /><rect x="2" y="3" width="1" height="1" fill="#555555" /><rect x="3" y="3" width="1" height="1" fill="#444444" /><rect x="4" y="3" width="1" height="1" fill="#444444" /><rect x="5" y="3" width="1" height="1" fill="#4B4B4B" /><rect x="6" y="3" width="1" height="1" fill="#E7E7E7" /><rect x="7" y="3" width="1" height="1" fill="#A1A1A1" /><rect x="8" y="3" width="1" height="1" fill="#F2F2F2" /><rect x="9" y="3" width="1" height="1" fill="#FFFFFF" /><rect x="0" y="4" width="1" height="1" fill="#FFFFFF" /><rect x="1" y="4" width="1" height="1" fill="#FFFFFF" /><rect x="2" y="4" width="1" height="1" fill="#BDBDBD" /><rect x="3" y="4" width="1" height="1" fill="#444444" /><rect x="4" y="4" width="1" height="1" fill="#444444" /><rect x="5" y="4" width="1" height="1" fill="#444444" /><rect x="6" y="4" width="1" height="1" fill="#7E7E7E" /><rect x="7" y="4" width="1" height="1" fill="#FFFFFF" /><rect x="8" y="4" width="1" height="1" fill="#FFFFFF" /><rect x="9" y="4" width="1" height="1" fill="#FFFFFF" /><rect x="0" y="5" width="1" height="1" fill="#FFFFFF" /><rect x="1" y="5" width="1" height="1" fill="#FFFFFF" /><rect x="2" y="5" width="1" height="1" fill="#BEBEBE" /><rect x="3" y="5" width="1" height="1" fill="#6C6C6C" /><rect x="4" y="5" width="1" height="1" fill="#6C6C6C" /><rect x="5" y="5" width="1" height="1" fill="#6C6C6C" /><rect x="6" y="5" width="1" height="1" fill="#9A9A9A" /><rect x="7" y="5" width="1" height="1" fill="#FFFFFF" /><rect x="8" y="5" width="1" height="1" fill="#FFFFFF" /><rect x="9" y="5" width="1" height="1" fill="#FFFEFF" /><rect x="0" y="6" width="1" height="1" fill="#FFFFFF" /><rect x="1" y="6" width="1" height="1" fill="#F5F5F5" /><rect x="2" y="6" width="1" height="1" fill="#747474" /><rect x="3" y="6" width="1" height="1" fill="#6C6C6C" /><rect x="4" y="6" width="1" height="1" fill="#6C6C6C" /><rect x="5" y="6" width="1" height="1" fill="#757575" /><rect x="6" y="6" width="1" height="1" fill="#E6E6E6" /><rect x="7" y="6" width="1" height="1" fill="#898989" /><rect x="8" y="6" width="1" height="1" fill="#E7E7E7" /><rect x="9" y="6" width="1" height="1" fill="#FFFFFF" /><rect x="0" y="7" width="1" height="1" fill="#FFFFFF" /><rect x="1" y="7" width="1" height="1" fill="#A9A9A9" /><rect x="2" y="7" width="1" height="1" fill="#6C6C6C" /><rect x="3" y="7" width="1" height="1" fill="#6C6C6C" /><rect x="4" y="7" width="1" height="1" fill="#6C6C6C" /><rect x="5" y="7" width="1" height="1" fill="#B6B6B6" /><rect x="6" y="7" width="1" height="1" fill="#C3C3C3" /><rect x="7" y="7" width="1" height="1" fill="#444444" /><rect x="8" y="7" width="1" height="1" fill="#838383" /><rect x="9" y="7" width="1" height="1" fill="#FFFFFF" /><rect x="0" y="8" width="1" height="1" fill="#DADADA" /><rect x="1" y="8" width="1" height="1" fill="#6E6E6E" /><rect x="2" y="8" width="1" height="1" fill="#6C6C6C" /><rect x="3" y="8" width="1" height="1" fill="#6C6C6C" /><rect x="4" y="8" width="1" height="1" fill="#7F7F7F" /><rect x="5" y="8" width="1" height="1" fill="#E9E9E9" /><rect x="6" y="8" width="1" height="1" fill="#676767" /><rect x="7" y="8" width="1" height="1" fill="#444444" /><rect x="8" y="8" width="1" height="1" fill="#454545" /><rect x="9" y="8" width="1" height="1" fill="#DDDDDD" /><rect x="0" y="9" width="1" height="1" fill="#B5B5B5" /><rect x="1" y="9" width="1" height="1" fill="#929292" /><rect x="2" y="9" width="1" height="1" fill="#929292" /><rect x="3" y="9" width="1" height="1" fill="#929292" /><rect x="4" y="9" width="1" height="1" fill="#D6D6D6" /><rect x="5" y="9" width="1" height="1" fill="#C5C5C5" /><rect x="6" y="9" width="1" height="1" fill="#737373" /><rect x="7" y="9" width="1" height="1" fill="#737373" /><rect x="8" y="9" width="1" height="1" fill="#737373" /><rect x="9" y="9" width="1" height="1" fill="#999999" />
  </g>
</svg>