<svg width="800" height="1000" version="1.1" xmlns="http://www.w3.org/2000/svg" xmlns:xlink="http://www.w3.org/1999/xlink">
  <defs>
      <linearGradient id="Gradient2" x1="0" x2="1" y1="0" y2="1">
        <stop offset="0%" stop-color="#2d3c96"/>
        <stop offset="100%" stop-color="#d53392"/>
      </linearGradient>
  </defs>
  <rect x="10" y="10" width="780" height="980" fill="url(#Gradient2)" rx="50" ry="50" stroke="#ffd700" stroke-width="20"/>
  <text x="400" y="920" width="780" text-anchor="middle" style="font: bold 200px 'Helvetica Neue'; fill: #ffd700">02125</text>

  <g transform="translate(80 80) scale(64)">
<rect x="0" y="0" width="1" height="1" fill="#ffffff" />
,<rect x="0" y="1" width="1" height="1" fill="#ffffff" />
,<rect x="0" y="2" width="1" height="1" fill="#c8c6c7" />
,<rect x="0" y="3" width="1" height="1" fill="#c2c0c1" />
,<rect x="0" y="4" width="1" height="1" fill="#c3c2c3" />
,<rect x="0" y="5" width="1" height="1" fill="#c3c2c3" />
,<rect x="0" y="6" width="1" height="1" fill="#c3c2c3" />
,<rect x="0" y="7" width="1" height="1" fill="#bab8b9" />
,<rect x="0" y="8" width="1" height="1" fill="#ffffff" />
,<rect x="0" y="9" width="1" height="1" fill="#ffffff" />
,<rect x="1" y="0" width="1" height="1" fill="#ffffff" />
,<rect x="1" y="1" width="1" height="1" fill="#ffffff" />
,<rect x="1" y="2" width="1" height="1" fill="#221e1f" />
,<rect x="1" y="3" width="1" height="1" fill="#080405" />
,<rect x="1" y="4" width="1" height="1" fill="#000000" />
,<rect x="1" y="5" width="1" height="1" fill="#000000" />
,<rect x="1" y="6" width="1" height="1" fill="#000000" />
,<rect x="1" y="7" width="1" height="1" fill="#000000" />
,<rect x="1" y="8" width="1" height="1" fill="#ffffff" />
,<rect x="1" y="9" width="1" height="1" fill="#ffffff" />
,<rect x="2" y="0" width="1" height="1" fill="#ffffff" />
,<rect x="2" y="1" width="1" height="1" fill="#ffffff" />
,<rect x="2" y="2" width="1" height="1" fill="#868485" />
,<rect x="2" y="3" width="1" height="1" fill="#282425" />
,<rect x="2" y="4" width="1" height="1" fill="#c7c6c6" />
,<rect x="2" y="5" width="1" height="1" fill="#c7c6c6" />
,<rect x="2" y="6" width="1" height="1" fill="#cecccd" />
,<rect x="2" y="7" width="1" height="1" fill="#c3c1c2" />
,<rect x="2" y="8" width="1" height="1" fill="#ffffff" />
,<rect x="2" y="9" width="1" height="1" fill="#ffffff" />
,<rect x="3" y="0" width="1" height="1" fill="#ffffff" />
,<rect x="3" y="1" width="1" height="1" fill="#ffffff" />
,<rect x="3" y="2" width="1" height="1" fill="#0f0b0c" />
,<rect x="3" y="3" width="1" height="1" fill="#5f5c5d" />
,<rect x="3" y="4" width="1" height="1" fill="#d2d1d1" />
,<rect x="3" y="5" width="1" height="1" fill="#d2d1d1" />
,<rect x="3" y="6" width="1" height="1" fill="#c5c5c4" />
,<rect x="3" y="7" width="1" height="1" fill="#bcbbbb" />
,<rect x="3" y="8" width="1" height="1" fill="#ffffff" />
,<rect x="3" y="9" width="1" height="1" fill="#ffffff" />
,<rect x="4" y="0" width="1" height="1" fill="#ffffff" />
,<rect x="4" y="1" width="1" height="1" fill="#ffffff" />
,<rect x="4" y="2" width="1" height="1" fill="#524f50" />
,<rect x="4" y="3" width="1" height="1" fill="#100c0d" />
,<rect x="4" y="4" width="1" height="1" fill="#000000" />
,<rect x="4" y="5" width="1" height="1" fill="#000000" />
,<rect x="4" y="6" width="1" height="1" fill="#000000" />
,<rect x="4" y="7" width="1" height="1" fill="#000000" />
,<rect x="4" y="8" width="1" height="1" fill="#ffffff" />
,<rect x="4" y="9" width="1" height="1" fill="#ffffff" />
,<rect x="5" y="0" width="1" height="1" fill="#ffffff" />
,<rect x="5" y="1" width="1" height="1" fill="#ffffff" />
,<rect x="5" y="2" width="1" height="1" fill="#a3a1a2" />
,<rect x="5" y="3" width="1" height="1" fill="#242021" />
,<rect x="5" y="4" width="1" height="1" fill="#c4c3c3" />
,<rect x="5" y="5" width="1" height="1" fill="#c4c3c3" />
,<rect x="5" y="6" width="1" height="1" fill="#c9c8c8" />
,<rect x="5" y="7" width="1" height="1" fill="#bebebd" />
,<rect x="5" y="8" width="1" height="1" fill="#ffffff" />
,<rect x="5" y="9" width="1" height="1" fill="#ffffff" />
,<rect x="6" y="0" width="1" height="1" fill="#ffffff" />
,<rect x="6" y="1" width="1" height="1" fill="#ffffff" />
,<rect x="6" y="2" width="1" height="1" fill="#0c0809" />
,<rect x="6" y="3" width="1" height="1" fill="#625f60" />
,<rect x="6" y="4" width="1" height="1" fill="#dad8d9" />
,<rect x="6" y="5" width="1" height="1" fill="#dad8d9" />
,<rect x="6" y="6" width="1" height="1" fill="#cdcbcc" />
,<rect x="6" y="7" width="1" height="1" fill="#c4c2c3" />
,<rect x="6" y="8" width="1" height="1" fill="#ffffff" />
,<rect x="6" y="9" width="1" height="1" fill="#ffffff" />
,<rect x="7" y="0" width="1" height="1" fill="#ffffff" />
,<rect x="7" y="1" width="1" height="1" fill="#ffffff" />
,<rect x="7" y="2" width="1" height="1" fill="#3c3839" />
,<rect x="7" y="3" width="1" height="1" fill="#020000" />
,<rect x="7" y="4" width="1" height="1" fill="#000000" />
,<rect x="7" y="5" width="1" height="1" fill="#000000" />
,<rect x="7" y="6" width="1" height="1" fill="#000000" />
,<rect x="7" y="7" width="1" height="1" fill="#000000" />
,<rect x="7" y="8" width="1" height="1" fill="#ffffff" />
,<rect x="7" y="9" width="1" height="1" fill="#ffffff" />
,<rect x="8" y="0" width="1" height="1" fill="#ffffff" />
,<rect x="8" y="1" width="1" height="1" fill="#ffffff" />
,<rect x="8" y="2" width="1" height="1" fill="#ffffff" />
,<rect x="8" y="3" width="1" height="1" fill="#c8c7c8" />
,<rect x="8" y="4" width="1" height="1" fill="#c5c3c4" />
,<rect x="8" y="5" width="1" height="1" fill="#c5c3c4" />
,<rect x="8" y="6" width="1" height="1" fill="#c6c4c5" />
,<rect x="8" y="7" width="1" height="1" fill="#bcbabb" />
,<rect x="8" y="8" width="1" height="1" fill="#ffffff" />
,<rect x="8" y="9" width="1" height="1" fill="#ffffff" />
,<rect x="9" y="0" width="1" height="1" fill="#acabab" />
,<rect x="9" y="1" width="1" height="1" fill="#cbcaca" />
,<rect x="9" y="2" width="1" height="1" fill="#a8a6a6" />
,<rect x="9" y="3" width="1" height="1" fill="#9c9a9a" />
,<rect x="9" y="4" width="1" height="1" fill="#9f9e9d" />
,<rect x="9" y="5" width="1" height="1" fill="#9f9e9d" />
,<rect x="9" y="6" width="1" height="1" fill="#9f9e9d" />
,<rect x="9" y="7" width="1" height="1" fill="#929090" />
,<rect x="9" y="8" width="1" height="1" fill="#ffffff" />
,<rect x="9" y="9" width="1" height="1" fill="#ffffff" />

  </g>
</svg>