<svg width="800" height="1000" version="1.1" xmlns="http://www.w3.org/2000/svg" xmlns:xlink="http://www.w3.org/1999/xlink">
  <defs>
      <linearGradient id="Gradient2" x1="0" x2="1" y1="0" y2="1">
        <stop offset="0%" stop-color="#2d3c96"/>
        <stop offset="100%" stop-color="#d53392"/>
      </linearGradient>
  </defs>
  <rect x="10" y="10" width="780" height="980" fill="url(#Gradient2)" rx="50" ry="50" stroke="#ffd700" stroke-width="20"/>
  <text x="400" y="920" width="780" text-anchor="middle" style="font: bold 200px 'Helvetica Neue'; fill: #ffd700">02125</text>

  <g transform="translate(80 80) scale(64)">
<rect x="0" y="0" width="1" height="1" fill="#FFFFFF" /><rect x="1" y="0" width="1" height="1" fill="#FFFFFF" /><rect x="2" y="0" width="1" height="1" fill="#FFFFFF" /><rect x="3" y="0" width="1" height="1" fill="#FFFFFF" /><rect x="4" y="0" width="1" height="1" fill="#FFFFFF" /><rect x="5" y="0" width="1" height="1" fill="#FFFFFF" /><rect x="6" y="0" width="1" height="1" fill="#FFFFFF" /><rect x="7" y="0" width="1" height="1" fill="#FFFFFF" /><rect x="8" y="0" width="1" height="1" fill="#FFFFFF" /><rect x="9" y="0" width="1" height="1" fill="#ACABAB" /><rect x="0" y="1" width="1" height="1" fill="#FFFFFF" /><rect x="1" y="1" width="1" height="1" fill="#FFFFFF" /><rect x="2" y="1" width="1" height="1" fill="#FFFFFF" /><rect x="3" y="1" width="1" height="1" fill="#FFFFFF" /><rect x="4" y="1" width="1" height="1" fill="#FFFFFF" /><rect x="5" y="1" width="1" height="1" fill="#FFFFFF" /><rect x="6" y="1" width="1" height="1" fill="#FFFFFF" /><rect x="7" y="1" width="1" height="1" fill="#FFFFFF" /><rect x="8" y="1" width="1" height="1" fill="#FFFFFF" /><rect x="9" y="1" width="1" height="1" fill="#CBCACA" /><rect x="0" y="2" width="1" height="1" fill="#C8C6C7" /><rect x="1" y="2" width="1" height="1" fill="#221E1F" /><rect x="2" y="2" width="1" height="1" fill="#868485" /><rect x="3" y="2" width="1" height="1" fill="#0F0B0C" /><rect x="4" y="2" width="1" height="1" fill="#524F50" /><rect x="5" y="2" width="1" height="1" fill="#A3A1A2" /><rect x="6" y="2" width="1" height="1" fill="#0C0809" /><rect x="7" y="2" width="1" height="1" fill="#3C3839" /><rect x="8" y="2" width="1" height="1" fill="#FFFFFF" /><rect x="9" y="2" width="1" height="1" fill="#A8A6A6" /><rect x="0" y="3" width="1" height="1" fill="#C2C0C1" /><rect x="1" y="3" width="1" height="1" fill="#080405" /><rect x="2" y="3" width="1" height="1" fill="#282425" /><rect x="3" y="3" width="1" height="1" fill="#5F5C5D" /><rect x="4" y="3" width="1" height="1" fill="#100C0D" /><rect x="5" y="3" width="1" height="1" fill="#242021" /><rect x="6" y="3" width="1" height="1" fill="#625F60" /><rect x="7" y="3" width="1" height="1" fill="#020000" /><rect x="8" y="3" width="1" height="1" fill="#C8C7C8" /><rect x="9" y="3" width="1" height="1" fill="#9C9A9A" /><rect x="0" y="4" width="1" height="1" fill="#C3C2C3" /><rect x="1" y="4" width="1" height="1" fill="#000000" /><rect x="2" y="4" width="1" height="1" fill="#C7C6C6" /><rect x="3" y="4" width="1" height="1" fill="#D2D1D1" /><rect x="4" y="4" width="1" height="1" fill="#000000" /><rect x="5" y="4" width="1" height="1" fill="#C4C3C3" /><rect x="6" y="4" width="1" height="1" fill="#DAD8D9" /><rect x="7" y="4" width="1" height="1" fill="#000000" /><rect x="8" y="4" width="1" height="1" fill="#C5C3C4" /><rect x="9" y="4" width="1" height="1" fill="#9F9E9D" /><rect x="0" y="5" width="1" height="1" fill="#C3C2C3" /><rect x="1" y="5" width="1" height="1" fill="#000000" /><rect x="2" y="5" width="1" height="1" fill="#C7C6C6" /><rect x="3" y="5" width="1" height="1" fill="#D2D1D1" /><rect x="4" y="5" width="1" height="1" fill="#000000" /><rect x="5" y="5" width="1" height="1" fill="#C4C3C3" /><rect x="6" y="5" width="1" height="1" fill="#DAD8D9" /><rect x="7" y="5" width="1" height="1" fill="#000000" /><rect x="8" y="5" width="1" height="1" fill="#C5C3C4" /><rect x="9" y="5" width="1" height="1" fill="#9F9E9D" /><rect x="0" y="6" width="1" height="1" fill="#C3C2C3" /><rect x="1" y="6" width="1" height="1" fill="#000000" /><rect x="2" y="6" width="1" height="1" fill="#CECCCD" /><rect x="3" y="6" width="1" height="1" fill="#C5C5C4" /><rect x="4" y="6" width="1" height="1" fill="#000000" /><rect x="5" y="6" width="1" height="1" fill="#C9C8C8" /><rect x="6" y="6" width="1" height="1" fill="#CDCBCC" /><rect x="7" y="6" width="1" height="1" fill="#000000" /><rect x="8" y="6" width="1" height="1" fill="#C6C4C5" /><rect x="9" y="6" width="1" height="1" fill="#9F9E9D" /><rect x="0" y="7" width="1" height="1" fill="#BAB8B9" /><rect x="1" y="7" width="1" height="1" fill="#000000" /><rect x="2" y="7" width="1" height="1" fill="#C3C1C2" /><rect x="3" y="7" width="1" height="1" fill="#BCBBBB" /><rect x="4" y="7" width="1" height="1" fill="#000000" /><rect x="5" y="7" width="1" height="1" fill="#BEBEBD" /><rect x="6" y="7" width="1" height="1" fill="#C4C2C3" /><rect x="7" y="7" width="1" height="1" fill="#000000" /><rect x="8" y="7" width="1" height="1" fill="#BCBABB" /><rect x="9" y="7" width="1" height="1" fill="#929090" /><rect x="0" y="8" width="1" height="1" fill="#FFFFFF" /><rect x="1" y="8" width="1" height="1" fill="#FFFFFF" /><rect x="2" y="8" width="1" height="1" fill="#FFFFFF" /><rect x="3" y="8" width="1" height="1" fill="#FFFFFF" /><rect x="4" y="8" width="1" height="1" fill="#FFFFFF" /><rect x="5" y="8" width="1" height="1" fill="#FFFFFF" /><rect x="6" y="8" width="1" height="1" fill="#FFFFFF" /><rect x="7" y="8" width="1" height="1" fill="#FFFFFF" /><rect x="8" y="8" width="1" height="1" fill="#FFFFFF" /><rect x="9" y="8" width="1" height="1" fill="#FFFFFF" /><rect x="0" y="9" width="1" height="1" fill="#FFFFFF" /><rect x="1" y="9" width="1" height="1" fill="#FFFFFF" /><rect x="2" y="9" width="1" height="1" fill="#FFFFFF" /><rect x="3" y="9" width="1" height="1" fill="#FFFFFF" /><rect x="4" y="9" width="1" height="1" fill="#FFFFFF" /><rect x="5" y="9" width="1" height="1" fill="#FFFFFF" /><rect x="6" y="9" width="1" height="1" fill="#FFFFFF" /><rect x="7" y="9" width="1" height="1" fill="#FFFFFF" /><rect x="8" y="9" width="1" height="1" fill="#FFFFFF" /><rect x="9" y="9" width="1" height="1" fill="#FFFFFF" />
  </g>
</svg>