<svg width="800" height="1000" version="1.1" xmlns="http://www.w3.org/2000/svg" xmlns:xlink="http://www.w3.org/1999/xlink">
  <defs>
      <linearGradient id="Gradient2" x1="0" x2="1" y1="0" y2="1">
        <stop offset="0%" stop-color="#2d3c96"/>
        <stop offset="100%" stop-color="#d53392"/>
      </linearGradient>
  </defs>
  <rect x="10" y="10" width="780" height="980" fill="url(#Gradient2)" rx="50" ry="50" stroke="#ffd700" stroke-width="20"/>
  <text x="400" y="920" width="780" text-anchor="middle" style="font: bold 200px 'Helvetica Neue'; fill: #ffd700">02160</text>

  <g transform="translate(80 80) scale(64)">
<rect x="0" y="0" width="1" height="1" fill="#000000" /><rect x="1" y="0" width="1" height="1" fill="#080707" /><rect x="2" y="0" width="1" height="1" fill="#000000" /><rect x="3" y="0" width="1" height="1" fill="#322F30" /><rect x="4" y="0" width="1" height="1" fill="#A09BA0" /><rect x="5" y="0" width="1" height="1" fill="#C7C2C8" /><rect x="6" y="0" width="1" height="1" fill="#DAD4DA" /><rect x="7" y="0" width="1" height="1" fill="#DED1D6" /><rect x="8" y="0" width="1" height="1" fill="#E27F82" /><rect x="9" y="0" width="1" height="1" fill="#C68A8B" /><rect x="0" y="1" width="1" height="1" fill="#000000" /><rect x="1" y="1" width="1" height="1" fill="#030303" /><rect x="2" y="1" width="1" height="1" fill="#000000" /><rect x="3" y="1" width="1" height="1" fill="#0D0C0B" /><rect x="4" y="1" width="1" height="1" fill="#8B878B" /><rect x="5" y="1" width="1" height="1" fill="#B0AAB0" /><rect x="6" y="1" width="1" height="1" fill="#C4BEC3" /><rect x="7" y="1" width="1" height="1" fill="#CDC5CB" /><rect x="8" y="1" width="1" height="1" fill="#C3BFC3" /><rect x="9" y="1" width="1" height="1" fill="#AFA9AB" /><rect x="0" y="2" width="1" height="1" fill="#000000" /><rect x="1" y="2" width="1" height="1" fill="#000000" /><rect x="2" y="2" width="1" height="1" fill="#0A0A0A" /><rect x="3" y="2" width="1" height="1" fill="#000000" /><rect x="4" y="2" width="1" height="1" fill="#615D60" /><rect x="5" y="2" width="1" height="1" fill="#8F888C" /><rect x="6" y="2" width="1" height="1" fill="#A0979A" /><rect x="7" y="2" width="1" height="1" fill="#B0A8AC" /><rect x="8" y="2" width="1" height="1" fill="#A9A0A4" /><rect x="9" y="2" width="1" height="1" fill="#A49FA2" /><rect x="0" y="3" width="1" height="1" fill="#000000" /><rect x="1" y="3" width="1" height="1" fill="#000000" /><rect x="2" y="3" width="1" height="1" fill="#040404" /><rect x="3" y="3" width="1" height="1" fill="#000000" /><rect x="4" y="3" width="1" height="1" fill="#272627" /><rect x="5" y="3" width="1" height="1" fill="#746F72" /><rect x="6" y="3" width="1" height="1" fill="#8B8588" /><rect x="7" y="3" width="1" height="1" fill="#968E92" /><rect x="8" y="3" width="1" height="1" fill="#948E91" /><rect x="9" y="3" width="1" height="1" fill="#928D92" /><rect x="0" y="4" width="1" height="1" fill="#000000" /><rect x="1" y="4" width="1" height="1" fill="#000000" /><rect x="2" y="4" width="1" height="1" fill="#000000" /><rect x="3" y="4" width="1" height="1" fill="#060606" /><rect x="4" y="4" width="1" height="1" fill="#000000" /><rect x="5" y="4" width="1" height="1" fill="#333132" /><rect x="6" y="4" width="1" height="1" fill="#666163" /><rect x="7" y="4" width="1" height="1" fill="#7B7579" /><rect x="8" y="4" width="1" height="1" fill="#736D70" /><rect x="9" y="4" width="1" height="1" fill="#656162" /><rect x="0" y="5" width="1" height="1" fill="#000000" /><rect x="1" y="5" width="1" height="1" fill="#000000" /><rect x="2" y="5" width="1" height="1" fill="#000000" /><rect x="3" y="5" width="1" height="1" fill="#000000" /><rect x="4" y="5" width="1" height="1" fill="#060505" /><rect x="5" y="5" width="1" height="1" fill="#000000" /><rect x="6" y="5" width="1" height="1" fill="#1A1A19" /><rect x="7" y="5" width="1" height="1" fill="#3F3D3D" /><rect x="8" y="5" width="1" height="1" fill="#4A4749" /><rect x="9" y="5" width="1" height="1" fill="#444142" /><rect x="0" y="6" width="1" height="1" fill="#000000" /><rect x="1" y="6" width="1" height="1" fill="#000000" /><rect x="2" y="6" width="1" height="1" fill="#000000" /><rect x="3" y="6" width="1" height="1" fill="#000000" /><rect x="4" y="6" width="1" height="1" fill="#000000" /><rect x="5" y="6" width="1" height="1" fill="#050505" /><rect x="6" y="6" width="1" height="1" fill="#000000" /><rect x="7" y="6" width="1" height="1" fill="#000000" /><rect x="8" y="6" width="1" height="1" fill="#0C0C0B" /><rect x="9" y="6" width="1" height="1" fill="#191919" /><rect x="0" y="7" width="1" height="1" fill="#000000" /><rect x="1" y="7" width="1" height="1" fill="#000000" /><rect x="2" y="7" width="1" height="1" fill="#000000" /><rect x="3" y="7" width="1" height="1" fill="#000000" /><rect x="4" y="7" width="1" height="1" fill="#000000" /><rect x="5" y="7" width="1" height="1" fill="#000000" /><rect x="6" y="7" width="1" height="1" fill="#030303" /><rect x="7" y="7" width="1" height="1" fill="#030303" /><rect x="8" y="7" width="1" height="1" fill="#000000" /><rect x="9" y="7" width="1" height="1" fill="#000000" /><rect x="0" y="8" width="1" height="1" fill="#000000" /><rect x="1" y="8" width="1" height="1" fill="#000000" /><rect x="2" y="8" width="1" height="1" fill="#000000" /><rect x="3" y="8" width="1" height="1" fill="#000000" /><rect x="4" y="8" width="1" height="1" fill="#000000" /><rect x="5" y="8" width="1" height="1" fill="#000000" /><rect x="6" y="8" width="1" height="1" fill="#000000" /><rect x="7" y="8" width="1" height="1" fill="#000000" /><rect x="8" y="8" width="1" height="1" fill="#010101" /><rect x="9" y="8" width="1" height="1" fill="#020202" /><rect x="0" y="9" width="1" height="1" fill="#000000" /><rect x="1" y="9" width="1" height="1" fill="#000000" /><rect x="2" y="9" width="1" height="1" fill="#000000" /><rect x="3" y="9" width="1" height="1" fill="#000000" /><rect x="4" y="9" width="1" height="1" fill="#000000" /><rect x="5" y="9" width="1" height="1" fill="#000000" /><rect x="6" y="9" width="1" height="1" fill="#000000" /><rect x="7" y="9" width="1" height="1" fill="#000000" /><rect x="8" y="9" width="1" height="1" fill="#000000" /><rect x="9" y="9" width="1" height="1" fill="#000000" />
  </g>
</svg>