<svg width="800" height="1000" version="1.1" xmlns="http://www.w3.org/2000/svg" xmlns:xlink="http://www.w3.org/1999/xlink">
  <defs>
      <linearGradient id="Gradient2" x1="0" x2="1" y1="0" y2="1">
        <stop offset="0%" stop-color="#2d3c96"/>
        <stop offset="100%" stop-color="#d53392"/>
      </linearGradient>
  </defs>
  <rect x="10" y="10" width="780" height="980" fill="url(#Gradient2)" rx="50" ry="50" stroke="#ffd700" stroke-width="20"/>
  <text x="400" y="920" width="780" text-anchor="middle" style="font: bold 200px 'Helvetica Neue'; fill: #ffd700">02160</text>

  <g transform="translate(80 80) scale(64)">
<rect x="0" y="0" width="1" height="1" fill="#000000" />
,<rect x="0" y="1" width="1" height="1" fill="#000000" />
,<rect x="0" y="2" width="1" height="1" fill="#000000" />
,<rect x="0" y="3" width="1" height="1" fill="#000000" />
,<rect x="0" y="4" width="1" height="1" fill="#000000" />
,<rect x="0" y="5" width="1" height="1" fill="#000000" />
,<rect x="0" y="6" width="1" height="1" fill="#000000" />
,<rect x="0" y="7" width="1" height="1" fill="#000000" />
,<rect x="0" y="8" width="1" height="1" fill="#000000" />
,<rect x="0" y="9" width="1" height="1" fill="#000000" />
,<rect x="1" y="0" width="1" height="1" fill="#080707" />
,<rect x="1" y="1" width="1" height="1" fill="#030303" />
,<rect x="1" y="2" width="1" height="1" fill="#000000" />
,<rect x="1" y="3" width="1" height="1" fill="#000000" />
,<rect x="1" y="4" width="1" height="1" fill="#000000" />
,<rect x="1" y="5" width="1" height="1" fill="#000000" />
,<rect x="1" y="6" width="1" height="1" fill="#000000" />
,<rect x="1" y="7" width="1" height="1" fill="#000000" />
,<rect x="1" y="8" width="1" height="1" fill="#000000" />
,<rect x="1" y="9" width="1" height="1" fill="#000000" />
,<rect x="2" y="0" width="1" height="1" fill="#000000" />
,<rect x="2" y="1" width="1" height="1" fill="#000000" />
,<rect x="2" y="2" width="1" height="1" fill="#0a0a0a" />
,<rect x="2" y="3" width="1" height="1" fill="#040404" />
,<rect x="2" y="4" width="1" height="1" fill="#000000" />
,<rect x="2" y="5" width="1" height="1" fill="#000000" />
,<rect x="2" y="6" width="1" height="1" fill="#000000" />
,<rect x="2" y="7" width="1" height="1" fill="#000000" />
,<rect x="2" y="8" width="1" height="1" fill="#000000" />
,<rect x="2" y="9" width="1" height="1" fill="#000000" />
,<rect x="3" y="0" width="1" height="1" fill="#322f30" />
,<rect x="3" y="1" width="1" height="1" fill="#0d0c0b" />
,<rect x="3" y="2" width="1" height="1" fill="#000000" />
,<rect x="3" y="3" width="1" height="1" fill="#000000" />
,<rect x="3" y="4" width="1" height="1" fill="#060606" />
,<rect x="3" y="5" width="1" height="1" fill="#000000" />
,<rect x="3" y="6" width="1" height="1" fill="#000000" />
,<rect x="3" y="7" width="1" height="1" fill="#000000" />
,<rect x="3" y="8" width="1" height="1" fill="#000000" />
,<rect x="3" y="9" width="1" height="1" fill="#000000" />
,<rect x="4" y="0" width="1" height="1" fill="#a09ba0" />
,<rect x="4" y="1" width="1" height="1" fill="#8b878b" />
,<rect x="4" y="2" width="1" height="1" fill="#615d60" />
,<rect x="4" y="3" width="1" height="1" fill="#272627" />
,<rect x="4" y="4" width="1" height="1" fill="#000000" />
,<rect x="4" y="5" width="1" height="1" fill="#060505" />
,<rect x="4" y="6" width="1" height="1" fill="#000000" />
,<rect x="4" y="7" width="1" height="1" fill="#000000" />
,<rect x="4" y="8" width="1" height="1" fill="#000000" />
,<rect x="4" y="9" width="1" height="1" fill="#000000" />
,<rect x="5" y="0" width="1" height="1" fill="#c7c2c8" />
,<rect x="5" y="1" width="1" height="1" fill="#b0aab0" />
,<rect x="5" y="2" width="1" height="1" fill="#8f888c" />
,<rect x="5" y="3" width="1" height="1" fill="#746f72" />
,<rect x="5" y="4" width="1" height="1" fill="#333132" />
,<rect x="5" y="5" width="1" height="1" fill="#000000" />
,<rect x="5" y="6" width="1" height="1" fill="#050505" />
,<rect x="5" y="7" width="1" height="1" fill="#000000" />
,<rect x="5" y="8" width="1" height="1" fill="#000000" />
,<rect x="5" y="9" width="1" height="1" fill="#000000" />
,<rect x="6" y="0" width="1" height="1" fill="#dad4da" />
,<rect x="6" y="1" width="1" height="1" fill="#c4bec3" />
,<rect x="6" y="2" width="1" height="1" fill="#a0979a" />
,<rect x="6" y="3" width="1" height="1" fill="#8b8588" />
,<rect x="6" y="4" width="1" height="1" fill="#666163" />
,<rect x="6" y="5" width="1" height="1" fill="#1a1a19" />
,<rect x="6" y="6" width="1" height="1" fill="#000000" />
,<rect x="6" y="7" width="1" height="1" fill="#030303" />
,<rect x="6" y="8" width="1" height="1" fill="#000000" />
,<rect x="6" y="9" width="1" height="1" fill="#000000" />
,<rect x="7" y="0" width="1" height="1" fill="#ded1d6" />
,<rect x="7" y="1" width="1" height="1" fill="#cdc5cb" />
,<rect x="7" y="2" width="1" height="1" fill="#b0a8ac" />
,<rect x="7" y="3" width="1" height="1" fill="#968e92" />
,<rect x="7" y="4" width="1" height="1" fill="#7b7579" />
,<rect x="7" y="5" width="1" height="1" fill="#3f3d3d" />
,<rect x="7" y="6" width="1" height="1" fill="#000000" />
,<rect x="7" y="7" width="1" height="1" fill="#030303" />
,<rect x="7" y="8" width="1" height="1" fill="#000000" />
,<rect x="7" y="9" width="1" height="1" fill="#000000" />
,<rect x="8" y="0" width="1" height="1" fill="#e27f82" />
,<rect x="8" y="1" width="1" height="1" fill="#c3bfc3" />
,<rect x="8" y="2" width="1" height="1" fill="#a9a0a4" />
,<rect x="8" y="3" width="1" height="1" fill="#948e91" />
,<rect x="8" y="4" width="1" height="1" fill="#736d70" />
,<rect x="8" y="5" width="1" height="1" fill="#4a4749" />
,<rect x="8" y="6" width="1" height="1" fill="#0c0c0b" />
,<rect x="8" y="7" width="1" height="1" fill="#000000" />
,<rect x="8" y="8" width="1" height="1" fill="#010101" />
,<rect x="8" y="9" width="1" height="1" fill="#000000" />
,<rect x="9" y="0" width="1" height="1" fill="#c68a8b" />
,<rect x="9" y="1" width="1" height="1" fill="#afa9ab" />
,<rect x="9" y="2" width="1" height="1" fill="#a49fa2" />
,<rect x="9" y="3" width="1" height="1" fill="#928d92" />
,<rect x="9" y="4" width="1" height="1" fill="#656162" />
,<rect x="9" y="5" width="1" height="1" fill="#444142" />
,<rect x="9" y="6" width="1" height="1" fill="#191919" />
,<rect x="9" y="7" width="1" height="1" fill="#000000" />
,<rect x="9" y="8" width="1" height="1" fill="#020202" />
,<rect x="9" y="9" width="1" height="1" fill="#000000" />

  </g>
</svg>