<svg width="800" height="1000" xmlns="http://www.w3.org/2000/svg"><defs><linearGradient id="g" x1="0" x2="1" y1="0" y2="1"><stop offset="0%" stop-color="#2d3c96"/><stop offset="100%" stop-color="#d53392"/></linearGradient></defs><rect x="10" y="10" width="780" height="980" fill="url(#g)" rx="50" ry="50" stroke="gold" stroke-width="20"/><text x="400" y="920" width="780" text-anchor="middle" style="font:bold 200px 'Helvetica Neue';fill:gold">02293</text><g transform="translate(80 80) scale(64)"><rect x="0" y="0" width="1" height="1" fill="#070908" /><rect x="0" y="1" width="1" height="1" fill="#030200" /><rect x="0" y="2" width="1" height="1" fill="#233548" /><rect x="0" y="3" width="1" height="1" fill="#649cdd" /><rect x="0" y="4" width="1" height="1" fill="#395a7d" /><rect x="0" y="5" width="1" height="1" fill="#000000" /><rect x="0" y="6" width="1" height="1" fill="#050604" /><rect x="0" y="7" width="1" height="1" fill="#0b1113" /><rect x="0" y="8" width="1" height="1" fill="#6bb6f8" /><rect x="0" y="9" width="1" height="1" fill="#62abe5" /><rect x="1" y="0" width="1" height="1" fill="#070908" /><rect x="1" y="1" width="1" height="1" fill="#030200" /><rect x="1" y="2" width="1" height="1" fill="#233548" /><rect x="1" y="3" width="1" height="1" fill="#649cdd" /><rect x="1" y="4" width="1" height="1" fill="#395a7d" /><rect x="1" y="5" width="1" height="1" fill="#000000" /><rect x="1" y="6" width="1" height="1" fill="#060807" /><rect x="1" y="7" width="1" height="1" fill="#070909" /><rect x="1" y="8" width="1" height="1" fill="#1c2e3b" /><rect x="1" y="9" width="1" height="1" fill="#192a35" /><rect x="2" y="0" width="1" height="1" fill="#070908" /><rect x="2" y="1" width="1" height="1" fill="#030200" /><rect x="2" y="2" width="1" height="1" fill="#23364a" /><rect x="2" y="3" width="1" height="1" fill="#649cdd" /><rect x="2" y="4" width="1" height="1" fill="#38587b" /><rect x="2" y="5" width="1" height="1" fill="#000000" /><rect x="2" y="6" width="1" height="1" fill="#070908" /><rect x="2" y="7" width="1" height="1" fill="#060807" /><rect x="2" y="8" width="1" height="1" fill="#040300" /><rect x="2" y="9" width="1" height="1" fill="#040300" /><rect x="3" y="0" width="1" height="1" fill="#070908" /><rect x="3" y="1" width="1" height="1" fill="#030400" /><rect x="3" y="2" width="1" height="1" fill="#1d2c3c" /><rect x="3" y="3" width="1" height="1" fill="#649bdd" /><rect x="3" y="4" width="1" height="1" fill="#456c97" /><rect x="3" y="5" width="1" height="1" fill="#000000" /><rect x="3" y="6" width="1" height="1" fill="#070908" /><rect x="3" y="7" width="1" height="1" fill="#070908" /><rect x="3" y="8" width="1" height="1" fill="#070908" /><rect x="3" y="9" width="1" height="1" fill="#070908" /><rect x="4" y="0" width="1" height="1" fill="#070908" /><rect x="4" y="1" width="1" height="1" fill="#060706" /><rect x="4" y="2" width="1" height="1" fill="#020100" /><rect x="4" y="3" width="1" height="1" fill="#649bdd" /><rect x="4" y="4" width="1" height="1" fill="#639ede" /><rect x="4" y="5" width="1" height="1" fill="#0f161b" /><rect x="4" y="6" width="1" height="1" fill="#000000" /><rect x="4" y="7" width="1" height="1" fill="#030200" /><rect x="4" y="8" width="1" height="1" fill="#030200" /><rect x="4" y="9" width="1" height="1" fill="#030200" /><rect x="5" y="0" width="1" height="1" fill="#070908" /><rect x="5" y="1" width="1" height="1" fill="#070908" /><rect x="5" y="2" width="1" height="1" fill="#000000" /><rect x="5" y="3" width="1" height="1" fill="#324c6a" /><rect x="5" y="4" width="1" height="1" fill="#639dde" /><rect x="5" y="5" width="1" height="1" fill="#629ddb" /><rect x="5" y="6" width="1" height="1" fill="#32506c" /><rect x="5" y="7" width="1" height="1" fill="#1f3242" /><rect x="5" y="8" width="1" height="1" fill="#203545" /><rect x="5" y="9" width="1" height="1" fill="#203646" /><rect x="6" y="0" width="1" height="1" fill="#070908" /><rect x="6" y="1" width="1" height="1" fill="#070908" /><rect x="6" y="2" width="1" height="1" fill="#060807" /><rect x="6" y="3" width="1" height="1" fill="#000000" /><rect x="6" y="4" width="1" height="1" fill="#3d6085" /><rect x="6" y="5" width="1" height="1" fill="#67a5e7" /><rect x="6" y="6" width="1" height="1" fill="#64a4e2" /><rect x="6" y="7" width="1" height="1" fill="#65a9e7" /><rect x="6" y="8" width="1" height="1" fill="#65ace9" /><rect x="6" y="9" width="1" height="1" fill="#65b0ec" /><rect x="7" y="0" width="1" height="1" fill="#070908" /><rect x="7" y="1" width="1" height="1" fill="#070908" /><rect x="7" y="2" width="1" height="1" fill="#070908" /><rect x="7" y="3" width="1" height="1" fill="#060807" /><rect x="7" y="4" width="1" height="1" fill="#000000" /><rect x="7" y="5" width="1" height="1" fill="#131d25" /><rect x="7" y="6" width="1" height="1" fill="#3a5d7f" /><rect x="7" y="7" width="1" height="1" fill="#447098" /><rect x="7" y="8" width="1" height="1" fill="#437198" /><rect x="7" y="9" width="1" height="1" fill="#437499" /><rect x="8" y="0" width="1" height="1" fill="#070908" /><rect x="8" y="1" width="1" height="1" fill="#070908" /><rect x="8" y="2" width="1" height="1" fill="#070908" /><rect x="8" y="3" width="1" height="1" fill="#070908" /><rect x="8" y="4" width="1" height="1" fill="#070908" /><rect x="8" y="5" width="1" height="1" fill="#040502" /><rect x="8" y="6" width="1" height="1" fill="#010000" /><rect x="8" y="7" width="1" height="1" fill="#000000" /><rect x="8" y="8" width="1" height="1" fill="#000000" /><rect x="8" y="9" width="1" height="1" fill="#000000" /><rect x="9" y="0" width="1" height="1" fill="#000000" /><rect x="9" y="1" width="1" height="1" fill="#000000" /><rect x="9" y="2" width="1" height="1" fill="#000000" /><rect x="9" y="3" width="1" height="1" fill="#000000" /><rect x="9" y="4" width="1" height="1" fill="#000000" /><rect x="9" y="5" width="1" height="1" fill="#000000" /><rect x="9" y="6" width="1" height="1" fill="#000000" /><rect x="9" y="7" width="1" height="1" fill="#000000" /><rect x="9" y="8" width="1" height="1" fill="#000000" /><rect x="9" y="9" width="1" height="1" fill="#000000" /></g></svg>