<svg width="800" height="1000" version="1.1" xmlns="http://www.w3.org/2000/svg" xmlns:xlink="http://www.w3.org/1999/xlink">
  <defs>
      <linearGradient id="Gradient2" x1="0" x2="1" y1="0" y2="1">
        <stop offset="0%" stop-color="#2d3c96"/>
        <stop offset="100%" stop-color="#d53392"/>
      </linearGradient>
  </defs>
  <rect x="10" y="10" width="780" height="980" fill="url(#Gradient2)" rx="50" ry="50" stroke="#ffd700" stroke-width="20"/>
  <text x="400" y="920" width="780" text-anchor="middle" style="font: bold 200px 'Helvetica Neue'; fill: #ffd700">02293</text>

  <g transform="translate(80 80) scale(64)">
<rect x="0" y="0" width="1" height="1" fill="#070908" /><rect x="1" y="0" width="1" height="1" fill="#070908" /><rect x="2" y="0" width="1" height="1" fill="#070908" /><rect x="3" y="0" width="1" height="1" fill="#070908" /><rect x="4" y="0" width="1" height="1" fill="#070908" /><rect x="5" y="0" width="1" height="1" fill="#070908" /><rect x="6" y="0" width="1" height="1" fill="#070908" /><rect x="7" y="0" width="1" height="1" fill="#070908" /><rect x="8" y="0" width="1" height="1" fill="#070908" /><rect x="9" y="0" width="1" height="1" fill="#000000" /><rect x="0" y="1" width="1" height="1" fill="#030200" /><rect x="1" y="1" width="1" height="1" fill="#030200" /><rect x="2" y="1" width="1" height="1" fill="#030200" /><rect x="3" y="1" width="1" height="1" fill="#030400" /><rect x="4" y="1" width="1" height="1" fill="#060706" /><rect x="5" y="1" width="1" height="1" fill="#070908" /><rect x="6" y="1" width="1" height="1" fill="#070908" /><rect x="7" y="1" width="1" height="1" fill="#070908" /><rect x="8" y="1" width="1" height="1" fill="#070908" /><rect x="9" y="1" width="1" height="1" fill="#000000" /><rect x="0" y="2" width="1" height="1" fill="#233548" /><rect x="1" y="2" width="1" height="1" fill="#233548" /><rect x="2" y="2" width="1" height="1" fill="#23364A" /><rect x="3" y="2" width="1" height="1" fill="#1D2C3C" /><rect x="4" y="2" width="1" height="1" fill="#020100" /><rect x="5" y="2" width="1" height="1" fill="#000000" /><rect x="6" y="2" width="1" height="1" fill="#060807" /><rect x="7" y="2" width="1" height="1" fill="#070908" /><rect x="8" y="2" width="1" height="1" fill="#070908" /><rect x="9" y="2" width="1" height="1" fill="#000000" /><rect x="0" y="3" width="1" height="1" fill="#649CDD" /><rect x="1" y="3" width="1" height="1" fill="#649CDD" /><rect x="2" y="3" width="1" height="1" fill="#649CDD" /><rect x="3" y="3" width="1" height="1" fill="#649BDD" /><rect x="4" y="3" width="1" height="1" fill="#649BDD" /><rect x="5" y="3" width="1" height="1" fill="#324C6A" /><rect x="6" y="3" width="1" height="1" fill="#000000" /><rect x="7" y="3" width="1" height="1" fill="#060807" /><rect x="8" y="3" width="1" height="1" fill="#070908" /><rect x="9" y="3" width="1" height="1" fill="#000000" /><rect x="0" y="4" width="1" height="1" fill="#395A7D" /><rect x="1" y="4" width="1" height="1" fill="#395A7D" /><rect x="2" y="4" width="1" height="1" fill="#38587B" /><rect x="3" y="4" width="1" height="1" fill="#456C97" /><rect x="4" y="4" width="1" height="1" fill="#639EDE" /><rect x="5" y="4" width="1" height="1" fill="#639DDE" /><rect x="6" y="4" width="1" height="1" fill="#3D6085" /><rect x="7" y="4" width="1" height="1" fill="#000000" /><rect x="8" y="4" width="1" height="1" fill="#070908" /><rect x="9" y="4" width="1" height="1" fill="#000000" /><rect x="0" y="5" width="1" height="1" fill="#000000" /><rect x="1" y="5" width="1" height="1" fill="#000000" /><rect x="2" y="5" width="1" height="1" fill="#000000" /><rect x="3" y="5" width="1" height="1" fill="#000000" /><rect x="4" y="5" width="1" height="1" fill="#0F161B" /><rect x="5" y="5" width="1" height="1" fill="#629DDB" /><rect x="6" y="5" width="1" height="1" fill="#67A5E7" /><rect x="7" y="5" width="1" height="1" fill="#131D25" /><rect x="8" y="5" width="1" height="1" fill="#040502" /><rect x="9" y="5" width="1" height="1" fill="#000000" /><rect x="0" y="6" width="1" height="1" fill="#050604" /><rect x="1" y="6" width="1" height="1" fill="#060807" /><rect x="2" y="6" width="1" height="1" fill="#070908" /><rect x="3" y="6" width="1" height="1" fill="#070908" /><rect x="4" y="6" width="1" height="1" fill="#000000" /><rect x="5" y="6" width="1" height="1" fill="#32506C" /><rect x="6" y="6" width="1" height="1" fill="#64A4E2" /><rect x="7" y="6" width="1" height="1" fill="#3A5D7F" /><rect x="8" y="6" width="1" height="1" fill="#010000" /><rect x="9" y="6" width="1" height="1" fill="#000000" /><rect x="0" y="7" width="1" height="1" fill="#0B1113" /><rect x="1" y="7" width="1" height="1" fill="#070909" /><rect x="2" y="7" width="1" height="1" fill="#060807" /><rect x="3" y="7" width="1" height="1" fill="#070908" /><rect x="4" y="7" width="1" height="1" fill="#030200" /><rect x="5" y="7" width="1" height="1" fill="#1F3242" /><rect x="6" y="7" width="1" height="1" fill="#65A9E7" /><rect x="7" y="7" width="1" height="1" fill="#447098" /><rect x="8" y="7" width="1" height="1" fill="#000000" /><rect x="9" y="7" width="1" height="1" fill="#000000" /><rect x="0" y="8" width="1" height="1" fill="#6BB6F8" /><rect x="1" y="8" width="1" height="1" fill="#1C2E3B" /><rect x="2" y="8" width="1" height="1" fill="#040300" /><rect x="3" y="8" width="1" height="1" fill="#070908" /><rect x="4" y="8" width="1" height="1" fill="#030200" /><rect x="5" y="8" width="1" height="1" fill="#203545" /><rect x="6" y="8" width="1" height="1" fill="#65ACE9" /><rect x="7" y="8" width="1" height="1" fill="#437198" /><rect x="8" y="8" width="1" height="1" fill="#000000" /><rect x="9" y="8" width="1" height="1" fill="#000000" /><rect x="0" y="9" width="1" height="1" fill="#62ABE5" /><rect x="1" y="9" width="1" height="1" fill="#192A35" /><rect x="2" y="9" width="1" height="1" fill="#040300" /><rect x="3" y="9" width="1" height="1" fill="#070908" /><rect x="4" y="9" width="1" height="1" fill="#030200" /><rect x="5" y="9" width="1" height="1" fill="#203646" /><rect x="6" y="9" width="1" height="1" fill="#65B0EC" /><rect x="7" y="9" width="1" height="1" fill="#437499" /><rect x="8" y="9" width="1" height="1" fill="#000000" /><rect x="9" y="9" width="1" height="1" fill="#000000" />
  </g>
</svg>