<svg width="800" height="1000" version="1.1" xmlns="http://www.w3.org/2000/svg" xmlns:xlink="http://www.w3.org/1999/xlink">
  <defs>
      <linearGradient id="Gradient2" x1="0" x2="1" y1="0" y2="1">
        <stop offset="0%" stop-color="#2d3c96"/>
        <stop offset="100%" stop-color="#d53392"/>
      </linearGradient>
  </defs>
  <rect x="10" y="10" width="780" height="980" fill="url(#Gradient2)" rx="50" ry="50" stroke="#ffd700" stroke-width="20"/>
  <text x="400" y="920" width="780" text-anchor="middle" style="font: bold 200px 'Helvetica Neue'; fill: #ffd700">02291</text>

  <g transform="translate(80 80) scale(64)">
<rect x="0" y="0" width="1" height="1" fill="#070908" />
,<rect x="0" y="1" width="1" height="1" fill="#070908" />
,<rect x="0" y="2" width="1" height="1" fill="#070908" />
,<rect x="0" y="3" width="1" height="1" fill="#070908" />
,<rect x="0" y="4" width="1" height="1" fill="#070908" />
,<rect x="0" y="5" width="1" height="1" fill="#070908" />
,<rect x="0" y="6" width="1" height="1" fill="#070908" />
,<rect x="0" y="7" width="1" height="1" fill="#070908" />
,<rect x="0" y="8" width="1" height="1" fill="#070908" />
,<rect x="0" y="9" width="1" height="1" fill="#070908" />
,<rect x="1" y="0" width="1" height="1" fill="#070908" />
,<rect x="1" y="1" width="1" height="1" fill="#070908" />
,<rect x="1" y="2" width="1" height="1" fill="#070908" />
,<rect x="1" y="3" width="1" height="1" fill="#070908" />
,<rect x="1" y="4" width="1" height="1" fill="#070908" />
,<rect x="1" y="5" width="1" height="1" fill="#070908" />
,<rect x="1" y="6" width="1" height="1" fill="#060807" />
,<rect x="1" y="7" width="1" height="1" fill="#050705" />
,<rect x="1" y="8" width="1" height="1" fill="#050705" />
,<rect x="1" y="9" width="1" height="1" fill="#050705" />
,<rect x="2" y="0" width="1" height="1" fill="#070908" />
,<rect x="2" y="1" width="1" height="1" fill="#070908" />
,<rect x="2" y="2" width="1" height="1" fill="#070908" />
,<rect x="2" y="3" width="1" height="1" fill="#070908" />
,<rect x="2" y="4" width="1" height="1" fill="#050705" />
,<rect x="2" y="5" width="1" height="1" fill="#000000" />
,<rect x="2" y="6" width="1" height="1" fill="#000000" />
,<rect x="2" y="7" width="1" height="1" fill="#070a09" />
,<rect x="2" y="8" width="1" height="1" fill="#070909" />
,<rect x="2" y="9" width="1" height="1" fill="#070a0a" />
,<rect x="3" y="0" width="1" height="1" fill="#070908" />
,<rect x="3" y="1" width="1" height="1" fill="#070908" />
,<rect x="3" y="2" width="1" height="1" fill="#070908" />
,<rect x="3" y="3" width="1" height="1" fill="#040401" />
,<rect x="3" y="4" width="1" height="1" fill="#050603" />
,<rect x="3" y="5" width="1" height="1" fill="#436a93" />
,<rect x="3" y="6" width="1" height="1" fill="#65a2e1" />
,<rect x="3" y="7" width="1" height="1" fill="#65a7e6" />
,<rect x="3" y="8" width="1" height="1" fill="#65abe8" />
,<rect x="3" y="9" width="1" height="1" fill="#65afeb" />
,<rect x="4" y="0" width="1" height="1" fill="#070908" />
,<rect x="4" y="1" width="1" height="1" fill="#070908" />
,<rect x="4" y="2" width="1" height="1" fill="#050604" />
,<rect x="4" y="3" width="1" height="1" fill="#070a09" />
,<rect x="4" y="4" width="1" height="1" fill="#6097d6" />
,<rect x="4" y="5" width="1" height="1" fill="#629cdb" />
,<rect x="4" y="6" width="1" height="1" fill="#65a2e1" />
,<rect x="4" y="7" width="1" height="1" fill="#5b95cd" />
,<rect x="4" y="8" width="1" height="1" fill="#5b9acf" />
,<rect x="4" y="9" width="1" height="1" fill="#5b9cd2" />
,<rect x="5" y="0" width="1" height="1" fill="#070908" />
,<rect x="5" y="1" width="1" height="1" fill="#060807" />
,<rect x="5" y="2" width="1" height="1" fill="#000000" />
,<rect x="5" y="3" width="1" height="1" fill="#507baf" />
,<rect x="5" y="4" width="1" height="1" fill="#6198d7" />
,<rect x="5" y="5" width="1" height="1" fill="#4a74a2" />
,<rect x="5" y="6" width="1" height="1" fill="#020100" />
,<rect x="5" y="7" width="1" height="1" fill="#000000" />
,<rect x="5" y="8" width="1" height="1" fill="#000000" />
,<rect x="5" y="9" width="1" height="1" fill="#000000" />
,<rect x="6" y="0" width="1" height="1" fill="#070908" />
,<rect x="6" y="1" width="1" height="1" fill="#050603" />
,<rect x="6" y="2" width="1" height="1" fill="#0e151a" />
,<rect x="6" y="3" width="1" height="1" fill="#659ddf" />
,<rect x="6" y="4" width="1" height="1" fill="#5b8ec9" />
,<rect x="6" y="5" width="1" height="1" fill="#000000" />
,<rect x="6" y="6" width="1" height="1" fill="#050604" />
,<rect x="6" y="7" width="1" height="1" fill="#070908" />
,<rect x="6" y="8" width="1" height="1" fill="#070908" />
,<rect x="6" y="9" width="1" height="1" fill="#070908" />
,<rect x="7" y="0" width="1" height="1" fill="#070908" />
,<rect x="7" y="1" width="1" height="1" fill="#030300" />
,<rect x="7" y="2" width="1" height="1" fill="#223447" />
,<rect x="7" y="3" width="1" height="1" fill="#639bdc" />
,<rect x="7" y="4" width="1" height="1" fill="#3b5b80" />
,<rect x="7" y="5" width="1" height="1" fill="#000000" />
,<rect x="7" y="6" width="1" height="1" fill="#070908" />
,<rect x="7" y="7" width="1" height="1" fill="#070908" />
,<rect x="7" y="8" width="1" height="1" fill="#070908" />
,<rect x="7" y="9" width="1" height="1" fill="#070908" />
,<rect x="8" y="0" width="1" height="1" fill="#070908" />
,<rect x="8" y="1" width="1" height="1" fill="#030200" />
,<rect x="8" y="2" width="1" height="1" fill="#233548" />
,<rect x="8" y="3" width="1" height="1" fill="#649bdd" />
,<rect x="8" y="4" width="1" height="1" fill="#39597c" />
,<rect x="8" y="5" width="1" height="1" fill="#000000" />
,<rect x="8" y="6" width="1" height="1" fill="#070908" />
,<rect x="8" y="7" width="1" height="1" fill="#070908" />
,<rect x="8" y="8" width="1" height="1" fill="#070908" />
,<rect x="8" y="9" width="1" height="1" fill="#070908" />
,<rect x="9" y="0" width="1" height="1" fill="#070908" />
,<rect x="9" y="1" width="1" height="1" fill="#030200" />
,<rect x="9" y="2" width="1" height="1" fill="#233548" />
,<rect x="9" y="3" width="1" height="1" fill="#649bdd" />
,<rect x="9" y="4" width="1" height="1" fill="#39597d" />
,<rect x="9" y="5" width="1" height="1" fill="#000000" />
,<rect x="9" y="6" width="1" height="1" fill="#070908" />
,<rect x="9" y="7" width="1" height="1" fill="#070908" />
,<rect x="9" y="8" width="1" height="1" fill="#070908" />
,<rect x="9" y="9" width="1" height="1" fill="#070908" />

  </g>
</svg>