<svg width="800" height="1000" xmlns="http://www.w3.org/2000/svg"><defs><linearGradient id="g" x1="0" x2="1" y1="0" y2="1"><stop offset="0%" stop-color="#2d3c96"/><stop offset="100%" stop-color="#d53392"/></linearGradient></defs><rect x="10" y="10" width="780" height="980" fill="url(#g)" rx="50" ry="50" stroke="gold" stroke-width="20"/><text x="400" y="920" width="780" text-anchor="middle" style="font:bold 200px 'Helvetica Neue';fill:gold">02301</text><g transform="translate(80 80) scale(64)"><rect x="0" y="0" width="1" height="1" fill="#e70012" /><rect x="0" y="1" width="1" height="1" fill="#e90611" /><rect x="0" y="2" width="1" height="1" fill="#e60606" /><rect x="0" y="3" width="1" height="1" fill="#dd0400" /><rect x="0" y="4" width="1" height="1" fill="#df0f0f" /><rect x="0" y="5" width="1" height="1" fill="#d50003" /><rect x="0" y="6" width="1" height="1" fill="#e50002" /><rect x="0" y="7" width="1" height="1" fill="#f5010b" /><rect x="0" y="8" width="1" height="1" fill="#ef0409" /><rect x="0" y="9" width="1" height="1" fill="#df0001" /><rect x="1" y="0" width="1" height="1" fill="#da0410" /><rect x="1" y="1" width="1" height="1" fill="#d3050f" /><rect x="1" y="2" width="1" height="1" fill="#cd1112" /><rect x="1" y="3" width="1" height="1" fill="#b90b0a" /><rect x="1" y="4" width="1" height="1" fill="#b50f11" /><rect x="1" y="5" width="1" height="1" fill="#c1161c" /><rect x="1" y="6" width="1" height="1" fill="#d6171f" /><rect x="1" y="7" width="1" height="1" fill="#c7020b" /><rect x="1" y="8" width="1" height="1" fill="#c6090f" /><rect x="1" y="9" width="1" height="1" fill="#c51015" /><rect x="2" y="0" width="1" height="1" fill="#ca1318" /><rect x="2" y="1" width="1" height="1" fill="#a9080d" /><rect x="2" y="2" width="1" height="1" fill="#d56066" /><rect x="2" y="3" width="1" height="1" fill="#ffc0c6" /><rect x="2" y="4" width="1" height="1" fill="#ffe5ea" /><rect x="2" y="5" width="1" height="1" fill="#ffe6ec" /><rect x="2" y="6" width="1" height="1" fill="#ffd6de" /><rect x="2" y="7" width="1" height="1" fill="#ffdfe8" /><rect x="2" y="8" width="1" height="1" fill="#ffe1ec" /><rect x="2" y="9" width="1" height="1" fill="#ffe5ec" /><rect x="3" y="0" width="1" height="1" fill="#a91717" /><rect x="3" y="1" width="1" height="1" fill="#ffa2a5" /><rect x="3" y="2" width="1" height="1" fill="#ffe3ed" /><rect x="3" y="3" width="1" height="1" fill="#ffe7f5" /><rect x="3" y="4" width="1" height="1" fill="#ffc2cf" /><rect x="3" y="5" width="1" height="1" fill="#f69eac" /><rect x="3" y="6" width="1" height="1" fill="#f1909b" /><rect x="3" y="7" width="1" height="1" fill="#f28c99" /><rect x="3" y="8" width="1" height="1" fill="#e0808e" /><rect x="3" y="9" width="1" height="1" fill="#ffe6ef" /><rect x="4" y="0" width="1" height="1" fill="#8a2020" /><rect x="4" y="1" width="1" height="1" fill="#ffdee4" /><rect x="4" y="2" width="1" height="1" fill="#ffd8ea" /><rect x="4" y="3" width="1" height="1" fill="#a82841" /><rect x="4" y="4" width="1" height="1" fill="#c21a34" /><rect x="4" y="5" width="1" height="1" fill="#d61a33" /><rect x="4" y="6" width="1" height="1" fill="#d21529" /><rect x="4" y="7" width="1" height="1" fill="#d61a2b" /><rect x="4" y="8" width="1" height="1" fill="#d7172c" /><rect x="4" y="9" width="1" height="1" fill="#bc1a29" /><rect x="5" y="0" width="1" height="1" fill="#912228" /><rect x="5" y="1" width="1" height="1" fill="#ffd7e2" /><rect x="5" y="2" width="1" height="1" fill="#ffdef3" /><rect x="5" y="3" width="1" height="1" fill="#ba3351" /><rect x="5" y="4" width="1" height="1" fill="#fb3254" /><rect x="5" y="5" width="1" height="1" fill="#f30829" /><rect x="5" y="6" width="1" height="1" fill="#f40721" /><rect x="5" y="7" width="1" height="1" fill="#f10921" /><rect x="5" y="8" width="1" height="1" fill="#eb0f29" /><rect x="5" y="9" width="1" height="1" fill="#cf1e32" /><rect x="6" y="0" width="1" height="1" fill="#b91327" /><rect x="6" y="1" width="1" height="1" fill="#f56c80" /><rect x="6" y="2" width="1" height="1" fill="#ffe4f8" /><rect x="6" y="3" width="1" height="1" fill="#c96a82" /><rect x="6" y="4" width="1" height="1" fill="#c61436" /><rect x="6" y="5" width="1" height="1" fill="#ff264b" /><rect x="6" y="6" width="1" height="1" fill="#ff0c2c" /><rect x="6" y="7" width="1" height="1" fill="#ef0a27" /><rect x="6" y="8" width="1" height="1" fill="#d01834" /><rect x="6" y="9" width="1" height="1" fill="#ff8ba0" /><rect x="7" y="0" width="1" height="1" fill="#cb0818" /><rect x="7" y="1" width="1" height="1" fill="#a50917" /><rect x="7" y="2" width="1" height="1" fill="#ffe4f2" /><rect x="7" y="3" width="1" height="1" fill="#ffe5f8" /><rect x="7" y="4" width="1" height="1" fill="#b11638" /><rect x="7" y="5" width="1" height="1" fill="#ff315b" /><rect x="7" y="6" width="1" height="1" fill="#ed072d" /><rect x="7" y="7" width="1" height="1" fill="#e01030" /><rect x="7" y="8" width="1" height="1" fill="#e55b74" /><rect x="7" y="9" width="1" height="1" fill="#ffe8f8" /><rect x="8" y="0" width="1" height="1" fill="#d60a03" /><rect x="8" y="1" width="1" height="1" fill="#bd140f" /><rect x="8" y="2" width="1" height="1" fill="#ec8888" /><rect x="8" y="3" width="1" height="1" fill="#ffe3ef" /><rect x="8" y="4" width="1" height="1" fill="#e95f83" /><rect x="8" y="5" width="1" height="1" fill="#c61946" /><rect x="8" y="6" width="1" height="1" fill="#d8133e" /><rect x="8" y="7" width="1" height="1" fill="#d73252" /><rect x="8" y="8" width="1" height="1" fill="#ffd7e5" /><rect x="8" y="9" width="1" height="1" fill="#fff6fb" /><rect x="9" y="0" width="1" height="1" fill="#e10400" /><rect x="9" y="1" width="1" height="1" fill="#d00f0a" /><rect x="9" y="2" width="1" height="1" fill="#a61c1a" /><rect x="9" y="3" width="1" height="1" fill="#ffdde6" /><rect x="9" y="4" width="1" height="1" fill="#ffd4ef" /><rect x="9" y="5" width="1" height="1" fill="#b03458" /><rect x="9" y="6" width="1" height="1" fill="#b01c40" /><rect x="9" y="7" width="1" height="1" fill="#fb839c" /><rect x="9" y="8" width="1" height="1" fill="#fff2f4" /><rect x="9" y="9" width="1" height="1" fill="#fffcf9" /></g></svg>