<svg width="800" height="1000" xmlns="http://www.w3.org/2000/svg"><defs><linearGradient id="g" x1="0" x2="1" y1="0" y2="1"><stop offset="0%" stop-color="#2d3c96"/><stop offset="100%" stop-color="#d53392"/></linearGradient></defs><rect x="10" y="10" width="780" height="980" fill="url(#g)" rx="50" ry="50" stroke="gold" stroke-width="20"/><text x="400" y="920" width="780" text-anchor="middle" style="font:bold 200px 'Helvetica Neue';fill:gold">02304</text><g transform="translate(80 80) scale(64)"><rect x="0" y="0" width="1" height="1" fill="#b60613" /><rect x="0" y="1" width="1" height="1" fill="#b42730" /><rect x="0" y="2" width="1" height="1" fill="#ffe7ed" /><rect x="0" y="3" width="1" height="1" fill="#e894a3" /><rect x="0" y="4" width="1" height="1" fill="#c41e42" /><rect x="0" y="5" width="1" height="1" fill="#ff3561" /><rect x="0" y="6" width="1" height="1" fill="#e60225" /><rect x="0" y="7" width="1" height="1" fill="#e0142d" /><rect x="0" y="8" width="1" height="1" fill="#cb3a49" /><rect x="0" y="9" width="1" height="1" fill="#ffccd5" /><rect x="1" y="0" width="1" height="1" fill="#a3181f" /><rect x="1" y="1" width="1" height="1" fill="#fa8188" /><rect x="1" y="2" width="1" height="1" fill="#ffe3e9" /><rect x="1" y="3" width="1" height="1" fill="#c75c6c" /><rect x="1" y="4" width="1" height="1" fill="#e92950" /><rect x="1" y="5" width="1" height="1" fill="#fa0d39" /><rect x="1" y="6" width="1" height="1" fill="#fe0d2e" /><rect x="1" y="7" width="1" height="1" fill="#e90923" /><rect x="1" y="8" width="1" height="1" fill="#d81b31" /><rect x="1" y="9" width="1" height="1" fill="#e35a6c" /><rect x="2" y="0" width="1" height="1" fill="#861819" /><rect x="2" y="1" width="1" height="1" fill="#ffdfe1" /><rect x="2" y="2" width="1" height="1" fill="#ffe1e3" /><rect x="2" y="3" width="1" height="1" fill="#b12935" /><rect x="2" y="4" width="1" height="1" fill="#e10b2d" /><rect x="2" y="5" width="1" height="1" fill="#ff0831" /><rect x="2" y="6" width="1" height="1" fill="#f40020" /><rect x="2" y="7" width="1" height="1" fill="#f90a27" /><rect x="2" y="8" width="1" height="1" fill="#f00725" /><rect x="2" y="9" width="1" height="1" fill="#db1530" /><rect x="3" y="0" width="1" height="1" fill="#9b272a" /><rect x="3" y="1" width="1" height="1" fill="#ffbbbe" /><rect x="3" y="2" width="1" height="1" fill="#ffd6d5" /><rect x="3" y="3" width="1" height="1" fill="#d45156" /><rect x="3" y="4" width="1" height="1" fill="#cd1e2f" /><rect x="3" y="5" width="1" height="1" fill="#d21028" /><rect x="3" y="6" width="1" height="1" fill="#d5182c" /><rect x="3" y="7" width="1" height="1" fill="#d91a2c" /><rect x="3" y="8" width="1" height="1" fill="#dd162d" /><rect x="3" y="9" width="1" height="1" fill="#ce182e" /><rect x="4" y="0" width="1" height="1" fill="#aa0516" /><rect x="4" y="1" width="1" height="1" fill="#ff7581" /><rect x="4" y="2" width="1" height="1" fill="#ffdcdf" /><rect x="4" y="3" width="1" height="1" fill="#ffe4df" /><rect x="4" y="4" width="1" height="1" fill="#ffe9e1" /><rect x="4" y="5" width="1" height="1" fill="#ffeae0" /><rect x="4" y="6" width="1" height="1" fill="#ffeae3" /><rect x="4" y="7" width="1" height="1" fill="#ffe2de" /><rect x="4" y="8" width="1" height="1" fill="#ffe0e0" /><rect x="4" y="9" width="1" height="1" fill="#ffe5e4" /><rect x="5" y="0" width="1" height="1" fill="#d40e1b" /><rect x="5" y="1" width="1" height="1" fill="#c10c15" /><rect x="5" y="2" width="1" height="1" fill="#b52022" /><rect x="5" y="3" width="1" height="1" fill="#b5423b" /><rect x="5" y="4" width="1" height="1" fill="#d68778" /><rect x="5" y="5" width="1" height="1" fill="#efb09e" /><rect x="5" y="6" width="1" height="1" fill="#ffbdad" /><rect x="5" y="7" width="1" height="1" fill="#f6ac9f" /><rect x="5" y="8" width="1" height="1" fill="#fba199" /><rect x="5" y="9" width="1" height="1" fill="#f0978f" /><rect x="6" y="0" width="1" height="1" fill="#e40402" /><rect x="6" y="1" width="1" height="1" fill="#df0400" /><rect x="6" y="2" width="1" height="1" fill="#da0603" /><rect x="6" y="3" width="1" height="1" fill="#d10a07" /><rect x="6" y="4" width="1" height="1" fill="#ce1512" /><rect x="6" y="5" width="1" height="1" fill="#c1120d" /><rect x="6" y="6" width="1" height="1" fill="#bd140f" /><rect x="6" y="7" width="1" height="1" fill="#c31514" /><rect x="6" y="8" width="1" height="1" fill="#cb0d0f" /><rect x="6" y="9" width="1" height="1" fill="#ca0e0f" /><rect x="7" y="0" width="1" height="1" fill="#e60000" /><rect x="7" y="1" width="1" height="1" fill="#ea0100" /><rect x="7" y="2" width="1" height="1" fill="#ee0300" /><rect x="7" y="3" width="1" height="1" fill="#f00202" /><rect x="7" y="4" width="1" height="1" fill="#e90001" /><rect x="7" y="5" width="1" height="1" fill="#e40001" /><rect x="7" y="6" width="1" height="1" fill="#df0303" /><rect x="7" y="7" width="1" height="1" fill="#e60607" /><rect x="7" y="8" width="1" height="1" fill="#ed0003" /><rect x="7" y="9" width="1" height="1" fill="#e60000" /><rect x="8" y="0" width="1" height="1" fill="#e50102" /><rect x="8" y="1" width="1" height="1" fill="#e30102" /><rect x="8" y="2" width="1" height="1" fill="#e10102" /><rect x="8" y="3" width="1" height="1" fill="#e50305" /><rect x="8" y="4" width="1" height="1" fill="#e80003" /><rect x="8" y="5" width="1" height="1" fill="#eb0206" /><rect x="8" y="6" width="1" height="1" fill="#e20304" /><rect x="8" y="7" width="1" height="1" fill="#df0000" /><rect x="8" y="8" width="1" height="1" fill="#f10006" /><rect x="8" y="9" width="1" height="1" fill="#f60309" /><rect x="9" y="0" width="1" height="1" fill="#e10004" /><rect x="9" y="1" width="1" height="1" fill="#e6070a" /><rect x="9" y="2" width="1" height="1" fill="#dc0407" /><rect x="9" y="3" width="1" height="1" fill="#e10409" /><rect x="9" y="4" width="1" height="1" fill="#e60005" /><rect x="9" y="5" width="1" height="1" fill="#eb0208" /><rect x="9" y="6" width="1" height="1" fill="#e00102" /><rect x="9" y="7" width="1" height="1" fill="#e70506" /><rect x="9" y="8" width="1" height="1" fill="#ef0002" /><rect x="9" y="9" width="1" height="1" fill="#ec0000" /></g></svg>