<svg width="800" height="1000" xmlns="http://www.w3.org/2000/svg"><defs><linearGradient id="g" x1="0" x2="1" y1="0" y2="1"><stop offset="0%" stop-color="#2d3c96"/><stop offset="100%" stop-color="#d53392"/></linearGradient></defs><rect x="10" y="10" width="780" height="980" fill="url(#g)" rx="50" ry="50" stroke="gold" stroke-width="20"/><text x="400" y="920" width="780" text-anchor="middle" style="font:bold 200px 'Helvetica Neue';fill:gold">02303</text><g transform="translate(80 80) scale(64)"><rect x="0" y="0" width="1" height="1" fill="#e0020d" /><rect x="0" y="1" width="1" height="1" fill="#e10008" /><rect x="0" y="2" width="1" height="1" fill="#e80002" /><rect x="0" y="3" width="1" height="1" fill="#e10101" /><rect x="0" y="4" width="1" height="1" fill="#d50908" /><rect x="0" y="5" width="1" height="1" fill="#ce1419" /><rect x="0" y="6" width="1" height="1" fill="#c4172a" /><rect x="0" y="7" width="1" height="1" fill="#8b0e20" /><rect x="0" y="8" width="1" height="1" fill="#ffd7db" /><rect x="0" y="9" width="1" height="1" fill="#fffffd" /><rect x="1" y="0" width="1" height="1" fill="#df010e" /><rect x="1" y="1" width="1" height="1" fill="#e70510" /><rect x="1" y="2" width="1" height="1" fill="#e40000" /><rect x="1" y="3" width="1" height="1" fill="#e70705" /><rect x="1" y="4" width="1" height="1" fill="#d00604" /><rect x="1" y="5" width="1" height="1" fill="#bb0d0f" /><rect x="1" y="6" width="1" height="1" fill="#93020f" /><rect x="1" y="7" width="1" height="1" fill="#c66471" /><rect x="1" y="8" width="1" height="1" fill="#fff3f7" /><rect x="1" y="9" width="1" height="1" fill="#fffefd" /><rect x="2" y="0" width="1" height="1" fill="#e3010f" /><rect x="2" y="1" width="1" height="1" fill="#e8050e" /><rect x="2" y="2" width="1" height="1" fill="#e60000" /><rect x="2" y="3" width="1" height="1" fill="#e80a07" /><rect x="2" y="4" width="1" height="1" fill="#cf0b0c" /><rect x="2" y="5" width="1" height="1" fill="#a90e12" /><rect x="2" y="6" width="1" height="1" fill="#a3444c" /><rect x="2" y="7" width="1" height="1" fill="#ffd5dc" /><rect x="2" y="8" width="1" height="1" fill="#fff7fb" /><rect x="2" y="9" width="1" height="1" fill="#fffafd" /><rect x="3" y="0" width="1" height="1" fill="#e50009" /><rect x="3" y="1" width="1" height="1" fill="#e40003" /><rect x="3" y="2" width="1" height="1" fill="#ef0705" /><rect x="3" y="3" width="1" height="1" fill="#d50000" /><rect x="3" y="4" width="1" height="1" fill="#c11314" /><rect x="3" y="5" width="1" height="1" fill="#c74c4f" /><rect x="3" y="6" width="1" height="1" fill="#ffd5db" /><rect x="3" y="7" width="1" height="1" fill="#fff6fb" /><rect x="3" y="8" width="1" height="1" fill="#fff8fd" /><rect x="3" y="9" width="1" height="1" fill="#fffafd" /><rect x="4" y="0" width="1" height="1" fill="#ea0005" /><rect x="4" y="1" width="1" height="1" fill="#f0050a" /><rect x="4" y="2" width="1" height="1" fill="#e60000" /><rect x="4" y="3" width="1" height="1" fill="#d90e11" /><rect x="4" y="4" width="1" height="1" fill="#950b0b" /><rect x="4" y="5" width="1" height="1" fill="#ffe7ea" /><rect x="4" y="6" width="1" height="1" fill="#fff1f7" /><rect x="4" y="7" width="1" height="1" fill="#f3eef5" /><rect x="4" y="8" width="1" height="1" fill="#fffcff" /><rect x="4" y="9" width="1" height="1" fill="#fbf9fc" /><rect x="5" y="0" width="1" height="1" fill="#e90002" /><rect x="5" y="1" width="1" height="1" fill="#e40000" /><rect x="5" y="2" width="1" height="1" fill="#eb080f" /><rect x="5" y="3" width="1" height="1" fill="#c30a10" /><rect x="5" y="4" width="1" height="1" fill="#b94f51" /><rect x="5" y="5" width="1" height="1" fill="#ffeef3" /><rect x="5" y="6" width="1" height="1" fill="#ffedf9" /><rect x="5" y="7" width="1" height="1" fill="#f9edf9" /><rect x="5" y="8" width="1" height="1" fill="#fffaff" /><rect x="5" y="9" width="1" height="1" fill="#fffeff" /><rect x="6" y="0" width="1" height="1" fill="#ea0406" /><rect x="6" y="1" width="1" height="1" fill="#e30208" /><rect x="6" y="2" width="1" height="1" fill="#dd0713" /><rect x="6" y="3" width="1" height="1" fill="#b30d17" /><rect x="6" y="4" width="1" height="1" fill="#ffe6ea" /><rect x="6" y="5" width="1" height="1" fill="#fff1f8" /><rect x="6" y="6" width="1" height="1" fill="#dbacc0" /><rect x="6" y="7" width="1" height="1" fill="#ffeeff" /><rect x="6" y="8" width="1" height="1" fill="#fff7ff" /><rect x="6" y="9" width="1" height="1" fill="#fffcfd" /><rect x="7" y="0" width="1" height="1" fill="#df0001" /><rect x="7" y="1" width="1" height="1" fill="#da070e" /><rect x="7" y="2" width="1" height="1" fill="#b5040e" /><rect x="7" y="3" width="1" height="1" fill="#ff7f88" /><rect x="7" y="4" width="1" height="1" fill="#ffe6ed" /><rect x="7" y="5" width="1" height="1" fill="#ce8a99" /><rect x="7" y="6" width="1" height="1" fill="#842742" /><rect x="7" y="7" width="1" height="1" fill="#ffd2ec" /><rect x="7" y="8" width="1" height="1" fill="#fff2fb" /><rect x="7" y="9" width="1" height="1" fill="#fdf2f0" /><rect x="8" y="0" width="1" height="1" fill="#ec0412" /><rect x="8" y="1" width="1" height="1" fill="#ca0811" /><rect x="8" y="2" width="1" height="1" fill="#b03c3d" /><rect x="8" y="3" width="1" height="1" fill="#ffdee2" /><rect x="8" y="4" width="1" height="1" fill="#ffdeef" /><rect x="8" y="5" width="1" height="1" fill="#a1203e" /><rect x="8" y="6" width="1" height="1" fill="#bf1f45" /><rect x="8" y="7" width="1" height="1" fill="#f46b89" /><rect x="8" y="8" width="1" height="1" fill="#ffe8ee" /><rect x="8" y="9" width="1" height="1" fill="#fffaf6" /><rect x="9" y="0" width="1" height="1" fill="#de0a19" /><rect x="9" y="1" width="1" height="1" fill="#b60c17" /><rect x="9" y="2" width="1" height="1" fill="#ffe6e6" /><rect x="9" y="3" width="1" height="1" fill="#ffe0e4" /><rect x="9" y="4" width="1" height="1" fill="#c6405b" /><rect x="9" y="5" width="1" height="1" fill="#cb1840" /><rect x="9" y="6" width="1" height="1" fill="#e4173e" /><rect x="9" y="7" width="1" height="1" fill="#cd1c39" /><rect x="9" y="8" width="1" height="1" fill="#ffc1c9" /><rect x="9" y="9" width="1" height="1" fill="#fff3f1" /></g></svg>