<svg width="800" height="1000" version="1.1" xmlns="http://www.w3.org/2000/svg" xmlns:xlink="http://www.w3.org/1999/xlink">
  <defs>
      <linearGradient id="Gradient2" x1="0" x2="1" y1="0" y2="1">
        <stop offset="0%" stop-color="#2d3c96"/>
        <stop offset="100%" stop-color="#d53392"/>
      </linearGradient>
  </defs>
  <rect x="10" y="10" width="780" height="980" fill="url(#Gradient2)" rx="50" ry="50" stroke="#ffd700" stroke-width="20"/>
  <text x="400" y="920" width="780" text-anchor="middle" style="font: bold 200px 'Helvetica Neue'; fill: #ffd700">02346</text>

  <g transform="translate(80 80) scale(64)">
<rect x="0" y="0" width="1" height="1" fill="#FFFFFF" /><rect x="1" y="0" width="1" height="1" fill="#FFFFFF" /><rect x="2" y="0" width="1" height="1" fill="#FFFFFF" /><rect x="3" y="0" width="1" height="1" fill="#FFFFFF" /><rect x="4" y="0" width="1" height="1" fill="#FFFFFF" /><rect x="5" y="0" width="1" height="1" fill="#FFFFFF" /><rect x="6" y="0" width="1" height="1" fill="#FFFFFF" /><rect x="7" y="0" width="1" height="1" fill="#FFFFFF" /><rect x="8" y="0" width="1" height="1" fill="#FFFFFF" /><rect x="9" y="0" width="1" height="1" fill="#FFFFFF" /><rect x="0" y="1" width="1" height="1" fill="#C7A2E1" /><rect x="1" y="1" width="1" height="1" fill="#CCAAE4" /><rect x="2" y="1" width="1" height="1" fill="#CCAAE4" /><rect x="3" y="1" width="1" height="1" fill="#CCAAE4" /><rect x="4" y="1" width="1" height="1" fill="#CAA8E3" /><rect x="5" y="1" width="1" height="1" fill="#C6A1E1" /><rect x="6" y="1" width="1" height="1" fill="#F4EEF9" /><rect x="7" y="1" width="1" height="1" fill="#FFFFFF" /><rect x="8" y="1" width="1" height="1" fill="#FFFFFF" /><rect x="9" y="1" width="1" height="1" fill="#FFFFFF" /><rect x="0" y="2" width="1" height="1" fill="#7310B4" /><rect x="1" y="2" width="1" height="1" fill="#7310B4" /><rect x="2" y="2" width="1" height="1" fill="#7310B4" /><rect x="3" y="2" width="1" height="1" fill="#7310B4" /><rect x="4" y="2" width="1" height="1" fill="#7310B4" /><rect x="5" y="2" width="1" height="1" fill="#7310B4" /><rect x="6" y="2" width="1" height="1" fill="#CDACE4" /><rect x="7" y="2" width="1" height="1" fill="#FFFFFF" /><rect x="8" y="2" width="1" height="1" fill="#FFFFFF" /><rect x="9" y="2" width="1" height="1" fill="#FFFFFF" /><rect x="0" y="3" width="1" height="1" fill="#690AAC" /><rect x="1" y="3" width="1" height="1" fill="#670AA8" /><rect x="2" y="3" width="1" height="1" fill="#7410B5" /><rect x="3" y="3" width="1" height="1" fill="#6C0CAF" /><rect x="4" y="3" width="1" height="1" fill="#6609A8" /><rect x="5" y="3" width="1" height="1" fill="#670AA9" /><rect x="6" y="3" width="1" height="1" fill="#7420AF" /><rect x="7" y="3" width="1" height="1" fill="#B386D5" /><rect x="8" y="3" width="1" height="1" fill="#FFFFFF" /><rect x="9" y="3" width="1" height="1" fill="#FFFFFF" /><rect x="0" y="4" width="1" height="1" fill="#AA58DC" /><rect x="1" y="4" width="1" height="1" fill="#9722D9" /><rect x="2" y="4" width="1" height="1" fill="#6F0DB1" /><rect x="3" y="4" width="1" height="1" fill="#861AC8" /><rect x="4" y="4" width="1" height="1" fill="#9922DA" /><rect x="5" y="4" width="1" height="1" fill="#8A15D1" /><rect x="6" y="4" width="1" height="1" fill="#8F18D4" /><rect x="7" y="4" width="1" height="1" fill="#8B24CD" /><rect x="8" y="4" width="1" height="1" fill="#C5A3DF" /><rect x="9" y="4" width="1" height="1" fill="#C098DD" /><rect x="0" y="5" width="1" height="1" fill="#D79AF7" /><rect x="1" y="5" width="1" height="1" fill="#C137FF" /><rect x="2" y="5" width="1" height="1" fill="#6D0CAF" /><rect x="3" y="5" width="1" height="1" fill="#9922DC" /><rect x="4" y="5" width="1" height="1" fill="#CB3EFF" /><rect x="5" y="5" width="1" height="1" fill="#C73FFF" /><rect x="6" y="5" width="1" height="1" fill="#D144FF" /><rect x="7" y="5" width="1" height="1" fill="#B336F4" /><rect x="8" y="5" width="1" height="1" fill="#7817B8" /><rect x="9" y="5" width="1" height="1" fill="#7310B4" /><rect x="0" y="6" width="1" height="1" fill="#7E1BC2" /><rect x="1" y="6" width="1" height="1" fill="#8A17D5" /><rect x="2" y="6" width="1" height="1" fill="#8413CE" /><rect x="3" y="6" width="1" height="1" fill="#7604C7" /><rect x="4" y="6" width="1" height="1" fill="#A532E7" /><rect x="5" y="6" width="1" height="1" fill="#FF99FF" /><rect x="6" y="6" width="1" height="1" fill="#FF98FF" /><rect x="7" y="6" width="1" height="1" fill="#FF98FF" /><rect x="8" y="6" width="1" height="1" fill="#FF95FF" /><rect x="9" y="6" width="1" height="1" fill="#9B2BDD" /><rect x="0" y="7" width="1" height="1" fill="#6A139E" /><rect x="1" y="7" width="1" height="1" fill="#240142" /><rect x="2" y="7" width="1" height="1" fill="#340355" /><rect x="3" y="7" width="1" height="1" fill="#27004C" /><rect x="4" y="7" width="1" height="1" fill="#3C0D57" /><rect x="5" y="7" width="1" height="1" fill="#79477C" /><rect x="6" y="7" width="1" height="1" fill="#77467B" /><rect x="7" y="7" width="1" height="1" fill="#7A477D" /><rect x="8" y="7" width="1" height="1" fill="#7F4982" /><rect x="9" y="7" width="1" height="1" fill="#360A51" /><rect x="0" y="8" width="1" height="1" fill="#4C1163" /><rect x="1" y="8" width="1" height="1" fill="#000000" /><rect x="2" y="8" width="1" height="1" fill="#000000" /><rect x="3" y="8" width="1" height="1" fill="#000000" /><rect x="4" y="8" width="1" height="1" fill="#000000" /><rect x="5" y="8" width="1" height="1" fill="#000000" /><rect x="6" y="8" width="1" height="1" fill="#000000" /><rect x="7" y="8" width="1" height="1" fill="#000000" /><rect x="8" y="8" width="1" height="1" fill="#000000" /><rect x="9" y="8" width="1" height="1" fill="#000000" /><rect x="0" y="9" width="1" height="1" fill="#000000" /><rect x="1" y="9" width="1" height="1" fill="#000000" /><rect x="2" y="9" width="1" height="1" fill="#000000" /><rect x="3" y="9" width="1" height="1" fill="#000000" /><rect x="4" y="9" width="1" height="1" fill="#000000" /><rect x="5" y="9" width="1" height="1" fill="#000000" /><rect x="6" y="9" width="1" height="1" fill="#000000" /><rect x="7" y="9" width="1" height="1" fill="#000000" /><rect x="8" y="9" width="1" height="1" fill="#000000" /><rect x="9" y="9" width="1" height="1" fill="#000000" />
  </g>
</svg>