<svg width="800" height="1000" xmlns="http://www.w3.org/2000/svg"><defs><linearGradient id="g" x1="0" x2="1" y1="0" y2="1"><stop offset="0%" stop-color="#2d3c96"/><stop offset="100%" stop-color="#d53392"/></linearGradient></defs><rect x="10" y="10" width="780" height="980" fill="url(#g)" rx="50" ry="50" stroke="gold" stroke-width="20"/><text x="400" y="920" width="780" text-anchor="middle" style="font:bold 200px 'Helvetica Neue';fill:gold">02346</text><g transform="translate(80 80) scale(64)"><rect x="0" y="0" width="1" height="1" fill="#ffffff" /><rect x="0" y="1" width="1" height="1" fill="#c7a2e1" /><rect x="0" y="2" width="1" height="1" fill="#7310b4" /><rect x="0" y="3" width="1" height="1" fill="#690aac" /><rect x="0" y="4" width="1" height="1" fill="#aa58dc" /><rect x="0" y="5" width="1" height="1" fill="#d79af7" /><rect x="0" y="6" width="1" height="1" fill="#7e1bc2" /><rect x="0" y="7" width="1" height="1" fill="#6a139e" /><rect x="0" y="8" width="1" height="1" fill="#4c1163" /><rect x="0" y="9" width="1" height="1" fill="#000000" /><rect x="1" y="0" width="1" height="1" fill="#ffffff" /><rect x="1" y="1" width="1" height="1" fill="#ccaae4" /><rect x="1" y="2" width="1" height="1" fill="#7310b4" /><rect x="1" y="3" width="1" height="1" fill="#670aa8" /><rect x="1" y="4" width="1" height="1" fill="#9722d9" /><rect x="1" y="5" width="1" height="1" fill="#c137ff" /><rect x="1" y="6" width="1" height="1" fill="#8a17d5" /><rect x="1" y="7" width="1" height="1" fill="#240142" /><rect x="1" y="8" width="1" height="1" fill="#000000" /><rect x="1" y="9" width="1" height="1" fill="#000000" /><rect x="2" y="0" width="1" height="1" fill="#ffffff" /><rect x="2" y="1" width="1" height="1" fill="#ccaae4" /><rect x="2" y="2" width="1" height="1" fill="#7310b4" /><rect x="2" y="3" width="1" height="1" fill="#7410b5" /><rect x="2" y="4" width="1" height="1" fill="#6f0db1" /><rect x="2" y="5" width="1" height="1" fill="#6d0caf" /><rect x="2" y="6" width="1" height="1" fill="#8413ce" /><rect x="2" y="7" width="1" height="1" fill="#340355" /><rect x="2" y="8" width="1" height="1" fill="#000000" /><rect x="2" y="9" width="1" height="1" fill="#000000" /><rect x="3" y="0" width="1" height="1" fill="#ffffff" /><rect x="3" y="1" width="1" height="1" fill="#ccaae4" /><rect x="3" y="2" width="1" height="1" fill="#7310b4" /><rect x="3" y="3" width="1" height="1" fill="#6c0caf" /><rect x="3" y="4" width="1" height="1" fill="#861ac8" /><rect x="3" y="5" width="1" height="1" fill="#9922dc" /><rect x="3" y="6" width="1" height="1" fill="#7604c7" /><rect x="3" y="7" width="1" height="1" fill="#27004c" /><rect x="3" y="8" width="1" height="1" fill="#000000" /><rect x="3" y="9" width="1" height="1" fill="#000000" /><rect x="4" y="0" width="1" height="1" fill="#ffffff" /><rect x="4" y="1" width="1" height="1" fill="#caa8e3" /><rect x="4" y="2" width="1" height="1" fill="#7310b4" /><rect x="4" y="3" width="1" height="1" fill="#6609a8" /><rect x="4" y="4" width="1" height="1" fill="#9922da" /><rect x="4" y="5" width="1" height="1" fill="#cb3eff" /><rect x="4" y="6" width="1" height="1" fill="#a532e7" /><rect x="4" y="7" width="1" height="1" fill="#3c0d57" /><rect x="4" y="8" width="1" height="1" fill="#000000" /><rect x="4" y="9" width="1" height="1" fill="#000000" /><rect x="5" y="0" width="1" height="1" fill="#ffffff" /><rect x="5" y="1" width="1" height="1" fill="#c6a1e1" /><rect x="5" y="2" width="1" height="1" fill="#7310b4" /><rect x="5" y="3" width="1" height="1" fill="#670aa9" /><rect x="5" y="4" width="1" height="1" fill="#8a15d1" /><rect x="5" y="5" width="1" height="1" fill="#c73fff" /><rect x="5" y="6" width="1" height="1" fill="#ff99ff" /><rect x="5" y="7" width="1" height="1" fill="#79477c" /><rect x="5" y="8" width="1" height="1" fill="#000000" /><rect x="5" y="9" width="1" height="1" fill="#000000" /><rect x="6" y="0" width="1" height="1" fill="#ffffff" /><rect x="6" y="1" width="1" height="1" fill="#f4eef9" /><rect x="6" y="2" width="1" height="1" fill="#cdace4" /><rect x="6" y="3" width="1" height="1" fill="#7420af" /><rect x="6" y="4" width="1" height="1" fill="#8f18d4" /><rect x="6" y="5" width="1" height="1" fill="#d144ff" /><rect x="6" y="6" width="1" height="1" fill="#ff98ff" /><rect x="6" y="7" width="1" height="1" fill="#77467b" /><rect x="6" y="8" width="1" height="1" fill="#000000" /><rect x="6" y="9" width="1" height="1" fill="#000000" /><rect x="7" y="0" width="1" height="1" fill="#ffffff" /><rect x="7" y="1" width="1" height="1" fill="#ffffff" /><rect x="7" y="2" width="1" height="1" fill="#ffffff" /><rect x="7" y="3" width="1" height="1" fill="#b386d5" /><rect x="7" y="4" width="1" height="1" fill="#8b24cd" /><rect x="7" y="5" width="1" height="1" fill="#b336f4" /><rect x="7" y="6" width="1" height="1" fill="#ff98ff" /><rect x="7" y="7" width="1" height="1" fill="#7a477d" /><rect x="7" y="8" width="1" height="1" fill="#000000" /><rect x="7" y="9" width="1" height="1" fill="#000000" /><rect x="8" y="0" width="1" height="1" fill="#ffffff" /><rect x="8" y="1" width="1" height="1" fill="#ffffff" /><rect x="8" y="2" width="1" height="1" fill="#ffffff" /><rect x="8" y="3" width="1" height="1" fill="#ffffff" /><rect x="8" y="4" width="1" height="1" fill="#c5a3df" /><rect x="8" y="5" width="1" height="1" fill="#7817b8" /><rect x="8" y="6" width="1" height="1" fill="#ff95ff" /><rect x="8" y="7" width="1" height="1" fill="#7f4982" /><rect x="8" y="8" width="1" height="1" fill="#000000" /><rect x="8" y="9" width="1" height="1" fill="#000000" /><rect x="9" y="0" width="1" height="1" fill="#ffffff" /><rect x="9" y="1" width="1" height="1" fill="#ffffff" /><rect x="9" y="2" width="1" height="1" fill="#ffffff" /><rect x="9" y="3" width="1" height="1" fill="#ffffff" /><rect x="9" y="4" width="1" height="1" fill="#c098dd" /><rect x="9" y="5" width="1" height="1" fill="#7310b4" /><rect x="9" y="6" width="1" height="1" fill="#9b2bdd" /><rect x="9" y="7" width="1" height="1" fill="#360a51" /><rect x="9" y="8" width="1" height="1" fill="#000000" /><rect x="9" y="9" width="1" height="1" fill="#000000" /></g></svg>