<svg width="800" height="1000" version="1.1" xmlns="http://www.w3.org/2000/svg" xmlns:xlink="http://www.w3.org/1999/xlink">
  <defs>
      <linearGradient id="Gradient2" x1="0" x2="1" y1="0" y2="1">
        <stop offset="0%" stop-color="#2d3c96"/>
        <stop offset="100%" stop-color="#d53392"/>
      </linearGradient>
  </defs>
  <rect x="10" y="10" width="780" height="980" fill="url(#Gradient2)" rx="50" ry="50" stroke="#ffd700" stroke-width="20"/>
  <text x="400" y="920" width="780" text-anchor="middle" style="font: bold 200px 'Helvetica Neue'; fill: #ffd700">02347</text>

  <g transform="translate(80 80) scale(64)">
<rect x="0" y="0" width="1" height="1" fill="#FFFFFF" /><rect x="1" y="0" width="1" height="1" fill="#FFFFFF" /><rect x="2" y="0" width="1" height="1" fill="#FFFFFF" /><rect x="3" y="0" width="1" height="1" fill="#FFFFFF" /><rect x="4" y="0" width="1" height="1" fill="#FFFFFF" /><rect x="5" y="0" width="1" height="1" fill="#FFFFFF" /><rect x="6" y="0" width="1" height="1" fill="#FFFFFF" /><rect x="7" y="0" width="1" height="1" fill="#FFFFFF" /><rect x="8" y="0" width="1" height="1" fill="#FFFFFF" /><rect x="9" y="0" width="1" height="1" fill="#FFFFFF" /><rect x="0" y="1" width="1" height="1" fill="#FFFFFF" /><rect x="1" y="1" width="1" height="1" fill="#FFFFFF" /><rect x="2" y="1" width="1" height="1" fill="#FFFFFF" /><rect x="3" y="1" width="1" height="1" fill="#FFFFFF" /><rect x="4" y="1" width="1" height="1" fill="#FFFFFF" /><rect x="5" y="1" width="1" height="1" fill="#FFFFFF" /><rect x="6" y="1" width="1" height="1" fill="#FFFFFF" /><rect x="7" y="1" width="1" height="1" fill="#FFFFFF" /><rect x="8" y="1" width="1" height="1" fill="#FFFFFF" /><rect x="9" y="1" width="1" height="1" fill="#FFFFFF" /><rect x="0" y="2" width="1" height="1" fill="#FFFFFF" /><rect x="1" y="2" width="1" height="1" fill="#FFFFFF" /><rect x="2" y="2" width="1" height="1" fill="#FFFFFF" /><rect x="3" y="2" width="1" height="1" fill="#FFFFFF" /><rect x="4" y="2" width="1" height="1" fill="#FFFFFF" /><rect x="5" y="2" width="1" height="1" fill="#FFFFFF" /><rect x="6" y="2" width="1" height="1" fill="#FFFFFF" /><rect x="7" y="2" width="1" height="1" fill="#FFFFFF" /><rect x="8" y="2" width="1" height="1" fill="#FFFFFF" /><rect x="9" y="2" width="1" height="1" fill="#FFFFFF" /><rect x="0" y="3" width="1" height="1" fill="#FFFFFF" /><rect x="1" y="3" width="1" height="1" fill="#FFFFFF" /><rect x="2" y="3" width="1" height="1" fill="#FFFFFF" /><rect x="3" y="3" width="1" height="1" fill="#FFFFFF" /><rect x="4" y="3" width="1" height="1" fill="#FFFFFF" /><rect x="5" y="3" width="1" height="1" fill="#FFFFFF" /><rect x="6" y="3" width="1" height="1" fill="#FFFFFF" /><rect x="7" y="3" width="1" height="1" fill="#FFFFFF" /><rect x="8" y="3" width="1" height="1" fill="#FFFFFF" /><rect x="9" y="3" width="1" height="1" fill="#FFFFFF" /><rect x="0" y="4" width="1" height="1" fill="#E0CBEF" /><rect x="1" y="4" width="1" height="1" fill="#FFFFFF" /><rect x="2" y="4" width="1" height="1" fill="#FFFFFF" /><rect x="3" y="4" width="1" height="1" fill="#FFFFFF" /><rect x="4" y="4" width="1" height="1" fill="#FFFFFF" /><rect x="5" y="4" width="1" height="1" fill="#FFFFFF" /><rect x="6" y="4" width="1" height="1" fill="#FFFFFF" /><rect x="7" y="4" width="1" height="1" fill="#FFFFFF" /><rect x="8" y="4" width="1" height="1" fill="#FFFFFF" /><rect x="9" y="4" width="1" height="1" fill="#FFFFFF" /><rect x="0" y="5" width="1" height="1" fill="#9854C9" /><rect x="1" y="5" width="1" height="1" fill="#F8F4FB" /><rect x="2" y="5" width="1" height="1" fill="#F4EFF9" /><rect x="3" y="5" width="1" height="1" fill="#F0E7F7" /><rect x="4" y="5" width="1" height="1" fill="#F4EEF9" /><rect x="5" y="5" width="1" height="1" fill="#FFFFFF" /><rect x="6" y="5" width="1" height="1" fill="#FFFFFF" /><rect x="7" y="5" width="1" height="1" fill="#FFFFFF" /><rect x="8" y="5" width="1" height="1" fill="#FFFFFF" /><rect x="9" y="5" width="1" height="1" fill="#FFFFFF" /><rect x="0" y="6" width="1" height="1" fill="#6701B8" /><rect x="1" y="6" width="1" height="1" fill="#6E18B2" /><rect x="2" y="6" width="1" height="1" fill="#6F1CAF" /><rect x="3" y="6" width="1" height="1" fill="#7418B2" /><rect x="4" y="6" width="1" height="1" fill="#8C3DC2" /><rect x="5" y="6" width="1" height="1" fill="#FFFFFF" /><rect x="6" y="6" width="1" height="1" fill="#FFFFFF" /><rect x="7" y="6" width="1" height="1" fill="#FFFFFF" /><rect x="8" y="6" width="1" height="1" fill="#FFFFFF" /><rect x="9" y="6" width="1" height="1" fill="#FFFFFF" /><rect x="0" y="7" width="1" height="1" fill="#66208C" /><rect x="1" y="7" width="1" height="1" fill="#D767F7" /><rect x="2" y="7" width="1" height="1" fill="#BA36F8" /><rect x="3" y="7" width="1" height="1" fill="#8714CE" /><rect x="4" y="7" width="1" height="1" fill="#6107A2" /><rect x="5" y="7" width="1" height="1" fill="#A773CE" /><rect x="6" y="7" width="1" height="1" fill="#E8D9F2" /><rect x="7" y="7" width="1" height="1" fill="#FFFFFF" /><rect x="8" y="7" width="1" height="1" fill="#FFFFFF" /><rect x="9" y="7" width="1" height="1" fill="#FFFFFF" /><rect x="0" y="8" width="1" height="1" fill="#4F3446" /><rect x="1" y="8" width="1" height="1" fill="#F997FA" /><rect x="2" y="8" width="1" height="1" fill="#C045EA" /><rect x="3" y="8" width="1" height="1" fill="#9119D5" /><rect x="4" y="8" width="1" height="1" fill="#7710BB" /><rect x="5" y="8" width="1" height="1" fill="#8115C5" /><rect x="6" y="8" width="1" height="1" fill="#B17BD7" /><rect x="7" y="8" width="1" height="1" fill="#F5EFFA" /><rect x="8" y="8" width="1" height="1" fill="#ECDEF4" /><rect x="9" y="8" width="1" height="1" fill="#FCFAFD" /><rect x="0" y="9" width="1" height="1" fill="#000000" /><rect x="1" y="9" width="1" height="1" fill="#04010A" /><rect x="2" y="9" width="1" height="1" fill="#000000" /><rect x="3" y="9" width="1" height="1" fill="#6C1A94" /><rect x="4" y="9" width="1" height="1" fill="#EB43FF" /><rect x="5" y="9" width="1" height="1" fill="#D63FFF" /><rect x="6" y="9" width="1" height="1" fill="#9825DB" /><rect x="7" y="9" width="1" height="1" fill="#6817A7" /><rect x="8" y="9" width="1" height="1" fill="#7513B5" /><rect x="9" y="9" width="1" height="1" fill="#DDC7ED" />
  </g>
</svg>