<svg width="800" height="1000" version="1.1" xmlns="http://www.w3.org/2000/svg" xmlns:xlink="http://www.w3.org/1999/xlink">
  <defs>
      <linearGradient id="Gradient2" x1="0" x2="1" y1="0" y2="1">
        <stop offset="0%" stop-color="#2d3c96"/>
        <stop offset="100%" stop-color="#d53392"/>
      </linearGradient>
  </defs>
  <rect x="10" y="10" width="780" height="980" fill="url(#Gradient2)" rx="50" ry="50" stroke="#ffd700" stroke-width="20"/>
  <text x="400" y="920" width="780" text-anchor="middle" style="font: bold 200px 'Helvetica Neue'; fill: #ffd700">02345</text>

  <g transform="translate(80 80) scale(64)">
<rect x="0" y="0" width="1" height="1" fill="#FFFFFF" /><rect x="1" y="0" width="1" height="1" fill="#FFFFFF" /><rect x="2" y="0" width="1" height="1" fill="#FFFFFF" /><rect x="3" y="0" width="1" height="1" fill="#FFFFFF" /><rect x="4" y="0" width="1" height="1" fill="#FFFFFF" /><rect x="5" y="0" width="1" height="1" fill="#FFFFFF" /><rect x="6" y="0" width="1" height="1" fill="#FFFFFF" /><rect x="7" y="0" width="1" height="1" fill="#FFFFFF" /><rect x="8" y="0" width="1" height="1" fill="#FFFFFF" /><rect x="9" y="0" width="1" height="1" fill="#FFFFFF" /><rect x="0" y="1" width="1" height="1" fill="#FFFFFF" /><rect x="1" y="1" width="1" height="1" fill="#FFFFFF" /><rect x="2" y="1" width="1" height="1" fill="#FFFFFF" /><rect x="3" y="1" width="1" height="1" fill="#FFFFFF" /><rect x="4" y="1" width="1" height="1" fill="#FFFFFF" /><rect x="5" y="1" width="1" height="1" fill="#FFFFFF" /><rect x="6" y="1" width="1" height="1" fill="#FFFFFF" /><rect x="7" y="1" width="1" height="1" fill="#FFFFFF" /><rect x="8" y="1" width="1" height="1" fill="#FFFFFF" /><rect x="9" y="1" width="1" height="1" fill="#D2B4E7" /><rect x="0" y="2" width="1" height="1" fill="#FFFFFF" /><rect x="1" y="2" width="1" height="1" fill="#FFFFFF" /><rect x="2" y="2" width="1" height="1" fill="#FFFFFF" /><rect x="3" y="2" width="1" height="1" fill="#FFFFFF" /><rect x="4" y="2" width="1" height="1" fill="#FFFFFF" /><rect x="5" y="2" width="1" height="1" fill="#FFFFFF" /><rect x="6" y="2" width="1" height="1" fill="#FFFFFF" /><rect x="7" y="2" width="1" height="1" fill="#FFFFFF" /><rect x="8" y="2" width="1" height="1" fill="#F6F0FA" /><rect x="9" y="2" width="1" height="1" fill="#7412B5" /><rect x="0" y="3" width="1" height="1" fill="#FFFFFF" /><rect x="1" y="3" width="1" height="1" fill="#FFFFFF" /><rect x="2" y="3" width="1" height="1" fill="#FFFFFF" /><rect x="3" y="3" width="1" height="1" fill="#FFFFFF" /><rect x="4" y="3" width="1" height="1" fill="#FFFFFF" /><rect x="5" y="3" width="1" height="1" fill="#FFFFFF" /><rect x="6" y="3" width="1" height="1" fill="#FFFFFF" /><rect x="7" y="3" width="1" height="1" fill="#CFAFE5" /><rect x="8" y="3" width="1" height="1" fill="#7310B4" /><rect x="9" y="3" width="1" height="1" fill="#7510B6" /><rect x="0" y="4" width="1" height="1" fill="#FFFFFF" /><rect x="1" y="4" width="1" height="1" fill="#FFFFFF" /><rect x="2" y="4" width="1" height="1" fill="#FFFFFF" /><rect x="3" y="4" width="1" height="1" fill="#FFFFFF" /><rect x="4" y="4" width="1" height="1" fill="#FFFFFF" /><rect x="5" y="4" width="1" height="1" fill="#FFFFFF" /><rect x="6" y="4" width="1" height="1" fill="#FFFFFF" /><rect x="7" y="4" width="1" height="1" fill="#E5D3F0" /><rect x="8" y="4" width="1" height="1" fill="#A468CF" /><rect x="9" y="4" width="1" height="1" fill="#B98FD8" /><rect x="0" y="5" width="1" height="1" fill="#FFFFFF" /><rect x="1" y="5" width="1" height="1" fill="#FFFFFF" /><rect x="2" y="5" width="1" height="1" fill="#FFFFFF" /><rect x="3" y="5" width="1" height="1" fill="#F7F2FB" /><rect x="4" y="5" width="1" height="1" fill="#EFE5F6" /><rect x="5" y="5" width="1" height="1" fill="#F3EDF9" /><rect x="6" y="5" width="1" height="1" fill="#F3EDF9" /><rect x="7" y="5" width="1" height="1" fill="#F9F6FC" /><rect x="8" y="5" width="1" height="1" fill="#FFFFFF" /><rect x="9" y="5" width="1" height="1" fill="#FFFFFF" /><rect x="0" y="6" width="1" height="1" fill="#FFFFFF" /><rect x="1" y="6" width="1" height="1" fill="#FFFFFF" /><rect x="2" y="6" width="1" height="1" fill="#FFFFFF" /><rect x="3" y="6" width="1" height="1" fill="#AC76D3" /><rect x="4" y="6" width="1" height="1" fill="#7715B7" /><rect x="5" y="6" width="1" height="1" fill="#7E23BB" /><rect x="6" y="6" width="1" height="1" fill="#7520B1" /><rect x="7" y="6" width="1" height="1" fill="#7420AF" /><rect x="8" y="6" width="1" height="1" fill="#7724B2" /><rect x="9" y="6" width="1" height="1" fill="#7528B1" /><rect x="0" y="7" width="1" height="1" fill="#D5B9E9" /><rect x="1" y="7" width="1" height="1" fill="#B17ED5" /><rect x="2" y="7" width="1" height="1" fill="#BB8EDB" /><rect x="3" y="7" width="1" height="1" fill="#7C27B7" /><rect x="4" y="7" width="1" height="1" fill="#680AA9" /><rect x="5" y="7" width="1" height="1" fill="#690BAC" /><rect x="6" y="7" width="1" height="1" fill="#8D1ED1" /><rect x="7" y="7" width="1" height="1" fill="#A428E6" /><rect x="8" y="7" width="1" height="1" fill="#AD2AF4" /><rect x="9" y="7" width="1" height="1" fill="#BD30F9" /><rect x="0" y="8" width="1" height="1" fill="#9047C3" /><rect x="1" y="8" width="1" height="1" fill="#7010B2" /><rect x="2" y="8" width="1" height="1" fill="#6F0EB1" /><rect x="3" y="8" width="1" height="1" fill="#7712B8" /><rect x="4" y="8" width="1" height="1" fill="#7912BC" /><rect x="5" y="8" width="1" height="1" fill="#7D13C0" /><rect x="6" y="8" width="1" height="1" fill="#C035FF" /><rect x="7" y="8" width="1" height="1" fill="#C83DFF" /><rect x="8" y="8" width="1" height="1" fill="#AC31E4" /><rect x="9" y="8" width="1" height="1" fill="#CC3CFA" /><rect x="0" y="9" width="1" height="1" fill="#690AAE" /><rect x="1" y="9" width="1" height="1" fill="#690BAA" /><rect x="2" y="9" width="1" height="1" fill="#6207A4" /><rect x="3" y="9" width="1" height="1" fill="#9D27E4" /><rect x="4" y="9" width="1" height="1" fill="#C83AFF" /><rect x="5" y="9" width="1" height="1" fill="#CA39FF" /><rect x="6" y="9" width="1" height="1" fill="#EC44FF" /><rect x="7" y="9" width="1" height="1" fill="#8422B4" /><rect x="8" y="9" width="1" height="1" fill="#000000" /><rect x="9" y="9" width="1" height="1" fill="#020008" />
  </g>
</svg>