<svg width="800" height="1000" version="1.1" xmlns="http://www.w3.org/2000/svg" xmlns:xlink="http://www.w3.org/1999/xlink">
  <defs>
      <linearGradient id="Gradient2" x1="0" x2="1" y1="0" y2="1">
        <stop offset="0%" stop-color="#2d3c96"/>
        <stop offset="100%" stop-color="#d53392"/>
      </linearGradient>
  </defs>
  <rect x="10" y="10" width="780" height="980" fill="url(#Gradient2)" rx="50" ry="50" stroke="#ffd700" stroke-width="20"/>
  <text x="400" y="920" width="780" text-anchor="middle" style="font: bold 200px 'Helvetica Neue'; fill: #ffd700">02393</text>

  <g transform="translate(80 80) scale(64)">
<rect x="0" y="0" width="1" height="1" fill="#61AEE8" /><rect x="1" y="0" width="1" height="1" fill="#192B36" /><rect x="2" y="0" width="1" height="1" fill="#040300" /><rect x="3" y="0" width="1" height="1" fill="#070908" /><rect x="4" y="0" width="1" height="1" fill="#030200" /><rect x="5" y="0" width="1" height="1" fill="#203747" /><rect x="6" y="0" width="1" height="1" fill="#64B3EF" /><rect x="7" y="0" width="1" height="1" fill="#42769B" /><rect x="8" y="0" width="1" height="1" fill="#000000" /><rect x="9" y="0" width="1" height="1" fill="#000000" /><rect x="0" y="1" width="1" height="1" fill="#61B2EB" /><rect x="1" y="1" width="1" height="1" fill="#192B37" /><rect x="2" y="1" width="1" height="1" fill="#040300" /><rect x="3" y="1" width="1" height="1" fill="#070908" /><rect x="4" y="1" width="1" height="1" fill="#030200" /><rect x="5" y="1" width="1" height="1" fill="#203848" /><rect x="6" y="1" width="1" height="1" fill="#63B7F2" /><rect x="7" y="1" width="1" height="1" fill="#42789D" /><rect x="8" y="1" width="1" height="1" fill="#000000" /><rect x="9" y="1" width="1" height="1" fill="#000000" /><rect x="0" y="2" width="1" height="1" fill="#60B6ED" /><rect x="1" y="2" width="1" height="1" fill="#192C37" /><rect x="2" y="2" width="1" height="1" fill="#040300" /><rect x="3" y="2" width="1" height="1" fill="#070908" /><rect x="4" y="2" width="1" height="1" fill="#030200" /><rect x="5" y="2" width="1" height="1" fill="#203A49" /><rect x="6" y="2" width="1" height="1" fill="#63BBF5" /><rect x="7" y="2" width="1" height="1" fill="#427B9F" /><rect x="8" y="2" width="1" height="1" fill="#000000" /><rect x="9" y="2" width="1" height="1" fill="#000000" /><rect x="0" y="3" width="1" height="1" fill="#5FB9F0" /><rect x="1" y="3" width="1" height="1" fill="#192D38" /><rect x="2" y="3" width="1" height="1" fill="#040300" /><rect x="3" y="3" width="1" height="1" fill="#070908" /><rect x="4" y="3" width="1" height="1" fill="#030100" /><rect x="5" y="3" width="1" height="1" fill="#1F3A49" /><rect x="6" y="3" width="1" height="1" fill="#62BFF7" /><rect x="7" y="3" width="1" height="1" fill="#427DA1" /><rect x="8" y="3" width="1" height="1" fill="#000000" /><rect x="9" y="3" width="1" height="1" fill="#000000" /><rect x="0" y="4" width="1" height="1" fill="#5FBCF2" /><rect x="1" y="4" width="1" height="1" fill="#182D38" /><rect x="2" y="4" width="1" height="1" fill="#040300" /><rect x="3" y="4" width="1" height="1" fill="#070908" /><rect x="4" y="4" width="1" height="1" fill="#030100" /><rect x="5" y="4" width="1" height="1" fill="#1F3B4A" /><rect x="6" y="4" width="1" height="1" fill="#61C2FA" /><rect x="7" y="4" width="1" height="1" fill="#417FA2" /><rect x="8" y="4" width="1" height="1" fill="#000000" /><rect x="9" y="4" width="1" height="1" fill="#000000" /><rect x="0" y="5" width="1" height="1" fill="#5EBFF5" /><rect x="1" y="5" width="1" height="1" fill="#182E39" /><rect x="2" y="5" width="1" height="1" fill="#040300" /><rect x="3" y="5" width="1" height="1" fill="#070908" /><rect x="4" y="5" width="1" height="1" fill="#030100" /><rect x="5" y="5" width="1" height="1" fill="#1F3C4B" /><rect x="6" y="5" width="1" height="1" fill="#61C5FD" /><rect x="7" y="5" width="1" height="1" fill="#4081A4" /><rect x="8" y="5" width="1" height="1" fill="#000000" /><rect x="9" y="5" width="1" height="1" fill="#000000" /><rect x="0" y="6" width="1" height="1" fill="#5EC3F8" /><rect x="1" y="6" width="1" height="1" fill="#182F39" /><rect x="2" y="6" width="1" height="1" fill="#040300" /><rect x="3" y="6" width="1" height="1" fill="#070908" /><rect x="4" y="6" width="1" height="1" fill="#030100" /><rect x="5" y="6" width="1" height="1" fill="#203D4C" /><rect x="6" y="6" width="1" height="1" fill="#61C8FF" /><rect x="7" y="6" width="1" height="1" fill="#4083A6" /><rect x="8" y="6" width="1" height="1" fill="#000000" /><rect x="9" y="6" width="1" height="1" fill="#000000" /><rect x="0" y="7" width="1" height="1" fill="#60CDFF" /><rect x="1" y="7" width="1" height="1" fill="#19323C" /><rect x="2" y="7" width="1" height="1" fill="#040200" /><rect x="3" y="7" width="1" height="1" fill="#070908" /><rect x="4" y="7" width="1" height="1" fill="#030100" /><rect x="5" y="7" width="1" height="1" fill="#1F3E4C" /><rect x="6" y="7" width="1" height="1" fill="#5FCBFF" /><rect x="7" y="7" width="1" height="1" fill="#4085A7" /><rect x="8" y="7" width="1" height="1" fill="#000000" /><rect x="9" y="7" width="1" height="1" fill="#000000" /><rect x="0" y="8" width="1" height="1" fill="#428BAB" /><rect x="1" y="8" width="1" height="1" fill="#13242A" /><rect x="2" y="8" width="1" height="1" fill="#050502" /><rect x="3" y="8" width="1" height="1" fill="#070908" /><rect x="4" y="8" width="1" height="1" fill="#030100" /><rect x="5" y="8" width="1" height="1" fill="#1F3E4A" /><rect x="6" y="8" width="1" height="1" fill="#60CEFF" /><rect x="7" y="8" width="1" height="1" fill="#4187A6" /><rect x="8" y="8" width="1" height="1" fill="#000000" /><rect x="9" y="8" width="1" height="1" fill="#000000" /><rect x="0" y="9" width="1" height="1" fill="#000000" /><rect x="1" y="9" width="1" height="1" fill="#050502" /><rect x="2" y="9" width="1" height="1" fill="#070908" /><rect x="3" y="9" width="1" height="1" fill="#070908" /><rect x="4" y="9" width="1" height="1" fill="#030000" /><rect x="5" y="9" width="1" height="1" fill="#20414D" /><rect x="6" y="9" width="1" height="1" fill="#62D2FE" /><rect x="7" y="9" width="1" height="1" fill="#4189A5" /><rect x="8" y="9" width="1" height="1" fill="#000000" /><rect x="9" y="9" width="1" height="1" fill="#000000" />
  </g>
</svg>