<svg width="800" height="1000" version="1.1" xmlns="http://www.w3.org/2000/svg" xmlns:xlink="http://www.w3.org/1999/xlink">
  <defs>
      <linearGradient id="Gradient2" x1="0" x2="1" y1="0" y2="1">
        <stop offset="0%" stop-color="#2d3c96"/>
        <stop offset="100%" stop-color="#d53392"/>
      </linearGradient>
  </defs>
  <rect x="10" y="10" width="780" height="980" fill="url(#Gradient2)" rx="50" ry="50" stroke="#ffd700" stroke-width="20"/>
  <text x="400" y="920" width="780" text-anchor="middle" style="font: bold 200px 'Helvetica Neue'; fill: #ffd700">02392</text>

  <g transform="translate(80 80) scale(64)">
<rect x="0" y="0" width="1" height="1" fill="#000000" />
,<rect x="0" y="1" width="1" height="1" fill="#579fd3" />
,<rect x="0" y="2" width="1" height="1" fill="#61b5ed" />
,<rect x="0" y="3" width="1" height="1" fill="#5eb6ec" />
,<rect x="0" y="4" width="1" height="1" fill="#5db9ee" />
,<rect x="0" y="5" width="1" height="1" fill="#5dbcf1" />
,<rect x="0" y="6" width="1" height="1" fill="#5dbff4" />
,<rect x="0" y="7" width="1" height="1" fill="#5fcaff" />
,<rect x="0" y="8" width="1" height="1" fill="#4189aa" />
,<rect x="0" y="9" width="1" height="1" fill="#000000" />
,<rect x="1" y="0" width="1" height="1" fill="#010000" />
,<rect x="1" y="1" width="1" height="1" fill="#3f7194" />
,<rect x="1" y="2" width="1" height="1" fill="#4680a7" />
,<rect x="1" y="3" width="1" height="1" fill="#4381a6" />
,<rect x="1" y="4" width="1" height="1" fill="#4382a7" />
,<rect x="1" y="5" width="1" height="1" fill="#4385aa" />
,<rect x="1" y="6" width="1" height="1" fill="#4387ac" />
,<rect x="1" y="7" width="1" height="1" fill="#448fb3" />
,<rect x="1" y="8" width="1" height="1" fill="#2f6278" />
,<rect x="1" y="9" width="1" height="1" fill="#020000" />
,<rect x="2" y="0" width="1" height="1" fill="#070908" />
,<rect x="2" y="1" width="1" height="1" fill="#010000" />
,<rect x="2" y="2" width="1" height="1" fill="#000000" />
,<rect x="2" y="3" width="1" height="1" fill="#000000" />
,<rect x="2" y="4" width="1" height="1" fill="#000000" />
,<rect x="2" y="5" width="1" height="1" fill="#000000" />
,<rect x="2" y="6" width="1" height="1" fill="#000000" />
,<rect x="2" y="7" width="1" height="1" fill="#000000" />
,<rect x="2" y="8" width="1" height="1" fill="#020000" />
,<rect x="2" y="9" width="1" height="1" fill="#070908" />
,<rect x="3" y="0" width="1" height="1" fill="#000000" />
,<rect x="3" y="1" width="1" height="1" fill="#000000" />
,<rect x="3" y="2" width="1" height="1" fill="#000000" />
,<rect x="3" y="3" width="1" height="1" fill="#000000" />
,<rect x="3" y="4" width="1" height="1" fill="#000000" />
,<rect x="3" y="5" width="1" height="1" fill="#000000" />
,<rect x="3" y="6" width="1" height="1" fill="#000000" />
,<rect x="3" y="7" width="1" height="1" fill="#000000" />
,<rect x="3" y="8" width="1" height="1" fill="#010000" />
,<rect x="3" y="9" width="1" height="1" fill="#070908" />
,<rect x="4" y="0" width="1" height="1" fill="#5fa9e2" />
,<rect x="4" y="1" width="1" height="1" fill="#5ba7db" />
,<rect x="4" y="2" width="1" height="1" fill="#5ba9de" />
,<rect x="4" y="3" width="1" height="1" fill="#5aade1" />
,<rect x="4" y="4" width="1" height="1" fill="#59b0e3" />
,<rect x="4" y="5" width="1" height="1" fill="#58b3e5" />
,<rect x="4" y="6" width="1" height="1" fill="#58b5e8" />
,<rect x="4" y="7" width="1" height="1" fill="#5ac0f3" />
,<rect x="4" y="8" width="1" height="1" fill="#3e83a1" />
,<rect x="4" y="9" width="1" height="1" fill="#010000" />
,<rect x="5" y="0" width="1" height="1" fill="#64b2ee" />
,<rect x="5" y="1" width="1" height="1" fill="#60afe7" />
,<rect x="5" y="2" width="1" height="1" fill="#5fb3ea" />
,<rect x="5" y="3" width="1" height="1" fill="#5eb7ed" />
,<rect x="5" y="4" width="1" height="1" fill="#5db9ef" />
,<rect x="5" y="5" width="1" height="1" fill="#5dbdf2" />
,<rect x="5" y="6" width="1" height="1" fill="#5dc0f4" />
,<rect x="5" y="7" width="1" height="1" fill="#5fcaff" />
,<rect x="5" y="8" width="1" height="1" fill="#418aaa" />
,<rect x="5" y="9" width="1" height="1" fill="#000000" />
,<rect x="6" y="0" width="1" height="1" fill="#315571" />
,<rect x="6" y="1" width="1" height="1" fill="#2f546d" />
,<rect x="6" y="2" width="1" height="1" fill="#2f566e" />
,<rect x="6" y="3" width="1" height="1" fill="#2e576f" />
,<rect x="6" y="4" width="1" height="1" fill="#2e5870" />
,<rect x="6" y="5" width="1" height="1" fill="#2e5a72" />
,<rect x="6" y="6" width="1" height="1" fill="#2e5c73" />
,<rect x="6" y="7" width="1" height="1" fill="#2f6178" />
,<rect x="6" y="8" width="1" height="1" fill="#214351" />
,<rect x="6" y="9" width="1" height="1" fill="#030200" />
,<rect x="7" y="0" width="1" height="1" fill="#000000" />
,<rect x="7" y="1" width="1" height="1" fill="#000000" />
,<rect x="7" y="2" width="1" height="1" fill="#000000" />
,<rect x="7" y="3" width="1" height="1" fill="#000000" />
,<rect x="7" y="4" width="1" height="1" fill="#000000" />
,<rect x="7" y="5" width="1" height="1" fill="#000000" />
,<rect x="7" y="6" width="1" height="1" fill="#000000" />
,<rect x="7" y="7" width="1" height="1" fill="#000000" />
,<rect x="7" y="8" width="1" height="1" fill="#030000" />
,<rect x="7" y="9" width="1" height="1" fill="#070908" />
,<rect x="8" y="0" width="1" height="1" fill="#090d0e" />
,<rect x="8" y="1" width="1" height="1" fill="#090e0e" />
,<rect x="8" y="2" width="1" height="1" fill="#090e0f" />
,<rect x="8" y="3" width="1" height="1" fill="#090e0f" />
,<rect x="8" y="4" width="1" height="1" fill="#090e0e" />
,<rect x="8" y="5" width="1" height="1" fill="#090e0f" />
,<rect x="8" y="6" width="1" height="1" fill="#090f0f" />
,<rect x="8" y="7" width="1" height="1" fill="#0a0f10" />
,<rect x="8" y="8" width="1" height="1" fill="#080d0d" />
,<rect x="8" y="9" width="1" height="1" fill="#060705" />
,<rect x="9" y="0" width="1" height="1" fill="#63b1ec" />
,<rect x="9" y="1" width="1" height="1" fill="#63b5ef" />
,<rect x="9" y="2" width="1" height="1" fill="#62b9f1" />
,<rect x="9" y="3" width="1" height="1" fill="#61bcf4" />
,<rect x="9" y="4" width="1" height="1" fill="#60bff7" />
,<rect x="9" y="5" width="1" height="1" fill="#60c2f9" />
,<rect x="9" y="6" width="1" height="1" fill="#60c6fc" />
,<rect x="9" y="7" width="1" height="1" fill="#62d0ff" />
,<rect x="9" y="8" width="1" height="1" fill="#438eaf" />
,<rect x="9" y="9" width="1" height="1" fill="#000000" />

  </g>
</svg>