<svg width="800" height="1000" version="1.1" xmlns="http://www.w3.org/2000/svg" xmlns:xlink="http://www.w3.org/1999/xlink">
  <defs>
      <linearGradient id="Gradient2" x1="0" x2="1" y1="0" y2="1">
        <stop offset="0%" stop-color="#2d3c96"/>
        <stop offset="100%" stop-color="#d53392"/>
      </linearGradient>
  </defs>
  <rect x="10" y="10" width="780" height="980" fill="url(#Gradient2)" rx="50" ry="50" stroke="#ffd700" stroke-width="20"/>
  <text x="400" y="920" width="780" text-anchor="middle" style="font: bold 200px 'Helvetica Neue'; fill: #ffd700">02391</text>

  <g transform="translate(80 80) scale(64)">
<rect x="0" y="0" width="1" height="1" fill="#070908" />
,<rect x="0" y="1" width="1" height="1" fill="#070908" />
,<rect x="0" y="2" width="1" height="1" fill="#070908" />
,<rect x="0" y="3" width="1" height="1" fill="#070908" />
,<rect x="0" y="4" width="1" height="1" fill="#070908" />
,<rect x="0" y="5" width="1" height="1" fill="#070908" />
,<rect x="0" y="6" width="1" height="1" fill="#070908" />
,<rect x="0" y="7" width="1" height="1" fill="#070908" />
,<rect x="0" y="8" width="1" height="1" fill="#070908" />
,<rect x="0" y="9" width="1" height="1" fill="#070908" />
,<rect x="1" y="0" width="1" height="1" fill="#050705" />
,<rect x="1" y="1" width="1" height="1" fill="#050705" />
,<rect x="1" y="2" width="1" height="1" fill="#050605" />
,<rect x="1" y="3" width="1" height="1" fill="#060605" />
,<rect x="1" y="4" width="1" height="1" fill="#060605" />
,<rect x="1" y="5" width="1" height="1" fill="#060605" />
,<rect x="1" y="6" width="1" height="1" fill="#060605" />
,<rect x="1" y="7" width="1" height="1" fill="#060605" />
,<rect x="1" y="8" width="1" height="1" fill="#060605" />
,<rect x="1" y="9" width="1" height="1" fill="#060705" />
,<rect x="2" y="0" width="1" height="1" fill="#070a09" />
,<rect x="2" y="1" width="1" height="1" fill="#070909" />
,<rect x="2" y="2" width="1" height="1" fill="#070a0a" />
,<rect x="2" y="3" width="1" height="1" fill="#060a0a" />
,<rect x="2" y="4" width="1" height="1" fill="#060909" />
,<rect x="2" y="5" width="1" height="1" fill="#060a09" />
,<rect x="2" y="6" width="1" height="1" fill="#060a0a" />
,<rect x="2" y="7" width="1" height="1" fill="#070a0a" />
,<rect x="2" y="8" width="1" height="1" fill="#070b0b" />
,<rect x="2" y="9" width="1" height="1" fill="#050504" />
,<rect x="3" y="0" width="1" height="1" fill="#64b2ed" />
,<rect x="3" y="1" width="1" height="1" fill="#64b5f1" />
,<rect x="3" y="2" width="1" height="1" fill="#64baf3" />
,<rect x="3" y="3" width="1" height="1" fill="#63bdf6" />
,<rect x="3" y="4" width="1" height="1" fill="#62c1f9" />
,<rect x="3" y="5" width="1" height="1" fill="#61c4fc" />
,<rect x="3" y="6" width="1" height="1" fill="#61c7ff" />
,<rect x="3" y="7" width="1" height="1" fill="#60caff" />
,<rect x="3" y="8" width="1" height="1" fill="#60cdff" />
,<rect x="3" y="9" width="1" height="1" fill="#62d3ff" />
,<rect x="4" y="0" width="1" height="1" fill="#5a9fd5" />
,<rect x="4" y="1" width="1" height="1" fill="#5aa3d8" />
,<rect x="4" y="2" width="1" height="1" fill="#5aa6da" />
,<rect x="4" y="3" width="1" height="1" fill="#59aadc" />
,<rect x="4" y="4" width="1" height="1" fill="#58addf" />
,<rect x="4" y="5" width="1" height="1" fill="#57afe2" />
,<rect x="4" y="6" width="1" height="1" fill="#57b3e4" />
,<rect x="4" y="7" width="1" height="1" fill="#56b5e6" />
,<rect x="4" y="8" width="1" height="1" fill="#56b7e4" />
,<rect x="4" y="9" width="1" height="1" fill="#5bc2ed" />
,<rect x="5" y="0" width="1" height="1" fill="#000000" />
,<rect x="5" y="1" width="1" height="1" fill="#000000" />
,<rect x="5" y="2" width="1" height="1" fill="#000000" />
,<rect x="5" y="3" width="1" height="1" fill="#000000" />
,<rect x="5" y="4" width="1" height="1" fill="#000000" />
,<rect x="5" y="5" width="1" height="1" fill="#000000" />
,<rect x="5" y="6" width="1" height="1" fill="#000000" />
,<rect x="5" y="7" width="1" height="1" fill="#000000" />
,<rect x="5" y="8" width="1" height="1" fill="#000000" />
,<rect x="5" y="9" width="1" height="1" fill="#000000" />
,<rect x="6" y="0" width="1" height="1" fill="#070908" />
,<rect x="6" y="1" width="1" height="1" fill="#070908" />
,<rect x="6" y="2" width="1" height="1" fill="#070908" />
,<rect x="6" y="3" width="1" height="1" fill="#070908" />
,<rect x="6" y="4" width="1" height="1" fill="#070908" />
,<rect x="6" y="5" width="1" height="1" fill="#070908" />
,<rect x="6" y="6" width="1" height="1" fill="#070908" />
,<rect x="6" y="7" width="1" height="1" fill="#070908" />
,<rect x="6" y="8" width="1" height="1" fill="#070908" />
,<rect x="6" y="9" width="1" height="1" fill="#060807" />
,<rect x="7" y="0" width="1" height="1" fill="#070908" />
,<rect x="7" y="1" width="1" height="1" fill="#070908" />
,<rect x="7" y="2" width="1" height="1" fill="#070908" />
,<rect x="7" y="3" width="1" height="1" fill="#070908" />
,<rect x="7" y="4" width="1" height="1" fill="#070908" />
,<rect x="7" y="5" width="1" height="1" fill="#070908" />
,<rect x="7" y="6" width="1" height="1" fill="#070908" />
,<rect x="7" y="7" width="1" height="1" fill="#070908" />
,<rect x="7" y="8" width="1" height="1" fill="#070908" />
,<rect x="7" y="9" width="1" height="1" fill="#070908" />
,<rect x="8" y="0" width="1" height="1" fill="#070908" />
,<rect x="8" y="1" width="1" height="1" fill="#000000" />
,<rect x="8" y="2" width="1" height="1" fill="#000000" />
,<rect x="8" y="3" width="1" height="1" fill="#000000" />
,<rect x="8" y="4" width="1" height="1" fill="#000000" />
,<rect x="8" y="5" width="1" height="1" fill="#000000" />
,<rect x="8" y="6" width="1" height="1" fill="#000000" />
,<rect x="8" y="7" width="1" height="1" fill="#000000" />
,<rect x="8" y="8" width="1" height="1" fill="#020000" />
,<rect x="8" y="9" width="1" height="1" fill="#070908" />
,<rect x="9" y="0" width="1" height="1" fill="#000000" />
,<rect x="9" y="1" width="1" height="1" fill="#417499" />
,<rect x="9" y="2" width="1" height="1" fill="#4885ad" />
,<rect x="9" y="3" width="1" height="1" fill="#4685ac" />
,<rect x="9" y="4" width="1" height="1" fill="#4587ad" />
,<rect x="9" y="5" width="1" height="1" fill="#4489af" />
,<rect x="9" y="6" width="1" height="1" fill="#448cb2" />
,<rect x="9" y="7" width="1" height="1" fill="#4693ba" />
,<rect x="9" y="8" width="1" height="1" fill="#30647b" />
,<rect x="9" y="9" width="1" height="1" fill="#020000" />

  </g>
</svg>