<svg width="800" height="1000" version="1.1" xmlns="http://www.w3.org/2000/svg" xmlns:xlink="http://www.w3.org/1999/xlink">
  <defs>
      <linearGradient id="Gradient2" x1="0" x2="1" y1="0" y2="1">
        <stop offset="0%" stop-color="#2d3c96"/>
        <stop offset="100%" stop-color="#d53392"/>
      </linearGradient>
  </defs>
  <rect x="10" y="10" width="780" height="980" fill="url(#Gradient2)" rx="50" ry="50" stroke="#ffd700" stroke-width="20"/>
  <text x="400" y="920" width="780" text-anchor="middle" style="font: bold 200px 'Helvetica Neue'; fill: #ffd700">02401</text>

  <g transform="translate(80 80) scale(64)">
<rect x="0" y="0" width="1" height="1" fill="#de010a" />
,<rect x="0" y="1" width="1" height="1" fill="#e70914" />
,<rect x="0" y="2" width="1" height="1" fill="#e50209" />
,<rect x="0" y="3" width="1" height="1" fill="#e20001" />
,<rect x="0" y="4" width="1" height="1" fill="#e8000d" />
,<rect x="0" y="5" width="1" height="1" fill="#d10812" />
,<rect x="0" y="6" width="1" height="1" fill="#a21818" />
,<rect x="0" y="7" width="1" height="1" fill="#88211c" />
,<rect x="0" y="8" width="1" height="1" fill="#82251e" />
,<rect x="0" y="9" width="1" height="1" fill="#86332b" />
,<rect x="1" y="0" width="1" height="1" fill="#c1171a" />
,<rect x="1" y="1" width="1" height="1" fill="#b5060b" />
,<rect x="1" y="2" width="1" height="1" fill="#cb0e12" />
,<rect x="1" y="3" width="1" height="1" fill="#d31217" />
,<rect x="1" y="4" width="1" height="1" fill="#cc131b" />
,<rect x="1" y="5" width="1" height="1" fill="#b2151c" />
,<rect x="1" y="6" width="1" height="1" fill="#e97b7c" />
,<rect x="1" y="7" width="1" height="1" fill="#ffb4b0" />
,<rect x="1" y="8" width="1" height="1" fill="#ffe7e0" />
,<rect x="1" y="9" width="1" height="1" fill="#ffeee6" />
,<rect x="2" y="0" width="1" height="1" fill="#feb4b1" />
,<rect x="2" y="1" width="1" height="1" fill="#cf7c76" />
,<rect x="2" y="2" width="1" height="1" fill="#932120" />
,<rect x="2" y="3" width="1" height="1" fill="#9d292a" />
,<rect x="2" y="4" width="1" height="1" fill="#ffa9a9" />
,<rect x="2" y="5" width="1" height="1" fill="#ffe1e2" />
,<rect x="2" y="6" width="1" height="1" fill="#ffeff2" />
,<rect x="2" y="7" width="1" height="1" fill="#ffeaec" />
,<rect x="2" y="8" width="1" height="1" fill="#f6e1de" />
,<rect x="2" y="9" width="1" height="1" fill="#ebdcd9" />
,<rect x="3" y="0" width="1" height="1" fill="#fff1ec" />
,<rect x="3" y="1" width="1" height="1" fill="#fff3ea" />
,<rect x="3" y="2" width="1" height="1" fill="#ffe4e1" />
,<rect x="3" y="3" width="1" height="1" fill="#ffe0df" />
,<rect x="3" y="4" width="1" height="1" fill="#ffe4e2" />
,<rect x="3" y="5" width="1" height="1" fill="#fffaf8" />
,<rect x="3" y="6" width="1" height="1" fill="#fff6f9" />
,<rect x="3" y="7" width="1" height="1" fill="#fffcff" />
,<rect x="3" y="8" width="1" height="1" fill="#feffff" />
,<rect x="3" y="9" width="1" height="1" fill="#f9ffff" />
,<rect x="4" y="0" width="1" height="1" fill="#9f3738" />
,<rect x="4" y="1" width="1" height="1" fill="#da9f99" />
,<rect x="4" y="2" width="1" height="1" fill="#ffeae8" />
,<rect x="4" y="3" width="1" height="1" fill="#fff9f9" />
,<rect x="4" y="4" width="1" height="1" fill="#fffcf8" />
,<rect x="4" y="5" width="1" height="1" fill="#fffaf7" />
,<rect x="4" y="6" width="1" height="1" fill="#fffeff" />
,<rect x="4" y="7" width="1" height="1" fill="#feffff" />
,<rect x="4" y="8" width="1" height="1" fill="#fbffff" />
,<rect x="4" y="9" width="1" height="1" fill="#f9ffff" />
,<rect x="5" y="0" width="1" height="1" fill="#ffabaf" />
,<rect x="5" y="1" width="1" height="1" fill="#ffe2df" />
,<rect x="5" y="2" width="1" height="1" fill="#fffbfd" />
,<rect x="5" y="3" width="1" height="1" fill="#fafeff" />
,<rect x="5" y="4" width="1" height="1" fill="#fcfbf9" />
,<rect x="5" y="5" width="1" height="1" fill="#fffffd" />
,<rect x="5" y="6" width="1" height="1" fill="#fafeff" />
,<rect x="5" y="7" width="1" height="1" fill="#f9feff" />
,<rect x="5" y="8" width="1" height="1" fill="#fcfdff" />
,<rect x="5" y="9" width="1" height="1" fill="#fdfcff" />
,<rect x="6" y="0" width="1" height="1" fill="#fff3f6" />
,<rect x="6" y="1" width="1" height="1" fill="#fffffd" />
,<rect x="6" y="2" width="1" height="1" fill="#fffdff" />
,<rect x="6" y="3" width="1" height="1" fill="#fdfaff" />
,<rect x="6" y="4" width="1" height="1" fill="#fffeff" />
,<rect x="6" y="5" width="1" height="1" fill="#fafbfd" />
,<rect x="6" y="6" width="1" height="1" fill="#fcffff" />
,<rect x="6" y="7" width="1" height="1" fill="#ffffff" />
,<rect x="6" y="8" width="1" height="1" fill="#fffbfe" />
,<rect x="6" y="9" width="1" height="1" fill="#fff9fc" />
,<rect x="7" y="0" width="1" height="1" fill="#fffaff" />
,<rect x="7" y="1" width="1" height="1" fill="#f4ffff" />
,<rect x="7" y="2" width="1" height="1" fill="#fbfeff" />
,<rect x="7" y="3" width="1" height="1" fill="#fffeff" />
,<rect x="7" y="4" width="1" height="1" fill="#fdfeff" />
,<rect x="7" y="5" width="1" height="1" fill="#feffff" />
,<rect x="7" y="6" width="1" height="1" fill="#fbfbfd" />
,<rect x="7" y="7" width="1" height="1" fill="#fffcfd" />
,<rect x="7" y="8" width="1" height="1" fill="#fffcfd" />
,<rect x="7" y="9" width="1" height="1" fill="#fffafb" />
,<rect x="8" y="0" width="1" height="1" fill="#fef7ff" />
,<rect x="8" y="1" width="1" height="1" fill="#fbffff" />
,<rect x="8" y="2" width="1" height="1" fill="#f8fffc" />
,<rect x="8" y="3" width="1" height="1" fill="#f5fff7" />
,<rect x="8" y="4" width="1" height="1" fill="#fbfffc" />
,<rect x="8" y="5" width="1" height="1" fill="#fefefe" />
,<rect x="8" y="6" width="1" height="1" fill="#f1eaf1" />
,<rect x="8" y="7" width="1" height="1" fill="#5a5058" />
,<rect x="8" y="8" width="1" height="1" fill="#fffafc" />
,<rect x="8" y="9" width="1" height="1" fill="#fffffd" />
,<rect x="9" y="0" width="1" height="1" fill="#fffbff" />
,<rect x="9" y="1" width="1" height="1" fill="#fffcff" />
,<rect x="9" y="2" width="1" height="1" fill="#d8e1de" />
,<rect x="9" y="3" width="1" height="1" fill="#e4efe7" />
,<rect x="9" y="4" width="1" height="1" fill="#f7fcf6" />
,<rect x="9" y="5" width="1" height="1" fill="#dedcdd" />
,<rect x="9" y="6" width="1" height="1" fill="#09040a" />
,<rect x="9" y="7" width="1" height="1" fill="#030004" />
,<rect x="9" y="8" width="1" height="1" fill="#ffffff" />
,<rect x="9" y="9" width="1" height="1" fill="#fbfffe" />

  </g>
</svg>