<svg width="800" height="1000" xmlns="http://www.w3.org/2000/svg"><defs><linearGradient id="g" x1="0" x2="1" y1="0" y2="1"><stop offset="0%" stop-color="#2d3c96"/><stop offset="100%" stop-color="#d53392"/></linearGradient></defs><rect x="10" y="10" width="780" height="980" fill="url(#g)" rx="50" ry="50" stroke="gold" stroke-width="20"/><text x="400" y="920" width="780" text-anchor="middle" style="font:bold 200px 'Helvetica Neue';fill:gold">02446</text><g transform="translate(80 80) scale(64)"><rect x="0" y="0" width="1" height="1" fill="#000102" /><rect x="0" y="1" width="1" height="1" fill="#0c0c28" /><rect x="0" y="2" width="1" height="1" fill="#15153d" /><rect x="0" y="3" width="1" height="1" fill="#1b1949" /><rect x="0" y="4" width="1" height="1" fill="#221f57" /><rect x="0" y="5" width="1" height="1" fill="#282161" /><rect x="0" y="6" width="1" height="1" fill="#2c256b" /><rect x="0" y="7" width="1" height="1" fill="#1a1847" /><rect x="0" y="8" width="1" height="1" fill="#010208" /><rect x="0" y="9" width="1" height="1" fill="#000000" /><rect x="1" y="0" width="1" height="1" fill="#0d0d2d" /><rect x="1" y="1" width="1" height="1" fill="#1e1f4f" /><rect x="1" y="2" width="1" height="1" fill="#131338" /><rect x="1" y="3" width="1" height="1" fill="#231f5a" /><rect x="1" y="4" width="1" height="1" fill="#2b2469" /><rect x="1" y="5" width="1" height="1" fill="#27215f" /><rect x="1" y="6" width="1" height="1" fill="#2e2870" /><rect x="1" y="7" width="1" height="1" fill="#120e36" /><rect x="1" y="8" width="1" height="1" fill="#000000" /><rect x="1" y="9" width="1" height="1" fill="#000000" /><rect x="2" y="0" width="1" height="1" fill="#0a0a24" /><rect x="2" y="1" width="1" height="1" fill="#1a1a45" /><rect x="2" y="2" width="1" height="1" fill="#131438" /><rect x="2" y="3" width="1" height="1" fill="#211e55" /><rect x="2" y="4" width="1" height="1" fill="#292265" /><rect x="2" y="5" width="1" height="1" fill="#272160" /><rect x="2" y="6" width="1" height="1" fill="#2e2870" /><rect x="2" y="7" width="1" height="1" fill="#141139" /><rect x="2" y="8" width="1" height="1" fill="#000000" /><rect x="2" y="9" width="1" height="1" fill="#000000" /><rect x="3" y="0" width="1" height="1" fill="#0a0a24" /><rect x="3" y="1" width="1" height="1" fill="#1a1a45" /><rect x="3" y="2" width="1" height="1" fill="#131438" /><rect x="3" y="3" width="1" height="1" fill="#211e55" /><rect x="3" y="4" width="1" height="1" fill="#292265" /><rect x="3" y="5" width="1" height="1" fill="#272160" /><rect x="3" y="6" width="1" height="1" fill="#2e2870" /><rect x="3" y="7" width="1" height="1" fill="#141139" /><rect x="3" y="8" width="1" height="1" fill="#000000" /><rect x="3" y="9" width="1" height="1" fill="#000000" /><rect x="4" y="0" width="1" height="1" fill="#0a0a24" /><rect x="4" y="1" width="1" height="1" fill="#1a1a45" /><rect x="4" y="2" width="1" height="1" fill="#131438" /><rect x="4" y="3" width="1" height="1" fill="#211e55" /><rect x="4" y="4" width="1" height="1" fill="#292265" /><rect x="4" y="5" width="1" height="1" fill="#272160" /><rect x="4" y="6" width="1" height="1" fill="#2e2870" /><rect x="4" y="7" width="1" height="1" fill="#141139" /><rect x="4" y="8" width="1" height="1" fill="#000000" /><rect x="4" y="9" width="1" height="1" fill="#000000" /><rect x="5" y="0" width="1" height="1" fill="#0a0a24" /><rect x="5" y="1" width="1" height="1" fill="#1a1a45" /><rect x="5" y="2" width="1" height="1" fill="#131438" /><rect x="5" y="3" width="1" height="1" fill="#211e55" /><rect x="5" y="4" width="1" height="1" fill="#292265" /><rect x="5" y="5" width="1" height="1" fill="#272160" /><rect x="5" y="6" width="1" height="1" fill="#2e2870" /><rect x="5" y="7" width="1" height="1" fill="#141139" /><rect x="5" y="8" width="1" height="1" fill="#000000" /><rect x="5" y="9" width="1" height="1" fill="#000000" /><rect x="6" y="0" width="1" height="1" fill="#0a0a24" /><rect x="6" y="1" width="1" height="1" fill="#1a1a45" /><rect x="6" y="2" width="1" height="1" fill="#131438" /><rect x="6" y="3" width="1" height="1" fill="#211e55" /><rect x="6" y="4" width="1" height="1" fill="#292265" /><rect x="6" y="5" width="1" height="1" fill="#272160" /><rect x="6" y="6" width="1" height="1" fill="#2e2870" /><rect x="6" y="7" width="1" height="1" fill="#141139" /><rect x="6" y="8" width="1" height="1" fill="#000000" /><rect x="6" y="9" width="1" height="1" fill="#000000" /><rect x="7" y="0" width="1" height="1" fill="#0b0a25" /><rect x="7" y="1" width="1" height="1" fill="#191a44" /><rect x="7" y="2" width="1" height="1" fill="#0d1431" /><rect x="7" y="3" width="1" height="1" fill="#1f1e52" /><rect x="7" y="4" width="1" height="1" fill="#2a2266" /><rect x="7" y="5" width="1" height="1" fill="#272160" /><rect x="7" y="6" width="1" height="1" fill="#2e2870" /><rect x="7" y="7" width="1" height="1" fill="#141139" /><rect x="7" y="8" width="1" height="1" fill="#000000" /><rect x="7" y="9" width="1" height="1" fill="#000000" /><rect x="8" y="0" width="1" height="1" fill="#0b0a24" /><rect x="8" y="1" width="1" height="1" fill="#191a44" /><rect x="8" y="2" width="1" height="1" fill="#101433" /><rect x="8" y="3" width="1" height="1" fill="#201e53" /><rect x="8" y="4" width="1" height="1" fill="#292265" /><rect x="8" y="5" width="1" height="1" fill="#272160" /><rect x="8" y="6" width="1" height="1" fill="#2e2870" /><rect x="8" y="7" width="1" height="1" fill="#141139" /><rect x="8" y="8" width="1" height="1" fill="#000000" /><rect x="8" y="9" width="1" height="1" fill="#000000" /><rect x="9" y="0" width="1" height="1" fill="#03101b" /><rect x="9" y="1" width="1" height="1" fill="#361e6d" /><rect x="9" y="2" width="1" height="1" fill="#7d0dc1" /><rect x="9" y="3" width="1" height="1" fill="#411b7e" /><rect x="9" y="4" width="1" height="1" fill="#1a2353" /><rect x="9" y="5" width="1" height="1" fill="#272160" /><rect x="9" y="6" width="1" height="1" fill="#2e2870" /><rect x="9" y="7" width="1" height="1" fill="#120e35" /><rect x="9" y="8" width="1" height="1" fill="#000000" /><rect x="9" y="9" width="1" height="1" fill="#000000" /></g></svg>