<svg width="800" height="1000" version="1.1" xmlns="http://www.w3.org/2000/svg" xmlns:xlink="http://www.w3.org/1999/xlink">
  <defs>
      <linearGradient id="Gradient2" x1="0" x2="1" y1="0" y2="1">
        <stop offset="0%" stop-color="#2d3c96"/>
        <stop offset="100%" stop-color="#d53392"/>
      </linearGradient>
  </defs>
  <rect x="10" y="10" width="780" height="980" fill="url(#Gradient2)" rx="50" ry="50" stroke="#ffd700" stroke-width="20"/>
  <text x="400" y="920" width="780" text-anchor="middle" style="font: bold 200px 'Helvetica Neue'; fill: #ffd700">02448</text>

  <g transform="translate(80 80) scale(64)">
<rect x="0" y="0" width="1" height="1" fill="#A870D0" /><rect x="1" y="0" width="1" height="1" fill="#9C62C7" /><rect x="2" y="0" width="1" height="1" fill="#FDFBFE" /><rect x="3" y="0" width="1" height="1" fill="#FFFFFF" /><rect x="4" y="0" width="1" height="1" fill="#FFFFFF" /><rect x="5" y="0" width="1" height="1" fill="#FFFFFF" /><rect x="6" y="0" width="1" height="1" fill="#FFFFFF" /><rect x="7" y="0" width="1" height="1" fill="#FFFFFF" /><rect x="8" y="0" width="1" height="1" fill="#FFFFFF" /><rect x="9" y="0" width="1" height="1" fill="#FFFFFF" /><rect x="0" y="1" width="1" height="1" fill="#7410B4" /><rect x="1" y="1" width="1" height="1" fill="#8419C7" /><rect x="2" y="1" width="1" height="1" fill="#C39AE0" /><rect x="3" y="1" width="1" height="1" fill="#F1EAF8" /><rect x="4" y="1" width="1" height="1" fill="#FFFFFF" /><rect x="5" y="1" width="1" height="1" fill="#E2CFEF" /><rect x="6" y="1" width="1" height="1" fill="#D8BEEB" /><rect x="7" y="1" width="1" height="1" fill="#E3D1F0" /><rect x="8" y="1" width="1" height="1" fill="#FDFBFE" /><rect x="9" y="1" width="1" height="1" fill="#FFFFFF" /><rect x="0" y="2" width="1" height="1" fill="#7913BA" /><rect x="1" y="2" width="1" height="1" fill="#C639FF" /><rect x="2" y="2" width="1" height="1" fill="#8519C7" /><rect x="3" y="2" width="1" height="1" fill="#A876CE" /><rect x="4" y="2" width="1" height="1" fill="#FFFFFF" /><rect x="5" y="2" width="1" height="1" fill="#812ABB" /><rect x="6" y="2" width="1" height="1" fill="#7310B4" /><rect x="7" y="2" width="1" height="1" fill="#7A1EB8" /><rect x="8" y="2" width="1" height="1" fill="#F6F0FA" /><rect x="9" y="2" width="1" height="1" fill="#FFFFFF" /><rect x="0" y="3" width="1" height="1" fill="#A220F2" /><rect x="1" y="3" width="1" height="1" fill="#CF3FFF" /><rect x="2" y="3" width="1" height="1" fill="#8519C7" /><rect x="3" y="3" width="1" height="1" fill="#9E67C8" /><rect x="4" y="3" width="1" height="1" fill="#FFFFFF" /><rect x="5" y="3" width="1" height="1" fill="#DEC9EE" /><rect x="6" y="3" width="1" height="1" fill="#8533BD" /><rect x="7" y="3" width="1" height="1" fill="#7210B3" /><rect x="8" y="3" width="1" height="1" fill="#F4EEF9" /><rect x="9" y="3" width="1" height="1" fill="#FFFFFF" /><rect x="0" y="4" width="1" height="1" fill="#7414AE" /><rect x="1" y="4" width="1" height="1" fill="#A92BEC" /><rect x="2" y="4" width="1" height="1" fill="#8015C1" /><rect x="3" y="4" width="1" height="1" fill="#A369CC" /><rect x="4" y="4" width="1" height="1" fill="#FFFFFF" /><rect x="5" y="4" width="1" height="1" fill="#FFFFFF" /><rect x="6" y="4" width="1" height="1" fill="#D3BAE6" /><rect x="7" y="4" width="1" height="1" fill="#9D65C7" /><rect x="8" y="4" width="1" height="1" fill="#F8F4FB" /><rect x="9" y="4" width="1" height="1" fill="#FFFFFF" /><rect x="0" y="5" width="1" height="1" fill="#070013" /><rect x="1" y="5" width="1" height="1" fill="#730DB9" /><rect x="2" y="5" width="1" height="1" fill="#7610BA" /><rect x="3" y="5" width="1" height="1" fill="#A76DD0" /><rect x="4" y="5" width="1" height="1" fill="#FFFFFF" /><rect x="5" y="5" width="1" height="1" fill="#FFFFFF" /><rect x="6" y="5" width="1" height="1" fill="#FFFFFF" /><rect x="7" y="5" width="1" height="1" fill="#FFFFFF" /><rect x="8" y="5" width="1" height="1" fill="#FFFFFF" /><rect x="9" y="5" width="1" height="1" fill="#FFFFFF" /><rect x="0" y="6" width="1" height="1" fill="#150129" /><rect x="1" y="6" width="1" height="1" fill="#8C14DC" /><rect x="2" y="6" width="1" height="1" fill="#700BB7" /><rect x="3" y="6" width="1" height="1" fill="#A878CC" /><rect x="4" y="6" width="1" height="1" fill="#FFFFFF" /><rect x="5" y="6" width="1" height="1" fill="#FFFFFF" /><rect x="6" y="6" width="1" height="1" fill="#EFA6FF" /><rect x="7" y="6" width="1" height="1" fill="#D966FF" /><rect x="8" y="6" width="1" height="1" fill="#FFFFFF" /><rect x="9" y="6" width="1" height="1" fill="#FFFFFF" /><rect x="0" y="7" width="1" height="1" fill="#060011" /><rect x="1" y="7" width="1" height="1" fill="#490675" /><rect x="2" y="7" width="1" height="1" fill="#8D1FCB" /><rect x="3" y="7" width="1" height="1" fill="#A951DF" /><rect x="4" y="7" width="1" height="1" fill="#CCAFE2" /><rect x="5" y="7" width="1" height="1" fill="#FEFEFF" /><rect x="6" y="7" width="1" height="1" fill="#C986EF" /><rect x="7" y="7" width="1" height="1" fill="#A027E3" /><rect x="8" y="7" width="1" height="1" fill="#DEA0FD" /><rect x="9" y="7" width="1" height="1" fill="#F4E1FF" /><rect x="0" y="8" width="1" height="1" fill="#000000" /><rect x="1" y="8" width="1" height="1" fill="#000000" /><rect x="2" y="8" width="1" height="1" fill="#A431D9" /><rect x="3" y="8" width="1" height="1" fill="#BE32FF" /><rect x="4" y="8" width="1" height="1" fill="#6A0BAD" /><rect x="5" y="8" width="1" height="1" fill="#FAF7FC" /><rect x="6" y="8" width="1" height="1" fill="#C6A8DE" /><rect x="7" y="8" width="1" height="1" fill="#6E0DB0" /><rect x="8" y="8" width="1" height="1" fill="#B534F7" /><rect x="9" y="8" width="1" height="1" fill="#DD97FF" /><rect x="0" y="9" width="1" height="1" fill="#000000" /><rect x="1" y="9" width="1" height="1" fill="#000000" /><rect x="2" y="9" width="1" height="1" fill="#7312B0" /><rect x="3" y="9" width="1" height="1" fill="#9519E7" /><rect x="4" y="9" width="1" height="1" fill="#6F0EAF" /><rect x="5" y="9" width="1" height="1" fill="#FDFBFE" /><rect x="6" y="9" width="1" height="1" fill="#C19CDC" /><rect x="7" y="9" width="1" height="1" fill="#7310B3" /><rect x="8" y="9" width="1" height="1" fill="#B230F7" /><rect x="9" y="9" width="1" height="1" fill="#E3ADFF" />
  </g>
</svg>