<svg width="800" height="1000" version="1.1" xmlns="http://www.w3.org/2000/svg" xmlns:xlink="http://www.w3.org/1999/xlink">
  <defs>
      <linearGradient id="Gradient2" x1="0" x2="1" y1="0" y2="1">
        <stop offset="0%" stop-color="#2d3c96"/>
        <stop offset="100%" stop-color="#d53392"/>
      </linearGradient>
  </defs>
  <rect x="10" y="10" width="780" height="980" fill="url(#Gradient2)" rx="50" ry="50" stroke="#ffd700" stroke-width="20"/>
  <text x="400" y="920" width="780" text-anchor="middle" style="font: bold 200px 'Helvetica Neue'; fill: #ffd700">02446</text>

  <g transform="translate(80 80) scale(64)">
<rect x="0" y="0" width="1" height="1" fill="#000102" /><rect x="1" y="0" width="1" height="1" fill="#0D0D2D" /><rect x="2" y="0" width="1" height="1" fill="#0A0A24" /><rect x="3" y="0" width="1" height="1" fill="#0A0A24" /><rect x="4" y="0" width="1" height="1" fill="#0A0A24" /><rect x="5" y="0" width="1" height="1" fill="#0A0A24" /><rect x="6" y="0" width="1" height="1" fill="#0A0A24" /><rect x="7" y="0" width="1" height="1" fill="#0B0A25" /><rect x="8" y="0" width="1" height="1" fill="#0B0A24" /><rect x="9" y="0" width="1" height="1" fill="#03101B" /><rect x="0" y="1" width="1" height="1" fill="#0C0C28" /><rect x="1" y="1" width="1" height="1" fill="#1E1F4F" /><rect x="2" y="1" width="1" height="1" fill="#1A1A45" /><rect x="3" y="1" width="1" height="1" fill="#1A1A45" /><rect x="4" y="1" width="1" height="1" fill="#1A1A45" /><rect x="5" y="1" width="1" height="1" fill="#1A1A45" /><rect x="6" y="1" width="1" height="1" fill="#1A1A45" /><rect x="7" y="1" width="1" height="1" fill="#191A44" /><rect x="8" y="1" width="1" height="1" fill="#191A44" /><rect x="9" y="1" width="1" height="1" fill="#361E6D" /><rect x="0" y="2" width="1" height="1" fill="#15153D" /><rect x="1" y="2" width="1" height="1" fill="#131338" /><rect x="2" y="2" width="1" height="1" fill="#131438" /><rect x="3" y="2" width="1" height="1" fill="#131438" /><rect x="4" y="2" width="1" height="1" fill="#131438" /><rect x="5" y="2" width="1" height="1" fill="#131438" /><rect x="6" y="2" width="1" height="1" fill="#131438" /><rect x="7" y="2" width="1" height="1" fill="#0D1431" /><rect x="8" y="2" width="1" height="1" fill="#101433" /><rect x="9" y="2" width="1" height="1" fill="#7D0DC1" /><rect x="0" y="3" width="1" height="1" fill="#1B1949" /><rect x="1" y="3" width="1" height="1" fill="#231F5A" /><rect x="2" y="3" width="1" height="1" fill="#211E55" /><rect x="3" y="3" width="1" height="1" fill="#211E55" /><rect x="4" y="3" width="1" height="1" fill="#211E55" /><rect x="5" y="3" width="1" height="1" fill="#211E55" /><rect x="6" y="3" width="1" height="1" fill="#211E55" /><rect x="7" y="3" width="1" height="1" fill="#1F1E52" /><rect x="8" y="3" width="1" height="1" fill="#201E53" /><rect x="9" y="3" width="1" height="1" fill="#411B7E" /><rect x="0" y="4" width="1" height="1" fill="#221F57" /><rect x="1" y="4" width="1" height="1" fill="#2B2469" /><rect x="2" y="4" width="1" height="1" fill="#292265" /><rect x="3" y="4" width="1" height="1" fill="#292265" /><rect x="4" y="4" width="1" height="1" fill="#292265" /><rect x="5" y="4" width="1" height="1" fill="#292265" /><rect x="6" y="4" width="1" height="1" fill="#292265" /><rect x="7" y="4" width="1" height="1" fill="#2A2266" /><rect x="8" y="4" width="1" height="1" fill="#292265" /><rect x="9" y="4" width="1" height="1" fill="#1A2353" /><rect x="0" y="5" width="1" height="1" fill="#282161" /><rect x="1" y="5" width="1" height="1" fill="#27215F" /><rect x="2" y="5" width="1" height="1" fill="#272160" /><rect x="3" y="5" width="1" height="1" fill="#272160" /><rect x="4" y="5" width="1" height="1" fill="#272160" /><rect x="5" y="5" width="1" height="1" fill="#272160" /><rect x="6" y="5" width="1" height="1" fill="#272160" /><rect x="7" y="5" width="1" height="1" fill="#272160" /><rect x="8" y="5" width="1" height="1" fill="#272160" /><rect x="9" y="5" width="1" height="1" fill="#272160" /><rect x="0" y="6" width="1" height="1" fill="#2C256B" /><rect x="1" y="6" width="1" height="1" fill="#2E2870" /><rect x="2" y="6" width="1" height="1" fill="#2E2870" /><rect x="3" y="6" width="1" height="1" fill="#2E2870" /><rect x="4" y="6" width="1" height="1" fill="#2E2870" /><rect x="5" y="6" width="1" height="1" fill="#2E2870" /><rect x="6" y="6" width="1" height="1" fill="#2E2870" /><rect x="7" y="6" width="1" height="1" fill="#2E2870" /><rect x="8" y="6" width="1" height="1" fill="#2E2870" /><rect x="9" y="6" width="1" height="1" fill="#2E2870" /><rect x="0" y="7" width="1" height="1" fill="#1A1847" /><rect x="1" y="7" width="1" height="1" fill="#120E36" /><rect x="2" y="7" width="1" height="1" fill="#141139" /><rect x="3" y="7" width="1" height="1" fill="#141139" /><rect x="4" y="7" width="1" height="1" fill="#141139" /><rect x="5" y="7" width="1" height="1" fill="#141139" /><rect x="6" y="7" width="1" height="1" fill="#141139" /><rect x="7" y="7" width="1" height="1" fill="#141139" /><rect x="8" y="7" width="1" height="1" fill="#141139" /><rect x="9" y="7" width="1" height="1" fill="#120E35" /><rect x="0" y="8" width="1" height="1" fill="#010208" /><rect x="1" y="8" width="1" height="1" fill="#000000" /><rect x="2" y="8" width="1" height="1" fill="#000000" /><rect x="3" y="8" width="1" height="1" fill="#000000" /><rect x="4" y="8" width="1" height="1" fill="#000000" /><rect x="5" y="8" width="1" height="1" fill="#000000" /><rect x="6" y="8" width="1" height="1" fill="#000000" /><rect x="7" y="8" width="1" height="1" fill="#000000" /><rect x="8" y="8" width="1" height="1" fill="#000000" /><rect x="9" y="8" width="1" height="1" fill="#000000" /><rect x="0" y="9" width="1" height="1" fill="#000000" /><rect x="1" y="9" width="1" height="1" fill="#000000" /><rect x="2" y="9" width="1" height="1" fill="#000000" /><rect x="3" y="9" width="1" height="1" fill="#000000" /><rect x="4" y="9" width="1" height="1" fill="#000000" /><rect x="5" y="9" width="1" height="1" fill="#000000" /><rect x="6" y="9" width="1" height="1" fill="#000000" /><rect x="7" y="9" width="1" height="1" fill="#000000" /><rect x="8" y="9" width="1" height="1" fill="#000000" /><rect x="9" y="9" width="1" height="1" fill="#000000" />
  </g>
</svg>