<svg width="800" height="1000" version="1.1" xmlns="http://www.w3.org/2000/svg" xmlns:xlink="http://www.w3.org/1999/xlink">
  <defs>
      <linearGradient id="Gradient2" x1="0" x2="1" y1="0" y2="1">
        <stop offset="0%" stop-color="#2d3c96"/>
        <stop offset="100%" stop-color="#d53392"/>
      </linearGradient>
  </defs>
  <rect x="10" y="10" width="780" height="980" fill="url(#Gradient2)" rx="50" ry="50" stroke="#ffd700" stroke-width="20"/>
  <text x="400" y="920" width="780" text-anchor="middle" style="font: bold 200px 'Helvetica Neue'; fill: #ffd700">02447</text>

  <g transform="translate(80 80) scale(64)">
<rect x="0" y="0" width="1" height="1" fill="#000100" />
,<rect x="0" y="1" width="1" height="1" fill="#210d46" />
,<rect x="0" y="2" width="1" height="1" fill="#6710a4" />
,<rect x="0" y="3" width="1" height="1" fill="#3d1c79" />
,<rect x="0" y="4" width="1" height="1" fill="#1e2457" />
,<rect x="0" y="5" width="1" height="1" fill="#21225a" />
,<rect x="0" y="6" width="1" height="1" fill="#20245f" />
,<rect x="0" y="7" width="1" height="1" fill="#121841" />
,<rect x="0" y="8" width="1" height="1" fill="#020410" />
,<rect x="0" y="9" width="1" height="1" fill="#000000" />
,<rect x="1" y="0" width="1" height="1" fill="#000000" />
,<rect x="1" y="1" width="1" height="1" fill="#000101" />
,<rect x="1" y="2" width="1" height="1" fill="#061729" />
,<rect x="1" y="3" width="1" height="1" fill="#1f1f53" />
,<rect x="1" y="4" width="1" height="1" fill="#2a2267" />
,<rect x="1" y="5" width="1" height="1" fill="#25215f" />
,<rect x="1" y="6" width="1" height="1" fill="#251f5e" />
,<rect x="1" y="7" width="1" height="1" fill="#2d256e" />
,<rect x="1" y="8" width="1" height="1" fill="#2a2368" />
,<rect x="1" y="9" width="1" height="1" fill="#010004" />
,<rect x="2" y="0" width="1" height="1" fill="#000000" />
,<rect x="2" y="1" width="1" height="1" fill="#010107" />
,<rect x="2" y="2" width="1" height="1" fill="#1a1c4a" />
,<rect x="2" y="3" width="1" height="1" fill="#0e1b38" />
,<rect x="2" y="4" width="1" height="1" fill="#2b125b" />
,<rect x="2" y="5" width="1" height="1" fill="#610ba3" />
,<rect x="2" y="6" width="1" height="1" fill="#9e1ee6" />
,<rect x="2" y="7" width="1" height="1" fill="#920de3" />
,<rect x="2" y="8" width="1" height="1" fill="#400086" />
,<rect x="2" y="9" width="1" height="1" fill="#000000" />
,<rect x="3" y="0" width="1" height="1" fill="#170220" />
,<rect x="3" y="1" width="1" height="1" fill="#000000" />
,<rect x="3" y="2" width="1" height="1" fill="#050517" />
,<rect x="3" y="3" width="1" height="1" fill="#01111b" />
,<rect x="3" y="4" width="1" height="1" fill="#431779" />
,<rect x="3" y="5" width="1" height="1" fill="#a91ff2" />
,<rect x="3" y="6" width="1" height="1" fill="#e673ff" />
,<rect x="3" y="7" width="1" height="1" fill="#e889ff" />
,<rect x="3" y="8" width="1" height="1" fill="#b364dd" />
,<rect x="3" y="9" width="1" height="1" fill="#731b9f" />
,<rect x="4" y="0" width="1" height="1" fill="#531369" />
,<rect x="4" y="1" width="1" height="1" fill="#000000" />
,<rect x="4" y="2" width="1" height="1" fill="#000000" />
,<rect x="4" y="3" width="1" height="1" fill="#000402" />
,<rect x="4" y="4" width="1" height="1" fill="#521b89" />
,<rect x="4" y="5" width="1" height="1" fill="#d538ff" />
,<rect x="4" y="6" width="1" height="1" fill="#f9baff" />
,<rect x="4" y="7" width="1" height="1" fill="#fff6ff" />
,<rect x="4" y="8" width="1" height="1" fill="#ffd5ff" />
,<rect x="4" y="9" width="1" height="1" fill="#ff60ff" />
,<rect x="5" y="0" width="1" height="1" fill="#3f0d53" />
,<rect x="5" y="1" width="1" height="1" fill="#000000" />
,<rect x="5" y="2" width="1" height="1" fill="#000000" />
,<rect x="5" y="3" width="1" height="1" fill="#000000" />
,<rect x="5" y="4" width="1" height="1" fill="#420563" />
,<rect x="5" y="5" width="1" height="1" fill="#e83dff" />
,<rect x="5" y="6" width="1" height="1" fill="#ffbcff" />
,<rect x="5" y="7" width="1" height="1" fill="#ffeeff" />
,<rect x="5" y="8" width="1" height="1" fill="#ffd4ff" />
,<rect x="5" y="9" width="1" height="1" fill="#ffa8ff" />
,<rect x="6" y="0" width="1" height="1" fill="#9025c3" />
,<rect x="6" y="1" width="1" height="1" fill="#4c1263" />
,<rect x="6" y="2" width="1" height="1" fill="#000000" />
,<rect x="6" y="3" width="1" height="1" fill="#000000" />
,<rect x="6" y="4" width="1" height="1" fill="#12001c" />
,<rect x="6" y="5" width="1" height="1" fill="#5a127c" />
,<rect x="6" y="6" width="1" height="1" fill="#735b8d" />
,<rect x="6" y="7" width="1" height="1" fill="#9e74c2" />
,<rect x="6" y="8" width="1" height="1" fill="#c463f7" />
,<rect x="6" y="9" width="1" height="1" fill="#ce54f9" />
,<rect x="7" y="0" width="1" height="1" fill="#b92cff" />
,<rect x="7" y="1" width="1" height="1" fill="#b433e8" />
,<rect x="7" y="2" width="1" height="1" fill="#210433" />
,<rect x="7" y="3" width="1" height="1" fill="#010001" />
,<rect x="7" y="4" width="1" height="1" fill="#000000" />
,<rect x="7" y="5" width="1" height="1" fill="#000000" />
,<rect x="7" y="6" width="1" height="1" fill="#000000" />
,<rect x="7" y="7" width="1" height="1" fill="#10003f" />
,<rect x="7" y="8" width="1" height="1" fill="#500094" />
,<rect x="7" y="9" width="1" height="1" fill="#5b01a7" />
,<rect x="8" y="0" width="1" height="1" fill="#6307a6" />
,<rect x="8" y="1" width="1" height="1" fill="#891acc" />
,<rect x="8" y="2" width="1" height="1" fill="#e344ff" />
,<rect x="8" y="3" width="1" height="1" fill="#3c0c51" />
,<rect x="8" y="4" width="1" height="1" fill="#000000" />
,<rect x="8" y="5" width="1" height="1" fill="#000000" />
,<rect x="8" y="6" width="1" height="1" fill="#000000" />
,<rect x="8" y="7" width="1" height="1" fill="#000000" />
,<rect x="8" y="8" width="1" height="1" fill="#000000" />
,<rect x="8" y="9" width="1" height="1" fill="#22225e" />
,<rect x="9" y="0" width="1" height="1" fill="#8d46c0" />
,<rect x="9" y="1" width="1" height="1" fill="#7711b9" />
,<rect x="9" y="2" width="1" height="1" fill="#911cd7" />
,<rect x="9" y="3" width="1" height="1" fill="#650ca2" />
,<rect x="9" y="4" width="1" height="1" fill="#1a0034" />
,<rect x="9" y="5" width="1" height="1" fill="#000000" />
,<rect x="9" y="6" width="1" height="1" fill="#000000" />
,<rect x="9" y="7" width="1" height="1" fill="#000000" />
,<rect x="9" y="8" width="1" height="1" fill="#000000" />
,<rect x="9" y="9" width="1" height="1" fill="#020411" />

  </g>
</svg>