<svg width="800" height="1000" version="1.1" xmlns="http://www.w3.org/2000/svg" xmlns:xlink="http://www.w3.org/1999/xlink">
  <defs>
      <linearGradient id="Gradient2" x1="0" x2="1" y1="0" y2="1">
        <stop offset="0%" stop-color="#2d3c96"/>
        <stop offset="100%" stop-color="#d53392"/>
      </linearGradient>
  </defs>
  <rect x="10" y="10" width="780" height="980" fill="url(#Gradient2)" rx="50" ry="50" stroke="#ffd700" stroke-width="20"/>
  <text x="400" y="920" width="780" text-anchor="middle" style="font: bold 200px 'Helvetica Neue'; fill: #ffd700">02447</text>

  <g transform="translate(80 80) scale(64)">
<rect x="0" y="0" width="1" height="1" fill="#000100" /><rect x="1" y="0" width="1" height="1" fill="#000000" /><rect x="2" y="0" width="1" height="1" fill="#000000" /><rect x="3" y="0" width="1" height="1" fill="#170220" /><rect x="4" y="0" width="1" height="1" fill="#531369" /><rect x="5" y="0" width="1" height="1" fill="#3F0D53" /><rect x="6" y="0" width="1" height="1" fill="#9025C3" /><rect x="7" y="0" width="1" height="1" fill="#B92CFF" /><rect x="8" y="0" width="1" height="1" fill="#6307A6" /><rect x="9" y="0" width="1" height="1" fill="#8D46C0" /><rect x="0" y="1" width="1" height="1" fill="#210D46" /><rect x="1" y="1" width="1" height="1" fill="#000101" /><rect x="2" y="1" width="1" height="1" fill="#010107" /><rect x="3" y="1" width="1" height="1" fill="#000000" /><rect x="4" y="1" width="1" height="1" fill="#000000" /><rect x="5" y="1" width="1" height="1" fill="#000000" /><rect x="6" y="1" width="1" height="1" fill="#4C1263" /><rect x="7" y="1" width="1" height="1" fill="#B433E8" /><rect x="8" y="1" width="1" height="1" fill="#891ACC" /><rect x="9" y="1" width="1" height="1" fill="#7711B9" /><rect x="0" y="2" width="1" height="1" fill="#6710A4" /><rect x="1" y="2" width="1" height="1" fill="#061729" /><rect x="2" y="2" width="1" height="1" fill="#1A1C4A" /><rect x="3" y="2" width="1" height="1" fill="#050517" /><rect x="4" y="2" width="1" height="1" fill="#000000" /><rect x="5" y="2" width="1" height="1" fill="#000000" /><rect x="6" y="2" width="1" height="1" fill="#000000" /><rect x="7" y="2" width="1" height="1" fill="#210433" /><rect x="8" y="2" width="1" height="1" fill="#E344FF" /><rect x="9" y="2" width="1" height="1" fill="#911CD7" /><rect x="0" y="3" width="1" height="1" fill="#3D1C79" /><rect x="1" y="3" width="1" height="1" fill="#1F1F53" /><rect x="2" y="3" width="1" height="1" fill="#0E1B38" /><rect x="3" y="3" width="1" height="1" fill="#01111B" /><rect x="4" y="3" width="1" height="1" fill="#000402" /><rect x="5" y="3" width="1" height="1" fill="#000000" /><rect x="6" y="3" width="1" height="1" fill="#000000" /><rect x="7" y="3" width="1" height="1" fill="#010001" /><rect x="8" y="3" width="1" height="1" fill="#3C0C51" /><rect x="9" y="3" width="1" height="1" fill="#650CA2" /><rect x="0" y="4" width="1" height="1" fill="#1E2457" /><rect x="1" y="4" width="1" height="1" fill="#2A2267" /><rect x="2" y="4" width="1" height="1" fill="#2B125B" /><rect x="3" y="4" width="1" height="1" fill="#431779" /><rect x="4" y="4" width="1" height="1" fill="#521B89" /><rect x="5" y="4" width="1" height="1" fill="#420563" /><rect x="6" y="4" width="1" height="1" fill="#12001C" /><rect x="7" y="4" width="1" height="1" fill="#000000" /><rect x="8" y="4" width="1" height="1" fill="#000000" /><rect x="9" y="4" width="1" height="1" fill="#1A0034" /><rect x="0" y="5" width="1" height="1" fill="#21225A" /><rect x="1" y="5" width="1" height="1" fill="#25215F" /><rect x="2" y="5" width="1" height="1" fill="#610BA3" /><rect x="3" y="5" width="1" height="1" fill="#A91FF2" /><rect x="4" y="5" width="1" height="1" fill="#D538FF" /><rect x="5" y="5" width="1" height="1" fill="#E83DFF" /><rect x="6" y="5" width="1" height="1" fill="#5A127C" /><rect x="7" y="5" width="1" height="1" fill="#000000" /><rect x="8" y="5" width="1" height="1" fill="#000000" /><rect x="9" y="5" width="1" height="1" fill="#000000" /><rect x="0" y="6" width="1" height="1" fill="#20245F" /><rect x="1" y="6" width="1" height="1" fill="#251F5E" /><rect x="2" y="6" width="1" height="1" fill="#9E1EE6" /><rect x="3" y="6" width="1" height="1" fill="#E673FF" /><rect x="4" y="6" width="1" height="1" fill="#F9BAFF" /><rect x="5" y="6" width="1" height="1" fill="#FFBCFF" /><rect x="6" y="6" width="1" height="1" fill="#735B8D" /><rect x="7" y="6" width="1" height="1" fill="#000000" /><rect x="8" y="6" width="1" height="1" fill="#000000" /><rect x="9" y="6" width="1" height="1" fill="#000000" /><rect x="0" y="7" width="1" height="1" fill="#121841" /><rect x="1" y="7" width="1" height="1" fill="#2D256E" /><rect x="2" y="7" width="1" height="1" fill="#920DE3" /><rect x="3" y="7" width="1" height="1" fill="#E889FF" /><rect x="4" y="7" width="1" height="1" fill="#FFF6FF" /><rect x="5" y="7" width="1" height="1" fill="#FFEEFF" /><rect x="6" y="7" width="1" height="1" fill="#9E74C2" /><rect x="7" y="7" width="1" height="1" fill="#10003F" /><rect x="8" y="7" width="1" height="1" fill="#000000" /><rect x="9" y="7" width="1" height="1" fill="#000000" /><rect x="0" y="8" width="1" height="1" fill="#020410" /><rect x="1" y="8" width="1" height="1" fill="#2A2368" /><rect x="2" y="8" width="1" height="1" fill="#400086" /><rect x="3" y="8" width="1" height="1" fill="#B364DD" /><rect x="4" y="8" width="1" height="1" fill="#FFD5FF" /><rect x="5" y="8" width="1" height="1" fill="#FFD4FF" /><rect x="6" y="8" width="1" height="1" fill="#C463F7" /><rect x="7" y="8" width="1" height="1" fill="#500094" /><rect x="8" y="8" width="1" height="1" fill="#000000" /><rect x="9" y="8" width="1" height="1" fill="#000000" /><rect x="0" y="9" width="1" height="1" fill="#000000" /><rect x="1" y="9" width="1" height="1" fill="#010004" /><rect x="2" y="9" width="1" height="1" fill="#000000" /><rect x="3" y="9" width="1" height="1" fill="#731B9F" /><rect x="4" y="9" width="1" height="1" fill="#FF60FF" /><rect x="5" y="9" width="1" height="1" fill="#FFA8FF" /><rect x="6" y="9" width="1" height="1" fill="#CE54F9" /><rect x="7" y="9" width="1" height="1" fill="#5B01A7" /><rect x="8" y="9" width="1" height="1" fill="#22225E" /><rect x="9" y="9" width="1" height="1" fill="#020411" />
  </g>
</svg>