<svg width="800" height="1000" version="1.1" xmlns="http://www.w3.org/2000/svg" xmlns:xlink="http://www.w3.org/1999/xlink">
  <defs>
      <linearGradient id="Gradient2" x1="0" x2="1" y1="0" y2="1">
        <stop offset="0%" stop-color="#2d3c96"/>
        <stop offset="100%" stop-color="#d53392"/>
      </linearGradient>
  </defs>
  <rect x="10" y="10" width="780" height="980" fill="url(#Gradient2)" rx="50" ry="50" stroke="#ffd700" stroke-width="20"/>
  <text x="400" y="920" width="780" text-anchor="middle" style="font: bold 200px 'Helvetica Neue'; fill: #ffd700">02503</text>

  <g transform="translate(80 80) scale(64)">
<rect x="0" y="0" width="1" height="1" fill="#fff2fe" />
,<rect x="0" y="1" width="1" height="1" fill="#4c2635" />
,<rect x="0" y="2" width="1" height="1" fill="#7a3c53" />
,<rect x="0" y="3" width="1" height="1" fill="#f7c0d5" />
,<rect x="0" y="4" width="1" height="1" fill="#fff8ff" />
,<rect x="0" y="5" width="1" height="1" fill="#fffeff" />
,<rect x="0" y="6" width="1" height="1" fill="#fffeff" />
,<rect x="0" y="7" width="1" height="1" fill="#ffffff" />
,<rect x="0" y="8" width="1" height="1" fill="#fcffff" />
,<rect x="0" y="9" width="1" height="1" fill="#fcffff" />
,<rect x="1" y="0" width="1" height="1" fill="#fffcff" />
,<rect x="1" y="1" width="1" height="1" fill="#a18d96" />
,<rect x="1" y="2" width="1" height="1" fill="#5e3545" />
,<rect x="1" y="3" width="1" height="1" fill="#fff1ff" />
,<rect x="1" y="4" width="1" height="1" fill="#fffcff" />
,<rect x="1" y="5" width="1" height="1" fill="#fcffff" />
,<rect x="1" y="6" width="1" height="1" fill="#feffff" />
,<rect x="1" y="7" width="1" height="1" fill="#feffff" />
,<rect x="1" y="8" width="1" height="1" fill="#fcffff" />
,<rect x="1" y="9" width="1" height="1" fill="#feffff" />
,<rect x="2" y="0" width="1" height="1" fill="#f8fcfb" />
,<rect x="2" y="1" width="1" height="1" fill="#e8e2e4" />
,<rect x="2" y="2" width="1" height="1" fill="#fff4ff" />
,<rect x="2" y="3" width="1" height="1" fill="#fff6ff" />
,<rect x="2" y="4" width="1" height="1" fill="#ffffff" />
,<rect x="2" y="5" width="1" height="1" fill="#f9ffff" />
,<rect x="2" y="6" width="1" height="1" fill="#fcffff" />
,<rect x="2" y="7" width="1" height="1" fill="#feffff" />
,<rect x="2" y="8" width="1" height="1" fill="#feffff" />
,<rect x="2" y="9" width="1" height="1" fill="#ffffff" />
,<rect x="3" y="0" width="1" height="1" fill="#f5fefb" />
,<rect x="3" y="1" width="1" height="1" fill="#fafafa" />
,<rect x="3" y="2" width="1" height="1" fill="#fffaff" />
,<rect x="3" y="3" width="1" height="1" fill="#fffaff" />
,<rect x="3" y="4" width="1" height="1" fill="#feffff" />
,<rect x="3" y="5" width="1" height="1" fill="#f8ffff" />
,<rect x="3" y="6" width="1" height="1" fill="#fbffff" />
,<rect x="3" y="7" width="1" height="1" fill="#fcffff" />
,<rect x="3" y="8" width="1" height="1" fill="#feffff" />
,<rect x="3" y="9" width="1" height="1" fill="#ffffff" />
,<rect x="4" y="0" width="1" height="1" fill="#fcffff" />
,<rect x="4" y="1" width="1" height="1" fill="#fdfbfc" />
,<rect x="4" y="2" width="1" height="1" fill="#fffbff" />
,<rect x="4" y="3" width="1" height="1" fill="#fffafe" />
,<rect x="4" y="4" width="1" height="1" fill="#feffff" />
,<rect x="4" y="5" width="1" height="1" fill="#f9ffff" />
,<rect x="4" y="6" width="1" height="1" fill="#fcffff" />
,<rect x="4" y="7" width="1" height="1" fill="#feffff" />
,<rect x="4" y="8" width="1" height="1" fill="#fefefe" />
,<rect x="4" y="9" width="1" height="1" fill="#fffeff" />
,<rect x="5" y="0" width="1" height="1" fill="#fbfffe" />
,<rect x="5" y="1" width="1" height="1" fill="#feffff" />
,<rect x="5" y="2" width="1" height="1" fill="#fffdff" />
,<rect x="5" y="3" width="1" height="1" fill="#fffdff" />
,<rect x="5" y="4" width="1" height="1" fill="#fcffff" />
,<rect x="5" y="5" width="1" height="1" fill="#fbffff" />
,<rect x="5" y="6" width="1" height="1" fill="#fcffff" />
,<rect x="5" y="7" width="1" height="1" fill="#feffff" />
,<rect x="5" y="8" width="1" height="1" fill="#ffffff" />
,<rect x="5" y="9" width="1" height="1" fill="#fffeff" />
,<rect x="6" y="0" width="1" height="1" fill="#f7fffe" />
,<rect x="6" y="1" width="1" height="1" fill="#f6fcfa" />
,<rect x="6" y="2" width="1" height="1" fill="#fdfffe" />
,<rect x="6" y="3" width="1" height="1" fill="#feffff" />
,<rect x="6" y="4" width="1" height="1" fill="#fbfffe" />
,<rect x="6" y="5" width="1" height="1" fill="#fcffff" />
,<rect x="6" y="6" width="1" height="1" fill="#feffff" />
,<rect x="6" y="7" width="1" height="1" fill="#ffffff" />
,<rect x="6" y="8" width="1" height="1" fill="#fffeff" />
,<rect x="6" y="9" width="1" height="1" fill="#fffeff" />
,<rect x="7" y="0" width="1" height="1" fill="#f9ffff" />
,<rect x="7" y="1" width="1" height="1" fill="#fbffff" />
,<rect x="7" y="2" width="1" height="1" fill="#fcffff" />
,<rect x="7" y="3" width="1" height="1" fill="#f9fdfc" />
,<rect x="7" y="4" width="1" height="1" fill="#fcffff" />
,<rect x="7" y="5" width="1" height="1" fill="#feffff" />
,<rect x="7" y="6" width="1" height="1" fill="#ffffff" />
,<rect x="7" y="7" width="1" height="1" fill="#fffeff" />
,<rect x="7" y="8" width="1" height="1" fill="#fffeff" />
,<rect x="7" y="9" width="1" height="1" fill="#fffdff" />
,<rect x="8" y="0" width="1" height="1" fill="#f2f2f2" />
,<rect x="8" y="1" width="1" height="1" fill="#ffffff" />
,<rect x="8" y="2" width="1" height="1" fill="#fdfdfb" />
,<rect x="8" y="3" width="1" height="1" fill="#fffffd" />
,<rect x="8" y="4" width="1" height="1" fill="#fffffd" />
,<rect x="8" y="5" width="1" height="1" fill="#fffefd" />
,<rect x="8" y="6" width="1" height="1" fill="#fffdfe" />
,<rect x="8" y="7" width="1" height="1" fill="#fffdfe" />
,<rect x="8" y="8" width="1" height="1" fill="#fffeff" />
,<rect x="8" y="9" width="1" height="1" fill="#ffffff" />
,<rect x="9" y="0" width="1" height="1" fill="#fffeff" />
,<rect x="9" y="1" width="1" height="1" fill="#fffeff" />
,<rect x="9" y="2" width="1" height="1" fill="#fbfbf9" />
,<rect x="9" y="3" width="1" height="1" fill="#fffffd" />
,<rect x="9" y="4" width="1" height="1" fill="#fffefd" />
,<rect x="9" y="5" width="1" height="1" fill="#fffdfd" />
,<rect x="9" y="6" width="1" height="1" fill="#fffeff" />
,<rect x="9" y="7" width="1" height="1" fill="#fffeff" />
,<rect x="9" y="8" width="1" height="1" fill="#ffffff" />
,<rect x="9" y="9" width="1" height="1" fill="#feffff" />

  </g>
</svg>