<svg width="800" height="1000" version="1.1" xmlns="http://www.w3.org/2000/svg" xmlns:xlink="http://www.w3.org/1999/xlink">
  <defs>
      <linearGradient id="Gradient2" x1="0" x2="1" y1="0" y2="1">
        <stop offset="0%" stop-color="#2d3c96"/>
        <stop offset="100%" stop-color="#d53392"/>
      </linearGradient>
  </defs>
  <rect x="10" y="10" width="780" height="980" fill="url(#Gradient2)" rx="50" ry="50" stroke="#ffd700" stroke-width="20"/>
  <text x="400" y="920" width="780" text-anchor="middle" style="font: bold 200px 'Helvetica Neue'; fill: #ffd700">02504</text>

  <g transform="translate(80 80) scale(64)">
<rect x="0" y="0" width="1" height="1" fill="#ffffff" />
,<rect x="0" y="1" width="1" height="1" fill="#fafafa" />
,<rect x="0" y="2" width="1" height="1" fill="#fcfffd" />
,<rect x="0" y="3" width="1" height="1" fill="#fafcf9" />
,<rect x="0" y="4" width="1" height="1" fill="#fffefd" />
,<rect x="0" y="5" width="1" height="1" fill="#fffdfd" />
,<rect x="0" y="6" width="1" height="1" fill="#fffeff" />
,<rect x="0" y="7" width="1" height="1" fill="#fffeff" />
,<rect x="0" y="8" width="1" height="1" fill="#fefeff" />
,<rect x="0" y="9" width="1" height="1" fill="#fcfdff" />
,<rect x="1" y="0" width="1" height="1" fill="#fdfbfc" />
,<rect x="1" y="1" width="1" height="1" fill="#fefefc" />
,<rect x="1" y="2" width="1" height="1" fill="#fbfffc" />
,<rect x="1" y="3" width="1" height="1" fill="#fcfffd" />
,<rect x="1" y="4" width="1" height="1" fill="#fffffd" />
,<rect x="1" y="5" width="1" height="1" fill="#fffefd" />
,<rect x="1" y="6" width="1" height="1" fill="#fffdff" />
,<rect x="1" y="7" width="1" height="1" fill="#fffeff" />
,<rect x="1" y="8" width="1" height="1" fill="#fbfcfe" />
,<rect x="1" y="9" width="1" height="1" fill="#f3f9f9" />
,<rect x="2" y="0" width="1" height="1" fill="#fffbfb" />
,<rect x="2" y="1" width="1" height="1" fill="#ece7e4" />
,<rect x="2" y="2" width="1" height="1" fill="#edefea" />
,<rect x="2" y="3" width="1" height="1" fill="#e8ede7" />
,<rect x="2" y="4" width="1" height="1" fill="#eff1ee" />
,<rect x="2" y="5" width="1" height="1" fill="#f9f7f8" />
,<rect x="2" y="6" width="1" height="1" fill="#f1e8ed" />
,<rect x="2" y="7" width="1" height="1" fill="#f7f1f5" />
,<rect x="2" y="8" width="1" height="1" fill="#e8f1f0" />
,<rect x="2" y="9" width="1" height="1" fill="#f1fbfc" />
,<rect x="3" y="0" width="1" height="1" fill="#e2dedd" />
,<rect x="3" y="1" width="1" height="1" fill="#faf6f3" />
,<rect x="3" y="2" width="1" height="1" fill="#e4e5e0" />
,<rect x="3" y="3" width="1" height="1" fill="#eff0eb" />
,<rect x="3" y="4" width="1" height="1" fill="#fafaf8" />
,<rect x="3" y="5" width="1" height="1" fill="#f3eff0" />
,<rect x="3" y="6" width="1" height="1" fill="#faf1f6" />
,<rect x="3" y="7" width="1" height="1" fill="#faf5f9" />
,<rect x="3" y="8" width="1" height="1" fill="#e8f1f0" />
,<rect x="3" y="9" width="1" height="1" fill="#f5ffff" />
,<rect x="4" y="0" width="1" height="1" fill="#fcfefd" />
,<rect x="4" y="1" width="1" height="1" fill="#fafffb" />
,<rect x="4" y="2" width="1" height="1" fill="#dcdbd9" />
,<rect x="4" y="3" width="1" height="1" fill="#fffdfd" />
,<rect x="4" y="4" width="1" height="1" fill="#ebe0e4" />
,<rect x="4" y="5" width="1" height="1" fill="#fff9fd" />
,<rect x="4" y="6" width="1" height="1" fill="#fcf6fa" />
,<rect x="4" y="7" width="1" height="1" fill="#fffeff" />
,<rect x="4" y="8" width="1" height="1" fill="#fcffff" />
,<rect x="4" y="9" width="1" height="1" fill="#eff7f9" />
,<rect x="5" y="0" width="1" height="1" fill="#fefdfb" />
,<rect x="5" y="1" width="1" height="1" fill="#fbffff" />
,<rect x="5" y="2" width="1" height="1" fill="#e3e5e4" />
,<rect x="5" y="3" width="1" height="1" fill="#dbd9dc" />
,<rect x="5" y="4" width="1" height="1" fill="#fffcff" />
,<rect x="5" y="5" width="1" height="1" fill="#fff5f9" />
,<rect x="5" y="6" width="1" height="1" fill="#fffeff" />
,<rect x="5" y="7" width="1" height="1" fill="#fefffd" />
,<rect x="5" y="8" width="1" height="1" fill="#f6fcf8" />
,<rect x="5" y="9" width="1" height="1" fill="#fefffb" />
,<rect x="6" y="0" width="1" height="1" fill="#fffbf8" />
,<rect x="6" y="1" width="1" height="1" fill="#ffffff" />
,<rect x="6" y="2" width="1" height="1" fill="#eefafa" />
,<rect x="6" y="3" width="1" height="1" fill="#e2edef" />
,<rect x="6" y="4" width="1" height="1" fill="#edf0f5" />
,<rect x="6" y="5" width="1" height="1" fill="#ffffff" />
,<rect x="6" y="6" width="1" height="1" fill="#fcfefb" />
,<rect x="6" y="7" width="1" height="1" fill="#fbfff8" />
,<rect x="6" y="8" width="1" height="1" fill="#eeffec" />
,<rect x="6" y="9" width="1" height="1" fill="#ffffed" />
,<rect x="7" y="0" width="1" height="1" fill="#fff1ef" />
,<rect x="7" y="1" width="1" height="1" fill="#fff4f6" />
,<rect x="7" y="2" width="1" height="1" fill="#fdfbfe" />
,<rect x="7" y="3" width="1" height="1" fill="#feffff" />
,<rect x="7" y="4" width="1" height="1" fill="#fceff6" />
,<rect x="7" y="5" width="1" height="1" fill="#fff6fa" />
,<rect x="7" y="6" width="1" height="1" fill="#fff4f2" />
,<rect x="7" y="7" width="1" height="1" fill="#fff0e7" />
,<rect x="7" y="8" width="1" height="1" fill="#fff8e6" />
,<rect x="7" y="9" width="1" height="1" fill="#ffeddb" />
,<rect x="8" y="0" width="1" height="1" fill="#ffd6da" />
,<rect x="8" y="1" width="1" height="1" fill="#ffebf1" />
,<rect x="8" y="2" width="1" height="1" fill="#fff2f9" />
,<rect x="8" y="3" width="1" height="1" fill="#fff2f9" />
,<rect x="8" y="4" width="1" height="1" fill="#ffecf6" />
,<rect x="8" y="5" width="1" height="1" fill="#ffe3ec" />
,<rect x="8" y="6" width="1" height="1" fill="#ffb9c0" />
,<rect x="8" y="7" width="1" height="1" fill="#e76e73" />
,<rect x="8" y="8" width="1" height="1" fill="#ab1f20" />
,<rect x="8" y="9" width="1" height="1" fill="#ad0f0e" />
,<rect x="9" y="0" width="1" height="1" fill="#9d1f23" />
,<rect x="9" y="1" width="1" height="1" fill="#d27d84" />
,<rect x="9" y="2" width="1" height="1" fill="#c38c92" />
,<rect x="9" y="3" width="1" height="1" fill="#b7828a" />
,<rect x="9" y="4" width="1" height="1" fill="#9c4855" />
,<rect x="9" y="5" width="1" height="1" fill="#9a2a36" />
,<rect x="9" y="6" width="1" height="1" fill="#9b121c" />
,<rect x="9" y="7" width="1" height="1" fill="#a6000c" />
,<rect x="9" y="8" width="1" height="1" fill="#cf0d18" />
,<rect x="9" y="9" width="1" height="1" fill="#e21117" />

  </g>
</svg>