<svg width="800" height="1000" xmlns="http://www.w3.org/2000/svg"><defs><linearGradient id="g" x1="0" x2="1" y1="0" y2="1"><stop offset="0%" stop-color="#2d3c96"/><stop offset="100%" stop-color="#d53392"/></linearGradient></defs><rect x="10" y="10" width="780" height="980" fill="url(#g)" rx="50" ry="50" stroke="gold" stroke-width="20"/><text x="400" y="920" width="780" text-anchor="middle" style="font:bold 200px 'Helvetica Neue';fill:gold">02539</text><g transform="translate(80 80) scale(64)"><rect x="0" y="0" width="1" height="1" fill="#650002" /><rect x="0" y="1" width="1" height="1" fill="#580000" /><rect x="0" y="2" width="1" height="1" fill="#480000" /><rect x="0" y="3" width="1" height="1" fill="#560801" /><rect x="0" y="4" width="1" height="1" fill="#650000" /><rect x="0" y="5" width="1" height="1" fill="#640000" /><rect x="0" y="6" width="1" height="1" fill="#6f0100" /><rect x="0" y="7" width="1" height="1" fill="#680000" /><rect x="0" y="8" width="1" height="1" fill="#650500" /><rect x="0" y="9" width="1" height="1" fill="#5f0500" /><rect x="1" y="0" width="1" height="1" fill="#76080f" /><rect x="1" y="1" width="1" height="1" fill="#650002" /><rect x="1" y="2" width="1" height="1" fill="#600d06" /><rect x="1" y="3" width="1" height="1" fill="#842e29" /><rect x="1" y="4" width="1" height="1" fill="#972426" /><rect x="1" y="5" width="1" height="1" fill="#890b0c" /><rect x="1" y="6" width="1" height="1" fill="#85090a" /><rect x="1" y="7" width="1" height="1" fill="#7a0403" /><rect x="1" y="8" width="1" height="1" fill="#710601" /><rect x="1" y="9" width="1" height="1" fill="#680500" /><rect x="2" y="0" width="1" height="1" fill="#940f1a" /><rect x="2" y="1" width="1" height="1" fill="#670100" /><rect x="2" y="2" width="1" height="1" fill="#590100" /><rect x="2" y="3" width="1" height="1" fill="#891d1c" /><rect x="2" y="4" width="1" height="1" fill="#a61f26" /><rect x="2" y="5" width="1" height="1" fill="#9f0b15" /><rect x="2" y="6" width="1" height="1" fill="#9f0e16" /><rect x="2" y="7" width="1" height="1" fill="#92080e" /><rect x="2" y="8" width="1" height="1" fill="#7e0001" /><rect x="2" y="9" width="1" height="1" fill="#750001" /><rect x="3" y="0" width="1" height="1" fill="#87010b" /><rect x="3" y="1" width="1" height="1" fill="#630000" /><rect x="3" y="2" width="1" height="1" fill="#550000" /><rect x="3" y="3" width="1" height="1" fill="#720502" /><rect x="3" y="4" width="1" height="1" fill="#7f0001" /><rect x="3" y="5" width="1" height="1" fill="#7e0000" /><rect x="3" y="6" width="1" height="1" fill="#9a0a13" /><rect x="3" y="7" width="1" height="1" fill="#a92025" /><rect x="3" y="8" width="1" height="1" fill="#8a0e0f" /><rect x="3" y="9" width="1" height="1" fill="#830e0b" /><rect x="4" y="0" width="1" height="1" fill="#871312" /><rect x="4" y="1" width="1" height="1" fill="#630100" /><rect x="4" y="2" width="1" height="1" fill="#450001" /><rect x="4" y="3" width="1" height="1" fill="#570100" /><rect x="4" y="4" width="1" height="1" fill="#700000" /><rect x="4" y="5" width="1" height="1" fill="#7b0001" /><rect x="4" y="6" width="1" height="1" fill="#870c0b" /><rect x="4" y="7" width="1" height="1" fill="#7d0d06" /><rect x="4" y="8" width="1" height="1" fill="#6c0901" /><rect x="4" y="9" width="1" height="1" fill="#650800" /><rect x="5" y="0" width="1" height="1" fill="#85110f" /><rect x="5" y="1" width="1" height="1" fill="#740d06" /><rect x="5" y="2" width="1" height="1" fill="#520101" /><rect x="5" y="3" width="1" height="1" fill="#530100" /><rect x="5" y="4" width="1" height="1" fill="#690000" /><rect x="5" y="5" width="1" height="1" fill="#6e0000" /><rect x="5" y="6" width="1" height="1" fill="#6f0001" /><rect x="5" y="7" width="1" height="1" fill="#670101" /><rect x="5" y="8" width="1" height="1" fill="#640800" /><rect x="5" y="9" width="1" height="1" fill="#5c0701" /><rect x="6" y="0" width="1" height="1" fill="#910e0e" /><rect x="6" y="1" width="1" height="1" fill="#89110d" /><rect x="6" y="2" width="1" height="1" fill="#5a0101" /><rect x="6" y="3" width="1" height="1" fill="#5e0001" /><rect x="6" y="4" width="1" height="1" fill="#860c08" /><rect x="6" y="5" width="1" height="1" fill="#870402" /><rect x="6" y="6" width="1" height="1" fill="#740000" /><rect x="6" y="7" width="1" height="1" fill="#6b0000" /><rect x="6" y="8" width="1" height="1" fill="#660300" /><rect x="6" y="9" width="1" height="1" fill="#5e0001" /><rect x="7" y="0" width="1" height="1" fill="#8f0100" /><rect x="7" y="1" width="1" height="1" fill="#9e1413" /><rect x="7" y="2" width="1" height="1" fill="#86100a" /><rect x="7" y="3" width="1" height="1" fill="#901d14" /><rect x="7" y="4" width="1" height="1" fill="#b52c2d" /><rect x="7" y="5" width="1" height="1" fill="#a31314" /><rect x="7" y="6" width="1" height="1" fill="#8f0405" /><rect x="7" y="7" width="1" height="1" fill="#931310" /><rect x="7" y="8" width="1" height="1" fill="#7f0d07" /><rect x="7" y="9" width="1" height="1" fill="#770c03" /><rect x="8" y="0" width="1" height="1" fill="#af030d" /><rect x="8" y="1" width="1" height="1" fill="#a9080f" /><rect x="8" y="2" width="1" height="1" fill="#9a1010" /><rect x="8" y="3" width="1" height="1" fill="#920b08" /><rect x="8" y="4" width="1" height="1" fill="#b91a20" /><rect x="8" y="5" width="1" height="1" fill="#b30f16" /><rect x="8" y="6" width="1" height="1" fill="#ae1218" /><rect x="8" y="7" width="1" height="1" fill="#ab1a1e" /><rect x="8" y="8" width="1" height="1" fill="#931010" /><rect x="8" y="9" width="1" height="1" fill="#8a100c" /><rect x="9" y="0" width="1" height="1" fill="#ac0000" /><rect x="9" y="1" width="1" height="1" fill="#a50000" /><rect x="9" y="2" width="1" height="1" fill="#950101" /><rect x="9" y="3" width="1" height="1" fill="#890001" /><rect x="9" y="4" width="1" height="1" fill="#ab030b" /><rect x="9" y="5" width="1" height="1" fill="#9e0000" /><rect x="9" y="6" width="1" height="1" fill="#980000" /><rect x="9" y="7" width="1" height="1" fill="#930101" /><rect x="9" y="8" width="1" height="1" fill="#870100" /><rect x="9" y="9" width="1" height="1" fill="#7f0001" /></g></svg>