<svg width="800" height="1000" version="1.1" xmlns="http://www.w3.org/2000/svg" xmlns:xlink="http://www.w3.org/1999/xlink">
  <defs>
      <linearGradient id="Gradient2" x1="0" x2="1" y1="0" y2="1">
        <stop offset="0%" stop-color="#2d3c96"/>
        <stop offset="100%" stop-color="#d53392"/>
      </linearGradient>
  </defs>
  <rect x="10" y="10" width="780" height="980" fill="url(#Gradient2)" rx="50" ry="50" stroke="#ffd700" stroke-width="20"/>
  <text x="400" y="920" width="780" text-anchor="middle" style="font: bold 200px 'Helvetica Neue'; fill: #ffd700">02544</text>

  <g transform="translate(80 80) scale(64)">
<rect x="0" y="0" width="1" height="1" fill="#C5A0E0" /><rect x="1" y="0" width="1" height="1" fill="#C9A7E2" /><rect x="2" y="0" width="1" height="1" fill="#FFFFFF" /><rect x="3" y="0" width="1" height="1" fill="#FFFFFF" /><rect x="4" y="0" width="1" height="1" fill="#D09DEE" /><rect x="5" y="0" width="1" height="1" fill="#9A23DD" /><rect x="6" y="0" width="1" height="1" fill="#C733FF" /><rect x="7" y="0" width="1" height="1" fill="#9525C2" /><rect x="8" y="0" width="1" height="1" fill="#450D60" /><rect x="9" y="0" width="1" height="1" fill="#000001" /><rect x="0" y="1" width="1" height="1" fill="#FFFFFF" /><rect x="1" y="1" width="1" height="1" fill="#FFFFFF" /><rect x="2" y="1" width="1" height="1" fill="#FFFFFF" /><rect x="3" y="1" width="1" height="1" fill="#FFFFFF" /><rect x="4" y="1" width="1" height="1" fill="#EDB5FF" /><rect x="5" y="1" width="1" height="1" fill="#C237FF" /><rect x="6" y="1" width="1" height="1" fill="#DF45FF" /><rect x="7" y="1" width="1" height="1" fill="#471265" /><rect x="8" y="1" width="1" height="1" fill="#000000" /><rect x="9" y="1" width="1" height="1" fill="#000000" /><rect x="0" y="2" width="1" height="1" fill="#FFFFFF" /><rect x="1" y="2" width="1" height="1" fill="#FFFFFF" /><rect x="2" y="2" width="1" height="1" fill="#FFFFFF" /><rect x="3" y="2" width="1" height="1" fill="#FFFFFF" /><rect x="4" y="2" width="1" height="1" fill="#E6B6FE" /><rect x="5" y="2" width="1" height="1" fill="#BB32FF" /><rect x="6" y="2" width="1" height="1" fill="#FF8EFF" /><rect x="7" y="2" width="1" height="1" fill="#744279" /><rect x="8" y="2" width="1" height="1" fill="#000000" /><rect x="9" y="2" width="1" height="1" fill="#000000" /><rect x="0" y="3" width="1" height="1" fill="#FFFFFF" /><rect x="1" y="3" width="1" height="1" fill="#FFFFFF" /><rect x="2" y="3" width="1" height="1" fill="#FFFFFF" /><rect x="3" y="3" width="1" height="1" fill="#B290D0" /><rect x="4" y="3" width="1" height="1" fill="#AD5CDA" /><rect x="5" y="3" width="1" height="1" fill="#E873FF" /><rect x="6" y="3" width="1" height="1" fill="#FF9CFF" /><rect x="7" y="3" width="1" height="1" fill="#75437A" /><rect x="8" y="3" width="1" height="1" fill="#000000" /><rect x="9" y="3" width="1" height="1" fill="#000000" /><rect x="0" y="4" width="1" height="1" fill="#FFFFFF" /><rect x="1" y="4" width="1" height="1" fill="#FFFFFF" /><rect x="2" y="4" width="1" height="1" fill="#FFFFFF" /><rect x="3" y="4" width="1" height="1" fill="#7A15BD" /><rect x="4" y="4" width="1" height="1" fill="#AC4AD8" /><rect x="5" y="4" width="1" height="1" fill="#FE9CFF" /><rect x="6" y="4" width="1" height="1" fill="#FF99FF" /><rect x="7" y="4" width="1" height="1" fill="#6F3C7A" /><rect x="8" y="4" width="1" height="1" fill="#000000" /><rect x="9" y="4" width="1" height="1" fill="#000000" /><rect x="0" y="5" width="1" height="1" fill="#FFFFFF" /><rect x="1" y="5" width="1" height="1" fill="#FFFFFF" /><rect x="2" y="5" width="1" height="1" fill="#FFFFFF" /><rect x="3" y="5" width="1" height="1" fill="#C352FF" /><rect x="4" y="5" width="1" height="1" fill="#CF56FF" /><rect x="5" y="5" width="1" height="1" fill="#F08DFF" /><rect x="6" y="5" width="1" height="1" fill="#FF97FF" /><rect x="7" y="5" width="1" height="1" fill="#703D7A" /><rect x="8" y="5" width="1" height="1" fill="#000000" /><rect x="9" y="5" width="1" height="1" fill="#000000" /><rect x="0" y="6" width="1" height="1" fill="#FFFFFF" /><rect x="1" y="6" width="1" height="1" fill="#FFFFFF" /><rect x="2" y="6" width="1" height="1" fill="#FFFFFF" /><rect x="3" y="6" width="1" height="1" fill="#C351FF" /><rect x="4" y="6" width="1" height="1" fill="#D15BFF" /><rect x="5" y="6" width="1" height="1" fill="#F698FF" /><rect x="6" y="6" width="1" height="1" fill="#FF98FF" /><rect x="7" y="6" width="1" height="1" fill="#6F3C7A" /><rect x="8" y="6" width="1" height="1" fill="#000000" /><rect x="9" y="6" width="1" height="1" fill="#000000" /><rect x="0" y="7" width="1" height="1" fill="#FFFFFF" /><rect x="1" y="7" width="1" height="1" fill="#FFFFFF" /><rect x="2" y="7" width="1" height="1" fill="#FFFFFF" /><rect x="3" y="7" width="1" height="1" fill="#C154FC" /><rect x="4" y="7" width="1" height="1" fill="#C74BFE" /><rect x="5" y="7" width="1" height="1" fill="#E779FF" /><rect x="6" y="7" width="1" height="1" fill="#FF9AFF" /><rect x="7" y="7" width="1" height="1" fill="#73417A" /><rect x="8" y="7" width="1" height="1" fill="#000000" /><rect x="9" y="7" width="1" height="1" fill="#000000" /><rect x="0" y="8" width="1" height="1" fill="#FFFFFF" /><rect x="1" y="8" width="1" height="1" fill="#FFFFFF" /><rect x="2" y="8" width="1" height="1" fill="#FFFFFF" /><rect x="3" y="8" width="1" height="1" fill="#C65CFD" /><rect x="4" y="8" width="1" height="1" fill="#B429FD" /><rect x="5" y="8" width="1" height="1" fill="#BD35FF" /><rect x="6" y="8" width="1" height="1" fill="#FF95FF" /><rect x="7" y="8" width="1" height="1" fill="#76467A" /><rect x="8" y="8" width="1" height="1" fill="#000000" /><rect x="9" y="8" width="1" height="1" fill="#000000" /><rect x="0" y="9" width="1" height="1" fill="#FFFFFF" /><rect x="1" y="9" width="1" height="1" fill="#FFFFFF" /><rect x="2" y="9" width="1" height="1" fill="#FFFFFF" /><rect x="3" y="9" width="1" height="1" fill="#D864FF" /><rect x="4" y="9" width="1" height="1" fill="#A125E6" /><rect x="5" y="9" width="1" height="1" fill="#7B12BF" /><rect x="6" y="9" width="1" height="1" fill="#DE4CFF" /><rect x="7" y="9" width="1" height="1" fill="#511A6A" /><rect x="8" y="9" width="1" height="1" fill="#000000" /><rect x="9" y="9" width="1" height="1" fill="#000000" />
  </g>
</svg>