<svg width="800" height="1000" xmlns="http://www.w3.org/2000/svg"><defs><linearGradient id="g" x1="0" x2="1" y1="0" y2="1"><stop offset="0%" stop-color="#2d3c96"/><stop offset="100%" stop-color="#d53392"/></linearGradient></defs><rect x="10" y="10" width="780" height="980" fill="url(#g)" rx="50" ry="50" stroke="gold" stroke-width="20"/><text x="400" y="920" width="780" text-anchor="middle" style="font:bold 200px 'Helvetica Neue';fill:gold">02544</text><g transform="translate(80 80) scale(64)"><rect x="0" y="0" width="1" height="1" fill="#c5a0e0" /><rect x="0" y="1" width="1" height="1" fill="#ffffff" /><rect x="0" y="2" width="1" height="1" fill="#ffffff" /><rect x="0" y="3" width="1" height="1" fill="#ffffff" /><rect x="0" y="4" width="1" height="1" fill="#ffffff" /><rect x="0" y="5" width="1" height="1" fill="#ffffff" /><rect x="0" y="6" width="1" height="1" fill="#ffffff" /><rect x="0" y="7" width="1" height="1" fill="#ffffff" /><rect x="0" y="8" width="1" height="1" fill="#ffffff" /><rect x="0" y="9" width="1" height="1" fill="#ffffff" /><rect x="1" y="0" width="1" height="1" fill="#c9a7e2" /><rect x="1" y="1" width="1" height="1" fill="#ffffff" /><rect x="1" y="2" width="1" height="1" fill="#ffffff" /><rect x="1" y="3" width="1" height="1" fill="#ffffff" /><rect x="1" y="4" width="1" height="1" fill="#ffffff" /><rect x="1" y="5" width="1" height="1" fill="#ffffff" /><rect x="1" y="6" width="1" height="1" fill="#ffffff" /><rect x="1" y="7" width="1" height="1" fill="#ffffff" /><rect x="1" y="8" width="1" height="1" fill="#ffffff" /><rect x="1" y="9" width="1" height="1" fill="#ffffff" /><rect x="2" y="0" width="1" height="1" fill="#ffffff" /><rect x="2" y="1" width="1" height="1" fill="#ffffff" /><rect x="2" y="2" width="1" height="1" fill="#ffffff" /><rect x="2" y="3" width="1" height="1" fill="#ffffff" /><rect x="2" y="4" width="1" height="1" fill="#ffffff" /><rect x="2" y="5" width="1" height="1" fill="#ffffff" /><rect x="2" y="6" width="1" height="1" fill="#ffffff" /><rect x="2" y="7" width="1" height="1" fill="#ffffff" /><rect x="2" y="8" width="1" height="1" fill="#ffffff" /><rect x="2" y="9" width="1" height="1" fill="#ffffff" /><rect x="3" y="0" width="1" height="1" fill="#ffffff" /><rect x="3" y="1" width="1" height="1" fill="#ffffff" /><rect x="3" y="2" width="1" height="1" fill="#ffffff" /><rect x="3" y="3" width="1" height="1" fill="#b290d0" /><rect x="3" y="4" width="1" height="1" fill="#7a15bd" /><rect x="3" y="5" width="1" height="1" fill="#c352ff" /><rect x="3" y="6" width="1" height="1" fill="#c351ff" /><rect x="3" y="7" width="1" height="1" fill="#c154fc" /><rect x="3" y="8" width="1" height="1" fill="#c65cfd" /><rect x="3" y="9" width="1" height="1" fill="#d864ff" /><rect x="4" y="0" width="1" height="1" fill="#d09dee" /><rect x="4" y="1" width="1" height="1" fill="#edb5ff" /><rect x="4" y="2" width="1" height="1" fill="#e6b6fe" /><rect x="4" y="3" width="1" height="1" fill="#ad5cda" /><rect x="4" y="4" width="1" height="1" fill="#ac4ad8" /><rect x="4" y="5" width="1" height="1" fill="#cf56ff" /><rect x="4" y="6" width="1" height="1" fill="#d15bff" /><rect x="4" y="7" width="1" height="1" fill="#c74bfe" /><rect x="4" y="8" width="1" height="1" fill="#b429fd" /><rect x="4" y="9" width="1" height="1" fill="#a125e6" /><rect x="5" y="0" width="1" height="1" fill="#9a23dd" /><rect x="5" y="1" width="1" height="1" fill="#c237ff" /><rect x="5" y="2" width="1" height="1" fill="#bb32ff" /><rect x="5" y="3" width="1" height="1" fill="#e873ff" /><rect x="5" y="4" width="1" height="1" fill="#fe9cff" /><rect x="5" y="5" width="1" height="1" fill="#f08dff" /><rect x="5" y="6" width="1" height="1" fill="#f698ff" /><rect x="5" y="7" width="1" height="1" fill="#e779ff" /><rect x="5" y="8" width="1" height="1" fill="#bd35ff" /><rect x="5" y="9" width="1" height="1" fill="#7b12bf" /><rect x="6" y="0" width="1" height="1" fill="#c733ff" /><rect x="6" y="1" width="1" height="1" fill="#df45ff" /><rect x="6" y="2" width="1" height="1" fill="#ff8eff" /><rect x="6" y="3" width="1" height="1" fill="#ff9cff" /><rect x="6" y="4" width="1" height="1" fill="#ff99ff" /><rect x="6" y="5" width="1" height="1" fill="#ff97ff" /><rect x="6" y="6" width="1" height="1" fill="#ff98ff" /><rect x="6" y="7" width="1" height="1" fill="#ff9aff" /><rect x="6" y="8" width="1" height="1" fill="#ff95ff" /><rect x="6" y="9" width="1" height="1" fill="#de4cff" /><rect x="7" y="0" width="1" height="1" fill="#9525c2" /><rect x="7" y="1" width="1" height="1" fill="#471265" /><rect x="7" y="2" width="1" height="1" fill="#744279" /><rect x="7" y="3" width="1" height="1" fill="#75437a" /><rect x="7" y="4" width="1" height="1" fill="#6f3c7a" /><rect x="7" y="5" width="1" height="1" fill="#703d7a" /><rect x="7" y="6" width="1" height="1" fill="#6f3c7a" /><rect x="7" y="7" width="1" height="1" fill="#73417a" /><rect x="7" y="8" width="1" height="1" fill="#76467a" /><rect x="7" y="9" width="1" height="1" fill="#511a6a" /><rect x="8" y="0" width="1" height="1" fill="#450d60" /><rect x="8" y="1" width="1" height="1" fill="#000000" /><rect x="8" y="2" width="1" height="1" fill="#000000" /><rect x="8" y="3" width="1" height="1" fill="#000000" /><rect x="8" y="4" width="1" height="1" fill="#000000" /><rect x="8" y="5" width="1" height="1" fill="#000000" /><rect x="8" y="6" width="1" height="1" fill="#000000" /><rect x="8" y="7" width="1" height="1" fill="#000000" /><rect x="8" y="8" width="1" height="1" fill="#000000" /><rect x="8" y="9" width="1" height="1" fill="#000000" /><rect x="9" y="0" width="1" height="1" fill="#000001" /><rect x="9" y="1" width="1" height="1" fill="#000000" /><rect x="9" y="2" width="1" height="1" fill="#000000" /><rect x="9" y="3" width="1" height="1" fill="#000000" /><rect x="9" y="4" width="1" height="1" fill="#000000" /><rect x="9" y="5" width="1" height="1" fill="#000000" /><rect x="9" y="6" width="1" height="1" fill="#000000" /><rect x="9" y="7" width="1" height="1" fill="#000000" /><rect x="9" y="8" width="1" height="1" fill="#000000" /><rect x="9" y="9" width="1" height="1" fill="#000000" /></g></svg>