<svg width="800" height="1000" version="1.1" xmlns="http://www.w3.org/2000/svg" xmlns:xlink="http://www.w3.org/1999/xlink">
  <defs>
      <linearGradient id="Gradient2" x1="0" x2="1" y1="0" y2="1">
        <stop offset="0%" stop-color="#2d3c96"/>
        <stop offset="100%" stop-color="#d53392"/>
      </linearGradient>
  </defs>
  <rect x="10" y="10" width="780" height="980" fill="url(#Gradient2)" rx="50" ry="50" stroke="#ffd700" stroke-width="20"/>
  <text x="400" y="920" width="780" text-anchor="middle" style="font: bold 200px 'Helvetica Neue'; fill: #ffd700">02548</text>

  <g transform="translate(80 80) scale(64)">
<rect x="0" y="0" width="1" height="1" fill="#000000" /><rect x="1" y="0" width="1" height="1" fill="#000000" /><rect x="2" y="0" width="1" height="1" fill="#1B0135" /><rect x="3" y="0" width="1" height="1" fill="#4E067F" /><rect x="4" y="0" width="1" height="1" fill="#7B12C0" /><rect x="5" y="0" width="1" height="1" fill="#F0E7F7" /><rect x="6" y="0" width="1" height="1" fill="#EADEF2" /><rect x="7" y="0" width="1" height="1" fill="#B37DDA" /><rect x="8" y="0" width="1" height="1" fill="#B72DFC" /><rect x="9" y="0" width="1" height="1" fill="#DB7CFF" /><rect x="0" y="1" width="1" height="1" fill="#000000" /><rect x="1" y="1" width="1" height="1" fill="#000000" /><rect x="2" y="1" width="1" height="1" fill="#000000" /><rect x="3" y="1" width="1" height="1" fill="#17012A" /><rect x="4" y="1" width="1" height="1" fill="#8313CE" /><rect x="5" y="1" width="1" height="1" fill="#E3D1EF" /><rect x="6" y="1" width="1" height="1" fill="#FFFFFF" /><rect x="7" y="1" width="1" height="1" fill="#FFFFFF" /><rect x="8" y="1" width="1" height="1" fill="#BD38FF" /><rect x="9" y="1" width="1" height="1" fill="#D462FD" /><rect x="0" y="2" width="1" height="1" fill="#000000" /><rect x="1" y="2" width="1" height="1" fill="#000000" /><rect x="2" y="2" width="1" height="1" fill="#000000" /><rect x="3" y="2" width="1" height="1" fill="#24023F" /><rect x="4" y="2" width="1" height="1" fill="#8113CA" /><rect x="5" y="2" width="1" height="1" fill="#E4D3F0" /><rect x="6" y="2" width="1" height="1" fill="#FFFFFF" /><rect x="7" y="2" width="1" height="1" fill="#FFFFFF" /><rect x="8" y="2" width="1" height="1" fill="#B830FF" /><rect x="9" y="2" width="1" height="1" fill="#D25EFD" /><rect x="0" y="3" width="1" height="1" fill="#000000" /><rect x="1" y="3" width="1" height="1" fill="#000000" /><rect x="2" y="3" width="1" height="1" fill="#000000" /><rect x="3" y="3" width="1" height="1" fill="#250240" /><rect x="4" y="3" width="1" height="1" fill="#8113CA" /><rect x="5" y="3" width="1" height="1" fill="#FFFFFF" /><rect x="6" y="3" width="1" height="1" fill="#EFE8F6" /><rect x="7" y="3" width="1" height="1" fill="#A365CE" /><rect x="8" y="3" width="1" height="1" fill="#E074FC" /><rect x="9" y="3" width="1" height="1" fill="#E069FF" /><rect x="0" y="4" width="1" height="1" fill="#000000" /><rect x="1" y="4" width="1" height="1" fill="#000000" /><rect x="2" y="4" width="1" height="1" fill="#000000" /><rect x="3" y="4" width="1" height="1" fill="#24023F" /><rect x="4" y="4" width="1" height="1" fill="#7F12C8" /><rect x="5" y="4" width="1" height="1" fill="#E1CDEF" /><rect x="6" y="4" width="1" height="1" fill="#AA76D1" /><rect x="7" y="4" width="1" height="1" fill="#7614B5" /><rect x="8" y="4" width="1" height="1" fill="#E986FC" /><rect x="9" y="4" width="1" height="1" fill="#CE57F9" /><rect x="0" y="5" width="1" height="1" fill="#000000" /><rect x="1" y="5" width="1" height="1" fill="#000000" /><rect x="2" y="5" width="1" height="1" fill="#000000" /><rect x="3" y="5" width="1" height="1" fill="#22013D" /><rect x="4" y="5" width="1" height="1" fill="#780DC6" /><rect x="5" y="5" width="1" height="1" fill="#7612B7" /><rect x="6" y="5" width="1" height="1" fill="#6506A9" /><rect x="7" y="5" width="1" height="1" fill="#6904B3" /><rect x="8" y="5" width="1" height="1" fill="#BE33FF" /><rect x="9" y="5" width="1" height="1" fill="#9721DC" /><rect x="0" y="6" width="1" height="1" fill="#000000" /><rect x="1" y="6" width="1" height="1" fill="#000000" /><rect x="2" y="6" width="1" height="1" fill="#000000" /><rect x="3" y="6" width="1" height="1" fill="#3E0B57" /><rect x="4" y="6" width="1" height="1" fill="#B830F4" /><rect x="5" y="6" width="1" height="1" fill="#6704AF" /><rect x="6" y="6" width="1" height="1" fill="#9037BF" /><rect x="7" y="6" width="1" height="1" fill="#D169ED" /><rect x="8" y="6" width="1" height="1" fill="#C337FF" /><rect x="9" y="6" width="1" height="1" fill="#8E18D4" /><rect x="0" y="7" width="1" height="1" fill="#010105" /><rect x="1" y="7" width="1" height="1" fill="#000000" /><rect x="2" y="7" width="1" height="1" fill="#000000" /><rect x="3" y="7" width="1" height="1" fill="#4B1165" /><rect x="4" y="7" width="1" height="1" fill="#DC41FF" /><rect x="5" y="7" width="1" height="1" fill="#810BCE" /><rect x="6" y="7" width="1" height="1" fill="#C060E3" /><rect x="7" y="7" width="1" height="1" fill="#FFA2FF" /><rect x="8" y="7" width="1" height="1" fill="#C940FF" /><rect x="9" y="7" width="1" height="1" fill="#952BD8" /><rect x="0" y="8" width="1" height="1" fill="#14143A" /><rect x="1" y="8" width="1" height="1" fill="#000000" /><rect x="2" y="8" width="1" height="1" fill="#000000" /><rect x="3" y="8" width="1" height="1" fill="#420C5C" /><rect x="4" y="8" width="1" height="1" fill="#CF3AFF" /><rect x="5" y="8" width="1" height="1" fill="#BA2AFF" /><rect x="6" y="8" width="1" height="1" fill="#D966FF" /><rect x="7" y="8" width="1" height="1" fill="#EE8CFF" /><rect x="8" y="8" width="1" height="1" fill="#C13CFE" /><rect x="9" y="8" width="1" height="1" fill="#DEA2FB" /><rect x="0" y="9" width="1" height="1" fill="#191945" /><rect x="1" y="9" width="1" height="1" fill="#000000" /><rect x="2" y="9" width="1" height="1" fill="#000000" /><rect x="3" y="9" width="1" height="1" fill="#340847" /><rect x="4" y="9" width="1" height="1" fill="#D23CFF" /><rect x="5" y="9" width="1" height="1" fill="#BF34FF" /><rect x="6" y="9" width="1" height="1" fill="#C03DFD" /><rect x="7" y="9" width="1" height="1" fill="#C652FC" /><rect x="8" y="9" width="1" height="1" fill="#ECC9FE" /><rect x="9" y="9" width="1" height="1" fill="#FCF7FF" />
  </g>
</svg>