<svg width="800" height="1000" xmlns="http://www.w3.org/2000/svg"><defs><linearGradient id="g" x1="0" x2="1" y1="0" y2="1"><stop offset="0%" stop-color="#2d3c96"/><stop offset="100%" stop-color="#d53392"/></linearGradient></defs><rect x="10" y="10" width="780" height="980" fill="url(#g)" rx="50" ry="50" stroke="gold" stroke-width="20"/><text x="400" y="920" width="780" text-anchor="middle" style="font:bold 200px 'Helvetica Neue';fill:gold">02548</text><g transform="translate(80 80) scale(64)"><rect x="0" y="0" width="1" height="1" fill="#000000" /><rect x="0" y="1" width="1" height="1" fill="#000000" /><rect x="0" y="2" width="1" height="1" fill="#000000" /><rect x="0" y="3" width="1" height="1" fill="#000000" /><rect x="0" y="4" width="1" height="1" fill="#000000" /><rect x="0" y="5" width="1" height="1" fill="#000000" /><rect x="0" y="6" width="1" height="1" fill="#000000" /><rect x="0" y="7" width="1" height="1" fill="#010105" /><rect x="0" y="8" width="1" height="1" fill="#14143a" /><rect x="0" y="9" width="1" height="1" fill="#191945" /><rect x="1" y="0" width="1" height="1" fill="#000000" /><rect x="1" y="1" width="1" height="1" fill="#000000" /><rect x="1" y="2" width="1" height="1" fill="#000000" /><rect x="1" y="3" width="1" height="1" fill="#000000" /><rect x="1" y="4" width="1" height="1" fill="#000000" /><rect x="1" y="5" width="1" height="1" fill="#000000" /><rect x="1" y="6" width="1" height="1" fill="#000000" /><rect x="1" y="7" width="1" height="1" fill="#000000" /><rect x="1" y="8" width="1" height="1" fill="#000000" /><rect x="1" y="9" width="1" height="1" fill="#000000" /><rect x="2" y="0" width="1" height="1" fill="#1b0135" /><rect x="2" y="1" width="1" height="1" fill="#000000" /><rect x="2" y="2" width="1" height="1" fill="#000000" /><rect x="2" y="3" width="1" height="1" fill="#000000" /><rect x="2" y="4" width="1" height="1" fill="#000000" /><rect x="2" y="5" width="1" height="1" fill="#000000" /><rect x="2" y="6" width="1" height="1" fill="#000000" /><rect x="2" y="7" width="1" height="1" fill="#000000" /><rect x="2" y="8" width="1" height="1" fill="#000000" /><rect x="2" y="9" width="1" height="1" fill="#000000" /><rect x="3" y="0" width="1" height="1" fill="#4e067f" /><rect x="3" y="1" width="1" height="1" fill="#17012a" /><rect x="3" y="2" width="1" height="1" fill="#24023f" /><rect x="3" y="3" width="1" height="1" fill="#250240" /><rect x="3" y="4" width="1" height="1" fill="#24023f" /><rect x="3" y="5" width="1" height="1" fill="#22013d" /><rect x="3" y="6" width="1" height="1" fill="#3e0b57" /><rect x="3" y="7" width="1" height="1" fill="#4b1165" /><rect x="3" y="8" width="1" height="1" fill="#420c5c" /><rect x="3" y="9" width="1" height="1" fill="#340847" /><rect x="4" y="0" width="1" height="1" fill="#7b12c0" /><rect x="4" y="1" width="1" height="1" fill="#8313ce" /><rect x="4" y="2" width="1" height="1" fill="#8113ca" /><rect x="4" y="3" width="1" height="1" fill="#8113ca" /><rect x="4" y="4" width="1" height="1" fill="#7f12c8" /><rect x="4" y="5" width="1" height="1" fill="#780dc6" /><rect x="4" y="6" width="1" height="1" fill="#b830f4" /><rect x="4" y="7" width="1" height="1" fill="#dc41ff" /><rect x="4" y="8" width="1" height="1" fill="#cf3aff" /><rect x="4" y="9" width="1" height="1" fill="#d23cff" /><rect x="5" y="0" width="1" height="1" fill="#f0e7f7" /><rect x="5" y="1" width="1" height="1" fill="#e3d1ef" /><rect x="5" y="2" width="1" height="1" fill="#e4d3f0" /><rect x="5" y="3" width="1" height="1" fill="#ffffff" /><rect x="5" y="4" width="1" height="1" fill="#e1cdef" /><rect x="5" y="5" width="1" height="1" fill="#7612b7" /><rect x="5" y="6" width="1" height="1" fill="#6704af" /><rect x="5" y="7" width="1" height="1" fill="#810bce" /><rect x="5" y="8" width="1" height="1" fill="#ba2aff" /><rect x="5" y="9" width="1" height="1" fill="#bf34ff" /><rect x="6" y="0" width="1" height="1" fill="#eadef2" /><rect x="6" y="1" width="1" height="1" fill="#ffffff" /><rect x="6" y="2" width="1" height="1" fill="#ffffff" /><rect x="6" y="3" width="1" height="1" fill="#efe8f6" /><rect x="6" y="4" width="1" height="1" fill="#aa76d1" /><rect x="6" y="5" width="1" height="1" fill="#6506a9" /><rect x="6" y="6" width="1" height="1" fill="#9037bf" /><rect x="6" y="7" width="1" height="1" fill="#c060e3" /><rect x="6" y="8" width="1" height="1" fill="#d966ff" /><rect x="6" y="9" width="1" height="1" fill="#c03dfd" /><rect x="7" y="0" width="1" height="1" fill="#b37dda" /><rect x="7" y="1" width="1" height="1" fill="#ffffff" /><rect x="7" y="2" width="1" height="1" fill="#ffffff" /><rect x="7" y="3" width="1" height="1" fill="#a365ce" /><rect x="7" y="4" width="1" height="1" fill="#7614b5" /><rect x="7" y="5" width="1" height="1" fill="#6904b3" /><rect x="7" y="6" width="1" height="1" fill="#d169ed" /><rect x="7" y="7" width="1" height="1" fill="#ffa2ff" /><rect x="7" y="8" width="1" height="1" fill="#ee8cff" /><rect x="7" y="9" width="1" height="1" fill="#c652fc" /><rect x="8" y="0" width="1" height="1" fill="#b72dfc" /><rect x="8" y="1" width="1" height="1" fill="#bd38ff" /><rect x="8" y="2" width="1" height="1" fill="#b830ff" /><rect x="8" y="3" width="1" height="1" fill="#e074fc" /><rect x="8" y="4" width="1" height="1" fill="#e986fc" /><rect x="8" y="5" width="1" height="1" fill="#be33ff" /><rect x="8" y="6" width="1" height="1" fill="#c337ff" /><rect x="8" y="7" width="1" height="1" fill="#c940ff" /><rect x="8" y="8" width="1" height="1" fill="#c13cfe" /><rect x="8" y="9" width="1" height="1" fill="#ecc9fe" /><rect x="9" y="0" width="1" height="1" fill="#db7cff" /><rect x="9" y="1" width="1" height="1" fill="#d462fd" /><rect x="9" y="2" width="1" height="1" fill="#d25efd" /><rect x="9" y="3" width="1" height="1" fill="#e069ff" /><rect x="9" y="4" width="1" height="1" fill="#ce57f9" /><rect x="9" y="5" width="1" height="1" fill="#9721dc" /><rect x="9" y="6" width="1" height="1" fill="#8e18d4" /><rect x="9" y="7" width="1" height="1" fill="#952bd8" /><rect x="9" y="8" width="1" height="1" fill="#dea2fb" /><rect x="9" y="9" width="1" height="1" fill="#fcf7ff" /></g></svg>