<svg width="800" height="1000" xmlns="http://www.w3.org/2000/svg"><defs><linearGradient id="g" x1="0" x2="1" y1="0" y2="1"><stop offset="0%" stop-color="#2d3c96"/><stop offset="100%" stop-color="#d53392"/></linearGradient></defs><rect x="10" y="10" width="780" height="980" fill="url(#g)" rx="50" ry="50" stroke="gold" stroke-width="20"/><text x="400" y="920" width="780" text-anchor="middle" style="font:bold 200px 'Helvetica Neue';fill:gold">02546</text><g transform="translate(80 80) scale(64)"><rect x="0" y="0" width="1" height="1" fill="#000000" /><rect x="0" y="1" width="1" height="1" fill="#000000" /><rect x="0" y="2" width="1" height="1" fill="#000000" /><rect x="0" y="3" width="1" height="1" fill="#000000" /><rect x="0" y="4" width="1" height="1" fill="#000002" /><rect x="0" y="5" width="1" height="1" fill="#0b0b27" /><rect x="0" y="6" width="1" height="1" fill="#010104" /><rect x="0" y="7" width="1" height="1" fill="#000000" /><rect x="0" y="8" width="1" height="1" fill="#000000" /><rect x="0" y="9" width="1" height="1" fill="#000000" /><rect x="1" y="0" width="1" height="1" fill="#000000" /><rect x="1" y="1" width="1" height="1" fill="#000000" /><rect x="1" y="2" width="1" height="1" fill="#000000" /><rect x="1" y="3" width="1" height="1" fill="#000000" /><rect x="1" y="4" width="1" height="1" fill="#000000" /><rect x="1" y="5" width="1" height="1" fill="#000000" /><rect x="1" y="6" width="1" height="1" fill="#000000" /><rect x="1" y="7" width="1" height="1" fill="#000000" /><rect x="1" y="8" width="1" height="1" fill="#000000" /><rect x="1" y="9" width="1" height="1" fill="#000001" /><rect x="2" y="0" width="1" height="1" fill="#000000" /><rect x="2" y="1" width="1" height="1" fill="#000000" /><rect x="2" y="2" width="1" height="1" fill="#000000" /><rect x="2" y="3" width="1" height="1" fill="#000000" /><rect x="2" y="4" width="1" height="1" fill="#000000" /><rect x="2" y="5" width="1" height="1" fill="#000000" /><rect x="2" y="6" width="1" height="1" fill="#000000" /><rect x="2" y="7" width="1" height="1" fill="#000000" /><rect x="2" y="8" width="1" height="1" fill="#000000" /><rect x="2" y="9" width="1" height="1" fill="#131338" /><rect x="3" y="0" width="1" height="1" fill="#000000" /><rect x="3" y="1" width="1" height="1" fill="#000001" /><rect x="3" y="2" width="1" height="1" fill="#15113c" /><rect x="3" y="3" width="1" height="1" fill="#050315" /><rect x="3" y="4" width="1" height="1" fill="#000000" /><rect x="3" y="5" width="1" height="1" fill="#000000" /><rect x="3" y="6" width="1" height="1" fill="#000000" /><rect x="3" y="7" width="1" height="1" fill="#000000" /><rect x="3" y="8" width="1" height="1" fill="#000000" /><rect x="3" y="9" width="1" height="1" fill="#15153e" /><rect x="4" y="0" width="1" height="1" fill="#000000" /><rect x="4" y="1" width="1" height="1" fill="#010104" /><rect x="4" y="2" width="1" height="1" fill="#322c79" /><rect x="4" y="3" width="1" height="1" fill="#110e34" /><rect x="4" y="4" width="1" height="1" fill="#000000" /><rect x="4" y="5" width="1" height="1" fill="#000000" /><rect x="4" y="6" width="1" height="1" fill="#000000" /><rect x="4" y="7" width="1" height="1" fill="#000000" /><rect x="4" y="8" width="1" height="1" fill="#010105" /><rect x="4" y="9" width="1" height="1" fill="#15153e" /><rect x="5" y="0" width="1" height="1" fill="#000000" /><rect x="5" y="1" width="1" height="1" fill="#000002" /><rect x="5" y="2" width="1" height="1" fill="#2e2872" /><rect x="5" y="3" width="1" height="1" fill="#110d32" /><rect x="5" y="4" width="1" height="1" fill="#000000" /><rect x="5" y="5" width="1" height="1" fill="#000000" /><rect x="5" y="6" width="1" height="1" fill="#000000" /><rect x="5" y="7" width="1" height="1" fill="#02020b" /><rect x="5" y="8" width="1" height="1" fill="#191945" /><rect x="5" y="9" width="1" height="1" fill="#1c1c4b" /><rect x="6" y="0" width="1" height="1" fill="#080622" /><rect x="6" y="1" width="1" height="1" fill="#1b1749" /><rect x="6" y="2" width="1" height="1" fill="#070620" /><rect x="6" y="3" width="1" height="1" fill="#010003" /><rect x="6" y="4" width="1" height="1" fill="#000000" /><rect x="6" y="5" width="1" height="1" fill="#000000" /><rect x="6" y="6" width="1" height="1" fill="#000000" /><rect x="6" y="7" width="1" height="1" fill="#01010a" /><rect x="6" y="8" width="1" height="1" fill="#1c1c4e" /><rect x="6" y="9" width="1" height="1" fill="#222256" /><rect x="7" y="0" width="1" height="1" fill="#1a1749" /><rect x="7" y="1" width="1" height="1" fill="#322b7a" /><rect x="7" y="2" width="1" height="1" fill="#000000" /><rect x="7" y="3" width="1" height="1" fill="#000000" /><rect x="7" y="4" width="1" height="1" fill="#000000" /><rect x="7" y="5" width="1" height="1" fill="#000000" /><rect x="7" y="6" width="1" height="1" fill="#000002" /><rect x="7" y="7" width="1" height="1" fill="#050515" /><rect x="7" y="8" width="1" height="1" fill="#0d0d2c" /><rect x="7" y="9" width="1" height="1" fill="#111133" /><rect x="8" y="0" width="1" height="1" fill="#15113c" /><rect x="8" y="1" width="1" height="1" fill="#2b256a" /><rect x="8" y="2" width="1" height="1" fill="#000001" /><rect x="8" y="3" width="1" height="1" fill="#000000" /><rect x="8" y="4" width="1" height="1" fill="#000000" /><rect x="8" y="5" width="1" height="1" fill="#000000" /><rect x="8" y="6" width="1" height="1" fill="#111135" /><rect x="8" y="7" width="1" height="1" fill="#121237" /><rect x="8" y="8" width="1" height="1" fill="#000000" /><rect x="8" y="9" width="1" height="1" fill="#000000" /><rect x="9" y="0" width="1" height="1" fill="#010104" /><rect x="9" y="1" width="1" height="1" fill="#02020c" /><rect x="9" y="2" width="1" height="1" fill="#000000" /><rect x="9" y="3" width="1" height="1" fill="#000000" /><rect x="9" y="4" width="1" height="1" fill="#000000" /><rect x="9" y="5" width="1" height="1" fill="#000000" /><rect x="9" y="6" width="1" height="1" fill="#131337" /><rect x="9" y="7" width="1" height="1" fill="#181740" /><rect x="9" y="8" width="1" height="1" fill="#000000" /><rect x="9" y="9" width="1" height="1" fill="#000000" /></g></svg>