<svg width="800" height="1000" version="1.1" xmlns="http://www.w3.org/2000/svg" xmlns:xlink="http://www.w3.org/1999/xlink">
  <defs>
      <linearGradient id="Gradient2" x1="0" x2="1" y1="0" y2="1">
        <stop offset="0%" stop-color="#2d3c96"/>
        <stop offset="100%" stop-color="#d53392"/>
      </linearGradient>
  </defs>
  <rect x="10" y="10" width="780" height="980" fill="url(#Gradient2)" rx="50" ry="50" stroke="#ffd700" stroke-width="20"/>
  <text x="400" y="920" width="780" text-anchor="middle" style="font: bold 200px 'Helvetica Neue'; fill: #ffd700">02645</text>

  <g transform="translate(80 80) scale(64)">
<rect x="0" y="0" width="1" height="1" fill="#000000" /><rect x="1" y="0" width="1" height="1" fill="#000000" /><rect x="2" y="0" width="1" height="1" fill="#000000" /><rect x="3" y="0" width="1" height="1" fill="#000000" /><rect x="4" y="0" width="1" height="1" fill="#000002" /><rect x="5" y="0" width="1" height="1" fill="#030312" /><rect x="6" y="0" width="1" height="1" fill="#181841" /><rect x="7" y="0" width="1" height="1" fill="#0B0B29" /><rect x="8" y="0" width="1" height="1" fill="#000000" /><rect x="9" y="0" width="1" height="1" fill="#000000" /><rect x="0" y="1" width="1" height="1" fill="#000000" /><rect x="1" y="1" width="1" height="1" fill="#000000" /><rect x="2" y="1" width="1" height="1" fill="#000000" /><rect x="3" y="1" width="1" height="1" fill="#000000" /><rect x="4" y="1" width="1" height="1" fill="#02030D" /><rect x="5" y="1" width="1" height="1" fill="#1C1C4D" /><rect x="6" y="1" width="1" height="1" fill="#1C1C4B" /><rect x="7" y="1" width="1" height="1" fill="#080821" /><rect x="8" y="1" width="1" height="1" fill="#000000" /><rect x="9" y="1" width="1" height="1" fill="#000000" /><rect x="0" y="2" width="1" height="1" fill="#000000" /><rect x="1" y="2" width="1" height="1" fill="#170129" /><rect x="2" y="2" width="1" height="1" fill="#7310B4" /><rect x="3" y="2" width="1" height="1" fill="#080010" /><rect x="4" y="2" width="1" height="1" fill="#000000" /><rect x="5" y="2" width="1" height="1" fill="#1A1947" /><rect x="6" y="2" width="1" height="1" fill="#1C1B4B" /><rect x="7" y="2" width="1" height="1" fill="#080822" /><rect x="8" y="2" width="1" height="1" fill="#000000" /><rect x="9" y="2" width="1" height="1" fill="#000000" /><rect x="0" y="3" width="1" height="1" fill="#0B0111" /><rect x="1" y="3" width="1" height="1" fill="#0A001A" /><rect x="2" y="3" width="1" height="1" fill="#9A19F0" /><rect x="3" y="3" width="1" height="1" fill="#600694" /><rect x="4" y="3" width="1" height="1" fill="#20063C" /><rect x="5" y="3" width="1" height="1" fill="#06182B" /><rect x="6" y="3" width="1" height="1" fill="#181B44" /><rect x="7" y="3" width="1" height="1" fill="#080721" /><rect x="8" y="3" width="1" height="1" fill="#000000" /><rect x="9" y="3" width="1" height="1" fill="#000000" /><rect x="0" y="4" width="1" height="1" fill="#3A0C4C" /><rect x="1" y="4" width="1" height="1" fill="#000000" /><rect x="2" y="4" width="1" height="1" fill="#690DA6" /><rect x="3" y="4" width="1" height="1" fill="#9113E1" /><rect x="4" y="4" width="1" height="1" fill="#6914AD" /><rect x="5" y="4" width="1" height="1" fill="#111436" /><rect x="6" y="4" width="1" height="1" fill="#171A41" /><rect x="7" y="4" width="1" height="1" fill="#080B23" /><rect x="8" y="4" width="1" height="1" fill="#000000" /><rect x="9" y="4" width="1" height="1" fill="#000000" /><rect x="0" y="5" width="1" height="1" fill="#350A49" /><rect x="1" y="5" width="1" height="1" fill="#000000" /><rect x="2" y="5" width="1" height="1" fill="#000001" /><rect x="3" y="5" width="1" height="1" fill="#5D0A93" /><rect x="4" y="5" width="1" height="1" fill="#9013E4" /><rect x="5" y="5" width="1" height="1" fill="#6409A8" /><rect x="6" y="5" width="1" height="1" fill="#15143D" /><rect x="7" y="5" width="1" height="1" fill="#041A27" /><rect x="8" y="5" width="1" height="1" fill="#141137" /><rect x="9" y="5" width="1" height="1" fill="#000000" /><rect x="0" y="6" width="1" height="1" fill="#9125C5" /><rect x="1" y="6" width="1" height="1" fill="#4F1467" /><rect x="2" y="6" width="1" height="1" fill="#000000" /><rect x="3" y="6" width="1" height="1" fill="#0D001B" /><rect x="4" y="6" width="1" height="1" fill="#6F13A4" /><rect x="5" y="6" width="1" height="1" fill="#C931FF" /><rect x="6" y="6" width="1" height="1" fill="#63129F" /><rect x="7" y="6" width="1" height="1" fill="#1E104D" /><rect x="8" y="6" width="1" height="1" fill="#051A27" /><rect x="9" y="6" width="1" height="1" fill="#000A0C" /><rect x="0" y="7" width="1" height="1" fill="#BA2DFF" /><rect x="1" y="7" width="1" height="1" fill="#AE30EC" /><rect x="2" y="7" width="1" height="1" fill="#100020" /><rect x="3" y="7" width="1" height="1" fill="#000000" /><rect x="4" y="7" width="1" height="1" fill="#1F0625" /><rect x="5" y="7" width="1" height="1" fill="#AF34DA" /><rect x="6" y="7" width="1" height="1" fill="#AB1EF5" /><rect x="7" y="7" width="1" height="1" fill="#6C13AD" /><rect x="8" y="7" width="1" height="1" fill="#1E144A" /><rect x="9" y="7" width="1" height="1" fill="#2E1861" /><rect x="0" y="8" width="1" height="1" fill="#6509A8" /><rect x="1" y="8" width="1" height="1" fill="#7610BB" /><rect x="2" y="8" width="1" height="1" fill="#8413D0" /><rect x="3" y="8" width="1" height="1" fill="#110022" /><rect x="4" y="8" width="1" height="1" fill="#000000" /><rect x="5" y="8" width="1" height="1" fill="#000000" /><rect x="6" y="8" width="1" height="1" fill="#B836F0" /><rect x="7" y="8" width="1" height="1" fill="#CF36FF" /><rect x="8" y="8" width="1" height="1" fill="#7A0CC4" /><rect x="9" y="8" width="1" height="1" fill="#870DD0" /><rect x="0" y="9" width="1" height="1" fill="#7C14BC" /><rect x="1" y="9" width="1" height="1" fill="#6A0BAF" /><rect x="2" y="9" width="1" height="1" fill="#7F13C5" /><rect x="3" y="9" width="1" height="1" fill="#61099D" /><rect x="4" y="9" width="1" height="1" fill="#1A0035" /><rect x="5" y="9" width="1" height="1" fill="#000000" /><rect x="6" y="9" width="1" height="1" fill="#200628" /><rect x="7" y="9" width="1" height="1" fill="#320644" /><rect x="8" y="9" width="1" height="1" fill="#280144" /><rect x="9" y="9" width="1" height="1" fill="#8210CA" />
  </g>
</svg>