<svg width="800" height="1000" version="1.1" xmlns="http://www.w3.org/2000/svg" xmlns:xlink="http://www.w3.org/1999/xlink">
  <defs>
      <linearGradient id="Gradient2" x1="0" x2="1" y1="0" y2="1">
        <stop offset="0%" stop-color="#2d3c96"/>
        <stop offset="100%" stop-color="#d53392"/>
      </linearGradient>
  </defs>
  <rect x="10" y="10" width="780" height="980" fill="url(#Gradient2)" rx="50" ry="50" stroke="#ffd700" stroke-width="20"/>
  <text x="400" y="920" width="780" text-anchor="middle" style="font: bold 200px 'Helvetica Neue'; fill: #ffd700">02645</text>

  <g transform="translate(80 80) scale(64)">
<rect x="0" y="0" width="1" height="1" fill="#000000" />
,<rect x="0" y="1" width="1" height="1" fill="#000000" />
,<rect x="0" y="2" width="1" height="1" fill="#000000" />
,<rect x="0" y="3" width="1" height="1" fill="#0b0111" />
,<rect x="0" y="4" width="1" height="1" fill="#3a0c4c" />
,<rect x="0" y="5" width="1" height="1" fill="#350a49" />
,<rect x="0" y="6" width="1" height="1" fill="#9125c5" />
,<rect x="0" y="7" width="1" height="1" fill="#ba2dff" />
,<rect x="0" y="8" width="1" height="1" fill="#6509a8" />
,<rect x="0" y="9" width="1" height="1" fill="#7c14bc" />
,<rect x="1" y="0" width="1" height="1" fill="#000000" />
,<rect x="1" y="1" width="1" height="1" fill="#000000" />
,<rect x="1" y="2" width="1" height="1" fill="#170129" />
,<rect x="1" y="3" width="1" height="1" fill="#0a001a" />
,<rect x="1" y="4" width="1" height="1" fill="#000000" />
,<rect x="1" y="5" width="1" height="1" fill="#000000" />
,<rect x="1" y="6" width="1" height="1" fill="#4f1467" />
,<rect x="1" y="7" width="1" height="1" fill="#ae30ec" />
,<rect x="1" y="8" width="1" height="1" fill="#7610bb" />
,<rect x="1" y="9" width="1" height="1" fill="#6a0baf" />
,<rect x="2" y="0" width="1" height="1" fill="#000000" />
,<rect x="2" y="1" width="1" height="1" fill="#000000" />
,<rect x="2" y="2" width="1" height="1" fill="#7310b4" />
,<rect x="2" y="3" width="1" height="1" fill="#9a19f0" />
,<rect x="2" y="4" width="1" height="1" fill="#690da6" />
,<rect x="2" y="5" width="1" height="1" fill="#000001" />
,<rect x="2" y="6" width="1" height="1" fill="#000000" />
,<rect x="2" y="7" width="1" height="1" fill="#100020" />
,<rect x="2" y="8" width="1" height="1" fill="#8413d0" />
,<rect x="2" y="9" width="1" height="1" fill="#7f13c5" />
,<rect x="3" y="0" width="1" height="1" fill="#000000" />
,<rect x="3" y="1" width="1" height="1" fill="#000000" />
,<rect x="3" y="2" width="1" height="1" fill="#080010" />
,<rect x="3" y="3" width="1" height="1" fill="#600694" />
,<rect x="3" y="4" width="1" height="1" fill="#9113e1" />
,<rect x="3" y="5" width="1" height="1" fill="#5d0a93" />
,<rect x="3" y="6" width="1" height="1" fill="#0d001b" />
,<rect x="3" y="7" width="1" height="1" fill="#000000" />
,<rect x="3" y="8" width="1" height="1" fill="#110022" />
,<rect x="3" y="9" width="1" height="1" fill="#61099d" />
,<rect x="4" y="0" width="1" height="1" fill="#000002" />
,<rect x="4" y="1" width="1" height="1" fill="#02030d" />
,<rect x="4" y="2" width="1" height="1" fill="#000000" />
,<rect x="4" y="3" width="1" height="1" fill="#20063c" />
,<rect x="4" y="4" width="1" height="1" fill="#6914ad" />
,<rect x="4" y="5" width="1" height="1" fill="#9013e4" />
,<rect x="4" y="6" width="1" height="1" fill="#6f13a4" />
,<rect x="4" y="7" width="1" height="1" fill="#1f0625" />
,<rect x="4" y="8" width="1" height="1" fill="#000000" />
,<rect x="4" y="9" width="1" height="1" fill="#1a0035" />
,<rect x="5" y="0" width="1" height="1" fill="#030312" />
,<rect x="5" y="1" width="1" height="1" fill="#1c1c4d" />
,<rect x="5" y="2" width="1" height="1" fill="#1a1947" />
,<rect x="5" y="3" width="1" height="1" fill="#06182b" />
,<rect x="5" y="4" width="1" height="1" fill="#111436" />
,<rect x="5" y="5" width="1" height="1" fill="#6409a8" />
,<rect x="5" y="6" width="1" height="1" fill="#c931ff" />
,<rect x="5" y="7" width="1" height="1" fill="#af34da" />
,<rect x="5" y="8" width="1" height="1" fill="#000000" />
,<rect x="5" y="9" width="1" height="1" fill="#000000" />
,<rect x="6" y="0" width="1" height="1" fill="#181841" />
,<rect x="6" y="1" width="1" height="1" fill="#1c1c4b" />
,<rect x="6" y="2" width="1" height="1" fill="#1c1b4b" />
,<rect x="6" y="3" width="1" height="1" fill="#181b44" />
,<rect x="6" y="4" width="1" height="1" fill="#171a41" />
,<rect x="6" y="5" width="1" height="1" fill="#15143d" />
,<rect x="6" y="6" width="1" height="1" fill="#63129f" />
,<rect x="6" y="7" width="1" height="1" fill="#ab1ef5" />
,<rect x="6" y="8" width="1" height="1" fill="#b836f0" />
,<rect x="6" y="9" width="1" height="1" fill="#200628" />
,<rect x="7" y="0" width="1" height="1" fill="#0b0b29" />
,<rect x="7" y="1" width="1" height="1" fill="#080821" />
,<rect x="7" y="2" width="1" height="1" fill="#080822" />
,<rect x="7" y="3" width="1" height="1" fill="#080721" />
,<rect x="7" y="4" width="1" height="1" fill="#080b23" />
,<rect x="7" y="5" width="1" height="1" fill="#041a27" />
,<rect x="7" y="6" width="1" height="1" fill="#1e104d" />
,<rect x="7" y="7" width="1" height="1" fill="#6c13ad" />
,<rect x="7" y="8" width="1" height="1" fill="#cf36ff" />
,<rect x="7" y="9" width="1" height="1" fill="#320644" />
,<rect x="8" y="0" width="1" height="1" fill="#000000" />
,<rect x="8" y="1" width="1" height="1" fill="#000000" />
,<rect x="8" y="2" width="1" height="1" fill="#000000" />
,<rect x="8" y="3" width="1" height="1" fill="#000000" />
,<rect x="8" y="4" width="1" height="1" fill="#000000" />
,<rect x="8" y="5" width="1" height="1" fill="#141137" />
,<rect x="8" y="6" width="1" height="1" fill="#051a27" />
,<rect x="8" y="7" width="1" height="1" fill="#1e144a" />
,<rect x="8" y="8" width="1" height="1" fill="#7a0cc4" />
,<rect x="8" y="9" width="1" height="1" fill="#280144" />
,<rect x="9" y="0" width="1" height="1" fill="#000000" />
,<rect x="9" y="1" width="1" height="1" fill="#000000" />
,<rect x="9" y="2" width="1" height="1" fill="#000000" />
,<rect x="9" y="3" width="1" height="1" fill="#000000" />
,<rect x="9" y="4" width="1" height="1" fill="#000000" />
,<rect x="9" y="5" width="1" height="1" fill="#000000" />
,<rect x="9" y="6" width="1" height="1" fill="#000a0c" />
,<rect x="9" y="7" width="1" height="1" fill="#2e1861" />
,<rect x="9" y="8" width="1" height="1" fill="#870dd0" />
,<rect x="9" y="9" width="1" height="1" fill="#8210ca" />

  </g>
</svg>