<svg width="800" height="1000" version="1.1" xmlns="http://www.w3.org/2000/svg" xmlns:xlink="http://www.w3.org/1999/xlink">
  <defs>
      <linearGradient id="Gradient2" x1="0" x2="1" y1="0" y2="1">
        <stop offset="0%" stop-color="#2d3c96"/>
        <stop offset="100%" stop-color="#d53392"/>
      </linearGradient>
  </defs>
  <rect x="10" y="10" width="780" height="980" fill="url(#Gradient2)" rx="50" ry="50" stroke="#ffd700" stroke-width="20"/>
  <text x="400" y="920" width="780" text-anchor="middle" style="font: bold 200px 'Helvetica Neue'; fill: #ffd700">02648</text>

  <g transform="translate(80 80) scale(64)">
<rect x="0" y="0" width="1" height="1" fill="#06071C" /><rect x="1" y="0" width="1" height="1" fill="#000000" /><rect x="2" y="0" width="1" height="1" fill="#0B001E" /><rect x="3" y="0" width="1" height="1" fill="#60128D" /><rect x="4" y="0" width="1" height="1" fill="#CB3CFF" /><rect x="5" y="0" width="1" height="1" fill="#BD36FF" /><rect x="6" y="0" width="1" height="1" fill="#B52DFC" /><rect x="7" y="0" width="1" height="1" fill="#BA40FB" /><rect x="8" y="0" width="1" height="1" fill="#FFFFFF" /><rect x="9" y="0" width="1" height="1" fill="#FFFFFF" /><rect x="0" y="1" width="1" height="1" fill="#000000" /><rect x="1" y="1" width="1" height="1" fill="#000000" /><rect x="2" y="1" width="1" height="1" fill="#5A0695" /><rect x="3" y="1" width="1" height="1" fill="#A623F9" /><rect x="4" y="1" width="1" height="1" fill="#C038FF" /><rect x="5" y="1" width="1" height="1" fill="#BA35FD" /><rect x="6" y="1" width="1" height="1" fill="#B934FC" /><rect x="7" y="1" width="1" height="1" fill="#BF45FC" /><rect x="8" y="1" width="1" height="1" fill="#FBF3FF" /><rect x="9" y="1" width="1" height="1" fill="#FFFFFF" /><rect x="0" y="2" width="1" height="1" fill="#000000" /><rect x="1" y="2" width="1" height="1" fill="#000000" /><rect x="2" y="2" width="1" height="1" fill="#8922BE" /><rect x="3" y="2" width="1" height="1" fill="#D13AFF" /><rect x="4" y="2" width="1" height="1" fill="#C63AFF" /><rect x="5" y="2" width="1" height="1" fill="#BB35FE" /><rect x="6" y="2" width="1" height="1" fill="#B833FC" /><rect x="7" y="2" width="1" height="1" fill="#B934FC" /><rect x="8" y="2" width="1" height="1" fill="#FAF2FF" /><rect x="9" y="2" width="1" height="1" fill="#FFFFFF" /><rect x="0" y="3" width="1" height="1" fill="#020006" /><rect x="1" y="3" width="1" height="1" fill="#300255" /><rect x="2" y="3" width="1" height="1" fill="#B735F3" /><rect x="3" y="3" width="1" height="1" fill="#C337FB" /><rect x="4" y="3" width="1" height="1" fill="#861AC8" /><rect x="5" y="3" width="1" height="1" fill="#B130F4" /><rect x="6" y="3" width="1" height="1" fill="#CA5CFE" /><rect x="7" y="3" width="1" height="1" fill="#E3AFFE" /><rect x="8" y="3" width="1" height="1" fill="#FDFAFF" /><rect x="9" y="3" width="1" height="1" fill="#FFFFFF" /><rect x="0" y="4" width="1" height="1" fill="#140129" /><rect x="1" y="4" width="1" height="1" fill="#9218E3" /><rect x="2" y="4" width="1" height="1" fill="#BD33FF" /><rect x="3" y="4" width="1" height="1" fill="#9B25E0" /><rect x="4" y="4" width="1" height="1" fill="#6006A3" /><rect x="5" y="4" width="1" height="1" fill="#AD34EF" /><rect x="6" y="4" width="1" height="1" fill="#EABAFF" /><rect x="7" y="4" width="1" height="1" fill="#FFFFFF" /><rect x="8" y="4" width="1" height="1" fill="#FFFFFF" /><rect x="9" y="4" width="1" height="1" fill="#FFFFFF" /><rect x="0" y="5" width="1" height="1" fill="#140222" /><rect x="1" y="5" width="1" height="1" fill="#D13EFF" /><rect x="2" y="5" width="1" height="1" fill="#8215C7" /><rect x="3" y="5" width="1" height="1" fill="#8719CA" /><rect x="4" y="5" width="1" height="1" fill="#BF35FE" /><rect x="5" y="5" width="1" height="1" fill="#EDCAFE" /><rect x="6" y="5" width="1" height="1" fill="#FFFFFF" /><rect x="7" y="5" width="1" height="1" fill="#FFFFFF" /><rect x="8" y="5" width="1" height="1" fill="#FFFFFF" /><rect x="9" y="5" width="1" height="1" fill="#FFFFFF" /><rect x="0" y="6" width="1" height="1" fill="#9027BA" /><rect x="1" y="6" width="1" height="1" fill="#9C24DC" /><rect x="2" y="6" width="1" height="1" fill="#6B0AAF" /><rect x="3" y="6" width="1" height="1" fill="#882EC2" /><rect x="4" y="6" width="1" height="1" fill="#EDB2FF" /><rect x="5" y="6" width="1" height="1" fill="#FFFFFF" /><rect x="6" y="6" width="1" height="1" fill="#FFFFFF" /><rect x="7" y="6" width="1" height="1" fill="#FFFFFF" /><rect x="8" y="6" width="1" height="1" fill="#FFFFFF" /><rect x="9" y="6" width="1" height="1" fill="#FFFFFF" /><rect x="0" y="7" width="1" height="1" fill="#C833FF" /><rect x="1" y="7" width="1" height="1" fill="#6006A3" /><rect x="2" y="7" width="1" height="1" fill="#7F2DB8" /><rect x="3" y="7" width="1" height="1" fill="#C3A0DD" /><rect x="4" y="7" width="1" height="1" fill="#FFFFFF" /><rect x="5" y="7" width="1" height="1" fill="#FFFFFF" /><rect x="6" y="7" width="1" height="1" fill="#FFFFFF" /><rect x="7" y="7" width="1" height="1" fill="#FFFFFF" /><rect x="8" y="7" width="1" height="1" fill="#FFFFFF" /><rect x="9" y="7" width="1" height="1" fill="#FFFFFF" /><rect x="0" y="8" width="1" height="1" fill="#6106A6" /><rect x="1" y="8" width="1" height="1" fill="#7310B4" /><rect x="2" y="8" width="1" height="1" fill="#E3D0EF" /><rect x="3" y="8" width="1" height="1" fill="#FFFFFF" /><rect x="4" y="8" width="1" height="1" fill="#FFFFFF" /><rect x="5" y="8" width="1" height="1" fill="#FFFFFF" /><rect x="6" y="8" width="1" height="1" fill="#FFFFFF" /><rect x="7" y="8" width="1" height="1" fill="#FFFFFF" /><rect x="8" y="8" width="1" height="1" fill="#FFFFFF" /><rect x="9" y="8" width="1" height="1" fill="#FFFFFF" /><rect x="0" y="9" width="1" height="1" fill="#7015AF" /><rect x="1" y="9" width="1" height="1" fill="#D3B6E8" /><rect x="2" y="9" width="1" height="1" fill="#FEFDFE" /><rect x="3" y="9" width="1" height="1" fill="#FFFFFF" /><rect x="4" y="9" width="1" height="1" fill="#FFFFFF" /><rect x="5" y="9" width="1" height="1" fill="#FFFFFF" /><rect x="6" y="9" width="1" height="1" fill="#FFFFFF" /><rect x="7" y="9" width="1" height="1" fill="#FFFFFF" /><rect x="8" y="9" width="1" height="1" fill="#FFFFFF" /><rect x="9" y="9" width="1" height="1" fill="#FFFFFF" />
  </g>
</svg>