<svg width="800" height="1000" version="1.1" xmlns="http://www.w3.org/2000/svg" xmlns:xlink="http://www.w3.org/1999/xlink">
  <defs>
      <linearGradient id="Gradient2" x1="0" x2="1" y1="0" y2="1">
        <stop offset="0%" stop-color="#2d3c96"/>
        <stop offset="100%" stop-color="#d53392"/>
      </linearGradient>
  </defs>
  <rect x="10" y="10" width="780" height="980" fill="url(#Gradient2)" rx="50" ry="50" stroke="#ffd700" stroke-width="20"/>
  <text x="400" y="920" width="780" text-anchor="middle" style="font: bold 200px 'Helvetica Neue'; fill: #ffd700">02644</text>

  <g transform="translate(80 80) scale(64)">
<rect x="0" y="0" width="1" height="1" fill="#FFFFFF" /><rect x="1" y="0" width="1" height="1" fill="#FFFFFF" /><rect x="2" y="0" width="1" height="1" fill="#FFFFFF" /><rect x="3" y="0" width="1" height="1" fill="#B145E9" /><rect x="4" y="0" width="1" height="1" fill="#8219C3" /><rect x="5" y="0" width="1" height="1" fill="#680AAC" /><rect x="6" y="0" width="1" height="1" fill="#BE2BFE" /><rect x="7" y="0" width="1" height="1" fill="#8820B8" /><rect x="8" y="0" width="1" height="1" fill="#330746" /><rect x="9" y="0" width="1" height="1" fill="#000000" /><rect x="0" y="1" width="1" height="1" fill="#FCFAFD" /><rect x="1" y="1" width="1" height="1" fill="#FFFFFF" /><rect x="2" y="1" width="1" height="1" fill="#FFFFFF" /><rect x="3" y="1" width="1" height="1" fill="#8A44BE" /><rect x="4" y="1" width="1" height="1" fill="#6609A7" /><rect x="5" y="1" width="1" height="1" fill="#7813BA" /><rect x="6" y="1" width="1" height="1" fill="#B231F8" /><rect x="7" y="1" width="1" height="1" fill="#E142FF" /><rect x="8" y="1" width="1" height="1" fill="#B934F7" /><rect x="9" y="1" width="1" height="1" fill="#010003" /><rect x="0" y="2" width="1" height="1" fill="#8837BF" /><rect x="1" y="2" width="1" height="1" fill="#964FC7" /><rect x="2" y="2" width="1" height="1" fill="#FFFFFF" /><rect x="3" y="2" width="1" height="1" fill="#F3EDF9" /><rect x="4" y="2" width="1" height="1" fill="#AF81D2" /><rect x="5" y="2" width="1" height="1" fill="#7812BA" /><rect x="6" y="2" width="1" height="1" fill="#C037FF" /><rect x="7" y="2" width="1" height="1" fill="#DD41FF" /><rect x="8" y="2" width="1" height="1" fill="#A32CE1" /><rect x="9" y="2" width="1" height="1" fill="#000000" /><rect x="0" y="3" width="1" height="1" fill="#B889D9" /><rect x="1" y="3" width="1" height="1" fill="#BE93DC" /><rect x="2" y="3" width="1" height="1" fill="#FFFFFF" /><rect x="3" y="3" width="1" height="1" fill="#FFFFFF" /><rect x="4" y="3" width="1" height="1" fill="#CFB1E5" /><rect x="5" y="3" width="1" height="1" fill="#7510B6" /><rect x="6" y="3" width="1" height="1" fill="#8D1CCE" /><rect x="7" y="3" width="1" height="1" fill="#B832F5" /><rect x="8" y="3" width="1" height="1" fill="#BE37F8" /><rect x="9" y="3" width="1" height="1" fill="#6D1B90" /><rect x="0" y="4" width="1" height="1" fill="#FFFFFF" /><rect x="1" y="4" width="1" height="1" fill="#FFFFFF" /><rect x="2" y="4" width="1" height="1" fill="#FFFFFF" /><rect x="3" y="4" width="1" height="1" fill="#FFFFFF" /><rect x="4" y="4" width="1" height="1" fill="#C6A0E1" /><rect x="5" y="4" width="1" height="1" fill="#720EB3" /><rect x="6" y="4" width="1" height="1" fill="#5C059D" /><rect x="7" y="4" width="1" height="1" fill="#8B1CD1" /><rect x="8" y="4" width="1" height="1" fill="#C839FF" /><rect x="9" y="4" width="1" height="1" fill="#EE45FF" /><rect x="0" y="5" width="1" height="1" fill="#FFFFFF" /><rect x="1" y="5" width="1" height="1" fill="#FFFFFF" /><rect x="2" y="5" width="1" height="1" fill="#FFFFFF" /><rect x="3" y="5" width="1" height="1" fill="#FFFFFF" /><rect x="4" y="5" width="1" height="1" fill="#C6A0E1" /><rect x="5" y="5" width="1" height="1" fill="#7310B4" /><rect x="6" y="5" width="1" height="1" fill="#7210B3" /><rect x="7" y="5" width="1" height="1" fill="#6C0CAF" /><rect x="8" y="5" width="1" height="1" fill="#8418CA" /><rect x="9" y="5" width="1" height="1" fill="#DA40FF" /><rect x="0" y="6" width="1" height="1" fill="#FFFFFF" /><rect x="1" y="6" width="1" height="1" fill="#FFFFFF" /><rect x="2" y="6" width="1" height="1" fill="#FFFFFF" /><rect x="3" y="6" width="1" height="1" fill="#FFFFFF" /><rect x="4" y="6" width="1" height="1" fill="#BE93DC" /><rect x="5" y="6" width="1" height="1" fill="#7310B4" /><rect x="6" y="6" width="1" height="1" fill="#7511B6" /><rect x="7" y="6" width="1" height="1" fill="#6509A7" /><rect x="8" y="6" width="1" height="1" fill="#660AA9" /><rect x="9" y="6" width="1" height="1" fill="#9520D7" /><rect x="0" y="7" width="1" height="1" fill="#FFFFFF" /><rect x="1" y="7" width="1" height="1" fill="#FFFFFF" /><rect x="2" y="7" width="1" height="1" fill="#FFFFFF" /><rect x="3" y="7" width="1" height="1" fill="#FFFFFF" /><rect x="4" y="7" width="1" height="1" fill="#D5BAE9" /><rect x="5" y="7" width="1" height="1" fill="#8938C0" /><rect x="6" y="7" width="1" height="1" fill="#7211B3" /><rect x="7" y="7" width="1" height="1" fill="#7D14BE" /><rect x="8" y="7" width="1" height="1" fill="#7E15C0" /><rect x="9" y="7" width="1" height="1" fill="#5B059E" /><rect x="0" y="8" width="1" height="1" fill="#FFFFFF" /><rect x="1" y="8" width="1" height="1" fill="#FFFFFF" /><rect x="2" y="8" width="1" height="1" fill="#FFFFFF" /><rect x="3" y="8" width="1" height="1" fill="#FFFFFF" /><rect x="4" y="8" width="1" height="1" fill="#FFFFFF" /><rect x="5" y="8" width="1" height="1" fill="#F6F0FA" /><rect x="6" y="8" width="1" height="1" fill="#731FAF" /><rect x="7" y="8" width="1" height="1" fill="#A328E5" /><rect x="8" y="8" width="1" height="1" fill="#BF37FF" /><rect x="9" y="8" width="1" height="1" fill="#6B0CAF" /><rect x="0" y="9" width="1" height="1" fill="#FFFFFF" /><rect x="1" y="9" width="1" height="1" fill="#FFFFFF" /><rect x="2" y="9" width="1" height="1" fill="#FFFFFF" /><rect x="3" y="9" width="1" height="1" fill="#FFFFFF" /><rect x="4" y="9" width="1" height="1" fill="#FFFFFF" /><rect x="5" y="9" width="1" height="1" fill="#F9F5FC" /><rect x="6" y="9" width="1" height="1" fill="#670AAA" /><rect x="7" y="9" width="1" height="1" fill="#9B24DE" /><rect x="8" y="9" width="1" height="1" fill="#C63AFF" /><rect x="9" y="9" width="1" height="1" fill="#A82BEA" />
  </g>
</svg>