<svg width="800" height="1000" version="1.1" xmlns="http://www.w3.org/2000/svg" xmlns:xlink="http://www.w3.org/1999/xlink">
  <defs>
      <linearGradient id="Gradient2" x1="0" x2="1" y1="0" y2="1">
        <stop offset="0%" stop-color="#2d3c96"/>
        <stop offset="100%" stop-color="#d53392"/>
      </linearGradient>
  </defs>
  <rect x="10" y="10" width="780" height="980" fill="url(#Gradient2)" rx="50" ry="50" stroke="#ffd700" stroke-width="20"/>
  <text x="400" y="920" width="780" text-anchor="middle" style="font: bold 200px 'Helvetica Neue'; fill: #ffd700">02646</text>

  <g transform="translate(80 80) scale(64)">
<rect x="0" y="0" width="1" height="1" fill="#000000" />
,<rect x="0" y="1" width="1" height="1" fill="#000000" />
,<rect x="0" y="2" width="1" height="1" fill="#000000" />
,<rect x="0" y="3" width="1" height="1" fill="#000000" />
,<rect x="0" y="4" width="1" height="1" fill="#000000" />
,<rect x="0" y="5" width="1" height="1" fill="#000000" />
,<rect x="0" y="6" width="1" height="1" fill="#020612" />
,<rect x="0" y="7" width="1" height="1" fill="#221a52" />
,<rect x="0" y="8" width="1" height="1" fill="#3f1272" />
,<rect x="0" y="9" width="1" height="1" fill="#7f15ca" />
,<rect x="1" y="0" width="1" height="1" fill="#000001" />
,<rect x="1" y="1" width="1" height="1" fill="#000000" />
,<rect x="1" y="2" width="1" height="1" fill="#000000" />
,<rect x="1" y="3" width="1" height="1" fill="#000000" />
,<rect x="1" y="4" width="1" height="1" fill="#000000" />
,<rect x="1" y="5" width="1" height="1" fill="#000000" />
,<rect x="1" y="6" width="1" height="1" fill="#080620" />
,<rect x="1" y="7" width="1" height="1" fill="#131a3f" />
,<rect x="1" y="8" width="1" height="1" fill="#001814" />
,<rect x="1" y="9" width="1" height="1" fill="#6217a2" />
,<rect x="2" y="0" width="1" height="1" fill="#0c0c2a" />
,<rect x="2" y="1" width="1" height="1" fill="#000000" />
,<rect x="2" y="2" width="1" height="1" fill="#000000" />
,<rect x="2" y="3" width="1" height="1" fill="#000000" />
,<rect x="2" y="4" width="1" height="1" fill="#000000" />
,<rect x="2" y="5" width="1" height="1" fill="#000000" />
,<rect x="2" y="6" width="1" height="1" fill="#06061e" />
,<rect x="2" y="7" width="1" height="1" fill="#171a43" />
,<rect x="2" y="8" width="1" height="1" fill="#06152a" />
,<rect x="2" y="9" width="1" height="1" fill="#7018b8" />
,<rect x="3" y="0" width="1" height="1" fill="#101032" />
,<rect x="3" y="1" width="1" height="1" fill="#000000" />
,<rect x="3" y="2" width="1" height="1" fill="#000000" />
,<rect x="3" y="3" width="1" height="1" fill="#000000" />
,<rect x="3" y="4" width="1" height="1" fill="#000000" />
,<rect x="3" y="5" width="1" height="1" fill="#000000" />
,<rect x="3" y="6" width="1" height="1" fill="#06061e" />
,<rect x="3" y="7" width="1" height="1" fill="#1a1a47" />
,<rect x="3" y="8" width="1" height="1" fill="#14183e" />
,<rect x="3" y="9" width="1" height="1" fill="#1e063a" />
,<rect x="4" y="0" width="1" height="1" fill="#0c0c2a" />
,<rect x="4" y="1" width="1" height="1" fill="#000000" />
,<rect x="4" y="2" width="1" height="1" fill="#000000" />
,<rect x="4" y="3" width="1" height="1" fill="#000000" />
,<rect x="4" y="4" width="1" height="1" fill="#000000" />
,<rect x="4" y="5" width="1" height="1" fill="#000000" />
,<rect x="4" y="6" width="1" height="1" fill="#06061c" />
,<rect x="4" y="7" width="1" height="1" fill="#1b1b49" />
,<rect x="4" y="8" width="1" height="1" fill="#181a44" />
,<rect x="4" y="9" width="1" height="1" fill="#0c0320" />
,<rect x="5" y="0" width="1" height="1" fill="#0a0a22" />
,<rect x="5" y="1" width="1" height="1" fill="#000000" />
,<rect x="5" y="2" width="1" height="1" fill="#000000" />
,<rect x="5" y="3" width="1" height="1" fill="#000000" />
,<rect x="5" y="4" width="1" height="1" fill="#000000" />
,<rect x="5" y="5" width="1" height="1" fill="#000000" />
,<rect x="5" y="6" width="1" height="1" fill="#06061c" />
,<rect x="5" y="7" width="1" height="1" fill="#181b44" />
,<rect x="5" y="8" width="1" height="1" fill="#0b1a33" />
,<rect x="5" y="9" width="1" height="1" fill="#771ac1" />
,<rect x="6" y="0" width="1" height="1" fill="#0c0c29" />
,<rect x="6" y="1" width="1" height="1" fill="#000000" />
,<rect x="6" y="2" width="1" height="1" fill="#000000" />
,<rect x="6" y="3" width="1" height="1" fill="#000000" />
,<rect x="6" y="4" width="1" height="1" fill="#000000" />
,<rect x="6" y="5" width="1" height="1" fill="#000000" />
,<rect x="6" y="6" width="1" height="1" fill="#070720" />
,<rect x="6" y="7" width="1" height="1" fill="#15173d" />
,<rect x="6" y="8" width="1" height="1" fill="#010205" />
,<rect x="6" y="9" width="1" height="1" fill="#200238" />
,<rect x="7" y="0" width="1" height="1" fill="#050517" />
,<rect x="7" y="1" width="1" height="1" fill="#000000" />
,<rect x="7" y="2" width="1" height="1" fill="#000000" />
,<rect x="7" y="3" width="1" height="1" fill="#000000" />
,<rect x="7" y="4" width="1" height="1" fill="#000000" />
,<rect x="7" y="5" width="1" height="1" fill="#010103" />
,<rect x="7" y="6" width="1" height="1" fill="#101031" />
,<rect x="7" y="7" width="1" height="1" fill="#101132" />
,<rect x="7" y="8" width="1" height="1" fill="#000000" />
,<rect x="7" y="9" width="1" height="1" fill="#000000" />
,<rect x="8" y="0" width="1" height="1" fill="#000000" />
,<rect x="8" y="1" width="1" height="1" fill="#000000" />
,<rect x="8" y="2" width="1" height="1" fill="#000000" />
,<rect x="8" y="3" width="1" height="1" fill="#000000" />
,<rect x="8" y="4" width="1" height="1" fill="#000001" />
,<rect x="8" y="5" width="1" height="1" fill="#17173f" />
,<rect x="8" y="6" width="1" height="1" fill="#1c1c4c" />
,<rect x="8" y="7" width="1" height="1" fill="#0e0e2c" />
,<rect x="8" y="8" width="1" height="1" fill="#000000" />
,<rect x="8" y="9" width="1" height="1" fill="#000000" />
,<rect x="9" y="0" width="1" height="1" fill="#000000" />
,<rect x="9" y="1" width="1" height="1" fill="#000000" />
,<rect x="9" y="2" width="1" height="1" fill="#000000" />
,<rect x="9" y="3" width="1" height="1" fill="#000000" />
,<rect x="9" y="4" width="1" height="1" fill="#000000" />
,<rect x="9" y="5" width="1" height="1" fill="#111234" />
,<rect x="9" y="6" width="1" height="1" fill="#2c286b" />
,<rect x="9" y="7" width="1" height="1" fill="#231f5a" />
,<rect x="9" y="8" width="1" height="1" fill="#000000" />
,<rect x="9" y="9" width="1" height="1" fill="#000000" />

  </g>
</svg>