<svg width="800" height="1000" version="1.1" xmlns="http://www.w3.org/2000/svg" xmlns:xlink="http://www.w3.org/1999/xlink">
  <defs>
      <linearGradient id="Gradient2" x1="0" x2="1" y1="0" y2="1">
        <stop offset="0%" stop-color="#2d3c96"/>
        <stop offset="100%" stop-color="#d53392"/>
      </linearGradient>
  </defs>
  <rect x="10" y="10" width="780" height="980" fill="url(#Gradient2)" rx="50" ry="50" stroke="#ffd700" stroke-width="20"/>
  <text x="400" y="920" width="780" text-anchor="middle" style="font: bold 200px 'Helvetica Neue'; fill: #ffd700">02644</text>

  <g transform="translate(80 80) scale(64)">
<rect x="0" y="0" width="1" height="1" fill="#ffffff" />
,<rect x="0" y="1" width="1" height="1" fill="#fcfafd" />
,<rect x="0" y="2" width="1" height="1" fill="#8837bf" />
,<rect x="0" y="3" width="1" height="1" fill="#b889d9" />
,<rect x="0" y="4" width="1" height="1" fill="#ffffff" />
,<rect x="0" y="5" width="1" height="1" fill="#ffffff" />
,<rect x="0" y="6" width="1" height="1" fill="#ffffff" />
,<rect x="0" y="7" width="1" height="1" fill="#ffffff" />
,<rect x="0" y="8" width="1" height="1" fill="#ffffff" />
,<rect x="0" y="9" width="1" height="1" fill="#ffffff" />
,<rect x="1" y="0" width="1" height="1" fill="#ffffff" />
,<rect x="1" y="1" width="1" height="1" fill="#ffffff" />
,<rect x="1" y="2" width="1" height="1" fill="#964fc7" />
,<rect x="1" y="3" width="1" height="1" fill="#be93dc" />
,<rect x="1" y="4" width="1" height="1" fill="#ffffff" />
,<rect x="1" y="5" width="1" height="1" fill="#ffffff" />
,<rect x="1" y="6" width="1" height="1" fill="#ffffff" />
,<rect x="1" y="7" width="1" height="1" fill="#ffffff" />
,<rect x="1" y="8" width="1" height="1" fill="#ffffff" />
,<rect x="1" y="9" width="1" height="1" fill="#ffffff" />
,<rect x="2" y="0" width="1" height="1" fill="#ffffff" />
,<rect x="2" y="1" width="1" height="1" fill="#ffffff" />
,<rect x="2" y="2" width="1" height="1" fill="#ffffff" />
,<rect x="2" y="3" width="1" height="1" fill="#ffffff" />
,<rect x="2" y="4" width="1" height="1" fill="#ffffff" />
,<rect x="2" y="5" width="1" height="1" fill="#ffffff" />
,<rect x="2" y="6" width="1" height="1" fill="#ffffff" />
,<rect x="2" y="7" width="1" height="1" fill="#ffffff" />
,<rect x="2" y="8" width="1" height="1" fill="#ffffff" />
,<rect x="2" y="9" width="1" height="1" fill="#ffffff" />
,<rect x="3" y="0" width="1" height="1" fill="#b145e9" />
,<rect x="3" y="1" width="1" height="1" fill="#8a44be" />
,<rect x="3" y="2" width="1" height="1" fill="#f3edf9" />
,<rect x="3" y="3" width="1" height="1" fill="#ffffff" />
,<rect x="3" y="4" width="1" height="1" fill="#ffffff" />
,<rect x="3" y="5" width="1" height="1" fill="#ffffff" />
,<rect x="3" y="6" width="1" height="1" fill="#ffffff" />
,<rect x="3" y="7" width="1" height="1" fill="#ffffff" />
,<rect x="3" y="8" width="1" height="1" fill="#ffffff" />
,<rect x="3" y="9" width="1" height="1" fill="#ffffff" />
,<rect x="4" y="0" width="1" height="1" fill="#8219c3" />
,<rect x="4" y="1" width="1" height="1" fill="#6609a7" />
,<rect x="4" y="2" width="1" height="1" fill="#af81d2" />
,<rect x="4" y="3" width="1" height="1" fill="#cfb1e5" />
,<rect x="4" y="4" width="1" height="1" fill="#c6a0e1" />
,<rect x="4" y="5" width="1" height="1" fill="#c6a0e1" />
,<rect x="4" y="6" width="1" height="1" fill="#be93dc" />
,<rect x="4" y="7" width="1" height="1" fill="#d5bae9" />
,<rect x="4" y="8" width="1" height="1" fill="#ffffff" />
,<rect x="4" y="9" width="1" height="1" fill="#ffffff" />
,<rect x="5" y="0" width="1" height="1" fill="#680aac" />
,<rect x="5" y="1" width="1" height="1" fill="#7813ba" />
,<rect x="5" y="2" width="1" height="1" fill="#7812ba" />
,<rect x="5" y="3" width="1" height="1" fill="#7510b6" />
,<rect x="5" y="4" width="1" height="1" fill="#720eb3" />
,<rect x="5" y="5" width="1" height="1" fill="#7310b4" />
,<rect x="5" y="6" width="1" height="1" fill="#7310b4" />
,<rect x="5" y="7" width="1" height="1" fill="#8938c0" />
,<rect x="5" y="8" width="1" height="1" fill="#f6f0fa" />
,<rect x="5" y="9" width="1" height="1" fill="#f9f5fc" />
,<rect x="6" y="0" width="1" height="1" fill="#be2bfe" />
,<rect x="6" y="1" width="1" height="1" fill="#b231f8" />
,<rect x="6" y="2" width="1" height="1" fill="#c037ff" />
,<rect x="6" y="3" width="1" height="1" fill="#8d1cce" />
,<rect x="6" y="4" width="1" height="1" fill="#5c059d" />
,<rect x="6" y="5" width="1" height="1" fill="#7210b3" />
,<rect x="6" y="6" width="1" height="1" fill="#7511b6" />
,<rect x="6" y="7" width="1" height="1" fill="#7211b3" />
,<rect x="6" y="8" width="1" height="1" fill="#731faf" />
,<rect x="6" y="9" width="1" height="1" fill="#670aaa" />
,<rect x="7" y="0" width="1" height="1" fill="#8820b8" />
,<rect x="7" y="1" width="1" height="1" fill="#e142ff" />
,<rect x="7" y="2" width="1" height="1" fill="#dd41ff" />
,<rect x="7" y="3" width="1" height="1" fill="#b832f5" />
,<rect x="7" y="4" width="1" height="1" fill="#8b1cd1" />
,<rect x="7" y="5" width="1" height="1" fill="#6c0caf" />
,<rect x="7" y="6" width="1" height="1" fill="#6509a7" />
,<rect x="7" y="7" width="1" height="1" fill="#7d14be" />
,<rect x="7" y="8" width="1" height="1" fill="#a328e5" />
,<rect x="7" y="9" width="1" height="1" fill="#9b24de" />
,<rect x="8" y="0" width="1" height="1" fill="#330746" />
,<rect x="8" y="1" width="1" height="1" fill="#b934f7" />
,<rect x="8" y="2" width="1" height="1" fill="#a32ce1" />
,<rect x="8" y="3" width="1" height="1" fill="#be37f8" />
,<rect x="8" y="4" width="1" height="1" fill="#c839ff" />
,<rect x="8" y="5" width="1" height="1" fill="#8418ca" />
,<rect x="8" y="6" width="1" height="1" fill="#660aa9" />
,<rect x="8" y="7" width="1" height="1" fill="#7e15c0" />
,<rect x="8" y="8" width="1" height="1" fill="#bf37ff" />
,<rect x="8" y="9" width="1" height="1" fill="#c63aff" />
,<rect x="9" y="0" width="1" height="1" fill="#000000" />
,<rect x="9" y="1" width="1" height="1" fill="#010003" />
,<rect x="9" y="2" width="1" height="1" fill="#000000" />
,<rect x="9" y="3" width="1" height="1" fill="#6d1b90" />
,<rect x="9" y="4" width="1" height="1" fill="#ee45ff" />
,<rect x="9" y="5" width="1" height="1" fill="#da40ff" />
,<rect x="9" y="6" width="1" height="1" fill="#9520d7" />
,<rect x="9" y="7" width="1" height="1" fill="#5b059e" />
,<rect x="9" y="8" width="1" height="1" fill="#6b0caf" />
,<rect x="9" y="9" width="1" height="1" fill="#a82bea" />

  </g>
</svg>