<svg width="800" height="1000" version="1.1" xmlns="http://www.w3.org/2000/svg" xmlns:xlink="http://www.w3.org/1999/xlink">
  <defs>
      <linearGradient id="Gradient2" x1="0" x2="1" y1="0" y2="1">
        <stop offset="0%" stop-color="#2d3c96"/>
        <stop offset="100%" stop-color="#d53392"/>
      </linearGradient>
  </defs>
  <rect x="10" y="10" width="780" height="980" fill="url(#Gradient2)" rx="50" ry="50" stroke="#ffd700" stroke-width="20"/>
  <text x="400" y="920" width="780" text-anchor="middle" style="font: bold 200px 'Helvetica Neue'; fill: #ffd700">02745</text>

  <g transform="translate(80 80) scale(64)">
<rect x="0" y="0" width="1" height="1" fill="#AF5AE1" /><rect x="1" y="0" width="1" height="1" fill="#8E4DBE" /><rect x="2" y="0" width="1" height="1" fill="#6D0DAF" /><rect x="3" y="0" width="1" height="1" fill="#9F1FEF" /><rect x="4" y="0" width="1" height="1" fill="#7414AF" /><rect x="5" y="0" width="1" height="1" fill="#0D001C" /><rect x="6" y="0" width="1" height="1" fill="#010007" /><rect x="7" y="0" width="1" height="1" fill="#000000" /><rect x="8" y="0" width="1" height="1" fill="#000000" /><rect x="9" y="0" width="1" height="1" fill="#3E0567" /><rect x="0" y="1" width="1" height="1" fill="#EDD8F9" /><rect x="1" y="1" width="1" height="1" fill="#FDFBFD" /><rect x="2" y="1" width="1" height="1" fill="#6C0CAF" /><rect x="3" y="1" width="1" height="1" fill="#B432F5" /><rect x="4" y="1" width="1" height="1" fill="#B531F8" /><rect x="5" y="1" width="1" height="1" fill="#700CB5" /><rect x="6" y="1" width="1" height="1" fill="#8B14DB" /><rect x="7" y="1" width="1" height="1" fill="#490674" /><rect x="8" y="1" width="1" height="1" fill="#000000" /><rect x="9" y="1" width="1" height="1" fill="#000000" /><rect x="0" y="2" width="1" height="1" fill="#9B37D7" /><rect x="1" y="2" width="1" height="1" fill="#AA7DCD" /><rect x="2" y="2" width="1" height="1" fill="#E8D9F2" /><rect x="3" y="2" width="1" height="1" fill="#9641CC" /><rect x="4" y="2" width="1" height="1" fill="#8117C4" /><rect x="5" y="2" width="1" height="1" fill="#7610BA" /><rect x="6" y="2" width="1" height="1" fill="#7C12C2" /><rect x="7" y="2" width="1" height="1" fill="#670BA6" /><rect x="8" y="2" width="1" height="1" fill="#5C0B91" /><rect x="9" y="2" width="1" height="1" fill="#B032DA" /><rect x="0" y="3" width="1" height="1" fill="#861AC7" /><rect x="1" y="3" width="1" height="1" fill="#7720B3" /><rect x="2" y="3" width="1" height="1" fill="#FFFFFF" /><rect x="3" y="3" width="1" height="1" fill="#D2B8E6" /><rect x="4" y="3" width="1" height="1" fill="#873CBB" /><rect x="5" y="3" width="1" height="1" fill="#7410B5" /><rect x="6" y="3" width="1" height="1" fill="#7010B1" /><rect x="7" y="3" width="1" height="1" fill="#740EB8" /><rect x="8" y="3" width="1" height="1" fill="#8614D1" /><rect x="9" y="3" width="1" height="1" fill="#C733FF" /><rect x="0" y="4" width="1" height="1" fill="#904EBF" /><rect x="1" y="4" width="1" height="1" fill="#7A1EB7" /><rect x="2" y="4" width="1" height="1" fill="#FFFFFF" /><rect x="3" y="4" width="1" height="1" fill="#FFFFFF" /><rect x="4" y="4" width="1" height="1" fill="#DDC7ED" /><rect x="5" y="4" width="1" height="1" fill="#7310B4" /><rect x="6" y="4" width="1" height="1" fill="#7411B4" /><rect x="7" y="4" width="1" height="1" fill="#7410B4" /><rect x="8" y="4" width="1" height="1" fill="#7210B3" /><rect x="9" y="4" width="1" height="1" fill="#660AAD" /><rect x="0" y="5" width="1" height="1" fill="#F1EAF7" /><rect x="1" y="5" width="1" height="1" fill="#C6A1E1" /><rect x="2" y="5" width="1" height="1" fill="#7310B4" /><rect x="3" y="5" width="1" height="1" fill="#D5BAE9" /><rect x="4" y="5" width="1" height="1" fill="#FDFCFE" /><rect x="5" y="5" width="1" height="1" fill="#E3D1F0" /><rect x="6" y="5" width="1" height="1" fill="#EDE0F5" /><rect x="7" y="5" width="1" height="1" fill="#B482D7" /><rect x="8" y="5" width="1" height="1" fill="#7310B4" /><rect x="9" y="5" width="1" height="1" fill="#700EB2" /><rect x="0" y="6" width="1" height="1" fill="#FFFFFF" /><rect x="1" y="6" width="1" height="1" fill="#F7F2FB" /><rect x="2" y="6" width="1" height="1" fill="#A365CE" /><rect x="3" y="6" width="1" height="1" fill="#DFCAEE" /><rect x="4" y="6" width="1" height="1" fill="#FFFFFF" /><rect x="5" y="6" width="1" height="1" fill="#FFFFFF" /><rect x="6" y="6" width="1" height="1" fill="#FFFFFF" /><rect x="7" y="6" width="1" height="1" fill="#F3EDF9" /><rect x="8" y="6" width="1" height="1" fill="#C097DE" /><rect x="9" y="6" width="1" height="1" fill="#BA8CDA" /><rect x="0" y="7" width="1" height="1" fill="#FFFFFF" /><rect x="1" y="7" width="1" height="1" fill="#FFFFFF" /><rect x="2" y="7" width="1" height="1" fill="#FFFFFF" /><rect x="3" y="7" width="1" height="1" fill="#FFFFFF" /><rect x="4" y="7" width="1" height="1" fill="#FFFFFF" /><rect x="5" y="7" width="1" height="1" fill="#FFFFFF" /><rect x="6" y="7" width="1" height="1" fill="#FFFFFF" /><rect x="7" y="7" width="1" height="1" fill="#FFFFFF" /><rect x="8" y="7" width="1" height="1" fill="#FFFFFF" /><rect x="9" y="7" width="1" height="1" fill="#FFFFFF" /><rect x="0" y="8" width="1" height="1" fill="#FFFFFF" /><rect x="1" y="8" width="1" height="1" fill="#FFFFFF" /><rect x="2" y="8" width="1" height="1" fill="#FFFFFF" /><rect x="3" y="8" width="1" height="1" fill="#FFFFFF" /><rect x="4" y="8" width="1" height="1" fill="#FFFFFF" /><rect x="5" y="8" width="1" height="1" fill="#FFFFFF" /><rect x="6" y="8" width="1" height="1" fill="#FFFFFF" /><rect x="7" y="8" width="1" height="1" fill="#BA8DDA" /><rect x="8" y="8" width="1" height="1" fill="#7310B4" /><rect x="9" y="8" width="1" height="1" fill="#EDE1F5" /><rect x="0" y="9" width="1" height="1" fill="#FFFFFF" /><rect x="1" y="9" width="1" height="1" fill="#FFFFFF" /><rect x="2" y="9" width="1" height="1" fill="#FFFFFF" /><rect x="3" y="9" width="1" height="1" fill="#FFFFFF" /><rect x="4" y="9" width="1" height="1" fill="#FFFFFF" /><rect x="5" y="9" width="1" height="1" fill="#FFFFFF" /><rect x="6" y="9" width="1" height="1" fill="#FFFFFF" /><rect x="7" y="9" width="1" height="1" fill="#DCC4EC" /><rect x="8" y="9" width="1" height="1" fill="#AF7AD4" /><rect x="9" y="9" width="1" height="1" fill="#F4EFF9" />
  </g>
</svg>