<svg width="800" height="1000" version="1.1" xmlns="http://www.w3.org/2000/svg" xmlns:xlink="http://www.w3.org/1999/xlink">
  <defs>
      <linearGradient id="Gradient2" x1="0" x2="1" y1="0" y2="1">
        <stop offset="0%" stop-color="#2d3c96"/>
        <stop offset="100%" stop-color="#d53392"/>
      </linearGradient>
  </defs>
  <rect x="10" y="10" width="780" height="980" fill="url(#Gradient2)" rx="50" ry="50" stroke="#ffd700" stroke-width="20"/>
  <text x="400" y="920" width="780" text-anchor="middle" style="font: bold 200px 'Helvetica Neue'; fill: #ffd700">02747</text>

  <g transform="translate(80 80) scale(64)">
<rect x="0" y="0" width="1" height="1" fill="#000000" /><rect x="1" y="0" width="1" height="1" fill="#000000" /><rect x="2" y="0" width="1" height="1" fill="#000000" /><rect x="3" y="0" width="1" height="1" fill="#04000A" /><rect x="4" y="0" width="1" height="1" fill="#1A012E" /><rect x="5" y="0" width="1" height="1" fill="#0E001C" /><rect x="6" y="0" width="1" height="1" fill="#550988" /><rect x="7" y="0" width="1" height="1" fill="#8E15E0" /><rect x="8" y="0" width="1" height="1" fill="#6509A8" /><rect x="9" y="0" width="1" height="1" fill="#7D29B6" /><rect x="0" y="1" width="1" height="1" fill="#000000" /><rect x="1" y="1" width="1" height="1" fill="#000000" /><rect x="2" y="1" width="1" height="1" fill="#000000" /><rect x="3" y="1" width="1" height="1" fill="#3A0460" /><rect x="4" y="1" width="1" height="1" fill="#8D15DE" /><rect x="5" y="1" width="1" height="1" fill="#7911BD" /><rect x="6" y="1" width="1" height="1" fill="#7610B9" /><rect x="7" y="1" width="1" height="1" fill="#7210B2" /><rect x="8" y="1" width="1" height="1" fill="#7310B4" /><rect x="9" y="1" width="1" height="1" fill="#D5BAE9" /><rect x="0" y="2" width="1" height="1" fill="#060015" /><rect x="1" y="2" width="1" height="1" fill="#5F079C" /><rect x="2" y="2" width="1" height="1" fill="#4C0582" /><rect x="3" y="2" width="1" height="1" fill="#640BA1" /><rect x="4" y="2" width="1" height="1" fill="#7E13C4" /><rect x="5" y="2" width="1" height="1" fill="#7911BD" /><rect x="6" y="2" width="1" height="1" fill="#A86DD2" /><rect x="7" y="2" width="1" height="1" fill="#EEE2F5" /><rect x="8" y="2" width="1" height="1" fill="#F4EFF9" /><rect x="9" y="2" width="1" height="1" fill="#FFFFFF" /><rect x="0" y="3" width="1" height="1" fill="#641490" /><rect x="1" y="3" width="1" height="1" fill="#A623F6" /><rect x="2" y="3" width="1" height="1" fill="#A625EF" /><rect x="3" y="3" width="1" height="1" fill="#8919CE" /><rect x="4" y="3" width="1" height="1" fill="#7015AF" /><rect x="5" y="3" width="1" height="1" fill="#A56ACF" /><rect x="6" y="3" width="1" height="1" fill="#EDE1F5" /><rect x="7" y="3" width="1" height="1" fill="#FFFFFF" /><rect x="8" y="3" width="1" height="1" fill="#D4B8E8" /><rect x="9" y="3" width="1" height="1" fill="#C9A6E2" /><rect x="0" y="4" width="1" height="1" fill="#CA3AFF" /><rect x="1" y="4" width="1" height="1" fill="#C038FF" /><rect x="2" y="4" width="1" height="1" fill="#CF3FFF" /><rect x="3" y="4" width="1" height="1" fill="#9A24DC" /><rect x="4" y="4" width="1" height="1" fill="#7625B0" /><rect x="5" y="4" width="1" height="1" fill="#FFFFFF" /><rect x="6" y="4" width="1" height="1" fill="#FFFFFF" /><rect x="7" y="4" width="1" height="1" fill="#E0CBEF" /><rect x="8" y="4" width="1" height="1" fill="#7310B4" /><rect x="9" y="4" width="1" height="1" fill="#7310B4" /><rect x="0" y="5" width="1" height="1" fill="#CB3DFF" /><rect x="1" y="5" width="1" height="1" fill="#C539FF" /><rect x="2" y="5" width="1" height="1" fill="#8B1CCE" /><rect x="3" y="5" width="1" height="1" fill="#700EB2" /><rect x="4" y="5" width="1" height="1" fill="#7313B3" /><rect x="5" y="5" width="1" height="1" fill="#8E42C3" /><rect x="6" y="5" width="1" height="1" fill="#822CBC" /><rect x="7" y="5" width="1" height="1" fill="#8E42C3" /><rect x="8" y="5" width="1" height="1" fill="#E5D4F1" /><rect x="9" y="5" width="1" height="1" fill="#E1CDEF" /><rect x="0" y="6" width="1" height="1" fill="#9923DA" /><rect x="1" y="6" width="1" height="1" fill="#9621D9" /><rect x="2" y="6" width="1" height="1" fill="#6E0DB1" /><rect x="3" y="6" width="1" height="1" fill="#690BAC" /><rect x="4" y="6" width="1" height="1" fill="#7411B5" /><rect x="5" y="6" width="1" height="1" fill="#7310B4" /><rect x="6" y="6" width="1" height="1" fill="#7E23BA" /><rect x="7" y="6" width="1" height="1" fill="#C5A0E0" /><rect x="8" y="6" width="1" height="1" fill="#FFFFFF" /><rect x="9" y="6" width="1" height="1" fill="#FFFFFF" /><rect x="0" y="7" width="1" height="1" fill="#7521B1" /><rect x="1" y="7" width="1" height="1" fill="#7622B1" /><rect x="2" y="7" width="1" height="1" fill="#7F27B9" /><rect x="3" y="7" width="1" height="1" fill="#8129BC" /><rect x="4" y="7" width="1" height="1" fill="#7F27BB" /><rect x="5" y="7" width="1" height="1" fill="#7A1CB8" /><rect x="6" y="7" width="1" height="1" fill="#D0B2E6" /><rect x="7" y="7" width="1" height="1" fill="#FFFFFF" /><rect x="8" y="7" width="1" height="1" fill="#FFFFFF" /><rect x="9" y="7" width="1" height="1" fill="#FFFFFF" /><rect x="0" y="8" width="1" height="1" fill="#F7F1FA" /><rect x="1" y="8" width="1" height="1" fill="#F7F1FA" /><rect x="2" y="8" width="1" height="1" fill="#F7F1FB" /><rect x="3" y="8" width="1" height="1" fill="#F7F1FB" /><rect x="4" y="8" width="1" height="1" fill="#F6F0FA" /><rect x="5" y="8" width="1" height="1" fill="#F2EBF8" /><rect x="6" y="8" width="1" height="1" fill="#FCFAFD" /><rect x="7" y="8" width="1" height="1" fill="#FFFFFF" /><rect x="8" y="8" width="1" height="1" fill="#FFFFFF" /><rect x="9" y="8" width="1" height="1" fill="#FFFFFF" /><rect x="0" y="9" width="1" height="1" fill="#FFFFFF" /><rect x="1" y="9" width="1" height="1" fill="#FFFFFF" /><rect x="2" y="9" width="1" height="1" fill="#FFFFFF" /><rect x="3" y="9" width="1" height="1" fill="#FFFFFF" /><rect x="4" y="9" width="1" height="1" fill="#FFFFFF" /><rect x="5" y="9" width="1" height="1" fill="#FFFFFF" /><rect x="6" y="9" width="1" height="1" fill="#FFFFFF" /><rect x="7" y="9" width="1" height="1" fill="#FFFFFF" /><rect x="8" y="9" width="1" height="1" fill="#FFFFFF" /><rect x="9" y="9" width="1" height="1" fill="#FFFFFF" />
  </g>
</svg>