<svg width="800" height="1000" version="1.1" xmlns="http://www.w3.org/2000/svg" xmlns:xlink="http://www.w3.org/1999/xlink">
  <defs>
      <linearGradient id="Gradient2" x1="0" x2="1" y1="0" y2="1">
        <stop offset="0%" stop-color="#2d3c96"/>
        <stop offset="100%" stop-color="#d53392"/>
      </linearGradient>
  </defs>
  <rect x="10" y="10" width="780" height="980" fill="url(#Gradient2)" rx="50" ry="50" stroke="#ffd700" stroke-width="20"/>
  <text x="400" y="920" width="780" text-anchor="middle" style="font: bold 200px 'Helvetica Neue'; fill: #ffd700">02746</text>

  <g transform="translate(80 80) scale(64)">
<rect x="0" y="0" width="1" height="1" fill="#64099E" /><rect x="1" y="0" width="1" height="1" fill="#6909A2" /><rect x="2" y="0" width="1" height="1" fill="#720BB0" /><rect x="3" y="0" width="1" height="1" fill="#130021" /><rect x="4" y="0" width="1" height="1" fill="#020002" /><rect x="5" y="0" width="1" height="1" fill="#760BB6" /><rect x="6" y="0" width="1" height="1" fill="#210138" /><rect x="7" y="0" width="1" height="1" fill="#000000" /><rect x="8" y="0" width="1" height="1" fill="#000000" /><rect x="9" y="0" width="1" height="1" fill="#000000" /><rect x="0" y="1" width="1" height="1" fill="#000000" /><rect x="1" y="1" width="1" height="1" fill="#000000" /><rect x="2" y="1" width="1" height="1" fill="#000000" /><rect x="3" y="1" width="1" height="1" fill="#000000" /><rect x="4" y="1" width="1" height="1" fill="#000000" /><rect x="5" y="1" width="1" height="1" fill="#000000" /><rect x="6" y="1" width="1" height="1" fill="#000000" /><rect x="7" y="1" width="1" height="1" fill="#000000" /><rect x="8" y="1" width="1" height="1" fill="#000000" /><rect x="9" y="1" width="1" height="1" fill="#000000" /><rect x="0" y="2" width="1" height="1" fill="#46125A" /><rect x="1" y="2" width="1" height="1" fill="#000000" /><rect x="2" y="2" width="1" height="1" fill="#000000" /><rect x="3" y="2" width="1" height="1" fill="#000000" /><rect x="4" y="2" width="1" height="1" fill="#000000" /><rect x="5" y="2" width="1" height="1" fill="#000000" /><rect x="6" y="2" width="1" height="1" fill="#000000" /><rect x="7" y="2" width="1" height="1" fill="#000000" /><rect x="8" y="2" width="1" height="1" fill="#000000" /><rect x="9" y="2" width="1" height="1" fill="#000000" /><rect x="0" y="3" width="1" height="1" fill="#7018A1" /><rect x="1" y="3" width="1" height="1" fill="#200236" /><rect x="2" y="3" width="1" height="1" fill="#450E60" /><rect x="3" y="3" width="1" height="1" fill="#4A1063" /><rect x="4" y="3" width="1" height="1" fill="#460E61" /><rect x="5" y="3" width="1" height="1" fill="#470E62" /><rect x="6" y="3" width="1" height="1" fill="#440D5E" /><rect x="7" y="3" width="1" height="1" fill="#420C5D" /><rect x="8" y="3" width="1" height="1" fill="#420C5D" /><rect x="9" y="3" width="1" height="1" fill="#3C0B52" /><rect x="0" y="4" width="1" height="1" fill="#6C0AB2" /><rect x="1" y="4" width="1" height="1" fill="#8717CF" /><rect x="2" y="4" width="1" height="1" fill="#CF3AFF" /><rect x="3" y="4" width="1" height="1" fill="#D83FFF" /><rect x="4" y="4" width="1" height="1" fill="#D23DFF" /><rect x="5" y="4" width="1" height="1" fill="#D23CFF" /><rect x="6" y="4" width="1" height="1" fill="#D13CFF" /><rect x="7" y="4" width="1" height="1" fill="#D03CFF" /><rect x="8" y="4" width="1" height="1" fill="#D03CFF" /><rect x="9" y="4" width="1" height="1" fill="#CF3CFF" /><rect x="0" y="5" width="1" height="1" fill="#720EB4" /><rect x="1" y="5" width="1" height="1" fill="#7610B9" /><rect x="2" y="5" width="1" height="1" fill="#8217C5" /><rect x="3" y="5" width="1" height="1" fill="#8317C6" /><rect x="4" y="5" width="1" height="1" fill="#8015C3" /><rect x="5" y="5" width="1" height="1" fill="#7A12BD" /><rect x="6" y="5" width="1" height="1" fill="#B130F6" /><rect x="7" y="5" width="1" height="1" fill="#D240FF" /><rect x="8" y="5" width="1" height="1" fill="#C73AFF" /><rect x="9" y="5" width="1" height="1" fill="#C83AFF" /><rect x="0" y="6" width="1" height="1" fill="#BA8CDA" /><rect x="1" y="6" width="1" height="1" fill="#BA8DDA" /><rect x="2" y="6" width="1" height="1" fill="#BC94D9" /><rect x="3" y="6" width="1" height="1" fill="#8134B8" /><rect x="4" y="6" width="1" height="1" fill="#680AAA" /><rect x="5" y="6" width="1" height="1" fill="#6409A6" /><rect x="6" y="6" width="1" height="1" fill="#881ACA" /><rect x="7" y="6" width="1" height="1" fill="#9D24DD" /><rect x="8" y="6" width="1" height="1" fill="#9621D9" /><rect x="9" y="6" width="1" height="1" fill="#9621D9" /><rect x="0" y="7" width="1" height="1" fill="#FFFFFF" /><rect x="1" y="7" width="1" height="1" fill="#FFFFFF" /><rect x="2" y="7" width="1" height="1" fill="#FFFFFF" /><rect x="3" y="7" width="1" height="1" fill="#BB8EDB" /><rect x="4" y="7" width="1" height="1" fill="#7B1CB9" /><rect x="5" y="7" width="1" height="1" fill="#8129BC" /><rect x="6" y="7" width="1" height="1" fill="#7923B4" /><rect x="7" y="7" width="1" height="1" fill="#7421B1" /><rect x="8" y="7" width="1" height="1" fill="#7622B1" /><rect x="9" y="7" width="1" height="1" fill="#7622B1" /><rect x="0" y="8" width="1" height="1" fill="#FFFFFF" /><rect x="1" y="8" width="1" height="1" fill="#FFFFFF" /><rect x="2" y="8" width="1" height="1" fill="#FFFFFF" /><rect x="3" y="8" width="1" height="1" fill="#FAF7FC" /><rect x="4" y="8" width="1" height="1" fill="#F2EBF8" /><rect x="5" y="8" width="1" height="1" fill="#F7F1FB" /><rect x="6" y="8" width="1" height="1" fill="#F7F1FB" /><rect x="7" y="8" width="1" height="1" fill="#F7F1FA" /><rect x="8" y="8" width="1" height="1" fill="#F7F1FA" /><rect x="9" y="8" width="1" height="1" fill="#F7F1FA" /><rect x="0" y="9" width="1" height="1" fill="#FFFFFF" /><rect x="1" y="9" width="1" height="1" fill="#FFFFFF" /><rect x="2" y="9" width="1" height="1" fill="#FFFFFF" /><rect x="3" y="9" width="1" height="1" fill="#FFFFFF" /><rect x="4" y="9" width="1" height="1" fill="#FFFFFF" /><rect x="5" y="9" width="1" height="1" fill="#FFFFFF" /><rect x="6" y="9" width="1" height="1" fill="#FFFFFF" /><rect x="7" y="9" width="1" height="1" fill="#FFFFFF" /><rect x="8" y="9" width="1" height="1" fill="#FFFFFF" /><rect x="9" y="9" width="1" height="1" fill="#FFFFFF" />
  </g>
</svg>