<svg width="800" height="1000" version="1.1" xmlns="http://www.w3.org/2000/svg" xmlns:xlink="http://www.w3.org/1999/xlink">
  <defs>
      <linearGradient id="Gradient2" x1="0" x2="1" y1="0" y2="1">
        <stop offset="0%" stop-color="#2d3c96"/>
        <stop offset="100%" stop-color="#d53392"/>
      </linearGradient>
  </defs>
  <rect x="10" y="10" width="780" height="980" fill="url(#Gradient2)" rx="50" ry="50" stroke="#ffd700" stroke-width="20"/>
  <text x="400" y="920" width="780" text-anchor="middle" style="font: bold 200px 'Helvetica Neue'; fill: #ffd700">02845</text>

  <g transform="translate(80 80) scale(64)">
<rect x="0" y="0" width="1" height="1" fill="#ffffff" />
,<rect x="0" y="1" width="1" height="1" fill="#ffffff" />
,<rect x="0" y="2" width="1" height="1" fill="#ffffff" />
,<rect x="0" y="3" width="1" height="1" fill="#fefdfc" />
,<rect x="0" y="4" width="1" height="1" fill="#ffffff" />
,<rect x="0" y="5" width="1" height="1" fill="#ffffff" />
,<rect x="0" y="6" width="1" height="1" fill="#f8d2c7" />
,<rect x="0" y="7" width="1" height="1" fill="#9a8d56" />
,<rect x="0" y="8" width="1" height="1" fill="#6faf82" />
,<rect x="0" y="9" width="1" height="1" fill="#f9f9f9" />
,<rect x="1" y="0" width="1" height="1" fill="#ffffff" />
,<rect x="1" y="1" width="1" height="1" fill="#ffffff" />
,<rect x="1" y="2" width="1" height="1" fill="#fffcfc" />
,<rect x="1" y="3" width="1" height="1" fill="#ffffff" />
,<rect x="1" y="4" width="1" height="1" fill="#ffffff" />
,<rect x="1" y="5" width="1" height="1" fill="#fdb7b7" />
,<rect x="1" y="6" width="1" height="1" fill="#fd6254" />
,<rect x="1" y="7" width="1" height="1" fill="#f79f77" />
,<rect x="1" y="8" width="1" height="1" fill="#8b854b" />
,<rect x="1" y="9" width="1" height="1" fill="#bdd7bd" />
,<rect x="2" y="0" width="1" height="1" fill="#ffffff" />
,<rect x="2" y="1" width="1" height="1" fill="#fffcfc" />
,<rect x="2" y="2" width="1" height="1" fill="#ffffff" />
,<rect x="2" y="3" width="1" height="1" fill="#ffffff" />
,<rect x="2" y="4" width="1" height="1" fill="#ffbebe" />
,<rect x="2" y="5" width="1" height="1" fill="#f61919" />
,<rect x="2" y="6" width="1" height="1" fill="#dd1815" />
,<rect x="2" y="7" width="1" height="1" fill="#f9816a" />
,<rect x="2" y="8" width="1" height="1" fill="#c59160" />
,<rect x="2" y="9" width="1" height="1" fill="#3f944e" />
,<rect x="3" y="0" width="1" height="1" fill="#fffdfc" />
,<rect x="3" y="1" width="1" height="1" fill="#ffffff" />
,<rect x="3" y="2" width="1" height="1" fill="#ffffff" />
,<rect x="3" y="3" width="1" height="1" fill="#ffb8b8" />
,<rect x="3" y="4" width="1" height="1" fill="#fd211f" />
,<rect x="3" y="5" width="1" height="1" fill="#f10904" />
,<rect x="3" y="6" width="1" height="1" fill="#e00404" />
,<rect x="3" y="7" width="1" height="1" fill="#fc604e" />
,<rect x="3" y="8" width="1" height="1" fill="#be8e5f" />
,<rect x="3" y="9" width="1" height="1" fill="#0c7722" />
,<rect x="4" y="0" width="1" height="1" fill="#ffffff" />
,<rect x="4" y="1" width="1" height="1" fill="#ffffff" />
,<rect x="4" y="2" width="1" height="1" fill="#ffc0be" />
,<rect x="4" y="3" width="1" height="1" fill="#fd2322" />
,<rect x="4" y="4" width="1" height="1" fill="#ff120e" />
,<rect x="4" y="5" width="1" height="1" fill="#d2130c" />
,<rect x="4" y="6" width="1" height="1" fill="#ec0202" />
,<rect x="4" y="7" width="1" height="1" fill="#ff6452" />
,<rect x="4" y="8" width="1" height="1" fill="#bf8f5e" />
,<rect x="4" y="9" width="1" height="1" fill="#0e7621" />
,<rect x="5" y="0" width="1" height="1" fill="#ffffff" />
,<rect x="5" y="1" width="1" height="1" fill="#fbb7b7" />
,<rect x="5" y="2" width="1" height="1" fill="#f61a1a" />
,<rect x="5" y="3" width="1" height="1" fill="#f00100" />
,<rect x="5" y="4" width="1" height="1" fill="#d50b05" />
,<rect x="5" y="5" width="1" height="1" fill="#f70202" />
,<rect x="5" y="6" width="1" height="1" fill="#fd1f1b" />
,<rect x="5" y="7" width="1" height="1" fill="#ff8a72" />
,<rect x="5" y="8" width="1" height="1" fill="#bb915f" />
,<rect x="5" y="9" width="1" height="1" fill="#157822" />
,<rect x="6" y="0" width="1" height="1" fill="#f7d2c7" />
,<rect x="6" y="1" width="1" height="1" fill="#fc6154" />
,<rect x="6" y="2" width="1" height="1" fill="#e01c1b" />
,<rect x="6" y="3" width="1" height="1" fill="#e10404" />
,<rect x="6" y="4" width="1" height="1" fill="#ec0202" />
,<rect x="6" y="5" width="1" height="1" fill="#fc231f" />
,<rect x="6" y="6" width="1" height="1" fill="#ff6856" />
,<rect x="6" y="7" width="1" height="1" fill="#d6936a" />
,<rect x="6" y="8" width="1" height="1" fill="#6e803c" />
,<rect x="6" y="9" width="1" height="1" fill="#8abc95" />
,<rect x="7" y="0" width="1" height="1" fill="#9d8e57" />
,<rect x="7" y="1" width="1" height="1" fill="#f7a078" />
,<rect x="7" y="2" width="1" height="1" fill="#f9816a" />
,<rect x="7" y="3" width="1" height="1" fill="#fb5f4d" />
,<rect x="7" y="4" width="1" height="1" fill="#ff604d" />
,<rect x="7" y="5" width="1" height="1" fill="#ff8b70" />
,<rect x="7" y="6" width="1" height="1" fill="#d8946a" />
,<rect x="7" y="7" width="1" height="1" fill="#667f32" />
,<rect x="7" y="8" width="1" height="1" fill="#2c8743" />
,<rect x="7" y="9" width="1" height="1" fill="#e7eee6" />
,<rect x="8" y="0" width="1" height="1" fill="#6eae7d" />
,<rect x="8" y="1" width="1" height="1" fill="#8f874c" />
,<rect x="8" y="2" width="1" height="1" fill="#c69162" />
,<rect x="8" y="3" width="1" height="1" fill="#c28f62" />
,<rect x="8" y="4" width="1" height="1" fill="#c09060" />
,<rect x="8" y="5" width="1" height="1" fill="#bd9261" />
,<rect x="8" y="6" width="1" height="1" fill="#6b7e3a" />
,<rect x="8" y="7" width="1" height="1" fill="#2c8745" />
,<rect x="8" y="8" width="1" height="1" fill="#d4e0d4" />
,<rect x="8" y="9" width="1" height="1" fill="#ffffff" />
,<rect x="9" y="0" width="1" height="1" fill="#ffffff" />
,<rect x="9" y="1" width="1" height="1" fill="#64a670" />
,<rect x="9" y="2" width="1" height="1" fill="#007516" />
,<rect x="9" y="3" width="1" height="1" fill="#017218" />
,<rect x="9" y="4" width="1" height="1" fill="#007318" />
,<rect x="9" y="5" width="1" height="1" fill="#08751a" />
,<rect x="9" y="6" width="1" height="1" fill="#88bb95" />
,<rect x="9" y="7" width="1" height="1" fill="#e6ede4" />
,<rect x="9" y="8" width="1" height="1" fill="#ffffff" />
,<rect x="9" y="9" width="1" height="1" fill="#ffffff" />

  </g>
</svg>