<svg width="800" height="1000" version="1.1" xmlns="http://www.w3.org/2000/svg" xmlns:xlink="http://www.w3.org/1999/xlink">
  <defs>
      <linearGradient id="Gradient2" x1="0" x2="1" y1="0" y2="1">
        <stop offset="0%" stop-color="#2d3c96"/>
        <stop offset="100%" stop-color="#d53392"/>
      </linearGradient>
  </defs>
  <rect x="10" y="10" width="780" height="980" fill="url(#Gradient2)" rx="50" ry="50" stroke="#ffd700" stroke-width="20"/>
  <text x="400" y="920" width="780" text-anchor="middle" style="font: bold 200px 'Helvetica Neue'; fill: #ffd700">02845</text>

  <g transform="translate(80 80) scale(64)">
<rect x="0" y="0" width="1" height="1" fill="#FFFFFF" /><rect x="1" y="0" width="1" height="1" fill="#FFFFFF" /><rect x="2" y="0" width="1" height="1" fill="#FFFFFF" /><rect x="3" y="0" width="1" height="1" fill="#FFFDFC" /><rect x="4" y="0" width="1" height="1" fill="#FFFFFF" /><rect x="5" y="0" width="1" height="1" fill="#FFFFFF" /><rect x="6" y="0" width="1" height="1" fill="#F7D2C7" /><rect x="7" y="0" width="1" height="1" fill="#9D8E57" /><rect x="8" y="0" width="1" height="1" fill="#6EAE7D" /><rect x="9" y="0" width="1" height="1" fill="#FFFFFF" /><rect x="0" y="1" width="1" height="1" fill="#FFFFFF" /><rect x="1" y="1" width="1" height="1" fill="#FFFFFF" /><rect x="2" y="1" width="1" height="1" fill="#FFFCFC" /><rect x="3" y="1" width="1" height="1" fill="#FFFFFF" /><rect x="4" y="1" width="1" height="1" fill="#FFFFFF" /><rect x="5" y="1" width="1" height="1" fill="#FBB7B7" /><rect x="6" y="1" width="1" height="1" fill="#FC6154" /><rect x="7" y="1" width="1" height="1" fill="#F7A078" /><rect x="8" y="1" width="1" height="1" fill="#8F874C" /><rect x="9" y="1" width="1" height="1" fill="#64A670" /><rect x="0" y="2" width="1" height="1" fill="#FFFFFF" /><rect x="1" y="2" width="1" height="1" fill="#FFFCFC" /><rect x="2" y="2" width="1" height="1" fill="#FFFFFF" /><rect x="3" y="2" width="1" height="1" fill="#FFFFFF" /><rect x="4" y="2" width="1" height="1" fill="#FFC0BE" /><rect x="5" y="2" width="1" height="1" fill="#F61A1A" /><rect x="6" y="2" width="1" height="1" fill="#E01C1B" /><rect x="7" y="2" width="1" height="1" fill="#F9816A" /><rect x="8" y="2" width="1" height="1" fill="#C69162" /><rect x="9" y="2" width="1" height="1" fill="#007516" /><rect x="0" y="3" width="1" height="1" fill="#FEFDFC" /><rect x="1" y="3" width="1" height="1" fill="#FFFFFF" /><rect x="2" y="3" width="1" height="1" fill="#FFFFFF" /><rect x="3" y="3" width="1" height="1" fill="#FFB8B8" /><rect x="4" y="3" width="1" height="1" fill="#FD2322" /><rect x="5" y="3" width="1" height="1" fill="#F00100" /><rect x="6" y="3" width="1" height="1" fill="#E10404" /><rect x="7" y="3" width="1" height="1" fill="#FB5F4D" /><rect x="8" y="3" width="1" height="1" fill="#C28F62" /><rect x="9" y="3" width="1" height="1" fill="#017218" /><rect x="0" y="4" width="1" height="1" fill="#FFFFFF" /><rect x="1" y="4" width="1" height="1" fill="#FFFFFF" /><rect x="2" y="4" width="1" height="1" fill="#FFBEBE" /><rect x="3" y="4" width="1" height="1" fill="#FD211F" /><rect x="4" y="4" width="1" height="1" fill="#FF120E" /><rect x="5" y="4" width="1" height="1" fill="#D50B05" /><rect x="6" y="4" width="1" height="1" fill="#EC0202" /><rect x="7" y="4" width="1" height="1" fill="#FF604D" /><rect x="8" y="4" width="1" height="1" fill="#C09060" /><rect x="9" y="4" width="1" height="1" fill="#007318" /><rect x="0" y="5" width="1" height="1" fill="#FFFFFF" /><rect x="1" y="5" width="1" height="1" fill="#FDB7B7" /><rect x="2" y="5" width="1" height="1" fill="#F61919" /><rect x="3" y="5" width="1" height="1" fill="#F10904" /><rect x="4" y="5" width="1" height="1" fill="#D2130C" /><rect x="5" y="5" width="1" height="1" fill="#F70202" /><rect x="6" y="5" width="1" height="1" fill="#FC231F" /><rect x="7" y="5" width="1" height="1" fill="#FF8B70" /><rect x="8" y="5" width="1" height="1" fill="#BD9261" /><rect x="9" y="5" width="1" height="1" fill="#08751A" /><rect x="0" y="6" width="1" height="1" fill="#F8D2C7" /><rect x="1" y="6" width="1" height="1" fill="#FD6254" /><rect x="2" y="6" width="1" height="1" fill="#DD1815" /><rect x="3" y="6" width="1" height="1" fill="#E00404" /><rect x="4" y="6" width="1" height="1" fill="#EC0202" /><rect x="5" y="6" width="1" height="1" fill="#FD1F1B" /><rect x="6" y="6" width="1" height="1" fill="#FF6856" /><rect x="7" y="6" width="1" height="1" fill="#D8946A" /><rect x="8" y="6" width="1" height="1" fill="#6B7E3A" /><rect x="9" y="6" width="1" height="1" fill="#88BB95" /><rect x="0" y="7" width="1" height="1" fill="#9A8D56" /><rect x="1" y="7" width="1" height="1" fill="#F79F77" /><rect x="2" y="7" width="1" height="1" fill="#F9816A" /><rect x="3" y="7" width="1" height="1" fill="#FC604E" /><rect x="4" y="7" width="1" height="1" fill="#FF6452" /><rect x="5" y="7" width="1" height="1" fill="#FF8A72" /><rect x="6" y="7" width="1" height="1" fill="#D6936A" /><rect x="7" y="7" width="1" height="1" fill="#667F32" /><rect x="8" y="7" width="1" height="1" fill="#2C8745" /><rect x="9" y="7" width="1" height="1" fill="#E6EDE4" /><rect x="0" y="8" width="1" height="1" fill="#6FAF82" /><rect x="1" y="8" width="1" height="1" fill="#8B854B" /><rect x="2" y="8" width="1" height="1" fill="#C59160" /><rect x="3" y="8" width="1" height="1" fill="#BE8E5F" /><rect x="4" y="8" width="1" height="1" fill="#BF8F5E" /><rect x="5" y="8" width="1" height="1" fill="#BB915F" /><rect x="6" y="8" width="1" height="1" fill="#6E803C" /><rect x="7" y="8" width="1" height="1" fill="#2C8743" /><rect x="8" y="8" width="1" height="1" fill="#D4E0D4" /><rect x="9" y="8" width="1" height="1" fill="#FFFFFF" /><rect x="0" y="9" width="1" height="1" fill="#F9F9F9" /><rect x="1" y="9" width="1" height="1" fill="#BDD7BD" /><rect x="2" y="9" width="1" height="1" fill="#3F944E" /><rect x="3" y="9" width="1" height="1" fill="#0C7722" /><rect x="4" y="9" width="1" height="1" fill="#0E7621" /><rect x="5" y="9" width="1" height="1" fill="#157822" /><rect x="6" y="9" width="1" height="1" fill="#8ABC95" /><rect x="7" y="9" width="1" height="1" fill="#E7EEE6" /><rect x="8" y="9" width="1" height="1" fill="#FFFFFF" /><rect x="9" y="9" width="1" height="1" fill="#FFFFFF" />
  </g>
</svg>