<svg width="800" height="1000" version="1.1" xmlns="http://www.w3.org/2000/svg" xmlns:xlink="http://www.w3.org/1999/xlink">
  <defs>
      <linearGradient id="Gradient2" x1="0" x2="1" y1="0" y2="1">
        <stop offset="0%" stop-color="#2d3c96"/>
        <stop offset="100%" stop-color="#d53392"/>
      </linearGradient>
  </defs>
  <rect x="10" y="10" width="780" height="980" fill="url(#Gradient2)" rx="50" ry="50" stroke="#ffd700" stroke-width="20"/>
  <text x="400" y="920" width="780" text-anchor="middle" style="font: bold 200px 'Helvetica Neue'; fill: #ffd700">03182</text>

  <g transform="translate(80 80) scale(64)">
<rect x="0" y="0" width="1" height="1" fill="#D4E0F1" /><rect x="1" y="0" width="1" height="1" fill="#779BD2" /><rect x="2" y="0" width="1" height="1" fill="#356BBD" /><rect x="3" y="0" width="1" height="1" fill="#1E5AB5" /><rect x="4" y="0" width="1" height="1" fill="#1D5AB5" /><rect x="5" y="0" width="1" height="1" fill="#1D5AB6" /><rect x="6" y="0" width="1" height="1" fill="#1E5AB5" /><rect x="7" y="0" width="1" height="1" fill="#366CBD" /><rect x="8" y="0" width="1" height="1" fill="#789CD3" /><rect x="9" y="0" width="1" height="1" fill="#D6E1F1" /><rect x="0" y="1" width="1" height="1" fill="#4275C1" /><rect x="1" y="1" width="1" height="1" fill="#AFC5E5" /><rect x="2" y="1" width="1" height="1" fill="#FAFCFD" /><rect x="3" y="1" width="1" height="1" fill="#FFFFFF" /><rect x="4" y="1" width="1" height="1" fill="#FFFFFF" /><rect x="5" y="1" width="1" height="1" fill="#FFFFFF" /><rect x="6" y="1" width="1" height="1" fill="#FFFFFF" /><rect x="7" y="1" width="1" height="1" fill="#F9FBFD" /><rect x="8" y="1" width="1" height="1" fill="#AEC3E4" /><rect x="9" y="1" width="1" height="1" fill="#4073C1" /><rect x="0" y="2" width="1" height="1" fill="#FFFFFF" /><rect x="1" y="2" width="1" height="1" fill="#FFFFFF" /><rect x="2" y="2" width="1" height="1" fill="#FFFFFF" /><rect x="3" y="2" width="1" height="1" fill="#FFFFFF" /><rect x="4" y="2" width="1" height="1" fill="#FFFFFF" /><rect x="5" y="2" width="1" height="1" fill="#84A5D6" /><rect x="6" y="2" width="1" height="1" fill="#FFFFFF" /><rect x="7" y="2" width="1" height="1" fill="#FFFFFF" /><rect x="8" y="2" width="1" height="1" fill="#FFFFFF" /><rect x="9" y="2" width="1" height="1" fill="#FFFFFF" /><rect x="0" y="3" width="1" height="1" fill="#FFFFFF" /><rect x="1" y="3" width="1" height="1" fill="#FFFFFF" /><rect x="2" y="3" width="1" height="1" fill="#FFFFFF" /><rect x="3" y="3" width="1" height="1" fill="#B8CBE7" /><rect x="4" y="3" width="1" height="1" fill="#1B59B5" /><rect x="5" y="3" width="1" height="1" fill="#0043AB" /><rect x="6" y="3" width="1" height="1" fill="#5A86C9" /><rect x="7" y="3" width="1" height="1" fill="#FFFFFF" /><rect x="8" y="3" width="1" height="1" fill="#FFFFFF" /><rect x="9" y="3" width="1" height="1" fill="#FFFFFF" /><rect x="0" y="4" width="1" height="1" fill="#6690CD" /><rect x="1" y="4" width="1" height="1" fill="#C1D1EA" /><rect x="2" y="4" width="1" height="1" fill="#FFFFFF" /><rect x="3" y="4" width="1" height="1" fill="#FFFFFF" /><rect x="4" y="4" width="1" height="1" fill="#366CBD" /><rect x="5" y="4" width="1" height="1" fill="#00249E" /><rect x="6" y="4" width="1" height="1" fill="#FFFFFF" /><rect x="7" y="4" width="1" height="1" fill="#FFFFFF" /><rect x="8" y="4" width="1" height="1" fill="#DEE7F4" /><rect x="9" y="4" width="1" height="1" fill="#759AD2" /><rect x="0" y="5" width="1" height="1" fill="#4074C1" /><rect x="1" y="5" width="1" height="1" fill="#FFFFFF" /><rect x="2" y="5" width="1" height="1" fill="#FFFFFF" /><rect x="3" y="5" width="1" height="1" fill="#FFFFFF" /><rect x="4" y="5" width="1" height="1" fill="#B9CBE8" /><rect x="5" y="5" width="1" height="1" fill="#FFFFFF" /><rect x="6" y="5" width="1" height="1" fill="#C9D7ED" /><rect x="7" y="5" width="1" height="1" fill="#FFFFFF" /><rect x="8" y="5" width="1" height="1" fill="#FFFFFF" /><rect x="9" y="5" width="1" height="1" fill="#80A2D5" /><rect x="0" y="6" width="1" height="1" fill="#82A3D5" /><rect x="1" y="6" width="1" height="1" fill="#FFFFFF" /><rect x="2" y="6" width="1" height="1" fill="#FFFFFF" /><rect x="3" y="6" width="1" height="1" fill="#FFFFFF" /><rect x="4" y="6" width="1" height="1" fill="#FFFFFF" /><rect x="5" y="6" width="1" height="1" fill="#FFFFFF" /><rect x="6" y="6" width="1" height="1" fill="#FFFFFF" /><rect x="7" y="6" width="1" height="1" fill="#FFFFFF" /><rect x="8" y="6" width="1" height="1" fill="#FFFFFF" /><rect x="9" y="6" width="1" height="1" fill="#8FADDA" /><rect x="0" y="7" width="1" height="1" fill="#FFFFFF" /><rect x="1" y="7" width="1" height="1" fill="#FFFFFF" /><rect x="2" y="7" width="1" height="1" fill="#FFFFFF" /><rect x="3" y="7" width="1" height="1" fill="#FFFFFF" /><rect x="4" y="7" width="1" height="1" fill="#FFFFFF" /><rect x="5" y="7" width="1" height="1" fill="#FFFFFF" /><rect x="6" y="7" width="1" height="1" fill="#FFFFFF" /><rect x="7" y="7" width="1" height="1" fill="#FFFFFF" /><rect x="8" y="7" width="1" height="1" fill="#FFFFFF" /><rect x="9" y="7" width="1" height="1" fill="#FFFFFF" /><rect x="0" y="8" width="1" height="1" fill="#FFFFFF" /><rect x="1" y="8" width="1" height="1" fill="#FFFFFF" /><rect x="2" y="8" width="1" height="1" fill="#FFFFFF" /><rect x="3" y="8" width="1" height="1" fill="#FFFFFF" /><rect x="4" y="8" width="1" height="1" fill="#FFFFFF" /><rect x="5" y="8" width="1" height="1" fill="#FFFFFF" /><rect x="6" y="8" width="1" height="1" fill="#FFFFFF" /><rect x="7" y="8" width="1" height="1" fill="#FFFFFF" /><rect x="8" y="8" width="1" height="1" fill="#FFFFFF" /><rect x="9" y="8" width="1" height="1" fill="#FFFFFF" /><rect x="0" y="9" width="1" height="1" fill="#FFFFFF" /><rect x="1" y="9" width="1" height="1" fill="#FFFFFF" /><rect x="2" y="9" width="1" height="1" fill="#FFFFFF" /><rect x="3" y="9" width="1" height="1" fill="#FFFFFF" /><rect x="4" y="9" width="1" height="1" fill="#FFFFFF" /><rect x="5" y="9" width="1" height="1" fill="#F4B8C6" /><rect x="6" y="9" width="1" height="1" fill="#FFFCF9" /><rect x="7" y="9" width="1" height="1" fill="#FFFFFF" /><rect x="8" y="9" width="1" height="1" fill="#96B2DC" /><rect x="9" y="9" width="1" height="1" fill="#618CCC" />
  </g>
</svg>