<svg width="800" height="1000" version="1.1" xmlns="http://www.w3.org/2000/svg" xmlns:xlink="http://www.w3.org/1999/xlink">
  <defs>
      <linearGradient id="Gradient2" x1="0" x2="1" y1="0" y2="1">
        <stop offset="0%" stop-color="#2d3c96"/>
        <stop offset="100%" stop-color="#d53392"/>
      </linearGradient>
  </defs>
  <rect x="10" y="10" width="780" height="980" fill="url(#Gradient2)" rx="50" ry="50" stroke="#ffd700" stroke-width="20"/>
  <text x="400" y="920" width="780" text-anchor="middle" style="font: bold 200px 'Helvetica Neue'; fill: #ffd700">03282</text>

  <g transform="translate(80 80) scale(64)">
<rect x="0" y="0" width="1" height="1" fill="#F8D5DD" /><rect x="1" y="0" width="1" height="1" fill="#FFFFFF" /><rect x="2" y="0" width="1" height="1" fill="#FFFFFF" /><rect x="3" y="0" width="1" height="1" fill="#FCEEF1" /><rect x="4" y="0" width="1" height="1" fill="#E76887" /><rect x="5" y="0" width="1" height="1" fill="#E70E3A" /><rect x="6" y="0" width="1" height="1" fill="#BDE4FB" /><rect x="7" y="0" width="1" height="1" fill="#002CA1" /><rect x="8" y="0" width="1" height="1" fill="#003EA9" /><rect x="9" y="0" width="1" height="1" fill="#2D66BB" /><rect x="0" y="1" width="1" height="1" fill="#D30028" /><rect x="1" y="1" width="1" height="1" fill="#D20024" /><rect x="2" y="1" width="1" height="1" fill="#D20025" /><rect x="3" y="1" width="1" height="1" fill="#D0001C" /><rect x="4" y="1" width="1" height="1" fill="#E01E4A" /><rect x="5" y="1" width="1" height="1" fill="#D899B4" /><rect x="6" y="1" width="1" height="1" fill="#0034A9" /><rect x="7" y="1" width="1" height="1" fill="#0034A5" /><rect x="8" y="1" width="1" height="1" fill="#D1DDF0" /><rect x="9" y="1" width="1" height="1" fill="#CDDAEE" /><rect x="0" y="2" width="1" height="1" fill="#D50135" /><rect x="1" y="2" width="1" height="1" fill="#D40031" /><rect x="2" y="2" width="1" height="1" fill="#D20026" /><rect x="3" y="2" width="1" height="1" fill="#E45A7B" /><rect x="4" y="2" width="1" height="1" fill="#F3395B" /><rect x="5" y="2" width="1" height="1" fill="#3F88D3" /><rect x="6" y="2" width="1" height="1" fill="#003FAA" /><rect x="7" y="2" width="1" height="1" fill="#0030A3" /><rect x="8" y="2" width="1" height="1" fill="#FFFFFF" /><rect x="9" y="2" width="1" height="1" fill="#FFFFFF" /><rect x="0" y="3" width="1" height="1" fill="#DC2652" /><rect x="1" y="3" width="1" height="1" fill="#E8718E" /><rect x="2" y="3" width="1" height="1" fill="#F7CAD4" /><rect x="3" y="3" width="1" height="1" fill="#D5002E" /><rect x="4" y="3" width="1" height="1" fill="#FFDADA" /><rect x="5" y="3" width="1" height="1" fill="#0039AA" /><rect x="6" y="3" width="1" height="1" fill="#0044AC" /><rect x="7" y="3" width="1" height="1" fill="#003FA9" /><rect x="8" y="3" width="1" height="1" fill="#FFFFFF" /><rect x="9" y="3" width="1" height="1" fill="#A1BAE0" /><rect x="0" y="4" width="1" height="1" fill="#FFFFFF" /><rect x="1" y="4" width="1" height="1" fill="#F9D9E0" /><rect x="2" y="4" width="1" height="1" fill="#D0001D" /><rect x="3" y="4" width="1" height="1" fill="#E85576" /><rect x="4" y="4" width="1" height="1" fill="#EEFFFF" /><rect x="5" y="4" width="1" height="1" fill="#0031A4" /><rect x="6" y="4" width="1" height="1" fill="#0044AC" /><rect x="7" y="4" width="1" height="1" fill="#0D4FB1" /><rect x="8" y="4" width="1" height="1" fill="#0036A5" /><rect x="9" y="4" width="1" height="1" fill="#002CA1" /><rect x="0" y="5" width="1" height="1" fill="#F8D1DA" /><rect x="1" y="5" width="1" height="1" fill="#D1001D" /><rect x="2" y="5" width="1" height="1" fill="#D20025" /><rect x="3" y="5" width="1" height="1" fill="#FFFFFF" /><rect x="4" y="5" width="1" height="1" fill="#D9E6F4" /><rect x="5" y="5" width="1" height="1" fill="#0033A4" /><rect x="6" y="5" width="1" height="1" fill="#0046AD" /><rect x="7" y="5" width="1" height="1" fill="#0034A5" /><rect x="8" y="5" width="1" height="1" fill="#D2DEF0" /><rect x="9" y="5" width="1" height="1" fill="#7197D0" /><rect x="0" y="6" width="1" height="1" fill="#D20026" /><rect x="1" y="6" width="1" height="1" fill="#D40030" /><rect x="2" y="6" width="1" height="1" fill="#E35174" /><rect x="3" y="6" width="1" height="1" fill="#FFFFFF" /><rect x="4" y="6" width="1" height="1" fill="#E4EAF5" /><rect x="5" y="6" width="1" height="1" fill="#0032A4" /><rect x="6" y="6" width="1" height="1" fill="#0045AC" /><rect x="7" y="6" width="1" height="1" fill="#0034A5" /><rect x="8" y="6" width="1" height="1" fill="#FFFFFF" /><rect x="9" y="6" width="1" height="1" fill="#CAD7ED" /><rect x="0" y="7" width="1" height="1" fill="#D50033" /><rect x="1" y="7" width="1" height="1" fill="#D4002C" /><rect x="2" y="7" width="1" height="1" fill="#EF9FB2" /><rect x="3" y="7" width="1" height="1" fill="#FFFFFF" /><rect x="4" y="7" width="1" height="1" fill="#FFFFFF" /><rect x="5" y="7" width="1" height="1" fill="#002DA1" /><rect x="6" y="7" width="1" height="1" fill="#0044AC" /><rect x="7" y="7" width="1" height="1" fill="#0039A6" /><rect x="8" y="7" width="1" height="1" fill="#FFFFFF" /><rect x="9" y="7" width="1" height="1" fill="#CDD9EE" /><rect x="0" y="8" width="1" height="1" fill="#D7073B" /><rect x="1" y="8" width="1" height="1" fill="#D30029" /><rect x="2" y="8" width="1" height="1" fill="#F7CCD5" /><rect x="3" y="8" width="1" height="1" fill="#FFFFFF" /><rect x="4" y="8" width="1" height="1" fill="#FFFFFF" /><rect x="5" y="8" width="1" height="1" fill="#2E67BB" /><rect x="6" y="8" width="1" height="1" fill="#003EA9" /><rect x="7" y="8" width="1" height="1" fill="#0037A6" /><rect x="8" y="8" width="1" height="1" fill="#FFFFFF" /><rect x="9" y="8" width="1" height="1" fill="#C2D2EB" /><rect x="0" y="9" width="1" height="1" fill="#D4002D" /><rect x="1" y="9" width="1" height="1" fill="#D0001D" /><rect x="2" y="9" width="1" height="1" fill="#FADAE2" /><rect x="3" y="9" width="1" height="1" fill="#FFFFFF" /><rect x="4" y="9" width="1" height="1" fill="#FFFFFF" /><rect x="5" y="9" width="1" height="1" fill="#E3EAF6" /><rect x="6" y="9" width="1" height="1" fill="#0029A0" /><rect x="7" y="9" width="1" height="1" fill="#002EA2" /><rect x="8" y="9" width="1" height="1" fill="#EFF3F9" /><rect x="9" y="9" width="1" height="1" fill="#618CCB" />
  </g>
</svg>