<svg width="800" height="1000" xmlns="http://www.w3.org/2000/svg"><defs><linearGradient id="g" x1="0" x2="1" y1="0" y2="1"><stop offset="0%" stop-color="#2d3c96"/><stop offset="100%" stop-color="#d53392"/></linearGradient></defs><rect x="10" y="10" width="780" height="980" fill="url(#g)" rx="50" ry="50" stroke="gold" stroke-width="20"/><text x="400" y="920" width="780" text-anchor="middle" style="font:bold 200px 'Helvetica Neue';fill:gold">03281</text><g transform="translate(80 80) scale(64)"><rect x="0" y="0" width="1" height="1" fill="#dae4f2" /><rect x="0" y="1" width="1" height="1" fill="#7c9fd4" /><rect x="0" y="2" width="1" height="1" fill="#3b70bf" /><rect x="0" y="3" width="1" height="1" fill="#1f5bb6" /><rect x="0" y="4" width="1" height="1" fill="#1e5ab6" /><rect x="0" y="5" width="1" height="1" fill="#1d5ab6" /><rect x="0" y="6" width="1" height="1" fill="#205cb6" /><rect x="0" y="7" width="1" height="1" fill="#3e72c0" /><rect x="0" y="8" width="1" height="1" fill="#81a3d6" /><rect x="0" y="9" width="1" height="1" fill="#e0e8f5" /><rect x="1" y="0" width="1" height="1" fill="#3c71c0" /><rect x="1" y="1" width="1" height="1" fill="#a9c0e3" /><rect x="1" y="2" width="1" height="1" fill="#f4f7fb" /><rect x="1" y="3" width="1" height="1" fill="#ffffff" /><rect x="1" y="4" width="1" height="1" fill="#ffffff" /><rect x="1" y="5" width="1" height="1" fill="#ffffff" /><rect x="1" y="6" width="1" height="1" fill="#ffffff" /><rect x="1" y="7" width="1" height="1" fill="#f0f4fa" /><rect x="1" y="8" width="1" height="1" fill="#a6bee2" /><rect x="1" y="9" width="1" height="1" fill="#346bbd" /><rect x="2" y="0" width="1" height="1" fill="#ffffff" /><rect x="2" y="1" width="1" height="1" fill="#ffffff" /><rect x="2" y="2" width="1" height="1" fill="#ffffff" /><rect x="2" y="3" width="1" height="1" fill="#9ab4dd" /><rect x="2" y="4" width="1" height="1" fill="#ffffff" /><rect x="2" y="5" width="1" height="1" fill="#f4f8fb" /><rect x="2" y="6" width="1" height="1" fill="#ffffff" /><rect x="2" y="7" width="1" height="1" fill="#ffffff" /><rect x="2" y="8" width="1" height="1" fill="#f6f9fc" /><rect x="2" y="9" width="1" height="1" fill="#ffffff" /><rect x="3" y="0" width="1" height="1" fill="#ffffff" /><rect x="3" y="1" width="1" height="1" fill="#ffffff" /><rect x="3" y="2" width="1" height="1" fill="#d2dff0" /><rect x="3" y="3" width="1" height="1" fill="#0032a4" /><rect x="3" y="4" width="1" height="1" fill="#1c59b5" /><rect x="3" y="5" width="1" height="1" fill="#fcfdfe" /><rect x="3" y="6" width="1" height="1" fill="#ffffff" /><rect x="3" y="7" width="1" height="1" fill="#ffffff" /><rect x="3" y="8" width="1" height="1" fill="#5785c8" /><rect x="3" y="9" width="1" height="1" fill="#aac0e3" /><rect x="4" y="0" width="1" height="1" fill="#dae4f2" /><rect x="4" y="1" width="1" height="1" fill="#fbfcfd" /><rect x="4" y="2" width="1" height="1" fill="#98b3dd" /><rect x="4" y="3" width="1" height="1" fill="#002ea2" /><rect x="4" y="4" width="1" height="1" fill="#0a4caf" /><rect x="4" y="5" width="1" height="1" fill="#ffffff" /><rect x="4" y="6" width="1" height="1" fill="#ffffff" /><rect x="4" y="7" width="1" height="1" fill="#8fadda" /><rect x="4" y="8" width="1" height="1" fill="#0038a7" /><rect x="4" y="9" width="1" height="1" fill="#001999" /><rect x="5" y="0" width="1" height="1" fill="#ffffff" /><rect x="5" y="1" width="1" height="1" fill="#ffffff" /><rect x="5" y="2" width="1" height="1" fill="#ffffff" /><rect x="5" y="3" width="1" height="1" fill="#7397d1" /><rect x="5" y="4" width="1" height="1" fill="#ffffff" /><rect x="5" y="5" width="1" height="1" fill="#e6edf6" /><rect x="5" y="6" width="1" height="1" fill="#ffffff" /><rect x="5" y="7" width="1" height="1" fill="#ffffff" /><rect x="5" y="8" width="1" height="1" fill="#5282c7" /><rect x="5" y="9" width="1" height="1" fill="#8aa9d9" /><rect x="6" y="0" width="1" height="1" fill="#deebf7" /><rect x="6" y="1" width="1" height="1" fill="#ffffff" /><rect x="6" y="2" width="1" height="1" fill="#ffffff" /><rect x="6" y="3" width="1" height="1" fill="#ffffff" /><rect x="6" y="4" width="1" height="1" fill="#ffffff" /><rect x="6" y="5" width="1" height="1" fill="#ffffff" /><rect x="6" y="6" width="1" height="1" fill="#ffffff" /><rect x="6" y="7" width="1" height="1" fill="#ffffff" /><rect x="6" y="8" width="1" height="1" fill="#e1e9f5" /><rect x="6" y="9" width="1" height="1" fill="#ffffff" /><rect x="7" y="0" width="1" height="1" fill="#fae6eb" /><rect x="7" y="1" width="1" height="1" fill="#fde8ed" /><rect x="7" y="2" width="1" height="1" fill="#fce6eb" /><rect x="7" y="3" width="1" height="1" fill="#fdedf1" /><rect x="7" y="4" width="1" height="1" fill="#ffffff" /><rect x="7" y="5" width="1" height="1" fill="#ffffff" /><rect x="7" y="6" width="1" height="1" fill="#ffffff" /><rect x="7" y="7" width="1" height="1" fill="#ffffff" /><rect x="7" y="8" width="1" height="1" fill="#ffffff" /><rect x="7" y="9" width="1" height="1" fill="#ffffff" /><rect x="8" y="0" width="1" height="1" fill="#ce000f" /><rect x="8" y="1" width="1" height="1" fill="#d20026" /><rect x="8" y="2" width="1" height="1" fill="#d10022" /><rect x="8" y="3" width="1" height="1" fill="#d81141" /><rect x="8" y="4" width="1" height="1" fill="#ffffff" /><rect x="8" y="5" width="1" height="1" fill="#ffffff" /><rect x="8" y="6" width="1" height="1" fill="#ffffff" /><rect x="8" y="7" width="1" height="1" fill="#ffffff" /><rect x="8" y="8" width="1" height="1" fill="#f5c2ce" /><rect x="8" y="9" width="1" height="1" fill="#df3c64" /><rect x="9" y="0" width="1" height="1" fill="#e35174" /><rect x="9" y="1" width="1" height="1" fill="#d50032" /><rect x="9" y="2" width="1" height="1" fill="#d60337" /><rect x="9" y="3" width="1" height="1" fill="#d81143" /><rect x="9" y="4" width="1" height="1" fill="#ffffff" /><rect x="9" y="5" width="1" height="1" fill="#ffffff" /><rect x="9" y="6" width="1" height="1" fill="#fffffe" /><rect x="9" y="7" width="1" height="1" fill="#dc2853" /><rect x="9" y="8" width="1" height="1" fill="#d20024" /><rect x="9" y="9" width="1" height="1" fill="#d20027" /></g></svg>