<svg width="800" height="1000" version="1.1" xmlns="http://www.w3.org/2000/svg" xmlns:xlink="http://www.w3.org/1999/xlink">
  <defs>
      <linearGradient id="Gradient2" x1="0" x2="1" y1="0" y2="1">
        <stop offset="0%" stop-color="#2d3c96"/>
        <stop offset="100%" stop-color="#d53392"/>
      </linearGradient>
  </defs>
  <rect x="10" y="10" width="780" height="980" fill="url(#Gradient2)" rx="50" ry="50" stroke="#ffd700" stroke-width="20"/>
  <text x="400" y="920" width="780" text-anchor="middle" style="font: bold 200px 'Helvetica Neue'; fill: #ffd700">03283</text>

  <g transform="translate(80 80) scale(64)">
<rect x="0" y="0" width="1" height="1" fill="#0034a5" />
,<rect x="0" y="1" width="1" height="1" fill="#0033a4" />
,<rect x="0" y="2" width="1" height="1" fill="#0040aa" />
,<rect x="0" y="3" width="1" height="1" fill="#bfd0ea" />
,<rect x="0" y="4" width="1" height="1" fill="#0033a4" />
,<rect x="0" y="5" width="1" height="1" fill="#003ca8" />
,<rect x="0" y="6" width="1" height="1" fill="#0035a5" />
,<rect x="0" y="7" width="1" height="1" fill="#0035a5" />
,<rect x="0" y="8" width="1" height="1" fill="#0036a6" />
,<rect x="0" y="9" width="1" height="1" fill="#0037a6" />
,<rect x="1" y="0" width="1" height="1" fill="#002ca1" />
,<rect x="1" y="1" width="1" height="1" fill="#0038a6" />
,<rect x="1" y="2" width="1" height="1" fill="#00239d" />
,<rect x="1" y="3" width="1" height="1" fill="#ffffff" />
,<rect x="1" y="4" width="1" height="1" fill="#0c4db0" />
,<rect x="1" y="5" width="1" height="1" fill="#0035a5" />
,<rect x="1" y="6" width="1" height="1" fill="#003faa" />
,<rect x="1" y="7" width="1" height="1" fill="#003faa" />
,<rect x="1" y="8" width="1" height="1" fill="#003aa8" />
,<rect x="1" y="9" width="1" height="1" fill="#002da2" />
,<rect x="2" y="0" width="1" height="1" fill="#ffffff" />
,<rect x="2" y="1" width="1" height="1" fill="#769bd2" />
,<rect x="2" y="2" width="1" height="1" fill="#c7d5ec" />
,<rect x="2" y="3" width="1" height="1" fill="#ffffff" />
,<rect x="2" y="4" width="1" height="1" fill="#ffffff" />
,<rect x="2" y="5" width="1" height="1" fill="#84a5d7" />
,<rect x="2" y="6" width="1" height="1" fill="#366dbe" />
,<rect x="2" y="7" width="1" height="1" fill="#2d66bb" />
,<rect x="2" y="8" width="1" height="1" fill="#638dcc" />
,<rect x="2" y="9" width="1" height="1" fill="#ffffff" />
,<rect x="3" y="0" width="1" height="1" fill="#7d9fd4" />
,<rect x="3" y="1" width="1" height="1" fill="#ffffff" />
,<rect x="3" y="2" width="1" height="1" fill="#ffffff" />
,<rect x="3" y="3" width="1" height="1" fill="#ffffff" />
,<rect x="3" y="4" width="1" height="1" fill="#ffffff" />
,<rect x="3" y="5" width="1" height="1" fill="#ffffff" />
,<rect x="3" y="6" width="1" height="1" fill="#ffffff" />
,<rect x="3" y="7" width="1" height="1" fill="#ffffff" />
,<rect x="3" y="8" width="1" height="1" fill="#ffffff" />
,<rect x="3" y="9" width="1" height="1" fill="#cad7ed" />
,<rect x="4" y="0" width="1" height="1" fill="#bccee9" />
,<rect x="4" y="1" width="1" height="1" fill="#ffffff" />
,<rect x="4" y="2" width="1" height="1" fill="#ffffff" />
,<rect x="4" y="3" width="1" height="1" fill="#b8cbe7" />
,<rect x="4" y="4" width="1" height="1" fill="#dde6f3" />
,<rect x="4" y="5" width="1" height="1" fill="#e9eff8" />
,<rect x="4" y="6" width="1" height="1" fill="#ffffff" />
,<rect x="4" y="7" width="1" height="1" fill="#ffffff" />
,<rect x="4" y="8" width="1" height="1" fill="#ffffff" />
,<rect x="4" y="9" width="1" height="1" fill="#003ca9" />
,<rect x="5" y="0" width="1" height="1" fill="#92b0db" />
,<rect x="5" y="1" width="1" height="1" fill="#ffffff" />
,<rect x="5" y="2" width="1" height="1" fill="#dae4f2" />
,<rect x="5" y="3" width="1" height="1" fill="#5281c7" />
,<rect x="5" y="4" width="1" height="1" fill="#00289f" />
,<rect x="5" y="5" width="1" height="1" fill="#7297d0" />
,<rect x="5" y="6" width="1" height="1" fill="#ffffff" />
,<rect x="5" y="7" width="1" height="1" fill="#fafbfd" />
,<rect x="5" y="8" width="1" height="1" fill="#5c87c9" />
,<rect x="5" y="9" width="1" height="1" fill="#002ea2" />
,<rect x="6" y="0" width="1" height="1" fill="#ffffff" />
,<rect x="6" y="1" width="1" height="1" fill="#ffffff" />
,<rect x="6" y="2" width="1" height="1" fill="#ffffff" />
,<rect x="6" y="3" width="1" height="1" fill="#7fa1d5" />
,<rect x="6" y="4" width="1" height="1" fill="#003da9" />
,<rect x="6" y="5" width="1" height="1" fill="#5784c8" />
,<rect x="6" y="6" width="1" height="1" fill="#ffffff" />
,<rect x="6" y="7" width="1" height="1" fill="#ffffff" />
,<rect x="6" y="8" width="1" height="1" fill="#ffffff" />
,<rect x="6" y="9" width="1" height="1" fill="#4877c2" />
,<rect x="7" y="0" width="1" height="1" fill="#ffffff" />
,<rect x="7" y="1" width="1" height="1" fill="#ffffff" />
,<rect x="7" y="2" width="1" height="1" fill="#ffffff" />
,<rect x="7" y="3" width="1" height="1" fill="#c1d2eb" />
,<rect x="7" y="4" width="1" height="1" fill="#f4f6fb" />
,<rect x="7" y="5" width="1" height="1" fill="#ffffff" />
,<rect x="7" y="6" width="1" height="1" fill="#fefefe" />
,<rect x="7" y="7" width="1" height="1" fill="#ffffff" />
,<rect x="7" y="8" width="1" height="1" fill="#ffffff" />
,<rect x="7" y="9" width="1" height="1" fill="#ffffff" />
,<rect x="8" y="0" width="1" height="1" fill="#366cbe" />
,<rect x="8" y="1" width="1" height="1" fill="#a3bce1" />
,<rect x="8" y="2" width="1" height="1" fill="#eff3f9" />
,<rect x="8" y="3" width="1" height="1" fill="#ffffff" />
,<rect x="8" y="4" width="1" height="1" fill="#ffffff" />
,<rect x="8" y="5" width="1" height="1" fill="#ffffff" />
,<rect x="8" y="6" width="1" height="1" fill="#ffffff" />
,<rect x="8" y="7" width="1" height="1" fill="#ebf0f8" />
,<rect x="8" y="8" width="1" height="1" fill="#9db8df" />
,<rect x="8" y="9" width="1" height="1" fill="#2f67bb" />
,<rect x="9" y="0" width="1" height="1" fill="#dfe7f4" />
,<rect x="9" y="1" width="1" height="1" fill="#82a4d6" />
,<rect x="9" y="2" width="1" height="1" fill="#4073c1" />
,<rect x="9" y="3" width="1" height="1" fill="#215db6" />
,<rect x="9" y="4" width="1" height="1" fill="#1f5bb6" />
,<rect x="9" y="5" width="1" height="1" fill="#1f5bb6" />
,<rect x="9" y="6" width="1" height="1" fill="#225db7" />
,<rect x="9" y="7" width="1" height="1" fill="#4375c2" />
,<rect x="9" y="8" width="1" height="1" fill="#86a7d7" />
,<rect x="9" y="9" width="1" height="1" fill="#e5edf6" />

  </g>
</svg>