<svg width="800" height="1000" xmlns="http://www.w3.org/2000/svg"><defs><linearGradient id="g" x1="0" x2="1" y1="0" y2="1"><stop offset="0%" stop-color="#2d3c96"/><stop offset="100%" stop-color="#d53392"/></linearGradient></defs><rect x="10" y="10" width="780" height="980" fill="url(#g)" rx="50" ry="50" stroke="gold" stroke-width="20"/><text x="400" y="920" width="780" text-anchor="middle" style="font:bold 200px 'Helvetica Neue';fill:gold">03482</text><g transform="translate(80 80) scale(64)"><rect x="0" y="0" width="1" height="1" fill="#c7d1db" /><rect x="0" y="1" width="1" height="1" fill="#c9d3dd" /><rect x="0" y="2" width="1" height="1" fill="#c6cfd8" /><rect x="0" y="3" width="1" height="1" fill="#c5ccd5" /><rect x="0" y="4" width="1" height="1" fill="#faffff" /><rect x="0" y="5" width="1" height="1" fill="#a1a4aa" /><rect x="0" y="6" width="1" height="1" fill="#000004" /><rect x="0" y="7" width="1" height="1" fill="#47464a" /><rect x="0" y="8" width="1" height="1" fill="#f5f3f6" /><rect x="0" y="9" width="1" height="1" fill="#9f9da0" /><rect x="1" y="0" width="1" height="1" fill="#d6e0ea" /><rect x="1" y="1" width="1" height="1" fill="#c6d0da" /><rect x="1" y="2" width="1" height="1" fill="#dce5ee" /><rect x="1" y="3" width="1" height="1" fill="#e9f0f9" /><rect x="1" y="4" width="1" height="1" fill="#e8eef5" /><rect x="1" y="5" width="1" height="1" fill="#ced1d7" /><rect x="1" y="6" width="1" height="1" fill="#5d5e62" /><rect x="1" y="7" width="1" height="1" fill="#f0eff3" /><rect x="1" y="8" width="1" height="1" fill="#aba9ac" /><rect x="1" y="9" width="1" height="1" fill="#6f6d6f" /><rect x="2" y="0" width="1" height="1" fill="#d7e1eb" /><rect x="2" y="1" width="1" height="1" fill="#c7d1db" /><rect x="2" y="2" width="1" height="1" fill="#d5dee7" /><rect x="2" y="3" width="1" height="1" fill="#f9ffff" /><rect x="2" y="4" width="1" height="1" fill="#e7ecf3" /><rect x="2" y="5" width="1" height="1" fill="#fdffff" /><rect x="2" y="6" width="1" height="1" fill="#e4e5e9" /><rect x="2" y="7" width="1" height="1" fill="#c8c7cb" /><rect x="2" y="8" width="1" height="1" fill="#363436" /><rect x="2" y="9" width="1" height="1" fill="#444243" /><rect x="3" y="0" width="1" height="1" fill="#b9c3cd" /><rect x="3" y="1" width="1" height="1" fill="#d6e0ea" /><rect x="3" y="2" width="1" height="1" fill="#bdc5cf" /><rect x="3" y="3" width="1" height="1" fill="#f1f8ff" /><rect x="3" y="4" width="1" height="1" fill="#fafeff" /><rect x="3" y="5" width="1" height="1" fill="#f5f7fd" /><rect x="3" y="6" width="1" height="1" fill="#ecedf1" /><rect x="3" y="7" width="1" height="1" fill="#000002" /><rect x="3" y="8" width="1" height="1" fill="#040204" /><rect x="3" y="9" width="1" height="1" fill="#0e0c0d" /><rect x="4" y="0" width="1" height="1" fill="#d5dee7" /><rect x="4" y="1" width="1" height="1" fill="#cad3dc" /><rect x="4" y="2" width="1" height="1" fill="#e1e8f1" /><rect x="4" y="3" width="1" height="1" fill="#faffff" /><rect x="4" y="4" width="1" height="1" fill="#f0f5fb" /><rect x="4" y="5" width="1" height="1" fill="#f7f9fe" /><rect x="4" y="6" width="1" height="1" fill="#424346" /><rect x="4" y="7" width="1" height="1" fill="#070609" /><rect x="4" y="8" width="1" height="1" fill="#545254" /><rect x="4" y="9" width="1" height="1" fill="#fefcfd" /><rect x="5" y="0" width="1" height="1" fill="#d7e0e8" /><rect x="5" y="1" width="1" height="1" fill="#cad2db" /><rect x="5" y="2" width="1" height="1" fill="#dce3eb" /><rect x="5" y="3" width="1" height="1" fill="#ebf1f8" /><rect x="5" y="4" width="1" height="1" fill="#f9feff" /><rect x="5" y="5" width="1" height="1" fill="#8b8d91" /><rect x="5" y="6" width="1" height="1" fill="#000002" /><rect x="5" y="7" width="1" height="1" fill="#7f7f80" /><rect x="5" y="8" width="1" height="1" fill="#fdfbfc" /><rect x="5" y="9" width="1" height="1" fill="#d5d2d3" /><rect x="6" y="0" width="1" height="1" fill="#d0d9e0" /><rect x="6" y="1" width="1" height="1" fill="#bdc6cd" /><rect x="6" y="2" width="1" height="1" fill="#f4fbff" /><rect x="6" y="3" width="1" height="1" fill="#faffff" /><rect x="6" y="4" width="1" height="1" fill="#eaeff3" /><rect x="6" y="5" width="1" height="1" fill="#000003" /><rect x="6" y="6" width="1" height="1" fill="#707172" /><rect x="6" y="7" width="1" height="1" fill="#fbfafa" /><rect x="6" y="8" width="1" height="1" fill="#bfbcbc" /><rect x="6" y="9" width="1" height="1" fill="#090606" /><rect x="7" y="0" width="1" height="1" fill="#cfd8de" /><rect x="7" y="1" width="1" height="1" fill="#dee6ec" /><rect x="7" y="2" width="1" height="1" fill="#f8ffff" /><rect x="7" y="3" width="1" height="1" fill="#f1f7fc" /><rect x="7" y="4" width="1" height="1" fill="#fafeff" /><rect x="7" y="5" width="1" height="1" fill="#7f8183" /><rect x="7" y="6" width="1" height="1" fill="#cacaca" /><rect x="7" y="7" width="1" height="1" fill="#fffffe" /><rect x="7" y="8" width="1" height="1" fill="#e4e1e0" /><rect x="7" y="9" width="1" height="1" fill="#b7b3b2" /><rect x="8" y="0" width="1" height="1" fill="#c5cdd3" /><rect x="8" y="1" width="1" height="1" fill="#eff6fc" /><rect x="8" y="2" width="1" height="1" fill="#f4faff" /><rect x="8" y="3" width="1" height="1" fill="#edf2f6" /><rect x="8" y="4" width="1" height="1" fill="#fdffff" /><rect x="8" y="5" width="1" height="1" fill="#eeeff0" /><rect x="8" y="6" width="1" height="1" fill="#ffffff" /><rect x="8" y="7" width="1" height="1" fill="#faf9f7" /><rect x="8" y="8" width="1" height="1" fill="#f3f0ee" /><rect x="8" y="9" width="1" height="1" fill="#fdf9f7" /><rect x="9" y="0" width="1" height="1" fill="#c7ced4" /><rect x="9" y="1" width="1" height="1" fill="#f2f8fe" /><rect x="9" y="2" width="1" height="1" fill="#f3f9fe" /><rect x="9" y="3" width="1" height="1" fill="#f2f7fa" /><rect x="9" y="4" width="1" height="1" fill="#fdffff" /><rect x="9" y="5" width="1" height="1" fill="#f5f6f7" /><rect x="9" y="6" width="1" height="1" fill="#fffffe" /><rect x="9" y="7" width="1" height="1" fill="#fbf9f7" /><rect x="9" y="8" width="1" height="1" fill="#f5f2f0" /><rect x="9" y="9" width="1" height="1" fill="#f8f4f1" /></g></svg>