<svg width="800" height="1000" version="1.1" xmlns="http://www.w3.org/2000/svg" xmlns:xlink="http://www.w3.org/1999/xlink">
  <defs>
      <linearGradient id="Gradient2" x1="0" x2="1" y1="0" y2="1">
        <stop offset="0%" stop-color="#2d3c96"/>
        <stop offset="100%" stop-color="#d53392"/>
      </linearGradient>
  </defs>
  <rect x="10" y="10" width="780" height="980" fill="url(#Gradient2)" rx="50" ry="50" stroke="#ffd700" stroke-width="20"/>
  <text x="400" y="920" width="780" text-anchor="middle" style="font: bold 200px 'Helvetica Neue'; fill: #ffd700">03581</text>

  <g transform="translate(80 80) scale(64)">
<rect x="0" y="0" width="1" height="1" fill="#e4e0e1" />
,<rect x="0" y="1" width="1" height="1" fill="#fffdfe" />
,<rect x="0" y="2" width="1" height="1" fill="#e7e4e5" />
,<rect x="0" y="3" width="1" height="1" fill="#434142" />
,<rect x="0" y="4" width="1" height="1" fill="#090909" />
,<rect x="0" y="5" width="1" height="1" fill="#686868" />
,<rect x="0" y="6" width="1" height="1" fill="#ebebeb" />
,<rect x="0" y="7" width="1" height="1" fill="#f9f9f9" />
,<rect x="0" y="8" width="1" height="1" fill="#ffffff" />
,<rect x="0" y="9" width="1" height="1" fill="#ffffff" />
,<rect x="1" y="0" width="1" height="1" fill="#fffeff" />
,<rect x="1" y="1" width="1" height="1" fill="#a19e9f" />
,<rect x="1" y="2" width="1" height="1" fill="#0b0809" />
,<rect x="1" y="3" width="1" height="1" fill="#050304" />
,<rect x="1" y="4" width="1" height="1" fill="#a7a7a7" />
,<rect x="1" y="5" width="1" height="1" fill="#fcfcfc" />
,<rect x="1" y="6" width="1" height="1" fill="#ffffff" />
,<rect x="1" y="7" width="1" height="1" fill="#fbfbfb" />
,<rect x="1" y="8" width="1" height="1" fill="#fafafa" />
,<rect x="1" y="9" width="1" height="1" fill="#fafafa" />
,<rect x="2" y="0" width="1" height="1" fill="#4d494a" />
,<rect x="2" y="1" width="1" height="1" fill="#040102" />
,<rect x="2" y="2" width="1" height="1" fill="#110e0f" />
,<rect x="2" y="3" width="1" height="1" fill="#b9b7b8" />
,<rect x="2" y="4" width="1" height="1" fill="#fefefe" />
,<rect x="2" y="5" width="1" height="1" fill="#f8f8f8" />
,<rect x="2" y="6" width="1" height="1" fill="#ededed" />
,<rect x="2" y="7" width="1" height="1" fill="#f4f4f4" />
,<rect x="2" y="8" width="1" height="1" fill="#fafafa" />
,<rect x="2" y="9" width="1" height="1" fill="#fcfcfc" />
,<rect x="3" y="0" width="1" height="1" fill="#070304" />
,<rect x="3" y="1" width="1" height="1" fill="#4b4849" />
,<rect x="3" y="2" width="1" height="1" fill="#b9b6b7" />
,<rect x="3" y="3" width="1" height="1" fill="#fffeff" />
,<rect x="3" y="4" width="1" height="1" fill="#fefefe" />
,<rect x="3" y="5" width="1" height="1" fill="#f1f1f1" />
,<rect x="3" y="6" width="1" height="1" fill="#ffffff" />
,<rect x="3" y="7" width="1" height="1" fill="#fbfbfb" />
,<rect x="3" y="8" width="1" height="1" fill="#fcfcfc" />
,<rect x="3" y="9" width="1" height="1" fill="#fdfdfd" />
,<rect x="4" y="0" width="1" height="1" fill="#9b9798" />
,<rect x="4" y="1" width="1" height="1" fill="#c4c1c2" />
,<rect x="4" y="2" width="1" height="1" fill="#fffeff" />
,<rect x="4" y="3" width="1" height="1" fill="#f9f7f8" />
,<rect x="4" y="4" width="1" height="1" fill="#dadada" />
,<rect x="4" y="5" width="1" height="1" fill="#b7b7b7" />
,<rect x="4" y="6" width="1" height="1" fill="#d9d9d9" />
,<rect x="4" y="7" width="1" height="1" fill="#ffffff" />
,<rect x="4" y="8" width="1" height="1" fill="#ffffff" />
,<rect x="4" y="9" width="1" height="1" fill="#fdfdfd" />
,<rect x="5" y="0" width="1" height="1" fill="#a19d9e" />
,<rect x="5" y="1" width="1" height="1" fill="#f8f5f6" />
,<rect x="5" y="2" width="1" height="1" fill="#d4d1d2" />
,<rect x="5" y="3" width="1" height="1" fill="#787677" />
,<rect x="5" y="4" width="1" height="1" fill="#030303" />
,<rect x="5" y="5" width="1" height="1" fill="#000000" />
,<rect x="5" y="6" width="1" height="1" fill="#aeaeae" />
,<rect x="5" y="7" width="1" height="1" fill="#dddddd" />
,<rect x="5" y="8" width="1" height="1" fill="#ffffff" />
,<rect x="5" y="9" width="1" height="1" fill="#fcfcfc" />
,<rect x="6" y="0" width="1" height="1" fill="#fffeff" />
,<rect x="6" y="1" width="1" height="1" fill="#676465" />
,<rect x="6" y="2" width="1" height="1" fill="#020000" />
,<rect x="6" y="3" width="1" height="1" fill="#070506" />
,<rect x="6" y="4" width="1" height="1" fill="#383838" />
,<rect x="6" y="5" width="1" height="1" fill="#e6e6e6" />
,<rect x="6" y="6" width="1" height="1" fill="#f0f0f0" />
,<rect x="6" y="7" width="1" height="1" fill="#ffffff" />
,<rect x="6" y="8" width="1" height="1" fill="#fbfbfb" />
,<rect x="6" y="9" width="1" height="1" fill="#fafafa" />
,<rect x="7" y="0" width="1" height="1" fill="#030000" />
,<rect x="7" y="1" width="1" height="1" fill="#0d0a0b" />
,<rect x="7" y="2" width="1" height="1" fill="#565354" />
,<rect x="7" y="3" width="1" height="1" fill="#7c7a7b" />
,<rect x="7" y="4" width="1" height="1" fill="#fdfdfd" />
,<rect x="7" y="5" width="1" height="1" fill="#fbfbfb" />
,<rect x="7" y="6" width="1" height="1" fill="#fdfdfd" />
,<rect x="7" y="7" width="1" height="1" fill="#fbfbfb" />
,<rect x="7" y="8" width="1" height="1" fill="#ffffff" />
,<rect x="7" y="9" width="1" height="1" fill="#ffffff" />
,<rect x="8" y="0" width="1" height="1" fill="#666263" />
,<rect x="8" y="1" width="1" height="1" fill="#878485" />
,<rect x="8" y="2" width="1" height="1" fill="#9a9798" />
,<rect x="8" y="3" width="1" height="1" fill="#fffeff" />
,<rect x="8" y="4" width="1" height="1" fill="#f9f9f9" />
,<rect x="8" y="5" width="1" height="1" fill="#ffffff" />
,<rect x="8" y="6" width="1" height="1" fill="#fefefe" />
,<rect x="8" y="7" width="1" height="1" fill="#f8f8f8" />
,<rect x="8" y="8" width="1" height="1" fill="#fcfcfc" />
,<rect x="8" y="9" width="1" height="1" fill="#f1f1f1" />
,<rect x="9" y="0" width="1" height="1" fill="#a4a0a1" />
,<rect x="9" y="1" width="1" height="1" fill="#908d8e" />
,<rect x="9" y="2" width="1" height="1" fill="#fffeff" />
,<rect x="9" y="3" width="1" height="1" fill="#dcdadb" />
,<rect x="9" y="4" width="1" height="1" fill="#9a9a9a" />
,<rect x="9" y="5" width="1" height="1" fill="#484848" />
,<rect x="9" y="6" width="1" height="1" fill="#333333" />
,<rect x="9" y="7" width="1" height="1" fill="#5d5d5d" />
,<rect x="9" y="8" width="1" height="1" fill="#cacaca" />
,<rect x="9" y="9" width="1" height="1" fill="#f7f7f7" />

  </g>
</svg>