<svg width="800" height="1000" version="1.1" xmlns="http://www.w3.org/2000/svg" xmlns:xlink="http://www.w3.org/1999/xlink">
  <defs>
      <linearGradient id="Gradient2" x1="0" x2="1" y1="0" y2="1">
        <stop offset="0%" stop-color="#2d3c96"/>
        <stop offset="100%" stop-color="#d53392"/>
      </linearGradient>
  </defs>
  <rect x="10" y="10" width="780" height="980" fill="url(#Gradient2)" rx="50" ry="50" stroke="#ffd700" stroke-width="20"/>
  <text x="400" y="920" width="780" text-anchor="middle" style="font: bold 200px 'Helvetica Neue'; fill: #ffd700">03880</text>

  <g transform="translate(80 80) scale(64)">
<rect x="0" y="0" width="1" height="1" fill="#231f20" />
,<rect x="0" y="1" width="1" height="1" fill="#231f20" />
,<rect x="0" y="2" width="1" height="1" fill="#231f20" />
,<rect x="0" y="3" width="1" height="1" fill="#231f20" />
,<rect x="0" y="4" width="1" height="1" fill="#231f20" />
,<rect x="0" y="5" width="1" height="1" fill="#231f20" />
,<rect x="0" y="6" width="1" height="1" fill="#231f20" />
,<rect x="0" y="7" width="1" height="1" fill="#231f20" />
,<rect x="0" y="8" width="1" height="1" fill="#231f20" />
,<rect x="0" y="9" width="1" height="1" fill="#231f20" />
,<rect x="1" y="0" width="1" height="1" fill="#231f20" />
,<rect x="1" y="1" width="1" height="1" fill="#231f20" />
,<rect x="1" y="2" width="1" height="1" fill="#231f20" />
,<rect x="1" y="3" width="1" height="1" fill="#4b2b29" />
,<rect x="1" y="4" width="1" height="1" fill="#b94d40" />
,<rect x="1" y="5" width="1" height="1" fill="#393536" />
,<rect x="1" y="6" width="1" height="1" fill="#5f5c5c" />
,<rect x="1" y="7" width="1" height="1" fill="#a6a5a5" />
,<rect x="1" y="8" width="1" height="1" fill="#2d292a" />
,<rect x="1" y="9" width="1" height="1" fill="#231f20" />
,<rect x="2" y="0" width="1" height="1" fill="#231f20" />
,<rect x="2" y="1" width="1" height="1" fill="#332423" />
,<rect x="2" y="2" width="1" height="1" fill="#f15e4c" />
,<rect x="2" y="3" width="1" height="1" fill="#b24b3f" />
,<rect x="2" y="4" width="1" height="1" fill="#65332e" />
,<rect x="2" y="5" width="1" height="1" fill="#e8e8e8" />
,<rect x="2" y="6" width="1" height="1" fill="#f0efef" />
,<rect x="2" y="7" width="1" height="1" fill="#f4f4f4" />
,<rect x="2" y="8" width="1" height="1" fill="#2d292a" />
,<rect x="2" y="9" width="1" height="1" fill="#231f20" />
,<rect x="3" y="0" width="1" height="1" fill="#231f20" />
,<rect x="3" y="1" width="1" height="1" fill="#231f20" />
,<rect x="3" y="2" width="1" height="1" fill="#422827" />
,<rect x="3" y="3" width="1" height="1" fill="#bc4e41" />
,<rect x="3" y="4" width="1" height="1" fill="#e05948" />
,<rect x="3" y="5" width="1" height="1" fill="#231f20" />
,<rect x="3" y="6" width="1" height="1" fill="#242021" />
,<rect x="3" y="7" width="1" height="1" fill="#6a6768" />
,<rect x="3" y="8" width="1" height="1" fill="#282425" />
,<rect x="3" y="9" width="1" height="1" fill="#231f20" />
,<rect x="4" y="0" width="1" height="1" fill="#231f20" />
,<rect x="4" y="1" width="1" height="1" fill="#332b20" />
,<rect x="4" y="2" width="1" height="1" fill="#e0ae23" />
,<rect x="4" y="3" width="1" height="1" fill="#e0ae23" />
,<rect x="4" y="4" width="1" height="1" fill="#d2a423" />
,<rect x="4" y="5" width="1" height="1" fill="#dcdbdb" />
,<rect x="4" y="6" width="1" height="1" fill="#f6f6f6" />
,<rect x="4" y="7" width="1" height="1" fill="#f6f6f6" />
,<rect x="4" y="8" width="1" height="1" fill="#282425" />
,<rect x="4" y="9" width="1" height="1" fill="#231f20" />
,<rect x="5" y="0" width="1" height="1" fill="#231f20" />
,<rect x="5" y="1" width="1" height="1" fill="#2f2820" />
,<rect x="5" y="2" width="1" height="1" fill="#c29822" />
,<rect x="5" y="3" width="1" height="1" fill="#e5b223" />
,<rect x="5" y="4" width="1" height="1" fill="#a58222" />
,<rect x="5" y="5" width="1" height="1" fill="#dbdbdb" />
,<rect x="5" y="6" width="1" height="1" fill="#f6f6f6" />
,<rect x="5" y="7" width="1" height="1" fill="#f6f6f6" />
,<rect x="5" y="8" width="1" height="1" fill="#282425" />
,<rect x="5" y="9" width="1" height="1" fill="#231f20" />
,<rect x="6" y="0" width="1" height="1" fill="#231f20" />
,<rect x="6" y="1" width="1" height="1" fill="#222423" />
,<rect x="6" y="2" width="1" height="1" fill="#4c6636" />
,<rect x="6" y="3" width="1" height="1" fill="#302920" />
,<rect x="6" y="4" width="1" height="1" fill="#473b21" />
,<rect x="6" y="5" width="1" height="1" fill="#252122" />
,<rect x="6" y="6" width="1" height="1" fill="#312d2e" />
,<rect x="6" y="7" width="1" height="1" fill="#6a6768" />
,<rect x="6" y="8" width="1" height="1" fill="#282425" />
,<rect x="6" y="9" width="1" height="1" fill="#231f20" />
,<rect x="7" y="0" width="1" height="1" fill="#231f20" />
,<rect x="7" y="1" width="1" height="1" fill="#222b27" />
,<rect x="7" y="2" width="1" height="1" fill="#12ae74" />
,<rect x="7" y="3" width="1" height="1" fill="#13a770" />
,<rect x="7" y="4" width="1" height="1" fill="#149d6a" />
,<rect x="7" y="5" width="1" height="1" fill="#e9e9e9" />
,<rect x="7" y="6" width="1" height="1" fill="#efeeee" />
,<rect x="7" y="7" width="1" height="1" fill="#f3f3f3" />
,<rect x="7" y="8" width="1" height="1" fill="#2d292a" />
,<rect x="7" y="9" width="1" height="1" fill="#231f20" />
,<rect x="8" y="0" width="1" height="1" fill="#231f20" />
,<rect x="8" y="1" width="1" height="1" fill="#222a27" />
,<rect x="8" y="2" width="1" height="1" fill="#1a704f" />
,<rect x="8" y="3" width="1" height="1" fill="#231f20" />
,<rect x="8" y="4" width="1" height="1" fill="#231f20" />
,<rect x="8" y="5" width="1" height="1" fill="#231f20" />
,<rect x="8" y="6" width="1" height="1" fill="#231f20" />
,<rect x="8" y="7" width="1" height="1" fill="#a7a5a5" />
,<rect x="8" y="8" width="1" height="1" fill="#2d292a" />
,<rect x="8" y="9" width="1" height="1" fill="#231f20" />
,<rect x="9" y="0" width="1" height="1" fill="#231f20" />
,<rect x="9" y="1" width="1" height="1" fill="#231f20" />
,<rect x="9" y="2" width="1" height="1" fill="#231f20" />
,<rect x="9" y="3" width="1" height="1" fill="#231f20" />
,<rect x="9" y="4" width="1" height="1" fill="#231f20" />
,<rect x="9" y="5" width="1" height="1" fill="#231f20" />
,<rect x="9" y="6" width="1" height="1" fill="#231f20" />
,<rect x="9" y="7" width="1" height="1" fill="#231f20" />
,<rect x="9" y="8" width="1" height="1" fill="#231f20" />
,<rect x="9" y="9" width="1" height="1" fill="#231f20" />

  </g>
</svg>