<svg width="800" height="1000" version="1.1" xmlns="http://www.w3.org/2000/svg" xmlns:xlink="http://www.w3.org/1999/xlink">
  <defs>
      <linearGradient id="Gradient2" x1="0" x2="1" y1="0" y2="1">
        <stop offset="0%" stop-color="#2d3c96"/>
        <stop offset="100%" stop-color="#d53392"/>
      </linearGradient>
  </defs>
  <rect x="10" y="10" width="780" height="980" fill="url(#Gradient2)" rx="50" ry="50" stroke="#ffd700" stroke-width="20"/>
  <text x="400" y="920" width="780" text-anchor="middle" style="font: bold 200px 'Helvetica Neue'; fill: #ffd700">03880</text>

  <g transform="translate(80 80) scale(64)">
<rect x="0" y="0" width="1" height="1" fill="#231F20" /><rect x="1" y="0" width="1" height="1" fill="#231F20" /><rect x="2" y="0" width="1" height="1" fill="#231F20" /><rect x="3" y="0" width="1" height="1" fill="#231F20" /><rect x="4" y="0" width="1" height="1" fill="#231F20" /><rect x="5" y="0" width="1" height="1" fill="#231F20" /><rect x="6" y="0" width="1" height="1" fill="#231F20" /><rect x="7" y="0" width="1" height="1" fill="#231F20" /><rect x="8" y="0" width="1" height="1" fill="#231F20" /><rect x="9" y="0" width="1" height="1" fill="#231F20" /><rect x="0" y="1" width="1" height="1" fill="#231F20" /><rect x="1" y="1" width="1" height="1" fill="#231F20" /><rect x="2" y="1" width="1" height="1" fill="#332423" /><rect x="3" y="1" width="1" height="1" fill="#231F20" /><rect x="4" y="1" width="1" height="1" fill="#332B20" /><rect x="5" y="1" width="1" height="1" fill="#2F2820" /><rect x="6" y="1" width="1" height="1" fill="#222423" /><rect x="7" y="1" width="1" height="1" fill="#222B27" /><rect x="8" y="1" width="1" height="1" fill="#222A27" /><rect x="9" y="1" width="1" height="1" fill="#231F20" /><rect x="0" y="2" width="1" height="1" fill="#231F20" /><rect x="1" y="2" width="1" height="1" fill="#231F20" /><rect x="2" y="2" width="1" height="1" fill="#F15E4C" /><rect x="3" y="2" width="1" height="1" fill="#422827" /><rect x="4" y="2" width="1" height="1" fill="#E0AE23" /><rect x="5" y="2" width="1" height="1" fill="#C29822" /><rect x="6" y="2" width="1" height="1" fill="#4C6636" /><rect x="7" y="2" width="1" height="1" fill="#12AE74" /><rect x="8" y="2" width="1" height="1" fill="#1A704F" /><rect x="9" y="2" width="1" height="1" fill="#231F20" /><rect x="0" y="3" width="1" height="1" fill="#231F20" /><rect x="1" y="3" width="1" height="1" fill="#4B2B29" /><rect x="2" y="3" width="1" height="1" fill="#B24B3F" /><rect x="3" y="3" width="1" height="1" fill="#BC4E41" /><rect x="4" y="3" width="1" height="1" fill="#E0AE23" /><rect x="5" y="3" width="1" height="1" fill="#E5B223" /><rect x="6" y="3" width="1" height="1" fill="#302920" /><rect x="7" y="3" width="1" height="1" fill="#13A770" /><rect x="8" y="3" width="1" height="1" fill="#231F20" /><rect x="9" y="3" width="1" height="1" fill="#231F20" /><rect x="0" y="4" width="1" height="1" fill="#231F20" /><rect x="1" y="4" width="1" height="1" fill="#B94D40" /><rect x="2" y="4" width="1" height="1" fill="#65332E" /><rect x="3" y="4" width="1" height="1" fill="#E05948" /><rect x="4" y="4" width="1" height="1" fill="#D2A423" /><rect x="5" y="4" width="1" height="1" fill="#A58222" /><rect x="6" y="4" width="1" height="1" fill="#473B21" /><rect x="7" y="4" width="1" height="1" fill="#149D6A" /><rect x="8" y="4" width="1" height="1" fill="#231F20" /><rect x="9" y="4" width="1" height="1" fill="#231F20" /><rect x="0" y="5" width="1" height="1" fill="#231F20" /><rect x="1" y="5" width="1" height="1" fill="#393536" /><rect x="2" y="5" width="1" height="1" fill="#E8E8E8" /><rect x="3" y="5" width="1" height="1" fill="#231F20" /><rect x="4" y="5" width="1" height="1" fill="#DCDBDB" /><rect x="5" y="5" width="1" height="1" fill="#DBDBDB" /><rect x="6" y="5" width="1" height="1" fill="#252122" /><rect x="7" y="5" width="1" height="1" fill="#E9E9E9" /><rect x="8" y="5" width="1" height="1" fill="#231F20" /><rect x="9" y="5" width="1" height="1" fill="#231F20" /><rect x="0" y="6" width="1" height="1" fill="#231F20" /><rect x="1" y="6" width="1" height="1" fill="#5F5C5C" /><rect x="2" y="6" width="1" height="1" fill="#F0EFEF" /><rect x="3" y="6" width="1" height="1" fill="#242021" /><rect x="4" y="6" width="1" height="1" fill="#F6F6F6" /><rect x="5" y="6" width="1" height="1" fill="#F6F6F6" /><rect x="6" y="6" width="1" height="1" fill="#312D2E" /><rect x="7" y="6" width="1" height="1" fill="#EFEEEE" /><rect x="8" y="6" width="1" height="1" fill="#231F20" /><rect x="9" y="6" width="1" height="1" fill="#231F20" /><rect x="0" y="7" width="1" height="1" fill="#231F20" /><rect x="1" y="7" width="1" height="1" fill="#A6A5A5" /><rect x="2" y="7" width="1" height="1" fill="#F4F4F4" /><rect x="3" y="7" width="1" height="1" fill="#6A6768" /><rect x="4" y="7" width="1" height="1" fill="#F6F6F6" /><rect x="5" y="7" width="1" height="1" fill="#F6F6F6" /><rect x="6" y="7" width="1" height="1" fill="#6A6768" /><rect x="7" y="7" width="1" height="1" fill="#F3F3F3" /><rect x="8" y="7" width="1" height="1" fill="#A7A5A5" /><rect x="9" y="7" width="1" height="1" fill="#231F20" /><rect x="0" y="8" width="1" height="1" fill="#231F20" /><rect x="1" y="8" width="1" height="1" fill="#2D292A" /><rect x="2" y="8" width="1" height="1" fill="#2D292A" /><rect x="3" y="8" width="1" height="1" fill="#282425" /><rect x="4" y="8" width="1" height="1" fill="#282425" /><rect x="5" y="8" width="1" height="1" fill="#282425" /><rect x="6" y="8" width="1" height="1" fill="#282425" /><rect x="7" y="8" width="1" height="1" fill="#2D292A" /><rect x="8" y="8" width="1" height="1" fill="#2D292A" /><rect x="9" y="8" width="1" height="1" fill="#231F20" /><rect x="0" y="9" width="1" height="1" fill="#231F20" /><rect x="1" y="9" width="1" height="1" fill="#231F20" /><rect x="2" y="9" width="1" height="1" fill="#231F20" /><rect x="3" y="9" width="1" height="1" fill="#231F20" /><rect x="4" y="9" width="1" height="1" fill="#231F20" /><rect x="5" y="9" width="1" height="1" fill="#231F20" /><rect x="6" y="9" width="1" height="1" fill="#231F20" /><rect x="7" y="9" width="1" height="1" fill="#231F20" /><rect x="8" y="9" width="1" height="1" fill="#231F20" /><rect x="9" y="9" width="1" height="1" fill="#231F20" />
  </g>
</svg>