<svg width="800" height="1000" xmlns="http://www.w3.org/2000/svg"><defs><linearGradient id="g" x1="0" x2="1" y1="0" y2="1"><stop offset="0%" stop-color="#2d3c96"/><stop offset="100%" stop-color="#d53392"/></linearGradient></defs><rect x="10" y="10" width="780" height="980" fill="url(#g)" rx="50" ry="50" stroke="gold" stroke-width="20"/><text x="400" y="920" width="780" text-anchor="middle" style="font:bold 200px 'Helvetica Neue';fill:gold">03932</text><g transform="translate(80 80) scale(64)"><rect x="0" y="0" width="1" height="1" fill="#638596" /><rect x="0" y="1" width="1" height="1" fill="#638596" /><rect x="0" y="2" width="1" height="1" fill="#638596" /><rect x="0" y="3" width="1" height="1" fill="#668da1" /><rect x="0" y="4" width="1" height="1" fill="#617e8c" /><rect x="0" y="5" width="1" height="1" fill="#3e301e" /><rect x="0" y="6" width="1" height="1" fill="#3a2a17" /><rect x="0" y="7" width="1" height="1" fill="#3d2f1e" /><rect x="0" y="8" width="1" height="1" fill="#3d2f1e" /><rect x="0" y="9" width="1" height="1" fill="#3d2f1e" /><rect x="1" y="0" width="1" height="1" fill="#638596" /><rect x="1" y="1" width="1" height="1" fill="#638596" /><rect x="1" y="2" width="1" height="1" fill="#638596" /><rect x="1" y="3" width="1" height="1" fill="#668da1" /><rect x="1" y="4" width="1" height="1" fill="#617e8c" /><rect x="1" y="5" width="1" height="1" fill="#3e2f1d" /><rect x="1" y="6" width="1" height="1" fill="#3a2916" /><rect x="1" y="7" width="1" height="1" fill="#3d2f1e" /><rect x="1" y="8" width="1" height="1" fill="#3d2f1e" /><rect x="1" y="9" width="1" height="1" fill="#3d2f1e" /><rect x="2" y="0" width="1" height="1" fill="#638596" /><rect x="2" y="1" width="1" height="1" fill="#638596" /><rect x="2" y="2" width="1" height="1" fill="#638596" /><rect x="2" y="3" width="1" height="1" fill="#678ea1" /><rect x="2" y="4" width="1" height="1" fill="#607d8e" /><rect x="2" y="5" width="1" height="1" fill="#38210d" /><rect x="2" y="6" width="1" height="1" fill="#362006" /><rect x="2" y="7" width="1" height="1" fill="#3e3120" /><rect x="2" y="8" width="1" height="1" fill="#3d2f1e" /><rect x="2" y="9" width="1" height="1" fill="#3d2f1e" /><rect x="3" y="0" width="1" height="1" fill="#638596" /><rect x="3" y="1" width="1" height="1" fill="#638596" /><rect x="3" y="2" width="1" height="1" fill="#638596" /><rect x="3" y="3" width="1" height="1" fill="#64889a" /><rect x="3" y="4" width="1" height="1" fill="#628292" /><rect x="3" y="5" width="1" height="1" fill="#596d73" /><rect x="3" y="6" width="1" height="1" fill="#4c514b" /><rect x="3" y="7" width="1" height="1" fill="#37220c" /><rect x="3" y="8" width="1" height="1" fill="#392814" /><rect x="3" y="9" width="1" height="1" fill="#3a2917" /><rect x="4" y="0" width="1" height="1" fill="#638596" /><rect x="4" y="1" width="1" height="1" fill="#638596" /><rect x="4" y="2" width="1" height="1" fill="#638596" /><rect x="4" y="3" width="1" height="1" fill="#628494" /><rect x="4" y="4" width="1" height="1" fill="#638698" /><rect x="4" y="5" width="1" height="1" fill="#70a4c1" /><rect x="4" y="6" width="1" height="1" fill="#5f7986" /><rect x="4" y="7" width="1" height="1" fill="#3a2611" /><rect x="4" y="8" width="1" height="1" fill="#3e3121" /><rect x="4" y="9" width="1" height="1" fill="#3f3221" /><rect x="5" y="0" width="1" height="1" fill="#638596" /><rect x="5" y="1" width="1" height="1" fill="#638596" /><rect x="5" y="2" width="1" height="1" fill="#638596" /><rect x="5" y="3" width="1" height="1" fill="#638596" /><rect x="5" y="4" width="1" height="1" fill="#638596" /><rect x="5" y="5" width="1" height="1" fill="#638697" /><rect x="5" y="6" width="1" height="1" fill="#628394" /><rect x="5" y="7" width="1" height="1" fill="#617f8d" /><rect x="5" y="8" width="1" height="1" fill="#648898" /><rect x="5" y="9" width="1" height="1" fill="#5e7986" /><rect x="6" y="0" width="1" height="1" fill="#638596" /><rect x="6" y="1" width="1" height="1" fill="#638596" /><rect x="6" y="2" width="1" height="1" fill="#638596" /><rect x="6" y="3" width="1" height="1" fill="#638596" /><rect x="6" y="4" width="1" height="1" fill="#638596" /><rect x="6" y="5" width="1" height="1" fill="#638494" /><rect x="6" y="6" width="1" height="1" fill="#648799" /><rect x="6" y="7" width="1" height="1" fill="#668da1" /><rect x="6" y="8" width="1" height="1" fill="#6992a9" /><rect x="6" y="9" width="1" height="1" fill="#648698" /><rect x="7" y="0" width="1" height="1" fill="#638596" /><rect x="7" y="1" width="1" height="1" fill="#638596" /><rect x="7" y="2" width="1" height="1" fill="#638596" /><rect x="7" y="3" width="1" height="1" fill="#638596" /><rect x="7" y="4" width="1" height="1" fill="#638596" /><rect x="7" y="5" width="1" height="1" fill="#638596" /><rect x="7" y="6" width="1" height="1" fill="#638596" /><rect x="7" y="7" width="1" height="1" fill="#638596" /><rect x="7" y="8" width="1" height="1" fill="#638495" /><rect x="7" y="9" width="1" height="1" fill="#638697" /><rect x="8" y="0" width="1" height="1" fill="#638596" /><rect x="8" y="1" width="1" height="1" fill="#638596" /><rect x="8" y="2" width="1" height="1" fill="#638596" /><rect x="8" y="3" width="1" height="1" fill="#638596" /><rect x="8" y="4" width="1" height="1" fill="#638596" /><rect x="8" y="5" width="1" height="1" fill="#638596" /><rect x="8" y="6" width="1" height="1" fill="#638596" /><rect x="8" y="7" width="1" height="1" fill="#638596" /><rect x="8" y="8" width="1" height="1" fill="#638596" /><rect x="8" y="9" width="1" height="1" fill="#638596" /><rect x="9" y="0" width="1" height="1" fill="#638596" /><rect x="9" y="1" width="1" height="1" fill="#638596" /><rect x="9" y="2" width="1" height="1" fill="#638596" /><rect x="9" y="3" width="1" height="1" fill="#638596" /><rect x="9" y="4" width="1" height="1" fill="#638596" /><rect x="9" y="5" width="1" height="1" fill="#638596" /><rect x="9" y="6" width="1" height="1" fill="#638596" /><rect x="9" y="7" width="1" height="1" fill="#638596" /><rect x="9" y="8" width="1" height="1" fill="#638596" /><rect x="9" y="9" width="1" height="1" fill="#638596" /></g></svg>