<svg width="800" height="1000" xmlns="http://www.w3.org/2000/svg"><defs><linearGradient id="g" x1="0" x2="1" y1="0" y2="1"><stop offset="0%" stop-color="#2d3c96"/><stop offset="100%" stop-color="#d53392"/></linearGradient></defs><rect x="10" y="10" width="780" height="980" fill="url(#g)" rx="50" ry="50" stroke="gold" stroke-width="20"/><text x="400" y="920" width="780" text-anchor="middle" style="font:bold 200px 'Helvetica Neue';fill:gold">04032</text><g transform="translate(80 80) scale(64)"><rect x="0" y="0" width="1" height="1" fill="#463623" /><rect x="0" y="1" width="1" height="1" fill="#2d2216" /><rect x="0" y="2" width="1" height="1" fill="#000000" /><rect x="0" y="3" width="1" height="1" fill="#251c12" /><rect x="0" y="4" width="1" height="1" fill="#473723" /><rect x="0" y="5" width="1" height="1" fill="#21180d" /><rect x="0" y="6" width="1" height="1" fill="#69533a" /><rect x="0" y="7" width="1" height="1" fill="#fff0af" /><rect x="0" y="8" width="1" height="1" fill="#4e3f2e" /><rect x="0" y="9" width="1" height="1" fill="#000000" /><rect x="1" y="0" width="1" height="1" fill="#463623" /><rect x="1" y="1" width="1" height="1" fill="#2d2216" /><rect x="1" y="2" width="1" height="1" fill="#000000" /><rect x="1" y="3" width="1" height="1" fill="#251c12" /><rect x="1" y="4" width="1" height="1" fill="#473723" /><rect x="1" y="5" width="1" height="1" fill="#2b2013" /><rect x="1" y="6" width="1" height="1" fill="#594630" /><rect x="1" y="7" width="1" height="1" fill="#d9af7f" /><rect x="1" y="8" width="1" height="1" fill="#392e22" /><rect x="1" y="9" width="1" height="1" fill="#000000" /><rect x="2" y="0" width="1" height="1" fill="#463623" /><rect x="2" y="1" width="1" height="1" fill="#2d2216" /><rect x="2" y="2" width="1" height="1" fill="#000000" /><rect x="2" y="3" width="1" height="1" fill="#251c12" /><rect x="2" y="4" width="1" height="1" fill="#473723" /><rect x="2" y="5" width="1" height="1" fill="#463623" /><rect x="2" y="6" width="1" height="1" fill="#2e2417" /><rect x="2" y="7" width="1" height="1" fill="#000000" /><rect x="2" y="8" width="1" height="1" fill="#000000" /><rect x="2" y="9" width="1" height="1" fill="#000000" /><rect x="3" y="0" width="1" height="1" fill="#463623" /><rect x="3" y="1" width="1" height="1" fill="#2d2316" /><rect x="3" y="2" width="1" height="1" fill="#000000" /><rect x="3" y="3" width="1" height="1" fill="#251c12" /><rect x="3" y="4" width="1" height="1" fill="#473723" /><rect x="3" y="5" width="1" height="1" fill="#463623" /><rect x="3" y="6" width="1" height="1" fill="#2d2215" /><rect x="3" y="7" width="1" height="1" fill="#000000" /><rect x="3" y="8" width="1" height="1" fill="#315454" /><rect x="3" y="9" width="1" height="1" fill="#5d9f9f" /><rect x="4" y="0" width="1" height="1" fill="#473622" /><rect x="4" y="1" width="1" height="1" fill="#2c2216" /><rect x="4" y="2" width="1" height="1" fill="#000000" /><rect x="4" y="3" width="1" height="1" fill="#251c12" /><rect x="4" y="4" width="1" height="1" fill="#473723" /><rect x="4" y="5" width="1" height="1" fill="#463623" /><rect x="4" y="6" width="1" height="1" fill="#2c2014" /><rect x="4" y="7" width="1" height="1" fill="#000000" /><rect x="4" y="8" width="1" height="1" fill="#5c9d9d" /><rect x="4" y="9" width="1" height="1" fill="#b0ffff" /><rect x="5" y="0" width="1" height="1" fill="#412913" /><rect x="5" y="1" width="1" height="1" fill="#251300" /><rect x="5" y="2" width="1" height="1" fill="#000000" /><rect x="5" y="3" width="1" height="1" fill="#251d13" /><rect x="5" y="4" width="1" height="1" fill="#473723" /><rect x="5" y="5" width="1" height="1" fill="#463623" /><rect x="5" y="6" width="1" height="1" fill="#2c2014" /><rect x="5" y="7" width="1" height="1" fill="#000000" /><rect x="5" y="8" width="1" height="1" fill="#5b9c9c" /><rect x="5" y="9" width="1" height="1" fill="#adffff" /><rect x="6" y="0" width="1" height="1" fill="#534f45" /><rect x="6" y="1" width="1" height="1" fill="#322d25" /><rect x="6" y="2" width="1" height="1" fill="#000000" /><rect x="6" y="3" width="1" height="1" fill="#251c12" /><rect x="6" y="4" width="1" height="1" fill="#473723" /><rect x="6" y="5" width="1" height="1" fill="#463623" /><rect x="6" y="6" width="1" height="1" fill="#2c2115" /><rect x="6" y="7" width="1" height="1" fill="#000000" /><rect x="6" y="8" width="1" height="1" fill="#396363" /><rect x="6" y="9" width="1" height="1" fill="#6ebdbb" /><rect x="7" y="0" width="1" height="1" fill="#77a4bb" /><rect x="7" y="1" width="1" height="1" fill="#4c6978" /><rect x="7" y="2" width="1" height="1" fill="#000000" /><rect x="7" y="3" width="1" height="1" fill="#241b10" /><rect x="7" y="4" width="1" height="1" fill="#473723" /><rect x="7" y="5" width="1" height="1" fill="#463623" /><rect x="7" y="6" width="1" height="1" fill="#2d2317" /><rect x="7" y="7" width="1" height="1" fill="#000000" /><rect x="7" y="8" width="1" height="1" fill="#000000" /><rect x="7" y="9" width="1" height="1" fill="#000000" /><rect x="8" y="0" width="1" height="1" fill="#6a8fa1" /><rect x="8" y="1" width="1" height="1" fill="#5a7a89" /><rect x="8" y="2" width="1" height="1" fill="#3a525f" /><rect x="8" y="3" width="1" height="1" fill="#3d3b33" /><rect x="8" y="4" width="1" height="1" fill="#3d2913" /><rect x="8" y="5" width="1" height="1" fill="#3d2914" /><rect x="8" y="6" width="1" height="1" fill="#3d382d" /><rect x="8" y="7" width="1" height="1" fill="#3f5764" /><rect x="8" y="8" width="1" height="1" fill="#3c515c" /><rect x="8" y="9" width="1" height="1" fill="#3a4e58" /><rect x="9" y="0" width="1" height="1" fill="#608192" /><rect x="9" y="1" width="1" height="1" fill="#688c9e" /><rect x="9" y="2" width="1" height="1" fill="#7eaec8" /><rect x="9" y="3" width="1" height="1" fill="#525753" /><rect x="9" y="4" width="1" height="1" fill="#341d05" /><rect x="9" y="5" width="1" height="1" fill="#341e08" /><rect x="9" y="6" width="1" height="1" fill="#4b4a42" /><rect x="9" y="7" width="1" height="1" fill="#7aa7bf" /><rect x="9" y="8" width="1" height="1" fill="#759eb3" /><rect x="9" y="9" width="1" height="1" fill="#749cb0" /></g></svg>