<svg width="800" height="1000" xmlns="http://www.w3.org/2000/svg"><defs><linearGradient id="g" x1="0" x2="1" y1="0" y2="1"><stop offset="0%" stop-color="#2d3c96"/><stop offset="100%" stop-color="#d53392"/></linearGradient></defs><rect x="10" y="10" width="780" height="980" fill="url(#g)" rx="50" ry="50" stroke="gold" stroke-width="20"/><text x="400" y="920" width="780" text-anchor="middle" style="font:bold 200px 'Helvetica Neue';fill:gold">04031</text><g transform="translate(80 80) scale(64)"><rect x="0" y="0" width="1" height="1" fill="#78a9c3" /><rect x="0" y="1" width="1" height="1" fill="#4f6f81" /><rect x="0" y="2" width="1" height="1" fill="#000000" /><rect x="0" y="3" width="1" height="1" fill="#261d12" /><rect x="0" y="4" width="1" height="1" fill="#473622" /><rect x="0" y="5" width="1" height="1" fill="#463623" /><rect x="0" y="6" width="1" height="1" fill="#2e2416" /><rect x="0" y="7" width="1" height="1" fill="#000000" /><rect x="0" y="8" width="1" height="1" fill="#000000" /><rect x="0" y="9" width="1" height="1" fill="#121210" /><rect x="1" y="0" width="1" height="1" fill="#677e87" /><rect x="1" y="1" width="1" height="1" fill="#414f53" /><rect x="1" y="2" width="1" height="1" fill="#000000" /><rect x="1" y="3" width="1" height="1" fill="#241b11" /><rect x="1" y="4" width="1" height="1" fill="#473723" /><rect x="1" y="5" width="1" height="1" fill="#3e301f" /><rect x="1" y="6" width="1" height="1" fill="#3a2c1c" /><rect x="1" y="7" width="1" height="1" fill="#3c2c1b" /><rect x="1" y="8" width="1" height="1" fill="#020000" /><rect x="1" y="9" width="1" height="1" fill="#040404" /><rect x="2" y="0" width="1" height="1" fill="#432b17" /><rect x="2" y="1" width="1" height="1" fill="#261300" /><rect x="2" y="2" width="1" height="1" fill="#000000" /><rect x="2" y="3" width="1" height="1" fill="#251d12" /><rect x="2" y="4" width="1" height="1" fill="#473723" /><rect x="2" y="5" width="1" height="1" fill="#20140a" /><rect x="2" y="6" width="1" height="1" fill="#6c5b3f" /><rect x="2" y="7" width="1" height="1" fill="#ffffc7" /><rect x="2" y="8" width="1" height="1" fill="#524a35" /><rect x="2" y="9" width="1" height="1" fill="#000000" /><rect x="3" y="0" width="1" height="1" fill="#463621" /><rect x="3" y="1" width="1" height="1" fill="#2b2013" /><rect x="3" y="2" width="1" height="1" fill="#000000" /><rect x="3" y="3" width="1" height="1" fill="#251d12" /><rect x="3" y="4" width="1" height="1" fill="#473723" /><rect x="3" y="5" width="1" height="1" fill="#392b1b" /><rect x="3" y="6" width="1" height="1" fill="#433423" /><rect x="3" y="7" width="1" height="1" fill="#68553e" /><rect x="3" y="8" width="1" height="1" fill="#1d1812" /><rect x="3" y="9" width="1" height="1" fill="#000000" /><rect x="4" y="0" width="1" height="1" fill="#463623" /><rect x="4" y="1" width="1" height="1" fill="#2d2317" /><rect x="4" y="2" width="1" height="1" fill="#000000" /><rect x="4" y="3" width="1" height="1" fill="#251c12" /><rect x="4" y="4" width="1" height="1" fill="#473723" /><rect x="4" y="5" width="1" height="1" fill="#463623" /><rect x="4" y="6" width="1" height="1" fill="#2e2417" /><rect x="4" y="7" width="1" height="1" fill="#000000" /><rect x="4" y="8" width="1" height="1" fill="#040808" /><rect x="4" y="9" width="1" height="1" fill="#080d0d" /><rect x="5" y="0" width="1" height="1" fill="#463623" /><rect x="5" y="1" width="1" height="1" fill="#2d2216" /><rect x="5" y="2" width="1" height="1" fill="#000000" /><rect x="5" y="3" width="1" height="1" fill="#251c12" /><rect x="5" y="4" width="1" height="1" fill="#473723" /><rect x="5" y="5" width="1" height="1" fill="#463623" /><rect x="5" y="6" width="1" height="1" fill="#2c2114" /><rect x="5" y="7" width="1" height="1" fill="#000000" /><rect x="5" y="8" width="1" height="1" fill="#4b8181" /><rect x="5" y="9" width="1" height="1" fill="#8ff5f4" /><rect x="6" y="0" width="1" height="1" fill="#463623" /><rect x="6" y="1" width="1" height="1" fill="#2d2216" /><rect x="6" y="2" width="1" height="1" fill="#000000" /><rect x="6" y="3" width="1" height="1" fill="#251c12" /><rect x="6" y="4" width="1" height="1" fill="#473723" /><rect x="6" y="5" width="1" height="1" fill="#463623" /><rect x="6" y="6" width="1" height="1" fill="#2c2014" /><rect x="6" y="7" width="1" height="1" fill="#000000" /><rect x="6" y="8" width="1" height="1" fill="#559392" /><rect x="6" y="9" width="1" height="1" fill="#a3ffff" /><rect x="7" y="0" width="1" height="1" fill="#463623" /><rect x="7" y="1" width="1" height="1" fill="#2d2216" /><rect x="7" y="2" width="1" height="1" fill="#000000" /><rect x="7" y="3" width="1" height="1" fill="#251c12" /><rect x="7" y="4" width="1" height="1" fill="#473723" /><rect x="7" y="5" width="1" height="1" fill="#463623" /><rect x="7" y="6" width="1" height="1" fill="#2c2014" /><rect x="7" y="7" width="1" height="1" fill="#000000" /><rect x="7" y="8" width="1" height="1" fill="#5a9b9b" /><rect x="7" y="9" width="1" height="1" fill="#acffff" /><rect x="8" y="0" width="1" height="1" fill="#463623" /><rect x="8" y="1" width="1" height="1" fill="#2d2216" /><rect x="8" y="2" width="1" height="1" fill="#000000" /><rect x="8" y="3" width="1" height="1" fill="#251c12" /><rect x="8" y="4" width="1" height="1" fill="#473723" /><rect x="8" y="5" width="1" height="1" fill="#463623" /><rect x="8" y="6" width="1" height="1" fill="#2d2216" /><rect x="8" y="7" width="1" height="1" fill="#000000" /><rect x="8" y="8" width="1" height="1" fill="#1f3535" /><rect x="8" y="9" width="1" height="1" fill="#386262" /><rect x="9" y="0" width="1" height="1" fill="#463623" /><rect x="9" y="1" width="1" height="1" fill="#2d2216" /><rect x="9" y="2" width="1" height="1" fill="#000000" /><rect x="9" y="3" width="1" height="1" fill="#251c12" /><rect x="9" y="4" width="1" height="1" fill="#473723" /><rect x="9" y="5" width="1" height="1" fill="#453522" /><rect x="9" y="6" width="1" height="1" fill="#302518" /><rect x="9" y="7" width="1" height="1" fill="#090706" /><rect x="9" y="8" width="1" height="1" fill="#040302" /><rect x="9" y="9" width="1" height="1" fill="#000000" /></g></svg>