<svg width="800" height="1000" xmlns="http://www.w3.org/2000/svg"><defs><linearGradient id="g" x1="0" x2="1" y1="0" y2="1"><stop offset="0%" stop-color="#2d3c96"/><stop offset="100%" stop-color="#d53392"/></linearGradient></defs><rect x="10" y="10" width="780" height="980" fill="url(#g)" rx="50" ry="50" stroke="gold" stroke-width="20"/><text x="400" y="920" width="780" text-anchor="middle" style="font:bold 200px 'Helvetica Neue';fill:gold">04039</text><g transform="translate(80 80) scale(64)"><rect x="0" y="0" width="1" height="1" fill="#901826" /><rect x="0" y="1" width="1" height="1" fill="#8e1826" /><rect x="0" y="2" width="1" height="1" fill="#8e1826" /><rect x="0" y="3" width="1" height="1" fill="#8e1826" /><rect x="0" y="4" width="1" height="1" fill="#881926" /><rect x="0" y="5" width="1" height="1" fill="#4c1e26" /><rect x="0" y="6" width="1" height="1" fill="#1c2226" /><rect x="0" y="7" width="1" height="1" fill="#1a2226" /><rect x="0" y="8" width="1" height="1" fill="#1a2226" /><rect x="0" y="9" width="1" height="1" fill="#1a2226" /><rect x="1" y="0" width="1" height="1" fill="#dd1b20" /><rect x="1" y="1" width="1" height="1" fill="#b31823" /><rect x="1" y="2" width="1" height="1" fill="#8c1625" /><rect x="1" y="3" width="1" height="1" fill="#5d1a25" /><rect x="1" y="4" width="1" height="1" fill="#242126" /><rect x="1" y="5" width="1" height="1" fill="#1a2226" /><rect x="1" y="6" width="1" height="1" fill="#1a2226" /><rect x="1" y="7" width="1" height="1" fill="#1a2226" /><rect x="1" y="8" width="1" height="1" fill="#1a2226" /><rect x="1" y="9" width="1" height="1" fill="#1a2226" /><rect x="2" y="0" width="1" height="1" fill="#e51b20" /><rect x="2" y="1" width="1" height="1" fill="#e51b20" /><rect x="2" y="2" width="1" height="1" fill="#de1b20" /><rect x="2" y="3" width="1" height="1" fill="#911e22" /><rect x="2" y="4" width="1" height="1" fill="#382125" /><rect x="2" y="5" width="1" height="1" fill="#1a2226" /><rect x="2" y="6" width="1" height="1" fill="#1a2226" /><rect x="2" y="7" width="1" height="1" fill="#1a2226" /><rect x="2" y="8" width="1" height="1" fill="#1a2226" /><rect x="2" y="9" width="1" height="1" fill="#1a2226" /><rect x="3" y="0" width="1" height="1" fill="#da1d22" /><rect x="3" y="1" width="1" height="1" fill="#da1d22" /><rect x="3" y="2" width="1" height="1" fill="#da1d22" /><rect x="3" y="3" width="1" height="1" fill="#da1d22" /><rect x="3" y="4" width="1" height="1" fill="#d91d22" /><rect x="3" y="5" width="1" height="1" fill="#9f1f23" /><rect x="3" y="6" width="1" height="1" fill="#402125" /><rect x="3" y="7" width="1" height="1" fill="#1a2226" /><rect x="3" y="8" width="1" height="1" fill="#1a2226" /><rect x="3" y="9" width="1" height="1" fill="#1a2226" /><rect x="4" y="0" width="1" height="1" fill="#cd1f23" /><rect x="4" y="1" width="1" height="1" fill="#cd1f23" /><rect x="4" y="2" width="1" height="1" fill="#cd1f23" /><rect x="4" y="3" width="1" height="1" fill="#cd1f23" /><rect x="4" y="4" width="1" height="1" fill="#cd1f23" /><rect x="4" y="5" width="1" height="1" fill="#cd1f23" /><rect x="4" y="6" width="1" height="1" fill="#c51f23" /><rect x="4" y="7" width="1" height="1" fill="#1a2226" /><rect x="4" y="8" width="1" height="1" fill="#1a2226" /><rect x="4" y="9" width="1" height="1" fill="#1a2226" /><rect x="5" y="0" width="1" height="1" fill="#8f1f25" /><rect x="5" y="1" width="1" height="1" fill="#bf1e25" /><rect x="5" y="2" width="1" height="1" fill="#bf1e25" /><rect x="5" y="3" width="1" height="1" fill="#bf1e25" /><rect x="5" y="4" width="1" height="1" fill="#bf1e25" /><rect x="5" y="5" width="1" height="1" fill="#bf1e25" /><rect x="5" y="6" width="1" height="1" fill="#bf1e25" /><rect x="5" y="7" width="1" height="1" fill="#1a2226" /><rect x="5" y="8" width="1" height="1" fill="#1a2226" /><rect x="5" y="9" width="1" height="1" fill="#1a2226" /><rect x="6" y="0" width="1" height="1" fill="#202226" /><rect x="6" y="1" width="1" height="1" fill="#b21d26" /><rect x="6" y="2" width="1" height="1" fill="#b21d26" /><rect x="6" y="3" width="1" height="1" fill="#b21d26" /><rect x="6" y="4" width="1" height="1" fill="#b21d26" /><rect x="6" y="5" width="1" height="1" fill="#b21d26" /><rect x="6" y="6" width="1" height="1" fill="#b21d26" /><rect x="6" y="7" width="1" height="1" fill="#1a2226" /><rect x="6" y="8" width="1" height="1" fill="#1a2226" /><rect x="6" y="9" width="1" height="1" fill="#1a2226" /><rect x="7" y="0" width="1" height="1" fill="#5b1f26" /><rect x="7" y="1" width="1" height="1" fill="#a61b26" /><rect x="7" y="2" width="1" height="1" fill="#a61b26" /><rect x="7" y="3" width="1" height="1" fill="#a61b26" /><rect x="7" y="4" width="1" height="1" fill="#a61b26" /><rect x="7" y="5" width="1" height="1" fill="#a61b26" /><rect x="7" y="6" width="1" height="1" fill="#a61b26" /><rect x="7" y="7" width="1" height="1" fill="#1a2226" /><rect x="7" y="8" width="1" height="1" fill="#1a2226" /><rect x="7" y="9" width="1" height="1" fill="#1a2226" /><rect x="8" y="0" width="1" height="1" fill="#9a1a26" /><rect x="8" y="1" width="1" height="1" fill="#9a1a26" /><rect x="8" y="2" width="1" height="1" fill="#9a1a26" /><rect x="8" y="3" width="1" height="1" fill="#9a1a26" /><rect x="8" y="4" width="1" height="1" fill="#9a1a26" /><rect x="8" y="5" width="1" height="1" fill="#9a1a26" /><rect x="8" y="6" width="1" height="1" fill="#7d1c26" /><rect x="8" y="7" width="1" height="1" fill="#1a2226" /><rect x="8" y="8" width="1" height="1" fill="#1a2226" /><rect x="8" y="9" width="1" height="1" fill="#1a2226" /><rect x="9" y="0" width="1" height="1" fill="#911c29" /><rect x="9" y="1" width="1" height="1" fill="#8f1826" /><rect x="9" y="2" width="1" height="1" fill="#8f1826" /><rect x="9" y="3" width="1" height="1" fill="#8f1826" /><rect x="9" y="4" width="1" height="1" fill="#8a1826" /><rect x="9" y="5" width="1" height="1" fill="#511d26" /><rect x="9" y="6" width="1" height="1" fill="#1d2226" /><rect x="9" y="7" width="1" height="1" fill="#1a2226" /><rect x="9" y="8" width="1" height="1" fill="#1a2226" /><rect x="9" y="9" width="1" height="1" fill="#1a2226" /></g></svg>