<svg width="800" height="1000" xmlns="http://www.w3.org/2000/svg"><defs><linearGradient id="g" x1="0" x2="1" y1="0" y2="1"><stop offset="0%" stop-color="#2d3c96"/><stop offset="100%" stop-color="#d53392"/></linearGradient></defs><rect x="10" y="10" width="780" height="980" fill="url(#g)" rx="50" ry="50" stroke="gold" stroke-width="20"/><text x="400" y="920" width="780" text-anchor="middle" style="font:bold 200px 'Helvetica Neue';fill:gold">04030</text><g transform="translate(80 80) scale(64)"><rect x="0" y="0" width="1" height="1" fill="#638596" /><rect x="0" y="1" width="1" height="1" fill="#638596" /><rect x="0" y="2" width="1" height="1" fill="#638596" /><rect x="0" y="3" width="1" height="1" fill="#638596" /><rect x="0" y="4" width="1" height="1" fill="#638596" /><rect x="0" y="5" width="1" height="1" fill="#638596" /><rect x="0" y="6" width="1" height="1" fill="#638596" /><rect x="0" y="7" width="1" height="1" fill="#638596" /><rect x="0" y="8" width="1" height="1" fill="#638596" /><rect x="0" y="9" width="1" height="1" fill="#638596" /><rect x="1" y="0" width="1" height="1" fill="#638596" /><rect x="1" y="1" width="1" height="1" fill="#638596" /><rect x="1" y="2" width="1" height="1" fill="#638596" /><rect x="1" y="3" width="1" height="1" fill="#638596" /><rect x="1" y="4" width="1" height="1" fill="#638596" /><rect x="1" y="5" width="1" height="1" fill="#638596" /><rect x="1" y="6" width="1" height="1" fill="#638596" /><rect x="1" y="7" width="1" height="1" fill="#638596" /><rect x="1" y="8" width="1" height="1" fill="#638596" /><rect x="1" y="9" width="1" height="1" fill="#638596" /><rect x="2" y="0" width="1" height="1" fill="#638596" /><rect x="2" y="1" width="1" height="1" fill="#638596" /><rect x="2" y="2" width="1" height="1" fill="#638596" /><rect x="2" y="3" width="1" height="1" fill="#638596" /><rect x="2" y="4" width="1" height="1" fill="#638596" /><rect x="2" y="5" width="1" height="1" fill="#638596" /><rect x="2" y="6" width="1" height="1" fill="#638596" /><rect x="2" y="7" width="1" height="1" fill="#638596" /><rect x="2" y="8" width="1" height="1" fill="#638596" /><rect x="2" y="9" width="1" height="1" fill="#638596" /><rect x="3" y="0" width="1" height="1" fill="#638596" /><rect x="3" y="1" width="1" height="1" fill="#638596" /><rect x="3" y="2" width="1" height="1" fill="#638596" /><rect x="3" y="3" width="1" height="1" fill="#638495" /><rect x="3" y="4" width="1" height="1" fill="#638697" /><rect x="3" y="5" width="1" height="1" fill="#668ea2" /><rect x="3" y="6" width="1" height="1" fill="#658c9f" /><rect x="3" y="7" width="1" height="1" fill="#638495" /><rect x="3" y="8" width="1" height="1" fill="#638596" /><rect x="3" y="9" width="1" height="1" fill="#638596" /><rect x="4" y="0" width="1" height="1" fill="#638596" /><rect x="4" y="1" width="1" height="1" fill="#638596" /><rect x="4" y="2" width="1" height="1" fill="#638596" /><rect x="4" y="3" width="1" height="1" fill="#638697" /><rect x="4" y="4" width="1" height="1" fill="#638496" /><rect x="4" y="5" width="1" height="1" fill="#617d8c" /><rect x="4" y="6" width="1" height="1" fill="#617f8e" /><rect x="4" y="7" width="1" height="1" fill="#638697" /><rect x="4" y="8" width="1" height="1" fill="#638596" /><rect x="4" y="9" width="1" height="1" fill="#638596" /><rect x="5" y="0" width="1" height="1" fill="#638596" /><rect x="5" y="1" width="1" height="1" fill="#638596" /><rect x="5" y="2" width="1" height="1" fill="#628393" /><rect x="5" y="3" width="1" height="1" fill="#6a97af" /><rect x="5" y="4" width="1" height="1" fill="#678da3" /><rect x="5" y="5" width="1" height="1" fill="#3a240e" /><rect x="5" y="6" width="1" height="1" fill="#443f33" /><rect x="5" y="7" width="1" height="1" fill="#678ea3" /><rect x="5" y="8" width="1" height="1" fill="#648798" /><rect x="5" y="9" width="1" height="1" fill="#638596" /><rect x="6" y="0" width="1" height="1" fill="#638596" /><rect x="6" y="1" width="1" height="1" fill="#638596" /><rect x="6" y="2" width="1" height="1" fill="#64889b" /><rect x="6" y="3" width="1" height="1" fill="#5f7c89" /><rect x="6" y="4" width="1" height="1" fill="#556466" /><rect x="6" y="5" width="1" height="1" fill="#351d04" /><rect x="6" y="6" width="1" height="1" fill="#423c31" /><rect x="6" y="7" width="1" height="1" fill="#678fa3" /><rect x="6" y="8" width="1" height="1" fill="#648798" /><rect x="6" y="9" width="1" height="1" fill="#638596" /><rect x="7" y="0" width="1" height="1" fill="#638596" /><rect x="7" y="1" width="1" height="1" fill="#638697" /><rect x="7" y="2" width="1" height="1" fill="#6993aa" /><rect x="7" y="3" width="1" height="1" fill="#484640" /><rect x="7" y="4" width="1" height="1" fill="#321500" /><rect x="7" y="5" width="1" height="1" fill="#37220b" /><rect x="7" y="6" width="1" height="1" fill="#47453c" /><rect x="7" y="7" width="1" height="1" fill="#678ea2" /><rect x="7" y="8" width="1" height="1" fill="#638597" /><rect x="7" y="9" width="1" height="1" fill="#648697" /><rect x="8" y="0" width="1" height="1" fill="#628394" /><rect x="8" y="1" width="1" height="1" fill="#66899a" /><rect x="8" y="2" width="1" height="1" fill="#739eb5" /><rect x="8" y="3" width="1" height="1" fill="#4e524d" /><rect x="8" y="4" width="1" height="1" fill="#341e07" /><rect x="8" y="5" width="1" height="1" fill="#36200a" /><rect x="8" y="6" width="1" height="1" fill="#49473e" /><rect x="8" y="7" width="1" height="1" fill="#7099af" /><rect x="8" y="8" width="1" height="1" fill="#7399ac" /><rect x="8" y="9" width="1" height="1" fill="#678a9b" /><rect x="9" y="0" width="1" height="1" fill="#648697" /><rect x="9" y="1" width="1" height="1" fill="#628495" /><rect x="9" y="2" width="1" height="1" fill="#628a9e" /><rect x="9" y="3" width="1" height="1" fill="#494c46" /><rect x="9" y="4" width="1" height="1" fill="#37210b" /><rect x="9" y="5" width="1" height="1" fill="#38230d" /><rect x="9" y="6" width="1" height="1" fill="#454339" /><rect x="9" y="7" width="1" height="1" fill="#62879b" /><rect x="9" y="8" width="1" height="1" fill="#668a9c" /><rect x="9" y="9" width="1" height="1" fill="#5a7988" /></g></svg>