<svg width="800" height="1000" xmlns="http://www.w3.org/2000/svg"><defs><linearGradient id="g" x1="0" x2="1" y1="0" y2="1"><stop offset="0%" stop-color="#2d3c96"/><stop offset="100%" stop-color="#d53392"/></linearGradient></defs><rect x="10" y="10" width="780" height="980" fill="url(#g)" rx="50" ry="50" stroke="gold" stroke-width="20"/><text x="400" y="920" width="780" text-anchor="middle" style="font:bold 200px 'Helvetica Neue';fill:gold">04041</text><g transform="translate(80 80) scale(64)"><rect x="0" y="0" width="1" height="1" fill="#292929" /><rect x="0" y="1" width="1" height="1" fill="#292929" /><rect x="0" y="2" width="1" height="1" fill="#292929" /><rect x="0" y="3" width="1" height="1" fill="#292929" /><rect x="0" y="4" width="1" height="1" fill="#292929" /><rect x="0" y="5" width="1" height="1" fill="#292929" /><rect x="0" y="6" width="1" height="1" fill="#292929" /><rect x="0" y="7" width="1" height="1" fill="#292929" /><rect x="0" y="8" width="1" height="1" fill="#807214" /><rect x="0" y="9" width="1" height="1" fill="#ac9709" /><rect x="1" y="0" width="1" height="1" fill="#7b6e14" /><rect x="1" y="1" width="1" height="1" fill="#3b3824" /><rect x="1" y="2" width="1" height="1" fill="#292929" /><rect x="1" y="3" width="1" height="1" fill="#292929" /><rect x="1" y="4" width="1" height="1" fill="#292929" /><rect x="1" y="5" width="1" height="1" fill="#312f26" /><rect x="1" y="6" width="1" height="1" fill="#827413" /><rect x="1" y="7" width="1" height="1" fill="#b3a00e" /><rect x="1" y="8" width="1" height="1" fill="#dfc404" /><rect x="1" y="9" width="1" height="1" fill="#c4ac06" /><rect x="2" y="0" width="1" height="1" fill="#cbb105" /><rect x="2" y="1" width="1" height="1" fill="#c7af06" /><rect x="2" y="2" width="1" height="1" fill="#bca508" /><rect x="2" y="3" width="1" height="1" fill="#cfbc0f" /><rect x="2" y="4" width="1" height="1" fill="#cbb812" /><rect x="2" y="5" width="1" height="1" fill="#d5c10b" /><rect x="2" y="6" width="1" height="1" fill="#e2ce07" /><rect x="2" y="7" width="1" height="1" fill="#c3b111" /><rect x="2" y="8" width="1" height="1" fill="#bda607" /><rect x="2" y="9" width="1" height="1" fill="#cfb505" /><rect x="3" y="0" width="1" height="1" fill="#dabf04" /><rect x="3" y="1" width="1" height="1" fill="#bca507" /><rect x="3" y="2" width="1" height="1" fill="#bea707" /><rect x="3" y="3" width="1" height="1" fill="#bda607" /><rect x="3" y="4" width="1" height="1" fill="#c1a906" /><rect x="3" y="5" width="1" height="1" fill="#bca507" /><rect x="3" y="6" width="1" height="1" fill="#d2b804" /><rect x="3" y="7" width="1" height="1" fill="#f3d400" /><rect x="3" y="8" width="1" height="1" fill="#f3d400" /><rect x="3" y="9" width="1" height="1" fill="#f3d400" /><rect x="4" y="0" width="1" height="1" fill="#c6ad05" /><rect x="4" y="1" width="1" height="1" fill="#edcf01" /><rect x="4" y="2" width="1" height="1" fill="#f3d400" /><rect x="4" y="3" width="1" height="1" fill="#f3d400" /><rect x="4" y="4" width="1" height="1" fill="#f3d400" /><rect x="4" y="5" width="1" height="1" fill="#f3d400" /><rect x="4" y="6" width="1" height="1" fill="#f3d400" /><rect x="4" y="7" width="1" height="1" fill="#f3d400" /><rect x="4" y="8" width="1" height="1" fill="#f3d400" /><rect x="4" y="9" width="1" height="1" fill="#f3d400" /><rect x="5" y="0" width="1" height="1" fill="#cdb304" /><rect x="5" y="1" width="1" height="1" fill="#f3d400" /><rect x="5" y="2" width="1" height="1" fill="#f3d400" /><rect x="5" y="3" width="1" height="1" fill="#f3d400" /><rect x="5" y="4" width="1" height="1" fill="#efd001" /><rect x="5" y="5" width="1" height="1" fill="#f0d200" /><rect x="5" y="6" width="1" height="1" fill="#f3d400" /><rect x="5" y="7" width="1" height="1" fill="#f3d400" /><rect x="5" y="8" width="1" height="1" fill="#f2d300" /><rect x="5" y="9" width="1" height="1" fill="#b39d09" /><rect x="6" y="0" width="1" height="1" fill="#ebcd01" /><rect x="6" y="1" width="1" height="1" fill="#f3d400" /><rect x="6" y="2" width="1" height="1" fill="#ebcd01" /><rect x="6" y="3" width="1" height="1" fill="#d1b704" /><rect x="6" y="4" width="1" height="1" fill="#d2b804" /><rect x="6" y="5" width="1" height="1" fill="#d2b804" /><rect x="6" y="6" width="1" height="1" fill="#aa960b" /><rect x="6" y="7" width="1" height="1" fill="#877812" /><rect x="6" y="8" width="1" height="1" fill="#5d551a" /><rect x="6" y="9" width="1" height="1" fill="#2c2b27" /><rect x="7" y="0" width="1" height="1" fill="#564e1c" /><rect x="7" y="1" width="1" height="1" fill="#675d19" /><rect x="7" y="2" width="1" height="1" fill="#625919" /><rect x="7" y="3" width="1" height="1" fill="#695f18" /><rect x="7" y="4" width="1" height="1" fill="#5c541b" /><rect x="7" y="5" width="1" height="1" fill="#474221" /><rect x="7" y="6" width="1" height="1" fill="#292929" /><rect x="7" y="7" width="1" height="1" fill="#292929" /><rect x="7" y="8" width="1" height="1" fill="#292929" /><rect x="7" y="9" width="1" height="1" fill="#292929" /><rect x="8" y="0" width="1" height="1" fill="#292929" /><rect x="8" y="1" width="1" height="1" fill="#292929" /><rect x="8" y="2" width="1" height="1" fill="#292929" /><rect x="8" y="3" width="1" height="1" fill="#292929" /><rect x="8" y="4" width="1" height="1" fill="#292929" /><rect x="8" y="5" width="1" height="1" fill="#292929" /><rect x="8" y="6" width="1" height="1" fill="#292929" /><rect x="8" y="7" width="1" height="1" fill="#292929" /><rect x="8" y="8" width="1" height="1" fill="#292929" /><rect x="8" y="9" width="1" height="1" fill="#292929" /><rect x="9" y="0" width="1" height="1" fill="#292929" /><rect x="9" y="1" width="1" height="1" fill="#292929" /><rect x="9" y="2" width="1" height="1" fill="#292929" /><rect x="9" y="3" width="1" height="1" fill="#292929" /><rect x="9" y="4" width="1" height="1" fill="#292929" /><rect x="9" y="5" width="1" height="1" fill="#292929" /><rect x="9" y="6" width="1" height="1" fill="#292929" /><rect x="9" y="7" width="1" height="1" fill="#292929" /><rect x="9" y="8" width="1" height="1" fill="#292929" /><rect x="9" y="9" width="1" height="1" fill="#292929" /></g></svg>