<svg width="800" height="1000" xmlns="http://www.w3.org/2000/svg"><defs><linearGradient id="g" x1="0" x2="1" y1="0" y2="1"><stop offset="0%" stop-color="#2d3c96"/><stop offset="100%" stop-color="#d53392"/></linearGradient></defs><rect x="10" y="10" width="780" height="980" fill="url(#g)" rx="50" ry="50" stroke="gold" stroke-width="20"/><text x="400" y="920" width="780" text-anchor="middle" style="font:bold 200px 'Helvetica Neue';fill:gold">04105</text><g transform="translate(80 80) scale(64)"><rect x="0" y="0" width="1" height="1" fill="#6d3894" /><rect x="0" y="1" width="1" height="1" fill="#6e3894" /><rect x="0" y="2" width="1" height="1" fill="#6f3894" /><rect x="0" y="3" width="1" height="1" fill="#713894" /><rect x="0" y="4" width="1" height="1" fill="#723894" /><rect x="0" y="5" width="1" height="1" fill="#c8983b" /><rect x="0" y="6" width="1" height="1" fill="#a16b64" /><rect x="0" y="7" width="1" height="1" fill="#753894" /><rect x="0" y="8" width="1" height="1" fill="#763894" /><rect x="0" y="9" width="1" height="1" fill="#773894" /><rect x="1" y="0" width="1" height="1" fill="#6f3894" /><rect x="1" y="1" width="1" height="1" fill="#703894" /><rect x="1" y="2" width="1" height="1" fill="#713894" /><rect x="1" y="3" width="1" height="1" fill="#723894" /><rect x="1" y="4" width="1" height="1" fill="#733894" /><rect x="1" y="5" width="1" height="1" fill="#c6963d" /><rect x="1" y="6" width="1" height="1" fill="#a16a65" /><rect x="1" y="7" width="1" height="1" fill="#773894" /><rect x="1" y="8" width="1" height="1" fill="#783894" /><rect x="1" y="9" width="1" height="1" fill="#793894" /><rect x="2" y="0" width="1" height="1" fill="#703894" /><rect x="2" y="1" width="1" height="1" fill="#713894" /><rect x="2" y="2" width="1" height="1" fill="#733894" /><rect x="2" y="3" width="1" height="1" fill="#743894" /><rect x="2" y="4" width="1" height="1" fill="#753894" /><rect x="2" y="5" width="1" height="1" fill="#aa745c" /><rect x="2" y="6" width="1" height="1" fill="#bb874a" /><rect x="2" y="7" width="1" height="1" fill="#783894" /><rect x="2" y="8" width="1" height="1" fill="#793894" /><rect x="2" y="9" width="1" height="1" fill="#7b3794" /><rect x="3" y="0" width="1" height="1" fill="#723894" /><rect x="3" y="1" width="1" height="1" fill="#733894" /><rect x="3" y="2" width="1" height="1" fill="#743894" /><rect x="3" y="3" width="1" height="1" fill="#753894" /><rect x="3" y="4" width="1" height="1" fill="#763894" /><rect x="3" y="5" width="1" height="1" fill="#783894" /><rect x="3" y="6" width="1" height="1" fill="#793894" /><rect x="3" y="7" width="1" height="1" fill="#7a3794" /><rect x="3" y="8" width="1" height="1" fill="#7b3794" /><rect x="3" y="9" width="1" height="1" fill="#7c3794" /><rect x="4" y="0" width="1" height="1" fill="#743894" /><rect x="4" y="1" width="1" height="1" fill="#753894" /><rect x="4" y="2" width="1" height="1" fill="#763894" /><rect x="4" y="3" width="1" height="1" fill="#773894" /><rect x="4" y="4" width="1" height="1" fill="#783894" /><rect x="4" y="5" width="1" height="1" fill="#b57e52" /><rect x="4" y="6" width="1" height="1" fill="#a56a64" /><rect x="4" y="7" width="1" height="1" fill="#7c3794" /><rect x="4" y="8" width="1" height="1" fill="#7d3794" /><rect x="4" y="9" width="1" height="1" fill="#7e3794" /><rect x="5" y="0" width="1" height="1" fill="#753894" /><rect x="5" y="1" width="1" height="1" fill="#763894" /><rect x="5" y="2" width="1" height="1" fill="#773894" /><rect x="5" y="3" width="1" height="1" fill="#793894" /><rect x="5" y="4" width="1" height="1" fill="#7a3894" /><rect x="5" y="5" width="1" height="1" fill="#b9824e" /><rect x="5" y="6" width="1" height="1" fill="#a86d62" /><rect x="5" y="7" width="1" height="1" fill="#7d3794" /><rect x="5" y="8" width="1" height="1" fill="#7e3794" /><rect x="5" y="9" width="1" height="1" fill="#7f3794" /><rect x="6" y="0" width="1" height="1" fill="#773894" /><rect x="6" y="1" width="1" height="1" fill="#783894" /><rect x="6" y="2" width="1" height="1" fill="#793894" /><rect x="6" y="3" width="1" height="1" fill="#7a3794" /><rect x="6" y="4" width="1" height="1" fill="#7b3794" /><rect x="6" y="5" width="1" height="1" fill="#ba824e" /><rect x="6" y="6" width="1" height="1" fill="#a96d62" /><rect x="6" y="7" width="1" height="1" fill="#7f3794" /><rect x="6" y="8" width="1" height="1" fill="#833b91" /><rect x="6" y="9" width="1" height="1" fill="#b0725d" /><rect x="7" y="0" width="1" height="1" fill="#783894" /><rect x="7" y="1" width="1" height="1" fill="#793894" /><rect x="7" y="2" width="1" height="1" fill="#7b3794" /><rect x="7" y="3" width="1" height="1" fill="#7c3794" /><rect x="7" y="4" width="1" height="1" fill="#7d3794" /><rect x="7" y="5" width="1" height="1" fill="#bb824e" /><rect x="7" y="6" width="1" height="1" fill="#ad705f" /><rect x="7" y="7" width="1" height="1" fill="#b57956" /><rect x="7" y="8" width="1" height="1" fill="#ecbf16" /><rect x="7" y="9" width="1" height="1" fill="#ce983b" /><rect x="8" y="0" width="1" height="1" fill="#7a3794" /><rect x="8" y="1" width="1" height="1" fill="#7b3794" /><rect x="8" y="2" width="1" height="1" fill="#7c3794" /><rect x="8" y="3" width="1" height="1" fill="#7d3794" /><rect x="8" y="4" width="1" height="1" fill="#7f3794" /><rect x="8" y="5" width="1" height="1" fill="#bc824e" /><rect x="8" y="6" width="1" height="1" fill="#f5ca0c" /><rect x="8" y="7" width="1" height="1" fill="#c68e44" /><rect x="8" y="8" width="1" height="1" fill="#8e4687" /><rect x="8" y="9" width="1" height="1" fill="#843794" /><rect x="9" y="0" width="1" height="1" fill="#7c3794" /><rect x="9" y="1" width="1" height="1" fill="#7d3794" /><rect x="9" y="2" width="1" height="1" fill="#7e3794" /><rect x="9" y="3" width="1" height="1" fill="#7f3794" /><rect x="9" y="4" width="1" height="1" fill="#803794" /><rect x="9" y="5" width="1" height="1" fill="#94507e" /><rect x="9" y="6" width="1" height="1" fill="#8f4984" /><rect x="9" y="7" width="1" height="1" fill="#843794" /><rect x="9" y="8" width="1" height="1" fill="#853794" /><rect x="9" y="9" width="1" height="1" fill="#863794" /></g></svg>