<svg width="800" height="1000" xmlns="http://www.w3.org/2000/svg"><defs><linearGradient id="g" x1="0" x2="1" y1="0" y2="1"><stop offset="0%" stop-color="#2d3c96"/><stop offset="100%" stop-color="#d53392"/></linearGradient></defs><rect x="10" y="10" width="780" height="980" fill="url(#g)" rx="50" ry="50" stroke="gold" stroke-width="20"/><text x="400" y="920" width="780" text-anchor="middle" style="font:bold 200px 'Helvetica Neue';fill:gold">04102</text><g transform="translate(80 80) scale(64)"><rect x="0" y="0" width="1" height="1" fill="#3d3c96" /><rect x="0" y="1" width="1" height="1" fill="#3e3b96" /><rect x="0" y="2" width="1" height="1" fill="#3f3b96" /><rect x="0" y="3" width="1" height="1" fill="#413b96" /><rect x="0" y="4" width="1" height="1" fill="#423b96" /><rect x="0" y="5" width="1" height="1" fill="#433b96" /><rect x="0" y="6" width="1" height="1" fill="#443b96" /><rect x="0" y="7" width="1" height="1" fill="#453b96" /><rect x="0" y="8" width="1" height="1" fill="#463b96" /><rect x="0" y="9" width="1" height="1" fill="#473b96" /><rect x="1" y="0" width="1" height="1" fill="#3f3b96" /><rect x="1" y="1" width="1" height="1" fill="#403b96" /><rect x="1" y="2" width="1" height="1" fill="#413b96" /><rect x="1" y="3" width="1" height="1" fill="#423b96" /><rect x="1" y="4" width="1" height="1" fill="#433b96" /><rect x="1" y="5" width="1" height="1" fill="#443b96" /><rect x="1" y="6" width="1" height="1" fill="#463b96" /><rect x="1" y="7" width="1" height="1" fill="#473b96" /><rect x="1" y="8" width="1" height="1" fill="#705d74" /><rect x="1" y="9" width="1" height="1" fill="#ae9242" /><rect x="2" y="0" width="1" height="1" fill="#403b96" /><rect x="2" y="1" width="1" height="1" fill="#423b96" /><rect x="2" y="2" width="1" height="1" fill="#433b96" /><rect x="2" y="3" width="1" height="1" fill="#443b96" /><rect x="2" y="4" width="1" height="1" fill="#453b96" /><rect x="2" y="5" width="1" height="1" fill="#463b96" /><rect x="2" y="6" width="1" height="1" fill="#473b96" /><rect x="2" y="7" width="1" height="1" fill="#53458d" /><rect x="2" y="8" width="1" height="1" fill="#e0bc1a" /><rect x="2" y="9" width="1" height="1" fill="#9b8053" /><rect x="3" y="0" width="1" height="1" fill="#423b96" /><rect x="3" y="1" width="1" height="1" fill="#433b96" /><rect x="3" y="2" width="1" height="1" fill="#443b96" /><rect x="3" y="3" width="1" height="1" fill="#453b96" /><rect x="3" y="4" width="1" height="1" fill="#473b96" /><rect x="3" y="5" width="1" height="1" fill="#483b96" /><rect x="3" y="6" width="1" height="1" fill="#493b96" /><rect x="3" y="7" width="1" height="1" fill="#735f73" /><rect x="3" y="8" width="1" height="1" fill="#b19340" /><rect x="3" y="9" width="1" height="1" fill="#4c3b96" /><rect x="4" y="0" width="1" height="1" fill="#443b96" /><rect x="4" y="1" width="1" height="1" fill="#453b96" /><rect x="4" y="2" width="1" height="1" fill="#463b96" /><rect x="4" y="3" width="1" height="1" fill="#473b96" /><rect x="4" y="4" width="1" height="1" fill="#483b96" /><rect x="4" y="5" width="1" height="1" fill="#493b96" /><rect x="4" y="6" width="1" height="1" fill="#4a3b96" /><rect x="4" y="7" width="1" height="1" fill="#5f4c86" /><rect x="4" y="8" width="1" height="1" fill="#d0ae28" /><rect x="4" y="9" width="1" height="1" fill="#4e3a95" /><rect x="5" y="0" width="1" height="1" fill="#453b96" /><rect x="5" y="1" width="1" height="1" fill="#463b96" /><rect x="5" y="2" width="1" height="1" fill="#473b96" /><rect x="5" y="3" width="1" height="1" fill="#493b96" /><rect x="5" y="4" width="1" height="1" fill="#4a3b96" /><rect x="5" y="5" width="1" height="1" fill="#4b3b96" /><rect x="5" y="6" width="1" height="1" fill="#4c3b96" /><rect x="5" y="7" width="1" height="1" fill="#4d3b96" /><rect x="5" y="8" width="1" height="1" fill="#544190" /><rect x="5" y="9" width="1" height="1" fill="#4f3a95" /><rect x="6" y="0" width="1" height="1" fill="#473b96" /><rect x="6" y="1" width="1" height="1" fill="#483b96" /><rect x="6" y="2" width="1" height="1" fill="#493b96" /><rect x="6" y="3" width="1" height="1" fill="#4a3b96" /><rect x="6" y="4" width="1" height="1" fill="#4b3b96" /><rect x="6" y="5" width="1" height="1" fill="#4c3b96" /><rect x="6" y="6" width="1" height="1" fill="#4e3a95" /><rect x="6" y="7" width="1" height="1" fill="#654f82" /><rect x="6" y="8" width="1" height="1" fill="#bf9e37" /><rect x="6" y="9" width="1" height="1" fill="#513a95" /><rect x="7" y="0" width="1" height="1" fill="#483b96" /><rect x="7" y="1" width="1" height="1" fill="#493b96" /><rect x="7" y="2" width="1" height="1" fill="#4b3b96" /><rect x="7" y="3" width="1" height="1" fill="#4c3b96" /><rect x="7" y="4" width="1" height="1" fill="#4d3b96" /><rect x="7" y="5" width="1" height="1" fill="#4e3a95" /><rect x="7" y="6" width="1" height="1" fill="#c6a431" /><rect x="7" y="7" width="1" height="1" fill="#f4ce09" /><rect x="7" y="8" width="1" height="1" fill="#fbd303" /><rect x="7" y="9" width="1" height="1" fill="#f2cb0b" /><rect x="8" y="0" width="1" height="1" fill="#4a3b96" /><rect x="8" y="1" width="1" height="1" fill="#4b3b96" /><rect x="8" y="2" width="1" height="1" fill="#4c3b96" /><rect x="8" y="3" width="1" height="1" fill="#4d3b96" /><rect x="8" y="4" width="1" height="1" fill="#4e3a95" /><rect x="8" y="5" width="1" height="1" fill="#503a95" /><rect x="8" y="6" width="1" height="1" fill="#543d92" /><rect x="8" y="7" width="1" height="1" fill="#6d527e" /><rect x="8" y="8" width="1" height="1" fill="#c8a530" /><rect x="8" y="9" width="1" height="1" fill="#583d92" /><rect x="9" y="0" width="1" height="1" fill="#4c3b96" /><rect x="9" y="1" width="1" height="1" fill="#4d3b96" /><rect x="9" y="2" width="1" height="1" fill="#4e3a95" /><rect x="9" y="3" width="1" height="1" fill="#4f3a95" /><rect x="9" y="4" width="1" height="1" fill="#503a95" /><rect x="9" y="5" width="1" height="1" fill="#513a95" /><rect x="9" y="6" width="1" height="1" fill="#523995" /><rect x="9" y="7" width="1" height="1" fill="#60458b" /><rect x="9" y="8" width="1" height="1" fill="#906f61" /><rect x="9" y="9" width="1" height="1" fill="#563995" /></g></svg>