<svg width="800" height="1000" xmlns="http://www.w3.org/2000/svg"><defs><linearGradient id="g" x1="0" x2="1" y1="0" y2="1"><stop offset="0%" stop-color="#2d3c96"/><stop offset="100%" stop-color="#d53392"/></linearGradient></defs><rect x="10" y="10" width="780" height="980" fill="url(#g)" rx="50" ry="50" stroke="gold" stroke-width="20"/><text x="400" y="920" width="780" text-anchor="middle" style="font:bold 200px 'Helvetica Neue';fill:gold">04101</text><g transform="translate(80 80) scale(64)"><rect x="0" y="0" width="1" height="1" fill="#ffffff" /><rect x="0" y="1" width="1" height="1" fill="#e3e5f1" /><rect x="0" y="2" width="1" height="1" fill="#7880bb" /><rect x="0" y="3" width="1" height="1" fill="#404a9e" /><rect x="0" y="4" width="1" height="1" fill="#343e97" /><rect x="0" y="5" width="1" height="1" fill="#353e97" /><rect x="0" y="6" width="1" height="1" fill="#363e97" /><rect x="0" y="7" width="1" height="1" fill="#373e97" /><rect x="0" y="8" width="1" height="1" fill="#383e97" /><rect x="0" y="9" width="1" height="1" fill="#393e97" /><rect x="1" y="0" width="1" height="1" fill="#e3e5f1" /><rect x="1" y="1" width="1" height="1" fill="#424d9f" /><rect x="1" y="2" width="1" height="1" fill="#333e97" /><rect x="1" y="3" width="1" height="1" fill="#343e97" /><rect x="1" y="4" width="1" height="1" fill="#353e97" /><rect x="1" y="5" width="1" height="1" fill="#373e97" /><rect x="1" y="6" width="1" height="1" fill="#383e97" /><rect x="1" y="7" width="1" height="1" fill="#393e97" /><rect x="1" y="8" width="1" height="1" fill="#3a3e97" /><rect x="1" y="9" width="1" height="1" fill="#3b3e97" /><rect x="2" y="0" width="1" height="1" fill="#7880bb" /><rect x="2" y="1" width="1" height="1" fill="#343e97" /><rect x="2" y="2" width="1" height="1" fill="#353e97" /><rect x="2" y="3" width="1" height="1" fill="#363e97" /><rect x="2" y="4" width="1" height="1" fill="#373e97" /><rect x="2" y="5" width="1" height="1" fill="#383e97" /><rect x="2" y="6" width="1" height="1" fill="#393e97" /><rect x="2" y="7" width="1" height="1" fill="#3a3e97" /><rect x="2" y="8" width="1" height="1" fill="#3c3e97" /><rect x="2" y="9" width="1" height="1" fill="#3d3e97" /><rect x="3" y="0" width="1" height="1" fill="#414a9e" /><rect x="3" y="1" width="1" height="1" fill="#353e97" /><rect x="3" y="2" width="1" height="1" fill="#363e97" /><rect x="3" y="3" width="1" height="1" fill="#373e97" /><rect x="3" y="4" width="1" height="1" fill="#3a3f96" /><rect x="3" y="5" width="1" height="1" fill="#3b3f96" /><rect x="3" y="6" width="1" height="1" fill="#3b3e97" /><rect x="3" y="7" width="1" height="1" fill="#3c3e97" /><rect x="3" y="8" width="1" height="1" fill="#3d3e97" /><rect x="3" y="9" width="1" height="1" fill="#3e3e97" /><rect x="4" y="0" width="1" height="1" fill="#363e97" /><rect x="4" y="1" width="1" height="1" fill="#373e97" /><rect x="4" y="2" width="1" height="1" fill="#383e97" /><rect x="4" y="3" width="1" height="1" fill="#84785e" /><rect x="4" y="4" width="1" height="1" fill="#f3ce09" /><rect x="4" y="5" width="1" height="1" fill="#f4ce08" /><rect x="4" y="6" width="1" height="1" fill="#9d8a4c" /><rect x="4" y="7" width="1" height="1" fill="#3e3e97" /><rect x="4" y="8" width="1" height="1" fill="#3f3e97" /><rect x="4" y="9" width="1" height="1" fill="#403d97" /><rect x="5" y="0" width="1" height="1" fill="#373e97" /><rect x="5" y="1" width="1" height="1" fill="#383e97" /><rect x="5" y="2" width="1" height="1" fill="#575680" /><rect x="5" y="3" width="1" height="1" fill="#f3ce09" /><rect x="5" y="4" width="1" height="1" fill="#7d7165" /><rect x="5" y="5" width="1" height="1" fill="#807363" /><rect x="5" y="6" width="1" height="1" fill="#f4ce09" /><rect x="5" y="7" width="1" height="1" fill="#847661" /><rect x="5" y="8" width="1" height="1" fill="#403d97" /><rect x="5" y="9" width="1" height="1" fill="#413d97" /><rect x="6" y="0" width="1" height="1" fill="#393e97" /><rect x="6" y="1" width="1" height="1" fill="#3a3e97" /><rect x="6" y="2" width="1" height="1" fill="#99874f" /><rect x="6" y="3" width="1" height="1" fill="#af983e" /><rect x="6" y="4" width="1" height="1" fill="#3d3e97" /><rect x="6" y="5" width="1" height="1" fill="#3e3e97" /><rect x="6" y="6" width="1" height="1" fill="#8d7b5a" /><rect x="6" y="7" width="1" height="1" fill="#eac611" /><rect x="6" y="8" width="1" height="1" fill="#494392" /><rect x="6" y="9" width="1" height="1" fill="#433d97" /><rect x="7" y="0" width="1" height="1" fill="#3a3e97" /><rect x="7" y="1" width="1" height="1" fill="#3c3e97" /><rect x="7" y="2" width="1" height="1" fill="#ac9541" /><rect x="7" y="3" width="1" height="1" fill="#9d894c" /><rect x="7" y="4" width="1" height="1" fill="#3f3e97" /><rect x="7" y="5" width="1" height="1" fill="#403d97" /><rect x="7" y="6" width="1" height="1" fill="#454094" /><rect x="7" y="7" width="1" height="1" fill="#e4c116" /><rect x="7" y="8" width="1" height="1" fill="#9d874f" /><rect x="7" y="9" width="1" height="1" fill="#453d97" /><rect x="8" y="0" width="1" height="1" fill="#3c3e97" /><rect x="8" y="1" width="1" height="1" fill="#3d3e97" /><rect x="8" y="2" width="1" height="1" fill="#a08c4b" /><rect x="8" y="3" width="1" height="1" fill="#baa036" /><rect x="8" y="4" width="1" height="1" fill="#413d97" /><rect x="8" y="5" width="1" height="1" fill="#423d97" /><rect x="8" y="6" width="1" height="1" fill="#433d97" /><rect x="8" y="7" width="1" height="1" fill="#7a6a6c" /><rect x="8" y="8" width="1" height="1" fill="#f9d205" /><rect x="8" y="9" width="1" height="1" fill="#998253" /><rect x="9" y="0" width="1" height="1" fill="#3e3e97" /><rect x="9" y="1" width="1" height="1" fill="#3f3e97" /><rect x="9" y="2" width="1" height="1" fill="#62597c" /><rect x="9" y="3" width="1" height="1" fill="#a38c49" /><rect x="9" y="4" width="1" height="1" fill="#433e96" /><rect x="9" y="5" width="1" height="1" fill="#433d97" /><rect x="9" y="6" width="1" height="1" fill="#443d97" /><rect x="9" y="7" width="1" height="1" fill="#463d97" /><rect x="9" y="8" width="1" height="1" fill="#8b765f" /><rect x="9" y="9" width="1" height="1" fill="#e5c215" /></g></svg>