<svg width="800" height="1000" xmlns="http://www.w3.org/2000/svg"><defs><linearGradient id="g" x1="0" x2="1" y1="0" y2="1"><stop offset="0%" stop-color="#2d3c96"/><stop offset="100%" stop-color="#d53392"/></linearGradient></defs><rect x="10" y="10" width="780" height="980" fill="url(#g)" rx="50" ry="50" stroke="gold" stroke-width="20"/><text x="400" y="920" width="780" text-anchor="middle" style="font:bold 200px 'Helvetica Neue';fill:gold">04103</text><g transform="translate(80 80) scale(64)"><rect x="0" y="0" width="1" height="1" fill="#4f3d97" /><rect x="0" y="1" width="1" height="1" fill="#4f3c96" /><rect x="0" y="2" width="1" height="1" fill="#503c96" /><rect x="0" y="3" width="1" height="1" fill="#523c96" /><rect x="0" y="4" width="1" height="1" fill="#533b96" /><rect x="0" y="5" width="1" height="1" fill="#8c6e65" /><rect x="0" y="6" width="1" height="1" fill="#e8c214" /><rect x="0" y="7" width="1" height="1" fill="#c9a530" /><rect x="0" y="8" width="1" height="1" fill="#f0c90e" /><rect x="0" y="9" width="1" height="1" fill="#61448e" /><rect x="1" y="0" width="1" height="1" fill="#503c96" /><rect x="1" y="1" width="1" height="1" fill="#513c96" /><rect x="1" y="2" width="1" height="1" fill="#523c96" /><rect x="1" y="3" width="1" height="1" fill="#533b96" /><rect x="1" y="4" width="1" height="1" fill="#543b96" /><rect x="1" y="5" width="1" height="1" fill="#c7a331" /><rect x="1" y="6" width="1" height="1" fill="#88686a" /><rect x="1" y="7" width="1" height="1" fill="#583b96" /><rect x="1" y="8" width="1" height="1" fill="#d2ad29" /><rect x="1" y="9" width="1" height="1" fill="#a27f55" /><rect x="2" y="0" width="1" height="1" fill="#513c96" /><rect x="2" y="1" width="1" height="1" fill="#523c96" /><rect x="2" y="2" width="1" height="1" fill="#543b96" /><rect x="2" y="3" width="1" height="1" fill="#553b96" /><rect x="2" y="4" width="1" height="1" fill="#563b96" /><rect x="2" y="5" width="1" height="1" fill="#d0ab2a" /><rect x="2" y="6" width="1" height="1" fill="#86666d" /><rect x="2" y="7" width="1" height="1" fill="#593b96" /><rect x="2" y="8" width="1" height="1" fill="#8a686a" /><rect x="2" y="9" width="1" height="1" fill="#edc510" /><rect x="3" y="0" width="1" height="1" fill="#533b96" /><rect x="3" y="1" width="1" height="1" fill="#543b96" /><rect x="3" y="2" width="1" height="1" fill="#553b96" /><rect x="3" y="3" width="1" height="1" fill="#563b96" /><rect x="3" y="4" width="1" height="1" fill="#573b96" /><rect x="3" y="5" width="1" height="1" fill="#a07e56" /><rect x="3" y="6" width="1" height="1" fill="#9f7b58" /><rect x="3" y="7" width="1" height="1" fill="#5b3b96" /><rect x="3" y="8" width="1" height="1" fill="#5c3b96" /><rect x="3" y="9" width="1" height="1" fill="#c49f37" /><rect x="4" y="0" width="1" height="1" fill="#553b96" /><rect x="4" y="1" width="1" height="1" fill="#563b96" /><rect x="4" y="2" width="1" height="1" fill="#573b96" /><rect x="4" y="3" width="1" height="1" fill="#583b96" /><rect x="4" y="4" width="1" height="1" fill="#593b96" /><rect x="4" y="5" width="1" height="1" fill="#5a3b96" /><rect x="4" y="6" width="1" height="1" fill="#5b3b96" /><rect x="4" y="7" width="1" height="1" fill="#5c3b96" /><rect x="4" y="8" width="1" height="1" fill="#5e3b96" /><rect x="4" y="9" width="1" height="1" fill="#5f3b96" /><rect x="5" y="0" width="1" height="1" fill="#563b96" /><rect x="5" y="1" width="1" height="1" fill="#573b96" /><rect x="5" y="2" width="1" height="1" fill="#583b96" /><rect x="5" y="3" width="1" height="1" fill="#5a3b96" /><rect x="5" y="4" width="1" height="1" fill="#5b3b96" /><rect x="5" y="5" width="1" height="1" fill="#5c3b96" /><rect x="5" y="6" width="1" height="1" fill="#603e93" /><rect x="5" y="7" width="1" height="1" fill="#99745f" /><rect x="5" y="8" width="1" height="1" fill="#b99342" /><rect x="5" y="9" width="1" height="1" fill="#be973d" /><rect x="6" y="0" width="1" height="1" fill="#583b96" /><rect x="6" y="1" width="1" height="1" fill="#593b96" /><rect x="6" y="2" width="1" height="1" fill="#5a3b96" /><rect x="6" y="3" width="1" height="1" fill="#5b3b96" /><rect x="6" y="4" width="1" height="1" fill="#5c3b96" /><rect x="6" y="5" width="1" height="1" fill="#65438e" /><rect x="6" y="6" width="1" height="1" fill="#e2ba1c" /><rect x="6" y="7" width="1" height="1" fill="#e5bd18" /><rect x="6" y="8" width="1" height="1" fill="#bd973e" /><rect x="6" y="9" width="1" height="1" fill="#bb9340" /><rect x="7" y="0" width="1" height="1" fill="#593b96" /><rect x="7" y="1" width="1" height="1" fill="#5a3b96" /><rect x="7" y="2" width="1" height="1" fill="#5c3b96" /><rect x="7" y="3" width="1" height="1" fill="#5d3b96" /><rect x="7" y="4" width="1" height="1" fill="#5e3b96" /><rect x="7" y="5" width="1" height="1" fill="#b18b49" /><rect x="7" y="6" width="1" height="1" fill="#c9a233" /><rect x="7" y="7" width="1" height="1" fill="#623d94" /><rect x="7" y="8" width="1" height="1" fill="#623b95" /><rect x="7" y="9" width="1" height="1" fill="#643b95" /><rect x="8" y="0" width="1" height="1" fill="#5b3b96" /><rect x="8" y="1" width="1" height="1" fill="#5c3b96" /><rect x="8" y="2" width="1" height="1" fill="#5d3b96" /><rect x="8" y="3" width="1" height="1" fill="#5e3b96" /><rect x="8" y="4" width="1" height="1" fill="#5f3b96" /><rect x="8" y="5" width="1" height="1" fill="#d1aa2c" /><rect x="8" y="6" width="1" height="1" fill="#8b636e" /><rect x="8" y="7" width="1" height="1" fill="#633b95" /><rect x="8" y="8" width="1" height="1" fill="#643b95" /><rect x="8" y="9" width="1" height="1" fill="#653b95" /><rect x="9" y="0" width="1" height="1" fill="#5c3b96" /><rect x="9" y="1" width="1" height="1" fill="#5e3b96" /><rect x="9" y="2" width="1" height="1" fill="#5f3b96" /><rect x="9" y="3" width="1" height="1" fill="#603b96" /><rect x="9" y="4" width="1" height="1" fill="#613b95" /><rect x="9" y="5" width="1" height="1" fill="#bf973d" /><rect x="9" y="6" width="1" height="1" fill="#a17959" /><rect x="9" y="7" width="1" height="1" fill="#643b95" /><rect x="9" y="8" width="1" height="1" fill="#663b95" /><rect x="9" y="9" width="1" height="1" fill="#673a95" /></g></svg>