<svg width="800" height="1000" xmlns="http://www.w3.org/2000/svg"><defs><linearGradient id="g" x1="0" x2="1" y1="0" y2="1"><stop offset="0%" stop-color="#2d3c96"/><stop offset="100%" stop-color="#d53392"/></linearGradient></defs><rect x="10" y="10" width="780" height="980" fill="url(#g)" rx="50" ry="50" stroke="gold" stroke-width="20"/><text x="400" y="920" width="780" text-anchor="middle" style="font:bold 200px 'Helvetica Neue';fill:gold">04104</text><g transform="translate(80 80) scale(64)"><rect x="0" y="0" width="1" height="1" fill="#5d3995" /><rect x="0" y="1" width="1" height="1" fill="#5e3995" /><rect x="0" y="2" width="1" height="1" fill="#5f3995" /><rect x="0" y="3" width="1" height="1" fill="#613994" /><rect x="0" y="4" width="1" height="1" fill="#623994" /><rect x="0" y="5" width="1" height="1" fill="#a17759" /><rect x="0" y="6" width="1" height="1" fill="#e8bf16" /><rect x="0" y="7" width="1" height="1" fill="#e8bf16" /><rect x="0" y="8" width="1" height="1" fill="#e8bf16" /><rect x="0" y="9" width="1" height="1" fill="#e8bf16" /><rect x="1" y="0" width="1" height="1" fill="#5f3995" /><rect x="1" y="1" width="1" height="1" fill="#603995" /><rect x="1" y="2" width="1" height="1" fill="#613994" /><rect x="1" y="3" width="1" height="1" fill="#623994" /><rect x="1" y="4" width="1" height="1" fill="#633994" /><rect x="1" y="5" width="1" height="1" fill="#ad834e" /><rect x="1" y="6" width="1" height="1" fill="#ae844e" /><rect x="1" y="7" width="1" height="1" fill="#794b83" /><rect x="1" y="8" width="1" height="1" fill="#7a4b83" /><rect x="1" y="9" width="1" height="1" fill="#cba034" /><rect x="2" y="0" width="1" height="1" fill="#603994" /><rect x="2" y="1" width="1" height="1" fill="#613994" /><rect x="2" y="2" width="1" height="1" fill="#633994" /><rect x="2" y="3" width="1" height="1" fill="#643994" /><rect x="2" y="4" width="1" height="1" fill="#653994" /><rect x="2" y="5" width="1" height="1" fill="#ae834e" /><rect x="2" y="6" width="1" height="1" fill="#a67a56" /><rect x="2" y="7" width="1" height="1" fill="#683894" /><rect x="2" y="8" width="1" height="1" fill="#693894" /><rect x="2" y="9" width="1" height="1" fill="#c99e36" /><rect x="3" y="0" width="1" height="1" fill="#623994" /><rect x="3" y="1" width="1" height="1" fill="#633994" /><rect x="3" y="2" width="1" height="1" fill="#643994" /><rect x="3" y="3" width="1" height="1" fill="#653994" /><rect x="3" y="4" width="1" height="1" fill="#663894" /><rect x="3" y="5" width="1" height="1" fill="#9e705f" /><rect x="3" y="6" width="1" height="1" fill="#d1a62e" /><rect x="3" y="7" width="1" height="1" fill="#6c3a92" /><rect x="3" y="8" width="1" height="1" fill="#7a4985" /><rect x="3" y="9" width="1" height="1" fill="#ddb222" /><rect x="4" y="0" width="1" height="1" fill="#633994" /><rect x="4" y="1" width="1" height="1" fill="#653994" /><rect x="4" y="2" width="1" height="1" fill="#663894" /><rect x="4" y="3" width="1" height="1" fill="#673894" /><rect x="4" y="4" width="1" height="1" fill="#683894" /><rect x="4" y="5" width="1" height="1" fill="#6d3c90" /><rect x="4" y="6" width="1" height="1" fill="#daaf25" /><rect x="4" y="7" width="1" height="1" fill="#f6ce09" /><rect x="4" y="8" width="1" height="1" fill="#f2c90d" /><rect x="4" y="9" width="1" height="1" fill="#96646b" /><rect x="5" y="0" width="1" height="1" fill="#653994" /><rect x="5" y="1" width="1" height="1" fill="#663894" /><rect x="5" y="2" width="1" height="1" fill="#673894" /><rect x="5" y="3" width="1" height="1" fill="#693894" /><rect x="5" y="4" width="1" height="1" fill="#6a3894" /><rect x="5" y="5" width="1" height="1" fill="#6b3894" /><rect x="5" y="6" width="1" height="1" fill="#6c3894" /><rect x="5" y="7" width="1" height="1" fill="#7a4787" /><rect x="5" y="8" width="1" height="1" fill="#723c90" /><rect x="5" y="9" width="1" height="1" fill="#6f3894" /><rect x="6" y="0" width="1" height="1" fill="#673894" /><rect x="6" y="1" width="1" height="1" fill="#683894" /><rect x="6" y="2" width="1" height="1" fill="#693894" /><rect x="6" y="3" width="1" height="1" fill="#6a3894" /><rect x="6" y="4" width="1" height="1" fill="#6b3894" /><rect x="6" y="5" width="1" height="1" fill="#6c3894" /><rect x="6" y="6" width="1" height="1" fill="#6e3894" /><rect x="6" y="7" width="1" height="1" fill="#6f3894" /><rect x="6" y="8" width="1" height="1" fill="#85507f" /><rect x="6" y="9" width="1" height="1" fill="#9a6669" /><rect x="7" y="0" width="1" height="1" fill="#683894" /><rect x="7" y="1" width="1" height="1" fill="#693894" /><rect x="7" y="2" width="1" height="1" fill="#6b3894" /><rect x="7" y="3" width="1" height="1" fill="#6c3894" /><rect x="7" y="4" width="1" height="1" fill="#6d3894" /><rect x="7" y="5" width="1" height="1" fill="#6e3894" /><rect x="7" y="6" width="1" height="1" fill="#804b83" /><rect x="7" y="7" width="1" height="1" fill="#dcb124" /><rect x="7" y="8" width="1" height="1" fill="#f2c80e" /><rect x="7" y="9" width="1" height="1" fill="#dcb024" /><rect x="8" y="0" width="1" height="1" fill="#6a3894" /><rect x="8" y="1" width="1" height="1" fill="#6b3894" /><rect x="8" y="2" width="1" height="1" fill="#6c3894" /><rect x="8" y="3" width="1" height="1" fill="#6d3894" /><rect x="8" y="4" width="1" height="1" fill="#6e3894" /><rect x="8" y="5" width="1" height="1" fill="#763e8e" /><rect x="8" y="6" width="1" height="1" fill="#eabf16" /><rect x="8" y="7" width="1" height="1" fill="#af7c54" /><rect x="8" y="8" width="1" height="1" fill="#753a92" /><rect x="8" y="9" width="1" height="1" fill="#743894" /><rect x="9" y="0" width="1" height="1" fill="#6b3894" /><rect x="9" y="1" width="1" height="1" fill="#6d3894" /><rect x="9" y="2" width="1" height="1" fill="#6e3894" /><rect x="9" y="3" width="1" height="1" fill="#6f3894" /><rect x="9" y="4" width="1" height="1" fill="#703894" /><rect x="9" y="5" width="1" height="1" fill="#aa7858" /><rect x="9" y="6" width="1" height="1" fill="#c7983b" /><rect x="9" y="7" width="1" height="1" fill="#743894" /><rect x="9" y="8" width="1" height="1" fill="#753894" /><rect x="9" y="9" width="1" height="1" fill="#763894" /></g></svg>