<svg width="800" height="1000" xmlns="http://www.w3.org/2000/svg"><defs><linearGradient id="g" x1="0" x2="1" y1="0" y2="1"><stop offset="0%" stop-color="#2d3c96"/><stop offset="100%" stop-color="#d53392"/></linearGradient></defs><rect x="10" y="10" width="780" height="980" fill="url(#g)" rx="50" ry="50" stroke="gold" stroke-width="20"/><text x="400" y="920" width="780" text-anchor="middle" style="font:bold 200px 'Helvetica Neue';fill:gold">04107</text><g transform="translate(80 80) scale(64)"><rect x="0" y="0" width="1" height="1" fill="#8e3995" /><rect x="0" y="1" width="1" height="1" fill="#8e3794" /><rect x="0" y="2" width="1" height="1" fill="#903794" /><rect x="0" y="3" width="1" height="1" fill="#913794" /><rect x="0" y="4" width="1" height="1" fill="#923794" /><rect x="0" y="5" width="1" height="1" fill="#933794" /><rect x="0" y="6" width="1" height="1" fill="#943794" /><rect x="0" y="7" width="1" height="1" fill="#953794" /><rect x="0" y="8" width="1" height="1" fill="#9a3d8f" /><rect x="0" y="9" width="1" height="1" fill="#9a3992" /><rect x="1" y="0" width="1" height="1" fill="#8f3794" /><rect x="1" y="1" width="1" height="1" fill="#903794" /><rect x="1" y="2" width="1" height="1" fill="#913794" /><rect x="1" y="3" width="1" height="1" fill="#923794" /><rect x="1" y="4" width="1" height="1" fill="#933794" /><rect x="1" y="5" width="1" height="1" fill="#953794" /><rect x="1" y="6" width="1" height="1" fill="#bd735d" /><rect x="1" y="7" width="1" height="1" fill="#d4953e" /><rect x="1" y="8" width="1" height="1" fill="#ad5776" /><rect x="1" y="9" width="1" height="1" fill="#993794" /><rect x="2" y="0" width="1" height="1" fill="#903794" /><rect x="2" y="1" width="1" height="1" fill="#923794" /><rect x="2" y="2" width="1" height="1" fill="#933794" /><rect x="2" y="3" width="1" height="1" fill="#943794" /><rect x="2" y="4" width="1" height="1" fill="#953794" /><rect x="2" y="5" width="1" height="1" fill="#bb7060" /><rect x="2" y="6" width="1" height="1" fill="#efbe17" /><rect x="2" y="7" width="1" height="1" fill="#da9d35" /><rect x="2" y="8" width="1" height="1" fill="#f7cb0b" /><rect x="2" y="9" width="1" height="1" fill="#a1418b" /><rect x="3" y="0" width="1" height="1" fill="#923794" /><rect x="3" y="1" width="1" height="1" fill="#933794" /><rect x="3" y="2" width="1" height="1" fill="#943794" /><rect x="3" y="3" width="1" height="1" fill="#953794" /><rect x="3" y="4" width="1" height="1" fill="#973794" /><rect x="3" y="5" width="1" height="1" fill="#dea430" /><rect x="3" y="6" width="1" height="1" fill="#b5646b" /><rect x="3" y="7" width="1" height="1" fill="#9a3794" /><rect x="3" y="8" width="1" height="1" fill="#e2a92b" /><rect x="3" y="9" width="1" height="1" fill="#c98051" /><rect x="4" y="0" width="1" height="1" fill="#943794" /><rect x="4" y="1" width="1" height="1" fill="#953794" /><rect x="4" y="2" width="1" height="1" fill="#963794" /><rect x="4" y="3" width="1" height="1" fill="#973794" /><rect x="4" y="4" width="1" height="1" fill="#983794" /><rect x="4" y="5" width="1" height="1" fill="#e2a92a" /><rect x="4" y="6" width="1" height="1" fill="#b7646a" /><rect x="4" y="7" width="1" height="1" fill="#9c3794" /><rect x="4" y="8" width="1" height="1" fill="#b8626c" /><rect x="4" y="9" width="1" height="1" fill="#f5c70f" /><rect x="5" y="0" width="1" height="1" fill="#953794" /><rect x="5" y="1" width="1" height="1" fill="#963794" /><rect x="5" y="2" width="1" height="1" fill="#983794" /><rect x="5" y="3" width="1" height="1" fill="#993794" /><rect x="5" y="4" width="1" height="1" fill="#9a3794" /><rect x="5" y="5" width="1" height="1" fill="#c37759" /><rect x="5" y="6" width="1" height="1" fill="#c47759" /><rect x="5" y="7" width="1" height="1" fill="#9d3794" /><rect x="5" y="8" width="1" height="1" fill="#9e3794" /><rect x="5" y="9" width="1" height="1" fill="#d8953c" /><rect x="6" y="0" width="1" height="1" fill="#9e449b" /><rect x="6" y="1" width="1" height="1" fill="#983794" /><rect x="6" y="2" width="1" height="1" fill="#993794" /><rect x="6" y="3" width="1" height="1" fill="#9a3794" /><rect x="6" y="4" width="1" height="1" fill="#9b3794" /><rect x="6" y="5" width="1" height="1" fill="#9d3794" /><rect x="6" y="6" width="1" height="1" fill="#9e3794" /><rect x="6" y="7" width="1" height="1" fill="#9f3794" /><rect x="6" y="8" width="1" height="1" fill="#a03794" /><rect x="6" y="9" width="1" height="1" fill="#a13794" /><rect x="7" y="0" width="1" height="1" fill="#bc7cb9" /><rect x="7" y="1" width="1" height="1" fill="#9a3794" /><rect x="7" y="2" width="1" height="1" fill="#9b3794" /><rect x="7" y="3" width="1" height="1" fill="#9c3794" /><rect x="7" y="4" width="1" height="1" fill="#9d3794" /><rect x="7" y="5" width="1" height="1" fill="#9e3794" /><rect x="7" y="6" width="1" height="1" fill="#9f3794" /><rect x="7" y="7" width="1" height="1" fill="#a13794" /><rect x="7" y="8" width="1" height="1" fill="#a23794" /><rect x="7" y="9" width="1" height="1" fill="#a33694" /><rect x="8" y="0" width="1" height="1" fill="#f2e5f1" /><rect x="8" y="1" width="1" height="1" fill="#a3489d" /><rect x="8" y="2" width="1" height="1" fill="#9c3794" /><rect x="8" y="3" width="1" height="1" fill="#9e3794" /><rect x="8" y="4" width="1" height="1" fill="#9f3794" /><rect x="8" y="5" width="1" height="1" fill="#a03794" /><rect x="8" y="6" width="1" height="1" fill="#a13794" /><rect x="8" y="7" width="1" height="1" fill="#a23694" /><rect x="8" y="8" width="1" height="1" fill="#a33694" /><rect x="8" y="9" width="1" height="1" fill="#a43693" /><rect x="9" y="0" width="1" height="1" fill="#ffffff" /><rect x="9" y="1" width="1" height="1" fill="#f3e6f1" /><rect x="9" y="2" width="1" height="1" fill="#c07dba" /><rect x="9" y="3" width="1" height="1" fill="#a5449b" /><rect x="9" y="4" width="1" height="1" fill="#a03794" /><rect x="9" y="5" width="1" height="1" fill="#a13794" /><rect x="9" y="6" width="1" height="1" fill="#a33694" /><rect x="9" y="7" width="1" height="1" fill="#a43694" /><rect x="9" y="8" width="1" height="1" fill="#a53693" /><rect x="9" y="9" width="1" height="1" fill="#a63693" /></g></svg>