<svg width="800" height="1000" xmlns="http://www.w3.org/2000/svg"><defs><linearGradient id="g" x1="0" x2="1" y1="0" y2="1"><stop offset="0%" stop-color="#2d3c96"/><stop offset="100%" stop-color="#d53392"/></linearGradient></defs><rect x="10" y="10" width="780" height="980" fill="url(#g)" rx="50" ry="50" stroke="gold" stroke-width="20"/><text x="400" y="920" width="780" text-anchor="middle" style="font:bold 200px 'Helvetica Neue';fill:gold">04102</text><g transform="translate(80 80) scale(64)"><rect x="0" y="0" width="1" height="1" fill="#3f3e97" /><rect x="0" y="1" width="1" height="1" fill="#403d97" /><rect x="0" y="2" width="1" height="1" fill="#413d97" /><rect x="0" y="3" width="1" height="1" fill="#433d97" /><rect x="0" y="4" width="1" height="1" fill="#443d97" /><rect x="0" y="5" width="1" height="1" fill="#453d97" /><rect x="0" y="6" width="1" height="1" fill="#463d97" /><rect x="0" y="7" width="1" height="1" fill="#473d97" /><rect x="0" y="8" width="1" height="1" fill="#483d97" /><rect x="0" y="9" width="1" height="1" fill="#493d97" /><rect x="1" y="0" width="1" height="1" fill="#413d97" /><rect x="1" y="1" width="1" height="1" fill="#423d97" /><rect x="1" y="2" width="1" height="1" fill="#433d97" /><rect x="1" y="3" width="1" height="1" fill="#443d97" /><rect x="1" y="4" width="1" height="1" fill="#453d97" /><rect x="1" y="5" width="1" height="1" fill="#6e5e76" /><rect x="1" y="6" width="1" height="1" fill="#8a7561" /><rect x="1" y="7" width="1" height="1" fill="#8b7561" /><rect x="1" y="8" width="1" height="1" fill="#8b7561" /><rect x="1" y="9" width="1" height="1" fill="#8b7362" /><rect x="2" y="0" width="1" height="1" fill="#423d97" /><rect x="2" y="1" width="1" height="1" fill="#443d97" /><rect x="2" y="2" width="1" height="1" fill="#453d97" /><rect x="2" y="3" width="1" height="1" fill="#463d97" /><rect x="2" y="4" width="1" height="1" fill="#473d97" /><rect x="2" y="5" width="1" height="1" fill="#9d8451" /><rect x="2" y="6" width="1" height="1" fill="#d5b323" /><rect x="2" y="7" width="1" height="1" fill="#d5b323" /><rect x="2" y="8" width="1" height="1" fill="#d5b323" /><rect x="2" y="9" width="1" height="1" fill="#d9b621" /><rect x="3" y="0" width="1" height="1" fill="#443d97" /><rect x="3" y="1" width="1" height="1" fill="#453d97" /><rect x="3" y="2" width="1" height="1" fill="#463d97" /><rect x="3" y="3" width="1" height="1" fill="#473d97" /><rect x="3" y="4" width="1" height="1" fill="#493d97" /><rect x="3" y="5" width="1" height="1" fill="#4a3d97" /><rect x="3" y="6" width="1" height="1" fill="#4b3d97" /><rect x="3" y="7" width="1" height="1" fill="#4c3d97" /><rect x="3" y="8" width="1" height="1" fill="#4d3d97" /><rect x="3" y="9" width="1" height="1" fill="#4e3d97" /><rect x="4" y="0" width="1" height="1" fill="#463d97" /><rect x="4" y="1" width="1" height="1" fill="#473d97" /><rect x="4" y="2" width="1" height="1" fill="#483d97" /><rect x="4" y="3" width="1" height="1" fill="#493d97" /><rect x="4" y="4" width="1" height="1" fill="#4a3d97" /><rect x="4" y="5" width="1" height="1" fill="#4b3d97" /><rect x="4" y="6" width="1" height="1" fill="#4c3d97" /><rect x="4" y="7" width="1" height="1" fill="#4e3d97" /><rect x="4" y="8" width="1" height="1" fill="#4f3d97" /><rect x="4" y="9" width="1" height="1" fill="#4f3c96" /><rect x="5" y="0" width="1" height="1" fill="#473d97" /><rect x="5" y="1" width="1" height="1" fill="#483d97" /><rect x="5" y="2" width="1" height="1" fill="#493d97" /><rect x="5" y="3" width="1" height="1" fill="#4b3d97" /><rect x="5" y="4" width="1" height="1" fill="#4c3d97" /><rect x="5" y="5" width="1" height="1" fill="#4d3d97" /><rect x="5" y="6" width="1" height="1" fill="#4e3d97" /><rect x="5" y="7" width="1" height="1" fill="#4f3d97" /><rect x="5" y="8" width="1" height="1" fill="#4f3c96" /><rect x="5" y="9" width="1" height="1" fill="#503c96" /><rect x="6" y="0" width="1" height="1" fill="#493d97" /><rect x="6" y="1" width="1" height="1" fill="#4a3d97" /><rect x="6" y="2" width="1" height="1" fill="#4b3d97" /><rect x="6" y="3" width="1" height="1" fill="#4c3d97" /><rect x="6" y="4" width="1" height="1" fill="#4d3d97" /><rect x="6" y="5" width="1" height="1" fill="#8f7560" /><rect x="6" y="6" width="1" height="1" fill="#b99a3b" /><rect x="6" y="7" width="1" height="1" fill="#ba9a3b" /><rect x="6" y="8" width="1" height="1" fill="#ba9a3b" /><rect x="6" y="9" width="1" height="1" fill="#be9d38" /><rect x="7" y="0" width="1" height="1" fill="#4a3d97" /><rect x="7" y="1" width="1" height="1" fill="#4b3d97" /><rect x="7" y="2" width="1" height="1" fill="#4d3d97" /><rect x="7" y="3" width="1" height="1" fill="#4e3d97" /><rect x="7" y="4" width="1" height="1" fill="#4f3d97" /><rect x="7" y="5" width="1" height="1" fill="#876d66" /><rect x="7" y="6" width="1" height="1" fill="#ac8d47" /><rect x="7" y="7" width="1" height="1" fill="#ac8d47" /><rect x="7" y="8" width="1" height="1" fill="#ad8d47" /><rect x="7" y="9" width="1" height="1" fill="#ae8d47" /><rect x="8" y="0" width="1" height="1" fill="#4c3d97" /><rect x="8" y="1" width="1" height="1" fill="#4d3d97" /><rect x="8" y="2" width="1" height="1" fill="#4e3d97" /><rect x="8" y="3" width="1" height="1" fill="#4f3d97" /><rect x="8" y="4" width="1" height="1" fill="#4f3c96" /><rect x="8" y="5" width="1" height="1" fill="#513c96" /><rect x="8" y="6" width="1" height="1" fill="#523c96" /><rect x="8" y="7" width="1" height="1" fill="#533b96" /><rect x="8" y="8" width="1" height="1" fill="#543b96" /><rect x="8" y="9" width="1" height="1" fill="#553b96" /><rect x="9" y="0" width="1" height="1" fill="#4e3d97" /><rect x="9" y="1" width="1" height="1" fill="#4f3d97" /><rect x="9" y="2" width="1" height="1" fill="#4f3c96" /><rect x="9" y="3" width="1" height="1" fill="#503c96" /><rect x="9" y="4" width="1" height="1" fill="#513c96" /><rect x="9" y="5" width="1" height="1" fill="#523c96" /><rect x="9" y="6" width="1" height="1" fill="#8c6f65" /><rect x="9" y="7" width="1" height="1" fill="#b18f45" /><rect x="9" y="8" width="1" height="1" fill="#73567c" /><rect x="9" y="9" width="1" height="1" fill="#573b96" /></g></svg>