<svg width="800" height="1000" xmlns="http://www.w3.org/2000/svg"><defs><linearGradient id="g" x1="0" x2="1" y1="0" y2="1"><stop offset="0%" stop-color="#2d3c96"/><stop offset="100%" stop-color="#d53392"/></linearGradient></defs><rect x="10" y="10" width="780" height="980" fill="url(#g)" rx="50" ry="50" stroke="gold" stroke-width="20"/><text x="400" y="920" width="780" text-anchor="middle" style="font:bold 200px 'Helvetica Neue';fill:gold">04105</text><g transform="translate(80 80) scale(64)"><rect x="0" y="0" width="1" height="1" fill="#6e3a95" /><rect x="0" y="1" width="1" height="1" fill="#6f3a95" /><rect x="0" y="2" width="1" height="1" fill="#703a95" /><rect x="0" y="3" width="1" height="1" fill="#723a95" /><rect x="0" y="4" width="1" height="1" fill="#733a95" /><rect x="0" y="5" width="1" height="1" fill="#743a95" /><rect x="0" y="6" width="1" height="1" fill="#753a95" /><rect x="0" y="7" width="1" height="1" fill="#763a95" /><rect x="0" y="8" width="1" height="1" fill="#773a95" /><rect x="0" y="9" width="1" height="1" fill="#783a95" /><rect x="1" y="0" width="1" height="1" fill="#703a95" /><rect x="1" y="1" width="1" height="1" fill="#713a95" /><rect x="1" y="2" width="1" height="1" fill="#723a95" /><rect x="1" y="3" width="1" height="1" fill="#733a95" /><rect x="1" y="4" width="1" height="1" fill="#743a95" /><rect x="1" y="5" width="1" height="1" fill="#753a95" /><rect x="1" y="6" width="1" height="1" fill="#773a95" /><rect x="1" y="7" width="1" height="1" fill="#783a95" /><rect x="1" y="8" width="1" height="1" fill="#793a95" /><rect x="1" y="9" width="1" height="1" fill="#84468a" /><rect x="2" y="0" width="1" height="1" fill="#713a95" /><rect x="2" y="1" width="1" height="1" fill="#723a95" /><rect x="2" y="2" width="1" height="1" fill="#743a95" /><rect x="2" y="3" width="1" height="1" fill="#753a95" /><rect x="2" y="4" width="1" height="1" fill="#763a95" /><rect x="2" y="5" width="1" height="1" fill="#8a5080" /><rect x="2" y="6" width="1" height="1" fill="#c28f44" /><rect x="2" y="7" width="1" height="1" fill="#7a3b94" /><rect x="2" y="8" width="1" height="1" fill="#8d5080" /><rect x="2" y="9" width="1" height="1" fill="#f5ca0c" /><rect x="3" y="0" width="1" height="1" fill="#733a95" /><rect x="3" y="1" width="1" height="1" fill="#743a95" /><rect x="3" y="2" width="1" height="1" fill="#753a95" /><rect x="3" y="3" width="1" height="1" fill="#763a95" /><rect x="3" y="4" width="1" height="1" fill="#773a95" /><rect x="3" y="5" width="1" height="1" fill="#c39043" /><rect x="3" y="6" width="1" height="1" fill="#b78251" /><rect x="3" y="7" width="1" height="1" fill="#7b3995" /><rect x="3" y="8" width="1" height="1" fill="#c59241" /><rect x="3" y="9" width="1" height="1" fill="#be884b" /><rect x="4" y="0" width="1" height="1" fill="#753a95" /><rect x="4" y="1" width="1" height="1" fill="#763a95" /><rect x="4" y="2" width="1" height="1" fill="#773a95" /><rect x="4" y="3" width="1" height="1" fill="#783a95" /><rect x="4" y="4" width="1" height="1" fill="#793a95" /><rect x="4" y="5" width="1" height="1" fill="#d8aa2b" /><rect x="4" y="6" width="1" height="1" fill="#9d616f" /><rect x="4" y="7" width="1" height="1" fill="#7d3995" /><rect x="4" y="8" width="1" height="1" fill="#e0b124" /><rect x="4" y="9" width="1" height="1" fill="#94537d" /><rect x="5" y="0" width="1" height="1" fill="#763a95" /><rect x="5" y="1" width="1" height="1" fill="#773a95" /><rect x="5" y="2" width="1" height="1" fill="#783a95" /><rect x="5" y="3" width="1" height="1" fill="#7a3a95" /><rect x="5" y="4" width="1" height="1" fill="#7b3a95" /><rect x="5" y="5" width="1" height="1" fill="#d09e35" /><rect x="5" y="6" width="1" height="1" fill="#be884b" /><rect x="5" y="7" width="1" height="1" fill="#7e3995" /><rect x="5" y="8" width="1" height="1" fill="#f0c512" /><rect x="5" y="9" width="1" height="1" fill="#823c92" /><rect x="6" y="0" width="1" height="1" fill="#783a95" /><rect x="6" y="1" width="1" height="1" fill="#793a95" /><rect x="6" y="2" width="1" height="1" fill="#7a3a95" /><rect x="6" y="3" width="1" height="1" fill="#7b3995" /><rect x="6" y="4" width="1" height="1" fill="#7c3995" /><rect x="6" y="5" width="1" height="1" fill="#985977" /><rect x="6" y="6" width="1" height="1" fill="#f6cc0b" /><rect x="6" y="7" width="1" height="1" fill="#f4c90d" /><rect x="6" y="8" width="1" height="1" fill="#fed502" /><rect x="6" y="9" width="1" height="1" fill="#edc016" /><rect x="7" y="0" width="1" height="1" fill="#793a95" /><rect x="7" y="1" width="1" height="1" fill="#7a3a95" /><rect x="7" y="2" width="1" height="1" fill="#7c3995" /><rect x="7" y="3" width="1" height="1" fill="#7d3995" /><rect x="7" y="4" width="1" height="1" fill="#7e3995" /><rect x="7" y="5" width="1" height="1" fill="#7f3995" /><rect x="7" y="6" width="1" height="1" fill="#87428d" /><rect x="7" y="7" width="1" height="1" fill="#9f5e71" /><rect x="7" y="8" width="1" height="1" fill="#a76769" /><rect x="7" y="9" width="1" height="1" fill="#a86769" /><rect x="8" y="0" width="1" height="1" fill="#7b3995" /><rect x="8" y="1" width="1" height="1" fill="#7c3995" /><rect x="8" y="2" width="1" height="1" fill="#7d3995" /><rect x="8" y="3" width="1" height="1" fill="#7e3995" /><rect x="8" y="4" width="1" height="1" fill="#803995" /><rect x="8" y="5" width="1" height="1" fill="#813995" /><rect x="8" y="6" width="1" height="1" fill="#823995" /><rect x="8" y="7" width="1" height="1" fill="#833995" /><rect x="8" y="8" width="1" height="1" fill="#843995" /><rect x="8" y="9" width="1" height="1" fill="#853995" /><rect x="9" y="0" width="1" height="1" fill="#7d3995" /><rect x="9" y="1" width="1" height="1" fill="#7e3995" /><rect x="9" y="2" width="1" height="1" fill="#7f3995" /><rect x="9" y="3" width="1" height="1" fill="#803995" /><rect x="9" y="4" width="1" height="1" fill="#813995" /><rect x="9" y="5" width="1" height="1" fill="#ad6f62" /><rect x="9" y="6" width="1" height="1" fill="#ca9340" /><rect x="9" y="7" width="1" height="1" fill="#ca9340" /><rect x="9" y="8" width="1" height="1" fill="#cb9340" /><rect x="9" y="9" width="1" height="1" fill="#cb9340" /></g></svg>