<svg width="800" height="1000" xmlns="http://www.w3.org/2000/svg"><defs><linearGradient id="g" x1="0" x2="1" y1="0" y2="1"><stop offset="0%" stop-color="#2d3c96"/><stop offset="100%" stop-color="#d53392"/></linearGradient></defs><rect x="10" y="10" width="780" height="980" fill="url(#g)" rx="50" ry="50" stroke="gold" stroke-width="20"/><text x="400" y="920" width="780" text-anchor="middle" style="font:bold 200px 'Helvetica Neue';fill:gold">04132</text><g transform="translate(80 80) scale(64)"><rect x="0" y="0" width="1" height="1" fill="#e8bb88" /><rect x="0" y="1" width="1" height="1" fill="#ffd399" /><rect x="0" y="2" width="1" height="1" fill="#f7c790" /><rect x="0" y="3" width="1" height="1" fill="#f4c58f" /><rect x="0" y="4" width="1" height="1" fill="#cda678" /><rect x="0" y="5" width="1" height="1" fill="#000000" /><rect x="0" y="6" width="1" height="1" fill="#342a1f" /><rect x="0" y="7" width="1" height="1" fill="#face9a" /><rect x="0" y="8" width="1" height="1" fill="#ca9350" /><rect x="0" y="9" width="1" height="1" fill="#955d1c" /><rect x="1" y="0" width="1" height="1" fill="#a98761" /><rect x="1" y="1" width="1" height="1" fill="#be996e" /><rect x="1" y="2" width="1" height="1" fill="#ad8b65" /><rect x="1" y="3" width="1" height="1" fill="#ddb281" /><rect x="1" y="4" width="1" height="1" fill="#d7ae7e" /><rect x="1" y="5" width="1" height="1" fill="#000000" /><rect x="1" y="6" width="1" height="1" fill="#2a2219" /><rect x="1" y="7" width="1" height="1" fill="#fbcf9a" /><rect x="1" y="8" width="1" height="1" fill="#cb9350" /><rect x="1" y="9" width="1" height="1" fill="#955d1c" /><rect x="2" y="0" width="1" height="1" fill="#000000" /><rect x="2" y="1" width="1" height="1" fill="#000000" /><rect x="2" y="2" width="1" height="1" fill="#000000" /><rect x="2" y="3" width="1" height="1" fill="#997c59" /><rect x="2" y="4" width="1" height="1" fill="#f6c790" /><rect x="2" y="5" width="1" height="1" fill="#000000" /><rect x="2" y="6" width="1" height="1" fill="#2a2219" /><rect x="2" y="7" width="1" height="1" fill="#fbcf9a" /><rect x="2" y="8" width="1" height="1" fill="#cb9350" /><rect x="2" y="9" width="1" height="1" fill="#955d1c" /><rect x="3" y="0" width="1" height="1" fill="#579a9a" /><rect x="3" y="1" width="1" height="1" fill="#356061" /><rect x="3" y="2" width="1" height="1" fill="#000000" /><rect x="3" y="3" width="1" height="1" fill="#8d7151" /><rect x="3" y="4" width="1" height="1" fill="#fdcc94" /><rect x="3" y="5" width="1" height="1" fill="#7f664a" /><rect x="3" y="6" width="1" height="1" fill="#997d5c" /><rect x="3" y="7" width="1" height="1" fill="#f1c99a" /><rect x="3" y="8" width="1" height="1" fill="#c28e4f" /><rect x="3" y="9" width="1" height="1" fill="#99601c" /><rect x="4" y="0" width="1" height="1" fill="#adffff" /><rect x="4" y="1" width="1" height="1" fill="#6dbaba" /><rect x="4" y="2" width="1" height="1" fill="#000000" /><rect x="4" y="3" width="1" height="1" fill="#826749" /><rect x="4" y="4" width="1" height="1" fill="#ffd197" /><rect x="4" y="5" width="1" height="1" fill="#ffd399" /><rect x="4" y="6" width="1" height="1" fill="#f8c991" /><rect x="4" y="7" width="1" height="1" fill="#dbb281" /><rect x="4" y="8" width="1" height="1" fill="#b68447" /><rect x="4" y="9" width="1" height="1" fill="#9f641f" /><rect x="5" y="0" width="1" height="1" fill="#abffff" /><rect x="5" y="1" width="1" height="1" fill="#6bb8b8" /><rect x="5" y="2" width="1" height="1" fill="#000000" /><rect x="5" y="3" width="1" height="1" fill="#9a7a57" /><rect x="5" y="4" width="1" height="1" fill="#ffefad" /><rect x="5" y="5" width="1" height="1" fill="#ffd8a4" /><rect x="5" y="6" width="1" height="1" fill="#edb879" /><rect x="5" y="7" width="1" height="1" fill="#bb7928" /><rect x="5" y="8" width="1" height="1" fill="#c07f32" /><rect x="5" y="9" width="1" height="1" fill="#c07f33" /><rect x="6" y="0" width="1" height="1" fill="#6dbab9" /><rect x="6" y="1" width="1" height="1" fill="#447676" /><rect x="6" y="2" width="1" height="1" fill="#000000" /><rect x="6" y="3" width="1" height="1" fill="#624e37" /><rect x="6" y="4" width="1" height="1" fill="#bd986d" /><rect x="6" y="5" width="1" height="1" fill="#a88b68" /><rect x="6" y="6" width="1" height="1" fill="#96734a" /><rect x="6" y="7" width="1" height="1" fill="#714411" /><rect x="6" y="8" width="1" height="1" fill="#784d1c" /><rect x="6" y="9" width="1" height="1" fill="#7b5120" /><rect x="7" y="0" width="1" height="1" fill="#000000" /><rect x="7" y="1" width="1" height="1" fill="#000000" /><rect x="7" y="2" width="1" height="1" fill="#000000" /><rect x="7" y="3" width="1" height="1" fill="#000000" /><rect x="7" y="4" width="1" height="1" fill="#000000" /><rect x="7" y="5" width="1" height="1" fill="#000000" /><rect x="7" y="6" width="1" height="1" fill="#000000" /><rect x="7" y="7" width="1" height="1" fill="#000000" /><rect x="7" y="8" width="1" height="1" fill="#000000" /><rect x="7" y="9" width="1" height="1" fill="#000000" /><rect x="8" y="0" width="1" height="1" fill="#3b4e58" /><rect x="8" y="1" width="1" height="1" fill="#3c505a" /><rect x="8" y="2" width="1" height="1" fill="#3f545e" /><rect x="8" y="3" width="1" height="1" fill="#3b515c" /><rect x="8" y="4" width="1" height="1" fill="#384e5b" /><rect x="8" y="5" width="1" height="1" fill="#394f5b" /><rect x="8" y="6" width="1" height="1" fill="#39505c" /><rect x="8" y="7" width="1" height="1" fill="#3a515d" /><rect x="8" y="8" width="1" height="1" fill="#3a515d" /><rect x="8" y="9" width="1" height="1" fill="#3a515d" /><rect x="9" y="0" width="1" height="1" fill="#749cb0" /><rect x="9" y="1" width="1" height="1" fill="#749cb0" /><rect x="9" y="2" width="1" height="1" fill="#749cb0" /><rect x="9" y="3" width="1" height="1" fill="#749cb0" /><rect x="9" y="4" width="1" height="1" fill="#749cb0" /><rect x="9" y="5" width="1" height="1" fill="#749cb0" /><rect x="9" y="6" width="1" height="1" fill="#749cb0" /><rect x="9" y="7" width="1" height="1" fill="#749cb0" /><rect x="9" y="8" width="1" height="1" fill="#749cb0" /><rect x="9" y="9" width="1" height="1" fill="#749cb0" /></g></svg>