<svg width="800" height="1000" xmlns="http://www.w3.org/2000/svg"><defs><linearGradient id="g" x1="0" x2="1" y1="0" y2="1"><stop offset="0%" stop-color="#2d3c96"/><stop offset="100%" stop-color="#d53392"/></linearGradient></defs><rect x="10" y="10" width="780" height="980" fill="url(#g)" rx="50" ry="50" stroke="gold" stroke-width="20"/><text x="400" y="920" width="780" text-anchor="middle" style="font:bold 200px 'Helvetica Neue';fill:gold">04131</text><g transform="translate(80 80) scale(64)"><rect x="0" y="0" width="1" height="1" fill="#c8a275" /><rect x="0" y="1" width="1" height="1" fill="#e2b784" /><rect x="0" y="2" width="1" height="1" fill="#f0c28c" /><rect x="0" y="3" width="1" height="1" fill="#51412f" /><rect x="0" y="4" width="1" height="1" fill="#000000" /><rect x="0" y="5" width="1" height="1" fill="#000002" /><rect x="0" y="6" width="1" height="1" fill="#000001" /><rect x="0" y="7" width="1" height="1" fill="#000001" /><rect x="0" y="8" width="1" height="1" fill="#000001" /><rect x="0" y="9" width="1" height="1" fill="#000001" /><rect x="1" y="0" width="1" height="1" fill="#e2b885" /><rect x="1" y="1" width="1" height="1" fill="#ffd096" /><rect x="1" y="2" width="1" height="1" fill="#ffd69b" /><rect x="1" y="3" width="1" height="1" fill="#82694d" /><rect x="1" y="4" width="1" height="1" fill="#1b140e" /><rect x="1" y="5" width="1" height="1" fill="#251302" /><rect x="1" y="6" width="1" height="1" fill="#231000" /><rect x="1" y="7" width="1" height="1" fill="#251300" /><rect x="1" y="8" width="1" height="1" fill="#251300" /><rect x="1" y="9" width="1" height="1" fill="#251300" /><rect x="2" y="0" width="1" height="1" fill="#f0c38c" /><rect x="2" y="1" width="1" height="1" fill="#ffdb9e" /><rect x="2" y="2" width="1" height="1" fill="#fdcd94" /><rect x="2" y="3" width="1" height="1" fill="#fcce99" /><rect x="2" y="4" width="1" height="1" fill="#eebf85" /><rect x="2" y="5" width="1" height="1" fill="#b27123" /><rect x="2" y="6" width="1" height="1" fill="#ae6d21" /><rect x="2" y="7" width="1" height="1" fill="#ba7b33" /><rect x="2" y="8" width="1" height="1" fill="#b97a31" /><rect x="2" y="9" width="1" height="1" fill="#b97a31" /><rect x="3" y="0" width="1" height="1" fill="#452e1c" /><rect x="3" y="1" width="1" height="1" fill="#513a26" /><rect x="3" y="2" width="1" height="1" fill="#413527" /><rect x="3" y="3" width="1" height="1" fill="#ac8c67" /><rect x="3" y="4" width="1" height="1" fill="#f5c58d" /><rect x="3" y="5" width="1" height="1" fill="#d0a168" /><rect x="3" y="6" width="1" height="1" fill="#bf8b4d" /><rect x="3" y="7" width="1" height="1" fill="#a0651f" /><rect x="3" y="8" width="1" height="1" fill="#a76d2a" /><rect x="3" y="9" width="1" height="1" fill="#aa712e" /><rect x="4" y="0" width="1" height="1" fill="#000101" /><rect x="4" y="1" width="1" height="1" fill="#000000" /><rect x="4" y="2" width="1" height="1" fill="#000000" /><rect x="4" y="3" width="1" height="1" fill="#886d4e" /><rect x="4" y="4" width="1" height="1" fill="#ffd097" /><rect x="4" y="5" width="1" height="1" fill="#edc99e" /><rect x="4" y="6" width="1" height="1" fill="#d5a975" /><rect x="4" y="7" width="1" height="1" fill="#a36924" /><rect x="4" y="8" width="1" height="1" fill="#a66e2c" /><rect x="4" y="9" width="1" height="1" fill="#a56d2b" /><rect x="5" y="0" width="1" height="1" fill="#8df1f0" /><rect x="5" y="1" width="1" height="1" fill="#589999" /><rect x="5" y="2" width="1" height="1" fill="#000000" /><rect x="5" y="3" width="1" height="1" fill="#866a4c" /><rect x="5" y="4" width="1" height="1" fill="#ffcf96" /><rect x="5" y="5" width="1" height="1" fill="#dbb181" /><rect x="5" y="6" width="1" height="1" fill="#dbb180" /><rect x="5" y="7" width="1" height="1" fill="#e0b786" /><rect x="5" y="8" width="1" height="1" fill="#b98649" /><rect x="5" y="9" width="1" height="1" fill="#9d631f" /><rect x="6" y="0" width="1" height="1" fill="#a1ffff" /><rect x="6" y="1" width="1" height="1" fill="#65aead" /><rect x="6" y="2" width="1" height="1" fill="#000000" /><rect x="6" y="3" width="1" height="1" fill="#856a4b" /><rect x="6" y="4" width="1" height="1" fill="#ffcf96" /><rect x="6" y="5" width="1" height="1" fill="#dab07f" /><rect x="6" y="6" width="1" height="1" fill="#ddb383" /><rect x="6" y="7" width="1" height="1" fill="#e8c195" /><rect x="6" y="8" width="1" height="1" fill="#bc894d" /><rect x="6" y="9" width="1" height="1" fill="#9c621d" /><rect x="7" y="0" width="1" height="1" fill="#aaffff" /><rect x="7" y="1" width="1" height="1" fill="#6bb8b8" /><rect x="7" y="2" width="1" height="1" fill="#000000" /><rect x="7" y="3" width="1" height="1" fill="#85694b" /><rect x="7" y="4" width="1" height="1" fill="#ffcf96" /><rect x="7" y="5" width="1" height="1" fill="#dbb180" /><rect x="7" y="6" width="1" height="1" fill="#dcb281" /><rect x="7" y="7" width="1" height="1" fill="#e3bb8c" /><rect x="7" y="8" width="1" height="1" fill="#b8864a" /><rect x="7" y="9" width="1" height="1" fill="#9e631e" /><rect x="8" y="0" width="1" height="1" fill="#265256" /><rect x="8" y="1" width="1" height="1" fill="#143135" /><rect x="8" y="2" width="1" height="1" fill="#000000" /><rect x="8" y="3" width="1" height="1" fill="#866c4d" /><rect x="8" y="4" width="1" height="1" fill="#ffd096" /><rect x="8" y="5" width="1" height="1" fill="#eec08b" /><rect x="8" y="6" width="1" height="1" fill="#e9bd89" /><rect x="8" y="7" width="1" height="1" fill="#e1b98b" /><rect x="8" y="8" width="1" height="1" fill="#c28c4d" /><rect x="8" y="9" width="1" height="1" fill="#985f1d" /><rect x="9" y="0" width="1" height="1" fill="#000000" /><rect x="9" y="1" width="1" height="1" fill="#010101" /><rect x="9" y="2" width="1" height="1" fill="#000000" /><rect x="9" y="3" width="1" height="1" fill="#8e7353" /><rect x="9" y="4" width="1" height="1" fill="#fecd94" /><rect x="9" y="5" width="1" height="1" fill="#cfa779" /><rect x="9" y="6" width="1" height="1" fill="#d3aa7c" /><rect x="9" y="7" width="1" height="1" fill="#e4bc8d" /><rect x="9" y="8" width="1" height="1" fill="#c7904e" /><rect x="9" y="9" width="1" height="1" fill="#955d1c" /></g></svg>