<svg width="800" height="1000" xmlns="http://www.w3.org/2000/svg"><defs><linearGradient id="g" x1="0" x2="1" y1="0" y2="1"><stop offset="0%" stop-color="#2d3c96"/><stop offset="100%" stop-color="#d53392"/></linearGradient></defs><rect x="10" y="10" width="780" height="980" fill="url(#g)" rx="50" ry="50" stroke="gold" stroke-width="20"/><text x="400" y="920" width="780" text-anchor="middle" style="font:bold 200px 'Helvetica Neue';fill:gold">04149</text><g transform="translate(80 80) scale(64)"><rect x="0" y="0" width="1" height="1" fill="#89a18b" /><rect x="0" y="1" width="1" height="1" fill="#637c69" /><rect x="0" y="2" width="1" height="1" fill="#546f60" /><rect x="0" y="3" width="1" height="1" fill="#425c4f" /><rect x="0" y="4" width="1" height="1" fill="#365246" /><rect x="0" y="5" width="1" height="1" fill="#2d4b41" /><rect x="0" y="6" width="1" height="1" fill="#1d3b31" /><rect x="0" y="7" width="1" height="1" fill="#1e3930" /><rect x="0" y="8" width="1" height="1" fill="#19332a" /><rect x="0" y="9" width="1" height="1" fill="#1a3225" /><rect x="1" y="0" width="1" height="1" fill="#98ad9a" /><rect x="1" y="1" width="1" height="1" fill="#657e6b" /><rect x="1" y="2" width="1" height="1" fill="#466152" /><rect x="1" y="3" width="1" height="1" fill="#466053" /><rect x="1" y="4" width="1" height="1" fill="#3a564a" /><rect x="1" y="5" width="1" height="1" fill="#244238" /><rect x="1" y="6" width="1" height="1" fill="#1a382e" /><rect x="1" y="7" width="1" height="1" fill="#243f36" /><rect x="1" y="8" width="1" height="1" fill="#253f34" /><rect x="1" y="9" width="1" height="1" fill="#233b2e" /><rect x="2" y="0" width="1" height="1" fill="#a0b5a2" /><rect x="2" y="1" width="1" height="1" fill="#89a08e" /><rect x="2" y="2" width="1" height="1" fill="#5a7564" /><rect x="2" y="3" width="1" height="1" fill="#4b6558" /><rect x="2" y="4" width="1" height="1" fill="#385448" /><rect x="2" y="5" width="1" height="1" fill="#2b493d" /><rect x="2" y="6" width="1" height="1" fill="#304c40" /><rect x="2" y="7" width="1" height="1" fill="#29433a" /><rect x="2" y="8" width="1" height="1" fill="#223c2f" /><rect x="2" y="9" width="1" height="1" fill="#273f31" /><rect x="3" y="0" width="1" height="1" fill="#96ab98" /><rect x="3" y="1" width="1" height="1" fill="#96ad99" /><rect x="3" y="2" width="1" height="1" fill="#8ea794" /><rect x="3" y="3" width="1" height="1" fill="#809888" /><rect x="3" y="4" width="1" height="1" fill="#668172" /><rect x="3" y="5" width="1" height="1" fill="#526d5e" /><rect x="3" y="6" width="1" height="1" fill="#4b6657" /><rect x="3" y="7" width="1" height="1" fill="#385042" /><rect x="3" y="8" width="1" height="1" fill="#385042" /><rect x="3" y="9" width="1" height="1" fill="#374e3e" /><rect x="4" y="0" width="1" height="1" fill="#88a08a" /><rect x="4" y="1" width="1" height="1" fill="#8da490" /><rect x="4" y="2" width="1" height="1" fill="#8ea591" /><rect x="4" y="3" width="1" height="1" fill="#92a997" /><rect x="4" y="4" width="1" height="1" fill="#8ba290" /><rect x="4" y="5" width="1" height="1" fill="#829b88" /><rect x="4" y="6" width="1" height="1" fill="#7d9683" /><rect x="4" y="7" width="1" height="1" fill="#506755" /><rect x="4" y="8" width="1" height="1" fill="#38513e" /><rect x="4" y="9" width="1" height="1" fill="#3e5541" /><rect x="5" y="0" width="1" height="1" fill="#89a18b" /><rect x="5" y="1" width="1" height="1" fill="#8ca38f" /><rect x="5" y="2" width="1" height="1" fill="#8ea591" /><rect x="5" y="3" width="1" height="1" fill="#93a897" /><rect x="5" y="4" width="1" height="1" fill="#8ba290" /><rect x="5" y="5" width="1" height="1" fill="#849b89" /><rect x="5" y="6" width="1" height="1" fill="#7c9582" /><rect x="5" y="7" width="1" height="1" fill="#526957" /><rect x="5" y="8" width="1" height="1" fill="#37503d" /><rect x="5" y="9" width="1" height="1" fill="#3e5640" /><rect x="6" y="0" width="1" height="1" fill="#95ac98" /><rect x="6" y="1" width="1" height="1" fill="#96ad99" /><rect x="6" y="2" width="1" height="1" fill="#8fa895" /><rect x="6" y="3" width="1" height="1" fill="#7f9787" /><rect x="6" y="4" width="1" height="1" fill="#6a8274" /><rect x="6" y="5" width="1" height="1" fill="#526d5e" /><rect x="6" y="6" width="1" height="1" fill="#4d6859" /><rect x="6" y="7" width="1" height="1" fill="#385042" /><rect x="6" y="8" width="1" height="1" fill="#385042" /><rect x="6" y="9" width="1" height="1" fill="#364d3b" /><rect x="7" y="0" width="1" height="1" fill="#a0b5a2" /><rect x="7" y="1" width="1" height="1" fill="#8aa18f" /><rect x="7" y="2" width="1" height="1" fill="#5c7466" /><rect x="7" y="3" width="1" height="1" fill="#4b6558" /><rect x="7" y="4" width="1" height="1" fill="#375347" /><rect x="7" y="5" width="1" height="1" fill="#2d493d" /><rect x="7" y="6" width="1" height="1" fill="#2f4a41" /><rect x="7" y="7" width="1" height="1" fill="#29433a" /><rect x="7" y="8" width="1" height="1" fill="#223c31" /><rect x="7" y="9" width="1" height="1" fill="#284032" /><rect x="8" y="0" width="1" height="1" fill="#97ae9a" /><rect x="8" y="1" width="1" height="1" fill="#647d6a" /><rect x="8" y="2" width="1" height="1" fill="#466053" /><rect x="8" y="3" width="1" height="1" fill="#466254" /><rect x="8" y="4" width="1" height="1" fill="#3a5648" /><rect x="8" y="5" width="1" height="1" fill="#234139" /><rect x="8" y="6" width="1" height="1" fill="#1a3732" /><rect x="8" y="7" width="1" height="1" fill="#243f36" /><rect x="8" y="8" width="1" height="1" fill="#253f34" /><rect x="8" y="9" width="1" height="1" fill="#213b2e" /><rect x="9" y="0" width="1" height="1" fill="#899e8b" /><rect x="9" y="1" width="1" height="1" fill="#637c67" /><rect x="9" y="2" width="1" height="1" fill="#536e5d" /><rect x="9" y="3" width="1" height="1" fill="#425c4f" /><rect x="9" y="4" width="1" height="1" fill="#365246" /><rect x="9" y="5" width="1" height="1" fill="#2d4b3f" /><rect x="9" y="6" width="1" height="1" fill="#1f3a31" /><rect x="9" y="7" width="1" height="1" fill="#1e3930" /><rect x="9" y="8" width="1" height="1" fill="#193328" /><rect x="9" y="9" width="1" height="1" fill="#183225" /></g></svg>