<svg width="800" height="1000" version="1.1" xmlns="http://www.w3.org/2000/svg" xmlns:xlink="http://www.w3.org/1999/xlink">
  <defs>
      <linearGradient id="Gradient2" x1="0" x2="1" y1="0" y2="1">
        <stop offset="0%" stop-color="#2d3c96"/>
        <stop offset="100%" stop-color="#d53392"/>
      </linearGradient>
  </defs>
  <rect x="10" y="10" width="780" height="980" fill="url(#Gradient2)" rx="50" ry="50" stroke="#ffd700" stroke-width="20"/>
  <text x="400" y="920" width="780" text-anchor="middle" style="font: bold 200px 'Helvetica Neue'; fill: #ffd700">04149</text>

  <g transform="translate(80 80) scale(64)">
<rect x="0" y="0" width="1" height="1" fill="#89A18B" /><rect x="1" y="0" width="1" height="1" fill="#98AD9A" /><rect x="2" y="0" width="1" height="1" fill="#A0B5A2" /><rect x="3" y="0" width="1" height="1" fill="#96AB98" /><rect x="4" y="0" width="1" height="1" fill="#88A08A" /><rect x="5" y="0" width="1" height="1" fill="#89A18B" /><rect x="6" y="0" width="1" height="1" fill="#95AC98" /><rect x="7" y="0" width="1" height="1" fill="#A0B5A2" /><rect x="8" y="0" width="1" height="1" fill="#97AE9A" /><rect x="9" y="0" width="1" height="1" fill="#899E8B" /><rect x="0" y="1" width="1" height="1" fill="#637C69" /><rect x="1" y="1" width="1" height="1" fill="#657E6B" /><rect x="2" y="1" width="1" height="1" fill="#89A08E" /><rect x="3" y="1" width="1" height="1" fill="#96AD99" /><rect x="4" y="1" width="1" height="1" fill="#8DA490" /><rect x="5" y="1" width="1" height="1" fill="#8CA38F" /><rect x="6" y="1" width="1" height="1" fill="#96AD99" /><rect x="7" y="1" width="1" height="1" fill="#8AA18F" /><rect x="8" y="1" width="1" height="1" fill="#647D6A" /><rect x="9" y="1" width="1" height="1" fill="#637C67" /><rect x="0" y="2" width="1" height="1" fill="#546F60" /><rect x="1" y="2" width="1" height="1" fill="#466152" /><rect x="2" y="2" width="1" height="1" fill="#5A7564" /><rect x="3" y="2" width="1" height="1" fill="#8EA794" /><rect x="4" y="2" width="1" height="1" fill="#8EA591" /><rect x="5" y="2" width="1" height="1" fill="#8EA591" /><rect x="6" y="2" width="1" height="1" fill="#8FA895" /><rect x="7" y="2" width="1" height="1" fill="#5C7466" /><rect x="8" y="2" width="1" height="1" fill="#466053" /><rect x="9" y="2" width="1" height="1" fill="#536E5D" /><rect x="0" y="3" width="1" height="1" fill="#425C4F" /><rect x="1" y="3" width="1" height="1" fill="#466053" /><rect x="2" y="3" width="1" height="1" fill="#4B6558" /><rect x="3" y="3" width="1" height="1" fill="#809888" /><rect x="4" y="3" width="1" height="1" fill="#92A997" /><rect x="5" y="3" width="1" height="1" fill="#93A897" /><rect x="6" y="3" width="1" height="1" fill="#7F9787" /><rect x="7" y="3" width="1" height="1" fill="#4B6558" /><rect x="8" y="3" width="1" height="1" fill="#466254" /><rect x="9" y="3" width="1" height="1" fill="#425C4F" /><rect x="0" y="4" width="1" height="1" fill="#365246" /><rect x="1" y="4" width="1" height="1" fill="#3A564A" /><rect x="2" y="4" width="1" height="1" fill="#385448" /><rect x="3" y="4" width="1" height="1" fill="#668172" /><rect x="4" y="4" width="1" height="1" fill="#8BA290" /><rect x="5" y="4" width="1" height="1" fill="#8BA290" /><rect x="6" y="4" width="1" height="1" fill="#6A8274" /><rect x="7" y="4" width="1" height="1" fill="#375347" /><rect x="8" y="4" width="1" height="1" fill="#3A5648" /><rect x="9" y="4" width="1" height="1" fill="#365246" /><rect x="0" y="5" width="1" height="1" fill="#2D4B41" /><rect x="1" y="5" width="1" height="1" fill="#244238" /><rect x="2" y="5" width="1" height="1" fill="#2B493D" /><rect x="3" y="5" width="1" height="1" fill="#526D5E" /><rect x="4" y="5" width="1" height="1" fill="#829B88" /><rect x="5" y="5" width="1" height="1" fill="#849B89" /><rect x="6" y="5" width="1" height="1" fill="#526D5E" /><rect x="7" y="5" width="1" height="1" fill="#2D493D" /><rect x="8" y="5" width="1" height="1" fill="#234139" /><rect x="9" y="5" width="1" height="1" fill="#2D4B3F" /><rect x="0" y="6" width="1" height="1" fill="#1D3B31" /><rect x="1" y="6" width="1" height="1" fill="#1A382E" /><rect x="2" y="6" width="1" height="1" fill="#304C40" /><rect x="3" y="6" width="1" height="1" fill="#4B6657" /><rect x="4" y="6" width="1" height="1" fill="#7D9683" /><rect x="5" y="6" width="1" height="1" fill="#7C9582" /><rect x="6" y="6" width="1" height="1" fill="#4D6859" /><rect x="7" y="6" width="1" height="1" fill="#2F4A41" /><rect x="8" y="6" width="1" height="1" fill="#1A3732" /><rect x="9" y="6" width="1" height="1" fill="#1F3A31" /><rect x="0" y="7" width="1" height="1" fill="#1E3930" /><rect x="1" y="7" width="1" height="1" fill="#243F36" /><rect x="2" y="7" width="1" height="1" fill="#29433A" /><rect x="3" y="7" width="1" height="1" fill="#385042" /><rect x="4" y="7" width="1" height="1" fill="#506755" /><rect x="5" y="7" width="1" height="1" fill="#526957" /><rect x="6" y="7" width="1" height="1" fill="#385042" /><rect x="7" y="7" width="1" height="1" fill="#29433A" /><rect x="8" y="7" width="1" height="1" fill="#243F36" /><rect x="9" y="7" width="1" height="1" fill="#1E3930" /><rect x="0" y="8" width="1" height="1" fill="#19332A" /><rect x="1" y="8" width="1" height="1" fill="#253F34" /><rect x="2" y="8" width="1" height="1" fill="#223C2F" /><rect x="3" y="8" width="1" height="1" fill="#385042" /><rect x="4" y="8" width="1" height="1" fill="#38513E" /><rect x="5" y="8" width="1" height="1" fill="#37503D" /><rect x="6" y="8" width="1" height="1" fill="#385042" /><rect x="7" y="8" width="1" height="1" fill="#223C31" /><rect x="8" y="8" width="1" height="1" fill="#253F34" /><rect x="9" y="8" width="1" height="1" fill="#193328" /><rect x="0" y="9" width="1" height="1" fill="#1A3225" /><rect x="1" y="9" width="1" height="1" fill="#233B2E" /><rect x="2" y="9" width="1" height="1" fill="#273F31" /><rect x="3" y="9" width="1" height="1" fill="#374E3E" /><rect x="4" y="9" width="1" height="1" fill="#3E5541" /><rect x="5" y="9" width="1" height="1" fill="#3E5640" /><rect x="6" y="9" width="1" height="1" fill="#364D3B" /><rect x="7" y="9" width="1" height="1" fill="#284032" /><rect x="8" y="9" width="1" height="1" fill="#213B2E" /><rect x="9" y="9" width="1" height="1" fill="#183225" />
  </g>
</svg>