<svg width="800" height="1000" xmlns="http://www.w3.org/2000/svg"><defs><linearGradient id="g" x1="0" x2="1" y1="0" y2="1"><stop offset="0%" stop-color="#2d3c96"/><stop offset="100%" stop-color="#d53392"/></linearGradient></defs><rect x="10" y="10" width="780" height="980" fill="url(#g)" rx="50" ry="50" stroke="gold" stroke-width="20"/><text x="400" y="920" width="780" text-anchor="middle" style="font:bold 200px 'Helvetica Neue';fill:gold">04205</text><g transform="translate(80 80) scale(64)"><rect x="0" y="0" width="1" height="1" fill="#793894" /><rect x="0" y="1" width="1" height="1" fill="#7a3894" /><rect x="0" y="2" width="1" height="1" fill="#7d3992" /><rect x="0" y="3" width="1" height="1" fill="#f0c511" /><rect x="0" y="4" width="1" height="1" fill="#7d3794" /><rect x="0" y="5" width="1" height="1" fill="#7e3794" /><rect x="0" y="6" width="1" height="1" fill="#7f3794" /><rect x="0" y="7" width="1" height="1" fill="#813794" /><rect x="0" y="8" width="1" height="1" fill="#823794" /><rect x="0" y="9" width="1" height="1" fill="#833794" /><rect x="1" y="0" width="1" height="1" fill="#7a3794" /><rect x="1" y="1" width="1" height="1" fill="#7b3794" /><rect x="1" y="2" width="1" height="1" fill="#813d8e" /><rect x="1" y="3" width="1" height="1" fill="#eabd18" /><rect x="1" y="4" width="1" height="1" fill="#7f3794" /><rect x="1" y="5" width="1" height="1" fill="#803794" /><rect x="1" y="6" width="1" height="1" fill="#813794" /><rect x="1" y="7" width="1" height="1" fill="#823794" /><rect x="1" y="8" width="1" height="1" fill="#833794" /><rect x="1" y="9" width="1" height="1" fill="#843794" /><rect x="2" y="0" width="1" height="1" fill="#7c3794" /><rect x="2" y="1" width="1" height="1" fill="#7d3794" /><rect x="2" y="2" width="1" height="1" fill="#a2636b" /><rect x="2" y="3" width="1" height="1" fill="#c38d45" /><rect x="2" y="4" width="1" height="1" fill="#803794" /><rect x="2" y="5" width="1" height="1" fill="#813794" /><rect x="2" y="6" width="1" height="1" fill="#833794" /><rect x="2" y="7" width="1" height="1" fill="#843794" /><rect x="2" y="8" width="1" height="1" fill="#853794" /><rect x="2" y="9" width="1" height="1" fill="#863794" /><rect x="3" y="0" width="1" height="1" fill="#7d3794" /><rect x="3" y="1" width="1" height="1" fill="#7f3794" /><rect x="3" y="2" width="1" height="1" fill="#803794" /><rect x="3" y="3" width="1" height="1" fill="#813794" /><rect x="3" y="4" width="1" height="1" fill="#823794" /><rect x="3" y="5" width="1" height="1" fill="#833794" /><rect x="3" y="6" width="1" height="1" fill="#843794" /><rect x="3" y="7" width="1" height="1" fill="#853794" /><rect x="3" y="8" width="1" height="1" fill="#873794" /><rect x="3" y="9" width="1" height="1" fill="#883794" /><rect x="4" y="0" width="1" height="1" fill="#7f3794" /><rect x="4" y="1" width="1" height="1" fill="#803794" /><rect x="4" y="2" width="1" height="1" fill="#813794" /><rect x="4" y="3" width="1" height="1" fill="#823794" /><rect x="4" y="4" width="1" height="1" fill="#843794" /><rect x="4" y="5" width="1" height="1" fill="#853794" /><rect x="4" y="6" width="1" height="1" fill="#863794" /><rect x="4" y="7" width="1" height="1" fill="#873794" /><rect x="4" y="8" width="1" height="1" fill="#883794" /><rect x="4" y="9" width="1" height="1" fill="#893794" /><rect x="5" y="0" width="1" height="1" fill="#813794" /><rect x="5" y="1" width="1" height="1" fill="#924c82" /><rect x="5" y="2" width="1" height="1" fill="#b77a55" /><rect x="5" y="3" width="1" height="1" fill="#c1874a" /><rect x="5" y="4" width="1" height="1" fill="#853794" /><rect x="5" y="5" width="1" height="1" fill="#863794" /><rect x="5" y="6" width="1" height="1" fill="#873794" /><rect x="5" y="7" width="1" height="1" fill="#893794" /><rect x="5" y="8" width="1" height="1" fill="#8a3794" /><rect x="5" y="9" width="1" height="1" fill="#8b3794" /><rect x="6" y="0" width="1" height="1" fill="#e3b321" /><rect x="6" y="1" width="1" height="1" fill="#edc015" /><rect x="6" y="2" width="1" height="1" fill="#cb943e" /><rect x="6" y="3" width="1" height="1" fill="#ad6a64" /><rect x="6" y="4" width="1" height="1" fill="#873794" /><rect x="6" y="5" width="1" height="1" fill="#883794" /><rect x="6" y="6" width="1" height="1" fill="#893794" /><rect x="6" y="7" width="1" height="1" fill="#8a3794" /><rect x="6" y="8" width="1" height="1" fill="#8b3794" /><rect x="6" y="9" width="1" height="1" fill="#8d3794" /><rect x="7" y="0" width="1" height="1" fill="#9d5877" /><rect x="7" y="1" width="1" height="1" fill="#853794" /><rect x="7" y="2" width="1" height="1" fill="#863794" /><rect x="7" y="3" width="1" height="1" fill="#873794" /><rect x="7" y="4" width="1" height="1" fill="#883794" /><rect x="7" y="5" width="1" height="1" fill="#8a3794" /><rect x="7" y="6" width="1" height="1" fill="#8b3794" /><rect x="7" y="7" width="1" height="1" fill="#8c3794" /><rect x="7" y="8" width="1" height="1" fill="#8d3794" /><rect x="7" y="9" width="1" height="1" fill="#8e3694" /><rect x="8" y="0" width="1" height="1" fill="#853794" /><rect x="8" y="1" width="1" height="1" fill="#873794" /><rect x="8" y="2" width="1" height="1" fill="#883794" /><rect x="8" y="3" width="1" height="1" fill="#893794" /><rect x="8" y="4" width="1" height="1" fill="#8a3794" /><rect x="8" y="5" width="1" height="1" fill="#8b3794" /><rect x="8" y="6" width="1" height="1" fill="#8c3794" /><rect x="8" y="7" width="1" height="1" fill="#8d3794" /><rect x="8" y="8" width="1" height="1" fill="#8f3694" /><rect x="8" y="9" width="1" height="1" fill="#903694" /><rect x="9" y="0" width="1" height="1" fill="#873794" /><rect x="9" y="1" width="1" height="1" fill="#883794" /><rect x="9" y="2" width="1" height="1" fill="#893794" /><rect x="9" y="3" width="1" height="1" fill="#8a3794" /><rect x="9" y="4" width="1" height="1" fill="#8c3794" /><rect x="9" y="5" width="1" height="1" fill="#8d3794" /><rect x="9" y="6" width="1" height="1" fill="#8e3694" /><rect x="9" y="7" width="1" height="1" fill="#8f3694" /><rect x="9" y="8" width="1" height="1" fill="#903694" /><rect x="9" y="9" width="1" height="1" fill="#913694" /></g></svg>