<svg width="800" height="1000" xmlns="http://www.w3.org/2000/svg"><defs><linearGradient id="g" x1="0" x2="1" y1="0" y2="1"><stop offset="0%" stop-color="#2d3c96"/><stop offset="100%" stop-color="#d53392"/></linearGradient></defs><rect x="10" y="10" width="780" height="980" fill="url(#g)" rx="50" ry="50" stroke="gold" stroke-width="20"/><text x="400" y="920" width="780" text-anchor="middle" style="font:bold 200px 'Helvetica Neue';fill:gold">04207</text><g transform="translate(80 80) scale(64)"><rect x="0" y="0" width="1" height="1" fill="#993794" /><rect x="0" y="1" width="1" height="1" fill="#9a3794" /><rect x="0" y="2" width="1" height="1" fill="#9b3794" /><rect x="0" y="3" width="1" height="1" fill="#9c3794" /><rect x="0" y="4" width="1" height="1" fill="#9d3794" /><rect x="0" y="5" width="1" height="1" fill="#9e3794" /><rect x="0" y="6" width="1" height="1" fill="#a03794" /><rect x="0" y="7" width="1" height="1" fill="#cb7e52" /><rect x="0" y="8" width="1" height="1" fill="#ffd700" /><rect x="0" y="9" width="1" height="1" fill="#ffd700" /><rect x="1" y="0" width="1" height="1" fill="#9a3794" /><rect x="1" y="1" width="1" height="1" fill="#cf8a47" /><rect x="1" y="2" width="1" height="1" fill="#b45d71" /><rect x="1" y="3" width="1" height="1" fill="#9e3794" /><rect x="1" y="4" width="1" height="1" fill="#9f3794" /><rect x="1" y="5" width="1" height="1" fill="#a03794" /><rect x="1" y="6" width="1" height="1" fill="#a13794" /><rect x="1" y="7" width="1" height="1" fill="#cb7d52" /><rect x="1" y="8" width="1" height="1" fill="#ffd700" /><rect x="1" y="9" width="1" height="1" fill="#b85873" /><rect x="2" y="0" width="1" height="1" fill="#9c3794" /><rect x="2" y="1" width="1" height="1" fill="#c97e52" /><rect x="2" y="2" width="1" height="1" fill="#d7953c" /><rect x="2" y="3" width="1" height="1" fill="#9f3794" /><rect x="2" y="4" width="1" height="1" fill="#a13794" /><rect x="2" y="5" width="1" height="1" fill="#a23794" /><rect x="2" y="6" width="1" height="1" fill="#a33694" /><rect x="2" y="7" width="1" height="1" fill="#cc7d52" /><rect x="2" y="8" width="1" height="1" fill="#ffd700" /><rect x="2" y="9" width="1" height="1" fill="#b34d7e" /><rect x="3" y="0" width="1" height="1" fill="#9e3794" /><rect x="3" y="1" width="1" height="1" fill="#bd6a65" /><rect x="3" y="2" width="1" height="1" fill="#dd9d35" /><rect x="3" y="3" width="1" height="1" fill="#a13794" /><rect x="3" y="4" width="1" height="1" fill="#a23694" /><rect x="3" y="5" width="1" height="1" fill="#a33694" /><rect x="3" y="6" width="1" height="1" fill="#a43693" /><rect x="3" y="7" width="1" height="1" fill="#cd7d52" /><rect x="3" y="8" width="1" height="1" fill="#ffd700" /><rect x="3" y="9" width="1" height="1" fill="#b54d7e" /><rect x="4" y="0" width="1" height="1" fill="#b35975" /><rect x="4" y="1" width="1" height="1" fill="#db9b38" /><rect x="4" y="2" width="1" height="1" fill="#cb7e52" /><rect x="4" y="3" width="1" height="1" fill="#a33694" /><rect x="4" y="4" width="1" height="1" fill="#a43694" /><rect x="4" y="5" width="1" height="1" fill="#a53693" /><rect x="4" y="6" width="1" height="1" fill="#a63693" /><rect x="4" y="7" width="1" height="1" fill="#ce7d52" /><rect x="4" y="8" width="1" height="1" fill="#ffd700" /><rect x="4" y="9" width="1" height="1" fill="#b64d7e" /><rect x="5" y="0" width="1" height="1" fill="#fed502" /><rect x="5" y="1" width="1" height="1" fill="#e7ad26" /><rect x="5" y="2" width="1" height="1" fill="#a83f8c" /><rect x="5" y="3" width="1" height="1" fill="#a43694" /><rect x="5" y="4" width="1" height="1" fill="#a53693" /><rect x="5" y="5" width="1" height="1" fill="#a73693" /><rect x="5" y="6" width="1" height="1" fill="#a83693" /><rect x="5" y="7" width="1" height="1" fill="#b85279" /><rect x="5" y="8" width="1" height="1" fill="#cc7658" /><rect x="5" y="9" width="1" height="1" fill="#b03f8b" /><rect x="6" y="0" width="1" height="1" fill="#a33892" /><rect x="6" y="1" width="1" height="1" fill="#a43694" /><rect x="6" y="2" width="1" height="1" fill="#a53693" /><rect x="6" y="3" width="1" height="1" fill="#a63693" /><rect x="6" y="4" width="1" height="1" fill="#a73693" /><rect x="6" y="5" width="1" height="1" fill="#a83693" /><rect x="6" y="6" width="1" height="1" fill="#a93693" /><rect x="6" y="7" width="1" height="1" fill="#aa3693" /><rect x="6" y="8" width="1" height="1" fill="#ac3693" /><rect x="6" y="9" width="1" height="1" fill="#ad3693" /><rect x="7" y="0" width="1" height="1" fill="#a43694" /><rect x="7" y="1" width="1" height="1" fill="#a53693" /><rect x="7" y="2" width="1" height="1" fill="#a63693" /><rect x="7" y="3" width="1" height="1" fill="#a73693" /><rect x="7" y="4" width="1" height="1" fill="#a93693" /><rect x="7" y="5" width="1" height="1" fill="#aa3693" /><rect x="7" y="6" width="1" height="1" fill="#ab3693" /><rect x="7" y="7" width="1" height="1" fill="#ac3693" /><rect x="7" y="8" width="1" height="1" fill="#ad3693" /><rect x="7" y="9" width="1" height="1" fill="#ae3693" /><rect x="8" y="0" width="1" height="1" fill="#a63693" /><rect x="8" y="1" width="1" height="1" fill="#a73693" /><rect x="8" y="2" width="1" height="1" fill="#a83693" /><rect x="8" y="3" width="1" height="1" fill="#a93693" /><rect x="8" y="4" width="1" height="1" fill="#aa3693" /><rect x="8" y="5" width="1" height="1" fill="#ab3693" /><rect x="8" y="6" width="1" height="1" fill="#ad3693" /><rect x="8" y="7" width="1" height="1" fill="#ae3693" /><rect x="8" y="8" width="1" height="1" fill="#af3693" /><rect x="8" y="9" width="1" height="1" fill="#b03693" /><rect x="9" y="0" width="1" height="1" fill="#a73693" /><rect x="9" y="1" width="1" height="1" fill="#a83693" /><rect x="9" y="2" width="1" height="1" fill="#aa3693" /><rect x="9" y="3" width="1" height="1" fill="#ab3693" /><rect x="9" y="4" width="1" height="1" fill="#ac3693" /><rect x="9" y="5" width="1" height="1" fill="#ad3693" /><rect x="9" y="6" width="1" height="1" fill="#ae3693" /><rect x="9" y="7" width="1" height="1" fill="#af3693" /><rect x="9" y="8" width="1" height="1" fill="#b03693" /><rect x="9" y="9" width="1" height="1" fill="#b23693" /></g></svg>