<svg width="800" height="1000" xmlns="http://www.w3.org/2000/svg"><defs><linearGradient id="g" x1="0" x2="1" y1="0" y2="1"><stop offset="0%" stop-color="#2d3c96"/><stop offset="100%" stop-color="#d53392"/></linearGradient></defs><rect x="10" y="10" width="780" height="980" fill="url(#g)" rx="50" ry="50" stroke="gold" stroke-width="20"/><text x="400" y="920" width="780" text-anchor="middle" style="font:bold 200px 'Helvetica Neue';fill:gold">04205</text><g transform="translate(80 80) scale(64)"><rect x="0" y="0" width="1" height="1" fill="#7a3a95" /><rect x="0" y="1" width="1" height="1" fill="#7b3a95" /><rect x="0" y="2" width="1" height="1" fill="#7c3995" /><rect x="0" y="3" width="1" height="1" fill="#7d3995" /><rect x="0" y="4" width="1" height="1" fill="#7e3995" /><rect x="0" y="5" width="1" height="1" fill="#7f3995" /><rect x="0" y="6" width="1" height="1" fill="#803995" /><rect x="0" y="7" width="1" height="1" fill="#96537d" /><rect x="0" y="8" width="1" height="1" fill="#ae7061" /><rect x="0" y="9" width="1" height="1" fill="#af7061" /><rect x="1" y="0" width="1" height="1" fill="#9f646d" /><rect x="1" y="1" width="1" height="1" fill="#8b4b84" /><rect x="1" y="2" width="1" height="1" fill="#7d3995" /><rect x="1" y="3" width="1" height="1" fill="#7f3995" /><rect x="1" y="4" width="1" height="1" fill="#803995" /><rect x="1" y="5" width="1" height="1" fill="#813995" /><rect x="1" y="6" width="1" height="1" fill="#823995" /><rect x="1" y="7" width="1" height="1" fill="#bd824f" /><rect x="1" y="8" width="1" height="1" fill="#ffd700" /><rect x="1" y="9" width="1" height="1" fill="#ffd700" /><rect x="2" y="0" width="1" height="1" fill="#f1c610" /><rect x="2" y="1" width="1" height="1" fill="#fad105" /><rect x="2" y="2" width="1" height="1" fill="#9d5e73" /><rect x="2" y="3" width="1" height="1" fill="#803995" /><rect x="2" y="4" width="1" height="1" fill="#813995" /><rect x="2" y="5" width="1" height="1" fill="#823995" /><rect x="2" y="6" width="1" height="1" fill="#843995" /><rect x="2" y="7" width="1" height="1" fill="#9c5679" /><rect x="2" y="8" width="1" height="1" fill="#b77959" /><rect x="2" y="9" width="1" height="1" fill="#b77959" /><rect x="3" y="0" width="1" height="1" fill="#7e3995" /><rect x="3" y="1" width="1" height="1" fill="#bf874b" /><rect x="3" y="2" width="1" height="1" fill="#cd993b" /><rect x="3" y="3" width="1" height="1" fill="#823995" /><rect x="3" y="4" width="1" height="1" fill="#833995" /><rect x="3" y="5" width="1" height="1" fill="#843995" /><rect x="3" y="6" width="1" height="1" fill="#853995" /><rect x="3" y="7" width="1" height="1" fill="#863995" /><rect x="3" y="8" width="1" height="1" fill="#883995" /><rect x="3" y="9" width="1" height="1" fill="#893995" /><rect x="4" y="0" width="1" height="1" fill="#803995" /><rect x="4" y="1" width="1" height="1" fill="#ad7061" /><rect x="4" y="2" width="1" height="1" fill="#cb963e" /><rect x="4" y="3" width="1" height="1" fill="#833995" /><rect x="4" y="4" width="1" height="1" fill="#853995" /><rect x="4" y="5" width="1" height="1" fill="#863995" /><rect x="4" y="6" width="1" height="1" fill="#873995" /><rect x="4" y="7" width="1" height="1" fill="#883995" /><rect x="4" y="8" width="1" height="1" fill="#893995" /><rect x="4" y="9" width="1" height="1" fill="#8a3995" /><rect x="5" y="0" width="1" height="1" fill="#8d4788" /><rect x="5" y="1" width="1" height="1" fill="#dcab29" /><rect x="5" y="2" width="1" height="1" fill="#97527e" /><rect x="5" y="3" width="1" height="1" fill="#853995" /><rect x="5" y="4" width="1" height="1" fill="#863995" /><rect x="5" y="5" width="1" height="1" fill="#873995" /><rect x="5" y="6" width="1" height="1" fill="#883995" /><rect x="5" y="7" width="1" height="1" fill="#a76070" /><rect x="5" y="8" width="1" height="1" fill="#cd9241" /><rect x="5" y="9" width="1" height="1" fill="#cd9241" /><rect x="6" y="0" width="1" height="1" fill="#fcd304" /><rect x="6" y="1" width="1" height="1" fill="#f5ca0c" /><rect x="6" y="2" width="1" height="1" fill="#bc8052" /><rect x="6" y="3" width="1" height="1" fill="#873995" /><rect x="6" y="4" width="1" height="1" fill="#883995" /><rect x="6" y="5" width="1" height="1" fill="#893995" /><rect x="6" y="6" width="1" height="1" fill="#8a3995" /><rect x="6" y="7" width="1" height="1" fill="#be7f53" /><rect x="6" y="8" width="1" height="1" fill="#ffd700" /><rect x="6" y="9" width="1" height="1" fill="#ffd700" /><rect x="7" y="0" width="1" height="1" fill="#a96769" /><rect x="7" y="1" width="1" height="1" fill="#aa6769" /><rect x="7" y="2" width="1" height="1" fill="#9a527e" /><rect x="7" y="3" width="1" height="1" fill="#883995" /><rect x="7" y="4" width="1" height="1" fill="#893995" /><rect x="7" y="5" width="1" height="1" fill="#8b3995" /><rect x="7" y="6" width="1" height="1" fill="#8c3995" /><rect x="7" y="7" width="1" height="1" fill="#c07f53" /><rect x="7" y="8" width="1" height="1" fill="#ffd700" /><rect x="7" y="9" width="1" height="1" fill="#b16867" /><rect x="8" y="0" width="1" height="1" fill="#863995" /><rect x="8" y="1" width="1" height="1" fill="#883995" /><rect x="8" y="2" width="1" height="1" fill="#893995" /><rect x="8" y="3" width="1" height="1" fill="#8a3995" /><rect x="8" y="4" width="1" height="1" fill="#8b3995" /><rect x="8" y="5" width="1" height="1" fill="#8c3995" /><rect x="8" y="6" width="1" height="1" fill="#8d3995" /><rect x="8" y="7" width="1" height="1" fill="#c07f53" /><rect x="8" y="8" width="1" height="1" fill="#ffd700" /><rect x="8" y="9" width="1" height="1" fill="#a04e7f" /><rect x="9" y="0" width="1" height="1" fill="#cc9340" /><rect x="9" y="1" width="1" height="1" fill="#cc9340" /><rect x="9" y="2" width="1" height="1" fill="#ae6a67" /><rect x="9" y="3" width="1" height="1" fill="#8b3995" /><rect x="9" y="4" width="1" height="1" fill="#8d3995" /><rect x="9" y="5" width="1" height="1" fill="#8e3995" /><rect x="9" y="6" width="1" height="1" fill="#8e3794" /><rect x="9" y="7" width="1" height="1" fill="#c17e52" /><rect x="9" y="8" width="1" height="1" fill="#ffd700" /><rect x="9" y="9" width="1" height="1" fill="#a14e7f" /></g></svg>