<svg width="800" height="1000" xmlns="http://www.w3.org/2000/svg"><defs><linearGradient id="g" x1="0" x2="1" y1="0" y2="1"><stop offset="0%" stop-color="#2d3c96"/><stop offset="100%" stop-color="#d53392"/></linearGradient></defs><rect x="10" y="10" width="780" height="980" fill="url(#g)" rx="50" ry="50" stroke="gold" stroke-width="20"/><text x="400" y="920" width="780" text-anchor="middle" style="font:bold 200px 'Helvetica Neue';fill:gold">04202</text><g transform="translate(80 80) scale(64)"><rect x="0" y="0" width="1" height="1" fill="#4b3d97" /><rect x="0" y="1" width="1" height="1" fill="#4c3d97" /><rect x="0" y="2" width="1" height="1" fill="#4d3d97" /><rect x="0" y="3" width="1" height="1" fill="#4e3d97" /><rect x="0" y="4" width="1" height="1" fill="#4f3d97" /><rect x="0" y="5" width="1" height="1" fill="#4f3c96" /><rect x="0" y="6" width="1" height="1" fill="#503c96" /><rect x="0" y="7" width="1" height="1" fill="#523c96" /><rect x="0" y="8" width="1" height="1" fill="#533b96" /><rect x="0" y="9" width="1" height="1" fill="#543b96" /><rect x="1" y="0" width="1" height="1" fill="#7a6570" /><rect x="1" y="1" width="1" height="1" fill="#534392" /><rect x="1" y="2" width="1" height="1" fill="#4e3d97" /><rect x="1" y="3" width="1" height="1" fill="#4f3c96" /><rect x="1" y="4" width="1" height="1" fill="#503c96" /><rect x="1" y="5" width="1" height="1" fill="#513c96" /><rect x="1" y="6" width="1" height="1" fill="#523c96" /><rect x="1" y="7" width="1" height="1" fill="#533b96" /><rect x="1" y="8" width="1" height="1" fill="#543b96" /><rect x="1" y="9" width="1" height="1" fill="#553b96" /><rect x="2" y="0" width="1" height="1" fill="#f0ca0c" /><rect x="2" y="1" width="1" height="1" fill="#edc70f" /><rect x="2" y="2" width="1" height="1" fill="#665083" /><rect x="2" y="3" width="1" height="1" fill="#503c96" /><rect x="2" y="4" width="1" height="1" fill="#513c96" /><rect x="2" y="5" width="1" height="1" fill="#523c96" /><rect x="2" y="6" width="1" height="1" fill="#543b96" /><rect x="2" y="7" width="1" height="1" fill="#553b96" /><rect x="2" y="8" width="1" height="1" fill="#563b96" /><rect x="2" y="9" width="1" height="1" fill="#573b96" /><rect x="3" y="0" width="1" height="1" fill="#523f95" /><rect x="3" y="1" width="1" height="1" fill="#bf9f36" /><rect x="3" y="2" width="1" height="1" fill="#b19243" /><rect x="3" y="3" width="1" height="1" fill="#523c96" /><rect x="3" y="4" width="1" height="1" fill="#533b96" /><rect x="3" y="5" width="1" height="1" fill="#543b96" /><rect x="3" y="6" width="1" height="1" fill="#553b96" /><rect x="3" y="7" width="1" height="1" fill="#563b96" /><rect x="3" y="8" width="1" height="1" fill="#573b96" /><rect x="3" y="9" width="1" height="1" fill="#593b96" /><rect x="4" y="0" width="1" height="1" fill="#503c96" /><rect x="4" y="1" width="1" height="1" fill="#8b7064" /><rect x="4" y="2" width="1" height="1" fill="#bf9d38" /><rect x="4" y="3" width="1" height="1" fill="#533b96" /><rect x="4" y="4" width="1" height="1" fill="#553b96" /><rect x="4" y="5" width="1" height="1" fill="#563b96" /><rect x="4" y="6" width="1" height="1" fill="#573b96" /><rect x="4" y="7" width="1" height="1" fill="#583b96" /><rect x="4" y="8" width="1" height="1" fill="#593b96" /><rect x="4" y="9" width="1" height="1" fill="#5a3b96" /><rect x="5" y="0" width="1" height="1" fill="#533e95" /><rect x="5" y="1" width="1" height="1" fill="#c29f36" /><rect x="5" y="2" width="1" height="1" fill="#84676c" /><rect x="5" y="3" width="1" height="1" fill="#553b96" /><rect x="5" y="4" width="1" height="1" fill="#563b96" /><rect x="5" y="5" width="1" height="1" fill="#573b96" /><rect x="5" y="6" width="1" height="1" fill="#583b96" /><rect x="5" y="7" width="1" height="1" fill="#5a3b96" /><rect x="5" y="8" width="1" height="1" fill="#5b3b96" /><rect x="5" y="9" width="1" height="1" fill="#5c3b96" /><rect x="6" y="0" width="1" height="1" fill="#e1bc1a" /><rect x="6" y="1" width="1" height="1" fill="#e6c016" /><rect x="6" y="2" width="1" height="1" fill="#8c6d66" /><rect x="6" y="3" width="1" height="1" fill="#573b96" /><rect x="6" y="4" width="1" height="1" fill="#583b96" /><rect x="6" y="5" width="1" height="1" fill="#593b96" /><rect x="6" y="6" width="1" height="1" fill="#5a3b96" /><rect x="6" y="7" width="1" height="1" fill="#5b3b96" /><rect x="6" y="8" width="1" height="1" fill="#5c3b96" /><rect x="6" y="9" width="1" height="1" fill="#5d3b96" /><rect x="7" y="0" width="1" height="1" fill="#ae8d47" /><rect x="7" y="1" width="1" height="1" fill="#af8d47" /><rect x="7" y="2" width="1" height="1" fill="#86676c" /><rect x="7" y="3" width="1" height="1" fill="#583b96" /><rect x="7" y="4" width="1" height="1" fill="#593b96" /><rect x="7" y="5" width="1" height="1" fill="#5a3b96" /><rect x="7" y="6" width="1" height="1" fill="#5c3b96" /><rect x="7" y="7" width="1" height="1" fill="#5d3b96" /><rect x="7" y="8" width="1" height="1" fill="#5e3b96" /><rect x="7" y="9" width="1" height="1" fill="#5f3b96" /><rect x="8" y="0" width="1" height="1" fill="#563b96" /><rect x="8" y="1" width="1" height="1" fill="#573b96" /><rect x="8" y="2" width="1" height="1" fill="#593b96" /><rect x="8" y="3" width="1" height="1" fill="#5a3b96" /><rect x="8" y="4" width="1" height="1" fill="#5b3b96" /><rect x="8" y="5" width="1" height="1" fill="#5c3b96" /><rect x="8" y="6" width="1" height="1" fill="#5d3b96" /><rect x="8" y="7" width="1" height="1" fill="#5e3b96" /><rect x="8" y="8" width="1" height="1" fill="#5f3b96" /><rect x="8" y="9" width="1" height="1" fill="#613b96" /><rect x="9" y="0" width="1" height="1" fill="#583b96" /><rect x="9" y="1" width="1" height="1" fill="#aa874c" /><rect x="9" y="2" width="1" height="1" fill="#7e5d75" /><rect x="9" y="3" width="1" height="1" fill="#5b3b96" /><rect x="9" y="4" width="1" height="1" fill="#5c3b96" /><rect x="9" y="5" width="1" height="1" fill="#5e3b96" /><rect x="9" y="6" width="1" height="1" fill="#5f3b96" /><rect x="9" y="7" width="1" height="1" fill="#603b96" /><rect x="9" y="8" width="1" height="1" fill="#613b95" /><rect x="9" y="9" width="1" height="1" fill="#b89143" /></g></svg>