<svg width="800" height="1000" xmlns="http://www.w3.org/2000/svg"><defs><linearGradient id="g" x1="0" x2="1" y1="0" y2="1"><stop offset="0%" stop-color="#2d3c96"/><stop offset="100%" stop-color="#d53392"/></linearGradient></defs><rect x="10" y="10" width="780" height="980" fill="url(#g)" rx="50" ry="50" stroke="gold" stroke-width="20"/><text x="400" y="920" width="780" text-anchor="middle" style="font:bold 200px 'Helvetica Neue';fill:gold">04232</text><g transform="translate(80 80) scale(64)"><rect x="0" y="0" width="1" height="1" fill="#000000" /><rect x="0" y="1" width="1" height="1" fill="#1f1508" /><rect x="0" y="2" width="1" height="1" fill="#b97a31" /><rect x="0" y="3" width="1" height="1" fill="#b67830" /><rect x="0" y="4" width="1" height="1" fill="#9e692a" /><rect x="0" y="5" width="1" height="1" fill="#000000" /><rect x="0" y="6" width="1" height="1" fill="#0d1b25" /><rect x="0" y="7" width="1" height="1" fill="#6e94a7" /><rect x="0" y="8" width="1" height="1" fill="#658799" /><rect x="0" y="9" width="1" height="1" fill="#638596" /><rect x="1" y="0" width="1" height="1" fill="#000000" /><rect x="1" y="1" width="1" height="1" fill="#1f1508" /><rect x="1" y="2" width="1" height="1" fill="#b97a31" /><rect x="1" y="3" width="1" height="1" fill="#b67830" /><rect x="1" y="4" width="1" height="1" fill="#9e692a" /><rect x="1" y="5" width="1" height="1" fill="#000000" /><rect x="1" y="6" width="1" height="1" fill="#0d1b25" /><rect x="1" y="7" width="1" height="1" fill="#6e94a7" /><rect x="1" y="8" width="1" height="1" fill="#658799" /><rect x="1" y="9" width="1" height="1" fill="#638596" /><rect x="2" y="0" width="1" height="1" fill="#000000" /><rect x="2" y="1" width="1" height="1" fill="#201508" /><rect x="2" y="2" width="1" height="1" fill="#b97a31" /><rect x="2" y="3" width="1" height="1" fill="#b67830" /><rect x="2" y="4" width="1" height="1" fill="#9e692a" /><rect x="2" y="5" width="1" height="1" fill="#000000" /><rect x="2" y="6" width="1" height="1" fill="#0d1b25" /><rect x="2" y="7" width="1" height="1" fill="#6e94a7" /><rect x="2" y="8" width="1" height="1" fill="#658799" /><rect x="2" y="9" width="1" height="1" fill="#638596" /><rect x="3" y="0" width="1" height="1" fill="#614019" /><rect x="3" y="1" width="1" height="1" fill="#734c1e" /><rect x="3" y="2" width="1" height="1" fill="#ab722e" /><rect x="3" y="3" width="1" height="1" fill="#bd7d32" /><rect x="3" y="4" width="1" height="1" fill="#ad722d" /><rect x="3" y="5" width="1" height="1" fill="#000000" /><rect x="3" y="6" width="1" height="1" fill="#0c1a25" /><rect x="3" y="7" width="1" height="1" fill="#6e94a7" /><rect x="3" y="8" width="1" height="1" fill="#658799" /><rect x="3" y="9" width="1" height="1" fill="#638596" /><rect x="4" y="0" width="1" height="1" fill="#c58335" /><rect x="4" y="1" width="1" height="1" fill="#bd7d33" /><rect x="4" y="2" width="1" height="1" fill="#a46d2b" /><rect x="4" y="3" width="1" height="1" fill="#ac722d" /><rect x="4" y="4" width="1" height="1" fill="#956428" /><rect x="4" y="5" width="1" height="1" fill="#000000" /><rect x="4" y="6" width="1" height="1" fill="#13222c" /><rect x="4" y="7" width="1" height="1" fill="#6d93a6" /><rect x="4" y="8" width="1" height="1" fill="#658798" /><rect x="4" y="9" width="1" height="1" fill="#638596" /><rect x="5" y="0" width="1" height="1" fill="#c07f33" /><rect x="5" y="1" width="1" height="1" fill="#c28033" /><rect x="5" y="2" width="1" height="1" fill="#dd923b" /><rect x="5" y="3" width="1" height="1" fill="#422708" /><rect x="5" y="4" width="1" height="1" fill="#000000" /><rect x="5" y="5" width="1" height="1" fill="#5a7988" /><rect x="5" y="6" width="1" height="1" fill="#678a9c" /><rect x="5" y="7" width="1" height="1" fill="#638697" /><rect x="5" y="8" width="1" height="1" fill="#638596" /><rect x="5" y="9" width="1" height="1" fill="#638596" /><rect x="6" y="0" width="1" height="1" fill="#7a501f" /><rect x="6" y="1" width="1" height="1" fill="#7b501f" /><rect x="6" y="2" width="1" height="1" fill="#8a581e" /><rect x="6" y="3" width="1" height="1" fill="#302719" /><rect x="6" y="4" width="1" height="1" fill="#00182d" /><rect x="6" y="5" width="1" height="1" fill="#678b9d" /><rect x="6" y="6" width="1" height="1" fill="#6f95a7" /><rect x="6" y="7" width="1" height="1" fill="#628495" /><rect x="6" y="8" width="1" height="1" fill="#638596" /><rect x="6" y="9" width="1" height="1" fill="#638596" /><rect x="7" y="0" width="1" height="1" fill="#000000" /><rect x="7" y="1" width="1" height="1" fill="#000000" /><rect x="7" y="2" width="1" height="1" fill="#000000" /><rect x="7" y="3" width="1" height="1" fill="#455d69" /><rect x="7" y="4" width="1" height="1" fill="#80acc2" /><rect x="7" y="5" width="1" height="1" fill="#648697" /><rect x="7" y="6" width="1" height="1" fill="#628495" /><rect x="7" y="7" width="1" height="1" fill="#638596" /><rect x="7" y="8" width="1" height="1" fill="#638596" /><rect x="7" y="9" width="1" height="1" fill="#638596" /><rect x="8" y="0" width="1" height="1" fill="#3a515d" /><rect x="8" y="1" width="1" height="1" fill="#3a505c" /><rect x="8" y="2" width="1" height="1" fill="#344954" /><rect x="8" y="3" width="1" height="1" fill="#557383" /><rect x="8" y="4" width="1" height="1" fill="#6c90a3" /><rect x="8" y="5" width="1" height="1" fill="#638596" /><rect x="8" y="6" width="1" height="1" fill="#638596" /><rect x="8" y="7" width="1" height="1" fill="#638596" /><rect x="8" y="8" width="1" height="1" fill="#638596" /><rect x="8" y="9" width="1" height="1" fill="#638596" /><rect x="9" y="0" width="1" height="1" fill="#749cb0" /><rect x="9" y="1" width="1" height="1" fill="#749cb0" /><rect x="9" y="2" width="1" height="1" fill="#769fb4" /><rect x="9" y="3" width="1" height="1" fill="#698ea0" /><rect x="9" y="4" width="1" height="1" fill="#608192" /><rect x="9" y="5" width="1" height="1" fill="#638596" /><rect x="9" y="6" width="1" height="1" fill="#638596" /><rect x="9" y="7" width="1" height="1" fill="#638596" /><rect x="9" y="8" width="1" height="1" fill="#638596" /><rect x="9" y="9" width="1" height="1" fill="#638596" /></g></svg>