<svg width="800" height="1000" xmlns="http://www.w3.org/2000/svg"><defs><linearGradient id="g" x1="0" x2="1" y1="0" y2="1"><stop offset="0%" stop-color="#2d3c96"/><stop offset="100%" stop-color="#d53392"/></linearGradient></defs><rect x="10" y="10" width="780" height="980" fill="url(#g)" rx="50" ry="50" stroke="gold" stroke-width="20"/><text x="400" y="920" width="780" text-anchor="middle" style="font:bold 200px 'Helvetica Neue';fill:gold">04231</text><g transform="translate(80 80) scale(64)"><rect x="0" y="0" width="1" height="1" fill="#000001" /><rect x="0" y="1" width="1" height="1" fill="#000001" /><rect x="0" y="2" width="1" height="1" fill="#000000" /><rect x="0" y="3" width="1" height="1" fill="#000000" /><rect x="0" y="4" width="1" height="1" fill="#000000" /><rect x="0" y="5" width="1" height="1" fill="#000000" /><rect x="0" y="6" width="1" height="1" fill="#000000" /><rect x="0" y="7" width="1" height="1" fill="#000000" /><rect x="0" y="8" width="1" height="1" fill="#000000" /><rect x="0" y="9" width="1" height="1" fill="#000000" /><rect x="1" y="0" width="1" height="1" fill="#231000" /><rect x="1" y="1" width="1" height="1" fill="#291806" /><rect x="1" y="2" width="1" height="1" fill="#35281a" /><rect x="1" y="3" width="1" height="1" fill="#332617" /><rect x="1" y="4" width="1" height="1" fill="#332516" /><rect x="1" y="5" width="1" height="1" fill="#332516" /><rect x="1" y="6" width="1" height="1" fill="#332516" /><rect x="1" y="7" width="1" height="1" fill="#332516" /><rect x="1" y="8" width="1" height="1" fill="#332516" /><rect x="1" y="9" width="1" height="1" fill="#332516" /><rect x="2" y="0" width="1" height="1" fill="#af6d21" /><rect x="2" y="1" width="1" height="1" fill="#ca904b" /><rect x="2" y="2" width="1" height="1" fill="#ffdaa7" /><rect x="2" y="3" width="1" height="1" fill="#f8ca95" /><rect x="2" y="4" width="1" height="1" fill="#f3c38c" /><rect x="2" y="5" width="1" height="1" fill="#f4c58e" /><rect x="2" y="6" width="1" height="1" fill="#f4c58e" /><rect x="2" y="7" width="1" height="1" fill="#f4c58e" /><rect x="2" y="8" width="1" height="1" fill="#f4c58e" /><rect x="2" y="9" width="1" height="1" fill="#f4c58e" /><rect x="3" y="0" width="1" height="1" fill="#a66c28" /><rect x="3" y="1" width="1" height="1" fill="#ae7634" /><rect x="3" y="2" width="1" height="1" fill="#bb8647" /><rect x="3" y="3" width="1" height="1" fill="#d5a873" /><rect x="3" y="4" width="1" height="1" fill="#e9c294" /><rect x="3" y="5" width="1" height="1" fill="#dfb483" /><rect x="3" y="6" width="1" height="1" fill="#dfb481" /><rect x="3" y="7" width="1" height="1" fill="#dfb482" /><rect x="3" y="8" width="1" height="1" fill="#dfb482" /><rect x="3" y="9" width="1" height="1" fill="#dfb482" /><rect x="4" y="0" width="1" height="1" fill="#a7702e" /><rect x="4" y="1" width="1" height="1" fill="#a36b28" /><rect x="4" y="2" width="1" height="1" fill="#93570f" /><rect x="4" y="3" width="1" height="1" fill="#c19054" /><rect x="4" y="4" width="1" height="1" fill="#e2ba89" /><rect x="4" y="5" width="1" height="1" fill="#dbb17f" /><rect x="4" y="6" width="1" height="1" fill="#dbb181" /><rect x="4" y="7" width="1" height="1" fill="#dbb180" /><rect x="4" y="8" width="1" height="1" fill="#dbb180" /><rect x="4" y="9" width="1" height="1" fill="#dbb180" /><rect x="5" y="0" width="1" height="1" fill="#a66e2c" /><rect x="5" y="1" width="1" height="1" fill="#a66e2c" /><rect x="5" y="2" width="1" height="1" fill="#a66e2c" /><rect x="5" y="3" width="1" height="1" fill="#a16825" /><rect x="5" y="4" width="1" height="1" fill="#ac7531" /><rect x="5" y="5" width="1" height="1" fill="#f9c88e" /><rect x="5" y="6" width="1" height="1" fill="#ffd39c" /><rect x="5" y="7" width="1" height="1" fill="#fdcc94" /><rect x="5" y="8" width="1" height="1" fill="#fdcc94" /><rect x="5" y="9" width="1" height="1" fill="#fdcc94" /><rect x="6" y="0" width="1" height="1" fill="#a86f2c" /><rect x="6" y="1" width="1" height="1" fill="#a86f2c" /><rect x="6" y="2" width="1" height="1" fill="#a66f2d" /><rect x="6" y="3" width="1" height="1" fill="#a36925" /><rect x="6" y="4" width="1" height="1" fill="#a26a28" /><rect x="6" y="5" width="1" height="1" fill="#a3825c" /><rect x="6" y="6" width="1" height="1" fill="#a28563" /><rect x="6" y="7" width="1" height="1" fill="#a1825d" /><rect x="6" y="8" width="1" height="1" fill="#a1825d" /><rect x="6" y="9" width="1" height="1" fill="#a1825d" /><rect x="7" y="0" width="1" height="1" fill="#c28034" /><rect x="7" y="1" width="1" height="1" fill="#ba7b32" /><rect x="7" y="2" width="1" height="1" fill="#a36c2b" /><rect x="7" y="3" width="1" height="1" fill="#b2762f" /><rect x="7" y="4" width="1" height="1" fill="#9e692a" /><rect x="7" y="5" width="1" height="1" fill="#090603" /><rect x="7" y="6" width="1" height="1" fill="#000000" /><rect x="7" y="7" width="1" height="1" fill="#000000" /><rect x="7" y="8" width="1" height="1" fill="#000000" /><rect x="7" y="9" width="1" height="1" fill="#000000" /><rect x="8" y="0" width="1" height="1" fill="#36230e" /><rect x="8" y="1" width="1" height="1" fill="#533716" /><rect x="8" y="2" width="1" height="1" fill="#b1762f" /><rect x="8" y="3" width="1" height="1" fill="#b47830" /><rect x="8" y="4" width="1" height="1" fill="#9e692a" /><rect x="8" y="5" width="1" height="1" fill="#000000" /><rect x="8" y="6" width="1" height="1" fill="#020d15" /><rect x="8" y="7" width="1" height="1" fill="#3f5865" /><rect x="8" y="8" width="1" height="1" fill="#3a505d" /><rect x="8" y="9" width="1" height="1" fill="#394f5b" /><rect x="9" y="0" width="1" height="1" fill="#000000" /><rect x="9" y="1" width="1" height="1" fill="#201508" /><rect x="9" y="2" width="1" height="1" fill="#b97a31" /><rect x="9" y="3" width="1" height="1" fill="#b67830" /><rect x="9" y="4" width="1" height="1" fill="#9e692a" /><rect x="9" y="5" width="1" height="1" fill="#000000" /><rect x="9" y="6" width="1" height="1" fill="#12212c" /><rect x="9" y="7" width="1" height="1" fill="#81adc4" /><rect x="9" y="8" width="1" height="1" fill="#769fb3" /><rect x="9" y="9" width="1" height="1" fill="#749cb0" /></g></svg>