<svg width="800" height="1000" xmlns="http://www.w3.org/2000/svg"><defs><linearGradient id="g" x1="0" x2="1" y1="0" y2="1"><stop offset="0%" stop-color="#2d3c96"/><stop offset="100%" stop-color="#d53392"/></linearGradient></defs><rect x="10" y="10" width="780" height="980" fill="url(#g)" rx="50" ry="50" stroke="gold" stroke-width="20"/><text x="400" y="920" width="780" text-anchor="middle" style="font:bold 200px 'Helvetica Neue';fill:gold">04242</text><g transform="translate(80 80) scale(64)"><rect x="0" y="0" width="1" height="1" fill="#f29c25" /><rect x="0" y="1" width="1" height="1" fill="#f29c25" /><rect x="0" y="2" width="1" height="1" fill="#f29c25" /><rect x="0" y="3" width="1" height="1" fill="#f29c25" /><rect x="0" y="4" width="1" height="1" fill="#f29c25" /><rect x="0" y="5" width="1" height="1" fill="#f29c25" /><rect x="0" y="6" width="1" height="1" fill="#f29c25" /><rect x="0" y="7" width="1" height="1" fill="#f29c25" /><rect x="0" y="8" width="1" height="1" fill="#f29c25" /><rect x="0" y="9" width="1" height="1" fill="#f29c25" /><rect x="1" y="0" width="1" height="1" fill="#f29c25" /><rect x="1" y="1" width="1" height="1" fill="#f29c25" /><rect x="1" y="2" width="1" height="1" fill="#f29c25" /><rect x="1" y="3" width="1" height="1" fill="#f29c25" /><rect x="1" y="4" width="1" height="1" fill="#f29c25" /><rect x="1" y="5" width="1" height="1" fill="#f29c25" /><rect x="1" y="6" width="1" height="1" fill="#f29c25" /><rect x="1" y="7" width="1" height="1" fill="#f29c25" /><rect x="1" y="8" width="1" height="1" fill="#f29c25" /><rect x="1" y="9" width="1" height="1" fill="#f29c25" /><rect x="2" y="0" width="1" height="1" fill="#f29c25" /><rect x="2" y="1" width="1" height="1" fill="#f29c25" /><rect x="2" y="2" width="1" height="1" fill="#f29c25" /><rect x="2" y="3" width="1" height="1" fill="#f29c25" /><rect x="2" y="4" width="1" height="1" fill="#f29c25" /><rect x="2" y="5" width="1" height="1" fill="#f29c25" /><rect x="2" y="6" width="1" height="1" fill="#f29c25" /><rect x="2" y="7" width="1" height="1" fill="#f29c25" /><rect x="2" y="8" width="1" height="1" fill="#ca8a29" /><rect x="2" y="9" width="1" height="1" fill="#685733" /><rect x="3" y="0" width="1" height="1" fill="#f29c25" /><rect x="3" y="1" width="1" height="1" fill="#f29c25" /><rect x="3" y="2" width="1" height="1" fill="#f29c25" /><rect x="3" y="3" width="1" height="1" fill="#f29c25" /><rect x="3" y="4" width="1" height="1" fill="#f29c25" /><rect x="3" y="5" width="1" height="1" fill="#f29c25" /><rect x="3" y="6" width="1" height="1" fill="#f29c25" /><rect x="3" y="7" width="1" height="1" fill="#f29c25" /><rect x="3" y="8" width="1" height="1" fill="#685732" /><rect x="3" y="9" width="1" height="1" fill="#a48e71" /><rect x="4" y="0" width="1" height="1" fill="#f29c25" /><rect x="4" y="1" width="1" height="1" fill="#f29c25" /><rect x="4" y="2" width="1" height="1" fill="#f29c25" /><rect x="4" y="3" width="1" height="1" fill="#f29c25" /><rect x="4" y="4" width="1" height="1" fill="#f29c25" /><rect x="4" y="5" width="1" height="1" fill="#f29c25" /><rect x="4" y="6" width="1" height="1" fill="#f29c23" /><rect x="4" y="7" width="1" height="1" fill="#b38128" /><rect x="4" y="8" width="1" height="1" fill="#675733" /><rect x="4" y="9" width="1" height="1" fill="#675733" /><rect x="5" y="0" width="1" height="1" fill="#f29c25" /><rect x="5" y="1" width="1" height="1" fill="#f29c25" /><rect x="5" y="2" width="1" height="1" fill="#f29c25" /><rect x="5" y="3" width="1" height="1" fill="#f29c25" /><rect x="5" y="4" width="1" height="1" fill="#f29c25" /><rect x="5" y="5" width="1" height="1" fill="#f09a29" /><rect x="5" y="6" width="1" height="1" fill="#6c5a35" /><rect x="5" y="7" width="1" height="1" fill="#695935" /><rect x="5" y="8" width="1" height="1" fill="#a38871" /><rect x="5" y="9" width="1" height="1" fill="#c5a394" /><rect x="6" y="0" width="1" height="1" fill="#f29c25" /><rect x="6" y="1" width="1" height="1" fill="#f29c25" /><rect x="6" y="2" width="1" height="1" fill="#f29c25" /><rect x="6" y="3" width="1" height="1" fill="#f29c25" /><rect x="6" y="4" width="1" height="1" fill="#f29c23" /><rect x="6" y="5" width="1" height="1" fill="#6c5a35" /><rect x="6" y="6" width="1" height="1" fill="#7d674a" /><rect x="6" y="7" width="1" height="1" fill="#cda89e" /><rect x="6" y="8" width="1" height="1" fill="#d5c1b6" /><rect x="6" y="9" width="1" height="1" fill="#ceaaa2" /><rect x="7" y="0" width="1" height="1" fill="#f29c25" /><rect x="7" y="1" width="1" height="1" fill="#f29c25" /><rect x="7" y="2" width="1" height="1" fill="#f29c25" /><rect x="7" y="3" width="1" height="1" fill="#f29c25" /><rect x="7" y="4" width="1" height="1" fill="#b28127" /><rect x="7" y="5" width="1" height="1" fill="#695935" /><rect x="7" y="6" width="1" height="1" fill="#cea89e" /><rect x="7" y="7" width="1" height="1" fill="#f4efec" /><rect x="7" y="8" width="1" height="1" fill="#7b6d50" /><rect x="7" y="9" width="1" height="1" fill="#c7c4b5" /><rect x="8" y="0" width="1" height="1" fill="#f29c25" /><rect x="8" y="1" width="1" height="1" fill="#f29c25" /><rect x="8" y="2" width="1" height="1" fill="#f29c25" /><rect x="8" y="3" width="1" height="1" fill="#f29c25" /><rect x="8" y="4" width="1" height="1" fill="#705933" /><rect x="8" y="5" width="1" height="1" fill="#a38871" /><rect x="8" y="6" width="1" height="1" fill="#cfa79f" /><rect x="8" y="7" width="1" height="1" fill="#f5efec" /><rect x="8" y="8" width="1" height="1" fill="#786e51" /><rect x="8" y="9" width="1" height="1" fill="#c9c4b3" /><rect x="9" y="0" width="1" height="1" fill="#f29c25" /><rect x="9" y="1" width="1" height="1" fill="#f29c25" /><rect x="9" y="2" width="1" height="1" fill="#f29c25" /><rect x="9" y="3" width="1" height="1" fill="#f29c25" /><rect x="9" y="4" width="1" height="1" fill="#685733" /><rect x="9" y="5" width="1" height="1" fill="#c5a294" /><rect x="9" y="6" width="1" height="1" fill="#cfa79f" /><rect x="9" y="7" width="1" height="1" fill="#cfa79f" /><rect x="9" y="8" width="1" height="1" fill="#d9c0ba" /><rect x="9" y="9" width="1" height="1" fill="#cfa9a0" /></g></svg>