<svg width="800" height="1000" xmlns="http://www.w3.org/2000/svg"><defs><linearGradient id="g" x1="0" x2="1" y1="0" y2="1"><stop offset="0%" stop-color="#2d3c96"/><stop offset="100%" stop-color="#d53392"/></linearGradient></defs><rect x="10" y="10" width="780" height="980" fill="url(#g)" rx="50" ry="50" stroke="gold" stroke-width="20"/><text x="400" y="920" width="780" text-anchor="middle" style="font:bold 200px 'Helvetica Neue';fill:gold">04243</text><g transform="translate(80 80) scale(64)"><rect x="0" y="0" width="1" height="1" fill="#f29c25" /><rect x="0" y="1" width="1" height="1" fill="#f29c25" /><rect x="0" y="2" width="1" height="1" fill="#f29c25" /><rect x="0" y="3" width="1" height="1" fill="#f29c25" /><rect x="0" y="4" width="1" height="1" fill="#685731" /><rect x="0" y="5" width="1" height="1" fill="#c8a198" /><rect x="0" y="6" width="1" height="1" fill="#cfa79f" /><rect x="0" y="7" width="1" height="1" fill="#cfa79f" /><rect x="0" y="8" width="1" height="1" fill="#cfa79f" /><rect x="0" y="9" width="1" height="1" fill="#cfa79e" /><rect x="1" y="0" width="1" height="1" fill="#f29c25" /><rect x="1" y="1" width="1" height="1" fill="#f29c25" /><rect x="1" y="2" width="1" height="1" fill="#f29c25" /><rect x="1" y="3" width="1" height="1" fill="#f29c25" /><rect x="1" y="4" width="1" height="1" fill="#6d5b31" /><rect x="1" y="5" width="1" height="1" fill="#a48972" /><rect x="1" y="6" width="1" height="1" fill="#cfa79f" /><rect x="1" y="7" width="1" height="1" fill="#d0aba0" /><rect x="1" y="8" width="1" height="1" fill="#7a6c52" /><rect x="1" y="9" width="1" height="1" fill="#c7c0b2" /><rect x="2" y="0" width="1" height="1" fill="#f29c25" /><rect x="2" y="1" width="1" height="1" fill="#f29c25" /><rect x="2" y="2" width="1" height="1" fill="#f29c25" /><rect x="2" y="3" width="1" height="1" fill="#f29c25" /><rect x="2" y="4" width="1" height="1" fill="#b47f28" /><rect x="2" y="5" width="1" height="1" fill="#685834" /><rect x="2" y="6" width="1" height="1" fill="#cfa79f" /><rect x="2" y="7" width="1" height="1" fill="#d8b7a8" /><rect x="2" y="8" width="1" height="1" fill="#796d4f" /><rect x="2" y="9" width="1" height="1" fill="#cac5b7" /><rect x="3" y="0" width="1" height="1" fill="#f29c25" /><rect x="3" y="1" width="1" height="1" fill="#f29c25" /><rect x="3" y="2" width="1" height="1" fill="#f29c25" /><rect x="3" y="3" width="1" height="1" fill="#f29c25" /><rect x="3" y="4" width="1" height="1" fill="#f29c25" /><rect x="3" y="5" width="1" height="1" fill="#6e5934" /><rect x="3" y="6" width="1" height="1" fill="#7c6948" /><rect x="3" y="7" width="1" height="1" fill="#cfa79f" /><rect x="3" y="8" width="1" height="1" fill="#dbbdb2" /><rect x="3" y="9" width="1" height="1" fill="#d5b2a7" /><rect x="4" y="0" width="1" height="1" fill="#f29c25" /><rect x="4" y="1" width="1" height="1" fill="#f29c25" /><rect x="4" y="2" width="1" height="1" fill="#f29c25" /><rect x="4" y="3" width="1" height="1" fill="#f29c25" /><rect x="4" y="4" width="1" height="1" fill="#f29c25" /><rect x="4" y="5" width="1" height="1" fill="#ee9b26" /><rect x="4" y="6" width="1" height="1" fill="#6e5a32" /><rect x="4" y="7" width="1" height="1" fill="#695935" /><rect x="4" y="8" width="1" height="1" fill="#a28a6f" /><rect x="4" y="9" width="1" height="1" fill="#c7a297" /><rect x="5" y="0" width="1" height="1" fill="#f29c25" /><rect x="5" y="1" width="1" height="1" fill="#f29c25" /><rect x="5" y="2" width="1" height="1" fill="#f29c25" /><rect x="5" y="3" width="1" height="1" fill="#f29c25" /><rect x="5" y="4" width="1" height="1" fill="#f29c25" /><rect x="5" y="5" width="1" height="1" fill="#f29c25" /><rect x="5" y="6" width="1" height="1" fill="#f29c25" /><rect x="5" y="7" width="1" height="1" fill="#b77e2a" /><rect x="5" y="8" width="1" height="1" fill="#675733" /><rect x="5" y="9" width="1" height="1" fill="#675733" /><rect x="6" y="0" width="1" height="1" fill="#f29c25" /><rect x="6" y="1" width="1" height="1" fill="#f29c25" /><rect x="6" y="2" width="1" height="1" fill="#f29c25" /><rect x="6" y="3" width="1" height="1" fill="#f29c25" /><rect x="6" y="4" width="1" height="1" fill="#f29c25" /><rect x="6" y="5" width="1" height="1" fill="#f29c25" /><rect x="6" y="6" width="1" height="1" fill="#f29c25" /><rect x="6" y="7" width="1" height="1" fill="#f29c25" /><rect x="6" y="8" width="1" height="1" fill="#675733" /><rect x="6" y="9" width="1" height="1" fill="#a88c76" /><rect x="7" y="0" width="1" height="1" fill="#f29c25" /><rect x="7" y="1" width="1" height="1" fill="#f29c25" /><rect x="7" y="2" width="1" height="1" fill="#f29c25" /><rect x="7" y="3" width="1" height="1" fill="#f29c25" /><rect x="7" y="4" width="1" height="1" fill="#f29c25" /><rect x="7" y="5" width="1" height="1" fill="#f29c25" /><rect x="7" y="6" width="1" height="1" fill="#f29c25" /><rect x="7" y="7" width="1" height="1" fill="#f29c25" /><rect x="7" y="8" width="1" height="1" fill="#cd8a26" /><rect x="7" y="9" width="1" height="1" fill="#675735" /><rect x="8" y="0" width="1" height="1" fill="#f29c25" /><rect x="8" y="1" width="1" height="1" fill="#f29c25" /><rect x="8" y="2" width="1" height="1" fill="#f29c25" /><rect x="8" y="3" width="1" height="1" fill="#f29c25" /><rect x="8" y="4" width="1" height="1" fill="#f29c25" /><rect x="8" y="5" width="1" height="1" fill="#f29c25" /><rect x="8" y="6" width="1" height="1" fill="#f29c25" /><rect x="8" y="7" width="1" height="1" fill="#f29c25" /><rect x="8" y="8" width="1" height="1" fill="#f29c25" /><rect x="8" y="9" width="1" height="1" fill="#f29c26" /><rect x="9" y="0" width="1" height="1" fill="#f29c25" /><rect x="9" y="1" width="1" height="1" fill="#f29c25" /><rect x="9" y="2" width="1" height="1" fill="#f29c25" /><rect x="9" y="3" width="1" height="1" fill="#f29c25" /><rect x="9" y="4" width="1" height="1" fill="#f29c25" /><rect x="9" y="5" width="1" height="1" fill="#f29c25" /><rect x="9" y="6" width="1" height="1" fill="#f29c25" /><rect x="9" y="7" width="1" height="1" fill="#f29c25" /><rect x="9" y="8" width="1" height="1" fill="#f29c25" /><rect x="9" y="9" width="1" height="1" fill="#f29c25" /></g></svg>