<svg width="800" height="1000" xmlns="http://www.w3.org/2000/svg"><defs><linearGradient id="g" x1="0" x2="1" y1="0" y2="1"><stop offset="0%" stop-color="#2d3c96"/><stop offset="100%" stop-color="#d53392"/></linearGradient></defs><rect x="10" y="10" width="780" height="980" fill="url(#g)" rx="50" ry="50" stroke="gold" stroke-width="20"/><text x="400" y="920" width="780" text-anchor="middle" style="font:bold 200px 'Helvetica Neue';fill:gold">04307</text><g transform="translate(80 80) scale(64)"><rect x="0" y="0" width="1" height="1" fill="#a43594" /><rect x="0" y="1" width="1" height="1" fill="#a53593" /><rect x="0" y="2" width="1" height="1" fill="#ad4089" /><rect x="0" y="3" width="1" height="1" fill="#e4a42d" /><rect x="0" y="4" width="1" height="1" fill="#d68c44" /><rect x="0" y="5" width="1" height="1" fill="#c9705d" /><rect x="0" y="6" width="1" height="1" fill="#c96e5e" /><rect x="0" y="7" width="1" height="1" fill="#ca6e5e" /><rect x="0" y="8" width="1" height="1" fill="#c25f6c" /><rect x="0" y="9" width="1" height="1" fill="#af3593" /><rect x="1" y="0" width="1" height="1" fill="#a63593" /><rect x="1" y="1" width="1" height="1" fill="#a73593" /><rect x="1" y="2" width="1" height="1" fill="#b44c7e" /><rect x="1" y="3" width="1" height="1" fill="#d99040" /><rect x="1" y="4" width="1" height="1" fill="#aa3593" /><rect x="1" y="5" width="1" height="1" fill="#ac3593" /><rect x="1" y="6" width="1" height="1" fill="#ad3593" /><rect x="1" y="7" width="1" height="1" fill="#ae3593" /><rect x="1" y="8" width="1" height="1" fill="#af3593" /><rect x="1" y="9" width="1" height="1" fill="#b03593" /><rect x="2" y="0" width="1" height="1" fill="#a73593" /><rect x="2" y="1" width="1" height="1" fill="#a93593" /><rect x="2" y="2" width="1" height="1" fill="#c15f6c" /><rect x="2" y="3" width="1" height="1" fill="#e7aa29" /><rect x="2" y="4" width="1" height="1" fill="#af3a8e" /><rect x="2" y="5" width="1" height="1" fill="#ad3593" /><rect x="2" y="6" width="1" height="1" fill="#ae3593" /><rect x="2" y="7" width="1" height="1" fill="#b03593" /><rect x="2" y="8" width="1" height="1" fill="#b13593" /><rect x="2" y="9" width="1" height="1" fill="#b23593" /><rect x="3" y="0" width="1" height="1" fill="#a93593" /><rect x="3" y="1" width="1" height="1" fill="#aa3593" /><rect x="3" y="2" width="1" height="1" fill="#ac3791" /><rect x="3" y="3" width="1" height="1" fill="#e4a130" /><rect x="3" y="4" width="1" height="1" fill="#fbd006" /><rect x="3" y="5" width="1" height="1" fill="#f5c213" /><rect x="3" y="6" width="1" height="1" fill="#f4c113" /><rect x="3" y="7" width="1" height="1" fill="#f4c113" /><rect x="3" y="8" width="1" height="1" fill="#e39c35" /><rect x="3" y="9" width="1" height="1" fill="#b33593" /><rect x="4" y="0" width="1" height="1" fill="#ab3593" /><rect x="4" y="1" width="1" height="1" fill="#ac3593" /><rect x="4" y="2" width="1" height="1" fill="#af3990" /><rect x="4" y="3" width="1" height="1" fill="#e5a42e" /><rect x="4" y="4" width="1" height="1" fill="#c66468" /><rect x="4" y="5" width="1" height="1" fill="#b74386" /><rect x="4" y="6" width="1" height="1" fill="#b84387" /><rect x="4" y="7" width="1" height="1" fill="#b94387" /><rect x="4" y="8" width="1" height="1" fill="#b83f8a" /><rect x="4" y="9" width="1" height="1" fill="#b53593" /><rect x="5" y="0" width="1" height="1" fill="#ac3593" /><rect x="5" y="1" width="1" height="1" fill="#ad3593" /><rect x="5" y="2" width="1" height="1" fill="#c5606b" /><rect x="5" y="3" width="1" height="1" fill="#d98b45" /><rect x="5" y="4" width="1" height="1" fill="#b13593" /><rect x="5" y="5" width="1" height="1" fill="#b23593" /><rect x="5" y="6" width="1" height="1" fill="#b33593" /><rect x="5" y="7" width="1" height="1" fill="#b43593" /><rect x="5" y="8" width="1" height="1" fill="#b63593" /><rect x="5" y="9" width="1" height="1" fill="#b73493" /><rect x="6" y="0" width="1" height="1" fill="#ae3593" /><rect x="6" y="1" width="1" height="1" fill="#af3593" /><rect x="6" y="2" width="1" height="1" fill="#bf5377" /><rect x="6" y="3" width="1" height="1" fill="#f2bd18" /><rect x="6" y="4" width="1" height="1" fill="#c65e6d" /><rect x="6" y="5" width="1" height="1" fill="#be4c7e" /><rect x="6" y="6" width="1" height="1" fill="#bf4b7f" /><rect x="6" y="7" width="1" height="1" fill="#c04a7f" /><rect x="6" y="8" width="1" height="1" fill="#be4485" /><rect x="6" y="9" width="1" height="1" fill="#b83493" /><rect x="7" y="0" width="1" height="1" fill="#b03593" /><rect x="7" y="1" width="1" height="1" fill="#b13593" /><rect x="7" y="2" width="1" height="1" fill="#b23593" /><rect x="7" y="3" width="1" height="1" fill="#d17558" /><rect x="7" y="4" width="1" height="1" fill="#ebad26" /><rect x="7" y="5" width="1" height="1" fill="#f1b91b" /><rect x="7" y="6" width="1" height="1" fill="#f1b91b" /><rect x="7" y="7" width="1" height="1" fill="#f1b91b" /><rect x="7" y="8" width="1" height="1" fill="#e2953b" /><rect x="7" y="9" width="1" height="1" fill="#ba3493" /><rect x="8" y="0" width="1" height="1" fill="#b13593" /><rect x="8" y="1" width="1" height="1" fill="#b23593" /><rect x="8" y="2" width="1" height="1" fill="#b33593" /><rect x="8" y="3" width="1" height="1" fill="#b53593" /><rect x="8" y="4" width="1" height="1" fill="#b63593" /><rect x="8" y="5" width="1" height="1" fill="#b73493" /><rect x="8" y="6" width="1" height="1" fill="#b83493" /><rect x="8" y="7" width="1" height="1" fill="#b93493" /><rect x="8" y="8" width="1" height="1" fill="#ba3493" /><rect x="8" y="9" width="1" height="1" fill="#bc3493" /><rect x="9" y="0" width="1" height="1" fill="#b33593" /><rect x="9" y="1" width="1" height="1" fill="#b43593" /><rect x="9" y="2" width="1" height="1" fill="#b53593" /><rect x="9" y="3" width="1" height="1" fill="#b63493" /><rect x="9" y="4" width="1" height="1" fill="#b73493" /><rect x="9" y="5" width="1" height="1" fill="#b93493" /><rect x="9" y="6" width="1" height="1" fill="#ba3493" /><rect x="9" y="7" width="1" height="1" fill="#bb3493" /><rect x="9" y="8" width="1" height="1" fill="#bc3493" /><rect x="9" y="9" width="1" height="1" fill="#bd3493" /></g></svg>