<svg width="800" height="1000" xmlns="http://www.w3.org/2000/svg"><defs><linearGradient id="g" x1="0" x2="1" y1="0" y2="1"><stop offset="0%" stop-color="#2d3c96"/><stop offset="100%" stop-color="#d53392"/></linearGradient></defs><rect x="10" y="10" width="780" height="980" fill="url(#g)" rx="50" ry="50" stroke="gold" stroke-width="20"/><text x="400" y="920" width="780" text-anchor="middle" style="font:bold 200px 'Helvetica Neue';fill:gold">04303</text><g transform="translate(80 80) scale(64)"><rect x="0" y="0" width="1" height="1" fill="#b78f45" /><rect x="0" y="1" width="1" height="1" fill="#d4ab2a" /><rect x="0" y="2" width="1" height="1" fill="#bf953e" /><rect x="0" y="3" width="1" height="1" fill="#bf953e" /><rect x="0" y="4" width="1" height="1" fill="#f7ce08" /><rect x="0" y="5" width="1" height="1" fill="#c0953e" /><rect x="0" y="6" width="1" height="1" fill="#c1953e" /><rect x="0" y="7" width="1" height="1" fill="#ca9e36" /><rect x="0" y="8" width="1" height="1" fill="#d9ae27" /><rect x="0" y="9" width="1" height="1" fill="#6e3894" /><rect x="1" y="0" width="1" height="1" fill="#b88f45" /><rect x="1" y="1" width="1" height="1" fill="#9a6d62" /><rect x="1" y="2" width="1" height="1" fill="#683894" /><rect x="1" y="3" width="1" height="1" fill="#693894" /><rect x="1" y="4" width="1" height="1" fill="#ebc114" /><rect x="1" y="5" width="1" height="1" fill="#6b3894" /><rect x="1" y="6" width="1" height="1" fill="#6c3894" /><rect x="1" y="7" width="1" height="1" fill="#814f80" /><rect x="1" y="8" width="1" height="1" fill="#d9ae27" /><rect x="1" y="9" width="1" height="1" fill="#703894" /><rect x="2" y="0" width="1" height="1" fill="#b98e45" /><rect x="2" y="1" width="1" height="1" fill="#9b6d62" /><rect x="2" y="2" width="1" height="1" fill="#693894" /><rect x="2" y="3" width="1" height="1" fill="#6b3894" /><rect x="2" y="4" width="1" height="1" fill="#ebc114" /><rect x="2" y="5" width="1" height="1" fill="#6d3894" /><rect x="2" y="6" width="1" height="1" fill="#6e3894" /><rect x="2" y="7" width="1" height="1" fill="#824f80" /><rect x="2" y="8" width="1" height="1" fill="#daae27" /><rect x="2" y="9" width="1" height="1" fill="#713894" /><rect x="3" y="0" width="1" height="1" fill="#ab7d52" /><rect x="3" y="1" width="1" height="1" fill="#93646b" /><rect x="3" y="2" width="1" height="1" fill="#6b3894" /><rect x="3" y="3" width="1" height="1" fill="#6c3894" /><rect x="3" y="4" width="1" height="1" fill="#b6884a" /><rect x="3" y="5" width="1" height="1" fill="#6e3894" /><rect x="3" y="6" width="1" height="1" fill="#703894" /><rect x="3" y="7" width="1" height="1" fill="#844f80" /><rect x="3" y="8" width="1" height="1" fill="#daae27" /><rect x="3" y="9" width="1" height="1" fill="#733894" /><rect x="4" y="0" width="1" height="1" fill="#6a3894" /><rect x="4" y="1" width="1" height="1" fill="#6c3894" /><rect x="4" y="2" width="1" height="1" fill="#743f8d" /><rect x="4" y="3" width="1" height="1" fill="#834f7f" /><rect x="4" y="4" width="1" height="1" fill="#6f3894" /><rect x="4" y="5" width="1" height="1" fill="#703894" /><rect x="4" y="6" width="1" height="1" fill="#713894" /><rect x="4" y="7" width="1" height="1" fill="#723894" /><rect x="4" y="8" width="1" height="1" fill="#753993" /><rect x="4" y="9" width="1" height="1" fill="#753894" /><rect x="5" y="0" width="1" height="1" fill="#6c3894" /><rect x="5" y="1" width="1" height="1" fill="#82507f" /><rect x="5" y="2" width="1" height="1" fill="#a5745c" /><rect x="5" y="3" width="1" height="1" fill="#d3a72e" /><rect x="5" y="4" width="1" height="1" fill="#905c74" /><rect x="5" y="5" width="1" height="1" fill="#915c74" /><rect x="5" y="6" width="1" height="1" fill="#925c74" /><rect x="5" y="7" width="1" height="1" fill="#8c547b" /><rect x="5" y="8" width="1" height="1" fill="#763993" /><rect x="5" y="9" width="1" height="1" fill="#763894" /><rect x="6" y="0" width="1" height="1" fill="#6e3894" /><rect x="6" y="1" width="1" height="1" fill="#c5983b" /><rect x="6" y="2" width="1" height="1" fill="#dfb420" /><rect x="6" y="3" width="1" height="1" fill="#efc510" /><rect x="6" y="4" width="1" height="1" fill="#d9ac28" /><rect x="6" y="5" width="1" height="1" fill="#d9ac28" /><rect x="6" y="6" width="1" height="1" fill="#daac28" /><rect x="6" y="7" width="1" height="1" fill="#ecc114" /><rect x="6" y="8" width="1" height="1" fill="#ca9a3a" /><rect x="6" y="9" width="1" height="1" fill="#783894" /><rect x="7" y="0" width="1" height="1" fill="#6f3894" /><rect x="7" y="1" width="1" height="1" fill="#703894" /><rect x="7" y="2" width="1" height="1" fill="#8e5977" /><rect x="7" y="3" width="1" height="1" fill="#c8983b" /><rect x="7" y="4" width="1" height="1" fill="#743894" /><rect x="7" y="5" width="1" height="1" fill="#753894" /><rect x="7" y="6" width="1" height="1" fill="#763894" /><rect x="7" y="7" width="1" height="1" fill="#793a92" /><rect x="7" y="8" width="1" height="1" fill="#e2b51f" /><rect x="7" y="9" width="1" height="1" fill="#793894" /><rect x="8" y="0" width="1" height="1" fill="#713894" /><rect x="8" y="1" width="1" height="1" fill="#723894" /><rect x="8" y="2" width="1" height="1" fill="#793f8e" /><rect x="8" y="3" width="1" height="1" fill="#874f80" /><rect x="8" y="4" width="1" height="1" fill="#753894" /><rect x="8" y="5" width="1" height="1" fill="#763894" /><rect x="8" y="6" width="1" height="1" fill="#783894" /><rect x="8" y="7" width="1" height="1" fill="#7c3b91" /><rect x="8" y="8" width="1" height="1" fill="#8f517d" /><rect x="8" y="9" width="1" height="1" fill="#7b3794" /><rect x="9" y="0" width="1" height="1" fill="#ba8a48" /><rect x="9" y="1" width="1" height="1" fill="#bb8a48" /><rect x="9" y="2" width="1" height="1" fill="#bc8a48" /><rect x="9" y="3" width="1" height="1" fill="#bc8a48" /><rect x="9" y="4" width="1" height="1" fill="#bd8a48" /><rect x="9" y="5" width="1" height="1" fill="#bd8a48" /><rect x="9" y="6" width="1" height="1" fill="#be8a48" /><rect x="9" y="7" width="1" height="1" fill="#be8a48" /><rect x="9" y="8" width="1" height="1" fill="#ae735c" /><rect x="9" y="9" width="1" height="1" fill="#7d3794" /></g></svg>