<svg width="800" height="1000" xmlns="http://www.w3.org/2000/svg"><defs><linearGradient id="g" x1="0" x2="1" y1="0" y2="1"><stop offset="0%" stop-color="#2d3c96"/><stop offset="100%" stop-color="#d53392"/></linearGradient></defs><rect x="10" y="10" width="780" height="980" fill="url(#g)" rx="50" ry="50" stroke="gold" stroke-width="20"/><text x="400" y="920" width="780" text-anchor="middle" style="font:bold 200px 'Helvetica Neue';fill:gold">04305</text><g transform="translate(80 80) scale(64)"><rect x="0" y="0" width="1" height="1" fill="#843794" /><rect x="0" y="1" width="1" height="1" fill="#853794" /><rect x="0" y="2" width="1" height="1" fill="#863794" /><rect x="0" y="3" width="1" height="1" fill="#ac6767" /><rect x="0" y="4" width="1" height="1" fill="#e6b51f" /><rect x="0" y="5" width="1" height="1" fill="#f7cd0a" /><rect x="0" y="6" width="1" height="1" fill="#8b3794" /><rect x="0" y="7" width="1" height="1" fill="#a75d72" /><rect x="0" y="8" width="1" height="1" fill="#a85e71" /><rect x="0" y="9" width="1" height="1" fill="#8e3694" /><rect x="1" y="0" width="1" height="1" fill="#863794" /><rect x="1" y="1" width="1" height="1" fill="#873794" /><rect x="1" y="2" width="1" height="1" fill="#883794" /><rect x="1" y="3" width="1" height="1" fill="#893794" /><rect x="1" y="4" width="1" height="1" fill="#8a3794" /><rect x="1" y="5" width="1" height="1" fill="#8b3794" /><rect x="1" y="6" width="1" height="1" fill="#8d3794" /><rect x="1" y="7" width="1" height="1" fill="#8e3794" /><rect x="1" y="8" width="1" height="1" fill="#8f3694" /><rect x="1" y="9" width="1" height="1" fill="#903694" /><rect x="2" y="0" width="1" height="1" fill="#873794" /><rect x="2" y="1" width="1" height="1" fill="#883794" /><rect x="2" y="2" width="1" height="1" fill="#984b82" /><rect x="2" y="3" width="1" height="1" fill="#d39a39" /><rect x="2" y="4" width="1" height="1" fill="#d39a39" /><rect x="2" y="5" width="1" height="1" fill="#d39a39" /><rect x="2" y="6" width="1" height="1" fill="#d39939" /><rect x="2" y="7" width="1" height="1" fill="#d39939" /><rect x="2" y="8" width="1" height="1" fill="#c37f51" /><rect x="2" y="9" width="1" height="1" fill="#923694" /><rect x="3" y="0" width="1" height="1" fill="#893794" /><rect x="3" y="1" width="1" height="1" fill="#8a3794" /><rect x="3" y="2" width="1" height="1" fill="#93428a" /><rect x="3" y="3" width="1" height="1" fill="#dba52f" /><rect x="3" y="4" width="1" height="1" fill="#d2973b" /><rect x="3" y="5" width="1" height="1" fill="#b8705d" /><rect x="3" y="6" width="1" height="1" fill="#b66d61" /><rect x="3" y="7" width="1" height="1" fill="#b66d61" /><rect x="3" y="8" width="1" height="1" fill="#ad5e6f" /><rect x="3" y="9" width="1" height="1" fill="#933694" /><rect x="4" y="0" width="1" height="1" fill="#8a3794" /><rect x="4" y="1" width="1" height="1" fill="#8c3794" /><rect x="4" y="2" width="1" height="1" fill="#a1547a" /><rect x="4" y="3" width="1" height="1" fill="#daa330" /><rect x="4" y="4" width="1" height="1" fill="#8f3694" /><rect x="4" y="5" width="1" height="1" fill="#903694" /><rect x="4" y="6" width="1" height="1" fill="#913694" /><rect x="4" y="7" width="1" height="1" fill="#923694" /><rect x="4" y="8" width="1" height="1" fill="#943694" /><rect x="4" y="9" width="1" height="1" fill="#953694" /><rect x="5" y="0" width="1" height="1" fill="#8c3794" /><rect x="5" y="1" width="1" height="1" fill="#8d3794" /><rect x="5" y="2" width="1" height="1" fill="#9b4883" /><rect x="5" y="3" width="1" height="1" fill="#b66d61" /><rect x="5" y="4" width="1" height="1" fill="#913694" /><rect x="5" y="5" width="1" height="1" fill="#923694" /><rect x="5" y="6" width="1" height="1" fill="#933694" /><rect x="5" y="7" width="1" height="1" fill="#943694" /><rect x="5" y="8" width="1" height="1" fill="#953694" /><rect x="5" y="9" width="1" height="1" fill="#963694" /><rect x="6" y="0" width="1" height="1" fill="#8e3794" /><rect x="6" y="1" width="1" height="1" fill="#8f3694" /><rect x="6" y="2" width="1" height="1" fill="#903694" /><rect x="6" y="3" width="1" height="1" fill="#9e4983" /><rect x="6" y="4" width="1" height="1" fill="#d79d36" /><rect x="6" y="5" width="1" height="1" fill="#eebe16" /><rect x="6" y="6" width="1" height="1" fill="#eab81d" /><rect x="6" y="7" width="1" height="1" fill="#cb874a" /><rect x="6" y="8" width="1" height="1" fill="#9a3b90" /><rect x="6" y="9" width="1" height="1" fill="#983694" /><rect x="7" y="0" width="1" height="1" fill="#8f3694" /><rect x="7" y="1" width="1" height="1" fill="#903694" /><rect x="7" y="2" width="1" height="1" fill="#963c8e" /><rect x="7" y="3" width="1" height="1" fill="#eab81d" /><rect x="7" y="4" width="1" height="1" fill="#b96d60" /><rect x="7" y="5" width="1" height="1" fill="#ecbb1a" /><rect x="7" y="6" width="1" height="1" fill="#a7507b" /><rect x="7" y="7" width="1" height="1" fill="#dba033" /><rect x="7" y="8" width="1" height="1" fill="#ce8b45" /><rect x="7" y="9" width="1" height="1" fill="#9a3694" /><rect x="8" y="0" width="1" height="1" fill="#913694" /><rect x="8" y="1" width="1" height="1" fill="#923694" /><rect x="8" y="2" width="1" height="1" fill="#ae5e6e" /><rect x="8" y="3" width="1" height="1" fill="#ce8e42" /><rect x="8" y="4" width="1" height="1" fill="#953694" /><rect x="8" y="5" width="1" height="1" fill="#eab71d" /><rect x="8" y="6" width="1" height="1" fill="#983694" /><rect x="8" y="7" width="1" height="1" fill="#9d3c8f" /><rect x="8" y="8" width="1" height="1" fill="#ebb71d" /><rect x="8" y="9" width="1" height="1" fill="#9b3694" /><rect x="9" y="0" width="1" height="1" fill="#923694" /><rect x="9" y="1" width="1" height="1" fill="#943694" /><rect x="9" y="2" width="1" height="1" fill="#aa5577" /><rect x="9" y="3" width="1" height="1" fill="#dfa62d" /><rect x="9" y="4" width="1" height="1" fill="#973793" /><rect x="9" y="5" width="1" height="1" fill="#eab71d" /><rect x="9" y="6" width="1" height="1" fill="#993694" /><rect x="9" y="7" width="1" height="1" fill="#9d3a91" /><rect x="9" y="8" width="1" height="1" fill="#e8b122" /><rect x="9" y="9" width="1" height="1" fill="#9d3694" /></g></svg>