<svg width="800" height="1000" xmlns="http://www.w3.org/2000/svg"><defs><linearGradient id="g" x1="0" x2="1" y1="0" y2="1"><stop offset="0%" stop-color="#2d3c96"/><stop offset="100%" stop-color="#d53392"/></linearGradient></defs><rect x="10" y="10" width="780" height="980" fill="url(#g)" rx="50" ry="50" stroke="gold" stroke-width="20"/><text x="400" y="920" width="780" text-anchor="middle" style="font:bold 200px 'Helvetica Neue';fill:gold">04302</text><g transform="translate(80 80) scale(64)"><rect x="0" y="0" width="1" height="1" fill="#553b96" /><rect x="0" y="1" width="1" height="1" fill="#563b96" /><rect x="0" y="2" width="1" height="1" fill="#5a3d94" /><rect x="0" y="3" width="1" height="1" fill="#a58351" /><rect x="0" y="4" width="1" height="1" fill="#d1ab2a" /><rect x="0" y="5" width="1" height="1" fill="#be993b" /><rect x="0" y="6" width="1" height="1" fill="#704f83" /><rect x="0" y="7" width="1" height="1" fill="#5d3b96" /><rect x="0" y="8" width="1" height="1" fill="#5e3b96" /><rect x="0" y="9" width="1" height="1" fill="#5f3b96" /><rect x="1" y="0" width="1" height="1" fill="#573b96" /><rect x="1" y="1" width="1" height="1" fill="#583b96" /><rect x="1" y="2" width="1" height="1" fill="#b9963f" /><rect x="1" y="3" width="1" height="1" fill="#ffd700" /><rect x="1" y="4" width="1" height="1" fill="#ffd700" /><rect x="1" y="5" width="1" height="1" fill="#ffd700" /><rect x="1" y="6" width="1" height="1" fill="#ecc512" /><rect x="1" y="7" width="1" height="1" fill="#69448d" /><rect x="1" y="8" width="1" height="1" fill="#603b96" /><rect x="1" y="9" width="1" height="1" fill="#613b96" /><rect x="2" y="0" width="1" height="1" fill="#583b96" /><rect x="2" y="1" width="1" height="1" fill="#6a4b87" /><rect x="2" y="2" width="1" height="1" fill="#fbd304" /><rect x="2" y="3" width="1" height="1" fill="#b99341" /><rect x="2" y="4" width="1" height="1" fill="#65428f" /><rect x="2" y="5" width="1" height="1" fill="#a58054" /><rect x="2" y="6" width="1" height="1" fill="#ffd700" /><rect x="2" y="7" width="1" height="1" fill="#af894b" /><rect x="2" y="8" width="1" height="1" fill="#613b95" /><rect x="2" y="9" width="1" height="1" fill="#623b95" /><rect x="3" y="0" width="1" height="1" fill="#5a3b96" /><rect x="3" y="1" width="1" height="1" fill="#8e6c68" /><rect x="3" y="2" width="1" height="1" fill="#ffd700" /><rect x="3" y="3" width="1" height="1" fill="#6f4d86" /><rect x="3" y="4" width="1" height="1" fill="#5e3b96" /><rect x="3" y="5" width="1" height="1" fill="#603c95" /><rect x="3" y="6" width="1" height="1" fill="#e1b91d" /><rect x="3" y="7" width="1" height="1" fill="#f0c90e" /><rect x="3" y="8" width="1" height="1" fill="#663e92" /><rect x="3" y="9" width="1" height="1" fill="#643b95" /><rect x="4" y="0" width="1" height="1" fill="#5b3b96" /><rect x="4" y="1" width="1" height="1" fill="#9d785b" /><rect x="4" y="2" width="1" height="1" fill="#ffd700" /><rect x="4" y="3" width="1" height="1" fill="#6b478b" /><rect x="4" y="4" width="1" height="1" fill="#603b96" /><rect x="4" y="5" width="1" height="1" fill="#613b95" /><rect x="4" y="6" width="1" height="1" fill="#9f775b" /><rect x="4" y="7" width="1" height="1" fill="#ffd700" /><rect x="4" y="8" width="1" height="1" fill="#a1795a" /><rect x="4" y="9" width="1" height="1" fill="#663b95" /><rect x="5" y="0" width="1" height="1" fill="#5d3b96" /><rect x="5" y="1" width="1" height="1" fill="#8e6969" /><rect x="5" y="2" width="1" height="1" fill="#ffd700" /><rect x="5" y="3" width="1" height="1" fill="#856073" /><rect x="5" y="4" width="1" height="1" fill="#623b95" /><rect x="5" y="5" width="1" height="1" fill="#633b95" /><rect x="5" y="6" width="1" height="1" fill="#694090" /><rect x="5" y="7" width="1" height="1" fill="#edc611" /><rect x="5" y="8" width="1" height="1" fill="#fad205" /><rect x="5" y="9" width="1" height="1" fill="#bb9143" /><rect x="6" y="0" width="1" height="1" fill="#5f3b96" /><rect x="6" y="1" width="1" height="1" fill="#69458d" /><rect x="6" y="2" width="1" height="1" fill="#dfb81e" /><rect x="6" y="3" width="1" height="1" fill="#ae874d" /><rect x="6" y="4" width="1" height="1" fill="#633b95" /><rect x="6" y="5" width="1" height="1" fill="#643b95" /><rect x="6" y="6" width="1" height="1" fill="#653b95" /><rect x="6" y="7" width="1" height="1" fill="#8c6171" /><rect x="6" y="8" width="1" height="1" fill="#f5cd0a" /><rect x="6" y="9" width="1" height="1" fill="#ffd700" /><rect x="7" y="0" width="1" height="1" fill="#603b96" /><rect x="7" y="1" width="1" height="1" fill="#704987" /><rect x="7" y="2" width="1" height="1" fill="#ab834f" /><rect x="7" y="3" width="1" height="1" fill="#774f82" /><rect x="7" y="4" width="1" height="1" fill="#653b95" /><rect x="7" y="5" width="1" height="1" fill="#663b95" /><rect x="7" y="6" width="1" height="1" fill="#673a95" /><rect x="7" y="7" width="1" height="1" fill="#683a95" /><rect x="7" y="8" width="1" height="1" fill="#72448c" /><rect x="7" y="9" width="1" height="1" fill="#8e6071" /><rect x="8" y="0" width="1" height="1" fill="#623b95" /><rect x="8" y="1" width="1" height="1" fill="#825a77" /><rect x="8" y="2" width="1" height="1" fill="#ffd700" /><rect x="8" y="3" width="1" height="1" fill="#8e646d" /><rect x="8" y="4" width="1" height="1" fill="#663b95" /><rect x="8" y="5" width="1" height="1" fill="#673a95" /><rect x="8" y="6" width="1" height="1" fill="#693a95" /><rect x="8" y="7" width="1" height="1" fill="#6a3a95" /><rect x="8" y="8" width="1" height="1" fill="#6b3a95" /><rect x="8" y="9" width="1" height="1" fill="#6c3a95" /><rect x="9" y="0" width="1" height="1" fill="#c59d38" /><rect x="9" y="1" width="1" height="1" fill="#d1a92c" /><rect x="9" y="2" width="1" height="1" fill="#ffd700" /><rect x="9" y="3" width="1" height="1" fill="#d6ad28" /><rect x="9" y="4" width="1" height="1" fill="#c79d38" /><rect x="9" y="5" width="1" height="1" fill="#c79d38" /><rect x="9" y="6" width="1" height="1" fill="#c79d38" /><rect x="9" y="7" width="1" height="1" fill="#c89d38" /><rect x="9" y="8" width="1" height="1" fill="#c89d38" /><rect x="9" y="9" width="1" height="1" fill="#c89b39" /></g></svg>