<svg width="800" height="1000" xmlns="http://www.w3.org/2000/svg"><defs><linearGradient id="g" x1="0" x2="1" y1="0" y2="1"><stop offset="0%" stop-color="#2d3c96"/><stop offset="100%" stop-color="#d53392"/></linearGradient></defs><rect x="10" y="10" width="780" height="980" fill="url(#g)" rx="50" ry="50" stroke="gold" stroke-width="20"/><text x="400" y="920" width="780" text-anchor="middle" style="font:bold 200px 'Helvetica Neue';fill:gold">04306</text><g transform="translate(80 80) scale(64)"><rect x="0" y="0" width="1" height="1" fill="#943694" /><rect x="0" y="1" width="1" height="1" fill="#953694" /><rect x="0" y="2" width="1" height="1" fill="#963694" /><rect x="0" y="3" width="1" height="1" fill="#d4943d" /><rect x="0" y="4" width="1" height="1" fill="#efbd17" /><rect x="0" y="5" width="1" height="1" fill="#f9ce08" /><rect x="0" y="6" width="1" height="1" fill="#9b3694" /><rect x="0" y="7" width="1" height="1" fill="#b96468" /><rect x="0" y="8" width="1" height="1" fill="#c87c53" /><rect x="0" y="9" width="1" height="1" fill="#9e3694" /><rect x="1" y="0" width="1" height="1" fill="#963694" /><rect x="1" y="1" width="1" height="1" fill="#973694" /><rect x="1" y="2" width="1" height="1" fill="#983694" /><rect x="1" y="3" width="1" height="1" fill="#993694" /><rect x="1" y="4" width="1" height="1" fill="#a54884" /><rect x="1" y="5" width="1" height="1" fill="#b45e6f" /><rect x="1" y="6" width="1" height="1" fill="#9d3694" /><rect x="1" y="7" width="1" height="1" fill="#9e3694" /><rect x="1" y="8" width="1" height="1" fill="#9f3694" /><rect x="1" y="9" width="1" height="1" fill="#a03694" /><rect x="2" y="0" width="1" height="1" fill="#973694" /><rect x="2" y="1" width="1" height="1" fill="#983694" /><rect x="2" y="2" width="1" height="1" fill="#a34487" /><rect x="2" y="3" width="1" height="1" fill="#c67b54" /><rect x="2" y="4" width="1" height="1" fill="#c77b54" /><rect x="2" y="5" width="1" height="1" fill="#c77b54" /><rect x="2" y="6" width="1" height="1" fill="#c67758" /><rect x="2" y="7" width="1" height="1" fill="#b65c70" /><rect x="2" y="8" width="1" height="1" fill="#a13694" /><rect x="2" y="9" width="1" height="1" fill="#a23694" /><rect x="3" y="0" width="1" height="1" fill="#993694" /><rect x="3" y="1" width="1" height="1" fill="#9a3694" /><rect x="3" y="2" width="1" height="1" fill="#a54685" /><rect x="3" y="3" width="1" height="1" fill="#ce8847" /><rect x="3" y="4" width="1" height="1" fill="#cf8847" /><rect x="3" y="5" width="1" height="1" fill="#d08847" /><rect x="3" y="6" width="1" height="1" fill="#d48e42" /><rect x="3" y="7" width="1" height="1" fill="#efbb19" /><rect x="3" y="8" width="1" height="1" fill="#d18848" /><rect x="3" y="9" width="1" height="1" fill="#a33594" /><rect x="4" y="0" width="1" height="1" fill="#9b3694" /><rect x="4" y="1" width="1" height="1" fill="#9c3694" /><rect x="4" y="2" width="1" height="1" fill="#9d3694" /><rect x="4" y="3" width="1" height="1" fill="#9e3694" /><rect x="4" y="4" width="1" height="1" fill="#9f3694" /><rect x="4" y="5" width="1" height="1" fill="#a03694" /><rect x="4" y="6" width="1" height="1" fill="#a13694" /><rect x="4" y="7" width="1" height="1" fill="#a83d8d" /><rect x="4" y="8" width="1" height="1" fill="#eeb91b" /><rect x="4" y="9" width="1" height="1" fill="#a53593" /><rect x="5" y="0" width="1" height="1" fill="#9c3694" /><rect x="5" y="1" width="1" height="1" fill="#9d3694" /><rect x="5" y="2" width="1" height="1" fill="#9e3694" /><rect x="5" y="3" width="1" height="1" fill="#a03694" /><rect x="5" y="4" width="1" height="1" fill="#a13694" /><rect x="5" y="5" width="1" height="1" fill="#a23594" /><rect x="5" y="6" width="1" height="1" fill="#a33594" /><rect x="5" y="7" width="1" height="1" fill="#ac4387" /><rect x="5" y="8" width="1" height="1" fill="#e2a32f" /><rect x="5" y="9" width="1" height="1" fill="#a73593" /><rect x="6" y="0" width="1" height="1" fill="#9e3694" /><rect x="6" y="1" width="1" height="1" fill="#9f3694" /><rect x="6" y="2" width="1" height="1" fill="#a94586" /><rect x="6" y="3" width="1" height="1" fill="#cd814f" /><rect x="6" y="4" width="1" height="1" fill="#cd7f4f" /><rect x="6" y="5" width="1" height="1" fill="#cf7f4f" /><rect x="6" y="6" width="1" height="1" fill="#d28748" /><rect x="6" y="7" width="1" height="1" fill="#f0bd18" /><rect x="6" y="8" width="1" height="1" fill="#cd7a54" /><rect x="6" y="9" width="1" height="1" fill="#a83593" /><rect x="7" y="0" width="1" height="1" fill="#9f3694" /><rect x="7" y="1" width="1" height="1" fill="#a13694" /><rect x="7" y="2" width="1" height="1" fill="#ab4686" /><rect x="7" y="3" width="1" height="1" fill="#d1854b" /><rect x="7" y="4" width="1" height="1" fill="#d1854b" /><rect x="7" y="5" width="1" height="1" fill="#d2854a" /><rect x="7" y="6" width="1" height="1" fill="#d2854a" /><rect x="7" y="7" width="1" height="1" fill="#d3854a" /><rect x="7" y="8" width="1" height="1" fill="#c86f5e" /><rect x="7" y="9" width="1" height="1" fill="#aa3593" /><rect x="8" y="0" width="1" height="1" fill="#a13694" /><rect x="8" y="1" width="1" height="1" fill="#a23594" /><rect x="8" y="2" width="1" height="1" fill="#a33594" /><rect x="8" y="3" width="1" height="1" fill="#a43593" /><rect x="8" y="4" width="1" height="1" fill="#a63593" /><rect x="8" y="5" width="1" height="1" fill="#a73593" /><rect x="8" y="6" width="1" height="1" fill="#a83593" /><rect x="8" y="7" width="1" height="1" fill="#a93593" /><rect x="8" y="8" width="1" height="1" fill="#aa3593" /><rect x="8" y="9" width="1" height="1" fill="#ab3593" /><rect x="9" y="0" width="1" height="1" fill="#a33594" /><rect x="9" y="1" width="1" height="1" fill="#a43594" /><rect x="9" y="2" width="1" height="1" fill="#b04882" /><rect x="9" y="3" width="1" height="1" fill="#db953b" /><rect x="9" y="4" width="1" height="1" fill="#db953b" /><rect x="9" y="5" width="1" height="1" fill="#db953b" /><rect x="9" y="6" width="1" height="1" fill="#dc953b" /><rect x="9" y="7" width="1" height="1" fill="#dd953b" /><rect x="9" y="8" width="1" height="1" fill="#d17c52" /><rect x="9" y="9" width="1" height="1" fill="#ad3593" /></g></svg>