<svg width="800" height="1000" xmlns="http://www.w3.org/2000/svg"><defs><linearGradient id="g" x1="0" x2="1" y1="0" y2="1"><stop offset="0%" stop-color="#2d3c96"/><stop offset="100%" stop-color="#d53392"/></linearGradient></defs><rect x="10" y="10" width="780" height="980" fill="url(#g)" rx="50" ry="50" stroke="gold" stroke-width="20"/><text x="400" y="920" width="780" text-anchor="middle" style="font:bold 200px 'Helvetica Neue';fill:gold">04304</text><g transform="translate(80 80) scale(64)"><rect x="0" y="0" width="1" height="1" fill="#cd9e36" /><rect x="0" y="1" width="1" height="1" fill="#ce9e36" /><rect x="0" y="2" width="1" height="1" fill="#ce9e36" /><rect x="0" y="3" width="1" height="1" fill="#ce9e36" /><rect x="0" y="4" width="1" height="1" fill="#cf9e36" /><rect x="0" y="5" width="1" height="1" fill="#cf9e36" /><rect x="0" y="6" width="1" height="1" fill="#d09e36" /><rect x="0" y="7" width="1" height="1" fill="#d09e36" /><rect x="0" y="8" width="1" height="1" fill="#d09e36" /><rect x="0" y="9" width="1" height="1" fill="#d19e36" /><rect x="1" y="0" width="1" height="1" fill="#ffd700" /><rect x="1" y="1" width="1" height="1" fill="#ffd700" /><rect x="1" y="2" width="1" height="1" fill="#ffd700" /><rect x="1" y="3" width="1" height="1" fill="#ffd700" /><rect x="1" y="4" width="1" height="1" fill="#ffd700" /><rect x="1" y="5" width="1" height="1" fill="#ffd700" /><rect x="1" y="6" width="1" height="1" fill="#ffd700" /><rect x="1" y="7" width="1" height="1" fill="#ffd700" /><rect x="1" y="8" width="1" height="1" fill="#ffd700" /><rect x="1" y="9" width="1" height="1" fill="#ffd700" /><rect x="2" y="0" width="1" height="1" fill="#bf8d46" /><rect x="2" y="1" width="1" height="1" fill="#894d83" /><rect x="2" y="2" width="1" height="1" fill="#894c85" /><rect x="2" y="3" width="1" height="1" fill="#8a4b85" /><rect x="2" y="4" width="1" height="1" fill="#8b4b85" /><rect x="2" y="5" width="1" height="1" fill="#8c4b85" /><rect x="2" y="6" width="1" height="1" fill="#8d4b85" /><rect x="2" y="7" width="1" height="1" fill="#8e4b85" /><rect x="2" y="8" width="1" height="1" fill="#8f4b85" /><rect x="2" y="9" width="1" height="1" fill="#904b85" /><rect x="3" y="0" width="1" height="1" fill="#ffd700" /><rect x="3" y="1" width="1" height="1" fill="#e8bb1a" /><rect x="3" y="2" width="1" height="1" fill="#975a76" /><rect x="3" y="3" width="1" height="1" fill="#7d3995" /><rect x="3" y="4" width="1" height="1" fill="#7e3995" /><rect x="3" y="5" width="1" height="1" fill="#803995" /><rect x="3" y="6" width="1" height="1" fill="#813995" /><rect x="3" y="7" width="1" height="1" fill="#823995" /><rect x="3" y="8" width="1" height="1" fill="#833995" /><rect x="3" y="9" width="1" height="1" fill="#843995" /><rect x="4" y="0" width="1" height="1" fill="#be894a" /><rect x="4" y="1" width="1" height="1" fill="#fcd304" /><rect x="4" y="2" width="1" height="1" fill="#fdd502" /><rect x="4" y="3" width="1" height="1" fill="#c69043" /><rect x="4" y="4" width="1" height="1" fill="#853f8f" /><rect x="4" y="5" width="1" height="1" fill="#813995" /><rect x="4" y="6" width="1" height="1" fill="#823995" /><rect x="4" y="7" width="1" height="1" fill="#833995" /><rect x="4" y="8" width="1" height="1" fill="#853995" /><rect x="4" y="9" width="1" height="1" fill="#863995" /><rect x="5" y="0" width="1" height="1" fill="#7d3995" /><rect x="5" y="1" width="1" height="1" fill="#94537c" /><rect x="5" y="2" width="1" height="1" fill="#e3b520" /><rect x="5" y="3" width="1" height="1" fill="#ffd700" /><rect x="5" y="4" width="1" height="1" fill="#eec114" /><rect x="5" y="5" width="1" height="1" fill="#a3616f" /><rect x="5" y="6" width="1" height="1" fill="#843995" /><rect x="5" y="7" width="1" height="1" fill="#853995" /><rect x="5" y="8" width="1" height="1" fill="#863995" /><rect x="5" y="9" width="1" height="1" fill="#873995" /><rect x="6" y="0" width="1" height="1" fill="#7f3995" /><rect x="6" y="1" width="1" height="1" fill="#803995" /><rect x="6" y="2" width="1" height="1" fill="#823b93" /><rect x="6" y="3" width="1" height="1" fill="#b67b56" /><rect x="6" y="4" width="1" height="1" fill="#f9cf08" /><rect x="6" y="5" width="1" height="1" fill="#ffd601" /><rect x="6" y="6" width="1" height="1" fill="#d09a39" /><rect x="6" y="7" width="1" height="1" fill="#8e438c" /><rect x="6" y="8" width="1" height="1" fill="#883995" /><rect x="6" y="9" width="1" height="1" fill="#893995" /><rect x="7" y="0" width="1" height="1" fill="#803995" /><rect x="7" y="1" width="1" height="1" fill="#813995" /><rect x="7" y="2" width="1" height="1" fill="#823995" /><rect x="7" y="3" width="1" height="1" fill="#843995" /><rect x="7" y="4" width="1" height="1" fill="#934b84" /><rect x="7" y="5" width="1" height="1" fill="#dcaa2b" /><rect x="7" y="6" width="1" height="1" fill="#ffd700" /><rect x="7" y="7" width="1" height="1" fill="#f2c610" /><rect x="7" y="8" width="1" height="1" fill="#af6c64" /><rect x="7" y="9" width="1" height="1" fill="#8b3995" /><rect x="8" y="0" width="1" height="1" fill="#823995" /><rect x="8" y="1" width="1" height="1" fill="#833995" /><rect x="8" y="2" width="1" height="1" fill="#843995" /><rect x="8" y="3" width="1" height="1" fill="#853995" /><rect x="8" y="4" width="1" height="1" fill="#863995" /><rect x="8" y="5" width="1" height="1" fill="#883995" /><rect x="8" y="6" width="1" height="1" fill="#b06e63" /><rect x="8" y="7" width="1" height="1" fill="#f4c80e" /><rect x="8" y="8" width="1" height="1" fill="#ffd700" /><rect x="8" y="9" width="1" height="1" fill="#daa430" /><rect x="9" y="0" width="1" height="1" fill="#833995" /><rect x="9" y="1" width="1" height="1" fill="#853995" /><rect x="9" y="2" width="1" height="1" fill="#863995" /><rect x="9" y="3" width="1" height="1" fill="#873995" /><rect x="9" y="4" width="1" height="1" fill="#883995" /><rect x="9" y="5" width="1" height="1" fill="#893995" /><rect x="9" y="6" width="1" height="1" fill="#8a3995" /><rect x="9" y="7" width="1" height="1" fill="#93438b" /><rect x="9" y="8" width="1" height="1" fill="#d39a3a" /><rect x="9" y="9" width="1" height="1" fill="#ffd601" /></g></svg>