<svg width="800" height="1000" xmlns="http://www.w3.org/2000/svg"><defs><linearGradient id="g" x1="0" x2="1" y1="0" y2="1"><stop offset="0%" stop-color="#2d3c96"/><stop offset="100%" stop-color="#d53392"/></linearGradient></defs><rect x="10" y="10" width="780" height="980" fill="url(#g)" rx="50" ry="50" stroke="gold" stroke-width="20"/><text x="400" y="920" width="780" text-anchor="middle" style="font:bold 200px 'Helvetica Neue';fill:gold">04301</text><g transform="translate(80 80) scale(64)"><rect x="0" y="0" width="1" height="1" fill="#443b96" /><rect x="0" y="1" width="1" height="1" fill="#453b96" /><rect x="0" y="2" width="1" height="1" fill="#463b96" /><rect x="0" y="3" width="1" height="1" fill="#473b96" /><rect x="0" y="4" width="1" height="1" fill="#493b96" /><rect x="0" y="5" width="1" height="1" fill="#4a3b96" /><rect x="0" y="6" width="1" height="1" fill="#4b3b96" /><rect x="0" y="7" width="1" height="1" fill="#4c3b96" /><rect x="0" y="8" width="1" height="1" fill="#4d3b96" /><rect x="0" y="9" width="1" height="1" fill="#4e3a95" /><rect x="1" y="0" width="1" height="1" fill="#463b96" /><rect x="1" y="1" width="1" height="1" fill="#473b96" /><rect x="1" y="2" width="1" height="1" fill="#483b96" /><rect x="1" y="3" width="1" height="1" fill="#493b96" /><rect x="1" y="4" width="1" height="1" fill="#4a3b96" /><rect x="1" y="5" width="1" height="1" fill="#4b3b96" /><rect x="1" y="6" width="1" height="1" fill="#4c3b96" /><rect x="1" y="7" width="1" height="1" fill="#4e3a95" /><rect x="1" y="8" width="1" height="1" fill="#4f3a95" /><rect x="1" y="9" width="1" height="1" fill="#503a95" /><rect x="2" y="0" width="1" height="1" fill="#473b96" /><rect x="2" y="1" width="1" height="1" fill="#483b96" /><rect x="2" y="2" width="1" height="1" fill="#493b96" /><rect x="2" y="3" width="1" height="1" fill="#58468c" /><rect x="2" y="4" width="1" height="1" fill="#af9143" /><rect x="2" y="5" width="1" height="1" fill="#d4b224" /><rect x="2" y="6" width="1" height="1" fill="#ccab2b" /><rect x="2" y="7" width="1" height="1" fill="#90735e" /><rect x="2" y="8" width="1" height="1" fill="#513b94" /><rect x="2" y="9" width="1" height="1" fill="#513a95" /><rect x="3" y="0" width="1" height="1" fill="#493b96" /><rect x="3" y="1" width="1" height="1" fill="#4a3b96" /><rect x="3" y="2" width="1" height="1" fill="#4e3d94" /><rect x="3" y="3" width="1" height="1" fill="#d9b720" /><rect x="3" y="4" width="1" height="1" fill="#a3874e" /><rect x="3" y="5" width="1" height="1" fill="#725b77" /><rect x="3" y="6" width="1" height="1" fill="#7e646d" /><rect x="3" y="7" width="1" height="1" fill="#d5b223" /><rect x="3" y="8" width="1" height="1" fill="#997a58" /><rect x="3" y="9" width="1" height="1" fill="#533995" /><rect x="4" y="0" width="1" height="1" fill="#4a3b96" /><rect x="4" y="1" width="1" height="1" fill="#4c3b96" /><rect x="4" y="2" width="1" height="1" fill="#715b77" /><rect x="4" y="3" width="1" height="1" fill="#be9e37" /><rect x="4" y="4" width="1" height="1" fill="#4f3a95" /><rect x="4" y="5" width="1" height="1" fill="#503a95" /><rect x="4" y="6" width="1" height="1" fill="#513a95" /><rect x="4" y="7" width="1" height="1" fill="#5f468a" /><rect x="4" y="8" width="1" height="1" fill="#d8b322" /><rect x="4" y="9" width="1" height="1" fill="#553995" /><rect x="5" y="0" width="1" height="1" fill="#4c3b96" /><rect x="5" y="1" width="1" height="1" fill="#4d3b96" /><rect x="5" y="2" width="1" height="1" fill="#7c636d" /><rect x="5" y="3" width="1" height="1" fill="#af9043" /><rect x="5" y="4" width="1" height="1" fill="#513a95" /><rect x="5" y="5" width="1" height="1" fill="#523995" /><rect x="5" y="6" width="1" height="1" fill="#533995" /><rect x="5" y="7" width="1" height="1" fill="#573c92" /><rect x="5" y="8" width="1" height="1" fill="#d9b421" /><rect x="5" y="9" width="1" height="1" fill="#563995" /><rect x="6" y="0" width="1" height="1" fill="#4e3a95" /><rect x="6" y="1" width="1" height="1" fill="#4f3a95" /><rect x="6" y="2" width="1" height="1" fill="#5c468b" /><rect x="6" y="3" width="1" height="1" fill="#e6c115" /><rect x="6" y="4" width="1" height="1" fill="#7d6170" /><rect x="6" y="5" width="1" height="1" fill="#553b93" /><rect x="6" y="6" width="1" height="1" fill="#5e448c" /><rect x="6" y="7" width="1" height="1" fill="#b69340" /><rect x="6" y="8" width="1" height="1" fill="#aa874b" /><rect x="6" y="9" width="1" height="1" fill="#583995" /><rect x="7" y="0" width="1" height="1" fill="#4f3a95" /><rect x="7" y="1" width="1" height="1" fill="#503a95" /><rect x="7" y="2" width="1" height="1" fill="#513a95" /><rect x="7" y="3" width="1" height="1" fill="#7c6072" /><rect x="7" y="4" width="1" height="1" fill="#dbb51f" /><rect x="7" y="5" width="1" height="1" fill="#f7d007" /><rect x="7" y="6" width="1" height="1" fill="#eec70f" /><rect x="7" y="7" width="1" height="1" fill="#b08e46" /><rect x="7" y="8" width="1" height="1" fill="#5c3d92" /><rect x="7" y="9" width="1" height="1" fill="#593995" /><rect x="8" y="0" width="1" height="1" fill="#513a95" /><rect x="8" y="1" width="1" height="1" fill="#523995" /><rect x="8" y="2" width="1" height="1" fill="#533995" /><rect x="8" y="3" width="1" height="1" fill="#543995" /><rect x="8" y="4" width="1" height="1" fill="#553995" /><rect x="8" y="5" width="1" height="1" fill="#563995" /><rect x="8" y="6" width="1" height="1" fill="#583995" /><rect x="8" y="7" width="1" height="1" fill="#593995" /><rect x="8" y="8" width="1" height="1" fill="#5a3995" /><rect x="8" y="9" width="1" height="1" fill="#5b3995" /><rect x="9" y="0" width="1" height="1" fill="#523995" /><rect x="9" y="1" width="1" height="1" fill="#543995" /><rect x="9" y="2" width="1" height="1" fill="#654987" /><rect x="9" y="3" width="1" height="1" fill="#a6844e" /><rect x="9" y="4" width="1" height="1" fill="#a7844e" /><rect x="9" y="5" width="1" height="1" fill="#a7844e" /><rect x="9" y="6" width="1" height="1" fill="#a8844e" /><rect x="9" y="7" width="1" height="1" fill="#a8844e" /><rect x="9" y="8" width="1" height="1" fill="#946f61" /><rect x="9" y="9" width="1" height="1" fill="#5d3995" /></g></svg>