<svg width="800" height="1000" version="1.1" xmlns="http://www.w3.org/2000/svg" xmlns:xlink="http://www.w3.org/1999/xlink">
  <defs>
      <linearGradient id="Gradient2" x1="0" x2="1" y1="0" y2="1">
        <stop offset="0%" stop-color="#2d3c96"/>
        <stop offset="100%" stop-color="#d53392"/>
      </linearGradient>
  </defs>
  <rect x="10" y="10" width="780" height="980" fill="url(#Gradient2)" rx="50" ry="50" stroke="#ffd700" stroke-width="20"/>
  <text x="400" y="920" width="780" text-anchor="middle" style="font: bold 200px 'Helvetica Neue'; fill: #ffd700">04343</text>

  <g transform="translate(80 80) scale(64)">
<rect x="0" y="0" width="1" height="1" fill="#CFA79F" /><rect x="1" y="0" width="1" height="1" fill="#CFA79F" /><rect x="2" y="0" width="1" height="1" fill="#CDA9A0" /><rect x="3" y="0" width="1" height="1" fill="#CFA79F" /><rect x="4" y="0" width="1" height="1" fill="#C7A297" /><rect x="5" y="0" width="1" height="1" fill="#675733" /><rect x="6" y="0" width="1" height="1" fill="#A68D73" /><rect x="7" y="0" width="1" height="1" fill="#675733" /><rect x="8" y="0" width="1" height="1" fill="#F29C23" /><rect x="9" y="0" width="1" height="1" fill="#F29C25" /><rect x="0" y="1" width="1" height="1" fill="#DDD7B6" /><rect x="1" y="1" width="1" height="1" fill="#ECE7C0" /><rect x="2" y="1" width="1" height="1" fill="#D5B8A6" /><rect x="3" y="1" width="1" height="1" fill="#CFA79F" /><rect x="4" y="1" width="1" height="1" fill="#9F8A6C" /><rect x="5" y="1" width="1" height="1" fill="#675733" /><rect x="6" y="1" width="1" height="1" fill="#675637" /><rect x="7" y="1" width="1" height="1" fill="#D28824" /><rect x="8" y="1" width="1" height="1" fill="#F29C25" /><rect x="9" y="1" width="1" height="1" fill="#F29C25" /><rect x="0" y="2" width="1" height="1" fill="#F8FFD3" /><rect x="1" y="2" width="1" height="1" fill="#F8FFD3" /><rect x="2" y="2" width="1" height="1" fill="#F8FFD3" /><rect x="3" y="2" width="1" height="1" fill="#D6B8A3" /><rect x="4" y="2" width="1" height="1" fill="#695835" /><rect x="5" y="2" width="1" height="1" fill="#B87E2C" /><rect x="6" y="2" width="1" height="1" fill="#F29C25" /><rect x="7" y="2" width="1" height="1" fill="#F29C25" /><rect x="8" y="2" width="1" height="1" fill="#F29C25" /><rect x="9" y="2" width="1" height="1" fill="#F29C25" /><rect x="0" y="3" width="1" height="1" fill="#DAE0B1" /><rect x="1" y="3" width="1" height="1" fill="#DADBAF" /><rect x="2" y="3" width="1" height="1" fill="#E2D1B4" /><rect x="3" y="3" width="1" height="1" fill="#7F674C" /><rect x="4" y="3" width="1" height="1" fill="#6F5A30" /><rect x="5" y="3" width="1" height="1" fill="#F29C25" /><rect x="6" y="3" width="1" height="1" fill="#F29C25" /><rect x="7" y="3" width="1" height="1" fill="#F29C25" /><rect x="8" y="3" width="1" height="1" fill="#F29C25" /><rect x="9" y="3" width="1" height="1" fill="#F29C25" /><rect x="0" y="4" width="1" height="1" fill="#C7A297" /><rect x="1" y="4" width="1" height="1" fill="#A08A6C" /><rect x="2" y="4" width="1" height="1" fill="#695835" /><rect x="3" y="4" width="1" height="1" fill="#6F5A30" /><rect x="4" y="4" width="1" height="1" fill="#EE9C25" /><rect x="5" y="4" width="1" height="1" fill="#F29C25" /><rect x="6" y="4" width="1" height="1" fill="#F29C25" /><rect x="7" y="4" width="1" height="1" fill="#F29C25" /><rect x="8" y="4" width="1" height="1" fill="#F29C25" /><rect x="9" y="4" width="1" height="1" fill="#F29C25" /><rect x="0" y="5" width="1" height="1" fill="#675733" /><rect x="1" y="5" width="1" height="1" fill="#6F5A31" /><rect x="2" y="5" width="1" height="1" fill="#B77F2B" /><rect x="3" y="5" width="1" height="1" fill="#F29C25" /><rect x="4" y="5" width="1" height="1" fill="#F29C25" /><rect x="5" y="5" width="1" height="1" fill="#F29C25" /><rect x="6" y="5" width="1" height="1" fill="#F29C25" /><rect x="7" y="5" width="1" height="1" fill="#F29C25" /><rect x="8" y="5" width="1" height="1" fill="#F29C25" /><rect x="9" y="5" width="1" height="1" fill="#F29C25" /><rect x="0" y="6" width="1" height="1" fill="#675733" /><rect x="1" y="6" width="1" height="1" fill="#685732" /><rect x="2" y="6" width="1" height="1" fill="#685732" /><rect x="3" y="6" width="1" height="1" fill="#685732" /><rect x="4" y="6" width="1" height="1" fill="#685732" /><rect x="5" y="6" width="1" height="1" fill="#685731" /><rect x="6" y="6" width="1" height="1" fill="#F29C26" /><rect x="7" y="6" width="1" height="1" fill="#F29C25" /><rect x="8" y="6" width="1" height="1" fill="#F29C25" /><rect x="9" y="6" width="1" height="1" fill="#F29C25" /><rect x="0" y="7" width="1" height="1" fill="#675733" /><rect x="1" y="7" width="1" height="1" fill="#675733" /><rect x="2" y="7" width="1" height="1" fill="#675733" /><rect x="3" y="7" width="1" height="1" fill="#675733" /><rect x="4" y="7" width="1" height="1" fill="#675733" /><rect x="5" y="7" width="1" height="1" fill="#675733" /><rect x="6" y="7" width="1" height="1" fill="#F29C26" /><rect x="7" y="7" width="1" height="1" fill="#F29C25" /><rect x="8" y="7" width="1" height="1" fill="#F29C25" /><rect x="9" y="7" width="1" height="1" fill="#F29C25" /><rect x="0" y="8" width="1" height="1" fill="#675733" /><rect x="1" y="8" width="1" height="1" fill="#675733" /><rect x="2" y="8" width="1" height="1" fill="#756541" /><rect x="3" y="8" width="1" height="1" fill="#675733" /><rect x="4" y="8" width="1" height="1" fill="#675733" /><rect x="5" y="8" width="1" height="1" fill="#675733" /><rect x="6" y="8" width="1" height="1" fill="#F29C26" /><rect x="7" y="8" width="1" height="1" fill="#F29C25" /><rect x="8" y="8" width="1" height="1" fill="#F29C25" /><rect x="9" y="8" width="1" height="1" fill="#F29C25" /><rect x="0" y="9" width="1" height="1" fill="#675733" /><rect x="1" y="9" width="1" height="1" fill="#675733" /><rect x="2" y="9" width="1" height="1" fill="#675733" /><rect x="3" y="9" width="1" height="1" fill="#675733" /><rect x="4" y="9" width="1" height="1" fill="#675733" /><rect x="5" y="9" width="1" height="1" fill="#675733" /><rect x="6" y="9" width="1" height="1" fill="#F29C26" /><rect x="7" y="9" width="1" height="1" fill="#F29C25" /><rect x="8" y="9" width="1" height="1" fill="#F29C25" /><rect x="9" y="9" width="1" height="1" fill="#F29C25" />
  </g>
</svg>