<svg width="800" height="1000" xmlns="http://www.w3.org/2000/svg"><defs><linearGradient id="g" x1="0" x2="1" y1="0" y2="1"><stop offset="0%" stop-color="#2d3c96"/><stop offset="100%" stop-color="#d53392"/></linearGradient></defs><rect x="10" y="10" width="780" height="980" fill="url(#g)" rx="50" ry="50" stroke="gold" stroke-width="20"/><text x="400" y="920" width="780" text-anchor="middle" style="font:bold 200px 'Helvetica Neue';fill:gold">04358</text><g transform="translate(80 80) scale(64)"><rect x="0" y="0" width="1" height="1" fill="#fffefe" /><rect x="0" y="1" width="1" height="1" fill="#fefeff" /><rect x="0" y="2" width="1" height="1" fill="#feffff" /><rect x="0" y="3" width="1" height="1" fill="#fffeff" /><rect x="0" y="4" width="1" height="1" fill="#fefeff" /><rect x="0" y="5" width="1" height="1" fill="#ffffff" /><rect x="0" y="6" width="1" height="1" fill="#fefeff" /><rect x="0" y="7" width="1" height="1" fill="#fffffe" /><rect x="0" y="8" width="1" height="1" fill="#fffeff" /><rect x="0" y="9" width="1" height="1" fill="#fffefe" /><rect x="1" y="0" width="1" height="1" fill="#fffeff" /><rect x="1" y="1" width="1" height="1" fill="#fffeff" /><rect x="1" y="2" width="1" height="1" fill="#fffffe" /><rect x="1" y="3" width="1" height="1" fill="#ffffff" /><rect x="1" y="4" width="1" height="1" fill="#feffff" /><rect x="1" y="5" width="1" height="1" fill="#fffeff" /><rect x="1" y="6" width="1" height="1" fill="#fffffe" /><rect x="1" y="7" width="1" height="1" fill="#fefeff" /><rect x="1" y="8" width="1" height="1" fill="#fffefe" /><rect x="1" y="9" width="1" height="1" fill="#fefeff" /><rect x="2" y="0" width="1" height="1" fill="#fefffe" /><rect x="2" y="1" width="1" height="1" fill="#fefeff" /><rect x="2" y="2" width="1" height="1" fill="#787978" /><rect x="2" y="3" width="1" height="1" fill="#000001" /><rect x="2" y="4" width="1" height="1" fill="#6e6f6f" /><rect x="2" y="5" width="1" height="1" fill="#bab8bb" /><rect x="2" y="6" width="1" height="1" fill="#e4e0e2" /><rect x="2" y="7" width="1" height="1" fill="#fefefe" /><rect x="2" y="8" width="1" height="1" fill="#fefffe" /><rect x="2" y="9" width="1" height="1" fill="#fffeff" /><rect x="3" y="0" width="1" height="1" fill="#fefffe" /><rect x="3" y="1" width="1" height="1" fill="#fffffe" /><rect x="3" y="2" width="1" height="1" fill="#313130" /><rect x="3" y="3" width="1" height="1" fill="#010001" /><rect x="3" y="4" width="1" height="1" fill="#012406" /><rect x="3" y="5" width="1" height="1" fill="#011f03" /><rect x="3" y="6" width="1" height="1" fill="#011400" /><rect x="3" y="7" width="1" height="1" fill="#010100" /><rect x="3" y="8" width="1" height="1" fill="#000100" /><rect x="3" y="9" width="1" height="1" fill="#343435" /><rect x="4" y="0" width="1" height="1" fill="#fffeff" /><rect x="4" y="1" width="1" height="1" fill="#ffffff" /><rect x="4" y="2" width="1" height="1" fill="#fefeff" /><rect x="4" y="3" width="1" height="1" fill="#e9e7e7" /><rect x="4" y="4" width="1" height="1" fill="#aba8aa" /><rect x="4" y="5" width="1" height="1" fill="#888c8a" /><rect x="4" y="6" width="1" height="1" fill="#68706c" /><rect x="4" y="7" width="1" height="1" fill="#000100" /><rect x="4" y="8" width="1" height="1" fill="#000000" /><rect x="4" y="9" width="1" height="1" fill="#000101" /><rect x="5" y="0" width="1" height="1" fill="#fefffe" /><rect x="5" y="1" width="1" height="1" fill="#fefffe" /><rect x="5" y="2" width="1" height="1" fill="#ffffff" /><rect x="5" y="3" width="1" height="1" fill="#fffeff" /><rect x="5" y="4" width="1" height="1" fill="#fefeff" /><rect x="5" y="5" width="1" height="1" fill="#fffffe" /><rect x="5" y="6" width="1" height="1" fill="#131213" /><rect x="5" y="7" width="1" height="1" fill="#010000" /><rect x="5" y="8" width="1" height="1" fill="#010100" /><rect x="5" y="9" width="1" height="1" fill="#313130" /><rect x="6" y="0" width="1" height="1" fill="#fefffe" /><rect x="6" y="1" width="1" height="1" fill="#fffeff" /><rect x="6" y="2" width="1" height="1" fill="#ffffff" /><rect x="6" y="3" width="1" height="1" fill="#feffff" /><rect x="6" y="4" width="1" height="1" fill="#fefeff" /><rect x="6" y="5" width="1" height="1" fill="#171617" /><rect x="6" y="6" width="1" height="1" fill="#010101" /><rect x="6" y="7" width="1" height="1" fill="#010001" /><rect x="6" y="8" width="1" height="1" fill="#949494" /><rect x="6" y="9" width="1" height="1" fill="#fffffe" /><rect x="7" y="0" width="1" height="1" fill="#fefeff" /><rect x="7" y="1" width="1" height="1" fill="#fefeff" /><rect x="7" y="2" width="1" height="1" fill="#feffff" /><rect x="7" y="3" width="1" height="1" fill="#fefffe" /><rect x="7" y="4" width="1" height="1" fill="#fffffe" /><rect x="7" y="5" width="1" height="1" fill="#bebebe" /><rect x="7" y="6" width="1" height="1" fill="#070706" /><rect x="7" y="7" width="1" height="1" fill="#010101" /><rect x="7" y="8" width="1" height="1" fill="#000000" /><rect x="7" y="9" width="1" height="1" fill="#040404" /><rect x="8" y="0" width="1" height="1" fill="#fffeff" /><rect x="8" y="1" width="1" height="1" fill="#ffffff" /><rect x="8" y="2" width="1" height="1" fill="#fefefe" /><rect x="8" y="3" width="1" height="1" fill="#fffeff" /><rect x="8" y="4" width="1" height="1" fill="#fffeff" /><rect x="8" y="5" width="1" height="1" fill="#dadada" /><rect x="8" y="6" width="1" height="1" fill="#161616" /><rect x="8" y="7" width="1" height="1" fill="#010000" /><rect x="8" y="8" width="1" height="1" fill="#010101" /><rect x="8" y="9" width="1" height="1" fill="#000100" /><rect x="9" y="0" width="1" height="1" fill="#fffffe" /><rect x="9" y="1" width="1" height="1" fill="#feffff" /><rect x="9" y="2" width="1" height="1" fill="#feffff" /><rect x="9" y="3" width="1" height="1" fill="#fefefe" /><rect x="9" y="4" width="1" height="1" fill="#fefeff" /><rect x="9" y="5" width="1" height="1" fill="#343434" /><rect x="9" y="6" width="1" height="1" fill="#000001" /><rect x="9" y="7" width="1" height="1" fill="#000000" /><rect x="9" y="8" width="1" height="1" fill="#2f2f30" /><rect x="9" y="9" width="1" height="1" fill="#fefffe" /></g></svg>