<svg width="800" height="1000" xmlns="http://www.w3.org/2000/svg"><defs><linearGradient id="g" x1="0" x2="1" y1="0" y2="1"><stop offset="0%" stop-color="#2d3c96"/><stop offset="100%" stop-color="#d53392"/></linearGradient></defs><rect x="10" y="10" width="780" height="980" fill="url(#g)" rx="50" ry="50" stroke="gold" stroke-width="20"/><text x="400" y="920" width="780" text-anchor="middle" style="font:bold 200px 'Helvetica Neue';fill:gold">04402</text><g transform="translate(80 80) scale(64)"><rect x="0" y="0" width="1" height="1" fill="#a07a59" /><rect x="0" y="1" width="1" height="1" fill="#ddb521" /><rect x="0" y="2" width="1" height="1" fill="#825a77" /><rect x="0" y="3" width="1" height="1" fill="#643b95" /><rect x="0" y="4" width="1" height="1" fill="#653b95" /><rect x="0" y="5" width="1" height="1" fill="#663b95" /><rect x="0" y="6" width="1" height="1" fill="#81547c" /><rect x="0" y="7" width="1" height="1" fill="#eec510" /><rect x="0" y="8" width="1" height="1" fill="#6a3a95" /><rect x="0" y="9" width="1" height="1" fill="#6b3a95" /><rect x="1" y="0" width="1" height="1" fill="#704988" /><rect x="1" y="1" width="1" height="1" fill="#fbd304" /><rect x="1" y="2" width="1" height="1" fill="#b88f44" /><rect x="1" y="3" width="1" height="1" fill="#653b95" /><rect x="1" y="4" width="1" height="1" fill="#673b95" /><rect x="1" y="5" width="1" height="1" fill="#683a95" /><rect x="1" y="6" width="1" height="1" fill="#82547c" /><rect x="1" y="7" width="1" height="1" fill="#efc510" /><rect x="1" y="8" width="1" height="1" fill="#6b3a95" /><rect x="1" y="9" width="1" height="1" fill="#6c3a95" /><rect x="2" y="0" width="1" height="1" fill="#643b95" /><rect x="2" y="1" width="1" height="1" fill="#e3ba1b" /><rect x="2" y="2" width="1" height="1" fill="#d0a62e" /><rect x="2" y="3" width="1" height="1" fill="#673a95" /><rect x="2" y="4" width="1" height="1" fill="#683a95" /><rect x="2" y="5" width="1" height="1" fill="#693a95" /><rect x="2" y="6" width="1" height="1" fill="#83547c" /><rect x="2" y="7" width="1" height="1" fill="#efc510" /><rect x="2" y="8" width="1" height="1" fill="#6d3a95" /><rect x="2" y="9" width="1" height="1" fill="#6e3a95" /><rect x="3" y="0" width="1" height="1" fill="#653b95" /><rect x="3" y="1" width="1" height="1" fill="#d5ac29" /><rect x="3" y="2" width="1" height="1" fill="#d1a82d" /><rect x="3" y="3" width="1" height="1" fill="#693a95" /><rect x="3" y="4" width="1" height="1" fill="#6a3a95" /><rect x="3" y="5" width="1" height="1" fill="#6b3a95" /><rect x="3" y="6" width="1" height="1" fill="#794888" /><rect x="3" y="7" width="1" height="1" fill="#af8251" /><rect x="3" y="8" width="1" height="1" fill="#6e3a95" /><rect x="3" y="9" width="1" height="1" fill="#6f3a95" /><rect x="4" y="0" width="1" height="1" fill="#683c94" /><rect x="4" y="1" width="1" height="1" fill="#edc512" /><rect x="4" y="2" width="1" height="1" fill="#bd9241" /><rect x="4" y="3" width="1" height="1" fill="#6a3a95" /><rect x="4" y="4" width="1" height="1" fill="#6b3a95" /><rect x="4" y="5" width="1" height="1" fill="#6d3a95" /><rect x="4" y="6" width="1" height="1" fill="#6e3a95" /><rect x="4" y="7" width="1" height="1" fill="#6f3a95" /><rect x="4" y="8" width="1" height="1" fill="#703a95" /><rect x="4" y="9" width="1" height="1" fill="#713a95" /><rect x="5" y="0" width="1" height="1" fill="#d2a82c" /><rect x="5" y="1" width="1" height="1" fill="#ffd700" /><rect x="5" y="2" width="1" height="1" fill="#895a77" /><rect x="5" y="3" width="1" height="1" fill="#6c3a95" /><rect x="5" y="4" width="1" height="1" fill="#6d3a95" /><rect x="5" y="5" width="1" height="1" fill="#6e3a95" /><rect x="5" y="6" width="1" height="1" fill="#744090" /><rect x="5" y="7" width="1" height="1" fill="#88547c" /><rect x="5" y="8" width="1" height="1" fill="#8a547c" /><rect x="5" y="9" width="1" height="1" fill="#8b547c" /><rect x="6" y="0" width="1" height="1" fill="#fed601" /><rect x="6" y="1" width="1" height="1" fill="#b98d47" /><rect x="6" y="2" width="1" height="1" fill="#6c3a95" /><rect x="6" y="3" width="1" height="1" fill="#6d3a95" /><rect x="6" y="4" width="1" height="1" fill="#6f3a95" /><rect x="6" y="5" width="1" height="1" fill="#703a95" /><rect x="6" y="6" width="1" height="1" fill="#8d5977" /><rect x="6" y="7" width="1" height="1" fill="#ffd700" /><rect x="6" y="8" width="1" height="1" fill="#ffd700" /><rect x="6" y="9" width="1" height="1" fill="#ffd700" /><rect x="7" y="0" width="1" height="1" fill="#805081" /><rect x="7" y="1" width="1" height="1" fill="#6d3a95" /><rect x="7" y="2" width="1" height="1" fill="#6e3a95" /><rect x="7" y="3" width="1" height="1" fill="#6f3a95" /><rect x="7" y="4" width="1" height="1" fill="#703a95" /><rect x="7" y="5" width="1" height="1" fill="#713a95" /><rect x="7" y="6" width="1" height="1" fill="#8e5977" /><rect x="7" y="7" width="1" height="1" fill="#eec412" /><rect x="7" y="8" width="1" height="1" fill="#834986" /><rect x="7" y="9" width="1" height="1" fill="#834986" /><rect x="8" y="0" width="1" height="1" fill="#6d3a95" /><rect x="8" y="1" width="1" height="1" fill="#6e3a95" /><rect x="8" y="2" width="1" height="1" fill="#6f3a95" /><rect x="8" y="3" width="1" height="1" fill="#713a95" /><rect x="8" y="4" width="1" height="1" fill="#723a95" /><rect x="8" y="5" width="1" height="1" fill="#733a95" /><rect x="8" y="6" width="1" height="1" fill="#905977" /><rect x="8" y="7" width="1" height="1" fill="#edc313" /><rect x="8" y="8" width="1" height="1" fill="#763a95" /><rect x="8" y="9" width="1" height="1" fill="#773a95" /><rect x="9" y="0" width="1" height="1" fill="#ba8b48" /><rect x="9" y="1" width="1" height="1" fill="#8a577a" /><rect x="9" y="2" width="1" height="1" fill="#713a95" /><rect x="9" y="3" width="1" height="1" fill="#723a95" /><rect x="9" y="4" width="1" height="1" fill="#733a95" /><rect x="9" y="5" width="1" height="1" fill="#753a95" /><rect x="9" y="6" width="1" height="1" fill="#854c85" /><rect x="9" y="7" width="1" height="1" fill="#fad105" /><rect x="9" y="8" width="1" height="1" fill="#7a3c93" /><rect x="9" y="9" width="1" height="1" fill="#793a95" /></g></svg>