<svg width="800" height="1000" version="1.1" xmlns="http://www.w3.org/2000/svg" xmlns:xlink="http://www.w3.org/1999/xlink">
  <defs>
      <linearGradient id="Gradient2" x1="0" x2="1" y1="0" y2="1">
        <stop offset="0%" stop-color="#2d3c96"/>
        <stop offset="100%" stop-color="#d53392"/>
      </linearGradient>
  </defs>
  <rect x="10" y="10" width="780" height="980" fill="url(#Gradient2)" rx="50" ry="50" stroke="#ffd700" stroke-width="20"/>
  <text x="400" y="920" width="780" text-anchor="middle" style="font: bold 200px 'Helvetica Neue'; fill: #ffd700">04459</text>

  <g transform="translate(80 80) scale(64)">
<rect x="0" y="0" width="1" height="1" fill="#030303" /><rect x="1" y="0" width="1" height="1" fill="#151E00" /><rect x="2" y="0" width="1" height="1" fill="#1E3201" /><rect x="3" y="0" width="1" height="1" fill="#FFFFFF" /><rect x="4" y="0" width="1" height="1" fill="#919094" /><rect x="5" y="0" width="1" height="1" fill="#0A0001" /><rect x="6" y="0" width="1" height="1" fill="#9C9DA1" /><rect x="7" y="0" width="1" height="1" fill="#FFFFFE" /><rect x="8" y="0" width="1" height="1" fill="#FEFFFF" /><rect x="9" y="0" width="1" height="1" fill="#010000" /><rect x="0" y="1" width="1" height="1" fill="#413E43" /><rect x="1" y="1" width="1" height="1" fill="#111B01" /><rect x="2" y="1" width="1" height="1" fill="#131F01" /><rect x="3" y="1" width="1" height="1" fill="#FFFFFE" /><rect x="4" y="1" width="1" height="1" fill="#C6C7CD" /><rect x="5" y="1" width="1" height="1" fill="#1D0D00" /><rect x="6" y="1" width="1" height="1" fill="#75726B" /><rect x="7" y="1" width="1" height="1" fill="#FEFEFE" /><rect x="8" y="1" width="1" height="1" fill="#FFFEFF" /><rect x="9" y="1" width="1" height="1" fill="#010001" /><rect x="0" y="2" width="1" height="1" fill="#88888A" /><rect x="1" y="2" width="1" height="1" fill="#000001" /><rect x="2" y="2" width="1" height="1" fill="#292E1C" /><rect x="3" y="2" width="1" height="1" fill="#FEFFFF" /><rect x="4" y="2" width="1" height="1" fill="#F7F8FE" /><rect x="5" y="2" width="1" height="1" fill="#1C0D00" /><rect x="6" y="2" width="1" height="1" fill="#5B533F" /><rect x="7" y="2" width="1" height="1" fill="#FFFFFE" /><rect x="8" y="2" width="1" height="1" fill="#FFFFFF" /><rect x="9" y="2" width="1" height="1" fill="#000000" /><rect x="0" y="3" width="1" height="1" fill="#FFFEFF" /><rect x="1" y="3" width="1" height="1" fill="#000001" /><rect x="2" y="3" width="1" height="1" fill="#A9A9A9" /><rect x="3" y="3" width="1" height="1" fill="#FEFEFF" /><rect x="4" y="3" width="1" height="1" fill="#FEFEFF" /><rect x="5" y="3" width="1" height="1" fill="#160800" /><rect x="6" y="3" width="1" height="1" fill="#3E3518" /><rect x="7" y="3" width="1" height="1" fill="#FEFFFE" /><rect x="8" y="3" width="1" height="1" fill="#FEFFFE" /><rect x="9" y="3" width="1" height="1" fill="#010101" /><rect x="0" y="4" width="1" height="1" fill="#FEFFFF" /><rect x="1" y="4" width="1" height="1" fill="#FEFEFF" /><rect x="2" y="4" width="1" height="1" fill="#FFFEFF" /><rect x="3" y="4" width="1" height="1" fill="#FFFFFF" /><rect x="4" y="4" width="1" height="1" fill="#FFFFFF" /><rect x="5" y="4" width="1" height="1" fill="#34290A" /><rect x="6" y="4" width="1" height="1" fill="#1B0E00" /><rect x="7" y="4" width="1" height="1" fill="#FFFFFE" /><rect x="8" y="4" width="1" height="1" fill="#FFFFFF" /><rect x="9" y="4" width="1" height="1" fill="#010001" /><rect x="0" y="5" width="1" height="1" fill="#FFFFFE" /><rect x="1" y="5" width="1" height="1" fill="#FFFFFF" /><rect x="2" y="5" width="1" height="1" fill="#FEFFFE" /><rect x="3" y="5" width="1" height="1" fill="#FEFEFF" /><rect x="4" y="5" width="1" height="1" fill="#FEFEFF" /><rect x="5" y="5" width="1" height="1" fill="#4B4333" /><rect x="6" y="5" width="1" height="1" fill="#050000" /><rect x="7" y="5" width="1" height="1" fill="#FEFFFE" /><rect x="8" y="5" width="1" height="1" fill="#FFFEFE" /><rect x="9" y="5" width="1" height="1" fill="#000100" /><rect x="0" y="6" width="1" height="1" fill="#FFFFFE" /><rect x="1" y="6" width="1" height="1" fill="#FFFFFE" /><rect x="2" y="6" width="1" height="1" fill="#FFFFFF" /><rect x="3" y="6" width="1" height="1" fill="#FFFFFE" /><rect x="4" y="6" width="1" height="1" fill="#FFFFFE" /><rect x="5" y="6" width="1" height="1" fill="#615F58" /><rect x="6" y="6" width="1" height="1" fill="#000001" /><rect x="7" y="6" width="1" height="1" fill="#E2E2E5" /><rect x="8" y="6" width="1" height="1" fill="#FEFFFE" /><rect x="9" y="6" width="1" height="1" fill="#000100" /><rect x="0" y="7" width="1" height="1" fill="#FFFFFF" /><rect x="1" y="7" width="1" height="1" fill="#FFFEFF" /><rect x="2" y="7" width="1" height="1" fill="#FFFFFE" /><rect x="3" y="7" width="1" height="1" fill="#FEFEFF" /><rect x="4" y="7" width="1" height="1" fill="#FFFFFF" /><rect x="5" y="7" width="1" height="1" fill="#868686" /><rect x="6" y="7" width="1" height="1" fill="#010000" /><rect x="7" y="7" width="1" height="1" fill="#8D8C8C" /><rect x="8" y="7" width="1" height="1" fill="#FEFEFF" /><rect x="9" y="7" width="1" height="1" fill="#000100" /><rect x="0" y="8" width="1" height="1" fill="#FFFEFE" /><rect x="1" y="8" width="1" height="1" fill="#FFFFFF" /><rect x="2" y="8" width="1" height="1" fill="#FFFEFE" /><rect x="3" y="8" width="1" height="1" fill="#FEFEFF" /><rect x="4" y="8" width="1" height="1" fill="#FEFFFF" /><rect x="5" y="8" width="1" height="1" fill="#C7C7C9" /><rect x="6" y="8" width="1" height="1" fill="#010000" /><rect x="7" y="8" width="1" height="1" fill="#2D2D2C" /><rect x="8" y="8" width="1" height="1" fill="#FFFFFF" /><rect x="9" y="8" width="1" height="1" fill="#000100" /><rect x="0" y="9" width="1" height="1" fill="#000100" /><rect x="1" y="9" width="1" height="1" fill="#000101" /><rect x="2" y="9" width="1" height="1" fill="#000001" /><rect x="3" y="9" width="1" height="1" fill="#000101" /><rect x="4" y="9" width="1" height="1" fill="#010001" /><rect x="5" y="9" width="1" height="1" fill="#010001" /><rect x="6" y="9" width="1" height="1" fill="#010000" /><rect x="7" y="9" width="1" height="1" fill="#000000" /><rect x="8" y="9" width="1" height="1" fill="#010101" /><rect x="9" y="9" width="1" height="1" fill="#010000" />
  </g>
</svg>