<svg width="800" height="1000" xmlns="http://www.w3.org/2000/svg"><defs><linearGradient id="g" x1="0" x2="1" y1="0" y2="1"><stop offset="0%" stop-color="#2d3c96"/><stop offset="100%" stop-color="#d53392"/></linearGradient></defs><rect x="10" y="10" width="780" height="980" fill="url(#g)" rx="50" ry="50" stroke="gold" stroke-width="20"/><text x="400" y="920" width="780" text-anchor="middle" style="font:bold 200px 'Helvetica Neue';fill:gold">04459</text><g transform="translate(80 80) scale(64)"><rect x="0" y="0" width="1" height="1" fill="#030303" /><rect x="0" y="1" width="1" height="1" fill="#413e43" /><rect x="0" y="2" width="1" height="1" fill="#88888a" /><rect x="0" y="3" width="1" height="1" fill="#fffeff" /><rect x="0" y="4" width="1" height="1" fill="#feffff" /><rect x="0" y="5" width="1" height="1" fill="#fffffe" /><rect x="0" y="6" width="1" height="1" fill="#fffffe" /><rect x="0" y="7" width="1" height="1" fill="#ffffff" /><rect x="0" y="8" width="1" height="1" fill="#fffefe" /><rect x="0" y="9" width="1" height="1" fill="#000100" /><rect x="1" y="0" width="1" height="1" fill="#151e00" /><rect x="1" y="1" width="1" height="1" fill="#111b01" /><rect x="1" y="2" width="1" height="1" fill="#000001" /><rect x="1" y="3" width="1" height="1" fill="#000001" /><rect x="1" y="4" width="1" height="1" fill="#fefeff" /><rect x="1" y="5" width="1" height="1" fill="#ffffff" /><rect x="1" y="6" width="1" height="1" fill="#fffffe" /><rect x="1" y="7" width="1" height="1" fill="#fffeff" /><rect x="1" y="8" width="1" height="1" fill="#ffffff" /><rect x="1" y="9" width="1" height="1" fill="#000101" /><rect x="2" y="0" width="1" height="1" fill="#1e3201" /><rect x="2" y="1" width="1" height="1" fill="#131f01" /><rect x="2" y="2" width="1" height="1" fill="#292e1c" /><rect x="2" y="3" width="1" height="1" fill="#a9a9a9" /><rect x="2" y="4" width="1" height="1" fill="#fffeff" /><rect x="2" y="5" width="1" height="1" fill="#fefffe" /><rect x="2" y="6" width="1" height="1" fill="#ffffff" /><rect x="2" y="7" width="1" height="1" fill="#fffffe" /><rect x="2" y="8" width="1" height="1" fill="#fffefe" /><rect x="2" y="9" width="1" height="1" fill="#000001" /><rect x="3" y="0" width="1" height="1" fill="#ffffff" /><rect x="3" y="1" width="1" height="1" fill="#fffffe" /><rect x="3" y="2" width="1" height="1" fill="#feffff" /><rect x="3" y="3" width="1" height="1" fill="#fefeff" /><rect x="3" y="4" width="1" height="1" fill="#ffffff" /><rect x="3" y="5" width="1" height="1" fill="#fefeff" /><rect x="3" y="6" width="1" height="1" fill="#fffffe" /><rect x="3" y="7" width="1" height="1" fill="#fefeff" /><rect x="3" y="8" width="1" height="1" fill="#fefeff" /><rect x="3" y="9" width="1" height="1" fill="#000101" /><rect x="4" y="0" width="1" height="1" fill="#919094" /><rect x="4" y="1" width="1" height="1" fill="#c6c7cd" /><rect x="4" y="2" width="1" height="1" fill="#f7f8fe" /><rect x="4" y="3" width="1" height="1" fill="#fefeff" /><rect x="4" y="4" width="1" height="1" fill="#ffffff" /><rect x="4" y="5" width="1" height="1" fill="#fefeff" /><rect x="4" y="6" width="1" height="1" fill="#fffffe" /><rect x="4" y="7" width="1" height="1" fill="#ffffff" /><rect x="4" y="8" width="1" height="1" fill="#feffff" /><rect x="4" y="9" width="1" height="1" fill="#010001" /><rect x="5" y="0" width="1" height="1" fill="#0a0001" /><rect x="5" y="1" width="1" height="1" fill="#1d0d00" /><rect x="5" y="2" width="1" height="1" fill="#1c0d00" /><rect x="5" y="3" width="1" height="1" fill="#160800" /><rect x="5" y="4" width="1" height="1" fill="#34290a" /><rect x="5" y="5" width="1" height="1" fill="#4b4333" /><rect x="5" y="6" width="1" height="1" fill="#615f58" /><rect x="5" y="7" width="1" height="1" fill="#868686" /><rect x="5" y="8" width="1" height="1" fill="#c7c7c9" /><rect x="5" y="9" width="1" height="1" fill="#010001" /><rect x="6" y="0" width="1" height="1" fill="#9c9da1" /><rect x="6" y="1" width="1" height="1" fill="#75726b" /><rect x="6" y="2" width="1" height="1" fill="#5b533f" /><rect x="6" y="3" width="1" height="1" fill="#3e3518" /><rect x="6" y="4" width="1" height="1" fill="#1b0e00" /><rect x="6" y="5" width="1" height="1" fill="#050000" /><rect x="6" y="6" width="1" height="1" fill="#000001" /><rect x="6" y="7" width="1" height="1" fill="#010000" /><rect x="6" y="8" width="1" height="1" fill="#010000" /><rect x="6" y="9" width="1" height="1" fill="#010000" /><rect x="7" y="0" width="1" height="1" fill="#fffffe" /><rect x="7" y="1" width="1" height="1" fill="#fefefe" /><rect x="7" y="2" width="1" height="1" fill="#fffffe" /><rect x="7" y="3" width="1" height="1" fill="#fefffe" /><rect x="7" y="4" width="1" height="1" fill="#fffffe" /><rect x="7" y="5" width="1" height="1" fill="#fefffe" /><rect x="7" y="6" width="1" height="1" fill="#e2e2e5" /><rect x="7" y="7" width="1" height="1" fill="#8d8c8c" /><rect x="7" y="8" width="1" height="1" fill="#2d2d2c" /><rect x="7" y="9" width="1" height="1" fill="#000000" /><rect x="8" y="0" width="1" height="1" fill="#feffff" /><rect x="8" y="1" width="1" height="1" fill="#fffeff" /><rect x="8" y="2" width="1" height="1" fill="#ffffff" /><rect x="8" y="3" width="1" height="1" fill="#fefffe" /><rect x="8" y="4" width="1" height="1" fill="#ffffff" /><rect x="8" y="5" width="1" height="1" fill="#fffefe" /><rect x="8" y="6" width="1" height="1" fill="#fefffe" /><rect x="8" y="7" width="1" height="1" fill="#fefeff" /><rect x="8" y="8" width="1" height="1" fill="#ffffff" /><rect x="8" y="9" width="1" height="1" fill="#010101" /><rect x="9" y="0" width="1" height="1" fill="#010000" /><rect x="9" y="1" width="1" height="1" fill="#010001" /><rect x="9" y="2" width="1" height="1" fill="#000000" /><rect x="9" y="3" width="1" height="1" fill="#010101" /><rect x="9" y="4" width="1" height="1" fill="#010001" /><rect x="9" y="5" width="1" height="1" fill="#000100" /><rect x="9" y="6" width="1" height="1" fill="#000100" /><rect x="9" y="7" width="1" height="1" fill="#000100" /><rect x="9" y="8" width="1" height="1" fill="#000100" /><rect x="9" y="9" width="1" height="1" fill="#010000" /></g></svg>