<svg width="800" height="1000" xmlns="http://www.w3.org/2000/svg"><defs><linearGradient id="g" x1="0" x2="1" y1="0" y2="1"><stop offset="0%" stop-color="#2d3c96"/><stop offset="100%" stop-color="#d53392"/></linearGradient></defs><rect x="10" y="10" width="780" height="980" fill="url(#g)" rx="50" ry="50" stroke="gold" stroke-width="20"/><text x="400" y="920" width="780" text-anchor="middle" style="font:bold 200px 'Helvetica Neue';fill:gold">04502</text><g transform="translate(80 80) scale(64)"><rect x="0" y="0" width="1" height="1" fill="#6c3a95" /><rect x="0" y="1" width="1" height="1" fill="#e4ba1b" /><rect x="0" y="2" width="1" height="1" fill="#905f72" /><rect x="0" y="3" width="1" height="1" fill="#6f3a95" /><rect x="0" y="4" width="1" height="1" fill="#703a95" /><rect x="0" y="5" width="1" height="1" fill="#9b676a" /><rect x="0" y="6" width="1" height="1" fill="#deb223" /><rect x="0" y="7" width="1" height="1" fill="#743a95" /><rect x="0" y="8" width="1" height="1" fill="#753a95" /><rect x="0" y="9" width="1" height="1" fill="#763a95" /><rect x="1" y="0" width="1" height="1" fill="#6d3a95" /><rect x="1" y="1" width="1" height="1" fill="#e4ba1b" /><rect x="1" y="2" width="1" height="1" fill="#925f72" /><rect x="1" y="3" width="1" height="1" fill="#713a95" /><rect x="1" y="4" width="1" height="1" fill="#723a95" /><rect x="1" y="5" width="1" height="1" fill="#9c676a" /><rect x="1" y="6" width="1" height="1" fill="#deb223" /><rect x="1" y="7" width="1" height="1" fill="#753a95" /><rect x="1" y="8" width="1" height="1" fill="#773a95" /><rect x="1" y="9" width="1" height="1" fill="#783a95" /><rect x="2" y="0" width="1" height="1" fill="#6f3a95" /><rect x="2" y="1" width="1" height="1" fill="#e5ba1b" /><rect x="2" y="2" width="1" height="1" fill="#925f72" /><rect x="2" y="3" width="1" height="1" fill="#723a95" /><rect x="2" y="4" width="1" height="1" fill="#743a95" /><rect x="2" y="5" width="1" height="1" fill="#9d676a" /><rect x="2" y="6" width="1" height="1" fill="#dfb223" /><rect x="2" y="7" width="1" height="1" fill="#773a95" /><rect x="2" y="8" width="1" height="1" fill="#783a95" /><rect x="2" y="9" width="1" height="1" fill="#793a95" /><rect x="3" y="0" width="1" height="1" fill="#713a95" /><rect x="3" y="1" width="1" height="1" fill="#88527e" /><rect x="3" y="2" width="1" height="1" fill="#79408f" /><rect x="3" y="3" width="1" height="1" fill="#743a95" /><rect x="3" y="4" width="1" height="1" fill="#753a95" /><rect x="3" y="5" width="1" height="1" fill="#945b75" /><rect x="3" y="6" width="1" height="1" fill="#c59440" /><rect x="3" y="7" width="1" height="1" fill="#793a95" /><rect x="3" y="8" width="1" height="1" fill="#7a3a95" /><rect x="3" y="9" width="1" height="1" fill="#7b3995" /><rect x="4" y="0" width="1" height="1" fill="#723a95" /><rect x="4" y="1" width="1" height="1" fill="#733a95" /><rect x="4" y="2" width="1" height="1" fill="#753a95" /><rect x="4" y="3" width="1" height="1" fill="#763a95" /><rect x="4" y="4" width="1" height="1" fill="#773a95" /><rect x="4" y="5" width="1" height="1" fill="#783a95" /><rect x="4" y="6" width="1" height="1" fill="#793a95" /><rect x="4" y="7" width="1" height="1" fill="#7a3a95" /><rect x="4" y="8" width="1" height="1" fill="#7b3995" /><rect x="4" y="9" width="1" height="1" fill="#7d3995" /><rect x="5" y="0" width="1" height="1" fill="#8b547c" /><rect x="5" y="1" width="1" height="1" fill="#8c547c" /><rect x="5" y="2" width="1" height="1" fill="#8d547c" /><rect x="5" y="3" width="1" height="1" fill="#8e547c" /><rect x="5" y="4" width="1" height="1" fill="#8f547c" /><rect x="5" y="5" width="1" height="1" fill="#90547c" /><rect x="5" y="6" width="1" height="1" fill="#8b4d83" /><rect x="5" y="7" width="1" height="1" fill="#7c3995" /><rect x="5" y="8" width="1" height="1" fill="#7d3995" /><rect x="5" y="9" width="1" height="1" fill="#7e3995" /><rect x="6" y="0" width="1" height="1" fill="#ffd700" /><rect x="6" y="1" width="1" height="1" fill="#ffd700" /><rect x="6" y="2" width="1" height="1" fill="#ffd700" /><rect x="6" y="3" width="1" height="1" fill="#ffd700" /><rect x="6" y="4" width="1" height="1" fill="#ffd700" /><rect x="6" y="5" width="1" height="1" fill="#ffd700" /><rect x="6" y="6" width="1" height="1" fill="#dcad28" /><rect x="6" y="7" width="1" height="1" fill="#7d3995" /><rect x="6" y="8" width="1" height="1" fill="#7f3995" /><rect x="6" y="9" width="1" height="1" fill="#803995" /><rect x="7" y="0" width="1" height="1" fill="#844986" /><rect x="7" y="1" width="1" height="1" fill="#c6953f" /><rect x="7" y="2" width="1" height="1" fill="#c7953f" /><rect x="7" y="3" width="1" height="1" fill="#874986" /><rect x="7" y="4" width="1" height="1" fill="#894886" /><rect x="7" y="5" width="1" height="1" fill="#8a4886" /><rect x="7" y="6" width="1" height="1" fill="#87448a" /><rect x="7" y="7" width="1" height="1" fill="#7f3995" /><rect x="7" y="8" width="1" height="1" fill="#803995" /><rect x="7" y="9" width="1" height="1" fill="#813995" /><rect x="8" y="0" width="1" height="1" fill="#793a95" /><rect x="8" y="1" width="1" height="1" fill="#c18e46" /><rect x="8" y="2" width="1" height="1" fill="#c9963d" /><rect x="8" y="3" width="1" height="1" fill="#7c3995" /><rect x="8" y="4" width="1" height="1" fill="#7d3995" /><rect x="8" y="5" width="1" height="1" fill="#7e3995" /><rect x="8" y="6" width="1" height="1" fill="#803995" /><rect x="8" y="7" width="1" height="1" fill="#813995" /><rect x="8" y="8" width="1" height="1" fill="#823995" /><rect x="8" y="9" width="1" height="1" fill="#833995" /><rect x="9" y="0" width="1" height="1" fill="#7a3a95" /><rect x="9" y="1" width="1" height="1" fill="#cf9e36" /><rect x="9" y="2" width="1" height="1" fill="#f5cb0b" /><rect x="9" y="3" width="1" height="1" fill="#92527e" /><rect x="9" y="4" width="1" height="1" fill="#7f3995" /><rect x="9" y="5" width="1" height="1" fill="#803995" /><rect x="9" y="6" width="1" height="1" fill="#813995" /><rect x="9" y="7" width="1" height="1" fill="#823995" /><rect x="9" y="8" width="1" height="1" fill="#833995" /><rect x="9" y="9" width="1" height="1" fill="#853995" /></g></svg>