<svg width="800" height="1000" xmlns="http://www.w3.org/2000/svg"><defs><linearGradient id="g" x1="0" x2="1" y1="0" y2="1"><stop offset="0%" stop-color="#2d3c96"/><stop offset="100%" stop-color="#d53392"/></linearGradient></defs><rect x="10" y="10" width="780" height="980" fill="url(#g)" rx="50" ry="50" stroke="gold" stroke-width="20"/><text x="400" y="920" width="780" text-anchor="middle" style="font:bold 200px 'Helvetica Neue';fill:gold">04505</text><g transform="translate(80 80) scale(64)"><rect x="0" y="0" width="1" height="1" fill="#9b3694" /><rect x="0" y="1" width="1" height="1" fill="#a3408a" /><rect x="0" y="2" width="1" height="1" fill="#a74686" /><rect x="0" y="3" width="1" height="1" fill="#9e3694" /><rect x="0" y="4" width="1" height="1" fill="#a03694" /><rect x="0" y="5" width="1" height="1" fill="#a13694" /><rect x="0" y="6" width="1" height="1" fill="#a23594" /><rect x="0" y="7" width="1" height="1" fill="#a33594" /><rect x="0" y="8" width="1" height="1" fill="#a43594" /><rect x="0" y="9" width="1" height="1" fill="#a53593" /><rect x="1" y="0" width="1" height="1" fill="#bb6766" /><rect x="1" y="1" width="1" height="1" fill="#f5c610" /><rect x="1" y="2" width="1" height="1" fill="#f7c90d" /><rect x="1" y="3" width="1" height="1" fill="#c87955" /><rect x="1" y="4" width="1" height="1" fill="#a13694" /><rect x="1" y="5" width="1" height="1" fill="#a23594" /><rect x="1" y="6" width="1" height="1" fill="#a43594" /><rect x="1" y="7" width="1" height="1" fill="#a53593" /><rect x="1" y="8" width="1" height="1" fill="#a63593" /><rect x="1" y="9" width="1" height="1" fill="#a73593" /><rect x="2" y="0" width="1" height="1" fill="#e5ad27" /><rect x="2" y="1" width="1" height="1" fill="#aa4884" /><rect x="2" y="2" width="1" height="1" fill="#aa4487" /><rect x="2" y="3" width="1" height="1" fill="#eab221" /><rect x="2" y="4" width="1" height="1" fill="#a33594" /><rect x="2" y="5" width="1" height="1" fill="#a43594" /><rect x="2" y="6" width="1" height="1" fill="#a53593" /><rect x="2" y="7" width="1" height="1" fill="#a63593" /><rect x="2" y="8" width="1" height="1" fill="#a73593" /><rect x="2" y="9" width="1" height="1" fill="#a93593" /><rect x="3" y="0" width="1" height="1" fill="#e8b123" /><rect x="3" y="1" width="1" height="1" fill="#a13694" /><rect x="3" y="2" width="1" height="1" fill="#ae4a81" /><rect x="3" y="3" width="1" height="1" fill="#da973a" /><rect x="3" y="4" width="1" height="1" fill="#a43593" /><rect x="3" y="5" width="1" height="1" fill="#a63593" /><rect x="3" y="6" width="1" height="1" fill="#a73593" /><rect x="3" y="7" width="1" height="1" fill="#a83593" /><rect x="3" y="8" width="1" height="1" fill="#a93593" /><rect x="3" y="9" width="1" height="1" fill="#aa3593" /><rect x="4" y="0" width="1" height="1" fill="#f0be16" /><rect x="4" y="1" width="1" height="1" fill="#d0854c" /><rect x="4" y="2" width="1" height="1" fill="#efba1a" /><rect x="4" y="3" width="1" height="1" fill="#c46c60" /><rect x="4" y="4" width="1" height="1" fill="#a63593" /><rect x="4" y="5" width="1" height="1" fill="#a73593" /><rect x="4" y="6" width="1" height="1" fill="#a83593" /><rect x="4" y="7" width="1" height="1" fill="#aa3593" /><rect x="4" y="8" width="1" height="1" fill="#ab3593" /><rect x="4" y="9" width="1" height="1" fill="#ac3593" /><rect x="5" y="0" width="1" height="1" fill="#d18749" /><rect x="5" y="1" width="1" height="1" fill="#d28749" /><rect x="5" y="2" width="1" height="1" fill="#d28748" /><rect x="5" y="3" width="1" height="1" fill="#c56c61" /><rect x="5" y="4" width="1" height="1" fill="#a83593" /><rect x="5" y="5" width="1" height="1" fill="#a93593" /><rect x="5" y="6" width="1" height="1" fill="#aa3593" /><rect x="5" y="7" width="1" height="1" fill="#ab3593" /><rect x="5" y="8" width="1" height="1" fill="#ac3593" /><rect x="5" y="9" width="1" height="1" fill="#ad3593" /><rect x="6" y="0" width="1" height="1" fill="#a53593" /><rect x="6" y="1" width="1" height="1" fill="#a63593" /><rect x="6" y="2" width="1" height="1" fill="#a73593" /><rect x="6" y="3" width="1" height="1" fill="#a83593" /><rect x="6" y="4" width="1" height="1" fill="#a93593" /><rect x="6" y="5" width="1" height="1" fill="#aa3593" /><rect x="6" y="6" width="1" height="1" fill="#ac3593" /><rect x="6" y="7" width="1" height="1" fill="#ad3593" /><rect x="6" y="8" width="1" height="1" fill="#ae3593" /><rect x="6" y="9" width="1" height="1" fill="#af3593" /><rect x="7" y="0" width="1" height="1" fill="#e5a82b" /><rect x="7" y="1" width="1" height="1" fill="#e5a82b" /><rect x="7" y="2" width="1" height="1" fill="#e5a82b" /><rect x="7" y="3" width="1" height="1" fill="#d2824d" /><rect x="7" y="4" width="1" height="1" fill="#ab3593" /><rect x="7" y="5" width="1" height="1" fill="#ac3593" /><rect x="7" y="6" width="1" height="1" fill="#ad3593" /><rect x="7" y="7" width="1" height="1" fill="#ae3593" /><rect x="7" y="8" width="1" height="1" fill="#b03593" /><rect x="7" y="9" width="1" height="1" fill="#b13593" /><rect x="8" y="0" width="1" height="1" fill="#bf606b" /><rect x="8" y="1" width="1" height="1" fill="#be5c6e" /><rect x="8" y="2" width="1" height="1" fill="#bf5c6e" /><rect x="8" y="3" width="1" height="1" fill="#b94f7b" /><rect x="8" y="4" width="1" height="1" fill="#ad3593" /><rect x="8" y="5" width="1" height="1" fill="#ae3593" /><rect x="8" y="6" width="1" height="1" fill="#af3593" /><rect x="8" y="7" width="1" height="1" fill="#b03593" /><rect x="8" y="8" width="1" height="1" fill="#b13593" /><rect x="8" y="9" width="1" height="1" fill="#b23593" /><rect x="9" y="0" width="1" height="1" fill="#aa3593" /><rect x="9" y="1" width="1" height="1" fill="#ab3593" /><rect x="9" y="2" width="1" height="1" fill="#ac3593" /><rect x="9" y="3" width="1" height="1" fill="#ad3593" /><rect x="9" y="4" width="1" height="1" fill="#ae3593" /><rect x="9" y="5" width="1" height="1" fill="#af3593" /><rect x="9" y="6" width="1" height="1" fill="#b03593" /><rect x="9" y="7" width="1" height="1" fill="#b23593" /><rect x="9" y="8" width="1" height="1" fill="#b33593" /><rect x="9" y="9" width="1" height="1" fill="#b43593" /></g></svg>