<svg width="800" height="1000" xmlns="http://www.w3.org/2000/svg"><defs><linearGradient id="g" x1="0" x2="1" y1="0" y2="1"><stop offset="0%" stop-color="#2d3c96"/><stop offset="100%" stop-color="#d53392"/></linearGradient></defs><rect x="10" y="10" width="780" height="980" fill="url(#g)" rx="50" ry="50" stroke="gold" stroke-width="20"/><text x="400" y="920" width="780" text-anchor="middle" style="font:bold 200px 'Helvetica Neue';fill:gold">04501</text><g transform="translate(80 80) scale(64)"><rect x="0" y="0" width="1" height="1" fill="#5c3b96" /><rect x="0" y="1" width="1" height="1" fill="#5d3b96" /><rect x="0" y="2" width="1" height="1" fill="#5e3b96" /><rect x="0" y="3" width="1" height="1" fill="#5f3b96" /><rect x="0" y="4" width="1" height="1" fill="#603b96" /><rect x="0" y="5" width="1" height="1" fill="#623b95" /><rect x="0" y="6" width="1" height="1" fill="#6d479c" /><rect x="0" y="7" width="1" height="1" fill="#997eb9" /><rect x="0" y="8" width="1" height="1" fill="#ebe5f1" /><rect x="0" y="9" width="1" height="1" fill="#ffffff" /><rect x="1" y="0" width="1" height="1" fill="#5d3b96" /><rect x="1" y="1" width="1" height="1" fill="#5f3b96" /><rect x="1" y="2" width="1" height="1" fill="#603b96" /><rect x="1" y="3" width="1" height="1" fill="#613b96" /><rect x="1" y="4" width="1" height="1" fill="#623b95" /><rect x="1" y="5" width="1" height="1" fill="#633b95" /><rect x="1" y="6" width="1" height="1" fill="#643b95" /><rect x="1" y="7" width="1" height="1" fill="#653b95" /><rect x="1" y="8" width="1" height="1" fill="#744b9e" /><rect x="1" y="9" width="1" height="1" fill="#ece6f1" /><rect x="2" y="0" width="1" height="1" fill="#9c775c" /><rect x="2" y="1" width="1" height="1" fill="#aa8350" /><rect x="2" y="2" width="1" height="1" fill="#a78053" /><rect x="2" y="3" width="1" height="1" fill="#987062" /><rect x="2" y="4" width="1" height="1" fill="#734987" /><rect x="2" y="5" width="1" height="1" fill="#653b95" /><rect x="2" y="6" width="1" height="1" fill="#663b95" /><rect x="2" y="7" width="1" height="1" fill="#673a95" /><rect x="2" y="8" width="1" height="1" fill="#683a95" /><rect x="2" y="9" width="1" height="1" fill="#9e7fba" /><rect x="3" y="0" width="1" height="1" fill="#d1a92c" /><rect x="3" y="1" width="1" height="1" fill="#c39b39" /><rect x="3" y="2" width="1" height="1" fill="#c8a035" /><rect x="3" y="3" width="1" height="1" fill="#d9b124" /><rect x="3" y="4" width="1" height="1" fill="#fad205" /><rect x="3" y="5" width="1" height="1" fill="#d6ae28" /><rect x="3" y="6" width="1" height="1" fill="#885c74" /><rect x="3" y="7" width="1" height="1" fill="#693a95" /><rect x="3" y="8" width="1" height="1" fill="#6a3a95" /><rect x="3" y="9" width="1" height="1" fill="#75479c" /><rect x="4" y="0" width="1" height="1" fill="#623b95" /><rect x="4" y="1" width="1" height="1" fill="#633b95" /><rect x="4" y="2" width="1" height="1" fill="#643b95" /><rect x="4" y="3" width="1" height="1" fill="#663b95" /><rect x="4" y="4" width="1" height="1" fill="#6e418e" /><rect x="4" y="5" width="1" height="1" fill="#a3765b" /><rect x="4" y="6" width="1" height="1" fill="#eac115" /><rect x="4" y="7" width="1" height="1" fill="#ad8052" /><rect x="4" y="8" width="1" height="1" fill="#6b3a95" /><rect x="4" y="9" width="1" height="1" fill="#6c3a95" /><rect x="5" y="0" width="1" height="1" fill="#643b95" /><rect x="5" y="1" width="1" height="1" fill="#653b95" /><rect x="5" y="2" width="1" height="1" fill="#663b95" /><rect x="5" y="3" width="1" height="1" fill="#673a95" /><rect x="5" y="4" width="1" height="1" fill="#683a95" /><rect x="5" y="5" width="1" height="1" fill="#6a3a95" /><rect x="5" y="6" width="1" height="1" fill="#71408f" /><rect x="5" y="7" width="1" height="1" fill="#b88a48" /><rect x="5" y="8" width="1" height="1" fill="#6d3a95" /><rect x="5" y="9" width="1" height="1" fill="#6e3a95" /><rect x="6" y="0" width="1" height="1" fill="#653b95" /><rect x="6" y="1" width="1" height="1" fill="#673b95" /><rect x="6" y="2" width="1" height="1" fill="#683a95" /><rect x="6" y="3" width="1" height="1" fill="#693a95" /><rect x="6" y="4" width="1" height="1" fill="#6a3a95" /><rect x="6" y="5" width="1" height="1" fill="#6b3a95" /><rect x="6" y="6" width="1" height="1" fill="#6c3a95" /><rect x="6" y="7" width="1" height="1" fill="#6d3a95" /><rect x="6" y="8" width="1" height="1" fill="#6f3a95" /><rect x="6" y="9" width="1" height="1" fill="#703a95" /><rect x="7" y="0" width="1" height="1" fill="#673a95" /><rect x="7" y="1" width="1" height="1" fill="#683a95" /><rect x="7" y="2" width="1" height="1" fill="#693a95" /><rect x="7" y="3" width="1" height="1" fill="#6a3a95" /><rect x="7" y="4" width="1" height="1" fill="#6c3a95" /><rect x="7" y="5" width="1" height="1" fill="#6d3a95" /><rect x="7" y="6" width="1" height="1" fill="#6e3a95" /><rect x="7" y="7" width="1" height="1" fill="#6f3a95" /><rect x="7" y="8" width="1" height="1" fill="#703a95" /><rect x="7" y="9" width="1" height="1" fill="#713a95" /><rect x="8" y="0" width="1" height="1" fill="#fdd502" /><rect x="8" y="1" width="1" height="1" fill="#fdd502" /><rect x="8" y="2" width="1" height="1" fill="#fdd502" /><rect x="8" y="3" width="1" height="1" fill="#fdd502" /><rect x="8" y="4" width="1" height="1" fill="#fdd502" /><rect x="8" y="5" width="1" height="1" fill="#fdd502" /><rect x="8" y="6" width="1" height="1" fill="#dbb025" /><rect x="8" y="7" width="1" height="1" fill="#713a95" /><rect x="8" y="8" width="1" height="1" fill="#723a95" /><rect x="8" y="9" width="1" height="1" fill="#733a95" /><rect x="9" y="0" width="1" height="1" fill="#95676a" /><rect x="9" y="1" width="1" height="1" fill="#ebc214" /><rect x="9" y="2" width="1" height="1" fill="#af8251" /><rect x="9" y="3" width="1" height="1" fill="#98676a" /><rect x="9" y="4" width="1" height="1" fill="#99676a" /><rect x="9" y="5" width="1" height="1" fill="#b7874b" /><rect x="9" y="6" width="1" height="1" fill="#deb223" /><rect x="9" y="7" width="1" height="1" fill="#723a95" /><rect x="9" y="8" width="1" height="1" fill="#733a95" /><rect x="9" y="9" width="1" height="1" fill="#753a95" /></g></svg>