<svg width="800" height="1000" xmlns="http://www.w3.org/2000/svg"><defs><linearGradient id="g" x1="0" x2="1" y1="0" y2="1"><stop offset="0%" stop-color="#2d3c96"/><stop offset="100%" stop-color="#d53392"/></linearGradient></defs><rect x="10" y="10" width="780" height="980" fill="url(#g)" rx="50" ry="50" stroke="gold" stroke-width="20"/><text x="400" y="920" width="780" text-anchor="middle" style="font:bold 200px 'Helvetica Neue';fill:gold">04505</text><g transform="translate(80 80) scale(64)"><rect x="0" y="0" width="1" height="1" fill="#9b3794" /><rect x="0" y="1" width="1" height="1" fill="#9c3794" /><rect x="0" y="2" width="1" height="1" fill="#9d3794" /><rect x="0" y="3" width="1" height="1" fill="#9e3794" /><rect x="0" y="4" width="1" height="1" fill="#a03794" /><rect x="0" y="5" width="1" height="1" fill="#a13794" /><rect x="0" y="6" width="1" height="1" fill="#a23694" /><rect x="0" y="7" width="1" height="1" fill="#a33694" /><rect x="0" y="8" width="1" height="1" fill="#a43694" /><rect x="0" y="9" width="1" height="1" fill="#a53693" /><rect x="1" y="0" width="1" height="1" fill="#9d3794" /><rect x="1" y="1" width="1" height="1" fill="#9e3794" /><rect x="1" y="2" width="1" height="1" fill="#9f3794" /><rect x="1" y="3" width="1" height="1" fill="#a03794" /><rect x="1" y="4" width="1" height="1" fill="#a13794" /><rect x="1" y="5" width="1" height="1" fill="#a33893" /><rect x="1" y="6" width="1" height="1" fill="#ae4884" /><rect x="1" y="7" width="1" height="1" fill="#a53693" /><rect x="1" y="8" width="1" height="1" fill="#a63693" /><rect x="1" y="9" width="1" height="1" fill="#a73693" /><rect x="2" y="0" width="1" height="1" fill="#9e3794" /><rect x="2" y="1" width="1" height="1" fill="#9f3794" /><rect x="2" y="2" width="1" height="1" fill="#a23992" /><rect x="2" y="3" width="1" height="1" fill="#bf6966" /><rect x="2" y="4" width="1" height="1" fill="#e0a032" /><rect x="2" y="5" width="1" height="1" fill="#facd09" /><rect x="2" y="6" width="1" height="1" fill="#e7ac27" /><rect x="2" y="7" width="1" height="1" fill="#a63693" /><rect x="2" y="8" width="1" height="1" fill="#a73693" /><rect x="2" y="9" width="1" height="1" fill="#a93693" /><rect x="3" y="0" width="1" height="1" fill="#a43e8e" /><rect x="3" y="1" width="1" height="1" fill="#cb7f51" /><rect x="3" y="2" width="1" height="1" fill="#f4c411" /><rect x="3" y="3" width="1" height="1" fill="#facd09" /><rect x="3" y="4" width="1" height="1" fill="#dd9b37" /><rect x="3" y="5" width="1" height="1" fill="#c56f5f" /><rect x="3" y="6" width="1" height="1" fill="#b24a81" /><rect x="3" y="7" width="1" height="1" fill="#a83693" /><rect x="3" y="8" width="1" height="1" fill="#a93693" /><rect x="3" y="9" width="1" height="1" fill="#aa3693" /><rect x="4" y="0" width="1" height="1" fill="#f7c90d" /><rect x="4" y="1" width="1" height="1" fill="#edb81c" /><rect x="4" y="2" width="1" height="1" fill="#c5705e" /><rect x="4" y="3" width="1" height="1" fill="#a73b8f" /><rect x="4" y="4" width="1" height="1" fill="#a63693" /><rect x="4" y="5" width="1" height="1" fill="#a73693" /><rect x="4" y="6" width="1" height="1" fill="#a83693" /><rect x="4" y="7" width="1" height="1" fill="#aa3693" /><rect x="4" y="8" width="1" height="1" fill="#ab3693" /><rect x="4" y="9" width="1" height="1" fill="#ac3693" /><rect x="5" y="0" width="1" height="1" fill="#be6668" /><rect x="5" y="1" width="1" height="1" fill="#a43793" /><rect x="5" y="2" width="1" height="1" fill="#a53693" /><rect x="5" y="3" width="1" height="1" fill="#a73693" /><rect x="5" y="4" width="1" height="1" fill="#a83693" /><rect x="5" y="5" width="1" height="1" fill="#a93693" /><rect x="5" y="6" width="1" height="1" fill="#aa3693" /><rect x="5" y="7" width="1" height="1" fill="#ab3693" /><rect x="5" y="8" width="1" height="1" fill="#ac3693" /><rect x="5" y="9" width="1" height="1" fill="#ad3693" /><rect x="6" y="0" width="1" height="1" fill="#a53693" /><rect x="6" y="1" width="1" height="1" fill="#a63693" /><rect x="6" y="2" width="1" height="1" fill="#a73693" /><rect x="6" y="3" width="1" height="1" fill="#a83693" /><rect x="6" y="4" width="1" height="1" fill="#a93693" /><rect x="6" y="5" width="1" height="1" fill="#aa3693" /><rect x="6" y="6" width="1" height="1" fill="#ac3693" /><rect x="6" y="7" width="1" height="1" fill="#ad3693" /><rect x="6" y="8" width="1" height="1" fill="#ae3693" /><rect x="6" y="9" width="1" height="1" fill="#af3693" /><rect x="7" y="0" width="1" height="1" fill="#a63693" /><rect x="7" y="1" width="1" height="1" fill="#a73693" /><rect x="7" y="2" width="1" height="1" fill="#a93693" /><rect x="7" y="3" width="1" height="1" fill="#aa3693" /><rect x="7" y="4" width="1" height="1" fill="#ab3693" /><rect x="7" y="5" width="1" height="1" fill="#ac3693" /><rect x="7" y="6" width="1" height="1" fill="#ad3693" /><rect x="7" y="7" width="1" height="1" fill="#ae3693" /><rect x="7" y="8" width="1" height="1" fill="#b03693" /><rect x="7" y="9" width="1" height="1" fill="#b13693" /><rect x="8" y="0" width="1" height="1" fill="#a83693" /><rect x="8" y="1" width="1" height="1" fill="#a93693" /><rect x="8" y="2" width="1" height="1" fill="#aa3693" /><rect x="8" y="3" width="1" height="1" fill="#ab3693" /><rect x="8" y="4" width="1" height="1" fill="#b03c8e" /><rect x="8" y="5" width="1" height="1" fill="#ca6d60" /><rect x="8" y="6" width="1" height="1" fill="#cf7659" /><rect x="8" y="7" width="1" height="1" fill="#b03693" /><rect x="8" y="8" width="1" height="1" fill="#b13693" /><rect x="8" y="9" width="1" height="1" fill="#b23693" /><rect x="9" y="0" width="1" height="1" fill="#aa3693" /><rect x="9" y="1" width="1" height="1" fill="#ab3693" /><rect x="9" y="2" width="1" height="1" fill="#ac3693" /><rect x="9" y="3" width="1" height="1" fill="#b74981" /><rect x="9" y="4" width="1" height="1" fill="#f4c014" /><rect x="9" y="5" width="1" height="1" fill="#f8c90d" /><rect x="9" y="6" width="1" height="1" fill="#f4c114" /><rect x="9" y="7" width="1" height="1" fill="#b23693" /><rect x="9" y="8" width="1" height="1" fill="#b33693" /><rect x="9" y="9" width="1" height="1" fill="#b43693" /></g></svg>