<svg width="800" height="1000" xmlns="http://www.w3.org/2000/svg"><defs><linearGradient id="g" x1="0" x2="1" y1="0" y2="1"><stop offset="0%" stop-color="#2d3c96"/><stop offset="100%" stop-color="#d53392"/></linearGradient></defs><rect x="10" y="10" width="780" height="980" fill="url(#g)" rx="50" ry="50" stroke="gold" stroke-width="20"/><text x="400" y="920" width="780" text-anchor="middle" style="font:bold 200px 'Helvetica Neue';fill:gold">04529</text><g transform="translate(80 80) scale(64)"><rect x="0" y="0" width="1" height="1" fill="#aab1f4" /><rect x="0" y="1" width="1" height="1" fill="#abb1f4" /><rect x="0" y="2" width="1" height="1" fill="#adaef5" /><rect x="0" y="3" width="1" height="1" fill="#adaff4" /><rect x="0" y="4" width="1" height="1" fill="#afb0f3" /><rect x="0" y="5" width="1" height="1" fill="#afb1f2" /><rect x="0" y="6" width="1" height="1" fill="#b0aef1" /><rect x="0" y="7" width="1" height="1" fill="#b1b1f1" /><rect x="0" y="8" width="1" height="1" fill="#b2b1f2" /><rect x="0" y="9" width="1" height="1" fill="#b4b1f0" /><rect x="1" y="0" width="1" height="1" fill="#aab0f5" /><rect x="1" y="1" width="1" height="1" fill="#aab1f4" /><rect x="1" y="2" width="1" height="1" fill="#adaff4" /><rect x="1" y="3" width="1" height="1" fill="#adb1f2" /><rect x="1" y="4" width="1" height="1" fill="#afb0f3" /><rect x="1" y="5" width="1" height="1" fill="#b0aff1" /><rect x="1" y="6" width="1" height="1" fill="#b1b1f0" /><rect x="1" y="7" width="1" height="1" fill="#b1afee" /><rect x="1" y="8" width="1" height="1" fill="#b5b1f0" /><rect x="1" y="9" width="1" height="1" fill="#b7b1ee" /><rect x="2" y="0" width="1" height="1" fill="#acb1f2" /><rect x="2" y="1" width="1" height="1" fill="#acb1f3" /><rect x="2" y="2" width="1" height="1" fill="#aeb1f2" /><rect x="2" y="3" width="1" height="1" fill="#afb0f3" /><rect x="2" y="4" width="1" height="1" fill="#b0aef2" /><rect x="2" y="5" width="1" height="1" fill="#b1b1f3" /><rect x="2" y="6" width="1" height="1" fill="#b3b1f0" /><rect x="2" y="7" width="1" height="1" fill="#b4afef" /><rect x="2" y="8" width="1" height="1" fill="#b7b1f0" /><rect x="2" y="9" width="1" height="1" fill="#b9aeee" /><rect x="3" y="0" width="1" height="1" fill="#acb0f2" /><rect x="3" y="1" width="1" height="1" fill="#afb0f3" /><rect x="3" y="2" width="1" height="1" fill="#afb1f2" /><rect x="3" y="3" width="1" height="1" fill="#b0aef0" /><rect x="3" y="4" width="1" height="1" fill="#b1b1f3" /><rect x="3" y="5" width="1" height="1" fill="#b3b0f1" /><rect x="3" y="6" width="1" height="1" fill="#b5aeef" /><rect x="3" y="7" width="1" height="1" fill="#b5afed" /><rect x="3" y="8" width="1" height="1" fill="#b8aeee" /><rect x="3" y="9" width="1" height="1" fill="#b8afed" /><rect x="4" y="0" width="1" height="1" fill="#b0aef1" /><rect x="4" y="1" width="1" height="1" fill="#b0aff0" /><rect x="4" y="2" width="1" height="1" fill="#b0aff1" /><rect x="4" y="3" width="1" height="1" fill="#b3b1f0" /><rect x="4" y="4" width="1" height="1" fill="#b2b0f0" /><rect x="4" y="5" width="1" height="1" fill="#b4afef" /><rect x="4" y="6" width="1" height="1" fill="#b5afef" /><rect x="4" y="7" width="1" height="1" fill="#b8aeee" /><rect x="4" y="8" width="1" height="1" fill="#b9aeef" /><rect x="4" y="9" width="1" height="1" fill="#b8aeed" /><rect x="5" y="0" width="1" height="1" fill="#b0aef1" /><rect x="5" y="1" width="1" height="1" fill="#b0aef0" /><rect x="5" y="2" width="1" height="1" fill="#b3b1f0" /><rect x="5" y="3" width="1" height="1" fill="#b5aeef" /><rect x="5" y="4" width="1" height="1" fill="#b4afee" /><rect x="5" y="5" width="1" height="1" fill="#b5afed" /><rect x="5" y="6" width="1" height="1" fill="#b9afee" /><rect x="5" y="7" width="1" height="1" fill="#b9afec" /><rect x="5" y="8" width="1" height="1" fill="#b9aeec" /><rect x="5" y="9" width="1" height="1" fill="#baaeeb" /><rect x="6" y="0" width="1" height="1" fill="#b5aef1" /><rect x="6" y="1" width="1" height="1" fill="#b5aff1" /><rect x="6" y="2" width="1" height="1" fill="#b4b0f3" /><rect x="6" y="3" width="1" height="1" fill="#b6b1f1" /><rect x="6" y="4" width="1" height="1" fill="#b7b0f0" /><rect x="6" y="5" width="1" height="1" fill="#b9afee" /><rect x="6" y="6" width="1" height="1" fill="#bbb0ef" /><rect x="6" y="7" width="1" height="1" fill="#baafed" /><rect x="6" y="8" width="1" height="1" fill="#bcafec" /><rect x="6" y="9" width="1" height="1" fill="#beafea" /><rect x="7" y="0" width="1" height="1" fill="#b5aeee" /><rect x="7" y="1" width="1" height="1" fill="#b5aeee" /><rect x="7" y="2" width="1" height="1" fill="#b7b1f0" /><rect x="7" y="3" width="1" height="1" fill="#b9aeee" /><rect x="7" y="4" width="1" height="1" fill="#b8aeee" /><rect x="7" y="5" width="1" height="1" fill="#b8aeed" /><rect x="7" y="6" width="1" height="1" fill="#bbafec" /><rect x="7" y="7" width="1" height="1" fill="#bcaeed" /><rect x="7" y="8" width="1" height="1" fill="#bfaeea" /><rect x="7" y="9" width="1" height="1" fill="#c0aee9" /><rect x="8" y="0" width="1" height="1" fill="#b9aff0" /><rect x="8" y="1" width="1" height="1" fill="#b9afef" /><rect x="8" y="2" width="1" height="1" fill="#b9aeef" /><rect x="8" y="3" width="1" height="1" fill="#b8aeef" /><rect x="8" y="4" width="1" height="1" fill="#b8afef" /><rect x="8" y="5" width="1" height="1" fill="#bbaeed" /><rect x="8" y="6" width="1" height="1" fill="#bcafec" /><rect x="8" y="7" width="1" height="1" fill="#beaeeb" /><rect x="8" y="8" width="1" height="1" fill="#bfafeb" /><rect x="8" y="9" width="1" height="1" fill="#c0afe9" /><rect x="9" y="0" width="1" height="1" fill="#b8afee" /><rect x="9" y="1" width="1" height="1" fill="#b8aeee" /><rect x="9" y="2" width="1" height="1" fill="#b9afee" /><rect x="9" y="3" width="1" height="1" fill="#baaeec" /><rect x="9" y="4" width="1" height="1" fill="#baafed" /><rect x="9" y="5" width="1" height="1" fill="#bdaeec" /><rect x="9" y="6" width="1" height="1" fill="#bfaeeb" /><rect x="9" y="7" width="1" height="1" fill="#c0aee8" /><rect x="9" y="8" width="1" height="1" fill="#c1afe8" /><rect x="9" y="9" width="1" height="1" fill="#c2afe6" /></g></svg>