<svg width="800" height="1000" xmlns="http://www.w3.org/2000/svg"><defs><linearGradient id="g" x1="0" x2="1" y1="0" y2="1"><stop offset="0%" stop-color="#2d3c96"/><stop offset="100%" stop-color="#d53392"/></linearGradient></defs><rect x="10" y="10" width="780" height="980" fill="url(#g)" rx="50" ry="50" stroke="gold" stroke-width="20"/><text x="400" y="920" width="780" text-anchor="middle" style="font:bold 200px 'Helvetica Neue';fill:gold">04534</text><g transform="translate(80 80) scale(64)"><rect x="0" y="0" width="1" height="1" fill="#f1a9cd" /><rect x="0" y="1" width="1" height="1" fill="#eea9cd" /><rect x="0" y="2" width="1" height="1" fill="#f1aace" /><rect x="0" y="3" width="1" height="1" fill="#f1abce" /><rect x="0" y="4" width="1" height="1" fill="#f1aacd" /><rect x="0" y="5" width="1" height="1" fill="#f1abca" /><rect x="0" y="6" width="1" height="1" fill="#f2aacb" /><rect x="0" y="7" width="1" height="1" fill="#f4aac9" /><rect x="0" y="8" width="1" height="1" fill="#f4a8c7" /><rect x="0" y="9" width="1" height="1" fill="#f6aac7" /><rect x="1" y="0" width="1" height="1" fill="#f0a8cd" /><rect x="1" y="1" width="1" height="1" fill="#f2a9ce" /><rect x="1" y="2" width="1" height="1" fill="#f2a9ce" /><rect x="1" y="3" width="1" height="1" fill="#f2a8cd" /><rect x="1" y="4" width="1" height="1" fill="#f0abcb" /><rect x="1" y="5" width="1" height="1" fill="#f2aac8" /><rect x="1" y="6" width="1" height="1" fill="#f4abc8" /><rect x="1" y="7" width="1" height="1" fill="#f5abc8" /><rect x="1" y="8" width="1" height="1" fill="#f5abc4" /><rect x="1" y="9" width="1" height="1" fill="#f5aac4" /><rect x="2" y="0" width="1" height="1" fill="#f5a9cd" /><rect x="2" y="1" width="1" height="1" fill="#f4a9cd" /><rect x="2" y="2" width="1" height="1" fill="#f4a9cc" /><rect x="2" y="3" width="1" height="1" fill="#f5a8ca" /><rect x="2" y="4" width="1" height="1" fill="#f4a9ca" /><rect x="2" y="5" width="1" height="1" fill="#f6a8c8" /><rect x="2" y="6" width="1" height="1" fill="#f4abc8" /><rect x="2" y="7" width="1" height="1" fill="#f4aac7" /><rect x="2" y="8" width="1" height="1" fill="#f5a8c2" /><rect x="2" y="9" width="1" height="1" fill="#f6abc3" /><rect x="3" y="0" width="1" height="1" fill="#f2a9ca" /><rect x="3" y="1" width="1" height="1" fill="#f4a9ca" /><rect x="3" y="2" width="1" height="1" fill="#f4a8cb" /><rect x="3" y="3" width="1" height="1" fill="#f5a8c9" /><rect x="3" y="4" width="1" height="1" fill="#f8a8c9" /><rect x="3" y="5" width="1" height="1" fill="#f8a9c9" /><rect x="3" y="6" width="1" height="1" fill="#f9a9c7" /><rect x="3" y="7" width="1" height="1" fill="#f9aac5" /><rect x="3" y="8" width="1" height="1" fill="#f6a9c1" /><rect x="3" y="9" width="1" height="1" fill="#f9abc0" /><rect x="4" y="0" width="1" height="1" fill="#f4afce" /><rect x="4" y="1" width="1" height="1" fill="#f5abc8" /><rect x="4" y="2" width="1" height="1" fill="#f5abc8" /><rect x="4" y="3" width="1" height="1" fill="#fbaacb" /><rect x="4" y="4" width="1" height="1" fill="#fda8cb" /><rect x="4" y="5" width="1" height="1" fill="#fda6c6" /><rect x="4" y="6" width="1" height="1" fill="#fda7c5" /><rect x="4" y="7" width="1" height="1" fill="#fcaac5" /><rect x="4" y="8" width="1" height="1" fill="#fca8c3" /><rect x="4" y="9" width="1" height="1" fill="#faaac0" /><rect x="5" y="0" width="1" height="1" fill="#eaadc6" /><rect x="5" y="1" width="1" height="1" fill="#eeadc9" /><rect x="5" y="2" width="1" height="1" fill="#f3acc9" /><rect x="5" y="3" width="1" height="1" fill="#f4a9c4" /><rect x="5" y="4" width="1" height="1" fill="#f8a7c4" /><rect x="5" y="5" width="1" height="1" fill="#fca7c5" /><rect x="5" y="6" width="1" height="1" fill="#fea6c3" /><rect x="5" y="7" width="1" height="1" fill="#fea8c1" /><rect x="5" y="8" width="1" height="1" fill="#fda8c0" /><rect x="5" y="9" width="1" height="1" fill="#fda9c0" /><rect x="6" y="0" width="1" height="1" fill="#f1bdd3" /><rect x="6" y="1" width="1" height="1" fill="#eab2c8" /><rect x="6" y="2" width="1" height="1" fill="#ebabc3" /><rect x="6" y="3" width="1" height="1" fill="#f2a8c5" /><rect x="6" y="4" width="1" height="1" fill="#fcaac7" /><rect x="6" y="5" width="1" height="1" fill="#ffa6c3" /><rect x="6" y="6" width="1" height="1" fill="#fea6c3" /><rect x="6" y="7" width="1" height="1" fill="#fea6c0" /><rect x="6" y="8" width="1" height="1" fill="#ffa8c1" /><rect x="6" y="9" width="1" height="1" fill="#feabbe" /><rect x="7" y="0" width="1" height="1" fill="#ffe0ef" /><rect x="7" y="1" width="1" height="1" fill="#efc2d4" /><rect x="7" y="2" width="1" height="1" fill="#e3acc0" /><rect x="7" y="3" width="1" height="1" fill="#efafc4" /><rect x="7" y="4" width="1" height="1" fill="#feb1c8" /><rect x="7" y="5" width="1" height="1" fill="#fca7c0" /><rect x="7" y="6" width="1" height="1" fill="#fea4be" /><rect x="7" y="7" width="1" height="1" fill="#feaac3" /><rect x="7" y="8" width="1" height="1" fill="#fea9be" /><rect x="7" y="9" width="1" height="1" fill="#feaabc" /><rect x="8" y="0" width="1" height="1" fill="#fff8fe" /><rect x="8" y="1" width="1" height="1" fill="#fbe1eb" /><rect x="8" y="2" width="1" height="1" fill="#eec5d3" /><rect x="8" y="3" width="1" height="1" fill="#edb7c6" /><rect x="8" y="4" width="1" height="1" fill="#f2aac1" /><rect x="8" y="5" width="1" height="1" fill="#f8a6bc" /><rect x="8" y="6" width="1" height="1" fill="#ffa6bf" /><rect x="8" y="7" width="1" height="1" fill="#ffabc2" /><rect x="8" y="8" width="1" height="1" fill="#ffabc1" /><rect x="8" y="9" width="1" height="1" fill="#ffadbf" /><rect x="9" y="0" width="1" height="1" fill="#fefbfc" /><rect x="9" y="1" width="1" height="1" fill="#fffbfe" /><rect x="9" y="2" width="1" height="1" fill="#fee6ee" /><rect x="9" y="3" width="1" height="1" fill="#f2c5d0" /><rect x="9" y="4" width="1" height="1" fill="#ebaabd" /><rect x="9" y="5" width="1" height="1" fill="#f5a6bc" /><rect x="9" y="6" width="1" height="1" fill="#feabc1" /><rect x="9" y="7" width="1" height="1" fill="#fea9be" /><rect x="9" y="8" width="1" height="1" fill="#ffaabf" /><rect x="9" y="9" width="1" height="1" fill="#ffafbc" /></g></svg>