<svg width="800" height="1000" xmlns="http://www.w3.org/2000/svg"><defs><linearGradient id="g" x1="0" x2="1" y1="0" y2="1"><stop offset="0%" stop-color="#2d3c96"/><stop offset="100%" stop-color="#d53392"/></linearGradient></defs><rect x="10" y="10" width="780" height="980" fill="url(#g)" rx="50" ry="50" stroke="gold" stroke-width="20"/><text x="400" y="920" width="780" text-anchor="middle" style="font:bold 200px 'Helvetica Neue';fill:gold">04531</text><g transform="translate(80 80) scale(64)"><rect x="0" y="0" width="1" height="1" fill="#c7aee6" /><rect x="0" y="1" width="1" height="1" fill="#c7afe6" /><rect x="0" y="2" width="1" height="1" fill="#c7aee6" /><rect x="0" y="3" width="1" height="1" fill="#c6aee4" /><rect x="0" y="4" width="1" height="1" fill="#c6aee5" /><rect x="0" y="5" width="1" height="1" fill="#cbafe4" /><rect x="0" y="6" width="1" height="1" fill="#caaee5" /><rect x="0" y="7" width="1" height="1" fill="#ccafe3" /><rect x="0" y="8" width="1" height="1" fill="#cface2" /><rect x="0" y="9" width="1" height="1" fill="#ceace0" /><rect x="1" y="0" width="1" height="1" fill="#c7afe4" /><rect x="1" y="1" width="1" height="1" fill="#c7aee4" /><rect x="1" y="2" width="1" height="1" fill="#c7aee5" /><rect x="1" y="3" width="1" height="1" fill="#c8afe3" /><rect x="1" y="4" width="1" height="1" fill="#cbaee5" /><rect x="1" y="5" width="1" height="1" fill="#caaee2" /><rect x="1" y="6" width="1" height="1" fill="#cdaee3" /><rect x="1" y="7" width="1" height="1" fill="#cfafe1" /><rect x="1" y="8" width="1" height="1" fill="#cfade1" /><rect x="1" y="9" width="1" height="1" fill="#d1adde" /><rect x="2" y="0" width="1" height="1" fill="#c9afe5" /><rect x="2" y="1" width="1" height="1" fill="#c9aee3" /><rect x="2" y="2" width="1" height="1" fill="#c9aee2" /><rect x="2" y="3" width="1" height="1" fill="#caafe3" /><rect x="2" y="4" width="1" height="1" fill="#caaee3" /><rect x="2" y="5" width="1" height="1" fill="#ccafe1" /><rect x="2" y="6" width="1" height="1" fill="#cfaee0" /><rect x="2" y="7" width="1" height="1" fill="#cfacdf" /><rect x="2" y="8" width="1" height="1" fill="#d0addf" /><rect x="2" y="9" width="1" height="1" fill="#d3acdd" /><rect x="3" y="0" width="1" height="1" fill="#c9aee1" /><rect x="3" y="1" width="1" height="1" fill="#cbafe1" /><rect x="3" y="2" width="1" height="1" fill="#cbafe0" /><rect x="3" y="3" width="1" height="1" fill="#cdafe0" /><rect x="3" y="4" width="1" height="1" fill="#ccafe1" /><rect x="3" y="5" width="1" height="1" fill="#ceafde" /><rect x="3" y="6" width="1" height="1" fill="#cfacdf" /><rect x="3" y="7" width="1" height="1" fill="#d1acdc" /><rect x="3" y="8" width="1" height="1" fill="#d2addf" /><rect x="3" y="9" width="1" height="1" fill="#d4addc" /><rect x="4" y="0" width="1" height="1" fill="#cbade0" /><rect x="4" y="1" width="1" height="1" fill="#caacde" /><rect x="4" y="2" width="1" height="1" fill="#cdaee1" /><rect x="4" y="3" width="1" height="1" fill="#cfaee0" /><rect x="4" y="4" width="1" height="1" fill="#cfaee1" /><rect x="4" y="5" width="1" height="1" fill="#cfadde" /><rect x="4" y="6" width="1" height="1" fill="#d2ace1" /><rect x="4" y="7" width="1" height="1" fill="#d3addf" /><rect x="4" y="8" width="1" height="1" fill="#d4addd" /><rect x="4" y="9" width="1" height="1" fill="#d6acda" /><rect x="5" y="0" width="1" height="1" fill="#caacde" /><rect x="5" y="1" width="1" height="1" fill="#cdaee1" /><rect x="5" y="2" width="1" height="1" fill="#cfaee1" /><rect x="5" y="3" width="1" height="1" fill="#cfadde" /><rect x="5" y="4" width="1" height="1" fill="#ceadde" /><rect x="5" y="5" width="1" height="1" fill="#d2afde" /><rect x="5" y="6" width="1" height="1" fill="#d2adde" /><rect x="5" y="7" width="1" height="1" fill="#d5acdd" /><rect x="5" y="8" width="1" height="1" fill="#d7acdb" /><rect x="5" y="9" width="1" height="1" fill="#d7add9" /><rect x="6" y="0" width="1" height="1" fill="#ceaede" /><rect x="6" y="1" width="1" height="1" fill="#ceafdf" /><rect x="6" y="2" width="1" height="1" fill="#ceadde" /><rect x="6" y="3" width="1" height="1" fill="#ceacdf" /><rect x="6" y="4" width="1" height="1" fill="#d1addf" /><rect x="6" y="5" width="1" height="1" fill="#d2acde" /><rect x="6" y="6" width="1" height="1" fill="#d4addd" /><rect x="6" y="7" width="1" height="1" fill="#d7acdb" /><rect x="6" y="8" width="1" height="1" fill="#d9addb" /><rect x="6" y="9" width="1" height="1" fill="#daadda" /><rect x="7" y="0" width="1" height="1" fill="#cfaedf" /><rect x="7" y="1" width="1" height="1" fill="#cfaede" /><rect x="7" y="2" width="1" height="1" fill="#ceaddf" /><rect x="7" y="3" width="1" height="1" fill="#d0acdd" /><rect x="7" y="4" width="1" height="1" fill="#d3addf" /><rect x="7" y="5" width="1" height="1" fill="#d2addc" /><rect x="7" y="6" width="1" height="1" fill="#d4adda" /><rect x="7" y="7" width="1" height="1" fill="#d6acda" /><rect x="7" y="8" width="1" height="1" fill="#d9acdb" /><rect x="7" y="9" width="1" height="1" fill="#daacd8" /><rect x="8" y="0" width="1" height="1" fill="#cfadde" /><rect x="8" y="1" width="1" height="1" fill="#ceadde" /><rect x="8" y="2" width="1" height="1" fill="#d1addd" /><rect x="8" y="3" width="1" height="1" fill="#d3afdf" /><rect x="8" y="4" width="1" height="1" fill="#d2acdf" /><rect x="8" y="5" width="1" height="1" fill="#d5acdd" /><rect x="8" y="6" width="1" height="1" fill="#d7adda" /><rect x="8" y="7" width="1" height="1" fill="#d7acdb" /><rect x="8" y="8" width="1" height="1" fill="#daadda" /><rect x="8" y="9" width="1" height="1" fill="#dbacd8" /><rect x="9" y="0" width="1" height="1" fill="#d0acdc" /><rect x="9" y="1" width="1" height="1" fill="#d0addc" /><rect x="9" y="2" width="1" height="1" fill="#d0addc" /><rect x="9" y="3" width="1" height="1" fill="#d3acdd" /><rect x="9" y="4" width="1" height="1" fill="#d3acdc" /><rect x="9" y="5" width="1" height="1" fill="#d4acdb" /><rect x="9" y="6" width="1" height="1" fill="#d7acdb" /><rect x="9" y="7" width="1" height="1" fill="#d6add8" /><rect x="9" y="8" width="1" height="1" fill="#daacd8" /><rect x="9" y="9" width="1" height="1" fill="#dcadd6" /></g></svg>