<svg width="800" height="1000" xmlns="http://www.w3.org/2000/svg"><defs><linearGradient id="g" x1="0" x2="1" y1="0" y2="1"><stop offset="0%" stop-color="#2d3c96"/><stop offset="100%" stop-color="#d53392"/></linearGradient></defs><rect x="10" y="10" width="780" height="980" fill="url(#g)" rx="50" ry="50" stroke="gold" stroke-width="20"/><text x="400" y="920" width="780" text-anchor="middle" style="font:bold 200px 'Helvetica Neue';fill:gold">04628</text><g transform="translate(80 80) scale(64)"><rect x="0" y="0" width="1" height="1" fill="#a8b0fe" /><rect x="0" y="1" width="1" height="1" fill="#a8b1fd" /><rect x="0" y="2" width="1" height="1" fill="#acb0f8" /><rect x="0" y="3" width="1" height="1" fill="#acaef5" /><rect x="0" y="4" width="1" height="1" fill="#aeaef0" /><rect x="0" y="5" width="1" height="1" fill="#afafee" /><rect x="0" y="6" width="1" height="1" fill="#b1b0f1" /><rect x="0" y="7" width="1" height="1" fill="#b2b1f0" /><rect x="0" y="8" width="1" height="1" fill="#b3b1f2" /><rect x="0" y="9" width="1" height="1" fill="#b4b0f2" /><rect x="1" y="0" width="1" height="1" fill="#a9b1ff" /><rect x="1" y="1" width="1" height="1" fill="#a8b0fb" /><rect x="1" y="2" width="1" height="1" fill="#adb0f7" /><rect x="1" y="3" width="1" height="1" fill="#aeb1f2" /><rect x="1" y="4" width="1" height="1" fill="#b0aef1" /><rect x="1" y="5" width="1" height="1" fill="#b1aef0" /><rect x="1" y="6" width="1" height="1" fill="#b2b0f1" /><rect x="1" y="7" width="1" height="1" fill="#b5aff0" /><rect x="1" y="8" width="1" height="1" fill="#b5b1f3" /><rect x="1" y="9" width="1" height="1" fill="#b7b0f0" /><rect x="2" y="0" width="1" height="1" fill="#a8b0fa" /><rect x="2" y="1" width="1" height="1" fill="#aab0f7" /><rect x="2" y="2" width="1" height="1" fill="#acb0f5" /><rect x="2" y="3" width="1" height="1" fill="#aeb0f2" /><rect x="2" y="4" width="1" height="1" fill="#b1aff0" /><rect x="2" y="5" width="1" height="1" fill="#b2aff1" /><rect x="2" y="6" width="1" height="1" fill="#b5b1f3" /><rect x="2" y="7" width="1" height="1" fill="#b6b0f0" /><rect x="2" y="8" width="1" height="1" fill="#b7b1f0" /><rect x="2" y="9" width="1" height="1" fill="#b9aeef" /><rect x="3" y="0" width="1" height="1" fill="#aab1f5" /><rect x="3" y="1" width="1" height="1" fill="#acb0f2" /><rect x="3" y="2" width="1" height="1" fill="#b0b1f3" /><rect x="3" y="3" width="1" height="1" fill="#b1b1f2" /><rect x="3" y="4" width="1" height="1" fill="#b3aef3" /><rect x="3" y="5" width="1" height="1" fill="#b5aef0" /><rect x="3" y="6" width="1" height="1" fill="#b6b1f0" /><rect x="3" y="7" width="1" height="1" fill="#b9afef" /><rect x="3" y="8" width="1" height="1" fill="#b8aeef" /><rect x="3" y="9" width="1" height="1" fill="#b8aeec" /><rect x="4" y="0" width="1" height="1" fill="#adb0f0" /><rect x="4" y="1" width="1" height="1" fill="#b1b0f1" /><rect x="4" y="2" width="1" height="1" fill="#b0b1f0" /><rect x="4" y="3" width="1" height="1" fill="#b2b1f1" /><rect x="4" y="4" width="1" height="1" fill="#b4b1f3" /><rect x="4" y="5" width="1" height="1" fill="#b7aff2" /><rect x="4" y="6" width="1" height="1" fill="#b8aef1" /><rect x="4" y="7" width="1" height="1" fill="#b8afee" /><rect x="4" y="8" width="1" height="1" fill="#b8aeee" /><rect x="4" y="9" width="1" height="1" fill="#bbafed" /><rect x="5" y="0" width="1" height="1" fill="#afb0ed" /><rect x="5" y="1" width="1" height="1" fill="#b1b2eb" /><rect x="5" y="2" width="1" height="1" fill="#b3b1ec" /><rect x="5" y="3" width="1" height="1" fill="#b2b1f0" /><rect x="5" y="4" width="1" height="1" fill="#b5b1f2" /><rect x="5" y="5" width="1" height="1" fill="#b7aef2" /><rect x="5" y="6" width="1" height="1" fill="#b8aef1" /><rect x="5" y="7" width="1" height="1" fill="#b9aeef" /><rect x="5" y="8" width="1" height="1" fill="#baafec" /><rect x="5" y="9" width="1" height="1" fill="#bbafed" /><rect x="6" y="0" width="1" height="1" fill="#b3b1ea" /><rect x="6" y="1" width="1" height="1" fill="#b2b0eb" /><rect x="6" y="2" width="1" height="1" fill="#b4b1ec" /><rect x="6" y="3" width="1" height="1" fill="#b5b1f1" /><rect x="6" y="4" width="1" height="1" fill="#b6b0f4" /><rect x="6" y="5" width="1" height="1" fill="#b8aef4" /><rect x="6" y="6" width="1" height="1" fill="#b8afef" /><rect x="6" y="7" width="1" height="1" fill="#baaeed" /><rect x="6" y="8" width="1" height="1" fill="#baafec" /><rect x="6" y="9" width="1" height="1" fill="#bbafec" /><rect x="7" y="0" width="1" height="1" fill="#b4b1eb" /><rect x="7" y="1" width="1" height="1" fill="#b4b1e8" /><rect x="7" y="2" width="1" height="1" fill="#b4b2eb" /><rect x="7" y="3" width="1" height="1" fill="#b6b0ef" /><rect x="7" y="4" width="1" height="1" fill="#b7b0f3" /><rect x="7" y="5" width="1" height="1" fill="#b8b0f3" /><rect x="7" y="6" width="1" height="1" fill="#bbafef" /><rect x="7" y="7" width="1" height="1" fill="#bcafed" /><rect x="7" y="8" width="1" height="1" fill="#bdaeec" /><rect x="7" y="9" width="1" height="1" fill="#bdafec" /><rect x="8" y="0" width="1" height="1" fill="#b4b1ef" /><rect x="8" y="1" width="1" height="1" fill="#b6b0ec" /><rect x="8" y="2" width="1" height="1" fill="#b6b0ed" /><rect x="8" y="3" width="1" height="1" fill="#b9b0ec" /><rect x="8" y="4" width="1" height="1" fill="#b9b1ef" /><rect x="8" y="5" width="1" height="1" fill="#bbb1ee" /><rect x="8" y="6" width="1" height="1" fill="#bcaeec" /><rect x="8" y="7" width="1" height="1" fill="#beaeed" /><rect x="8" y="8" width="1" height="1" fill="#bfafed" /><rect x="8" y="9" width="1" height="1" fill="#c1aeea" /><rect x="9" y="0" width="1" height="1" fill="#b7b1ef" /><rect x="9" y="1" width="1" height="1" fill="#b6b1ee" /><rect x="9" y="2" width="1" height="1" fill="#b8b0ec" /><rect x="9" y="3" width="1" height="1" fill="#b9b1ed" /><rect x="9" y="4" width="1" height="1" fill="#bab1ed" /><rect x="9" y="5" width="1" height="1" fill="#bab0ec" /><rect x="9" y="6" width="1" height="1" fill="#bcaeec" /><rect x="9" y="7" width="1" height="1" fill="#beafed" /><rect x="9" y="8" width="1" height="1" fill="#c1aeeb" /><rect x="9" y="9" width="1" height="1" fill="#c2aeea" /></g></svg>