<svg width="800" height="1000" xmlns="http://www.w3.org/2000/svg"><defs><linearGradient id="g" x1="0" x2="1" y1="0" y2="1"><stop offset="0%" stop-color="#2d3c96"/><stop offset="100%" stop-color="#d53392"/></linearGradient></defs><rect x="10" y="10" width="780" height="980" fill="url(#g)" rx="50" ry="50" stroke="gold" stroke-width="20"/><text x="400" y="920" width="780" text-anchor="middle" style="font:bold 200px 'Helvetica Neue';fill:gold">04629</text><g transform="translate(80 80) scale(64)"><rect x="0" y="0" width="1" height="1" fill="#b6b0ef" /><rect x="0" y="1" width="1" height="1" fill="#b8afee" /><rect x="0" y="2" width="1" height="1" fill="#b9aeec" /><rect x="0" y="3" width="1" height="1" fill="#bbb0ec" /><rect x="0" y="4" width="1" height="1" fill="#bab1ed" /><rect x="0" y="5" width="1" height="1" fill="#bcaeed" /><rect x="0" y="6" width="1" height="1" fill="#bfaeec" /><rect x="0" y="7" width="1" height="1" fill="#c1afea" /><rect x="0" y="8" width="1" height="1" fill="#c2aeeb" /><rect x="0" y="9" width="1" height="1" fill="#c2afea" /><rect x="1" y="0" width="1" height="1" fill="#b9afef" /><rect x="1" y="1" width="1" height="1" fill="#b9b0ec" /><rect x="1" y="2" width="1" height="1" fill="#bbb1ed" /><rect x="1" y="3" width="1" height="1" fill="#bab1ed" /><rect x="1" y="4" width="1" height="1" fill="#bbb0ed" /><rect x="1" y="5" width="1" height="1" fill="#bcafeb" /><rect x="1" y="6" width="1" height="1" fill="#c0aeeb" /><rect x="1" y="7" width="1" height="1" fill="#c2afeb" /><rect x="1" y="8" width="1" height="1" fill="#c2afea" /><rect x="1" y="9" width="1" height="1" fill="#c3aee9" /><rect x="2" y="0" width="1" height="1" fill="#b8aeee" /><rect x="2" y="1" width="1" height="1" fill="#b8aeed" /><rect x="2" y="2" width="1" height="1" fill="#bbaeec" /><rect x="2" y="3" width="1" height="1" fill="#bbb1ec" /><rect x="2" y="4" width="1" height="1" fill="#bcafec" /><rect x="2" y="5" width="1" height="1" fill="#beafea" /><rect x="2" y="6" width="1" height="1" fill="#c2afeb" /><rect x="2" y="7" width="1" height="1" fill="#c3aee8" /><rect x="2" y="8" width="1" height="1" fill="#c2afe9" /><rect x="2" y="9" width="1" height="1" fill="#c3afe9" /><rect x="3" y="0" width="1" height="1" fill="#b8afec" /><rect x="3" y="1" width="1" height="1" fill="#bab1ed" /><rect x="3" y="2" width="1" height="1" fill="#bab0ec" /><rect x="3" y="3" width="1" height="1" fill="#bdaeea" /><rect x="3" y="4" width="1" height="1" fill="#bdaeeb" /><rect x="3" y="5" width="1" height="1" fill="#beafe8" /><rect x="3" y="6" width="1" height="1" fill="#c3afe8" /><rect x="3" y="7" width="1" height="1" fill="#c3aee8" /><rect x="3" y="8" width="1" height="1" fill="#c2aee8" /><rect x="3" y="9" width="1" height="1" fill="#c7afe8" /><rect x="4" y="0" width="1" height="1" fill="#bbb1ec" /><rect x="4" y="1" width="1" height="1" fill="#bcafea" /><rect x="4" y="2" width="1" height="1" fill="#bcafeb" /><rect x="4" y="3" width="1" height="1" fill="#bfafeb" /><rect x="4" y="4" width="1" height="1" fill="#beb1eb" /><rect x="4" y="5" width="1" height="1" fill="#c2afe8" /><rect x="4" y="6" width="1" height="1" fill="#c4ade8" /><rect x="4" y="7" width="1" height="1" fill="#c7ace7" /><rect x="4" y="8" width="1" height="1" fill="#c7ade6" /><rect x="4" y="9" width="1" height="1" fill="#c6aee6" /><rect x="5" y="0" width="1" height="1" fill="#bdafea" /><rect x="5" y="1" width="1" height="1" fill="#bfaeeb" /><rect x="5" y="2" width="1" height="1" fill="#beaeeb" /><rect x="5" y="3" width="1" height="1" fill="#c0afe9" /><rect x="5" y="4" width="1" height="1" fill="#c0afe9" /><rect x="5" y="5" width="1" height="1" fill="#c2afe7" /><rect x="5" y="6" width="1" height="1" fill="#c5ace6" /><rect x="5" y="7" width="1" height="1" fill="#c7ade6" /><rect x="5" y="8" width="1" height="1" fill="#c7ace6" /><rect x="5" y="9" width="1" height="1" fill="#c9afe4" /><rect x="6" y="0" width="1" height="1" fill="#bfaeea" /><rect x="6" y="1" width="1" height="1" fill="#c1aee9" /><rect x="6" y="2" width="1" height="1" fill="#c1afe9" /><rect x="6" y="3" width="1" height="1" fill="#c3afe7" /><rect x="6" y="4" width="1" height="1" fill="#c2aee6" /><rect x="6" y="5" width="1" height="1" fill="#c5ade6" /><rect x="6" y="6" width="1" height="1" fill="#c8ade6" /><rect x="6" y="7" width="1" height="1" fill="#caace4" /><rect x="6" y="8" width="1" height="1" fill="#caace4" /><rect x="6" y="9" width="1" height="1" fill="#caafe5" /><rect x="7" y="0" width="1" height="1" fill="#c0aee8" /><rect x="7" y="1" width="1" height="1" fill="#c1aee7" /><rect x="7" y="2" width="1" height="1" fill="#c2afe6" /><rect x="7" y="3" width="1" height="1" fill="#c2afe7" /><rect x="7" y="4" width="1" height="1" fill="#c3afe7" /><rect x="7" y="5" width="1" height="1" fill="#c5aee7" /><rect x="7" y="6" width="1" height="1" fill="#c8aee4" /><rect x="7" y="7" width="1" height="1" fill="#caade2" /><rect x="7" y="8" width="1" height="1" fill="#caade3" /><rect x="7" y="9" width="1" height="1" fill="#cdafe3" /><rect x="8" y="0" width="1" height="1" fill="#c1ace8" /><rect x="8" y="1" width="1" height="1" fill="#c2afe6" /><rect x="8" y="2" width="1" height="1" fill="#c2afe7" /><rect x="8" y="3" width="1" height="1" fill="#c5afe7" /><rect x="8" y="4" width="1" height="1" fill="#c5afe6" /><rect x="8" y="5" width="1" height="1" fill="#c8ade4" /><rect x="8" y="6" width="1" height="1" fill="#caade3" /><rect x="8" y="7" width="1" height="1" fill="#cdace0" /><rect x="8" y="8" width="1" height="1" fill="#cfade2" /><rect x="8" y="9" width="1" height="1" fill="#cface3" /><rect x="9" y="0" width="1" height="1" fill="#c3afe6" /><rect x="9" y="1" width="1" height="1" fill="#c4aee6" /><rect x="9" y="2" width="1" height="1" fill="#c5aee7" /><rect x="9" y="3" width="1" height="1" fill="#c6aee4" /><rect x="9" y="4" width="1" height="1" fill="#c7afe5" /><rect x="9" y="5" width="1" height="1" fill="#c9aee2" /><rect x="9" y="6" width="1" height="1" fill="#caace1" /><rect x="9" y="7" width="1" height="1" fill="#ceade3" /><rect x="9" y="8" width="1" height="1" fill="#cface3" /><rect x="9" y="9" width="1" height="1" fill="#cface0" /></g></svg>