<svg width="800" height="1000" xmlns="http://www.w3.org/2000/svg"><defs><linearGradient id="g" x1="0" x2="1" y1="0" y2="1"><stop offset="0%" stop-color="#2d3c96"/><stop offset="100%" stop-color="#d53392"/></linearGradient></defs><rect x="10" y="10" width="780" height="980" fill="url(#g)" rx="50" ry="50" stroke="gold" stroke-width="20"/><text x="400" y="920" width="780" text-anchor="middle" style="font:bold 200px 'Helvetica Neue';fill:gold">04631</text><g transform="translate(80 80) scale(64)"><rect x="0" y="0" width="1" height="1" fill="#d0acdf" /><rect x="0" y="1" width="1" height="1" fill="#d2addf" /><rect x="0" y="2" width="1" height="1" fill="#d3acdf" /><rect x="0" y="3" width="1" height="1" fill="#d5addc" /><rect x="0" y="4" width="1" height="1" fill="#d5acdc" /><rect x="0" y="5" width="1" height="1" fill="#d7addc" /><rect x="0" y="6" width="1" height="1" fill="#dbacda" /><rect x="0" y="7" width="1" height="1" fill="#dbadda" /><rect x="0" y="8" width="1" height="1" fill="#dcacdb" /><rect x="0" y="9" width="1" height="1" fill="#ddadd8" /><rect x="1" y="0" width="1" height="1" fill="#d3addc" /><rect x="1" y="1" width="1" height="1" fill="#d5addd" /><rect x="1" y="2" width="1" height="1" fill="#d4acdc" /><rect x="1" y="3" width="1" height="1" fill="#d6addc" /><rect x="1" y="4" width="1" height="1" fill="#d6acdd" /><rect x="1" y="5" width="1" height="1" fill="#d7acda" /><rect x="1" y="6" width="1" height="1" fill="#dbaddb" /><rect x="1" y="7" width="1" height="1" fill="#dcadd8" /><rect x="1" y="8" width="1" height="1" fill="#ddadd9" /><rect x="1" y="9" width="1" height="1" fill="#dfadd6" /><rect x="2" y="0" width="1" height="1" fill="#d5acdf" /><rect x="2" y="1" width="1" height="1" fill="#d6acdd" /><rect x="2" y="2" width="1" height="1" fill="#d7aadc" /><rect x="2" y="3" width="1" height="1" fill="#d6acdb" /><rect x="2" y="4" width="1" height="1" fill="#d9acdb" /><rect x="2" y="5" width="1" height="1" fill="#daacda" /><rect x="2" y="6" width="1" height="1" fill="#ddaad8" /><rect x="2" y="7" width="1" height="1" fill="#dfabd7" /><rect x="2" y="8" width="1" height="1" fill="#dfacd7" /><rect x="2" y="9" width="1" height="1" fill="#e0aad5" /><rect x="3" y="0" width="1" height="1" fill="#d6acdc" /><rect x="3" y="1" width="1" height="1" fill="#d6acdb" /><rect x="3" y="2" width="1" height="1" fill="#d8abdb" /><rect x="3" y="3" width="1" height="1" fill="#daaddb" /><rect x="3" y="4" width="1" height="1" fill="#daaddb" /><rect x="3" y="5" width="1" height="1" fill="#daadd8" /><rect x="3" y="6" width="1" height="1" fill="#dfaad7" /><rect x="3" y="7" width="1" height="1" fill="#e0aad5" /><rect x="3" y="8" width="1" height="1" fill="#e1abd5" /><rect x="3" y="9" width="1" height="1" fill="#e3aad2" /><rect x="4" y="0" width="1" height="1" fill="#d6acdb" /><rect x="4" y="1" width="1" height="1" fill="#d8aad8" /><rect x="4" y="2" width="1" height="1" fill="#daacdb" /><rect x="4" y="3" width="1" height="1" fill="#daacd8" /><rect x="4" y="4" width="1" height="1" fill="#dbacd8" /><rect x="4" y="5" width="1" height="1" fill="#dcacd7" /><rect x="4" y="6" width="1" height="1" fill="#e0abd5" /><rect x="4" y="7" width="1" height="1" fill="#e3abd2" /><rect x="4" y="8" width="1" height="1" fill="#e3aad2" /><rect x="4" y="9" width="1" height="1" fill="#e2aad3" /><rect x="5" y="0" width="1" height="1" fill="#daadda" /><rect x="5" y="1" width="1" height="1" fill="#dbacd9" /><rect x="5" y="2" width="1" height="1" fill="#daacd9" /><rect x="5" y="3" width="1" height="1" fill="#ddacd6" /><rect x="5" y="4" width="1" height="1" fill="#ddadd7" /><rect x="5" y="5" width="1" height="1" fill="#dfacd4" /><rect x="5" y="6" width="1" height="1" fill="#e2abd3" /><rect x="5" y="7" width="1" height="1" fill="#e2aad3" /><rect x="5" y="8" width="1" height="1" fill="#e3abd3" /><rect x="5" y="9" width="1" height="1" fill="#e5abd3" /><rect x="6" y="0" width="1" height="1" fill="#dbacda" /><rect x="6" y="1" width="1" height="1" fill="#dbadd9" /><rect x="6" y="2" width="1" height="1" fill="#ddaad9" /><rect x="6" y="3" width="1" height="1" fill="#dfacd7" /><rect x="6" y="4" width="1" height="1" fill="#deadd7" /><rect x="6" y="5" width="1" height="1" fill="#e0abd4" /><rect x="6" y="6" width="1" height="1" fill="#e3add5" /><rect x="6" y="7" width="1" height="1" fill="#e5acd2" /><rect x="6" y="8" width="1" height="1" fill="#e5abd3" /><rect x="6" y="9" width="1" height="1" fill="#e4abd0" /><rect x="7" y="0" width="1" height="1" fill="#daacd8" /><rect x="7" y="1" width="1" height="1" fill="#dcadd7" /><rect x="7" y="2" width="1" height="1" fill="#dfadd7" /><rect x="7" y="3" width="1" height="1" fill="#deadd7" /><rect x="7" y="4" width="1" height="1" fill="#e0abd4" /><rect x="7" y="5" width="1" height="1" fill="#e3abd2" /><rect x="7" y="6" width="1" height="1" fill="#e4add3" /><rect x="7" y="7" width="1" height="1" fill="#e5add3" /><rect x="7" y="8" width="1" height="1" fill="#e4abd0" /><rect x="7" y="9" width="1" height="1" fill="#e6aad0" /><rect x="8" y="0" width="1" height="1" fill="#ddadd9" /><rect x="8" y="1" width="1" height="1" fill="#ddadd7" /><rect x="8" y="2" width="1" height="1" fill="#deadd6" /><rect x="8" y="3" width="1" height="1" fill="#e0aad5" /><rect x="8" y="4" width="1" height="1" fill="#e3add6" /><rect x="8" y="5" width="1" height="1" fill="#e3acd4" /><rect x="8" y="6" width="1" height="1" fill="#e5add2" /><rect x="8" y="7" width="1" height="1" fill="#e4aad0" /><rect x="8" y="8" width="1" height="1" fill="#e7abd0" /><rect x="8" y="9" width="1" height="1" fill="#e9acd2" /><rect x="9" y="0" width="1" height="1" fill="#dcacd6" /><rect x="9" y="1" width="1" height="1" fill="#dfacd4" /><rect x="9" y="2" width="1" height="1" fill="#e1add2" /><rect x="9" y="3" width="1" height="1" fill="#e3acd5" /><rect x="9" y="4" width="1" height="1" fill="#e3add5" /><rect x="9" y="5" width="1" height="1" fill="#e5acd3" /><rect x="9" y="6" width="1" height="1" fill="#e5abd1" /><rect x="9" y="7" width="1" height="1" fill="#e7abd1" /><rect x="9" y="8" width="1" height="1" fill="#e9add2" /><rect x="9" y="9" width="1" height="1" fill="#e9aad1" /></g></svg>