<svg width="800" height="1000" xmlns="http://www.w3.org/2000/svg"><defs><linearGradient id="g" x1="0" x2="1" y1="0" y2="1"><stop offset="0%" stop-color="#2d3c96"/><stop offset="100%" stop-color="#d53392"/></linearGradient></defs><rect x="10" y="10" width="780" height="980" fill="url(#g)" rx="50" ry="50" stroke="gold" stroke-width="20"/><text x="400" y="920" width="780" text-anchor="middle" style="font:bold 200px 'Helvetica Neue';fill:gold">04632</text><g transform="translate(80 80) scale(64)"><rect x="0" y="0" width="1" height="1" fill="#e1add2" /><rect x="0" y="1" width="1" height="1" fill="#e2abd3" /><rect x="0" y="2" width="1" height="1" fill="#e2aad3" /><rect x="0" y="3" width="1" height="1" fill="#e3abd2" /><rect x="0" y="4" width="1" height="1" fill="#e5add1" /><rect x="0" y="5" width="1" height="1" fill="#e4abd1" /><rect x="0" y="6" width="1" height="1" fill="#e7add1" /><rect x="0" y="7" width="1" height="1" fill="#e8add1" /><rect x="0" y="8" width="1" height="1" fill="#e9abd1" /><rect x="0" y="9" width="1" height="1" fill="#eaaace" /><rect x="1" y="0" width="1" height="1" fill="#e3abd2" /><rect x="1" y="1" width="1" height="1" fill="#e2abd3" /><rect x="1" y="2" width="1" height="1" fill="#e3abd1" /><rect x="1" y="3" width="1" height="1" fill="#e5acd0" /><rect x="1" y="4" width="1" height="1" fill="#e4adce" /><rect x="1" y="5" width="1" height="1" fill="#e7abcf" /><rect x="1" y="6" width="1" height="1" fill="#e9acd1" /><rect x="1" y="7" width="1" height="1" fill="#e9abd1" /><rect x="1" y="8" width="1" height="1" fill="#ebabcf" /><rect x="1" y="9" width="1" height="1" fill="#edabce" /><rect x="2" y="0" width="1" height="1" fill="#e3abd2" /><rect x="2" y="1" width="1" height="1" fill="#e3abd2" /><rect x="2" y="2" width="1" height="1" fill="#e5aad1" /><rect x="2" y="3" width="1" height="1" fill="#e5aad1" /><rect x="2" y="4" width="1" height="1" fill="#e7aacf" /><rect x="2" y="5" width="1" height="1" fill="#e6abce" /><rect x="2" y="6" width="1" height="1" fill="#e9adcf" /><rect x="2" y="7" width="1" height="1" fill="#eaabcf" /><rect x="2" y="8" width="1" height="1" fill="#eaaacf" /><rect x="2" y="9" width="1" height="1" fill="#edabce" /><rect x="3" y="0" width="1" height="1" fill="#e3aad2" /><rect x="3" y="1" width="1" height="1" fill="#e5abd0" /><rect x="3" y="2" width="1" height="1" fill="#e5abd1" /><rect x="3" y="3" width="1" height="1" fill="#e6aace" /><rect x="3" y="4" width="1" height="1" fill="#e7aace" /><rect x="3" y="5" width="1" height="1" fill="#e9abcd" /><rect x="3" y="6" width="1" height="1" fill="#eaabcf" /><rect x="3" y="7" width="1" height="1" fill="#ecaacf" /><rect x="3" y="8" width="1" height="1" fill="#ecabce" /><rect x="3" y="9" width="1" height="1" fill="#efaacf" /><rect x="4" y="0" width="1" height="1" fill="#e5add2" /><rect x="4" y="1" width="1" height="1" fill="#e5aad1" /><rect x="4" y="2" width="1" height="1" fill="#e7aad1" /><rect x="4" y="3" width="1" height="1" fill="#e9aad1" /><rect x="4" y="4" width="1" height="1" fill="#e9aad1" /><rect x="4" y="5" width="1" height="1" fill="#e8adce" /><rect x="4" y="6" width="1" height="1" fill="#edaace" /><rect x="4" y="7" width="1" height="1" fill="#ecaacd" /><rect x="4" y="8" width="1" height="1" fill="#eeaace" /><rect x="4" y="9" width="1" height="1" fill="#f1abcf" /><rect x="5" y="0" width="1" height="1" fill="#e5aad0" /><rect x="5" y="1" width="1" height="1" fill="#e7aacf" /><rect x="5" y="2" width="1" height="1" fill="#e9abd1" /><rect x="5" y="3" width="1" height="1" fill="#e9accf" /><rect x="5" y="4" width="1" height="1" fill="#e9adce" /><rect x="5" y="5" width="1" height="1" fill="#eaaacd" /><rect x="5" y="6" width="1" height="1" fill="#edaacd" /><rect x="5" y="7" width="1" height="1" fill="#f0abcf" /><rect x="5" y="8" width="1" height="1" fill="#f1aacf" /><rect x="5" y="9" width="1" height="1" fill="#f1aacc" /><rect x="6" y="0" width="1" height="1" fill="#e6aad0" /><rect x="6" y="1" width="1" height="1" fill="#e8aad1" /><rect x="6" y="2" width="1" height="1" fill="#ebabce" /><rect x="6" y="3" width="1" height="1" fill="#ecaacc" /><rect x="6" y="4" width="1" height="1" fill="#edabcd" /><rect x="6" y="5" width="1" height="1" fill="#ecadce" /><rect x="6" y="6" width="1" height="1" fill="#f1abcf" /><rect x="6" y="7" width="1" height="1" fill="#f2a9cd" /><rect x="6" y="8" width="1" height="1" fill="#f2a9cd" /><rect x="6" y="9" width="1" height="1" fill="#f5a9cb" /><rect x="7" y="0" width="1" height="1" fill="#e9abd0" /><rect x="7" y="1" width="1" height="1" fill="#ebabcf" /><rect x="7" y="2" width="1" height="1" fill="#ecaacd" /><rect x="7" y="3" width="1" height="1" fill="#ecabcc" /><rect x="7" y="4" width="1" height="1" fill="#ecacce" /><rect x="7" y="5" width="1" height="1" fill="#efabcc" /><rect x="7" y="6" width="1" height="1" fill="#f0abcc" /><rect x="7" y="7" width="1" height="1" fill="#f5a8ca" /><rect x="7" y="8" width="1" height="1" fill="#f5a8ca" /><rect x="7" y="9" width="1" height="1" fill="#f5a9c8" /><rect x="8" y="0" width="1" height="1" fill="#ebabcf" /><rect x="8" y="1" width="1" height="1" fill="#ecaacd" /><rect x="8" y="2" width="1" height="1" fill="#edabcd" /><rect x="8" y="3" width="1" height="1" fill="#f0abcd" /><rect x="8" y="4" width="1" height="1" fill="#f1abcd" /><rect x="8" y="5" width="1" height="1" fill="#f0aaca" /><rect x="8" y="6" width="1" height="1" fill="#f5a8ca" /><rect x="8" y="7" width="1" height="1" fill="#f5a8c9" /><rect x="8" y="8" width="1" height="1" fill="#f5a9c9" /><rect x="8" y="9" width="1" height="1" fill="#f8a8c8" /><rect x="9" y="0" width="1" height="1" fill="#edabcd" /><rect x="9" y="1" width="1" height="1" fill="#ecaacb" /><rect x="9" y="2" width="1" height="1" fill="#f0abcd" /><rect x="9" y="3" width="1" height="1" fill="#f0abcb" /><rect x="9" y="4" width="1" height="1" fill="#f0abca" /><rect x="9" y="5" width="1" height="1" fill="#f0abc9" /><rect x="9" y="6" width="1" height="1" fill="#f4a8c8" /><rect x="9" y="7" width="1" height="1" fill="#f4a9c6" /><rect x="9" y="8" width="1" height="1" fill="#f9a8c8" /><rect x="9" y="9" width="1" height="1" fill="#f9a9c7" /></g></svg>