<svg width="800" height="1000" xmlns="http://www.w3.org/2000/svg"><defs><linearGradient id="g" x1="0" x2="1" y1="0" y2="1"><stop offset="0%" stop-color="#2d3c96"/><stop offset="100%" stop-color="#d53392"/></linearGradient></defs><rect x="10" y="10" width="780" height="980" fill="url(#g)" rx="50" ry="50" stroke="gold" stroke-width="20"/><text x="400" y="920" width="780" text-anchor="middle" style="font:bold 200px 'Helvetica Neue';fill:gold">04635</text><g transform="translate(80 80) scale(64)"><rect x="0" y="0" width="1" height="1" fill="#fbb2bc" /><rect x="0" y="1" width="1" height="1" fill="#fbb3bd" /><rect x="0" y="2" width="1" height="1" fill="#fab4bd" /><rect x="0" y="3" width="1" height="1" fill="#fdb4ba" /><rect x="0" y="4" width="1" height="1" fill="#ffb4bc" /><rect x="0" y="5" width="1" height="1" fill="#feb5bb" /><rect x="0" y="6" width="1" height="1" fill="#feb7bb" /><rect x="0" y="7" width="1" height="1" fill="#ffb7b8" /><rect x="0" y="8" width="1" height="1" fill="#ffb8b9" /><rect x="0" y="9" width="1" height="1" fill="#ffb9b6" /><rect x="1" y="0" width="1" height="1" fill="#feb1bd" /><rect x="1" y="1" width="1" height="1" fill="#ffb3bd" /><rect x="1" y="2" width="1" height="1" fill="#fcb3bb" /><rect x="1" y="3" width="1" height="1" fill="#fdb4b9" /><rect x="1" y="4" width="1" height="1" fill="#fcb6bb" /><rect x="1" y="5" width="1" height="1" fill="#fcb9b8" /><rect x="1" y="6" width="1" height="1" fill="#feb9b9" /><rect x="1" y="7" width="1" height="1" fill="#feb9b8" /><rect x="1" y="8" width="1" height="1" fill="#feb9b6" /><rect x="1" y="9" width="1" height="1" fill="#febbb4" /><rect x="2" y="0" width="1" height="1" fill="#ffadba" /><rect x="2" y="1" width="1" height="1" fill="#ffafba" /><rect x="2" y="2" width="1" height="1" fill="#feb2b8" /><rect x="2" y="3" width="1" height="1" fill="#ffb7b7" /><rect x="2" y="4" width="1" height="1" fill="#fbbab8" /><rect x="2" y="5" width="1" height="1" fill="#fabdb8" /><rect x="2" y="6" width="1" height="1" fill="#fabbb9" /><rect x="2" y="7" width="1" height="1" fill="#fcbab9" /><rect x="2" y="8" width="1" height="1" fill="#fdbdb9" /><rect x="2" y="9" width="1" height="1" fill="#febdb7" /><rect x="3" y="0" width="1" height="1" fill="#ffafbd" /><rect x="3" y="1" width="1" height="1" fill="#ffadb6" /><rect x="3" y="2" width="1" height="1" fill="#feaeb6" /><rect x="3" y="3" width="1" height="1" fill="#feb5b6" /><rect x="3" y="4" width="1" height="1" fill="#fabbb6" /><rect x="3" y="5" width="1" height="1" fill="#f7bbb5" /><rect x="3" y="6" width="1" height="1" fill="#fbbdb6" /><rect x="3" y="7" width="1" height="1" fill="#fabcb7" /><rect x="3" y="8" width="1" height="1" fill="#fcbcb7" /><rect x="3" y="9" width="1" height="1" fill="#ffbfb4" /><rect x="4" y="0" width="1" height="1" fill="#faaebb" /><rect x="4" y="1" width="1" height="1" fill="#feb1ba" /><rect x="4" y="2" width="1" height="1" fill="#feb7bd" /><rect x="4" y="3" width="1" height="1" fill="#ffb8b8" /><rect x="4" y="4" width="1" height="1" fill="#ffb8b6" /><rect x="4" y="5" width="1" height="1" fill="#fbb8b5" /><rect x="4" y="6" width="1" height="1" fill="#fdbbb7" /><rect x="4" y="7" width="1" height="1" fill="#fcbdb7" /><rect x="4" y="8" width="1" height="1" fill="#fcbcb3" /><rect x="4" y="9" width="1" height="1" fill="#ffbeb2" /><rect x="5" y="0" width="1" height="1" fill="#edb5ba" /><rect x="5" y="1" width="1" height="1" fill="#f8b8bf" /><rect x="5" y="2" width="1" height="1" fill="#ffbdc0" /><rect x="5" y="3" width="1" height="1" fill="#feb9bd" /><rect x="5" y="4" width="1" height="1" fill="#feb6b7" /><rect x="5" y="5" width="1" height="1" fill="#febab8" /><rect x="5" y="6" width="1" height="1" fill="#febdb6" /><rect x="5" y="7" width="1" height="1" fill="#fdbdb3" /><rect x="5" y="8" width="1" height="1" fill="#febeb3" /><rect x="5" y="9" width="1" height="1" fill="#ffc0b0" /><rect x="6" y="0" width="1" height="1" fill="#f2cacc" /><rect x="6" y="1" width="1" height="1" fill="#f1c0c0" /><rect x="6" y="2" width="1" height="1" fill="#f7bbbc" /><rect x="6" y="3" width="1" height="1" fill="#fcb8bb" /><rect x="6" y="4" width="1" height="1" fill="#ffb9bd" /><rect x="6" y="5" width="1" height="1" fill="#ffbaba" /><rect x="6" y="6" width="1" height="1" fill="#febbb5" /><rect x="6" y="7" width="1" height="1" fill="#ffbfb2" /><rect x="6" y="8" width="1" height="1" fill="#ffbfb1" /><rect x="6" y="9" width="1" height="1" fill="#ffc1ae" /><rect x="7" y="0" width="1" height="1" fill="#feece6" /><rect x="7" y="1" width="1" height="1" fill="#eecdca" /><rect x="7" y="2" width="1" height="1" fill="#e8b8b9" /><rect x="7" y="3" width="1" height="1" fill="#f4babc" /><rect x="7" y="4" width="1" height="1" fill="#febcc0" /><rect x="7" y="5" width="1" height="1" fill="#febbbb" /><rect x="7" y="6" width="1" height="1" fill="#febdb5" /><rect x="7" y="7" width="1" height="1" fill="#febdb1" /><rect x="7" y="8" width="1" height="1" fill="#ffc0af" /><rect x="7" y="9" width="1" height="1" fill="#fec2ad" /><rect x="8" y="0" width="1" height="1" fill="#fffef7" /><rect x="8" y="1" width="1" height="1" fill="#fae7e0" /><rect x="8" y="2" width="1" height="1" fill="#f1cfcc" /><rect x="8" y="3" width="1" height="1" fill="#f2c3c2" /><rect x="8" y="4" width="1" height="1" fill="#f8bdbf" /><rect x="8" y="5" width="1" height="1" fill="#febabb" /><rect x="8" y="6" width="1" height="1" fill="#ffbdb5" /><rect x="8" y="7" width="1" height="1" fill="#febeae" /><rect x="8" y="8" width="1" height="1" fill="#ffc0ac" /><rect x="8" y="9" width="1" height="1" fill="#ffc2ab" /><rect x="9" y="0" width="1" height="1" fill="#fafff4" /><rect x="9" y="1" width="1" height="1" fill="#fefef6" /><rect x="9" y="2" width="1" height="1" fill="#ffeae6" /><rect x="9" y="3" width="1" height="1" fill="#efcccb" /><rect x="9" y="4" width="1" height="1" fill="#ecbdbc" /><rect x="9" y="5" width="1" height="1" fill="#fac0bf" /><rect x="9" y="6" width="1" height="1" fill="#ffbeb4" /><rect x="9" y="7" width="1" height="1" fill="#febeaf" /><rect x="9" y="8" width="1" height="1" fill="#ffc0ad" /><rect x="9" y="9" width="1" height="1" fill="#fec2a8" /></g></svg>