<svg width="800" height="1000" xmlns="http://www.w3.org/2000/svg"><defs><linearGradient id="g" x1="0" x2="1" y1="0" y2="1"><stop offset="0%" stop-color="#2d3c96"/><stop offset="100%" stop-color="#d53392"/></linearGradient></defs><rect x="10" y="10" width="780" height="980" fill="url(#g)" rx="50" ry="50" stroke="gold" stroke-width="20"/><text x="400" y="920" width="780" text-anchor="middle" style="font:bold 200px 'Helvetica Neue';fill:gold">04726</text><g transform="translate(80 80) scale(64)"><rect x="0" y="0" width="1" height="1" fill="#f9fdfe" /><rect x="0" y="1" width="1" height="1" fill="#fbfeff" /><rect x="0" y="2" width="1" height="1" fill="#eef7fe" /><rect x="0" y="3" width="1" height="1" fill="#cfd5f5" /><rect x="0" y="4" width="1" height="1" fill="#a8b1de" /><rect x="0" y="5" width="1" height="1" fill="#a4ace2" /><rect x="0" y="6" width="1" height="1" fill="#a9acee" /><rect x="0" y="7" width="1" height="1" fill="#afb3fb" /><rect x="0" y="8" width="1" height="1" fill="#b0b3ff" /><rect x="0" y="9" width="1" height="1" fill="#aaaefc" /><rect x="1" y="0" width="1" height="1" fill="#fbffff" /><rect x="1" y="1" width="1" height="1" fill="#f2fbff" /><rect x="1" y="2" width="1" height="1" fill="#c7d0ee" /><rect x="1" y="3" width="1" height="1" fill="#a7afda" /><rect x="1" y="4" width="1" height="1" fill="#a8b0e9" /><rect x="1" y="5" width="1" height="1" fill="#a8b0f3" /><rect x="1" y="6" width="1" height="1" fill="#a8b1f8" /><rect x="1" y="7" width="1" height="1" fill="#a6adf9" /><rect x="1" y="8" width="1" height="1" fill="#a8adfa" /><rect x="1" y="9" width="1" height="1" fill="#acadfd" /><rect x="2" y="0" width="1" height="1" fill="#eff5ff" /><rect x="2" y="1" width="1" height="1" fill="#cad4f2" /><rect x="2" y="2" width="1" height="1" fill="#a7b2de" /><rect x="2" y="3" width="1" height="1" fill="#9ea8df" /><rect x="2" y="4" width="1" height="1" fill="#a9b4f4" /><rect x="2" y="5" width="1" height="1" fill="#a8b3fb" /><rect x="2" y="6" width="1" height="1" fill="#a9b1ff" /><rect x="2" y="7" width="1" height="1" fill="#a6abfc" /><rect x="2" y="8" width="1" height="1" fill="#a9acfb" /><rect x="2" y="9" width="1" height="1" fill="#acaffd" /><rect x="3" y="0" width="1" height="1" fill="#cbd0f1" /><rect x="3" y="1" width="1" height="1" fill="#a2add7" /><rect x="3" y="2" width="1" height="1" fill="#a1aae1" /><rect x="3" y="3" width="1" height="1" fill="#acb9f9" /><rect x="3" y="4" width="1" height="1" fill="#a1acf5" /><rect x="3" y="5" width="1" height="1" fill="#a5aefa" /><rect x="3" y="6" width="1" height="1" fill="#abb1ff" /><rect x="3" y="7" width="1" height="1" fill="#aeb5ff" /><rect x="3" y="8" width="1" height="1" fill="#afb2fe" /><rect x="3" y="9" width="1" height="1" fill="#b1b1fb" /><rect x="4" y="0" width="1" height="1" fill="#a7aedc" /><rect x="4" y="1" width="1" height="1" fill="#a8b0e9" /><rect x="4" y="2" width="1" height="1" fill="#acb8f9" /><rect x="4" y="3" width="1" height="1" fill="#9ca8f1" /><rect x="4" y="4" width="1" height="1" fill="#a4b0fd" /><rect x="4" y="5" width="1" height="1" fill="#a9b1fe" /><rect x="4" y="6" width="1" height="1" fill="#a9b0ff" /><rect x="4" y="7" width="1" height="1" fill="#acaffd" /><rect x="4" y="8" width="1" height="1" fill="#acb1f6" /><rect x="4" y="9" width="1" height="1" fill="#b1b1f4" /><rect x="5" y="0" width="1" height="1" fill="#adb3ea" /><rect x="5" y="1" width="1" height="1" fill="#a8b2f2" /><rect x="5" y="2" width="1" height="1" fill="#a3acf5" /><rect x="5" y="3" width="1" height="1" fill="#abb3fe" /><rect x="5" y="4" width="1" height="1" fill="#a7b0fe" /><rect x="5" y="5" width="1" height="1" fill="#a9b0fe" /><rect x="5" y="6" width="1" height="1" fill="#aab0fc" /><rect x="5" y="7" width="1" height="1" fill="#adb1f9" /><rect x="5" y="8" width="1" height="1" fill="#aeb1f2" /><rect x="5" y="9" width="1" height="1" fill="#b1b0f1" /><rect x="6" y="0" width="1" height="1" fill="#a7adef" /><rect x="6" y="1" width="1" height="1" fill="#a8b0f8" /><rect x="6" y="2" width="1" height="1" fill="#aab0fe" /><rect x="6" y="3" width="1" height="1" fill="#aab0ff" /><rect x="6" y="4" width="1" height="1" fill="#a8b0fe" /><rect x="6" y="5" width="1" height="1" fill="#abb0fd" /><rect x="6" y="6" width="1" height="1" fill="#acb0f7" /><rect x="6" y="7" width="1" height="1" fill="#acb0f3" /><rect x="6" y="8" width="1" height="1" fill="#afb1f0" /><rect x="6" y="9" width="1" height="1" fill="#b0b0ee" /><rect x="7" y="0" width="1" height="1" fill="#aaaff7" /><rect x="7" y="1" width="1" height="1" fill="#a7adf8" /><rect x="7" y="2" width="1" height="1" fill="#acb2fe" /><rect x="7" y="3" width="1" height="1" fill="#a9affc" /><rect x="7" y="4" width="1" height="1" fill="#aab0fc" /><rect x="7" y="5" width="1" height="1" fill="#acb1f9" /><rect x="7" y="6" width="1" height="1" fill="#acb0f2" /><rect x="7" y="7" width="1" height="1" fill="#afb1f1" /><rect x="7" y="8" width="1" height="1" fill="#b1b0ee" /><rect x="7" y="9" width="1" height="1" fill="#b2b1ec" /><rect x="8" y="0" width="1" height="1" fill="#b5b8fe" /><rect x="8" y="1" width="1" height="1" fill="#abaffc" /><rect x="8" y="2" width="1" height="1" fill="#a2a4f4" /><rect x="8" y="3" width="1" height="1" fill="#b1b2fe" /><rect x="8" y="4" width="1" height="1" fill="#acb0f6" /><rect x="8" y="5" width="1" height="1" fill="#afb0f3" /><rect x="8" y="6" width="1" height="1" fill="#afb0f0" /><rect x="8" y="7" width="1" height="1" fill="#b1b1ef" /><rect x="8" y="8" width="1" height="1" fill="#b1b1ef" /><rect x="8" y="9" width="1" height="1" fill="#b2b1ef" /><rect x="9" y="0" width="1" height="1" fill="#abaefc" /><rect x="9" y="1" width="1" height="1" fill="#acadfd" /><rect x="9" y="2" width="1" height="1" fill="#aaacfb" /><rect x="9" y="3" width="1" height="1" fill="#aeaef9" /><rect x="9" y="4" width="1" height="1" fill="#afb0f3" /><rect x="9" y="5" width="1" height="1" fill="#b1b1f0" /><rect x="9" y="6" width="1" height="1" fill="#b1b0ee" /><rect x="9" y="7" width="1" height="1" fill="#b2b0ed" /><rect x="9" y="8" width="1" height="1" fill="#b3b1ef" /><rect x="9" y="9" width="1" height="1" fill="#b3b0f0" /></g></svg>