<svg width="800" height="1000" xmlns="http://www.w3.org/2000/svg"><defs><linearGradient id="g" x1="0" x2="1" y1="0" y2="1"><stop offset="0%" stop-color="#2d3c96"/><stop offset="100%" stop-color="#d53392"/></linearGradient></defs><rect x="10" y="10" width="780" height="980" fill="url(#g)" rx="50" ry="50" stroke="gold" stroke-width="20"/><text x="400" y="920" width="780" text-anchor="middle" style="font:bold 200px 'Helvetica Neue';fill:gold">04729</text><g transform="translate(80 80) scale(64)"><rect x="0" y="0" width="1" height="1" fill="#c2aee8" /><rect x="0" y="1" width="1" height="1" fill="#c4ace8" /><rect x="0" y="2" width="1" height="1" fill="#c7afe8" /><rect x="0" y="3" width="1" height="1" fill="#c8ace6" /><rect x="0" y="4" width="1" height="1" fill="#caade4" /><rect x="0" y="5" width="1" height="1" fill="#cbace3" /><rect x="0" y="6" width="1" height="1" fill="#caade0" /><rect x="0" y="7" width="1" height="1" fill="#cdace0" /><rect x="0" y="8" width="1" height="1" fill="#cfadde" /><rect x="0" y="9" width="1" height="1" fill="#d0acdf" /><rect x="1" y="0" width="1" height="1" fill="#c3afe9" /><rect x="1" y="1" width="1" height="1" fill="#c6afe8" /><rect x="1" y="2" width="1" height="1" fill="#c7afe7" /><rect x="1" y="3" width="1" height="1" fill="#c9afe4" /><rect x="1" y="4" width="1" height="1" fill="#caade2" /><rect x="1" y="5" width="1" height="1" fill="#cbade0" /><rect x="1" y="6" width="1" height="1" fill="#cdade1" /><rect x="1" y="7" width="1" height="1" fill="#ceacde" /><rect x="1" y="8" width="1" height="1" fill="#d1acde" /><rect x="1" y="9" width="1" height="1" fill="#d1acde" /><rect x="2" y="0" width="1" height="1" fill="#c6aee8" /><rect x="2" y="1" width="1" height="1" fill="#c6afe7" /><rect x="2" y="2" width="1" height="1" fill="#c8ace7" /><rect x="2" y="3" width="1" height="1" fill="#caace5" /><rect x="2" y="4" width="1" height="1" fill="#caade3" /><rect x="2" y="5" width="1" height="1" fill="#ccade1" /><rect x="2" y="6" width="1" height="1" fill="#ceaddf" /><rect x="2" y="7" width="1" height="1" fill="#d1addf" /><rect x="2" y="8" width="1" height="1" fill="#d1acdf" /><rect x="2" y="9" width="1" height="1" fill="#d3addc" /><rect x="3" y="0" width="1" height="1" fill="#c6aee6" /><rect x="3" y="1" width="1" height="1" fill="#c8afe5" /><rect x="3" y="2" width="1" height="1" fill="#cbace4" /><rect x="3" y="3" width="1" height="1" fill="#caace3" /><rect x="3" y="4" width="1" height="1" fill="#ccace1" /><rect x="3" y="5" width="1" height="1" fill="#cfadde" /><rect x="3" y="6" width="1" height="1" fill="#d0acdf" /><rect x="3" y="7" width="1" height="1" fill="#d2acdd" /><rect x="3" y="8" width="1" height="1" fill="#d3addd" /><rect x="3" y="9" width="1" height="1" fill="#d2addb" /><rect x="4" y="0" width="1" height="1" fill="#c9ace6" /><rect x="4" y="1" width="1" height="1" fill="#caade5" /><rect x="4" y="2" width="1" height="1" fill="#caade3" /><rect x="4" y="3" width="1" height="1" fill="#cface2" /><rect x="4" y="4" width="1" height="1" fill="#ceadde" /><rect x="4" y="5" width="1" height="1" fill="#d0abdf" /><rect x="4" y="6" width="1" height="1" fill="#d3acde" /><rect x="4" y="7" width="1" height="1" fill="#d2abdd" /><rect x="4" y="8" width="1" height="1" fill="#d3aadc" /><rect x="4" y="9" width="1" height="1" fill="#d4abda" /><rect x="5" y="0" width="1" height="1" fill="#caace5" /><rect x="5" y="1" width="1" height="1" fill="#caace2" /><rect x="5" y="2" width="1" height="1" fill="#cdace0" /><rect x="5" y="3" width="1" height="1" fill="#cface1" /><rect x="5" y="4" width="1" height="1" fill="#d1aadf" /><rect x="5" y="5" width="1" height="1" fill="#d3acdc" /><rect x="5" y="6" width="1" height="1" fill="#d2abdc" /><rect x="5" y="7" width="1" height="1" fill="#d5aadb" /><rect x="5" y="8" width="1" height="1" fill="#d4aadb" /><rect x="5" y="9" width="1" height="1" fill="#d7adda" /><rect x="6" y="0" width="1" height="1" fill="#ccafe5" /><rect x="6" y="1" width="1" height="1" fill="#cface3" /><rect x="6" y="2" width="1" height="1" fill="#ceade1" /><rect x="6" y="3" width="1" height="1" fill="#d1acdf" /><rect x="6" y="4" width="1" height="1" fill="#d3addf" /><rect x="6" y="5" width="1" height="1" fill="#d3abdd" /><rect x="6" y="6" width="1" height="1" fill="#d7addc" /><rect x="6" y="7" width="1" height="1" fill="#d7acdb" /><rect x="6" y="8" width="1" height="1" fill="#d7acdb" /><rect x="6" y="9" width="1" height="1" fill="#d8aad9" /><rect x="7" y="0" width="1" height="1" fill="#cface3" /><rect x="7" y="1" width="1" height="1" fill="#ceace1" /><rect x="7" y="2" width="1" height="1" fill="#d1acde" /><rect x="7" y="3" width="1" height="1" fill="#d2acdc" /><rect x="7" y="4" width="1" height="1" fill="#d3aadd" /><rect x="7" y="5" width="1" height="1" fill="#d5aada" /><rect x="7" y="6" width="1" height="1" fill="#d6adda" /><rect x="7" y="7" width="1" height="1" fill="#d9abd8" /><rect x="7" y="8" width="1" height="1" fill="#d9aad8" /><rect x="7" y="9" width="1" height="1" fill="#dbabd6" /><rect x="8" y="0" width="1" height="1" fill="#ceace0" /><rect x="8" y="1" width="1" height="1" fill="#d1adde" /><rect x="8" y="2" width="1" height="1" fill="#d3ade1" /><rect x="8" y="3" width="1" height="1" fill="#d5acde" /><rect x="8" y="4" width="1" height="1" fill="#d6addc" /><rect x="8" y="5" width="1" height="1" fill="#d6adda" /><rect x="8" y="6" width="1" height="1" fill="#d9abd8" /><rect x="8" y="7" width="1" height="1" fill="#daaad7" /><rect x="8" y="8" width="1" height="1" fill="#daaad7" /><rect x="8" y="9" width="1" height="1" fill="#ddadd6" /><rect x="9" y="0" width="1" height="1" fill="#d1addf" /><rect x="9" y="1" width="1" height="1" fill="#d2acde" /><rect x="9" y="2" width="1" height="1" fill="#d5acdf" /><rect x="9" y="3" width="1" height="1" fill="#d6addc" /><rect x="9" y="4" width="1" height="1" fill="#d7adda" /><rect x="9" y="5" width="1" height="1" fill="#d9abd9" /><rect x="9" y="6" width="1" height="1" fill="#dbabd6" /><rect x="9" y="7" width="1" height="1" fill="#daabd4" /><rect x="9" y="8" width="1" height="1" fill="#dcacd6" /><rect x="9" y="9" width="1" height="1" fill="#deabd6" /></g></svg>