<svg width="800" height="1000" xmlns="http://www.w3.org/2000/svg"><defs><linearGradient id="g" x1="0" x2="1" y1="0" y2="1"><stop offset="0%" stop-color="#2d3c96"/><stop offset="100%" stop-color="#d53392"/></linearGradient></defs><rect x="10" y="10" width="780" height="980" fill="url(#g)" rx="50" ry="50" stroke="gold" stroke-width="20"/><text x="400" y="920" width="780" text-anchor="middle" style="font:bold 200px 'Helvetica Neue';fill:gold">04727</text><g transform="translate(80 80) scale(64)"><rect x="0" y="0" width="1" height="1" fill="#a3a7f3" /><rect x="0" y="1" width="1" height="1" fill="#adaffa" /><rect x="0" y="2" width="1" height="1" fill="#b9b6ff" /><rect x="0" y="3" width="1" height="1" fill="#aba9ee" /><rect x="0" y="4" width="1" height="1" fill="#b1aff1" /><rect x="0" y="5" width="1" height="1" fill="#b1afee" /><rect x="0" y="6" width="1" height="1" fill="#b2b1ec" /><rect x="0" y="7" width="1" height="1" fill="#b3b1ec" /><rect x="0" y="8" width="1" height="1" fill="#b3b1f1" /><rect x="0" y="9" width="1" height="1" fill="#b3aff4" /><rect x="1" y="0" width="1" height="1" fill="#b3b7ff" /><rect x="1" y="1" width="1" height="1" fill="#b0b2fc" /><rect x="1" y="2" width="1" height="1" fill="#aaabf2" /><rect x="1" y="3" width="1" height="1" fill="#b1b1f4" /><rect x="1" y="4" width="1" height="1" fill="#b1aef1" /><rect x="1" y="5" width="1" height="1" fill="#b4b0ec" /><rect x="1" y="6" width="1" height="1" fill="#b4b0ec" /><rect x="1" y="7" width="1" height="1" fill="#b4b0ec" /><rect x="1" y="8" width="1" height="1" fill="#b5aff1" /><rect x="1" y="9" width="1" height="1" fill="#b4b0f2" /><rect x="2" y="0" width="1" height="1" fill="#adb1f7" /><rect x="2" y="1" width="1" height="1" fill="#acb1f7" /><rect x="2" y="2" width="1" height="1" fill="#afaff4" /><rect x="2" y="3" width="1" height="1" fill="#b0aef3" /><rect x="2" y="4" width="1" height="1" fill="#b2b1f1" /><rect x="2" y="5" width="1" height="1" fill="#b4afef" /><rect x="2" y="6" width="1" height="1" fill="#b4b1f1" /><rect x="2" y="7" width="1" height="1" fill="#b6b0f1" /><rect x="2" y="8" width="1" height="1" fill="#b8aef0" /><rect x="2" y="9" width="1" height="1" fill="#b8aef0" /><rect x="3" y="0" width="1" height="1" fill="#acb1f5" /><rect x="3" y="1" width="1" height="1" fill="#adb1f2" /><rect x="3" y="2" width="1" height="1" fill="#aeb1f3" /><rect x="3" y="3" width="1" height="1" fill="#b0aff1" /><rect x="3" y="4" width="1" height="1" fill="#b3b0f1" /><rect x="3" y="5" width="1" height="1" fill="#b4aef0" /><rect x="3" y="6" width="1" height="1" fill="#b6b1f1" /><rect x="3" y="7" width="1" height="1" fill="#b8afee" /><rect x="3" y="8" width="1" height="1" fill="#b8aeef" /><rect x="3" y="9" width="1" height="1" fill="#b9aeef" /><rect x="4" y="0" width="1" height="1" fill="#adb1f4" /><rect x="4" y="1" width="1" height="1" fill="#adb1f2" /><rect x="4" y="2" width="1" height="1" fill="#b1b0f4" /><rect x="4" y="3" width="1" height="1" fill="#b1b0f2" /><rect x="4" y="4" width="1" height="1" fill="#b3b0f3" /><rect x="4" y="5" width="1" height="1" fill="#b5b0f3" /><rect x="4" y="6" width="1" height="1" fill="#b7b0f1" /><rect x="4" y="7" width="1" height="1" fill="#b8afef" /><rect x="4" y="8" width="1" height="1" fill="#b9aeee" /><rect x="4" y="9" width="1" height="1" fill="#bbafed" /><rect x="5" y="0" width="1" height="1" fill="#afb0f4" /><rect x="5" y="1" width="1" height="1" fill="#b1b1f3" /><rect x="5" y="2" width="1" height="1" fill="#b1b0f2" /><rect x="5" y="3" width="1" height="1" fill="#b3b0f0" /><rect x="5" y="4" width="1" height="1" fill="#b5b1f2" /><rect x="5" y="5" width="1" height="1" fill="#b6b1f1" /><rect x="5" y="6" width="1" height="1" fill="#b9aeee" /><rect x="5" y="7" width="1" height="1" fill="#b9aeec" /><rect x="5" y="8" width="1" height="1" fill="#baafed" /><rect x="5" y="9" width="1" height="1" fill="#bbaeec" /><rect x="6" y="0" width="1" height="1" fill="#b1b1f5" /><rect x="6" y="1" width="1" height="1" fill="#b0b0f3" /><rect x="6" y="2" width="1" height="1" fill="#b3aef2" /><rect x="6" y="3" width="1" height="1" fill="#b4b0f3" /><rect x="6" y="4" width="1" height="1" fill="#b6aef2" /><rect x="6" y="5" width="1" height="1" fill="#b8aff0" /><rect x="6" y="6" width="1" height="1" fill="#b9aeef" /><rect x="6" y="7" width="1" height="1" fill="#bbafed" /><rect x="6" y="8" width="1" height="1" fill="#bbafec" /><rect x="6" y="9" width="1" height="1" fill="#bcafed" /><rect x="7" y="0" width="1" height="1" fill="#b0b1f3" /><rect x="7" y="1" width="1" height="1" fill="#b2b0f3" /><rect x="7" y="2" width="1" height="1" fill="#b5b1f3" /><rect x="7" y="3" width="1" height="1" fill="#b7b0f0" /><rect x="7" y="4" width="1" height="1" fill="#b8aef1" /><rect x="7" y="5" width="1" height="1" fill="#b9aeef" /><rect x="7" y="6" width="1" height="1" fill="#bbafec" /><rect x="7" y="7" width="1" height="1" fill="#bdaeed" /><rect x="7" y="8" width="1" height="1" fill="#bcaeed" /><rect x="7" y="9" width="1" height="1" fill="#bfaeec" /><rect x="8" y="0" width="1" height="1" fill="#b2b0f2" /><rect x="8" y="1" width="1" height="1" fill="#b4b1f3" /><rect x="8" y="2" width="1" height="1" fill="#b7aff2" /><rect x="8" y="3" width="1" height="1" fill="#b9aff0" /><rect x="8" y="4" width="1" height="1" fill="#b8afee" /><rect x="8" y="5" width="1" height="1" fill="#baafed" /><rect x="8" y="6" width="1" height="1" fill="#bdaeec" /><rect x="8" y="7" width="1" height="1" fill="#beaeec" /><rect x="8" y="8" width="1" height="1" fill="#bfaeec" /><rect x="8" y="9" width="1" height="1" fill="#c1aeea" /><rect x="9" y="0" width="1" height="1" fill="#b5b0f3" /><rect x="9" y="1" width="1" height="1" fill="#b7b0f1" /><rect x="9" y="2" width="1" height="1" fill="#b8aef1" /><rect x="9" y="3" width="1" height="1" fill="#b9afee" /><rect x="9" y="4" width="1" height="1" fill="#bbafec" /><rect x="9" y="5" width="1" height="1" fill="#bdafeb" /><rect x="9" y="6" width="1" height="1" fill="#bfaeec" /><rect x="9" y="7" width="1" height="1" fill="#c1aeeb" /><rect x="9" y="8" width="1" height="1" fill="#c0afeb" /><rect x="9" y="9" width="1" height="1" fill="#c1adeb" /></g></svg>