<svg width="800" height="1000" xmlns="http://www.w3.org/2000/svg"><defs><linearGradient id="g" x1="0" x2="1" y1="0" y2="1"><stop offset="0%" stop-color="#2d3c96"/><stop offset="100%" stop-color="#d53392"/></linearGradient></defs><rect x="10" y="10" width="780" height="980" fill="url(#g)" rx="50" ry="50" stroke="gold" stroke-width="20"/><text x="400" y="920" width="780" text-anchor="middle" style="font:bold 200px 'Helvetica Neue';fill:gold">04754</text><g transform="translate(80 80) scale(64)"><rect x="0" y="0" width="1" height="1" fill="#464b6f" /><rect x="0" y="1" width="1" height="1" fill="#5b546f" /><rect x="0" y="2" width="1" height="1" fill="#716475" /><rect x="0" y="3" width="1" height="1" fill="#7d7183" /><rect x="0" y="4" width="1" height="1" fill="#79718c" /><rect x="0" y="5" width="1" height="1" fill="#726891" /><rect x="0" y="6" width="1" height="1" fill="#6c7094" /><rect x="0" y="7" width="1" height="1" fill="#616186" /><rect x="0" y="8" width="1" height="1" fill="#787398" /><rect x="0" y="9" width="1" height="1" fill="#78708e" /><rect x="1" y="0" width="1" height="1" fill="#75626d" /><rect x="1" y="1" width="1" height="1" fill="#bb9c87" /><rect x="1" y="2" width="1" height="1" fill="#cdaf95" /><rect x="1" y="3" width="1" height="1" fill="#b78f82" /><rect x="1" y="4" width="1" height="1" fill="#a77b77" /><rect x="1" y="5" width="1" height="1" fill="#ba7c6e" /><rect x="1" y="6" width="1" height="1" fill="#b68185" /><rect x="1" y="7" width="1" height="1" fill="#6f678a" /><rect x="1" y="8" width="1" height="1" fill="#71759c" /><rect x="1" y="9" width="1" height="1" fill="#7f7995" /><rect x="2" y="0" width="1" height="1" fill="#976e69" /><rect x="2" y="1" width="1" height="1" fill="#be8a72" /><rect x="2" y="2" width="1" height="1" fill="#d8b394" /><rect x="2" y="3" width="1" height="1" fill="#ddaf88" /><rect x="2" y="4" width="1" height="1" fill="#ce8764" /><rect x="2" y="5" width="1" height="1" fill="#e8a986" /><rect x="2" y="6" width="1" height="1" fill="#f1a972" /><rect x="2" y="7" width="1" height="1" fill="#c0917f" /><rect x="2" y="8" width="1" height="1" fill="#85798b" /><rect x="2" y="9" width="1" height="1" fill="#807f98" /><rect x="3" y="0" width="1" height="1" fill="#ba836b" /><rect x="3" y="1" width="1" height="1" fill="#edc09c" /><rect x="3" y="2" width="1" height="1" fill="#f9e3bb" /><rect x="3" y="3" width="1" height="1" fill="#f8d4a1" /><rect x="3" y="4" width="1" height="1" fill="#e5ab7d" /><rect x="3" y="5" width="1" height="1" fill="#d7916c" /><rect x="3" y="6" width="1" height="1" fill="#f5d3a3" /><rect x="3" y="7" width="1" height="1" fill="#dd9065" /><rect x="3" y="8" width="1" height="1" fill="#c46854" /><rect x="3" y="9" width="1" height="1" fill="#b4685d" /><rect x="4" y="0" width="1" height="1" fill="#e5b895" /><rect x="4" y="1" width="1" height="1" fill="#fce8bd" /><rect x="4" y="2" width="1" height="1" fill="#f8eec5" /><rect x="4" y="3" width="1" height="1" fill="#feeabd" /><rect x="4" y="4" width="1" height="1" fill="#cb9480" /><rect x="4" y="5" width="1" height="1" fill="#b46d5d" /><rect x="4" y="6" width="1" height="1" fill="#fae2ba" /><rect x="4" y="7" width="1" height="1" fill="#d28b70" /><rect x="4" y="8" width="1" height="1" fill="#d47c60" /><rect x="4" y="9" width="1" height="1" fill="#d08863" /><rect x="5" y="0" width="1" height="1" fill="#d4a98d" /><rect x="5" y="1" width="1" height="1" fill="#fcf1c8" /><rect x="5" y="2" width="1" height="1" fill="#f9f9d7" /><rect x="5" y="3" width="1" height="1" fill="#faf6cf" /><rect x="5" y="4" width="1" height="1" fill="#f1cca4" /><rect x="5" y="5" width="1" height="1" fill="#dea682" /><rect x="5" y="6" width="1" height="1" fill="#e9b794" /><rect x="5" y="7" width="1" height="1" fill="#d58974" /><rect x="5" y="8" width="1" height="1" fill="#df9a81" /><rect x="5" y="9" width="1" height="1" fill="#edb289" /><rect x="6" y="0" width="1" height="1" fill="#a97d6b" /><rect x="6" y="1" width="1" height="1" fill="#d9b690" /><rect x="6" y="2" width="1" height="1" fill="#faf3cf" /><rect x="6" y="3" width="1" height="1" fill="#fffdd8" /><rect x="6" y="4" width="1" height="1" fill="#d4a88e" /><rect x="6" y="5" width="1" height="1" fill="#e7c7a6" /><rect x="6" y="6" width="1" height="1" fill="#f7ddba" /><rect x="6" y="7" width="1" height="1" fill="#e4b693" /><rect x="6" y="8" width="1" height="1" fill="#fddbb3" /><rect x="6" y="9" width="1" height="1" fill="#fac9a1" /><rect x="7" y="0" width="1" height="1" fill="#816c78" /><rect x="7" y="1" width="1" height="1" fill="#c39f8c" /><rect x="7" y="2" width="1" height="1" fill="#e5c49b" /><rect x="7" y="3" width="1" height="1" fill="#f7dba9" /><rect x="7" y="4" width="1" height="1" fill="#e7ba94" /><rect x="7" y="5" width="1" height="1" fill="#efd2aa" /><rect x="7" y="6" width="1" height="1" fill="#f6d3a7" /><rect x="7" y="7" width="1" height="1" fill="#e9b37f" /><rect x="7" y="8" width="1" height="1" fill="#e3be97" /><rect x="7" y="9" width="1" height="1" fill="#a18174" /><rect x="8" y="0" width="1" height="1" fill="#797798" /><rect x="8" y="1" width="1" height="1" fill="#726d82" /><rect x="8" y="2" width="1" height="1" fill="#6f6071" /><rect x="8" y="3" width="1" height="1" fill="#7e6c7b" /><rect x="8" y="4" width="1" height="1" fill="#a9a0a5" /><rect x="8" y="5" width="1" height="1" fill="#9a8f9c" /><rect x="8" y="6" width="1" height="1" fill="#938291" /><rect x="8" y="7" width="1" height="1" fill="#8e7a8c" /><rect x="8" y="8" width="1" height="1" fill="#665a66" /><rect x="8" y="9" width="1" height="1" fill="#3f2c30" /><rect x="9" y="0" width="1" height="1" fill="#6f738b" /><rect x="9" y="1" width="1" height="1" fill="#6d6f91" /><rect x="9" y="2" width="1" height="1" fill="#636589" /><rect x="9" y="3" width="1" height="1" fill="#64698a" /><rect x="9" y="4" width="1" height="1" fill="#7e7c9a" /><rect x="9" y="5" width="1" height="1" fill="#82809a" /><rect x="9" y="6" width="1" height="1" fill="#646284" /><rect x="9" y="7" width="1" height="1" fill="#616084" /><rect x="9" y="8" width="1" height="1" fill="#6f6584" /><rect x="9" y="9" width="1" height="1" fill="#584755" /></g></svg>