<svg width="800" height="1000" xmlns="http://www.w3.org/2000/svg"><defs><linearGradient id="g" x1="0" x2="1" y1="0" y2="1"><stop offset="0%" stop-color="#2d3c96"/><stop offset="100%" stop-color="#d53392"/></linearGradient></defs><rect x="10" y="10" width="780" height="980" fill="url(#g)" rx="50" ry="50" stroke="gold" stroke-width="20"/><text x="400" y="920" width="780" text-anchor="middle" style="font:bold 200px 'Helvetica Neue';fill:gold">04829</text><g transform="translate(80 80) scale(64)"><rect x="0" y="0" width="1" height="1" fill="#d2acdf" /><rect x="0" y="1" width="1" height="1" fill="#d2acdf" /><rect x="0" y="2" width="1" height="1" fill="#d6acde" /><rect x="0" y="3" width="1" height="1" fill="#d5abdd" /><rect x="0" y="4" width="1" height="1" fill="#d4aada" /><rect x="0" y="5" width="1" height="1" fill="#d6acdc" /><rect x="0" y="6" width="1" height="1" fill="#dbb1df" /><rect x="0" y="7" width="1" height="1" fill="#daafdd" /><rect x="0" y="8" width="1" height="1" fill="#d9abd9" /><rect x="0" y="9" width="1" height="1" fill="#dcadd7" /><rect x="1" y="0" width="1" height="1" fill="#d2acdf" /><rect x="1" y="1" width="1" height="1" fill="#d3abdd" /><rect x="1" y="2" width="1" height="1" fill="#daacdd" /><rect x="1" y="3" width="1" height="1" fill="#d9a9d9" /><rect x="1" y="4" width="1" height="1" fill="#d8aad8" /><rect x="1" y="5" width="1" height="1" fill="#daacda" /><rect x="1" y="6" width="1" height="1" fill="#dbaed9" /><rect x="1" y="7" width="1" height="1" fill="#d8abd4" /><rect x="1" y="8" width="1" height="1" fill="#d7aad1" /><rect x="1" y="9" width="1" height="1" fill="#dbaed5" /><rect x="2" y="0" width="1" height="1" fill="#d3abdd" /><rect x="2" y="1" width="1" height="1" fill="#d6aadb" /><rect x="2" y="2" width="1" height="1" fill="#dcabda" /><rect x="2" y="3" width="1" height="1" fill="#dda9d7" /><rect x="2" y="4" width="1" height="1" fill="#dcacd6" /><rect x="2" y="5" width="1" height="1" fill="#ddadd7" /><rect x="2" y="6" width="1" height="1" fill="#daacd3" /><rect x="2" y="7" width="1" height="1" fill="#d7aad1" /><rect x="2" y="8" width="1" height="1" fill="#daaed2" /><rect x="2" y="9" width="1" height="1" fill="#dcb3d5" /><rect x="3" y="0" width="1" height="1" fill="#d4addc" /><rect x="3" y="1" width="1" height="1" fill="#d7acda" /><rect x="3" y="2" width="1" height="1" fill="#dda9d7" /><rect x="3" y="3" width="1" height="1" fill="#dea9d3" /><rect x="3" y="4" width="1" height="1" fill="#e1acd6" /><rect x="3" y="5" width="1" height="1" fill="#e0aed4" /><rect x="3" y="6" width="1" height="1" fill="#dbabd1" /><rect x="3" y="7" width="1" height="1" fill="#ddafd3" /><rect x="3" y="8" width="1" height="1" fill="#deb5d5" /><rect x="3" y="9" width="1" height="1" fill="#dbb4d3" /><rect x="4" y="0" width="1" height="1" fill="#d6acdc" /><rect x="4" y="1" width="1" height="1" fill="#d9abd9" /><rect x="4" y="2" width="1" height="1" fill="#ddaad5" /><rect x="4" y="3" width="1" height="1" fill="#dfabd2" /><rect x="4" y="4" width="1" height="1" fill="#e1add4" /><rect x="4" y="5" width="1" height="1" fill="#dfadd3" /><rect x="4" y="6" width="1" height="1" fill="#dbacd0" /><rect x="4" y="7" width="1" height="1" fill="#e0b3d4" /><rect x="4" y="8" width="1" height="1" fill="#dcb3d3" /><rect x="4" y="9" width="1" height="1" fill="#cda9c5" /><rect x="5" y="0" width="1" height="1" fill="#d7acda" /><rect x="5" y="1" width="1" height="1" fill="#d9acd7" /><rect x="5" y="2" width="1" height="1" fill="#ddadd5" /><rect x="5" y="3" width="1" height="1" fill="#deacd2" /><rect x="5" y="4" width="1" height="1" fill="#dfadd3" /><rect x="5" y="5" width="1" height="1" fill="#ddabd1" /><rect x="5" y="6" width="1" height="1" fill="#daabcf" /><rect x="5" y="7" width="1" height="1" fill="#dfb2d3" /><rect x="5" y="8" width="1" height="1" fill="#d5acca" /><rect x="5" y="9" width="1" height="1" fill="#bd99b5" /><rect x="6" y="0" width="1" height="1" fill="#daacda" /><rect x="6" y="1" width="1" height="1" fill="#dbacd8" /><rect x="6" y="2" width="1" height="1" fill="#daabd5" /><rect x="6" y="3" width="1" height="1" fill="#d8aad1" /><rect x="6" y="4" width="1" height="1" fill="#dbabd3" /><rect x="6" y="5" width="1" height="1" fill="#deaed4" /><rect x="6" y="6" width="1" height="1" fill="#daabcf" /><rect x="6" y="7" width="1" height="1" fill="#e0b4d7" /><rect x="6" y="8" width="1" height="1" fill="#d6adcd" /><rect x="6" y="9" width="1" height="1" fill="#563150" /><rect x="7" y="0" width="1" height="1" fill="#dbacd8" /><rect x="7" y="1" width="1" height="1" fill="#dbacd8" /><rect x="7" y="2" width="1" height="1" fill="#dcafd8" /><rect x="7" y="3" width="1" height="1" fill="#dcafd8" /><rect x="7" y="4" width="1" height="1" fill="#dfb1d8" /><rect x="7" y="5" width="1" height="1" fill="#ddadd3" /><rect x="7" y="6" width="1" height="1" fill="#d8a9cd" /><rect x="7" y="7" width="1" height="1" fill="#dbadd1" /><rect x="7" y="8" width="1" height="1" fill="#b88faf" /><rect x="7" y="9" width="1" height="1" fill="#1e0016" /><rect x="8" y="0" width="1" height="1" fill="#dcacd6" /><rect x="8" y="1" width="1" height="1" fill="#dcacd6" /><rect x="8" y="2" width="1" height="1" fill="#daadd8" /><rect x="8" y="3" width="1" height="1" fill="#daadd6" /><rect x="8" y="4" width="1" height="1" fill="#e0b2d9" /><rect x="8" y="5" width="1" height="1" fill="#ddadd5" /><rect x="8" y="6" width="1" height="1" fill="#deacd2" /><rect x="8" y="7" width="1" height="1" fill="#e4b5d9" /><rect x="8" y="8" width="1" height="1" fill="#b78bac" /><rect x="8" y="9" width="1" height="1" fill="#18000e" /><rect x="9" y="0" width="1" height="1" fill="#deabd6" /><rect x="9" y="1" width="1" height="1" fill="#dcacd6" /><rect x="9" y="2" width="1" height="1" fill="#dbacd6" /><rect x="9" y="3" width="1" height="1" fill="#d7a8d2" /><rect x="9" y="4" width="1" height="1" fill="#e0add6" /><rect x="9" y="5" width="1" height="1" fill="#dda9d0" /><rect x="9" y="6" width="1" height="1" fill="#e2abd2" /><rect x="9" y="7" width="1" height="1" fill="#eebade" /><rect x="9" y="8" width="1" height="1" fill="#ce9fbf" /><rect x="9" y="9" width="1" height="1" fill="#431b36" /></g></svg>