<svg width="800" height="1000" xmlns="http://www.w3.org/2000/svg"><defs><linearGradient id="g" x1="0" x2="1" y1="0" y2="1"><stop offset="0%" stop-color="#2d3c96"/><stop offset="100%" stop-color="#d53392"/></linearGradient></defs><rect x="10" y="10" width="780" height="980" fill="url(#g)" rx="50" ry="50" stroke="gold" stroke-width="20"/><text x="400" y="920" width="780" text-anchor="middle" style="font:bold 200px 'Helvetica Neue';fill:gold">04835</text><g transform="translate(80 80) scale(64)"><rect x="0" y="0" width="1" height="1" fill="#fec5b1" /><rect x="0" y="1" width="1" height="1" fill="#ffc6ab" /><rect x="0" y="2" width="1" height="1" fill="#ffc5a3" /><rect x="0" y="3" width="1" height="1" fill="#ffcaa7" /><rect x="0" y="4" width="1" height="1" fill="#ffc7a4" /><rect x="0" y="5" width="1" height="1" fill="#ffc9a7" /><rect x="0" y="6" width="1" height="1" fill="#ffc7a7" /><rect x="0" y="7" width="1" height="1" fill="#f8c3a3" /><rect x="0" y="8" width="1" height="1" fill="#ffd3b2" /><rect x="0" y="9" width="1" height="1" fill="#fbd4b3" /><rect x="1" y="0" width="1" height="1" fill="#fec6ab" /><rect x="1" y="1" width="1" height="1" fill="#ffc6a8" /><rect x="1" y="2" width="1" height="1" fill="#ffcda8" /><rect x="1" y="3" width="1" height="1" fill="#fcbe95" /><rect x="1" y="4" width="1" height="1" fill="#ffcfa9" /><rect x="1" y="5" width="1" height="1" fill="#ffc49d" /><rect x="1" y="6" width="1" height="1" fill="#ffc8a3" /><rect x="1" y="7" width="1" height="1" fill="#ffcfa8" /><rect x="1" y="8" width="1" height="1" fill="#ffd2aa" /><rect x="1" y="9" width="1" height="1" fill="#facea7" /><rect x="2" y="0" width="1" height="1" fill="#ffc9a5" /><rect x="2" y="1" width="1" height="1" fill="#ffc9a3" /><rect x="2" y="2" width="1" height="1" fill="#ffcaa4" /><rect x="2" y="3" width="1" height="1" fill="#ffcba5" /><rect x="2" y="4" width="1" height="1" fill="#ffcca4" /><rect x="2" y="5" width="1" height="1" fill="#ffcda5" /><rect x="2" y="6" width="1" height="1" fill="#ffcda5" /><rect x="2" y="7" width="1" height="1" fill="#ffcfa6" /><rect x="2" y="8" width="1" height="1" fill="#ffd0a6" /><rect x="2" y="9" width="1" height="1" fill="#fcd1a6" /><rect x="3" y="0" width="1" height="1" fill="#ffcaa2" /><rect x="3" y="1" width="1" height="1" fill="#ffcba3" /><rect x="3" y="2" width="1" height="1" fill="#fecda5" /><rect x="3" y="3" width="1" height="1" fill="#fecca7" /><rect x="3" y="4" width="1" height="1" fill="#fecda5" /><rect x="3" y="5" width="1" height="1" fill="#ffcea6" /><rect x="3" y="6" width="1" height="1" fill="#fecfa5" /><rect x="3" y="7" width="1" height="1" fill="#ffd0a6" /><rect x="3" y="8" width="1" height="1" fill="#fdd1a4" /><rect x="3" y="9" width="1" height="1" fill="#fdd1a2" /><rect x="4" y="0" width="1" height="1" fill="#ffcba3" /><rect x="4" y="1" width="1" height="1" fill="#fdcca3" /><rect x="4" y="2" width="1" height="1" fill="#fecda5" /><rect x="4" y="3" width="1" height="1" fill="#fecda5" /><rect x="4" y="4" width="1" height="1" fill="#ffcea6" /><rect x="4" y="5" width="1" height="1" fill="#ffcea6" /><rect x="4" y="6" width="1" height="1" fill="#ffd0a6" /><rect x="4" y="7" width="1" height="1" fill="#ffd0a6" /><rect x="4" y="8" width="1" height="1" fill="#fed2a5" /><rect x="4" y="9" width="1" height="1" fill="#fed2a3" /><rect x="5" y="0" width="1" height="1" fill="#fecda4" /><rect x="5" y="1" width="1" height="1" fill="#fecda4" /><rect x="5" y="2" width="1" height="1" fill="#ffcea5" /><rect x="5" y="3" width="1" height="1" fill="#ffcea6" /><rect x="5" y="4" width="1" height="1" fill="#ffcea6" /><rect x="5" y="5" width="1" height="1" fill="#ffd0a6" /><rect x="5" y="6" width="1" height="1" fill="#ffd0a6" /><rect x="5" y="7" width="1" height="1" fill="#fed2a5" /><rect x="5" y="8" width="1" height="1" fill="#fed2a3" /><rect x="5" y="9" width="1" height="1" fill="#fdd3a1" /><rect x="6" y="0" width="1" height="1" fill="#fdcda5" /><rect x="6" y="1" width="1" height="1" fill="#fdcea4" /><rect x="6" y="2" width="1" height="1" fill="#fecfa5" /><rect x="6" y="3" width="1" height="1" fill="#fecfa5" /><rect x="6" y="4" width="1" height="1" fill="#ffd0a6" /><rect x="6" y="5" width="1" height="1" fill="#ffd0a6" /><rect x="6" y="6" width="1" height="1" fill="#ffd1a5" /><rect x="6" y="7" width="1" height="1" fill="#fed2a3" /><rect x="6" y="8" width="1" height="1" fill="#ffd3a4" /><rect x="6" y="9" width="1" height="1" fill="#fed4a2" /><rect x="7" y="0" width="1" height="1" fill="#fecea6" /><rect x="7" y="1" width="1" height="1" fill="#fecfa5" /><rect x="7" y="2" width="1" height="1" fill="#ffd0a6" /><rect x="7" y="3" width="1" height="1" fill="#ffd0a6" /><rect x="7" y="4" width="1" height="1" fill="#ffd0a6" /><rect x="7" y="5" width="1" height="1" fill="#fed2a5" /><rect x="7" y="6" width="1" height="1" fill="#ffd3a4" /><rect x="7" y="7" width="1" height="1" fill="#fed4a2" /><rect x="7" y="8" width="1" height="1" fill="#fed4a2" /><rect x="7" y="9" width="1" height="1" fill="#fed6a2" /><rect x="8" y="0" width="1" height="1" fill="#ffcea6" /><rect x="8" y="1" width="1" height="1" fill="#fecfa5" /><rect x="8" y="2" width="1" height="1" fill="#ffd0a4" /><rect x="8" y="3" width="1" height="1" fill="#fed2a5" /><rect x="8" y="4" width="1" height="1" fill="#fed2a5" /><rect x="8" y="5" width="1" height="1" fill="#fed2a3" /><rect x="8" y="6" width="1" height="1" fill="#ffd3a4" /><rect x="8" y="7" width="1" height="1" fill="#fed4a2" /><rect x="8" y="8" width="1" height="1" fill="#ffd6a2" /><rect x="8" y="9" width="1" height="1" fill="#fed7a0" /><rect x="9" y="0" width="1" height="1" fill="#ffcea5" /><rect x="9" y="1" width="1" height="1" fill="#ffcfa4" /><rect x="9" y="2" width="1" height="1" fill="#fed2a5" /><rect x="9" y="3" width="1" height="1" fill="#fed2a3" /><rect x="9" y="4" width="1" height="1" fill="#fed2a3" /><rect x="9" y="5" width="1" height="1" fill="#fed4a2" /><rect x="9" y="6" width="1" height="1" fill="#fed4a2" /><rect x="9" y="7" width="1" height="1" fill="#fed6a2" /><rect x="9" y="8" width="1" height="1" fill="#fed7a0" /><rect x="9" y="9" width="1" height="1" fill="#fcd89e" /></g></svg>