<svg width="800" height="1000" xmlns="http://www.w3.org/2000/svg"><defs><linearGradient id="g" x1="0" x2="1" y1="0" y2="1"><stop offset="0%" stop-color="#2d3c96"/><stop offset="100%" stop-color="#d53392"/></linearGradient></defs><rect x="10" y="10" width="780" height="980" fill="url(#g)" rx="50" ry="50" stroke="gold" stroke-width="20"/><text x="400" y="920" width="780" text-anchor="middle" style="font:bold 200px 'Helvetica Neue';fill:gold">04837</text><g transform="translate(80 80) scale(64)"><rect x="0" y="0" width="1" height="1" fill="#ffd799" /><rect x="0" y="1" width="1" height="1" fill="#ffe09f" /><rect x="0" y="2" width="1" height="1" fill="#ffdd99" /><rect x="0" y="3" width="1" height="1" fill="#ffdd99" /><rect x="0" y="4" width="1" height="1" fill="#ffde99" /><rect x="0" y="5" width="1" height="1" fill="#ffdf9a" /><rect x="0" y="6" width="1" height="1" fill="#ffe19b" /><rect x="0" y="7" width="1" height="1" fill="#fee299" /><rect x="0" y="8" width="1" height="1" fill="#fde396" /><rect x="0" y="9" width="1" height="1" fill="#fee595" /><rect x="1" y="0" width="1" height="1" fill="#ffdd99" /><rect x="1" y="1" width="1" height="1" fill="#ffde9a" /><rect x="1" y="2" width="1" height="1" fill="#ffdd9b" /><rect x="1" y="3" width="1" height="1" fill="#ffde9c" /><rect x="1" y="4" width="1" height="1" fill="#ffdf9c" /><rect x="1" y="5" width="1" height="1" fill="#ffe09d" /><rect x="1" y="6" width="1" height="1" fill="#ffe19b" /><rect x="1" y="7" width="1" height="1" fill="#ffe39a" /><rect x="1" y="8" width="1" height="1" fill="#fee499" /><rect x="1" y="9" width="1" height="1" fill="#fce597" /><rect x="2" y="0" width="1" height="1" fill="#fee299" /><rect x="2" y="1" width="1" height="1" fill="#fbdd94" /><rect x="2" y="2" width="1" height="1" fill="#ffdf9c" /><rect x="2" y="3" width="1" height="1" fill="#ffde9e" /><rect x="2" y="4" width="1" height="1" fill="#ffe09d" /><rect x="2" y="5" width="1" height="1" fill="#ffe09d" /><rect x="2" y="6" width="1" height="1" fill="#ffe29c" /><rect x="2" y="7" width="1" height="1" fill="#ffe39a" /><rect x="2" y="8" width="1" height="1" fill="#ffe59a" /><rect x="2" y="9" width="1" height="1" fill="#ffe598" /><rect x="3" y="0" width="1" height="1" fill="#f9e199" /><rect x="3" y="1" width="1" height="1" fill="#fbe196" /><rect x="3" y="2" width="1" height="1" fill="#ffe19b" /><rect x="3" y="3" width="1" height="1" fill="#ffe09d" /><rect x="3" y="4" width="1" height="1" fill="#ffe19b" /><rect x="3" y="5" width="1" height="1" fill="#ffe29c" /><rect x="3" y="6" width="1" height="1" fill="#ffe39a" /><rect x="3" y="7" width="1" height="1" fill="#ffe59a" /><rect x="3" y="8" width="1" height="1" fill="#ffe59a" /><rect x="3" y="9" width="1" height="1" fill="#fde698" /><rect x="4" y="0" width="1" height="1" fill="#f4e19f" /><rect x="4" y="1" width="1" height="1" fill="#fbe59c" /><rect x="4" y="2" width="1" height="1" fill="#fde399" /><rect x="4" y="3" width="1" height="1" fill="#ffe199" /><rect x="4" y="4" width="1" height="1" fill="#ffe299" /><rect x="4" y="5" width="1" height="1" fill="#ffe399" /><rect x="4" y="6" width="1" height="1" fill="#ffe598" /><rect x="4" y="7" width="1" height="1" fill="#ffe696" /><rect x="4" y="8" width="1" height="1" fill="#ffe797" /><rect x="4" y="9" width="1" height="1" fill="#fee797" /><rect x="5" y="0" width="1" height="1" fill="#f2e1a9" /><rect x="5" y="1" width="1" height="1" fill="#f8e5a3" /><rect x="5" y="2" width="1" height="1" fill="#fbe39b" /><rect x="5" y="3" width="1" height="1" fill="#fde396" /><rect x="5" y="4" width="1" height="1" fill="#fee595" /><rect x="5" y="5" width="1" height="1" fill="#fee593" /><rect x="5" y="6" width="1" height="1" fill="#fde792" /><rect x="5" y="7" width="1" height="1" fill="#fde792" /><rect x="5" y="8" width="1" height="1" fill="#fde993" /><rect x="5" y="9" width="1" height="1" fill="#fde993" /><rect x="6" y="0" width="1" height="1" fill="#f9ecc0" /><rect x="6" y="1" width="1" height="1" fill="#f0e1a8" /><rect x="6" y="2" width="1" height="1" fill="#f7e49f" /><rect x="6" y="3" width="1" height="1" fill="#fce798" /><rect x="6" y="4" width="1" height="1" fill="#fbe592" /><rect x="6" y="5" width="1" height="1" fill="#fae48e" /><rect x="6" y="6" width="1" height="1" fill="#feea91" /><rect x="6" y="7" width="1" height="1" fill="#fff094" /><rect x="6" y="8" width="1" height="1" fill="#feed91" /><rect x="6" y="9" width="1" height="1" fill="#f6e78c" /><rect x="7" y="0" width="1" height="1" fill="#fcf3d4" /><rect x="7" y="1" width="1" height="1" fill="#f7ecbe" /><rect x="7" y="2" width="1" height="1" fill="#f4e4a6" /><rect x="7" y="3" width="1" height="1" fill="#f7e599" /><rect x="7" y="4" width="1" height="1" fill="#f9e896" /><rect x="7" y="5" width="1" height="1" fill="#feec96" /><rect x="7" y="6" width="1" height="1" fill="#fced90" /><rect x="7" y="7" width="1" height="1" fill="#f9ea8b" /><rect x="7" y="8" width="1" height="1" fill="#f8e98a" /><rect x="7" y="9" width="1" height="1" fill="#faed8f" /><rect x="8" y="0" width="1" height="1" fill="#fffae8" /><rect x="8" y="1" width="1" height="1" fill="#fff9da" /><rect x="8" y="2" width="1" height="1" fill="#f8ebb7" /><rect x="8" y="3" width="1" height="1" fill="#f4e5a2" /><rect x="8" y="4" width="1" height="1" fill="#f5e79c" /><rect x="8" y="5" width="1" height="1" fill="#fcf09c" /><rect x="8" y="6" width="1" height="1" fill="#fbf094" /><rect x="8" y="7" width="1" height="1" fill="#f3e988" /><rect x="8" y="8" width="1" height="1" fill="#f2e886" /><rect x="8" y="9" width="1" height="1" fill="#f9ef90" /><rect x="9" y="0" width="1" height="1" fill="#fffff6" /><rect x="9" y="1" width="1" height="1" fill="#ffffec" /><rect x="9" y="2" width="1" height="1" fill="#fff9d2" /><rect x="9" y="3" width="1" height="1" fill="#f8ecb8" /><rect x="9" y="4" width="1" height="1" fill="#f0e6a8" /><rect x="9" y="5" width="1" height="1" fill="#f4eba0" /><rect x="9" y="6" width="1" height="1" fill="#f6ef97" /><rect x="9" y="7" width="1" height="1" fill="#f3ed8f" /><rect x="9" y="8" width="1" height="1" fill="#f2ea88" /><rect x="9" y="9" width="1" height="1" fill="#f3ea8b" /></g></svg>