<svg width="800" height="1000" xmlns="http://www.w3.org/2000/svg"><defs><linearGradient id="g" x1="0" x2="1" y1="0" y2="1"><stop offset="0%" stop-color="#2d3c96"/><stop offset="100%" stop-color="#d53392"/></linearGradient></defs><rect x="10" y="10" width="780" height="980" fill="url(#g)" rx="50" ry="50" stroke="gold" stroke-width="20"/><text x="400" y="920" width="780" text-anchor="middle" style="font:bold 200px 'Helvetica Neue';fill:gold">04833</text><g transform="translate(80 80) scale(64)"><rect x="0" y="0" width="1" height="1" fill="#ffb0bd" /><rect x="0" y="1" width="1" height="1" fill="#ffb0bd" /><rect x="0" y="2" width="1" height="1" fill="#ffb2bf" /><rect x="0" y="3" width="1" height="1" fill="#ffb2bd" /><rect x="0" y="4" width="1" height="1" fill="#ffb3bb" /><rect x="0" y="5" width="1" height="1" fill="#ffb5ba" /><rect x="0" y="6" width="1" height="1" fill="#ffb6b7" /><rect x="0" y="7" width="1" height="1" fill="#ffb7b6" /><rect x="0" y="8" width="1" height="1" fill="#ffb7b4" /><rect x="0" y="9" width="1" height="1" fill="#ffb8b2" /><rect x="1" y="0" width="1" height="1" fill="#ffb0bd" /><rect x="1" y="1" width="1" height="1" fill="#ffb1bc" /><rect x="1" y="2" width="1" height="1" fill="#ffb2bd" /><rect x="1" y="3" width="1" height="1" fill="#ffb3bb" /><rect x="1" y="4" width="1" height="1" fill="#ffb5ba" /><rect x="1" y="5" width="1" height="1" fill="#feb6b9" /><rect x="1" y="6" width="1" height="1" fill="#ffb8b6" /><rect x="1" y="7" width="1" height="1" fill="#ffb8b4" /><rect x="1" y="8" width="1" height="1" fill="#ffb9b3" /><rect x="1" y="9" width="1" height="1" fill="#ffb9b3" /><rect x="2" y="0" width="1" height="1" fill="#ffb1bc" /><rect x="2" y="1" width="1" height="1" fill="#ffb2ba" /><rect x="2" y="2" width="1" height="1" fill="#ffb4bc" /><rect x="2" y="3" width="1" height="1" fill="#ffb5ba" /><rect x="2" y="4" width="1" height="1" fill="#feb6ba" /><rect x="2" y="5" width="1" height="1" fill="#feb8ba" /><rect x="2" y="6" width="1" height="1" fill="#feb8b6" /><rect x="2" y="7" width="1" height="1" fill="#ffbab5" /><rect x="2" y="8" width="1" height="1" fill="#ffbab3" /><rect x="2" y="9" width="1" height="1" fill="#ffbcb3" /><rect x="3" y="0" width="1" height="1" fill="#ffb3bb" /><rect x="3" y="1" width="1" height="1" fill="#ffb3bb" /><rect x="3" y="2" width="1" height="1" fill="#ffb5ba" /><rect x="3" y="3" width="1" height="1" fill="#ffb7ba" /><rect x="3" y="4" width="1" height="1" fill="#feb8ba" /><rect x="3" y="5" width="1" height="1" fill="#fdb9b8" /><rect x="3" y="6" width="1" height="1" fill="#fcbbb5" /><rect x="3" y="7" width="1" height="1" fill="#fdbdb4" /><rect x="3" y="8" width="1" height="1" fill="#fdbdb3" /><rect x="3" y="9" width="1" height="1" fill="#fdbdb3" /><rect x="4" y="0" width="1" height="1" fill="#ffb3bb" /><rect x="4" y="1" width="1" height="1" fill="#ffb4bb" /><rect x="4" y="2" width="1" height="1" fill="#ffb7bb" /><rect x="4" y="3" width="1" height="1" fill="#fdb9ba" /><rect x="4" y="4" width="1" height="1" fill="#fbb9ba" /><rect x="4" y="5" width="1" height="1" fill="#fcbbb9" /><rect x="4" y="6" width="1" height="1" fill="#fbbcb5" /><rect x="4" y="7" width="1" height="1" fill="#fcbdb4" /><rect x="4" y="8" width="1" height="1" fill="#fcbeb3" /><rect x="4" y="9" width="1" height="1" fill="#fdbfb4" /><rect x="5" y="0" width="1" height="1" fill="#ffb4b9" /><rect x="5" y="1" width="1" height="1" fill="#ffb4b9" /><rect x="5" y="2" width="1" height="1" fill="#feb8b8" /><rect x="5" y="3" width="1" height="1" fill="#feb8b6" /><rect x="5" y="4" width="1" height="1" fill="#febab7" /><rect x="5" y="5" width="1" height="1" fill="#febbb5" /><rect x="5" y="6" width="1" height="1" fill="#fdbdb3" /><rect x="5" y="7" width="1" height="1" fill="#fcbeb3" /><rect x="5" y="8" width="1" height="1" fill="#fbc0b2" /><rect x="5" y="9" width="1" height="1" fill="#fac0b4" /><rect x="6" y="0" width="1" height="1" fill="#ffb6ba" /><rect x="6" y="1" width="1" height="1" fill="#ffb7b8" /><rect x="6" y="2" width="1" height="1" fill="#fdb6b2" /><rect x="6" y="3" width="1" height="1" fill="#ffbeb8" /><rect x="6" y="4" width="1" height="1" fill="#ffb7b1" /><rect x="6" y="5" width="1" height="1" fill="#ffb6ad" /><rect x="6" y="6" width="1" height="1" fill="#ffb9ad" /><rect x="6" y="7" width="1" height="1" fill="#ffbeaf" /><rect x="6" y="8" width="1" height="1" fill="#ffc5b6" /><rect x="6" y="9" width="1" height="1" fill="#fac2b3" /><rect x="7" y="0" width="1" height="1" fill="#ffb7b8" /><rect x="7" y="1" width="1" height="1" fill="#ffb8b6" /><rect x="7" y="2" width="1" height="1" fill="#ffbab4" /><rect x="7" y="3" width="1" height="1" fill="#f9b3ab" /><rect x="7" y="4" width="1" height="1" fill="#ffbdb4" /><rect x="7" y="5" width="1" height="1" fill="#ffb9b0" /><rect x="7" y="6" width="1" height="1" fill="#ffbeb2" /><rect x="7" y="7" width="1" height="1" fill="#ffbfb1" /><rect x="7" y="8" width="1" height="1" fill="#e8aea0" /><rect x="7" y="9" width="1" height="1" fill="#f2c1b3" /><rect x="8" y="0" width="1" height="1" fill="#feb8b8" /><rect x="8" y="1" width="1" height="1" fill="#feb8b6" /><rect x="8" y="2" width="1" height="1" fill="#ffc2bc" /><rect x="8" y="3" width="1" height="1" fill="#fdbab2" /><rect x="8" y="4" width="1" height="1" fill="#ffc0b7" /><rect x="8" y="5" width="1" height="1" fill="#ffc0b7" /><rect x="8" y="6" width="1" height="1" fill="#fcc0b6" /><rect x="8" y="7" width="1" height="1" fill="#f9c3b9" /><rect x="8" y="8" width="1" height="1" fill="#f2c2b8" /><rect x="8" y="9" width="1" height="1" fill="#fbd0c9" /><rect x="9" y="0" width="1" height="1" fill="#ffb9b7" /><rect x="9" y="1" width="1" height="1" fill="#ffbab5" /><rect x="9" y="2" width="1" height="1" fill="#f9b6ae" /><rect x="9" y="3" width="1" height="1" fill="#ffc0b7" /><rect x="9" y="4" width="1" height="1" fill="#f4b8ae" /><rect x="9" y="5" width="1" height="1" fill="#f6bdb4" /><rect x="9" y="6" width="1" height="1" fill="#e9b7ae" /><rect x="9" y="7" width="1" height="1" fill="#f1c2ba" /><rect x="9" y="8" width="1" height="1" fill="#fdd4ce" /><rect x="9" y="9" width="1" height="1" fill="#c79f9f" /></g></svg>