<svg width="800" height="1000" xmlns="http://www.w3.org/2000/svg"><defs><linearGradient id="g" x1="0" x2="1" y1="0" y2="1"><stop offset="0%" stop-color="#2d3c96"/><stop offset="100%" stop-color="#d53392"/></linearGradient></defs><rect x="10" y="10" width="780" height="980" fill="url(#g)" rx="50" ry="50" stroke="gold" stroke-width="20"/><text x="400" y="920" width="780" text-anchor="middle" style="font:bold 200px 'Helvetica Neue';fill:gold">04831</text><g transform="translate(80 80) scale(64)"><rect x="0" y="0" width="1" height="1" fill="#ecaace" /><rect x="0" y="1" width="1" height="1" fill="#edacce" /><rect x="0" y="2" width="1" height="1" fill="#edacce" /><rect x="0" y="3" width="1" height="1" fill="#eeabcc" /><rect x="0" y="4" width="1" height="1" fill="#f1aacc" /><rect x="0" y="5" width="1" height="1" fill="#f3a9ca" /><rect x="0" y="6" width="1" height="1" fill="#f5a8ca" /><rect x="0" y="7" width="1" height="1" fill="#f8a9c9" /><rect x="0" y="8" width="1" height="1" fill="#fba7c8" /><rect x="0" y="9" width="1" height="1" fill="#fca7c6" /><rect x="1" y="0" width="1" height="1" fill="#edacce" /><rect x="1" y="1" width="1" height="1" fill="#eeabcc" /><rect x="1" y="2" width="1" height="1" fill="#eeabcc" /><rect x="1" y="3" width="1" height="1" fill="#f0abca" /><rect x="1" y="4" width="1" height="1" fill="#f3a9ca" /><rect x="1" y="5" width="1" height="1" fill="#f4a9c8" /><rect x="1" y="6" width="1" height="1" fill="#f8a9c9" /><rect x="1" y="7" width="1" height="1" fill="#f9a8c8" /><rect x="1" y="8" width="1" height="1" fill="#fca7c6" /><rect x="1" y="9" width="1" height="1" fill="#fda7c4" /><rect x="2" y="0" width="1" height="1" fill="#f0aacc" /><rect x="2" y="1" width="1" height="1" fill="#f0abca" /><rect x="2" y="2" width="1" height="1" fill="#f1aaca" /><rect x="2" y="3" width="1" height="1" fill="#f3aac8" /><rect x="2" y="4" width="1" height="1" fill="#f4a9c8" /><rect x="2" y="5" width="1" height="1" fill="#f6aac8" /><rect x="2" y="6" width="1" height="1" fill="#f9a8c8" /><rect x="2" y="7" width="1" height="1" fill="#fba8c6" /><rect x="2" y="8" width="1" height="1" fill="#fda7c4" /><rect x="2" y="9" width="1" height="1" fill="#ffa6c2" /><rect x="3" y="0" width="1" height="1" fill="#f0abca" /><rect x="3" y="1" width="1" height="1" fill="#f1aac8" /><rect x="3" y="2" width="1" height="1" fill="#f3aac8" /><rect x="3" y="3" width="1" height="1" fill="#f4a9c7" /><rect x="3" y="4" width="1" height="1" fill="#f6aac8" /><rect x="3" y="5" width="1" height="1" fill="#f8a9c6" /><rect x="3" y="6" width="1" height="1" fill="#fba8c6" /><rect x="3" y="7" width="1" height="1" fill="#fca7c4" /><rect x="3" y="8" width="1" height="1" fill="#fda7c2" /><rect x="3" y="9" width="1" height="1" fill="#ffa7c0" /><rect x="4" y="0" width="1" height="1" fill="#f3aac8" /><rect x="4" y="1" width="1" height="1" fill="#f3aac8" /><rect x="4" y="2" width="1" height="1" fill="#f4a9c7" /><rect x="4" y="3" width="1" height="1" fill="#f5a9c5" /><rect x="4" y="4" width="1" height="1" fill="#f8a9c6" /><rect x="4" y="5" width="1" height="1" fill="#f9a9c6" /><rect x="4" y="6" width="1" height="1" fill="#fba8c4" /><rect x="4" y="7" width="1" height="1" fill="#fda9c3" /><rect x="4" y="8" width="1" height="1" fill="#fea8c3" /><rect x="4" y="9" width="1" height="1" fill="#ffa8c1" /><rect x="5" y="0" width="1" height="1" fill="#f3aac8" /><rect x="5" y="1" width="1" height="1" fill="#f4a9c7" /><rect x="5" y="2" width="1" height="1" fill="#f5a9c5" /><rect x="5" y="3" width="1" height="1" fill="#f8a9c6" /><rect x="5" y="4" width="1" height="1" fill="#f9a9c6" /><rect x="5" y="5" width="1" height="1" fill="#fba8c4" /><rect x="5" y="6" width="1" height="1" fill="#fda9c3" /><rect x="5" y="7" width="1" height="1" fill="#fda9c1" /><rect x="5" y="8" width="1" height="1" fill="#ffa9c2" /><rect x="5" y="9" width="1" height="1" fill="#ffa9c1" /><rect x="6" y="0" width="1" height="1" fill="#f5aac8" /><rect x="6" y="1" width="1" height="1" fill="#f6aac6" /><rect x="6" y="2" width="1" height="1" fill="#f7a8c5" /><rect x="6" y="3" width="1" height="1" fill="#f9a9c4" /><rect x="6" y="4" width="1" height="1" fill="#f9a9c4" /><rect x="6" y="5" width="1" height="1" fill="#fca9c3" /><rect x="6" y="6" width="1" height="1" fill="#fda9c3" /><rect x="6" y="7" width="1" height="1" fill="#feaac2" /><rect x="6" y="8" width="1" height="1" fill="#ffa9c2" /><rect x="6" y="9" width="1" height="1" fill="#ffabc2" /><rect x="7" y="0" width="1" height="1" fill="#f6aac6" /><rect x="7" y="1" width="1" height="1" fill="#f8a9c6" /><rect x="7" y="2" width="1" height="1" fill="#f8a8c3" /><rect x="7" y="3" width="1" height="1" fill="#f9a9c4" /><rect x="7" y="4" width="1" height="1" fill="#fba8c2" /><rect x="7" y="5" width="1" height="1" fill="#fca9c3" /><rect x="7" y="6" width="1" height="1" fill="#feaac2" /><rect x="7" y="7" width="1" height="1" fill="#feaac2" /><rect x="7" y="8" width="1" height="1" fill="#ffabc2" /><rect x="7" y="9" width="1" height="1" fill="#ffacc0" /><rect x="8" y="0" width="1" height="1" fill="#f8a9c6" /><rect x="8" y="1" width="1" height="1" fill="#f8a9c6" /><rect x="8" y="2" width="1" height="1" fill="#f8a8c3" /><rect x="8" y="3" width="1" height="1" fill="#fba8c2" /><rect x="8" y="4" width="1" height="1" fill="#fca8c2" /><rect x="8" y="5" width="1" height="1" fill="#fda9c3" /><rect x="8" y="6" width="1" height="1" fill="#feaac2" /><rect x="8" y="7" width="1" height="1" fill="#ffabc3" /><rect x="8" y="8" width="1" height="1" fill="#ffacc3" /><rect x="8" y="9" width="1" height="1" fill="#ffadc1" /><rect x="9" y="0" width="1" height="1" fill="#f8a9c6" /><rect x="9" y="1" width="1" height="1" fill="#f9a9c4" /><rect x="9" y="2" width="1" height="1" fill="#fba7c1" /><rect x="9" y="3" width="1" height="1" fill="#fca8c0" /><rect x="9" y="4" width="1" height="1" fill="#fca8c0" /><rect x="9" y="5" width="1" height="1" fill="#fda9c1" /><rect x="9" y="6" width="1" height="1" fill="#feaac2" /><rect x="9" y="7" width="1" height="1" fill="#ffabc2" /><rect x="9" y="8" width="1" height="1" fill="#ffadc1" /><rect x="9" y="9" width="1" height="1" fill="#ffadbf" /></g></svg>