<svg width="800" height="1000" xmlns="http://www.w3.org/2000/svg"><defs><linearGradient id="g" x1="0" x2="1" y1="0" y2="1"><stop offset="0%" stop-color="#2d3c96"/><stop offset="100%" stop-color="#d53392"/></linearGradient></defs><rect x="10" y="10" width="780" height="980" fill="url(#g)" rx="50" ry="50" stroke="gold" stroke-width="20"/><text x="400" y="920" width="780" text-anchor="middle" style="font:bold 200px 'Helvetica Neue';fill:gold">04830</text><g transform="translate(80 80) scale(64)"><rect x="0" y="0" width="1" height="1" fill="#dfaad4" /><rect x="0" y="1" width="1" height="1" fill="#dfaad4" /><rect x="0" y="2" width="1" height="1" fill="#e2afda" /><rect x="0" y="3" width="1" height="1" fill="#dca7d3" /><rect x="0" y="4" width="1" height="1" fill="#e5acd7" /><rect x="0" y="5" width="1" height="1" fill="#e1a7d0" /><rect x="0" y="6" width="1" height="1" fill="#dfa5cb" /><rect x="0" y="7" width="1" height="1" fill="#e6aed1" /><rect x="0" y="8" width="1" height="1" fill="#ddabc8" /><rect x="0" y="9" width="1" height="1" fill="#865a75" /><rect x="1" y="0" width="1" height="1" fill="#dfabd2" /><rect x="1" y="1" width="1" height="1" fill="#dfabd2" /><rect x="1" y="2" width="1" height="1" fill="#e4add7" /><rect x="1" y="3" width="1" height="1" fill="#e0a7d2" /><rect x="1" y="4" width="1" height="1" fill="#ebaed8" /><rect x="1" y="5" width="1" height="1" fill="#e8aad1" /><rect x="1" y="6" width="1" height="1" fill="#eaaacf" /><rect x="1" y="7" width="1" height="1" fill="#e5a8c9" /><rect x="1" y="8" width="1" height="1" fill="#e8b3cf" /><rect x="1" y="9" width="1" height="1" fill="#c295ac" /><rect x="2" y="0" width="1" height="1" fill="#e2abd3" /><rect x="2" y="1" width="1" height="1" fill="#e3aad3" /><rect x="2" y="2" width="1" height="1" fill="#e2a8d1" /><rect x="2" y="3" width="1" height="1" fill="#e5a6d1" /><rect x="2" y="4" width="1" height="1" fill="#eeabd4" /><rect x="2" y="5" width="1" height="1" fill="#eca8cf" /><rect x="2" y="6" width="1" height="1" fill="#f6b0d5" /><rect x="2" y="7" width="1" height="1" fill="#ebaaca" /><rect x="2" y="8" width="1" height="1" fill="#eeb6d1" /><rect x="2" y="9" width="1" height="1" fill="#e5b6ca" /><rect x="3" y="0" width="1" height="1" fill="#e2abd3" /><rect x="3" y="1" width="1" height="1" fill="#e3abd2" /><rect x="3" y="2" width="1" height="1" fill="#e7aad3" /><rect x="3" y="3" width="1" height="1" fill="#e9abd4" /><rect x="3" y="4" width="1" height="1" fill="#ecaad0" /><rect x="3" y="5" width="1" height="1" fill="#e5a1c6" /><rect x="3" y="6" width="1" height="1" fill="#f4aed2" /><rect x="3" y="7" width="1" height="1" fill="#e7a4c5" /><rect x="3" y="8" width="1" height="1" fill="#e8acc6" /><rect x="3" y="9" width="1" height="1" fill="#e9b3ca" /><rect x="4" y="0" width="1" height="1" fill="#e4acd3" /><rect x="4" y="1" width="1" height="1" fill="#e5abd1" /><rect x="4" y="2" width="1" height="1" fill="#e6acd2" /><rect x="4" y="3" width="1" height="1" fill="#e8acd0" /><rect x="4" y="4" width="1" height="1" fill="#e9abd0" /><rect x="4" y="5" width="1" height="1" fill="#ecaace" /><rect x="4" y="6" width="1" height="1" fill="#edaacd" /><rect x="4" y="7" width="1" height="1" fill="#eeabcc" /><rect x="4" y="8" width="1" height="1" fill="#eeabcc" /><rect x="4" y="9" width="1" height="1" fill="#ecadca" /><rect x="5" y="0" width="1" height="1" fill="#e5abd1" /><rect x="5" y="1" width="1" height="1" fill="#e5abd1" /><rect x="5" y="2" width="1" height="1" fill="#e6add0" /><rect x="5" y="3" width="1" height="1" fill="#e8acd0" /><rect x="5" y="4" width="1" height="1" fill="#e9acce" /><rect x="5" y="5" width="1" height="1" fill="#ebabce" /><rect x="5" y="6" width="1" height="1" fill="#eeabce" /><rect x="5" y="7" width="1" height="1" fill="#f0aace" /><rect x="5" y="8" width="1" height="1" fill="#f0aacc" /><rect x="5" y="9" width="1" height="1" fill="#f0abca" /><rect x="6" y="0" width="1" height="1" fill="#e7abd1" /><rect x="6" y="1" width="1" height="1" fill="#e7abd1" /><rect x="6" y="2" width="1" height="1" fill="#e8acd0" /><rect x="6" y="3" width="1" height="1" fill="#e8acce" /><rect x="6" y="4" width="1" height="1" fill="#e9acce" /><rect x="6" y="5" width="1" height="1" fill="#ecaace" /><rect x="6" y="6" width="1" height="1" fill="#f0aace" /><rect x="6" y="7" width="1" height="1" fill="#f1a9ce" /><rect x="6" y="8" width="1" height="1" fill="#f1aacc" /><rect x="6" y="9" width="1" height="1" fill="#f1aaca" /><rect x="7" y="0" width="1" height="1" fill="#e7abd1" /><rect x="7" y="1" width="1" height="1" fill="#e7abcf" /><rect x="7" y="2" width="1" height="1" fill="#e8acce" /><rect x="7" y="3" width="1" height="1" fill="#e9acce" /><rect x="7" y="4" width="1" height="1" fill="#ebabce" /><rect x="7" y="5" width="1" height="1" fill="#edacce" /><rect x="7" y="6" width="1" height="1" fill="#f0aace" /><rect x="7" y="7" width="1" height="1" fill="#f3a9cc" /><rect x="7" y="8" width="1" height="1" fill="#f3a9ca" /><rect x="7" y="9" width="1" height="1" fill="#f4a9c8" /><rect x="8" y="0" width="1" height="1" fill="#e9abd0" /><rect x="8" y="1" width="1" height="1" fill="#e9acce" /><rect x="8" y="2" width="1" height="1" fill="#e9acce" /><rect x="8" y="3" width="1" height="1" fill="#ebabcd" /><rect x="8" y="4" width="1" height="1" fill="#edacce" /><rect x="8" y="5" width="1" height="1" fill="#f0aace" /><rect x="8" y="6" width="1" height="1" fill="#f3a9cc" /><rect x="8" y="7" width="1" height="1" fill="#f4a9ca" /><rect x="8" y="8" width="1" height="1" fill="#f6a9cb" /><rect x="8" y="9" width="1" height="1" fill="#f6a9c9" /><rect x="9" y="0" width="1" height="1" fill="#e9acce" /><rect x="9" y="1" width="1" height="1" fill="#ebabcd" /><rect x="9" y="2" width="1" height="1" fill="#ebabcd" /><rect x="9" y="3" width="1" height="1" fill="#edacce" /><rect x="9" y="4" width="1" height="1" fill="#eeabce" /><rect x="9" y="5" width="1" height="1" fill="#f1aacc" /><rect x="9" y="6" width="1" height="1" fill="#f4a9ca" /><rect x="9" y="7" width="1" height="1" fill="#f6a9c9" /><rect x="9" y="8" width="1" height="1" fill="#f8a9c9" /><rect x="9" y="9" width="1" height="1" fill="#f9a8c8" /></g></svg>