<svg width="800" height="1000" xmlns="http://www.w3.org/2000/svg"><defs><linearGradient id="g" x1="0" x2="1" y1="0" y2="1"><stop offset="0%" stop-color="#2d3c96"/><stop offset="100%" stop-color="#d53392"/></linearGradient></defs><rect x="10" y="10" width="780" height="980" fill="url(#g)" rx="50" ry="50" stroke="gold" stroke-width="20"/><text x="400" y="920" width="780" text-anchor="middle" style="font:bold 200px 'Helvetica Neue';fill:gold">04834</text><g transform="translate(80 80) scale(64)"><rect x="0" y="0" width="1" height="1" fill="#ffb9b7" /><rect x="0" y="1" width="1" height="1" fill="#ffbbb4" /><rect x="0" y="2" width="1" height="1" fill="#fcb8af" /><rect x="0" y="3" width="1" height="1" fill="#ffc2b6" /><rect x="0" y="4" width="1" height="1" fill="#ffc5b9" /><rect x="0" y="5" width="1" height="1" fill="#fac9bb" /><rect x="0" y="6" width="1" height="1" fill="#edc3b7" /><rect x="0" y="7" width="1" height="1" fill="#f5cfc6" /><rect x="0" y="8" width="1" height="1" fill="#cca6a3" /><rect x="0" y="9" width="1" height="1" fill="#461f22" /><rect x="1" y="0" width="1" height="1" fill="#ffbbb6" /><rect x="1" y="1" width="1" height="1" fill="#ffbcb3" /><rect x="1" y="2" width="1" height="1" fill="#ffc5b9" /><rect x="1" y="3" width="1" height="1" fill="#f8b5a5" /><rect x="1" y="4" width="1" height="1" fill="#fec5b4" /><rect x="1" y="5" width="1" height="1" fill="#ecbdad" /><rect x="1" y="6" width="1" height="1" fill="#eec9b9" /><rect x="1" y="7" width="1" height="1" fill="#eccabe" /><rect x="1" y="8" width="1" height="1" fill="#816059" /><rect x="1" y="9" width="1" height="1" fill="#1b0000" /><rect x="2" y="0" width="1" height="1" fill="#ffbcb4" /><rect x="2" y="1" width="1" height="1" fill="#ffbcb2" /><rect x="2" y="2" width="1" height="1" fill="#ffbeae" /><rect x="2" y="3" width="1" height="1" fill="#ffb8a2" /><rect x="2" y="4" width="1" height="1" fill="#ffcab5" /><rect x="2" y="5" width="1" height="1" fill="#facab4" /><rect x="2" y="6" width="1" height="1" fill="#f8d3c0" /><rect x="2" y="7" width="1" height="1" fill="#a78778" /><rect x="2" y="8" width="1" height="1" fill="#220000" /><rect x="2" y="9" width="1" height="1" fill="#280000" /><rect x="3" y="0" width="1" height="1" fill="#ffbdb5" /><rect x="3" y="1" width="1" height="1" fill="#ffbcb0" /><rect x="3" y="2" width="1" height="1" fill="#ffb8a5" /><rect x="3" y="3" width="1" height="1" fill="#ffc6b0" /><rect x="3" y="4" width="1" height="1" fill="#f6bca4" /><rect x="3" y="5" width="1" height="1" fill="#f2c4ac" /><rect x="3" y="6" width="1" height="1" fill="#edcab4" /><rect x="3" y="7" width="1" height="1" fill="#644735" /><rect x="3" y="8" width="1" height="1" fill="#180000" /><rect x="3" y="9" width="1" height="1" fill="#a27b76" /><rect x="4" y="0" width="1" height="1" fill="#ffbfb5" /><rect x="4" y="1" width="1" height="1" fill="#ffbeb1" /><rect x="4" y="2" width="1" height="1" fill="#ffc3b2" /><rect x="4" y="3" width="1" height="1" fill="#ffbdaa" /><rect x="4" y="4" width="1" height="1" fill="#fdc6b1" /><rect x="4" y="5" width="1" height="1" fill="#f0c6b0" /><rect x="4" y="6" width="1" height="1" fill="#dabea8" /><rect x="4" y="7" width="1" height="1" fill="#140000" /><rect x="4" y="8" width="1" height="1" fill="#270b00" /><rect x="4" y="9" width="1" height="1" fill="#d2b0a7" /><rect x="5" y="0" width="1" height="1" fill="#ffbfb3" /><rect x="5" y="1" width="1" height="1" fill="#ffc0b1" /><rect x="5" y="2" width="1" height="1" fill="#ffc0b0" /><rect x="5" y="3" width="1" height="1" fill="#fdc0ae" /><rect x="5" y="4" width="1" height="1" fill="#f7c6b5" /><rect x="5" y="5" width="1" height="1" fill="#f6d1be" /><rect x="5" y="6" width="1" height="1" fill="#bea591" /><rect x="5" y="7" width="1" height="1" fill="#130000" /><rect x="5" y="8" width="1" height="1" fill="#533d30" /><rect x="5" y="9" width="1" height="1" fill="#e1c4bc" /><rect x="6" y="0" width="1" height="1" fill="#ffc1b2" /><rect x="6" y="1" width="1" height="1" fill="#ffc1b2" /><rect x="6" y="2" width="1" height="1" fill="#f7bbb0" /><rect x="6" y="3" width="1" height="1" fill="#fdc7bb" /><rect x="6" y="4" width="1" height="1" fill="#efc5b7" /><rect x="6" y="5" width="1" height="1" fill="#f6d6c7" /><rect x="6" y="6" width="1" height="1" fill="#c4aea0" /><rect x="6" y="7" width="1" height="1" fill="#160400" /><rect x="6" y="8" width="1" height="1" fill="#1e0c02" /><rect x="6" y="9" width="1" height="1" fill="#b9a59c" /><rect x="7" y="0" width="1" height="1" fill="#ffc2b0" /><rect x="7" y="1" width="1" height="1" fill="#fdc2b2" /><rect x="7" y="2" width="1" height="1" fill="#fec6b9" /><rect x="7" y="3" width="1" height="1" fill="#fecdbf" /><rect x="7" y="4" width="1" height="1" fill="#f0c6b8" /><rect x="7" y="5" width="1" height="1" fill="#ecccbd" /><rect x="7" y="6" width="1" height="1" fill="#e5cec0" /><rect x="7" y="7" width="1" height="1" fill="#6a5749" /><rect x="7" y="8" width="1" height="1" fill="#0e0000" /><rect x="7" y="9" width="1" height="1" fill="#68564a" /><rect x="8" y="0" width="1" height="1" fill="#fec3b1" /><rect x="8" y="1" width="1" height="1" fill="#fdc4b1" /><rect x="8" y="2" width="1" height="1" fill="#f8c3b1" /><rect x="8" y="3" width="1" height="1" fill="#f4c3b2" /><rect x="8" y="4" width="1" height="1" fill="#fbcebb" /><rect x="8" y="5" width="1" height="1" fill="#f3cdba" /><rect x="8" y="6" width="1" height="1" fill="#f3d2bf" /><rect x="8" y="7" width="1" height="1" fill="#d4b7a5" /><rect x="8" y="8" width="1" height="1" fill="#4e3423" /><rect x="8" y="9" width="1" height="1" fill="#160100" /><rect x="9" y="0" width="1" height="1" fill="#fec4b0" /><rect x="9" y="1" width="1" height="1" fill="#fec6af" /><rect x="9" y="2" width="1" height="1" fill="#fec6ad" /><rect x="9" y="3" width="1" height="1" fill="#ffcbb1" /><rect x="9" y="4" width="1" height="1" fill="#fcc9ae" /><rect x="9" y="5" width="1" height="1" fill="#facbb1" /><rect x="9" y="6" width="1" height="1" fill="#f6cab1" /><rect x="9" y="7" width="1" height="1" fill="#ffdbc2" /><rect x="9" y="8" width="1" height="1" fill="#dbb9a0" /><rect x="9" y="9" width="1" height="1" fill="#957961" /></g></svg>