<svg width="800" height="1000" version="1.1" xmlns="http://www.w3.org/2000/svg" xmlns:xlink="http://www.w3.org/1999/xlink">
  <defs>
      <linearGradient id="Gradient2" x1="0" x2="1" y1="0" y2="1">
        <stop offset="0%" stop-color="#2d3c96"/>
        <stop offset="100%" stop-color="#d53392"/>
      </linearGradient>
  </defs>
  <rect x="10" y="10" width="780" height="980" fill="url(#Gradient2)" rx="50" ry="50" stroke="#ffd700" stroke-width="20"/>
  <text x="400" y="920" width="780" text-anchor="middle" style="font: bold 200px 'Helvetica Neue'; fill: #ffd700">04862</text>

  <g transform="translate(80 80) scale(64)">
<rect x="0" y="0" width="1" height="1" fill="#A0843B" /><rect x="1" y="0" width="1" height="1" fill="#B29954" /><rect x="2" y="0" width="1" height="1" fill="#D2BB87" /><rect x="3" y="0" width="1" height="1" fill="#F1E3C2" /><rect x="4" y="0" width="1" height="1" fill="#FFFFF4" /><rect x="5" y="0" width="1" height="1" fill="#FFFFFF" /><rect x="6" y="0" width="1" height="1" fill="#FEFEFE" /><rect x="7" y="0" width="1" height="1" fill="#FFFFFE" /><rect x="8" y="0" width="1" height="1" fill="#FFFFFF" /><rect x="9" y="0" width="1" height="1" fill="#FFFFFF" /><rect x="0" y="1" width="1" height="1" fill="#514E48" /><rect x="1" y="1" width="1" height="1" fill="#534C40" /><rect x="2" y="1" width="1" height="1" fill="#5B4927" /><rect x="3" y="1" width="1" height="1" fill="#745A00" /><rect x="4" y="1" width="1" height="1" fill="#B69C57" /><rect x="5" y="1" width="1" height="1" fill="#F7E9C5" /><rect x="6" y="1" width="1" height="1" fill="#FFFFFF" /><rect x="7" y="1" width="1" height="1" fill="#FDFEFF" /><rect x="8" y="1" width="1" height="1" fill="#FFFFFE" /><rect x="9" y="1" width="1" height="1" fill="#FFFFFF" /><rect x="0" y="2" width="1" height="1" fill="#AC8C32" /><rect x="1" y="2" width="1" height="1" fill="#937C3C" /><rect x="2" y="2" width="1" height="1" fill="#947D42" /><rect x="3" y="2" width="1" height="1" fill="#A48B42" /><rect x="4" y="2" width="1" height="1" fill="#49453E" /><rect x="5" y="2" width="1" height="1" fill="#705500" /><rect x="6" y="2" width="1" height="1" fill="#E8D4A1" /><rect x="7" y="2" width="1" height="1" fill="#FFFFFD" /><rect x="8" y="2" width="1" height="1" fill="#FEFEFF" /><rect x="9" y="2" width="1" height="1" fill="#FFFFFE" /><rect x="0" y="3" width="1" height="1" fill="#7E6A40" /><rect x="1" y="3" width="1" height="1" fill="#06304D" /><rect x="2" y="3" width="1" height="1" fill="#1E364D" /><rect x="3" y="3" width="1" height="1" fill="#716243" /><rect x="4" y="3" width="1" height="1" fill="#9A823E" /><rect x="5" y="3" width="1" height="1" fill="#003057" /><rect x="6" y="3" width="1" height="1" fill="#5B4000" /><rect x="7" y="3" width="1" height="1" fill="#E8D4A2" /><rect x="8" y="3" width="1" height="1" fill="#FFFFFF" /><rect x="9" y="3" width="1" height="1" fill="#FEFEFE" /><rect x="0" y="4" width="1" height="1" fill="#857040" /><rect x="1" y="4" width="1" height="1" fill="#39414B" /><rect x="2" y="4" width="1" height="1" fill="#534F49" /><rect x="3" y="4" width="1" height="1" fill="#45474B" /><rect x="4" y="4" width="1" height="1" fill="#9D8238" /><rect x="5" y="4" width="1" height="1" fill="#5E5748" /><rect x="6" y="4" width="1" height="1" fill="#273F56" /><rect x="7" y="4" width="1" height="1" fill="#775B00" /><rect x="8" y="4" width="1" height="1" fill="#F7EAC7" /><rect x="9" y="4" width="1" height="1" fill="#FFFFFF" /><rect x="0" y="5" width="1" height="1" fill="#816D3D" /><rect x="1" y="5" width="1" height="1" fill="#343F4D" /><rect x="2" y="5" width="1" height="1" fill="#54504B" /><rect x="3" y="5" width="1" height="1" fill="#293446" /><rect x="4" y="5" width="1" height="1" fill="#897441" /><rect x="5" y="5" width="1" height="1" fill="#85713F" /><rect x="6" y="5" width="1" height="1" fill="#41474F" /><rect x="7" y="5" width="1" height="1" fill="#102841" /><rect x="8" y="5" width="1" height="1" fill="#BAA05D" /><rect x="9" y="5" width="1" height="1" fill="#FFFFF5" /><rect x="0" y="6" width="1" height="1" fill="#8C762F" /><rect x="1" y="6" width="1" height="1" fill="#343C4F" /><rect x="2" y="6" width="1" height="1" fill="#424442" /><rect x="3" y="6" width="1" height="1" fill="#556161" /><rect x="4" y="6" width="1" height="1" fill="#4D483C" /><rect x="5" y="6" width="1" height="1" fill="#A0853A" /><rect x="6" y="6" width="1" height="1" fill="#444649" /><rect x="7" y="6" width="1" height="1" fill="#444B53" /><rect x="8" y="6" width="1" height="1" fill="#675000" /><rect x="9" y="6" width="1" height="1" fill="#F4E6C4" /><rect x="0" y="7" width="1" height="1" fill="#B58F19" /><rect x="1" y="7" width="1" height="1" fill="#000541" /><rect x="2" y="7" width="1" height="1" fill="#9E897F" /><rect x="3" y="7" width="1" height="1" fill="#EF9C89" /><rect x="4" y="7" width="1" height="1" fill="#7E7A7A" /><rect x="5" y="7" width="1" height="1" fill="#867321" /><rect x="6" y="7" width="1" height="1" fill="#6C5E46" /><rect x="7" y="7" width="1" height="1" fill="#3F4750" /><rect x="8" y="7" width="1" height="1" fill="#2C2A2C" /><rect x="9" y="7" width="1" height="1" fill="#D7C18A" /><rect x="0" y="8" width="1" height="1" fill="#CEA50A" /><rect x="1" y="8" width="1" height="1" fill="#967F7F" /><rect x="2" y="8" width="1" height="1" fill="#F99475" /><rect x="3" y="8" width="1" height="1" fill="#FF7E00" /><rect x="4" y="8" width="1" height="1" fill="#EF927D" /><rect x="5" y="8" width="1" height="1" fill="#A78D75" /><rect x="6" y="8" width="1" height="1" fill="#CDA40D" /><rect x="7" y="8" width="1" height="1" fill="#5D564A" /><rect x="8" y="8" width="1" height="1" fill="#052745" /><rect x="9" y="8" width="1" height="1" fill="#B99F58" /><rect x="0" y="9" width="1" height="1" fill="#E4BB2F" /><rect x="1" y="9" width="1" height="1" fill="#D0998B" /><rect x="2" y="9" width="1" height="1" fill="#FF7D4E" /><rect x="3" y="9" width="1" height="1" fill="#F79900" /><rect x="4" y="9" width="1" height="1" fill="#FF7A5D" /><rect x="5" y="9" width="1" height="1" fill="#CC9E87" /><rect x="6" y="9" width="1" height="1" fill="#E8BA00" /><rect x="7" y="9" width="1" height="1" fill="#716144" /><rect x="8" y="9" width="1" height="1" fill="#002B4D" /><rect x="9" y="9" width="1" height="1" fill="#A98B38" />
  </g>
</svg>