<svg width="800" height="1000" version="1.1" xmlns="http://www.w3.org/2000/svg" xmlns:xlink="http://www.w3.org/1999/xlink">
  <defs>
      <linearGradient id="Gradient2" x1="0" x2="1" y1="0" y2="1">
        <stop offset="0%" stop-color="#2d3c96"/>
        <stop offset="100%" stop-color="#d53392"/>
      </linearGradient>
  </defs>
  <rect x="10" y="10" width="780" height="980" fill="url(#Gradient2)" rx="50" ry="50" stroke="#ffd700" stroke-width="20"/>
  <text x="400" y="920" width="780" text-anchor="middle" style="font: bold 200px 'Helvetica Neue'; fill: #ffd700">04861</text>

  <g transform="translate(80 80) scale(64)">
<rect x="0" y="0" width="1" height="1" fill="#ffffff" />
,<rect x="0" y="1" width="1" height="1" fill="#ffffff" />
,<rect x="0" y="2" width="1" height="1" fill="#fffffe" />
,<rect x="0" y="3" width="1" height="1" fill="#fefefe" />
,<rect x="0" y="4" width="1" height="1" fill="#ffffff" />
,<rect x="0" y="5" width="1" height="1" fill="#fffff5" />
,<rect x="0" y="6" width="1" height="1" fill="#f4e6c5" />
,<rect x="0" y="7" width="1" height="1" fill="#d7c18b" />
,<rect x="0" y="8" width="1" height="1" fill="#ba9f58" />
,<rect x="0" y="9" width="1" height="1" fill="#a98b39" />
,<rect x="1" y="0" width="1" height="1" fill="#ffffff" />
,<rect x="1" y="1" width="1" height="1" fill="#fffffe" />
,<rect x="1" y="2" width="1" height="1" fill="#fefeff" />
,<rect x="1" y="3" width="1" height="1" fill="#ffffff" />
,<rect x="1" y="4" width="1" height="1" fill="#f7eac7" />
,<rect x="1" y="5" width="1" height="1" fill="#baa05d" />
,<rect x="1" y="6" width="1" height="1" fill="#6a5300" />
,<rect x="1" y="7" width="1" height="1" fill="#332f2e" />
,<rect x="1" y="8" width="1" height="1" fill="#072a48" />
,<rect x="1" y="9" width="1" height="1" fill="#00304f" />
,<rect x="2" y="0" width="1" height="1" fill="#fffffe" />
,<rect x="2" y="1" width="1" height="1" fill="#fdfeff" />
,<rect x="2" y="2" width="1" height="1" fill="#fffffd" />
,<rect x="2" y="3" width="1" height="1" fill="#e9d4a2" />
,<rect x="2" y="4" width="1" height="1" fill="#795d00" />
,<rect x="2" y="5" width="1" height="1" fill="#001d44" />
,<rect x="2" y="6" width="1" height="1" fill="#2b4259" />
,<rect x="2" y="7" width="1" height="1" fill="#2c394d" />
,<rect x="2" y="8" width="1" height="1" fill="#594f3c" />
,<rect x="2" y="9" width="1" height="1" fill="#655537" />
,<rect x="3" y="0" width="1" height="1" fill="#fefefe" />
,<rect x="3" y="1" width="1" height="1" fill="#ffffff" />
,<rect x="3" y="2" width="1" height="1" fill="#e8d4a1" />
,<rect x="3" y="3" width="1" height="1" fill="#563b00" />
,<rect x="3" y="4" width="1" height="1" fill="#003358" />
,<rect x="3" y="5" width="1" height="1" fill="#635943" />
,<rect x="3" y="6" width="1" height="1" fill="#7a631f" />
,<rect x="3" y="7" width="1" height="1" fill="#968450" />
,<rect x="3" y="8" width="1" height="1" fill="#c9ad5a" />
,<rect x="3" y="9" width="1" height="1" fill="#c9ad5d" />
,<rect x="4" y="0" width="1" height="1" fill="#ffffff" />
,<rect x="4" y="1" width="1" height="1" fill="#f7e9c5" />
,<rect x="4" y="2" width="1" height="1" fill="#735700" />
,<rect x="4" y="3" width="1" height="1" fill="#374758" />
,<rect x="4" y="4" width="1" height="1" fill="#977c26" />
,<rect x="4" y="5" width="1" height="1" fill="#b29d6a" />
,<rect x="4" y="6" width="1" height="1" fill="#f9efda" />
,<rect x="4" y="7" width="1" height="1" fill="#fff6e3" />
,<rect x="4" y="8" width="1" height="1" fill="#fbe7d5" />
,<rect x="4" y="9" width="1" height="1" fill="#f2d5c0" />
,<rect x="5" y="0" width="1" height="1" fill="#fffff4" />
,<rect x="5" y="1" width="1" height="1" fill="#b79d57" />
,<rect x="5" y="2" width="1" height="1" fill="#002143" />
,<rect x="5" y="3" width="1" height="1" fill="#a88d41" />
,<rect x="5" y="4" width="1" height="1" fill="#6f5919" />
,<rect x="5" y="5" width="1" height="1" fill="#86888c" />
,<rect x="5" y="6" width="1" height="1" fill="#ffffff" />
,<rect x="5" y="7" width="1" height="1" fill="#f0d7d0" />
,<rect x="5" y="8" width="1" height="1" fill="#c7bbb7" />
,<rect x="5" y="9" width="1" height="1" fill="#c6c8c7" />
,<rect x="6" y="0" width="1" height="1" fill="#f4e6c1" />
,<rect x="6" y="1" width="1" height="1" fill="#544000" />
,<rect x="6" y="2" width="1" height="1" fill="#8c7849" />
,<rect x="6" y="3" width="1" height="1" fill="#877445" />
,<rect x="6" y="4" width="1" height="1" fill="#000030" />
,<rect x="6" y="5" width="1" height="1" fill="#8b8d8d" />
,<rect x="6" y="6" width="1" height="1" fill="#fff2ed" />
,<rect x="6" y="7" width="1" height="1" fill="#d8bfb2" />
,<rect x="6" y="8" width="1" height="1" fill="#badbe8" />
,<rect x="6" y="9" width="1" height="1" fill="#b0e5fe" />
,<rect x="7" y="0" width="1" height="1" fill="#d5be86" />
,<rect x="7" y="1" width="1" height="1" fill="#1f2431" />
,<rect x="7" y="2" width="1" height="1" fill="#a1873f" />
,<rect x="7" y="3" width="1" height="1" fill="#53514e" />
,<rect x="7" y="4" width="1" height="1" fill="#36322b" />
,<rect x="7" y="5" width="1" height="1" fill="#898a8a" />
,<rect x="7" y="6" width="1" height="1" fill="#fffcfa" />
,<rect x="7" y="7" width="1" height="1" fill="#e4cabe" />
,<rect x="7" y="8" width="1" height="1" fill="#bbc6c9" />
,<rect x="7" y="9" width="1" height="1" fill="#bedae4" />
,<rect x="8" y="0" width="1" height="1" fill="#b39954" />
,<rect x="8" y="1" width="1" height="1" fill="#494543" />
,<rect x="8" y="2" width="1" height="1" fill="#967e3c" />
,<rect x="8" y="3" width="1" height="1" fill="#1f3952" />
,<rect x="8" y="4" width="1" height="1" fill="#001b2f" />
,<rect x="8" y="5" width="1" height="1" fill="#83868b" />
,<rect x="8" y="6" width="1" height="1" fill="#ffffff" />
,<rect x="8" y="7" width="1" height="1" fill="#f9e9e8" />
,<rect x="8" y="8" width="1" height="1" fill="#e4cdc8" />
,<rect x="8" y="9" width="1" height="1" fill="#dbc2bb" />
,<rect x="9" y="0" width="1" height="1" fill="#a0843a" />
,<rect x="9" y="1" width="1" height="1" fill="#534f48" />
,<rect x="9" y="2" width="1" height="1" fill="#ac8c33" />
,<rect x="9" y="3" width="1" height="1" fill="#806d46" />
,<rect x="9" y="4" width="1" height="1" fill="#7d6625" />
,<rect x="9" y="5" width="1" height="1" fill="#a79879" />
,<rect x="9" y="6" width="1" height="1" fill="#fff6e0" />
,<rect x="9" y="7" width="1" height="1" fill="#fffae3" />
,<rect x="9" y="8" width="1" height="1" fill="#fff6de" />
,<rect x="9" y="9" width="1" height="1" fill="#fff0d8" />

  </g>
</svg>