<svg width="800" height="1000" xmlns="http://www.w3.org/2000/svg"><defs><linearGradient id="g" x1="0" x2="1" y1="0" y2="1"><stop offset="0%" stop-color="#2d3c96"/><stop offset="100%" stop-color="#d53392"/></linearGradient></defs><rect x="10" y="10" width="780" height="980" fill="url(#g)" rx="50" ry="50" stroke="gold" stroke-width="20"/><text x="400" y="920" width="780" text-anchor="middle" style="font:bold 200px 'Helvetica Neue';fill:gold">04866</text><g transform="translate(80 80) scale(64)"><rect x="0" y="0" width="1" height="1" fill="#ffffff" /><rect x="0" y="1" width="1" height="1" fill="#ffffff" /><rect x="0" y="2" width="1" height="1" fill="#ffffff" /><rect x="0" y="3" width="1" height="1" fill="#ffffff" /><rect x="0" y="4" width="1" height="1" fill="#ffffff" /><rect x="0" y="5" width="1" height="1" fill="#ffffff" /><rect x="0" y="6" width="1" height="1" fill="#ffffff" /><rect x="0" y="7" width="1" height="1" fill="#ffffff" /><rect x="0" y="8" width="1" height="1" fill="#ffffff" /><rect x="0" y="9" width="1" height="1" fill="#ffffff" /><rect x="1" y="0" width="1" height="1" fill="#ffffff" /><rect x="1" y="1" width="1" height="1" fill="#ffffff" /><rect x="1" y="2" width="1" height="1" fill="#ffffff" /><rect x="1" y="3" width="1" height="1" fill="#ffffff" /><rect x="1" y="4" width="1" height="1" fill="#ffffff" /><rect x="1" y="5" width="1" height="1" fill="#ffffff" /><rect x="1" y="6" width="1" height="1" fill="#ffffff" /><rect x="1" y="7" width="1" height="1" fill="#ffffff" /><rect x="1" y="8" width="1" height="1" fill="#ffffff" /><rect x="1" y="9" width="1" height="1" fill="#ffffff" /><rect x="2" y="0" width="1" height="1" fill="#ffffff" /><rect x="2" y="1" width="1" height="1" fill="#ffffff" /><rect x="2" y="2" width="1" height="1" fill="#ffffff" /><rect x="2" y="3" width="1" height="1" fill="#ffffff" /><rect x="2" y="4" width="1" height="1" fill="#ffffff" /><rect x="2" y="5" width="1" height="1" fill="#cdcdd9" /><rect x="2" y="6" width="1" height="1" fill="#9b9bb3" /><rect x="2" y="7" width="1" height="1" fill="#ffffff" /><rect x="2" y="8" width="1" height="1" fill="#ffffff" /><rect x="2" y="9" width="1" height="1" fill="#ffffff" /><rect x="3" y="0" width="1" height="1" fill="#ffffff" /><rect x="3" y="1" width="1" height="1" fill="#ffffff" /><rect x="3" y="2" width="1" height="1" fill="#ffffff" /><rect x="3" y="3" width="1" height="1" fill="#ffffff" /><rect x="3" y="4" width="1" height="1" fill="#51507a" /><rect x="3" y="5" width="1" height="1" fill="#00001b" /><rect x="3" y="6" width="1" height="1" fill="#000019" /><rect x="3" y="7" width="1" height="1" fill="#000011" /><rect x="3" y="8" width="1" height="1" fill="#dcdce4" /><rect x="3" y="9" width="1" height="1" fill="#ffffff" /><rect x="4" y="0" width="1" height="1" fill="#ffffff" /><rect x="4" y="1" width="1" height="1" fill="#ececf0" /><rect x="4" y="2" width="1" height="1" fill="#c2c2d1" /><rect x="4" y="3" width="1" height="1" fill="#232357" /><rect x="4" y="4" width="1" height="1" fill="#00001c" /><rect x="4" y="5" width="1" height="1" fill="#272558" /><rect x="4" y="6" width="1" height="1" fill="#fff4f3" /><rect x="4" y="7" width="1" height="1" fill="#fff5f2" /><rect x="4" y="8" width="1" height="1" fill="#9b95ad" /><rect x="4" y="9" width="1" height="1" fill="#ffffff" /><rect x="5" y="0" width="1" height="1" fill="#ffffff" /><rect x="5" y="1" width="1" height="1" fill="#dcdce4" /><rect x="5" y="2" width="1" height="1" fill="#2d2d5f" /><rect x="5" y="3" width="1" height="1" fill="#00003a" /><rect x="5" y="4" width="1" height="1" fill="#877f9a" /><rect x="5" y="5" width="1" height="1" fill="#ffffff" /><rect x="5" y="6" width="1" height="1" fill="#49b1e6" /><rect x="5" y="7" width="1" height="1" fill="#0993da" /><rect x="5" y="8" width="1" height="1" fill="#addff7" /><rect x="5" y="9" width="1" height="1" fill="#ffffff" /><rect x="6" y="0" width="1" height="1" fill="#ffffff" /><rect x="6" y="1" width="1" height="1" fill="#ffffff" /><rect x="6" y="2" width="1" height="1" fill="#ffffff" /><rect x="6" y="3" width="1" height="1" fill="#ffffff" /><rect x="6" y="4" width="1" height="1" fill="#afe4fb" /><rect x="6" y="5" width="1" height="1" fill="#0070cc" /><rect x="6" y="6" width="1" height="1" fill="#007cd0" /><rect x="6" y="7" width="1" height="1" fill="#007bcf" /><rect x="6" y="8" width="1" height="1" fill="#e6f4fb" /><rect x="6" y="9" width="1" height="1" fill="#ffffff" /><rect x="7" y="0" width="1" height="1" fill="#ffffff" /><rect x="7" y="1" width="1" height="1" fill="#ffffff" /><rect x="7" y="2" width="1" height="1" fill="#ffffff" /><rect x="7" y="3" width="1" height="1" fill="#ffffff" /><rect x="7" y="4" width="1" height="1" fill="#ffffff" /><rect x="7" y="5" width="1" height="1" fill="#c5e5f5" /><rect x="7" y="6" width="1" height="1" fill="#9bd2ef" /><rect x="7" y="7" width="1" height="1" fill="#ffffff" /><rect x="7" y="8" width="1" height="1" fill="#ffffff" /><rect x="7" y="9" width="1" height="1" fill="#ffffff" /><rect x="8" y="0" width="1" height="1" fill="#ffffff" /><rect x="8" y="1" width="1" height="1" fill="#ffffff" /><rect x="8" y="2" width="1" height="1" fill="#ffffff" /><rect x="8" y="3" width="1" height="1" fill="#ffffff" /><rect x="8" y="4" width="1" height="1" fill="#ffffff" /><rect x="8" y="5" width="1" height="1" fill="#ffffff" /><rect x="8" y="6" width="1" height="1" fill="#ffffff" /><rect x="8" y="7" width="1" height="1" fill="#ffffff" /><rect x="8" y="8" width="1" height="1" fill="#ffffff" /><rect x="8" y="9" width="1" height="1" fill="#ffffff" /><rect x="9" y="0" width="1" height="1" fill="#ffffff" /><rect x="9" y="1" width="1" height="1" fill="#ffffff" /><rect x="9" y="2" width="1" height="1" fill="#ffffff" /><rect x="9" y="3" width="1" height="1" fill="#ffffff" /><rect x="9" y="4" width="1" height="1" fill="#ffffff" /><rect x="9" y="5" width="1" height="1" fill="#ffffff" /><rect x="9" y="6" width="1" height="1" fill="#ffffff" /><rect x="9" y="7" width="1" height="1" fill="#ffffff" /><rect x="9" y="8" width="1" height="1" fill="#ffffff" /><rect x="9" y="9" width="1" height="1" fill="#ffffff" /></g></svg>