<svg width="800" height="1000" xmlns="http://www.w3.org/2000/svg"><defs><linearGradient id="g" x1="0" x2="1" y1="0" y2="1"><stop offset="0%" stop-color="#2d3c96"/><stop offset="100%" stop-color="#d53392"/></linearGradient></defs><rect x="10" y="10" width="780" height="980" fill="url(#g)" rx="50" ry="50" stroke="gold" stroke-width="20"/><text x="400" y="920" width="780" text-anchor="middle" style="font:bold 200px 'Helvetica Neue';fill:gold">04862</text><g transform="translate(80 80) scale(64)"><rect x="0" y="0" width="1" height="1" fill="#a0843b" /><rect x="0" y="1" width="1" height="1" fill="#514e48" /><rect x="0" y="2" width="1" height="1" fill="#ac8c32" /><rect x="0" y="3" width="1" height="1" fill="#7e6a40" /><rect x="0" y="4" width="1" height="1" fill="#857040" /><rect x="0" y="5" width="1" height="1" fill="#816d3d" /><rect x="0" y="6" width="1" height="1" fill="#8c762f" /><rect x="0" y="7" width="1" height="1" fill="#b58f19" /><rect x="0" y="8" width="1" height="1" fill="#cea50a" /><rect x="0" y="9" width="1" height="1" fill="#e4bb2f" /><rect x="1" y="0" width="1" height="1" fill="#b29954" /><rect x="1" y="1" width="1" height="1" fill="#534c40" /><rect x="1" y="2" width="1" height="1" fill="#937c3c" /><rect x="1" y="3" width="1" height="1" fill="#06304d" /><rect x="1" y="4" width="1" height="1" fill="#39414b" /><rect x="1" y="5" width="1" height="1" fill="#343f4d" /><rect x="1" y="6" width="1" height="1" fill="#343c4f" /><rect x="1" y="7" width="1" height="1" fill="#000541" /><rect x="1" y="8" width="1" height="1" fill="#967f7f" /><rect x="1" y="9" width="1" height="1" fill="#d0998b" /><rect x="2" y="0" width="1" height="1" fill="#d2bb87" /><rect x="2" y="1" width="1" height="1" fill="#5b4927" /><rect x="2" y="2" width="1" height="1" fill="#947d42" /><rect x="2" y="3" width="1" height="1" fill="#1e364d" /><rect x="2" y="4" width="1" height="1" fill="#534f49" /><rect x="2" y="5" width="1" height="1" fill="#54504b" /><rect x="2" y="6" width="1" height="1" fill="#424442" /><rect x="2" y="7" width="1" height="1" fill="#9e897f" /><rect x="2" y="8" width="1" height="1" fill="#f99475" /><rect x="2" y="9" width="1" height="1" fill="#ff7d4e" /><rect x="3" y="0" width="1" height="1" fill="#f1e3c2" /><rect x="3" y="1" width="1" height="1" fill="#745a00" /><rect x="3" y="2" width="1" height="1" fill="#a48b42" /><rect x="3" y="3" width="1" height="1" fill="#716243" /><rect x="3" y="4" width="1" height="1" fill="#45474b" /><rect x="3" y="5" width="1" height="1" fill="#293446" /><rect x="3" y="6" width="1" height="1" fill="#556161" /><rect x="3" y="7" width="1" height="1" fill="#ef9c89" /><rect x="3" y="8" width="1" height="1" fill="#ff7e00" /><rect x="3" y="9" width="1" height="1" fill="#f79900" /><rect x="4" y="0" width="1" height="1" fill="#fffff4" /><rect x="4" y="1" width="1" height="1" fill="#b69c57" /><rect x="4" y="2" width="1" height="1" fill="#49453e" /><rect x="4" y="3" width="1" height="1" fill="#9a823e" /><rect x="4" y="4" width="1" height="1" fill="#9d8238" /><rect x="4" y="5" width="1" height="1" fill="#897441" /><rect x="4" y="6" width="1" height="1" fill="#4d483c" /><rect x="4" y="7" width="1" height="1" fill="#7e7a7a" /><rect x="4" y="8" width="1" height="1" fill="#ef927d" /><rect x="4" y="9" width="1" height="1" fill="#ff7a5d" /><rect x="5" y="0" width="1" height="1" fill="#ffffff" /><rect x="5" y="1" width="1" height="1" fill="#f7e9c5" /><rect x="5" y="2" width="1" height="1" fill="#705500" /><rect x="5" y="3" width="1" height="1" fill="#003057" /><rect x="5" y="4" width="1" height="1" fill="#5e5748" /><rect x="5" y="5" width="1" height="1" fill="#85713f" /><rect x="5" y="6" width="1" height="1" fill="#a0853a" /><rect x="5" y="7" width="1" height="1" fill="#867321" /><rect x="5" y="8" width="1" height="1" fill="#a78d75" /><rect x="5" y="9" width="1" height="1" fill="#cc9e87" /><rect x="6" y="0" width="1" height="1" fill="#fefefe" /><rect x="6" y="1" width="1" height="1" fill="#ffffff" /><rect x="6" y="2" width="1" height="1" fill="#e8d4a1" /><rect x="6" y="3" width="1" height="1" fill="#5b4000" /><rect x="6" y="4" width="1" height="1" fill="#273f56" /><rect x="6" y="5" width="1" height="1" fill="#41474f" /><rect x="6" y="6" width="1" height="1" fill="#444649" /><rect x="6" y="7" width="1" height="1" fill="#6c5e46" /><rect x="6" y="8" width="1" height="1" fill="#cda40d" /><rect x="6" y="9" width="1" height="1" fill="#e8ba00" /><rect x="7" y="0" width="1" height="1" fill="#fffffe" /><rect x="7" y="1" width="1" height="1" fill="#fdfeff" /><rect x="7" y="2" width="1" height="1" fill="#fffffd" /><rect x="7" y="3" width="1" height="1" fill="#e8d4a2" /><rect x="7" y="4" width="1" height="1" fill="#775b00" /><rect x="7" y="5" width="1" height="1" fill="#102841" /><rect x="7" y="6" width="1" height="1" fill="#444b53" /><rect x="7" y="7" width="1" height="1" fill="#3f4750" /><rect x="7" y="8" width="1" height="1" fill="#5d564a" /><rect x="7" y="9" width="1" height="1" fill="#716144" /><rect x="8" y="0" width="1" height="1" fill="#ffffff" /><rect x="8" y="1" width="1" height="1" fill="#fffffe" /><rect x="8" y="2" width="1" height="1" fill="#fefeff" /><rect x="8" y="3" width="1" height="1" fill="#ffffff" /><rect x="8" y="4" width="1" height="1" fill="#f7eac7" /><rect x="8" y="5" width="1" height="1" fill="#baa05d" /><rect x="8" y="6" width="1" height="1" fill="#675000" /><rect x="8" y="7" width="1" height="1" fill="#2c2a2c" /><rect x="8" y="8" width="1" height="1" fill="#052745" /><rect x="8" y="9" width="1" height="1" fill="#002b4d" /><rect x="9" y="0" width="1" height="1" fill="#ffffff" /><rect x="9" y="1" width="1" height="1" fill="#ffffff" /><rect x="9" y="2" width="1" height="1" fill="#fffffe" /><rect x="9" y="3" width="1" height="1" fill="#fefefe" /><rect x="9" y="4" width="1" height="1" fill="#ffffff" /><rect x="9" y="5" width="1" height="1" fill="#fffff5" /><rect x="9" y="6" width="1" height="1" fill="#f4e6c4" /><rect x="9" y="7" width="1" height="1" fill="#d7c18a" /><rect x="9" y="8" width="1" height="1" fill="#b99f58" /><rect x="9" y="9" width="1" height="1" fill="#a98b38" /></g></svg>