<svg width="800" height="1000" version="1.1" xmlns="http://www.w3.org/2000/svg" xmlns:xlink="http://www.w3.org/1999/xlink">
  <defs>
      <linearGradient id="Gradient2" x1="0" x2="1" y1="0" y2="1">
        <stop offset="0%" stop-color="#2d3c96"/>
        <stop offset="100%" stop-color="#d53392"/>
      </linearGradient>
  </defs>
  <rect x="10" y="10" width="780" height="980" fill="url(#Gradient2)" rx="50" ry="50" stroke="#ffd700" stroke-width="20"/>
  <text x="400" y="920" width="780" text-anchor="middle" style="font: bold 200px 'Helvetica Neue'; fill: #ffd700">04861</text>

  <g transform="translate(80 80) scale(64)">
<rect x="0" y="0" width="1" height="1" fill="#FFFFFF" /><rect x="1" y="0" width="1" height="1" fill="#FFFFFF" /><rect x="2" y="0" width="1" height="1" fill="#FFFFFE" /><rect x="3" y="0" width="1" height="1" fill="#FEFEFE" /><rect x="4" y="0" width="1" height="1" fill="#FFFFFF" /><rect x="5" y="0" width="1" height="1" fill="#FFFFF4" /><rect x="6" y="0" width="1" height="1" fill="#F4E6C1" /><rect x="7" y="0" width="1" height="1" fill="#D5BE86" /><rect x="8" y="0" width="1" height="1" fill="#B39954" /><rect x="9" y="0" width="1" height="1" fill="#A0843A" /><rect x="0" y="1" width="1" height="1" fill="#FFFFFF" /><rect x="1" y="1" width="1" height="1" fill="#FFFFFE" /><rect x="2" y="1" width="1" height="1" fill="#FDFEFF" /><rect x="3" y="1" width="1" height="1" fill="#FFFFFF" /><rect x="4" y="1" width="1" height="1" fill="#F7E9C5" /><rect x="5" y="1" width="1" height="1" fill="#B79D57" /><rect x="6" y="1" width="1" height="1" fill="#544000" /><rect x="7" y="1" width="1" height="1" fill="#1F2431" /><rect x="8" y="1" width="1" height="1" fill="#494543" /><rect x="9" y="1" width="1" height="1" fill="#534F48" /><rect x="0" y="2" width="1" height="1" fill="#FFFFFE" /><rect x="1" y="2" width="1" height="1" fill="#FEFEFF" /><rect x="2" y="2" width="1" height="1" fill="#FFFFFD" /><rect x="3" y="2" width="1" height="1" fill="#E8D4A1" /><rect x="4" y="2" width="1" height="1" fill="#735700" /><rect x="5" y="2" width="1" height="1" fill="#002143" /><rect x="6" y="2" width="1" height="1" fill="#8C7849" /><rect x="7" y="2" width="1" height="1" fill="#A1873F" /><rect x="8" y="2" width="1" height="1" fill="#967E3C" /><rect x="9" y="2" width="1" height="1" fill="#AC8C33" /><rect x="0" y="3" width="1" height="1" fill="#FEFEFE" /><rect x="1" y="3" width="1" height="1" fill="#FFFFFF" /><rect x="2" y="3" width="1" height="1" fill="#E9D4A2" /><rect x="3" y="3" width="1" height="1" fill="#563B00" /><rect x="4" y="3" width="1" height="1" fill="#374758" /><rect x="5" y="3" width="1" height="1" fill="#A88D41" /><rect x="6" y="3" width="1" height="1" fill="#877445" /><rect x="7" y="3" width="1" height="1" fill="#53514E" /><rect x="8" y="3" width="1" height="1" fill="#1F3952" /><rect x="9" y="3" width="1" height="1" fill="#806D46" /><rect x="0" y="4" width="1" height="1" fill="#FFFFFF" /><rect x="1" y="4" width="1" height="1" fill="#F7EAC7" /><rect x="2" y="4" width="1" height="1" fill="#795D00" /><rect x="3" y="4" width="1" height="1" fill="#003358" /><rect x="4" y="4" width="1" height="1" fill="#977C26" /><rect x="5" y="4" width="1" height="1" fill="#6F5919" /><rect x="6" y="4" width="1" height="1" fill="#000030" /><rect x="7" y="4" width="1" height="1" fill="#36322B" /><rect x="8" y="4" width="1" height="1" fill="#001B2F" /><rect x="9" y="4" width="1" height="1" fill="#7D6625" /><rect x="0" y="5" width="1" height="1" fill="#FFFFF5" /><rect x="1" y="5" width="1" height="1" fill="#BAA05D" /><rect x="2" y="5" width="1" height="1" fill="#001D44" /><rect x="3" y="5" width="1" height="1" fill="#635943" /><rect x="4" y="5" width="1" height="1" fill="#B29D6A" /><rect x="5" y="5" width="1" height="1" fill="#86888C" /><rect x="6" y="5" width="1" height="1" fill="#8B8D8D" /><rect x="7" y="5" width="1" height="1" fill="#898A8A" /><rect x="8" y="5" width="1" height="1" fill="#83868B" /><rect x="9" y="5" width="1" height="1" fill="#A79879" /><rect x="0" y="6" width="1" height="1" fill="#F4E6C5" /><rect x="1" y="6" width="1" height="1" fill="#6A5300" /><rect x="2" y="6" width="1" height="1" fill="#2B4259" /><rect x="3" y="6" width="1" height="1" fill="#7A631F" /><rect x="4" y="6" width="1" height="1" fill="#F9EFDA" /><rect x="5" y="6" width="1" height="1" fill="#FFFFFF" /><rect x="6" y="6" width="1" height="1" fill="#FFF2ED" /><rect x="7" y="6" width="1" height="1" fill="#FFFCFA" /><rect x="8" y="6" width="1" height="1" fill="#FFFFFF" /><rect x="9" y="6" width="1" height="1" fill="#FFF6E0" /><rect x="0" y="7" width="1" height="1" fill="#D7C18B" /><rect x="1" y="7" width="1" height="1" fill="#332F2E" /><rect x="2" y="7" width="1" height="1" fill="#2C394D" /><rect x="3" y="7" width="1" height="1" fill="#968450" /><rect x="4" y="7" width="1" height="1" fill="#FFF6E3" /><rect x="5" y="7" width="1" height="1" fill="#F0D7D0" /><rect x="6" y="7" width="1" height="1" fill="#D8BFB2" /><rect x="7" y="7" width="1" height="1" fill="#E4CABE" /><rect x="8" y="7" width="1" height="1" fill="#F9E9E8" /><rect x="9" y="7" width="1" height="1" fill="#FFFAE3" /><rect x="0" y="8" width="1" height="1" fill="#BA9F58" /><rect x="1" y="8" width="1" height="1" fill="#072A48" /><rect x="2" y="8" width="1" height="1" fill="#594F3C" /><rect x="3" y="8" width="1" height="1" fill="#C9AD5A" /><rect x="4" y="8" width="1" height="1" fill="#FBE7D5" /><rect x="5" y="8" width="1" height="1" fill="#C7BBB7" /><rect x="6" y="8" width="1" height="1" fill="#BADBE8" /><rect x="7" y="8" width="1" height="1" fill="#BBC6C9" /><rect x="8" y="8" width="1" height="1" fill="#E4CDC8" /><rect x="9" y="8" width="1" height="1" fill="#FFF6DE" /><rect x="0" y="9" width="1" height="1" fill="#A98B39" /><rect x="1" y="9" width="1" height="1" fill="#00304F" /><rect x="2" y="9" width="1" height="1" fill="#655537" /><rect x="3" y="9" width="1" height="1" fill="#C9AD5D" /><rect x="4" y="9" width="1" height="1" fill="#F2D5C0" /><rect x="5" y="9" width="1" height="1" fill="#C6C8C7" /><rect x="6" y="9" width="1" height="1" fill="#B0E5FE" /><rect x="7" y="9" width="1" height="1" fill="#BEDAE4" /><rect x="8" y="9" width="1" height="1" fill="#DBC2BB" /><rect x="9" y="9" width="1" height="1" fill="#FFF0D8" />
  </g>
</svg>