<svg width="800" height="1000" version="1.1" xmlns="http://www.w3.org/2000/svg" xmlns:xlink="http://www.w3.org/1999/xlink">
  <defs>
      <linearGradient id="Gradient2" x1="0" x2="1" y1="0" y2="1">
        <stop offset="0%" stop-color="#2d3c96"/>
        <stop offset="100%" stop-color="#d53392"/>
      </linearGradient>
  </defs>
  <rect x="10" y="10" width="780" height="980" fill="url(#Gradient2)" rx="50" ry="50" stroke="#ffd700" stroke-width="20"/>
  <text x="400" y="920" width="780" text-anchor="middle" style="font: bold 200px 'Helvetica Neue'; fill: #ffd700">04902</text>

  <g transform="translate(80 80) scale(64)">
<rect x="0" y="0" width="1" height="1" fill="#FF01EF" /><rect x="1" y="0" width="1" height="1" fill="#FE00EC" /><rect x="2" y="0" width="1" height="1" fill="#FD00F1" /><rect x="3" y="0" width="1" height="1" fill="#FF00F0" /><rect x="4" y="0" width="1" height="1" fill="#FF00F0" /><rect x="5" y="0" width="1" height="1" fill="#FD00F1" /><rect x="6" y="0" width="1" height="1" fill="#FE00EE" /><rect x="7" y="0" width="1" height="1" fill="#FF02F2" /><rect x="8" y="0" width="1" height="1" fill="#FC00F1" /><rect x="9" y="0" width="1" height="1" fill="#FF00EC" /><rect x="0" y="1" width="1" height="1" fill="#FF00F0" /><rect x="1" y="1" width="1" height="1" fill="#FC00F0" /><rect x="2" y="1" width="1" height="1" fill="#FA00E8" /><rect x="3" y="1" width="1" height="1" fill="#FD00EF" /><rect x="4" y="1" width="1" height="1" fill="#FD02F0" /><rect x="5" y="1" width="1" height="1" fill="#FF00F0" /><rect x="6" y="1" width="1" height="1" fill="#FF02F3" /><rect x="7" y="1" width="1" height="1" fill="#FD00EE" /><rect x="8" y="1" width="1" height="1" fill="#FF00F0" /><rect x="9" y="1" width="1" height="1" fill="#FF00F0" /><rect x="0" y="2" width="1" height="1" fill="#F700E7" /><rect x="1" y="2" width="1" height="1" fill="#7F027A" /><rect x="2" y="2" width="1" height="1" fill="#61025E" /><rect x="3" y="2" width="1" height="1" fill="#D902CA" /><rect x="4" y="2" width="1" height="1" fill="#FD00EF" /><rect x="5" y="2" width="1" height="1" fill="#FF00F0" /><rect x="6" y="2" width="1" height="1" fill="#FF01EF" /><rect x="7" y="2" width="1" height="1" fill="#FF00F2" /><rect x="8" y="2" width="1" height="1" fill="#FF00F0" /><rect x="9" y="2" width="1" height="1" fill="#FE00F1" /><rect x="0" y="3" width="1" height="1" fill="#670366" /><rect x="1" y="3" width="1" height="1" fill="#04040C" /><rect x="2" y="3" width="1" height="1" fill="#06030C" /><rect x="3" y="3" width="1" height="1" fill="#1A031D" /><rect x="4" y="3" width="1" height="1" fill="#B301AB" /><rect x="5" y="3" width="1" height="1" fill="#FD00EF" /><rect x="6" y="3" width="1" height="1" fill="#FE01F0" /><rect x="7" y="3" width="1" height="1" fill="#FE01F0" /><rect x="8" y="3" width="1" height="1" fill="#FE00EF" /><rect x="9" y="3" width="1" height="1" fill="#FE00EF" /><rect x="0" y="4" width="1" height="1" fill="#09030F" /><rect x="1" y="4" width="1" height="1" fill="#05040A" /><rect x="2" y="4" width="1" height="1" fill="#030207" /><rect x="3" y="4" width="1" height="1" fill="#06030A" /><rect x="4" y="4" width="1" height="1" fill="#0C0411" /><rect x="5" y="4" width="1" height="1" fill="#A5009C" /><rect x="6" y="4" width="1" height="1" fill="#FD00ED" /><rect x="7" y="4" width="1" height="1" fill="#FD00EF" /><rect x="8" y="4" width="1" height="1" fill="#FD00EF" /><rect x="9" y="4" width="1" height="1" fill="#FF00F2" /><rect x="0" y="5" width="1" height="1" fill="#060409" /><rect x="1" y="5" width="1" height="1" fill="#04030B" /><rect x="2" y="5" width="1" height="1" fill="#06030A" /><rect x="3" y="5" width="1" height="1" fill="#050209" /><rect x="4" y="5" width="1" height="1" fill="#04040C" /><rect x="5" y="5" width="1" height="1" fill="#09030B" /><rect x="6" y="5" width="1" height="1" fill="#83017F" /><rect x="7" y="5" width="1" height="1" fill="#F800EA" /><rect x="8" y="5" width="1" height="1" fill="#FF00F0" /><rect x="9" y="5" width="1" height="1" fill="#FE00EE" /><rect x="0" y="6" width="1" height="1" fill="#050209" /><rect x="1" y="6" width="1" height="1" fill="#040309" /><rect x="2" y="6" width="1" height="1" fill="#040309" /><rect x="3" y="6" width="1" height="1" fill="#040309" /><rect x="4" y="6" width="1" height="1" fill="#040309" /><rect x="5" y="6" width="1" height="1" fill="#040309" /><rect x="6" y="6" width="1" height="1" fill="#05020D" /><rect x="7" y="6" width="1" height="1" fill="#5E045C" /><rect x="8" y="6" width="1" height="1" fill="#F702E6" /><rect x="9" y="6" width="1" height="1" fill="#FF00F1" /><rect x="0" y="7" width="1" height="1" fill="#050209" /><rect x="1" y="7" width="1" height="1" fill="#040309" /><rect x="2" y="7" width="1" height="1" fill="#040309" /><rect x="3" y="7" width="1" height="1" fill="#040309" /><rect x="4" y="7" width="1" height="1" fill="#040309" /><rect x="5" y="7" width="1" height="1" fill="#040309" /><rect x="6" y="7" width="1" height="1" fill="#060409" /><rect x="7" y="7" width="1" height="1" fill="#08020E" /><rect x="8" y="7" width="1" height="1" fill="#4F034D" /><rect x="9" y="7" width="1" height="1" fill="#F800EC" /><rect x="0" y="8" width="1" height="1" fill="#050209" /><rect x="1" y="8" width="1" height="1" fill="#06030A" /><rect x="2" y="8" width="1" height="1" fill="#06030A" /><rect x="3" y="8" width="1" height="1" fill="#05040A" /><rect x="4" y="8" width="1" height="1" fill="#040309" /><rect x="5" y="8" width="1" height="1" fill="#040309" /><rect x="6" y="8" width="1" height="1" fill="#030409" /><rect x="7" y="8" width="1" height="1" fill="#05040C" /><rect x="8" y="8" width="1" height="1" fill="#06030A" /><rect x="9" y="8" width="1" height="1" fill="#6C0167" /><rect x="0" y="9" width="1" height="1" fill="#050209" /><rect x="1" y="9" width="1" height="1" fill="#06030A" /><rect x="2" y="9" width="1" height="1" fill="#06030A" /><rect x="3" y="9" width="1" height="1" fill="#050209" /><rect x="4" y="9" width="1" height="1" fill="#040309" /><rect x="5" y="9" width="1" height="1" fill="#05040A" /><rect x="6" y="9" width="1" height="1" fill="#050308" /><rect x="7" y="9" width="1" height="1" fill="#05040C" /><rect x="8" y="9" width="1" height="1" fill="#030207" /><rect x="9" y="9" width="1" height="1" fill="#0E0311" />
  </g>
</svg>