<svg width="800" height="1000" xmlns="http://www.w3.org/2000/svg"><defs><linearGradient id="g" x1="0" x2="1" y1="0" y2="1"><stop offset="0%" stop-color="#2d3c96"/><stop offset="100%" stop-color="#d53392"/></linearGradient></defs><rect x="10" y="10" width="780" height="980" fill="url(#g)" rx="50" ry="50" stroke="gold" stroke-width="20"/><text x="400" y="920" width="780" text-anchor="middle" style="font:bold 200px 'Helvetica Neue';fill:gold">04929</text><g transform="translate(80 80) scale(64)"><rect x="0" y="0" width="1" height="1" fill="#e1aed7" /><rect x="0" y="1" width="1" height="1" fill="#e6b2d9" /><rect x="0" y="2" width="1" height="1" fill="#e1aad1" /><rect x="0" y="3" width="1" height="1" fill="#e6b0d4" /><rect x="0" y="4" width="1" height="1" fill="#dba8c9" /><rect x="0" y="5" width="1" height="1" fill="#e4b1d0" /><rect x="0" y="6" width="1" height="1" fill="#ddacca" /><rect x="0" y="7" width="1" height="1" fill="#ddacc9" /><rect x="0" y="8" width="1" height="1" fill="#dfadca" /><rect x="0" y="9" width="1" height="1" fill="#e3acc9" /><rect x="1" y="0" width="1" height="1" fill="#d9abd0" /><rect x="1" y="1" width="1" height="1" fill="#e1b2d6" /><rect x="1" y="2" width="1" height="1" fill="#dbacce" /><rect x="1" y="3" width="1" height="1" fill="#ddb0cf" /><rect x="1" y="4" width="1" height="1" fill="#d7acc8" /><rect x="1" y="5" width="1" height="1" fill="#e3b8d4" /><rect x="1" y="6" width="1" height="1" fill="#dfb7d1" /><rect x="1" y="7" width="1" height="1" fill="#e3bbd3" /><rect x="1" y="8" width="1" height="1" fill="#e2b8ce" /><rect x="1" y="9" width="1" height="1" fill="#e3b6cd" /><rect x="2" y="0" width="1" height="1" fill="#d7aece" /><rect x="2" y="1" width="1" height="1" fill="#dfb6d4" /><rect x="2" y="2" width="1" height="1" fill="#dbb4d1" /><rect x="2" y="3" width="1" height="1" fill="#e1bad5" /><rect x="2" y="4" width="1" height="1" fill="#d4b0ca" /><rect x="2" y="5" width="1" height="1" fill="#ccaac2" /><rect x="2" y="6" width="1" height="1" fill="#b898af" /><rect x="2" y="7" width="1" height="1" fill="#b897ac" /><rect x="2" y="8" width="1" height="1" fill="#af8d9e" /><rect x="2" y="9" width="1" height="1" fill="#ac8799" /><rect x="3" y="0" width="1" height="1" fill="#e2beda" /><rect x="3" y="1" width="1" height="1" fill="#d0aec9" /><rect x="3" y="2" width="1" height="1" fill="#ad8da5" /><rect x="3" y="3" width="1" height="1" fill="#9d7d95" /><rect x="3" y="4" width="1" height="1" fill="#74576d" /><rect x="3" y="5" width="1" height="1" fill="#482b41" /><rect x="3" y="6" width="1" height="1" fill="#180012" /><rect x="3" y="7" width="1" height="1" fill="#12000b" /><rect x="3" y="8" width="1" height="1" fill="#140007" /><rect x="3" y="9" width="1" height="1" fill="#150005" /><rect x="4" y="0" width="1" height="1" fill="#b391ac" /><rect x="4" y="1" width="1" height="1" fill="#75546f" /><rect x="4" y="2" width="1" height="1" fill="#24061e" /><rect x="4" y="3" width="1" height="1" fill="#11000c" /><rect x="4" y="4" width="1" height="1" fill="#11000c" /><rect x="4" y="5" width="1" height="1" fill="#13000e" /><rect x="4" y="6" width="1" height="1" fill="#260820" /><rect x="4" y="7" width="1" height="1" fill="#4f3149" /><rect x="4" y="8" width="1" height="1" fill="#64445b" /><rect x="4" y="9" width="1" height="1" fill="#6a4a61" /><rect x="5" y="0" width="1" height="1" fill="#180012" /><rect x="5" y="1" width="1" height="1" fill="#12000e" /><rect x="5" y="2" width="1" height="1" fill="#160013" /><rect x="5" y="3" width="1" height="1" fill="#664a63" /><rect x="5" y="4" width="1" height="1" fill="#a486a0" /><rect x="5" y="5" width="1" height="1" fill="#bc9bb6" /><rect x="5" y="6" width="1" height="1" fill="#b997b2" /><rect x="5" y="7" width="1" height="1" fill="#d1aecc" /><rect x="5" y="8" width="1" height="1" fill="#d3b0ce" /><rect x="5" y="9" width="1" height="1" fill="#d2afcd" /><rect x="6" y="0" width="1" height="1" fill="#190013" /><rect x="6" y="1" width="1" height="1" fill="#664862" /><rect x="6" y="2" width="1" height="1" fill="#b094ad" /><rect x="6" y="3" width="1" height="1" fill="#d5b7d3" /><rect x="6" y="4" width="1" height="1" fill="#d9b6d4" /><rect x="6" y="5" width="1" height="1" fill="#d7b0cf" /><rect x="6" y="6" width="1" height="1" fill="#e0b4d5" /><rect x="6" y="7" width="1" height="1" fill="#e1b5d8" /><rect x="6" y="8" width="1" height="1" fill="#d8aed4" /><rect x="6" y="9" width="1" height="1" fill="#d8aed6" /><rect x="7" y="0" width="1" height="1" fill="#2d0c27" /><rect x="7" y="1" width="1" height="1" fill="#bc9eb8" /><rect x="7" y="2" width="1" height="1" fill="#e0c2dc" /><rect x="7" y="3" width="1" height="1" fill="#ceadca" /><rect x="7" y="4" width="1" height="1" fill="#d6afce" /><rect x="7" y="5" width="1" height="1" fill="#d6a8cc" /><rect x="7" y="6" width="1" height="1" fill="#dda9cf" /><rect x="7" y="7" width="1" height="1" fill="#dea7cf" /><rect x="7" y="8" width="1" height="1" fill="#deabd6" /><rect x="7" y="9" width="1" height="1" fill="#dcabd8" /><rect x="8" y="0" width="1" height="1" fill="#4e2c47" /><rect x="8" y="1" width="1" height="1" fill="#d2b1cc" /><rect x="8" y="2" width="1" height="1" fill="#debdd8" /><rect x="8" y="3" width="1" height="1" fill="#cea9c8" /><rect x="8" y="4" width="1" height="1" fill="#e3b6d7" /><rect x="8" y="5" width="1" height="1" fill="#e8b2d6" /><rect x="8" y="6" width="1" height="1" fill="#f3b5de" /><rect x="8" y="7" width="1" height="1" fill="#e5a6d1" /><rect x="8" y="8" width="1" height="1" fill="#e4a9d7" /><rect x="8" y="9" width="1" height="1" fill="#e3a9db" /><rect x="9" y="0" width="1" height="1" fill="#1f0014" /><rect x="9" y="1" width="1" height="1" fill="#a5859c" /><rect x="9" y="2" width="1" height="1" fill="#dbb9d2" /><rect x="9" y="3" width="1" height="1" fill="#d9b1cc" /><rect x="9" y="4" width="1" height="1" fill="#deadcd" /><rect x="9" y="5" width="1" height="1" fill="#e1a5c9" /><rect x="9" y="6" width="1" height="1" fill="#eda9d2" /><rect x="9" y="7" width="1" height="1" fill="#e9a2ce" /><rect x="9" y="8" width="1" height="1" fill="#eba8d4" /><rect x="9" y="9" width="1" height="1" fill="#e8a9d6" /></g></svg>