<svg width="800" height="1000" xmlns="http://www.w3.org/2000/svg"><defs><linearGradient id="g" x1="0" x2="1" y1="0" y2="1"><stop offset="0%" stop-color="#2d3c96"/><stop offset="100%" stop-color="#d53392"/></linearGradient></defs><rect x="10" y="10" width="780" height="980" fill="url(#g)" rx="50" ry="50" stroke="gold" stroke-width="20"/><text x="400" y="920" width="780" text-anchor="middle" style="font:bold 200px 'Helvetica Neue';fill:gold">04928</text><g transform="translate(80 80) scale(64)"><rect x="0" y="0" width="1" height="1" fill="#d1acdf" /><rect x="0" y="1" width="1" height="1" fill="#d2acdd" /><rect x="0" y="2" width="1" height="1" fill="#d4addc" /><rect x="0" y="3" width="1" height="1" fill="#d6acda" /><rect x="0" y="4" width="1" height="1" fill="#d7acda" /><rect x="0" y="5" width="1" height="1" fill="#d7acd9" /><rect x="0" y="6" width="1" height="1" fill="#d8adda" /><rect x="0" y="7" width="1" height="1" fill="#d8adda" /><rect x="0" y="8" width="1" height="1" fill="#d8afdb" /><rect x="0" y="9" width="1" height="1" fill="#d9aedb" /><rect x="1" y="0" width="1" height="1" fill="#d3adde" /><rect x="1" y="1" width="1" height="1" fill="#d4addc" /><rect x="1" y="2" width="1" height="1" fill="#d6acda" /><rect x="1" y="3" width="1" height="1" fill="#d7acd9" /><rect x="1" y="4" width="1" height="1" fill="#d9abd9" /><rect x="1" y="5" width="1" height="1" fill="#daadd8" /><rect x="1" y="6" width="1" height="1" fill="#daadd8" /><rect x="1" y="7" width="1" height="1" fill="#daadd8" /><rect x="1" y="8" width="1" height="1" fill="#d9aed9" /><rect x="1" y="9" width="1" height="1" fill="#dbaed9" /><rect x="2" y="0" width="1" height="1" fill="#d4addc" /><rect x="2" y="1" width="1" height="1" fill="#d6acda" /><rect x="2" y="2" width="1" height="1" fill="#d7acd9" /><rect x="2" y="3" width="1" height="1" fill="#d9acd7" /><rect x="2" y="4" width="1" height="1" fill="#daadd8" /><rect x="2" y="5" width="1" height="1" fill="#dbacd6" /><rect x="2" y="6" width="1" height="1" fill="#dbacd6" /><rect x="2" y="7" width="1" height="1" fill="#dbacd6" /><rect x="2" y="8" width="1" height="1" fill="#dbaed7" /><rect x="2" y="9" width="1" height="1" fill="#dcadd7" /><rect x="3" y="0" width="1" height="1" fill="#d6acda" /><rect x="3" y="1" width="1" height="1" fill="#d7acd9" /><rect x="3" y="2" width="1" height="1" fill="#daadd8" /><rect x="3" y="3" width="1" height="1" fill="#dbacd6" /><rect x="3" y="4" width="1" height="1" fill="#dbacd6" /><rect x="3" y="5" width="1" height="1" fill="#dcacd6" /><rect x="3" y="6" width="1" height="1" fill="#ddadd7" /><rect x="3" y="7" width="1" height="1" fill="#ddadd5" /><rect x="3" y="8" width="1" height="1" fill="#dcaed5" /><rect x="3" y="9" width="1" height="1" fill="#dfacd5" /><rect x="4" y="0" width="1" height="1" fill="#d8addb" /><rect x="4" y="1" width="1" height="1" fill="#daacda" /><rect x="4" y="2" width="1" height="1" fill="#daadd8" /><rect x="4" y="3" width="1" height="1" fill="#dbacd6" /><rect x="4" y="4" width="1" height="1" fill="#dcacd6" /><rect x="4" y="5" width="1" height="1" fill="#dfacd5" /><rect x="4" y="6" width="1" height="1" fill="#dfacd5" /><rect x="4" y="7" width="1" height="1" fill="#dfadd3" /><rect x="4" y="8" width="1" height="1" fill="#dfadd3" /><rect x="4" y="9" width="1" height="1" fill="#e0acd2" /><rect x="5" y="0" width="1" height="1" fill="#d8adda" /><rect x="5" y="1" width="1" height="1" fill="#daadd8" /><rect x="5" y="2" width="1" height="1" fill="#dbacd6" /><rect x="5" y="3" width="1" height="1" fill="#ddadd7" /><rect x="5" y="4" width="1" height="1" fill="#dfacd5" /><rect x="5" y="5" width="1" height="1" fill="#dfacd5" /><rect x="5" y="6" width="1" height="1" fill="#e0acd3" /><rect x="5" y="7" width="1" height="1" fill="#e0acd3" /><rect x="5" y="8" width="1" height="1" fill="#e0acd2" /><rect x="5" y="9" width="1" height="1" fill="#e3add1" /><rect x="6" y="0" width="1" height="1" fill="#daacda" /><rect x="6" y="1" width="1" height="1" fill="#daadd8" /><rect x="6" y="2" width="1" height="1" fill="#dcadd7" /><rect x="6" y="3" width="1" height="1" fill="#ddadd7" /><rect x="6" y="4" width="1" height="1" fill="#dfacd5" /><rect x="6" y="5" width="1" height="1" fill="#e0acd3" /><rect x="6" y="6" width="1" height="1" fill="#e3acd4" /><rect x="6" y="7" width="1" height="1" fill="#e3acd3" /><rect x="6" y="8" width="1" height="1" fill="#e2acd0" /><rect x="6" y="9" width="1" height="1" fill="#e5accf" /><rect x="7" y="0" width="1" height="1" fill="#dbacda" /><rect x="7" y="1" width="1" height="1" fill="#ddacd9" /><rect x="7" y="2" width="1" height="1" fill="#e0abd7" /><rect x="7" y="3" width="1" height="1" fill="#e2abd5" /><rect x="7" y="4" width="1" height="1" fill="#e2abd3" /><rect x="7" y="5" width="1" height="1" fill="#e4acd3" /><rect x="7" y="6" width="1" height="1" fill="#e4acd3" /><rect x="7" y="7" width="1" height="1" fill="#e4acd3" /><rect x="7" y="8" width="1" height="1" fill="#e3abd0" /><rect x="7" y="9" width="1" height="1" fill="#e7abcf" /><rect x="8" y="0" width="1" height="1" fill="#e6b0e1" /><rect x="8" y="1" width="1" height="1" fill="#e4abd8" /><rect x="8" y="2" width="1" height="1" fill="#e2a5d1" /><rect x="8" y="3" width="1" height="1" fill="#edaed9" /><rect x="8" y="4" width="1" height="1" fill="#e2a4cd" /><rect x="8" y="5" width="1" height="1" fill="#e5a9cf" /><rect x="8" y="6" width="1" height="1" fill="#e2a6cc" /><rect x="8" y="7" width="1" height="1" fill="#e7abd1" /><rect x="8" y="8" width="1" height="1" fill="#e4a8ce" /><rect x="8" y="9" width="1" height="1" fill="#e8a8cd" /><rect x="9" y="0" width="1" height="1" fill="#dda5d4" /><rect x="9" y="1" width="1" height="1" fill="#e1a6d4" /><rect x="9" y="2" width="1" height="1" fill="#e2a5cf" /><rect x="9" y="3" width="1" height="1" fill="#efb1da" /><rect x="9" y="4" width="1" height="1" fill="#e7abd1" /><rect x="9" y="5" width="1" height="1" fill="#ebb2d5" /><rect x="9" y="6" width="1" height="1" fill="#e4accf" /><rect x="9" y="7" width="1" height="1" fill="#e5accf" /><rect x="9" y="8" width="1" height="1" fill="#edb1d5" /><rect x="9" y="9" width="1" height="1" fill="#edafd4" /></g></svg>