<svg width="800" height="1000" xmlns="http://www.w3.org/2000/svg"><defs><linearGradient id="g" x1="0" x2="1" y1="0" y2="1"><stop offset="0%" stop-color="#2d3c96"/><stop offset="100%" stop-color="#d53392"/></linearGradient></defs><rect x="10" y="10" width="780" height="980" fill="url(#g)" rx="50" ry="50" stroke="gold" stroke-width="20"/><text x="400" y="920" width="780" text-anchor="middle" style="font:bold 200px 'Helvetica Neue';fill:gold">04927</text><g transform="translate(80 80) scale(64)"><rect x="0" y="0" width="1" height="1" fill="#c3aee9" /><rect x="0" y="1" width="1" height="1" fill="#c5ade7" /><rect x="0" y="2" width="1" height="1" fill="#c6ade6" /><rect x="0" y="3" width="1" height="1" fill="#c9ade7" /><rect x="0" y="4" width="1" height="1" fill="#caade5" /><rect x="0" y="5" width="1" height="1" fill="#caade5" /><rect x="0" y="6" width="1" height="1" fill="#cbade3" /><rect x="0" y="7" width="1" height="1" fill="#ccaee4" /><rect x="0" y="8" width="1" height="1" fill="#ceabe5" /><rect x="0" y="9" width="1" height="1" fill="#d0abe1" /><rect x="1" y="0" width="1" height="1" fill="#c5ade7" /><rect x="1" y="1" width="1" height="1" fill="#c6ade6" /><rect x="1" y="2" width="1" height="1" fill="#c8ace6" /><rect x="1" y="3" width="1" height="1" fill="#caade5" /><rect x="1" y="4" width="1" height="1" fill="#caade3" /><rect x="1" y="5" width="1" height="1" fill="#cbade3" /><rect x="1" y="6" width="1" height="1" fill="#cbade1" /><rect x="1" y="7" width="1" height="1" fill="#cface2" /><rect x="1" y="8" width="1" height="1" fill="#d1aae1" /><rect x="1" y="9" width="1" height="1" fill="#d2aade" /><rect x="2" y="0" width="1" height="1" fill="#c7aee7" /><rect x="2" y="1" width="1" height="1" fill="#c9aee5" /><rect x="2" y="2" width="1" height="1" fill="#caade3" /><rect x="2" y="3" width="1" height="1" fill="#ccaee4" /><rect x="2" y="4" width="1" height="1" fill="#ccaee2" /><rect x="2" y="5" width="1" height="1" fill="#ceade2" /><rect x="2" y="6" width="1" height="1" fill="#ceaee0" /><rect x="2" y="7" width="1" height="1" fill="#d1acdf" /><rect x="2" y="8" width="1" height="1" fill="#d6aadf" /><rect x="2" y="9" width="1" height="1" fill="#d8a9dd" /><rect x="3" y="0" width="1" height="1" fill="#c9aee5" /><rect x="3" y="1" width="1" height="1" fill="#caade3" /><rect x="3" y="2" width="1" height="1" fill="#cbade1" /><rect x="3" y="3" width="1" height="1" fill="#ccaee2" /><rect x="3" y="4" width="1" height="1" fill="#ceaee0" /><rect x="3" y="5" width="1" height="1" fill="#ceaee0" /><rect x="3" y="6" width="1" height="1" fill="#cfaddf" /><rect x="3" y="7" width="1" height="1" fill="#d2acdd" /><rect x="3" y="8" width="1" height="1" fill="#d8aadb" /><rect x="3" y="9" width="1" height="1" fill="#d9a9db" /><rect x="4" y="0" width="1" height="1" fill="#c9aee5" /><rect x="4" y="1" width="1" height="1" fill="#caade3" /><rect x="4" y="2" width="1" height="1" fill="#ccaee2" /><rect x="4" y="3" width="1" height="1" fill="#ceade2" /><rect x="4" y="4" width="1" height="1" fill="#cfade0" /><rect x="4" y="5" width="1" height="1" fill="#cfaddf" /><rect x="4" y="6" width="1" height="1" fill="#d2ade0" /><rect x="4" y="7" width="1" height="1" fill="#d3ade0" /><rect x="4" y="8" width="1" height="1" fill="#d8a9dd" /><rect x="4" y="9" width="1" height="1" fill="#d8aadb" /><rect x="5" y="0" width="1" height="1" fill="#caade3" /><rect x="5" y="1" width="1" height="1" fill="#ccaee2" /><rect x="5" y="2" width="1" height="1" fill="#ceade2" /><rect x="5" y="3" width="1" height="1" fill="#cfade0" /><rect x="5" y="4" width="1" height="1" fill="#cfaddf" /><rect x="5" y="5" width="1" height="1" fill="#d2ade0" /><rect x="5" y="6" width="1" height="1" fill="#d2ade0" /><rect x="5" y="7" width="1" height="1" fill="#d4acde" /><rect x="5" y="8" width="1" height="1" fill="#d7abdc" /><rect x="5" y="9" width="1" height="1" fill="#d7abdc" /><rect x="6" y="0" width="1" height="1" fill="#cbaee4" /><rect x="6" y="1" width="1" height="1" fill="#ccaee2" /><rect x="6" y="2" width="1" height="1" fill="#ceaee0" /><rect x="6" y="3" width="1" height="1" fill="#cfaddf" /><rect x="6" y="4" width="1" height="1" fill="#d1acdf" /><rect x="6" y="5" width="1" height="1" fill="#d3adde" /><rect x="6" y="6" width="1" height="1" fill="#d3adde" /><rect x="6" y="7" width="1" height="1" fill="#d4addc" /><rect x="6" y="8" width="1" height="1" fill="#d7abdc" /><rect x="6" y="9" width="1" height="1" fill="#d7abdc" /><rect x="7" y="0" width="1" height="1" fill="#ccaee2" /><rect x="7" y="1" width="1" height="1" fill="#ceaee0" /><rect x="7" y="2" width="1" height="1" fill="#cfaddf" /><rect x="7" y="3" width="1" height="1" fill="#d1addd" /><rect x="7" y="4" width="1" height="1" fill="#d3adde" /><rect x="7" y="5" width="1" height="1" fill="#d3addc" /><rect x="7" y="6" width="1" height="1" fill="#d3addc" /><rect x="7" y="7" width="1" height="1" fill="#d4addc" /><rect x="7" y="8" width="1" height="1" fill="#d6acdc" /><rect x="7" y="9" width="1" height="1" fill="#d6acdc" /><rect x="8" y="0" width="1" height="1" fill="#ceaee0" /><rect x="8" y="1" width="1" height="1" fill="#cfaddf" /><rect x="8" y="2" width="1" height="1" fill="#d1acdf" /><rect x="8" y="3" width="1" height="1" fill="#d3adde" /><rect x="8" y="4" width="1" height="1" fill="#d3adde" /><rect x="8" y="5" width="1" height="1" fill="#d4addc" /><rect x="8" y="6" width="1" height="1" fill="#d4addc" /><rect x="8" y="7" width="1" height="1" fill="#d6acda" /><rect x="8" y="8" width="1" height="1" fill="#d7addd" /><rect x="8" y="9" width="1" height="1" fill="#d8acdd" /><rect x="9" y="0" width="1" height="1" fill="#cfaddf" /><rect x="9" y="1" width="1" height="1" fill="#d1addd" /><rect x="9" y="2" width="1" height="1" fill="#d2acdd" /><rect x="9" y="3" width="1" height="1" fill="#d4addc" /><rect x="9" y="4" width="1" height="1" fill="#d4addc" /><rect x="9" y="5" width="1" height="1" fill="#d6acda" /><rect x="9" y="6" width="1" height="1" fill="#d6acda" /><rect x="9" y="7" width="1" height="1" fill="#d6acda" /><rect x="9" y="8" width="1" height="1" fill="#d7addb" /><rect x="9" y="9" width="1" height="1" fill="#d8addb" /></g></svg>