<svg width="800" height="1000" xmlns="http://www.w3.org/2000/svg"><defs><linearGradient id="g" x1="0" x2="1" y1="0" y2="1"><stop offset="0%" stop-color="#2d3c96"/><stop offset="100%" stop-color="#d53392"/></linearGradient></defs><rect x="10" y="10" width="780" height="980" fill="url(#g)" rx="50" ry="50" stroke="gold" stroke-width="20"/><text x="400" y="920" width="780" text-anchor="middle" style="font:bold 200px 'Helvetica Neue';fill:gold">04924</text><g transform="translate(80 80) scale(64)"><rect x="0" y="0" width="1" height="1" fill="#fcfaff" /><rect x="0" y="1" width="1" height="1" fill="#fefeff" /><rect x="0" y="2" width="1" height="1" fill="#f7faff" /><rect x="0" y="3" width="1" height="1" fill="#ced4ee" /><rect x="0" y="4" width="1" height="1" fill="#b3bce5" /><rect x="0" y="5" width="1" height="1" fill="#b3bef6" /><rect x="0" y="6" width="1" height="1" fill="#b3c0ff" /><rect x="0" y="7" width="1" height="1" fill="#afb8ff" /><rect x="0" y="8" width="1" height="1" fill="#b9bbff" /><rect x="0" y="9" width="1" height="1" fill="#bcbbff" /><rect x="1" y="0" width="1" height="1" fill="#fffdff" /><rect x="1" y="1" width="1" height="1" fill="#eceefb" /><rect x="1" y="2" width="1" height="1" fill="#c9cee4" /><rect x="1" y="3" width="1" height="1" fill="#adb3d3" /><rect x="1" y="4" width="1" height="1" fill="#a3abd9" /><rect x="1" y="5" width="1" height="1" fill="#a5afea" /><rect x="1" y="6" width="1" height="1" fill="#a4b1f5" /><rect x="1" y="7" width="1" height="1" fill="#a3adf5" /><rect x="1" y="8" width="1" height="1" fill="#aaadf4" /><rect x="1" y="9" width="1" height="1" fill="#adacf2" /><rect x="2" y="0" width="1" height="1" fill="#f9faff" /><rect x="2" y="1" width="1" height="1" fill="#d3d4f0" /><rect x="2" y="2" width="1" height="1" fill="#aeb2d7" /><rect x="2" y="3" width="1" height="1" fill="#a6aad9" /><rect x="2" y="4" width="1" height="1" fill="#a9b0e7" /><rect x="2" y="5" width="1" height="1" fill="#a8b2f0" /><rect x="2" y="6" width="1" height="1" fill="#a7b1f6" /><rect x="2" y="7" width="1" height="1" fill="#aab2fa" /><rect x="2" y="8" width="1" height="1" fill="#adb0f5" /><rect x="2" y="9" width="1" height="1" fill="#afb0f3" /><rect x="3" y="0" width="1" height="1" fill="#c9cceb" /><rect x="3" y="1" width="1" height="1" fill="#b2b5de" /><rect x="3" y="2" width="1" height="1" fill="#a6a9dc" /><rect x="3" y="3" width="1" height="1" fill="#abb0ea" /><rect x="3" y="4" width="1" height="1" fill="#b0b5f5" /><rect x="3" y="5" width="1" height="1" fill="#a8aff3" /><rect x="3" y="6" width="1" height="1" fill="#a6aff4" /><rect x="3" y="7" width="1" height="1" fill="#acb5f8" /><rect x="3" y="8" width="1" height="1" fill="#acb1f3" /><rect x="3" y="9" width="1" height="1" fill="#afb0f1" /><rect x="4" y="0" width="1" height="1" fill="#a7abd8" /><rect x="4" y="1" width="1" height="1" fill="#a4a9e3" /><rect x="4" y="2" width="1" height="1" fill="#a8adf1" /><rect x="4" y="3" width="1" height="1" fill="#aeb2fb" /><rect x="4" y="4" width="1" height="1" fill="#acb2fc" /><rect x="4" y="5" width="1" height="1" fill="#a7aef6" /><rect x="4" y="6" width="1" height="1" fill="#a6adf3" /><rect x="4" y="7" width="1" height="1" fill="#aab2f3" /><rect x="4" y="8" width="1" height="1" fill="#abb0f0" /><rect x="4" y="9" width="1" height="1" fill="#acb0ef" /><rect x="5" y="0" width="1" height="1" fill="#a8b1e8" /><rect x="5" y="1" width="1" height="1" fill="#acb3f7" /><rect x="5" y="2" width="1" height="1" fill="#adb3ff" /><rect x="5" y="3" width="1" height="1" fill="#abb0ff" /><rect x="5" y="4" width="1" height="1" fill="#aab0fe" /><rect x="5" y="5" width="1" height="1" fill="#abb1fb" /><rect x="5" y="6" width="1" height="1" fill="#acb3f7" /><rect x="5" y="7" width="1" height="1" fill="#adb2f2" /><rect x="5" y="8" width="1" height="1" fill="#aeb4f2" /><rect x="5" y="9" width="1" height="1" fill="#aeb4f2" /><rect x="6" y="0" width="1" height="1" fill="#a9b2f3" /><rect x="6" y="1" width="1" height="1" fill="#a8b1fc" /><rect x="6" y="2" width="1" height="1" fill="#a6aeff" /><rect x="6" y="3" width="1" height="1" fill="#a4abfc" /><rect x="6" y="4" width="1" height="1" fill="#a6acfa" /><rect x="6" y="5" width="1" height="1" fill="#a9b0f8" /><rect x="6" y="6" width="1" height="1" fill="#abb0f2" /><rect x="6" y="7" width="1" height="1" fill="#a9afed" /><rect x="6" y="8" width="1" height="1" fill="#abb1ef" /><rect x="6" y="9" width="1" height="1" fill="#abb1ef" /><rect x="7" y="0" width="1" height="1" fill="#a0acf4" /><rect x="7" y="1" width="1" height="1" fill="#a1adf9" /><rect x="7" y="2" width="1" height="1" fill="#a6affe" /><rect x="7" y="3" width="1" height="1" fill="#a9b0fe" /><rect x="7" y="4" width="1" height="1" fill="#acb2fc" /><rect x="7" y="5" width="1" height="1" fill="#aeb3f7" /><rect x="7" y="6" width="1" height="1" fill="#aeb2f2" /><rect x="7" y="7" width="1" height="1" fill="#acb0ef" /><rect x="7" y="8" width="1" height="1" fill="#aeb2f1" /><rect x="7" y="9" width="1" height="1" fill="#aeb2f2" /><rect x="8" y="0" width="1" height="1" fill="#a5b1fb" /><rect x="8" y="1" width="1" height="1" fill="#a5b1fb" /><rect x="8" y="2" width="1" height="1" fill="#a7b1f9" /><rect x="8" y="3" width="1" height="1" fill="#a8b1f6" /><rect x="8" y="4" width="1" height="1" fill="#acb1f3" /><rect x="8" y="5" width="1" height="1" fill="#adb1f1" /><rect x="8" y="6" width="1" height="1" fill="#b0b0f0" /><rect x="8" y="7" width="1" height="1" fill="#b0b0f0" /><rect x="8" y="8" width="1" height="1" fill="#adb1f1" /><rect x="8" y="9" width="1" height="1" fill="#aeb2f2" /><rect x="9" y="0" width="1" height="1" fill="#a5b1fb" /><rect x="9" y="1" width="1" height="1" fill="#a5b2f8" /><rect x="9" y="2" width="1" height="1" fill="#a7b2f4" /><rect x="9" y="3" width="1" height="1" fill="#aab2f1" /><rect x="9" y="4" width="1" height="1" fill="#adb1f0" /><rect x="9" y="5" width="1" height="1" fill="#afb1ee" /><rect x="9" y="6" width="1" height="1" fill="#b1aff0" /><rect x="9" y="7" width="1" height="1" fill="#b1aff0" /><rect x="9" y="8" width="1" height="1" fill="#b1b2f2" /><rect x="9" y="9" width="1" height="1" fill="#b1b2f3" /></g></svg>