<svg width="800" height="1000" xmlns="http://www.w3.org/2000/svg"><defs><linearGradient id="g" x1="0" x2="1" y1="0" y2="1"><stop offset="0%" stop-color="#2d3c96"/><stop offset="100%" stop-color="#d53392"/></linearGradient></defs><rect x="10" y="10" width="780" height="980" fill="url(#g)" rx="50" ry="50" stroke="gold" stroke-width="20"/><text x="400" y="920" width="780" text-anchor="middle" style="font:bold 200px 'Helvetica Neue';fill:gold">04925</text><g transform="translate(80 80) scale(64)"><rect x="0" y="0" width="1" height="1" fill="#a7b1f9" /><rect x="0" y="1" width="1" height="1" fill="#a7b2f4" /><rect x="0" y="2" width="1" height="1" fill="#aab2f0" /><rect x="0" y="3" width="1" height="1" fill="#acb2ec" /><rect x="0" y="4" width="1" height="1" fill="#afb1ea" /><rect x="0" y="5" width="1" height="1" fill="#b0b0ec" /><rect x="0" y="6" width="1" height="1" fill="#b2b0ef" /><rect x="0" y="7" width="1" height="1" fill="#b2b0f1" /><rect x="0" y="8" width="1" height="1" fill="#b5b3f4" /><rect x="0" y="9" width="1" height="1" fill="#b4b1f4" /><rect x="1" y="0" width="1" height="1" fill="#a9b1f9" /><rect x="1" y="1" width="1" height="1" fill="#aab2f3" /><rect x="1" y="2" width="1" height="1" fill="#acb2ee" /><rect x="1" y="3" width="1" height="1" fill="#adb2ea" /><rect x="1" y="4" width="1" height="1" fill="#b1b2eb" /><rect x="1" y="5" width="1" height="1" fill="#b2b1eb" /><rect x="1" y="6" width="1" height="1" fill="#b4b0ed" /><rect x="1" y="7" width="1" height="1" fill="#b4afef" /><rect x="1" y="8" width="1" height="1" fill="#b7b2f2" /><rect x="1" y="9" width="1" height="1" fill="#b6b1f3" /><rect x="2" y="0" width="1" height="1" fill="#acb0f7" /><rect x="2" y="1" width="1" height="1" fill="#adb0f3" /><rect x="2" y="2" width="1" height="1" fill="#afb0f0" /><rect x="2" y="3" width="1" height="1" fill="#b1b1ef" /><rect x="2" y="4" width="1" height="1" fill="#b2b1ed" /><rect x="2" y="5" width="1" height="1" fill="#b4b0ed" /><rect x="2" y="6" width="1" height="1" fill="#b4b0ed" /><rect x="2" y="7" width="1" height="1" fill="#b6b0ee" /><rect x="2" y="8" width="1" height="1" fill="#b8afee" /><rect x="2" y="9" width="1" height="1" fill="#b8afee" /><rect x="3" y="0" width="1" height="1" fill="#aeb1f8" /><rect x="3" y="1" width="1" height="1" fill="#b0b0f6" /><rect x="3" y="2" width="1" height="1" fill="#b1b0f4" /><rect x="3" y="3" width="1" height="1" fill="#b2aff2" /><rect x="3" y="4" width="1" height="1" fill="#b4aff1" /><rect x="3" y="5" width="1" height="1" fill="#b5b0f0" /><rect x="3" y="6" width="1" height="1" fill="#b6b0ee" /><rect x="3" y="7" width="1" height="1" fill="#b8b0ec" /><rect x="3" y="8" width="1" height="1" fill="#b9afec" /><rect x="3" y="9" width="1" height="1" fill="#baaeec" /><rect x="4" y="0" width="1" height="1" fill="#b1b0f6" /><rect x="4" y="1" width="1" height="1" fill="#b2aefa" /><rect x="4" y="2" width="1" height="1" fill="#b2aefa" /><rect x="4" y="3" width="1" height="1" fill="#b4aef8" /><rect x="4" y="4" width="1" height="1" fill="#b5aff7" /><rect x="4" y="5" width="1" height="1" fill="#b6aff3" /><rect x="4" y="6" width="1" height="1" fill="#b8afee" /><rect x="4" y="7" width="1" height="1" fill="#b8b0ec" /><rect x="4" y="8" width="1" height="1" fill="#baafe9" /><rect x="4" y="9" width="1" height="1" fill="#bdafea" /><rect x="5" y="0" width="1" height="1" fill="#b1b0f6" /><rect x="5" y="1" width="1" height="1" fill="#b2aef8" /><rect x="5" y="2" width="1" height="1" fill="#b4adfa" /><rect x="5" y="3" width="1" height="1" fill="#b6aef9" /><rect x="5" y="4" width="1" height="1" fill="#b6aef7" /><rect x="5" y="5" width="1" height="1" fill="#b8aef3" /><rect x="5" y="6" width="1" height="1" fill="#b8afee" /><rect x="5" y="7" width="1" height="1" fill="#b9afeb" /><rect x="5" y="8" width="1" height="1" fill="#beb0eb" /><rect x="5" y="9" width="1" height="1" fill="#bfb0eb" /><rect x="6" y="0" width="1" height="1" fill="#b1b0f2" /><rect x="6" y="1" width="1" height="1" fill="#b2aff2" /><rect x="6" y="2" width="1" height="1" fill="#b5b0f3" /><rect x="6" y="3" width="1" height="1" fill="#b6aff3" /><rect x="6" y="4" width="1" height="1" fill="#b8aff2" /><rect x="6" y="5" width="1" height="1" fill="#b9aef0" /><rect x="6" y="6" width="1" height="1" fill="#bab0ef" /><rect x="6" y="7" width="1" height="1" fill="#bbb0ec" /><rect x="6" y="8" width="1" height="1" fill="#beb1e9" /><rect x="6" y="9" width="1" height="1" fill="#bfade9" /><rect x="7" y="0" width="1" height="1" fill="#b2b0f1" /><rect x="7" y="1" width="1" height="1" fill="#b4aff1" /><rect x="7" y="2" width="1" height="1" fill="#b6b0f0" /><rect x="7" y="3" width="1" height="1" fill="#b8afee" /><rect x="7" y="4" width="1" height="1" fill="#b9afee" /><rect x="7" y="5" width="1" height="1" fill="#b9afee" /><rect x="7" y="6" width="1" height="1" fill="#bbafed" /><rect x="7" y="7" width="1" height="1" fill="#bbb0ec" /><rect x="7" y="8" width="1" height="1" fill="#bdb0e8" /><rect x="7" y="9" width="1" height="1" fill="#bfade7" /><rect x="8" y="0" width="1" height="1" fill="#b3b1f2" /><rect x="8" y="1" width="1" height="1" fill="#b5b0f2" /><rect x="8" y="2" width="1" height="1" fill="#b6b0f0" /><rect x="8" y="3" width="1" height="1" fill="#b8afee" /><rect x="8" y="4" width="1" height="1" fill="#b9afee" /><rect x="8" y="5" width="1" height="1" fill="#bbafed" /><rect x="8" y="6" width="1" height="1" fill="#bbafed" /><rect x="8" y="7" width="1" height="1" fill="#bdafec" /><rect x="8" y="8" width="1" height="1" fill="#beafe6" /><rect x="8" y="9" width="1" height="1" fill="#c0aee8" /><rect x="9" y="0" width="1" height="1" fill="#b5b0f2" /><rect x="9" y="1" width="1" height="1" fill="#b6b0f0" /><rect x="9" y="2" width="1" height="1" fill="#b8afee" /><rect x="9" y="3" width="1" height="1" fill="#b9afec" /><rect x="9" y="4" width="1" height="1" fill="#bbafed" /><rect x="9" y="5" width="1" height="1" fill="#bbafed" /><rect x="9" y="6" width="1" height="1" fill="#bbafed" /><rect x="9" y="7" width="1" height="1" fill="#bdafec" /><rect x="9" y="8" width="1" height="1" fill="#bdaee5" /><rect x="9" y="9" width="1" height="1" fill="#c0afe6" /></g></svg>