<svg width="800" height="1000" xmlns="http://www.w3.org/2000/svg"><defs><linearGradient id="g" x1="0" x2="1" y1="0" y2="1"><stop offset="0%" stop-color="#2d3c96"/><stop offset="100%" stop-color="#d53392"/></linearGradient></defs><rect x="10" y="10" width="780" height="980" fill="url(#g)" rx="50" ry="50" stroke="gold" stroke-width="20"/><text x="400" y="920" width="780" text-anchor="middle" style="font:bold 200px 'Helvetica Neue';fill:gold">04933</text><g transform="translate(80 80) scale(64)"><rect x="0" y="0" width="1" height="1" fill="#ffbab5" /><rect x="0" y="1" width="1" height="1" fill="#ffb7b1" /><rect x="0" y="2" width="1" height="1" fill="#ffbfb9" /><rect x="0" y="3" width="1" height="1" fill="#ffcdc5" /><rect x="0" y="4" width="1" height="1" fill="#f2b7af" /><rect x="0" y="5" width="1" height="1" fill="#f4beb4" /><rect x="0" y="6" width="1" height="1" fill="#fdcdc1" /><rect x="0" y="7" width="1" height="1" fill="#af8f84" /><rect x="0" y="8" width="1" height="1" fill="#040000" /><rect x="0" y="9" width="1" height="1" fill="#4e6141" /><rect x="1" y="0" width="1" height="1" fill="#fdb4ad" /><rect x="1" y="1" width="1" height="1" fill="#ffc6be" /><rect x="1" y="2" width="1" height="1" fill="#f5b2aa" /><rect x="1" y="3" width="1" height="1" fill="#f8b9b0" /><rect x="1" y="4" width="1" height="1" fill="#f9c3b9" /><rect x="1" y="5" width="1" height="1" fill="#f1c1b7" /><rect x="1" y="6" width="1" height="1" fill="#f1c5ba" /><rect x="1" y="7" width="1" height="1" fill="#c4a89d" /><rect x="1" y="8" width="1" height="1" fill="#0a0700" /><rect x="1" y="9" width="1" height="1" fill="#485c40" /><rect x="2" y="0" width="1" height="1" fill="#ffbeb5" /><rect x="2" y="1" width="1" height="1" fill="#ffc1b8" /><rect x="2" y="2" width="1" height="1" fill="#fbbcb3" /><rect x="2" y="3" width="1" height="1" fill="#fcc3ba" /><rect x="2" y="4" width="1" height="1" fill="#f0c0b6" /><rect x="2" y="5" width="1" height="1" fill="#f6cbc2" /><rect x="2" y="6" width="1" height="1" fill="#f9d5c9" /><rect x="2" y="7" width="1" height="1" fill="#b8a199" /><rect x="2" y="8" width="1" height="1" fill="#020100" /><rect x="2" y="9" width="1" height="1" fill="#3a5039" /><rect x="3" y="0" width="1" height="1" fill="#ffc0b6" /><rect x="3" y="1" width="1" height="1" fill="#f7b9ae" /><rect x="3" y="2" width="1" height="1" fill="#f8bfb4" /><rect x="3" y="3" width="1" height="1" fill="#fccabf" /><rect x="3" y="4" width="1" height="1" fill="#f4c8bd" /><rect x="3" y="5" width="1" height="1" fill="#eec9c0" /><rect x="3" y="6" width="1" height="1" fill="#c5a79c" /><rect x="3" y="7" width="1" height="1" fill="#6c5952" /><rect x="3" y="8" width="1" height="1" fill="#000000" /><rect x="3" y="9" width="1" height="1" fill="#203723" /><rect x="4" y="0" width="1" height="1" fill="#f4b8ad" /><rect x="4" y="1" width="1" height="1" fill="#ffcbbf" /><rect x="4" y="2" width="1" height="1" fill="#f6c2b5" /><rect x="4" y="3" width="1" height="1" fill="#f0c1b7" /><rect x="4" y="4" width="1" height="1" fill="#f5cfc4" /><rect x="4" y="5" width="1" height="1" fill="#9d7d72" /><rect x="4" y="6" width="1" height="1" fill="#210900" /><rect x="4" y="7" width="1" height="1" fill="#0a0000" /><rect x="4" y="8" width="1" height="1" fill="#090a0c" /><rect x="4" y="9" width="1" height="1" fill="#041d0a" /><rect x="5" y="0" width="1" height="1" fill="#fbc6b8" /><rect x="5" y="1" width="1" height="1" fill="#e8b7a9" /><rect x="5" y="2" width="1" height="1" fill="#fed2c7" /><rect x="5" y="3" width="1" height="1" fill="#e3beb5" /><rect x="5" y="4" width="1" height="1" fill="#7f605b" /><rect x="5" y="5" width="1" height="1" fill="#170000" /><rect x="5" y="6" width="1" height="1" fill="#0f0000" /><rect x="5" y="7" width="1" height="1" fill="#584c4c" /><rect x="5" y="8" width="1" height="1" fill="#27282d" /><rect x="5" y="9" width="1" height="1" fill="#000c00" /><rect x="6" y="0" width="1" height="1" fill="#f1c3b4" /><rect x="6" y="1" width="1" height="1" fill="#f4cec1" /><rect x="6" y="2" width="1" height="1" fill="#c7aaa2" /><rect x="6" y="3" width="1" height="1" fill="#614947" /><rect x="6" y="4" width="1" height="1" fill="#0e0000" /><rect x="6" y="5" width="1" height="1" fill="#110008" /><rect x="6" y="6" width="1" height="1" fill="#927d8e" /><rect x="6" y="7" width="1" height="1" fill="#b6a8b9" /><rect x="6" y="8" width="1" height="1" fill="#595661" /><rect x="6" y="9" width="1" height="1" fill="#000600" /><rect x="7" y="0" width="1" height="1" fill="#f7cfc3" /><rect x="7" y="1" width="1" height="1" fill="#c1a39b" /><rect x="7" y="2" width="1" height="1" fill="#351d1b" /><rect x="7" y="3" width="1" height="1" fill="#140107" /><rect x="7" y="4" width="1" height="1" fill="#362434" /><rect x="7" y="5" width="1" height="1" fill="#a18da6" /><rect x="7" y="6" width="1" height="1" fill="#c7afcf" /><rect x="7" y="7" width="1" height="1" fill="#c6b3cf" /><rect x="7" y="8" width="1" height="1" fill="#666273" /><rect x="7" y="9" width="1" height="1" fill="#000305" /><rect x="8" y="0" width="1" height="1" fill="#bd9796" /><rect x="8" y="1" width="1" height="1" fill="#180000" /><rect x="8" y="2" width="1" height="1" fill="#190009" /><rect x="8" y="3" width="1" height="1" fill="#4f3447" /><rect x="8" y="4" width="1" height="1" fill="#c0a6c3" /><rect x="8" y="5" width="1" height="1" fill="#ccb2d5" /><rect x="8" y="6" width="1" height="1" fill="#c2a7d0" /><rect x="8" y="7" width="1" height="1" fill="#ceb9e0" /><rect x="8" y="8" width="1" height="1" fill="#87839e" /><rect x="8" y="9" width="1" height="1" fill="#050819" /><rect x="9" y="0" width="1" height="1" fill="#1d0000" /><rect x="9" y="1" width="1" height="1" fill="#1b0002" /><rect x="9" y="2" width="1" height="1" fill="#623c51" /><rect x="9" y="3" width="1" height="1" fill="#d1adc9" /><rect x="9" y="4" width="1" height="1" fill="#c8a4c8" /><rect x="9" y="5" width="1" height="1" fill="#dab5e0" /><rect x="9" y="6" width="1" height="1" fill="#d6b2e0" /><rect x="9" y="7" width="1" height="1" fill="#d5b8e4" /><rect x="9" y="8" width="1" height="1" fill="#9789aa" /><rect x="9" y="9" width="1" height="1" fill="#080015" /></g></svg>