<svg width="800" height="1000" xmlns="http://www.w3.org/2000/svg"><defs><linearGradient id="g" x1="0" x2="1" y1="0" y2="1"><stop offset="0%" stop-color="#2d3c96"/><stop offset="100%" stop-color="#d53392"/></linearGradient></defs><rect x="10" y="10" width="780" height="980" fill="url(#g)" rx="50" ry="50" stroke="gold" stroke-width="20"/><text x="400" y="920" width="780" text-anchor="middle" style="font:bold 200px 'Helvetica Neue';fill:gold">04934</text><g transform="translate(80 80) scale(64)"><rect x="0" y="0" width="1" height="1" fill="#1f0000" /><rect x="0" y="1" width="1" height="1" fill="#73465a" /><rect x="0" y="2" width="1" height="1" fill="#e1afca" /><rect x="0" y="3" width="1" height="1" fill="#e1aecf" /><rect x="0" y="4" width="1" height="1" fill="#e2aed5" /><rect x="0" y="5" width="1" height="1" fill="#dba8d3" /><rect x="0" y="6" width="1" height="1" fill="#d1a0cf" /><rect x="0" y="7" width="1" height="1" fill="#e5b8e3" /><rect x="0" y="8" width="1" height="1" fill="#c4a2c3" /><rect x="0" y="9" width="1" height="1" fill="#160012" /><rect x="1" y="0" width="1" height="1" fill="#6a3c47" /><rect x="1" y="1" width="1" height="1" fill="#d69fb2" /><rect x="1" y="2" width="1" height="1" fill="#edaec9" /><rect x="1" y="3" width="1" height="1" fill="#eba8c9" /><rect x="1" y="4" width="1" height="1" fill="#f7b3d8" /><rect x="1" y="5" width="1" height="1" fill="#eeabd4" /><rect x="1" y="6" width="1" height="1" fill="#f6b5df" /><rect x="1" y="7" width="1" height="1" fill="#e6aace" /><rect x="1" y="8" width="1" height="1" fill="#edb7d1" /><rect x="1" y="9" width="1" height="1" fill="#bf89a1" /><rect x="2" y="0" width="1" height="1" fill="#d39ea6" /><rect x="2" y="1" width="1" height="1" fill="#eeaebe" /><rect x="2" y="2" width="1" height="1" fill="#f8adc2" /><rect x="2" y="3" width="1" height="1" fill="#f7a7c0" /><rect x="2" y="4" width="1" height="1" fill="#f29fbb" /><rect x="2" y="5" width="1" height="1" fill="#fdadca" /><rect x="2" y="6" width="1" height="1" fill="#f6aac6" /><rect x="2" y="7" width="1" height="1" fill="#f4a9c0" /><rect x="2" y="8" width="1" height="1" fill="#f3a7b3" /><rect x="2" y="9" width="1" height="1" fill="#ffbbc6" /><rect x="3" y="0" width="1" height="1" fill="#edb6b9" /><rect x="3" y="1" width="1" height="1" fill="#f3b0b9" /><rect x="3" y="2" width="1" height="1" fill="#faacba" /><rect x="3" y="3" width="1" height="1" fill="#ffacbd" /><rect x="3" y="4" width="1" height="1" fill="#ffafc0" /><rect x="3" y="5" width="1" height="1" fill="#faa6b6" /><rect x="3" y="6" width="1" height="1" fill="#fdacbb" /><rect x="3" y="7" width="1" height="1" fill="#ffb0b9" /><rect x="3" y="8" width="1" height="1" fill="#ffadad" /><rect x="3" y="9" width="1" height="1" fill="#feaeaf" /><rect x="4" y="0" width="1" height="1" fill="#f1bfbe" /><rect x="4" y="1" width="1" height="1" fill="#f1b3b8" /><rect x="4" y="2" width="1" height="1" fill="#feb3ba" /><rect x="4" y="3" width="1" height="1" fill="#ffb2b9" /><rect x="4" y="4" width="1" height="1" fill="#fba9af" /><rect x="4" y="5" width="1" height="1" fill="#ffafb3" /><rect x="4" y="6" width="1" height="1" fill="#ffb7ba" /><rect x="4" y="7" width="1" height="1" fill="#fdb2af" /><rect x="4" y="8" width="1" height="1" fill="#ffb8b1" /><rect x="4" y="9" width="1" height="1" fill="#fcaeaa" /><rect x="5" y="0" width="1" height="1" fill="#eec5c1" /><rect x="5" y="1" width="1" height="1" fill="#f4c1c0" /><rect x="5" y="2" width="1" height="1" fill="#fcbcbd" /><rect x="5" y="3" width="1" height="1" fill="#ffbaba" /><rect x="5" y="4" width="1" height="1" fill="#ffbbb9" /><rect x="5" y="5" width="1" height="1" fill="#ffbcb8" /><rect x="5" y="6" width="1" height="1" fill="#febbb3" /><rect x="5" y="7" width="1" height="1" fill="#f9b6ad" /><rect x="5" y="8" width="1" height="1" fill="#f7b3a8" /><rect x="5" y="9" width="1" height="1" fill="#f9b6b0" /><rect x="6" y="0" width="1" height="1" fill="#efd2cc" /><rect x="6" y="1" width="1" height="1" fill="#f1ccc6" /><rect x="6" y="2" width="1" height="1" fill="#edc0bb" /><rect x="6" y="3" width="1" height="1" fill="#f3c0bc" /><rect x="6" y="4" width="1" height="1" fill="#fec7c2" /><rect x="6" y="5" width="1" height="1" fill="#f8c2b8" /><rect x="6" y="6" width="1" height="1" fill="#f1c0b2" /><rect x="6" y="7" width="1" height="1" fill="#fac9bb" /><rect x="6" y="8" width="1" height="1" fill="#ffcec8" /><rect x="6" y="9" width="1" height="1" fill="#ffd0cf" /><rect x="7" y="0" width="1" height="1" fill="#b8a297" /><rect x="7" y="1" width="1" height="1" fill="#d6baaf" /><rect x="7" y="2" width="1" height="1" fill="#eecdc4" /><rect x="7" y="3" width="1" height="1" fill="#f6d1c8" /><rect x="7" y="4" width="1" height="1" fill="#f8d0c4" /><rect x="7" y="5" width="1" height="1" fill="#f5cebf" /><rect x="7" y="6" width="1" height="1" fill="#efcab8" /><rect x="7" y="7" width="1" height="1" fill="#eec7b8" /><rect x="7" y="8" width="1" height="1" fill="#dfb7af" /><rect x="7" y="9" width="1" height="1" fill="#c8a19c" /><rect x="8" y="0" width="1" height="1" fill="#160100" /><rect x="8" y="1" width="1" height="1" fill="#4a3524" /><rect x="8" y="2" width="1" height="1" fill="#7e6757" /><rect x="8" y="3" width="1" height="1" fill="#856b5a" /><rect x="8" y="4" width="1" height="1" fill="#7a5f4e" /><rect x="8" y="5" width="1" height="1" fill="#836654" /><rect x="8" y="6" width="1" height="1" fill="#80614f" /><rect x="8" y="7" width="1" height="1" fill="#654634" /><rect x="8" y="8" width="1" height="1" fill="#442417" /><rect x="8" y="9" width="1" height="1" fill="#200400" /><rect x="9" y="0" width="1" height="1" fill="#513921" /><rect x="9" y="1" width="1" height="1" fill="#150100" /><rect x="9" y="2" width="1" height="1" fill="#110000" /><rect x="9" y="3" width="1" height="1" fill="#150100" /><rect x="9" y="4" width="1" height="1" fill="#190300" /><rect x="9" y="5" width="1" height="1" fill="#140000" /><rect x="9" y="6" width="1" height="1" fill="#160000" /><rect x="9" y="7" width="1" height="1" fill="#180000" /><rect x="9" y="8" width="1" height="1" fill="#1a0200" /><rect x="9" y="9" width="1" height="1" fill="#4f3c1e" /></g></svg>