<svg width="800" height="1000" xmlns="http://www.w3.org/2000/svg"><defs><linearGradient id="g" x1="0" x2="1" y1="0" y2="1"><stop offset="0%" stop-color="#2d3c96"/><stop offset="100%" stop-color="#d53392"/></linearGradient></defs><rect x="10" y="10" width="780" height="980" fill="url(#g)" rx="50" ry="50" stroke="gold" stroke-width="20"/><text x="400" y="920" width="780" text-anchor="middle" style="font:bold 200px 'Helvetica Neue';fill:gold">04938</text><g transform="translate(80 80) scale(64)"><rect x="0" y="0" width="1" height="1" fill="#efea8e" /><rect x="0" y="1" width="1" height="1" fill="#eeea91" /><rect x="0" y="2" width="1" height="1" fill="#ebe996" /><rect x="0" y="3" width="1" height="1" fill="#eae997" /><rect x="0" y="4" width="1" height="1" fill="#e6ea96" /><rect x="0" y="5" width="1" height="1" fill="#e4e995" /><rect x="0" y="6" width="1" height="1" fill="#e3e993" /><rect x="0" y="7" width="1" height="1" fill="#e0ea93" /><rect x="0" y="8" width="1" height="1" fill="#dcea92" /><rect x="0" y="9" width="1" height="1" fill="#dbeb93" /><rect x="1" y="0" width="1" height="1" fill="#eeea8f" /><rect x="1" y="1" width="1" height="1" fill="#ebea90" /><rect x="1" y="2" width="1" height="1" fill="#eae996" /><rect x="1" y="3" width="1" height="1" fill="#e7e996" /><rect x="1" y="4" width="1" height="1" fill="#e5e995" /><rect x="1" y="5" width="1" height="1" fill="#e3e993" /><rect x="1" y="6" width="1" height="1" fill="#e1ea91" /><rect x="1" y="7" width="1" height="1" fill="#dfe990" /><rect x="1" y="8" width="1" height="1" fill="#dceb90" /><rect x="1" y="9" width="1" height="1" fill="#d8eb91" /><rect x="2" y="0" width="1" height="1" fill="#ebea90" /><rect x="2" y="1" width="1" height="1" fill="#ebe992" /><rect x="2" y="2" width="1" height="1" fill="#e9e895" /><rect x="2" y="3" width="1" height="1" fill="#e6e895" /><rect x="2" y="4" width="1" height="1" fill="#e4e893" /><rect x="2" y="5" width="1" height="1" fill="#e3e993" /><rect x="2" y="6" width="1" height="1" fill="#e0e990" /><rect x="2" y="7" width="1" height="1" fill="#ddea8e" /><rect x="2" y="8" width="1" height="1" fill="#daeb8b" /><rect x="2" y="9" width="1" height="1" fill="#d8ec8d" /><rect x="3" y="0" width="1" height="1" fill="#eae997" /><rect x="3" y="1" width="1" height="1" fill="#e7e995" /><rect x="3" y="2" width="1" height="1" fill="#e6ea95" /><rect x="3" y="3" width="1" height="1" fill="#e4ea92" /><rect x="3" y="4" width="1" height="1" fill="#e1ea8f" /><rect x="3" y="5" width="1" height="1" fill="#dfea8e" /><rect x="3" y="6" width="1" height="1" fill="#ddea8e" /><rect x="3" y="7" width="1" height="1" fill="#dbea8d" /><rect x="3" y="8" width="1" height="1" fill="#d8ec8d" /><rect x="3" y="9" width="1" height="1" fill="#d4ec8c" /><rect x="4" y="0" width="1" height="1" fill="#e9ebaa" /><rect x="4" y="1" width="1" height="1" fill="#e3e79b" /><rect x="4" y="2" width="1" height="1" fill="#e1eb92" /><rect x="4" y="3" width="1" height="1" fill="#e0ee8d" /><rect x="4" y="4" width="1" height="1" fill="#dbeb88" /><rect x="4" y="5" width="1" height="1" fill="#dcee8a" /><rect x="4" y="6" width="1" height="1" fill="#dcf091" /><rect x="4" y="7" width="1" height="1" fill="#d6eb90" /><rect x="4" y="8" width="1" height="1" fill="#d3ec90" /><rect x="4" y="9" width="1" height="1" fill="#d2ec91" /><rect x="5" y="0" width="1" height="1" fill="#e0e3ae" /><rect x="5" y="1" width="1" height="1" fill="#dde4a0" /><rect x="5" y="2" width="1" height="1" fill="#e0ee97" /><rect x="5" y="3" width="1" height="1" fill="#e1f390" /><rect x="5" y="4" width="1" height="1" fill="#d8ed86" /><rect x="5" y="5" width="1" height="1" fill="#d5eb86" /><rect x="5" y="6" width="1" height="1" fill="#d6ee90" /><rect x="5" y="7" width="1" height="1" fill="#d4ed92" /><rect x="5" y="8" width="1" height="1" fill="#d0ed93" /><rect x="5" y="9" width="1" height="1" fill="#cfed93" /><rect x="6" y="0" width="1" height="1" fill="#e7e8bc" /><rect x="6" y="1" width="1" height="1" fill="#dfe5a9" /><rect x="6" y="2" width="1" height="1" fill="#dce999" /><rect x="6" y="3" width="1" height="1" fill="#ddee92" /><rect x="6" y="4" width="1" height="1" fill="#d8ec8b" /><rect x="6" y="5" width="1" height="1" fill="#d4e98a" /><rect x="6" y="6" width="1" height="1" fill="#d5ec92" /><rect x="6" y="7" width="1" height="1" fill="#d5ed97" /><rect x="6" y="8" width="1" height="1" fill="#cfec92" /><rect x="6" y="9" width="1" height="1" fill="#ceec92" /><rect x="7" y="0" width="1" height="1" fill="#fafcd7" /><rect x="7" y="1" width="1" height="1" fill="#e7eeba" /><rect x="7" y="2" width="1" height="1" fill="#d7e49e" /><rect x="7" y="3" width="1" height="1" fill="#d4e692" /><rect x="7" y="4" width="1" height="1" fill="#d6ea91" /><rect x="7" y="5" width="1" height="1" fill="#d6ed93" /><rect x="7" y="6" width="1" height="1" fill="#d4ec98" /><rect x="7" y="7" width="1" height="1" fill="#d2eb97" /><rect x="7" y="8" width="1" height="1" fill="#cdeb93" /><rect x="7" y="9" width="1" height="1" fill="#cbec93" /><rect x="8" y="0" width="1" height="1" fill="#ffffe8" /><rect x="8" y="1" width="1" height="1" fill="#f5fad1" /><rect x="8" y="2" width="1" height="1" fill="#e1edaf" /><rect x="8" y="3" width="1" height="1" fill="#d7e79c" /><rect x="8" y="4" width="1" height="1" fill="#d7ea98" /><rect x="8" y="5" width="1" height="1" fill="#d5eb98" /><rect x="8" y="6" width="1" height="1" fill="#d2e999" /><rect x="8" y="7" width="1" height="1" fill="#d0e998" /><rect x="8" y="8" width="1" height="1" fill="#cdeb95" /><rect x="8" y="9" width="1" height="1" fill="#caeb94" /><rect x="9" y="0" width="1" height="1" fill="#ffffec" /><rect x="9" y="1" width="1" height="1" fill="#feffde" /><rect x="9" y="2" width="1" height="1" fill="#f1fcc2" /><rect x="9" y="3" width="1" height="1" fill="#dff0a9" /><rect x="9" y="4" width="1" height="1" fill="#d6eb9c" /><rect x="9" y="5" width="1" height="1" fill="#d1e896" /><rect x="9" y="6" width="1" height="1" fill="#cee698" /><rect x="9" y="7" width="1" height="1" fill="#cde899" /><rect x="9" y="8" width="1" height="1" fill="#cce995" /><rect x="9" y="9" width="1" height="1" fill="#caeb94" /></g></svg>