<svg width="800" height="1000" xmlns="http://www.w3.org/2000/svg"><defs><linearGradient id="g" x1="0" x2="1" y1="0" y2="1"><stop offset="0%" stop-color="#2d3c96"/><stop offset="100%" stop-color="#d53392"/></linearGradient></defs><rect x="10" y="10" width="780" height="980" fill="url(#g)" rx="50" ry="50" stroke="gold" stroke-width="20"/><text x="400" y="920" width="780" text-anchor="middle" style="font:bold 200px 'Helvetica Neue';fill:gold">04930</text><g transform="translate(80 80) scale(64)"><rect x="0" y="0" width="1" height="1" fill="#160009" /><rect x="0" y="1" width="1" height="1" fill="#7c5b70" /><rect x="0" y="2" width="1" height="1" fill="#d2afc5" /><rect x="0" y="3" width="1" height="1" fill="#dcb4cc" /><rect x="0" y="4" width="1" height="1" fill="#e0aecb" /><rect x="0" y="5" width="1" height="1" fill="#ebaecf" /><rect x="0" y="6" width="1" height="1" fill="#efa7cd" /><rect x="0" y="7" width="1" height="1" fill="#f8add4" /><rect x="0" y="8" width="1" height="1" fill="#efa9ce" /><rect x="0" y="9" width="1" height="1" fill="#eda9ce" /><rect x="1" y="0" width="1" height="1" fill="#180005" /><rect x="1" y="1" width="1" height="1" fill="#210011" /><rect x="1" y="2" width="1" height="1" fill="#937182" /><rect x="1" y="3" width="1" height="1" fill="#e2bbce" /><rect x="1" y="4" width="1" height="1" fill="#e5b3cc" /><rect x="1" y="5" width="1" height="1" fill="#efb0cf" /><rect x="1" y="6" width="1" height="1" fill="#f4aacf" /><rect x="1" y="7" width="1" height="1" fill="#ec9fc3" /><rect x="1" y="8" width="1" height="1" fill="#f3aac8" /><rect x="1" y="9" width="1" height="1" fill="#f3aac7" /><rect x="2" y="0" width="1" height="1" fill="#a27c8b" /><rect x="2" y="1" width="1" height="1" fill="#160002" /><rect x="2" y="2" width="1" height="1" fill="#170003" /><rect x="2" y="3" width="1" height="1" fill="#ad8494" /><rect x="2" y="4" width="1" height="1" fill="#f3bfd5" /><rect x="2" y="5" width="1" height="1" fill="#e9aac5" /><rect x="2" y="6" width="1" height="1" fill="#eda3c4" /><rect x="2" y="7" width="1" height="1" fill="#ffb9d7" /><rect x="2" y="8" width="1" height="1" fill="#f6abc0" /><rect x="2" y="9" width="1" height="1" fill="#f5acbf" /><rect x="3" y="0" width="1" height="1" fill="#e0b4c5" /><rect x="3" y="1" width="1" height="1" fill="#8f6676" /><rect x="3" y="2" width="1" height="1" fill="#190000" /><rect x="3" y="3" width="1" height="1" fill="#23000a" /><rect x="3" y="4" width="1" height="1" fill="#ab7c8e" /><rect x="3" y="5" width="1" height="1" fill="#f2bbd2" /><rect x="3" y="6" width="1" height="1" fill="#eeb0c9" /><rect x="3" y="7" width="1" height="1" fill="#eba5bd" /><rect x="3" y="8" width="1" height="1" fill="#f5acbf" /><rect x="3" y="9" width="1" height="1" fill="#f8abbb" /><rect x="4" y="0" width="1" height="1" fill="#f5bbd4" /><rect x="4" y="1" width="1" height="1" fill="#daa4bb" /><rect x="4" y="2" width="1" height="1" fill="#875669" /><rect x="4" y="3" width="1" height="1" fill="#220005" /><rect x="4" y="4" width="1" height="1" fill="#200005" /><rect x="4" y="5" width="1" height="1" fill="#a47a88" /><rect x="4" y="6" width="1" height="1" fill="#e3b9c7" /><rect x="4" y="7" width="1" height="1" fill="#e8b5c4" /><rect x="4" y="8" width="1" height="1" fill="#f8b3c6" /><rect x="4" y="9" width="1" height="1" fill="#f5a6bb" /><rect x="5" y="0" width="1" height="1" fill="#e19fbb" /><rect x="5" y="1" width="1" height="1" fill="#f8bad3" /><rect x="5" y="2" width="1" height="1" fill="#e1aabf" /><rect x="5" y="3" width="1" height="1" fill="#7f4c5f" /><rect x="5" y="4" width="1" height="1" fill="#240007" /><rect x="5" y="5" width="1" height="1" fill="#1d0004" /><rect x="5" y="6" width="1" height="1" fill="#a2818a" /><rect x="5" y="7" width="1" height="1" fill="#e2b8c4" /><rect x="5" y="8" width="1" height="1" fill="#f0b1c4" /><rect x="5" y="9" width="1" height="1" fill="#f7acc1" /><rect x="6" y="0" width="1" height="1" fill="#f6afcd" /><rect x="6" y="1" width="1" height="1" fill="#ecaac5" /><rect x="6" y="2" width="1" height="1" fill="#efb4ca" /><rect x="6" y="3" width="1" height="1" fill="#e7b0c5" /><rect x="6" y="4" width="1" height="1" fill="#8f5f6f" /><rect x="6" y="5" width="1" height="1" fill="#1d0000" /><rect x="6" y="6" width="1" height="1" fill="#1b0000" /><rect x="6" y="7" width="1" height="1" fill="#8b5d6a" /><rect x="6" y="8" width="1" height="1" fill="#e2a7b9" /><rect x="6" y="9" width="1" height="1" fill="#fdbcd0" /><rect x="7" y="0" width="1" height="1" fill="#f8afcc" /><rect x="7" y="1" width="1" height="1" fill="#f1abc5" /><rect x="7" y="2" width="1" height="1" fill="#e7a6be" /><rect x="7" y="3" width="1" height="1" fill="#f5b7cc" /><rect x="7" y="4" width="1" height="1" fill="#eab4c4" /><rect x="7" y="5" width="1" height="1" fill="#aa7786" /><rect x="7" y="6" width="1" height="1" fill="#290007" /><rect x="7" y="7" width="1" height="1" fill="#200000" /><rect x="7" y="8" width="1" height="1" fill="#6f3c4d" /><rect x="7" y="9" width="1" height="1" fill="#cb95a5" /><rect x="8" y="0" width="1" height="1" fill="#eca0be" /><rect x="8" y="1" width="1" height="1" fill="#fcb2cd" /><rect x="8" y="2" width="1" height="1" fill="#f9b1c9" /><rect x="8" y="3" width="1" height="1" fill="#e8a4b9" /><rect x="8" y="4" width="1" height="1" fill="#f7b8cb" /><rect x="8" y="5" width="1" height="1" fill="#eab0bf" /><rect x="8" y="6" width="1" height="1" fill="#c38a99" /><rect x="8" y="7" width="1" height="1" fill="#4d1a29" /><rect x="8" y="8" width="1" height="1" fill="#1d0002" /><rect x="8" y="9" width="1" height="1" fill="#28000b" /><rect x="9" y="0" width="1" height="1" fill="#faaac7" /><rect x="9" y="1" width="1" height="1" fill="#f4a4bf" /><rect x="9" y="2" width="1" height="1" fill="#f8aac2" /><rect x="9" y="3" width="1" height="1" fill="#f9b0c4" /><rect x="9" y="4" width="1" height="1" fill="#f7afc3" /><rect x="9" y="5" width="1" height="1" fill="#f1aebf" /><rect x="9" y="6" width="1" height="1" fill="#f1b1c1" /><rect x="9" y="7" width="1" height="1" fill="#d6a0ae" /><rect x="9" y="8" width="1" height="1" fill="#784f5d" /><rect x="9" y="9" width="1" height="1" fill="#180000" /></g></svg>