<svg width="800" height="1000" xmlns="http://www.w3.org/2000/svg"><defs><linearGradient id="g" x1="0" x2="1" y1="0" y2="1"><stop offset="0%" stop-color="#2d3c96"/><stop offset="100%" stop-color="#d53392"/></linearGradient></defs><rect x="10" y="10" width="780" height="980" fill="url(#g)" rx="50" ry="50" stroke="gold" stroke-width="20"/><text x="400" y="920" width="780" text-anchor="middle" style="font:bold 200px 'Helvetica Neue';fill:gold">04936</text><g transform="translate(80 80) scale(64)"><rect x="0" y="0" width="1" height="1" fill="#ffdb9f" /><rect x="0" y="1" width="1" height="1" fill="#fedc9d" /><rect x="0" y="2" width="1" height="1" fill="#ffdd9d" /><rect x="0" y="3" width="1" height="1" fill="#fdde9b" /><rect x="0" y="4" width="1" height="1" fill="#fedf9c" /><rect x="0" y="5" width="1" height="1" fill="#fde09a" /><rect x="0" y="6" width="1" height="1" fill="#fee19b" /><rect x="0" y="7" width="1" height="1" fill="#fde399" /><rect x="0" y="8" width="1" height="1" fill="#fde698" /><rect x="0" y="9" width="1" height="1" fill="#fde895" /><rect x="1" y="0" width="1" height="1" fill="#fedc9d" /><rect x="1" y="1" width="1" height="1" fill="#fdde9d" /><rect x="1" y="2" width="1" height="1" fill="#fdde9b" /><rect x="1" y="3" width="1" height="1" fill="#fde09a" /><rect x="1" y="4" width="1" height="1" fill="#fde09a" /><rect x="1" y="5" width="1" height="1" fill="#fee299" /><rect x="1" y="6" width="1" height="1" fill="#fee299" /><rect x="1" y="7" width="1" height="1" fill="#fde398" /><rect x="1" y="8" width="1" height="1" fill="#fce796" /><rect x="1" y="9" width="1" height="1" fill="#f7e58f" /><rect x="2" y="0" width="1" height="1" fill="#ffdd9d" /><rect x="2" y="1" width="1" height="1" fill="#fdde9b" /><rect x="2" y="2" width="1" height="1" fill="#fddf99" /><rect x="2" y="3" width="1" height="1" fill="#fde198" /><rect x="2" y="4" width="1" height="1" fill="#fee299" /><rect x="2" y="5" width="1" height="1" fill="#fde398" /><rect x="2" y="6" width="1" height="1" fill="#fde398" /><rect x="2" y="7" width="1" height="1" fill="#fce597" /><rect x="2" y="8" width="1" height="1" fill="#fcea98" /><rect x="2" y="9" width="1" height="1" fill="#f6e691" /><rect x="3" y="0" width="1" height="1" fill="#fdde9b" /><rect x="3" y="1" width="1" height="1" fill="#fde09a" /><rect x="3" y="2" width="1" height="1" fill="#fde198" /><rect x="3" y="3" width="1" height="1" fill="#fee298" /><rect x="3" y="4" width="1" height="1" fill="#fde398" /><rect x="3" y="5" width="1" height="1" fill="#fee499" /><rect x="3" y="6" width="1" height="1" fill="#fee499" /><rect x="3" y="7" width="1" height="1" fill="#fce597" /><rect x="3" y="8" width="1" height="1" fill="#f9e793" /><rect x="3" y="9" width="1" height="1" fill="#fded98" /><rect x="4" y="0" width="1" height="1" fill="#fedf9c" /><rect x="4" y="1" width="1" height="1" fill="#fde09a" /><rect x="4" y="2" width="1" height="1" fill="#fee299" /><rect x="4" y="3" width="1" height="1" fill="#fde398" /><rect x="4" y="4" width="1" height="1" fill="#fee499" /><rect x="4" y="5" width="1" height="1" fill="#fee497" /><rect x="4" y="6" width="1" height="1" fill="#fde698" /><rect x="4" y="7" width="1" height="1" fill="#fde696" /><rect x="4" y="8" width="1" height="1" fill="#fae592" /><rect x="4" y="9" width="1" height="1" fill="#fff29e" /><rect x="5" y="0" width="1" height="1" fill="#fee19b" /><rect x="5" y="1" width="1" height="1" fill="#fee299" /><rect x="5" y="2" width="1" height="1" fill="#fde398" /><rect x="5" y="3" width="1" height="1" fill="#fee499" /><rect x="5" y="4" width="1" height="1" fill="#fee497" /><rect x="5" y="5" width="1" height="1" fill="#ffe598" /><rect x="5" y="6" width="1" height="1" fill="#fde696" /><rect x="5" y="7" width="1" height="1" fill="#fde794" /><rect x="5" y="8" width="1" height="1" fill="#ffee99" /><rect x="5" y="9" width="1" height="1" fill="#f8e48e" /><rect x="6" y="0" width="1" height="1" fill="#fee19b" /><rect x="6" y="1" width="1" height="1" fill="#fee299" /><rect x="6" y="2" width="1" height="1" fill="#fee499" /><rect x="6" y="3" width="1" height="1" fill="#fee499" /><rect x="6" y="4" width="1" height="1" fill="#fde698" /><rect x="6" y="5" width="1" height="1" fill="#fde696" /><rect x="6" y="6" width="1" height="1" fill="#fee797" /><rect x="6" y="7" width="1" height="1" fill="#fee895" /><rect x="6" y="8" width="1" height="1" fill="#ffe993" /><rect x="6" y="9" width="1" height="1" fill="#fde88f" /><rect x="7" y="0" width="1" height="1" fill="#fee298" /><rect x="7" y="1" width="1" height="1" fill="#fde396" /><rect x="7" y="2" width="1" height="1" fill="#fee497" /><rect x="7" y="3" width="1" height="1" fill="#fce595" /><rect x="7" y="4" width="1" height="1" fill="#fde696" /><rect x="7" y="5" width="1" height="1" fill="#fde696" /><rect x="7" y="6" width="1" height="1" fill="#fee799" /><rect x="7" y="7" width="1" height="1" fill="#fee797" /><rect x="7" y="8" width="1" height="1" fill="#ffea95" /><rect x="7" y="9" width="1" height="1" fill="#fae68f" /><rect x="8" y="0" width="1" height="1" fill="#fde490" /><rect x="8" y="1" width="1" height="1" fill="#fce691" /><rect x="8" y="2" width="1" height="1" fill="#fee893" /><rect x="8" y="3" width="1" height="1" fill="#feea94" /><rect x="8" y="4" width="1" height="1" fill="#fee996" /><rect x="8" y="5" width="1" height="1" fill="#fee99a" /><rect x="8" y="6" width="1" height="1" fill="#fde79b" /><rect x="8" y="7" width="1" height="1" fill="#fae79a" /><rect x="8" y="8" width="1" height="1" fill="#f9e994" /><rect x="8" y="9" width="1" height="1" fill="#f1e58f" /><rect x="9" y="0" width="1" height="1" fill="#fbe58f" /><rect x="9" y="1" width="1" height="1" fill="#fbe78e" /><rect x="9" y="2" width="1" height="1" fill="#fde990" /><rect x="9" y="3" width="1" height="1" fill="#feea93" /><rect x="9" y="4" width="1" height="1" fill="#fee996" /><rect x="9" y="5" width="1" height="1" fill="#fcea98" /><rect x="9" y="6" width="1" height="1" fill="#fbe89b" /><rect x="9" y="7" width="1" height="1" fill="#f9e89a" /><rect x="9" y="8" width="1" height="1" fill="#f8ec98" /><rect x="9" y="9" width="1" height="1" fill="#ede68e" /></g></svg>