<svg width="800" height="1000" xmlns="http://www.w3.org/2000/svg"><defs><linearGradient id="g" x1="0" x2="1" y1="0" y2="1"><stop offset="0%" stop-color="#2d3c96"/><stop offset="100%" stop-color="#d53392"/></linearGradient></defs><rect x="10" y="10" width="780" height="980" fill="url(#g)" rx="50" ry="50" stroke="gold" stroke-width="20"/><text x="400" y="920" width="780" text-anchor="middle" style="font:bold 200px 'Helvetica Neue';fill:gold">04935</text><g transform="translate(80 80) scale(64)"><rect x="0" y="0" width="1" height="1" fill="#ddbf9d" /><rect x="0" y="1" width="1" height="1" fill="#d1b997" /><rect x="0" y="2" width="1" height="1" fill="#c0ac8b" /><rect x="0" y="3" width="1" height="1" fill="#ad9a7a" /><rect x="0" y="4" width="1" height="1" fill="#a69174" /><rect x="0" y="5" width="1" height="1" fill="#b79d82" /><rect x="0" y="6" width="1" height="1" fill="#c8aa92" /><rect x="0" y="7" width="1" height="1" fill="#c5aa8c" /><rect x="0" y="8" width="1" height="1" fill="#cbbd8e" /><rect x="0" y="9" width="1" height="1" fill="#ded19c" /><rect x="1" y="0" width="1" height="1" fill="#fedbb3" /><rect x="1" y="1" width="1" height="1" fill="#f8dbb1" /><rect x="1" y="2" width="1" height="1" fill="#f2d9b0" /><rect x="1" y="3" width="1" height="1" fill="#f7e0b7" /><rect x="1" y="4" width="1" height="1" fill="#fee4bf" /><rect x="1" y="5" width="1" height="1" fill="#f8dcb7" /><rect x="1" y="6" width="1" height="1" fill="#f7d6b3" /><rect x="1" y="7" width="1" height="1" fill="#ffe2b8" /><rect x="1" y="8" width="1" height="1" fill="#f5e5aa" /><rect x="1" y="9" width="1" height="1" fill="#f4e5a4" /><rect x="2" y="0" width="1" height="1" fill="#fad1a3" /><rect x="2" y="1" width="1" height="1" fill="#f9d3a4" /><rect x="2" y="2" width="1" height="1" fill="#f8d4a2" /><rect x="2" y="3" width="1" height="1" fill="#f7d6a3" /><rect x="2" y="4" width="1" height="1" fill="#f8d7a4" /><rect x="2" y="5" width="1" height="1" fill="#fbd7a5" /><rect x="2" y="6" width="1" height="1" fill="#fbd7a5" /><rect x="2" y="7" width="1" height="1" fill="#fad9a3" /><rect x="2" y="8" width="1" height="1" fill="#f7da9e" /><rect x="2" y="9" width="1" height="1" fill="#f9e09d" /><rect x="3" y="0" width="1" height="1" fill="#fdd3a1" /><rect x="3" y="1" width="1" height="1" fill="#fdd4a0" /><rect x="3" y="2" width="1" height="1" fill="#fdd69f" /><rect x="3" y="3" width="1" height="1" fill="#fed7a0" /><rect x="3" y="4" width="1" height="1" fill="#fed79e" /><rect x="3" y="5" width="1" height="1" fill="#ffd89f" /><rect x="3" y="6" width="1" height="1" fill="#feda9e" /><rect x="3" y="7" width="1" height="1" fill="#feda9e" /><rect x="3" y="8" width="1" height="1" fill="#ffde9f" /><rect x="3" y="9" width="1" height="1" fill="#fedf9c" /><rect x="4" y="0" width="1" height="1" fill="#ffd5a3" /><rect x="4" y="1" width="1" height="1" fill="#ffd6a2" /><rect x="4" y="2" width="1" height="1" fill="#fed7a0" /><rect x="4" y="3" width="1" height="1" fill="#ffd8a1" /><rect x="4" y="4" width="1" height="1" fill="#fedaa0" /><rect x="4" y="5" width="1" height="1" fill="#ffdb9f" /><rect x="4" y="6" width="1" height="1" fill="#ffdb9f" /><rect x="4" y="7" width="1" height="1" fill="#ffdca0" /><rect x="4" y="8" width="1" height="1" fill="#fcda9b" /><rect x="4" y="9" width="1" height="1" fill="#ffe2a2" /><rect x="5" y="0" width="1" height="1" fill="#ffd6a2" /><rect x="5" y="1" width="1" height="1" fill="#ffd8a1" /><rect x="5" y="2" width="1" height="1" fill="#ffd8a1" /><rect x="5" y="3" width="1" height="1" fill="#fedaa0" /><rect x="5" y="4" width="1" height="1" fill="#ffdb9f" /><rect x="5" y="5" width="1" height="1" fill="#ffdca0" /><rect x="5" y="6" width="1" height="1" fill="#ffdca0" /><rect x="5" y="7" width="1" height="1" fill="#ffdc9e" /><rect x="5" y="8" width="1" height="1" fill="#fad899" /><rect x="5" y="9" width="1" height="1" fill="#ffe6a6" /><rect x="6" y="0" width="1" height="1" fill="#ffd6a2" /><rect x="6" y="1" width="1" height="1" fill="#fed7a0" /><rect x="6" y="2" width="1" height="1" fill="#ffd89f" /><rect x="6" y="3" width="1" height="1" fill="#feda9e" /><rect x="6" y="4" width="1" height="1" fill="#ffdb9f" /><rect x="6" y="5" width="1" height="1" fill="#fedc9d" /><rect x="6" y="6" width="1" height="1" fill="#ffdd9e" /><rect x="6" y="7" width="1" height="1" fill="#ffdd9d" /><rect x="6" y="8" width="1" height="1" fill="#ffdf9f" /><rect x="6" y="9" width="1" height="1" fill="#ffe4a1" /><rect x="7" y="0" width="1" height="1" fill="#fed7a0" /><rect x="7" y="1" width="1" height="1" fill="#fdd99f" /><rect x="7" y="2" width="1" height="1" fill="#fdd99d" /><rect x="7" y="3" width="1" height="1" fill="#fddb9c" /><rect x="7" y="4" width="1" height="1" fill="#fedc9d" /><rect x="7" y="5" width="1" height="1" fill="#fedc9c" /><rect x="7" y="6" width="1" height="1" fill="#ffdd9d" /><rect x="7" y="7" width="1" height="1" fill="#ffde9b" /><rect x="7" y="8" width="1" height="1" fill="#ffe4a1" /><rect x="7" y="9" width="1" height="1" fill="#fedd98" /><rect x="8" y="0" width="1" height="1" fill="#ffd89f" /><rect x="8" y="1" width="1" height="1" fill="#fdd99d" /><rect x="8" y="2" width="1" height="1" fill="#feda9e" /><rect x="8" y="3" width="1" height="1" fill="#fedc9d" /><rect x="8" y="4" width="1" height="1" fill="#ffdd9e" /><rect x="8" y="5" width="1" height="1" fill="#fdde9d" /><rect x="8" y="6" width="1" height="1" fill="#fedf9e" /><rect x="8" y="7" width="1" height="1" fill="#fedf9c" /><rect x="8" y="8" width="1" height="1" fill="#ffe29a" /><rect x="8" y="9" width="1" height="1" fill="#fcde95" /><rect x="9" y="0" width="1" height="1" fill="#feda9e" /><rect x="9" y="1" width="1" height="1" fill="#fddb9c" /><rect x="9" y="2" width="1" height="1" fill="#fedc9d" /><rect x="9" y="3" width="1" height="1" fill="#fdde9d" /><rect x="9" y="4" width="1" height="1" fill="#fdde9d" /><rect x="9" y="5" width="1" height="1" fill="#fedf9c" /><rect x="9" y="6" width="1" height="1" fill="#ffe09d" /><rect x="9" y="7" width="1" height="1" fill="#fee19b" /><rect x="9" y="8" width="1" height="1" fill="#fbe196" /><rect x="9" y="9" width="1" height="1" fill="#ffe797" /></g></svg>