<svg width="800" height="1000" xmlns="http://www.w3.org/2000/svg"><defs><linearGradient id="g" x1="0" x2="1" y1="0" y2="1"><stop offset="0%" stop-color="#2d3c96"/><stop offset="100%" stop-color="#d53392"/></linearGradient></defs><rect x="10" y="10" width="780" height="980" fill="url(#g)" rx="50" ry="50" stroke="gold" stroke-width="20"/><text x="400" y="920" width="780" text-anchor="middle" style="font:bold 200px 'Helvetica Neue';fill:gold">04932</text><g transform="translate(80 80) scale(64)"><rect x="0" y="0" width="1" height="1" fill="#ffafbf" /><rect x="0" y="1" width="1" height="1" fill="#ffb1c0" /><rect x="0" y="2" width="1" height="1" fill="#ffb1be" /><rect x="0" y="3" width="1" height="1" fill="#feb0bd" /><rect x="0" y="4" width="1" height="1" fill="#ffb8c1" /><rect x="0" y="5" width="1" height="1" fill="#f8b1b9" /><rect x="0" y="6" width="1" height="1" fill="#ffc0c4" /><rect x="0" y="7" width="1" height="1" fill="#dbabab" /><rect x="0" y="8" width="1" height="1" fill="#372823" /><rect x="0" y="9" width="1" height="1" fill="#060400" /><rect x="1" y="0" width="1" height="1" fill="#ffb0bf" /><rect x="1" y="1" width="1" height="1" fill="#ffb2bf" /><rect x="1" y="2" width="1" height="1" fill="#ffb1be" /><rect x="1" y="3" width="1" height="1" fill="#ffb2bc" /><rect x="1" y="4" width="1" height="1" fill="#ffb8c1" /><rect x="1" y="5" width="1" height="1" fill="#f8b3b8" /><rect x="1" y="6" width="1" height="1" fill="#ffbfc3" /><rect x="1" y="7" width="1" height="1" fill="#d6a8a8" /><rect x="1" y="8" width="1" height="1" fill="#190e08" /><rect x="1" y="9" width="1" height="1" fill="#1a1d02" /><rect x="2" y="0" width="1" height="1" fill="#ffb1bf" /><rect x="2" y="1" width="1" height="1" fill="#ffb2bf" /><rect x="2" y="2" width="1" height="1" fill="#ffb3bd" /><rect x="2" y="3" width="1" height="1" fill="#ffb4bb" /><rect x="2" y="4" width="1" height="1" fill="#ffb9bf" /><rect x="2" y="5" width="1" height="1" fill="#f8b3b6" /><rect x="2" y="6" width="1" height="1" fill="#ffbfc0" /><rect x="2" y="7" width="1" height="1" fill="#cfa3a0" /><rect x="2" y="8" width="1" height="1" fill="#070000" /><rect x="2" y="9" width="1" height="1" fill="#383d1f" /><rect x="3" y="0" width="1" height="1" fill="#feb2be" /><rect x="3" y="1" width="1" height="1" fill="#ffb3bd" /><rect x="3" y="2" width="1" height="1" fill="#ffb6bd" /><rect x="3" y="3" width="1" height="1" fill="#feb6ba" /><rect x="3" y="4" width="1" height="1" fill="#ffbbbc" /><rect x="3" y="5" width="1" height="1" fill="#f7b7b7" /><rect x="3" y="6" width="1" height="1" fill="#fbbfbe" /><rect x="3" y="7" width="1" height="1" fill="#c69d97" /><rect x="3" y="8" width="1" height="1" fill="#070000" /><rect x="3" y="9" width="1" height="1" fill="#505535" /><rect x="4" y="0" width="1" height="1" fill="#fdb4bb" /><rect x="4" y="1" width="1" height="1" fill="#fdb5b9" /><rect x="4" y="2" width="1" height="1" fill="#ffb8bb" /><rect x="4" y="3" width="1" height="1" fill="#feb8ba" /><rect x="4" y="4" width="1" height="1" fill="#fdbcba" /><rect x="4" y="5" width="1" height="1" fill="#f8b8b6" /><rect x="4" y="6" width="1" height="1" fill="#fbc0bc" /><rect x="4" y="7" width="1" height="1" fill="#c09890" /><rect x="4" y="8" width="1" height="1" fill="#0a0200" /><rect x="4" y="9" width="1" height="1" fill="#5a613f" /><rect x="5" y="0" width="1" height="1" fill="#feb6ba" /><rect x="5" y="1" width="1" height="1" fill="#fdb5b8" /><rect x="5" y="2" width="1" height="1" fill="#ffb8b9" /><rect x="5" y="3" width="1" height="1" fill="#feb8b6" /><rect x="5" y="4" width="1" height="1" fill="#fdbcb8" /><rect x="5" y="5" width="1" height="1" fill="#f8bcb4" /><rect x="5" y="6" width="1" height="1" fill="#fcc3ba" /><rect x="5" y="7" width="1" height="1" fill="#bb958a" /><rect x="5" y="8" width="1" height="1" fill="#080100" /><rect x="5" y="9" width="1" height="1" fill="#5d6744" /><rect x="6" y="0" width="1" height="1" fill="#ffb7b8" /><rect x="6" y="1" width="1" height="1" fill="#ffb6b5" /><rect x="6" y="2" width="1" height="1" fill="#ffbab8" /><rect x="6" y="3" width="1" height="1" fill="#feb9b4" /><rect x="6" y="4" width="1" height="1" fill="#fdbcb6" /><rect x="6" y="5" width="1" height="1" fill="#fabeb6" /><rect x="6" y="6" width="1" height="1" fill="#fdc4bb" /><rect x="6" y="7" width="1" height="1" fill="#b89285" /><rect x="6" y="8" width="1" height="1" fill="#070000" /><rect x="6" y="9" width="1" height="1" fill="#636f4b" /><rect x="7" y="0" width="1" height="1" fill="#ffb8b7" /><rect x="7" y="1" width="1" height="1" fill="#ffb6b3" /><rect x="7" y="2" width="1" height="1" fill="#ffb9b6" /><rect x="7" y="3" width="1" height="1" fill="#feb9b4" /><rect x="7" y="4" width="1" height="1" fill="#fcbcb3" /><rect x="7" y="5" width="1" height="1" fill="#fbbfb5" /><rect x="7" y="6" width="1" height="1" fill="#fec5ba" /><rect x="7" y="7" width="1" height="1" fill="#b79184" /><rect x="7" y="8" width="1" height="1" fill="#0b0400" /><rect x="7" y="9" width="1" height="1" fill="#687652" /><rect x="8" y="0" width="1" height="1" fill="#ffb5b2" /><rect x="8" y="1" width="1" height="1" fill="#ffb9b4" /><rect x="8" y="2" width="1" height="1" fill="#ffc0ba" /><rect x="8" y="3" width="1" height="1" fill="#ffc0b9" /><rect x="8" y="4" width="1" height="1" fill="#f9b9b0" /><rect x="8" y="5" width="1" height="1" fill="#fcc2b7" /><rect x="8" y="6" width="1" height="1" fill="#f1bbaf" /><rect x="8" y="7" width="1" height="1" fill="#bb9588" /><rect x="8" y="8" width="1" height="1" fill="#070000" /><rect x="8" y="9" width="1" height="1" fill="#6b7b56" /><rect x="9" y="0" width="1" height="1" fill="#ffb9b4" /><rect x="9" y="1" width="1" height="1" fill="#ffb6b1" /><rect x="9" y="2" width="1" height="1" fill="#fbb2ac" /><rect x="9" y="3" width="1" height="1" fill="#fbb6af" /><rect x="9" y="4" width="1" height="1" fill="#f6b7ae" /><rect x="9" y="5" width="1" height="1" fill="#ffc9be" /><rect x="9" y="6" width="1" height="1" fill="#fbc7ba" /><rect x="9" y="7" width="1" height="1" fill="#b59185" /><rect x="9" y="8" width="1" height="1" fill="#060000" /><rect x="9" y="9" width="1" height="1" fill="#5c6d49" /></g></svg>