<svg width="800" height="1000" version="1.1" xmlns="http://www.w3.org/2000/svg" xmlns:xlink="http://www.w3.org/1999/xlink">
  <defs>
      <linearGradient id="Gradient2" x1="0" x2="1" y1="0" y2="1">
        <stop offset="0%" stop-color="#2d3c96"/>
        <stop offset="100%" stop-color="#d53392"/>
      </linearGradient>
  </defs>
  <rect x="10" y="10" width="780" height="980" fill="url(#Gradient2)" rx="50" ry="50" stroke="#ffd700" stroke-width="20"/>
  <text x="400" y="920" width="780" text-anchor="middle" style="font: bold 200px 'Helvetica Neue'; fill: #ffd700">04961</text>

  <g transform="translate(80 80) scale(64)">
<rect x="0" y="0" width="1" height="1" fill="#A98B39" /><rect x="1" y="0" width="1" height="1" fill="#19364E" /><rect x="2" y="0" width="1" height="1" fill="#534A3F" /><rect x="3" y="0" width="1" height="1" fill="#C3A74B" /><rect x="4" y="0" width="1" height="1" fill="#FDF3E3" /><rect x="5" y="0" width="1" height="1" fill="#DABCB3" /><rect x="6" y="0" width="1" height="1" fill="#C8C7C2" /><rect x="7" y="0" width="1" height="1" fill="#CAB8AF" /><rect x="8" y="0" width="1" height="1" fill="#F3DCD7" /><rect x="9" y="0" width="1" height="1" fill="#FFF7E4" /><rect x="0" y="1" width="1" height="1" fill="#B99F58" /><rect x="1" y="1" width="1" height="1" fill="#1A2D46" /><rect x="2" y="1" width="1" height="1" fill="#4A4A4B" /><rect x="3" y="1" width="1" height="1" fill="#C09D29" /><rect x="4" y="1" width="1" height="1" fill="#FCF2E0" /><rect x="5" y="1" width="1" height="1" fill="#FEF9F8" /><rect x="6" y="1" width="1" height="1" fill="#F4D7CD" /><rect x="7" y="1" width="1" height="1" fill="#FAEBE5" /><rect x="8" y="1" width="1" height="1" fill="#FFFCFD" /><rect x="9" y="1" width="1" height="1" fill="#FCF3E0" /><rect x="0" y="2" width="1" height="1" fill="#D7C18B" /><rect x="1" y="2" width="1" height="1" fill="#2F2B2C" /><rect x="2" y="2" width="1" height="1" fill="#3E4857" /><rect x="3" y="2" width="1" height="1" fill="#997A00" /><rect x="4" y="2" width="1" height="1" fill="#FAEED4" /><rect x="5" y="2" width="1" height="1" fill="#FFFFFF" /><rect x="6" y="2" width="1" height="1" fill="#FFFFFF" /><rect x="7" y="2" width="1" height="1" fill="#FFFFFF" /><rect x="8" y="2" width="1" height="1" fill="#FFFFFF" /><rect x="9" y="2" width="1" height="1" fill="#FBF1DF" /><rect x="0" y="3" width="1" height="1" fill="#F4E6C5" /><rect x="1" y="3" width="1" height="1" fill="#685000" /><rect x="2" y="3" width="1" height="1" fill="#464F5A" /><rect x="3" y="3" width="1" height="1" fill="#231805" /><rect x="4" y="3" width="1" height="1" fill="#DDCFA7" /><rect x="5" y="3" width="1" height="1" fill="#FFFFFF" /><rect x="6" y="3" width="1" height="1" fill="#FDFDFC" /><rect x="7" y="3" width="1" height="1" fill="#FFFEFE" /><rect x="8" y="3" width="1" height="1" fill="#FFFFFF" /><rect x="9" y="3" width="1" height="1" fill="#FDF5E3" /><rect x="0" y="4" width="1" height="1" fill="#FFFFF5" /><rect x="1" y="4" width="1" height="1" fill="#BAA05D" /><rect x="2" y="4" width="1" height="1" fill="#192E43" /><rect x="3" y="4" width="1" height="1" fill="#393F49" /><rect x="4" y="4" width="1" height="1" fill="#A18B4D" /><rect x="5" y="4" width="1" height="1" fill="#FFFDED" /><rect x="6" y="4" width="1" height="1" fill="#FDFFFF" /><rect x="7" y="4" width="1" height="1" fill="#FEFDFC" /><rect x="8" y="4" width="1" height="1" fill="#FFFFFF" /><rect x="9" y="4" width="1" height="1" fill="#F7ECCF" /><rect x="0" y="5" width="1" height="1" fill="#FFFFFF" /><rect x="1" y="5" width="1" height="1" fill="#F7EAC7" /><rect x="2" y="5" width="1" height="1" fill="#775B00" /><rect x="3" y="5" width="1" height="1" fill="#33465C" /><rect x="4" y="5" width="1" height="1" fill="#403626" /><rect x="5" y="5" width="1" height="1" fill="#D3C18D" /><rect x="6" y="5" width="1" height="1" fill="#FFFFFC" /><rect x="7" y="5" width="1" height="1" fill="#FDFFFF" /><rect x="8" y="5" width="1" height="1" fill="#FDEFD0" /><rect x="9" y="5" width="1" height="1" fill="#D5AB00" /><rect x="0" y="6" width="1" height="1" fill="#FEFEFE" /><rect x="1" y="6" width="1" height="1" fill="#FFFFFF" /><rect x="2" y="6" width="1" height="1" fill="#E8D4A2" /><rect x="3" y="6" width="1" height="1" fill="#593F00" /><rect x="4" y="6" width="1" height="1" fill="#26405C" /><rect x="5" y="6" width="1" height="1" fill="#564725" /><rect x="6" y="6" width="1" height="1" fill="#D3BF8A" /><rect x="7" y="6" width="1" height="1" fill="#FFFBEA" /><rect x="8" y="6" width="1" height="1" fill="#FFFFFF" /><rect x="9" y="6" width="1" height="1" fill="#F8ECCB" /><rect x="0" y="7" width="1" height="1" fill="#FFFFFE" /><rect x="1" y="7" width="1" height="1" fill="#FDFEFF" /><rect x="2" y="7" width="1" height="1" fill="#FFFFFD" /><rect x="3" y="7" width="1" height="1" fill="#E8D4A1" /><rect x="4" y="7" width="1" height="1" fill="#775B00" /><rect x="5" y="7" width="1" height="1" fill="#00244A" /><rect x="6" y="7" width="1" height="1" fill="#232A3A" /><rect x="7" y="7" width="1" height="1" fill="#9C8648" /><rect x="8" y="7" width="1" height="1" fill="#D7C7A0" /><rect x="9" y="7" width="1" height="1" fill="#EAD9AC" /><rect x="0" y="8" width="1" height="1" fill="#FFFFFF" /><rect x="1" y="8" width="1" height="1" fill="#FFFFFE" /><rect x="2" y="8" width="1" height="1" fill="#FEFEFF" /><rect x="3" y="8" width="1" height="1" fill="#FFFFFF" /><rect x="4" y="8" width="1" height="1" fill="#F6E9C5" /><rect x="5" y="8" width="1" height="1" fill="#B89E57" /><rect x="6" y="8" width="1" height="1" fill="#665212" /><rect x="7" y="8" width="1" height="1" fill="#00002F" /><rect x="8" y="8" width="1" height="1" fill="#000004" /><rect x="9" y="8" width="1" height="1" fill="#151215" /><rect x="0" y="9" width="1" height="1" fill="#FFFFFF" /><rect x="1" y="9" width="1" height="1" fill="#FFFFFF" /><rect x="2" y="9" width="1" height="1" fill="#FFFFFE" /><rect x="3" y="9" width="1" height="1" fill="#FEFEFE" /><rect x="4" y="9" width="1" height="1" fill="#FFFFFF" /><rect x="5" y="9" width="1" height="1" fill="#FFFFF4" /><rect x="6" y="9" width="1" height="1" fill="#F3E5C1" /><rect x="7" y="9" width="1" height="1" fill="#D6BF87" /><rect x="8" y="9" width="1" height="1" fill="#B79E5A" /><rect x="9" y="9" width="1" height="1" fill="#A48843" />
  </g>
</svg>