<svg width="800" height="1000" version="1.1" xmlns="http://www.w3.org/2000/svg" xmlns:xlink="http://www.w3.org/1999/xlink">
  <defs>
      <linearGradient id="Gradient2" x1="0" x2="1" y1="0" y2="1">
        <stop offset="0%" stop-color="#2d3c96"/>
        <stop offset="100%" stop-color="#d53392"/>
      </linearGradient>
  </defs>
  <rect x="10" y="10" width="780" height="980" fill="url(#Gradient2)" rx="50" ry="50" stroke="#ffd700" stroke-width="20"/>
  <text x="400" y="920" width="780" text-anchor="middle" style="font: bold 200px 'Helvetica Neue'; fill: #ffd700">04962</text>

  <g transform="translate(80 80) scale(64)">
<rect x="0" y="0" width="1" height="1" fill="#F7C000" /><rect x="1" y="0" width="1" height="1" fill="#707357" /><rect x="2" y="0" width="1" height="1" fill="#CD998D" /><rect x="3" y="0" width="1" height="1" fill="#FF8461" /><rect x="4" y="0" width="1" height="1" fill="#C0968C" /><rect x="5" y="0" width="1" height="1" fill="#68674C" /><rect x="6" y="0" width="1" height="1" fill="#E2B108" /><rect x="7" y="0" width="1" height="1" fill="#545249" /><rect x="8" y="0" width="1" height="1" fill="#17324C" /><rect x="9" y="0" width="1" height="1" fill="#A98B39" /><rect x="0" y="1" width="1" height="1" fill="#FFC900" /><rect x="1" y="1" width="1" height="1" fill="#977A2E" /><rect x="2" y="1" width="1" height="1" fill="#364D5C" /><rect x="3" y="1" width="1" height="1" fill="#AF9282" /><rect x="4" y="1" width="1" height="1" fill="#194254" /><rect x="5" y="1" width="1" height="1" fill="#886F36" /><rect x="6" y="1" width="1" height="1" fill="#DEB225" /><rect x="7" y="1" width="1" height="1" fill="#3A434B" /><rect x="8" y="1" width="1" height="1" fill="#213045" /><rect x="9" y="1" width="1" height="1" fill="#B99F58" /><rect x="0" y="2" width="1" height="1" fill="#FFCF00" /><rect x="1" y="2" width="1" height="1" fill="#C9A133" /><rect x="2" y="2" width="1" height="1" fill="#002849" /><rect x="3" y="2" width="1" height="1" fill="#3B433E" /><rect x="4" y="2" width="1" height="1" fill="#26354A" /><rect x="5" y="2" width="1" height="1" fill="#9A803E" /><rect x="6" y="2" width="1" height="1" fill="#A68836" /><rect x="7" y="2" width="1" height="1" fill="#304052" /><rect x="8" y="2" width="1" height="1" fill="#302C2C" /><rect x="9" y="2" width="1" height="1" fill="#D7C18A" /><rect x="0" y="3" width="1" height="1" fill="#DEB000" /><rect x="1" y="3" width="1" height="1" fill="#B29036" /><rect x="2" y="3" width="1" height="1" fill="#3B434C" /><rect x="3" y="3" width="1" height="1" fill="#57514B" /><rect x="4" y="3" width="1" height="1" fill="#3E444B" /><rect x="5" y="3" width="1" height="1" fill="#9C8238" /><rect x="6" y="3" width="1" height="1" fill="#4D4B48" /><rect x="7" y="3" width="1" height="1" fill="#3D4754" /><rect x="8" y="3" width="1" height="1" fill="#685000" /><rect x="9" y="3" width="1" height="1" fill="#F4E6C4" /><rect x="0" y="4" width="1" height="1" fill="#6A582E" /><rect x="1" y="4" width="1" height="1" fill="#002A50" /><rect x="2" y="4" width="1" height="1" fill="#514F49" /><rect x="3" y="4" width="1" height="1" fill="#23374C" /><rect x="4" y="4" width="1" height="1" fill="#796843" /><rect x="5" y="4" width="1" height="1" fill="#957E3A" /><rect x="6" y="4" width="1" height="1" fill="#44484E" /><rect x="7" y="4" width="1" height="1" fill="#0F2941" /><rect x="8" y="4" width="1" height="1" fill="#BAA05C" /><rect x="9" y="4" width="1" height="1" fill="#FFFFF5" /><rect x="0" y="5" width="1" height="1" fill="#997E33" /><rect x="1" y="5" width="1" height="1" fill="#9F833B" /><rect x="2" y="5" width="1" height="1" fill="#92783C" /><rect x="3" y="5" width="1" height="1" fill="#A68835" /><rect x="4" y="5" width="1" height="1" fill="#B39231" /><rect x="5" y="5" width="1" height="1" fill="#535049" /><rect x="6" y="5" width="1" height="1" fill="#2B4056" /><rect x="7" y="5" width="1" height="1" fill="#785B00" /><rect x="8" y="5" width="1" height="1" fill="#F7EAC7" /><rect x="9" y="5" width="1" height="1" fill="#FFFFFF" /><rect x="0" y="6" width="1" height="1" fill="#79642D" /><rect x="1" y="6" width="1" height="1" fill="#46474D" /><rect x="2" y="6" width="1" height="1" fill="#88723F" /><rect x="3" y="6" width="1" height="1" fill="#AA8C32" /><rect x="4" y="6" width="1" height="1" fill="#6A5F4A" /><rect x="5" y="6" width="1" height="1" fill="#143857" /><rect x="6" y="6" width="1" height="1" fill="#5A3F00" /><rect x="7" y="6" width="1" height="1" fill="#E8D4A1" /><rect x="8" y="6" width="1" height="1" fill="#FFFFFF" /><rect x="9" y="6" width="1" height="1" fill="#FEFEFE" /><rect x="0" y="7" width="1" height="1" fill="#AC8D2A" /><rect x="1" y="7" width="1" height="1" fill="#9C813B" /><rect x="2" y="7" width="1" height="1" fill="#937C43" /><rect x="3" y="7" width="1" height="1" fill="#434A53" /><rect x="4" y="7" width="1" height="1" fill="#001244" /><rect x="5" y="7" width="1" height="1" fill="#775B00" /><rect x="6" y="7" width="1" height="1" fill="#E8D3A1" /><rect x="7" y="7" width="1" height="1" fill="#FFFFFD" /><rect x="8" y="7" width="1" height="1" fill="#FEFEFF" /><rect x="9" y="7" width="1" height="1" fill="#FFFFFE" /><rect x="0" y="8" width="1" height="1" fill="#45474A" /><rect x="1" y="8" width="1" height="1" fill="#1D3045" /><rect x="2" y="8" width="1" height="1" fill="#000033" /><rect x="3" y="8" width="1" height="1" fill="#634C00" /><rect x="4" y="8" width="1" height="1" fill="#B89E57" /><rect x="5" y="8" width="1" height="1" fill="#F6E9C5" /><rect x="6" y="8" width="1" height="1" fill="#FFFFFF" /><rect x="7" y="8" width="1" height="1" fill="#FDFEFF" /><rect x="8" y="8" width="1" height="1" fill="#FFFFFE" /><rect x="9" y="8" width="1" height="1" fill="#FFFFFF" /><rect x="0" y="9" width="1" height="1" fill="#A1853A" /><rect x="1" y="9" width="1" height="1" fill="#B59B53" /><rect x="2" y="9" width="1" height="1" fill="#D6BE86" /><rect x="3" y="9" width="1" height="1" fill="#F3E5C1" /><rect x="4" y="9" width="1" height="1" fill="#FFFFF4" /><rect x="5" y="9" width="1" height="1" fill="#FFFFFF" /><rect x="6" y="9" width="1" height="1" fill="#FEFEFE" /><rect x="7" y="9" width="1" height="1" fill="#FFFFFE" /><rect x="8" y="9" width="1" height="1" fill="#FFFFFF" /><rect x="9" y="9" width="1" height="1" fill="#FFFFFF" />
  </g>
</svg>