<svg width="800" height="1000" version="1.1" xmlns="http://www.w3.org/2000/svg" xmlns:xlink="http://www.w3.org/1999/xlink">
  <defs>
      <linearGradient id="Gradient2" x1="0" x2="1" y1="0" y2="1">
        <stop offset="0%" stop-color="#2d3c96"/>
        <stop offset="100%" stop-color="#d53392"/>
      </linearGradient>
  </defs>
  <rect x="10" y="10" width="780" height="980" fill="url(#Gradient2)" rx="50" ry="50" stroke="#ffd700" stroke-width="20"/>
  <text x="400" y="920" width="780" text-anchor="middle" style="font: bold 200px 'Helvetica Neue'; fill: #ffd700">04965</text>

  <g transform="translate(80 80) scale(64)">
<rect x="0" y="0" width="1" height="1" fill="#181817" /><rect x="1" y="0" width="1" height="1" fill="#181817" /><rect x="2" y="0" width="1" height="1" fill="#181818" /><rect x="3" y="0" width="1" height="1" fill="#191919" /><rect x="4" y="0" width="1" height="1" fill="#191818" /><rect x="5" y="0" width="1" height="1" fill="#1A1A1B" /><rect x="6" y="0" width="1" height="1" fill="#1A1A1C" /><rect x="7" y="0" width="1" height="1" fill="#1A1A1C" /><rect x="8" y="0" width="1" height="1" fill="#1C1D20" /><rect x="9" y="0" width="1" height="1" fill="#1B1C1E" /><rect x="0" y="1" width="1" height="1" fill="#1B1B1C" /><rect x="1" y="1" width="1" height="1" fill="#1B1B1C" /><rect x="2" y="1" width="1" height="1" fill="#191919" /><rect x="3" y="1" width="1" height="1" fill="#1B1C1E" /><rect x="4" y="1" width="1" height="1" fill="#1A1B1D" /><rect x="5" y="1" width="1" height="1" fill="#1B1C1E" /><rect x="6" y="1" width="1" height="1" fill="#1C1D1F" /><rect x="7" y="1" width="1" height="1" fill="#1C1D20" /><rect x="8" y="1" width="1" height="1" fill="#1D1E22" /><rect x="9" y="1" width="1" height="1" fill="#1C1D21" /><rect x="0" y="2" width="1" height="1" fill="#1B1B1D" /><rect x="1" y="2" width="1" height="1" fill="#1B1C1E" /><rect x="2" y="2" width="1" height="1" fill="#1B1B1E" /><rect x="3" y="2" width="1" height="1" fill="#1C1E21" /><rect x="4" y="2" width="1" height="1" fill="#1B1C1E" /><rect x="5" y="2" width="1" height="1" fill="#1C1C1F" /><rect x="6" y="2" width="1" height="1" fill="#1B1C1D" /><rect x="7" y="2" width="1" height="1" fill="#1B1B1D" /><rect x="8" y="2" width="1" height="1" fill="#1B1C1E" /><rect x="9" y="2" width="1" height="1" fill="#1C1C20" /><rect x="0" y="3" width="1" height="1" fill="#1D1F23" /><rect x="1" y="3" width="1" height="1" fill="#1B1D20" /><rect x="2" y="3" width="1" height="1" fill="#1D2831" /><rect x="3" y="3" width="1" height="1" fill="#161B21" /><rect x="4" y="3" width="1" height="1" fill="#181C23" /><rect x="5" y="3" width="1" height="1" fill="#16191E" /><rect x="6" y="3" width="1" height="1" fill="#17191D" /><rect x="7" y="3" width="1" height="1" fill="#16171B" /><rect x="8" y="3" width="1" height="1" fill="#1B1F26" /><rect x="9" y="3" width="1" height="1" fill="#1C2127" /><rect x="0" y="4" width="1" height="1" fill="#1E2227" /><rect x="1" y="4" width="1" height="1" fill="#182028" /><rect x="2" y="4" width="1" height="1" fill="#71B4DA" /><rect x="3" y="4" width="1" height="1" fill="#6DA5C7" /><rect x="4" y="4" width="1" height="1" fill="#5E99BD" /><rect x="5" y="4" width="1" height="1" fill="#5F95B5" /><rect x="6" y="4" width="1" height="1" fill="#558CAC" /><rect x="7" y="4" width="1" height="1" fill="#69A1C1" /><rect x="8" y="4" width="1" height="1" fill="#324D63" /><rect x="9" y="4" width="1" height="1" fill="#2F3F59" /><rect x="0" y="5" width="1" height="1" fill="#1F252E" /><rect x="1" y="5" width="1" height="1" fill="#1A2431" /><rect x="2" y="5" width="1" height="1" fill="#639CBE" /><rect x="3" y="5" width="1" height="1" fill="#619DC2" /><rect x="4" y="5" width="1" height="1" fill="#70AACC" /><rect x="5" y="5" width="1" height="1" fill="#77BADF" /><rect x="6" y="5" width="1" height="1" fill="#5B94B6" /><rect x="7" y="5" width="1" height="1" fill="#4E7FA1" /><rect x="8" y="5" width="1" height="1" fill="#3A5979" /><rect x="9" y="5" width="1" height="1" fill="#3C5477" /><rect x="0" y="6" width="1" height="1" fill="#1F2632" /><rect x="1" y="6" width="1" height="1" fill="#1B222B" /><rect x="2" y="6" width="1" height="1" fill="#171C28" /><rect x="3" y="6" width="1" height="1" fill="#1A263D" /><rect x="4" y="6" width="1" height="1" fill="#18243B" /><rect x="5" y="6" width="1" height="1" fill="#1F324A" /><rect x="6" y="6" width="1" height="1" fill="#203357" /><rect x="7" y="6" width="1" height="1" fill="#273D6A" /><rect x="8" y="6" width="1" height="1" fill="#345287" /><rect x="9" y="6" width="1" height="1" fill="#365890" /><rect x="0" y="7" width="1" height="1" fill="#1F2734" /><rect x="1" y="7" width="1" height="1" fill="#202835" /><rect x="2" y="7" width="1" height="1" fill="#222B3B" /><rect x="3" y="7" width="1" height="1" fill="#26354D" /><rect x="4" y="7" width="1" height="1" fill="#2A3A56" /><rect x="5" y="7" width="1" height="1" fill="#2D3F5D" /><rect x="6" y="7" width="1" height="1" fill="#42608B" /><rect x="7" y="7" width="1" height="1" fill="#4F739D" /><rect x="8" y="7" width="1" height="1" fill="#50749C" /><rect x="9" y="7" width="1" height="1" fill="#6D98B9" /><rect x="0" y="8" width="1" height="1" fill="#252E3B" /><rect x="1" y="8" width="1" height="1" fill="#2A3646" /><rect x="2" y="8" width="1" height="1" fill="#324256" /><rect x="3" y="8" width="1" height="1" fill="#415771" /><rect x="4" y="8" width="1" height="1" fill="#4D657F" /><rect x="5" y="8" width="1" height="1" fill="#5A738C" /><rect x="6" y="8" width="1" height="1" fill="#6F8BA4" /><rect x="7" y="8" width="1" height="1" fill="#84A0B7" /><rect x="8" y="8" width="1" height="1" fill="#8BA7BC" /><rect x="9" y="8" width="1" height="1" fill="#89A6BC" /><rect x="0" y="9" width="1" height="1" fill="#37485C" /><rect x="1" y="9" width="1" height="1" fill="#3E5064" /><rect x="2" y="9" width="1" height="1" fill="#44576B" /><rect x="3" y="9" width="1" height="1" fill="#516479" /><rect x="4" y="9" width="1" height="1" fill="#5B7084" /><rect x="5" y="9" width="1" height="1" fill="#6C8093" /><rect x="6" y="9" width="1" height="1" fill="#7C8FA1" /><rect x="7" y="9" width="1" height="1" fill="#8497A8" /><rect x="8" y="9" width="1" height="1" fill="#899DAE" /><rect x="9" y="9" width="1" height="1" fill="#8195A8" />
  </g>
</svg>