<svg width="800" height="1000" version="1.1" xmlns="http://www.w3.org/2000/svg" xmlns:xlink="http://www.w3.org/1999/xlink">
  <defs>
      <linearGradient id="Gradient2" x1="0" x2="1" y1="0" y2="1">
        <stop offset="0%" stop-color="#2d3c96"/>
        <stop offset="100%" stop-color="#d53392"/>
      </linearGradient>
  </defs>
  <rect x="10" y="10" width="780" height="980" fill="url(#Gradient2)" rx="50" ry="50" stroke="#ffd700" stroke-width="20"/>
  <text x="400" y="920" width="780" text-anchor="middle" style="font: bold 200px 'Helvetica Neue'; fill: #ffd700">04962</text>

  <g transform="translate(80 80) scale(64)">
<rect x="0" y="0" width="1" height="1" fill="#f7c000" />
,<rect x="0" y="1" width="1" height="1" fill="#ffc900" />
,<rect x="0" y="2" width="1" height="1" fill="#ffcf00" />
,<rect x="0" y="3" width="1" height="1" fill="#deb000" />
,<rect x="0" y="4" width="1" height="1" fill="#6a582e" />
,<rect x="0" y="5" width="1" height="1" fill="#997e33" />
,<rect x="0" y="6" width="1" height="1" fill="#79642d" />
,<rect x="0" y="7" width="1" height="1" fill="#ac8d2a" />
,<rect x="0" y="8" width="1" height="1" fill="#45474a" />
,<rect x="0" y="9" width="1" height="1" fill="#a1853a" />
,<rect x="1" y="0" width="1" height="1" fill="#707357" />
,<rect x="1" y="1" width="1" height="1" fill="#977a2e" />
,<rect x="1" y="2" width="1" height="1" fill="#c9a133" />
,<rect x="1" y="3" width="1" height="1" fill="#b29036" />
,<rect x="1" y="4" width="1" height="1" fill="#002a50" />
,<rect x="1" y="5" width="1" height="1" fill="#9f833b" />
,<rect x="1" y="6" width="1" height="1" fill="#46474d" />
,<rect x="1" y="7" width="1" height="1" fill="#9c813b" />
,<rect x="1" y="8" width="1" height="1" fill="#1d3045" />
,<rect x="1" y="9" width="1" height="1" fill="#b59b53" />
,<rect x="2" y="0" width="1" height="1" fill="#cd998d" />
,<rect x="2" y="1" width="1" height="1" fill="#364d5c" />
,<rect x="2" y="2" width="1" height="1" fill="#002849" />
,<rect x="2" y="3" width="1" height="1" fill="#3b434c" />
,<rect x="2" y="4" width="1" height="1" fill="#514f49" />
,<rect x="2" y="5" width="1" height="1" fill="#92783c" />
,<rect x="2" y="6" width="1" height="1" fill="#88723f" />
,<rect x="2" y="7" width="1" height="1" fill="#937c43" />
,<rect x="2" y="8" width="1" height="1" fill="#000033" />
,<rect x="2" y="9" width="1" height="1" fill="#d6be86" />
,<rect x="3" y="0" width="1" height="1" fill="#ff8461" />
,<rect x="3" y="1" width="1" height="1" fill="#af9282" />
,<rect x="3" y="2" width="1" height="1" fill="#3b433e" />
,<rect x="3" y="3" width="1" height="1" fill="#57514b" />
,<rect x="3" y="4" width="1" height="1" fill="#23374c" />
,<rect x="3" y="5" width="1" height="1" fill="#a68835" />
,<rect x="3" y="6" width="1" height="1" fill="#aa8c32" />
,<rect x="3" y="7" width="1" height="1" fill="#434a53" />
,<rect x="3" y="8" width="1" height="1" fill="#634c00" />
,<rect x="3" y="9" width="1" height="1" fill="#f3e5c1" />
,<rect x="4" y="0" width="1" height="1" fill="#c0968c" />
,<rect x="4" y="1" width="1" height="1" fill="#194254" />
,<rect x="4" y="2" width="1" height="1" fill="#26354a" />
,<rect x="4" y="3" width="1" height="1" fill="#3e444b" />
,<rect x="4" y="4" width="1" height="1" fill="#796843" />
,<rect x="4" y="5" width="1" height="1" fill="#b39231" />
,<rect x="4" y="6" width="1" height="1" fill="#6a5f4a" />
,<rect x="4" y="7" width="1" height="1" fill="#001244" />
,<rect x="4" y="8" width="1" height="1" fill="#b89e57" />
,<rect x="4" y="9" width="1" height="1" fill="#fffff4" />
,<rect x="5" y="0" width="1" height="1" fill="#68674c" />
,<rect x="5" y="1" width="1" height="1" fill="#886f36" />
,<rect x="5" y="2" width="1" height="1" fill="#9a803e" />
,<rect x="5" y="3" width="1" height="1" fill="#9c8238" />
,<rect x="5" y="4" width="1" height="1" fill="#957e3a" />
,<rect x="5" y="5" width="1" height="1" fill="#535049" />
,<rect x="5" y="6" width="1" height="1" fill="#143857" />
,<rect x="5" y="7" width="1" height="1" fill="#775b00" />
,<rect x="5" y="8" width="1" height="1" fill="#f6e9c5" />
,<rect x="5" y="9" width="1" height="1" fill="#ffffff" />
,<rect x="6" y="0" width="1" height="1" fill="#e2b108" />
,<rect x="6" y="1" width="1" height="1" fill="#deb225" />
,<rect x="6" y="2" width="1" height="1" fill="#a68836" />
,<rect x="6" y="3" width="1" height="1" fill="#4d4b48" />
,<rect x="6" y="4" width="1" height="1" fill="#44484e" />
,<rect x="6" y="5" width="1" height="1" fill="#2b4056" />
,<rect x="6" y="6" width="1" height="1" fill="#5a3f00" />
,<rect x="6" y="7" width="1" height="1" fill="#e8d3a1" />
,<rect x="6" y="8" width="1" height="1" fill="#ffffff" />
,<rect x="6" y="9" width="1" height="1" fill="#fefefe" />
,<rect x="7" y="0" width="1" height="1" fill="#545249" />
,<rect x="7" y="1" width="1" height="1" fill="#3a434b" />
,<rect x="7" y="2" width="1" height="1" fill="#304052" />
,<rect x="7" y="3" width="1" height="1" fill="#3d4754" />
,<rect x="7" y="4" width="1" height="1" fill="#0f2941" />
,<rect x="7" y="5" width="1" height="1" fill="#785b00" />
,<rect x="7" y="6" width="1" height="1" fill="#e8d4a1" />
,<rect x="7" y="7" width="1" height="1" fill="#fffffd" />
,<rect x="7" y="8" width="1" height="1" fill="#fdfeff" />
,<rect x="7" y="9" width="1" height="1" fill="#fffffe" />
,<rect x="8" y="0" width="1" height="1" fill="#17324c" />
,<rect x="8" y="1" width="1" height="1" fill="#213045" />
,<rect x="8" y="2" width="1" height="1" fill="#302c2c" />
,<rect x="8" y="3" width="1" height="1" fill="#685000" />
,<rect x="8" y="4" width="1" height="1" fill="#baa05c" />
,<rect x="8" y="5" width="1" height="1" fill="#f7eac7" />
,<rect x="8" y="6" width="1" height="1" fill="#ffffff" />
,<rect x="8" y="7" width="1" height="1" fill="#fefeff" />
,<rect x="8" y="8" width="1" height="1" fill="#fffffe" />
,<rect x="8" y="9" width="1" height="1" fill="#ffffff" />
,<rect x="9" y="0" width="1" height="1" fill="#a98b39" />
,<rect x="9" y="1" width="1" height="1" fill="#b99f58" />
,<rect x="9" y="2" width="1" height="1" fill="#d7c18a" />
,<rect x="9" y="3" width="1" height="1" fill="#f4e6c4" />
,<rect x="9" y="4" width="1" height="1" fill="#fffff5" />
,<rect x="9" y="5" width="1" height="1" fill="#ffffff" />
,<rect x="9" y="6" width="1" height="1" fill="#fefefe" />
,<rect x="9" y="7" width="1" height="1" fill="#fffffe" />
,<rect x="9" y="8" width="1" height="1" fill="#ffffff" />
,<rect x="9" y="9" width="1" height="1" fill="#ffffff" />

  </g>
</svg>