<svg width="800" height="1000" version="1.1" xmlns="http://www.w3.org/2000/svg" xmlns:xlink="http://www.w3.org/1999/xlink">
  <defs>
      <linearGradient id="Gradient2" x1="0" x2="1" y1="0" y2="1">
        <stop offset="0%" stop-color="#2d3c96"/>
        <stop offset="100%" stop-color="#d53392"/>
      </linearGradient>
  </defs>
  <rect x="10" y="10" width="780" height="980" fill="url(#Gradient2)" rx="50" ry="50" stroke="#ffd700" stroke-width="20"/>
  <text x="400" y="920" width="780" text-anchor="middle" style="font: bold 200px 'Helvetica Neue'; fill: #ffd700">04998</text>

  <g transform="translate(80 80) scale(64)">
<rect x="0" y="0" width="1" height="1" fill="#00060A" /><rect x="1" y="0" width="1" height="1" fill="#000000" /><rect x="2" y="0" width="1" height="1" fill="#001E25" /><rect x="3" y="0" width="1" height="1" fill="#019CB7" /><rect x="4" y="0" width="1" height="1" fill="#02A8C4" /><rect x="5" y="0" width="1" height="1" fill="#04A4C0" /><rect x="6" y="0" width="1" height="1" fill="#04A5C1" /><rect x="7" y="0" width="1" height="1" fill="#04A5C1" /><rect x="8" y="0" width="1" height="1" fill="#04A4C0" /><rect x="9" y="0" width="1" height="1" fill="#02A9C6" /><rect x="0" y="1" width="1" height="1" fill="#092127" /><rect x="1" y="1" width="1" height="1" fill="#091517" /><rect x="2" y="1" width="1" height="1" fill="#03282F" /><rect x="3" y="1" width="1" height="1" fill="#0AA4C0" /><rect x="4" y="1" width="1" height="1" fill="#0CB0CC" /><rect x="5" y="1" width="1" height="1" fill="#0AACC9" /><rect x="6" y="1" width="1" height="1" fill="#0AADCA" /><rect x="7" y="1" width="1" height="1" fill="#0DADCA" /><rect x="8" y="1" width="1" height="1" fill="#07ACC7" /><rect x="9" y="1" width="1" height="1" fill="#02AFCC" /><rect x="0" y="2" width="1" height="1" fill="#000000" /><rect x="1" y="2" width="1" height="1" fill="#000000" /><rect x="2" y="2" width="1" height="1" fill="#000000" /><rect x="3" y="2" width="1" height="1" fill="#00788E" /><rect x="4" y="2" width="1" height="1" fill="#007F97" /><rect x="5" y="2" width="1" height="1" fill="#007D94" /><rect x="6" y="2" width="1" height="1" fill="#007E95" /><rect x="7" y="2" width="1" height="1" fill="#007D94" /><rect x="8" y="2" width="1" height="1" fill="#008198" /><rect x="9" y="2" width="1" height="1" fill="#048DA5" /><rect x="0" y="3" width="1" height="1" fill="#377A86" /><rect x="1" y="3" width="1" height="1" fill="#387E8A" /><rect x="2" y="3" width="1" height="1" fill="#275A63" /><rect x="3" y="3" width="1" height="1" fill="#326870" /><rect x="4" y="3" width="1" height="1" fill="#397680" /><rect x="5" y="3" width="1" height="1" fill="#36727C" /><rect x="6" y="3" width="1" height="1" fill="#36727C" /><rect x="7" y="3" width="1" height="1" fill="#397781" /><rect x="8" y="3" width="1" height="1" fill="#2A565D" /><rect x="9" y="3" width="1" height="1" fill="#000000" /><rect x="0" y="4" width="1" height="1" fill="#61CDE2" /><rect x="1" y="4" width="1" height="1" fill="#64D3E8" /><rect x="2" y="4" width="1" height="1" fill="#4799A9" /><rect x="3" y="4" width="1" height="1" fill="#58BCCF" /><rect x="4" y="4" width="1" height="1" fill="#63D3E8" /><rect x="5" y="4" width="1" height="1" fill="#60CDE2" /><rect x="6" y="4" width="1" height="1" fill="#60CCE1" /><rect x="7" y="4" width="1" height="1" fill="#64D5EA" /><rect x="8" y="4" width="1" height="1" fill="#4EA7B8" /><rect x="9" y="4" width="1" height="1" fill="#000000" /><rect x="0" y="5" width="1" height="1" fill="#61CEE2" /><rect x="1" y="5" width="1" height="1" fill="#64D3E9" /><rect x="2" y="5" width="1" height="1" fill="#479AA9" /><rect x="3" y="5" width="1" height="1" fill="#5ABED1" /><rect x="4" y="5" width="1" height="1" fill="#67D5EA" /><rect x="5" y="5" width="1" height="1" fill="#62CEE3" /><rect x="6" y="5" width="1" height="1" fill="#60CCE1" /><rect x="7" y="5" width="1" height="1" fill="#64D5EA" /><rect x="8" y="5" width="1" height="1" fill="#4EA6B7" /><rect x="9" y="5" width="1" height="1" fill="#000000" /><rect x="0" y="6" width="1" height="1" fill="#377A86" /><rect x="1" y="6" width="1" height="1" fill="#3A7E8B" /><rect x="2" y="6" width="1" height="1" fill="#265963" /><rect x="3" y="6" width="1" height="1" fill="#155D6A" /><rect x="4" y="6" width="1" height="1" fill="#1B6A78" /><rect x="5" y="6" width="1" height="1" fill="#2A707D" /><rect x="6" y="6" width="1" height="1" fill="#397A87" /><rect x="7" y="6" width="1" height="1" fill="#387E8B" /><rect x="8" y="6" width="1" height="1" fill="#2A606B" /><rect x="9" y="6" width="1" height="1" fill="#000000" /><rect x="0" y="7" width="1" height="1" fill="#000000" /><rect x="1" y="7" width="1" height="1" fill="#000000" /><rect x="2" y="7" width="1" height="1" fill="#110000" /><rect x="3" y="7" width="1" height="1" fill="#83B1B7" /><rect x="4" y="7" width="1" height="1" fill="#92C5CC" /><rect x="5" y="7" width="1" height="1" fill="#67898D" /><rect x="6" y="7" width="1" height="1" fill="#000000" /><rect x="7" y="7" width="1" height="1" fill="#000000" /><rect x="8" y="7" width="1" height="1" fill="#000000" /><rect x="9" y="7" width="1" height="1" fill="#020B0D" /><rect x="0" y="8" width="1" height="1" fill="#102225" /><rect x="1" y="8" width="1" height="1" fill="#000000" /><rect x="2" y="8" width="1" height="1" fill="#23363A" /><rect x="3" y="8" width="1" height="1" fill="#A6E5EE" /><rect x="4" y="8" width="1" height="1" fill="#B9FEFF" /><rect x="5" y="8" width="1" height="1" fill="#85B9C0" /><rect x="6" y="8" width="1" height="1" fill="#000000" /><rect x="7" y="8" width="1" height="1" fill="#182C30" /><rect x="8" y="8" width="1" height="1" fill="#021215" /><rect x="9" y="8" width="1" height="1" fill="#000000" /><rect x="0" y="9" width="1" height="1" fill="#091012" /><rect x="1" y="9" width="1" height="1" fill="#000000" /><rect x="2" y="9" width="1" height="1" fill="#213132" /><rect x="3" y="9" width="1" height="1" fill="#A0DCE5" /><rect x="4" y="9" width="1" height="1" fill="#B2F5FE" /><rect x="5" y="9" width="1" height="1" fill="#81B2B9" /><rect x="6" y="9" width="1" height="1" fill="#000000" /><rect x="7" y="9" width="1" height="1" fill="#132021" /><rect x="8" y="9" width="1" height="1" fill="#000000" /><rect x="9" y="9" width="1" height="1" fill="#000000" />
  </g>
</svg>