<svg width="800" height="1000" xmlns="http://www.w3.org/2000/svg"><defs><linearGradient id="g" x1="0" x2="1" y1="0" y2="1"><stop offset="0%" stop-color="#2d3c96"/><stop offset="100%" stop-color="#d53392"/></linearGradient></defs><rect x="10" y="10" width="780" height="980" fill="url(#g)" rx="50" ry="50" stroke="gold" stroke-width="20"/><text x="400" y="920" width="780" text-anchor="middle" style="font:bold 200px 'Helvetica Neue';fill:gold">04999</text><g transform="translate(80 80) scale(64)"><rect x="0" y="0" width="1" height="1" fill="#0292aa" /><rect x="0" y="1" width="1" height="1" fill="#0397b1" /><rect x="0" y="2" width="1" height="1" fill="#00788d" /><rect x="0" y="3" width="1" height="1" fill="#000000" /><rect x="0" y="4" width="1" height="1" fill="#032125" /><rect x="0" y="5" width="1" height="1" fill="#031b1e" /><rect x="0" y="6" width="1" height="1" fill="#00080b" /><rect x="0" y="7" width="1" height="1" fill="#000000" /><rect x="0" y="8" width="1" height="1" fill="#000000" /><rect x="0" y="9" width="1" height="1" fill="#000000" /><rect x="1" y="0" width="1" height="1" fill="#000000" /><rect x="1" y="1" width="1" height="1" fill="#000000" /><rect x="1" y="2" width="1" height="1" fill="#140000" /><rect x="1" y="3" width="1" height="1" fill="#202121" /><rect x="1" y="4" width="1" height="1" fill="#1e1d1b" /><rect x="1" y="5" width="1" height="1" fill="#1e1d1b" /><rect x="1" y="6" width="1" height="1" fill="#1e1e1e" /><rect x="1" y="7" width="1" height="1" fill="#212121" /><rect x="1" y="8" width="1" height="1" fill="#171717" /><rect x="1" y="9" width="1" height="1" fill="#000000" /><rect x="2" y="0" width="1" height="1" fill="#00080b" /><rect x="2" y="1" width="1" height="1" fill="#0d1518" /><rect x="2" y="2" width="1" height="1" fill="#000000" /><rect x="2" y="3" width="1" height="1" fill="#000000" /><rect x="2" y="4" width="1" height="1" fill="#000000" /><rect x="2" y="5" width="1" height="1" fill="#000000" /><rect x="2" y="6" width="1" height="1" fill="#000000" /><rect x="2" y="7" width="1" height="1" fill="#000000" /><rect x="2" y="8" width="1" height="1" fill="#000000" /><rect x="2" y="9" width="1" height="1" fill="#0d0d0d" /><rect x="3" y="0" width="1" height="1" fill="#1d1b1b" /><rect x="3" y="1" width="1" height="1" fill="#000000" /><rect x="3" y="2" width="1" height="1" fill="#a6a6a6" /><rect x="3" y="3" width="1" height="1" fill="#e0e0e0" /><rect x="3" y="4" width="1" height="1" fill="#dadada" /><rect x="3" y="5" width="1" height="1" fill="#d8d8d8" /><rect x="3" y="6" width="1" height="1" fill="#d7d7d7" /><rect x="3" y="7" width="1" height="1" fill="#e3e3e3" /><rect x="3" y="8" width="1" height="1" fill="#b3b3b3" /><rect x="3" y="9" width="1" height="1" fill="#000000" /><rect x="4" y="0" width="1" height="1" fill="#252525" /><rect x="4" y="1" width="1" height="1" fill="#000000" /><rect x="4" y="2" width="1" height="1" fill="#cbcbcb" /><rect x="4" y="3" width="1" height="1" fill="#ffffff" /><rect x="4" y="4" width="1" height="1" fill="#f7f7f7" /><rect x="4" y="5" width="1" height="1" fill="#ffffff" /><rect x="4" y="6" width="1" height="1" fill="#ffffff" /><rect x="4" y="7" width="1" height="1" fill="#ffffff" /><rect x="4" y="8" width="1" height="1" fill="#cecece" /><rect x="4" y="9" width="1" height="1" fill="#000000" /><rect x="5" y="0" width="1" height="1" fill="#242525" /><rect x="5" y="1" width="1" height="1" fill="#000000" /><rect x="5" y="2" width="1" height="1" fill="#cbcbcb" /><rect x="5" y="3" width="1" height="1" fill="#e9e9e9" /><rect x="5" y="4" width="1" height="1" fill="#000000" /><rect x="5" y="5" width="1" height="1" fill="#eeeeee" /><rect x="5" y="6" width="1" height="1" fill="#c4c4c4" /><rect x="5" y="7" width="1" height="1" fill="#000000" /><rect x="5" y="8" width="1" height="1" fill="#303030" /><rect x="5" y="9" width="1" height="1" fill="#000000" /><rect x="6" y="0" width="1" height="1" fill="#272727" /><rect x="6" y="1" width="1" height="1" fill="#000000" /><rect x="6" y="2" width="1" height="1" fill="#d3d3d3" /><rect x="6" y="3" width="1" height="1" fill="#f1f2f2" /><rect x="6" y="4" width="1" height="1" fill="#000000" /><rect x="6" y="5" width="1" height="1" fill="#f9f9f9" /><rect x="6" y="6" width="1" height="1" fill="#cbcbcc" /><rect x="6" y="7" width="1" height="1" fill="#000000" /><rect x="6" y="8" width="1" height="1" fill="#1e1e1e" /><rect x="6" y="9" width="1" height="1" fill="#000000" /><rect x="7" y="0" width="1" height="1" fill="#202020" /><rect x="7" y="1" width="1" height="1" fill="#000000" /><rect x="7" y="2" width="1" height="1" fill="#b8b8b8" /><rect x="7" y="3" width="1" height="1" fill="#d3d3d3" /><rect x="7" y="4" width="1" height="1" fill="#000000" /><rect x="7" y="5" width="1" height="1" fill="#b8b8b8" /><rect x="7" y="6" width="1" height="1" fill="#969696" /><rect x="7" y="7" width="1" height="1" fill="#000000" /><rect x="7" y="8" width="1" height="1" fill="#1e1e1e" /><rect x="7" y="9" width="1" height="1" fill="#000000" /><rect x="8" y="0" width="1" height="1" fill="#181818" /><rect x="8" y="1" width="1" height="1" fill="#000000" /><rect x="8" y="2" width="1" height="1" fill="#999999" /><rect x="8" y="3" width="1" height="1" fill="#b3b3b3" /><rect x="8" y="4" width="1" height="1" fill="#000000" /><rect x="8" y="5" width="1" height="1" fill="#000000" /><rect x="8" y="6" width="1" height="1" fill="#000000" /><rect x="8" y="7" width="1" height="1" fill="#222222" /><rect x="8" y="8" width="1" height="1" fill="#0d0d0d" /><rect x="8" y="9" width="1" height="1" fill="#000000" /><rect x="9" y="0" width="1" height="1" fill="#272727" /><rect x="9" y="1" width="1" height="1" fill="#000000" /><rect x="9" y="2" width="1" height="1" fill="#d3d3d3" /><rect x="9" y="3" width="1" height="1" fill="#f5f5f5" /><rect x="9" y="4" width="1" height="1" fill="#000000" /><rect x="9" y="5" width="1" height="1" fill="#000000" /><rect x="9" y="6" width="1" height="1" fill="#000000" /><rect x="9" y="7" width="1" height="1" fill="#000000" /><rect x="9" y="8" width="1" height="1" fill="#000000" /><rect x="9" y="9" width="1" height="1" fill="#0b0b0b" /></g></svg>