<svg width="800" height="1000" version="1.1" xmlns="http://www.w3.org/2000/svg" xmlns:xlink="http://www.w3.org/1999/xlink">
  <defs>
      <linearGradient id="Gradient2" x1="0" x2="1" y1="0" y2="1">
        <stop offset="0%" stop-color="#2d3c96"/>
        <stop offset="100%" stop-color="#d53392"/>
      </linearGradient>
  </defs>
  <rect x="10" y="10" width="780" height="980" fill="url(#Gradient2)" rx="50" ry="50" stroke="#ffd700" stroke-width="20"/>
  <text x="400" y="920" width="780" text-anchor="middle" style="font: bold 200px 'Helvetica Neue'; fill: #ffd700">04998</text>

  <g transform="translate(80 80) scale(64)">
<rect x="0" y="0" width="1" height="1" fill="#00060a" />
,<rect x="0" y="1" width="1" height="1" fill="#092127" />
,<rect x="0" y="2" width="1" height="1" fill="#000000" />
,<rect x="0" y="3" width="1" height="1" fill="#377a86" />
,<rect x="0" y="4" width="1" height="1" fill="#61cde2" />
,<rect x="0" y="5" width="1" height="1" fill="#61cee2" />
,<rect x="0" y="6" width="1" height="1" fill="#377a86" />
,<rect x="0" y="7" width="1" height="1" fill="#000000" />
,<rect x="0" y="8" width="1" height="1" fill="#102225" />
,<rect x="0" y="9" width="1" height="1" fill="#091012" />
,<rect x="1" y="0" width="1" height="1" fill="#000000" />
,<rect x="1" y="1" width="1" height="1" fill="#091517" />
,<rect x="1" y="2" width="1" height="1" fill="#000000" />
,<rect x="1" y="3" width="1" height="1" fill="#387e8a" />
,<rect x="1" y="4" width="1" height="1" fill="#64d3e8" />
,<rect x="1" y="5" width="1" height="1" fill="#64d3e9" />
,<rect x="1" y="6" width="1" height="1" fill="#3a7e8b" />
,<rect x="1" y="7" width="1" height="1" fill="#000000" />
,<rect x="1" y="8" width="1" height="1" fill="#000000" />
,<rect x="1" y="9" width="1" height="1" fill="#000000" />
,<rect x="2" y="0" width="1" height="1" fill="#001e25" />
,<rect x="2" y="1" width="1" height="1" fill="#03282f" />
,<rect x="2" y="2" width="1" height="1" fill="#000000" />
,<rect x="2" y="3" width="1" height="1" fill="#275a63" />
,<rect x="2" y="4" width="1" height="1" fill="#4799a9" />
,<rect x="2" y="5" width="1" height="1" fill="#479aa9" />
,<rect x="2" y="6" width="1" height="1" fill="#265963" />
,<rect x="2" y="7" width="1" height="1" fill="#110000" />
,<rect x="2" y="8" width="1" height="1" fill="#23363a" />
,<rect x="2" y="9" width="1" height="1" fill="#213132" />
,<rect x="3" y="0" width="1" height="1" fill="#019cb7" />
,<rect x="3" y="1" width="1" height="1" fill="#0aa4c0" />
,<rect x="3" y="2" width="1" height="1" fill="#00788e" />
,<rect x="3" y="3" width="1" height="1" fill="#326870" />
,<rect x="3" y="4" width="1" height="1" fill="#58bccf" />
,<rect x="3" y="5" width="1" height="1" fill="#5abed1" />
,<rect x="3" y="6" width="1" height="1" fill="#155d6a" />
,<rect x="3" y="7" width="1" height="1" fill="#83b1b7" />
,<rect x="3" y="8" width="1" height="1" fill="#a6e5ee" />
,<rect x="3" y="9" width="1" height="1" fill="#a0dce5" />
,<rect x="4" y="0" width="1" height="1" fill="#02a8c4" />
,<rect x="4" y="1" width="1" height="1" fill="#0cb0cc" />
,<rect x="4" y="2" width="1" height="1" fill="#007f97" />
,<rect x="4" y="3" width="1" height="1" fill="#397680" />
,<rect x="4" y="4" width="1" height="1" fill="#63d3e8" />
,<rect x="4" y="5" width="1" height="1" fill="#67d5ea" />
,<rect x="4" y="6" width="1" height="1" fill="#1b6a78" />
,<rect x="4" y="7" width="1" height="1" fill="#92c5cc" />
,<rect x="4" y="8" width="1" height="1" fill="#b9feff" />
,<rect x="4" y="9" width="1" height="1" fill="#b2f5fe" />
,<rect x="5" y="0" width="1" height="1" fill="#04a4c0" />
,<rect x="5" y="1" width="1" height="1" fill="#0aacc9" />
,<rect x="5" y="2" width="1" height="1" fill="#007d94" />
,<rect x="5" y="3" width="1" height="1" fill="#36727c" />
,<rect x="5" y="4" width="1" height="1" fill="#60cde2" />
,<rect x="5" y="5" width="1" height="1" fill="#62cee3" />
,<rect x="5" y="6" width="1" height="1" fill="#2a707d" />
,<rect x="5" y="7" width="1" height="1" fill="#67898d" />
,<rect x="5" y="8" width="1" height="1" fill="#85b9c0" />
,<rect x="5" y="9" width="1" height="1" fill="#81b2b9" />
,<rect x="6" y="0" width="1" height="1" fill="#04a5c1" />
,<rect x="6" y="1" width="1" height="1" fill="#0aadca" />
,<rect x="6" y="2" width="1" height="1" fill="#007e95" />
,<rect x="6" y="3" width="1" height="1" fill="#36727c" />
,<rect x="6" y="4" width="1" height="1" fill="#60cce1" />
,<rect x="6" y="5" width="1" height="1" fill="#60cce1" />
,<rect x="6" y="6" width="1" height="1" fill="#397a87" />
,<rect x="6" y="7" width="1" height="1" fill="#000000" />
,<rect x="6" y="8" width="1" height="1" fill="#000000" />
,<rect x="6" y="9" width="1" height="1" fill="#000000" />
,<rect x="7" y="0" width="1" height="1" fill="#04a5c1" />
,<rect x="7" y="1" width="1" height="1" fill="#0dadca" />
,<rect x="7" y="2" width="1" height="1" fill="#007d94" />
,<rect x="7" y="3" width="1" height="1" fill="#397781" />
,<rect x="7" y="4" width="1" height="1" fill="#64d5ea" />
,<rect x="7" y="5" width="1" height="1" fill="#64d5ea" />
,<rect x="7" y="6" width="1" height="1" fill="#387e8b" />
,<rect x="7" y="7" width="1" height="1" fill="#000000" />
,<rect x="7" y="8" width="1" height="1" fill="#182c30" />
,<rect x="7" y="9" width="1" height="1" fill="#132021" />
,<rect x="8" y="0" width="1" height="1" fill="#04a4c0" />
,<rect x="8" y="1" width="1" height="1" fill="#07acc7" />
,<rect x="8" y="2" width="1" height="1" fill="#008198" />
,<rect x="8" y="3" width="1" height="1" fill="#2a565d" />
,<rect x="8" y="4" width="1" height="1" fill="#4ea7b8" />
,<rect x="8" y="5" width="1" height="1" fill="#4ea6b7" />
,<rect x="8" y="6" width="1" height="1" fill="#2a606b" />
,<rect x="8" y="7" width="1" height="1" fill="#000000" />
,<rect x="8" y="8" width="1" height="1" fill="#021215" />
,<rect x="8" y="9" width="1" height="1" fill="#000000" />
,<rect x="9" y="0" width="1" height="1" fill="#02a9c6" />
,<rect x="9" y="1" width="1" height="1" fill="#02afcc" />
,<rect x="9" y="2" width="1" height="1" fill="#048da5" />
,<rect x="9" y="3" width="1" height="1" fill="#000000" />
,<rect x="9" y="4" width="1" height="1" fill="#000000" />
,<rect x="9" y="5" width="1" height="1" fill="#000000" />
,<rect x="9" y="6" width="1" height="1" fill="#000000" />
,<rect x="9" y="7" width="1" height="1" fill="#020b0d" />
,<rect x="9" y="8" width="1" height="1" fill="#000000" />
,<rect x="9" y="9" width="1" height="1" fill="#000000" />

  </g>
</svg>