<svg width="800" height="1000" xmlns="http://www.w3.org/2000/svg"><defs><linearGradient id="g" x1="0" x2="1" y1="0" y2="1"><stop offset="0%" stop-color="#2d3c96"/><stop offset="100%" stop-color="#d53392"/></linearGradient></defs><rect x="10" y="10" width="780" height="980" fill="url(#g)" rx="50" ry="50" stroke="gold" stroke-width="20"/><text x="400" y="920" width="780" text-anchor="middle" style="font:bold 200px 'Helvetica Neue';fill:gold">05024</text><g transform="translate(80 80) scale(64)"><rect x="0" y="0" width="1" height="1" fill="#bcbbff" /><rect x="0" y="1" width="1" height="1" fill="#bcbcfc" /><rect x="0" y="2" width="1" height="1" fill="#bcbef9" /><rect x="0" y="3" width="1" height="1" fill="#bcbef7" /><rect x="0" y="4" width="1" height="1" fill="#bdbef7" /><rect x="0" y="5" width="1" height="1" fill="#bdbef7" /><rect x="0" y="6" width="1" height="1" fill="#bdbdf9" /><rect x="0" y="7" width="1" height="1" fill="#bebdf9" /><rect x="0" y="8" width="1" height="1" fill="#c1bdf8" /><rect x="0" y="9" width="1" height="1" fill="#c2bcf8" /><rect x="1" y="0" width="1" height="1" fill="#adacee" /><rect x="1" y="1" width="1" height="1" fill="#aeaeee" /><rect x="1" y="2" width="1" height="1" fill="#adafea" /><rect x="1" y="3" width="1" height="1" fill="#adafe8" /><rect x="1" y="4" width="1" height="1" fill="#aeafe8" /><rect x="1" y="5" width="1" height="1" fill="#afafeb" /><rect x="1" y="6" width="1" height="1" fill="#afafeb" /><rect x="1" y="7" width="1" height="1" fill="#b0afeb" /><rect x="1" y="8" width="1" height="1" fill="#b2aeeb" /><rect x="1" y="9" width="1" height="1" fill="#b3ade9" /><rect x="2" y="0" width="1" height="1" fill="#afb0f1" /><rect x="2" y="1" width="1" height="1" fill="#afb0f0" /><rect x="2" y="2" width="1" height="1" fill="#b1b1ef" /><rect x="2" y="3" width="1" height="1" fill="#b1b1ef" /><rect x="2" y="4" width="1" height="1" fill="#b2b0ef" /><rect x="2" y="5" width="1" height="1" fill="#b2b0ef" /><rect x="2" y="6" width="1" height="1" fill="#b2b0f1" /><rect x="2" y="7" width="1" height="1" fill="#b5b0f2" /><rect x="2" y="8" width="1" height="1" fill="#b8aff2" /><rect x="2" y="9" width="1" height="1" fill="#b9aef0" /><rect x="3" y="0" width="1" height="1" fill="#afb0f0" /><rect x="3" y="1" width="1" height="1" fill="#b0b1f1" /><rect x="3" y="2" width="1" height="1" fill="#b1b1f1" /><rect x="3" y="3" width="1" height="1" fill="#b1b1f1" /><rect x="3" y="4" width="1" height="1" fill="#b2b0f1" /><rect x="3" y="5" width="1" height="1" fill="#b5b0f2" /><rect x="3" y="6" width="1" height="1" fill="#b5b0f3" /><rect x="3" y="7" width="1" height="1" fill="#b6aff3" /><rect x="3" y="8" width="1" height="1" fill="#b9aef2" /><rect x="3" y="9" width="1" height="1" fill="#bbaff1" /><rect x="4" y="0" width="1" height="1" fill="#acb0ef" /><rect x="4" y="1" width="1" height="1" fill="#aeafef" /><rect x="4" y="2" width="1" height="1" fill="#b0b0f0" /><rect x="4" y="3" width="1" height="1" fill="#b1aef1" /><rect x="4" y="4" width="1" height="1" fill="#b3aef1" /><rect x="4" y="5" width="1" height="1" fill="#b4adf1" /><rect x="4" y="6" width="1" height="1" fill="#b7adf4" /><rect x="4" y="7" width="1" height="1" fill="#b8adf2" /><rect x="4" y="8" width="1" height="1" fill="#b9acf1" /><rect x="4" y="9" width="1" height="1" fill="#bbacef" /><rect x="5" y="0" width="1" height="1" fill="#afb3f2" /><rect x="5" y="1" width="1" height="1" fill="#b1b2f3" /><rect x="5" y="2" width="1" height="1" fill="#b3b2f4" /><rect x="5" y="3" width="1" height="1" fill="#b4b1f6" /><rect x="5" y="4" width="1" height="1" fill="#b7b0f6" /><rect x="5" y="5" width="1" height="1" fill="#b9aff6" /><rect x="5" y="6" width="1" height="1" fill="#bbb0f5" /><rect x="5" y="7" width="1" height="1" fill="#bcaff4" /><rect x="5" y="8" width="1" height="1" fill="#beaff2" /><rect x="5" y="9" width="1" height="1" fill="#c0b0f1" /><rect x="6" y="0" width="1" height="1" fill="#acb0f0" /><rect x="6" y="1" width="1" height="1" fill="#aeaff2" /><rect x="6" y="2" width="1" height="1" fill="#b1aef3" /><rect x="6" y="3" width="1" height="1" fill="#b3adf3" /><rect x="6" y="4" width="1" height="1" fill="#b6acf3" /><rect x="6" y="5" width="1" height="1" fill="#b7acf1" /><rect x="6" y="6" width="1" height="1" fill="#b9acf1" /><rect x="6" y="7" width="1" height="1" fill="#bbaced" /><rect x="6" y="8" width="1" height="1" fill="#bcacea" /><rect x="6" y="9" width="1" height="1" fill="#bfade9" /><rect x="7" y="0" width="1" height="1" fill="#b0b1f4" /><rect x="7" y="1" width="1" height="1" fill="#b2b1f5" /><rect x="7" y="2" width="1" height="1" fill="#b3b0f7" /><rect x="7" y="3" width="1" height="1" fill="#b6aff5" /><rect x="7" y="4" width="1" height="1" fill="#b8aef3" /><rect x="7" y="5" width="1" height="1" fill="#baadf2" /><rect x="7" y="6" width="1" height="1" fill="#bdafed" /><rect x="7" y="7" width="1" height="1" fill="#bdafea" /><rect x="7" y="8" width="1" height="1" fill="#bfb0e7" /><rect x="7" y="9" width="1" height="1" fill="#bfb1e4" /><rect x="8" y="0" width="1" height="1" fill="#b1b2f5" /><rect x="8" y="1" width="1" height="1" fill="#b3b0f7" /><rect x="8" y="2" width="1" height="1" fill="#b6b0f8" /><rect x="8" y="3" width="1" height="1" fill="#b8aef5" /><rect x="8" y="4" width="1" height="1" fill="#b8adf1" /><rect x="8" y="5" width="1" height="1" fill="#b9adeb" /><rect x="8" y="6" width="1" height="1" fill="#baade5" /><rect x="8" y="7" width="1" height="1" fill="#bbafe1" /><rect x="8" y="8" width="1" height="1" fill="#c0b5e0" /><rect x="8" y="9" width="1" height="1" fill="#c0b5df" /><rect x="9" y="0" width="1" height="1" fill="#b2b1f5" /><rect x="9" y="1" width="1" height="1" fill="#b3b0f7" /><rect x="9" y="2" width="1" height="1" fill="#b6aef7" /><rect x="9" y="3" width="1" height="1" fill="#b8aef3" /><rect x="9" y="4" width="1" height="1" fill="#b9aded" /><rect x="9" y="5" width="1" height="1" fill="#b9aee8" /><rect x="9" y="6" width="1" height="1" fill="#beb4e6" /><rect x="9" y="7" width="1" height="1" fill="#b6aed7" /><rect x="9" y="8" width="1" height="1" fill="#c1b9de" /><rect x="9" y="9" width="1" height="1" fill="#aea8ca" /></g></svg>