<svg width="800" height="1000" xmlns="http://www.w3.org/2000/svg"><defs><linearGradient id="g" x1="0" x2="1" y1="0" y2="1"><stop offset="0%" stop-color="#2d3c96"/><stop offset="100%" stop-color="#d53392"/></linearGradient></defs><rect x="10" y="10" width="780" height="980" fill="url(#g)" rx="50" ry="50" stroke="gold" stroke-width="20"/><text x="400" y="920" width="780" text-anchor="middle" style="font:bold 200px 'Helvetica Neue';fill:gold">05027</text><g transform="translate(80 80) scale(64)"><rect x="0" y="0" width="1" height="1" fill="#d3aeda" /><rect x="0" y="1" width="1" height="1" fill="#d6afdb" /><rect x="0" y="2" width="1" height="1" fill="#d5addf" /><rect x="0" y="3" width="1" height="1" fill="#d3abdf" /><rect x="0" y="4" width="1" height="1" fill="#d2aadf" /><rect x="0" y="5" width="1" height="1" fill="#d3aeda" /><rect x="0" y="6" width="1" height="1" fill="#dab7d5" /><rect x="0" y="7" width="1" height="1" fill="#927186" /><rect x="0" y="8" width="1" height="1" fill="#190008" /><rect x="0" y="9" width="1" height="1" fill="#835d72" /><rect x="1" y="0" width="1" height="1" fill="#d4add9" /><rect x="1" y="1" width="1" height="1" fill="#d6afdb" /><rect x="1" y="2" width="1" height="1" fill="#d5aedd" /><rect x="1" y="3" width="1" height="1" fill="#d3abdd" /><rect x="1" y="4" width="1" height="1" fill="#d3a8dd" /><rect x="1" y="5" width="1" height="1" fill="#d4aad8" /><rect x="1" y="6" width="1" height="1" fill="#dab5d6" /><rect x="1" y="7" width="1" height="1" fill="#9d7a92" /><rect x="1" y="8" width="1" height="1" fill="#1b000c" /><rect x="1" y="9" width="1" height="1" fill="#664055" /><rect x="2" y="0" width="1" height="1" fill="#d3acd9" /><rect x="2" y="1" width="1" height="1" fill="#d2add8" /><rect x="2" y="2" width="1" height="1" fill="#d3aeda" /><rect x="2" y="3" width="1" height="1" fill="#d4adda" /><rect x="2" y="4" width="1" height="1" fill="#d9abda" /><rect x="2" y="5" width="1" height="1" fill="#d9abd9" /><rect x="2" y="6" width="1" height="1" fill="#deb4da" /><rect x="2" y="7" width="1" height="1" fill="#b691b2" /><rect x="2" y="8" width="1" height="1" fill="#200018" /><rect x="2" y="9" width="1" height="1" fill="#150007" /><rect x="3" y="0" width="1" height="1" fill="#d3acd9" /><rect x="3" y="1" width="1" height="1" fill="#d1aed8" /><rect x="3" y="2" width="1" height="1" fill="#d3aed9" /><rect x="3" y="3" width="1" height="1" fill="#d4add9" /><rect x="3" y="4" width="1" height="1" fill="#daabd9" /><rect x="3" y="5" width="1" height="1" fill="#dbaad7" /><rect x="3" y="6" width="1" height="1" fill="#e1b4dd" /><rect x="3" y="7" width="1" height="1" fill="#d6aed1" /><rect x="3" y="8" width="1" height="1" fill="#644660" /><rect x="3" y="9" width="1" height="1" fill="#140007" /><rect x="4" y="0" width="1" height="1" fill="#d4adda" /><rect x="4" y="1" width="1" height="1" fill="#d3aeda" /><rect x="4" y="2" width="1" height="1" fill="#d4add9" /><rect x="4" y="3" width="1" height="1" fill="#d7acd9" /><rect x="4" y="4" width="1" height="1" fill="#dcabd8" /><rect x="4" y="5" width="1" height="1" fill="#deaad8" /><rect x="4" y="6" width="1" height="1" fill="#d5a6d0" /><rect x="4" y="7" width="1" height="1" fill="#deb4d8" /><rect x="4" y="8" width="1" height="1" fill="#987792" /><rect x="4" y="9" width="1" height="1" fill="#140007" /><rect x="5" y="0" width="1" height="1" fill="#d4adda" /><rect x="5" y="1" width="1" height="1" fill="#d4adda" /><rect x="5" y="2" width="1" height="1" fill="#d6add9" /><rect x="5" y="3" width="1" height="1" fill="#daadd8" /><rect x="5" y="4" width="1" height="1" fill="#deaad8" /><rect x="5" y="5" width="1" height="1" fill="#dfaad6" /><rect x="5" y="6" width="1" height="1" fill="#dfafd7" /><rect x="5" y="7" width="1" height="1" fill="#e3b7da" /><rect x="5" y="8" width="1" height="1" fill="#aa88a1" /><rect x="5" y="9" width="1" height="1" fill="#180009" /><rect x="6" y="0" width="1" height="1" fill="#d4adda" /><rect x="6" y="1" width="1" height="1" fill="#d7addb" /><rect x="6" y="2" width="1" height="1" fill="#d8adda" /><rect x="6" y="3" width="1" height="1" fill="#dcabd8" /><rect x="6" y="4" width="1" height="1" fill="#e1a9d8" /><rect x="6" y="5" width="1" height="1" fill="#e2a9d6" /><rect x="6" y="6" width="1" height="1" fill="#dda8d2" /><rect x="6" y="7" width="1" height="1" fill="#e3b5d9" /><rect x="6" y="8" width="1" height="1" fill="#d4adc8" /><rect x="6" y="9" width="1" height="1" fill="#5e3c4d" /><rect x="7" y="0" width="1" height="1" fill="#d7addb" /><rect x="7" y="1" width="1" height="1" fill="#d8adda" /><rect x="7" y="2" width="1" height="1" fill="#dbacd8" /><rect x="7" y="3" width="1" height="1" fill="#deabd6" /><rect x="7" y="4" width="1" height="1" fill="#e3aad7" /><rect x="7" y="5" width="1" height="1" fill="#e4a9d5" /><rect x="7" y="6" width="1" height="1" fill="#e7aed7" /><rect x="7" y="7" width="1" height="1" fill="#daa8cb" /><rect x="7" y="8" width="1" height="1" fill="#dfb4cf" /><rect x="7" y="9" width="1" height="1" fill="#997486" /><rect x="8" y="0" width="1" height="1" fill="#d8addb" /><rect x="8" y="1" width="1" height="1" fill="#daacda" /><rect x="8" y="2" width="1" height="1" fill="#dfabd9" /><rect x="8" y="3" width="1" height="1" fill="#e2aad7" /><rect x="8" y="4" width="1" height="1" fill="#e6a8d7" /><rect x="8" y="5" width="1" height="1" fill="#e7a8d5" /><rect x="8" y="6" width="1" height="1" fill="#e8abd5" /><rect x="8" y="7" width="1" height="1" fill="#e3add1" /><rect x="8" y="8" width="1" height="1" fill="#ecbeda" /><rect x="8" y="9" width="1" height="1" fill="#ba93a6" /><rect x="9" y="0" width="1" height="1" fill="#daacda" /><rect x="9" y="1" width="1" height="1" fill="#dcabd8" /><rect x="9" y="2" width="1" height="1" fill="#e2aad7" /><rect x="9" y="3" width="1" height="1" fill="#e4a9d5" /><rect x="9" y="4" width="1" height="1" fill="#e7a8d5" /><rect x="9" y="5" width="1" height="1" fill="#e9a8d3" /><rect x="9" y="6" width="1" height="1" fill="#eaacd5" /><rect x="9" y="7" width="1" height="1" fill="#e2a8ce" /><rect x="9" y="8" width="1" height="1" fill="#e1afcc" /><rect x="9" y="9" width="1" height="1" fill="#ddb2c6" /></g></svg>