<svg width="800" height="1000" xmlns="http://www.w3.org/2000/svg"><defs><linearGradient id="g" x1="0" x2="1" y1="0" y2="1"><stop offset="0%" stop-color="#2d3c96"/><stop offset="100%" stop-color="#d53392"/></linearGradient></defs><rect x="10" y="10" width="780" height="980" fill="url(#g)" rx="50" ry="50" stroke="gold" stroke-width="20"/><text x="400" y="920" width="780" text-anchor="middle" style="font:bold 200px 'Helvetica Neue';fill:gold">05026</text><g transform="translate(80 80) scale(64)"><rect x="0" y="0" width="1" height="1" fill="#c1abe9" /><rect x="0" y="1" width="1" height="1" fill="#c7adee" /><rect x="0" y="2" width="1" height="1" fill="#c7aaed" /><rect x="0" y="3" width="1" height="1" fill="#c5abe8" /><rect x="0" y="4" width="1" height="1" fill="#c8b3de" /><rect x="0" y="5" width="1" height="1" fill="#b6a9c5" /><rect x="0" y="6" width="1" height="1" fill="#302c3b" /><rect x="0" y="7" width="1" height="1" fill="#000015" /><rect x="0" y="8" width="1" height="1" fill="#9598c5" /><rect x="0" y="9" width="1" height="1" fill="#aeb3f3" /><rect x="1" y="0" width="1" height="1" fill="#c1ace5" /><rect x="1" y="1" width="1" height="1" fill="#c7adec" /><rect x="1" y="2" width="1" height="1" fill="#c9acee" /><rect x="1" y="3" width="1" height="1" fill="#c6ade7" /><rect x="1" y="4" width="1" height="1" fill="#c8b2e0" /><rect x="1" y="5" width="1" height="1" fill="#bbaccb" /><rect x="1" y="6" width="1" height="1" fill="#4d4658" /><rect x="1" y="7" width="1" height="1" fill="#000014" /><rect x="1" y="8" width="1" height="1" fill="#8f90bc" /><rect x="1" y="9" width="1" height="1" fill="#b2b4f1" /><rect x="2" y="0" width="1" height="1" fill="#c4ade5" /><rect x="2" y="1" width="1" height="1" fill="#c8afe9" /><rect x="2" y="2" width="1" height="1" fill="#caaded" /><rect x="2" y="3" width="1" height="1" fill="#c8ace7" /><rect x="2" y="4" width="1" height="1" fill="#c9b2e0" /><rect x="2" y="5" width="1" height="1" fill="#beafd0" /><rect x="2" y="6" width="1" height="1" fill="#5e556a" /><rect x="2" y="7" width="1" height="1" fill="#000013" /><rect x="2" y="8" width="1" height="1" fill="#8d8bb3" /><rect x="2" y="9" width="1" height="1" fill="#b7b3ee" /><rect x="3" y="0" width="1" height="1" fill="#c5ade1" /><rect x="3" y="1" width="1" height="1" fill="#caafe6" /><rect x="3" y="2" width="1" height="1" fill="#ccaeea" /><rect x="3" y="3" width="1" height="1" fill="#c9ace6" /><rect x="3" y="4" width="1" height="1" fill="#cab2e2" /><rect x="3" y="5" width="1" height="1" fill="#c1b0d4" /><rect x="3" y="6" width="1" height="1" fill="#675b73" /><rect x="3" y="7" width="1" height="1" fill="#030013" /><rect x="3" y="8" width="1" height="1" fill="#8e87b0" /><rect x="3" y="9" width="1" height="1" fill="#bcb5eb" /><rect x="4" y="0" width="1" height="1" fill="#c9aee1" /><rect x="4" y="1" width="1" height="1" fill="#cbaee4" /><rect x="4" y="2" width="1" height="1" fill="#cbaee8" /><rect x="4" y="3" width="1" height="1" fill="#c9ace4" /><rect x="4" y="4" width="1" height="1" fill="#c8aede" /><rect x="4" y="5" width="1" height="1" fill="#c8b2d9" /><rect x="4" y="6" width="1" height="1" fill="#796983" /><rect x="4" y="7" width="1" height="1" fill="#070013" /><rect x="4" y="8" width="1" height="1" fill="#7e7296" /><rect x="4" y="9" width="1" height="1" fill="#c1b5e7" /><rect x="5" y="0" width="1" height="1" fill="#caaedf" /><rect x="5" y="1" width="1" height="1" fill="#ccaee0" /><rect x="5" y="2" width="1" height="1" fill="#ccaee4" /><rect x="5" y="3" width="1" height="1" fill="#caace2" /><rect x="5" y="4" width="1" height="1" fill="#caaedf" /><rect x="5" y="5" width="1" height="1" fill="#cbb2da" /><rect x="5" y="6" width="1" height="1" fill="#8c7a94" /><rect x="5" y="7" width="1" height="1" fill="#080010" /><rect x="5" y="8" width="1" height="1" fill="#746586" /><rect x="5" y="9" width="1" height="1" fill="#c7b6e2" /><rect x="6" y="0" width="1" height="1" fill="#cbaede" /><rect x="6" y="1" width="1" height="1" fill="#ceaedf" /><rect x="6" y="2" width="1" height="1" fill="#ceade2" /><rect x="6" y="3" width="1" height="1" fill="#cdace3" /><rect x="6" y="4" width="1" height="1" fill="#cfafe1" /><rect x="6" y="5" width="1" height="1" fill="#cfb2de" /><rect x="6" y="6" width="1" height="1" fill="#a089a5" /><rect x="6" y="7" width="1" height="1" fill="#0b000e" /><rect x="6" y="8" width="1" height="1" fill="#584460" /><rect x="6" y="9" width="1" height="1" fill="#c9b3d9" /><rect x="7" y="0" width="1" height="1" fill="#cdaddc" /><rect x="7" y="1" width="1" height="1" fill="#cfaedd" /><rect x="7" y="2" width="1" height="1" fill="#cfade0" /><rect x="7" y="3" width="1" height="1" fill="#cface2" /><rect x="7" y="4" width="1" height="1" fill="#d1afe2" /><rect x="7" y="5" width="1" height="1" fill="#d3b4e0" /><rect x="7" y="6" width="1" height="1" fill="#ad93b0" /><rect x="7" y="7" width="1" height="1" fill="#140012" /><rect x="7" y="8" width="1" height="1" fill="#311933" /><rect x="7" y="9" width="1" height="1" fill="#c3a8c9" /><rect x="8" y="0" width="1" height="1" fill="#cfaedb" /><rect x="8" y="1" width="1" height="1" fill="#d2aeda" /><rect x="8" y="2" width="1" height="1" fill="#d2ade0" /><rect x="8" y="3" width="1" height="1" fill="#d1ace0" /><rect x="8" y="4" width="1" height="1" fill="#d3aee2" /><rect x="8" y="5" width="1" height="1" fill="#d4b3e0" /><rect x="8" y="6" width="1" height="1" fill="#bda0be" /><rect x="8" y="7" width="1" height="1" fill="#3c2036" /><rect x="8" y="8" width="1" height="1" fill="#180011" /><rect x="8" y="9" width="1" height="1" fill="#ba99b4" /><rect x="9" y="0" width="1" height="1" fill="#d1add9" /><rect x="9" y="1" width="1" height="1" fill="#d4afda" /><rect x="9" y="2" width="1" height="1" fill="#d3adde" /><rect x="9" y="3" width="1" height="1" fill="#d2abe0" /><rect x="9" y="4" width="1" height="1" fill="#d3ace1" /><rect x="9" y="5" width="1" height="1" fill="#d4b0dc" /><rect x="9" y="6" width="1" height="1" fill="#d1b0cd" /><rect x="9" y="7" width="1" height="1" fill="#705065" /><rect x="9" y="8" width="1" height="1" fill="#140009" /><rect x="9" y="9" width="1" height="1" fill="#a48199" /></g></svg>