<svg width="800" height="1000" xmlns="http://www.w3.org/2000/svg"><defs><linearGradient id="g" x1="0" x2="1" y1="0" y2="1"><stop offset="0%" stop-color="#2d3c96"/><stop offset="100%" stop-color="#d53392"/></linearGradient></defs><rect x="10" y="10" width="780" height="980" fill="url(#g)" rx="50" ry="50" stroke="gold" stroke-width="20"/><text x="400" y="920" width="780" text-anchor="middle" style="font:bold 200px 'Helvetica Neue';fill:gold">05025</text><g transform="translate(80 80) scale(64)"><rect x="0" y="0" width="1" height="1" fill="#b6b0f6" /><rect x="0" y="1" width="1" height="1" fill="#b6aff5" /><rect x="0" y="2" width="1" height="1" fill="#b9adf5" /><rect x="0" y="3" width="1" height="1" fill="#baadf2" /><rect x="0" y="4" width="1" height="1" fill="#baafeb" /><rect x="0" y="5" width="1" height="1" fill="#bab0e4" /><rect x="0" y="6" width="1" height="1" fill="#b7aed9" /><rect x="0" y="7" width="1" height="1" fill="#c6c0e4" /><rect x="0" y="8" width="1" height="1" fill="#9390af" /><rect x="0" y="9" width="1" height="1" fill="#454665" /><rect x="1" y="0" width="1" height="1" fill="#b6aff3" /><rect x="1" y="1" width="1" height="1" fill="#b8aef3" /><rect x="1" y="2" width="1" height="1" fill="#baadf2" /><rect x="1" y="3" width="1" height="1" fill="#bdaeef" /><rect x="1" y="4" width="1" height="1" fill="#bdb0e8" /><rect x="1" y="5" width="1" height="1" fill="#bcb3e2" /><rect x="1" y="6" width="1" height="1" fill="#c5bfe5" /><rect x="1" y="7" width="1" height="1" fill="#9f9ebe" /><rect x="1" y="8" width="1" height="1" fill="#0e122f" /><rect x="1" y="9" width="1" height="1" fill="#00001e" /><rect x="2" y="0" width="1" height="1" fill="#b9aef0" /><rect x="2" y="1" width="1" height="1" fill="#baadf2" /><rect x="2" y="2" width="1" height="1" fill="#bcadf0" /><rect x="2" y="3" width="1" height="1" fill="#beb0ee" /><rect x="2" y="4" width="1" height="1" fill="#bfb2e8" /><rect x="2" y="5" width="1" height="1" fill="#beb5e2" /><rect x="2" y="6" width="1" height="1" fill="#aca8cb" /><rect x="2" y="7" width="1" height="1" fill="#474867" /><rect x="2" y="8" width="1" height="1" fill="#00001e" /><rect x="2" y="9" width="1" height="1" fill="#475477" /><rect x="3" y="0" width="1" height="1" fill="#baaeee" /><rect x="3" y="1" width="1" height="1" fill="#bcadee" /><rect x="3" y="2" width="1" height="1" fill="#beaeed" /><rect x="3" y="3" width="1" height="1" fill="#bfb0eb" /><rect x="3" y="4" width="1" height="1" fill="#bfb2e7" /><rect x="3" y="5" width="1" height="1" fill="#bdb4df" /><rect x="3" y="6" width="1" height="1" fill="#8a86a9" /><rect x="3" y="7" width="1" height="1" fill="#00001c" /><rect x="3" y="8" width="1" height="1" fill="#1f2a4a" /><rect x="3" y="9" width="1" height="1" fill="#8395bd" /><rect x="4" y="0" width="1" height="1" fill="#bdafec" /><rect x="4" y="1" width="1" height="1" fill="#beaeed" /><rect x="4" y="2" width="1" height="1" fill="#beaeec" /><rect x="4" y="3" width="1" height="1" fill="#beafe8" /><rect x="4" y="4" width="1" height="1" fill="#bcb0e2" /><rect x="4" y="5" width="1" height="1" fill="#bab1dc" /><rect x="4" y="6" width="1" height="1" fill="#656388" /><rect x="4" y="7" width="1" height="1" fill="#000020" /><rect x="4" y="8" width="1" height="1" fill="#657398" /><rect x="4" y="9" width="1" height="1" fill="#95aad9" /><rect x="5" y="0" width="1" height="1" fill="#c1afed" /><rect x="5" y="1" width="1" height="1" fill="#c1aeee" /><rect x="5" y="2" width="1" height="1" fill="#c1adec" /><rect x="5" y="3" width="1" height="1" fill="#c0ace7" /><rect x="5" y="4" width="1" height="1" fill="#bdaddc" /><rect x="5" y="5" width="1" height="1" fill="#b7afd4" /><rect x="5" y="6" width="1" height="1" fill="#383756" /><rect x="5" y="7" width="1" height="1" fill="#00021f" /><rect x="5" y="8" width="1" height="1" fill="#8491bb" /><rect x="5" y="9" width="1" height="1" fill="#9db2e7" /><rect x="6" y="0" width="1" height="1" fill="#bfaaed" /><rect x="6" y="1" width="1" height="1" fill="#c4adf3" /><rect x="6" y="2" width="1" height="1" fill="#c2a8ef" /><rect x="6" y="3" width="1" height="1" fill="#c6aeec" /><rect x="6" y="4" width="1" height="1" fill="#c6b4de" /><rect x="6" y="5" width="1" height="1" fill="#a89eb9" /><rect x="6" y="6" width="1" height="1" fill="#060515" /><rect x="6" y="7" width="1" height="1" fill="#040a20" /><rect x="6" y="8" width="1" height="1" fill="#909cc6" /><rect x="6" y="9" width="1" height="1" fill="#9fafed" /><rect x="7" y="0" width="1" height="1" fill="#c0a9ed" /><rect x="7" y="1" width="1" height="1" fill="#c6acf5" /><rect x="7" y="2" width="1" height="1" fill="#c3a7f1" /><rect x="7" y="3" width="1" height="1" fill="#c7adec" /><rect x="7" y="4" width="1" height="1" fill="#c8b3dc" /><rect x="7" y="5" width="1" height="1" fill="#ab9fb7" /><rect x="7" y="6" width="1" height="1" fill="#03010c" /><rect x="7" y="7" width="1" height="1" fill="#010619" /><rect x="7" y="8" width="1" height="1" fill="#959dcb" /><rect x="7" y="9" width="1" height="1" fill="#a3b1f2" /><rect x="8" y="0" width="1" height="1" fill="#c0aaeb" /><rect x="8" y="1" width="1" height="1" fill="#c7acf3" /><rect x="8" y="2" width="1" height="1" fill="#c6a8f0" /><rect x="8" y="3" width="1" height="1" fill="#c6aceb" /><rect x="8" y="4" width="1" height="1" fill="#c8b3dc" /><rect x="8" y="5" width="1" height="1" fill="#aea2ba" /><rect x="8" y="6" width="1" height="1" fill="#050310" /><rect x="8" y="7" width="1" height="1" fill="#000215" /><rect x="8" y="8" width="1" height="1" fill="#979fcd" /><rect x="8" y="9" width="1" height="1" fill="#a9b4f6" /><rect x="9" y="0" width="1" height="1" fill="#c0aaea" /><rect x="9" y="1" width="1" height="1" fill="#c6adf1" /><rect x="9" y="2" width="1" height="1" fill="#c4a9ee" /><rect x="9" y="3" width="1" height="1" fill="#c6ace9" /><rect x="9" y="4" width="1" height="1" fill="#c7b2dd" /><rect x="9" y="5" width="1" height="1" fill="#b2a5bf" /><rect x="9" y="6" width="1" height="1" fill="#151321" /><rect x="9" y="7" width="1" height="1" fill="#000015" /><rect x="9" y="8" width="1" height="1" fill="#979eca" /><rect x="9" y="9" width="1" height="1" fill="#adb5f6" /></g></svg>