<svg width="800" height="1000" xmlns="http://www.w3.org/2000/svg"><defs><linearGradient id="g" x1="0" x2="1" y1="0" y2="1"><stop offset="0%" stop-color="#2d3c96"/><stop offset="100%" stop-color="#d53392"/></linearGradient></defs><rect x="10" y="10" width="780" height="980" fill="url(#g)" rx="50" ry="50" stroke="gold" stroke-width="20"/><text x="400" y="920" width="780" text-anchor="middle" style="font:bold 200px 'Helvetica Neue';fill:gold">05028</text><g transform="translate(80 80) scale(64)"><rect x="0" y="0" width="1" height="1" fill="#ddacd9" /><rect x="0" y="1" width="1" height="1" fill="#e0abd7" /><rect x="0" y="2" width="1" height="1" fill="#e4a9d5" /><rect x="0" y="3" width="1" height="1" fill="#e7a8d3" /><rect x="0" y="4" width="1" height="1" fill="#e9a8d3" /><rect x="0" y="5" width="1" height="1" fill="#e9a8d2" /><rect x="0" y="6" width="1" height="1" fill="#e7a6d0" /><rect x="0" y="7" width="1" height="1" fill="#edb1d5" /><rect x="0" y="8" width="1" height="1" fill="#e3accb" /><rect x="0" y="9" width="1" height="1" fill="#e2b2c8" /><rect x="1" y="0" width="1" height="1" fill="#dfacd7" /><rect x="1" y="1" width="1" height="1" fill="#e3aad5" /><rect x="1" y="2" width="1" height="1" fill="#e6a9d3" /><rect x="1" y="3" width="1" height="1" fill="#e9a8d2" /><rect x="1" y="4" width="1" height="1" fill="#e9a8d2" /><rect x="1" y="5" width="1" height="1" fill="#e9a8d0" /><rect x="1" y="6" width="1" height="1" fill="#e5a4cc" /><rect x="1" y="7" width="1" height="1" fill="#edadd2" /><rect x="1" y="8" width="1" height="1" fill="#e3a8c8" /><rect x="1" y="9" width="1" height="1" fill="#eebad1" /><rect x="2" y="0" width="1" height="1" fill="#e2abd3" /><rect x="2" y="1" width="1" height="1" fill="#e6a9d2" /><rect x="2" y="2" width="1" height="1" fill="#e9a8d0" /><rect x="2" y="3" width="1" height="1" fill="#e9a8d0" /><rect x="2" y="4" width="1" height="1" fill="#eaa9d1" /><rect x="2" y="5" width="1" height="1" fill="#eaaacf" /><rect x="2" y="6" width="1" height="1" fill="#ecacd1" /><rect x="2" y="7" width="1" height="1" fill="#eeacd0" /><rect x="2" y="8" width="1" height="1" fill="#ebaacc" /><rect x="2" y="9" width="1" height="1" fill="#ecb2cb" /><rect x="3" y="0" width="1" height="1" fill="#e4aad2" /><rect x="3" y="1" width="1" height="1" fill="#e8aad1" /><rect x="3" y="2" width="1" height="1" fill="#eba9cf" /><rect x="3" y="3" width="1" height="1" fill="#eba9cf" /><rect x="3" y="4" width="1" height="1" fill="#e8aacf" /><rect x="3" y="5" width="1" height="1" fill="#e8aacf" /><rect x="3" y="6" width="1" height="1" fill="#f2b2d7" /><rect x="3" y="7" width="1" height="1" fill="#e7a5c9" /><rect x="3" y="8" width="1" height="1" fill="#eca9cc" /><rect x="3" y="9" width="1" height="1" fill="#e3a4c1" /><rect x="4" y="0" width="1" height="1" fill="#e7abd1" /><rect x="4" y="1" width="1" height="1" fill="#eba9cf" /><rect x="4" y="2" width="1" height="1" fill="#eba9cd" /><rect x="4" y="3" width="1" height="1" fill="#ecaace" /><rect x="4" y="4" width="1" height="1" fill="#e9acce" /><rect x="4" y="5" width="1" height="1" fill="#e8acce" /><rect x="4" y="6" width="1" height="1" fill="#e9a9ce" /><rect x="4" y="7" width="1" height="1" fill="#eba7cc" /><rect x="4" y="8" width="1" height="1" fill="#f8b0d5" /><rect x="4" y="9" width="1" height="1" fill="#e8a2c4" /><rect x="5" y="0" width="1" height="1" fill="#e8aacf" /><rect x="5" y="1" width="1" height="1" fill="#eca8cd" /><rect x="5" y="2" width="1" height="1" fill="#edaacd" /><rect x="5" y="3" width="1" height="1" fill="#ecabcd" /><rect x="5" y="4" width="1" height="1" fill="#e9aece" /><rect x="5" y="5" width="1" height="1" fill="#e9adcf" /><rect x="5" y="6" width="1" height="1" fill="#eaaacf" /><rect x="5" y="7" width="1" height="1" fill="#f3afd6" /><rect x="5" y="8" width="1" height="1" fill="#f8add4" /><rect x="5" y="9" width="1" height="1" fill="#f1aacc" /><rect x="6" y="0" width="1" height="1" fill="#eba9cd" /><rect x="6" y="1" width="1" height="1" fill="#efa9cd" /><rect x="6" y="2" width="1" height="1" fill="#efa9cd" /><rect x="6" y="3" width="1" height="1" fill="#edacce" /><rect x="6" y="4" width="1" height="1" fill="#e9aece" /><rect x="6" y="5" width="1" height="1" fill="#e7aecf" /><rect x="6" y="6" width="1" height="1" fill="#f2b4d9" /><rect x="6" y="7" width="1" height="1" fill="#efabd2" /><rect x="6" y="8" width="1" height="1" fill="#e99dc4" /><rect x="6" y="9" width="1" height="1" fill="#f5abd0" /><rect x="7" y="0" width="1" height="1" fill="#eba9cd" /><rect x="7" y="1" width="1" height="1" fill="#efa9cd" /><rect x="7" y="2" width="1" height="1" fill="#f0a8cd" /><rect x="7" y="3" width="1" height="1" fill="#f0aacc" /><rect x="7" y="4" width="1" height="1" fill="#ecadcc" /><rect x="7" y="5" width="1" height="1" fill="#ebaecd" /><rect x="7" y="6" width="1" height="1" fill="#e9aac9" /><rect x="7" y="7" width="1" height="1" fill="#edaacd" /><rect x="7" y="8" width="1" height="1" fill="#f1abcf" /><rect x="7" y="9" width="1" height="1" fill="#f3b0d1" /><rect x="8" y="0" width="1" height="1" fill="#eca8cf" /><rect x="8" y="1" width="1" height="1" fill="#f0a8ce" /><rect x="8" y="2" width="1" height="1" fill="#f3a7cd" /><rect x="8" y="3" width="1" height="1" fill="#f2a6ca" /><rect x="8" y="4" width="1" height="1" fill="#f1a8c6" /><rect x="8" y="5" width="1" height="1" fill="#f0aac6" /><rect x="8" y="6" width="1" height="1" fill="#eea9c5" /><rect x="8" y="7" width="1" height="1" fill="#e9a9c3" /><rect x="8" y="8" width="1" height="1" fill="#eab0c8" /><rect x="8" y="9" width="1" height="1" fill="#e8b6cf" /><rect x="9" y="0" width="1" height="1" fill="#edadd0" /><rect x="9" y="1" width="1" height="1" fill="#eca8cd" /><rect x="9" y="2" width="1" height="1" fill="#f0a6cb" /><rect x="9" y="3" width="1" height="1" fill="#f1a6c7" /><rect x="9" y="4" width="1" height="1" fill="#f2a7c5" /><rect x="9" y="5" width="1" height="1" fill="#f2a9c4" /><rect x="9" y="6" width="1" height="1" fill="#f0afc5" /><rect x="9" y="7" width="1" height="1" fill="#eeb3c7" /><rect x="9" y="8" width="1" height="1" fill="#e9b8cb" /><rect x="9" y="9" width="1" height="1" fill="#cda6bb" /></g></svg>