<svg width="800" height="1000" xmlns="http://www.w3.org/2000/svg"><defs><linearGradient id="g" x1="0" x2="1" y1="0" y2="1"><stop offset="0%" stop-color="#2d3c96"/><stop offset="100%" stop-color="#d53392"/></linearGradient></defs><rect x="10" y="10" width="780" height="980" fill="url(#g)" rx="50" ry="50" stroke="gold" stroke-width="20"/><text x="400" y="920" width="780" text-anchor="middle" style="font:bold 200px 'Helvetica Neue';fill:gold">05029</text><g transform="translate(80 80) scale(64)"><rect x="0" y="0" width="1" height="1" fill="#e6aecb" /><rect x="0" y="1" width="1" height="1" fill="#eaadcc" /><rect x="0" y="2" width="1" height="1" fill="#edaecb" /><rect x="0" y="3" width="1" height="1" fill="#edadc8" /><rect x="0" y="4" width="1" height="1" fill="#ecacc6" /><rect x="0" y="5" width="1" height="1" fill="#eaacc3" /><rect x="0" y="6" width="1" height="1" fill="#e7aec1" /><rect x="0" y="7" width="1" height="1" fill="#e9b6c9" /><rect x="0" y="8" width="1" height="1" fill="#e3b8cb" /><rect x="0" y="9" width="1" height="1" fill="#947187" /><rect x="1" y="0" width="1" height="1" fill="#e5b5cd" /><rect x="1" y="1" width="1" height="1" fill="#e6b4cd" /><rect x="1" y="2" width="1" height="1" fill="#eab4cc" /><rect x="1" y="3" width="1" height="1" fill="#ebb5cd" /><rect x="1" y="4" width="1" height="1" fill="#eab4cb" /><rect x="1" y="5" width="1" height="1" fill="#e9b6c9" /><rect x="1" y="6" width="1" height="1" fill="#e5b4c7" /><rect x="1" y="7" width="1" height="1" fill="#e3b8cb" /><rect x="1" y="8" width="1" height="1" fill="#c7a1b6" /><rect x="1" y="9" width="1" height="1" fill="#35152d" /><rect x="2" y="0" width="1" height="1" fill="#a67f92" /><rect x="2" y="1" width="1" height="1" fill="#a3798d" /><rect x="2" y="2" width="1" height="1" fill="#a2788c" /><rect x="2" y="3" width="1" height="1" fill="#a4798d" /><rect x="2" y="4" width="1" height="1" fill="#a77c90" /><rect x="2" y="5" width="1" height="1" fill="#a77e90" /><rect x="2" y="6" width="1" height="1" fill="#b0899b" /><rect x="2" y="7" width="1" height="1" fill="#b492a3" /><rect x="2" y="8" width="1" height="1" fill="#8e6e85" /><rect x="2" y="9" width="1" height="1" fill="#0f0010" /><rect x="3" y="0" width="1" height="1" fill="#150007" /><rect x="3" y="1" width="1" height="1" fill="#170009" /><rect x="3" y="2" width="1" height="1" fill="#1a000b" /><rect x="3" y="3" width="1" height="1" fill="#19000a" /><rect x="3" y="4" width="1" height="1" fill="#160007" /><rect x="3" y="5" width="1" height="1" fill="#150007" /><rect x="3" y="6" width="1" height="1" fill="#140007" /><rect x="3" y="7" width="1" height="1" fill="#1a0011" /><rect x="3" y="8" width="1" height="1" fill="#11000c" /><rect x="3" y="9" width="1" height="1" fill="#0e0012" /><rect x="4" y="0" width="1" height="1" fill="#73536b" /><rect x="4" y="1" width="1" height="1" fill="#7d5d75" /><rect x="4" y="2" width="1" height="1" fill="#80627a" /><rect x="4" y="3" width="1" height="1" fill="#7e6078" /><rect x="4" y="4" width="1" height="1" fill="#775971" /><rect x="4" y="5" width="1" height="1" fill="#70526a" /><rect x="4" y="6" width="1" height="1" fill="#684c62" /><rect x="4" y="7" width="1" height="1" fill="#62465d" /><rect x="4" y="8" width="1" height="1" fill="#4d334e" /><rect x="4" y="9" width="1" height="1" fill="#725776" /><rect x="5" y="0" width="1" height="1" fill="#d2b1d0" /><rect x="5" y="1" width="1" height="1" fill="#d4b3d2" /><rect x="5" y="2" width="1" height="1" fill="#d4b5d5" /><rect x="5" y="3" width="1" height="1" fill="#d4b5d4" /><rect x="5" y="4" width="1" height="1" fill="#d1b2d1" /><rect x="5" y="5" width="1" height="1" fill="#ceb0cc" /><rect x="5" y="6" width="1" height="1" fill="#cdb1ca" /><rect x="5" y="7" width="1" height="1" fill="#ccb0c9" /><rect x="5" y="8" width="1" height="1" fill="#c9abc7" /><rect x="5" y="9" width="1" height="1" fill="#d2b3d3" /><rect x="6" y="0" width="1" height="1" fill="#d7aed8" /><rect x="6" y="1" width="1" height="1" fill="#d5afd8" /><rect x="6" y="2" width="1" height="1" fill="#d4afd8" /><rect x="6" y="3" width="1" height="1" fill="#d4afd8" /><rect x="6" y="4" width="1" height="1" fill="#d4b0d4" /><rect x="6" y="5" width="1" height="1" fill="#d4b1d2" /><rect x="6" y="6" width="1" height="1" fill="#d4b1d1" /><rect x="6" y="7" width="1" height="1" fill="#d4b1cf" /><rect x="6" y="8" width="1" height="1" fill="#d5b0cf" /><rect x="6" y="9" width="1" height="1" fill="#d7afd1" /><rect x="7" y="0" width="1" height="1" fill="#dbacda" /><rect x="7" y="1" width="1" height="1" fill="#dbabdb" /><rect x="7" y="2" width="1" height="1" fill="#daacdb" /><rect x="7" y="3" width="1" height="1" fill="#d8adda" /><rect x="7" y="4" width="1" height="1" fill="#d8add8" /><rect x="7" y="5" width="1" height="1" fill="#d8aed4" /><rect x="7" y="6" width="1" height="1" fill="#d8aed2" /><rect x="7" y="7" width="1" height="1" fill="#daaecf" /><rect x="7" y="8" width="1" height="1" fill="#dbaecf" /><rect x="7" y="9" width="1" height="1" fill="#dcadcf" /><rect x="8" y="0" width="1" height="1" fill="#e2a9dc" /><rect x="8" y="1" width="1" height="1" fill="#e2a9dc" /><rect x="8" y="2" width="1" height="1" fill="#e0aadc" /><rect x="8" y="3" width="1" height="1" fill="#e0aadb" /><rect x="8" y="4" width="1" height="1" fill="#e0abd9" /><rect x="8" y="5" width="1" height="1" fill="#e0abd5" /><rect x="8" y="6" width="1" height="1" fill="#e0acd2" /><rect x="8" y="7" width="1" height="1" fill="#e2acd0" /><rect x="8" y="8" width="1" height="1" fill="#e2accc" /><rect x="8" y="9" width="1" height="1" fill="#e3accc" /><rect x="9" y="0" width="1" height="1" fill="#e8a9d8" /><rect x="9" y="1" width="1" height="1" fill="#e8a8da" /><rect x="9" y="2" width="1" height="1" fill="#e7a9da" /><rect x="9" y="3" width="1" height="1" fill="#e7a9da" /><rect x="9" y="4" width="1" height="1" fill="#e7aad6" /><rect x="9" y="5" width="1" height="1" fill="#e7aad4" /><rect x="9" y="6" width="1" height="1" fill="#e8aad1" /><rect x="9" y="7" width="1" height="1" fill="#e8abcd" /><rect x="9" y="8" width="1" height="1" fill="#eaaacc" /><rect x="9" y="9" width="1" height="1" fill="#eaabca" /></g></svg>