<svg width="800" height="1000" xmlns="http://www.w3.org/2000/svg"><defs><linearGradient id="g" x1="0" x2="1" y1="0" y2="1"><stop offset="0%" stop-color="#2d3c96"/><stop offset="100%" stop-color="#d53392"/></linearGradient></defs><rect x="10" y="10" width="780" height="980" fill="url(#g)" rx="50" ry="50" stroke="gold" stroke-width="20"/><text x="400" y="920" width="780" text-anchor="middle" style="font:bold 200px 'Helvetica Neue';fill:gold">05033</text><g transform="translate(80 80) scale(64)"><rect x="0" y="0" width="1" height="1" fill="#bce49b" /><rect x="0" y="1" width="1" height="1" fill="#b6ef90" /><rect x="0" y="2" width="1" height="1" fill="#adf091" /><rect x="0" y="3" width="1" height="1" fill="#a1ea8e" /><rect x="0" y="4" width="1" height="1" fill="#abf296" /><rect x="0" y="5" width="1" height="1" fill="#a9ee93" /><rect x="0" y="6" width="1" height="1" fill="#aff092" /><rect x="0" y="7" width="1" height="1" fill="#aeed92" /><rect x="0" y="8" width="1" height="1" fill="#a8e892" /><rect x="0" y="9" width="1" height="1" fill="#abeb95" /><rect x="1" y="0" width="1" height="1" fill="#b3e199" /><rect x="1" y="1" width="1" height="1" fill="#a7e88a" /><rect x="1" y="2" width="1" height="1" fill="#a3f090" /><rect x="1" y="3" width="1" height="1" fill="#9ff393" /><rect x="1" y="4" width="1" height="1" fill="#a2f195" /><rect x="1" y="5" width="1" height="1" fill="#a2ed90" /><rect x="1" y="6" width="1" height="1" fill="#a6ed8f" /><rect x="1" y="7" width="1" height="1" fill="#a3ea8e" /><rect x="1" y="8" width="1" height="1" fill="#a6eb98" /><rect x="1" y="9" width="1" height="1" fill="#a5ea99" /><rect x="2" y="0" width="1" height="1" fill="#addf9a" /><rect x="2" y="1" width="1" height="1" fill="#9fe688" /><rect x="2" y="2" width="1" height="1" fill="#9bf190" /><rect x="2" y="3" width="1" height="1" fill="#9df898" /><rect x="2" y="4" width="1" height="1" fill="#99f091" /><rect x="2" y="5" width="1" height="1" fill="#9eef90" /><rect x="2" y="6" width="1" height="1" fill="#a1ee8e" /><rect x="2" y="7" width="1" height="1" fill="#9ee98e" /><rect x="2" y="8" width="1" height="1" fill="#a8f3a1" /><rect x="2" y="9" width="1" height="1" fill="#a1eb9c" /><rect x="3" y="0" width="1" height="1" fill="#a4d896" /><rect x="3" y="1" width="1" height="1" fill="#a0ec91" /><rect x="3" y="2" width="1" height="1" fill="#94ef8f" /><rect x="3" y="3" width="1" height="1" fill="#94f693" /><rect x="3" y="4" width="1" height="1" fill="#91ec8c" /><rect x="3" y="5" width="1" height="1" fill="#9bf291" /><rect x="3" y="6" width="1" height="1" fill="#9ff18f" /><rect x="3" y="7" width="1" height="1" fill="#99e88d" /><rect x="3" y="8" width="1" height="1" fill="#a2f1a0" /><rect x="3" y="9" width="1" height="1" fill="#99e79b" /><rect x="4" y="0" width="1" height="1" fill="#91c988" /><rect x="4" y="1" width="1" height="1" fill="#a2f396" /><rect x="4" y="2" width="1" height="1" fill="#8bed8a" /><rect x="4" y="3" width="1" height="1" fill="#8cf28e" /><rect x="4" y="4" width="1" height="1" fill="#8ded8b" /><rect x="4" y="5" width="1" height="1" fill="#95ef8f" /><rect x="4" y="6" width="1" height="1" fill="#95e989" /><rect x="4" y="7" width="1" height="1" fill="#94e589" /><rect x="4" y="8" width="1" height="1" fill="#97ea9a" /><rect x="4" y="9" width="1" height="1" fill="#94e69a" /><rect x="5" y="0" width="1" height="1" fill="#82b77f" /><rect x="5" y="1" width="1" height="1" fill="#a4f19f" /><rect x="5" y="2" width="1" height="1" fill="#8ae78c" /><rect x="5" y="3" width="1" height="1" fill="#8bef8f" /><rect x="5" y="4" width="1" height="1" fill="#8eef92" /><rect x="5" y="5" width="1" height="1" fill="#8dec8e" /><rect x="5" y="6" width="1" height="1" fill="#8deb8b" /><rect x="5" y="7" width="1" height="1" fill="#91eb91" /><rect x="5" y="8" width="1" height="1" fill="#90ec99" /><rect x="5" y="9" width="1" height="1" fill="#8de496" /><rect x="6" y="0" width="1" height="1" fill="#7daa83" /><rect x="6" y="1" width="1" height="1" fill="#a1e3a5" /><rect x="6" y="2" width="1" height="1" fill="#93e196" /><rect x="6" y="3" width="1" height="1" fill="#8ee594" /><rect x="6" y="4" width="1" height="1" fill="#8de898" /><rect x="6" y="5" width="1" height="1" fill="#88ea97" /><rect x="6" y="6" width="1" height="1" fill="#86f098" /><rect x="6" y="7" width="1" height="1" fill="#83f097" /><rect x="6" y="8" width="1" height="1" fill="#88f29a" /><rect x="6" y="9" width="1" height="1" fill="#88e796" /><rect x="7" y="0" width="1" height="1" fill="#6f8a77" /><rect x="7" y="1" width="1" height="1" fill="#a5d2ab" /><rect x="7" y="2" width="1" height="1" fill="#9fdba5" /><rect x="7" y="3" width="1" height="1" fill="#93e2a0" /><rect x="7" y="4" width="1" height="1" fill="#85e29b" /><rect x="7" y="5" width="1" height="1" fill="#81eba0" /><rect x="7" y="6" width="1" height="1" fill="#72e695" /><rect x="7" y="7" width="1" height="1" fill="#77e896" /><rect x="7" y="8" width="1" height="1" fill="#7be492" /><rect x="7" y="9" width="1" height="1" fill="#92eaa0" /><rect x="8" y="0" width="1" height="1" fill="#57585d" /><rect x="8" y="1" width="1" height="1" fill="#b8c5bb" /><rect x="8" y="2" width="1" height="1" fill="#aad3b3" /><rect x="8" y="3" width="1" height="1" fill="#98deac" /><rect x="8" y="4" width="1" height="1" fill="#7ee4a3" /><rect x="8" y="5" width="1" height="1" fill="#75eba1" /><rect x="8" y="6" width="1" height="1" fill="#7ef2a7" /><rect x="8" y="7" width="1" height="1" fill="#84eea6" /><rect x="8" y="8" width="1" height="1" fill="#8ee4a3" /><rect x="8" y="9" width="1" height="1" fill="#a1e4ae" /><rect x="9" y="0" width="1" height="1" fill="#3e283d" /><rect x="9" y="1" width="1" height="1" fill="#c2b5bf" /><rect x="9" y="2" width="1" height="1" fill="#aabab0" /><rect x="9" y="3" width="1" height="1" fill="#9fd2b3" /><rect x="9" y="4" width="1" height="1" fill="#8febb8" /><rect x="9" y="5" width="1" height="1" fill="#76e7a7" /><rect x="9" y="6" width="1" height="1" fill="#7aedaa" /><rect x="9" y="7" width="1" height="1" fill="#7ce4a5" /><rect x="9" y="8" width="1" height="1" fill="#93e3ae" /><rect x="9" y="9" width="1" height="1" fill="#8fc9a1" /></g></svg>