<svg width="800" height="1000" xmlns="http://www.w3.org/2000/svg"><defs><linearGradient id="g" x1="0" x2="1" y1="0" y2="1"><stop offset="0%" stop-color="#2d3c96"/><stop offset="100%" stop-color="#d53392"/></linearGradient></defs><rect x="10" y="10" width="780" height="980" fill="url(#g)" rx="50" ry="50" stroke="gold" stroke-width="20"/><text x="400" y="920" width="780" text-anchor="middle" style="font:bold 200px 'Helvetica Neue';fill:gold">05031</text><g transform="translate(80 80) scale(64)"><rect x="0" y="0" width="1" height="1" fill="#1b0000" /><rect x="0" y="1" width="1" height="1" fill="#461f1a" /><rect x="0" y="2" width="1" height="1" fill="#dbada0" /><rect x="0" y="3" width="1" height="1" fill="#ffcfbf" /><rect x="0" y="4" width="1" height="1" fill="#fac1ae" /><rect x="0" y="5" width="1" height="1" fill="#f9bca9" /><rect x="0" y="6" width="1" height="1" fill="#ffc7b5" /><rect x="0" y="7" width="1" height="1" fill="#ffc5b5" /><rect x="0" y="8" width="1" height="1" fill="#f8bfb4" /><rect x="0" y="9" width="1" height="1" fill="#feccc3" /><rect x="1" y="0" width="1" height="1" fill="#210200" /><rect x="1" y="1" width="1" height="1" fill="#775347" /><rect x="1" y="2" width="1" height="1" fill="#f5c7b7" /><rect x="1" y="3" width="1" height="1" fill="#fbc9b2" /><rect x="1" y="4" width="1" height="1" fill="#f4bea4" /><rect x="1" y="5" width="1" height="1" fill="#ffccb1" /><rect x="1" y="6" width="1" height="1" fill="#f8c0a9" /><rect x="1" y="7" width="1" height="1" fill="#fbc7b2" /><rect x="1" y="8" width="1" height="1" fill="#f9caba" /><rect x="1" y="9" width="1" height="1" fill="#eabfb6" /><rect x="2" y="0" width="1" height="1" fill="#180000" /><rect x="2" y="1" width="1" height="1" fill="#b18c7c" /><rect x="2" y="2" width="1" height="1" fill="#fbd1b9" /><rect x="2" y="3" width="1" height="1" fill="#fccdaf" /><rect x="2" y="4" width="1" height="1" fill="#f8c6a5" /><rect x="2" y="5" width="1" height="1" fill="#fcc7a7" /><rect x="2" y="6" width="1" height="1" fill="#fbc8ab" /><rect x="2" y="7" width="1" height="1" fill="#f7c9b1" /><rect x="2" y="8" width="1" height="1" fill="#f4cdbc" /><rect x="2" y="9" width="1" height="1" fill="#aa8a7f" /><rect x="3" y="0" width="1" height="1" fill="#180000" /><rect x="3" y="1" width="1" height="1" fill="#c8a48e" /><rect x="3" y="2" width="1" height="1" fill="#ffd6b8" /><rect x="3" y="3" width="1" height="1" fill="#f8caa6" /><rect x="3" y="4" width="1" height="1" fill="#f9c9a1" /><rect x="3" y="5" width="1" height="1" fill="#ffd1a9" /><rect x="3" y="6" width="1" height="1" fill="#ffd1af" /><rect x="3" y="7" width="1" height="1" fill="#f9d0b2" /><rect x="3" y="8" width="1" height="1" fill="#f0d0bb" /><rect x="3" y="9" width="1" height="1" fill="#452e20" /><rect x="4" y="0" width="1" height="1" fill="#2e0f00" /><rect x="4" y="1" width="1" height="1" fill="#e3bfa5" /><rect x="4" y="2" width="1" height="1" fill="#fed6b2" /><rect x="4" y="3" width="1" height="1" fill="#f9cea3" /><rect x="4" y="4" width="1" height="1" fill="#fdd1a2" /><rect x="4" y="5" width="1" height="1" fill="#ffd5a6" /><rect x="4" y="6" width="1" height="1" fill="#f9cfa5" /><rect x="4" y="7" width="1" height="1" fill="#f2ceaa" /><rect x="4" y="8" width="1" height="1" fill="#cfb499" /><rect x="4" y="9" width="1" height="1" fill="#0e0000" /><rect x="5" y="0" width="1" height="1" fill="#593d28" /><rect x="5" y="1" width="1" height="1" fill="#f1d0b1" /><rect x="5" y="2" width="1" height="1" fill="#f8d3a7" /><rect x="5" y="3" width="1" height="1" fill="#ffd9a6" /><rect x="5" y="4" width="1" height="1" fill="#ffdaa2" /><rect x="5" y="5" width="1" height="1" fill="#fad39a" /><rect x="5" y="6" width="1" height="1" fill="#fcd8a4" /><rect x="5" y="7" width="1" height="1" fill="#fddeb2" /><rect x="5" y="8" width="1" height="1" fill="#c8b191" /><rect x="5" y="9" width="1" height="1" fill="#0d0000" /><rect x="6" y="0" width="1" height="1" fill="#866c55" /><rect x="6" y="1" width="1" height="1" fill="#f4d8b3" /><rect x="6" y="2" width="1" height="1" fill="#f4d4a3" /><rect x="6" y="3" width="1" height="1" fill="#ffdfa5" /><rect x="6" y="4" width="1" height="1" fill="#fedb9b" /><rect x="6" y="5" width="1" height="1" fill="#f9d696" /><rect x="6" y="6" width="1" height="1" fill="#f5d59a" /><rect x="6" y="7" width="1" height="1" fill="#f8dda8" /><rect x="6" y="8" width="1" height="1" fill="#dac49b" /><rect x="6" y="9" width="1" height="1" fill="#302104" /><rect x="7" y="0" width="1" height="1" fill="#a28d72" /><rect x="7" y="1" width="1" height="1" fill="#f6dfb6" /><rect x="7" y="2" width="1" height="1" fill="#f6dba4" /><rect x="7" y="3" width="1" height="1" fill="#fcde9e" /><rect x="7" y="4" width="1" height="1" fill="#f6d890" /><rect x="7" y="5" width="1" height="1" fill="#ffe198" /><rect x="7" y="6" width="1" height="1" fill="#f5d894" /><rect x="7" y="7" width="1" height="1" fill="#fee4a9" /><rect x="7" y="8" width="1" height="1" fill="#f4dfb0" /><rect x="7" y="9" width="1" height="1" fill="#8c7c5a" /><rect x="8" y="0" width="1" height="1" fill="#b7a68a" /><rect x="8" y="1" width="1" height="1" fill="#f7e4ba" /><rect x="8" y="2" width="1" height="1" fill="#f7e1a8" /><rect x="8" y="3" width="1" height="1" fill="#fbe09b" /><rect x="8" y="4" width="1" height="1" fill="#f8dd90" /><rect x="8" y="5" width="1" height="1" fill="#ffe796" /><rect x="8" y="6" width="1" height="1" fill="#fff0a6" /><rect x="8" y="7" width="1" height="1" fill="#f4db98" /><rect x="8" y="8" width="1" height="1" fill="#efd8a2" /><rect x="8" y="9" width="1" height="1" fill="#e8d5ab" /><rect x="9" y="0" width="1" height="1" fill="#c8ba97" /><rect x="9" y="1" width="1" height="1" fill="#f9e8b4" /><rect x="9" y="2" width="1" height="1" fill="#f6e1a2" /><rect x="9" y="3" width="1" height="1" fill="#fee69c" /><rect x="9" y="4" width="1" height="1" fill="#fde794" /><rect x="9" y="5" width="1" height="1" fill="#fae690" /><rect x="9" y="6" width="1" height="1" fill="#f1dc89" /><rect x="9" y="7" width="1" height="1" fill="#ffea9e" /><rect x="9" y="8" width="1" height="1" fill="#ffebaa" /><rect x="9" y="9" width="1" height="1" fill="#f4dfaa" /></g></svg>