<svg width="800" height="1000" xmlns="http://www.w3.org/2000/svg"><defs><linearGradient id="g" x1="0" x2="1" y1="0" y2="1"><stop offset="0%" stop-color="#2d3c96"/><stop offset="100%" stop-color="#d53392"/></linearGradient></defs><rect x="10" y="10" width="780" height="980" fill="url(#g)" rx="50" ry="50" stroke="gold" stroke-width="20"/><text x="400" y="920" width="780" text-anchor="middle" style="font:bold 200px 'Helvetica Neue';fill:gold">05038</text><g transform="translate(80 80) scale(64)"><rect x="0" y="0" width="1" height="1" fill="#dae994" /><rect x="0" y="1" width="1" height="1" fill="#d8ea94" /><rect x="0" y="2" width="1" height="1" fill="#d4ea95" /><rect x="0" y="3" width="1" height="1" fill="#d2ea94" /><rect x="0" y="4" width="1" height="1" fill="#d0ea93" /><rect x="0" y="5" width="1" height="1" fill="#ceea93" /><rect x="0" y="6" width="1" height="1" fill="#cbec91" /><rect x="0" y="7" width="1" height="1" fill="#c8ed90" /><rect x="0" y="8" width="1" height="1" fill="#c5ec8f" /><rect x="0" y="9" width="1" height="1" fill="#c4ed8f" /><rect x="1" y="0" width="1" height="1" fill="#d8eb92" /><rect x="1" y="1" width="1" height="1" fill="#d6ea93" /><rect x="1" y="2" width="1" height="1" fill="#d2ea94" /><rect x="1" y="3" width="1" height="1" fill="#d0e995" /><rect x="1" y="4" width="1" height="1" fill="#ceea95" /><rect x="1" y="5" width="1" height="1" fill="#ccea94" /><rect x="1" y="6" width="1" height="1" fill="#c8eb91" /><rect x="1" y="7" width="1" height="1" fill="#c5ec8f" /><rect x="1" y="8" width="1" height="1" fill="#c3ec8e" /><rect x="1" y="9" width="1" height="1" fill="#c1ed8e" /><rect x="2" y="0" width="1" height="1" fill="#d7ea90" /><rect x="2" y="1" width="1" height="1" fill="#d5e990" /><rect x="2" y="2" width="1" height="1" fill="#d1e993" /><rect x="2" y="3" width="1" height="1" fill="#d0e995" /><rect x="2" y="4" width="1" height="1" fill="#cde995" /><rect x="2" y="5" width="1" height="1" fill="#caeb94" /><rect x="2" y="6" width="1" height="1" fill="#c6ea90" /><rect x="2" y="7" width="1" height="1" fill="#c4eb90" /><rect x="2" y="8" width="1" height="1" fill="#c3ec8e" /><rect x="2" y="9" width="1" height="1" fill="#c0ec8d" /><rect x="3" y="0" width="1" height="1" fill="#d4eb90" /><rect x="3" y="1" width="1" height="1" fill="#d2eb90" /><rect x="3" y="2" width="1" height="1" fill="#d0ea93" /><rect x="3" y="3" width="1" height="1" fill="#ccea94" /><rect x="3" y="4" width="1" height="1" fill="#caeb94" /><rect x="3" y="5" width="1" height="1" fill="#c8ea93" /><rect x="3" y="6" width="1" height="1" fill="#c4eb92" /><rect x="3" y="7" width="1" height="1" fill="#c1ec90" /><rect x="3" y="8" width="1" height="1" fill="#c0ed90" /><rect x="3" y="9" width="1" height="1" fill="#beed8f" /><rect x="4" y="0" width="1" height="1" fill="#d1eb90" /><rect x="4" y="1" width="1" height="1" fill="#cfec92" /><rect x="4" y="2" width="1" height="1" fill="#cdeb93" /><rect x="4" y="3" width="1" height="1" fill="#c9eb94" /><rect x="4" y="4" width="1" height="1" fill="#c8ec94" /><rect x="4" y="5" width="1" height="1" fill="#c4ec93" /><rect x="4" y="6" width="1" height="1" fill="#c1ec92" /><rect x="4" y="7" width="1" height="1" fill="#bfeb92" /><rect x="4" y="8" width="1" height="1" fill="#beec92" /><rect x="4" y="9" width="1" height="1" fill="#baed91" /><rect x="5" y="0" width="1" height="1" fill="#ceec92" /><rect x="5" y="1" width="1" height="1" fill="#cbec91" /><rect x="5" y="2" width="1" height="1" fill="#c9ec92" /><rect x="5" y="3" width="1" height="1" fill="#c8ec92" /><rect x="5" y="4" width="1" height="1" fill="#c4ec93" /><rect x="5" y="5" width="1" height="1" fill="#c2ed93" /><rect x="5" y="6" width="1" height="1" fill="#bfeb92" /><rect x="5" y="7" width="1" height="1" fill="#bced92" /><rect x="5" y="8" width="1" height="1" fill="#baec93" /><rect x="5" y="9" width="1" height="1" fill="#b8ed93" /><rect x="6" y="0" width="1" height="1" fill="#cdeb93" /><rect x="6" y="1" width="1" height="1" fill="#caeb92" /><rect x="6" y="2" width="1" height="1" fill="#c9eb94" /><rect x="6" y="3" width="1" height="1" fill="#c7eb93" /><rect x="6" y="4" width="1" height="1" fill="#c3eb93" /><rect x="6" y="5" width="1" height="1" fill="#c1ec93" /><rect x="6" y="6" width="1" height="1" fill="#beea93" /><rect x="6" y="7" width="1" height="1" fill="#bbec93" /><rect x="6" y="8" width="1" height="1" fill="#b9eb94" /><rect x="6" y="9" width="1" height="1" fill="#b7ec94" /><rect x="7" y="0" width="1" height="1" fill="#caeb92" /><rect x="7" y="1" width="1" height="1" fill="#c8eb91" /><rect x="7" y="2" width="1" height="1" fill="#c7eb93" /><rect x="7" y="3" width="1" height="1" fill="#c4eb92" /><rect x="7" y="4" width="1" height="1" fill="#c0eb92" /><rect x="7" y="5" width="1" height="1" fill="#bfeb92" /><rect x="7" y="6" width="1" height="1" fill="#bdeb93" /><rect x="7" y="7" width="1" height="1" fill="#baeb92" /><rect x="7" y="8" width="1" height="1" fill="#b7ec94" /><rect x="7" y="9" width="1" height="1" fill="#b5eb93" /><rect x="8" y="0" width="1" height="1" fill="#caeb94" /><rect x="8" y="1" width="1" height="1" fill="#c8ea93" /><rect x="8" y="2" width="1" height="1" fill="#c6ea93" /><rect x="8" y="3" width="1" height="1" fill="#c3e992" /><rect x="8" y="4" width="1" height="1" fill="#c0ea94" /><rect x="8" y="5" width="1" height="1" fill="#beea93" /><rect x="8" y="6" width="1" height="1" fill="#baea94" /><rect x="8" y="7" width="1" height="1" fill="#b9eb94" /><rect x="8" y="8" width="1" height="1" fill="#b6ea95" /><rect x="8" y="9" width="1" height="1" fill="#b4ea94" /><rect x="9" y="0" width="1" height="1" fill="#c8ea93" /><rect x="9" y="1" width="1" height="1" fill="#c7eb93" /><rect x="9" y="2" width="1" height="1" fill="#c4ea93" /><rect x="9" y="3" width="1" height="1" fill="#c2ea92" /><rect x="9" y="4" width="1" height="1" fill="#bfe993" /><rect x="9" y="5" width="1" height="1" fill="#bdeb93" /><rect x="9" y="6" width="1" height="1" fill="#baea94" /><rect x="9" y="7" width="1" height="1" fill="#b6eb93" /><rect x="9" y="8" width="1" height="1" fill="#b5eb95" /><rect x="9" y="9" width="1" height="1" fill="#b3eb94" /></g></svg>