<svg width="800" height="1000" xmlns="http://www.w3.org/2000/svg"><defs><linearGradient id="g" x1="0" x2="1" y1="0" y2="1"><stop offset="0%" stop-color="#2d3c96"/><stop offset="100%" stop-color="#d53392"/></linearGradient></defs><rect x="10" y="10" width="780" height="980" fill="url(#g)" rx="50" ry="50" stroke="gold" stroke-width="20"/><text x="400" y="920" width="780" text-anchor="middle" style="font:bold 200px 'Helvetica Neue';fill:gold">05030</text><g transform="translate(80 80) scale(64)"><rect x="0" y="0" width="1" height="1" fill="#eda9d2" /><rect x="0" y="1" width="1" height="1" fill="#eda8d4" /><rect x="0" y="2" width="1" height="1" fill="#efa8d4" /><rect x="0" y="3" width="1" height="1" fill="#efa8d4" /><rect x="0" y="4" width="1" height="1" fill="#efa8d4" /><rect x="0" y="5" width="1" height="1" fill="#efa8d0" /><rect x="0" y="6" width="1" height="1" fill="#efa9cd" /><rect x="0" y="7" width="1" height="1" fill="#efa9cb" /><rect x="0" y="8" width="1" height="1" fill="#efaac9" /><rect x="0" y="9" width="1" height="1" fill="#efaac7" /><rect x="1" y="0" width="1" height="1" fill="#f3a9ca" /><rect x="1" y="1" width="1" height="1" fill="#f3a9cc" /><rect x="1" y="2" width="1" height="1" fill="#f4a8ce" /><rect x="1" y="3" width="1" height="1" fill="#f4a8cf" /><rect x="1" y="4" width="1" height="1" fill="#f4a8cf" /><rect x="1" y="5" width="1" height="1" fill="#f4a8ce" /><rect x="1" y="6" width="1" height="1" fill="#f4a9ca" /><rect x="1" y="7" width="1" height="1" fill="#f4a9c8" /><rect x="1" y="8" width="1" height="1" fill="#f4a9c7" /><rect x="1" y="9" width="1" height="1" fill="#f3aac7" /><rect x="2" y="0" width="1" height="1" fill="#f6abc2" /><rect x="2" y="1" width="1" height="1" fill="#f6aac4" /><rect x="2" y="2" width="1" height="1" fill="#f8a9c8" /><rect x="2" y="3" width="1" height="1" fill="#f9a8c9" /><rect x="2" y="4" width="1" height="1" fill="#f9a8c9" /><rect x="2" y="5" width="1" height="1" fill="#f9a8c9" /><rect x="2" y="6" width="1" height="1" fill="#f9a8c8" /><rect x="2" y="7" width="1" height="1" fill="#f8a9c6" /><rect x="2" y="8" width="1" height="1" fill="#f8a9c6" /><rect x="2" y="9" width="1" height="1" fill="#f6aac6" /><rect x="3" y="0" width="1" height="1" fill="#f8abbd" /><rect x="3" y="1" width="1" height="1" fill="#f9aabf" /><rect x="3" y="2" width="1" height="1" fill="#f9aac0" /><rect x="3" y="3" width="1" height="1" fill="#fba8c2" /><rect x="3" y="4" width="1" height="1" fill="#fba8c2" /><rect x="3" y="5" width="1" height="1" fill="#fba8c4" /><rect x="3" y="6" width="1" height="1" fill="#fba8c4" /><rect x="3" y="7" width="1" height="1" fill="#fba8c4" /><rect x="3" y="8" width="1" height="1" fill="#f9a9c4" /><rect x="3" y="9" width="1" height="1" fill="#f8aac4" /><rect x="4" y="0" width="1" height="1" fill="#ffb0c3" /><rect x="4" y="1" width="1" height="1" fill="#f2a4b4" /><rect x="4" y="2" width="1" height="1" fill="#ffb1c1" /><rect x="4" y="3" width="1" height="1" fill="#f8aaba" /><rect x="4" y="4" width="1" height="1" fill="#fcaebe" /><rect x="4" y="5" width="1" height="1" fill="#faabbe" /><rect x="4" y="6" width="1" height="1" fill="#ffafc5" /><rect x="4" y="7" width="1" height="1" fill="#f7a5bc" /><rect x="4" y="8" width="1" height="1" fill="#ffadc7" /><rect x="4" y="9" width="1" height="1" fill="#feabc5" /><rect x="5" y="0" width="1" height="1" fill="#fbb1c2" /><rect x="5" y="1" width="1" height="1" fill="#ffbac7" /><rect x="5" y="2" width="1" height="1" fill="#f6aab6" /><rect x="5" y="3" width="1" height="1" fill="#f7abb5" /><rect x="5" y="4" width="1" height="1" fill="#ffb6c0" /><rect x="5" y="5" width="1" height="1" fill="#fdafbc" /><rect x="5" y="6" width="1" height="1" fill="#feb0be" /><rect x="5" y="7" width="1" height="1" fill="#fdacbd" /><rect x="5" y="8" width="1" height="1" fill="#ffb1c7" /><rect x="5" y="9" width="1" height="1" fill="#fca8bf" /><rect x="6" y="0" width="1" height="1" fill="#e7a4b5" /><rect x="6" y="1" width="1" height="1" fill="#f7b3c0" /><rect x="6" y="2" width="1" height="1" fill="#f9b3bb" /><rect x="6" y="3" width="1" height="1" fill="#ffb9bf" /><rect x="6" y="4" width="1" height="1" fill="#f7afb3" /><rect x="6" y="5" width="1" height="1" fill="#ffb5bc" /><rect x="6" y="6" width="1" height="1" fill="#fcafb9" /><rect x="6" y="7" width="1" height="1" fill="#ffb2bf" /><rect x="6" y="8" width="1" height="1" fill="#ffbac7" /><rect x="6" y="9" width="1" height="1" fill="#ffb0bf" /><rect x="7" y="0" width="1" height="1" fill="#fbc3d0" /><rect x="7" y="1" width="1" height="1" fill="#fec2cc" /><rect x="7" y="2" width="1" height="1" fill="#f1b3b8" /><rect x="7" y="3" width="1" height="1" fill="#febcbe" /><rect x="7" y="4" width="1" height="1" fill="#f9b3b3" /><rect x="7" y="5" width="1" height="1" fill="#fdb5b6" /><rect x="7" y="6" width="1" height="1" fill="#ffbcc0" /><rect x="7" y="7" width="1" height="1" fill="#feb1b7" /><rect x="7" y="8" width="1" height="1" fill="#fbaeb4" /><rect x="7" y="9" width="1" height="1" fill="#fbb0b7" /><rect x="8" y="0" width="1" height="1" fill="#a2747e" /><rect x="8" y="1" width="1" height="1" fill="#eebbc0" /><rect x="8" y="2" width="1" height="1" fill="#f7bfc0" /><rect x="8" y="3" width="1" height="1" fill="#f0b3b0" /><rect x="8" y="4" width="1" height="1" fill="#febdb7" /><rect x="8" y="5" width="1" height="1" fill="#ffbdb6" /><rect x="8" y="6" width="1" height="1" fill="#ffbab6" /><rect x="8" y="7" width="1" height="1" fill="#ffbcb8" /><rect x="8" y="8" width="1" height="1" fill="#ffbbb9" /><rect x="8" y="9" width="1" height="1" fill="#ffbcbc" /><rect x="9" y="0" width="1" height="1" fill="#1c0000" /><rect x="9" y="1" width="1" height="1" fill="#845859" /><rect x="9" y="2" width="1" height="1" fill="#f1beba" /><rect x="9" y="3" width="1" height="1" fill="#f9c0b7" /><rect x="9" y="4" width="1" height="1" fill="#fbbdb2" /><rect x="9" y="5" width="1" height="1" fill="#ffbfb3" /><rect x="9" y="6" width="1" height="1" fill="#fab8ac" /><rect x="9" y="7" width="1" height="1" fill="#ffbdb4" /><rect x="9" y="8" width="1" height="1" fill="#f8b8af" /><rect x="9" y="9" width="1" height="1" fill="#f7bbb3" /></g></svg>