<svg width="800" height="1000" xmlns="http://www.w3.org/2000/svg"><defs><linearGradient id="g" x1="0" x2="1" y1="0" y2="1"><stop offset="0%" stop-color="#2d3c96"/><stop offset="100%" stop-color="#d53392"/></linearGradient></defs><rect x="10" y="10" width="780" height="980" fill="url(#g)" rx="50" ry="50" stroke="gold" stroke-width="20"/><text x="400" y="920" width="780" text-anchor="middle" style="font:bold 200px 'Helvetica Neue';fill:gold">05036</text><g transform="translate(80 80) scale(64)"><rect x="0" y="0" width="1" height="1" fill="#fbe58f" /><rect x="0" y="1" width="1" height="1" fill="#fce690" /><rect x="0" y="2" width="1" height="1" fill="#ffe995" /><rect x="0" y="3" width="1" height="1" fill="#ffe997" /><rect x="0" y="4" width="1" height="1" fill="#ffe79a" /><rect x="0" y="5" width="1" height="1" fill="#ffeb9b" /><rect x="0" y="6" width="1" height="1" fill="#fbe993" /><rect x="0" y="7" width="1" height="1" fill="#fff397" /><rect x="0" y="8" width="1" height="1" fill="#f6f090" /><rect x="0" y="9" width="1" height="1" fill="#e5e488" /><rect x="1" y="0" width="1" height="1" fill="#ffee96" /><rect x="1" y="1" width="1" height="1" fill="#fde992" /><rect x="1" y="2" width="1" height="1" fill="#fce891" /><rect x="1" y="3" width="1" height="1" fill="#ffea95" /><rect x="1" y="4" width="1" height="1" fill="#f7e18e" /><rect x="1" y="5" width="1" height="1" fill="#f9e491" /><rect x="1" y="6" width="1" height="1" fill="#f4e28e" /><rect x="1" y="7" width="1" height="1" fill="#ecdd88" /><rect x="1" y="8" width="1" height="1" fill="#f1e790" /><rect x="1" y="9" width="1" height="1" fill="#ede695" /><rect x="2" y="0" width="1" height="1" fill="#fcec97" /><rect x="2" y="1" width="1" height="1" fill="#faea93" /><rect x="2" y="2" width="1" height="1" fill="#ffef97" /><rect x="2" y="3" width="1" height="1" fill="#fded95" /><rect x="2" y="4" width="1" height="1" fill="#efdf87" /><rect x="2" y="5" width="1" height="1" fill="#faea93" /><rect x="2" y="6" width="1" height="1" fill="#fff2a4" /><rect x="2" y="7" width="1" height="1" fill="#faeca5" /><rect x="2" y="8" width="1" height="1" fill="#fff1b4" /><rect x="2" y="9" width="1" height="1" fill="#faefb7" /><rect x="3" y="0" width="1" height="1" fill="#f6e593" /><rect x="3" y="1" width="1" height="1" fill="#f6e792" /><rect x="3" y="2" width="1" height="1" fill="#f9ee95" /><rect x="3" y="3" width="1" height="1" fill="#f4e990" /><rect x="3" y="4" width="1" height="1" fill="#f5eb92" /><rect x="3" y="5" width="1" height="1" fill="#f9f1a0" /><rect x="3" y="6" width="1" height="1" fill="#e4db98" /><rect x="3" y="7" width="1" height="1" fill="#c8bd87" /><rect x="3" y="8" width="1" height="1" fill="#c2b68e" /><rect x="3" y="9" width="1" height="1" fill="#b9ac89" /><rect x="4" y="0" width="1" height="1" fill="#fceb99" /><rect x="4" y="1" width="1" height="1" fill="#faee9a" /><rect x="4" y="2" width="1" height="1" fill="#ede38e" /><rect x="4" y="3" width="1" height="1" fill="#f3ed99" /><rect x="4" y="4" width="1" height="1" fill="#fff9ad" /><rect x="4" y="5" width="1" height="1" fill="#c1bd7d" /><rect x="4" y="6" width="1" height="1" fill="#605c2d" /><rect x="4" y="7" width="1" height="1" fill="#070200" /><rect x="4" y="8" width="1" height="1" fill="#0d0600" /><rect x="4" y="9" width="1" height="1" fill="#0a0300" /><rect x="5" y="0" width="1" height="1" fill="#f2e28b" /><rect x="5" y="1" width="1" height="1" fill="#fcf09c" /><rect x="5" y="2" width="1" height="1" fill="#f2eb9a" /><rect x="5" y="3" width="1" height="1" fill="#faf6ac" /><rect x="5" y="4" width="1" height="1" fill="#bdbb7e" /><rect x="5" y="5" width="1" height="1" fill="#090800" /><rect x="5" y="6" width="1" height="1" fill="#070700" /><rect x="5" y="7" width="1" height="1" fill="#1e1f11" /><rect x="5" y="8" width="1" height="1" fill="#212119" /><rect x="5" y="9" width="1" height="1" fill="#1b180f" /><rect x="6" y="0" width="1" height="1" fill="#fff399" /><rect x="6" y="1" width="1" height="1" fill="#f7eb95" /><rect x="6" y="2" width="1" height="1" fill="#ebe496" /><rect x="6" y="3" width="1" height="1" fill="#eae8ab" /><rect x="6" y="4" width="1" height="1" fill="#92936b" /><rect x="6" y="5" width="1" height="1" fill="#040600" /><rect x="6" y="6" width="1" height="1" fill="#2f312c" /><rect x="6" y="7" width="1" height="1" fill="#000405" /><rect x="6" y="8" width="1" height="1" fill="#030706" /><rect x="6" y="9" width="1" height="1" fill="#090f03" /><rect x="7" y="0" width="1" height="1" fill="#fded95" /><rect x="7" y="1" width="1" height="1" fill="#e9df8a" /><rect x="7" y="2" width="1" height="1" fill="#faf4aa" /><rect x="7" y="3" width="1" height="1" fill="#dfdca5" /><rect x="7" y="4" width="1" height="1" fill="#545334" /><rect x="7" y="5" width="1" height="1" fill="#000200" /><rect x="7" y="6" width="1" height="1" fill="#05090a" /><rect x="7" y="7" width="1" height="1" fill="#000206" /><rect x="7" y="8" width="1" height="1" fill="#000202" /><rect x="7" y="9" width="1" height="1" fill="#000500" /><rect x="8" y="0" width="1" height="1" fill="#fbf19c" /><rect x="8" y="1" width="1" height="1" fill="#ece595" /><rect x="8" y="2" width="1" height="1" fill="#fdf6b0" /><rect x="8" y="3" width="1" height="1" fill="#e0dba3" /><rect x="8" y="4" width="1" height="1" fill="#58542f" /><rect x="8" y="5" width="1" height="1" fill="#040200" /><rect x="8" y="6" width="1" height="1" fill="#070601" /><rect x="8" y="7" width="1" height="1" fill="#090909" /><rect x="8" y="8" width="1" height="1" fill="#000100" /><rect x="8" y="9" width="1" height="1" fill="#000200" /><rect x="9" y="0" width="1" height="1" fill="#ece692" /><rect x="9" y="1" width="1" height="1" fill="#e4df8e" /><rect x="9" y="2" width="1" height="1" fill="#eae69d" /><rect x="9" y="3" width="1" height="1" fill="#f0ecaf" /><rect x="9" y="4" width="1" height="1" fill="#959265" /><rect x="9" y="5" width="1" height="1" fill="#0c0800" /><rect x="9" y="6" width="1" height="1" fill="#2f2d1e" /><rect x="9" y="7" width="1" height="1" fill="#010100" /><rect x="9" y="8" width="1" height="1" fill="#000200" /><rect x="9" y="9" width="1" height="1" fill="#0a1004" /></g></svg>