<svg width="800" height="1000" xmlns="http://www.w3.org/2000/svg"><defs><linearGradient id="g" x1="0" x2="1" y1="0" y2="1"><stop offset="0%" stop-color="#2d3c96"/><stop offset="100%" stop-color="#d53392"/></linearGradient></defs><rect x="10" y="10" width="780" height="980" fill="url(#g)" rx="50" ry="50" stroke="gold" stroke-width="20"/><text x="400" y="920" width="780" text-anchor="middle" style="font:bold 200px 'Helvetica Neue';fill:gold">05068</text><g transform="translate(80 80) scale(64)"><rect x="0" y="0" width="1" height="1" fill="#a9902a" /><rect x="0" y="1" width="1" height="1" fill="#eac330" /><rect x="0" y="2" width="1" height="1" fill="#eac330" /><rect x="0" y="3" width="1" height="1" fill="#eac330" /><rect x="0" y="4" width="1" height="1" fill="#eac330" /><rect x="0" y="5" width="1" height="1" fill="#eac330" /><rect x="0" y="6" width="1" height="1" fill="#151c1e" /><rect x="0" y="7" width="1" height="1" fill="#07111d" /><rect x="0" y="8" width="1" height="1" fill="#07111d" /><rect x="0" y="9" width="1" height="1" fill="#07111d" /><rect x="1" y="0" width="1" height="1" fill="#434022" /><rect x="1" y="1" width="1" height="1" fill="#434022" /><rect x="1" y="2" width="1" height="1" fill="#434022" /><rect x="1" y="3" width="1" height="1" fill="#434022" /><rect x="1" y="4" width="1" height="1" fill="#434022" /><rect x="1" y="5" width="1" height="1" fill="#434022" /><rect x="1" y="6" width="1" height="1" fill="#0b141d" /><rect x="1" y="7" width="1" height="1" fill="#212a35" /><rect x="1" y="8" width="1" height="1" fill="#4e555e" /><rect x="1" y="9" width="1" height="1" fill="#242d38" /><rect x="2" y="0" width="1" height="1" fill="#807027" /><rect x="2" y="1" width="1" height="1" fill="#807027" /><rect x="2" y="2" width="1" height="1" fill="#807027" /><rect x="2" y="3" width="1" height="1" fill="#807027" /><rect x="2" y="4" width="1" height="1" fill="#807027" /><rect x="2" y="5" width="1" height="1" fill="#807027" /><rect x="2" y="6" width="1" height="1" fill="#0f171e" /><rect x="2" y="7" width="1" height="1" fill="#565d65" /><rect x="2" y="8" width="1" height="1" fill="#28313b" /><rect x="2" y="9" width="1" height="1" fill="#575e66" /><rect x="3" y="0" width="1" height="1" fill="#625825" /><rect x="3" y="1" width="1" height="1" fill="#625825" /><rect x="3" y="2" width="1" height="1" fill="#625825" /><rect x="3" y="3" width="1" height="1" fill="#625825" /><rect x="3" y="4" width="1" height="1" fill="#625825" /><rect x="3" y="5" width="1" height="1" fill="#625825" /><rect x="3" y="6" width="1" height="1" fill="#0d151d" /><rect x="3" y="7" width="1" height="1" fill="#0a1420" /><rect x="3" y="8" width="1" height="1" fill="#2e3640" /><rect x="3" y="9" width="1" height="1" fill="#0c1621" /><rect x="4" y="0" width="1" height="1" fill="#8c7a28" /><rect x="4" y="1" width="1" height="1" fill="#f8ce31" /><rect x="4" y="2" width="1" height="1" fill="#f8ce31" /><rect x="4" y="3" width="1" height="1" fill="#f8ce31" /><rect x="4" y="4" width="1" height="1" fill="#f8ce31" /><rect x="4" y="5" width="1" height="1" fill="#f8ce31" /><rect x="4" y="6" width="1" height="1" fill="#161d1e" /><rect x="4" y="7" width="1" height="1" fill="#07111d" /><rect x="4" y="8" width="1" height="1" fill="#07111d" /><rect x="4" y="9" width="1" height="1" fill="#07111d" /><rect x="5" y="0" width="1" height="1" fill="#08121d" /><rect x="5" y="1" width="1" height="1" fill="#716426" /><rect x="5" y="2" width="1" height="1" fill="#8f7c28" /><rect x="5" y="3" width="1" height="1" fill="#8f7c28" /><rect x="5" y="4" width="1" height="1" fill="#8f7c28" /><rect x="5" y="5" width="1" height="1" fill="#8f7c28" /><rect x="5" y="6" width="1" height="1" fill="#10181e" /><rect x="5" y="7" width="1" height="1" fill="#3b424c" /><rect x="5" y="8" width="1" height="1" fill="#4c535c" /><rect x="5" y="9" width="1" height="1" fill="#2b343e" /><rect x="6" y="0" width="1" height="1" fill="#323221" /><rect x="6" y="1" width="1" height="1" fill="#625825" /><rect x="6" y="2" width="1" height="1" fill="#625825" /><rect x="6" y="3" width="1" height="1" fill="#625825" /><rect x="6" y="4" width="1" height="1" fill="#625825" /><rect x="6" y="5" width="1" height="1" fill="#625825" /><rect x="6" y="6" width="1" height="1" fill="#0d151d" /><rect x="6" y="7" width="1" height="1" fill="#3a424b" /><rect x="6" y="8" width="1" height="1" fill="#6d737a" /><rect x="6" y="9" width="1" height="1" fill="#18212c" /><rect x="7" y="0" width="1" height="1" fill="#877528" /><rect x="7" y="1" width="1" height="1" fill="#877528" /><rect x="7" y="2" width="1" height="1" fill="#877528" /><rect x="7" y="3" width="1" height="1" fill="#877528" /><rect x="7" y="4" width="1" height="1" fill="#877528" /><rect x="7" y="5" width="1" height="1" fill="#877528" /><rect x="7" y="6" width="1" height="1" fill="#10181e" /><rect x="7" y="7" width="1" height="1" fill="#07111d" /><rect x="7" y="8" width="1" height="1" fill="#07111d" /><rect x="7" y="9" width="1" height="1" fill="#07111d" /><rect x="8" y="0" width="1" height="1" fill="#716426" /><rect x="8" y="1" width="1" height="1" fill="#716426" /><rect x="8" y="2" width="1" height="1" fill="#716426" /><rect x="8" y="3" width="1" height="1" fill="#716426" /><rect x="8" y="4" width="1" height="1" fill="#716426" /><rect x="8" y="5" width="1" height="1" fill="#716426" /><rect x="8" y="6" width="1" height="1" fill="#0e161e" /><rect x="8" y="7" width="1" height="1" fill="#151e29" /><rect x="8" y="8" width="1" height="1" fill="#0a1420" /><rect x="8" y="9" width="1" height="1" fill="#161f2a" /><rect x="9" y="0" width="1" height="1" fill="#252920" /><rect x="9" y="1" width="1" height="1" fill="#252920" /><rect x="9" y="2" width="1" height="1" fill="#252920" /><rect x="9" y="3" width="1" height="1" fill="#252920" /><rect x="9" y="4" width="1" height="1" fill="#252920" /><rect x="9" y="5" width="1" height="1" fill="#252920" /><rect x="9" y="6" width="1" height="1" fill="#09121d" /><rect x="9" y="7" width="1" height="1" fill="#5e646c" /><rect x="9" y="8" width="1" height="1" fill="#575e66" /><rect x="9" y="9" width="1" height="1" fill="#60666e" /></g></svg>