<svg width="800" height="1000" xmlns="http://www.w3.org/2000/svg"><defs><linearGradient id="g" x1="0" x2="1" y1="0" y2="1"><stop offset="0%" stop-color="#2d3c96"/><stop offset="100%" stop-color="#d53392"/></linearGradient></defs><rect x="10" y="10" width="780" height="980" fill="url(#g)" rx="50" ry="50" stroke="gold" stroke-width="20"/><text x="400" y="920" width="780" text-anchor="middle" style="font:bold 200px 'Helvetica Neue';fill:gold">05070</text><g transform="translate(80 80) scale(64)"><rect x="0" y="0" width="1" height="1" fill="#bc9f2c" /><rect x="0" y="1" width="1" height="1" fill="#bc9f2c" /><rect x="0" y="2" width="1" height="1" fill="#bc9f2c" /><rect x="0" y="3" width="1" height="1" fill="#bc9f2c" /><rect x="0" y="4" width="1" height="1" fill="#bc9f2c" /><rect x="0" y="5" width="1" height="1" fill="#bc9f2c" /><rect x="0" y="6" width="1" height="1" fill="#121a1e" /><rect x="0" y="7" width="1" height="1" fill="#565d65" /><rect x="0" y="8" width="1" height="1" fill="#7c8187" /><rect x="0" y="9" width="1" height="1" fill="#3a424b" /><rect x="1" y="0" width="1" height="1" fill="#434022" /><rect x="1" y="1" width="1" height="1" fill="#434022" /><rect x="1" y="2" width="1" height="1" fill="#434022" /><rect x="1" y="3" width="1" height="1" fill="#434022" /><rect x="1" y="4" width="1" height="1" fill="#434022" /><rect x="1" y="5" width="1" height="1" fill="#434022" /><rect x="1" y="6" width="1" height="1" fill="#0b141d" /><rect x="1" y="7" width="1" height="1" fill="#1c2630" /><rect x="1" y="8" width="1" height="1" fill="#3a424b" /><rect x="1" y="9" width="1" height="1" fill="#07111d" /><rect x="2" y="0" width="1" height="1" fill="#807027" /><rect x="2" y="1" width="1" height="1" fill="#807027" /><rect x="2" y="2" width="1" height="1" fill="#807027" /><rect x="2" y="3" width="1" height="1" fill="#807027" /><rect x="2" y="4" width="1" height="1" fill="#807027" /><rect x="2" y="5" width="1" height="1" fill="#807027" /><rect x="2" y="6" width="1" height="1" fill="#0f171e" /><rect x="2" y="7" width="1" height="1" fill="#07111d" /><rect x="2" y="8" width="1" height="1" fill="#07111d" /><rect x="2" y="9" width="1" height="1" fill="#07111d" /><rect x="3" y="0" width="1" height="1" fill="#252920" /><rect x="3" y="1" width="1" height="1" fill="#252920" /><rect x="3" y="2" width="1" height="1" fill="#252920" /><rect x="3" y="3" width="1" height="1" fill="#252920" /><rect x="3" y="4" width="1" height="1" fill="#252920" /><rect x="3" y="5" width="1" height="1" fill="#252920" /><rect x="3" y="6" width="1" height="1" fill="#09121d" /><rect x="3" y="7" width="1" height="1" fill="#384049" /><rect x="3" y="8" width="1" height="1" fill="#161f2a" /><rect x="3" y="9" width="1" height="1" fill="#464e57" /><rect x="4" y="0" width="1" height="1" fill="#f8ce31" /><rect x="4" y="1" width="1" height="1" fill="#f8ce31" /><rect x="4" y="2" width="1" height="1" fill="#f8ce31" /><rect x="4" y="3" width="1" height="1" fill="#f8ce31" /><rect x="4" y="4" width="1" height="1" fill="#f8ce31" /><rect x="4" y="5" width="1" height="1" fill="#f8ce31" /><rect x="4" y="6" width="1" height="1" fill="#161d1e" /><rect x="4" y="7" width="1" height="1" fill="#414952" /><rect x="4" y="8" width="1" height="1" fill="#535a62" /><rect x="4" y="9" width="1" height="1" fill="#3c434d" /><rect x="5" y="0" width="1" height="1" fill="#343521" /><rect x="5" y="1" width="1" height="1" fill="#343521" /><rect x="5" y="2" width="1" height="1" fill="#343521" /><rect x="5" y="3" width="1" height="1" fill="#343521" /><rect x="5" y="4" width="1" height="1" fill="#343521" /><rect x="5" y="5" width="1" height="1" fill="#343521" /><rect x="5" y="6" width="1" height="1" fill="#0a131d" /><rect x="5" y="7" width="1" height="1" fill="#07111d" /><rect x="5" y="8" width="1" height="1" fill="#07111d" /><rect x="5" y="9" width="1" height="1" fill="#07111d" /><rect x="6" y="0" width="1" height="1" fill="#dbb72f" /><rect x="6" y="1" width="1" height="1" fill="#dbb72f" /><rect x="6" y="2" width="1" height="1" fill="#dbb72f" /><rect x="6" y="3" width="1" height="1" fill="#dbb72f" /><rect x="6" y="4" width="1" height="1" fill="#dbb72f" /><rect x="6" y="5" width="1" height="1" fill="#dbb72f" /><rect x="6" y="6" width="1" height="1" fill="#141b1e" /><rect x="6" y="7" width="1" height="1" fill="#07111d" /><rect x="6" y="8" width="1" height="1" fill="#101925" /><rect x="6" y="9" width="1" height="1" fill="#07111d" /><rect x="7" y="0" width="1" height="1" fill="#625825" /><rect x="7" y="1" width="1" height="1" fill="#625825" /><rect x="7" y="2" width="1" height="1" fill="#625825" /><rect x="7" y="3" width="1" height="1" fill="#625825" /><rect x="7" y="4" width="1" height="1" fill="#625825" /><rect x="7" y="5" width="1" height="1" fill="#625825" /><rect x="7" y="6" width="1" height="1" fill="#0d151d" /><rect x="7" y="7" width="1" height="1" fill="#50575f" /><rect x="7" y="8" width="1" height="1" fill="#464e57" /><rect x="7" y="9" width="1" height="1" fill="#525961" /><rect x="8" y="0" width="1" height="1" fill="#807027" /><rect x="8" y="1" width="1" height="1" fill="#807027" /><rect x="8" y="2" width="1" height="1" fill="#807027" /><rect x="8" y="3" width="1" height="1" fill="#807027" /><rect x="8" y="4" width="1" height="1" fill="#807027" /><rect x="8" y="5" width="1" height="1" fill="#807027" /><rect x="8" y="6" width="1" height="1" fill="#0f171e" /><rect x="8" y="7" width="1" height="1" fill="#2b343e" /><rect x="8" y="8" width="1" height="1" fill="#4d545d" /><rect x="8" y="9" width="1" height="1" fill="#2e3640" /><rect x="9" y="0" width="1" height="1" fill="#07111d" /><rect x="9" y="1" width="1" height="1" fill="#07111d" /><rect x="9" y="2" width="1" height="1" fill="#07111d" /><rect x="9" y="3" width="1" height="1" fill="#07111d" /><rect x="9" y="4" width="1" height="1" fill="#07111d" /><rect x="9" y="5" width="1" height="1" fill="#07111d" /><rect x="9" y="6" width="1" height="1" fill="#07111d" /><rect x="9" y="7" width="1" height="1" fill="#07111d" /><rect x="9" y="8" width="1" height="1" fill="#07111d" /><rect x="9" y="9" width="1" height="1" fill="#07111d" /></g></svg>