<svg width="800" height="1000" xmlns="http://www.w3.org/2000/svg"><defs><linearGradient id="g" x1="0" x2="1" y1="0" y2="1"><stop offset="0%" stop-color="#2d3c96"/><stop offset="100%" stop-color="#d53392"/></linearGradient></defs><rect x="10" y="10" width="780" height="980" fill="url(#g)" rx="50" ry="50" stroke="gold" stroke-width="20"/><text x="400" y="920" width="780" text-anchor="middle" style="font:bold 200px 'Helvetica Neue';fill:gold">05071</text><g transform="translate(80 80) scale(64)"><rect x="0" y="0" width="1" height="1" fill="#292929" /><rect x="0" y="1" width="1" height="1" fill="#292929" /><rect x="0" y="2" width="1" height="1" fill="#292929" /><rect x="0" y="3" width="1" height="1" fill="#675e19" /><rect x="0" y="4" width="1" height="1" fill="#83750f" /><rect x="0" y="5" width="1" height="1" fill="#b19c08" /><rect x="0" y="6" width="1" height="1" fill="#f2d300" /><rect x="0" y="7" width="1" height="1" fill="#d8bd03" /><rect x="0" y="8" width="1" height="1" fill="#97850c" /><rect x="0" y="9" width="1" height="1" fill="#9d8b0b" /><rect x="1" y="0" width="1" height="1" fill="#2a2a27" /><rect x="1" y="1" width="1" height="1" fill="#685e17" /><rect x="1" y="2" width="1" height="1" fill="#87780e" /><rect x="1" y="3" width="1" height="1" fill="#ab9609" /><rect x="1" y="4" width="1" height="1" fill="#c2aa06" /><rect x="1" y="5" width="1" height="1" fill="#96840c" /><rect x="1" y="6" width="1" height="1" fill="#98860b" /><rect x="1" y="7" width="1" height="1" fill="#ab9609" /><rect x="1" y="8" width="1" height="1" fill="#b6a83d" /><rect x="1" y="9" width="1" height="1" fill="#b6b584" /><rect x="2" y="0" width="1" height="1" fill="#6a5f12" /><rect x="2" y="1" width="1" height="1" fill="#89790d" /><rect x="2" y="2" width="1" height="1" fill="#9f8c0b" /><rect x="2" y="3" width="1" height="1" fill="#a89409" /><rect x="2" y="4" width="1" height="1" fill="#cfb505" /><rect x="2" y="5" width="1" height="1" fill="#f0d200" /><rect x="2" y="6" width="1" height="1" fill="#f3d400" /><rect x="2" y="7" width="1" height="1" fill="#f3d400" /><rect x="2" y="8" width="1" height="1" fill="#b9b36a" /><rect x="2" y="9" width="1" height="1" fill="#d7ddc1" /><rect x="3" y="0" width="1" height="1" fill="#f3d400" /><rect x="3" y="1" width="1" height="1" fill="#f3d400" /><rect x="3" y="2" width="1" height="1" fill="#f3d400" /><rect x="3" y="3" width="1" height="1" fill="#f3d400" /><rect x="3" y="4" width="1" height="1" fill="#f3d400" /><rect x="3" y="5" width="1" height="1" fill="#f3d400" /><rect x="3" y="6" width="1" height="1" fill="#f3d400" /><rect x="3" y="7" width="1" height="1" fill="#f3d400" /><rect x="3" y="8" width="1" height="1" fill="#d1bb1c" /><rect x="3" y="9" width="1" height="1" fill="#b3a748" /><rect x="4" y="0" width="1" height="1" fill="#f3d400" /><rect x="4" y="1" width="1" height="1" fill="#f3d400" /><rect x="4" y="2" width="1" height="1" fill="#f3d400" /><rect x="4" y="3" width="1" height="1" fill="#f3d400" /><rect x="4" y="4" width="1" height="1" fill="#f3d400" /><rect x="4" y="5" width="1" height="1" fill="#f3d400" /><rect x="4" y="6" width="1" height="1" fill="#f3d400" /><rect x="4" y="7" width="1" height="1" fill="#f3d400" /><rect x="4" y="8" width="1" height="1" fill="#f1d300" /><rect x="4" y="9" width="1" height="1" fill="#a7a571" /><rect x="5" y="0" width="1" height="1" fill="#efd001" /><rect x="5" y="1" width="1" height="1" fill="#f3d400" /><rect x="5" y="2" width="1" height="1" fill="#f3d400" /><rect x="5" y="3" width="1" height="1" fill="#f3d400" /><rect x="5" y="4" width="1" height="1" fill="#f3d400" /><rect x="5" y="5" width="1" height="1" fill="#f3d400" /><rect x="5" y="6" width="1" height="1" fill="#f3d400" /><rect x="5" y="7" width="1" height="1" fill="#f3d400" /><rect x="5" y="8" width="1" height="1" fill="#f0d100" /><rect x="5" y="9" width="1" height="1" fill="#b2b286" /><rect x="6" y="0" width="1" height="1" fill="#756912" /><rect x="6" y="1" width="1" height="1" fill="#c3ab06" /><rect x="6" y="2" width="1" height="1" fill="#f3d400" /><rect x="6" y="3" width="1" height="1" fill="#f2d300" /><rect x="6" y="4" width="1" height="1" fill="#f0d100" /><rect x="6" y="5" width="1" height="1" fill="#f3d400" /><rect x="6" y="6" width="1" height="1" fill="#f3d400" /><rect x="6" y="7" width="1" height="1" fill="#f3d400" /><rect x="6" y="8" width="1" height="1" fill="#f3d400" /><rect x="6" y="9" width="1" height="1" fill="#d7be10" /><rect x="7" y="0" width="1" height="1" fill="#2a2a29" /><rect x="7" y="1" width="1" height="1" fill="#665c18" /><rect x="7" y="2" width="1" height="1" fill="#7c6e11" /><rect x="7" y="3" width="1" height="1" fill="#b19c08" /><rect x="7" y="4" width="1" height="1" fill="#bba407" /><rect x="7" y="5" width="1" height="1" fill="#c3ab06" /><rect x="7" y="6" width="1" height="1" fill="#cbb205" /><rect x="7" y="7" width="1" height="1" fill="#ebce01" /><rect x="7" y="8" width="1" height="1" fill="#f3d400" /><rect x="7" y="9" width="1" height="1" fill="#efd001" /><rect x="8" y="0" width="1" height="1" fill="#292929" /><rect x="8" y="1" width="1" height="1" fill="#292929" /><rect x="8" y="2" width="1" height="1" fill="#292929" /><rect x="8" y="3" width="1" height="1" fill="#373525" /><rect x="8" y="4" width="1" height="1" fill="#494421" /><rect x="8" y="5" width="1" height="1" fill="#50491f" /><rect x="8" y="6" width="1" height="1" fill="#564e1e" /><rect x="8" y="7" width="1" height="1" fill="#534c1e" /><rect x="8" y="8" width="1" height="1" fill="#50491f" /><rect x="8" y="9" width="1" height="1" fill="#474221" /><rect x="9" y="0" width="1" height="1" fill="#292929" /><rect x="9" y="1" width="1" height="1" fill="#292929" /><rect x="9" y="2" width="1" height="1" fill="#292929" /><rect x="9" y="3" width="1" height="1" fill="#292929" /><rect x="9" y="4" width="1" height="1" fill="#292929" /><rect x="9" y="5" width="1" height="1" fill="#292929" /><rect x="9" y="6" width="1" height="1" fill="#292929" /><rect x="9" y="7" width="1" height="1" fill="#292929" /><rect x="9" y="8" width="1" height="1" fill="#292929" /><rect x="9" y="9" width="1" height="1" fill="#292929" /></g></svg>