<svg width="800" height="1000" xmlns="http://www.w3.org/2000/svg"><defs><linearGradient id="g" x1="0" x2="1" y1="0" y2="1"><stop offset="0%" stop-color="#2d3c96"/><stop offset="100%" stop-color="#d53392"/></linearGradient></defs><rect x="10" y="10" width="780" height="980" fill="url(#g)" rx="50" ry="50" stroke="gold" stroke-width="20"/><text x="400" y="920" width="780" text-anchor="middle" style="font:bold 200px 'Helvetica Neue';fill:gold">05071</text><g transform="translate(80 80) scale(64)"><rect x="0" y="0" width="1" height="1" fill="#786a26" /><rect x="0" y="1" width="1" height="1" fill="#bc9f2c" /><rect x="0" y="2" width="1" height="1" fill="#bc9f2c" /><rect x="0" y="3" width="1" height="1" fill="#bc9f2c" /><rect x="0" y="4" width="1" height="1" fill="#bc9f2c" /><rect x="0" y="5" width="1" height="1" fill="#bc9f2c" /><rect x="0" y="6" width="1" height="1" fill="#121a1e" /><rect x="0" y="7" width="1" height="1" fill="#1c2630" /><rect x="0" y="8" width="1" height="1" fill="#0c1621" /><rect x="0" y="9" width="1" height="1" fill="#1e2732" /><rect x="1" y="0" width="1" height="1" fill="#08121d" /><rect x="1" y="1" width="1" height="1" fill="#5e5524" /><rect x="1" y="2" width="1" height="1" fill="#ad932b" /><rect x="1" y="3" width="1" height="1" fill="#ad932b" /><rect x="1" y="4" width="1" height="1" fill="#ad932b" /><rect x="1" y="5" width="1" height="1" fill="#ad932b" /><rect x="1" y="6" width="1" height="1" fill="#11191e" /><rect x="1" y="7" width="1" height="1" fill="#595f67" /><rect x="1" y="8" width="1" height="1" fill="#5c626a" /><rect x="1" y="9" width="1" height="1" fill="#5c626a" /><rect x="2" y="0" width="1" height="1" fill="#07111d" /><rect x="2" y="1" width="1" height="1" fill="#07111d" /><rect x="2" y="2" width="1" height="1" fill="#07111d" /><rect x="2" y="3" width="1" height="1" fill="#07111d" /><rect x="2" y="4" width="1" height="1" fill="#07111d" /><rect x="2" y="5" width="1" height="1" fill="#07111d" /><rect x="2" y="6" width="1" height="1" fill="#07111d" /><rect x="2" y="7" width="1" height="1" fill="#08121e" /><rect x="2" y="8" width="1" height="1" fill="#09131f" /><rect x="2" y="9" width="1" height="1" fill="#0f1824" /><rect x="3" y="0" width="1" height="1" fill="#07111d" /><rect x="3" y="1" width="1" height="1" fill="#07111d" /><rect x="3" y="2" width="1" height="1" fill="#07111d" /><rect x="3" y="3" width="1" height="1" fill="#383821" /><rect x="3" y="4" width="1" height="1" fill="#998429" /><rect x="3" y="5" width="1" height="1" fill="#9e882a" /><rect x="3" y="6" width="1" height="1" fill="#10181e" /><rect x="3" y="7" width="1" height="1" fill="#07111d" /><rect x="3" y="8" width="1" height="1" fill="#07111d" /><rect x="3" y="9" width="1" height="1" fill="#07111d" /><rect x="4" y="0" width="1" height="1" fill="#07111d" /><rect x="4" y="1" width="1" height="1" fill="#07111d" /><rect x="4" y="2" width="1" height="1" fill="#07111d" /><rect x="4" y="3" width="1" height="1" fill="#07111d" /><rect x="4" y="4" width="1" height="1" fill="#23271f" /><rect x="4" y="5" width="1" height="1" fill="#786a26" /><rect x="4" y="6" width="1" height="1" fill="#0f171e" /><rect x="4" y="7" width="1" height="1" fill="#444c55" /><rect x="4" y="8" width="1" height="1" fill="#2a333d" /><rect x="4" y="9" width="1" height="1" fill="#575e66" /><rect x="5" y="0" width="1" height="1" fill="#07111d" /><rect x="5" y="1" width="1" height="1" fill="#07111d" /><rect x="5" y="2" width="1" height="1" fill="#07111d" /><rect x="5" y="3" width="1" height="1" fill="#07111d" /><rect x="5" y="4" width="1" height="1" fill="#07111d" /><rect x="5" y="5" width="1" height="1" fill="#20241f" /><rect x="5" y="6" width="1" height="1" fill="#0d151d" /><rect x="5" y="7" width="1" height="1" fill="#323a44" /><rect x="5" y="8" width="1" height="1" fill="#3f4750" /><rect x="5" y="9" width="1" height="1" fill="#2a333d" /><rect x="6" y="0" width="1" height="1" fill="#07111d" /><rect x="6" y="1" width="1" height="1" fill="#07111d" /><rect x="6" y="2" width="1" height="1" fill="#07111d" /><rect x="6" y="3" width="1" height="1" fill="#07111d" /><rect x="6" y="4" width="1" height="1" fill="#07111d" /><rect x="6" y="5" width="1" height="1" fill="#07111d" /><rect x="6" y="6" width="1" height="1" fill="#07111d" /><rect x="6" y="7" width="1" height="1" fill="#07111d" /><rect x="6" y="8" width="1" height="1" fill="#07111d" /><rect x="6" y="9" width="1" height="1" fill="#07111d" /><rect x="7" y="0" width="1" height="1" fill="#07111d" /><rect x="7" y="1" width="1" height="1" fill="#07111d" /><rect x="7" y="2" width="1" height="1" fill="#07111d" /><rect x="7" y="3" width="1" height="1" fill="#07111d" /><rect x="7" y="4" width="1" height="1" fill="#07111d" /><rect x="7" y="5" width="1" height="1" fill="#07111d" /><rect x="7" y="6" width="1" height="1" fill="#07111d" /><rect x="7" y="7" width="1" height="1" fill="#07111d" /><rect x="7" y="8" width="1" height="1" fill="#07111d" /><rect x="7" y="9" width="1" height="1" fill="#07111d" /><rect x="8" y="0" width="1" height="1" fill="#07111d" /><rect x="8" y="1" width="1" height="1" fill="#07111d" /><rect x="8" y="2" width="1" height="1" fill="#07111d" /><rect x="8" y="3" width="1" height="1" fill="#07111d" /><rect x="8" y="4" width="1" height="1" fill="#07111d" /><rect x="8" y="5" width="1" height="1" fill="#07111d" /><rect x="8" y="6" width="1" height="1" fill="#07111d" /><rect x="8" y="7" width="1" height="1" fill="#07111d" /><rect x="8" y="8" width="1" height="1" fill="#07111d" /><rect x="8" y="9" width="1" height="1" fill="#07111d" /><rect x="9" y="0" width="1" height="1" fill="#07111d" /><rect x="9" y="1" width="1" height="1" fill="#07111d" /><rect x="9" y="2" width="1" height="1" fill="#07111d" /><rect x="9" y="3" width="1" height="1" fill="#07111d" /><rect x="9" y="4" width="1" height="1" fill="#07111d" /><rect x="9" y="5" width="1" height="1" fill="#07111d" /><rect x="9" y="6" width="1" height="1" fill="#07111d" /><rect x="9" y="7" width="1" height="1" fill="#07111d" /><rect x="9" y="8" width="1" height="1" fill="#07111d" /><rect x="9" y="9" width="1" height="1" fill="#07111d" /></g></svg>