<svg width="800" height="1000" xmlns="http://www.w3.org/2000/svg"><defs><linearGradient id="g" x1="0" x2="1" y1="0" y2="1"><stop offset="0%" stop-color="#2d3c96"/><stop offset="100%" stop-color="#d53392"/></linearGradient></defs><rect x="10" y="10" width="780" height="980" fill="url(#g)" rx="50" ry="50" stroke="gold" stroke-width="20"/><text x="400" y="920" width="780" text-anchor="middle" style="font:bold 200px 'Helvetica Neue';fill:gold">05127</text><g transform="translate(80 80) scale(64)"><rect x="0" y="0" width="1" height="1" fill="#e2b5d2" /><rect x="0" y="1" width="1" height="1" fill="#dfaecc" /><rect x="0" y="2" width="1" height="1" fill="#e7b0cd" /><rect x="0" y="3" width="1" height="1" fill="#e7aac9" /><rect x="0" y="4" width="1" height="1" fill="#eca9ca" /><rect x="0" y="5" width="1" height="1" fill="#e9acce" /><rect x="0" y="6" width="1" height="1" fill="#e5b7db" /><rect x="0" y="7" width="1" height="1" fill="#bb98b6" /><rect x="0" y="8" width="1" height="1" fill="#220716" /><rect x="0" y="9" width="1" height="1" fill="#2e0f1e" /><rect x="1" y="0" width="1" height="1" fill="#dbafc6" /><rect x="1" y="1" width="1" height="1" fill="#e5b1c8" /><rect x="1" y="2" width="1" height="1" fill="#e7acc2" /><rect x="1" y="3" width="1" height="1" fill="#eeadc5" /><rect x="1" y="4" width="1" height="1" fill="#f6afcf" /><rect x="1" y="5" width="1" height="1" fill="#eaa7ca" /><rect x="1" y="6" width="1" height="1" fill="#eab3d3" /><rect x="1" y="7" width="1" height="1" fill="#d6aac3" /><rect x="1" y="8" width="1" height="1" fill="#472331" /><rect x="1" y="9" width="1" height="1" fill="#170001" /><rect x="2" y="0" width="1" height="1" fill="#d0a7b7" /><rect x="2" y="1" width="1" height="1" fill="#ecb8c5" /><rect x="2" y="2" width="1" height="1" fill="#efabb8" /><rect x="2" y="3" width="1" height="1" fill="#fbaec0" /><rect x="2" y="4" width="1" height="1" fill="#f3a7c5" /><rect x="2" y="5" width="1" height="1" fill="#f5aacb" /><rect x="2" y="6" width="1" height="1" fill="#f4afcb" /><rect x="2" y="7" width="1" height="1" fill="#ecaec3" /><rect x="2" y="8" width="1" height="1" fill="#824e5a" /><rect x="2" y="9" width="1" height="1" fill="#1d0000" /><rect x="3" y="0" width="1" height="1" fill="#a6808b" /><rect x="3" y="1" width="1" height="1" fill="#e3b0b7" /><rect x="3" y="2" width="1" height="1" fill="#fbb5bd" /><rect x="3" y="3" width="1" height="1" fill="#fcaebb" /><rect x="3" y="4" width="1" height="1" fill="#f9abc5" /><rect x="3" y="5" width="1" height="1" fill="#ffb3cf" /><rect x="3" y="6" width="1" height="1" fill="#efa6b9" /><rect x="3" y="7" width="1" height="1" fill="#f7b5bf" /><rect x="3" y="8" width="1" height="1" fill="#bb8489" /><rect x="3" y="9" width="1" height="1" fill="#1f0000" /><rect x="4" y="0" width="1" height="1" fill="#805a65" /><rect x="4" y="1" width="1" height="1" fill="#eebdc3" /><rect x="4" y="2" width="1" height="1" fill="#ffc3c9" /><rect x="4" y="3" width="1" height="1" fill="#f9b0b9" /><rect x="4" y="4" width="1" height="1" fill="#ffb7cb" /><rect x="4" y="5" width="1" height="1" fill="#fbb2c3" /><rect x="4" y="6" width="1" height="1" fill="#f8b3b8" /><rect x="4" y="7" width="1" height="1" fill="#f5b9b8" /><rect x="4" y="8" width="1" height="1" fill="#d3a29e" /><rect x="4" y="9" width="1" height="1" fill="#1a0000" /><rect x="5" y="0" width="1" height="1" fill="#45212b" /><rect x="5" y="1" width="1" height="1" fill="#daadb2" /><rect x="5" y="2" width="1" height="1" fill="#f3bbbc" /><rect x="5" y="3" width="1" height="1" fill="#f3b2b6" /><rect x="5" y="4" width="1" height="1" fill="#fcb6c0" /><rect x="5" y="5" width="1" height="1" fill="#f1acb1" /><rect x="5" y="6" width="1" height="1" fill="#fdc1b9" /><rect x="5" y="7" width="1" height="1" fill="#f4c0b3" /><rect x="5" y="8" width="1" height="1" fill="#f6d0c5" /><rect x="5" y="9" width="1" height="1" fill="#694f50" /><rect x="6" y="0" width="1" height="1" fill="#1e0004" /><rect x="6" y="1" width="1" height="1" fill="#b2898d" /><rect x="6" y="2" width="1" height="1" fill="#f3c3c1" /><rect x="6" y="3" width="1" height="1" fill="#fdc6c3" /><rect x="6" y="4" width="1" height="1" fill="#fbbbb9" /><rect x="6" y="5" width="1" height="1" fill="#f8b9b2" /><rect x="6" y="6" width="1" height="1" fill="#f7c0ac" /><rect x="6" y="7" width="1" height="1" fill="#efc5ad" /><rect x="6" y="8" width="1" height="1" fill="#dabdaf" /><rect x="6" y="9" width="1" height="1" fill="#5c4c4d" /><rect x="7" y="0" width="1" height="1" fill="#180000" /><rect x="7" y="1" width="1" height="1" fill="#815d5d" /><rect x="7" y="2" width="1" height="1" fill="#f0c9c4" /><rect x="7" y="3" width="1" height="1" fill="#f5c6be" /><rect x="7" y="4" width="1" height="1" fill="#fec5ba" /><rect x="7" y="5" width="1" height="1" fill="#fac2b1" /><rect x="7" y="6" width="1" height="1" fill="#fbcdb3" /><rect x="7" y="7" width="1" height="1" fill="#f0ceb5" /><rect x="7" y="8" width="1" height="1" fill="#715e50" /><rect x="7" y="9" width="1" height="1" fill="#030004" /><rect x="8" y="0" width="1" height="1" fill="#1d0005" /><rect x="8" y="1" width="1" height="1" fill="#190000" /><rect x="8" y="2" width="1" height="1" fill="#be9d98" /><rect x="8" y="3" width="1" height="1" fill="#fad4c7" /><rect x="8" y="4" width="1" height="1" fill="#f9c9b5" /><rect x="8" y="5" width="1" height="1" fill="#f8c8b1" /><rect x="8" y="6" width="1" height="1" fill="#ecc7ad" /><rect x="8" y="7" width="1" height="1" fill="#987f6b" /><rect x="8" y="8" width="1" height="1" fill="#100501" /><rect x="8" y="9" width="1" height="1" fill="#010413" /><rect x="9" y="0" width="1" height="1" fill="#7d5963" /><rect x="9" y="1" width="1" height="1" fill="#150000" /><rect x="9" y="2" width="1" height="1" fill="#9f847d" /><rect x="9" y="3" width="1" height="1" fill="#ebcec0" /><rect x="9" y="4" width="1" height="1" fill="#f0c7b1" /><rect x="9" y="5" width="1" height="1" fill="#ffdac1" /><rect x="9" y="6" width="1" height="1" fill="#bfa290" /><rect x="9" y="7" width="1" height="1" fill="#100000" /><rect x="9" y="8" width="1" height="1" fill="#010007" /><rect x="9" y="9" width="1" height="1" fill="#6a748f" /></g></svg>