<svg width="800" height="1000" xmlns="http://www.w3.org/2000/svg"><defs><linearGradient id="g" x1="0" x2="1" y1="0" y2="1"><stop offset="0%" stop-color="#2d3c96"/><stop offset="100%" stop-color="#d53392"/></linearGradient></defs><rect x="10" y="10" width="780" height="980" fill="url(#g)" rx="50" ry="50" stroke="gold" stroke-width="20"/><text x="400" y="920" width="780" text-anchor="middle" style="font:bold 200px 'Helvetica Neue';fill:gold">05124</text><g transform="translate(80 80) scale(64)"><rect x="0" y="0" width="1" height="1" fill="#c4bcf7" /><rect x="0" y="1" width="1" height="1" fill="#c4bdf3" /><rect x="0" y="2" width="1" height="1" fill="#c6bdf2" /><rect x="0" y="3" width="1" height="1" fill="#c6beef" /><rect x="0" y="4" width="1" height="1" fill="#c5bfeb" /><rect x="0" y="5" width="1" height="1" fill="#c5bfeb" /><rect x="0" y="6" width="1" height="1" fill="#c9bded" /><rect x="0" y="7" width="1" height="1" fill="#cdbdee" /><rect x="0" y="8" width="1" height="1" fill="#d1baf0" /><rect x="0" y="9" width="1" height="1" fill="#d2b9f0" /><rect x="1" y="0" width="1" height="1" fill="#b5ade8" /><rect x="1" y="1" width="1" height="1" fill="#b7aee7" /><rect x="1" y="2" width="1" height="1" fill="#b7aee3" /><rect x="1" y="3" width="1" height="1" fill="#b7afe2" /><rect x="1" y="4" width="1" height="1" fill="#b6b0de" /><rect x="1" y="5" width="1" height="1" fill="#b8b0df" /><rect x="1" y="6" width="1" height="1" fill="#bbafe1" /><rect x="1" y="7" width="1" height="1" fill="#bfade1" /><rect x="1" y="8" width="1" height="1" fill="#c2abe3" /><rect x="1" y="9" width="1" height="1" fill="#c4abe2" /><rect x="2" y="0" width="1" height="1" fill="#b9afee" /><rect x="2" y="1" width="1" height="1" fill="#bbafed" /><rect x="2" y="2" width="1" height="1" fill="#bbb0ea" /><rect x="2" y="3" width="1" height="1" fill="#bbb0e8" /><rect x="2" y="4" width="1" height="1" fill="#bbb1e5" /><rect x="2" y="5" width="1" height="1" fill="#bdb0e5" /><rect x="2" y="6" width="1" height="1" fill="#c1b0e7" /><rect x="2" y="7" width="1" height="1" fill="#c3aee7" /><rect x="2" y="8" width="1" height="1" fill="#c6ade7" /><rect x="2" y="9" width="1" height="1" fill="#c8ace7" /><rect x="3" y="0" width="1" height="1" fill="#bbafef" /><rect x="3" y="1" width="1" height="1" fill="#bdafed" /><rect x="3" y="2" width="1" height="1" fill="#bdafec" /><rect x="3" y="3" width="1" height="1" fill="#beafea" /><rect x="3" y="4" width="1" height="1" fill="#bfb0e9" /><rect x="3" y="5" width="1" height="1" fill="#c1afe9" /><rect x="3" y="6" width="1" height="1" fill="#c2aee9" /><rect x="3" y="7" width="1" height="1" fill="#c5ade9" /><rect x="3" y="8" width="1" height="1" fill="#c9adea" /><rect x="3" y="9" width="1" height="1" fill="#caacea" /><rect x="4" y="0" width="1" height="1" fill="#bdadee" /><rect x="4" y="1" width="1" height="1" fill="#bfacec" /><rect x="4" y="2" width="1" height="1" fill="#bfadeb" /><rect x="4" y="3" width="1" height="1" fill="#bfade9" /><rect x="4" y="4" width="1" height="1" fill="#c1adea" /><rect x="4" y="5" width="1" height="1" fill="#c2acea" /><rect x="4" y="6" width="1" height="1" fill="#c4acea" /><rect x="4" y="7" width="1" height="1" fill="#c7aaec" /><rect x="4" y="8" width="1" height="1" fill="#c8a9ec" /><rect x="4" y="9" width="1" height="1" fill="#caaaeb" /><rect x="5" y="0" width="1" height="1" fill="#c2b0ee" /><rect x="5" y="1" width="1" height="1" fill="#c2b0ec" /><rect x="5" y="2" width="1" height="1" fill="#c3afea" /><rect x="5" y="3" width="1" height="1" fill="#c3afea" /><rect x="5" y="4" width="1" height="1" fill="#c5b0eb" /><rect x="5" y="5" width="1" height="1" fill="#c7afeb" /><rect x="5" y="6" width="1" height="1" fill="#c8aeeb" /><rect x="5" y="7" width="1" height="1" fill="#cbadeb" /><rect x="5" y="8" width="1" height="1" fill="#cdadec" /><rect x="5" y="9" width="1" height="1" fill="#cdadec" /><rect x="6" y="0" width="1" height="1" fill="#bfaee5" /><rect x="6" y="1" width="1" height="1" fill="#bfaee4" /><rect x="6" y="2" width="1" height="1" fill="#bfaee4" /><rect x="6" y="3" width="1" height="1" fill="#c1afe3" /><rect x="6" y="4" width="1" height="1" fill="#c2ade5" /><rect x="6" y="5" width="1" height="1" fill="#c4ade5" /><rect x="6" y="6" width="1" height="1" fill="#c5ace5" /><rect x="6" y="7" width="1" height="1" fill="#c9ace6" /><rect x="6" y="8" width="1" height="1" fill="#caabe6" /><rect x="6" y="9" width="1" height="1" fill="#ccaae6" /><rect x="7" y="0" width="1" height="1" fill="#bfb1e2" /><rect x="7" y="1" width="1" height="1" fill="#bfb2e0" /><rect x="7" y="2" width="1" height="1" fill="#c0b3e1" /><rect x="7" y="3" width="1" height="1" fill="#c0b3e1" /><rect x="7" y="4" width="1" height="1" fill="#c3b1e1" /><rect x="7" y="5" width="1" height="1" fill="#c4b0e1" /><rect x="7" y="6" width="1" height="1" fill="#c7afdf" /><rect x="7" y="7" width="1" height="1" fill="#cab0e0" /><rect x="7" y="8" width="1" height="1" fill="#ccaee0" /><rect x="7" y="9" width="1" height="1" fill="#ceaee0" /><rect x="8" y="0" width="1" height="1" fill="#beb6dd" /><rect x="8" y="1" width="1" height="1" fill="#bdb5dc" /><rect x="8" y="2" width="1" height="1" fill="#b4add6" /><rect x="8" y="3" width="1" height="1" fill="#b1a9d2" /><rect x="8" y="4" width="1" height="1" fill="#c0b3de" /><rect x="8" y="5" width="1" height="1" fill="#b4a5ce" /><rect x="8" y="6" width="1" height="1" fill="#cbb9e1" /><rect x="8" y="7" width="1" height="1" fill="#c9b3da" /><rect x="8" y="8" width="1" height="1" fill="#ccb2d9" /><rect x="8" y="9" width="1" height="1" fill="#ccadd7" /><rect x="9" y="0" width="1" height="1" fill="#7b779a" /><rect x="9" y="1" width="1" height="1" fill="#555476" /><rect x="9" y="2" width="1" height="1" fill="#24244a" /><rect x="9" y="3" width="1" height="1" fill="#25254b" /><rect x="9" y="4" width="1" height="1" fill="#3e3a5f" /><rect x="9" y="5" width="1" height="1" fill="#6e688c" /><rect x="9" y="6" width="1" height="1" fill="#a79cbe" /><rect x="9" y="7" width="1" height="1" fill="#c8b7d7" /><rect x="9" y="8" width="1" height="1" fill="#cdb5d5" /><rect x="9" y="9" width="1" height="1" fill="#c9aecf" /></g></svg>