<svg width="800" height="1000" xmlns="http://www.w3.org/2000/svg"><defs><linearGradient id="g" x1="0" x2="1" y1="0" y2="1"><stop offset="0%" stop-color="#2d3c96"/><stop offset="100%" stop-color="#d53392"/></linearGradient></defs><rect x="10" y="10" width="780" height="980" fill="url(#g)" rx="50" ry="50" stroke="gold" stroke-width="20"/><text x="400" y="920" width="780" text-anchor="middle" style="font:bold 200px 'Helvetica Neue';fill:gold">05129</text><g transform="translate(80 80) scale(64)"><rect x="0" y="0" width="1" height="1" fill="#160017" /><rect x="0" y="1" width="1" height="1" fill="#493656" /><rect x="0" y="2" width="1" height="1" fill="#baacd0" /><rect x="0" y="3" width="1" height="1" fill="#bbb0db" /><rect x="0" y="4" width="1" height="1" fill="#baafe7" /><rect x="0" y="5" width="1" height="1" fill="#baaeec" /><rect x="0" y="6" width="1" height="1" fill="#baaeec" /><rect x="0" y="7" width="1" height="1" fill="#baaeec" /><rect x="0" y="8" width="1" height="1" fill="#baaeec" /><rect x="0" y="9" width="1" height="1" fill="#baaeec" /><rect x="1" y="0" width="1" height="1" fill="#130018" /><rect x="1" y="1" width="1" height="1" fill="#9480a3" /><rect x="1" y="2" width="1" height="1" fill="#c4b4db" /><rect x="1" y="3" width="1" height="1" fill="#bdaddc" /><rect x="1" y="4" width="1" height="1" fill="#c0afe6" /><rect x="1" y="5" width="1" height="1" fill="#c0aee8" /><rect x="1" y="6" width="1" height="1" fill="#c0aee8" /><rect x="1" y="7" width="1" height="1" fill="#c0aee8" /><rect x="1" y="8" width="1" height="1" fill="#c0aee8" /><rect x="1" y="9" width="1" height="1" fill="#c0aee8" /><rect x="2" y="0" width="1" height="1" fill="#563e60" /><rect x="2" y="1" width="1" height="1" fill="#bea9d2" /><rect x="2" y="2" width="1" height="1" fill="#bdacd9" /><rect x="2" y="3" width="1" height="1" fill="#c6b4e6" /><rect x="2" y="4" width="1" height="1" fill="#c5aee4" /><rect x="2" y="5" width="1" height="1" fill="#c5aee6" /><rect x="2" y="6" width="1" height="1" fill="#c5aee6" /><rect x="2" y="7" width="1" height="1" fill="#c5aee6" /><rect x="2" y="8" width="1" height="1" fill="#c5aee6" /><rect x="2" y="9" width="1" height="1" fill="#c5aee6" /><rect x="3" y="0" width="1" height="1" fill="#977fa3" /><rect x="3" y="1" width="1" height="1" fill="#c8b1db" /><rect x="3" y="2" width="1" height="1" fill="#c9b3e2" /><rect x="3" y="3" width="1" height="1" fill="#c8b0e4" /><rect x="3" y="4" width="1" height="1" fill="#caaee1" /><rect x="3" y="5" width="1" height="1" fill="#caaee1" /><rect x="3" y="6" width="1" height="1" fill="#caaee1" /><rect x="3" y="7" width="1" height="1" fill="#caaee1" /><rect x="3" y="8" width="1" height="1" fill="#caaee1" /><rect x="3" y="9" width="1" height="1" fill="#cbade1" /><rect x="4" y="0" width="1" height="1" fill="#c8acd2" /><rect x="4" y="1" width="1" height="1" fill="#cfb2de" /><rect x="4" y="2" width="1" height="1" fill="#cfb3e4" /><rect x="4" y="3" width="1" height="1" fill="#c4a6da" /><rect x="4" y="4" width="1" height="1" fill="#cfade0" /><rect x="4" y="5" width="1" height="1" fill="#d1acdf" /><rect x="4" y="6" width="1" height="1" fill="#d1acdf" /><rect x="4" y="7" width="1" height="1" fill="#d1acdf" /><rect x="4" y="8" width="1" height="1" fill="#d1acdf" /><rect x="4" y="9" width="1" height="1" fill="#d1acdf" /><rect x="5" y="0" width="1" height="1" fill="#d0add5" /><rect x="5" y="1" width="1" height="1" fill="#d0acd8" /><rect x="5" y="2" width="1" height="1" fill="#d0acdc" /><rect x="5" y="3" width="1" height="1" fill="#d9b3e6" /><rect x="5" y="4" width="1" height="1" fill="#d4acde" /><rect x="5" y="5" width="1" height="1" fill="#d4addc" /><rect x="5" y="6" width="1" height="1" fill="#d4addc" /><rect x="5" y="7" width="1" height="1" fill="#d4addc" /><rect x="5" y="8" width="1" height="1" fill="#d4addc" /><rect x="5" y="9" width="1" height="1" fill="#d4addc" /><rect x="6" y="0" width="1" height="1" fill="#d8aed4" /><rect x="6" y="1" width="1" height="1" fill="#d8add8" /><rect x="6" y="2" width="1" height="1" fill="#daacdb" /><rect x="6" y="3" width="1" height="1" fill="#daacdb" /><rect x="6" y="4" width="1" height="1" fill="#daacdb" /><rect x="6" y="5" width="1" height="1" fill="#daacdb" /><rect x="6" y="6" width="1" height="1" fill="#daacdb" /><rect x="6" y="7" width="1" height="1" fill="#daacdb" /><rect x="6" y="8" width="1" height="1" fill="#daacdb" /><rect x="6" y="9" width="1" height="1" fill="#daacdb" /><rect x="7" y="0" width="1" height="1" fill="#deacd1" /><rect x="7" y="1" width="1" height="1" fill="#deacd2" /><rect x="7" y="2" width="1" height="1" fill="#dfaad6" /><rect x="7" y="3" width="1" height="1" fill="#dfaad8" /><rect x="7" y="4" width="1" height="1" fill="#deaad8" /><rect x="7" y="5" width="1" height="1" fill="#dcabd8" /><rect x="7" y="6" width="1" height="1" fill="#dcabd8" /><rect x="7" y="7" width="1" height="1" fill="#dcabd8" /><rect x="7" y="8" width="1" height="1" fill="#dcabd8" /><rect x="7" y="9" width="1" height="1" fill="#dcabd8" /><rect x="8" y="0" width="1" height="1" fill="#e4abce" /><rect x="8" y="1" width="1" height="1" fill="#e4aad0" /><rect x="8" y="2" width="1" height="1" fill="#e6a9d2" /><rect x="8" y="3" width="1" height="1" fill="#e4aad3" /><rect x="8" y="4" width="1" height="1" fill="#e3aad3" /><rect x="8" y="5" width="1" height="1" fill="#e3aad3" /><rect x="8" y="6" width="1" height="1" fill="#e3aad3" /><rect x="8" y="7" width="1" height="1" fill="#e2abd3" /><rect x="8" y="8" width="1" height="1" fill="#e2abd3" /><rect x="8" y="9" width="1" height="1" fill="#e2abd3" /><rect x="9" y="0" width="1" height="1" fill="#eaaacc" /><rect x="9" y="1" width="1" height="1" fill="#eaaacc" /><rect x="9" y="2" width="1" height="1" fill="#eba9cd" /><rect x="9" y="3" width="1" height="1" fill="#eaaacf" /><rect x="9" y="4" width="1" height="1" fill="#e8aacf" /><rect x="9" y="5" width="1" height="1" fill="#e8aacf" /><rect x="9" y="6" width="1" height="1" fill="#e8aacf" /><rect x="9" y="7" width="1" height="1" fill="#e7abcf" /><rect x="9" y="8" width="1" height="1" fill="#e7abcf" /><rect x="9" y="9" width="1" height="1" fill="#e5accf" /></g></svg>