<svg width="800" height="1000" xmlns="http://www.w3.org/2000/svg"><defs><linearGradient id="g" x1="0" x2="1" y1="0" y2="1"><stop offset="0%" stop-color="#2d3c96"/><stop offset="100%" stop-color="#d53392"/></linearGradient></defs><rect x="10" y="10" width="780" height="980" fill="url(#g)" rx="50" ry="50" stroke="gold" stroke-width="20"/><text x="400" y="920" width="780" text-anchor="middle" style="font:bold 200px 'Helvetica Neue';fill:gold">05137</text><g transform="translate(80 80) scale(64)"><rect x="0" y="0" width="1" height="1" fill="#010c00" /><rect x="0" y="1" width="1" height="1" fill="#344417" /><rect x="0" y="2" width="1" height="1" fill="#bed096" /><rect x="0" y="3" width="1" height="1" fill="#daefaa" /><rect x="0" y="4" width="1" height="1" fill="#d4ed9c" /><rect x="0" y="5" width="1" height="1" fill="#c5e18c" /><rect x="0" y="6" width="1" height="1" fill="#d5f2a0" /><rect x="0" y="7" width="1" height="1" fill="#c5e592" /><rect x="0" y="8" width="1" height="1" fill="#cfef9c" /><rect x="0" y="9" width="1" height="1" fill="#c6e595" /><rect x="1" y="0" width="1" height="1" fill="#59693a" /><rect x="1" y="1" width="1" height="1" fill="#bfd29a" /><rect x="1" y="2" width="1" height="1" fill="#d7eca9" /><rect x="1" y="3" width="1" height="1" fill="#d1e99d" /><rect x="1" y="4" width="1" height="1" fill="#c5e18d" /><rect x="1" y="5" width="1" height="1" fill="#ddfaa6" /><rect x="1" y="6" width="1" height="1" fill="#bad98b" /><rect x="1" y="7" width="1" height="1" fill="#bedd91" /><rect x="1" y="8" width="1" height="1" fill="#c8ea96" /><rect x="1" y="9" width="1" height="1" fill="#bfe290" /><rect x="2" y="0" width="1" height="1" fill="#d7ebb0" /><rect x="2" y="1" width="1" height="1" fill="#cfe6a2" /><rect x="2" y="2" width="1" height="1" fill="#cde599" /><rect x="2" y="3" width="1" height="1" fill="#cfea99" /><rect x="2" y="4" width="1" height="1" fill="#d4ef9e" /><rect x="2" y="5" width="1" height="1" fill="#a9c477" /><rect x="2" y="6" width="1" height="1" fill="#001600" /><rect x="2" y="7" width="1" height="1" fill="#6d8c48" /><rect x="2" y="8" width="1" height="1" fill="#d1f4a4" /><rect x="2" y="9" width="1" height="1" fill="#bbe092" /><rect x="3" y="0" width="1" height="1" fill="#c9e098" /><rect x="3" y="1" width="1" height="1" fill="#d6f1a4" /><rect x="3" y="2" width="1" height="1" fill="#cbe793" /><rect x="3" y="3" width="1" height="1" fill="#d3ef9b" /><rect x="3" y="4" width="1" height="1" fill="#dbf5ab" /><rect x="3" y="5" width="1" height="1" fill="#8aa361" /><rect x="3" y="6" width="1" height="1" fill="#000e00" /><rect x="3" y="7" width="1" height="1" fill="#436125" /><rect x="3" y="8" width="1" height="1" fill="#b4d68a" /><rect x="3" y="9" width="1" height="1" fill="#c8eca2" /><rect x="4" y="0" width="1" height="1" fill="#d8f3a4" /><rect x="4" y="1" width="1" height="1" fill="#c0dd89" /><rect x="4" y="2" width="1" height="1" fill="#d8f99e" /><rect x="4" y="3" width="1" height="1" fill="#c2df8d" /><rect x="4" y="4" width="1" height="1" fill="#c7dd9f" /><rect x="4" y="5" width="1" height="1" fill="#8b9f6e" /><rect x="4" y="6" width="1" height="1" fill="#000c00" /><rect x="4" y="7" width="1" height="1" fill="#7b9565" /><rect x="4" y="8" width="1" height="1" fill="#c7e8a1" /><rect x="4" y="9" width="1" height="1" fill="#badf99" /><rect x="5" y="0" width="1" height="1" fill="#c5e38d" /><rect x="5" y="1" width="1" height="1" fill="#d4f59c" /><rect x="5" y="2" width="1" height="1" fill="#c2e587" /><rect x="5" y="3" width="1" height="1" fill="#d0f09d" /><rect x="5" y="4" width="1" height="1" fill="#c5daa2" /><rect x="5" y="5" width="1" height="1" fill="#4a5c34" /><rect x="5" y="6" width="1" height="1" fill="#000a00" /><rect x="5" y="7" width="1" height="1" fill="#9db788" /><rect x="5" y="8" width="1" height="1" fill="#c8e9a2" /><rect x="5" y="9" width="1" height="1" fill="#c0e69d" /><rect x="6" y="0" width="1" height="1" fill="#c9ec92" /><rect x="6" y="1" width="1" height="1" fill="#c8ed90" /><rect x="6" y="2" width="1" height="1" fill="#c9ee8f" /><rect x="6" y="3" width="1" height="1" fill="#cbec9b" /><rect x="6" y="4" width="1" height="1" fill="#b7cb98" /><rect x="6" y="5" width="1" height="1" fill="#162601" /><rect x="6" y="6" width="1" height="1" fill="#000f00" /><rect x="6" y="7" width="1" height="1" fill="#a8c390" /><rect x="6" y="8" width="1" height="1" fill="#c4e999" /><rect x="6" y="9" width="1" height="1" fill="#c5ec9d" /><rect x="7" y="0" width="1" height="1" fill="#c8ed90" /><rect x="7" y="1" width="1" height="1" fill="#c6ed90" /><rect x="7" y="2" width="1" height="1" fill="#c6ef91" /><rect x="7" y="3" width="1" height="1" fill="#caed9b" /><rect x="7" y="4" width="1" height="1" fill="#a8bf87" /><rect x="7" y="5" width="1" height="1" fill="#000a00" /><rect x="7" y="6" width="1" height="1" fill="#354c20" /><rect x="7" y="7" width="1" height="1" fill="#c5e3a7" /><rect x="7" y="8" width="1" height="1" fill="#c6ee96" /><rect x="7" y="9" width="1" height="1" fill="#c6f299" /><rect x="8" y="0" width="1" height="1" fill="#c4ed8f" /><rect x="8" y="1" width="1" height="1" fill="#c4ed91" /><rect x="8" y="2" width="1" height="1" fill="#c3ee92" /><rect x="8" y="3" width="1" height="1" fill="#c7ed9a" /><rect x="8" y="4" width="1" height="1" fill="#8daa68" /><rect x="8" y="5" width="1" height="1" fill="#001500" /><rect x="8" y="6" width="1" height="1" fill="#638145" /><rect x="8" y="7" width="1" height="1" fill="#bde199" /><rect x="8" y="8" width="1" height="1" fill="#b4e280" /><rect x="8" y="9" width="1" height="1" fill="#bbed8a" /><rect x="9" y="0" width="1" height="1" fill="#c2ed91" /><rect x="9" y="1" width="1" height="1" fill="#c1ee91" /><rect x="9" y="2" width="1" height="1" fill="#c1ee93" /><rect x="9" y="3" width="1" height="1" fill="#c2ec96" /><rect x="9" y="4" width="1" height="1" fill="#bcde92" /><rect x="9" y="5" width="1" height="1" fill="#85a65f" /><rect x="9" y="6" width="1" height="1" fill="#a9ce88" /><rect x="9" y="7" width="1" height="1" fill="#c2ed9d" /><rect x="9" y="8" width="1" height="1" fill="#b4e884" /><rect x="9" y="9" width="1" height="1" fill="#b2e983" /></g></svg>