<svg width="800" height="1000" xmlns="http://www.w3.org/2000/svg"><defs><linearGradient id="g" x1="0" x2="1" y1="0" y2="1"><stop offset="0%" stop-color="#2d3c96"/><stop offset="100%" stop-color="#d53392"/></linearGradient></defs><rect x="10" y="10" width="780" height="980" fill="url(#g)" rx="50" ry="50" stroke="gold" stroke-width="20"/><text x="400" y="920" width="780" text-anchor="middle" style="font:bold 200px 'Helvetica Neue';fill:gold">05136</text><g transform="translate(80 80) scale(64)"><rect x="0" y="0" width="1" height="1" fill="#ebeea1" /><rect x="0" y="1" width="1" height="1" fill="#e3e7ac" /><rect x="0" y="2" width="1" height="1" fill="#727651" /><rect x="0" y="3" width="1" height="1" fill="#020c00" /><rect x="0" y="4" width="1" height="1" fill="#000e00" /><rect x="0" y="5" width="1" height="1" fill="#84ad8f" /><rect x="0" y="6" width="1" height="1" fill="#9ae2b4" /><rect x="0" y="7" width="1" height="1" fill="#83dea5" /><rect x="0" y="8" width="1" height="1" fill="#88eead" /><rect x="0" y="9" width="1" height="1" fill="#80edaa" /><rect x="1" y="0" width="1" height="1" fill="#f1eda6" /><rect x="1" y="1" width="1" height="1" fill="#e3e1a4" /><rect x="1" y="2" width="1" height="1" fill="#e2e2b0" /><rect x="1" y="3" width="1" height="1" fill="#676b48" /><rect x="1" y="4" width="1" height="1" fill="#000700" /><rect x="1" y="5" width="1" height="1" fill="#011d0e" /><rect x="1" y="6" width="1" height="1" fill="#80b798" /><rect x="1" y="7" width="1" height="1" fill="#9be8be" /><rect x="1" y="8" width="1" height="1" fill="#78d6a4" /><rect x="1" y="9" width="1" height="1" fill="#7de6ae" /><rect x="2" y="0" width="1" height="1" fill="#e4dba2" /><rect x="2" y="1" width="1" height="1" fill="#f2ecb0" /><rect x="2" y="2" width="1" height="1" fill="#eae5a5" /><rect x="2" y="3" width="1" height="1" fill="#d9d9a3" /><rect x="2" y="4" width="1" height="1" fill="#5b634b" /><rect x="2" y="5" width="1" height="1" fill="#000800" /><rect x="2" y="6" width="1" height="1" fill="#0a2d15" /><rect x="2" y="7" width="1" height="1" fill="#87be9e" /><rect x="2" y="8" width="1" height="1" fill="#91dfb8" /><rect x="2" y="9" width="1" height="1" fill="#85e4bc" /><rect x="3" y="0" width="1" height="1" fill="#eae1b6" /><rect x="3" y="1" width="1" height="1" fill="#e8e1aa" /><rect x="3" y="2" width="1" height="1" fill="#ece89f" /><rect x="3" y="3" width="1" height="1" fill="#e5e6a2" /><rect x="3" y="4" width="1" height="1" fill="#d1daaf" /><rect x="3" y="5" width="1" height="1" fill="#4a593c" /><rect x="3" y="6" width="1" height="1" fill="#000e00" /><rect x="3" y="7" width="1" height="1" fill="#002306" /><rect x="3" y="8" width="1" height="1" fill="#7bb79b" /><rect x="3" y="9" width="1" height="1" fill="#9be9d1" /><rect x="4" y="0" width="1" height="1" fill="#676043" /><rect x="4" y="1" width="1" height="1" fill="#c3bf8f" /><rect x="4" y="2" width="1" height="1" fill="#efeca5" /><rect x="4" y="3" width="1" height="1" fill="#e1e696" /><rect x="4" y="4" width="1" height="1" fill="#e0eba6" /><rect x="4" y="5" width="1" height="1" fill="#c8d79c" /><rect x="4" y="6" width="1" height="1" fill="#526336" /><rect x="4" y="7" width="1" height="1" fill="#000b00" /><rect x="4" y="8" width="1" height="1" fill="#022917" /><rect x="4" y="9" width="1" height="1" fill="#7bb0a8" /><rect x="5" y="0" width="1" height="1" fill="#070500" /><rect x="5" y="1" width="1" height="1" fill="#38370b" /><rect x="5" y="2" width="1" height="1" fill="#d0d291" /><rect x="5" y="3" width="1" height="1" fill="#e3ea9c" /><rect x="5" y="4" width="1" height="1" fill="#d5e290" /><rect x="5" y="5" width="1" height="1" fill="#ecfdaf" /><rect x="5" y="6" width="1" height="1" fill="#c4d398" /><rect x="5" y="7" width="1" height="1" fill="#5b6d43" /><rect x="5" y="8" width="1" height="1" fill="#001400" /><rect x="5" y="9" width="1" height="1" fill="#000f07" /><rect x="6" y="0" width="1" height="1" fill="#32381e" /><rect x="6" y="1" width="1" height="1" fill="#000600" /><rect x="6" y="2" width="1" height="1" fill="#868d5a" /><rect x="6" y="3" width="1" height="1" fill="#e9f2b3" /><rect x="6" y="4" width="1" height="1" fill="#e0eb9c" /><rect x="6" y="5" width="1" height="1" fill="#cfde8b" /><rect x="6" y="6" width="1" height="1" fill="#dcf1a6" /><rect x="6" y="7" width="1" height="1" fill="#c2d699" /><rect x="6" y="8" width="1" height="1" fill="#5b683d" /><rect x="6" y="9" width="1" height="1" fill="#031000" /><rect x="7" y="0" width="1" height="1" fill="#172108" /><rect x="7" y="1" width="1" height="1" fill="#000900" /><rect x="7" y="2" width="1" height="1" fill="#737c51" /><rect x="7" y="3" width="1" height="1" fill="#d0dba3" /><rect x="7" y="4" width="1" height="1" fill="#deec9f" /><rect x="7" y="5" width="1" height="1" fill="#d3e58f" /><rect x="7" y="6" width="1" height="1" fill="#d0e795" /><rect x="7" y="7" width="1" height="1" fill="#daf0a7" /><rect x="7" y="8" width="1" height="1" fill="#dae8ab" /><rect x="7" y="9" width="1" height="1" fill="#717a4d" /><rect x="8" y="0" width="1" height="1" fill="#171f0a" /><rect x="8" y="1" width="1" height="1" fill="#010c00" /><rect x="8" y="2" width="1" height="1" fill="#6a774b" /><rect x="8" y="3" width="1" height="1" fill="#d7e6ad" /><rect x="8" y="4" width="1" height="1" fill="#d5e9a1" /><rect x="8" y="5" width="1" height="1" fill="#d5ec9a" /><rect x="8" y="6" width="1" height="1" fill="#cae594" /><rect x="8" y="7" width="1" height="1" fill="#cde899" /><rect x="8" y="8" width="1" height="1" fill="#d2eaa0" /><rect x="8" y="9" width="1" height="1" fill="#cfe4a1" /><rect x="9" y="0" width="1" height="1" fill="#232d14" /><rect x="9" y="1" width="1" height="1" fill="#000a00" /><rect x="9" y="2" width="1" height="1" fill="#829261" /><rect x="9" y="3" width="1" height="1" fill="#d3e7a8" /><rect x="9" y="4" width="1" height="1" fill="#d4eca2" /><rect x="9" y="5" width="1" height="1" fill="#cde897" /><rect x="9" y="6" width="1" height="1" fill="#d5f2a0" /><rect x="9" y="7" width="1" height="1" fill="#cbe896" /><rect x="9" y="8" width="1" height="1" fill="#d1ee9c" /><rect x="9" y="9" width="1" height="1" fill="#cdea9a" /></g></svg>