<svg width="800" height="1000" xmlns="http://www.w3.org/2000/svg"><defs><linearGradient id="g" x1="0" x2="1" y1="0" y2="1"><stop offset="0%" stop-color="#2d3c96"/><stop offset="100%" stop-color="#d53392"/></linearGradient></defs><rect x="10" y="10" width="780" height="980" fill="url(#g)" rx="50" ry="50" stroke="gold" stroke-width="20"/><text x="400" y="920" width="780" text-anchor="middle" style="font:bold 200px 'Helvetica Neue';fill:gold">05138</text><g transform="translate(80 80) scale(64)"><rect x="0" y="0" width="1" height="1" fill="#c0ed90" /><rect x="0" y="1" width="1" height="1" fill="#bfee92" /><rect x="0" y="2" width="1" height="1" fill="#bfed93" /><rect x="0" y="3" width="1" height="1" fill="#bfed93" /><rect x="0" y="4" width="1" height="1" fill="#b6e08a" /><rect x="0" y="5" width="1" height="1" fill="#c6f09c" /><rect x="0" y="6" width="1" height="1" fill="#b6e293" /><rect x="0" y="7" width="1" height="1" fill="#baeb99" /><rect x="0" y="8" width="1" height="1" fill="#b1ea8b" /><rect x="0" y="9" width="1" height="1" fill="#b1ef8c" /><rect x="1" y="0" width="1" height="1" fill="#beed8f" /><rect x="1" y="1" width="1" height="1" fill="#bced91" /><rect x="1" y="2" width="1" height="1" fill="#bced92" /><rect x="1" y="3" width="1" height="1" fill="#bced91" /><rect x="1" y="4" width="1" height="1" fill="#baec8d" /><rect x="1" y="5" width="1" height="1" fill="#c3f69a" /><rect x="1" y="6" width="1" height="1" fill="#b3e995" /><rect x="1" y="7" width="1" height="1" fill="#b6ef9e" /><rect x="1" y="8" width="1" height="1" fill="#aae893" /><rect x="1" y="9" width="1" height="1" fill="#b2f49c" /><rect x="2" y="0" width="1" height="1" fill="#beed8f" /><rect x="2" y="1" width="1" height="1" fill="#bbec90" /><rect x="2" y="2" width="1" height="1" fill="#bbec91" /><rect x="2" y="3" width="1" height="1" fill="#baed90" /><rect x="2" y="4" width="1" height="1" fill="#bbf18f" /><rect x="2" y="5" width="1" height="1" fill="#b0e789" /><rect x="2" y="6" width="1" height="1" fill="#ade695" /><rect x="2" y="7" width="1" height="1" fill="#aceaa1" /><rect x="2" y="8" width="1" height="1" fill="#a4e5a1" /><rect x="2" y="9" width="1" height="1" fill="#a5eba2" /><rect x="3" y="0" width="1" height="1" fill="#bced91" /><rect x="3" y="1" width="1" height="1" fill="#baed90" /><rect x="3" y="2" width="1" height="1" fill="#b7ec90" /><rect x="3" y="3" width="1" height="1" fill="#b6ed90" /><rect x="3" y="4" width="1" height="1" fill="#b3ec8b" /><rect x="3" y="5" width="1" height="1" fill="#adea8b" /><rect x="3" y="6" width="1" height="1" fill="#abeb97" /><rect x="3" y="7" width="1" height="1" fill="#a7e99f" /><rect x="3" y="8" width="1" height="1" fill="#adf3ad" /><rect x="3" y="9" width="1" height="1" fill="#9ae39a" /><rect x="4" y="0" width="1" height="1" fill="#b7ec90" /><rect x="4" y="1" width="1" height="1" fill="#b6eb91" /><rect x="4" y="2" width="1" height="1" fill="#b5ec91" /><rect x="4" y="3" width="1" height="1" fill="#b4ec91" /><rect x="4" y="4" width="1" height="1" fill="#b0eb8f" /><rect x="4" y="5" width="1" height="1" fill="#aded8f" /><rect x="4" y="6" width="1" height="1" fill="#aaec94" /><rect x="4" y="7" width="1" height="1" fill="#a7ed97" /><rect x="4" y="8" width="1" height="1" fill="#a3ed98" /><rect x="4" y="9" width="1" height="1" fill="#9fee95" /><rect x="5" y="0" width="1" height="1" fill="#b6ed92" /><rect x="5" y="1" width="1" height="1" fill="#b4ec91" /><rect x="5" y="2" width="1" height="1" fill="#b3eb92" /><rect x="5" y="3" width="1" height="1" fill="#b1ec92" /><rect x="5" y="4" width="1" height="1" fill="#afeb91" /><rect x="5" y="5" width="1" height="1" fill="#abec90" /><rect x="5" y="6" width="1" height="1" fill="#a8ed92" /><rect x="5" y="7" width="1" height="1" fill="#a4ed91" /><rect x="5" y="8" width="1" height="1" fill="#a1ee90" /><rect x="5" y="9" width="1" height="1" fill="#9eef90" /><rect x="6" y="0" width="1" height="1" fill="#b5eb93" /><rect x="6" y="1" width="1" height="1" fill="#b3eb92" /><rect x="6" y="2" width="1" height="1" fill="#b3eb94" /><rect x="6" y="3" width="1" height="1" fill="#b0ea93" /><rect x="6" y="4" width="1" height="1" fill="#aeea92" /><rect x="6" y="5" width="1" height="1" fill="#abec92" /><rect x="6" y="6" width="1" height="1" fill="#a7ec93" /><rect x="6" y="7" width="1" height="1" fill="#a3ec92" /><rect x="6" y="8" width="1" height="1" fill="#a1ed92" /><rect x="6" y="9" width="1" height="1" fill="#9eed91" /><rect x="7" y="0" width="1" height="1" fill="#b3eb92" /><rect x="7" y="1" width="1" height="1" fill="#b0ea93" /><rect x="7" y="2" width="1" height="1" fill="#b0ea93" /><rect x="7" y="3" width="1" height="1" fill="#aeea92" /><rect x="7" y="4" width="1" height="1" fill="#abea91" /><rect x="7" y="5" width="1" height="1" fill="#aaea93" /><rect x="7" y="6" width="1" height="1" fill="#a7ec93" /><rect x="7" y="7" width="1" height="1" fill="#a3ec92" /><rect x="7" y="8" width="1" height="1" fill="#a0ec91" /><rect x="7" y="9" width="1" height="1" fill="#9ced91" /><rect x="8" y="0" width="1" height="1" fill="#b2ea93" /><rect x="8" y="1" width="1" height="1" fill="#b0ea95" /><rect x="8" y="2" width="1" height="1" fill="#afe994" /><rect x="8" y="3" width="1" height="1" fill="#aeea94" /><rect x="8" y="4" width="1" height="1" fill="#abe993" /><rect x="8" y="5" width="1" height="1" fill="#aaea94" /><rect x="8" y="6" width="1" height="1" fill="#a6ea93" /><rect x="8" y="7" width="1" height="1" fill="#a2eb92" /><rect x="8" y="8" width="1" height="1" fill="#a0ec92" /><rect x="8" y="9" width="1" height="1" fill="#9dec93" /><rect x="9" y="0" width="1" height="1" fill="#b0ea95" /><rect x="9" y="1" width="1" height="1" fill="#afe994" /><rect x="9" y="2" width="1" height="1" fill="#aeea94" /><rect x="9" y="3" width="1" height="1" fill="#ade993" /><rect x="9" y="4" width="1" height="1" fill="#abe994" /><rect x="9" y="5" width="1" height="1" fill="#aaea94" /><rect x="9" y="6" width="1" height="1" fill="#a6ea93" /><rect x="9" y="7" width="1" height="1" fill="#a2eb92" /><rect x="9" y="8" width="1" height="1" fill="#9feb93" /><rect x="9" y="9" width="1" height="1" fill="#9cec93" /></g></svg>