<svg width="800" height="1000" version="1.1" xmlns="http://www.w3.org/2000/svg" xmlns:xlink="http://www.w3.org/1999/xlink">
  <defs>
      <linearGradient id="Gradient2" x1="0" x2="1" y1="0" y2="1">
        <stop offset="0%" stop-color="#2d3c96"/>
        <stop offset="100%" stop-color="#d53392"/>
      </linearGradient>
  </defs>
  <rect x="10" y="10" width="780" height="980" fill="url(#Gradient2)" rx="50" ry="50" stroke="#ffd700" stroke-width="20"/>
  <text x="400" y="920" width="780" text-anchor="middle" style="font: bold 200px 'Helvetica Neue'; fill: #ffd700">05150</text>

  <g transform="translate(80 80) scale(64)">
<rect x="0" y="0" width="1" height="1" fill="#fdeaa6" />
,<rect x="0" y="1" width="1" height="1" fill="#fbcd0e" />
,<rect x="0" y="2" width="1" height="1" fill="#fddc6a" />
,<rect x="0" y="3" width="1" height="1" fill="#ffffff" />
,<rect x="0" y="4" width="1" height="1" fill="#ffffff" />
,<rect x="0" y="5" width="1" height="1" fill="#ffffff" />
,<rect x="0" y="6" width="1" height="1" fill="#ffffff" />
,<rect x="0" y="7" width="1" height="1" fill="#96def3" />
,<rect x="0" y="8" width="1" height="1" fill="#59caed" />
,<rect x="0" y="9" width="1" height="1" fill="#b2e7f7" />
,<rect x="1" y="0" width="1" height="1" fill="#fcd33c" />
,<rect x="1" y="1" width="1" height="1" fill="#fbcd0e" />
,<rect x="1" y="2" width="1" height="1" fill="#faca13" />
,<rect x="1" y="3" width="1" height="1" fill="#fff7c6" />
,<rect x="1" y="4" width="1" height="1" fill="#ffffff" />
,<rect x="1" y="5" width="1" height="1" fill="#ffffff" />
,<rect x="1" y="6" width="1" height="1" fill="#def8ff" />
,<rect x="1" y="7" width="1" height="1" fill="#59c7ea" />
,<rect x="1" y="8" width="1" height="1" fill="#59caed" />
,<rect x="1" y="9" width="1" height="1" fill="#68cfef" />
,<rect x="2" y="0" width="1" height="1" fill="#fddf77" />
,<rect x="2" y="1" width="1" height="1" fill="#faca13" />
,<rect x="2" y="2" width="1" height="1" fill="#ffdf2d" />
,<rect x="2" y="3" width="1" height="1" fill="#fffef2" />
,<rect x="2" y="4" width="1" height="1" fill="#ffffff" />
,<rect x="2" y="5" width="1" height="1" fill="#ffffff" />
,<rect x="2" y="6" width="1" height="1" fill="#fbfeff" />
,<rect x="2" y="7" width="1" height="1" fill="#75dffd" />
,<rect x="2" y="8" width="1" height="1" fill="#58c7ea" />
,<rect x="2" y="9" width="1" height="1" fill="#8fdbf2" />
,<rect x="3" y="0" width="1" height="1" fill="#fffefb" />
,<rect x="3" y="1" width="1" height="1" fill="#ffface" />
,<rect x="3" y="2" width="1" height="1" fill="#fffded" />
,<rect x="3" y="3" width="1" height="1" fill="#ffffff" />
,<rect x="3" y="4" width="1" height="1" fill="#9094b5" />
,<rect x="3" y="5" width="1" height="1" fill="#9a8e9b" />
,<rect x="3" y="6" width="1" height="1" fill="#ffffff" />
,<rect x="3" y="7" width="1" height="1" fill="#f6fdff" />
,<rect x="3" y="8" width="1" height="1" fill="#daf8ff" />
,<rect x="3" y="9" width="1" height="1" fill="#fafdfe" />
,<rect x="4" y="0" width="1" height="1" fill="#ffffff" />
,<rect x="4" y="1" width="1" height="1" fill="#ffffff" />
,<rect x="4" y="2" width="1" height="1" fill="#ffffff" />
,<rect x="4" y="3" width="1" height="1" fill="#9295b6" />
,<rect x="4" y="4" width="1" height="1" fill="#42415f" />
,<rect x="4" y="5" width="1" height="1" fill="#45425b" />
,<rect x="4" y="6" width="1" height="1" fill="#9a8d9a" />
,<rect x="4" y="7" width="1" height="1" fill="#ffffff" />
,<rect x="4" y="8" width="1" height="1" fill="#ffffff" />
,<rect x="4" y="9" width="1" height="1" fill="#ffffff" />
,<rect x="5" y="0" width="1" height="1" fill="#ffffff" />
,<rect x="5" y="1" width="1" height="1" fill="#ffffff" />
,<rect x="5" y="2" width="1" height="1" fill="#ffffff" />
,<rect x="5" y="3" width="1" height="1" fill="#94a4b2" />
,<rect x="5" y="4" width="1" height="1" fill="#42435d" />
,<rect x="5" y="5" width="1" height="1" fill="#44425d" />
,<rect x="5" y="6" width="1" height="1" fill="#9899a2" />
,<rect x="5" y="7" width="1" height="1" fill="#ffffff" />
,<rect x="5" y="8" width="1" height="1" fill="#ffffff" />
,<rect x="5" y="9" width="1" height="1" fill="#ffffff" />
,<rect x="6" y="0" width="1" height="1" fill="#fffdfd" />
,<rect x="6" y="1" width="1" height="1" fill="#ffdee2" />
,<rect x="6" y="2" width="1" height="1" fill="#fff4f5" />
,<rect x="6" y="3" width="1" height="1" fill="#ffffff" />
,<rect x="6" y="4" width="1" height="1" fill="#93a3b2" />
,<rect x="6" y="5" width="1" height="1" fill="#9999a3" />
,<rect x="6" y="6" width="1" height="1" fill="#ffffff" />
,<rect x="6" y="7" width="1" height="1" fill="#f9f9fc" />
,<rect x="6" y="8" width="1" height="1" fill="#e8e6f3" />
,<rect x="6" y="9" width="1" height="1" fill="#fcfcfd" />
,<rect x="7" y="0" width="1" height="1" fill="#f6969e" />
,<rect x="7" y="1" width="1" height="1" fill="#ed4e5d" />
,<rect x="7" y="2" width="1" height="1" fill="#fe6570" />
,<rect x="7" y="3" width="1" height="1" fill="#fff6f7" />
,<rect x="7" y="4" width="1" height="1" fill="#ffffff" />
,<rect x="7" y="5" width="1" height="1" fill="#ffffff" />
,<rect x="7" y="6" width="1" height="1" fill="#fefdfe" />
,<rect x="7" y="7" width="1" height="1" fill="#9992cb" />
,<rect x="7" y="8" width="1" height="1" fill="#7c74b5" />
,<rect x="7" y="9" width="1" height="1" fill="#a9a4cf" />
,<rect x="8" y="0" width="1" height="1" fill="#f26471" />
,<rect x="8" y="1" width="1" height="1" fill="#f04e5d" />
,<rect x="8" y="2" width="1" height="1" fill="#ec4e5d" />
,<rect x="8" y="3" width="1" height="1" fill="#ffd3d6" />
,<rect x="8" y="4" width="1" height="1" fill="#ffffff" />
,<rect x="8" y="5" width="1" height="1" fill="#ffffff" />
,<rect x="8" y="6" width="1" height="1" fill="#e6e6f4" />
,<rect x="8" y="7" width="1" height="1" fill="#7c74b5" />
,<rect x="8" y="8" width="1" height="1" fill="#7d75b7" />
,<rect x="8" y="9" width="1" height="1" fill="#8881bc" />
,<rect x="9" y="0" width="1" height="1" fill="#f9b3b9" />
,<rect x="9" y="1" width="1" height="1" fill="#f04e5d" />
,<rect x="9" y="2" width="1" height="1" fill="#f4828d" />
,<rect x="9" y="3" width="1" height="1" fill="#ffffff" />
,<rect x="9" y="4" width="1" height="1" fill="#ffffff" />
,<rect x="9" y="5" width="1" height="1" fill="#ffffff" />
,<rect x="9" y="6" width="1" height="1" fill="#ffffff" />
,<rect x="9" y="7" width="1" height="1" fill="#aaa5d0" />
,<rect x="9" y="8" width="1" height="1" fill="#7d75b7" />
,<rect x="9" y="9" width="1" height="1" fill="#bfbbdc" />

  </g>
</svg>