<svg width="800" height="1000" version="1.1" xmlns="http://www.w3.org/2000/svg" xmlns:xlink="http://www.w3.org/1999/xlink">
  <defs>
      <linearGradient id="Gradient2" x1="0" x2="1" y1="0" y2="1">
        <stop offset="0%" stop-color="#2d3c96"/>
        <stop offset="100%" stop-color="#d53392"/>
      </linearGradient>
  </defs>
  <rect x="10" y="10" width="780" height="980" fill="url(#Gradient2)" rx="50" ry="50" stroke="#ffd700" stroke-width="20"/>
  <text x="400" y="920" width="780" text-anchor="middle" style="font: bold 200px 'Helvetica Neue'; fill: #ffd700">05150</text>

  <g transform="translate(80 80) scale(64)">
<rect x="0" y="0" width="1" height="1" fill="#FDEAA6" /><rect x="1" y="0" width="1" height="1" fill="#FCD33C" /><rect x="2" y="0" width="1" height="1" fill="#FDDF77" /><rect x="3" y="0" width="1" height="1" fill="#FFFEFB" /><rect x="4" y="0" width="1" height="1" fill="#FFFFFF" /><rect x="5" y="0" width="1" height="1" fill="#FFFFFF" /><rect x="6" y="0" width="1" height="1" fill="#FFFDFD" /><rect x="7" y="0" width="1" height="1" fill="#F6969E" /><rect x="8" y="0" width="1" height="1" fill="#F26471" /><rect x="9" y="0" width="1" height="1" fill="#F9B3B9" /><rect x="0" y="1" width="1" height="1" fill="#FBCD0E" /><rect x="1" y="1" width="1" height="1" fill="#FBCD0E" /><rect x="2" y="1" width="1" height="1" fill="#FACA13" /><rect x="3" y="1" width="1" height="1" fill="#FFFACE" /><rect x="4" y="1" width="1" height="1" fill="#FFFFFF" /><rect x="5" y="1" width="1" height="1" fill="#FFFFFF" /><rect x="6" y="1" width="1" height="1" fill="#FFDEE2" /><rect x="7" y="1" width="1" height="1" fill="#ED4E5D" /><rect x="8" y="1" width="1" height="1" fill="#F04E5D" /><rect x="9" y="1" width="1" height="1" fill="#F04E5D" /><rect x="0" y="2" width="1" height="1" fill="#FDDC6A" /><rect x="1" y="2" width="1" height="1" fill="#FACA13" /><rect x="2" y="2" width="1" height="1" fill="#FFDF2D" /><rect x="3" y="2" width="1" height="1" fill="#FFFDED" /><rect x="4" y="2" width="1" height="1" fill="#FFFFFF" /><rect x="5" y="2" width="1" height="1" fill="#FFFFFF" /><rect x="6" y="2" width="1" height="1" fill="#FFF4F5" /><rect x="7" y="2" width="1" height="1" fill="#FE6570" /><rect x="8" y="2" width="1" height="1" fill="#EC4E5D" /><rect x="9" y="2" width="1" height="1" fill="#F4828D" /><rect x="0" y="3" width="1" height="1" fill="#FFFFFF" /><rect x="1" y="3" width="1" height="1" fill="#FFF7C6" /><rect x="2" y="3" width="1" height="1" fill="#FFFEF2" /><rect x="3" y="3" width="1" height="1" fill="#FFFFFF" /><rect x="4" y="3" width="1" height="1" fill="#9295B6" /><rect x="5" y="3" width="1" height="1" fill="#94A4B2" /><rect x="6" y="3" width="1" height="1" fill="#FFFFFF" /><rect x="7" y="3" width="1" height="1" fill="#FFF6F7" /><rect x="8" y="3" width="1" height="1" fill="#FFD3D6" /><rect x="9" y="3" width="1" height="1" fill="#FFFFFF" /><rect x="0" y="4" width="1" height="1" fill="#FFFFFF" /><rect x="1" y="4" width="1" height="1" fill="#FFFFFF" /><rect x="2" y="4" width="1" height="1" fill="#FFFFFF" /><rect x="3" y="4" width="1" height="1" fill="#9094B5" /><rect x="4" y="4" width="1" height="1" fill="#42415F" /><rect x="5" y="4" width="1" height="1" fill="#42435D" /><rect x="6" y="4" width="1" height="1" fill="#93A3B2" /><rect x="7" y="4" width="1" height="1" fill="#FFFFFF" /><rect x="8" y="4" width="1" height="1" fill="#FFFFFF" /><rect x="9" y="4" width="1" height="1" fill="#FFFFFF" /><rect x="0" y="5" width="1" height="1" fill="#FFFFFF" /><rect x="1" y="5" width="1" height="1" fill="#FFFFFF" /><rect x="2" y="5" width="1" height="1" fill="#FFFFFF" /><rect x="3" y="5" width="1" height="1" fill="#9A8E9B" /><rect x="4" y="5" width="1" height="1" fill="#45425B" /><rect x="5" y="5" width="1" height="1" fill="#44425D" /><rect x="6" y="5" width="1" height="1" fill="#9999A3" /><rect x="7" y="5" width="1" height="1" fill="#FFFFFF" /><rect x="8" y="5" width="1" height="1" fill="#FFFFFF" /><rect x="9" y="5" width="1" height="1" fill="#FFFFFF" /><rect x="0" y="6" width="1" height="1" fill="#FFFFFF" /><rect x="1" y="6" width="1" height="1" fill="#DEF8FF" /><rect x="2" y="6" width="1" height="1" fill="#FBFEFF" /><rect x="3" y="6" width="1" height="1" fill="#FFFFFF" /><rect x="4" y="6" width="1" height="1" fill="#9A8D9A" /><rect x="5" y="6" width="1" height="1" fill="#9899A2" /><rect x="6" y="6" width="1" height="1" fill="#FFFFFF" /><rect x="7" y="6" width="1" height="1" fill="#FEFDFE" /><rect x="8" y="6" width="1" height="1" fill="#E6E6F4" /><rect x="9" y="6" width="1" height="1" fill="#FFFFFF" /><rect x="0" y="7" width="1" height="1" fill="#96DEF3" /><rect x="1" y="7" width="1" height="1" fill="#59C7EA" /><rect x="2" y="7" width="1" height="1" fill="#75DFFD" /><rect x="3" y="7" width="1" height="1" fill="#F6FDFF" /><rect x="4" y="7" width="1" height="1" fill="#FFFFFF" /><rect x="5" y="7" width="1" height="1" fill="#FFFFFF" /><rect x="6" y="7" width="1" height="1" fill="#F9F9FC" /><rect x="7" y="7" width="1" height="1" fill="#9992CB" /><rect x="8" y="7" width="1" height="1" fill="#7C74B5" /><rect x="9" y="7" width="1" height="1" fill="#AAA5D0" /><rect x="0" y="8" width="1" height="1" fill="#59CAED" /><rect x="1" y="8" width="1" height="1" fill="#59CAED" /><rect x="2" y="8" width="1" height="1" fill="#58C7EA" /><rect x="3" y="8" width="1" height="1" fill="#DAF8FF" /><rect x="4" y="8" width="1" height="1" fill="#FFFFFF" /><rect x="5" y="8" width="1" height="1" fill="#FFFFFF" /><rect x="6" y="8" width="1" height="1" fill="#E8E6F3" /><rect x="7" y="8" width="1" height="1" fill="#7C74B5" /><rect x="8" y="8" width="1" height="1" fill="#7D75B7" /><rect x="9" y="8" width="1" height="1" fill="#7D75B7" /><rect x="0" y="9" width="1" height="1" fill="#B2E7F7" /><rect x="1" y="9" width="1" height="1" fill="#68CFEF" /><rect x="2" y="9" width="1" height="1" fill="#8FDBF2" /><rect x="3" y="9" width="1" height="1" fill="#FAFDFE" /><rect x="4" y="9" width="1" height="1" fill="#FFFFFF" /><rect x="5" y="9" width="1" height="1" fill="#FFFFFF" /><rect x="6" y="9" width="1" height="1" fill="#FCFCFD" /><rect x="7" y="9" width="1" height="1" fill="#A9A4CF" /><rect x="8" y="9" width="1" height="1" fill="#8881BC" /><rect x="9" y="9" width="1" height="1" fill="#BFBBDC" />
  </g>
</svg>