<svg width="800" height="1000" version="1.1" xmlns="http://www.w3.org/2000/svg" xmlns:xlink="http://www.w3.org/1999/xlink">
  <defs>
      <linearGradient id="Gradient2" x1="0" x2="1" y1="0" y2="1">
        <stop offset="0%" stop-color="#2d3c96"/>
        <stop offset="100%" stop-color="#d53392"/>
      </linearGradient>
  </defs>
  <rect x="10" y="10" width="780" height="980" fill="url(#Gradient2)" rx="50" ry="50" stroke="#ffd700" stroke-width="20"/>
  <text x="400" y="920" width="780" text-anchor="middle" style="font: bold 200px 'Helvetica Neue'; fill: #ffd700">05151</text>

  <g transform="translate(80 80) scale(64)">
<rect x="0" y="0" width="1" height="1" fill="#860100" /><rect x="1" y="0" width="1" height="1" fill="#840000" /><rect x="2" y="0" width="1" height="1" fill="#820000" /><rect x="3" y="0" width="1" height="1" fill="#820000" /><rect x="4" y="0" width="1" height="1" fill="#7D0101" /><rect x="5" y="0" width="1" height="1" fill="#840000" /><rect x="6" y="0" width="1" height="1" fill="#860100" /><rect x="7" y="0" width="1" height="1" fill="#880000" /><rect x="8" y="0" width="1" height="1" fill="#740100" /><rect x="9" y="0" width="1" height="1" fill="#000000" /><rect x="0" y="1" width="1" height="1" fill="#870000" /><rect x="1" y="1" width="1" height="1" fill="#820000" /><rect x="2" y="1" width="1" height="1" fill="#830000" /><rect x="3" y="1" width="1" height="1" fill="#820001" /><rect x="4" y="1" width="1" height="1" fill="#7C0000" /><rect x="5" y="1" width="1" height="1" fill="#7C0000" /><rect x="6" y="1" width="1" height="1" fill="#870000" /><rect x="7" y="1" width="1" height="1" fill="#8A0100" /><rect x="8" y="1" width="1" height="1" fill="#670000" /><rect x="9" y="1" width="1" height="1" fill="#000000" /><rect x="0" y="2" width="1" height="1" fill="#840000" /><rect x="1" y="2" width="1" height="1" fill="#840000" /><rect x="2" y="2" width="1" height="1" fill="#820000" /><rect x="3" y="2" width="1" height="1" fill="#830000" /><rect x="4" y="2" width="1" height="1" fill="#7E0000" /><rect x="5" y="2" width="1" height="1" fill="#860000" /><rect x="6" y="2" width="1" height="1" fill="#830000" /><rect x="7" y="2" width="1" height="1" fill="#8A0100" /><rect x="8" y="2" width="1" height="1" fill="#630000" /><rect x="9" y="2" width="1" height="1" fill="#000000" /><rect x="0" y="3" width="1" height="1" fill="#810202" /><rect x="1" y="3" width="1" height="1" fill="#7B0302" /><rect x="2" y="3" width="1" height="1" fill="#840303" /><rect x="3" y="3" width="1" height="1" fill="#830202" /><rect x="4" y="3" width="1" height="1" fill="#820202" /><rect x="5" y="3" width="1" height="1" fill="#880302" /><rect x="6" y="3" width="1" height="1" fill="#840100" /><rect x="7" y="3" width="1" height="1" fill="#870000" /><rect x="8" y="3" width="1" height="1" fill="#650000" /><rect x="9" y="3" width="1" height="1" fill="#000000" /><rect x="0" y="4" width="1" height="1" fill="#820000" /><rect x="1" y="4" width="1" height="1" fill="#7B0000" /><rect x="2" y="4" width="1" height="1" fill="#830000" /><rect x="3" y="4" width="1" height="1" fill="#820000" /><rect x="4" y="4" width="1" height="1" fill="#860000" /><rect x="5" y="4" width="1" height="1" fill="#870000" /><rect x="6" y="4" width="1" height="1" fill="#810000" /><rect x="7" y="4" width="1" height="1" fill="#880001" /><rect x="8" y="4" width="1" height="1" fill="#670000" /><rect x="9" y="4" width="1" height="1" fill="#000000" /><rect x="0" y="5" width="1" height="1" fill="#840000" /><rect x="1" y="5" width="1" height="1" fill="#820000" /><rect x="2" y="5" width="1" height="1" fill="#840304" /><rect x="3" y="5" width="1" height="1" fill="#830200" /><rect x="4" y="5" width="1" height="1" fill="#880000" /><rect x="5" y="5" width="1" height="1" fill="#820403" /><rect x="6" y="5" width="1" height="1" fill="#7D0100" /><rect x="7" y="5" width="1" height="1" fill="#890001" /><rect x="8" y="5" width="1" height="1" fill="#6D0100" /><rect x="9" y="5" width="1" height="1" fill="#000000" /><rect x="0" y="6" width="1" height="1" fill="#8F3E3F" /><rect x="1" y="6" width="1" height="1" fill="#934646" /><rect x="2" y="6" width="1" height="1" fill="#904344" /><rect x="3" y="6" width="1" height="1" fill="#8E3D3E" /><rect x="4" y="6" width="1" height="1" fill="#8F3C3C" /><rect x="5" y="6" width="1" height="1" fill="#954646" /><rect x="6" y="6" width="1" height="1" fill="#881B1A" /><rect x="7" y="6" width="1" height="1" fill="#850000" /><rect x="8" y="6" width="1" height="1" fill="#750000" /><rect x="9" y="6" width="1" height="1" fill="#000102" /><rect x="0" y="7" width="1" height="1" fill="#8F3435" /><rect x="1" y="7" width="1" height="1" fill="#8E3636" /><rect x="2" y="7" width="1" height="1" fill="#893233" /><rect x="3" y="7" width="1" height="1" fill="#863332" /><rect x="4" y="7" width="1" height="1" fill="#8F3334" /><rect x="5" y="7" width="1" height="1" fill="#923535" /><rect x="6" y="7" width="1" height="1" fill="#811212" /><rect x="7" y="7" width="1" height="1" fill="#870000" /><rect x="8" y="7" width="1" height="1" fill="#7C0303" /><rect x="9" y="7" width="1" height="1" fill="#1E0707" /><rect x="0" y="8" width="1" height="1" fill="#7D0000" /><rect x="1" y="8" width="1" height="1" fill="#800000" /><rect x="2" y="8" width="1" height="1" fill="#810000" /><rect x="3" y="8" width="1" height="1" fill="#810000" /><rect x="4" y="8" width="1" height="1" fill="#7D0000" /><rect x="5" y="8" width="1" height="1" fill="#800000" /><rect x="6" y="8" width="1" height="1" fill="#800000" /><rect x="7" y="8" width="1" height="1" fill="#840101" /><rect x="8" y="8" width="1" height="1" fill="#5F0B0C" /><rect x="9" y="8" width="1" height="1" fill="#000000" /><rect x="0" y="9" width="1" height="1" fill="#860A0B" /><rect x="1" y="9" width="1" height="1" fill="#860C0D" /><rect x="2" y="9" width="1" height="1" fill="#850B0A" /><rect x="3" y="9" width="1" height="1" fill="#7F090A" /><rect x="4" y="9" width="1" height="1" fill="#810A09" /><rect x="5" y="9" width="1" height="1" fill="#800B0B" /><rect x="6" y="9" width="1" height="1" fill="#840303" /><rect x="7" y="9" width="1" height="1" fill="#840304" /><rect x="8" y="9" width="1" height="1" fill="#2D0304" /><rect x="9" y="9" width="1" height="1" fill="#000000" />
  </g>
</svg>