<svg width="800" height="1000" version="1.1" xmlns="http://www.w3.org/2000/svg" xmlns:xlink="http://www.w3.org/1999/xlink">
  <defs>
      <linearGradient id="Gradient2" x1="0" x2="1" y1="0" y2="1">
        <stop offset="0%" stop-color="#2d3c96"/>
        <stop offset="100%" stop-color="#d53392"/>
      </linearGradient>
  </defs>
  <rect x="10" y="10" width="780" height="980" fill="url(#Gradient2)" rx="50" ry="50" stroke="#ffd700" stroke-width="20"/>
  <text x="400" y="920" width="780" text-anchor="middle" style="font: bold 200px 'Helvetica Neue'; fill: #ffd700">05153</text>

  <g transform="translate(80 80) scale(64)">
<rect x="0" y="0" width="1" height="1" fill="#000000" /><rect x="1" y="0" width="1" height="1" fill="#000000" /><rect x="2" y="0" width="1" height="1" fill="#000000" /><rect x="3" y="0" width="1" height="1" fill="#000000" /><rect x="4" y="0" width="1" height="1" fill="#020000" /><rect x="5" y="0" width="1" height="1" fill="#000000" /><rect x="6" y="0" width="1" height="1" fill="#000000" /><rect x="7" y="0" width="1" height="1" fill="#6C0000" /><rect x="8" y="0" width="1" height="1" fill="#8C0000" /><rect x="9" y="0" width="1" height="1" fill="#810100" /><rect x="0" y="1" width="1" height="1" fill="#000000" /><rect x="1" y="1" width="1" height="1" fill="#000000" /><rect x="2" y="1" width="1" height="1" fill="#000000" /><rect x="3" y="1" width="1" height="1" fill="#000000" /><rect x="4" y="1" width="1" height="1" fill="#010000" /><rect x="5" y="1" width="1" height="1" fill="#050000" /><rect x="6" y="1" width="1" height="1" fill="#000000" /><rect x="7" y="1" width="1" height="1" fill="#560000" /><rect x="8" y="1" width="1" height="1" fill="#890001" /><rect x="9" y="1" width="1" height="1" fill="#810100" /><rect x="0" y="2" width="1" height="1" fill="#000000" /><rect x="1" y="2" width="1" height="1" fill="#000000" /><rect x="2" y="2" width="1" height="1" fill="#000000" /><rect x="3" y="2" width="1" height="1" fill="#000000" /><rect x="4" y="2" width="1" height="1" fill="#010000" /><rect x="5" y="2" width="1" height="1" fill="#050000" /><rect x="6" y="2" width="1" height="1" fill="#000000" /><rect x="7" y="2" width="1" height="1" fill="#4E0000" /><rect x="8" y="2" width="1" height="1" fill="#860100" /><rect x="9" y="2" width="1" height="1" fill="#820000" /><rect x="0" y="3" width="1" height="1" fill="#000000" /><rect x="1" y="3" width="1" height="1" fill="#000000" /><rect x="2" y="3" width="1" height="1" fill="#000000" /><rect x="3" y="3" width="1" height="1" fill="#000000" /><rect x="4" y="3" width="1" height="1" fill="#000000" /><rect x="5" y="3" width="1" height="1" fill="#070000" /><rect x="6" y="3" width="1" height="1" fill="#000000" /><rect x="7" y="3" width="1" height="1" fill="#440000" /><rect x="8" y="3" width="1" height="1" fill="#840000" /><rect x="9" y="3" width="1" height="1" fill="#840000" /><rect x="0" y="4" width="1" height="1" fill="#000000" /><rect x="1" y="4" width="1" height="1" fill="#0F0607" /><rect x="2" y="4" width="1" height="1" fill="#180A0C" /><rect x="3" y="4" width="1" height="1" fill="#160B0B" /><rect x="4" y="4" width="1" height="1" fill="#060202" /><rect x="5" y="4" width="1" height="1" fill="#040000" /><rect x="6" y="4" width="1" height="1" fill="#000000" /><rect x="7" y="4" width="1" height="1" fill="#4C0000" /><rect x="8" y="4" width="1" height="1" fill="#870000" /><rect x="9" y="4" width="1" height="1" fill="#830000" /><rect x="0" y="5" width="1" height="1" fill="#130A0A" /><rect x="1" y="5" width="1" height="1" fill="#000000" /><rect x="2" y="5" width="1" height="1" fill="#000000" /><rect x="3" y="5" width="1" height="1" fill="#000000" /><rect x="4" y="5" width="1" height="1" fill="#100707" /><rect x="5" y="5" width="1" height="1" fill="#0F0404" /><rect x="6" y="5" width="1" height="1" fill="#000000" /><rect x="7" y="5" width="1" height="1" fill="#510000" /><rect x="8" y="5" width="1" height="1" fill="#870000" /><rect x="9" y="5" width="1" height="1" fill="#830000" /><rect x="0" y="6" width="1" height="1" fill="#000000" /><rect x="1" y="6" width="1" height="1" fill="#000000" /><rect x="2" y="6" width="1" height="1" fill="#2B1719" /><rect x="3" y="6" width="1" height="1" fill="#000000" /><rect x="4" y="6" width="1" height="1" fill="#000000" /><rect x="5" y="6" width="1" height="1" fill="#030101" /><rect x="6" y="6" width="1" height="1" fill="#000001" /><rect x="7" y="6" width="1" height="1" fill="#5B0000" /><rect x="8" y="6" width="1" height="1" fill="#8A0100" /><rect x="9" y="6" width="1" height="1" fill="#840000" /><rect x="0" y="7" width="1" height="1" fill="#2F1C1D" /><rect x="1" y="7" width="1" height="1" fill="#A4696C" /><rect x="2" y="7" width="1" height="1" fill="#C88184" /><rect x="3" y="7" width="1" height="1" fill="#C07B7E" /><rect x="4" y="7" width="1" height="1" fill="#794A4C" /><rect x="5" y="7" width="1" height="1" fill="#000000" /><rect x="6" y="7" width="1" height="1" fill="#000505" /><rect x="7" y="7" width="1" height="1" fill="#6C0000" /><rect x="8" y="7" width="1" height="1" fill="#8A0100" /><rect x="9" y="7" width="1" height="1" fill="#830000" /><rect x="0" y="8" width="1" height="1" fill="#AE7073" /><rect x="1" y="8" width="1" height="1" fill="#EB999C" /><rect x="2" y="8" width="1" height="1" fill="#E19396" /><rect x="3" y="8" width="1" height="1" fill="#E79499" /><rect x="4" y="8" width="1" height="1" fill="#DE8E93" /><rect x="5" y="8" width="1" height="1" fill="#684042" /><rect x="6" y="8" width="1" height="1" fill="#000000" /><rect x="7" y="8" width="1" height="1" fill="#500A0A" /><rect x="8" y="8" width="1" height="1" fill="#7F0000" /><rect x="9" y="8" width="1" height="1" fill="#840100" /><rect x="0" y="9" width="1" height="1" fill="#D78A8E" /><rect x="1" y="9" width="1" height="1" fill="#DE8F94" /><rect x="2" y="9" width="1" height="1" fill="#D78C90" /><rect x="3" y="9" width="1" height="1" fill="#D88C90" /><rect x="4" y="9" width="1" height="1" fill="#E49497" /><rect x="5" y="9" width="1" height="1" fill="#B17174" /><rect x="6" y="9" width="1" height="1" fill="#000000" /><rect x="7" y="9" width="1" height="1" fill="#1D1011" /><rect x="8" y="9" width="1" height="1" fill="#780000" /><rect x="9" y="9" width="1" height="1" fill="#890100" />
  </g>
</svg>