<svg width="800" height="1000" xmlns="http://www.w3.org/2000/svg"><defs><linearGradient id="g" x1="0" x2="1" y1="0" y2="1"><stop offset="0%" stop-color="#2d3c96"/><stop offset="100%" stop-color="#d53392"/></linearGradient></defs><rect x="10" y="10" width="780" height="980" fill="url(#g)" rx="50" ry="50" stroke="gold" stroke-width="20"/><text x="400" y="920" width="780" text-anchor="middle" style="font:bold 200px 'Helvetica Neue';fill:gold">05153</text><g transform="translate(80 80) scale(64)"><rect x="0" y="0" width="1" height="1" fill="#000000" /><rect x="0" y="1" width="1" height="1" fill="#000000" /><rect x="0" y="2" width="1" height="1" fill="#000000" /><rect x="0" y="3" width="1" height="1" fill="#000000" /><rect x="0" y="4" width="1" height="1" fill="#000000" /><rect x="0" y="5" width="1" height="1" fill="#130a0a" /><rect x="0" y="6" width="1" height="1" fill="#000000" /><rect x="0" y="7" width="1" height="1" fill="#2f1c1d" /><rect x="0" y="8" width="1" height="1" fill="#ae7073" /><rect x="0" y="9" width="1" height="1" fill="#d78a8e" /><rect x="1" y="0" width="1" height="1" fill="#000000" /><rect x="1" y="1" width="1" height="1" fill="#000000" /><rect x="1" y="2" width="1" height="1" fill="#000000" /><rect x="1" y="3" width="1" height="1" fill="#000000" /><rect x="1" y="4" width="1" height="1" fill="#0f0607" /><rect x="1" y="5" width="1" height="1" fill="#000000" /><rect x="1" y="6" width="1" height="1" fill="#000000" /><rect x="1" y="7" width="1" height="1" fill="#a4696c" /><rect x="1" y="8" width="1" height="1" fill="#eb999c" /><rect x="1" y="9" width="1" height="1" fill="#de8f94" /><rect x="2" y="0" width="1" height="1" fill="#000000" /><rect x="2" y="1" width="1" height="1" fill="#000000" /><rect x="2" y="2" width="1" height="1" fill="#000000" /><rect x="2" y="3" width="1" height="1" fill="#000000" /><rect x="2" y="4" width="1" height="1" fill="#180a0c" /><rect x="2" y="5" width="1" height="1" fill="#000000" /><rect x="2" y="6" width="1" height="1" fill="#2b1719" /><rect x="2" y="7" width="1" height="1" fill="#c88184" /><rect x="2" y="8" width="1" height="1" fill="#e19396" /><rect x="2" y="9" width="1" height="1" fill="#d78c90" /><rect x="3" y="0" width="1" height="1" fill="#000000" /><rect x="3" y="1" width="1" height="1" fill="#000000" /><rect x="3" y="2" width="1" height="1" fill="#000000" /><rect x="3" y="3" width="1" height="1" fill="#000000" /><rect x="3" y="4" width="1" height="1" fill="#160b0b" /><rect x="3" y="5" width="1" height="1" fill="#000000" /><rect x="3" y="6" width="1" height="1" fill="#000000" /><rect x="3" y="7" width="1" height="1" fill="#c07b7e" /><rect x="3" y="8" width="1" height="1" fill="#e79499" /><rect x="3" y="9" width="1" height="1" fill="#d88c90" /><rect x="4" y="0" width="1" height="1" fill="#020000" /><rect x="4" y="1" width="1" height="1" fill="#010000" /><rect x="4" y="2" width="1" height="1" fill="#010000" /><rect x="4" y="3" width="1" height="1" fill="#000000" /><rect x="4" y="4" width="1" height="1" fill="#060202" /><rect x="4" y="5" width="1" height="1" fill="#100707" /><rect x="4" y="6" width="1" height="1" fill="#000000" /><rect x="4" y="7" width="1" height="1" fill="#794a4c" /><rect x="4" y="8" width="1" height="1" fill="#de8e93" /><rect x="4" y="9" width="1" height="1" fill="#e49497" /><rect x="5" y="0" width="1" height="1" fill="#000000" /><rect x="5" y="1" width="1" height="1" fill="#050000" /><rect x="5" y="2" width="1" height="1" fill="#050000" /><rect x="5" y="3" width="1" height="1" fill="#070000" /><rect x="5" y="4" width="1" height="1" fill="#040000" /><rect x="5" y="5" width="1" height="1" fill="#0f0404" /><rect x="5" y="6" width="1" height="1" fill="#030101" /><rect x="5" y="7" width="1" height="1" fill="#000000" /><rect x="5" y="8" width="1" height="1" fill="#684042" /><rect x="5" y="9" width="1" height="1" fill="#b17174" /><rect x="6" y="0" width="1" height="1" fill="#000000" /><rect x="6" y="1" width="1" height="1" fill="#000000" /><rect x="6" y="2" width="1" height="1" fill="#000000" /><rect x="6" y="3" width="1" height="1" fill="#000000" /><rect x="6" y="4" width="1" height="1" fill="#000000" /><rect x="6" y="5" width="1" height="1" fill="#000000" /><rect x="6" y="6" width="1" height="1" fill="#000001" /><rect x="6" y="7" width="1" height="1" fill="#000505" /><rect x="6" y="8" width="1" height="1" fill="#000000" /><rect x="6" y="9" width="1" height="1" fill="#000000" /><rect x="7" y="0" width="1" height="1" fill="#6c0000" /><rect x="7" y="1" width="1" height="1" fill="#560000" /><rect x="7" y="2" width="1" height="1" fill="#4e0000" /><rect x="7" y="3" width="1" height="1" fill="#440000" /><rect x="7" y="4" width="1" height="1" fill="#4c0000" /><rect x="7" y="5" width="1" height="1" fill="#510000" /><rect x="7" y="6" width="1" height="1" fill="#5b0000" /><rect x="7" y="7" width="1" height="1" fill="#6c0000" /><rect x="7" y="8" width="1" height="1" fill="#500a0a" /><rect x="7" y="9" width="1" height="1" fill="#1d1011" /><rect x="8" y="0" width="1" height="1" fill="#8c0000" /><rect x="8" y="1" width="1" height="1" fill="#890001" /><rect x="8" y="2" width="1" height="1" fill="#860100" /><rect x="8" y="3" width="1" height="1" fill="#840000" /><rect x="8" y="4" width="1" height="1" fill="#870000" /><rect x="8" y="5" width="1" height="1" fill="#870000" /><rect x="8" y="6" width="1" height="1" fill="#8a0100" /><rect x="8" y="7" width="1" height="1" fill="#8a0100" /><rect x="8" y="8" width="1" height="1" fill="#7f0000" /><rect x="8" y="9" width="1" height="1" fill="#780000" /><rect x="9" y="0" width="1" height="1" fill="#810100" /><rect x="9" y="1" width="1" height="1" fill="#810100" /><rect x="9" y="2" width="1" height="1" fill="#820000" /><rect x="9" y="3" width="1" height="1" fill="#840000" /><rect x="9" y="4" width="1" height="1" fill="#830000" /><rect x="9" y="5" width="1" height="1" fill="#830000" /><rect x="9" y="6" width="1" height="1" fill="#840000" /><rect x="9" y="7" width="1" height="1" fill="#830000" /><rect x="9" y="8" width="1" height="1" fill="#840100" /><rect x="9" y="9" width="1" height="1" fill="#890100" /></g></svg>