<svg width="800" height="1000" xmlns="http://www.w3.org/2000/svg"><defs><linearGradient id="g" x1="0" x2="1" y1="0" y2="1"><stop offset="0%" stop-color="#2d3c96"/><stop offset="100%" stop-color="#d53392"/></linearGradient></defs><rect x="10" y="10" width="780" height="980" fill="url(#g)" rx="50" ry="50" stroke="gold" stroke-width="20"/><text x="400" y="920" width="780" text-anchor="middle" style="font:bold 200px 'Helvetica Neue';fill:gold">05171</text><g transform="translate(80 80) scale(64)"><rect x="0" y="0" width="1" height="1" fill="#ebcd01" /><rect x="0" y="1" width="1" height="1" fill="#f3d400" /><rect x="0" y="2" width="1" height="1" fill="#f3d400" /><rect x="0" y="3" width="1" height="1" fill="#f3d400" /><rect x="0" y="4" width="1" height="1" fill="#f3d400" /><rect x="0" y="5" width="1" height="1" fill="#f3d400" /><rect x="0" y="6" width="1" height="1" fill="#f3d400" /><rect x="0" y="7" width="1" height="1" fill="#e2c602" /><rect x="0" y="8" width="1" height="1" fill="#ccb305" /><rect x="0" y="9" width="1" height="1" fill="#f3d400" /><rect x="1" y="0" width="1" height="1" fill="#b2a227" /><rect x="1" y="1" width="1" height="1" fill="#d8bd03" /><rect x="1" y="2" width="1" height="1" fill="#c7ae05" /><rect x="1" y="3" width="1" height="1" fill="#bfa807" /><rect x="1" y="4" width="1" height="1" fill="#f3d400" /><rect x="1" y="5" width="1" height="1" fill="#f3d400" /><rect x="1" y="6" width="1" height="1" fill="#f3d400" /><rect x="1" y="7" width="1" height="1" fill="#f3d400" /><rect x="1" y="8" width="1" height="1" fill="#f3d400" /><rect x="1" y="9" width="1" height="1" fill="#b09c08" /><rect x="2" y="0" width="1" height="1" fill="#b1a84f" /><rect x="2" y="1" width="1" height="1" fill="#af9908" /><rect x="2" y="2" width="1" height="1" fill="#c7ae05" /><rect x="2" y="3" width="1" height="1" fill="#bda507" /><rect x="2" y="4" width="1" height="1" fill="#f3d400" /><rect x="2" y="5" width="1" height="1" fill="#f3d400" /><rect x="2" y="6" width="1" height="1" fill="#f3d400" /><rect x="2" y="7" width="1" height="1" fill="#f3d400" /><rect x="2" y="8" width="1" height="1" fill="#baa407" /><rect x="2" y="9" width="1" height="1" fill="#695e17" /><rect x="3" y="0" width="1" height="1" fill="#d1b80e" /><rect x="3" y="1" width="1" height="1" fill="#e4c702" /><rect x="3" y="2" width="1" height="1" fill="#ecce01" /><rect x="3" y="3" width="1" height="1" fill="#af9a08" /><rect x="3" y="4" width="1" height="1" fill="#dfc302" /><rect x="3" y="5" width="1" height="1" fill="#f3d400" /><rect x="3" y="6" width="1" height="1" fill="#f3d400" /><rect x="3" y="7" width="1" height="1" fill="#b29c09" /><rect x="3" y="8" width="1" height="1" fill="#665d17" /><rect x="3" y="9" width="1" height="1" fill="#292929" /><rect x="4" y="0" width="1" height="1" fill="#b4b695" /><rect x="4" y="1" width="1" height="1" fill="#b4a117" /><rect x="4" y="2" width="1" height="1" fill="#f2d300" /><rect x="4" y="3" width="1" height="1" fill="#e6c902" /><rect x="4" y="4" width="1" height="1" fill="#f3d400" /><rect x="4" y="5" width="1" height="1" fill="#f3d400" /><rect x="4" y="6" width="1" height="1" fill="#96840d" /><rect x="4" y="7" width="1" height="1" fill="#5a521a" /><rect x="4" y="8" width="1" height="1" fill="#292929" /><rect x="4" y="9" width="1" height="1" fill="#292929" /><rect x="5" y="0" width="1" height="1" fill="#d7ddc1" /><rect x="5" y="1" width="1" height="1" fill="#9b8d28" /><rect x="5" y="2" width="1" height="1" fill="#eacd01" /><rect x="5" y="3" width="1" height="1" fill="#f3d400" /><rect x="5" y="4" width="1" height="1" fill="#e3c602" /><rect x="5" y="5" width="1" height="1" fill="#716412" /><rect x="5" y="6" width="1" height="1" fill="#454021" /><rect x="5" y="7" width="1" height="1" fill="#292929" /><rect x="5" y="8" width="1" height="1" fill="#292929" /><rect x="5" y="9" width="1" height="1" fill="#292929" /><rect x="6" y="0" width="1" height="1" fill="#c2b025" /><rect x="6" y="1" width="1" height="1" fill="#f2d300" /><rect x="6" y="2" width="1" height="1" fill="#edcf01" /><rect x="6" y="3" width="1" height="1" fill="#91800d" /><rect x="6" y="4" width="1" height="1" fill="#5d5418" /><rect x="6" y="5" width="1" height="1" fill="#2a2a28" /><rect x="6" y="6" width="1" height="1" fill="#292929" /><rect x="6" y="7" width="1" height="1" fill="#292929" /><rect x="6" y="8" width="1" height="1" fill="#292929" /><rect x="6" y="9" width="1" height="1" fill="#292929" /><rect x="7" y="0" width="1" height="1" fill="#bea807" /><rect x="7" y="1" width="1" height="1" fill="#827310" /><rect x="7" y="2" width="1" height="1" fill="#5f5617" /><rect x="7" y="3" width="1" height="1" fill="#323026" /><rect x="7" y="4" width="1" height="1" fill="#292929" /><rect x="7" y="5" width="1" height="1" fill="#292929" /><rect x="7" y="6" width="1" height="1" fill="#292929" /><rect x="7" y="7" width="1" height="1" fill="#292929" /><rect x="7" y="8" width="1" height="1" fill="#292929" /><rect x="7" y="9" width="1" height="1" fill="#292929" /><rect x="8" y="0" width="1" height="1" fill="#363425" /><rect x="8" y="1" width="1" height="1" fill="#292929" /><rect x="8" y="2" width="1" height="1" fill="#292929" /><rect x="8" y="3" width="1" height="1" fill="#292929" /><rect x="8" y="4" width="1" height="1" fill="#292929" /><rect x="8" y="5" width="1" height="1" fill="#292929" /><rect x="8" y="6" width="1" height="1" fill="#292929" /><rect x="8" y="7" width="1" height="1" fill="#292929" /><rect x="8" y="8" width="1" height="1" fill="#292929" /><rect x="8" y="9" width="1" height="1" fill="#292929" /><rect x="9" y="0" width="1" height="1" fill="#292929" /><rect x="9" y="1" width="1" height="1" fill="#292929" /><rect x="9" y="2" width="1" height="1" fill="#292929" /><rect x="9" y="3" width="1" height="1" fill="#292929" /><rect x="9" y="4" width="1" height="1" fill="#292929" /><rect x="9" y="5" width="1" height="1" fill="#292929" /><rect x="9" y="6" width="1" height="1" fill="#292929" /><rect x="9" y="7" width="1" height="1" fill="#292929" /><rect x="9" y="8" width="1" height="1" fill="#292929" /><rect x="9" y="9" width="1" height="1" fill="#292929" /></g></svg>