<svg width="800" height="1000" xmlns="http://www.w3.org/2000/svg"><defs><linearGradient id="g" x1="0" x2="1" y1="0" y2="1"><stop offset="0%" stop-color="#2d3c96"/><stop offset="100%" stop-color="#d53392"/></linearGradient></defs><rect x="10" y="10" width="780" height="980" fill="url(#g)" rx="50" ry="50" stroke="gold" stroke-width="20"/><text x="400" y="920" width="780" text-anchor="middle" style="font:bold 200px 'Helvetica Neue';fill:gold">05170</text><g transform="translate(80 80) scale(64)"><rect x="0" y="0" width="1" height="1" fill="#07111d" /><rect x="0" y="1" width="1" height="1" fill="#07111d" /><rect x="0" y="2" width="1" height="1" fill="#07111d" /><rect x="0" y="3" width="1" height="1" fill="#07111d" /><rect x="0" y="4" width="1" height="1" fill="#07111d" /><rect x="0" y="5" width="1" height="1" fill="#07111d" /><rect x="0" y="6" width="1" height="1" fill="#07111d" /><rect x="0" y="7" width="1" height="1" fill="#07111d" /><rect x="0" y="8" width="1" height="1" fill="#d1d3d5" /><rect x="0" y="9" width="1" height="1" fill="#747a80" /><rect x="1" y="0" width="1" height="1" fill="#07111d" /><rect x="1" y="1" width="1" height="1" fill="#07111d" /><rect x="1" y="2" width="1" height="1" fill="#07111d" /><rect x="1" y="3" width="1" height="1" fill="#07111d" /><rect x="1" y="4" width="1" height="1" fill="#07111d" /><rect x="1" y="5" width="1" height="1" fill="#07111d" /><rect x="1" y="6" width="1" height="1" fill="#07111d" /><rect x="1" y="7" width="1" height="1" fill="#07111d" /><rect x="1" y="8" width="1" height="1" fill="#92969c" /><rect x="1" y="9" width="1" height="1" fill="#5c626a" /><rect x="2" y="0" width="1" height="1" fill="#07111d" /><rect x="2" y="1" width="1" height="1" fill="#07111d" /><rect x="2" y="2" width="1" height="1" fill="#07111d" /><rect x="2" y="3" width="1" height="1" fill="#07111d" /><rect x="2" y="4" width="1" height="1" fill="#07111d" /><rect x="2" y="5" width="1" height="1" fill="#07111d" /><rect x="2" y="6" width="1" height="1" fill="#39414a" /><rect x="2" y="7" width="1" height="1" fill="#8b9096" /><rect x="2" y="8" width="1" height="1" fill="#dedfe1" /><rect x="2" y="9" width="1" height="1" fill="#747a80" /><rect x="3" y="0" width="1" height="1" fill="#07111d" /><rect x="3" y="1" width="1" height="1" fill="#07111d" /><rect x="3" y="2" width="1" height="1" fill="#07111d" /><rect x="3" y="3" width="1" height="1" fill="#333b45" /><rect x="3" y="4" width="1" height="1" fill="#8a8f95" /><rect x="3" y="5" width="1" height="1" fill="#dedfe1" /><rect x="3" y="6" width="1" height="1" fill="#ffffff" /><rect x="3" y="7" width="1" height="1" fill="#ffffff" /><rect x="3" y="8" width="1" height="1" fill="#acb0b4" /><rect x="3" y="9" width="1" height="1" fill="#333b45" /><rect x="4" y="0" width="1" height="1" fill="#07111d" /><rect x="4" y="1" width="1" height="1" fill="#07111d" /><rect x="4" y="2" width="1" height="1" fill="#07111d" /><rect x="4" y="3" width="1" height="1" fill="#ffffff" /><rect x="4" y="4" width="1" height="1" fill="#f4f5f5" /><rect x="4" y="5" width="1" height="1" fill="#a0a4a8" /><rect x="4" y="6" width="1" height="1" fill="#5b6169" /><rect x="4" y="7" width="1" height="1" fill="#ffffff" /><rect x="4" y="8" width="1" height="1" fill="#262f39" /><rect x="4" y="9" width="1" height="1" fill="#07111d" /><rect x="5" y="0" width="1" height="1" fill="#07111d" /><rect x="5" y="1" width="1" height="1" fill="#07111d" /><rect x="5" y="2" width="1" height="1" fill="#07111d" /><rect x="5" y="3" width="1" height="1" fill="#f4f5f5" /><rect x="5" y="4" width="1" height="1" fill="#ffffff" /><rect x="5" y="5" width="1" height="1" fill="#ced0d3" /><rect x="5" y="6" width="1" height="1" fill="#8a8f95" /><rect x="5" y="7" width="1" height="1" fill="#ffffff" /><rect x="5" y="8" width="1" height="1" fill="#262f39" /><rect x="5" y="9" width="1" height="1" fill="#07111d" /><rect x="6" y="0" width="1" height="1" fill="#07111d" /><rect x="6" y="1" width="1" height="1" fill="#07111d" /><rect x="6" y="2" width="1" height="1" fill="#07111d" /><rect x="6" y="3" width="1" height="1" fill="#101925" /><rect x="6" y="4" width="1" height="1" fill="#5c626a" /><rect x="6" y="5" width="1" height="1" fill="#afb2b6" /><rect x="6" y="6" width="1" height="1" fill="#f7f8f8" /><rect x="6" y="7" width="1" height="1" fill="#ffffff" /><rect x="6" y="8" width="1" height="1" fill="#d9dbdc" /><rect x="6" y="9" width="1" height="1" fill="#495059" /><rect x="7" y="0" width="1" height="1" fill="#07111d" /><rect x="7" y="1" width="1" height="1" fill="#07111d" /><rect x="7" y="2" width="1" height="1" fill="#07111d" /><rect x="7" y="3" width="1" height="1" fill="#07111d" /><rect x="7" y="4" width="1" height="1" fill="#07111d" /><rect x="7" y="5" width="1" height="1" fill="#07111d" /><rect x="7" y="6" width="1" height="1" fill="#131c28" /><rect x="7" y="7" width="1" height="1" fill="#5d636b" /><rect x="7" y="8" width="1" height="1" fill="#b0b3b7" /><rect x="7" y="9" width="1" height="1" fill="#6d737a" /><rect x="8" y="0" width="1" height="1" fill="#07111d" /><rect x="8" y="1" width="1" height="1" fill="#07111d" /><rect x="8" y="2" width="1" height="1" fill="#07111d" /><rect x="8" y="3" width="1" height="1" fill="#747a80" /><rect x="8" y="4" width="1" height="1" fill="#747a80" /><rect x="8" y="5" width="1" height="1" fill="#747a80" /><rect x="8" y="6" width="1" height="1" fill="#747a80" /><rect x="8" y="7" width="1" height="1" fill="#747a80" /><rect x="8" y="8" width="1" height="1" fill="#747a80" /><rect x="8" y="9" width="1" height="1" fill="#373f48" /><rect x="9" y="0" width="1" height="1" fill="#07111d" /><rect x="9" y="1" width="1" height="1" fill="#07111d" /><rect x="9" y="2" width="1" height="1" fill="#07111d" /><rect x="9" y="3" width="1" height="1" fill="#ffffff" /><rect x="9" y="4" width="1" height="1" fill="#ffffff" /><rect x="9" y="5" width="1" height="1" fill="#ffffff" /><rect x="9" y="6" width="1" height="1" fill="#ffffff" /><rect x="9" y="7" width="1" height="1" fill="#ffffff" /><rect x="9" y="8" width="1" height="1" fill="#ffffff" /><rect x="9" y="9" width="1" height="1" fill="#747a80" /></g></svg>