<svg width="800" height="1000" xmlns="http://www.w3.org/2000/svg"><defs><linearGradient id="g" x1="0" x2="1" y1="0" y2="1"><stop offset="0%" stop-color="#2d3c96"/><stop offset="100%" stop-color="#d53392"/></linearGradient></defs><rect x="10" y="10" width="780" height="980" fill="url(#g)" rx="50" ry="50" stroke="gold" stroke-width="20"/><text x="400" y="920" width="780" text-anchor="middle" style="font:bold 200px 'Helvetica Neue';fill:gold">05170</text><g transform="translate(80 80) scale(64)"><rect x="0" y="0" width="1" height="1" fill="#292929" /><rect x="0" y="1" width="1" height="1" fill="#292929" /><rect x="0" y="2" width="1" height="1" fill="#292929" /><rect x="0" y="3" width="1" height="1" fill="#292929" /><rect x="0" y="4" width="1" height="1" fill="#292929" /><rect x="0" y="5" width="1" height="1" fill="#292929" /><rect x="0" y="6" width="1" height="1" fill="#7f7110" /><rect x="0" y="7" width="1" height="1" fill="#f6e100" /><rect x="0" y="8" width="1" height="1" fill="#d6c00b" /><rect x="0" y="9" width="1" height="1" fill="#b29d08" /><rect x="1" y="0" width="1" height="1" fill="#292929" /><rect x="1" y="1" width="1" height="1" fill="#292929" /><rect x="1" y="2" width="1" height="1" fill="#292929" /><rect x="1" y="3" width="1" height="1" fill="#292929" /><rect x="1" y="4" width="1" height="1" fill="#292929" /><rect x="1" y="5" width="1" height="1" fill="#574f1a" /><rect x="1" y="6" width="1" height="1" fill="#d4bc06" /><rect x="1" y="7" width="1" height="1" fill="#f7e300" /><rect x="1" y="8" width="1" height="1" fill="#8d7e0d" /><rect x="1" y="9" width="1" height="1" fill="#f3d400" /><rect x="2" y="0" width="1" height="1" fill="#292929" /><rect x="2" y="1" width="1" height="1" fill="#292929" /><rect x="2" y="2" width="1" height="1" fill="#292929" /><rect x="2" y="3" width="1" height="1" fill="#292929" /><rect x="2" y="4" width="1" height="1" fill="#323026" /><rect x="2" y="5" width="1" height="1" fill="#93820e" /><rect x="2" y="6" width="1" height="1" fill="#f7e300" /><rect x="2" y="7" width="1" height="1" fill="#ad9a0e" /><rect x="2" y="8" width="1" height="1" fill="#d1b704" /><rect x="2" y="9" width="1" height="1" fill="#f3d400" /><rect x="3" y="0" width="1" height="1" fill="#292929" /><rect x="3" y="1" width="1" height="1" fill="#292929" /><rect x="3" y="2" width="1" height="1" fill="#292929" /><rect x="3" y="3" width="1" height="1" fill="#2a2a29" /><rect x="3" y="4" width="1" height="1" fill="#827411" /><rect x="3" y="5" width="1" height="1" fill="#f4df00" /><rect x="3" y="6" width="1" height="1" fill="#dcc508" /><rect x="3" y="7" width="1" height="1" fill="#a4910a" /><rect x="3" y="8" width="1" height="1" fill="#f3d400" /><rect x="3" y="9" width="1" height="1" fill="#f3d400" /><rect x="4" y="0" width="1" height="1" fill="#292929" /><rect x="4" y="1" width="1" height="1" fill="#292929" /><rect x="4" y="2" width="1" height="1" fill="#2b2b28" /><rect x="4" y="3" width="1" height="1" fill="#7e7111" /><rect x="4" y="4" width="1" height="1" fill="#e7d308" /><rect x="4" y="5" width="1" height="1" fill="#f0d902" /><rect x="4" y="6" width="1" height="1" fill="#88780e" /><rect x="4" y="7" width="1" height="1" fill="#f2d300" /><rect x="4" y="8" width="1" height="1" fill="#f3d400" /><rect x="4" y="9" width="1" height="1" fill="#f3d400" /><rect x="5" y="0" width="1" height="1" fill="#292929" /><rect x="5" y="1" width="1" height="1" fill="#2f2e27" /><rect x="5" y="2" width="1" height="1" fill="#817210" /><rect x="5" y="3" width="1" height="1" fill="#e2cf08" /><rect x="5" y="4" width="1" height="1" fill="#f3dd02" /><rect x="5" y="5" width="1" height="1" fill="#85760e" /><rect x="5" y="6" width="1" height="1" fill="#ebcd01" /><rect x="5" y="7" width="1" height="1" fill="#f3d400" /><rect x="5" y="8" width="1" height="1" fill="#f3d400" /><rect x="5" y="9" width="1" height="1" fill="#f3d400" /><rect x="6" y="0" width="1" height="1" fill="#494421" /><rect x="6" y="1" width="1" height="1" fill="#82730f" /><rect x="6" y="2" width="1" height="1" fill="#e5c802" /><rect x="6" y="3" width="1" height="1" fill="#f3dd02" /><rect x="6" y="4" width="1" height="1" fill="#88790d" /><rect x="6" y="5" width="1" height="1" fill="#e1c502" /><rect x="6" y="6" width="1" height="1" fill="#f3d400" /><rect x="6" y="7" width="1" height="1" fill="#f3d400" /><rect x="6" y="8" width="1" height="1" fill="#f3d400" /><rect x="6" y="9" width="1" height="1" fill="#f3d400" /><rect x="7" y="0" width="1" height="1" fill="#9d8b0b" /><rect x="7" y="1" width="1" height="1" fill="#f0d200" /><rect x="7" y="2" width="1" height="1" fill="#e6c902" /><rect x="7" y="3" width="1" height="1" fill="#82730e" /><rect x="7" y="4" width="1" height="1" fill="#e6c902" /><rect x="7" y="5" width="1" height="1" fill="#f3d400" /><rect x="7" y="6" width="1" height="1" fill="#f3d400" /><rect x="7" y="7" width="1" height="1" fill="#f3d400" /><rect x="7" y="8" width="1" height="1" fill="#f3d400" /><rect x="7" y="9" width="1" height="1" fill="#f3d400" /><rect x="8" y="0" width="1" height="1" fill="#f3d400" /><rect x="8" y="1" width="1" height="1" fill="#c0a806" /><rect x="8" y="2" width="1" height="1" fill="#92810c" /><rect x="8" y="3" width="1" height="1" fill="#eed001" /><rect x="8" y="4" width="1" height="1" fill="#f3d400" /><rect x="8" y="5" width="1" height="1" fill="#f3d400" /><rect x="8" y="6" width="1" height="1" fill="#f3d400" /><rect x="8" y="7" width="1" height="1" fill="#f3d400" /><rect x="8" y="8" width="1" height="1" fill="#f3d400" /><rect x="8" y="9" width="1" height="1" fill="#d0b604" /><rect x="9" y="0" width="1" height="1" fill="#92810c" /><rect x="9" y="1" width="1" height="1" fill="#b7a108" /><rect x="9" y="2" width="1" height="1" fill="#f3d400" /><rect x="9" y="3" width="1" height="1" fill="#f3d400" /><rect x="9" y="4" width="1" height="1" fill="#f3d400" /><rect x="9" y="5" width="1" height="1" fill="#f3d400" /><rect x="9" y="6" width="1" height="1" fill="#f3d400" /><rect x="9" y="7" width="1" height="1" fill="#f3d400" /><rect x="9" y="8" width="1" height="1" fill="#d6bb04" /><rect x="9" y="9" width="1" height="1" fill="#c1a906" /></g></svg>