<svg width="800" height="1000" xmlns="http://www.w3.org/2000/svg"><defs><linearGradient id="g" x1="0" x2="1" y1="0" y2="1"><stop offset="0%" stop-color="#2d3c96"/><stop offset="100%" stop-color="#d53392"/></linearGradient></defs><rect x="10" y="10" width="780" height="980" fill="url(#g)" rx="50" ry="50" stroke="gold" stroke-width="20"/><text x="400" y="920" width="780" text-anchor="middle" style="font:bold 200px 'Helvetica Neue';fill:gold">05229</text><g transform="translate(80 80) scale(64)"><rect x="0" y="0" width="1" height="1" fill="#baaeec" /><rect x="0" y="1" width="1" height="1" fill="#baaeec" /><rect x="0" y="2" width="1" height="1" fill="#bbafed" /><rect x="0" y="3" width="1" height="1" fill="#bbafed" /><rect x="0" y="4" width="1" height="1" fill="#bbafed" /><rect x="0" y="5" width="1" height="1" fill="#bbafed" /><rect x="0" y="6" width="1" height="1" fill="#bbafed" /><rect x="0" y="7" width="1" height="1" fill="#bbafed" /><rect x="0" y="8" width="1" height="1" fill="#bbafed" /><rect x="0" y="9" width="1" height="1" fill="#bbb0ec" /><rect x="1" y="0" width="1" height="1" fill="#c0aee8" /><rect x="1" y="1" width="1" height="1" fill="#c0aee8" /><rect x="1" y="2" width="1" height="1" fill="#c1afe9" /><rect x="1" y="3" width="1" height="1" fill="#c1afe9" /><rect x="1" y="4" width="1" height="1" fill="#c1afe9" /><rect x="1" y="5" width="1" height="1" fill="#c1afe9" /><rect x="1" y="6" width="1" height="1" fill="#c1afe9" /><rect x="1" y="7" width="1" height="1" fill="#c1afe9" /><rect x="1" y="8" width="1" height="1" fill="#c1afe9" /><rect x="1" y="9" width="1" height="1" fill="#c1afe9" /><rect x="2" y="0" width="1" height="1" fill="#c6ade6" /><rect x="2" y="1" width="1" height="1" fill="#c6ade6" /><rect x="2" y="2" width="1" height="1" fill="#c7aee7" /><rect x="2" y="3" width="1" height="1" fill="#c7aee7" /><rect x="2" y="4" width="1" height="1" fill="#c7aee7" /><rect x="2" y="5" width="1" height="1" fill="#c7aee7" /><rect x="2" y="6" width="1" height="1" fill="#c7aee7" /><rect x="2" y="7" width="1" height="1" fill="#c7aee7" /><rect x="2" y="8" width="1" height="1" fill="#c7aee7" /><rect x="2" y="9" width="1" height="1" fill="#c7aee7" /><rect x="3" y="0" width="1" height="1" fill="#cbade1" /><rect x="3" y="1" width="1" height="1" fill="#cbade1" /><rect x="3" y="2" width="1" height="1" fill="#ccaee2" /><rect x="3" y="3" width="1" height="1" fill="#ccaee2" /><rect x="3" y="4" width="1" height="1" fill="#ccaee2" /><rect x="3" y="5" width="1" height="1" fill="#ccaee2" /><rect x="3" y="6" width="1" height="1" fill="#ccaee2" /><rect x="3" y="7" width="1" height="1" fill="#ccaee2" /><rect x="3" y="8" width="1" height="1" fill="#ccaee2" /><rect x="3" y="9" width="1" height="1" fill="#ccaee2" /><rect x="4" y="0" width="1" height="1" fill="#d1acdf" /><rect x="4" y="1" width="1" height="1" fill="#d1acdf" /><rect x="4" y="2" width="1" height="1" fill="#d2ade0" /><rect x="4" y="3" width="1" height="1" fill="#d3ade0" /><rect x="4" y="4" width="1" height="1" fill="#d3ade0" /><rect x="4" y="5" width="1" height="1" fill="#d3ade0" /><rect x="4" y="6" width="1" height="1" fill="#d3ade0" /><rect x="4" y="7" width="1" height="1" fill="#d3ade0" /><rect x="4" y="8" width="1" height="1" fill="#d3ade0" /><rect x="4" y="9" width="1" height="1" fill="#d3ace1" /><rect x="5" y="0" width="1" height="1" fill="#d4addc" /><rect x="5" y="1" width="1" height="1" fill="#d4addc" /><rect x="5" y="2" width="1" height="1" fill="#d6acdc" /><rect x="5" y="3" width="1" height="1" fill="#d6acdc" /><rect x="5" y="4" width="1" height="1" fill="#d6acdc" /><rect x="5" y="5" width="1" height="1" fill="#d6acdc" /><rect x="5" y="6" width="1" height="1" fill="#d6acdc" /><rect x="5" y="7" width="1" height="1" fill="#d6acdc" /><rect x="5" y="8" width="1" height="1" fill="#d6acdc" /><rect x="5" y="9" width="1" height="1" fill="#d6acdc" /><rect x="6" y="0" width="1" height="1" fill="#d8addb" /><rect x="6" y="1" width="1" height="1" fill="#d8addb" /><rect x="6" y="2" width="1" height="1" fill="#daafdd" /><rect x="6" y="3" width="1" height="1" fill="#d1a6d4" /><rect x="6" y="4" width="1" height="1" fill="#dbb0de" /><rect x="6" y="5" width="1" height="1" fill="#deb3e1" /><rect x="6" y="6" width="1" height="1" fill="#d8addb" /><rect x="6" y="7" width="1" height="1" fill="#dbb0de" /><rect x="6" y="8" width="1" height="1" fill="#d6abd9" /><rect x="6" y="9" width="1" height="1" fill="#d9aedc" /><rect x="7" y="0" width="1" height="1" fill="#dbacd8" /><rect x="7" y="1" width="1" height="1" fill="#dbacd8" /><rect x="7" y="2" width="1" height="1" fill="#dbacd8" /><rect x="7" y="3" width="1" height="1" fill="#dfb0dc" /><rect x="7" y="4" width="1" height="1" fill="#d7a8d4" /><rect x="7" y="5" width="1" height="1" fill="#d6a7d3" /><rect x="7" y="6" width="1" height="1" fill="#d9aad6" /><rect x="7" y="7" width="1" height="1" fill="#ddb0db" /><rect x="7" y="8" width="1" height="1" fill="#d8abd6" /><rect x="7" y="9" width="1" height="1" fill="#e4b5df" /><rect x="8" y="0" width="1" height="1" fill="#e0acd3" /><rect x="8" y="1" width="1" height="1" fill="#e0acd3" /><rect x="8" y="2" width="1" height="1" fill="#dfadd3" /><rect x="8" y="3" width="1" height="1" fill="#e4b2d8" /><rect x="8" y="4" width="1" height="1" fill="#dcacd2" /><rect x="8" y="5" width="1" height="1" fill="#e3b3d9" /><rect x="8" y="6" width="1" height="1" fill="#d5a5cb" /><rect x="8" y="7" width="1" height="1" fill="#e0b0d6" /><rect x="8" y="8" width="1" height="1" fill="#e0b0d6" /><rect x="8" y="9" width="1" height="1" fill="#d5a3c9" /><rect x="9" y="0" width="1" height="1" fill="#e5accf" /><rect x="9" y="1" width="1" height="1" fill="#e4accf" /><rect x="9" y="2" width="1" height="1" fill="#dea6c9" /><rect x="9" y="3" width="1" height="1" fill="#e1abcd" /><rect x="9" y="4" width="1" height="1" fill="#ebb8d9" /><rect x="9" y="5" width="1" height="1" fill="#d4a1c2" /><rect x="9" y="6" width="1" height="1" fill="#6e3d5d" /><rect x="9" y="7" width="1" height="1" fill="#916080" /><rect x="9" y="8" width="1" height="1" fill="#dfaece" /><rect x="9" y="9" width="1" height="1" fill="#e2afd0" /></g></svg>