<svg width="800" height="1000" xmlns="http://www.w3.org/2000/svg"><defs><linearGradient id="g" x1="0" x2="1" y1="0" y2="1"><stop offset="0%" stop-color="#2d3c96"/><stop offset="100%" stop-color="#d53392"/></linearGradient></defs><rect x="10" y="10" width="780" height="980" fill="url(#g)" rx="50" ry="50" stroke="gold" stroke-width="20"/><text x="400" y="920" width="780" text-anchor="middle" style="font:bold 200px 'Helvetica Neue';fill:gold">05224</text><g transform="translate(80 80) scale(64)"><rect x="0" y="0" width="1" height="1" fill="#d4b9ee" /><rect x="0" y="1" width="1" height="1" fill="#d4baea" /><rect x="0" y="2" width="1" height="1" fill="#d4bae9" /><rect x="0" y="3" width="1" height="1" fill="#d5bbe8" /><rect x="0" y="4" width="1" height="1" fill="#d5bce6" /><rect x="0" y="5" width="1" height="1" fill="#d6bbe8" /><rect x="0" y="6" width="1" height="1" fill="#d7baea" /><rect x="0" y="7" width="1" height="1" fill="#dab9ee" /><rect x="0" y="8" width="1" height="1" fill="#dbb8f0" /><rect x="0" y="9" width="1" height="1" fill="#ddb8ee" /><rect x="1" y="0" width="1" height="1" fill="#c6abe0" /><rect x="1" y="1" width="1" height="1" fill="#c6abde" /><rect x="1" y="2" width="1" height="1" fill="#c6acdb" /><rect x="1" y="3" width="1" height="1" fill="#c6acd9" /><rect x="1" y="4" width="1" height="1" fill="#c6acd9" /><rect x="1" y="5" width="1" height="1" fill="#c8adda" /><rect x="1" y="6" width="1" height="1" fill="#c9acdc" /><rect x="1" y="7" width="1" height="1" fill="#cbabdd" /><rect x="1" y="8" width="1" height="1" fill="#cca9df" /><rect x="1" y="9" width="1" height="1" fill="#cfaade" /><rect x="2" y="0" width="1" height="1" fill="#caade7" /><rect x="2" y="1" width="1" height="1" fill="#caade3" /><rect x="2" y="2" width="1" height="1" fill="#c9afdf" /><rect x="2" y="3" width="1" height="1" fill="#c9afde" /><rect x="2" y="4" width="1" height="1" fill="#cab0dd" /><rect x="2" y="5" width="1" height="1" fill="#cbb0dd" /><rect x="2" y="6" width="1" height="1" fill="#ccafdd" /><rect x="2" y="7" width="1" height="1" fill="#ceaedd" /><rect x="2" y="8" width="1" height="1" fill="#d2ade0" /><rect x="2" y="9" width="1" height="1" fill="#d3adde" /><rect x="3" y="0" width="1" height="1" fill="#caace8" /><rect x="3" y="1" width="1" height="1" fill="#caade7" /><rect x="3" y="2" width="1" height="1" fill="#caafe4" /><rect x="3" y="3" width="1" height="1" fill="#cab0e0" /><rect x="3" y="4" width="1" height="1" fill="#cab0df" /><rect x="3" y="5" width="1" height="1" fill="#ccb1de" /><rect x="3" y="6" width="1" height="1" fill="#cfb0dc" /><rect x="3" y="7" width="1" height="1" fill="#d0afda" /><rect x="3" y="8" width="1" height="1" fill="#d3aeda" /><rect x="3" y="9" width="1" height="1" fill="#d5aedb" /><rect x="4" y="0" width="1" height="1" fill="#caaae9" /><rect x="4" y="1" width="1" height="1" fill="#c9abe7" /><rect x="4" y="2" width="1" height="1" fill="#c9aee5" /><rect x="4" y="3" width="1" height="1" fill="#c9aee1" /><rect x="4" y="4" width="1" height="1" fill="#caaedf" /><rect x="4" y="5" width="1" height="1" fill="#ccafdd" /><rect x="4" y="6" width="1" height="1" fill="#cfaed9" /><rect x="4" y="7" width="1" height="1" fill="#d1aed8" /><rect x="4" y="8" width="1" height="1" fill="#d3add6" /><rect x="4" y="9" width="1" height="1" fill="#d5acd6" /><rect x="5" y="0" width="1" height="1" fill="#cdadec" /><rect x="5" y="1" width="1" height="1" fill="#cdaeea" /><rect x="5" y="2" width="1" height="1" fill="#cdb0ea" /><rect x="5" y="3" width="1" height="1" fill="#cdb0e6" /><rect x="5" y="4" width="1" height="1" fill="#cdb1e2" /><rect x="5" y="5" width="1" height="1" fill="#d1b1e0" /><rect x="5" y="6" width="1" height="1" fill="#d4b0dc" /><rect x="5" y="7" width="1" height="1" fill="#d6b0d9" /><rect x="5" y="8" width="1" height="1" fill="#d9afd5" /><rect x="5" y="9" width="1" height="1" fill="#dbaed7" /><rect x="6" y="0" width="1" height="1" fill="#ccaae6" /><rect x="6" y="1" width="1" height="1" fill="#caabe6" /><rect x="6" y="2" width="1" height="1" fill="#cbace5" /><rect x="6" y="3" width="1" height="1" fill="#cbade3" /><rect x="6" y="4" width="1" height="1" fill="#cdaddf" /><rect x="6" y="5" width="1" height="1" fill="#ceaddc" /><rect x="6" y="6" width="1" height="1" fill="#d2add8" /><rect x="6" y="7" width="1" height="1" fill="#d5acd4" /><rect x="6" y="8" width="1" height="1" fill="#d8acd0" /><rect x="6" y="9" width="1" height="1" fill="#d9abd2" /><rect x="7" y="0" width="1" height="1" fill="#ceade2" /><rect x="7" y="1" width="1" height="1" fill="#cfaee3" /><rect x="7" y="2" width="1" height="1" fill="#cfaee5" /><rect x="7" y="3" width="1" height="1" fill="#cfaee3" /><rect x="7" y="4" width="1" height="1" fill="#d0aee1" /><rect x="7" y="5" width="1" height="1" fill="#d3adde" /><rect x="7" y="6" width="1" height="1" fill="#d6acda" /><rect x="7" y="7" width="1" height="1" fill="#d8aed6" /><rect x="7" y="8" width="1" height="1" fill="#dbadd2" /><rect x="7" y="9" width="1" height="1" fill="#dcacd4" /><rect x="8" y="0" width="1" height="1" fill="#caa9d6" /><rect x="8" y="1" width="1" height="1" fill="#d0afde" /><rect x="8" y="2" width="1" height="1" fill="#d0aee0" /><rect x="8" y="3" width="1" height="1" fill="#d2ade1" /><rect x="8" y="4" width="1" height="1" fill="#d3ace1" /><rect x="8" y="5" width="1" height="1" fill="#d4ace0" /><rect x="8" y="6" width="1" height="1" fill="#d6aadb" /><rect x="8" y="7" width="1" height="1" fill="#d9aad6" /><rect x="8" y="8" width="1" height="1" fill="#dca9d2" /><rect x="8" y="9" width="1" height="1" fill="#dca9d2" /><rect x="9" y="0" width="1" height="1" fill="#debee5" /><rect x="9" y="1" width="1" height="1" fill="#d1acd7" /><rect x="9" y="2" width="1" height="1" fill="#d3addc" /><rect x="9" y="3" width="1" height="1" fill="#d3ade0" /><rect x="9" y="4" width="1" height="1" fill="#d4ace0" /><rect x="9" y="5" width="1" height="1" fill="#d7abe0" /><rect x="9" y="6" width="1" height="1" fill="#d9abdc" /><rect x="9" y="7" width="1" height="1" fill="#daabd9" /><rect x="9" y="8" width="1" height="1" fill="#ddaad3" /><rect x="9" y="9" width="1" height="1" fill="#dda8d2" /></g></svg>