<svg width="800" height="1000" xmlns="http://www.w3.org/2000/svg"><defs><linearGradient id="g" x1="0" x2="1" y1="0" y2="1"><stop offset="0%" stop-color="#2d3c96"/><stop offset="100%" stop-color="#d53392"/></linearGradient></defs><rect x="10" y="10" width="780" height="980" fill="url(#g)" rx="50" ry="50" stroke="gold" stroke-width="20"/><text x="400" y="920" width="780" text-anchor="middle" style="font:bold 200px 'Helvetica Neue';fill:gold">05223</text><g transform="translate(80 80) scale(64)"><rect x="0" y="0" width="1" height="1" fill="#00a8e0" /><rect x="0" y="1" width="1" height="1" fill="#06a9dd" /><rect x="0" y="2" width="1" height="1" fill="#33b1db" /><rect x="0" y="3" width="1" height="1" fill="#b2bec3" /><rect x="0" y="4" width="1" height="1" fill="#878483" /><rect x="0" y="5" width="1" height="1" fill="#363636" /><rect x="0" y="6" width="1" height="1" fill="#292929" /><rect x="0" y="7" width="1" height="1" fill="#535353" /><rect x="0" y="8" width="1" height="1" fill="#5b5b5b" /><rect x="0" y="9" width="1" height="1" fill="#1f1f1f" /><rect x="1" y="0" width="1" height="1" fill="#75c1dc" /><rect x="1" y="1" width="1" height="1" fill="#bcd9e4" /><rect x="1" y="2" width="1" height="1" fill="#8dc4d8" /><rect x="1" y="3" width="1" height="1" fill="#75a5b6" /><rect x="1" y="4" width="1" height="1" fill="#578493" /><rect x="1" y="5" width="1" height="1" fill="#4c5558" /><rect x="1" y="6" width="1" height="1" fill="#2c2a29" /><rect x="1" y="7" width="1" height="1" fill="#4c4c4c" /><rect x="1" y="8" width="1" height="1" fill="#676562" /><rect x="1" y="9" width="1" height="1" fill="#1a1a19" /><rect x="2" y="0" width="1" height="1" fill="#dae3e7" /><rect x="2" y="1" width="1" height="1" fill="#f2f0ef" /><rect x="2" y="2" width="1" height="1" fill="#dceaef" /><rect x="2" y="3" width="1" height="1" fill="#25abd6" /><rect x="2" y="4" width="1" height="1" fill="#00a1d9" /><rect x="2" y="5" width="1" height="1" fill="#0587b1" /><rect x="2" y="6" width="1" height="1" fill="#1b4c5c" /><rect x="2" y="7" width="1" height="1" fill="#615541" /><rect x="2" y="8" width="1" height="1" fill="#7a633c" /><rect x="2" y="9" width="1" height="1" fill="#403420" /><rect x="3" y="0" width="1" height="1" fill="#eaebeb" /><rect x="3" y="1" width="1" height="1" fill="#efeeee" /><rect x="3" y="2" width="1" height="1" fill="#b6d6e1" /><rect x="3" y="3" width="1" height="1" fill="#02a7dd" /><rect x="3" y="4" width="1" height="1" fill="#00a9e3" /><rect x="3" y="5" width="1" height="1" fill="#00abe6" /><rect x="3" y="6" width="1" height="1" fill="#2c9dbb" /><rect x="3" y="7" width="1" height="1" fill="#918055" /><rect x="3" y="8" width="1" height="1" fill="#7f642b" /><rect x="3" y="9" width="1" height="1" fill="#373021" /><rect x="4" y="0" width="1" height="1" fill="#c3d3d9" /><rect x="4" y="1" width="1" height="1" fill="#efedec" /><rect x="4" y="2" width="1" height="1" fill="#8ac8dd" /><rect x="4" y="3" width="1" height="1" fill="#00a7df" /><rect x="4" y="4" width="1" height="1" fill="#00a9e2" /><rect x="4" y="5" width="1" height="1" fill="#00aae4" /><rect x="4" y="6" width="1" height="1" fill="#53a1ad" /><rect x="4" y="7" width="1" height="1" fill="#917d42" /><rect x="4" y="8" width="1" height="1" fill="#4c8886" /><rect x="4" y="9" width="1" height="1" fill="#114152" /><rect x="5" y="0" width="1" height="1" fill="#3dacd0" /><rect x="5" y="1" width="1" height="1" fill="#65b9d6" /><rect x="5" y="2" width="1" height="1" fill="#13acdd" /><rect x="5" y="3" width="1" height="1" fill="#00a9e2" /><rect x="5" y="4" width="1" height="1" fill="#00a9e2" /><rect x="5" y="5" width="1" height="1" fill="#00a9e5" /><rect x="5" y="6" width="1" height="1" fill="#1fa0c2" /><rect x="5" y="7" width="1" height="1" fill="#409aa5" /><rect x="5" y="8" width="1" height="1" fill="#0babdd" /><rect x="5" y="9" width="1" height="1" fill="#20a9d5" /><rect x="6" y="0" width="1" height="1" fill="#94c4d5" /><rect x="6" y="1" width="1" height="1" fill="#b6d7e2" /><rect x="6" y="2" width="1" height="1" fill="#31b3dd" /><rect x="6" y="3" width="1" height="1" fill="#00a8e2" /><rect x="6" y="4" width="1" height="1" fill="#03a8dc" /><rect x="6" y="5" width="1" height="1" fill="#27a8cf" /><rect x="6" y="6" width="1" height="1" fill="#17a3d0" /><rect x="6" y="7" width="1" height="1" fill="#249bca" /><rect x="6" y="8" width="1" height="1" fill="#8e9fb1" /><rect x="6" y="9" width="1" height="1" fill="#99a2ac" /><rect x="7" y="0" width="1" height="1" fill="#e9e9ea" /><rect x="7" y="1" width="1" height="1" fill="#f3f0ee" /><rect x="7" y="2" width="1" height="1" fill="#70bfda" /><rect x="7" y="3" width="1" height="1" fill="#00a7e0" /><rect x="7" y="4" width="1" height="1" fill="#66a1b1" /><rect x="7" y="5" width="1" height="1" fill="#b69c8c" /><rect x="7" y="6" width="1" height="1" fill="#9a7d70" /><rect x="7" y="7" width="1" height="1" fill="#7d625d" /><rect x="7" y="8" width="1" height="1" fill="#7e5e5d" /><rect x="7" y="9" width="1" height="1" fill="#51577a" /><rect x="8" y="0" width="1" height="1" fill="#e0e7ea" /><rect x="8" y="1" width="1" height="1" fill="#f4f1f0" /><rect x="8" y="2" width="1" height="1" fill="#a5d4e5" /><rect x="8" y="3" width="1" height="1" fill="#03a9de" /><rect x="8" y="4" width="1" height="1" fill="#7aa4af" /><rect x="8" y="5" width="1" height="1" fill="#b5988f" /><rect x="8" y="6" width="1" height="1" fill="#a77665" /><rect x="8" y="7" width="1" height="1" fill="#814d3a" /><rect x="8" y="8" width="1" height="1" fill="#6d4b3e" /><rect x="8" y="9" width="1" height="1" fill="#a7a4a6" /><rect x="9" y="0" width="1" height="1" fill="#98cbdd" /><rect x="9" y="1" width="1" height="1" fill="#d5e2e6" /><rect x="9" y="2" width="1" height="1" fill="#58bbdd" /><rect x="9" y="3" width="1" height="1" fill="#00a8e0" /><rect x="9" y="4" width="1" height="1" fill="#429eba" /><rect x="9" y="5" width="1" height="1" fill="#9e9c9b" /><rect x="9" y="6" width="1" height="1" fill="#91817d" /><rect x="9" y="7" width="1" height="1" fill="#796b67" /><rect x="9" y="8" width="1" height="1" fill="#afa9ac" /><rect x="9" y="9" width="1" height="1" fill="#dfdfe4" /></g></svg>