<svg width="800" height="1000" xmlns="http://www.w3.org/2000/svg"><defs><linearGradient id="g" x1="0" x2="1" y1="0" y2="1"><stop offset="0%" stop-color="#2d3c96"/><stop offset="100%" stop-color="#d53392"/></linearGradient></defs><rect x="10" y="10" width="780" height="980" fill="url(#g)" rx="50" ry="50" stroke="gold" stroke-width="20"/><text x="400" y="920" width="780" text-anchor="middle" style="font:bold 200px 'Helvetica Neue';fill:gold">05228</text><g transform="translate(80 80) scale(64)"><rect x="0" y="0" width="1" height="1" fill="#a0baed" /><rect x="0" y="1" width="1" height="1" fill="#90b3ed" /><rect x="0" y="2" width="1" height="1" fill="#8fb5f4" /><rect x="0" y="3" width="1" height="1" fill="#8fb2f2" /><rect x="0" y="4" width="1" height="1" fill="#9ab4f1" /><rect x="0" y="5" width="1" height="1" fill="#9eabe0" /><rect x="0" y="6" width="1" height="1" fill="#7b7ba1" /><rect x="0" y="7" width="1" height="1" fill="#070010" /><rect x="0" y="8" width="1" height="1" fill="#634c54" /><rect x="0" y="9" width="1" height="1" fill="#e1c2c0" /><rect x="1" y="0" width="1" height="1" fill="#99b6ee" /><rect x="1" y="1" width="1" height="1" fill="#89ace6" /><rect x="1" y="2" width="1" height="1" fill="#8ab0ee" /><rect x="1" y="3" width="1" height="1" fill="#90b2f2" /><rect x="1" y="4" width="1" height="1" fill="#9cb5f7" /><rect x="1" y="5" width="1" height="1" fill="#a6b5f0" /><rect x="1" y="6" width="1" height="1" fill="#898cb9" /><rect x="1" y="7" width="1" height="1" fill="#06001a" /><rect x="1" y="8" width="1" height="1" fill="#35262d" /><rect x="1" y="9" width="1" height="1" fill="#bba8a4" /><rect x="2" y="0" width="1" height="1" fill="#97b1ec" /><rect x="2" y="1" width="1" height="1" fill="#98b8f1" /><rect x="2" y="2" width="1" height="1" fill="#98b8f3" /><rect x="2" y="3" width="1" height="1" fill="#96b4f2" /><rect x="2" y="4" width="1" height="1" fill="#96aaef" /><rect x="2" y="5" width="1" height="1" fill="#a7b5f6" /><rect x="2" y="6" width="1" height="1" fill="#abaee3" /><rect x="2" y="7" width="1" height="1" fill="#3d3c5e" /><rect x="2" y="8" width="1" height="1" fill="#030007" /><rect x="2" y="9" width="1" height="1" fill="#4f4745" /><rect x="3" y="0" width="1" height="1" fill="#98b0f0" /><rect x="3" y="1" width="1" height="1" fill="#9ab4ef" /><rect x="3" y="2" width="1" height="1" fill="#9ab4ef" /><rect x="3" y="3" width="1" height="1" fill="#a4b9f8" /><rect x="3" y="4" width="1" height="1" fill="#a0b1f7" /><rect x="3" y="5" width="1" height="1" fill="#a3adf2" /><rect x="3" y="6" width="1" height="1" fill="#aeb3ed" /><rect x="3" y="7" width="1" height="1" fill="#73759e" /><rect x="3" y="8" width="1" height="1" fill="#000010" /><rect x="3" y="9" width="1" height="1" fill="#111119" /><rect x="4" y="0" width="1" height="1" fill="#a7b9fb" /><rect x="4" y="1" width="1" height="1" fill="#a2b4f2" /><rect x="4" y="2" width="1" height="1" fill="#99abe9" /><rect x="4" y="3" width="1" height="1" fill="#a3b1f2" /><rect x="4" y="4" width="1" height="1" fill="#a7aff7" /><rect x="4" y="5" width="1" height="1" fill="#a5acf2" /><rect x="4" y="6" width="1" height="1" fill="#aaaeed" /><rect x="4" y="7" width="1" height="1" fill="#9295c8" /><rect x="4" y="8" width="1" height="1" fill="#050a2a" /><rect x="4" y="9" width="1" height="1" fill="#000017" /><rect x="5" y="0" width="1" height="1" fill="#a3b0f6" /><rect x="5" y="1" width="1" height="1" fill="#a0abed" /><rect x="5" y="2" width="1" height="1" fill="#a8b1f2" /><rect x="5" y="3" width="1" height="1" fill="#a2a9ed" /><rect x="5" y="4" width="1" height="1" fill="#a6aaf1" /><rect x="5" y="5" width="1" height="1" fill="#afb2f9" /><rect x="5" y="6" width="1" height="1" fill="#afb2f5" /><rect x="5" y="7" width="1" height="1" fill="#a6abe5" /><rect x="5" y="8" width="1" height="1" fill="#454d7b" /><rect x="5" y="9" width="1" height="1" fill="#29325b" /><rect x="6" y="0" width="1" height="1" fill="#a6aef7" /><rect x="6" y="1" width="1" height="1" fill="#aeb2fb" /><rect x="6" y="2" width="1" height="1" fill="#b1b4fb" /><rect x="6" y="3" width="1" height="1" fill="#b1b1f7" /><rect x="6" y="4" width="1" height="1" fill="#b1aff8" /><rect x="6" y="5" width="1" height="1" fill="#b3b3f9" /><rect x="6" y="6" width="1" height="1" fill="#a8abf0" /><rect x="6" y="7" width="1" height="1" fill="#abb0f0" /><rect x="6" y="8" width="1" height="1" fill="#a0a9e4" /><rect x="6" y="9" width="1" height="1" fill="#a8b1ea" /><rect x="7" y="0" width="1" height="1" fill="#b4b6ff" /><rect x="7" y="1" width="1" height="1" fill="#ababf3" /><rect x="7" y="2" width="1" height="1" fill="#b0aef7" /><rect x="7" y="3" width="1" height="1" fill="#b3b0f7" /><rect x="7" y="4" width="1" height="1" fill="#adaaf1" /><rect x="7" y="5" width="1" height="1" fill="#b1b0f4" /><rect x="7" y="6" width="1" height="1" fill="#b0b1f4" /><rect x="7" y="7" width="1" height="1" fill="#aaaff1" /><rect x="7" y="8" width="1" height="1" fill="#adb5f6" /><rect x="7" y="9" width="1" height="1" fill="#a7acec" /><rect x="8" y="0" width="1" height="1" fill="#b3b0f5" /><rect x="8" y="1" width="1" height="1" fill="#b3b0f5" /><rect x="8" y="2" width="1" height="1" fill="#b3b0f5" /><rect x="8" y="3" width="1" height="1" fill="#b3b0f5" /><rect x="8" y="4" width="1" height="1" fill="#b3b0f5" /><rect x="8" y="5" width="1" height="1" fill="#b3b0f5" /><rect x="8" y="6" width="1" height="1" fill="#b2b1f5" /><rect x="8" y="7" width="1" height="1" fill="#b2b1f3" /><rect x="8" y="8" width="1" height="1" fill="#b1b2f3" /><rect x="8" y="9" width="1" height="1" fill="#b2b2f2" /><rect x="9" y="0" width="1" height="1" fill="#b6aff2" /><rect x="9" y="1" width="1" height="1" fill="#b6aff2" /><rect x="9" y="2" width="1" height="1" fill="#b6aff2" /><rect x="9" y="3" width="1" height="1" fill="#b5b0f2" /><rect x="9" y="4" width="1" height="1" fill="#b5b0f2" /><rect x="9" y="5" width="1" height="1" fill="#b5b0f2" /><rect x="9" y="6" width="1" height="1" fill="#b5b0f2" /><rect x="9" y="7" width="1" height="1" fill="#b5b0f2" /><rect x="9" y="8" width="1" height="1" fill="#b5b0f2" /><rect x="9" y="9" width="1" height="1" fill="#b6b0ee" /></g></svg>