<svg width="800" height="1000" xmlns="http://www.w3.org/2000/svg"><defs><linearGradient id="g" x1="0" x2="1" y1="0" y2="1"><stop offset="0%" stop-color="#2d3c96"/><stop offset="100%" stop-color="#d53392"/></linearGradient></defs><rect x="10" y="10" width="780" height="980" fill="url(#g)" rx="50" ry="50" stroke="gold" stroke-width="20"/><text x="400" y="920" width="780" text-anchor="middle" style="font:bold 200px 'Helvetica Neue';fill:gold">05226</text><g transform="translate(80 80) scale(64)"><rect x="0" y="0" width="1" height="1" fill="#bf9eb9" /><rect x="0" y="1" width="1" height="1" fill="#dfb0d4" /><rect x="0" y="2" width="1" height="1" fill="#e0a9d3" /><rect x="0" y="3" width="1" height="1" fill="#e2a9d4" /><rect x="0" y="4" width="1" height="1" fill="#e0acd2" /><rect x="0" y="5" width="1" height="1" fill="#e1add4" /><rect x="0" y="6" width="1" height="1" fill="#e0abd9" /><rect x="0" y="7" width="1" height="1" fill="#e5aad6" /><rect x="0" y="8" width="1" height="1" fill="#ecabcb" /><rect x="0" y="9" width="1" height="1" fill="#f0abc8" /><rect x="1" y="0" width="1" height="1" fill="#c8a6bf" /><rect x="1" y="1" width="1" height="1" fill="#ddaed0" /><rect x="1" y="2" width="1" height="1" fill="#e1a8d1" /><rect x="1" y="3" width="1" height="1" fill="#e3a9d2" /><rect x="1" y="4" width="1" height="1" fill="#e3add1" /><rect x="1" y="5" width="1" height="1" fill="#e3acd3" /><rect x="1" y="6" width="1" height="1" fill="#e3abd8" /><rect x="1" y="7" width="1" height="1" fill="#e5abd4" /><rect x="1" y="8" width="1" height="1" fill="#ecabcb" /><rect x="1" y="9" width="1" height="1" fill="#f0abc8" /><rect x="2" y="0" width="1" height="1" fill="#ceacc5" /><rect x="2" y="1" width="1" height="1" fill="#e0aed1" /><rect x="2" y="2" width="1" height="1" fill="#e2a8d1" /><rect x="2" y="3" width="1" height="1" fill="#e6a9d2" /><rect x="2" y="4" width="1" height="1" fill="#e5accf" /><rect x="2" y="5" width="1" height="1" fill="#e4accf" /><rect x="2" y="6" width="1" height="1" fill="#e4abd6" /><rect x="2" y="7" width="1" height="1" fill="#e8abd5" /><rect x="2" y="8" width="1" height="1" fill="#eeabcc" /><rect x="2" y="9" width="1" height="1" fill="#f2abc9" /><rect x="3" y="0" width="1" height="1" fill="#d2aec8" /><rect x="3" y="1" width="1" height="1" fill="#e2b1d1" /><rect x="3" y="2" width="1" height="1" fill="#e2a8d0" /><rect x="3" y="3" width="1" height="1" fill="#e7a9d0" /><rect x="3" y="4" width="1" height="1" fill="#e7abcd" /><rect x="3" y="5" width="1" height="1" fill="#e7abcd" /><rect x="3" y="6" width="1" height="1" fill="#e7aad4" /><rect x="3" y="7" width="1" height="1" fill="#e9abd4" /><rect x="3" y="8" width="1" height="1" fill="#f0aacc" /><rect x="3" y="9" width="1" height="1" fill="#f2acc8" /><rect x="4" y="0" width="1" height="1" fill="#e0bad3" /><rect x="4" y="1" width="1" height="1" fill="#e0adce" /><rect x="4" y="2" width="1" height="1" fill="#e7abd1" /><rect x="4" y="3" width="1" height="1" fill="#ebabd0" /><rect x="4" y="4" width="1" height="1" fill="#ecadcc" /><rect x="4" y="5" width="1" height="1" fill="#eaadce" /><rect x="4" y="6" width="1" height="1" fill="#e8aad3" /><rect x="4" y="7" width="1" height="1" fill="#eba8d3" /><rect x="4" y="8" width="1" height="1" fill="#eea8ca" /><rect x="4" y="9" width="1" height="1" fill="#f3aac7" /><rect x="5" y="0" width="1" height="1" fill="#deb6d0" /><rect x="5" y="1" width="1" height="1" fill="#e3adcd" /><rect x="5" y="2" width="1" height="1" fill="#e9abd0" /><rect x="5" y="3" width="1" height="1" fill="#edabcf" /><rect x="5" y="4" width="1" height="1" fill="#edacca" /><rect x="5" y="5" width="1" height="1" fill="#edaccc" /><rect x="5" y="6" width="1" height="1" fill="#eca9d2" /><rect x="5" y="7" width="1" height="1" fill="#eca8d1" /><rect x="5" y="8" width="1" height="1" fill="#f0a9c9" /><rect x="5" y="9" width="1" height="1" fill="#f3aac7" /><rect x="6" y="0" width="1" height="1" fill="#d7afc9" /><rect x="6" y="1" width="1" height="1" fill="#e6b0d0" /><rect x="6" y="2" width="1" height="1" fill="#ebabce" /><rect x="6" y="3" width="1" height="1" fill="#eeabce" /><rect x="6" y="4" width="1" height="1" fill="#eeacc8" /><rect x="6" y="5" width="1" height="1" fill="#eeabca" /><rect x="6" y="6" width="1" height="1" fill="#eda9d0" /><rect x="6" y="7" width="1" height="1" fill="#efa8d0" /><rect x="6" y="8" width="1" height="1" fill="#f3a9ca" /><rect x="6" y="9" width="1" height="1" fill="#f4aac5" /><rect x="7" y="0" width="1" height="1" fill="#d5abc3" /><rect x="7" y="1" width="1" height="1" fill="#e9b2d2" /><rect x="7" y="2" width="1" height="1" fill="#edabcf" /><rect x="7" y="3" width="1" height="1" fill="#f0aacc" /><rect x="7" y="4" width="1" height="1" fill="#f0abc7" /><rect x="7" y="5" width="1" height="1" fill="#f0abc8" /><rect x="7" y="6" width="1" height="1" fill="#f0aacf" /><rect x="7" y="7" width="1" height="1" fill="#f1a9d1" /><rect x="7" y="8" width="1" height="1" fill="#f5aac9" /><rect x="7" y="9" width="1" height="1" fill="#f6aac6" /><rect x="8" y="0" width="1" height="1" fill="#d9afc7" /><rect x="8" y="1" width="1" height="1" fill="#e7b0cf" /><rect x="8" y="2" width="1" height="1" fill="#eeabce" /><rect x="8" y="3" width="1" height="1" fill="#f3a9cc" /><rect x="8" y="4" width="1" height="1" fill="#f3aac5" /><rect x="8" y="5" width="1" height="1" fill="#f1abc7" /><rect x="8" y="6" width="1" height="1" fill="#f2aad0" /><rect x="8" y="7" width="1" height="1" fill="#f4a9d0" /><rect x="8" y="8" width="1" height="1" fill="#f6a9c9" /><rect x="8" y="9" width="1" height="1" fill="#f8a9c6" /><rect x="9" y="0" width="1" height="1" fill="#daaec7" /><rect x="9" y="1" width="1" height="1" fill="#e4abcb" /><rect x="9" y="2" width="1" height="1" fill="#eeabce" /><rect x="9" y="3" width="1" height="1" fill="#f2a8c9" /><rect x="9" y="4" width="1" height="1" fill="#f2aac2" /><rect x="9" y="5" width="1" height="1" fill="#f3aac5" /><rect x="9" y="6" width="1" height="1" fill="#f2aacf" /><rect x="9" y="7" width="1" height="1" fill="#f5aad1" /><rect x="9" y="8" width="1" height="1" fill="#f7aaca" /><rect x="9" y="9" width="1" height="1" fill="#f9a9c4" /></g></svg>