<svg width="800" height="1000" xmlns="http://www.w3.org/2000/svg"><defs><linearGradient id="g" x1="0" x2="1" y1="0" y2="1"><stop offset="0%" stop-color="#2d3c96"/><stop offset="100%" stop-color="#d53392"/></linearGradient></defs><rect x="10" y="10" width="780" height="980" fill="url(#g)" rx="50" ry="50" stroke="gold" stroke-width="20"/><text x="400" y="920" width="780" text-anchor="middle" style="font:bold 200px 'Helvetica Neue';fill:gold">05231</text><g transform="translate(80 80) scale(64)"><rect x="0" y="0" width="1" height="1" fill="#ffc4b9" /><rect x="0" y="1" width="1" height="1" fill="#ffc3b9" /><rect x="0" y="2" width="1" height="1" fill="#ffc4b9" /><rect x="0" y="3" width="1" height="1" fill="#edb9ac" /><rect x="0" y="4" width="1" height="1" fill="#623c2f" /><rect x="0" y="5" width="1" height="1" fill="#210400" /><rect x="0" y="6" width="1" height="1" fill="#bb9e90" /><rect x="0" y="7" width="1" height="1" fill="#f3cfc3" /><rect x="0" y="8" width="1" height="1" fill="#e0b1a7" /><rect x="0" y="9" width="1" height="1" fill="#240000" /><rect x="1" y="0" width="1" height="1" fill="#ffc4b5" /><rect x="1" y="1" width="1" height="1" fill="#ffbcac" /><rect x="1" y="2" width="1" height="1" fill="#ffc5b3" /><rect x="1" y="3" width="1" height="1" fill="#f9c4b2" /><rect x="1" y="4" width="1" height="1" fill="#cea893" /><rect x="1" y="5" width="1" height="1" fill="#9d7d68" /><rect x="1" y="6" width="1" height="1" fill="#e9c9b4" /><rect x="1" y="7" width="1" height="1" fill="#edc9b3" /><rect x="1" y="8" width="1" height="1" fill="#f2c3b1" /><rect x="1" y="9" width="1" height="1" fill="#b48573" /><rect x="2" y="0" width="1" height="1" fill="#ffc6b3" /><rect x="2" y="1" width="1" height="1" fill="#ffc2ad" /><rect x="2" y="2" width="1" height="1" fill="#ffc6b1" /><rect x="2" y="3" width="1" height="1" fill="#ffc9b1" /><rect x="2" y="4" width="1" height="1" fill="#f8ccb1" /><rect x="2" y="5" width="1" height="1" fill="#f3ceb1" /><rect x="2" y="6" width="1" height="1" fill="#f2cfb1" /><rect x="2" y="7" width="1" height="1" fill="#f5ceb1" /><rect x="2" y="8" width="1" height="1" fill="#facbb1" /><rect x="2" y="9" width="1" height="1" fill="#fccaaf" /><rect x="3" y="0" width="1" height="1" fill="#fccab3" /><rect x="3" y="1" width="1" height="1" fill="#ffcdb2" /><rect x="3" y="2" width="1" height="1" fill="#ffcaad" /><rect x="3" y="3" width="1" height="1" fill="#ffccac" /><rect x="3" y="4" width="1" height="1" fill="#fbcfac" /><rect x="3" y="5" width="1" height="1" fill="#f7d1ac" /><rect x="3" y="6" width="1" height="1" fill="#f7d1ac" /><rect x="3" y="7" width="1" height="1" fill="#f8d0ac" /><rect x="3" y="8" width="1" height="1" fill="#feceaa" /><rect x="3" y="9" width="1" height="1" fill="#ffcdaa" /><rect x="4" y="0" width="1" height="1" fill="#ffd3b6" /><rect x="4" y="1" width="1" height="1" fill="#ffcba9" /><rect x="4" y="2" width="1" height="1" fill="#ffcdaa" /><rect x="4" y="3" width="1" height="1" fill="#ffcfa8" /><rect x="4" y="4" width="1" height="1" fill="#fdd2a7" /><rect x="4" y="5" width="1" height="1" fill="#fad4a7" /><rect x="4" y="6" width="1" height="1" fill="#fad4a7" /><rect x="4" y="7" width="1" height="1" fill="#fcd3a7" /><rect x="4" y="8" width="1" height="1" fill="#ffd0a5" /><rect x="4" y="9" width="1" height="1" fill="#ffd0a5" /><rect x="5" y="0" width="1" height="1" fill="#ffdbb6" /><rect x="5" y="1" width="1" height="1" fill="#fccda3" /><rect x="5" y="2" width="1" height="1" fill="#ffd2a5" /><rect x="5" y="3" width="1" height="1" fill="#ffd3a3" /><rect x="5" y="4" width="1" height="1" fill="#ffd5a3" /><rect x="5" y="5" width="1" height="1" fill="#fcd7a3" /><rect x="5" y="6" width="1" height="1" fill="#fbd7a3" /><rect x="5" y="7" width="1" height="1" fill="#fed6a3" /><rect x="5" y="8" width="1" height="1" fill="#ffd4a2" /><rect x="5" y="9" width="1" height="1" fill="#ffd3a2" /><rect x="6" y="0" width="1" height="1" fill="#fbd6a9" /><rect x="6" y="1" width="1" height="1" fill="#fed3a0" /><rect x="6" y="2" width="1" height="1" fill="#ffd59f" /><rect x="6" y="3" width="1" height="1" fill="#ffd69d" /><rect x="6" y="4" width="1" height="1" fill="#ffd89d" /><rect x="6" y="5" width="1" height="1" fill="#fcd99f" /><rect x="6" y="6" width="1" height="1" fill="#fada9f" /><rect x="6" y="7" width="1" height="1" fill="#fcd99f" /><rect x="6" y="8" width="1" height="1" fill="#ffd79f" /><rect x="6" y="9" width="1" height="1" fill="#ffd69f" /><rect x="7" y="0" width="1" height="1" fill="#ffdfa9" /><rect x="7" y="1" width="1" height="1" fill="#ffdba0" /><rect x="7" y="2" width="1" height="1" fill="#ffd99c" /><rect x="7" y="3" width="1" height="1" fill="#ffda9a" /><rect x="7" y="4" width="1" height="1" fill="#fedc9c" /><rect x="7" y="5" width="1" height="1" fill="#fbde9c" /><rect x="7" y="6" width="1" height="1" fill="#fade9d" /><rect x="7" y="7" width="1" height="1" fill="#fbdd9f" /><rect x="7" y="8" width="1" height="1" fill="#ffdb9f" /><rect x="7" y="9" width="1" height="1" fill="#ffdb9d" /><rect x="8" y="0" width="1" height="1" fill="#fada9d" /><rect x="8" y="1" width="1" height="1" fill="#ffe2a1" /><rect x="8" y="2" width="1" height="1" fill="#ffdd98" /><rect x="8" y="3" width="1" height="1" fill="#ffdd98" /><rect x="8" y="4" width="1" height="1" fill="#fee09a" /><rect x="8" y="5" width="1" height="1" fill="#fae29c" /><rect x="8" y="6" width="1" height="1" fill="#f9e29e" /><rect x="8" y="7" width="1" height="1" fill="#fce09f" /><rect x="8" y="8" width="1" height="1" fill="#ffde9f" /><rect x="8" y="9" width="1" height="1" fill="#ffde9f" /><rect x="9" y="0" width="1" height="1" fill="#ffefa8" /><rect x="9" y="1" width="1" height="1" fill="#fcdc91" /><rect x="9" y="2" width="1" height="1" fill="#ffe295" /><rect x="9" y="3" width="1" height="1" fill="#ffe395" /><rect x="9" y="4" width="1" height="1" fill="#fce597" /><rect x="9" y="5" width="1" height="1" fill="#fbe599" /><rect x="9" y="6" width="1" height="1" fill="#f9e69a" /><rect x="9" y="7" width="1" height="1" fill="#fbe59c" /><rect x="9" y="8" width="1" height="1" fill="#fee39c" /><rect x="9" y="9" width="1" height="1" fill="#ffe29c" /></g></svg>