<svg width="800" height="1000" xmlns="http://www.w3.org/2000/svg"><defs><linearGradient id="g" x1="0" x2="1" y1="0" y2="1"><stop offset="0%" stop-color="#2d3c96"/><stop offset="100%" stop-color="#d53392"/></linearGradient></defs><rect x="10" y="10" width="780" height="980" fill="url(#g)" rx="50" ry="50" stroke="gold" stroke-width="20"/><text x="400" y="920" width="780" text-anchor="middle" style="font:bold 200px 'Helvetica Neue';fill:gold">05231</text><g transform="translate(80 80) scale(64)"><rect x="0" y="0" width="1" height="1" fill="#595958" /><rect x="0" y="1" width="1" height="1" fill="#000000" /><rect x="0" y="2" width="1" height="1" fill="#36322e" /><rect x="0" y="3" width="1" height="1" fill="#00001b" /><rect x="0" y="4" width="1" height="1" fill="#be9231" /><rect x="0" y="5" width="1" height="1" fill="#c09431" /><rect x="0" y="6" width="1" height="1" fill="#00051e" /><rect x="0" y="7" width="1" height="1" fill="#282421" /><rect x="0" y="8" width="1" height="1" fill="#201d1a" /><rect x="0" y="9" width="1" height="1" fill="#2d2e2d" /><rect x="1" y="0" width="1" height="1" fill="#545351" /><rect x="1" y="1" width="1" height="1" fill="#000000" /><rect x="1" y="2" width="1" height="1" fill="#000017" /><rect x="1" y="3" width="1" height="1" fill="#000000" /><rect x="1" y="4" width="1" height="1" fill="#d5a224" /><rect x="1" y="5" width="1" height="1" fill="#d8a524" /><rect x="1" y="6" width="1" height="1" fill="#000000" /><rect x="1" y="7" width="1" height="1" fill="#000000" /><rect x="1" y="8" width="1" height="1" fill="#000000" /><rect x="1" y="9" width="1" height="1" fill="#211d17" /><rect x="2" y="0" width="1" height="1" fill="#585653" /><rect x="2" y="1" width="1" height="1" fill="#000000" /><rect x="2" y="2" width="1" height="1" fill="#b68d31" /><rect x="2" y="3" width="1" height="1" fill="#cc9c25" /><rect x="2" y="4" width="1" height="1" fill="#191408" /><rect x="2" y="5" width="1" height="1" fill="#000407" /><rect x="2" y="6" width="1" height="1" fill="#cb9b27" /><rect x="2" y="7" width="1" height="1" fill="#b78c25" /><rect x="2" y="8" width="1" height="1" fill="#000000" /><rect x="2" y="9" width="1" height="1" fill="#292520" /><rect x="3" y="0" width="1" height="1" fill="#1d3d51" /><rect x="3" y="1" width="1" height="1" fill="#a37800" /><rect x="3" y="2" width="1" height="1" fill="#ffc93b" /><rect x="3" y="3" width="1" height="1" fill="#d6a326" /><rect x="3" y="4" width="1" height="1" fill="#000000" /><rect x="3" y="5" width="1" height="1" fill="#000000" /><rect x="3" y="6" width="1" height="1" fill="#d3a227" /><rect x="3" y="7" width="1" height="1" fill="#ffc733" /><rect x="3" y="8" width="1" height="1" fill="#ac831a" /><rect x="3" y="9" width="1" height="1" fill="#000018" /><rect x="4" y="0" width="1" height="1" fill="#bf9b59" /><rect x="4" y="1" width="1" height="1" fill="#fdbf00" /><rect x="4" y="2" width="1" height="1" fill="#cd9e33" /><rect x="4" y="3" width="1" height="1" fill="#000000" /><rect x="4" y="4" width="1" height="1" fill="#ce9e26" /><rect x="4" y="5" width="1" height="1" fill="#d1a027" /><rect x="4" y="6" width="1" height="1" fill="#000000" /><rect x="4" y="7" width="1" height="1" fill="#c89926" /><rect x="4" y="8" width="1" height="1" fill="#ffc42e" /><rect x="4" y="9" width="1" height="1" fill="#b68d30" /><rect x="5" y="0" width="1" height="1" fill="#bd9a58" /><rect x="5" y="1" width="1" height="1" fill="#fcbf00" /><rect x="5" y="2" width="1" height="1" fill="#ce9f33" /><rect x="5" y="3" width="1" height="1" fill="#000000" /><rect x="5" y="4" width="1" height="1" fill="#ca9b26" /><rect x="5" y="5" width="1" height="1" fill="#ce9d27" /><rect x="5" y="6" width="1" height="1" fill="#000000" /><rect x="5" y="7" width="1" height="1" fill="#ca9a27" /><rect x="5" y="8" width="1" height="1" fill="#ffc32e" /><rect x="5" y="9" width="1" height="1" fill="#b48b2f" /><rect x="6" y="0" width="1" height="1" fill="#113b51" /><rect x="6" y="1" width="1" height="1" fill="#9f7500" /><rect x="6" y="2" width="1" height="1" fill="#ffc83a" /><rect x="6" y="3" width="1" height="1" fill="#d7a425" /><rect x="6" y="4" width="1" height="1" fill="#000000" /><rect x="6" y="5" width="1" height="1" fill="#000000" /><rect x="6" y="6" width="1" height="1" fill="#d5a326" /><rect x="6" y="7" width="1" height="1" fill="#ffc731" /><rect x="6" y="8" width="1" height="1" fill="#a98018" /><rect x="6" y="9" width="1" height="1" fill="#000015" /><rect x="7" y="0" width="1" height="1" fill="#5e5c58" /><rect x="7" y="1" width="1" height="1" fill="#000000" /><rect x="7" y="2" width="1" height="1" fill="#b58d3a" /><rect x="7" y="3" width="1" height="1" fill="#cb9d32" /><rect x="7" y="4" width="1" height="1" fill="#2f2921" /><rect x="7" y="5" width="1" height="1" fill="#252420" /><rect x="7" y="6" width="1" height="1" fill="#ca9c32" /><rect x="7" y="7" width="1" height="1" fill="#b68d31" /><rect x="7" y="8" width="1" height="1" fill="#000011" /><rect x="7" y="9" width="1" height="1" fill="#38332d" /><rect x="8" y="0" width="1" height="1" fill="#474644" /><rect x="8" y="1" width="1" height="1" fill="#000000" /><rect x="8" y="2" width="1" height="1" fill="#000000" /><rect x="8" y="3" width="1" height="1" fill="#000000" /><rect x="8" y="4" width="1" height="1" fill="#d39f00" /><rect x="8" y="5" width="1" height="1" fill="#d7a200" /><rect x="8" y="6" width="1" height="1" fill="#000000" /><rect x="8" y="7" width="1" height="1" fill="#000000" /><rect x="8" y="8" width="1" height="1" fill="#000000" /><rect x="8" y="9" width="1" height="1" fill="#000000" /><rect x="9" y="0" width="1" height="1" fill="#717270" /><rect x="9" y="1" width="1" height="1" fill="#474644" /><rect x="9" y="2" width="1" height="1" fill="#5d5c58" /><rect x="9" y="3" width="1" height="1" fill="#464d51" /><rect x="9" y="4" width="1" height="1" fill="#c6a059" /><rect x="9" y="5" width="1" height="1" fill="#c8a25a" /><rect x="9" y="6" width="1" height="1" fill="#4a4f52" /><rect x="9" y="7" width="1" height="1" fill="#575653" /><rect x="9" y="8" width="1" height="1" fill="#535351" /><rect x="9" y="9" width="1" height="1" fill="#585958" /></g></svg>