<svg width="800" height="1000" xmlns="http://www.w3.org/2000/svg"><defs><linearGradient id="g" x1="0" x2="1" y1="0" y2="1"><stop offset="0%" stop-color="#2d3c96"/><stop offset="100%" stop-color="#d53392"/></linearGradient></defs><rect x="10" y="10" width="780" height="980" fill="url(#g)" rx="50" ry="50" stroke="gold" stroke-width="20"/><text x="400" y="920" width="780" text-anchor="middle" style="font:bold 200px 'Helvetica Neue';fill:gold">05235</text><g transform="translate(80 80) scale(64)"><rect x="0" y="0" width="1" height="1" fill="#7ccee6" /><rect x="0" y="1" width="1" height="1" fill="#7dd1eb" /><rect x="0" y="2" width="1" height="1" fill="#80d6ef" /><rect x="0" y="3" width="1" height="1" fill="#7ed2ea" /><rect x="0" y="4" width="1" height="1" fill="#7dcfe5" /><rect x="0" y="5" width="1" height="1" fill="#79cee2" /><rect x="0" y="6" width="1" height="1" fill="#7cd5e3" /><rect x="0" y="7" width="1" height="1" fill="#7ed1df" /><rect x="0" y="8" width="1" height="1" fill="#83c6d6" /><rect x="0" y="9" width="1" height="1" fill="#94c9d7" /><rect x="1" y="0" width="1" height="1" fill="#7cc7e4" /><rect x="1" y="1" width="1" height="1" fill="#7dcae6" /><rect x="1" y="2" width="1" height="1" fill="#77cbe5" /><rect x="1" y="3" width="1" height="1" fill="#7bcfeb" /><rect x="1" y="4" width="1" height="1" fill="#7ccced" /><rect x="1" y="5" width="1" height="1" fill="#79c8e7" /><rect x="1" y="6" width="1" height="1" fill="#7dcfe5" /><rect x="1" y="7" width="1" height="1" fill="#7ecada" /><rect x="1" y="8" width="1" height="1" fill="#8cc6d1" /><rect x="1" y="9" width="1" height="1" fill="#b5dfdd" /><rect x="2" y="0" width="1" height="1" fill="#7ebfdd" /><rect x="2" y="1" width="1" height="1" fill="#84cce4" /><rect x="2" y="2" width="1" height="1" fill="#75c9e1" /><rect x="2" y="3" width="1" height="1" fill="#79d2f0" /><rect x="2" y="4" width="1" height="1" fill="#73c7f5" /><rect x="2" y="5" width="1" height="1" fill="#76c4f4" /><rect x="2" y="6" width="1" height="1" fill="#86caf1" /><rect x="2" y="7" width="1" height="1" fill="#86c0d4" /><rect x="2" y="8" width="1" height="1" fill="#96c8bf" /><rect x="2" y="9" width="1" height="1" fill="#c4ecc9" /><rect x="3" y="0" width="1" height="1" fill="#89c6e3" /><rect x="3" y="1" width="1" height="1" fill="#7dc0da" /><rect x="3" y="2" width="1" height="1" fill="#75c2de" /><rect x="3" y="3" width="1" height="1" fill="#77c9ee" /><rect x="3" y="4" width="1" height="1" fill="#73c4fb" /><rect x="3" y="5" width="1" height="1" fill="#77c2fb" /><rect x="3" y="6" width="1" height="1" fill="#82c2ee" /><rect x="3" y="7" width="1" height="1" fill="#84bbcf" /><rect x="3" y="8" width="1" height="1" fill="#99c8b8" /><rect x="3" y="9" width="1" height="1" fill="#c2eab6" /><rect x="4" y="0" width="1" height="1" fill="#7cbfda" /><rect x="4" y="1" width="1" height="1" fill="#7ebfdf" /><rect x="4" y="2" width="1" height="1" fill="#7ebde6" /><rect x="4" y="3" width="1" height="1" fill="#80bff2" /><rect x="4" y="4" width="1" height="1" fill="#7ec2ff" /><rect x="4" y="5" width="1" height="1" fill="#7ec4ff" /><rect x="4" y="6" width="1" height="1" fill="#7cc1eb" /><rect x="4" y="7" width="1" height="1" fill="#82bfd1" /><rect x="4" y="8" width="1" height="1" fill="#9fcfc3" /><rect x="4" y="9" width="1" height="1" fill="#c2e9bd" /><rect x="5" y="0" width="1" height="1" fill="#77c1ca" /><rect x="5" y="1" width="1" height="1" fill="#7dbfd7" /><rect x="5" y="2" width="1" height="1" fill="#85bce5" /><rect x="5" y="3" width="1" height="1" fill="#81b5ee" /><rect x="5" y="4" width="1" height="1" fill="#7fbbfa" /><rect x="5" y="5" width="1" height="1" fill="#7ec0fa" /><rect x="5" y="6" width="1" height="1" fill="#75bedf" /><rect x="5" y="7" width="1" height="1" fill="#80c5cc" /><rect x="5" y="8" width="1" height="1" fill="#a0d7c0" /><rect x="5" y="9" width="1" height="1" fill="#bce8b7" /><rect x="6" y="0" width="1" height="1" fill="#87dac0" /><rect x="6" y="1" width="1" height="1" fill="#7dc3c3" /><rect x="6" y="2" width="1" height="1" fill="#86bbdb" /><rect x="6" y="3" width="1" height="1" fill="#7faee2" /><rect x="6" y="4" width="1" height="1" fill="#79b1ee" /><rect x="6" y="5" width="1" height="1" fill="#78b7ea" /><rect x="6" y="6" width="1" height="1" fill="#70bbd0" /><rect x="6" y="7" width="1" height="1" fill="#7cc8bc" /><rect x="6" y="8" width="1" height="1" fill="#9adcae" /><rect x="6" y="9" width="1" height="1" fill="#afe3a3" /><rect x="7" y="0" width="1" height="1" fill="#8de5b3" /><rect x="7" y="1" width="1" height="1" fill="#90dbc4" /><rect x="7" y="2" width="1" height="1" fill="#8ac9d0" /><rect x="7" y="3" width="1" height="1" fill="#84bdd8" /><rect x="7" y="4" width="1" height="1" fill="#7cbddd" /><rect x="7" y="5" width="1" height="1" fill="#79bfd8" /><rect x="7" y="6" width="1" height="1" fill="#77c6c3" /><rect x="7" y="7" width="1" height="1" fill="#82d3b3" /><rect x="7" y="8" width="1" height="1" fill="#96e2a4" /><rect x="7" y="9" width="1" height="1" fill="#a6e39e" /><rect x="8" y="0" width="1" height="1" fill="#87e3a2" /><rect x="8" y="1" width="1" height="1" fill="#95ecb9" /><rect x="8" y="2" width="1" height="1" fill="#8adebc" /><rect x="8" y="3" width="1" height="1" fill="#88dcc4" /><rect x="8" y="4" width="1" height="1" fill="#83d8c3" /><rect x="8" y="5" width="1" height="1" fill="#80d6bd" /><rect x="8" y="6" width="1" height="1" fill="#85d9b5" /><rect x="8" y="7" width="1" height="1" fill="#8bdfad" /><rect x="8" y="8" width="1" height="1" fill="#91e8a4" /><rect x="8" y="9" width="1" height="1" fill="#a0e8a8" /><rect x="9" y="0" width="1" height="1" fill="#87eba3" /><rect x="9" y="1" width="1" height="1" fill="#7ee1a0" /><rect x="9" y="2" width="1" height="1" fill="#83e8ac" /><rect x="9" y="3" width="1" height="1" fill="#85eeb5" /><rect x="9" y="4" width="1" height="1" fill="#83eab2" /><rect x="9" y="5" width="1" height="1" fill="#81e4ab" /><rect x="9" y="6" width="1" height="1" fill="#88e3a8" /><rect x="9" y="7" width="1" height="1" fill="#89e3a5" /><rect x="9" y="8" width="1" height="1" fill="#89e5a4" /><rect x="9" y="9" width="1" height="1" fill="#98e5ad" /></g></svg>