<svg width="800" height="1000" version="1.1" xmlns="http://www.w3.org/2000/svg" xmlns:xlink="http://www.w3.org/1999/xlink">
  <defs>
      <linearGradient id="Gradient2" x1="0" x2="1" y1="0" y2="1">
        <stop offset="0%" stop-color="#2d3c96"/>
        <stop offset="100%" stop-color="#d53392"/>
      </linearGradient>
  </defs>
  <rect x="10" y="10" width="780" height="980" fill="url(#Gradient2)" rx="50" ry="50" stroke="#ffd700" stroke-width="20"/>
  <text x="400" y="920" width="780" text-anchor="middle" style="font: bold 200px 'Helvetica Neue'; fill: #ffd700">05231</text>

  <g transform="translate(80 80) scale(64)">
<rect x="0" y="0" width="1" height="1" fill="#595958" /><rect x="1" y="0" width="1" height="1" fill="#545351" /><rect x="2" y="0" width="1" height="1" fill="#585653" /><rect x="3" y="0" width="1" height="1" fill="#1D3D51" /><rect x="4" y="0" width="1" height="1" fill="#BF9B59" /><rect x="5" y="0" width="1" height="1" fill="#BD9A58" /><rect x="6" y="0" width="1" height="1" fill="#113B51" /><rect x="7" y="0" width="1" height="1" fill="#5E5C58" /><rect x="8" y="0" width="1" height="1" fill="#474644" /><rect x="9" y="0" width="1" height="1" fill="#717270" /><rect x="0" y="1" width="1" height="1" fill="#000000" /><rect x="1" y="1" width="1" height="1" fill="#000000" /><rect x="2" y="1" width="1" height="1" fill="#000000" /><rect x="3" y="1" width="1" height="1" fill="#A37800" /><rect x="4" y="1" width="1" height="1" fill="#FDBF00" /><rect x="5" y="1" width="1" height="1" fill="#FCBF00" /><rect x="6" y="1" width="1" height="1" fill="#9F7500" /><rect x="7" y="1" width="1" height="1" fill="#000000" /><rect x="8" y="1" width="1" height="1" fill="#000000" /><rect x="9" y="1" width="1" height="1" fill="#474644" /><rect x="0" y="2" width="1" height="1" fill="#36322E" /><rect x="1" y="2" width="1" height="1" fill="#000017" /><rect x="2" y="2" width="1" height="1" fill="#B68D31" /><rect x="3" y="2" width="1" height="1" fill="#FFC93B" /><rect x="4" y="2" width="1" height="1" fill="#CD9E33" /><rect x="5" y="2" width="1" height="1" fill="#CE9F33" /><rect x="6" y="2" width="1" height="1" fill="#FFC83A" /><rect x="7" y="2" width="1" height="1" fill="#B58D3A" /><rect x="8" y="2" width="1" height="1" fill="#000000" /><rect x="9" y="2" width="1" height="1" fill="#5D5C58" /><rect x="0" y="3" width="1" height="1" fill="#00001B" /><rect x="1" y="3" width="1" height="1" fill="#000000" /><rect x="2" y="3" width="1" height="1" fill="#CC9C25" /><rect x="3" y="3" width="1" height="1" fill="#D6A326" /><rect x="4" y="3" width="1" height="1" fill="#000000" /><rect x="5" y="3" width="1" height="1" fill="#000000" /><rect x="6" y="3" width="1" height="1" fill="#D7A425" /><rect x="7" y="3" width="1" height="1" fill="#CB9D32" /><rect x="8" y="3" width="1" height="1" fill="#000000" /><rect x="9" y="3" width="1" height="1" fill="#464D51" /><rect x="0" y="4" width="1" height="1" fill="#BE9231" /><rect x="1" y="4" width="1" height="1" fill="#D5A224" /><rect x="2" y="4" width="1" height="1" fill="#191408" /><rect x="3" y="4" width="1" height="1" fill="#000000" /><rect x="4" y="4" width="1" height="1" fill="#CE9E26" /><rect x="5" y="4" width="1" height="1" fill="#CA9B26" /><rect x="6" y="4" width="1" height="1" fill="#000000" /><rect x="7" y="4" width="1" height="1" fill="#2F2921" /><rect x="8" y="4" width="1" height="1" fill="#D39F00" /><rect x="9" y="4" width="1" height="1" fill="#C6A059" /><rect x="0" y="5" width="1" height="1" fill="#C09431" /><rect x="1" y="5" width="1" height="1" fill="#D8A524" /><rect x="2" y="5" width="1" height="1" fill="#000407" /><rect x="3" y="5" width="1" height="1" fill="#000000" /><rect x="4" y="5" width="1" height="1" fill="#D1A027" /><rect x="5" y="5" width="1" height="1" fill="#CE9D27" /><rect x="6" y="5" width="1" height="1" fill="#000000" /><rect x="7" y="5" width="1" height="1" fill="#252420" /><rect x="8" y="5" width="1" height="1" fill="#D7A200" /><rect x="9" y="5" width="1" height="1" fill="#C8A25A" /><rect x="0" y="6" width="1" height="1" fill="#00051E" /><rect x="1" y="6" width="1" height="1" fill="#000000" /><rect x="2" y="6" width="1" height="1" fill="#CB9B27" /><rect x="3" y="6" width="1" height="1" fill="#D3A227" /><rect x="4" y="6" width="1" height="1" fill="#000000" /><rect x="5" y="6" width="1" height="1" fill="#000000" /><rect x="6" y="6" width="1" height="1" fill="#D5A326" /><rect x="7" y="6" width="1" height="1" fill="#CA9C32" /><rect x="8" y="6" width="1" height="1" fill="#000000" /><rect x="9" y="6" width="1" height="1" fill="#4A4F52" /><rect x="0" y="7" width="1" height="1" fill="#282421" /><rect x="1" y="7" width="1" height="1" fill="#000000" /><rect x="2" y="7" width="1" height="1" fill="#B78C25" /><rect x="3" y="7" width="1" height="1" fill="#FFC733" /><rect x="4" y="7" width="1" height="1" fill="#C89926" /><rect x="5" y="7" width="1" height="1" fill="#CA9A27" /><rect x="6" y="7" width="1" height="1" fill="#FFC731" /><rect x="7" y="7" width="1" height="1" fill="#B68D31" /><rect x="8" y="7" width="1" height="1" fill="#000000" /><rect x="9" y="7" width="1" height="1" fill="#575653" /><rect x="0" y="8" width="1" height="1" fill="#201D1A" /><rect x="1" y="8" width="1" height="1" fill="#000000" /><rect x="2" y="8" width="1" height="1" fill="#000000" /><rect x="3" y="8" width="1" height="1" fill="#AC831A" /><rect x="4" y="8" width="1" height="1" fill="#FFC42E" /><rect x="5" y="8" width="1" height="1" fill="#FFC32E" /><rect x="6" y="8" width="1" height="1" fill="#A98018" /><rect x="7" y="8" width="1" height="1" fill="#000011" /><rect x="8" y="8" width="1" height="1" fill="#000000" /><rect x="9" y="8" width="1" height="1" fill="#535351" /><rect x="0" y="9" width="1" height="1" fill="#2D2E2D" /><rect x="1" y="9" width="1" height="1" fill="#211D17" /><rect x="2" y="9" width="1" height="1" fill="#292520" /><rect x="3" y="9" width="1" height="1" fill="#000018" /><rect x="4" y="9" width="1" height="1" fill="#B68D30" /><rect x="5" y="9" width="1" height="1" fill="#B48B2F" /><rect x="6" y="9" width="1" height="1" fill="#000015" /><rect x="7" y="9" width="1" height="1" fill="#38332D" /><rect x="8" y="9" width="1" height="1" fill="#000000" /><rect x="9" y="9" width="1" height="1" fill="#585958" />
  </g>
</svg>