<svg width="800" height="1000" xmlns="http://www.w3.org/2000/svg"><defs><linearGradient id="g" x1="0" x2="1" y1="0" y2="1"><stop offset="0%" stop-color="#2d3c96"/><stop offset="100%" stop-color="#d53392"/></linearGradient></defs><rect x="10" y="10" width="780" height="980" fill="url(#g)" rx="50" ry="50" stroke="gold" stroke-width="20"/><text x="400" y="920" width="780" text-anchor="middle" style="font:bold 200px 'Helvetica Neue';fill:gold">05230</text><g transform="translate(80 80) scale(64)"><rect x="0" y="0" width="1" height="1" fill="#ebabcd" /><rect x="0" y="1" width="1" height="1" fill="#e9accd" /><rect x="0" y="2" width="1" height="1" fill="#e6abcb" /><rect x="0" y="3" width="1" height="1" fill="#e1a8c8" /><rect x="0" y="4" width="1" height="1" fill="#ecb5d4" /><rect x="0" y="5" width="1" height="1" fill="#b67f9e" /><rect x="0" y="6" width="1" height="1" fill="#22000b" /><rect x="0" y="7" width="1" height="1" fill="#65304e" /><rect x="0" y="8" width="1" height="1" fill="#deacc9" /><rect x="0" y="9" width="1" height="1" fill="#ebb4d1" /><rect x="1" y="0" width="1" height="1" fill="#f0abc8" /><rect x="1" y="1" width="1" height="1" fill="#eeacc8" /><rect x="1" y="2" width="1" height="1" fill="#efafca" /><rect x="1" y="3" width="1" height="1" fill="#ebafc9" /><rect x="1" y="4" width="1" height="1" fill="#ecb2cb" /><rect x="1" y="5" width="1" height="1" fill="#ab718a" /><rect x="1" y="6" width="1" height="1" fill="#2a000b" /><rect x="1" y="7" width="1" height="1" fill="#8b556d" /><rect x="1" y="8" width="1" height="1" fill="#e5afc7" /><rect x="1" y="9" width="1" height="1" fill="#e3a9c2" /><rect x="2" y="0" width="1" height="1" fill="#f4acc4" /><rect x="2" y="1" width="1" height="1" fill="#f2acc4" /><rect x="2" y="2" width="1" height="1" fill="#eca8bf" /><rect x="2" y="3" width="1" height="1" fill="#f3b2c8" /><rect x="2" y="4" width="1" height="1" fill="#f1b2c7" /><rect x="2" y="5" width="1" height="1" fill="#9d5f74" /><rect x="2" y="6" width="1" height="1" fill="#270000" /><rect x="2" y="7" width="1" height="1" fill="#a1687b" /><rect x="2" y="8" width="1" height="1" fill="#ebb2c5" /><rect x="2" y="9" width="1" height="1" fill="#f1b3ca" /><rect x="3" y="0" width="1" height="1" fill="#f8aac0" /><rect x="3" y="1" width="1" height="1" fill="#f5acc0" /><rect x="3" y="2" width="1" height="1" fill="#f1adc2" /><rect x="3" y="3" width="1" height="1" fill="#ecadc0" /><rect x="3" y="4" width="1" height="1" fill="#e5aabc" /><rect x="3" y="5" width="1" height="1" fill="#8e5566" /><rect x="3" y="6" width="1" height="1" fill="#260000" /><rect x="3" y="7" width="1" height="1" fill="#b77d8c" /><rect x="3" y="8" width="1" height="1" fill="#f7b8c9" /><rect x="3" y="9" width="1" height="1" fill="#efabc0" /><rect x="4" y="0" width="1" height="1" fill="#fba7be" /><rect x="4" y="1" width="1" height="1" fill="#fcafc3" /><rect x="4" y="2" width="1" height="1" fill="#f3b0c2" /><rect x="4" y="3" width="1" height="1" fill="#f5bccd" /><rect x="4" y="4" width="1" height="1" fill="#cb9daa" /><rect x="4" y="5" width="1" height="1" fill="#60353f" /><rect x="4" y="6" width="1" height="1" fill="#220000" /><rect x="4" y="7" width="1" height="1" fill="#c48894" /><rect x="4" y="8" width="1" height="1" fill="#ffb7c6" /><rect x="4" y="9" width="1" height="1" fill="#f3a9ba" /><rect x="5" y="0" width="1" height="1" fill="#ffabbc" /><rect x="5" y="1" width="1" height="1" fill="#feadc0" /><rect x="5" y="2" width="1" height="1" fill="#f3b0c1" /><rect x="5" y="3" width="1" height="1" fill="#f1bdca" /><rect x="5" y="4" width="1" height="1" fill="#cfa7b0" /><rect x="5" y="5" width="1" height="1" fill="#1a0000" /><rect x="5" y="6" width="1" height="1" fill="#1d0000" /><rect x="5" y="7" width="1" height="1" fill="#eab2bb" /><rect x="5" y="8" width="1" height="1" fill="#f9afbc" /><rect x="5" y="9" width="1" height="1" fill="#f7adbc" /><rect x="6" y="0" width="1" height="1" fill="#ffb0bd" /><rect x="6" y="1" width="1" height="1" fill="#fbabb8" /><rect x="6" y="2" width="1" height="1" fill="#f1afbb" /><rect x="6" y="3" width="1" height="1" fill="#f1bec7" /><rect x="6" y="4" width="1" height="1" fill="#bd989f" /><rect x="6" y="5" width="1" height="1" fill="#1c0001" /><rect x="6" y="6" width="1" height="1" fill="#573035" /><rect x="6" y="7" width="1" height="1" fill="#eab7be" /><rect x="6" y="8" width="1" height="1" fill="#eaa6b1" /><rect x="6" y="9" width="1" height="1" fill="#febcc8" /><rect x="7" y="0" width="1" height="1" fill="#ffb1b7" /><rect x="7" y="1" width="1" height="1" fill="#ffb6bc" /><rect x="7" y="2" width="1" height="1" fill="#f3b2b8" /><rect x="7" y="3" width="1" height="1" fill="#f7c4c9" /><rect x="7" y="4" width="1" height="1" fill="#a68284" /><rect x="7" y="5" width="1" height="1" fill="#150000" /><rect x="7" y="6" width="1" height="1" fill="#825e60" /><rect x="7" y="7" width="1" height="1" fill="#ecbfc4" /><rect x="7" y="8" width="1" height="1" fill="#f5b8c0" /><rect x="7" y="9" width="1" height="1" fill="#f7bbc3" /><rect x="8" y="0" width="1" height="1" fill="#ffbbba" /><rect x="8" y="1" width="1" height="1" fill="#ffb3b5" /><rect x="8" y="2" width="1" height="1" fill="#fdbdbe" /><rect x="8" y="3" width="1" height="1" fill="#f1bfbe" /><rect x="8" y="4" width="1" height="1" fill="#a88583" /><rect x="8" y="5" width="1" height="1" fill="#150000" /><rect x="8" y="6" width="1" height="1" fill="#947573" /><rect x="8" y="7" width="1" height="1" fill="#f2caca" /><rect x="8" y="8" width="1" height="1" fill="#ecb8bc" /><rect x="8" y="9" width="1" height="1" fill="#d59ea3" /><rect x="9" y="0" width="1" height="1" fill="#ffbdb7" /><rect x="9" y="1" width="1" height="1" fill="#fbb2ac" /><rect x="9" y="2" width="1" height="1" fill="#febfba" /><rect x="9" y="3" width="1" height="1" fill="#f0beb7" /><rect x="9" y="4" width="1" height="1" fill="#87655c" /><rect x="9" y="5" width="1" height="1" fill="#1a0000" /><rect x="9" y="6" width="1" height="1" fill="#a1847c" /><rect x="9" y="7" width="1" height="1" fill="#e8c5bf" /><rect x="9" y="8" width="1" height="1" fill="#f8c8c4" /><rect x="9" y="9" width="1" height="1" fill="#a2716d" /></g></svg>