<svg width="800" height="1000" xmlns="http://www.w3.org/2000/svg"><defs><linearGradient id="g" x1="0" x2="1" y1="0" y2="1"><stop offset="0%" stop-color="#2d3c96"/><stop offset="100%" stop-color="#d53392"/></linearGradient></defs><rect x="10" y="10" width="780" height="980" fill="url(#g)" rx="50" ry="50" stroke="gold" stroke-width="20"/><text x="400" y="920" width="780" text-anchor="middle" style="font:bold 200px 'Helvetica Neue';fill:gold">05234</text><g transform="translate(80 80) scale(64)"><rect x="0" y="0" width="1" height="1" fill="#9ee2bd" /><rect x="0" y="1" width="1" height="1" fill="#87e4b5" /><rect x="0" y="2" width="1" height="1" fill="#79e6af" /><rect x="0" y="3" width="1" height="1" fill="#75e5ab" /><rect x="0" y="4" width="1" height="1" fill="#7be0a8" /><rect x="0" y="5" width="1" height="1" fill="#80e5ab" /><rect x="0" y="6" width="1" height="1" fill="#7eefaf" /><rect x="0" y="7" width="1" height="1" fill="#77eca8" /><rect x="0" y="8" width="1" height="1" fill="#75e8a5" /><rect x="0" y="9" width="1" height="1" fill="#80edaa" /><rect x="1" y="0" width="1" height="1" fill="#488b6a" /><rect x="1" y="1" width="1" height="1" fill="#82dab0" /><rect x="1" y="2" width="1" height="1" fill="#89efbf" /><rect x="1" y="3" width="1" height="1" fill="#80e8b5" /><rect x="1" y="4" width="1" height="1" fill="#84e4b4" /><rect x="1" y="5" width="1" height="1" fill="#84e8b6" /><rect x="1" y="6" width="1" height="1" fill="#79eab4" /><rect x="1" y="7" width="1" height="1" fill="#77edb3" /><rect x="1" y="8" width="1" height="1" fill="#7becb4" /><rect x="1" y="9" width="1" height="1" fill="#7be6ae" /><rect x="2" y="0" width="1" height="1" fill="#001500" /><rect x="2" y="1" width="1" height="1" fill="#458869" /><rect x="2" y="2" width="1" height="1" fill="#8cd7b6" /><rect x="2" y="3" width="1" height="1" fill="#89ddb9" /><rect x="2" y="4" width="1" height="1" fill="#8fe9c3" /><rect x="2" y="5" width="1" height="1" fill="#85eac0" /><rect x="2" y="6" width="1" height="1" fill="#71e5b6" /><rect x="2" y="7" width="1" height="1" fill="#77ecbf" /><rect x="2" y="8" width="1" height="1" fill="#83eec4" /><rect x="2" y="9" width="1" height="1" fill="#79e2b9" /><rect x="3" y="0" width="1" height="1" fill="#001e0c" /><rect x="3" y="1" width="1" height="1" fill="#001100" /><rect x="3" y="2" width="1" height="1" fill="#68a28c" /><rect x="3" y="3" width="1" height="1" fill="#95d9c0" /><rect x="3" y="4" width="1" height="1" fill="#8be4c6" /><rect x="3" y="5" width="1" height="1" fill="#73dbba" /><rect x="3" y="6" width="1" height="1" fill="#7cf0cb" /><rect x="3" y="7" width="1" height="1" fill="#78ecc9" /><rect x="3" y="8" width="1" height="1" fill="#72d9bc" /><rect x="3" y="9" width="1" height="1" fill="#85eccf" /><rect x="4" y="0" width="1" height="1" fill="#679a91" /><rect x="4" y="1" width="1" height="1" fill="#000d05" /><rect x="4" y="2" width="1" height="1" fill="#00241c" /><rect x="4" y="3" width="1" height="1" fill="#88c5b6" /><rect x="4" y="4" width="1" height="1" fill="#92eed7" /><rect x="4" y="5" width="1" height="1" fill="#6bd9be" /><rect x="4" y="6" width="1" height="1" fill="#79ebd1" /><rect x="4" y="7" width="1" height="1" fill="#7dedd5" /><rect x="4" y="8" width="1" height="1" fill="#7de3ce" /><rect x="4" y="9" width="1" height="1" fill="#7adbc8" /><rect x="5" y="0" width="1" height="1" fill="#8ac1be" /><rect x="5" y="1" width="1" height="1" fill="#3d6565" /><rect x="5" y="2" width="1" height="1" fill="#001918" /><rect x="5" y="3" width="1" height="1" fill="#6fada8" /><rect x="5" y="4" width="1" height="1" fill="#8cecde" /><rect x="5" y="5" width="1" height="1" fill="#79ead6" /><rect x="5" y="6" width="1" height="1" fill="#79ead8" /><rect x="5" y="7" width="1" height="1" fill="#71ddce" /><rect x="5" y="8" width="1" height="1" fill="#7ce0d4" /><rect x="5" y="9" width="1" height="1" fill="#8aeadf" /><rect x="6" y="0" width="1" height="1" fill="#99dade" /><rect x="6" y="1" width="1" height="1" fill="#84bbc2" /><rect x="6" y="2" width="1" height="1" fill="#7db8be" /><rect x="6" y="3" width="1" height="1" fill="#96e2e2" /><rect x="6" y="4" width="1" height="1" fill="#76e0d6" /><rect x="6" y="5" width="1" height="1" fill="#68dccf" /><rect x="6" y="6" width="1" height="1" fill="#7be6de" /><rect x="6" y="7" width="1" height="1" fill="#7de5de" /><rect x="6" y="8" width="1" height="1" fill="#80e5df" /><rect x="6" y="9" width="1" height="1" fill="#7bded9" /><rect x="7" y="0" width="1" height="1" fill="#8ed8e1" /><rect x="7" y="1" width="1" height="1" fill="#8ed2dd" /><rect x="7" y="2" width="1" height="1" fill="#88d1da" /><rect x="7" y="3" width="1" height="1" fill="#88dde2" /><rect x="7" y="4" width="1" height="1" fill="#75dfdd" /><rect x="7" y="5" width="1" height="1" fill="#72e3df" /><rect x="7" y="6" width="1" height="1" fill="#75dcdb" /><rect x="7" y="7" width="1" height="1" fill="#72d4d5" /><rect x="7" y="8" width="1" height="1" fill="#7cdbdd" /><rect x="7" y="9" width="1" height="1" fill="#79d9d7" /><rect x="8" y="0" width="1" height="1" fill="#83d5e3" /><rect x="8" y="1" width="1" height="1" fill="#80d2e0" /><rect x="8" y="2" width="1" height="1" fill="#84dae7" /><rect x="8" y="3" width="1" height="1" fill="#7bd7e2" /><rect x="8" y="4" width="1" height="1" fill="#74dbe0" /><rect x="8" y="5" width="1" height="1" fill="#78dfe4" /><rect x="8" y="6" width="1" height="1" fill="#77d8de" /><rect x="8" y="7" width="1" height="1" fill="#7bd5dd" /><rect x="8" y="8" width="1" height="1" fill="#85dee4" /><rect x="8" y="9" width="1" height="1" fill="#82dadc" /><rect x="9" y="0" width="1" height="1" fill="#7ed3e7" /><rect x="9" y="1" width="1" height="1" fill="#7dd4e7" /><rect x="9" y="2" width="1" height="1" fill="#77d0e2" /><rect x="9" y="3" width="1" height="1" fill="#71cedf" /><rect x="9" y="4" width="1" height="1" fill="#72d2e0" /><rect x="9" y="5" width="1" height="1" fill="#79d7e3" /><rect x="9" y="6" width="1" height="1" fill="#79d5e0" /><rect x="9" y="7" width="1" height="1" fill="#7ed5df" /><rect x="9" y="8" width="1" height="1" fill="#84d2de" /><rect x="9" y="9" width="1" height="1" fill="#83ced4" /></g></svg>