<svg width="800" height="1000" xmlns="http://www.w3.org/2000/svg"><defs><linearGradient id="g" x1="0" x2="1" y1="0" y2="1"><stop offset="0%" stop-color="#2d3c96"/><stop offset="100%" stop-color="#d53392"/></linearGradient></defs><rect x="10" y="10" width="780" height="980" fill="url(#g)" rx="50" ry="50" stroke="gold" stroke-width="20"/><text x="400" y="920" width="780" text-anchor="middle" style="font:bold 200px 'Helvetica Neue';fill:gold">05232</text><g transform="translate(80 80) scale(64)"><rect x="0" y="0" width="1" height="1" fill="#fdeb97" /><rect x="0" y="1" width="1" height="1" fill="#fde993" /><rect x="0" y="2" width="1" height="1" fill="#feea93" /><rect x="0" y="3" width="1" height="1" fill="#feea93" /><rect x="0" y="4" width="1" height="1" fill="#fcea94" /><rect x="0" y="5" width="1" height="1" fill="#fbeb94" /><rect x="0" y="6" width="1" height="1" fill="#fbeb96" /><rect x="0" y="7" width="1" height="1" fill="#fcea96" /><rect x="0" y="8" width="1" height="1" fill="#fcea96" /><rect x="0" y="9" width="1" height="1" fill="#ffe898" /><rect x="1" y="0" width="1" height="1" fill="#f6eb91" /><rect x="1" y="1" width="1" height="1" fill="#f7ec92" /><rect x="1" y="2" width="1" height="1" fill="#f6eb91" /><rect x="1" y="3" width="1" height="1" fill="#f6eb91" /><rect x="1" y="4" width="1" height="1" fill="#f6eb91" /><rect x="1" y="5" width="1" height="1" fill="#f6eb91" /><rect x="1" y="6" width="1" height="1" fill="#f8ea91" /><rect x="1" y="7" width="1" height="1" fill="#f8ea92" /><rect x="1" y="8" width="1" height="1" fill="#f8ea92" /><rect x="1" y="9" width="1" height="1" fill="#f9e992" /><rect x="2" y="0" width="1" height="1" fill="#f4ed95" /><rect x="2" y="1" width="1" height="1" fill="#f3ec94" /><rect x="2" y="2" width="1" height="1" fill="#f1ea90" /><rect x="2" y="3" width="1" height="1" fill="#f1ea90" /><rect x="2" y="4" width="1" height="1" fill="#f1ea90" /><rect x="2" y="5" width="1" height="1" fill="#f1ea92" /><rect x="2" y="6" width="1" height="1" fill="#f1ea92" /><rect x="2" y="7" width="1" height="1" fill="#f1ea92" /><rect x="2" y="8" width="1" height="1" fill="#f1ea92" /><rect x="2" y="9" width="1" height="1" fill="#f3e994" /><rect x="3" y="0" width="1" height="1" fill="#edeb96" /><rect x="3" y="1" width="1" height="1" fill="#e8e691" /><rect x="3" y="2" width="1" height="1" fill="#ebe992" /><rect x="3" y="3" width="1" height="1" fill="#ebe992" /><rect x="3" y="4" width="1" height="1" fill="#ebe992" /><rect x="3" y="5" width="1" height="1" fill="#ebe992" /><rect x="3" y="6" width="1" height="1" fill="#ebe994" /><rect x="3" y="7" width="1" height="1" fill="#ebe994" /><rect x="3" y="8" width="1" height="1" fill="#ebe994" /><rect x="3" y="9" width="1" height="1" fill="#ede894" /><rect x="4" y="0" width="1" height="1" fill="#e4e995" /><rect x="4" y="1" width="1" height="1" fill="#e4ea94" /><rect x="4" y="2" width="1" height="1" fill="#e5eb95" /><rect x="4" y="3" width="1" height="1" fill="#e5eb95" /><rect x="4" y="4" width="1" height="1" fill="#e5eb95" /><rect x="4" y="5" width="1" height="1" fill="#e5eb95" /><rect x="4" y="6" width="1" height="1" fill="#e5eb95" /><rect x="4" y="7" width="1" height="1" fill="#e5eb95" /><rect x="4" y="8" width="1" height="1" fill="#e5eb95" /><rect x="4" y="9" width="1" height="1" fill="#e5eb95" /><rect x="5" y="0" width="1" height="1" fill="#dbe994" /><rect x="5" y="1" width="1" height="1" fill="#dcea93" /><rect x="5" y="2" width="1" height="1" fill="#dcea93" /><rect x="5" y="3" width="1" height="1" fill="#dcea93" /><rect x="5" y="4" width="1" height="1" fill="#dcea93" /><rect x="5" y="5" width="1" height="1" fill="#dbeb93" /><rect x="5" y="6" width="1" height="1" fill="#dbeb93" /><rect x="5" y="7" width="1" height="1" fill="#dbeb93" /><rect x="5" y="8" width="1" height="1" fill="#dbeb93" /><rect x="5" y="9" width="1" height="1" fill="#dbeb93" /><rect x="6" y="0" width="1" height="1" fill="#d0e892" /><rect x="6" y="1" width="1" height="1" fill="#cfe791" /><rect x="6" y="2" width="1" height="1" fill="#d2ea94" /><rect x="6" y="3" width="1" height="1" fill="#d2ea92" /><rect x="6" y="4" width="1" height="1" fill="#d2ea92" /><rect x="6" y="5" width="1" height="1" fill="#d2ea92" /><rect x="6" y="6" width="1" height="1" fill="#d2ea92" /><rect x="6" y="7" width="1" height="1" fill="#d1eb92" /><rect x="6" y="8" width="1" height="1" fill="#d1eb92" /><rect x="6" y="9" width="1" height="1" fill="#d1eb90" /><rect x="7" y="0" width="1" height="1" fill="#cbee94" /><rect x="7" y="1" width="1" height="1" fill="#ccef95" /><rect x="7" y="2" width="1" height="1" fill="#c9ec92" /><rect x="7" y="3" width="1" height="1" fill="#c9ec92" /><rect x="7" y="4" width="1" height="1" fill="#c9ec90" /><rect x="7" y="5" width="1" height="1" fill="#c9ec90" /><rect x="7" y="6" width="1" height="1" fill="#c8ed90" /><rect x="7" y="7" width="1" height="1" fill="#c8ed90" /><rect x="7" y="8" width="1" height="1" fill="#c6ed90" /><rect x="7" y="9" width="1" height="1" fill="#c8ed8e" /><rect x="8" y="0" width="1" height="1" fill="#c0ed92" /><rect x="8" y="1" width="1" height="1" fill="#c0eb91" /><rect x="8" y="2" width="1" height="1" fill="#c5f096" /><rect x="8" y="3" width="1" height="1" fill="#bdea8f" /><rect x="8" y="4" width="1" height="1" fill="#c7f497" /><rect x="8" y="5" width="1" height="1" fill="#c0ed90" /><rect x="8" y="6" width="1" height="1" fill="#b8e789" /><rect x="8" y="7" width="1" height="1" fill="#c5f496" /><rect x="8" y="8" width="1" height="1" fill="#c3f596" /><rect x="8" y="9" width="1" height="1" fill="#bcee8b" /><rect x="9" y="0" width="1" height="1" fill="#baef93" /><rect x="9" y="1" width="1" height="1" fill="#bef397" /><rect x="9" y="2" width="1" height="1" fill="#b5ea8e" /><rect x="9" y="3" width="1" height="1" fill="#b0e688" /><rect x="9" y="4" width="1" height="1" fill="#b4ea8c" /><rect x="9" y="5" width="1" height="1" fill="#b8ef91" /><rect x="9" y="6" width="1" height="1" fill="#b8f192" /><rect x="9" y="7" width="1" height="1" fill="#b6ef90" /><rect x="9" y="8" width="1" height="1" fill="#b1ed8d" /><rect x="9" y="9" width="1" height="1" fill="#b3ef8b" /></g></svg>