<svg width="800" height="1000" xmlns="http://www.w3.org/2000/svg"><defs><linearGradient id="g" x1="0" x2="1" y1="0" y2="1"><stop offset="0%" stop-color="#2d3c96"/><stop offset="100%" stop-color="#d53392"/></linearGradient></defs><rect x="10" y="10" width="780" height="980" fill="url(#g)" rx="50" ry="50" stroke="gold" stroke-width="20"/><text x="400" y="920" width="780" text-anchor="middle" style="font:bold 200px 'Helvetica Neue';fill:gold">05233</text><g transform="translate(80 80) scale(64)"><rect x="0" y="0" width="1" height="1" fill="#aeeb8e" /><rect x="0" y="1" width="1" height="1" fill="#aee98d" /><rect x="0" y="2" width="1" height="1" fill="#ace78b" /><rect x="0" y="3" width="1" height="1" fill="#c2ffa2" /><rect x="0" y="4" width="1" height="1" fill="#b4f194" /><rect x="0" y="5" width="1" height="1" fill="#aaea8a" /><rect x="0" y="6" width="1" height="1" fill="#b2f493" /><rect x="0" y="7" width="1" height="1" fill="#a9eb8a" /><rect x="0" y="8" width="1" height="1" fill="#a3e685" /><rect x="0" y="9" width="1" height="1" fill="#aff38e" /><rect x="1" y="0" width="1" height="1" fill="#aff197" /><rect x="1" y="1" width="1" height="1" fill="#adef95" /><rect x="1" y="2" width="1" height="1" fill="#aef096" /><rect x="1" y="3" width="1" height="1" fill="#9ee086" /><rect x="1" y="4" width="1" height="1" fill="#9adf84" /><rect x="1" y="5" width="1" height="1" fill="#abf294" /><rect x="1" y="6" width="1" height="1" fill="#a7ee90" /><rect x="1" y="7" width="1" height="1" fill="#a1eb8c" /><rect x="1" y="8" width="1" height="1" fill="#abf795" /><rect x="1" y="9" width="1" height="1" fill="#a1ed89" /><rect x="2" y="0" width="1" height="1" fill="#a3eb95" /><rect x="2" y="1" width="1" height="1" fill="#a2e794" /><rect x="2" y="2" width="1" height="1" fill="#9be08d" /><rect x="2" y="3" width="1" height="1" fill="#b1f9a3" /><rect x="2" y="4" width="1" height="1" fill="#adf7a0" /><rect x="2" y="5" width="1" height="1" fill="#9feb91" /><rect x="2" y="6" width="1" height="1" fill="#9dec91" /><rect x="2" y="7" width="1" height="1" fill="#a1f296" /><rect x="2" y="8" width="1" height="1" fill="#a2f396" /><rect x="2" y="9" width="1" height="1" fill="#98ec8c" /><rect x="3" y="0" width="1" height="1" fill="#9ee997" /><rect x="3" y="1" width="1" height="1" fill="#9ce795" /><rect x="3" y="2" width="1" height="1" fill="#9ee997" /><rect x="3" y="3" width="1" height="1" fill="#9ae593" /><rect x="3" y="4" width="1" height="1" fill="#9eec98" /><rect x="3" y="5" width="1" height="1" fill="#99e994" /><rect x="3" y="6" width="1" height="1" fill="#97ea92" /><rect x="3" y="7" width="1" height="1" fill="#9aee96" /><rect x="3" y="8" width="1" height="1" fill="#94ea8f" /><rect x="3" y="9" width="1" height="1" fill="#9af095" /><rect x="4" y="0" width="1" height="1" fill="#a5f4a5" /><rect x="4" y="1" width="1" height="1" fill="#9dea9c" /><rect x="4" y="2" width="1" height="1" fill="#74c173" /><rect x="4" y="3" width="1" height="1" fill="#004e00" /><rect x="4" y="4" width="1" height="1" fill="#449546" /><rect x="4" y="5" width="1" height="1" fill="#a6f9a7" /><rect x="4" y="6" width="1" height="1" fill="#94e994" /><rect x="4" y="7" width="1" height="1" fill="#8ee690" /><rect x="4" y="8" width="1" height="1" fill="#98f29a" /><rect x="4" y="9" width="1" height="1" fill="#8feb94" /><rect x="5" y="0" width="1" height="1" fill="#9bdd9d" /><rect x="5" y="1" width="1" height="1" fill="#78b677" /><rect x="5" y="2" width="1" height="1" fill="#002d00" /><rect x="5" y="3" width="1" height="1" fill="#001f00" /><rect x="5" y="4" width="1" height="1" fill="#43994e" /><rect x="5" y="5" width="1" height="1" fill="#8fec9c" /><rect x="5" y="6" width="1" height="1" fill="#8ceb97" /><rect x="5" y="7" width="1" height="1" fill="#8fef98" /><rect x="5" y="8" width="1" height="1" fill="#85e38b" /><rect x="5" y="9" width="1" height="1" fill="#8bed96" /><rect x="6" y="0" width="1" height="1" fill="#78a177" /><rect x="6" y="1" width="1" height="1" fill="#001100" /><rect x="6" y="2" width="1" height="1" fill="#001000" /><rect x="6" y="3" width="1" height="1" fill="#3c7741" /><rect x="6" y="4" width="1" height="1" fill="#7edb95" /><rect x="6" y="5" width="1" height="1" fill="#81f19f" /><rect x="6" y="6" width="1" height="1" fill="#75e38c" /><rect x="6" y="7" width="1" height="1" fill="#81eb91" /><rect x="6" y="8" width="1" height="1" fill="#8ef397" /><rect x="6" y="9" width="1" height="1" fill="#7cea8b" /><rect x="7" y="0" width="1" height="1" fill="#000e00" /><rect x="7" y="1" width="1" height="1" fill="#000d00" /><rect x="7" y="2" width="1" height="1" fill="#476f4a" /><rect x="7" y="3" width="1" height="1" fill="#82c290" /><rect x="7" y="4" width="1" height="1" fill="#86e9a6" /><rect x="7" y="5" width="1" height="1" fill="#71e697" /><rect x="7" y="6" width="1" height="1" fill="#7ef49e" /><rect x="7" y="7" width="1" height="1" fill="#80f29a" /><rect x="7" y="8" width="1" height="1" fill="#7be58b" /><rect x="7" y="9" width="1" height="1" fill="#83f294" /><rect x="8" y="0" width="1" height="1" fill="#001900" /><rect x="8" y="1" width="1" height="1" fill="#539067" /><rect x="8" y="2" width="1" height="1" fill="#8bd4a6" /><rect x="8" y="3" width="1" height="1" fill="#95ecb5" /><rect x="8" y="4" width="1" height="1" fill="#8cf2b0" /><rect x="8" y="5" width="1" height="1" fill="#7beba1" /><rect x="8" y="6" width="1" height="1" fill="#7aed9f" /><rect x="8" y="7" width="1" height="1" fill="#7cf09d" /><rect x="8" y="8" width="1" height="1" fill="#7cec96" /><rect x="8" y="9" width="1" height="1" fill="#82ee98" /><rect x="9" y="0" width="1" height="1" fill="#72b08b" /><rect x="9" y="1" width="1" height="1" fill="#98eabc" /><rect x="9" y="2" width="1" height="1" fill="#8aebb5" /><rect x="9" y="3" width="1" height="1" fill="#7ce4a9" /><rect x="9" y="4" width="1" height="1" fill="#81e9aa" /><rect x="9" y="5" width="1" height="1" fill="#84eeac" /><rect x="9" y="6" width="1" height="1" fill="#75e79f" /><rect x="9" y="7" width="1" height="1" fill="#76ea9f" /><rect x="9" y="8" width="1" height="1" fill="#7ef1a3" /><rect x="9" y="9" width="1" height="1" fill="#7fea9c" /></g></svg>