<svg width="800" height="1000" xmlns="http://www.w3.org/2000/svg"><defs><linearGradient id="g" x1="0" x2="1" y1="0" y2="1"><stop offset="0%" stop-color="#2d3c96"/><stop offset="100%" stop-color="#d53392"/></linearGradient></defs><rect x="10" y="10" width="780" height="980" fill="url(#g)" rx="50" ry="50" stroke="gold" stroke-width="20"/><text x="400" y="920" width="780" text-anchor="middle" style="font:bold 200px 'Helvetica Neue';fill:gold">05250</text><g transform="translate(80 80) scale(64)"><rect x="0" y="0" width="1" height="1" fill="#810100" /><rect x="0" y="1" width="1" height="1" fill="#820000" /><rect x="0" y="2" width="1" height="1" fill="#810100" /><rect x="0" y="3" width="1" height="1" fill="#7d0100" /><rect x="0" y="4" width="1" height="1" fill="#7d0000" /><rect x="0" y="5" width="1" height="1" fill="#840000" /><rect x="0" y="6" width="1" height="1" fill="#7c0000" /><rect x="0" y="7" width="1" height="1" fill="#7d0000" /><rect x="0" y="8" width="1" height="1" fill="#870000" /><rect x="0" y="9" width="1" height="1" fill="#800000" /><rect x="1" y="0" width="1" height="1" fill="#830000" /><rect x="1" y="1" width="1" height="1" fill="#830000" /><rect x="1" y="2" width="1" height="1" fill="#830000" /><rect x="1" y="3" width="1" height="1" fill="#800000" /><rect x="1" y="4" width="1" height="1" fill="#810100" /><rect x="1" y="5" width="1" height="1" fill="#820000" /><rect x="1" y="6" width="1" height="1" fill="#7f0000" /><rect x="1" y="7" width="1" height="1" fill="#810100" /><rect x="1" y="8" width="1" height="1" fill="#860100" /><rect x="1" y="9" width="1" height="1" fill="#7d0100" /><rect x="2" y="0" width="1" height="1" fill="#840000" /><rect x="2" y="1" width="1" height="1" fill="#830000" /><rect x="2" y="2" width="1" height="1" fill="#810100" /><rect x="2" y="3" width="1" height="1" fill="#840000" /><rect x="2" y="4" width="1" height="1" fill="#7e0000" /><rect x="2" y="5" width="1" height="1" fill="#810100" /><rect x="2" y="6" width="1" height="1" fill="#840000" /><rect x="2" y="7" width="1" height="1" fill="#860100" /><rect x="2" y="8" width="1" height="1" fill="#840100" /><rect x="2" y="9" width="1" height="1" fill="#8b0000" /><rect x="3" y="0" width="1" height="1" fill="#810100" /><rect x="3" y="1" width="1" height="1" fill="#830000" /><rect x="3" y="2" width="1" height="1" fill="#870000" /><rect x="3" y="3" width="1" height="1" fill="#890000" /><rect x="3" y="4" width="1" height="1" fill="#800000" /><rect x="3" y="5" width="1" height="1" fill="#7e0000" /><rect x="3" y="6" width="1" height="1" fill="#7f0000" /><rect x="3" y="7" width="1" height="1" fill="#7e0000" /><rect x="3" y="8" width="1" height="1" fill="#7e0000" /><rect x="3" y="9" width="1" height="1" fill="#820000" /><rect x="4" y="0" width="1" height="1" fill="#800000" /><rect x="4" y="1" width="1" height="1" fill="#830000" /><rect x="4" y="2" width="1" height="1" fill="#820000" /><rect x="4" y="3" width="1" height="1" fill="#800102" /><rect x="4" y="4" width="1" height="1" fill="#840909" /><rect x="4" y="5" width="1" height="1" fill="#820202" /><rect x="4" y="6" width="1" height="1" fill="#800000" /><rect x="4" y="7" width="1" height="1" fill="#800000" /><rect x="4" y="8" width="1" height="1" fill="#800000" /><rect x="4" y="9" width="1" height="1" fill="#860100" /><rect x="5" y="0" width="1" height="1" fill="#810100" /><rect x="5" y="1" width="1" height="1" fill="#830000" /><rect x="5" y="2" width="1" height="1" fill="#820202" /><rect x="5" y="3" width="1" height="1" fill="#7d0000" /><rect x="5" y="4" width="1" height="1" fill="#7f0000" /><rect x="5" y="5" width="1" height="1" fill="#830000" /><rect x="5" y="6" width="1" height="1" fill="#810101" /><rect x="5" y="7" width="1" height="1" fill="#830000" /><rect x="5" y="8" width="1" height="1" fill="#7e0000" /><rect x="5" y="9" width="1" height="1" fill="#820001" /><rect x="6" y="0" width="1" height="1" fill="#840000" /><rect x="6" y="1" width="1" height="1" fill="#830202" /><rect x="6" y="2" width="1" height="1" fill="#810000" /><rect x="6" y="3" width="1" height="1" fill="#7c0b0c" /><rect x="6" y="4" width="1" height="1" fill="#84201f" /><rect x="6" y="5" width="1" height="1" fill="#820c0c" /><rect x="6" y="6" width="1" height="1" fill="#7e0000" /><rect x="6" y="7" width="1" height="1" fill="#870001" /><rect x="6" y="8" width="1" height="1" fill="#840000" /><rect x="6" y="9" width="1" height="1" fill="#790000" /><rect x="7" y="0" width="1" height="1" fill="#800000" /><rect x="7" y="1" width="1" height="1" fill="#7e0c0b" /><rect x="7" y="2" width="1" height="1" fill="#800000" /><rect x="7" y="3" width="1" height="1" fill="#872221" /><rect x="7" y="4" width="1" height="1" fill="#9b5b5b" /><rect x="7" y="5" width="1" height="1" fill="#893131" /><rect x="7" y="6" width="1" height="1" fill="#810000" /><rect x="7" y="7" width="1" height="1" fill="#800304" /><rect x="7" y="8" width="1" height="1" fill="#800100" /><rect x="7" y="9" width="1" height="1" fill="#820000" /><rect x="8" y="0" width="1" height="1" fill="#810000" /><rect x="8" y="1" width="1" height="1" fill="#840d0d" /><rect x="8" y="2" width="1" height="1" fill="#800000" /><rect x="8" y="3" width="1" height="1" fill="#8a2121" /><rect x="8" y="4" width="1" height="1" fill="#9d6363" /><rect x="8" y="5" width="1" height="1" fill="#8c3131" /><rect x="8" y="6" width="1" height="1" fill="#810000" /><rect x="8" y="7" width="1" height="1" fill="#7e0607" /><rect x="8" y="8" width="1" height="1" fill="#830000" /><rect x="8" y="9" width="1" height="1" fill="#800000" /><rect x="9" y="0" width="1" height="1" fill="#860000" /><rect x="9" y="1" width="1" height="1" fill="#83090a" /><rect x="9" y="2" width="1" height="1" fill="#7e0000" /><rect x="9" y="3" width="1" height="1" fill="#861515" /><rect x="9" y="4" width="1" height="1" fill="#9d5e5d" /><rect x="9" y="5" width="1" height="1" fill="#8a3334" /><rect x="9" y="6" width="1" height="1" fill="#7e0000" /><rect x="9" y="7" width="1" height="1" fill="#830304" /><rect x="9" y="8" width="1" height="1" fill="#870000" /><rect x="9" y="9" width="1" height="1" fill="#800000" /></g></svg>