<svg width="800" height="1000" version="1.1" xmlns="http://www.w3.org/2000/svg" xmlns:xlink="http://www.w3.org/1999/xlink">
  <defs>
      <linearGradient id="Gradient2" x1="0" x2="1" y1="0" y2="1">
        <stop offset="0%" stop-color="#2d3c96"/>
        <stop offset="100%" stop-color="#d53392"/>
      </linearGradient>
  </defs>
  <rect x="10" y="10" width="780" height="980" fill="url(#Gradient2)" rx="50" ry="50" stroke="#ffd700" stroke-width="20"/>
  <text x="400" y="920" width="780" text-anchor="middle" style="font: bold 200px 'Helvetica Neue'; fill: #ffd700">05252</text>

  <g transform="translate(80 80) scale(64)">
<rect x="0" y="0" width="1" height="1" fill="#A7676B" /><rect x="1" y="0" width="1" height="1" fill="#E49499" /><rect x="2" y="0" width="1" height="1" fill="#D78C8F" /><rect x="3" y="0" width="1" height="1" fill="#DA8D91" /><rect x="4" y="0" width="1" height="1" fill="#DA8E92" /><rect x="5" y="0" width="1" height="1" fill="#E09095" /><rect x="6" y="0" width="1" height="1" fill="#724648" /><rect x="7" y="0" width="1" height="1" fill="#000000" /><rect x="8" y="0" width="1" height="1" fill="#000000" /><rect x="9" y="0" width="1" height="1" fill="#613C3E" /><rect x="0" y="1" width="1" height="1" fill="#7A4A4C" /><rect x="1" y="1" width="1" height="1" fill="#E39598" /><rect x="2" y="1" width="1" height="1" fill="#E39599" /><rect x="3" y="1" width="1" height="1" fill="#DB8F93" /><rect x="4" y="1" width="1" height="1" fill="#E8999C" /><rect x="5" y="1" width="1" height="1" fill="#D08589" /><rect x="6" y="1" width="1" height="1" fill="#250F11" /><rect x="7" y="1" width="1" height="1" fill="#000000" /><rect x="8" y="1" width="1" height="1" fill="#000000" /><rect x="9" y="1" width="1" height="1" fill="#130707" /><rect x="0" y="2" width="1" height="1" fill="#000000" /><rect x="1" y="2" width="1" height="1" fill="#9D6467" /><rect x="2" y="2" width="1" height="1" fill="#D98D91" /><rect x="3" y="2" width="1" height="1" fill="#DE9295" /><rect x="4" y="2" width="1" height="1" fill="#CE8488" /><rect x="5" y="2" width="1" height="1" fill="#714648" /><rect x="6" y="2" width="1" height="1" fill="#000000" /><rect x="7" y="2" width="1" height="1" fill="#130808" /><rect x="8" y="2" width="1" height="1" fill="#190B0D" /><rect x="9" y="2" width="1" height="1" fill="#000000" /><rect x="0" y="3" width="1" height="1" fill="#000000" /><rect x="1" y="3" width="1" height="1" fill="#000000" /><rect x="2" y="3" width="1" height="1" fill="#5C393A" /><rect x="3" y="3" width="1" height="1" fill="#774B4D" /><rect x="4" y="3" width="1" height="1" fill="#3F2426" /><rect x="5" y="3" width="1" height="1" fill="#000000" /><rect x="6" y="3" width="1" height="1" fill="#0D0606" /><rect x="7" y="3" width="1" height="1" fill="#000000" /><rect x="8" y="3" width="1" height="1" fill="#040202" /><rect x="9" y="3" width="1" height="1" fill="#0E0707" /><rect x="0" y="4" width="1" height="1" fill="#470608" /><rect x="1" y="4" width="1" height="1" fill="#000000" /><rect x="2" y="4" width="1" height="1" fill="#000000" /><rect x="3" y="4" width="1" height="1" fill="#000000" /><rect x="4" y="4" width="1" height="1" fill="#000000" /><rect x="5" y="4" width="1" height="1" fill="#170A0C" /><rect x="6" y="4" width="1" height="1" fill="#040202" /><rect x="7" y="4" width="1" height="1" fill="#000000" /><rect x="8" y="4" width="1" height="1" fill="#000000" /><rect x="9" y="4" width="1" height="1" fill="#040202" /><rect x="0" y="5" width="1" height="1" fill="#570000" /><rect x="1" y="5" width="1" height="1" fill="#000607" /><rect x="2" y="5" width="1" height="1" fill="#281111" /><rect x="3" y="5" width="1" height="1" fill="#1E1011" /><rect x="4" y="5" width="1" height="1" fill="#1F0F11" /><rect x="5" y="5" width="1" height="1" fill="#040202" /><rect x="6" y="5" width="1" height="1" fill="#000000" /><rect x="7" y="5" width="1" height="1" fill="#000000" /><rect x="8" y="5" width="1" height="1" fill="#010000" /><rect x="9" y="5" width="1" height="1" fill="#000000" /><rect x="0" y="6" width="1" height="1" fill="#700100" /><rect x="1" y="6" width="1" height="1" fill="#000000" /><rect x="2" y="6" width="1" height="1" fill="#000000" /><rect x="3" y="6" width="1" height="1" fill="#050000" /><rect x="4" y="6" width="1" height="1" fill="#000000" /><rect x="5" y="6" width="1" height="1" fill="#000000" /><rect x="6" y="6" width="1" height="1" fill="#000000" /><rect x="7" y="6" width="1" height="1" fill="#000000" /><rect x="8" y="6" width="1" height="1" fill="#000000" /><rect x="9" y="6" width="1" height="1" fill="#000000" /><rect x="0" y="7" width="1" height="1" fill="#810100" /><rect x="1" y="7" width="1" height="1" fill="#420000" /><rect x="2" y="7" width="1" height="1" fill="#000000" /><rect x="3" y="7" width="1" height="1" fill="#150000" /><rect x="4" y="7" width="1" height="1" fill="#000000" /><rect x="5" y="7" width="1" height="1" fill="#000000" /><rect x="6" y="7" width="1" height="1" fill="#000000" /><rect x="7" y="7" width="1" height="1" fill="#000000" /><rect x="8" y="7" width="1" height="1" fill="#000000" /><rect x="9" y="7" width="1" height="1" fill="#000000" /><rect x="0" y="8" width="1" height="1" fill="#860100" /><rect x="1" y="8" width="1" height="1" fill="#6E0000" /><rect x="2" y="8" width="1" height="1" fill="#000000" /><rect x="3" y="8" width="1" height="1" fill="#000000" /><rect x="4" y="8" width="1" height="1" fill="#090000" /><rect x="5" y="8" width="1" height="1" fill="#000000" /><rect x="6" y="8" width="1" height="1" fill="#000000" /><rect x="7" y="8" width="1" height="1" fill="#000000" /><rect x="8" y="8" width="1" height="1" fill="#000000" /><rect x="9" y="8" width="1" height="1" fill="#000000" /><rect x="0" y="9" width="1" height="1" fill="#8C0000" /><rect x="1" y="9" width="1" height="1" fill="#830000" /><rect x="2" y="9" width="1" height="1" fill="#2F0000" /><rect x="3" y="9" width="1" height="1" fill="#000000" /><rect x="4" y="9" width="1" height="1" fill="#110000" /><rect x="5" y="9" width="1" height="1" fill="#000000" /><rect x="6" y="9" width="1" height="1" fill="#000000" /><rect x="7" y="9" width="1" height="1" fill="#000000" /><rect x="8" y="9" width="1" height="1" fill="#000000" /><rect x="9" y="9" width="1" height="1" fill="#000000" />
  </g>
</svg>