<svg width="800" height="1000" version="1.1" xmlns="http://www.w3.org/2000/svg" xmlns:xlink="http://www.w3.org/1999/xlink">
  <defs>
      <linearGradient id="Gradient2" x1="0" x2="1" y1="0" y2="1">
        <stop offset="0%" stop-color="#2d3c96"/>
        <stop offset="100%" stop-color="#d53392"/>
      </linearGradient>
  </defs>
  <rect x="10" y="10" width="780" height="980" fill="url(#Gradient2)" rx="50" ry="50" stroke="#ffd700" stroke-width="20"/>
  <text x="400" y="920" width="780" text-anchor="middle" style="font: bold 200px 'Helvetica Neue'; fill: #ffd700">05253</text>

  <g transform="translate(80 80) scale(64)">
<rect x="0" y="0" width="1" height="1" fill="#da8d90" />
,<rect x="0" y="1" width="1" height="1" fill="#c47f82" />
,<rect x="0" y="2" width="1" height="1" fill="#643f41" />
,<rect x="0" y="3" width="1" height="1" fill="#000000" />
,<rect x="0" y="4" width="1" height="1" fill="#160b0b" />
,<rect x="0" y="5" width="1" height="1" fill="#030101" />
,<rect x="0" y="6" width="1" height="1" fill="#000000" />
,<rect x="0" y="7" width="1" height="1" fill="#000000" />
,<rect x="0" y="8" width="1" height="1" fill="#000000" />
,<rect x="0" y="9" width="1" height="1" fill="#000000" />
,<rect x="1" y="0" width="1" height="1" fill="#dd8e93" />
,<rect x="1" y="1" width="1" height="1" fill="#ea979c" />
,<rect x="1" y="2" width="1" height="1" fill="#c88285" />
,<rect x="1" y="3" width="1" height="1" fill="#382022" />
,<rect x="1" y="4" width="1" height="1" fill="#000000" />
,<rect x="1" y="5" width="1" height="1" fill="#1e0f10" />
,<rect x="1" y="6" width="1" height="1" fill="#000000" />
,<rect x="1" y="7" width="1" height="1" fill="#000000" />
,<rect x="1" y="8" width="1" height="1" fill="#020000" />
,<rect x="1" y="9" width="1" height="1" fill="#0c0000" />
,<rect x="2" y="0" width="1" height="1" fill="#d98d90" />
,<rect x="2" y="1" width="1" height="1" fill="#db8e92" />
,<rect x="2" y="2" width="1" height="1" fill="#de9195" />
,<rect x="2" y="3" width="1" height="1" fill="#784c4e" />
,<rect x="2" y="4" width="1" height="1" fill="#000000" />
,<rect x="2" y="5" width="1" height="1" fill="#1d0f10" />
,<rect x="2" y="6" width="1" height="1" fill="#000000" />
,<rect x="2" y="7" width="1" height="1" fill="#0c0000" />
,<rect x="2" y="8" width="1" height="1" fill="#040000" />
,<rect x="2" y="9" width="1" height="1" fill="#000000" />
,<rect x="3" y="0" width="1" height="1" fill="#d78b8f" />
,<rect x="3" y="1" width="1" height="1" fill="#de8f94" />
,<rect x="3" y="2" width="1" height="1" fill="#db8e92" />
,<rect x="3" y="3" width="1" height="1" fill="#694142" />
,<rect x="3" y="4" width="1" height="1" fill="#000000" />
,<rect x="3" y="5" width="1" height="1" fill="#251112" />
,<rect x="3" y="6" width="1" height="1" fill="#0f0000" />
,<rect x="3" y="7" width="1" height="1" fill="#000000" />
,<rect x="3" y="8" width="1" height="1" fill="#000000" />
,<rect x="3" y="9" width="1" height="1" fill="#250000" />
,<rect x="4" y="0" width="1" height="1" fill="#e19196" />
,<rect x="4" y="1" width="1" height="1" fill="#ea969b" />
,<rect x="4" y="2" width="1" height="1" fill="#ac6c70" />
,<rect x="4" y="3" width="1" height="1" fill="#000000" />
,<rect x="4" y="4" width="1" height="1" fill="#000000" />
,<rect x="4" y="5" width="1" height="1" fill="#000809" />
,<rect x="4" y="6" width="1" height="1" fill="#000000" />
,<rect x="4" y="7" width="1" height="1" fill="#290100" />
,<rect x="4" y="8" width="1" height="1" fill="#6f0000" />
,<rect x="4" y="9" width="1" height="1" fill="#790100" />
,<rect x="5" y="0" width="1" height="1" fill="#ba7679" />
,<rect x="5" y="1" width="1" height="1" fill="#8b5759" />
,<rect x="5" y="2" width="1" height="1" fill="#000000" />
,<rect x="5" y="3" width="1" height="1" fill="#000000" />
,<rect x="5" y="4" width="1" height="1" fill="#40090b" />
,<rect x="5" y="5" width="1" height="1" fill="#480000" />
,<rect x="5" y="6" width="1" height="1" fill="#5f0000" />
,<rect x="5" y="7" width="1" height="1" fill="#7f0000" />
,<rect x="5" y="8" width="1" height="1" fill="#810100" />
,<rect x="5" y="9" width="1" height="1" fill="#820000" />
,<rect x="6" y="0" width="1" height="1" fill="#000000" />
,<rect x="6" y="1" width="1" height="1" fill="#000000" />
,<rect x="6" y="2" width="1" height="1" fill="#000000" />
,<rect x="6" y="3" width="1" height="1" fill="#5b0605" />
,<rect x="6" y="4" width="1" height="1" fill="#800000" />
,<rect x="6" y="5" width="1" height="1" fill="#820001" />
,<rect x="6" y="6" width="1" height="1" fill="#870000" />
,<rect x="6" y="7" width="1" height="1" fill="#830000" />
,<rect x="6" y="8" width="1" height="1" fill="#800000" />
,<rect x="6" y="9" width="1" height="1" fill="#8b0000" />
,<rect x="7" y="0" width="1" height="1" fill="#4a0f0f" />
,<rect x="7" y="1" width="1" height="1" fill="#660e0e" />
,<rect x="7" y="2" width="1" height="1" fill="#780201" />
,<rect x="7" y="3" width="1" height="1" fill="#870000" />
,<rect x="7" y="4" width="1" height="1" fill="#860100" />
,<rect x="7" y="5" width="1" height="1" fill="#7b0000" />
,<rect x="7" y="6" width="1" height="1" fill="#830000" />
,<rect x="7" y="7" width="1" height="1" fill="#7e0000" />
,<rect x="7" y="8" width="1" height="1" fill="#7e0000" />
,<rect x="7" y="9" width="1" height="1" fill="#890001" />
,<rect x="8" y="0" width="1" height="1" fill="#860000" />
,<rect x="8" y="1" width="1" height="1" fill="#870000" />
,<rect x="8" y="2" width="1" height="1" fill="#810100" />
,<rect x="8" y="3" width="1" height="1" fill="#830000" />
,<rect x="8" y="4" width="1" height="1" fill="#7e0000" />
,<rect x="8" y="5" width="1" height="1" fill="#7d0101" />
,<rect x="8" y="6" width="1" height="1" fill="#840000" />
,<rect x="8" y="7" width="1" height="1" fill="#870000" />
,<rect x="8" y="8" width="1" height="1" fill="#800000" />
,<rect x="8" y="9" width="1" height="1" fill="#820000" />
,<rect x="9" y="0" width="1" height="1" fill="#810101" />
,<rect x="9" y="1" width="1" height="1" fill="#7b0000" />
,<rect x="9" y="2" width="1" height="1" fill="#7b0000" />
,<rect x="9" y="3" width="1" height="1" fill="#870000" />
,<rect x="9" y="4" width="1" height="1" fill="#820000" />
,<rect x="9" y="5" width="1" height="1" fill="#810000" />
,<rect x="9" y="6" width="1" height="1" fill="#830000" />
,<rect x="9" y="7" width="1" height="1" fill="#840000" />
,<rect x="9" y="8" width="1" height="1" fill="#870000" />
,<rect x="9" y="9" width="1" height="1" fill="#870000" />

  </g>
</svg>