<svg width="800" height="1000" version="1.1" xmlns="http://www.w3.org/2000/svg" xmlns:xlink="http://www.w3.org/1999/xlink">
  <defs>
      <linearGradient id="Gradient2" x1="0" x2="1" y1="0" y2="1">
        <stop offset="0%" stop-color="#2d3c96"/>
        <stop offset="100%" stop-color="#d53392"/>
      </linearGradient>
  </defs>
  <rect x="10" y="10" width="780" height="980" fill="url(#Gradient2)" rx="50" ry="50" stroke="#ffd700" stroke-width="20"/>
  <text x="400" y="920" width="780" text-anchor="middle" style="font: bold 200px 'Helvetica Neue'; fill: #ffd700">05251</text>

  <g transform="translate(80 80) scale(64)">
<rect x="0" y="0" width="1" height="1" fill="#830000" />
,<rect x="0" y="1" width="1" height="1" fill="#870e0e" />
,<rect x="0" y="2" width="1" height="1" fill="#810000" />
,<rect x="0" y="3" width="1" height="1" fill="#892627" />
,<rect x="0" y="4" width="1" height="1" fill="#a16161" />
,<rect x="0" y="5" width="1" height="1" fill="#8a3131" />
,<rect x="0" y="6" width="1" height="1" fill="#800000" />
,<rect x="0" y="7" width="1" height="1" fill="#870405" />
,<rect x="0" y="8" width="1" height="1" fill="#820001" />
,<rect x="0" y="9" width="1" height="1" fill="#8a0100" />
,<rect x="1" y="0" width="1" height="1" fill="#870000" />
,<rect x="1" y="1" width="1" height="1" fill="#840d0d" />
,<rect x="1" y="2" width="1" height="1" fill="#7b0000" />
,<rect x="1" y="3" width="1" height="1" fill="#812c2c" />
,<rect x="1" y="4" width="1" height="1" fill="#954c4c" />
,<rect x="1" y="5" width="1" height="1" fill="#881f1e" />
,<rect x="1" y="6" width="1" height="1" fill="#850000" />
,<rect x="1" y="7" width="1" height="1" fill="#830303" />
,<rect x="1" y="8" width="1" height="1" fill="#830000" />
,<rect x="1" y="9" width="1" height="1" fill="#890001" />
,<rect x="2" y="0" width="1" height="1" fill="#820000" />
,<rect x="2" y="1" width="1" height="1" fill="#810a09" />
,<rect x="2" y="2" width="1" height="1" fill="#800000" />
,<rect x="2" y="3" width="1" height="1" fill="#84201f" />
,<rect x="2" y="4" width="1" height="1" fill="#944e4e" />
,<rect x="2" y="5" width="1" height="1" fill="#882928" />
,<rect x="2" y="6" width="1" height="1" fill="#830000" />
,<rect x="2" y="7" width="1" height="1" fill="#810202" />
,<rect x="2" y="8" width="1" height="1" fill="#810101" />
,<rect x="2" y="9" width="1" height="1" fill="#830000" />
,<rect x="3" y="0" width="1" height="1" fill="#7d0000" />
,<rect x="3" y="1" width="1" height="1" fill="#870e0e" />
,<rect x="3" y="2" width="1" height="1" fill="#7e0000" />
,<rect x="3" y="3" width="1" height="1" fill="#852827" />
,<rect x="3" y="4" width="1" height="1" fill="#9d6364" />
,<rect x="3" y="5" width="1" height="1" fill="#903636" />
,<rect x="3" y="6" width="1" height="1" fill="#820000" />
,<rect x="3" y="7" width="1" height="1" fill="#870404" />
,<rect x="3" y="8" width="1" height="1" fill="#7f0000" />
,<rect x="3" y="9" width="1" height="1" fill="#830000" />
,<rect x="4" y="0" width="1" height="1" fill="#870000" />
,<rect x="4" y="1" width="1" height="1" fill="#840d0d" />
,<rect x="4" y="2" width="1" height="1" fill="#7b0000" />
,<rect x="4" y="3" width="1" height="1" fill="#882526" />
,<rect x="4" y="4" width="1" height="1" fill="#9f5959" />
,<rect x="4" y="5" width="1" height="1" fill="#8c2b2b" />
,<rect x="4" y="6" width="1" height="1" fill="#830000" />
,<rect x="4" y="7" width="1" height="1" fill="#830304" />
,<rect x="4" y="8" width="1" height="1" fill="#840000" />
,<rect x="4" y="9" width="1" height="1" fill="#800000" />
,<rect x="5" y="0" width="1" height="1" fill="#800000" />
,<rect x="5" y="1" width="1" height="1" fill="#850d0b" />
,<rect x="5" y="2" width="1" height="1" fill="#800000" />
,<rect x="5" y="3" width="1" height="1" fill="#882123" />
,<rect x="5" y="4" width="1" height="1" fill="#9c5858" />
,<rect x="5" y="5" width="1" height="1" fill="#8c2b2b" />
,<rect x="5" y="6" width="1" height="1" fill="#840000" />
,<rect x="5" y="7" width="1" height="1" fill="#810405" />
,<rect x="5" y="8" width="1" height="1" fill="#840000" />
,<rect x="5" y="9" width="1" height="1" fill="#830000" />
,<rect x="6" y="0" width="1" height="1" fill="#7f0000" />
,<rect x="6" y="1" width="1" height="1" fill="#870e0d" />
,<rect x="6" y="2" width="1" height="1" fill="#800000" />
,<rect x="6" y="3" width="1" height="1" fill="#882726" />
,<rect x="6" y="4" width="1" height="1" fill="#9f5e5d" />
,<rect x="6" y="5" width="1" height="1" fill="#8c3334" />
,<rect x="6" y="6" width="1" height="1" fill="#840000" />
,<rect x="6" y="7" width="1" height="1" fill="#840303" />
,<rect x="6" y="8" width="1" height="1" fill="#830000" />
,<rect x="6" y="9" width="1" height="1" fill="#860100" />
,<rect x="7" y="0" width="1" height="1" fill="#890303" />
,<rect x="7" y="1" width="1" height="1" fill="#850908" />
,<rect x="7" y="2" width="1" height="1" fill="#7b0000" />
,<rect x="7" y="3" width="1" height="1" fill="#871e1e" />
,<rect x="7" y="4" width="1" height="1" fill="#934949" />
,<rect x="7" y="5" width="1" height="1" fill="#892828" />
,<rect x="7" y="6" width="1" height="1" fill="#840000" />
,<rect x="7" y="7" width="1" height="1" fill="#830202" />
,<rect x="7" y="8" width="1" height="1" fill="#840100" />
,<rect x="7" y="9" width="1" height="1" fill="#830000" />
,<rect x="8" y="0" width="1" height="1" fill="#5c0201" />
,<rect x="8" y="1" width="1" height="1" fill="#750b0c" />
,<rect x="8" y="2" width="1" height="1" fill="#830909" />
,<rect x="8" y="3" width="1" height="1" fill="#880000" />
,<rect x="8" y="4" width="1" height="1" fill="#7d0000" />
,<rect x="8" y="5" width="1" height="1" fill="#7c0000" />
,<rect x="8" y="6" width="1" height="1" fill="#840303" />
,<rect x="8" y="7" width="1" height="1" fill="#880000" />
,<rect x="8" y="8" width="1" height="1" fill="#830000" />
,<rect x="8" y="9" width="1" height="1" fill="#7f0000" />
,<rect x="9" y="0" width="1" height="1" fill="#000000" />
,<rect x="9" y="1" width="1" height="1" fill="#000000" />
,<rect x="9" y="2" width="1" height="1" fill="#2f0000" />
,<rect x="9" y="3" width="1" height="1" fill="#6c0809" />
,<rect x="9" y="4" width="1" height="1" fill="#870605" />
,<rect x="9" y="5" width="1" height="1" fill="#840303" />
,<rect x="9" y="6" width="1" height="1" fill="#890000" />
,<rect x="9" y="7" width="1" height="1" fill="#800000" />
,<rect x="9" y="8" width="1" height="1" fill="#7f0000" />
,<rect x="9" y="9" width="1" height="1" fill="#870000" />

  </g>
</svg>