<svg width="800" height="1000" xmlns="http://www.w3.org/2000/svg"><defs><linearGradient id="g" x1="0" x2="1" y1="0" y2="1"><stop offset="0%" stop-color="#2d3c96"/><stop offset="100%" stop-color="#d53392"/></linearGradient></defs><rect x="10" y="10" width="780" height="980" fill="url(#g)" rx="50" ry="50" stroke="gold" stroke-width="20"/><text x="400" y="920" width="780" text-anchor="middle" style="font:bold 200px 'Helvetica Neue';fill:gold">05267</text><g transform="translate(80 80) scale(64)"><rect x="0" y="0" width="1" height="1" fill="#07111d" /><rect x="0" y="1" width="1" height="1" fill="#07111d" /><rect x="0" y="2" width="1" height="1" fill="#07111d" /><rect x="0" y="3" width="1" height="1" fill="#07111d" /><rect x="0" y="4" width="1" height="1" fill="#07111d" /><rect x="0" y="5" width="1" height="1" fill="#07111d" /><rect x="0" y="6" width="1" height="1" fill="#07111d" /><rect x="0" y="7" width="1" height="1" fill="#07111d" /><rect x="0" y="8" width="1" height="1" fill="#07111d" /><rect x="0" y="9" width="1" height="1" fill="#07111d" /><rect x="1" y="0" width="1" height="1" fill="#07111d" /><rect x="1" y="1" width="1" height="1" fill="#07111d" /><rect x="1" y="2" width="1" height="1" fill="#07111d" /><rect x="1" y="3" width="1" height="1" fill="#07111d" /><rect x="1" y="4" width="1" height="1" fill="#07111d" /><rect x="1" y="5" width="1" height="1" fill="#07111d" /><rect x="1" y="6" width="1" height="1" fill="#07111d" /><rect x="1" y="7" width="1" height="1" fill="#07111d" /><rect x="1" y="8" width="1" height="1" fill="#07111d" /><rect x="1" y="9" width="1" height="1" fill="#07111d" /><rect x="2" y="0" width="1" height="1" fill="#07111d" /><rect x="2" y="1" width="1" height="1" fill="#07111d" /><rect x="2" y="2" width="1" height="1" fill="#07111d" /><rect x="2" y="3" width="1" height="1" fill="#07111d" /><rect x="2" y="4" width="1" height="1" fill="#07111d" /><rect x="2" y="5" width="1" height="1" fill="#07111d" /><rect x="2" y="6" width="1" height="1" fill="#07111d" /><rect x="2" y="7" width="1" height="1" fill="#07111d" /><rect x="2" y="8" width="1" height="1" fill="#07111d" /><rect x="2" y="9" width="1" height="1" fill="#07111d" /><rect x="3" y="0" width="1" height="1" fill="#07111d" /><rect x="3" y="1" width="1" height="1" fill="#07111d" /><rect x="3" y="2" width="1" height="1" fill="#07111d" /><rect x="3" y="3" width="1" height="1" fill="#07111d" /><rect x="3" y="4" width="1" height="1" fill="#07111d" /><rect x="3" y="5" width="1" height="1" fill="#07111d" /><rect x="3" y="6" width="1" height="1" fill="#07111d" /><rect x="3" y="7" width="1" height="1" fill="#07111d" /><rect x="3" y="8" width="1" height="1" fill="#07111d" /><rect x="3" y="9" width="1" height="1" fill="#07111d" /><rect x="4" y="0" width="1" height="1" fill="#07111d" /><rect x="4" y="1" width="1" height="1" fill="#1a242f" /><rect x="4" y="2" width="1" height="1" fill="#5c626a" /><rect x="4" y="3" width="1" height="1" fill="#373f48" /><rect x="4" y="4" width="1" height="1" fill="#07111d" /><rect x="4" y="5" width="1" height="1" fill="#19232e" /><rect x="4" y="6" width="1" height="1" fill="#757a81" /><rect x="4" y="7" width="1" height="1" fill="#0a1420" /><rect x="4" y="8" width="1" height="1" fill="#07111d" /><rect x="4" y="9" width="1" height="1" fill="#07111d" /><rect x="5" y="0" width="1" height="1" fill="#1d2631" /><rect x="5" y="1" width="1" height="1" fill="#e8e9ea" /><rect x="5" y="2" width="1" height="1" fill="#ffffff" /><rect x="5" y="3" width="1" height="1" fill="#ffffff" /><rect x="5" y="4" width="1" height="1" fill="#60666e" /><rect x="5" y="5" width="1" height="1" fill="#60666e" /><rect x="5" y="6" width="1" height="1" fill="#ffffff" /><rect x="5" y="7" width="1" height="1" fill="#969a9f" /><rect x="5" y="8" width="1" height="1" fill="#07111d" /><rect x="5" y="9" width="1" height="1" fill="#07111d" /><rect x="6" y="0" width="1" height="1" fill="#72787e" /><rect x="6" y="1" width="1" height="1" fill="#fcfcfc" /><rect x="6" y="2" width="1" height="1" fill="#585e67" /><rect x="6" y="3" width="1" height="1" fill="#d5d7d9" /><rect x="6" y="4" width="1" height="1" fill="#dddee0" /><rect x="6" y="5" width="1" height="1" fill="#07111d" /><rect x="6" y="6" width="1" height="1" fill="#9ea2a6" /><rect x="6" y="7" width="1" height="1" fill="#fbfbfb" /><rect x="6" y="8" width="1" height="1" fill="#161f2a" /><rect x="6" y="9" width="1" height="1" fill="#07111d" /><rect x="7" y="0" width="1" height="1" fill="#81868c" /><rect x="7" y="1" width="1" height="1" fill="#f1f2f3" /><rect x="7" y="2" width="1" height="1" fill="#0b1521" /><rect x="7" y="3" width="1" height="1" fill="#71777e" /><rect x="7" y="4" width="1" height="1" fill="#ffffff" /><rect x="7" y="5" width="1" height="1" fill="#3a424b" /><rect x="7" y="6" width="1" height="1" fill="#4c535c" /><rect x="7" y="7" width="1" height="1" fill="#ffffff" /><rect x="7" y="8" width="1" height="1" fill="#2b343e" /><rect x="7" y="9" width="1" height="1" fill="#07111d" /><rect x="8" y="0" width="1" height="1" fill="#464e57" /><rect x="8" y="1" width="1" height="1" fill="#ffffff" /><rect x="8" y="2" width="1" height="1" fill="#979ba0" /><rect x="8" y="3" width="1" height="1" fill="#1e2732" /><rect x="8" y="4" width="1" height="1" fill="#fafafb" /><rect x="8" y="5" width="1" height="1" fill="#d0d2d4" /><rect x="8" y="6" width="1" height="1" fill="#caccce" /><rect x="8" y="7" width="1" height="1" fill="#f2f3f3" /><rect x="8" y="8" width="1" height="1" fill="#101925" /><rect x="8" y="9" width="1" height="1" fill="#07111d" /><rect x="9" y="0" width="1" height="1" fill="#07111d" /><rect x="9" y="1" width="1" height="1" fill="#8c9196" /><rect x="9" y="2" width="1" height="1" fill="#acb0b4" /><rect x="9" y="3" width="1" height="1" fill="#07111d" /><rect x="9" y="4" width="1" height="1" fill="#70767d" /><rect x="9" y="5" width="1" height="1" fill="#f9f9fa" /><rect x="9" y="6" width="1" height="1" fill="#f3f4f4" /><rect x="9" y="7" width="1" height="1" fill="#5e646c" /><rect x="9" y="8" width="1" height="1" fill="#07111d" /><rect x="9" y="9" width="1" height="1" fill="#07111d" /></g></svg>