<svg width="800" height="1000" xmlns="http://www.w3.org/2000/svg"><defs><linearGradient id="g" x1="0" x2="1" y1="0" y2="1"><stop offset="0%" stop-color="#2d3c96"/><stop offset="100%" stop-color="#d53392"/></linearGradient></defs><rect x="10" y="10" width="780" height="980" fill="url(#g)" rx="50" ry="50" stroke="gold" stroke-width="20"/><text x="400" y="920" width="780" text-anchor="middle" style="font:bold 200px 'Helvetica Neue';fill:gold">05329</text><g transform="translate(80 80) scale(64)"><rect x="0" y="0" width="1" height="1" fill="#baafe7" /><rect x="0" y="1" width="1" height="1" fill="#bdb0e8" /><rect x="0" y="2" width="1" height="1" fill="#beaff0" /><rect x="0" y="3" width="1" height="1" fill="#bbaef4" /><rect x="0" y="4" width="1" height="1" fill="#baacf7" /><rect x="0" y="5" width="1" height="1" fill="#baacf7" /><rect x="0" y="6" width="1" height="1" fill="#bbaff1" /><rect x="0" y="7" width="1" height="1" fill="#bbb0e8" /><rect x="0" y="8" width="1" height="1" fill="#c2bae1" /><rect x="0" y="9" width="1" height="1" fill="#807c93" /><rect x="1" y="0" width="1" height="1" fill="#c1aee6" /><rect x="1" y="1" width="1" height="1" fill="#c2aee9" /><rect x="1" y="2" width="1" height="1" fill="#c3afee" /><rect x="1" y="3" width="1" height="1" fill="#c1aef0" /><rect x="1" y="4" width="1" height="1" fill="#c0acf1" /><rect x="1" y="5" width="1" height="1" fill="#c0aded" /><rect x="1" y="6" width="1" height="1" fill="#c1afe9" /><rect x="1" y="7" width="1" height="1" fill="#c1b1e0" /><rect x="1" y="8" width="1" height="1" fill="#bbadd0" /><rect x="1" y="9" width="1" height="1" fill="#655b73" /><rect x="2" y="0" width="1" height="1" fill="#c6ade6" /><rect x="2" y="1" width="1" height="1" fill="#c7aee8" /><rect x="2" y="2" width="1" height="1" fill="#c8aeeb" /><rect x="2" y="3" width="1" height="1" fill="#c7adea" /><rect x="2" y="4" width="1" height="1" fill="#c6ace9" /><rect x="2" y="5" width="1" height="1" fill="#c5aee6" /><rect x="2" y="6" width="1" height="1" fill="#c6b0df" /><rect x="2" y="7" width="1" height="1" fill="#c6b1d8" /><rect x="2" y="8" width="1" height="1" fill="#b3a0bc" /><rect x="2" y="9" width="1" height="1" fill="#4b394f" /><rect x="3" y="0" width="1" height="1" fill="#cbade3" /><rect x="3" y="1" width="1" height="1" fill="#ccade6" /><rect x="3" y="2" width="1" height="1" fill="#cdaee9" /><rect x="3" y="3" width="1" height="1" fill="#ccade6" /><rect x="3" y="4" width="1" height="1" fill="#cbade3" /><rect x="3" y="5" width="1" height="1" fill="#caaedf" /><rect x="3" y="6" width="1" height="1" fill="#cbb0d9" /><rect x="3" y="7" width="1" height="1" fill="#cbb1d4" /><rect x="3" y="8" width="1" height="1" fill="#977e9b" /><rect x="3" y="9" width="1" height="1" fill="#0e000e" /><rect x="4" y="0" width="1" height="1" fill="#d2abe2" /><rect x="4" y="1" width="1" height="1" fill="#d2ade3" /><rect x="4" y="2" width="1" height="1" fill="#d2ade3" /><rect x="4" y="3" width="1" height="1" fill="#d2ade3" /><rect x="4" y="4" width="1" height="1" fill="#d1ace0" /><rect x="4" y="5" width="1" height="1" fill="#d1addd" /><rect x="4" y="6" width="1" height="1" fill="#d1aed8" /><rect x="4" y="7" width="1" height="1" fill="#d0b1d3" /><rect x="4" y="8" width="1" height="1" fill="#c9aac9" /><rect x="4" y="9" width="1" height="1" fill="#765874" /><rect x="5" y="0" width="1" height="1" fill="#d5abdd" /><rect x="5" y="1" width="1" height="1" fill="#d6acde" /><rect x="5" y="2" width="1" height="1" fill="#d5ade1" /><rect x="5" y="3" width="1" height="1" fill="#d4acde" /><rect x="5" y="4" width="1" height="1" fill="#d4acde" /><rect x="5" y="5" width="1" height="1" fill="#d3acdb" /><rect x="5" y="6" width="1" height="1" fill="#d4add9" /><rect x="5" y="7" width="1" height="1" fill="#d5afd6" /><rect x="5" y="8" width="1" height="1" fill="#d1aecf" /><rect x="5" y="9" width="1" height="1" fill="#d5b2d2" /><rect x="6" y="0" width="1" height="1" fill="#daacda" /><rect x="6" y="1" width="1" height="1" fill="#daacda" /><rect x="6" y="2" width="1" height="1" fill="#daacdb" /><rect x="6" y="3" width="1" height="1" fill="#daacdb" /><rect x="6" y="4" width="1" height="1" fill="#daacdb" /><rect x="6" y="5" width="1" height="1" fill="#daacdb" /><rect x="6" y="6" width="1" height="1" fill="#d8addb" /><rect x="6" y="7" width="1" height="1" fill="#d8adda" /><rect x="6" y="8" width="1" height="1" fill="#d2a8d0" /><rect x="6" y="9" width="1" height="1" fill="#ddb3db" /><rect x="7" y="0" width="1" height="1" fill="#ddadd5" /><rect x="7" y="1" width="1" height="1" fill="#ddadd5" /><rect x="7" y="2" width="1" height="1" fill="#ddadd7" /><rect x="7" y="3" width="1" height="1" fill="#ddacd9" /><rect x="7" y="4" width="1" height="1" fill="#ddacdb" /><rect x="7" y="5" width="1" height="1" fill="#ddacdb" /><rect x="7" y="6" width="1" height="1" fill="#ddabdc" /><rect x="7" y="7" width="1" height="1" fill="#dcaddb" /><rect x="7" y="8" width="1" height="1" fill="#deafdb" /><rect x="7" y="9" width="1" height="1" fill="#deafd9" /><rect x="8" y="0" width="1" height="1" fill="#e3add1" /><rect x="8" y="1" width="1" height="1" fill="#e4acd1" /><rect x="8" y="2" width="1" height="1" fill="#e4acd3" /><rect x="8" y="3" width="1" height="1" fill="#e3acd4" /><rect x="8" y="4" width="1" height="1" fill="#e3acd6" /><rect x="8" y="5" width="1" height="1" fill="#e3abda" /><rect x="8" y="6" width="1" height="1" fill="#e3abdc" /><rect x="8" y="7" width="1" height="1" fill="#e3abdc" /><rect x="8" y="8" width="1" height="1" fill="#e5addc" /><rect x="8" y="9" width="1" height="1" fill="#dea9d5" /><rect x="9" y="0" width="1" height="1" fill="#e5accd" /><rect x="9" y="1" width="1" height="1" fill="#e8abcc" /><rect x="9" y="2" width="1" height="1" fill="#e8abcd" /><rect x="9" y="3" width="1" height="1" fill="#e7abcf" /><rect x="9" y="4" width="1" height="1" fill="#e7abd1" /><rect x="9" y="5" width="1" height="1" fill="#e7aad4" /><rect x="9" y="6" width="1" height="1" fill="#e7aad6" /><rect x="9" y="7" width="1" height="1" fill="#e7aad6" /><rect x="9" y="8" width="1" height="1" fill="#e5a8d4" /><rect x="9" y="9" width="1" height="1" fill="#e2a8d1" /></g></svg>