<svg width="800" height="1000" xmlns="http://www.w3.org/2000/svg"><defs><linearGradient id="g" x1="0" x2="1" y1="0" y2="1"><stop offset="0%" stop-color="#2d3c96"/><stop offset="100%" stop-color="#d53392"/></linearGradient></defs><rect x="10" y="10" width="780" height="980" fill="url(#g)" rx="50" ry="50" stroke="gold" stroke-width="20"/><text x="400" y="920" width="780" text-anchor="middle" style="font:bold 200px 'Helvetica Neue';fill:gold">05327</text><g transform="translate(80 80) scale(64)"><rect x="0" y="0" width="1" height="1" fill="#fda9c3" /><rect x="0" y="1" width="1" height="1" fill="#fea8c1" /><rect x="0" y="2" width="1" height="1" fill="#fea8c1" /><rect x="0" y="3" width="1" height="1" fill="#ffa9c2" /><rect x="0" y="4" width="1" height="1" fill="#feaac2" /><rect x="0" y="5" width="1" height="1" fill="#fbacc2" /><rect x="0" y="6" width="1" height="1" fill="#f7aec2" /><rect x="0" y="7" width="1" height="1" fill="#f3b0c2" /><rect x="0" y="8" width="1" height="1" fill="#fbbed0" /><rect x="0" y="9" width="1" height="1" fill="#c994a4" /><rect x="1" y="0" width="1" height="1" fill="#fda9c3" /><rect x="1" y="1" width="1" height="1" fill="#fea8c1" /><rect x="1" y="2" width="1" height="1" fill="#fea9c0" /><rect x="1" y="3" width="1" height="1" fill="#feabbf" /><rect x="1" y="4" width="1" height="1" fill="#fdabc1" /><rect x="1" y="5" width="1" height="1" fill="#faacc2" /><rect x="1" y="6" width="1" height="1" fill="#f4afc4" /><rect x="1" y="7" width="1" height="1" fill="#edb2c6" /><rect x="1" y="8" width="1" height="1" fill="#c599aa" /><rect x="1" y="9" width="1" height="1" fill="#3b1c2e" /><rect x="2" y="0" width="1" height="1" fill="#f5a2bc" /><rect x="2" y="1" width="1" height="1" fill="#ffb1cb" /><rect x="2" y="2" width="1" height="1" fill="#fdacbb" /><rect x="2" y="3" width="1" height="1" fill="#f9a9b4" /><rect x="2" y="4" width="1" height="1" fill="#f8aab8" /><rect x="2" y="5" width="1" height="1" fill="#fbb2c5" /><rect x="2" y="6" width="1" height="1" fill="#f3b4c9" /><rect x="2" y="7" width="1" height="1" fill="#c598af" /><rect x="2" y="8" width="1" height="1" fill="#230d22" /><rect x="2" y="9" width="1" height="1" fill="#000017" /><rect x="3" y="0" width="1" height="1" fill="#ffadc7" /><rect x="3" y="1" width="1" height="1" fill="#fca9c3" /><rect x="3" y="2" width="1" height="1" fill="#f6a8b5" /><rect x="3" y="3" width="1" height="1" fill="#ffb7be" /><rect x="3" y="4" width="1" height="1" fill="#f5afb9" /><rect x="3" y="5" width="1" height="1" fill="#fbbdcc" /><rect x="3" y="6" width="1" height="1" fill="#ce9ab0" /><rect x="3" y="7" width="1" height="1" fill="#25051d" /><rect x="3" y="8" width="1" height="1" fill="#000015" /><rect x="3" y="9" width="1" height="1" fill="#3b4e6f" /><rect x="4" y="0" width="1" height="1" fill="#ffadcd" /><rect x="4" y="1" width="1" height="1" fill="#f7a1bc" /><rect x="4" y="2" width="1" height="1" fill="#ffb6c2" /><rect x="4" y="3" width="1" height="1" fill="#efacb3" /><rect x="4" y="4" width="1" height="1" fill="#fbc2c9" /><rect x="4" y="5" width="1" height="1" fill="#cd9fac" /><rect x="4" y="6" width="1" height="1" fill="#39182d" /><rect x="4" y="7" width="1" height="1" fill="#080013" /><rect x="4" y="8" width="1" height="1" fill="#3f4565" /><rect x="4" y="9" width="1" height="1" fill="#839cc5" /><rect x="5" y="0" width="1" height="1" fill="#faa1c1" /><rect x="5" y="1" width="1" height="1" fill="#ffacc7" /><rect x="5" y="2" width="1" height="1" fill="#f8b2bd" /><rect x="5" y="3" width="1" height="1" fill="#f5bec4" /><rect x="5" y="4" width="1" height="1" fill="#cba2aa" /><rect x="5" y="5" width="1" height="1" fill="#503643" /><rect x="5" y="6" width="1" height="1" fill="#100219" /><rect x="5" y="7" width="1" height="1" fill="#3b3c5b" /><rect x="5" y="8" width="1" height="1" fill="#8ea1c9" /><rect x="5" y="9" width="1" height="1" fill="#93b3e6" /><rect x="6" y="0" width="1" height="1" fill="#ffabc9" /><rect x="6" y="1" width="1" height="1" fill="#fba7c1" /><rect x="6" y="2" width="1" height="1" fill="#f4b4c2" /><rect x="6" y="3" width="1" height="1" fill="#d9aeb7" /><rect x="6" y="4" width="1" height="1" fill="#715b67" /><rect x="6" y="5" width="1" height="1" fill="#070012" /><rect x="6" y="6" width="1" height="1" fill="#202743" /><rect x="6" y="7" width="1" height="1" fill="#899dc2" /><rect x="6" y="8" width="1" height="1" fill="#8cabda" /><rect x="6" y="9" width="1" height="1" fill="#8fb3ef" /><rect x="7" y="0" width="1" height="1" fill="#ffb3cd" /><rect x="7" y="1" width="1" height="1" fill="#f8aac0" /><rect x="7" y="2" width="1" height="1" fill="#ebb7c4" /><rect x="7" y="3" width="1" height="1" fill="#8b6c7b" /><rect x="7" y="4" width="1" height="1" fill="#03000e" /><rect x="7" y="5" width="1" height="1" fill="#101a35" /><rect x="7" y="6" width="1" height="1" fill="#7a90b5" /><rect x="7" y="7" width="1" height="1" fill="#95b4e3" /><rect x="7" y="8" width="1" height="1" fill="#8cb0ea" /><rect x="7" y="9" width="1" height="1" fill="#8cb3f6" /><rect x="8" y="0" width="1" height="1" fill="#eba4b4" /><rect x="8" y="1" width="1" height="1" fill="#f4b4c4" /><rect x="8" y="2" width="1" height="1" fill="#b58c9e" /><rect x="8" y="3" width="1" height="1" fill="#08000e" /><rect x="8" y="4" width="1" height="1" fill="#00001c" /><rect x="8" y="5" width="1" height="1" fill="#748bb4" /><rect x="8" y="6" width="1" height="1" fill="#8eaedf" /><rect x="8" y="7" width="1" height="1" fill="#92b6f0" /><rect x="8" y="8" width="1" height="1" fill="#90b5f9" /><rect x="8" y="9" width="1" height="1" fill="#89adf7" /><rect x="9" y="0" width="1" height="1" fill="#f5bcc3" /><rect x="9" y="1" width="1" height="1" fill="#c6949f" /><rect x="9" y="2" width="1" height="1" fill="#14000e" /><rect x="9" y="3" width="1" height="1" fill="#00001b" /><rect x="9" y="4" width="1" height="1" fill="#60719d" /><rect x="9" y="5" width="1" height="1" fill="#86a4da" /><rect x="9" y="6" width="1" height="1" fill="#9abcfb" /><rect x="9" y="7" width="1" height="1" fill="#88adf3" /><rect x="9" y="8" width="1" height="1" fill="#8badf7" /><rect x="9" y="9" width="1" height="1" fill="#91aefa" /></g></svg>