<svg width="800" height="1000" xmlns="http://www.w3.org/2000/svg"><defs><linearGradient id="g" x1="0" x2="1" y1="0" y2="1"><stop offset="0%" stop-color="#2d3c96"/><stop offset="100%" stop-color="#d53392"/></linearGradient></defs><rect x="10" y="10" width="780" height="980" fill="url(#g)" rx="50" ry="50" stroke="gold" stroke-width="20"/><text x="400" y="920" width="780" text-anchor="middle" style="font:bold 200px 'Helvetica Neue';fill:gold">05333</text><g transform="translate(80 80) scale(64)"><rect x="0" y="0" width="1" height="1" fill="#adf086" /><rect x="0" y="1" width="1" height="1" fill="#aeef87" /><rect x="0" y="2" width="1" height="1" fill="#b1ec90" /><rect x="0" y="3" width="1" height="1" fill="#b3eb92" /><rect x="0" y="4" width="1" height="1" fill="#b4eb8d" /><rect x="0" y="5" width="1" height="1" fill="#b4eb8d" /><rect x="0" y="6" width="1" height="1" fill="#b3ec8e" /><rect x="0" y="7" width="1" height="1" fill="#b3eb92" /><rect x="0" y="8" width="1" height="1" fill="#afea9a" /><rect x="0" y="9" width="1" height="1" fill="#aeeb9d" /><rect x="1" y="0" width="1" height="1" fill="#a3f088" /><rect x="1" y="1" width="1" height="1" fill="#a4ef8a" /><rect x="1" y="2" width="1" height="1" fill="#a7ec91" /><rect x="1" y="3" width="1" height="1" fill="#a9eb91" /><rect x="1" y="4" width="1" height="1" fill="#aaec8a" /><rect x="1" y="5" width="1" height="1" fill="#aaec88" /><rect x="1" y="6" width="1" height="1" fill="#a9ed8a" /><rect x="1" y="7" width="1" height="1" fill="#a7ec91" /><rect x="1" y="8" width="1" height="1" fill="#a6eb9b" /><rect x="1" y="9" width="1" height="1" fill="#a4eb9d" /><rect x="2" y="0" width="1" height="1" fill="#9bef8f" /><rect x="2" y="1" width="1" height="1" fill="#9dee91" /><rect x="2" y="2" width="1" height="1" fill="#9eec96" /><rect x="2" y="3" width="1" height="1" fill="#a0ec94" /><rect x="2" y="4" width="1" height="1" fill="#a0ee89" /><rect x="2" y="5" width="1" height="1" fill="#a0ef86" /><rect x="2" y="6" width="1" height="1" fill="#9eef88" /><rect x="2" y="7" width="1" height="1" fill="#9dee91" /><rect x="2" y="8" width="1" height="1" fill="#9ceda0" /><rect x="2" y="9" width="1" height="1" fill="#9aeb9f" /><rect x="3" y="0" width="1" height="1" fill="#95ee94" /><rect x="3" y="1" width="1" height="1" fill="#95ed96" /><rect x="3" y="2" width="1" height="1" fill="#97ec99" /><rect x="3" y="3" width="1" height="1" fill="#98ec96" /><rect x="3" y="4" width="1" height="1" fill="#98ee89" /><rect x="3" y="5" width="1" height="1" fill="#98ef84" /><rect x="3" y="6" width="1" height="1" fill="#97f086" /><rect x="3" y="7" width="1" height="1" fill="#94ef90" /><rect x="3" y="8" width="1" height="1" fill="#94efa0" /><rect x="3" y="9" width="1" height="1" fill="#91ec9f" /><rect x="4" y="0" width="1" height="1" fill="#8fed99" /><rect x="4" y="1" width="1" height="1" fill="#8eed9c" /><rect x="4" y="2" width="1" height="1" fill="#90eb9e" /><rect x="4" y="3" width="1" height="1" fill="#92eb97" /><rect x="4" y="4" width="1" height="1" fill="#92ef87" /><rect x="4" y="5" width="1" height="1" fill="#90f082" /><rect x="4" y="6" width="1" height="1" fill="#8ff085" /><rect x="4" y="7" width="1" height="1" fill="#8cf08e" /><rect x="4" y="8" width="1" height="1" fill="#8df0a0" /><rect x="4" y="9" width="1" height="1" fill="#89eb9e" /><rect x="5" y="0" width="1" height="1" fill="#83ef99" /><rect x="5" y="1" width="1" height="1" fill="#83ee9c" /><rect x="5" y="2" width="1" height="1" fill="#89eb9e" /><rect x="5" y="3" width="1" height="1" fill="#8ceb99" /><rect x="5" y="4" width="1" height="1" fill="#8aee8e" /><rect x="5" y="5" width="1" height="1" fill="#8aef89" /><rect x="5" y="6" width="1" height="1" fill="#8aef87" /><rect x="5" y="7" width="1" height="1" fill="#89ee8e" /><rect x="5" y="8" width="1" height="1" fill="#89f19c" /><rect x="5" y="9" width="1" height="1" fill="#84eb98" /><rect x="6" y="0" width="1" height="1" fill="#71f38f" /><rect x="6" y="1" width="1" height="1" fill="#71f494" /><rect x="6" y="2" width="1" height="1" fill="#7fed97" /><rect x="6" y="3" width="1" height="1" fill="#84e999" /><rect x="6" y="4" width="1" height="1" fill="#83ea99" /><rect x="6" y="5" width="1" height="1" fill="#85eb97" /><rect x="6" y="6" width="1" height="1" fill="#88eb8e" /><rect x="6" y="7" width="1" height="1" fill="#88ec8c" /><rect x="6" y="8" width="1" height="1" fill="#85f092" /><rect x="6" y="9" width="1" height="1" fill="#7fed8e" /><rect x="7" y="0" width="1" height="1" fill="#72f38f" /><rect x="7" y="1" width="1" height="1" fill="#73f394" /><rect x="7" y="2" width="1" height="1" fill="#80eb99" /><rect x="7" y="3" width="1" height="1" fill="#83e99f" /><rect x="7" y="4" width="1" height="1" fill="#7feaa2" /><rect x="7" y="5" width="1" height="1" fill="#7feb9f" /><rect x="7" y="6" width="1" height="1" fill="#83eb94" /><rect x="7" y="7" width="1" height="1" fill="#83ec8f" /><rect x="7" y="8" width="1" height="1" fill="#7aec8c" /><rect x="7" y="9" width="1" height="1" fill="#7aeb8f" /><rect x="8" y="0" width="1" height="1" fill="#83e995" /><rect x="8" y="1" width="1" height="1" fill="#87e899" /><rect x="8" y="2" width="1" height="1" fill="#8ae59f" /><rect x="8" y="3" width="1" height="1" fill="#87e8a5" /><rect x="8" y="4" width="1" height="1" fill="#7beda5" /><rect x="8" y="5" width="1" height="1" fill="#76efa0" /><rect x="8" y="6" width="1" height="1" fill="#79ed98" /><rect x="8" y="7" width="1" height="1" fill="#78ed94" /><rect x="8" y="8" width="1" height="1" fill="#79f19a" /><rect x="8" y="9" width="1" height="1" fill="#79ec9e" /><rect x="9" y="0" width="1" height="1" fill="#89e59c" /><rect x="9" y="1" width="1" height="1" fill="#8ee39f" /><rect x="9" y="2" width="1" height="1" fill="#8be5a8" /><rect x="9" y="3" width="1" height="1" fill="#84e8aa" /><rect x="9" y="4" width="1" height="1" fill="#79eea8" /><rect x="9" y="5" width="1" height="1" fill="#76eea4" /><rect x="9" y="6" width="1" height="1" fill="#7de99d" /><rect x="9" y="7" width="1" height="1" fill="#80e89d" /><rect x="9" y="8" width="1" height="1" fill="#78e19e" /><rect x="9" y="9" width="1" height="1" fill="#91f0b6" /></g></svg>