<svg width="800" height="1000" xmlns="http://www.w3.org/2000/svg"><defs><linearGradient id="g" x1="0" x2="1" y1="0" y2="1"><stop offset="0%" stop-color="#2d3c96"/><stop offset="100%" stop-color="#d53392"/></linearGradient></defs><rect x="10" y="10" width="780" height="980" fill="url(#g)" rx="50" ry="50" stroke="gold" stroke-width="20"/><text x="400" y="920" width="780" text-anchor="middle" style="font:bold 200px 'Helvetica Neue';fill:gold">05334</text><g transform="translate(80 80) scale(64)"><rect x="0" y="0" width="1" height="1" fill="#86e7a4" /><rect x="0" y="1" width="1" height="1" fill="#87e5a7" /><rect x="0" y="2" width="1" height="1" fill="#81e8b1" /><rect x="0" y="3" width="1" height="1" fill="#7bebb3" /><rect x="0" y="4" width="1" height="1" fill="#77eeae" /><rect x="0" y="5" width="1" height="1" fill="#7deaa7" /><rect x="0" y="6" width="1" height="1" fill="#8fe0a5" /><rect x="0" y="7" width="1" height="1" fill="#97daa7" /><rect x="0" y="8" width="1" height="1" fill="#98d6af" /><rect x="0" y="9" width="1" height="1" fill="#9cceb3" /><rect x="1" y="0" width="1" height="1" fill="#81e8b0" /><rect x="1" y="1" width="1" height="1" fill="#7ee9b3" /><rect x="1" y="2" width="1" height="1" fill="#77ebbc" /><rect x="1" y="3" width="1" height="1" fill="#76eabb" /><rect x="1" y="4" width="1" height="1" fill="#7aeab2" /><rect x="1" y="5" width="1" height="1" fill="#8be2ad" /><rect x="1" y="6" width="1" height="1" fill="#a7d4ab" /><rect x="1" y="7" width="1" height="1" fill="#b5ccb0" /><rect x="1" y="8" width="1" height="1" fill="#bdcdc2" /><rect x="1" y="9" width="1" height="1" fill="#babebd" /><rect x="2" y="0" width="1" height="1" fill="#7aebbd" /><rect x="2" y="1" width="1" height="1" fill="#74ecbf" /><rect x="2" y="2" width="1" height="1" fill="#6febc7" /><rect x="2" y="3" width="1" height="1" fill="#76e8c6" /><rect x="2" y="4" width="1" height="1" fill="#86e2b9" /><rect x="2" y="5" width="1" height="1" fill="#a1d8b1" /><rect x="2" y="6" width="1" height="1" fill="#c7c6b1" /><rect x="2" y="7" width="1" height="1" fill="#dabbb8" /><rect x="2" y="8" width="1" height="1" fill="#d5b1bd" /><rect x="2" y="9" width="1" height="1" fill="#e4b8cf" /><rect x="3" y="0" width="1" height="1" fill="#7aeac6" /><rect x="3" y="1" width="1" height="1" fill="#74eac8" /><rect x="3" y="2" width="1" height="1" fill="#71e9d0" /><rect x="3" y="3" width="1" height="1" fill="#79e3cd" /><rect x="3" y="4" width="1" height="1" fill="#8fdbbd" /><rect x="3" y="5" width="1" height="1" fill="#afcfb7" /><rect x="3" y="6" width="1" height="1" fill="#dbbdb3" /><rect x="3" y="7" width="1" height="1" fill="#f0b3ba" /><rect x="3" y="8" width="1" height="1" fill="#f2b4cb" /><rect x="3" y="9" width="1" height="1" fill="#efb0cf" /><rect x="4" y="0" width="1" height="1" fill="#81e4cf" /><rect x="4" y="1" width="1" height="1" fill="#81e6d4" /><rect x="4" y="2" width="1" height="1" fill="#78e0d7" /><rect x="4" y="3" width="1" height="1" fill="#83ded5" /><rect x="4" y="4" width="1" height="1" fill="#97d5c6" /><rect x="4" y="5" width="1" height="1" fill="#b7c9bb" /><rect x="4" y="6" width="1" height="1" fill="#eac1bd" /><rect x="4" y="7" width="1" height="1" fill="#f9b4b9" /><rect x="4" y="8" width="1" height="1" fill="#f1b2c3" /><rect x="4" y="9" width="1" height="1" fill="#f6bfd6" /><rect x="5" y="0" width="1" height="1" fill="#80ddd2" /><rect x="5" y="1" width="1" height="1" fill="#81e1d6" /><rect x="5" y="2" width="1" height="1" fill="#7cdfdc" /><rect x="5" y="3" width="1" height="1" fill="#89dfdc" /><rect x="5" y="4" width="1" height="1" fill="#9bd6d0" /><rect x="5" y="5" width="1" height="1" fill="#bbccc4" /><rect x="5" y="6" width="1" height="1" fill="#eec7c0" /><rect x="5" y="7" width="1" height="1" fill="#fbbebb" /><rect x="5" y="8" width="1" height="1" fill="#f9c4ca" /><rect x="5" y="9" width="1" height="1" fill="#c89da7" /><rect x="6" y="0" width="1" height="1" fill="#7bdcd3" /><rect x="6" y="1" width="1" height="1" fill="#7fe0d7" /><rect x="6" y="2" width="1" height="1" fill="#77deda" /><rect x="6" y="3" width="1" height="1" fill="#82dedb" /><rect x="6" y="4" width="1" height="1" fill="#8fd6d2" /><rect x="6" y="5" width="1" height="1" fill="#adccc6" /><rect x="6" y="6" width="1" height="1" fill="#e4cfbe" /><rect x="6" y="7" width="1" height="1" fill="#f7c9b9" /><rect x="6" y="8" width="1" height="1" fill="#c39d92" /><rect x="6" y="9" width="1" height="1" fill="#140000" /><rect x="7" y="0" width="1" height="1" fill="#7fded8" /><rect x="7" y="1" width="1" height="1" fill="#7ee2d8" /><rect x="7" y="2" width="1" height="1" fill="#76e0d6" /><rect x="7" y="3" width="1" height="1" fill="#7addd8" /><rect x="7" y="4" width="1" height="1" fill="#83d3d2" /><rect x="7" y="5" width="1" height="1" fill="#9fccc5" /><rect x="7" y="6" width="1" height="1" fill="#dad4bc" /><rect x="7" y="7" width="1" height="1" fill="#f4d5b6" /><rect x="7" y="8" width="1" height="1" fill="#af9175" /><rect x="7" y="9" width="1" height="1" fill="#130000" /><rect x="8" y="0" width="1" height="1" fill="#7dd8d1" /><rect x="8" y="1" width="1" height="1" fill="#7cded1" /><rect x="8" y="2" width="1" height="1" fill="#74ded0" /><rect x="8" y="3" width="1" height="1" fill="#78e0d7" /><rect x="8" y="4" width="1" height="1" fill="#7cd7d8" /><rect x="8" y="5" width="1" height="1" fill="#96d3cc" /><rect x="8" y="6" width="1" height="1" fill="#d4debc" /><rect x="8" y="7" width="1" height="1" fill="#f5e0b3" /><rect x="8" y="8" width="1" height="1" fill="#d8bb93" /><rect x="8" y="9" width="1" height="1" fill="#41280a" /><rect x="9" y="0" width="1" height="1" fill="#82cac7" /><rect x="9" y="1" width="1" height="1" fill="#82cfc5" /><rect x="9" y="2" width="1" height="1" fill="#77d4c2" /><rect x="9" y="3" width="1" height="1" fill="#78d9ce" /><rect x="9" y="4" width="1" height="1" fill="#76d5d9" /><rect x="9" y="5" width="1" height="1" fill="#8dd2cd" /><rect x="9" y="6" width="1" height="1" fill="#cbe0b7" /><rect x="9" y="7" width="1" height="1" fill="#efe4ae" /><rect x="9" y="8" width="1" height="1" fill="#f4d8a6" /><rect x="9" y="9" width="1" height="1" fill="#826641" /></g></svg>