<svg width="800" height="1000" xmlns="http://www.w3.org/2000/svg"><defs><linearGradient id="g" x1="0" x2="1" y1="0" y2="1"><stop offset="0%" stop-color="#2d3c96"/><stop offset="100%" stop-color="#d53392"/></linearGradient></defs><rect x="10" y="10" width="780" height="980" fill="url(#g)" rx="50" ry="50" stroke="gold" stroke-width="20"/><text x="400" y="920" width="780" text-anchor="middle" style="font:bold 200px 'Helvetica Neue';fill:gold">05335</text><g transform="translate(80 80) scale(64)"><rect x="0" y="0" width="1" height="1" fill="#acd3d8" /><rect x="0" y="1" width="1" height="1" fill="#a7d1cd" /><rect x="0" y="2" width="1" height="1" fill="#8fcdc0" /><rect x="0" y="3" width="1" height="1" fill="#83d0c8" /><rect x="0" y="4" width="1" height="1" fill="#74cdd5" /><rect x="0" y="5" width="1" height="1" fill="#86ceca" /><rect x="0" y="6" width="1" height="1" fill="#c5e2b4" /><rect x="0" y="7" width="1" height="1" fill="#ede9aa" /><rect x="0" y="8" width="1" height="1" fill="#ffedb4" /><rect x="0" y="9" width="1" height="1" fill="#ac8f67" /><rect x="1" y="0" width="1" height="1" fill="#def6e6" /><rect x="1" y="1" width="1" height="1" fill="#d1e9d1" /><rect x="1" y="2" width="1" height="1" fill="#add8bd" /><rect x="1" y="3" width="1" height="1" fill="#98cfba" /><rect x="1" y="4" width="1" height="1" fill="#85c8c1" /><rect x="1" y="5" width="1" height="1" fill="#91ccba" /><rect x="1" y="6" width="1" height="1" fill="#cae7af" /><rect x="1" y="7" width="1" height="1" fill="#f1f4ad" /><rect x="1" y="8" width="1" height="1" fill="#fbecab" /><rect x="1" y="9" width="1" height="1" fill="#c6b182" /><rect x="2" y="0" width="1" height="1" fill="#cceaaa" /><rect x="2" y="1" width="1" height="1" fill="#e1fbb2" /><rect x="2" y="2" width="1" height="1" fill="#d2efb5" /><rect x="2" y="3" width="1" height="1" fill="#d0f0c1" /><rect x="2" y="4" width="1" height="1" fill="#bedeb7" /><rect x="2" y="5" width="1" height="1" fill="#c1ddad" /><rect x="2" y="6" width="1" height="1" fill="#d9eaa6" /><rect x="2" y="7" width="1" height="1" fill="#e6eea1" /><rect x="2" y="8" width="1" height="1" fill="#f4f4ae" /><rect x="2" y="9" width="1" height="1" fill="#cecd95" /><rect x="3" y="0" width="1" height="1" fill="#d6f6a1" /><rect x="3" y="1" width="1" height="1" fill="#cbe58a" /><rect x="3" y="2" width="1" height="1" fill="#daf1a9" /><rect x="3" y="3" width="1" height="1" fill="#cce0a3" /><rect x="3" y="4" width="1" height="1" fill="#d7e6ad" /><rect x="3" y="5" width="1" height="1" fill="#e0eeb0" /><rect x="3" y="6" width="1" height="1" fill="#d8e699" /><rect x="3" y="7" width="1" height="1" fill="#d7e494" /><rect x="3" y="8" width="1" height="1" fill="#dce79b" /><rect x="3" y="9" width="1" height="1" fill="#d7e1a2" /><rect x="4" y="0" width="1" height="1" fill="#c4e499" /><rect x="4" y="1" width="1" height="1" fill="#d2eb98" /><rect x="4" y="2" width="1" height="1" fill="#d1e8a4" /><rect x="4" y="3" width="1" height="1" fill="#c1d598" /><rect x="4" y="4" width="1" height="1" fill="#d8ecaf" /><rect x="4" y="5" width="1" height="1" fill="#d6e6a5" /><rect x="4" y="6" width="1" height="1" fill="#e1f2a2" /><rect x="4" y="7" width="1" height="1" fill="#cedd8a" /><rect x="4" y="8" width="1" height="1" fill="#dbe99a" /><rect x="4" y="9" width="1" height="1" fill="#cddc97" /><rect x="5" y="0" width="1" height="1" fill="#c7e7a4" /><rect x="5" y="1" width="1" height="1" fill="#c7e19a" /><rect x="5" y="2" width="1" height="1" fill="#869e62" /><rect x="5" y="3" width="1" height="1" fill="#5f763e" /><rect x="5" y="4" width="1" height="1" fill="#899d68" /><rect x="5" y="5" width="1" height="1" fill="#abbe86" /><rect x="5" y="6" width="1" height="1" fill="#c3d696" /><rect x="5" y="7" width="1" height="1" fill="#d3e3a2" /><rect x="5" y="8" width="1" height="1" fill="#d2e2a4" /><rect x="5" y="9" width="1" height="1" fill="#cadda5" /><rect x="6" y="0" width="1" height="1" fill="#badea0" /><rect x="6" y="1" width="1" height="1" fill="#b5d196" /><rect x="6" y="2" width="1" height="1" fill="#000e00" /><rect x="6" y="3" width="1" height="1" fill="#000d00" /><rect x="6" y="4" width="1" height="1" fill="#001300" /><rect x="6" y="5" width="1" height="1" fill="#000b00" /><rect x="6" y="6" width="1" height="1" fill="#435434" /><rect x="6" y="7" width="1" height="1" fill="#5f6f52" /><rect x="6" y="8" width="1" height="1" fill="#88987d" /><rect x="6" y="9" width="1" height="1" fill="#91a488" /><rect x="7" y="0" width="1" height="1" fill="#b6dda6" /><rect x="7" y="1" width="1" height="1" fill="#809c6c" /><rect x="7" y="2" width="1" height="1" fill="#000d00" /><rect x="7" y="3" width="1" height="1" fill="#3e5a31" /><rect x="7" y="4" width="1" height="1" fill="#4d6742" /><rect x="7" y="5" width="1" height="1" fill="#193212" /><rect x="7" y="6" width="1" height="1" fill="#000d00" /><rect x="7" y="7" width="1" height="1" fill="#000b00" /><rect x="7" y="8" width="1" height="1" fill="#000900" /><rect x="7" y="9" width="1" height="1" fill="#000c00" /><rect x="8" y="0" width="1" height="1" fill="#a9d2a8" /><rect x="8" y="1" width="1" height="1" fill="#324d2a" /><rect x="8" y="2" width="1" height="1" fill="#000e00" /><rect x="8" y="3" width="1" height="1" fill="#8bab7a" /><rect x="8" y="4" width="1" height="1" fill="#c2e4b1" /><rect x="8" y="5" width="1" height="1" fill="#b2d4a1" /><rect x="8" y="6" width="1" height="1" fill="#9cbc8d" /><rect x="8" y="7" width="1" height="1" fill="#81a074" /><rect x="8" y="8" width="1" height="1" fill="#5e7d51" /><rect x="8" y="9" width="1" height="1" fill="#537543" /><rect x="9" y="0" width="1" height="1" fill="#77a382" /><rect x="9" y="1" width="1" height="1" fill="#000c00" /><rect x="9" y="2" width="1" height="1" fill="#224316" /><rect x="9" y="3" width="1" height="1" fill="#afd59c" /><rect x="9" y="4" width="1" height="1" fill="#bee7a5" /><rect x="9" y="5" width="1" height="1" fill="#c8f1ad" /><rect x="9" y="6" width="1" height="1" fill="#bee8a8" /><rect x="9" y="7" width="1" height="1" fill="#bfe9a9" /><rect x="9" y="8" width="1" height="1" fill="#c2ecac" /><rect x="9" y="9" width="1" height="1" fill="#b5e39b" /></g></svg>