<svg width="800" height="1000" xmlns="http://www.w3.org/2000/svg"><defs><linearGradient id="g" x1="0" x2="1" y1="0" y2="1"><stop offset="0%" stop-color="#2d3c96"/><stop offset="100%" stop-color="#d53392"/></linearGradient></defs><rect x="10" y="10" width="780" height="980" fill="url(#g)" rx="50" ry="50" stroke="gold" stroke-width="20"/><text x="400" y="920" width="780" text-anchor="middle" style="font:bold 200px 'Helvetica Neue';fill:gold">05331</text><g transform="translate(80 80) scale(64)"><rect x="0" y="0" width="1" height="1" fill="#1d0000" /><rect x="0" y="1" width="1" height="1" fill="#c29d8d" /><rect x="0" y="2" width="1" height="1" fill="#f3c9b9" /><rect x="0" y="3" width="1" height="1" fill="#eebfaf" /><rect x="0" y="4" width="1" height="1" fill="#fcc7b9" /><rect x="0" y="5" width="1" height="1" fill="#ffc5b7" /><rect x="0" y="6" width="1" height="1" fill="#fabfaf" /><rect x="0" y="7" width="1" height="1" fill="#ffc2b0" /><rect x="0" y="8" width="1" height="1" fill="#fdc2b0" /><rect x="0" y="9" width="1" height="1" fill="#fdc2b0" /><rect x="1" y="0" width="1" height="1" fill="#a68069" /><rect x="1" y="1" width="1" height="1" fill="#f1cbb4" /><rect x="1" y="2" width="1" height="1" fill="#f4cab2" /><rect x="1" y="3" width="1" height="1" fill="#fbcbb5" /><rect x="1" y="4" width="1" height="1" fill="#f6c2ac" /><rect x="1" y="5" width="1" height="1" fill="#ffc7b3" /><rect x="1" y="6" width="1" height="1" fill="#fcc2ac" /><rect x="1" y="7" width="1" height="1" fill="#ffc7af" /><rect x="1" y="8" width="1" height="1" fill="#fec6ad" /><rect x="1" y="9" width="1" height="1" fill="#fdc7ad" /><rect x="2" y="0" width="1" height="1" fill="#f6cdaf" /><rect x="2" y="1" width="1" height="1" fill="#f5ceaf" /><rect x="2" y="2" width="1" height="1" fill="#f8cdad" /><rect x="2" y="3" width="1" height="1" fill="#fccbad" /><rect x="2" y="4" width="1" height="1" fill="#ffc9ad" /><rect x="2" y="5" width="1" height="1" fill="#ffc9ab" /><rect x="2" y="6" width="1" height="1" fill="#ffc8ab" /><rect x="2" y="7" width="1" height="1" fill="#ffc8ab" /><rect x="2" y="8" width="1" height="1" fill="#ffc8aa" /><rect x="2" y="9" width="1" height="1" fill="#fec9aa" /><rect x="3" y="0" width="1" height="1" fill="#f9cfa9" /><rect x="3" y="1" width="1" height="1" fill="#f7d0a9" /><rect x="3" y="2" width="1" height="1" fill="#facea7" /><rect x="3" y="3" width="1" height="1" fill="#fdcda7" /><rect x="3" y="4" width="1" height="1" fill="#ffcca7" /><rect x="3" y="5" width="1" height="1" fill="#ffcba7" /><rect x="3" y="6" width="1" height="1" fill="#ffcba7" /><rect x="3" y="7" width="1" height="1" fill="#ffcba5" /><rect x="3" y="8" width="1" height="1" fill="#ffcca5" /><rect x="3" y="9" width="1" height="1" fill="#fecda5" /><rect x="4" y="0" width="1" height="1" fill="#fdd2a5" /><rect x="4" y="1" width="1" height="1" fill="#fcd3a5" /><rect x="4" y="2" width="1" height="1" fill="#fed2a5" /><rect x="4" y="3" width="1" height="1" fill="#ffd1a5" /><rect x="4" y="4" width="1" height="1" fill="#ffd0a5" /><rect x="4" y="5" width="1" height="1" fill="#ffd0a5" /><rect x="4" y="6" width="1" height="1" fill="#ffd0a5" /><rect x="4" y="7" width="1" height="1" fill="#ffd0a5" /><rect x="4" y="8" width="1" height="1" fill="#ffd0a4" /><rect x="4" y="9" width="1" height="1" fill="#ffd0a4" /><rect x="5" y="0" width="1" height="1" fill="#ffd6a2" /><rect x="5" y="1" width="1" height="1" fill="#fed6a2" /><rect x="5" y="2" width="1" height="1" fill="#ffd5a2" /><rect x="5" y="3" width="1" height="1" fill="#ffd4a2" /><rect x="5" y="4" width="1" height="1" fill="#ffd3a2" /><rect x="5" y="5" width="1" height="1" fill="#ffd3a2" /><rect x="5" y="6" width="1" height="1" fill="#ffd3a2" /><rect x="5" y="7" width="1" height="1" fill="#ffd4a2" /><rect x="5" y="8" width="1" height="1" fill="#fed5a1" /><rect x="5" y="9" width="1" height="1" fill="#fed5a1" /><rect x="6" y="0" width="1" height="1" fill="#ffd89d" /><rect x="6" y="1" width="1" height="1" fill="#fdd99d" /><rect x="6" y="2" width="1" height="1" fill="#ffd89d" /><rect x="6" y="3" width="1" height="1" fill="#ffd89d" /><rect x="6" y="4" width="1" height="1" fill="#ffd79d" /><rect x="6" y="5" width="1" height="1" fill="#ffd79d" /><rect x="6" y="6" width="1" height="1" fill="#ffd69f" /><rect x="6" y="7" width="1" height="1" fill="#ffd79f" /><rect x="6" y="8" width="1" height="1" fill="#fdd99f" /><rect x="6" y="9" width="1" height="1" fill="#fcd99f" /><rect x="7" y="0" width="1" height="1" fill="#fedc9d" /><rect x="7" y="1" width="1" height="1" fill="#fedc9c" /><rect x="7" y="2" width="1" height="1" fill="#ffdc9c" /><rect x="7" y="3" width="1" height="1" fill="#ffdb9c" /><rect x="7" y="4" width="1" height="1" fill="#ffda9c" /><rect x="7" y="5" width="1" height="1" fill="#ffdb9d" /><rect x="7" y="6" width="1" height="1" fill="#ffdb9d" /><rect x="7" y="7" width="1" height="1" fill="#fedc9d" /><rect x="7" y="8" width="1" height="1" fill="#fcdd9d" /><rect x="7" y="9" width="1" height="1" fill="#fbdd9d" /><rect x="8" y="0" width="1" height="1" fill="#ffe09d" /><rect x="8" y="1" width="1" height="1" fill="#ffe09d" /><rect x="8" y="2" width="1" height="1" fill="#ffe09d" /><rect x="8" y="3" width="1" height="1" fill="#ffdf9d" /><rect x="8" y="4" width="1" height="1" fill="#ffdf9d" /><rect x="8" y="5" width="1" height="1" fill="#ffdf9f" /><rect x="8" y="6" width="1" height="1" fill="#ffdf9f" /><rect x="8" y="7" width="1" height="1" fill="#fee19f" /><rect x="8" y="8" width="1" height="1" fill="#fce19e" /><rect x="8" y="9" width="1" height="1" fill="#fae19e" /><rect x="9" y="0" width="1" height="1" fill="#ffe39a" /><rect x="9" y="1" width="1" height="1" fill="#ffe399" /><rect x="9" y="2" width="1" height="1" fill="#ffe399" /><rect x="9" y="3" width="1" height="1" fill="#ffe399" /><rect x="9" y="4" width="1" height="1" fill="#fee499" /><rect x="9" y="5" width="1" height="1" fill="#fee49a" /><rect x="9" y="6" width="1" height="1" fill="#fce49a" /><rect x="9" y="7" width="1" height="1" fill="#fbe59a" /><rect x="9" y="8" width="1" height="1" fill="#fbe59c" /><rect x="9" y="9" width="1" height="1" fill="#fbe59c" /></g></svg>