<svg width="800" height="1000" xmlns="http://www.w3.org/2000/svg"><defs><linearGradient id="g" x1="0" x2="1" y1="0" y2="1"><stop offset="0%" stop-color="#2d3c96"/><stop offset="100%" stop-color="#d53392"/></linearGradient></defs><rect x="10" y="10" width="780" height="980" fill="url(#g)" rx="50" ry="50" stroke="gold" stroke-width="20"/><text x="400" y="920" width="780" text-anchor="middle" style="font:bold 200px 'Helvetica Neue';fill:gold">05428</text><g transform="translate(80 80) scale(64)"><rect x="0" y="0" width="1" height="1" fill="#97aaee" /><rect x="0" y="1" width="1" height="1" fill="#9bace2" /><rect x="0" y="2" width="1" height="1" fill="#6e7b9e" /><rect x="0" y="3" width="1" height="1" fill="#070c1f" /><rect x="0" y="4" width="1" height="1" fill="#696468" /><rect x="0" y="5" width="1" height="1" fill="#c4b7ae" /><rect x="0" y="6" width="1" height="1" fill="#4e3d2b" /><rect x="0" y="7" width="1" height="1" fill="#120000" /><rect x="0" y="8" width="1" height="1" fill="#3a1f04" /><rect x="0" y="9" width="1" height="1" fill="#c2a384" /><rect x="1" y="0" width="1" height="1" fill="#aab8f5" /><rect x="1" y="1" width="1" height="1" fill="#a6b5e0" /><rect x="1" y="2" width="1" height="1" fill="#4e5a72" /><rect x="1" y="3" width="1" height="1" fill="#000209" /><rect x="1" y="4" width="1" height="1" fill="#62635d" /><rect x="1" y="5" width="1" height="1" fill="#3f3929" /><rect x="1" y="6" width="1" height="1" fill="#0b0000" /><rect x="1" y="7" width="1" height="1" fill="#635030" /><rect x="1" y="8" width="1" height="1" fill="#ccb28f" /><rect x="1" y="9" width="1" height="1" fill="#ffdeb5" /><rect x="2" y="0" width="1" height="1" fill="#a4afe5" /><rect x="2" y="1" width="1" height="1" fill="#95a2c5" /><rect x="2" y="2" width="1" height="1" fill="#1c2a35" /><rect x="2" y="3" width="1" height="1" fill="#000b05" /><rect x="2" y="4" width="1" height="1" fill="#141809" /><rect x="2" y="5" width="1" height="1" fill="#060400" /><rect x="2" y="6" width="1" height="1" fill="#6a6140" /><rect x="2" y="7" width="1" height="1" fill="#c7b88f" /><rect x="2" y="8" width="1" height="1" fill="#ffeec0" /><rect x="2" y="9" width="1" height="1" fill="#ffe3b0" /><rect x="3" y="0" width="1" height="1" fill="#a7b1e4" /><rect x="3" y="1" width="1" height="1" fill="#8391ac" /><rect x="3" y="2" width="1" height="1" fill="#000405" /><rect x="3" y="3" width="1" height="1" fill="#000600" /><rect x="3" y="4" width="1" height="1" fill="#080f00" /><rect x="3" y="5" width="1" height="1" fill="#76774f" /><rect x="3" y="6" width="1" height="1" fill="#e4e0b1" /><rect x="3" y="7" width="1" height="1" fill="#f4e8b4" /><rect x="3" y="8" width="1" height="1" fill="#f3e0a6" /><rect x="3" y="9" width="1" height="1" fill="#f4dc9c" /><rect x="4" y="0" width="1" height="1" fill="#afb9ec" /><rect x="4" y="1" width="1" height="1" fill="#6e7c96" /><rect x="4" y="2" width="1" height="1" fill="#000500" /><rect x="4" y="3" width="1" height="1" fill="#263113" /><rect x="4" y="4" width="1" height="1" fill="#9aa074" /><rect x="4" y="5" width="1" height="1" fill="#ebecb3" /><rect x="4" y="6" width="1" height="1" fill="#eae9a9" /><rect x="4" y="7" width="1" height="1" fill="#f5f0ac" /><rect x="4" y="8" width="1" height="1" fill="#f7efa7" /><rect x="4" y="9" width="1" height="1" fill="#f4e89c" /><rect x="5" y="0" width="1" height="1" fill="#a9b3e8" /><rect x="5" y="1" width="1" height="1" fill="#3e4c66" /><rect x="5" y="2" width="1" height="1" fill="#000b01" /><rect x="5" y="3" width="1" height="1" fill="#949f77" /><rect x="5" y="4" width="1" height="1" fill="#f0f1b8" /><rect x="5" y="5" width="1" height="1" fill="#e9e6a1" /><rect x="5" y="6" width="1" height="1" fill="#e6e79b" /><rect x="5" y="7" width="1" height="1" fill="#e9ea9a" /><rect x="5" y="8" width="1" height="1" fill="#ecee9a" /><rect x="5" y="9" width="1" height="1" fill="#ecec96" /><rect x="6" y="0" width="1" height="1" fill="#8f9ad0" /><rect x="6" y="1" width="1" height="1" fill="#00011c" /><rect x="6" y="2" width="1" height="1" fill="#000b00" /><rect x="6" y="3" width="1" height="1" fill="#bfc798" /><rect x="6" y="4" width="1" height="1" fill="#e8e5a2" /><rect x="6" y="5" width="1" height="1" fill="#ede695" /><rect x="6" y="6" width="1" height="1" fill="#eded95" /><rect x="6" y="7" width="1" height="1" fill="#dee387" /><rect x="6" y="8" width="1" height="1" fill="#d9e285" /><rect x="6" y="9" width="1" height="1" fill="#e3ee90" /><rect x="7" y="0" width="1" height="1" fill="#818cb9" /><rect x="7" y="1" width="1" height="1" fill="#000213" /><rect x="7" y="2" width="1" height="1" fill="#606d5b" /><rect x="7" y="3" width="1" height="1" fill="#cfd6aa" /><rect x="7" y="4" width="1" height="1" fill="#f3f2b2" /><rect x="7" y="5" width="1" height="1" fill="#dfdb91" /><rect x="7" y="6" width="1" height="1" fill="#d8db8c" /><rect x="7" y="7" width="1" height="1" fill="#dfe993" /><rect x="7" y="8" width="1" height="1" fill="#dded94" /><rect x="7" y="9" width="1" height="1" fill="#d4e98e" /><rect x="8" y="0" width="1" height="1" fill="#5e6679" /><rect x="8" y="1" width="1" height="1" fill="#000304" /><rect x="8" y="2" width="1" height="1" fill="#899581" /><rect x="8" y="3" width="1" height="1" fill="#dfebc7" /><rect x="8" y="4" width="1" height="1" fill="#afb88b" /><rect x="8" y="5" width="1" height="1" fill="#7a8050" /><rect x="8" y="6" width="1" height="1" fill="#3b3e0f" /><rect x="8" y="7" width="1" height="1" fill="#7e8951" /><rect x="8" y="8" width="1" height="1" fill="#c4db95" /><rect x="8" y="9" width="1" height="1" fill="#cae999" /><rect x="9" y="0" width="1" height="1" fill="#0d111a" /><rect x="9" y="1" width="1" height="1" fill="#000300" /><rect x="9" y="2" width="1" height="1" fill="#9ea697" /><rect x="9" y="3" width="1" height="1" fill="#868f7a" /><rect x="9" y="4" width="1" height="1" fill="#000800" /><rect x="9" y="5" width="1" height="1" fill="#000800" /><rect x="9" y="6" width="1" height="1" fill="#000400" /><rect x="9" y="7" width="1" height="1" fill="#000600" /><rect x="9" y="8" width="1" height="1" fill="#a3b988" /><rect x="9" y="9" width="1" height="1" fill="#ceecb0" /></g></svg>