<svg width="800" height="1000" xmlns="http://www.w3.org/2000/svg"><defs><linearGradient id="g" x1="0" x2="1" y1="0" y2="1"><stop offset="0%" stop-color="#2d3c96"/><stop offset="100%" stop-color="#d53392"/></linearGradient></defs><rect x="10" y="10" width="780" height="980" fill="url(#g)" rx="50" ry="50" stroke="gold" stroke-width="20"/><text x="400" y="920" width="780" text-anchor="middle" style="font:bold 200px 'Helvetica Neue';fill:gold">05429</text><g transform="translate(80 80) scale(64)"><rect x="0" y="0" width="1" height="1" fill="#0a0813" /><rect x="0" y="1" width="1" height="1" fill="#353537" /><rect x="0" y="2" width="1" height="1" fill="#40403e" /><rect x="0" y="3" width="1" height="1" fill="#070803" /><rect x="0" y="4" width="1" height="1" fill="#000000" /><rect x="0" y="5" width="1" height="1" fill="#656563" /><rect x="0" y="6" width="1" height="1" fill="#595a55" /><rect x="0" y="7" width="1" height="1" fill="#000300" /><rect x="0" y="8" width="1" height="1" fill="#8b977f" /><rect x="0" y="9" width="1" height="1" fill="#b1c2a2" /><rect x="1" y="0" width="1" height="1" fill="#0b0312" /><rect x="1" y="1" width="1" height="1" fill="#1c141f" /><rect x="1" y="2" width="1" height="1" fill="#040007" /><rect x="1" y="3" width="1" height="1" fill="#372f3e" /><rect x="1" y="4" width="1" height="1" fill="#90879a" /><rect x="1" y="5" width="1" height="1" fill="#b3acbc" /><rect x="1" y="6" width="1" height="1" fill="#66656d" /><rect x="1" y="7" width="1" height="1" fill="#000004" /><rect x="1" y="8" width="1" height="1" fill="#030502" /><rect x="1" y="9" width="1" height="1" fill="#000200" /><rect x="2" y="0" width="1" height="1" fill="#0a000c" /><rect x="2" y="1" width="1" height="1" fill="#140518" /><rect x="2" y="2" width="1" height="1" fill="#584862" /><rect x="2" y="3" width="1" height="1" fill="#a796b6" /><rect x="2" y="4" width="1" height="1" fill="#cbb9e1" /><rect x="2" y="5" width="1" height="1" fill="#c5b5d9" /><rect x="2" y="6" width="1" height="1" fill="#4c475d" /><rect x="2" y="7" width="1" height="1" fill="#00000c" /><rect x="2" y="8" width="1" height="1" fill="#373040" /><rect x="2" y="9" width="1" height="1" fill="#4d4253" /><rect x="3" y="0" width="1" height="1" fill="#100010" /><rect x="3" y="1" width="1" height="1" fill="#7b6480" /><rect x="3" y="2" width="1" height="1" fill="#d1b9dd" /><rect x="3" y="3" width="1" height="1" fill="#d3b9e6" /><rect x="3" y="4" width="1" height="1" fill="#c8ade2" /><rect x="3" y="5" width="1" height="1" fill="#c0aad9" /><rect x="3" y="6" width="1" height="1" fill="#443e58" /><rect x="3" y="7" width="1" height="1" fill="#040013" /><rect x="3" y="8" width="1" height="1" fill="#9587a1" /><rect x="3" y="9" width="1" height="1" fill="#cfbadb" /><rect x="4" y="0" width="1" height="1" fill="#a081a0" /><rect x="4" y="1" width="1" height="1" fill="#d5b6d8" /><rect x="4" y="2" width="1" height="1" fill="#cfaed9" /><rect x="4" y="3" width="1" height="1" fill="#c8a6d9" /><rect x="4" y="4" width="1" height="1" fill="#d4b1eb" /><rect x="4" y="5" width="1" height="1" fill="#b399c9" /><rect x="4" y="6" width="1" height="1" fill="#140c23" /><rect x="4" y="7" width="1" height="1" fill="#050110" /><rect x="4" y="8" width="1" height="1" fill="#ac97b6" /><rect x="4" y="9" width="1" height="1" fill="#d7b7e0" /><rect x="5" y="0" width="1" height="1" fill="#d7b4d5" /><rect x="5" y="1" width="1" height="1" fill="#d1add3" /><rect x="5" y="2" width="1" height="1" fill="#d2add9" /><rect x="5" y="3" width="1" height="1" fill="#d8b2e5" /><rect x="5" y="4" width="1" height="1" fill="#d3ace3" /><rect x="5" y="5" width="1" height="1" fill="#ba9dcb" /><rect x="5" y="6" width="1" height="1" fill="#0c0314" /><rect x="5" y="7" width="1" height="1" fill="#251d2a" /><rect x="5" y="8" width="1" height="1" fill="#bea3c2" /><rect x="5" y="9" width="1" height="1" fill="#d9b2de" /><rect x="6" y="0" width="1" height="1" fill="#d5abd1" /><rect x="6" y="1" width="1" height="1" fill="#dab0d6" /><rect x="6" y="2" width="1" height="1" fill="#deb5dd" /><rect x="6" y="3" width="1" height="1" fill="#cea5cf" /><rect x="6" y="4" width="1" height="1" fill="#dab0de" /><rect x="6" y="5" width="1" height="1" fill="#a788aa" /><rect x="6" y="6" width="1" height="1" fill="#070007" /><rect x="6" y="7" width="1" height="1" fill="#594d57" /><rect x="6" y="8" width="1" height="1" fill="#c9aac9" /><rect x="6" y="9" width="1" height="1" fill="#e2b5e0" /><rect x="7" y="0" width="1" height="1" fill="#d6a8cf" /><rect x="7" y="1" width="1" height="1" fill="#d8aacf" /><rect x="7" y="2" width="1" height="1" fill="#dbadd1" /><rect x="7" y="3" width="1" height="1" fill="#ddb1d4" /><rect x="7" y="4" width="1" height="1" fill="#e9bde0" /><rect x="7" y="5" width="1" height="1" fill="#9e7a94" /><rect x="7" y="6" width="1" height="1" fill="#0f0008" /><rect x="7" y="7" width="1" height="1" fill="#7b6773" /><rect x="7" y="8" width="1" height="1" fill="#d3accb" /><rect x="7" y="9" width="1" height="1" fill="#dca9d4" /><rect x="8" y="0" width="1" height="1" fill="#e0acd3" /><rect x="8" y="1" width="1" height="1" fill="#e0acd0" /><rect x="8" y="2" width="1" height="1" fill="#ddaac9" /><rect x="8" y="3" width="1" height="1" fill="#e4b2cd" /><rect x="8" y="4" width="1" height="1" fill="#e1afc8" /><rect x="8" y="5" width="1" height="1" fill="#774d61" /><rect x="8" y="6" width="1" height="1" fill="#120004" /><rect x="8" y="7" width="1" height="1" fill="#99798e" /><rect x="8" y="8" width="1" height="1" fill="#e4b6da" /><rect x="8" y="9" width="1" height="1" fill="#dca3d0" /><rect x="9" y="0" width="1" height="1" fill="#eab0d8" /><rect x="9" y="1" width="1" height="1" fill="#e9b0d3" /><rect x="9" y="2" width="1" height="1" fill="#e3abc8" /><rect x="9" y="3" width="1" height="1" fill="#e5adc6" /><rect x="9" y="4" width="1" height="1" fill="#dba4b9" /><rect x="9" y="5" width="1" height="1" fill="#7c495c" /><rect x="9" y="6" width="1" height="1" fill="#24000d" /><rect x="9" y="7" width="1" height="1" fill="#ab8199" /><rect x="9" y="8" width="1" height="1" fill="#eeb8da" /><rect x="9" y="9" width="1" height="1" fill="#edaed9" /></g></svg>