<svg width="800" height="1000" xmlns="http://www.w3.org/2000/svg"><defs><linearGradient id="g" x1="0" x2="1" y1="0" y2="1"><stop offset="0%" stop-color="#2d3c96"/><stop offset="100%" stop-color="#d53392"/></linearGradient></defs><rect x="10" y="10" width="780" height="980" fill="url(#g)" rx="50" ry="50" stroke="gold" stroke-width="20"/><text x="400" y="920" width="780" text-anchor="middle" style="font:bold 200px 'Helvetica Neue';fill:gold">05427</text><g transform="translate(80 80) scale(64)"><rect x="0" y="0" width="1" height="1" fill="#784e5a" /><rect x="0" y="1" width="1" height="1" fill="#150000" /><rect x="0" y="2" width="1" height="1" fill="#140003" /><rect x="0" y="3" width="1" height="1" fill="#241518" /><rect x="0" y="4" width="1" height="1" fill="#150b0c" /><rect x="0" y="5" width="1" height="1" fill="#685352" /><rect x="0" y="6" width="1" height="1" fill="#f1bdbf" /><rect x="0" y="7" width="1" height="1" fill="#fdb9ba" /><rect x="0" y="8" width="1" height="1" fill="#fdb9b8" /><rect x="0" y="9" width="1" height="1" fill="#febab7" /><rect x="1" y="0" width="1" height="1" fill="#0b000b" /><rect x="1" y="1" width="1" height="1" fill="#251c2f" /><rect x="1" y="2" width="1" height="1" fill="#8a8798" /><rect x="1" y="3" width="1" height="1" fill="#757581" /><rect x="1" y="4" width="1" height="1" fill="#000004" /><rect x="1" y="5" width="1" height="1" fill="#574747" /><rect x="1" y="6" width="1" height="1" fill="#f1bdbf" /><rect x="1" y="7" width="1" height="1" fill="#feb8ba" /><rect x="1" y="8" width="1" height="1" fill="#feb8b8" /><rect x="1" y="9" width="1" height="1" fill="#febab7" /><rect x="2" y="0" width="1" height="1" fill="#334569" /><rect x="2" y="1" width="1" height="1" fill="#7992bb" /><rect x="2" y="2" width="1" height="1" fill="#a0b9e2" /><rect x="2" y="3" width="1" height="1" fill="#7c8faf" /><rect x="2" y="4" width="1" height="1" fill="#00010c" /><rect x="2" y="5" width="1" height="1" fill="#4b3b3c" /><rect x="2" y="6" width="1" height="1" fill="#e9b2b7" /><rect x="2" y="7" width="1" height="1" fill="#ffb9bd" /><rect x="2" y="8" width="1" height="1" fill="#ffbabb" /><rect x="2" y="9" width="1" height="1" fill="#ffbcba" /><rect x="3" y="0" width="1" height="1" fill="#7397c7" /><rect x="3" y="1" width="1" height="1" fill="#86b1e8" /><rect x="3" y="2" width="1" height="1" fill="#96b9f1" /><rect x="3" y="3" width="1" height="1" fill="#7b92be" /><rect x="3" y="4" width="1" height="1" fill="#000010" /><rect x="3" y="5" width="1" height="1" fill="#493638" /><rect x="3" y="6" width="1" height="1" fill="#ecb5b8" /><rect x="3" y="7" width="1" height="1" fill="#ffb7ba" /><rect x="3" y="8" width="1" height="1" fill="#fbb5b5" /><rect x="3" y="9" width="1" height="1" fill="#fab9b7" /><rect x="4" y="0" width="1" height="1" fill="#8ab1ea" /><rect x="4" y="1" width="1" height="1" fill="#8ab2f0" /><rect x="4" y="2" width="1" height="1" fill="#8fade9" /><rect x="4" y="3" width="1" height="1" fill="#7384b0" /><rect x="4" y="4" width="1" height="1" fill="#00000e" /><rect x="4" y="5" width="1" height="1" fill="#634e4d" /><rect x="4" y="6" width="1" height="1" fill="#e8b5b4" /><rect x="4" y="7" width="1" height="1" fill="#ffc7c5" /><rect x="4" y="8" width="1" height="1" fill="#f4b9b5" /><rect x="4" y="9" width="1" height="1" fill="#f3beb8" /><rect x="5" y="0" width="1" height="1" fill="#80a7e8" /><rect x="5" y="1" width="1" height="1" fill="#8eb3f9" /><rect x="5" y="2" width="1" height="1" fill="#92abeb" /><rect x="5" y="3" width="1" height="1" fill="#737eab" /><rect x="5" y="4" width="1" height="1" fill="#03000b" /><rect x="5" y="5" width="1" height="1" fill="#795f5e" /><rect x="5" y="6" width="1" height="1" fill="#f5c6c0" /><rect x="5" y="7" width="1" height="1" fill="#f7c0b9" /><rect x="5" y="8" width="1" height="1" fill="#f0bfb8" /><rect x="5" y="9" width="1" height="1" fill="#f3c8c1" /><rect x="6" y="0" width="1" height="1" fill="#89aff8" /><rect x="6" y="1" width="1" height="1" fill="#8caef8" /><rect x="6" y="2" width="1" height="1" fill="#90a3e5" /><rect x="6" y="3" width="1" height="1" fill="#6f729f" /><rect x="6" y="4" width="1" height="1" fill="#070009" /><rect x="6" y="5" width="1" height="1" fill="#927672" /><rect x="6" y="6" width="1" height="1" fill="#f1c6bf" /><rect x="6" y="7" width="1" height="1" fill="#e4b5ab" /><rect x="6" y="8" width="1" height="1" fill="#eec8bd" /><rect x="6" y="9" width="1" height="1" fill="#e9cbc0" /><rect x="7" y="0" width="1" height="1" fill="#8aaffd" /><rect x="7" y="1" width="1" height="1" fill="#8da8f5" /><rect x="7" y="2" width="1" height="1" fill="#93a1e0" /><rect x="7" y="3" width="1" height="1" fill="#4c4b75" /><rect x="7" y="4" width="1" height="1" fill="#0a0007" /><rect x="7" y="5" width="1" height="1" fill="#ae928e" /><rect x="7" y="6" width="1" height="1" fill="#edc9bd" /><rect x="7" y="7" width="1" height="1" fill="#f0cbbb" /><rect x="7" y="8" width="1" height="1" fill="#ebcbbc" /><rect x="7" y="9" width="1" height="1" fill="#6d5344" /><rect x="8" y="0" width="1" height="1" fill="#8aaaf7" /><rect x="8" y="1" width="1" height="1" fill="#9eb6fe" /><rect x="8" y="2" width="1" height="1" fill="#99a3de" /><rect x="8" y="3" width="1" height="1" fill="#201e43" /><rect x="8" y="4" width="1" height="1" fill="#0b0008" /><rect x="8" y="5" width="1" height="1" fill="#bea7a1" /><rect x="8" y="6" width="1" height="1" fill="#e8cbbd" /><rect x="8" y="7" width="1" height="1" fill="#e3c4b2" /><rect x="8" y="8" width="1" height="1" fill="#6c513e" /><rect x="8" y="9" width="1" height="1" fill="#230a00" /><rect x="9" y="0" width="1" height="1" fill="#95affa" /><rect x="9" y="1" width="1" height="1" fill="#9fb2f4" /><rect x="9" y="2" width="1" height="1" fill="#7b85b6" /><rect x="9" y="3" width="1" height="1" fill="#010220" /><rect x="9" y="4" width="1" height="1" fill="#382d35" /><rect x="9" y="5" width="1" height="1" fill="#d8c5be" /><rect x="9" y="6" width="1" height="1" fill="#d4bdad" /><rect x="9" y="7" width="1" height="1" fill="#5f442f" /><rect x="9" y="8" width="1" height="1" fill="#150000" /><rect x="9" y="9" width="1" height="1" fill="#1b0100" /></g></svg>