<svg width="800" height="1000" xmlns="http://www.w3.org/2000/svg"><defs><linearGradient id="g" x1="0" x2="1" y1="0" y2="1"><stop offset="0%" stop-color="#2d3c96"/><stop offset="100%" stop-color="#d53392"/></linearGradient></defs><rect x="10" y="10" width="780" height="980" fill="url(#g)" rx="50" ry="50" stroke="gold" stroke-width="20"/><text x="400" y="920" width="780" text-anchor="middle" style="font:bold 200px 'Helvetica Neue';fill:gold">05430</text><g transform="translate(80 80) scale(64)"><rect x="0" y="0" width="1" height="1" fill="#eeacd0" /><rect x="0" y="1" width="1" height="1" fill="#e8a8ca" /><rect x="0" y="2" width="1" height="1" fill="#eaabc8" /><rect x="0" y="3" width="1" height="1" fill="#ebadc6" /><rect x="0" y="4" width="1" height="1" fill="#f1b3c8" /><rect x="0" y="5" width="1" height="1" fill="#c2879b" /><rect x="0" y="6" width="1" height="1" fill="#b57d96" /><rect x="0" y="7" width="1" height="1" fill="#e5adca" /><rect x="0" y="8" width="1" height="1" fill="#ebaecf" /><rect x="0" y="9" width="1" height="1" fill="#eba7ce" /><rect x="1" y="0" width="1" height="1" fill="#f3acce" /><rect x="1" y="1" width="1" height="1" fill="#eaa4c6" /><rect x="1" y="2" width="1" height="1" fill="#f1accb" /><rect x="1" y="3" width="1" height="1" fill="#eca7c4" /><rect x="1" y="4" width="1" height="1" fill="#fab6cf" /><rect x="1" y="5" width="1" height="1" fill="#f4b0c9" /><rect x="1" y="6" width="1" height="1" fill="#f3aeca" /><rect x="1" y="7" width="1" height="1" fill="#f0abc8" /><rect x="1" y="8" width="1" height="1" fill="#eaa5c2" /><rect x="1" y="9" width="1" height="1" fill="#f2abc9" /><rect x="2" y="0" width="1" height="1" fill="#faadcd" /><rect x="2" y="1" width="1" height="1" fill="#f3a8c9" /><rect x="2" y="2" width="1" height="1" fill="#f9aecf" /><rect x="2" y="3" width="1" height="1" fill="#eda2c3" /><rect x="2" y="4" width="1" height="1" fill="#f5aac9" /><rect x="2" y="5" width="1" height="1" fill="#f5aac8" /><rect x="2" y="6" width="1" height="1" fill="#fcadca" /><rect x="2" y="7" width="1" height="1" fill="#f6a8c2" /><rect x="2" y="8" width="1" height="1" fill="#f5acc0" /><rect x="2" y="9" width="1" height="1" fill="#f2a9bd" /><rect x="3" y="0" width="1" height="1" fill="#fcacc7" /><rect x="3" y="1" width="1" height="1" fill="#f7a7c4" /><rect x="3" y="2" width="1" height="1" fill="#fdaecd" /><rect x="3" y="3" width="1" height="1" fill="#f5a6c5" /><rect x="3" y="4" width="1" height="1" fill="#fcadcc" /><rect x="3" y="5" width="1" height="1" fill="#f8a8c5" /><rect x="3" y="6" width="1" height="1" fill="#f9a6c2" /><rect x="3" y="7" width="1" height="1" fill="#f9a7be" /><rect x="3" y="8" width="1" height="1" fill="#ffb1c4" /><rect x="3" y="9" width="1" height="1" fill="#f6a9bb" /><rect x="4" y="0" width="1" height="1" fill="#feabbd" /><rect x="4" y="1" width="1" height="1" fill="#feabbf" /><rect x="4" y="2" width="1" height="1" fill="#fdabc1" /><rect x="4" y="3" width="1" height="1" fill="#fdabc2" /><rect x="4" y="4" width="1" height="1" fill="#fdabc2" /><rect x="4" y="5" width="1" height="1" fill="#fdabc2" /><rect x="4" y="6" width="1" height="1" fill="#fcaac0" /><rect x="4" y="7" width="1" height="1" fill="#fdabc1" /><rect x="4" y="8" width="1" height="1" fill="#ffaec4" /><rect x="4" y="9" width="1" height="1" fill="#f9a5bc" /><rect x="5" y="0" width="1" height="1" fill="#ffaeba" /><rect x="5" y="1" width="1" height="1" fill="#ffaebc" /><rect x="5" y="2" width="1" height="1" fill="#ffaebd" /><rect x="5" y="3" width="1" height="1" fill="#ffaebd" /><rect x="5" y="4" width="1" height="1" fill="#ffaebf" /><rect x="5" y="5" width="1" height="1" fill="#ffaebf" /><rect x="5" y="6" width="1" height="1" fill="#ffaebf" /><rect x="5" y="7" width="1" height="1" fill="#feadbe" /><rect x="5" y="8" width="1" height="1" fill="#ffb0c1" /><rect x="5" y="9" width="1" height="1" fill="#fca9bd" /><rect x="6" y="0" width="1" height="1" fill="#ffb2ba" /><rect x="6" y="1" width="1" height="1" fill="#ffb2bc" /><rect x="6" y="2" width="1" height="1" fill="#feb2bc" /><rect x="6" y="3" width="1" height="1" fill="#feb2be" /><rect x="6" y="4" width="1" height="1" fill="#ffb1bf" /><rect x="6" y="5" width="1" height="1" fill="#ffb1bf" /><rect x="6" y="6" width="1" height="1" fill="#ffb3c0" /><rect x="6" y="7" width="1" height="1" fill="#fcaebb" /><rect x="6" y="8" width="1" height="1" fill="#ffb4be" /><rect x="6" y="9" width="1" height="1" fill="#fdb0ba" /><rect x="7" y="0" width="1" height="1" fill="#feb6b9" /><rect x="7" y="1" width="1" height="1" fill="#feb6ba" /><rect x="7" y="2" width="1" height="1" fill="#fdb6ba" /><rect x="7" y="3" width="1" height="1" fill="#fdb6bc" /><rect x="7" y="4" width="1" height="1" fill="#feb5bc" /><rect x="7" y="5" width="1" height="1" fill="#feb5bc" /><rect x="7" y="6" width="1" height="1" fill="#ffb7be" /><rect x="7" y="7" width="1" height="1" fill="#f9b1b5" /><rect x="7" y="8" width="1" height="1" fill="#ffb7b8" /><rect x="7" y="9" width="1" height="1" fill="#feb6b7" /><rect x="8" y="0" width="1" height="1" fill="#febab7" /><rect x="8" y="1" width="1" height="1" fill="#fcbbb9" /><rect x="8" y="2" width="1" height="1" fill="#fcbbb9" /><rect x="8" y="3" width="1" height="1" fill="#fcbabb" /><rect x="8" y="4" width="1" height="1" fill="#febabb" /><rect x="8" y="5" width="1" height="1" fill="#febabb" /><rect x="8" y="6" width="1" height="1" fill="#ffbabc" /><rect x="8" y="7" width="1" height="1" fill="#f9b5b2" /><rect x="8" y="8" width="1" height="1" fill="#fdbab1" /><rect x="8" y="9" width="1" height="1" fill="#febcb0" /><rect x="9" y="0" width="1" height="1" fill="#fbbfb4" /><rect x="9" y="1" width="1" height="1" fill="#fbbfb5" /><rect x="9" y="2" width="1" height="1" fill="#fbbfb5" /><rect x="9" y="3" width="1" height="1" fill="#fdbeb7" /><rect x="9" y="4" width="1" height="1" fill="#fdbeb7" /><rect x="9" y="5" width="1" height="1" fill="#febdb7" /><rect x="9" y="6" width="1" height="1" fill="#febdb7" /><rect x="9" y="7" width="1" height="1" fill="#fcbcb2" /><rect x="9" y="8" width="1" height="1" fill="#f9bfab" /><rect x="9" y="9" width="1" height="1" fill="#fdc0ab" /></g></svg>