<svg width="800" height="1000" xmlns="http://www.w3.org/2000/svg"><defs><linearGradient id="g" x1="0" x2="1" y1="0" y2="1"><stop offset="0%" stop-color="#2d3c96"/><stop offset="100%" stop-color="#d53392"/></linearGradient></defs><rect x="10" y="10" width="780" height="980" fill="url(#g)" rx="50" ry="50" stroke="gold" stroke-width="20"/><text x="400" y="920" width="780" text-anchor="middle" style="font:bold 200px 'Helvetica Neue';fill:gold">05432</text><g transform="translate(80 80) scale(64)"><rect x="0" y="0" width="1" height="1" fill="#ffe79d" /><rect x="0" y="1" width="1" height="1" fill="#ffe59c" /><rect x="0" y="2" width="1" height="1" fill="#ffe399" /><rect x="0" y="3" width="1" height="1" fill="#ffe896" /><rect x="0" y="4" width="1" height="1" fill="#ffeb91" /><rect x="0" y="5" width="1" height="1" fill="#fde98a" /><rect x="0" y="6" width="1" height="1" fill="#ffea8d" /><rect x="0" y="7" width="1" height="1" fill="#feea93" /><rect x="0" y="8" width="1" height="1" fill="#fbea9a" /><rect x="0" y="9" width="1" height="1" fill="#fcea9e" /><rect x="1" y="0" width="1" height="1" fill="#fee799" /><rect x="1" y="1" width="1" height="1" fill="#ffe69b" /><rect x="1" y="2" width="1" height="1" fill="#fde698" /><rect x="1" y="3" width="1" height="1" fill="#fee996" /><rect x="1" y="4" width="1" height="1" fill="#fbec8d" /><rect x="1" y="5" width="1" height="1" fill="#f7eb89" /><rect x="1" y="6" width="1" height="1" fill="#f8ee8f" /><rect x="1" y="7" width="1" height="1" fill="#f7ec92" /><rect x="1" y="8" width="1" height="1" fill="#f6ea96" /><rect x="1" y="9" width="1" height="1" fill="#f6e99a" /><rect x="2" y="0" width="1" height="1" fill="#f7e895" /><rect x="2" y="1" width="1" height="1" fill="#f9e898" /><rect x="2" y="2" width="1" height="1" fill="#f6e698" /><rect x="2" y="3" width="1" height="1" fill="#f3e896" /><rect x="2" y="4" width="1" height="1" fill="#f0ea94" /><rect x="2" y="5" width="1" height="1" fill="#f0ea92" /><rect x="2" y="6" width="1" height="1" fill="#efe991" /><rect x="2" y="7" width="1" height="1" fill="#efe993" /><rect x="2" y="8" width="1" height="1" fill="#efe796" /><rect x="2" y="9" width="1" height="1" fill="#eee598" /><rect x="3" y="0" width="1" height="1" fill="#eee890" /><rect x="3" y="1" width="1" height="1" fill="#ede793" /><rect x="3" y="2" width="1" height="1" fill="#eae798" /><rect x="3" y="3" width="1" height="1" fill="#e8e69b" /><rect x="3" y="4" width="1" height="1" fill="#e6e89d" /><rect x="3" y="5" width="1" height="1" fill="#e9eda0" /><rect x="3" y="6" width="1" height="1" fill="#e9eb97" /><rect x="3" y="7" width="1" height="1" fill="#eaed94" /><rect x="3" y="8" width="1" height="1" fill="#eceb98" /><rect x="3" y="9" width="1" height="1" fill="#eceb99" /><rect x="4" y="0" width="1" height="1" fill="#e3e88c" /><rect x="4" y="1" width="1" height="1" fill="#e2e892" /><rect x="4" y="2" width="1" height="1" fill="#e2ea9d" /><rect x="4" y="3" width="1" height="1" fill="#dee9a5" /><rect x="4" y="4" width="1" height="1" fill="#dceaaf" /><rect x="4" y="5" width="1" height="1" fill="#e2f0b2" /><rect x="4" y="6" width="1" height="1" fill="#ddeb96" /><rect x="4" y="7" width="1" height="1" fill="#dfec90" /><rect x="4" y="8" width="1" height="1" fill="#e2ed91" /><rect x="4" y="9" width="1" height="1" fill="#e3ee92" /><rect x="5" y="0" width="1" height="1" fill="#d8e98b" /><rect x="5" y="1" width="1" height="1" fill="#d8eb92" /><rect x="5" y="2" width="1" height="1" fill="#daefa4" /><rect x="5" y="3" width="1" height="1" fill="#d3e8ad" /><rect x="5" y="4" width="1" height="1" fill="#cbe1ba" /><rect x="5" y="5" width="1" height="1" fill="#d0e6c0" /><rect x="5" y="6" width="1" height="1" fill="#d1e8b2" /><rect x="5" y="7" width="1" height="1" fill="#d4eaaa" /><rect x="5" y="8" width="1" height="1" fill="#d7eca9" /><rect x="5" y="9" width="1" height="1" fill="#d8eca4" /><rect x="6" y="0" width="1" height="1" fill="#cfea8b" /><rect x="6" y="1" width="1" height="1" fill="#cfeb96" /><rect x="6" y="2" width="1" height="1" fill="#d0eea8" /><rect x="6" y="3" width="1" height="1" fill="#c0ddaf" /><rect x="6" y="4" width="1" height="1" fill="#acc9b7" /><rect x="6" y="5" width="1" height="1" fill="#a9c5c6" /><rect x="6" y="6" width="1" height="1" fill="#b9d2d9" /><rect x="6" y="7" width="1" height="1" fill="#bbd4d8" /><rect x="6" y="8" width="1" height="1" fill="#bed8cd" /><rect x="6" y="9" width="1" height="1" fill="#c2dfc3" /><rect x="7" y="0" width="1" height="1" fill="#c7ec8f" /><rect x="7" y="1" width="1" height="1" fill="#c7ed98" /><rect x="7" y="2" width="1" height="1" fill="#c4ebaa" /><rect x="7" y="3" width="1" height="1" fill="#accfae" /><rect x="7" y="4" width="1" height="1" fill="#90afb2" /><rect x="7" y="5" width="1" height="1" fill="#86a5c2" /><rect x="7" y="6" width="1" height="1" fill="#87a6d4" /><rect x="7" y="7" width="1" height="1" fill="#88a7d5" /><rect x="7" y="8" width="1" height="1" fill="#8cadcc" /><rect x="7" y="9" width="1" height="1" fill="#95b6c7" /><rect x="8" y="0" width="1" height="1" fill="#c0ed92" /><rect x="8" y="1" width="1" height="1" fill="#bce998" /><rect x="8" y="2" width="1" height="1" fill="#bdeaaf" /><rect x="8" y="3" width="1" height="1" fill="#add5bd" /><rect x="8" y="4" width="1" height="1" fill="#8fb2c8" /><rect x="8" y="5" width="1" height="1" fill="#91b1e4" /><rect x="8" y="6" width="1" height="1" fill="#8db0f0" /><rect x="8" y="7" width="1" height="1" fill="#87acf0" /><rect x="8" y="8" width="1" height="1" fill="#90b6f4" /><rect x="8" y="9" width="1" height="1" fill="#86abe2" /><rect x="9" y="0" width="1" height="1" fill="#b8ee96" /><rect x="9" y="1" width="1" height="1" fill="#b5ea9a" /><rect x="9" y="2" width="1" height="1" fill="#b7eab1" /><rect x="9" y="3" width="1" height="1" fill="#a9d6c2" /><rect x="9" y="4" width="1" height="1" fill="#8fb2d2" /><rect x="9" y="5" width="1" height="1" fill="#8eb0ef" /><rect x="9" y="6" width="1" height="1" fill="#82a8f1" /><rect x="9" y="7" width="1" height="1" fill="#8fb6ff" /><rect x="9" y="8" width="1" height="1" fill="#88affc" /><rect x="9" y="9" width="1" height="1" fill="#84abf8" /></g></svg>