<svg width="800" height="1000" xmlns="http://www.w3.org/2000/svg"><defs><linearGradient id="g" x1="0" x2="1" y1="0" y2="1"><stop offset="0%" stop-color="#2d3c96"/><stop offset="100%" stop-color="#d53392"/></linearGradient></defs><rect x="10" y="10" width="780" height="980" fill="url(#g)" rx="50" ry="50" stroke="gold" stroke-width="20"/><text x="400" y="920" width="780" text-anchor="middle" style="font:bold 200px 'Helvetica Neue';fill:gold">05438</text><g transform="translate(80 80) scale(64)"><rect x="0" y="0" width="1" height="1" fill="#80ed92" /><rect x="0" y="1" width="1" height="1" fill="#7fed94" /><rect x="0" y="2" width="1" height="1" fill="#7dee96" /><rect x="0" y="3" width="1" height="1" fill="#7cee96" /><rect x="0" y="4" width="1" height="1" fill="#7cee96" /><rect x="0" y="5" width="1" height="1" fill="#7cee97" /><rect x="0" y="6" width="1" height="1" fill="#7ced9b" /><rect x="0" y="7" width="1" height="1" fill="#7ced9d" /><rect x="0" y="8" width="1" height="1" fill="#7ced9d" /><rect x="0" y="9" width="1" height="1" fill="#7ced9f" /><rect x="1" y="0" width="1" height="1" fill="#7fed94" /><rect x="1" y="1" width="1" height="1" fill="#7dee94" /><rect x="1" y="2" width="1" height="1" fill="#7cee96" /><rect x="1" y="3" width="1" height="1" fill="#7cee96" /><rect x="1" y="4" width="1" height="1" fill="#7cee96" /><rect x="1" y="5" width="1" height="1" fill="#7cee97" /><rect x="1" y="6" width="1" height="1" fill="#7ced9b" /><rect x="1" y="7" width="1" height="1" fill="#7ced9d" /><rect x="1" y="8" width="1" height="1" fill="#7ced9f" /><rect x="1" y="9" width="1" height="1" fill="#7ceca0" /><rect x="2" y="0" width="1" height="1" fill="#80ed94" /><rect x="2" y="1" width="1" height="1" fill="#7fed94" /><rect x="2" y="2" width="1" height="1" fill="#7dee96" /><rect x="2" y="3" width="1" height="1" fill="#7cee96" /><rect x="2" y="4" width="1" height="1" fill="#7cee97" /><rect x="2" y="5" width="1" height="1" fill="#7cee99" /><rect x="2" y="6" width="1" height="1" fill="#7aee9d" /><rect x="2" y="7" width="1" height="1" fill="#7aed9f" /><rect x="2" y="8" width="1" height="1" fill="#7aeda0" /><rect x="2" y="9" width="1" height="1" fill="#7aeda2" /><rect x="3" y="0" width="1" height="1" fill="#7fed96" /><rect x="3" y="1" width="1" height="1" fill="#7ded97" /><rect x="3" y="2" width="1" height="1" fill="#7ded97" /><rect x="3" y="3" width="1" height="1" fill="#7ded99" /><rect x="3" y="4" width="1" height="1" fill="#7ded99" /><rect x="3" y="5" width="1" height="1" fill="#7dec9d" /><rect x="3" y="6" width="1" height="1" fill="#7dec9f" /><rect x="3" y="7" width="1" height="1" fill="#7deca0" /><rect x="3" y="8" width="1" height="1" fill="#7ceca2" /><rect x="3" y="9" width="1" height="1" fill="#7ceca4" /><rect x="4" y="0" width="1" height="1" fill="#7ded99" /><rect x="4" y="1" width="1" height="1" fill="#7ded9b" /><rect x="4" y="2" width="1" height="1" fill="#7dec9d" /><rect x="4" y="3" width="1" height="1" fill="#7feb9f" /><rect x="4" y="4" width="1" height="1" fill="#7feba0" /><rect x="4" y="5" width="1" height="1" fill="#80eaa2" /><rect x="4" y="6" width="1" height="1" fill="#82e9a4" /><rect x="4" y="7" width="1" height="1" fill="#82e9a4" /><rect x="4" y="8" width="1" height="1" fill="#80e9a6" /><rect x="4" y="9" width="1" height="1" fill="#7deaa9" /><rect x="5" y="0" width="1" height="1" fill="#7ded9b" /><rect x="5" y="1" width="1" height="1" fill="#7dec9f" /><rect x="5" y="2" width="1" height="1" fill="#7feba0" /><rect x="5" y="3" width="1" height="1" fill="#7feaa2" /><rect x="5" y="4" width="1" height="1" fill="#80e9a4" /><rect x="5" y="5" width="1" height="1" fill="#82e9a4" /><rect x="5" y="6" width="1" height="1" fill="#83e8a6" /><rect x="5" y="7" width="1" height="1" fill="#83e7a7" /><rect x="5" y="8" width="1" height="1" fill="#80e8a9" /><rect x="5" y="9" width="1" height="1" fill="#7fe9ab" /><rect x="6" y="0" width="1" height="1" fill="#7fec9d" /><rect x="6" y="1" width="1" height="1" fill="#7feb9f" /><rect x="6" y="2" width="1" height="1" fill="#80eaa0" /><rect x="6" y="3" width="1" height="1" fill="#80eaa2" /><rect x="6" y="4" width="1" height="1" fill="#80e9a4" /><rect x="6" y="5" width="1" height="1" fill="#80e9a6" /><rect x="6" y="6" width="1" height="1" fill="#81e7a6" /><rect x="6" y="7" width="1" height="1" fill="#81e7a6" /><rect x="6" y="8" width="1" height="1" fill="#7fe7a8" /><rect x="6" y="9" width="1" height="1" fill="#7ce8ac" /><rect x="7" y="0" width="1" height="1" fill="#7fec9d" /><rect x="7" y="1" width="1" height="1" fill="#7feba0" /><rect x="7" y="2" width="1" height="1" fill="#80eaa2" /><rect x="7" y="3" width="1" height="1" fill="#80e9a4" /><rect x="7" y="4" width="1" height="1" fill="#80e9a6" /><rect x="7" y="5" width="1" height="1" fill="#80e9a7" /><rect x="7" y="6" width="1" height="1" fill="#80e9a7" /><rect x="7" y="7" width="1" height="1" fill="#80e8a9" /><rect x="7" y="8" width="1" height="1" fill="#7fe9ab" /><rect x="7" y="9" width="1" height="1" fill="#7de9ad" /><rect x="8" y="0" width="1" height="1" fill="#80ea9f" /><rect x="8" y="1" width="1" height="1" fill="#80eaa0" /><rect x="8" y="2" width="1" height="1" fill="#82e9a4" /><rect x="8" y="3" width="1" height="1" fill="#82e8a6" /><rect x="8" y="4" width="1" height="1" fill="#82e8a6" /><rect x="8" y="5" width="1" height="1" fill="#82e8a7" /><rect x="8" y="6" width="1" height="1" fill="#80e8a9" /><rect x="8" y="7" width="1" height="1" fill="#7fe9ab" /><rect x="8" y="8" width="1" height="1" fill="#7fe8ad" /><rect x="8" y="9" width="1" height="1" fill="#7fe8af" /><rect x="9" y="0" width="1" height="1" fill="#81eba0" /><rect x="9" y="1" width="1" height="1" fill="#81eba3" /><rect x="9" y="2" width="1" height="1" fill="#83eaa5" /><rect x="9" y="3" width="1" height="1" fill="#83e9a7" /><rect x="9" y="4" width="1" height="1" fill="#84e8a8" /><rect x="9" y="5" width="1" height="1" fill="#83e9a8" /><rect x="9" y="6" width="1" height="1" fill="#81e9aa" /><rect x="9" y="7" width="1" height="1" fill="#80eaac" /><rect x="9" y="8" width="1" height="1" fill="#80e9ae" /><rect x="9" y="9" width="1" height="1" fill="#80e9b1" /></g></svg>