<svg width="800" height="1000" xmlns="http://www.w3.org/2000/svg"><defs><linearGradient id="g" x1="0" x2="1" y1="0" y2="1"><stop offset="0%" stop-color="#2d3c96"/><stop offset="100%" stop-color="#d53392"/></linearGradient></defs><rect x="10" y="10" width="780" height="980" fill="url(#g)" rx="50" ry="50" stroke="gold" stroke-width="20"/><text x="400" y="920" width="780" text-anchor="middle" style="font:bold 200px 'Helvetica Neue';fill:gold">05436</text><g transform="translate(80 80) scale(64)"><rect x="0" y="0" width="1" height="1" fill="#afeb89" /><rect x="0" y="1" width="1" height="1" fill="#aced87" /><rect x="0" y="2" width="1" height="1" fill="#a7ee88" /><rect x="0" y="3" width="1" height="1" fill="#a3ed8c" /><rect x="0" y="4" width="1" height="1" fill="#a0eb96" /><rect x="0" y="5" width="1" height="1" fill="#9eed92" /><rect x="0" y="6" width="1" height="1" fill="#9deb7e" /><rect x="0" y="7" width="1" height="1" fill="#97ea76" /><rect x="0" y="8" width="1" height="1" fill="#99f286" /><rect x="0" y="9" width="1" height="1" fill="#93f190" /><rect x="1" y="0" width="1" height="1" fill="#aced87" /><rect x="1" y="1" width="1" height="1" fill="#a9ee83" /><rect x="1" y="2" width="1" height="1" fill="#a4ef86" /><rect x="1" y="3" width="1" height="1" fill="#a1ef8c" /><rect x="1" y="4" width="1" height="1" fill="#9ded96" /><rect x="1" y="5" width="1" height="1" fill="#9eed94" /><rect x="1" y="6" width="1" height="1" fill="#aaf38a" /><rect x="1" y="7" width="1" height="1" fill="#a3ef82" /><rect x="1" y="8" width="1" height="1" fill="#9bf488" /><rect x="1" y="9" width="1" height="1" fill="#8df28c" /><rect x="2" y="0" width="1" height="1" fill="#a8ee8c" /><rect x="2" y="1" width="1" height="1" fill="#a6ee88" /><rect x="2" y="2" width="1" height="1" fill="#a2ef87" /><rect x="2" y="3" width="1" height="1" fill="#9eee8b" /><rect x="2" y="4" width="1" height="1" fill="#9bee94" /><rect x="2" y="5" width="1" height="1" fill="#9cec95" /><rect x="2" y="6" width="1" height="1" fill="#a4eb8d" /><rect x="2" y="7" width="1" height="1" fill="#9fe986" /><rect x="2" y="8" width="1" height="1" fill="#97ef89" /><rect x="2" y="9" width="1" height="1" fill="#8ff48e" /><rect x="3" y="0" width="1" height="1" fill="#a4ee8b" /><rect x="3" y="1" width="1" height="1" fill="#a2ef89" /><rect x="3" y="2" width="1" height="1" fill="#9ff089" /><rect x="3" y="3" width="1" height="1" fill="#9def8b" /><rect x="3" y="4" width="1" height="1" fill="#99ee93" /><rect x="3" y="5" width="1" height="1" fill="#9aed95" /><rect x="3" y="6" width="1" height="1" fill="#9ae68e" /><rect x="3" y="7" width="1" height="1" fill="#99e88d" /><rect x="3" y="8" width="1" height="1" fill="#90ea8a" /><rect x="3" y="9" width="1" height="1" fill="#8df18e" /><rect x="4" y="0" width="1" height="1" fill="#a3f184" /><rect x="4" y="1" width="1" height="1" fill="#a1f083" /><rect x="4" y="2" width="1" height="1" fill="#9df086" /><rect x="4" y="3" width="1" height="1" fill="#9aef8a" /><rect x="4" y="4" width="1" height="1" fill="#98ef91" /><rect x="4" y="5" width="1" height="1" fill="#95ed96" /><rect x="4" y="6" width="1" height="1" fill="#97ef9b" /><rect x="4" y="7" width="1" height="1" fill="#99f39c" /><rect x="4" y="8" width="1" height="1" fill="#8fec91" /><rect x="4" y="9" width="1" height="1" fill="#8aea89" /><rect x="5" y="0" width="1" height="1" fill="#a1ef89" /><rect x="5" y="1" width="1" height="1" fill="#9eef89" /><rect x="5" y="2" width="1" height="1" fill="#9aef8a" /><rect x="5" y="3" width="1" height="1" fill="#99ef8c" /><rect x="5" y="4" width="1" height="1" fill="#97ee8f" /><rect x="5" y="5" width="1" height="1" fill="#94ee94" /><rect x="5" y="6" width="1" height="1" fill="#8bea96" /><rect x="5" y="7" width="1" height="1" fill="#91f3a0" /><rect x="5" y="8" width="1" height="1" fill="#91f198" /><rect x="5" y="9" width="1" height="1" fill="#8ae98b" /><rect x="6" y="0" width="1" height="1" fill="#9eeb9b" /><rect x="6" y="1" width="1" height="1" fill="#9dec99" /><rect x="6" y="2" width="1" height="1" fill="#9aed93" /><rect x="6" y="3" width="1" height="1" fill="#98ed8f" /><rect x="6" y="4" width="1" height="1" fill="#97ee8d" /><rect x="6" y="5" width="1" height="1" fill="#91ef8f" /><rect x="6" y="6" width="1" height="1" fill="#82e990" /><rect x="6" y="7" width="1" height="1" fill="#85ed98" /><rect x="6" y="8" width="1" height="1" fill="#8af196" /><rect x="6" y="9" width="1" height="1" fill="#8cef92" /><rect x="7" y="0" width="1" height="1" fill="#9beca0" /><rect x="7" y="1" width="1" height="1" fill="#99ec9c" /><rect x="7" y="2" width="1" height="1" fill="#98ee97" /><rect x="7" y="3" width="1" height="1" fill="#95ee90" /><rect x="7" y="4" width="1" height="1" fill="#93ef8c" /><rect x="7" y="5" width="1" height="1" fill="#90f08e" /><rect x="7" y="6" width="1" height="1" fill="#90f99d" /><rect x="7" y="7" width="1" height="1" fill="#81ee93" /><rect x="7" y="8" width="1" height="1" fill="#83ec90" /><rect x="7" y="9" width="1" height="1" fill="#89f192" /><rect x="8" y="0" width="1" height="1" fill="#98ee95" /><rect x="8" y="1" width="1" height="1" fill="#95ee92" /><rect x="8" y="2" width="1" height="1" fill="#93ee91" /><rect x="8" y="3" width="1" height="1" fill="#91ef8f" /><rect x="8" y="4" width="1" height="1" fill="#8fef8d" /><rect x="8" y="5" width="1" height="1" fill="#8cf08e" /><rect x="8" y="6" width="1" height="1" fill="#86ef90" /><rect x="8" y="7" width="1" height="1" fill="#85f092" /><rect x="8" y="8" width="1" height="1" fill="#84ef8f" /><rect x="8" y="9" width="1" height="1" fill="#84ef8f" /><rect x="9" y="0" width="1" height="1" fill="#96f090" /><rect x="9" y="1" width="1" height="1" fill="#92f08f" /><rect x="9" y="2" width="1" height="1" fill="#90f08f" /><rect x="9" y="3" width="1" height="1" fill="#8eef8e" /><rect x="9" y="4" width="1" height="1" fill="#8eef8e" /><rect x="9" y="5" width="1" height="1" fill="#8af08d" /><rect x="9" y="6" width="1" height="1" fill="#85ef8d" /><rect x="9" y="7" width="1" height="1" fill="#84f08d" /><rect x="9" y="8" width="1" height="1" fill="#82f08f" /><rect x="9" y="9" width="1" height="1" fill="#81ef8e" /></g></svg>