<svg width="800" height="1000" xmlns="http://www.w3.org/2000/svg"><defs><linearGradient id="g" x1="0" x2="1" y1="0" y2="1"><stop offset="0%" stop-color="#2d3c96"/><stop offset="100%" stop-color="#d53392"/></linearGradient></defs><rect x="10" y="10" width="780" height="980" fill="url(#g)" rx="50" ry="50" stroke="gold" stroke-width="20"/><text x="400" y="920" width="780" text-anchor="middle" style="font:bold 200px 'Helvetica Neue';fill:gold">05435</text><g transform="translate(80 80) scale(64)"><rect x="0" y="0" width="1" height="1" fill="#180600" /><rect x="0" y="1" width="1" height="1" fill="#6b785a" /><rect x="0" y="2" width="1" height="1" fill="#b0eb91" /><rect x="0" y="3" width="1" height="1" fill="#b3fb8f" /><rect x="0" y="4" width="1" height="1" fill="#afe58d" /><rect x="0" y="5" width="1" height="1" fill="#bdef9a" /><rect x="0" y="6" width="1" height="1" fill="#b0e988" /><rect x="0" y="7" width="1" height="1" fill="#b3ef8f" /><rect x="0" y="8" width="1" height="1" fill="#c0f6a8" /><rect x="0" y="9" width="1" height="1" fill="#a3ca93" /><rect x="1" y="0" width="1" height="1" fill="#0a0000" /><rect x="1" y="1" width="1" height="1" fill="#4a5739" /><rect x="1" y="2" width="1" height="1" fill="#b8ed9d" /><rect x="1" y="3" width="1" height="1" fill="#adef8d" /><rect x="1" y="4" width="1" height="1" fill="#baf09a" /><rect x="1" y="5" width="1" height="1" fill="#b1e78f" /><rect x="1" y="6" width="1" height="1" fill="#b3f48c" /><rect x="1" y="7" width="1" height="1" fill="#a6e884" /><rect x="1" y="8" width="1" height="1" fill="#b9f09f" /><rect x="1" y="9" width="1" height="1" fill="#9fc78b" /><rect x="2" y="0" width="1" height="1" fill="#010500" /><rect x="2" y="1" width="1" height="1" fill="#021300" /><rect x="2" y="2" width="1" height="1" fill="#a5ca94" /><rect x="2" y="3" width="1" height="1" fill="#bbeda4" /><rect x="2" y="4" width="1" height="1" fill="#b3e991" /><rect x="2" y="5" width="1" height="1" fill="#b0ee8b" /><rect x="2" y="6" width="1" height="1" fill="#a1ed81" /><rect x="2" y="7" width="1" height="1" fill="#adf58f" /><rect x="2" y="8" width="1" height="1" fill="#b0e998" /><rect x="2" y="9" width="1" height="1" fill="#a8ce91" /><rect x="3" y="0" width="1" height="1" fill="#414e22" /><rect x="3" y="1" width="1" height="1" fill="#001500" /><rect x="3" y="2" width="1" height="1" fill="#8bab7c" /><rect x="3" y="3" width="1" height="1" fill="#beeaab" /><rect x="3" y="4" width="1" height="1" fill="#b2ea91" /><rect x="3" y="5" width="1" height="1" fill="#adf089" /><rect x="3" y="6" width="1" height="1" fill="#a8f38c" /><rect x="3" y="7" width="1" height="1" fill="#aef595" /><rect x="3" y="8" width="1" height="1" fill="#aae394" /><rect x="3" y="9" width="1" height="1" fill="#b7dfa1" /><rect x="4" y="0" width="1" height="1" fill="#647740" /><rect x="4" y="1" width="1" height="1" fill="#001100" /><rect x="4" y="2" width="1" height="1" fill="#80a56f" /><rect x="4" y="3" width="1" height="1" fill="#c8f7b3" /><rect x="4" y="4" width="1" height="1" fill="#abe58e" /><rect x="4" y="5" width="1" height="1" fill="#aeee8e" /><rect x="4" y="6" width="1" height="1" fill="#abec92" /><rect x="4" y="7" width="1" height="1" fill="#b1ef9c" /><rect x="4" y="8" width="1" height="1" fill="#a3db94" /><rect x="4" y="9" width="1" height="1" fill="#bdeaaf" /><rect x="5" y="0" width="1" height="1" fill="#788e5d" /><rect x="5" y="1" width="1" height="1" fill="#000f00" /><rect x="5" y="2" width="1" height="1" fill="#719a60" /><rect x="5" y="3" width="1" height="1" fill="#b9eda5" /><rect x="5" y="4" width="1" height="1" fill="#a4e088" /><rect x="5" y="5" width="1" height="1" fill="#aff092" /><rect x="5" y="6" width="1" height="1" fill="#a7e791" /><rect x="5" y="7" width="1" height="1" fill="#afeda0" /><rect x="5" y="8" width="1" height="1" fill="#a5de99" /><rect x="5" y="9" width="1" height="1" fill="#bbedb0" /><rect x="6" y="0" width="1" height="1" fill="#4e6646" /><rect x="6" y="1" width="1" height="1" fill="#000e00" /><rect x="6" y="2" width="1" height="1" fill="#76a36a" /><rect x="6" y="3" width="1" height="1" fill="#bcf4ab" /><rect x="6" y="4" width="1" height="1" fill="#adee94" /><rect x="6" y="5" width="1" height="1" fill="#a5ea8d" /><rect x="6" y="6" width="1" height="1" fill="#a5ee95" /><rect x="6" y="7" width="1" height="1" fill="#a8ef9f" /><rect x="6" y="8" width="1" height="1" fill="#a9e6a0" /><rect x="6" y="9" width="1" height="1" fill="#b9edad" /><rect x="7" y="0" width="1" height="1" fill="#000d00" /><rect x="7" y="1" width="1" height="1" fill="#001d00" /><rect x="7" y="2" width="1" height="1" fill="#8fc280" /><rect x="7" y="3" width="1" height="1" fill="#b4f1a3" /><rect x="7" y="4" width="1" height="1" fill="#aaef96" /><rect x="7" y="5" width="1" height="1" fill="#a7f293" /><rect x="7" y="6" width="1" height="1" fill="#a2f394" /><rect x="7" y="7" width="1" height="1" fill="#9bec90" /><rect x="7" y="8" width="1" height="1" fill="#a1e696" /><rect x="7" y="9" width="1" height="1" fill="#afe8a3" /><rect x="8" y="0" width="1" height="1" fill="#5c8448" /><rect x="8" y="1" width="1" height="1" fill="#87b670" /><rect x="8" y="2" width="1" height="1" fill="#bcf5a4" /><rect x="8" y="3" width="1" height="1" fill="#a1e18b" /><rect x="8" y="4" width="1" height="1" fill="#98de86" /><rect x="8" y="5" width="1" height="1" fill="#a2f293" /><rect x="8" y="6" width="1" height="1" fill="#99f58a" /><rect x="8" y="7" width="1" height="1" fill="#91ed82" /><rect x="8" y="8" width="1" height="1" fill="#9bea8e" /><rect x="8" y="9" width="1" height="1" fill="#9fe293" /><rect x="9" y="0" width="1" height="1" fill="#b6ea98" /><rect x="9" y="1" width="1" height="1" fill="#b6ee95" /><rect x="9" y="2" width="1" height="1" fill="#aded8f" /><rect x="9" y="3" width="1" height="1" fill="#a8ed92" /><rect x="9" y="4" width="1" height="1" fill="#abf59e" /><rect x="9" y="5" width="1" height="1" fill="#9dee91" /><rect x="9" y="6" width="1" height="1" fill="#9af483" /><rect x="9" y="7" width="1" height="1" fill="#9af482" /><rect x="9" y="8" width="1" height="1" fill="#a1f890" /><rect x="9" y="9" width="1" height="1" fill="#96e58c" /></g></svg>