<svg width="800" height="1000" xmlns="http://www.w3.org/2000/svg"><defs><linearGradient id="g" x1="0" x2="1" y1="0" y2="1"><stop offset="0%" stop-color="#2d3c96"/><stop offset="100%" stop-color="#d53392"/></linearGradient></defs><rect x="10" y="10" width="780" height="980" fill="url(#g)" rx="50" ry="50" stroke="gold" stroke-width="20"/><text x="400" y="920" width="780" text-anchor="middle" style="font:bold 200px 'Helvetica Neue';fill:gold">05437</text><g transform="translate(80 80) scale(64)"><rect x="0" y="0" width="1" height="1" fill="#94ef90" /><rect x="0" y="1" width="1" height="1" fill="#91ef8f" /><rect x="0" y="2" width="1" height="1" fill="#8fef8e" /><rect x="0" y="3" width="1" height="1" fill="#8eef8e" /><rect x="0" y="4" width="1" height="1" fill="#8bef8f" /><rect x="0" y="5" width="1" height="1" fill="#88f08f" /><rect x="0" y="6" width="1" height="1" fill="#84f08d" /><rect x="0" y="7" width="1" height="1" fill="#81ef8c" /><rect x="0" y="8" width="1" height="1" fill="#81ef8e" /><rect x="0" y="9" width="1" height="1" fill="#81ef8e" /><rect x="1" y="0" width="1" height="1" fill="#91ef8f" /><rect x="1" y="1" width="1" height="1" fill="#8fef8e" /><rect x="1" y="2" width="1" height="1" fill="#8eef8e" /><rect x="1" y="3" width="1" height="1" fill="#8bef8d" /><rect x="1" y="4" width="1" height="1" fill="#89ee8e" /><rect x="1" y="5" width="1" height="1" fill="#87ef8e" /><rect x="1" y="6" width="1" height="1" fill="#83ef8c" /><rect x="1" y="7" width="1" height="1" fill="#81ef8e" /><rect x="1" y="8" width="1" height="1" fill="#80ee8d" /><rect x="1" y="9" width="1" height="1" fill="#80ee8f" /><rect x="2" y="0" width="1" height="1" fill="#8fee90" /><rect x="2" y="1" width="1" height="1" fill="#8eef90" /><rect x="2" y="2" width="1" height="1" fill="#8aef8f" /><rect x="2" y="3" width="1" height="1" fill="#87ef8e" /><rect x="2" y="4" width="1" height="1" fill="#86ee8f" /><rect x="2" y="5" width="1" height="1" fill="#85ee8f" /><rect x="2" y="6" width="1" height="1" fill="#82ed8d" /><rect x="2" y="7" width="1" height="1" fill="#80ee8f" /><rect x="2" y="8" width="1" height="1" fill="#80ee8f" /><rect x="2" y="9" width="1" height="1" fill="#80ed90" /><rect x="3" y="0" width="1" height="1" fill="#8eef90" /><rect x="3" y="1" width="1" height="1" fill="#8bef8f" /><rect x="3" y="2" width="1" height="1" fill="#87ef8e" /><rect x="3" y="3" width="1" height="1" fill="#85ee8f" /><rect x="3" y="4" width="1" height="1" fill="#85ee8f" /><rect x="3" y="5" width="1" height="1" fill="#83ee90" /><rect x="3" y="6" width="1" height="1" fill="#80ee8f" /><rect x="3" y="7" width="1" height="1" fill="#80ed90" /><rect x="3" y="8" width="1" height="1" fill="#80ed90" /><rect x="3" y="9" width="1" height="1" fill="#7fee92" /><rect x="4" y="0" width="1" height="1" fill="#8aef91" /><rect x="4" y="1" width="1" height="1" fill="#87ef90" /><rect x="4" y="2" width="1" height="1" fill="#85ee8f" /><rect x="4" y="3" width="1" height="1" fill="#84ef91" /><rect x="4" y="4" width="1" height="1" fill="#83ee90" /><rect x="4" y="5" width="1" height="1" fill="#81ef90" /><rect x="4" y="6" width="1" height="1" fill="#80ed90" /><rect x="4" y="7" width="1" height="1" fill="#7fee92" /><rect x="4" y="8" width="1" height="1" fill="#7fee92" /><rect x="4" y="9" width="1" height="1" fill="#7fed94" /><rect x="5" y="0" width="1" height="1" fill="#88f091" /><rect x="5" y="1" width="1" height="1" fill="#86ef92" /><rect x="5" y="2" width="1" height="1" fill="#84ef91" /><rect x="5" y="3" width="1" height="1" fill="#81ef90" /><rect x="5" y="4" width="1" height="1" fill="#81ef90" /><rect x="5" y="5" width="1" height="1" fill="#7fee90" /><rect x="5" y="6" width="1" height="1" fill="#7fee92" /><rect x="5" y="7" width="1" height="1" fill="#7fed94" /><rect x="5" y="8" width="1" height="1" fill="#7fed94" /><rect x="5" y="9" width="1" height="1" fill="#7fed96" /><rect x="6" y="0" width="1" height="1" fill="#85ee91" /><rect x="6" y="1" width="1" height="1" fill="#83ed91" /><rect x="6" y="2" width="1" height="1" fill="#80ed90" /><rect x="6" y="3" width="1" height="1" fill="#7fee90" /><rect x="6" y="4" width="1" height="1" fill="#7eed8f" /><rect x="6" y="5" width="1" height="1" fill="#7ced91" /><rect x="6" y="6" width="1" height="1" fill="#7dee94" /><rect x="6" y="7" width="1" height="1" fill="#7dee96" /><rect x="6" y="8" width="1" height="1" fill="#7dee96" /><rect x="6" y="9" width="1" height="1" fill="#7ded97" /><rect x="7" y="0" width="1" height="1" fill="#84ee92" /><rect x="7" y="1" width="1" height="1" fill="#81ee91" /><rect x="7" y="2" width="1" height="1" fill="#7fee90" /><rect x="7" y="3" width="1" height="1" fill="#7dee92" /><rect x="7" y="4" width="1" height="1" fill="#7ced91" /><rect x="7" y="5" width="1" height="1" fill="#7ced93" /><rect x="7" y="6" width="1" height="1" fill="#7dee96" /><rect x="7" y="7" width="1" height="1" fill="#7ded97" /><rect x="7" y="8" width="1" height="1" fill="#7ded97" /><rect x="7" y="9" width="1" height="1" fill="#7ded99" /><rect x="8" y="0" width="1" height="1" fill="#83ed91" /><rect x="8" y="1" width="1" height="1" fill="#81ee93" /><rect x="8" y="2" width="1" height="1" fill="#7fee92" /><rect x="8" y="3" width="1" height="1" fill="#7dee94" /><rect x="8" y="4" width="1" height="1" fill="#7ced93" /><rect x="8" y="5" width="1" height="1" fill="#7bee93" /><rect x="8" y="6" width="1" height="1" fill="#7cee97" /><rect x="8" y="7" width="1" height="1" fill="#7cee99" /><rect x="8" y="8" width="1" height="1" fill="#7cee99" /><rect x="8" y="9" width="1" height="1" fill="#7ced9b" /><rect x="9" y="0" width="1" height="1" fill="#81ee93" /><rect x="9" y="1" width="1" height="1" fill="#80ef93" /><rect x="9" y="2" width="1" height="1" fill="#7dee94" /><rect x="9" y="3" width="1" height="1" fill="#7dee94" /><rect x="9" y="4" width="1" height="1" fill="#7cef94" /><rect x="9" y="5" width="1" height="1" fill="#7bed95" /><rect x="9" y="6" width="1" height="1" fill="#7cee99" /><rect x="9" y="7" width="1" height="1" fill="#7ced9b" /><rect x="9" y="8" width="1" height="1" fill="#7ced9b" /><rect x="9" y="9" width="1" height="1" fill="#7ced9d" /></g></svg>