<svg width="800" height="1000" version="1.1" xmlns="http://www.w3.org/2000/svg" xmlns:xlink="http://www.w3.org/1999/xlink">
  <defs>
      <linearGradient id="Gradient2" x1="0" x2="1" y1="0" y2="1">
        <stop offset="0%" stop-color="#2d3c96"/>
        <stop offset="100%" stop-color="#d53392"/>
      </linearGradient>
  </defs>
  <rect x="10" y="10" width="780" height="980" fill="url(#Gradient2)" rx="50" ry="50" stroke="#ffd700" stroke-width="20"/>
  <text x="400" y="920" width="780" text-anchor="middle" style="font: bold 200px 'Helvetica Neue'; fill: #ffd700">05461</text>

  <g transform="translate(80 80) scale(64)">
<rect x="0" y="0" width="1" height="1" fill="#EF3F24" /><rect x="1" y="0" width="1" height="1" fill="#EF3F24" /><rect x="2" y="0" width="1" height="1" fill="#F03F24" /><rect x="3" y="0" width="1" height="1" fill="#F53E1F" /><rect x="4" y="0" width="1" height="1" fill="#F73E1E" /><rect x="5" y="0" width="1" height="1" fill="#F73E1E" /><rect x="6" y="0" width="1" height="1" fill="#F63E1F" /><rect x="7" y="0" width="1" height="1" fill="#F03F24" /><rect x="8" y="0" width="1" height="1" fill="#EF3F24" /><rect x="9" y="0" width="1" height="1" fill="#EF3F24" /><rect x="0" y="1" width="1" height="1" fill="#EF3F24" /><rect x="1" y="1" width="1" height="1" fill="#EF3F24" /><rect x="2" y="1" width="1" height="1" fill="#F63E1F" /><rect x="3" y="1" width="1" height="1" fill="#D54541" /><rect x="4" y="1" width="1" height="1" fill="#CC474B" /><rect x="5" y="1" width="1" height="1" fill="#CC474B" /><rect x="6" y="1" width="1" height="1" fill="#D54542" /><rect x="7" y="1" width="1" height="1" fill="#F63E20" /><rect x="8" y="1" width="1" height="1" fill="#EF3F24" /><rect x="9" y="1" width="1" height="1" fill="#EF3F24" /><rect x="0" y="2" width="1" height="1" fill="#F03F24" /><rect x="1" y="2" width="1" height="1" fill="#F63F20" /><rect x="2" y="2" width="1" height="1" fill="#BB4951" /><rect x="3" y="2" width="1" height="1" fill="#455285" /><rect x="4" y="2" width="1" height="1" fill="#3A5285" /><rect x="5" y="2" width="1" height="1" fill="#3A5286" /><rect x="6" y="2" width="1" height="1" fill="#445284" /><rect x="7" y="2" width="1" height="1" fill="#B94952" /><rect x="8" y="2" width="1" height="1" fill="#F63F20" /><rect x="9" y="2" width="1" height="1" fill="#F03F24" /><rect x="0" y="3" width="1" height="1" fill="#F63F1F" /><rect x="1" y="3" width="1" height="1" fill="#D54541" /><rect x="2" y="3" width="1" height="1" fill="#43548B" /><rect x="3" y="3" width="1" height="1" fill="#424A5E" /><rect x="4" y="3" width="1" height="1" fill="#52423A" /><rect x="5" y="3" width="1" height="1" fill="#534239" /><rect x="6" y="3" width="1" height="1" fill="#424A5E" /><rect x="7" y="3" width="1" height="1" fill="#42538B" /><rect x="8" y="3" width="1" height="1" fill="#D34643" /><rect x="9" y="3" width="1" height="1" fill="#F63F1F" /><rect x="0" y="4" width="1" height="1" fill="#F73E1E" /><rect x="1" y="4" width="1" height="1" fill="#CB474A" /><rect x="2" y="4" width="1" height="1" fill="#39538A" /><rect x="3" y="4" width="1" height="1" fill="#404E70" /><rect x="4" y="4" width="1" height="1" fill="#335699" /><rect x="5" y="4" width="1" height="1" fill="#33579A" /><rect x="6" y="4" width="1" height="1" fill="#404E70" /><rect x="7" y="4" width="1" height="1" fill="#385389" /><rect x="8" y="4" width="1" height="1" fill="#C9484D" /><rect x="9" y="4" width="1" height="1" fill="#F73E1E" /><rect x="0" y="5" width="1" height="1" fill="#F73E1E" /><rect x="1" y="5" width="1" height="1" fill="#CB474A" /><rect x="2" y="5" width="1" height="1" fill="#39548D" /><rect x="3" y="5" width="1" height="1" fill="#494854" /><rect x="4" y="5" width="1" height="1" fill="#3D507C" /><rect x="5" y="5" width="1" height="1" fill="#3D517E" /><rect x="6" y="5" width="1" height="1" fill="#4A4854" /><rect x="7" y="5" width="1" height="1" fill="#38548B" /><rect x="8" y="5" width="1" height="1" fill="#C9484D" /><rect x="9" y="5" width="1" height="1" fill="#F73E1E" /><rect x="0" y="6" width="1" height="1" fill="#F63F1F" /><rect x="1" y="6" width="1" height="1" fill="#D44642" /><rect x="2" y="6" width="1" height="1" fill="#42538B" /><rect x="3" y="6" width="1" height="1" fill="#53402C" /><rect x="4" y="6" width="1" height="1" fill="#4A4445" /><rect x="5" y="6" width="1" height="1" fill="#494546" /><rect x="6" y="6" width="1" height="1" fill="#53402C" /><rect x="7" y="6" width="1" height="1" fill="#41538A" /><rect x="8" y="6" width="1" height="1" fill="#D34644" /><rect x="9" y="6" width="1" height="1" fill="#F63F1F" /><rect x="0" y="7" width="1" height="1" fill="#F03F24" /><rect x="1" y="7" width="1" height="1" fill="#F63F20" /><rect x="2" y="7" width="1" height="1" fill="#B94952" /><rect x="3" y="7" width="1" height="1" fill="#3E538B" /><rect x="4" y="7" width="1" height="1" fill="#6B5281" /><rect x="5" y="7" width="1" height="1" fill="#6D5281" /><rect x="6" y="7" width="1" height="1" fill="#3D538B" /><rect x="7" y="7" width="1" height="1" fill="#B74954" /><rect x="8" y="7" width="1" height="1" fill="#F63F20" /><rect x="9" y="7" width="1" height="1" fill="#F03F24" /><rect x="0" y="8" width="1" height="1" fill="#EF3F24" /><rect x="1" y="8" width="1" height="1" fill="#EF3F24" /><rect x="2" y="8" width="1" height="1" fill="#F63F1F" /><rect x="3" y="8" width="1" height="1" fill="#D14646" /><rect x="4" y="8" width="1" height="1" fill="#EA412D" /><rect x="5" y="8" width="1" height="1" fill="#EB412C" /><rect x="6" y="8" width="1" height="1" fill="#D04646" /><rect x="7" y="8" width="1" height="1" fill="#F63F20" /><rect x="8" y="8" width="1" height="1" fill="#EF3F24" /><rect x="9" y="8" width="1" height="1" fill="#EF3F24" /><rect x="0" y="9" width="1" height="1" fill="#EF3F24" /><rect x="1" y="9" width="1" height="1" fill="#EF3F24" /><rect x="2" y="9" width="1" height="1" fill="#F03F24" /><rect x="3" y="9" width="1" height="1" fill="#F63E1F" /><rect x="4" y="9" width="1" height="1" fill="#F23F22" /><rect x="5" y="9" width="1" height="1" fill="#F23F22" /><rect x="6" y="9" width="1" height="1" fill="#F63E1F" /><rect x="7" y="9" width="1" height="1" fill="#F03F24" /><rect x="8" y="9" width="1" height="1" fill="#EF3F24" /><rect x="9" y="9" width="1" height="1" fill="#EF3F24" />
  </g>
</svg>