<svg width="800" height="1000" version="1.1" xmlns="http://www.w3.org/2000/svg" xmlns:xlink="http://www.w3.org/1999/xlink">
  <defs>
      <linearGradient id="Gradient2" x1="0" x2="1" y1="0" y2="1">
        <stop offset="0%" stop-color="#2d3c96"/>
        <stop offset="100%" stop-color="#d53392"/>
      </linearGradient>
  </defs>
  <rect x="10" y="10" width="780" height="980" fill="url(#Gradient2)" rx="50" ry="50" stroke="#ffd700" stroke-width="20"/>
  <text x="400" y="920" width="780" text-anchor="middle" style="font: bold 200px 'Helvetica Neue'; fill: #ffd700">05461</text>

  <g transform="translate(80 80) scale(64)">
<rect x="0" y="0" width="1" height="1" fill="#ef3f24" />
,<rect x="0" y="1" width="1" height="1" fill="#ef3f24" />
,<rect x="0" y="2" width="1" height="1" fill="#f03f24" />
,<rect x="0" y="3" width="1" height="1" fill="#f63f1f" />
,<rect x="0" y="4" width="1" height="1" fill="#f73e1e" />
,<rect x="0" y="5" width="1" height="1" fill="#f73e1e" />
,<rect x="0" y="6" width="1" height="1" fill="#f63f1f" />
,<rect x="0" y="7" width="1" height="1" fill="#f03f24" />
,<rect x="0" y="8" width="1" height="1" fill="#ef3f24" />
,<rect x="0" y="9" width="1" height="1" fill="#ef3f24" />
,<rect x="1" y="0" width="1" height="1" fill="#ef3f24" />
,<rect x="1" y="1" width="1" height="1" fill="#ef3f24" />
,<rect x="1" y="2" width="1" height="1" fill="#f63f20" />
,<rect x="1" y="3" width="1" height="1" fill="#d54541" />
,<rect x="1" y="4" width="1" height="1" fill="#cb474a" />
,<rect x="1" y="5" width="1" height="1" fill="#cb474a" />
,<rect x="1" y="6" width="1" height="1" fill="#d44642" />
,<rect x="1" y="7" width="1" height="1" fill="#f63f20" />
,<rect x="1" y="8" width="1" height="1" fill="#ef3f24" />
,<rect x="1" y="9" width="1" height="1" fill="#ef3f24" />
,<rect x="2" y="0" width="1" height="1" fill="#f03f24" />
,<rect x="2" y="1" width="1" height="1" fill="#f63e1f" />
,<rect x="2" y="2" width="1" height="1" fill="#bb4951" />
,<rect x="2" y="3" width="1" height="1" fill="#43548b" />
,<rect x="2" y="4" width="1" height="1" fill="#39538a" />
,<rect x="2" y="5" width="1" height="1" fill="#39548d" />
,<rect x="2" y="6" width="1" height="1" fill="#42538b" />
,<rect x="2" y="7" width="1" height="1" fill="#b94952" />
,<rect x="2" y="8" width="1" height="1" fill="#f63f1f" />
,<rect x="2" y="9" width="1" height="1" fill="#f03f24" />
,<rect x="3" y="0" width="1" height="1" fill="#f53e1f" />
,<rect x="3" y="1" width="1" height="1" fill="#d54541" />
,<rect x="3" y="2" width="1" height="1" fill="#455285" />
,<rect x="3" y="3" width="1" height="1" fill="#424a5e" />
,<rect x="3" y="4" width="1" height="1" fill="#404e70" />
,<rect x="3" y="5" width="1" height="1" fill="#494854" />
,<rect x="3" y="6" width="1" height="1" fill="#53402c" />
,<rect x="3" y="7" width="1" height="1" fill="#3e538b" />
,<rect x="3" y="8" width="1" height="1" fill="#d14646" />
,<rect x="3" y="9" width="1" height="1" fill="#f63e1f" />
,<rect x="4" y="0" width="1" height="1" fill="#f73e1e" />
,<rect x="4" y="1" width="1" height="1" fill="#cc474b" />
,<rect x="4" y="2" width="1" height="1" fill="#3a5285" />
,<rect x="4" y="3" width="1" height="1" fill="#52423a" />
,<rect x="4" y="4" width="1" height="1" fill="#335699" />
,<rect x="4" y="5" width="1" height="1" fill="#3d507c" />
,<rect x="4" y="6" width="1" height="1" fill="#4a4445" />
,<rect x="4" y="7" width="1" height="1" fill="#6b5281" />
,<rect x="4" y="8" width="1" height="1" fill="#ea412d" />
,<rect x="4" y="9" width="1" height="1" fill="#f23f22" />
,<rect x="5" y="0" width="1" height="1" fill="#f73e1e" />
,<rect x="5" y="1" width="1" height="1" fill="#cc474b" />
,<rect x="5" y="2" width="1" height="1" fill="#3a5286" />
,<rect x="5" y="3" width="1" height="1" fill="#534239" />
,<rect x="5" y="4" width="1" height="1" fill="#33579a" />
,<rect x="5" y="5" width="1" height="1" fill="#3d517e" />
,<rect x="5" y="6" width="1" height="1" fill="#494546" />
,<rect x="5" y="7" width="1" height="1" fill="#6d5281" />
,<rect x="5" y="8" width="1" height="1" fill="#eb412c" />
,<rect x="5" y="9" width="1" height="1" fill="#f23f22" />
,<rect x="6" y="0" width="1" height="1" fill="#f63e1f" />
,<rect x="6" y="1" width="1" height="1" fill="#d54542" />
,<rect x="6" y="2" width="1" height="1" fill="#445284" />
,<rect x="6" y="3" width="1" height="1" fill="#424a5e" />
,<rect x="6" y="4" width="1" height="1" fill="#404e70" />
,<rect x="6" y="5" width="1" height="1" fill="#4a4854" />
,<rect x="6" y="6" width="1" height="1" fill="#53402c" />
,<rect x="6" y="7" width="1" height="1" fill="#3d538b" />
,<rect x="6" y="8" width="1" height="1" fill="#d04646" />
,<rect x="6" y="9" width="1" height="1" fill="#f63e1f" />
,<rect x="7" y="0" width="1" height="1" fill="#f03f24" />
,<rect x="7" y="1" width="1" height="1" fill="#f63e20" />
,<rect x="7" y="2" width="1" height="1" fill="#b94952" />
,<rect x="7" y="3" width="1" height="1" fill="#42538b" />
,<rect x="7" y="4" width="1" height="1" fill="#385389" />
,<rect x="7" y="5" width="1" height="1" fill="#38548b" />
,<rect x="7" y="6" width="1" height="1" fill="#41538a" />
,<rect x="7" y="7" width="1" height="1" fill="#b74954" />
,<rect x="7" y="8" width="1" height="1" fill="#f63f20" />
,<rect x="7" y="9" width="1" height="1" fill="#f03f24" />
,<rect x="8" y="0" width="1" height="1" fill="#ef3f24" />
,<rect x="8" y="1" width="1" height="1" fill="#ef3f24" />
,<rect x="8" y="2" width="1" height="1" fill="#f63f20" />
,<rect x="8" y="3" width="1" height="1" fill="#d34643" />
,<rect x="8" y="4" width="1" height="1" fill="#c9484d" />
,<rect x="8" y="5" width="1" height="1" fill="#c9484d" />
,<rect x="8" y="6" width="1" height="1" fill="#d34644" />
,<rect x="8" y="7" width="1" height="1" fill="#f63f20" />
,<rect x="8" y="8" width="1" height="1" fill="#ef3f24" />
,<rect x="8" y="9" width="1" height="1" fill="#ef3f24" />
,<rect x="9" y="0" width="1" height="1" fill="#ef3f24" />
,<rect x="9" y="1" width="1" height="1" fill="#ef3f24" />
,<rect x="9" y="2" width="1" height="1" fill="#f03f24" />
,<rect x="9" y="3" width="1" height="1" fill="#f63f1f" />
,<rect x="9" y="4" width="1" height="1" fill="#f73e1e" />
,<rect x="9" y="5" width="1" height="1" fill="#f73e1e" />
,<rect x="9" y="6" width="1" height="1" fill="#f63f1f" />
,<rect x="9" y="7" width="1" height="1" fill="#f03f24" />
,<rect x="9" y="8" width="1" height="1" fill="#ef3f24" />
,<rect x="9" y="9" width="1" height="1" fill="#ef3f24" />

  </g>
</svg>