<svg width="800" height="1000" xmlns="http://www.w3.org/2000/svg"><defs><linearGradient id="g" x1="0" x2="1" y1="0" y2="1"><stop offset="0%" stop-color="#2d3c96"/><stop offset="100%" stop-color="#d53392"/></linearGradient></defs><rect x="10" y="10" width="780" height="980" fill="url(#g)" rx="50" ry="50" stroke="gold" stroke-width="20"/><text x="400" y="920" width="780" text-anchor="middle" style="font:bold 200px 'Helvetica Neue';fill:gold">05529</text><g transform="translate(80 80) scale(64)"><rect x="0" y="0" width="1" height="1" fill="#81926e" /><rect x="0" y="1" width="1" height="1" fill="#404d31" /><rect x="0" y="2" width="1" height="1" fill="#000300" /><rect x="0" y="3" width="1" height="1" fill="#040000" /><rect x="0" y="4" width="1" height="1" fill="#04000b" /><rect x="0" y="5" width="1" height="1" fill="#483e56" /><rect x="0" y="6" width="1" height="1" fill="#887f9e" /><rect x="0" y="7" width="1" height="1" fill="#a098bd" /><rect x="0" y="8" width="1" height="1" fill="#c0b9e3" /><rect x="0" y="9" width="1" height="1" fill="#bbb1e3" /><rect x="1" y="0" width="1" height="1" fill="#060902" /><rect x="1" y="1" width="1" height="1" fill="#060702" /><rect x="1" y="2" width="1" height="1" fill="#1a151b" /><rect x="1" y="3" width="1" height="1" fill="#6f6475" /><rect x="1" y="4" width="1" height="1" fill="#9989a6" /><rect x="1" y="5" width="1" height="1" fill="#ab99c1" /><rect x="1" y="6" width="1" height="1" fill="#c9b5e6" /><rect x="1" y="7" width="1" height="1" fill="#c8b5ec" /><rect x="1" y="8" width="1" height="1" fill="#bca8e3" /><rect x="1" y="9" width="1" height="1" fill="#bcaae8" /><rect x="2" y="0" width="1" height="1" fill="#6f6274" /><rect x="2" y="1" width="1" height="1" fill="#998a9f" /><rect x="2" y="2" width="1" height="1" fill="#b5a5bf" /><rect x="2" y="3" width="1" height="1" fill="#bdaaca" /><rect x="2" y="4" width="1" height="1" fill="#cdb6e2" /><rect x="2" y="5" width="1" height="1" fill="#d2b7ec" /><rect x="2" y="6" width="1" height="1" fill="#c8aaea" /><rect x="2" y="7" width="1" height="1" fill="#c6a7ed" /><rect x="2" y="8" width="1" height="1" fill="#caacf4" /><rect x="2" y="9" width="1" height="1" fill="#c9aef5" /><rect x="3" y="0" width="1" height="1" fill="#c9add3" /><rect x="3" y="1" width="1" height="1" fill="#cdb1d7" /><rect x="3" y="2" width="1" height="1" fill="#cfb5da" /><rect x="3" y="3" width="1" height="1" fill="#d2b8df" /><rect x="3" y="4" width="1" height="1" fill="#cbafdf" /><rect x="3" y="5" width="1" height="1" fill="#d3b2eb" /><rect x="3" y="6" width="1" height="1" fill="#cca4ea" /><rect x="3" y="7" width="1" height="1" fill="#d3aaf6" /><rect x="3" y="8" width="1" height="1" fill="#cfa9f4" /><rect x="3" y="9" width="1" height="1" fill="#caabef" /><rect x="4" y="0" width="1" height="1" fill="#d5aedb" /><rect x="4" y="1" width="1" height="1" fill="#d8b1de" /><rect x="4" y="2" width="1" height="1" fill="#c7a7ce" /><rect x="4" y="3" width="1" height="1" fill="#cdafd5" /><rect x="4" y="4" width="1" height="1" fill="#cfb0da" /><rect x="4" y="5" width="1" height="1" fill="#cea9dc" /><rect x="4" y="6" width="1" height="1" fill="#cca2e2" /><rect x="4" y="7" width="1" height="1" fill="#e0b3f8" /><rect x="4" y="8" width="1" height="1" fill="#cea5e9" /><rect x="4" y="9" width="1" height="1" fill="#d4b2ee" /><rect x="5" y="0" width="1" height="1" fill="#d5a5d7" /><rect x="5" y="1" width="1" height="1" fill="#d8a8d8" /><rect x="5" y="2" width="1" height="1" fill="#d4aed5" /><rect x="5" y="3" width="1" height="1" fill="#d4b2d5" /><rect x="5" y="4" width="1" height="1" fill="#d0aed3" /><rect x="5" y="5" width="1" height="1" fill="#dbb6e2" /><rect x="5" y="6" width="1" height="1" fill="#d1a4dd" /><rect x="5" y="7" width="1" height="1" fill="#d9abe9" /><rect x="5" y="8" width="1" height="1" fill="#cfa3de" /><rect x="5" y="9" width="1" height="1" fill="#d7b2e5" /><rect x="6" y="0" width="1" height="1" fill="#d8a2d4" /><rect x="6" y="1" width="1" height="1" fill="#dba5d7" /><rect x="6" y="2" width="1" height="1" fill="#d4a7ce" /><rect x="6" y="3" width="1" height="1" fill="#d9b4d6" /><rect x="6" y="4" width="1" height="1" fill="#d3b0d1" /><rect x="6" y="5" width="1" height="1" fill="#d8b2d9" /><rect x="6" y="6" width="1" height="1" fill="#d8acdd" /><rect x="6" y="7" width="1" height="1" fill="#d5a9dc" /><rect x="6" y="8" width="1" height="1" fill="#dab0e0" /><rect x="6" y="9" width="1" height="1" fill="#d2afd7" /><rect x="7" y="0" width="1" height="1" fill="#e5a9dd" /><rect x="7" y="1" width="1" height="1" fill="#f0b6e8" /><rect x="7" y="2" width="1" height="1" fill="#e2afd8" /><rect x="7" y="3" width="1" height="1" fill="#d9add0" /><rect x="7" y="4" width="1" height="1" fill="#d4adcc" /><rect x="7" y="5" width="1" height="1" fill="#dab5d6" /><rect x="7" y="6" width="1" height="1" fill="#d5abd3" /><rect x="7" y="7" width="1" height="1" fill="#dfb4df" /><rect x="7" y="8" width="1" height="1" fill="#d2a9d1" /><rect x="7" y="9" width="1" height="1" fill="#d3b0d0" /><rect x="8" y="0" width="1" height="1" fill="#df9ed4" /><rect x="8" y="1" width="1" height="1" fill="#e6a5db" /><rect x="8" y="2" width="1" height="1" fill="#e2a9d6" /><rect x="8" y="3" width="1" height="1" fill="#deacd2" /><rect x="8" y="4" width="1" height="1" fill="#dbafd2" /><rect x="8" y="5" width="1" height="1" fill="#d4acce" /><rect x="8" y="6" width="1" height="1" fill="#dab2d5" /><rect x="8" y="7" width="1" height="1" fill="#d8b0d3" /><rect x="8" y="8" width="1" height="1" fill="#deb6d9" /><rect x="8" y="9" width="1" height="1" fill="#b893b2" /><rect x="9" y="0" width="1" height="1" fill="#eda7db" /><rect x="9" y="1" width="1" height="1" fill="#e7a1d5" /><rect x="9" y="2" width="1" height="1" fill="#e9a7d7" /><rect x="9" y="3" width="1" height="1" fill="#e5aad6" /><rect x="9" y="4" width="1" height="1" fill="#e5b3d8" /><rect x="9" y="5" width="1" height="1" fill="#dbb0ce" /><rect x="9" y="6" width="1" height="1" fill="#d5aecb" /><rect x="9" y="7" width="1" height="1" fill="#e3bcd7" /><rect x="9" y="8" width="1" height="1" fill="#9b748f" /><rect x="9" y="9" width="1" height="1" fill="#1d0011" /></g></svg>