<svg width="800" height="1000" xmlns="http://www.w3.org/2000/svg"><defs><linearGradient id="g" x1="0" x2="1" y1="0" y2="1"><stop offset="0%" stop-color="#2d3c96"/><stop offset="100%" stop-color="#d53392"/></linearGradient></defs><rect x="10" y="10" width="780" height="980" fill="url(#g)" rx="50" ry="50" stroke="gold" stroke-width="20"/><text x="400" y="920" width="780" text-anchor="middle" style="font:bold 200px 'Helvetica Neue';fill:gold">05524</text><g transform="translate(80 80) scale(64)"><rect x="0" y="0" width="1" height="1" fill="#f4b7d8" /><rect x="0" y="1" width="1" height="1" fill="#f4b7d8" /><rect x="0" y="2" width="1" height="1" fill="#f5b8d7" /><rect x="0" y="3" width="1" height="1" fill="#f4b9d5" /><rect x="0" y="4" width="1" height="1" fill="#eeb6cf" /><rect x="0" y="5" width="1" height="1" fill="#f1c0d6" /><rect x="0" y="6" width="1" height="1" fill="#ffdff1" /><rect x="0" y="7" width="1" height="1" fill="#fff5ff" /><rect x="0" y="8" width="1" height="1" fill="#fff6fd" /><rect x="0" y="9" width="1" height="1" fill="#f7f5f8" /><rect x="1" y="0" width="1" height="1" fill="#e9a9cb" /><rect x="1" y="1" width="1" height="1" fill="#e9aac9" /><rect x="1" y="2" width="1" height="1" fill="#e9aac7" /><rect x="1" y="3" width="1" height="1" fill="#e9aac7" /><rect x="1" y="4" width="1" height="1" fill="#e7adc6" /><rect x="1" y="5" width="1" height="1" fill="#e8b2c9" /><rect x="1" y="6" width="1" height="1" fill="#e9bed1" /><rect x="1" y="7" width="1" height="1" fill="#fbdbe8" /><rect x="1" y="8" width="1" height="1" fill="#fff8ff" /><rect x="1" y="9" width="1" height="1" fill="#fffdff" /><rect x="2" y="0" width="1" height="1" fill="#efaccf" /><rect x="2" y="1" width="1" height="1" fill="#efaccd" /><rect x="2" y="2" width="1" height="1" fill="#f1accb" /><rect x="2" y="3" width="1" height="1" fill="#efaccb" /><rect x="2" y="4" width="1" height="1" fill="#eeacc8" /><rect x="2" y="5" width="1" height="1" fill="#eaaec7" /><rect x="2" y="6" width="1" height="1" fill="#e0aac1" /><rect x="2" y="7" width="1" height="1" fill="#e8bdce" /><rect x="2" y="8" width="1" height="1" fill="#ffe6f2" /><rect x="2" y="9" width="1" height="1" fill="#fff9ff" /><rect x="3" y="0" width="1" height="1" fill="#f1abcd" /><rect x="3" y="1" width="1" height="1" fill="#f2abcb" /><rect x="3" y="2" width="1" height="1" fill="#f5abcc" /><rect x="3" y="3" width="1" height="1" fill="#f5acca" /><rect x="3" y="4" width="1" height="1" fill="#f6adca" /><rect x="3" y="5" width="1" height="1" fill="#f2aec7" /><rect x="3" y="6" width="1" height="1" fill="#efb1c8" /><rect x="3" y="7" width="1" height="1" fill="#e5b0c2" /><rect x="3" y="8" width="1" height="1" fill="#e5bcca" /><rect x="3" y="9" width="1" height="1" fill="#ffe1ec" /><rect x="4" y="0" width="1" height="1" fill="#f3a7cb" /><rect x="4" y="1" width="1" height="1" fill="#f4a7c9" /><rect x="4" y="2" width="1" height="1" fill="#f6a6c9" /><rect x="4" y="3" width="1" height="1" fill="#f7a6c7" /><rect x="4" y="4" width="1" height="1" fill="#f5a4c4" /><rect x="4" y="5" width="1" height="1" fill="#f5a6c3" /><rect x="4" y="6" width="1" height="1" fill="#f8afca" /><rect x="4" y="7" width="1" height="1" fill="#eeadc3" /><rect x="4" y="8" width="1" height="1" fill="#e1aabd" /><rect x="4" y="9" width="1" height="1" fill="#f2c4d1" /><rect x="5" y="0" width="1" height="1" fill="#f7aacc" /><rect x="5" y="1" width="1" height="1" fill="#f9aaca" /><rect x="5" y="2" width="1" height="1" fill="#fca8ca" /><rect x="5" y="3" width="1" height="1" fill="#fda8c9" /><rect x="5" y="4" width="1" height="1" fill="#fba4c4" /><rect x="5" y="5" width="1" height="1" fill="#fca7c4" /><rect x="5" y="6" width="1" height="1" fill="#faa7c3" /><rect x="5" y="7" width="1" height="1" fill="#f9aec5" /><rect x="5" y="8" width="1" height="1" fill="#f6b2c7" /><rect x="5" y="9" width="1" height="1" fill="#e8aebd" /><rect x="6" y="0" width="1" height="1" fill="#f4a7c7" /><rect x="6" y="1" width="1" height="1" fill="#f7a6c6" /><rect x="6" y="2" width="1" height="1" fill="#faa5c6" /><rect x="6" y="3" width="1" height="1" fill="#fea5c5" /><rect x="6" y="4" width="1" height="1" fill="#ffa9ca" /><rect x="6" y="5" width="1" height="1" fill="#ffa9c8" /><rect x="6" y="6" width="1" height="1" fill="#ffa6c2" /><rect x="6" y="7" width="1" height="1" fill="#ffacc4" /><rect x="6" y="8" width="1" height="1" fill="#feb3c8" /><rect x="6" y="9" width="1" height="1" fill="#eda8ba" /><rect x="7" y="0" width="1" height="1" fill="#f7abc9" /><rect x="7" y="1" width="1" height="1" fill="#faaac7" /><rect x="7" y="2" width="1" height="1" fill="#fda8c7" /><rect x="7" y="3" width="1" height="1" fill="#ffa7c5" /><rect x="7" y="4" width="1" height="1" fill="#ffa3c2" /><rect x="7" y="5" width="1" height="1" fill="#ffa2bf" /><rect x="7" y="6" width="1" height="1" fill="#ffa8c3" /><rect x="7" y="7" width="1" height="1" fill="#ffa9c1" /><rect x="7" y="8" width="1" height="1" fill="#f8a6bc" /><rect x="7" y="9" width="1" height="1" fill="#fcb1c5" /><rect x="8" y="0" width="1" height="1" fill="#f6aac6" /><rect x="8" y="1" width="1" height="1" fill="#f9a9c4" /><rect x="8" y="2" width="1" height="1" fill="#fca7c4" /><rect x="8" y="3" width="1" height="1" fill="#ffa6c2" /><rect x="8" y="4" width="1" height="1" fill="#ffa7c4" /><rect x="8" y="5" width="1" height="1" fill="#ffa7c2" /><rect x="8" y="6" width="1" height="1" fill="#ffa7c2" /><rect x="8" y="7" width="1" height="1" fill="#ffa9c2" /><rect x="8" y="8" width="1" height="1" fill="#ffabc2" /><rect x="8" y="9" width="1" height="1" fill="#fdaec1" /><rect x="9" y="0" width="1" height="1" fill="#f6aac4" /><rect x="9" y="1" width="1" height="1" fill="#f8aac2" /><rect x="9" y="2" width="1" height="1" fill="#fba8c2" /><rect x="9" y="3" width="1" height="1" fill="#fda7c0" /><rect x="9" y="4" width="1" height="1" fill="#ffa8c2" /><rect x="9" y="5" width="1" height="1" fill="#ffa8c1" /><rect x="9" y="6" width="1" height="1" fill="#ffa8c1" /><rect x="9" y="7" width="1" height="1" fill="#ffaac0" /><rect x="9" y="8" width="1" height="1" fill="#ffabc0" /><rect x="9" y="9" width="1" height="1" fill="#ffaebf" /></g></svg>