<svg width="800" height="1000" xmlns="http://www.w3.org/2000/svg"><defs><linearGradient id="g" x1="0" x2="1" y1="0" y2="1"><stop offset="0%" stop-color="#2d3c96"/><stop offset="100%" stop-color="#d53392"/></linearGradient></defs><rect x="10" y="10" width="780" height="980" fill="url(#g)" rx="50" ry="50" stroke="gold" stroke-width="20"/><text x="400" y="920" width="780" text-anchor="middle" style="font:bold 200px 'Helvetica Neue';fill:gold">05528</text><g transform="translate(80 80) scale(64)"><rect x="0" y="0" width="1" height="1" fill="#ffdfb9" /><rect x="0" y="1" width="1" height="1" fill="#fad3a8" /><rect x="0" y="2" width="1" height="1" fill="#f8d09f" /><rect x="0" y="3" width="1" height="1" fill="#ffd8a4" /><rect x="0" y="4" width="1" height="1" fill="#fdd69f" /><rect x="0" y="5" width="1" height="1" fill="#fdd69f" /><rect x="0" y="6" width="1" height="1" fill="#fdd8a3" /><rect x="0" y="7" width="1" height="1" fill="#fcd8a6" /><rect x="0" y="8" width="1" height="1" fill="#f5d0a3" /><rect x="0" y="9" width="1" height="1" fill="#fdd6ad" /><rect x="1" y="0" width="1" height="1" fill="#ffd9aa" /><rect x="1" y="1" width="1" height="1" fill="#ffd69e" /><rect x="1" y="2" width="1" height="1" fill="#ffda9c" /><rect x="1" y="3" width="1" height="1" fill="#fdd693" /><rect x="1" y="4" width="1" height="1" fill="#fedd98" /><rect x="1" y="5" width="1" height="1" fill="#ffe4a0" /><rect x="1" y="6" width="1" height="1" fill="#efd797" /><rect x="1" y="7" width="1" height="1" fill="#f6dda4" /><rect x="1" y="8" width="1" height="1" fill="#f6dbac" /><rect x="1" y="9" width="1" height="1" fill="#ffe4bc" /><rect x="2" y="0" width="1" height="1" fill="#fcd59a" /><rect x="2" y="1" width="1" height="1" fill="#ffd997" /><rect x="2" y="2" width="1" height="1" fill="#ffe097" /><rect x="2" y="3" width="1" height="1" fill="#ffe596" /><rect x="2" y="4" width="1" height="1" fill="#f7de8e" /><rect x="2" y="5" width="1" height="1" fill="#f4e296" /><rect x="2" y="6" width="1" height="1" fill="#fef1ab" /><rect x="2" y="7" width="1" height="1" fill="#e9dda1" /><rect x="2" y="8" width="1" height="1" fill="#f3e2b4" /><rect x="2" y="9" width="1" height="1" fill="#dac6a3" /><rect x="3" y="0" width="1" height="1" fill="#ffe8a2" /><rect x="3" y="1" width="1" height="1" fill="#ffe59a" /><rect x="3" y="2" width="1" height="1" fill="#fdde8c" /><rect x="3" y="3" width="1" height="1" fill="#ffe692" /><rect x="3" y="4" width="1" height="1" fill="#ffee9c" /><rect x="3" y="5" width="1" height="1" fill="#f0e596" /><rect x="3" y="6" width="1" height="1" fill="#e9e29e" /><rect x="3" y="7" width="1" height="1" fill="#fcf5be" /><rect x="3" y="8" width="1" height="1" fill="#e1d8af" /><rect x="3" y="9" width="1" height="1" fill="#5e5033" /><rect x="4" y="0" width="1" height="1" fill="#f8e998" /><rect x="4" y="1" width="1" height="1" fill="#fbe997" /><rect x="4" y="2" width="1" height="1" fill="#fae894" /><rect x="4" y="3" width="1" height="1" fill="#fae997" /><rect x="4" y="4" width="1" height="1" fill="#fef3a4" /><rect x="4" y="5" width="1" height="1" fill="#ebe39b" /><rect x="4" y="6" width="1" height="1" fill="#fdf7bb" /><rect x="4" y="7" width="1" height="1" fill="#dbd7a8" /><rect x="4" y="8" width="1" height="1" fill="#5a5633" /><rect x="4" y="9" width="1" height="1" fill="#070100" /><rect x="5" y="0" width="1" height="1" fill="#e7e58e" /><rect x="5" y="1" width="1" height="1" fill="#ece891" /><rect x="5" y="2" width="1" height="1" fill="#f3ed99" /><rect x="5" y="3" width="1" height="1" fill="#f2eb9b" /><rect x="5" y="4" width="1" height="1" fill="#e9e29a" /><rect x="5" y="5" width="1" height="1" fill="#e9e1a3" /><rect x="5" y="6" width="1" height="1" fill="#ddd7a5" /><rect x="5" y="7" width="1" height="1" fill="#55512b" /><rect x="5" y="8" width="1" height="1" fill="#040200" /><rect x="5" y="9" width="1" height="1" fill="#595748" /><rect x="6" y="0" width="1" height="1" fill="#e7f596" /><rect x="6" y="1" width="1" height="1" fill="#e2ec93" /><rect x="6" y="2" width="1" height="1" fill="#dce491" /><rect x="6" y="3" width="1" height="1" fill="#dee095" /><rect x="6" y="4" width="1" height="1" fill="#f8f4b5" /><rect x="6" y="5" width="1" height="1" fill="#d6cf9b" /><rect x="6" y="6" width="1" height="1" fill="#584f28" /><rect x="6" y="7" width="1" height="1" fill="#0d0600" /><rect x="6" y="8" width="1" height="1" fill="#2c2916" /><rect x="6" y="9" width="1" height="1" fill="#73756a" /><rect x="7" y="0" width="1" height="1" fill="#d1ea8e" /><rect x="7" y="1" width="1" height="1" fill="#d2e893" /><rect x="7" y="2" width="1" height="1" fill="#d8e69b" /><rect x="7" y="3" width="1" height="1" fill="#e4eaac" /><rect x="7" y="4" width="1" height="1" fill="#c8c797" /><rect x="7" y="5" width="1" height="1" fill="#56522d" /><rect x="7" y="6" width="1" height="1" fill="#0a0400" /><rect x="7" y="7" width="1" height="1" fill="#221f0e" /><rect x="7" y="8" width="1" height="1" fill="#2c2c24" /><rect x="7" y="9" width="1" height="1" fill="#000100" /><rect x="8" y="0" width="1" height="1" fill="#cef09c" /><rect x="8" y="1" width="1" height="1" fill="#c7e398" /><rect x="8" y="2" width="1" height="1" fill="#e0f2b8" /><rect x="8" y="3" width="1" height="1" fill="#bcc39a" /><rect x="8" y="4" width="1" height="1" fill="#424228" /><rect x="8" y="5" width="1" height="1" fill="#131102" /><rect x="8" y="6" width="1" height="1" fill="#1f2116" /><rect x="8" y="7" width="1" height="1" fill="#0c110d" /><rect x="8" y="8" width="1" height="1" fill="#000105" /><rect x="8" y="9" width="1" height="1" fill="#121423" /><rect x="9" y="0" width="1" height="1" fill="#bedc9c" /><rect x="9" y="1" width="1" height="1" fill="#cee7ae" /><rect x="9" y="2" width="1" height="1" fill="#a8b48e" /><rect x="9" y="3" width="1" height="1" fill="#434631" /><rect x="9" y="4" width="1" height="1" fill="#0b0803" /><rect x="9" y="5" width="1" height="1" fill="#010004" /><rect x="9" y="6" width="1" height="1" fill="#000007" /><rect x="9" y="7" width="1" height="1" fill="#161928" /><rect x="9" y="8" width="1" height="1" fill="#7b7d92" /><rect x="9" y="9" width="1" height="1" fill="#a5a4c4" /></g></svg>