<svg width="800" height="1000" xmlns="http://www.w3.org/2000/svg"><defs><linearGradient id="g" x1="0" x2="1" y1="0" y2="1"><stop offset="0%" stop-color="#2d3c96"/><stop offset="100%" stop-color="#d53392"/></linearGradient></defs><rect x="10" y="10" width="780" height="980" fill="url(#g)" rx="50" ry="50" stroke="gold" stroke-width="20"/><text x="400" y="920" width="780" text-anchor="middle" style="font:bold 200px 'Helvetica Neue';fill:gold">05525</text><g transform="translate(80 80) scale(64)"><rect x="0" y="0" width="1" height="1" fill="#f6aac4" /><rect x="0" y="1" width="1" height="1" fill="#f9abc3" /><rect x="0" y="2" width="1" height="1" fill="#fca9c3" /><rect x="0" y="3" width="1" height="1" fill="#fda9c1" /><rect x="0" y="4" width="1" height="1" fill="#ffa9c1" /><rect x="0" y="5" width="1" height="1" fill="#ffa9bf" /><rect x="0" y="6" width="1" height="1" fill="#ffaac0" /><rect x="0" y="7" width="1" height="1" fill="#ffabbe" /><rect x="0" y="8" width="1" height="1" fill="#ffadbf" /><rect x="0" y="9" width="1" height="1" fill="#fdafbd" /><rect x="1" y="0" width="1" height="1" fill="#f7acc3" /><rect x="1" y="1" width="1" height="1" fill="#f9abc1" /><rect x="1" y="2" width="1" height="1" fill="#fbacc2" /><rect x="1" y="3" width="1" height="1" fill="#feaac1" /><rect x="1" y="4" width="1" height="1" fill="#ffabc0" /><rect x="1" y="5" width="1" height="1" fill="#ffabbe" /><rect x="1" y="6" width="1" height="1" fill="#ffabbe" /><rect x="1" y="7" width="1" height="1" fill="#ffacbd" /><rect x="1" y="8" width="1" height="1" fill="#ffadbd" /><rect x="1" y="9" width="1" height="1" fill="#feb0bd" /><rect x="2" y="0" width="1" height="1" fill="#f9abc3" /><rect x="2" y="1" width="1" height="1" fill="#faacc2" /><rect x="2" y="2" width="1" height="1" fill="#fbacc1" /><rect x="2" y="3" width="1" height="1" fill="#ffacc0" /><rect x="2" y="4" width="1" height="1" fill="#ffabc0" /><rect x="2" y="5" width="1" height="1" fill="#ffacbf" /><rect x="2" y="6" width="1" height="1" fill="#ffacbf" /><rect x="2" y="7" width="1" height="1" fill="#ffaebe" /><rect x="2" y="8" width="1" height="1" fill="#ffafbe" /><rect x="2" y="9" width="1" height="1" fill="#feb2be" /><rect x="3" y="0" width="1" height="1" fill="#fbacc2" /><rect x="3" y="1" width="1" height="1" fill="#fbacc1" /><rect x="3" y="2" width="1" height="1" fill="#feadc0" /><rect x="3" y="3" width="1" height="1" fill="#ffacc0" /><rect x="3" y="4" width="1" height="1" fill="#ffacbf" /><rect x="3" y="5" width="1" height="1" fill="#ffadbd" /><rect x="3" y="6" width="1" height="1" fill="#ffaebe" /><rect x="3" y="7" width="1" height="1" fill="#ffafbd" /><rect x="3" y="8" width="1" height="1" fill="#ffb1be" /><rect x="3" y="9" width="1" height="1" fill="#feb2be" /><rect x="4" y="0" width="1" height="1" fill="#feaac2" /><rect x="4" y="1" width="1" height="1" fill="#feacc2" /><rect x="4" y="2" width="1" height="1" fill="#ffadc1" /><rect x="4" y="3" width="1" height="1" fill="#ffadc1" /><rect x="4" y="4" width="1" height="1" fill="#ffacbf" /><rect x="4" y="5" width="1" height="1" fill="#ffadbe" /><rect x="4" y="6" width="1" height="1" fill="#ffaebe" /><rect x="4" y="7" width="1" height="1" fill="#ffb0be" /><rect x="4" y="8" width="1" height="1" fill="#ffb1be" /><rect x="4" y="9" width="1" height="1" fill="#fdb4bd" /><rect x="5" y="0" width="1" height="1" fill="#feaac1" /><rect x="5" y="1" width="1" height="1" fill="#ffacc0" /><rect x="5" y="2" width="1" height="1" fill="#ffadc1" /><rect x="5" y="3" width="1" height="1" fill="#ffadbf" /><rect x="5" y="4" width="1" height="1" fill="#ffaebe" /><rect x="5" y="5" width="1" height="1" fill="#ffaebe" /><rect x="5" y="6" width="1" height="1" fill="#ffafbd" /><rect x="5" y="7" width="1" height="1" fill="#ffb1bc" /><rect x="5" y="8" width="1" height="1" fill="#feb2bc" /><rect x="5" y="9" width="1" height="1" fill="#fdb4bb" /><rect x="6" y="0" width="1" height="1" fill="#feabbf" /><rect x="6" y="1" width="1" height="1" fill="#feadbe" /><rect x="6" y="2" width="1" height="1" fill="#ffafc0" /><rect x="6" y="3" width="1" height="1" fill="#feb0c0" /><rect x="6" y="4" width="1" height="1" fill="#feb0be" /><rect x="6" y="5" width="1" height="1" fill="#ffb1bf" /><rect x="6" y="6" width="1" height="1" fill="#ffb2bf" /><rect x="6" y="7" width="1" height="1" fill="#ffb4be" /><rect x="6" y="8" width="1" height="1" fill="#ffb5bc" /><rect x="6" y="9" width="1" height="1" fill="#feb6ba" /><rect x="7" y="0" width="1" height="1" fill="#fdacbd" /><rect x="7" y="1" width="1" height="1" fill="#ffaebf" /><rect x="7" y="2" width="1" height="1" fill="#feb0c0" /><rect x="7" y="3" width="1" height="1" fill="#ffb1bf" /><rect x="7" y="4" width="1" height="1" fill="#feb2bf" /><rect x="7" y="5" width="1" height="1" fill="#feb2be" /><rect x="7" y="6" width="1" height="1" fill="#fdb4bd" /><rect x="7" y="7" width="1" height="1" fill="#feb5bc" /><rect x="7" y="8" width="1" height="1" fill="#feb6ba" /><rect x="7" y="9" width="1" height="1" fill="#ffb7ba" /><rect x="8" y="0" width="1" height="1" fill="#feadbc" /><rect x="8" y="1" width="1" height="1" fill="#ffaebd" /><rect x="8" y="2" width="1" height="1" fill="#feb0be" /><rect x="8" y="3" width="1" height="1" fill="#ffb1be" /><rect x="8" y="4" width="1" height="1" fill="#feb2be" /><rect x="8" y="5" width="1" height="1" fill="#ffb3bd" /><rect x="8" y="6" width="1" height="1" fill="#fdb4bb" /><rect x="8" y="7" width="1" height="1" fill="#feb6ba" /><rect x="8" y="8" width="1" height="1" fill="#ffb7ba" /><rect x="8" y="9" width="1" height="1" fill="#ffb7b8" /><rect x="9" y="0" width="1" height="1" fill="#ffaebd" /><rect x="9" y="1" width="1" height="1" fill="#ffb0bd" /><rect x="9" y="2" width="1" height="1" fill="#ffb1be" /><rect x="9" y="3" width="1" height="1" fill="#ffb2bc" /><rect x="9" y="4" width="1" height="1" fill="#ffb4bb" /><rect x="9" y="5" width="1" height="1" fill="#ffb4b9" /><rect x="9" y="6" width="1" height="1" fill="#feb6b9" /><rect x="9" y="7" width="1" height="1" fill="#ffb7ba" /><rect x="9" y="8" width="1" height="1" fill="#ffb8b9" /><rect x="9" y="9" width="1" height="1" fill="#ffb9b7" /></g></svg>