<svg width="800" height="1000" xmlns="http://www.w3.org/2000/svg"><defs><linearGradient id="g" x1="0" x2="1" y1="0" y2="1"><stop offset="0%" stop-color="#2d3c96"/><stop offset="100%" stop-color="#d53392"/></linearGradient></defs><rect x="10" y="10" width="780" height="980" fill="url(#g)" rx="50" ry="50" stroke="gold" stroke-width="20"/><text x="400" y="920" width="780" text-anchor="middle" style="font:bold 200px 'Helvetica Neue';fill:gold">05527</text><g transform="translate(80 80) scale(64)"><rect x="0" y="0" width="1" height="1" fill="#febbb3" /><rect x="0" y="1" width="1" height="1" fill="#fdbdb3" /><rect x="0" y="2" width="1" height="1" fill="#fcbeb3" /><rect x="0" y="3" width="1" height="1" fill="#f9bfb4" /><rect x="0" y="4" width="1" height="1" fill="#fcc6bc" /><rect x="0" y="5" width="1" height="1" fill="#f3c1ba" /><rect x="0" y="6" width="1" height="1" fill="#b38585" /><rect x="0" y="7" width="1" height="1" fill="#1c0000" /><rect x="0" y="8" width="1" height="1" fill="#250209" /><rect x="0" y="9" width="1" height="1" fill="#775764" /><rect x="1" y="0" width="1" height="1" fill="#febbb3" /><rect x="1" y="1" width="1" height="1" fill="#fcbeb3" /><rect x="1" y="2" width="1" height="1" fill="#f8c0b3" /><rect x="1" y="3" width="1" height="1" fill="#f5c1b4" /><rect x="1" y="4" width="1" height="1" fill="#f5c6bc" /><rect x="1" y="5" width="1" height="1" fill="#ac817a" /><rect x="1" y="6" width="1" height="1" fill="#200000" /><rect x="1" y="7" width="1" height="1" fill="#1b0000" /><rect x="1" y="8" width="1" height="1" fill="#835b66" /><rect x="1" y="9" width="1" height="1" fill="#dab1c3" /><rect x="2" y="0" width="1" height="1" fill="#fab9b3" /><rect x="2" y="1" width="1" height="1" fill="#f9beb6" /><rect x="2" y="2" width="1" height="1" fill="#edbdb1" /><rect x="2" y="3" width="1" height="1" fill="#f3ccbd" /><rect x="2" y="4" width="1" height="1" fill="#a68478" /><rect x="2" y="5" width="1" height="1" fill="#160000" /><rect x="2" y="6" width="1" height="1" fill="#160000" /><rect x="2" y="7" width="1" height="1" fill="#946d72" /><rect x="2" y="8" width="1" height="1" fill="#e2b2c0" /><rect x="2" y="9" width="1" height="1" fill="#ecb0c9" /><rect x="3" y="0" width="1" height="1" fill="#fec3bd" /><rect x="3" y="1" width="1" height="1" fill="#f7c5bc" /><rect x="3" y="2" width="1" height="1" fill="#f4ccc0" /><rect x="3" y="3" width="1" height="1" fill="#a18174" /><rect x="3" y="4" width="1" height="1" fill="#150000" /><rect x="3" y="5" width="1" height="1" fill="#240700" /><rect x="3" y="6" width="1" height="1" fill="#8f6d6b" /><rect x="3" y="7" width="1" height="1" fill="#e4babe" /><rect x="3" y="8" width="1" height="1" fill="#ebb3c0" /><rect x="3" y="9" width="1" height="1" fill="#f3aec3" /><rect x="4" y="0" width="1" height="1" fill="#facbc5" /><rect x="4" y="1" width="1" height="1" fill="#ecc4bc" /><rect x="4" y="2" width="1" height="1" fill="#9d7b72" /><rect x="4" y="3" width="1" height="1" fill="#180000" /><rect x="4" y="4" width="1" height="1" fill="#1b0000" /><rect x="4" y="5" width="1" height="1" fill="#946e6b" /><rect x="4" y="6" width="1" height="1" fill="#e6babb" /><rect x="4" y="7" width="1" height="1" fill="#f1bec3" /><rect x="4" y="8" width="1" height="1" fill="#f0b3bb" /><rect x="4" y="9" width="1" height="1" fill="#f8b1bf" /><rect x="5" y="0" width="1" height="1" fill="#ddbbb2" /><rect x="5" y="1" width="1" height="1" fill="#85675f" /><rect x="5" y="2" width="1" height="1" fill="#1c0000" /><rect x="5" y="3" width="1" height="1" fill="#160000" /><rect x="5" y="4" width="1" height="1" fill="#a17b78" /><rect x="5" y="5" width="1" height="1" fill="#eec0c0" /><rect x="5" y="6" width="1" height="1" fill="#f3bfc1" /><rect x="5" y="7" width="1" height="1" fill="#efb3b5" /><rect x="5" y="8" width="1" height="1" fill="#ffc2c3" /><rect x="5" y="9" width="1" height="1" fill="#febabb" /><rect x="6" y="0" width="1" height="1" fill="#836b5f" /><rect x="6" y="1" width="1" height="1" fill="#110000" /><rect x="6" y="2" width="1" height="1" fill="#150000" /><rect x="6" y="3" width="1" height="1" fill="#aa8984" /><rect x="6" y="4" width="1" height="1" fill="#f0c4c3" /><rect x="6" y="5" width="1" height="1" fill="#f6c3c2" /><rect x="6" y="6" width="1" height="1" fill="#f4b7b6" /><rect x="6" y="7" width="1" height="1" fill="#ffc2be" /><rect x="6" y="8" width="1" height="1" fill="#ffc0b8" /><rect x="6" y="9" width="1" height="1" fill="#f8b6aa" /><rect x="7" y="0" width="1" height="1" fill="#190600" /><rect x="7" y="1" width="1" height="1" fill="#120000" /><rect x="7" y="2" width="1" height="1" fill="#a88d82" /><rect x="7" y="3" width="1" height="1" fill="#edcbc1" /><rect x="7" y="4" width="1" height="1" fill="#f7cbc2" /><rect x="7" y="5" width="1" height="1" fill="#fac3bc" /><rect x="7" y="6" width="1" height="1" fill="#f9bbb0" /><rect x="7" y="7" width="1" height="1" fill="#ffbeb0" /><rect x="7" y="8" width="1" height="1" fill="#ffbfad" /><rect x="7" y="9" width="1" height="1" fill="#fcbea7" /><rect x="8" y="0" width="1" height="1" fill="#120000" /><rect x="8" y="1" width="1" height="1" fill="#ae957f" /><rect x="8" y="2" width="1" height="1" fill="#f4d5c0" /><rect x="8" y="3" width="1" height="1" fill="#f3cfb9" /><rect x="8" y="4" width="1" height="1" fill="#f4c5b1" /><rect x="8" y="5" width="1" height="1" fill="#ffceb8" /><rect x="8" y="6" width="1" height="1" fill="#ffc8b2" /><rect x="8" y="7" width="1" height="1" fill="#fcc0a6" /><rect x="8" y="8" width="1" height="1" fill="#ffcdb1" /><rect x="8" y="9" width="1" height="1" fill="#ffd2b0" /><rect x="9" y="0" width="1" height="1" fill="#c0a588" /><rect x="9" y="1" width="1" height="1" fill="#ffe0c1" /><rect x="9" y="2" width="1" height="1" fill="#e9c7a4" /><rect x="9" y="3" width="1" height="1" fill="#f7d1ad" /><rect x="9" y="4" width="1" height="1" fill="#ffd3ae" /><rect x="9" y="5" width="1" height="1" fill="#f5c59f" /><rect x="9" y="6" width="1" height="1" fill="#ffd4af" /><rect x="9" y="7" width="1" height="1" fill="#ffcfaa" /><rect x="9" y="8" width="1" height="1" fill="#f7c5a0" /><rect x="9" y="9" width="1" height="1" fill="#fecea8" /></g></svg>