<svg width="800" height="1000" xmlns="http://www.w3.org/2000/svg"><defs><linearGradient id="g" x1="0" x2="1" y1="0" y2="1"><stop offset="0%" stop-color="#2d3c96"/><stop offset="100%" stop-color="#d53392"/></linearGradient></defs><rect x="10" y="10" width="780" height="980" fill="url(#g)" rx="50" ry="50" stroke="gold" stroke-width="20"/><text x="400" y="920" width="780" text-anchor="middle" style="font:bold 200px 'Helvetica Neue';fill:gold">05532</text><g transform="translate(80 80) scale(64)"><rect x="0" y="0" width="1" height="1" fill="#fdea9e" /><rect x="0" y="1" width="1" height="1" fill="#fee89c" /><rect x="0" y="2" width="1" height="1" fill="#feea94" /><rect x="0" y="3" width="1" height="1" fill="#fceb91" /><rect x="0" y="4" width="1" height="1" fill="#f8ed91" /><rect x="0" y="5" width="1" height="1" fill="#f9f29a" /><rect x="0" y="6" width="1" height="1" fill="#eae498" /><rect x="0" y="7" width="1" height="1" fill="#f0ebab" /><rect x="0" y="8" width="1" height="1" fill="#9c9463" /><rect x="0" y="9" width="1" height="1" fill="#0b0100" /><rect x="1" y="0" width="1" height="1" fill="#f8e89b" /><rect x="1" y="1" width="1" height="1" fill="#f8e89b" /><rect x="1" y="2" width="1" height="1" fill="#f6ea98" /><rect x="1" y="3" width="1" height="1" fill="#f7ec93" /><rect x="1" y="4" width="1" height="1" fill="#f2e98c" /><rect x="1" y="5" width="1" height="1" fill="#f1eb8d" /><rect x="1" y="6" width="1" height="1" fill="#f9f39b" /><rect x="1" y="7" width="1" height="1" fill="#eee89a" /><rect x="1" y="8" width="1" height="1" fill="#fffdbe" /><rect x="1" y="9" width="1" height="1" fill="#a19d6e" /><rect x="2" y="0" width="1" height="1" fill="#efe69b" /><rect x="2" y="1" width="1" height="1" fill="#efe69b" /><rect x="2" y="2" width="1" height="1" fill="#f2e798" /><rect x="2" y="3" width="1" height="1" fill="#f1e996" /><rect x="2" y="4" width="1" height="1" fill="#f0e991" /><rect x="2" y="5" width="1" height="1" fill="#f9f499" /><rect x="2" y="6" width="1" height="1" fill="#f1ed94" /><rect x="2" y="7" width="1" height="1" fill="#f0ed9c" /><rect x="2" y="8" width="1" height="1" fill="#e6e39c" /><rect x="2" y="9" width="1" height="1" fill="#eeecaf" /><rect x="3" y="0" width="1" height="1" fill="#eceb9b" /><rect x="3" y="1" width="1" height="1" fill="#eeeb9c" /><rect x="3" y="2" width="1" height="1" fill="#eeeb9a" /><rect x="3" y="3" width="1" height="1" fill="#eeec99" /><rect x="3" y="4" width="1" height="1" fill="#edeb96" /><rect x="3" y="5" width="1" height="1" fill="#ebe992" /><rect x="3" y="6" width="1" height="1" fill="#e2e28a" /><rect x="3" y="7" width="1" height="1" fill="#e7e995" /><rect x="3" y="8" width="1" height="1" fill="#e9ec9d" /><rect x="3" y="9" width="1" height="1" fill="#eaeca3" /><rect x="4" y="0" width="1" height="1" fill="#e2ec93" /><rect x="4" y="1" width="1" height="1" fill="#e1ea91" /><rect x="4" y="2" width="1" height="1" fill="#dfe88f" /><rect x="4" y="3" width="1" height="1" fill="#e0e68e" /><rect x="4" y="4" width="1" height="1" fill="#e4ea92" /><rect x="4" y="5" width="1" height="1" fill="#dae088" /><rect x="4" y="6" width="1" height="1" fill="#f3f9a1" /><rect x="4" y="7" width="1" height="1" fill="#e2ea94" /><rect x="4" y="8" width="1" height="1" fill="#dbe38e" /><rect x="4" y="9" width="1" height="1" fill="#e8f19e" /><rect x="5" y="0" width="1" height="1" fill="#d8ed9e" /><rect x="5" y="1" width="1" height="1" fill="#d9ec9a" /><rect x="5" y="2" width="1" height="1" fill="#d7eb94" /><rect x="5" y="3" width="1" height="1" fill="#d7ea91" /><rect x="5" y="4" width="1" height="1" fill="#d9ec93" /><rect x="5" y="5" width="1" height="1" fill="#e5f59d" /><rect x="5" y="6" width="1" height="1" fill="#d7e78f" /><rect x="5" y="7" width="1" height="1" fill="#dbeb93" /><rect x="5" y="8" width="1" height="1" fill="#d9e991" /><rect x="5" y="9" width="1" height="1" fill="#d2e28a" /><rect x="6" y="0" width="1" height="1" fill="#c7e4b8" /><rect x="6" y="1" width="1" height="1" fill="#cceaae" /><rect x="6" y="2" width="1" height="1" fill="#ceeea5" /><rect x="6" y="3" width="1" height="1" fill="#d1f0a0" /><rect x="6" y="4" width="1" height="1" fill="#cdeb95" /><rect x="6" y="5" width="1" height="1" fill="#cce891" /><rect x="6" y="6" width="1" height="1" fill="#ceea93" /><rect x="6" y="7" width="1" height="1" fill="#d5ef98" /><rect x="6" y="8" width="1" height="1" fill="#d3ed94" /><rect x="6" y="9" width="1" height="1" fill="#d1eb92" /><rect x="7" y="0" width="1" height="1" fill="#9ec0bf" /><rect x="7" y="1" width="1" height="1" fill="#a7ccba" /><rect x="7" y="2" width="1" height="1" fill="#b1d6b7" /><rect x="7" y="3" width="1" height="1" fill="#b6dbb2" /><rect x="7" y="4" width="1" height="1" fill="#c4e8b8" /><rect x="7" y="5" width="1" height="1" fill="#c9ebb8" /><rect x="7" y="6" width="1" height="1" fill="#c7e8af" /><rect x="7" y="7" width="1" height="1" fill="#c2e4a7" /><rect x="7" y="8" width="1" height="1" fill="#caeba6" /><rect x="7" y="9" width="1" height="1" fill="#cbeda3" /><rect x="8" y="0" width="1" height="1" fill="#83a9da" /><rect x="8" y="1" width="1" height="1" fill="#8eb3df" /><rect x="8" y="2" width="1" height="1" fill="#88abd3" /><rect x="8" y="3" width="1" height="1" fill="#8bafd1" /><rect x="8" y="4" width="1" height="1" fill="#95b8d4" /><rect x="8" y="5" width="1" height="1" fill="#9bbed1" /><rect x="8" y="6" width="1" height="1" fill="#a5c8cc" /><rect x="8" y="7" width="1" height="1" fill="#afd3c7" /><rect x="8" y="8" width="1" height="1" fill="#b9ddc1" /><rect x="8" y="9" width="1" height="1" fill="#c0e5b9" /><rect x="9" y="0" width="1" height="1" fill="#90b6ff" /><rect x="9" y="1" width="1" height="1" fill="#86acf7" /><rect x="9" y="2" width="1" height="1" fill="#7ca0ea" /><rect x="9" y="3" width="1" height="1" fill="#8bb0f7" /><rect x="9" y="4" width="1" height="1" fill="#89acf0" /><rect x="9" y="5" width="1" height="1" fill="#8aace9" /><rect x="9" y="6" width="1" height="1" fill="#8dafdd" /><rect x="9" y="7" width="1" height="1" fill="#90b3d1" /><rect x="9" y="8" width="1" height="1" fill="#95b9c7" /><rect x="9" y="9" width="1" height="1" fill="#9cc0be" /></g></svg>