<svg width="800" height="1000" xmlns="http://www.w3.org/2000/svg"><defs><linearGradient id="g" x1="0" x2="1" y1="0" y2="1"><stop offset="0%" stop-color="#2d3c96"/><stop offset="100%" stop-color="#d53392"/></linearGradient></defs><rect x="10" y="10" width="780" height="980" fill="url(#g)" rx="50" ry="50" stroke="gold" stroke-width="20"/><text x="400" y="920" width="780" text-anchor="middle" style="font:bold 200px 'Helvetica Neue';fill:gold">05533</text><g transform="translate(80 80) scale(64)"><rect x="0" y="0" width="1" height="1" fill="#87adf8" /><rect x="0" y="1" width="1" height="1" fill="#91b7ff" /><rect x="0" y="2" width="1" height="1" fill="#88aef9" /><rect x="0" y="3" width="1" height="1" fill="#95b9ff" /><rect x="0" y="4" width="1" height="1" fill="#90b2fc" /><rect x="0" y="5" width="1" height="1" fill="#8faff8" /><rect x="0" y="6" width="1" height="1" fill="#8eacf2" /><rect x="0" y="7" width="1" height="1" fill="#8eacec" /><rect x="0" y="8" width="1" height="1" fill="#8eade6" /><rect x="0" y="9" width="1" height="1" fill="#92b0e6" /><rect x="1" y="0" width="1" height="1" fill="#8dadf8" /><rect x="1" y="1" width="1" height="1" fill="#91b3fd" /><rect x="1" y="2" width="1" height="1" fill="#93b5ff" /><rect x="1" y="3" width="1" height="1" fill="#85a5f0" /><rect x="1" y="4" width="1" height="1" fill="#92affb" /><rect x="1" y="5" width="1" height="1" fill="#93b1fa" /><rect x="1" y="6" width="1" height="1" fill="#95b1fb" /><rect x="1" y="7" width="1" height="1" fill="#96b0fb" /><rect x="1" y="8" width="1" height="1" fill="#96b0fb" /><rect x="1" y="9" width="1" height="1" fill="#97aefa" /><rect x="2" y="0" width="1" height="1" fill="#a1b7ff" /><rect x="2" y="1" width="1" height="1" fill="#92a9f5" /><rect x="2" y="2" width="1" height="1" fill="#a3baff" /><rect x="2" y="3" width="1" height="1" fill="#98b0fa" /><rect x="2" y="4" width="1" height="1" fill="#96adf3" /><rect x="2" y="5" width="1" height="1" fill="#98aff3" /><rect x="2" y="6" width="1" height="1" fill="#9cb1f2" /><rect x="2" y="7" width="1" height="1" fill="#9fb2f4" /><rect x="2" y="8" width="1" height="1" fill="#9fb2f4" /><rect x="2" y="9" width="1" height="1" fill="#9fb0f6" /><rect x="3" y="0" width="1" height="1" fill="#9da9f1" /><rect x="3" y="1" width="1" height="1" fill="#a3b0fe" /><rect x="3" y="2" width="1" height="1" fill="#9aa7f5" /><rect x="3" y="3" width="1" height="1" fill="#a2b0fb" /><rect x="3" y="4" width="1" height="1" fill="#a4b2f9" /><rect x="3" y="5" width="1" height="1" fill="#a3b2f3" /><rect x="3" y="6" width="1" height="1" fill="#a4b2ef" /><rect x="3" y="7" width="1" height="1" fill="#a4b3ee" /><rect x="3" y="8" width="1" height="1" fill="#a5b0ee" /><rect x="3" y="9" width="1" height="1" fill="#a5b0f2" /><rect x="4" y="0" width="1" height="1" fill="#a4a7ec" /><rect x="4" y="1" width="1" height="1" fill="#bdc0ff" /><rect x="4" y="2" width="1" height="1" fill="#a4a6f9" /><rect x="4" y="3" width="1" height="1" fill="#a8adfe" /><rect x="4" y="4" width="1" height="1" fill="#a8aef8" /><rect x="4" y="5" width="1" height="1" fill="#a7aef2" /><rect x="4" y="6" width="1" height="1" fill="#a8aded" /><rect x="4" y="7" width="1" height="1" fill="#a7adeb" /><rect x="4" y="8" width="1" height="1" fill="#a8acec" /><rect x="4" y="9" width="1" height="1" fill="#a9acf1" /><rect x="5" y="0" width="1" height="1" fill="#b3afea" /><rect x="5" y="1" width="1" height="1" fill="#aba5eb" /><rect x="5" y="2" width="1" height="1" fill="#b8b2fc" /><rect x="5" y="3" width="1" height="1" fill="#b5adf8" /><rect x="5" y="4" width="1" height="1" fill="#b3abf4" /><rect x="5" y="5" width="1" height="1" fill="#b3aef1" /><rect x="5" y="6" width="1" height="1" fill="#b4afef" /><rect x="5" y="7" width="1" height="1" fill="#b5b1ee" /><rect x="5" y="8" width="1" height="1" fill="#b6b1f1" /><rect x="5" y="9" width="1" height="1" fill="#b6b1f4" /><rect x="6" y="0" width="1" height="1" fill="#b6b1da" /><rect x="6" y="1" width="1" height="1" fill="#b3abdc" /><rect x="6" y="2" width="1" height="1" fill="#c3b2e9" /><rect x="6" y="3" width="1" height="1" fill="#bea9e4" /><rect x="6" y="4" width="1" height="1" fill="#c3abe9" /><rect x="6" y="5" width="1" height="1" fill="#bda7e5" /><rect x="6" y="6" width="1" height="1" fill="#c3b1ed" /><rect x="6" y="7" width="1" height="1" fill="#bdafea" /><rect x="6" y="8" width="1" height="1" fill="#b5aae4" /><rect x="6" y="9" width="1" height="1" fill="#b6abe5" /><rect x="7" y="0" width="1" height="1" fill="#c1bfd7" /><rect x="7" y="1" width="1" height="1" fill="#d5cfeb" /><rect x="7" y="2" width="1" height="1" fill="#c6b6da" /><rect x="7" y="3" width="1" height="1" fill="#c9b2dc" /><rect x="7" y="4" width="1" height="1" fill="#ceb2e2" /><rect x="7" y="5" width="1" height="1" fill="#cfb7e7" /><rect x="7" y="6" width="1" height="1" fill="#c6b4e4" /><rect x="7" y="7" width="1" height="1" fill="#b9abdc" /><rect x="7" y="8" width="1" height="1" fill="#c4bbea" /><rect x="7" y="9" width="1" height="1" fill="#d1c8f7" /><rect x="8" y="0" width="1" height="1" fill="#898d99" /><rect x="8" y="1" width="1" height="1" fill="#70727e" /><rect x="8" y="2" width="1" height="1" fill="#7f7987" /><rect x="8" y="3" width="1" height="1" fill="#8a7d91" /><rect x="8" y="4" width="1" height="1" fill="#8e7e98" /><rect x="8" y="5" width="1" height="1" fill="#7e6f8c" /><rect x="8" y="6" width="1" height="1" fill="#9087a6" /><rect x="8" y="7" width="1" height="1" fill="#9c98b9" /><rect x="8" y="8" width="1" height="1" fill="#9291b1" /><rect x="8" y="9" width="1" height="1" fill="#9793b6" /><rect x="9" y="0" width="1" height="1" fill="#000602" /><rect x="9" y="1" width="1" height="1" fill="#000500" /><rect x="9" y="2" width="1" height="1" fill="#000200" /><rect x="9" y="3" width="1" height="1" fill="#030000" /><rect x="9" y="4" width="1" height="1" fill="#0b040b" /><rect x="9" y="5" width="1" height="1" fill="#02000c" /><rect x="9" y="6" width="1" height="1" fill="#000012" /><rect x="9" y="7" width="1" height="1" fill="#000015" /><rect x="9" y="8" width="1" height="1" fill="#00051f" /><rect x="9" y="9" width="1" height="1" fill="#000019" /></g></svg>