<svg width="800" height="1000" xmlns="http://www.w3.org/2000/svg"><defs><linearGradient id="g" x1="0" x2="1" y1="0" y2="1"><stop offset="0%" stop-color="#2d3c96"/><stop offset="100%" stop-color="#d53392"/></linearGradient></defs><rect x="10" y="10" width="780" height="980" fill="url(#g)" rx="50" ry="50" stroke="gold" stroke-width="20"/><text x="400" y="920" width="780" text-anchor="middle" style="font:bold 200px 'Helvetica Neue';fill:gold">05534</text><g transform="translate(80 80) scale(64)"><rect x="0" y="0" width="1" height="1" fill="#738a6d" /><rect x="0" y="1" width="1" height="1" fill="#6b805f" /><rect x="0" y="2" width="1" height="1" fill="#798668" /><rect x="0" y="3" width="1" height="1" fill="#747c65" /><rect x="0" y="4" width="1" height="1" fill="#7f8279" /><rect x="0" y="5" width="1" height="1" fill="#3a3f42" /><rect x="0" y="6" width="1" height="1" fill="#0c1622" /><rect x="0" y="7" width="1" height="1" fill="#000316" /><rect x="0" y="8" width="1" height="1" fill="#000219" /><rect x="0" y="9" width="1" height="1" fill="#000d28" /><rect x="1" y="0" width="1" height="1" fill="#cceab8" /><rect x="1" y="1" width="1" height="1" fill="#c6e3ad" /><rect x="1" y="2" width="1" height="1" fill="#cfe5b6" /><rect x="1" y="3" width="1" height="1" fill="#d7e7c3" /><rect x="1" y="4" width="1" height="1" fill="#9ba696" /><rect x="1" y="5" width="1" height="1" fill="#3a4646" /><rect x="1" y="6" width="1" height="1" fill="#000312" /><rect x="1" y="7" width="1" height="1" fill="#01122c" /><rect x="1" y="8" width="1" height="1" fill="#5b6e8e" /><rect x="1" y="9" width="1" height="1" fill="#8c9fc0" /><rect x="2" y="0" width="1" height="1" fill="#bfe7a0" /><rect x="2" y="1" width="1" height="1" fill="#b3d893" /><rect x="2" y="2" width="1" height="1" fill="#d4efb8" /><rect x="2" y="3" width="1" height="1" fill="#879b76" /><rect x="2" y="4" width="1" height="1" fill="#000700" /><rect x="2" y="5" width="1" height="1" fill="#000912" /><rect x="2" y="6" width="1" height="1" fill="#374663" /><rect x="2" y="7" width="1" height="1" fill="#7d90ba" /><rect x="2" y="8" width="1" height="1" fill="#9db1e3" /><rect x="2" y="9" width="1" height="1" fill="#a2b3e7" /><rect x="3" y="0" width="1" height="1" fill="#bdea99" /><rect x="3" y="1" width="1" height="1" fill="#c8f0a9" /><rect x="3" y="2" width="1" height="1" fill="#9ab582" /><rect x="3" y="3" width="1" height="1" fill="#000800" /><rect x="3" y="4" width="1" height="1" fill="#000304" /><rect x="3" y="5" width="1" height="1" fill="#525a71" /><rect x="3" y="6" width="1" height="1" fill="#a1aeda" /><rect x="3" y="7" width="1" height="1" fill="#a7b6ef" /><rect x="3" y="8" width="1" height="1" fill="#9babe9" /><rect x="3" y="9" width="1" height="1" fill="#a1aff0" /><rect x="4" y="0" width="1" height="1" fill="#c4f0a3" /><rect x="4" y="1" width="1" height="1" fill="#b8dc9e" /><rect x="4" y="2" width="1" height="1" fill="#263c16" /><rect x="4" y="3" width="1" height="1" fill="#000500" /><rect x="4" y="4" width="1" height="1" fill="#65667a" /><rect x="4" y="5" width="1" height="1" fill="#a6a3ce" /><rect x="4" y="6" width="1" height="1" fill="#b5b7f2" /><rect x="4" y="7" width="1" height="1" fill="#a9adf4" /><rect x="4" y="8" width="1" height="1" fill="#a7adf7" /><rect x="4" y="9" width="1" height="1" fill="#a5abf5" /><rect x="5" y="0" width="1" height="1" fill="#bce5a1" /><rect x="5" y="1" width="1" height="1" fill="#5d7a4c" /><rect x="5" y="2" width="1" height="1" fill="#000a00" /><rect x="5" y="3" width="1" height="1" fill="#424147" /><rect x="5" y="4" width="1" height="1" fill="#a398ba" /><rect x="5" y="5" width="1" height="1" fill="#c0b2e7" /><rect x="5" y="6" width="1" height="1" fill="#bbb0f4" /><rect x="5" y="7" width="1" height="1" fill="#b2acf4" /><rect x="5" y="8" width="1" height="1" fill="#b6b2fc" /><rect x="5" y="9" width="1" height="1" fill="#b6b0f6" /><rect x="6" y="0" width="1" height="1" fill="#a0c592" /><rect x="6" y="1" width="1" height="1" fill="#011500" /><rect x="6" y="2" width="1" height="1" fill="#030303" /><rect x="6" y="3" width="1" height="1" fill="#9e8fa6" /><rect x="6" y="4" width="1" height="1" fill="#d3b8e5" /><rect x="6" y="5" width="1" height="1" fill="#d1b2ed" /><rect x="6" y="6" width="1" height="1" fill="#c0a6e7" /><rect x="6" y="7" width="1" height="1" fill="#bfaaeb" /><rect x="6" y="8" width="1" height="1" fill="#c3b1ef" /><rect x="6" y="9" width="1" height="1" fill="#c1afe9" /><rect x="7" y="0" width="1" height="1" fill="#7e9c76" /><rect x="7" y="1" width="1" height="1" fill="#000600" /><rect x="7" y="2" width="1" height="1" fill="#544852" /><rect x="7" y="3" width="1" height="1" fill="#cbaccc" /><rect x="7" y="4" width="1" height="1" fill="#daafdd" /><rect x="7" y="5" width="1" height="1" fill="#d7a8df" /><rect x="7" y="6" width="1" height="1" fill="#cea5dd" /><rect x="7" y="7" width="1" height="1" fill="#d2ade3" /><rect x="7" y="8" width="1" height="1" fill="#cdadde" /><rect x="7" y="9" width="1" height="1" fill="#cbacd8" /><rect x="8" y="0" width="1" height="1" fill="#496245" /><rect x="8" y="1" width="1" height="1" fill="#000100" /><rect x="8" y="2" width="1" height="1" fill="#a18999" /><rect x="8" y="3" width="1" height="1" fill="#e4b7d6" /><rect x="8" y="4" width="1" height="1" fill="#dea4cd" /><rect x="8" y="5" width="1" height="1" fill="#e5a6d1" /><rect x="8" y="6" width="1" height="1" fill="#e4abd4" /><rect x="8" y="7" width="1" height="1" fill="#e5b1d7" /><rect x="8" y="8" width="1" height="1" fill="#dcadcd" /><rect x="8" y="9" width="1" height="1" fill="#dbaecb" /><rect x="9" y="0" width="1" height="1" fill="#21351a" /><rect x="9" y="1" width="1" height="1" fill="#0a0501" /><rect x="9" y="2" width="1" height="1" fill="#bf9dad" /><rect x="9" y="3" width="1" height="1" fill="#e7afcc" /><rect x="9" y="4" width="1" height="1" fill="#eea7c7" /><rect x="9" y="5" width="1" height="1" fill="#f7accb" /><rect x="9" y="6" width="1" height="1" fill="#f1abc7" /><rect x="9" y="7" width="1" height="1" fill="#eeadc5" /><rect x="9" y="8" width="1" height="1" fill="#e8adc1" /><rect x="9" y="9" width="1" height="1" fill="#e9b0c3" /></g></svg>