<svg width="800" height="1000" xmlns="http://www.w3.org/2000/svg"><defs><linearGradient id="g" x1="0" x2="1" y1="0" y2="1"><stop offset="0%" stop-color="#2d3c96"/><stop offset="100%" stop-color="#d53392"/></linearGradient></defs><rect x="10" y="10" width="780" height="980" fill="url(#g)" rx="50" ry="50" stroke="gold" stroke-width="20"/><text x="400" y="920" width="780" text-anchor="middle" style="font:bold 200px 'Helvetica Neue';fill:gold">05535</text><g transform="translate(80 80) scale(64)"><rect x="0" y="0" width="1" height="1" fill="#011100" /><rect x="0" y="1" width="1" height="1" fill="#0b0000" /><rect x="0" y="2" width="1" height="1" fill="#c99fa9" /><rect x="0" y="3" width="1" height="1" fill="#fab9cd" /><rect x="0" y="4" width="1" height="1" fill="#fcadc3" /><rect x="0" y="5" width="1" height="1" fill="#ffb0c5" /><rect x="0" y="6" width="1" height="1" fill="#fbaab9" /><rect x="0" y="7" width="1" height="1" fill="#f8acb8" /><rect x="0" y="8" width="1" height="1" fill="#f6b0bb" /><rect x="0" y="9" width="1" height="1" fill="#f3afbe" /><rect x="1" y="0" width="1" height="1" fill="#000800" /><rect x="1" y="1" width="1" height="1" fill="#201408" /><rect x="1" y="2" width="1" height="1" fill="#d7afb0" /><rect x="1" y="3" width="1" height="1" fill="#fec1c9" /><rect x="1" y="4" width="1" height="1" fill="#feb3ba" /><rect x="1" y="5" width="1" height="1" fill="#ffb8bb" /><rect x="1" y="6" width="1" height="1" fill="#feb3b0" /><rect x="1" y="7" width="1" height="1" fill="#ffb9b3" /><rect x="1" y="8" width="1" height="1" fill="#ffbeb6" /><rect x="1" y="9" width="1" height="1" fill="#f6b7b2" /><rect x="2" y="0" width="1" height="1" fill="#031100" /><rect x="2" y="1" width="1" height="1" fill="#0a0000" /><rect x="2" y="2" width="1" height="1" fill="#cbaaa1" /><rect x="2" y="3" width="1" height="1" fill="#fecdc8" /><rect x="2" y="4" width="1" height="1" fill="#fdc4b9" /><rect x="2" y="5" width="1" height="1" fill="#ffc5b3" /><rect x="2" y="6" width="1" height="1" fill="#ffc9ae" /><rect x="2" y="7" width="1" height="1" fill="#fcc6a4" /><rect x="2" y="8" width="1" height="1" fill="#f9c7a4" /><rect x="2" y="9" width="1" height="1" fill="#f9cba7" /><rect x="3" y="0" width="1" height="1" fill="#36481e" /><rect x="3" y="1" width="1" height="1" fill="#080700" /><rect x="3" y="2" width="1" height="1" fill="#c6b49e" /><rect x="3" y="3" width="1" height="1" fill="#f5d5c0" /><rect x="3" y="4" width="1" height="1" fill="#f7d0b3" /><rect x="3" y="5" width="1" height="1" fill="#fbcfaa" /><rect x="3" y="6" width="1" height="1" fill="#ffd4a7" /><rect x="3" y="7" width="1" height="1" fill="#fed3a0" /><rect x="3" y="8" width="1" height="1" fill="#ffd7a1" /><rect x="3" y="9" width="1" height="1" fill="#ffdda6" /><rect x="4" y="0" width="1" height="1" fill="#618150" /><rect x="4" y="1" width="1" height="1" fill="#000a00" /><rect x="4" y="2" width="1" height="1" fill="#9b9b75" /><rect x="4" y="3" width="1" height="1" fill="#f1e3bc" /><rect x="4" y="4" width="1" height="1" fill="#f9deb1" /><rect x="4" y="5" width="1" height="1" fill="#fdd9a5" /><rect x="4" y="6" width="1" height="1" fill="#ffda9f" /><rect x="4" y="7" width="1" height="1" fill="#ffd79b" /><rect x="4" y="8" width="1" height="1" fill="#fed699" /><rect x="4" y="9" width="1" height="1" fill="#ffdca0" /><rect x="5" y="0" width="1" height="1" fill="#7ea570" /><rect x="5" y="1" width="1" height="1" fill="#001200" /><rect x="5" y="2" width="1" height="1" fill="#485625" /><rect x="5" y="3" width="1" height="1" fill="#e2e5b0" /><rect x="5" y="4" width="1" height="1" fill="#f3eaaf" /><rect x="5" y="5" width="1" height="1" fill="#f7e5a5" /><rect x="5" y="6" width="1" height="1" fill="#fae39d" /><rect x="5" y="7" width="1" height="1" fill="#ffe8a0" /><rect x="5" y="8" width="1" height="1" fill="#fae49b" /><rect x="5" y="9" width="1" height="1" fill="#f5e19a" /><rect x="6" y="0" width="1" height="1" fill="#9dc68e" /><rect x="6" y="1" width="1" height="1" fill="#274511" /><rect x="6" y="2" width="1" height="1" fill="#001000" /><rect x="6" y="3" width="1" height="1" fill="#a3b279" /><rect x="6" y="4" width="1" height="1" fill="#dde8a6" /><rect x="6" y="5" width="1" height="1" fill="#dee89f" /><rect x="6" y="6" width="1" height="1" fill="#dbe493" /><rect x="6" y="7" width="1" height="1" fill="#e7ef9a" /><rect x="6" y="8" width="1" height="1" fill="#e8f09b" /><rect x="6" y="9" width="1" height="1" fill="#dfe792" /><rect x="7" y="0" width="1" height="1" fill="#b4e1a6" /><rect x="7" y="1" width="1" height="1" fill="#6d8f5c" /><rect x="7" y="2" width="1" height="1" fill="#000e00" /><rect x="7" y="3" width="1" height="1" fill="#3d561d" /><rect x="7" y="4" width="1" height="1" fill="#bfd998" /><rect x="7" y="5" width="1" height="1" fill="#d2eea4" /><rect x="7" y="6" width="1" height="1" fill="#c2e392" /><rect x="7" y="7" width="1" height="1" fill="#c2e68e" /><rect x="7" y="8" width="1" height="1" fill="#c5ec91" /><rect x="7" y="9" width="1" height="1" fill="#bde688" /><rect x="8" y="0" width="1" height="1" fill="#b5e9a9" /><rect x="8" y="1" width="1" height="1" fill="#a0c894" /><rect x="8" y="2" width="1" height="1" fill="#335427" /><rect x="8" y="3" width="1" height="1" fill="#001600" /><rect x="8" y="4" width="1" height="1" fill="#698b58" /><rect x="8" y="5" width="1" height="1" fill="#b1d99d" /><rect x="8" y="6" width="1" height="1" fill="#b8eaa1" /><rect x="8" y="7" width="1" height="1" fill="#abe694" /><rect x="8" y="8" width="1" height="1" fill="#a6ed91" /><rect x="8" y="9" width="1" height="1" fill="#9ded8a" /><rect x="9" y="0" width="1" height="1" fill="#a3e9a1" /><rect x="9" y="1" width="1" height="1" fill="#abe6ac" /><rect x="9" y="2" width="1" height="1" fill="#7eae7e" /><rect x="9" y="3" width="1" height="1" fill="#001100" /><rect x="9" y="4" width="1" height="1" fill="#001100" /><rect x="9" y="5" width="1" height="1" fill="#729c6c" /><rect x="9" y="6" width="1" height="1" fill="#aadba3" /><rect x="9" y="7" width="1" height="1" fill="#a3e19e" /><rect x="9" y="8" width="1" height="1" fill="#97e899" /><rect x="9" y="9" width="1" height="1" fill="#8aea90" /></g></svg>