<svg width="800" height="1000" xmlns="http://www.w3.org/2000/svg"><defs><linearGradient id="g" x1="0" x2="1" y1="0" y2="1"><stop offset="0%" stop-color="#2d3c96"/><stop offset="100%" stop-color="#d53392"/></linearGradient></defs><rect x="10" y="10" width="780" height="980" fill="url(#g)" rx="50" ry="50" stroke="gold" stroke-width="20"/><text x="400" y="920" width="780" text-anchor="middle" style="font:bold 200px 'Helvetica Neue';fill:gold">05538</text><g transform="translate(80 80) scale(64)"><rect x="0" y="0" width="1" height="1" fill="#7ceca2" /><rect x="0" y="1" width="1" height="1" fill="#7ceca4" /><rect x="0" y="2" width="1" height="1" fill="#7ceba7" /><rect x="0" y="3" width="1" height="1" fill="#7ceaab" /><rect x="0" y="4" width="1" height="1" fill="#7ce9af" /><rect x="0" y="5" width="1" height="1" fill="#7ce9b0" /><rect x="0" y="6" width="1" height="1" fill="#7ce8b4" /><rect x="0" y="7" width="1" height="1" fill="#7ce8b6" /><rect x="0" y="8" width="1" height="1" fill="#7ce8b7" /><rect x="0" y="9" width="1" height="1" fill="#7ce7b9" /><rect x="1" y="0" width="1" height="1" fill="#7ceca2" /><rect x="1" y="1" width="1" height="1" fill="#7ceba6" /><rect x="1" y="2" width="1" height="1" fill="#7ceba7" /><rect x="1" y="3" width="1" height="1" fill="#7ceaab" /><rect x="1" y="4" width="1" height="1" fill="#7ce9af" /><rect x="1" y="5" width="1" height="1" fill="#7ce9b2" /><rect x="1" y="6" width="1" height="1" fill="#7ce8b4" /><rect x="1" y="7" width="1" height="1" fill="#7ce8b7" /><rect x="1" y="8" width="1" height="1" fill="#7ce7b9" /><rect x="1" y="9" width="1" height="1" fill="#7ce7bb" /><rect x="2" y="0" width="1" height="1" fill="#7aeca4" /><rect x="2" y="1" width="1" height="1" fill="#7aeca7" /><rect x="2" y="2" width="1" height="1" fill="#7ceba9" /><rect x="2" y="3" width="1" height="1" fill="#7ceaad" /><rect x="2" y="4" width="1" height="1" fill="#7ce9b0" /><rect x="2" y="5" width="1" height="1" fill="#7ce8b4" /><rect x="2" y="6" width="1" height="1" fill="#7ce8b6" /><rect x="2" y="7" width="1" height="1" fill="#7ce8b7" /><rect x="2" y="8" width="1" height="1" fill="#7ce7bb" /><rect x="2" y="9" width="1" height="1" fill="#7ce7bd" /><rect x="3" y="0" width="1" height="1" fill="#7aeca6" /><rect x="3" y="1" width="1" height="1" fill="#7aeba9" /><rect x="3" y="2" width="1" height="1" fill="#79ecab" /><rect x="3" y="3" width="1" height="1" fill="#79ebaf" /><rect x="3" y="4" width="1" height="1" fill="#79eab2" /><rect x="3" y="5" width="1" height="1" fill="#7ae9b6" /><rect x="3" y="6" width="1" height="1" fill="#7ce8b7" /><rect x="3" y="7" width="1" height="1" fill="#7de7b9" /><rect x="3" y="8" width="1" height="1" fill="#80e5bd" /><rect x="3" y="9" width="1" height="1" fill="#83e3be" /><rect x="4" y="0" width="1" height="1" fill="#7aebab" /><rect x="4" y="1" width="1" height="1" fill="#78ecaf" /><rect x="4" y="2" width="1" height="1" fill="#76ecb0" /><rect x="4" y="3" width="1" height="1" fill="#75ecb4" /><rect x="4" y="4" width="1" height="1" fill="#73eab4" /><rect x="4" y="5" width="1" height="1" fill="#7aecbb" /><rect x="4" y="6" width="1" height="1" fill="#7ae5b9" /><rect x="4" y="7" width="1" height="1" fill="#84e6bf" /><rect x="4" y="8" width="1" height="1" fill="#90e7c5" /><rect x="4" y="9" width="1" height="1" fill="#8dd9bd" /><rect x="5" y="0" width="1" height="1" fill="#7aebad" /><rect x="5" y="1" width="1" height="1" fill="#78ebb0" /><rect x="5" y="2" width="1" height="1" fill="#75ecb2" /><rect x="5" y="3" width="1" height="1" fill="#73ecb6" /><rect x="5" y="4" width="1" height="1" fill="#79efbb" /><rect x="5" y="5" width="1" height="1" fill="#78e8ba" /><rect x="5" y="6" width="1" height="1" fill="#81e7bf" /><rect x="5" y="7" width="1" height="1" fill="#88e2bf" /><rect x="5" y="8" width="1" height="1" fill="#8bd5ba" /><rect x="5" y="9" width="1" height="1" fill="#a2ddc7" /><rect x="6" y="0" width="1" height="1" fill="#7be8ae" /><rect x="6" y="1" width="1" height="1" fill="#78e9b1" /><rect x="6" y="2" width="1" height="1" fill="#77eab3" /><rect x="6" y="3" width="1" height="1" fill="#77e9b6" /><rect x="6" y="4" width="1" height="1" fill="#7dedbd" /><rect x="6" y="5" width="1" height="1" fill="#7fe6bb" /><rect x="6" y="6" width="1" height="1" fill="#87e3be" /><rect x="6" y="7" width="1" height="1" fill="#8cdbbc" /><rect x="6" y="8" width="1" height="1" fill="#9bd9c2" /><rect x="6" y="9" width="1" height="1" fill="#c1f0de" /><rect x="7" y="0" width="1" height="1" fill="#7ce9b0" /><rect x="7" y="1" width="1" height="1" fill="#7aeab2" /><rect x="7" y="2" width="1" height="1" fill="#7ae9b6" /><rect x="7" y="3" width="1" height="1" fill="#7ae8b7" /><rect x="7" y="4" width="1" height="1" fill="#7fe6bb" /><rect x="7" y="5" width="1" height="1" fill="#87e5c0" /><rect x="7" y="6" width="1" height="1" fill="#8adbbb" /><rect x="7" y="7" width="1" height="1" fill="#9cdec3" /><rect x="7" y="8" width="1" height="1" fill="#c4f5e2" /><rect x="7" y="9" width="1" height="1" fill="#e3fff7" /><rect x="8" y="0" width="1" height="1" fill="#7de8b2" /><rect x="8" y="1" width="1" height="1" fill="#7de8b4" /><rect x="8" y="2" width="1" height="1" fill="#7de7b7" /><rect x="8" y="3" width="1" height="1" fill="#7fe6b9" /><rect x="8" y="4" width="1" height="1" fill="#84e4be" /><rect x="8" y="5" width="1" height="1" fill="#8be0bf" /><rect x="8" y="6" width="1" height="1" fill="#9be1c5" /><rect x="8" y="7" width="1" height="1" fill="#bdf2de" /><rect x="8" y="8" width="1" height="1" fill="#e3fffb" /><rect x="8" y="9" width="1" height="1" fill="#f2ffff" /><rect x="9" y="0" width="1" height="1" fill="#7ee9b3" /><rect x="9" y="1" width="1" height="1" fill="#7ee8b7" /><rect x="9" y="2" width="1" height="1" fill="#80e7b8" /><rect x="9" y="3" width="1" height="1" fill="#81e6bc" /><rect x="9" y="4" width="1" height="1" fill="#8be9c4" /><rect x="9" y="5" width="1" height="1" fill="#8bdcbc" /><rect x="9" y="6" width="1" height="1" fill="#b0f1d9" /><rect x="9" y="7" width="1" height="1" fill="#dcfffa" /><rect x="9" y="8" width="1" height="1" fill="#e9fffd" /><rect x="9" y="9" width="1" height="1" fill="#f3fffb" /></g></svg>