<svg width="800" height="1000" xmlns="http://www.w3.org/2000/svg"><defs><linearGradient id="g" x1="0" x2="1" y1="0" y2="1"><stop offset="0%" stop-color="#2d3c96"/><stop offset="100%" stop-color="#d53392"/></linearGradient></defs><rect x="10" y="10" width="780" height="980" fill="url(#g)" rx="50" ry="50" stroke="gold" stroke-width="20"/><text x="400" y="920" width="780" text-anchor="middle" style="font:bold 200px 'Helvetica Neue';fill:gold">05531</text><g transform="translate(80 80) scale(64)"><rect x="0" y="0" width="1" height="1" fill="#fcc2aa" /><rect x="0" y="1" width="1" height="1" fill="#fbc0b2" /><rect x="0" y="2" width="1" height="1" fill="#fec6c7" /><rect x="0" y="3" width="1" height="1" fill="#ab7e83" /><rect x="0" y="4" width="1" height="1" fill="#1b0000" /><rect x="0" y="5" width="1" height="1" fill="#927770" /><rect x="0" y="6" width="1" height="1" fill="#f1d0bd" /><rect x="0" y="7" width="1" height="1" fill="#f6cab1" /><rect x="0" y="8" width="1" height="1" fill="#ffc5ad" /><rect x="0" y="9" width="1" height="1" fill="#fcbaa4" /><rect x="1" y="0" width="1" height="1" fill="#fdc8a8" /><rect x="1" y="1" width="1" height="1" fill="#f9c2ad" /><rect x="1" y="2" width="1" height="1" fill="#ffcbc5" /><rect x="1" y="3" width="1" height="1" fill="#b48688" /><rect x="1" y="4" width="1" height="1" fill="#160000" /><rect x="1" y="5" width="1" height="1" fill="#775f55" /><rect x="1" y="6" width="1" height="1" fill="#e5c9b4" /><rect x="1" y="7" width="1" height="1" fill="#edc8ad" /><rect x="1" y="8" width="1" height="1" fill="#ffc9ad" /><rect x="1" y="9" width="1" height="1" fill="#ffc8ae" /><rect x="2" y="0" width="1" height="1" fill="#f8c8a4" /><rect x="2" y="1" width="1" height="1" fill="#ffcdb2" /><rect x="2" y="2" width="1" height="1" fill="#fbc7ba" /><rect x="2" y="3" width="1" height="1" fill="#dfb2ad" /><rect x="2" y="4" width="1" height="1" fill="#1b0000" /><rect x="2" y="5" width="1" height="1" fill="#291105" /><rect x="2" y="6" width="1" height="1" fill="#d4bba5" /><rect x="2" y="7" width="1" height="1" fill="#f1cfb4" /><rect x="2" y="8" width="1" height="1" fill="#f4c5a7" /><rect x="2" y="9" width="1" height="1" fill="#fbc4a6" /><rect x="3" y="0" width="1" height="1" fill="#f6cba1" /><rect x="3" y="1" width="1" height="1" fill="#fdcfae" /><rect x="3" y="2" width="1" height="1" fill="#ffccb7" /><rect x="3" y="3" width="1" height="1" fill="#ecc1b1" /><rect x="3" y="4" width="1" height="1" fill="#674a3c" /><rect x="3" y="5" width="1" height="1" fill="#110000" /><rect x="3" y="6" width="1" height="1" fill="#ab957e" /><rect x="3" y="7" width="1" height="1" fill="#f8ddc2" /><rect x="3" y="8" width="1" height="1" fill="#f7ceb2" /><rect x="3" y="9" width="1" height="1" fill="#ffcfb1" /><rect x="4" y="0" width="1" height="1" fill="#f6d0a3" /><rect x="4" y="1" width="1" height="1" fill="#fdd0a9" /><rect x="4" y="2" width="1" height="1" fill="#ffd3b3" /><rect x="4" y="3" width="1" height="1" fill="#fdd1b8" /><rect x="4" y="4" width="1" height="1" fill="#a98d75" /><rect x="4" y="5" width="1" height="1" fill="#170300" /><rect x="4" y="6" width="1" height="1" fill="#67553d" /><rect x="4" y="7" width="1" height="1" fill="#e3cdb5" /><rect x="4" y="8" width="1" height="1" fill="#f2ceb4" /><rect x="4" y="9" width="1" height="1" fill="#fdd1b4" /><rect x="5" y="0" width="1" height="1" fill="#f9d5a3" /><rect x="5" y="1" width="1" height="1" fill="#fcd4a3" /><rect x="5" y="2" width="1" height="1" fill="#ffd6aa" /><rect x="5" y="3" width="1" height="1" fill="#ffd9b1" /><rect x="5" y="4" width="1" height="1" fill="#d5bb98" /><rect x="5" y="5" width="1" height="1" fill="#312100" /><rect x="5" y="6" width="1" height="1" fill="#0d0000" /><rect x="5" y="7" width="1" height="1" fill="#b6a48c" /><rect x="5" y="8" width="1" height="1" fill="#ffe5cd" /><rect x="5" y="9" width="1" height="1" fill="#ebc6a9" /><rect x="6" y="0" width="1" height="1" fill="#fbdca5" /><rect x="6" y="1" width="1" height="1" fill="#fcd7a0" /><rect x="6" y="2" width="1" height="1" fill="#ffd79d" /><rect x="6" y="3" width="1" height="1" fill="#ffdaa3" /><rect x="6" y="4" width="1" height="1" fill="#f5deac" /><rect x="6" y="5" width="1" height="1" fill="#94875d" /><rect x="6" y="6" width="1" height="1" fill="#0a0100" /><rect x="6" y="7" width="1" height="1" fill="#4c4028" /><rect x="6" y="8" width="1" height="1" fill="#d8c0a8" /><rect x="6" y="9" width="1" height="1" fill="#fcddbe" /><rect x="7" y="0" width="1" height="1" fill="#fde0a6" /><rect x="7" y="1" width="1" height="1" fill="#ffdc9e" /><rect x="7" y="2" width="1" height="1" fill="#ffd993" /><rect x="7" y="3" width="1" height="1" fill="#fed993" /><rect x="7" y="4" width="1" height="1" fill="#f8e3a4" /><rect x="7" y="5" width="1" height="1" fill="#e2d6a4" /><rect x="7" y="6" width="1" height="1" fill="#5a5434" /><rect x="7" y="7" width="1" height="1" fill="#080000" /><rect x="7" y="8" width="1" height="1" fill="#806c54" /><rect x="7" y="9" width="1" height="1" fill="#f9dfbe" /><rect x="8" y="0" width="1" height="1" fill="#fde1a2" /><rect x="8" y="1" width="1" height="1" fill="#ffe09b" /><rect x="8" y="2" width="1" height="1" fill="#ffdd8e" /><rect x="8" y="3" width="1" height="1" fill="#ffde8e" /><rect x="8" y="4" width="1" height="1" fill="#f4e097" /><rect x="8" y="5" width="1" height="1" fill="#faf0b5" /><rect x="8" y="6" width="1" height="1" fill="#bab693" /><rect x="8" y="7" width="1" height="1" fill="#100a00" /><rect x="8" y="8" width="1" height="1" fill="#120200" /><rect x="8" y="9" width="1" height="1" fill="#9c8462" /><rect x="9" y="0" width="1" height="1" fill="#fbe29f" /><rect x="9" y="1" width="1" height="1" fill="#ffe49a" /><rect x="9" y="2" width="1" height="1" fill="#ffe38f" /><rect x="9" y="3" width="1" height="1" fill="#ffe68e" /><rect x="9" y="4" width="1" height="1" fill="#fff19c" /><rect x="9" y="5" width="1" height="1" fill="#ddd58d" /><rect x="9" y="6" width="1" height="1" fill="#fcf9c6" /><rect x="9" y="7" width="1" height="1" fill="#9d9773" /><rect x="9" y="8" width="1" height="1" fill="#160900" /><rect x="9" y="9" width="1" height="1" fill="#110000" /></g></svg>