<svg width="800" height="1000" xmlns="http://www.w3.org/2000/svg"><defs><linearGradient id="g" x1="0" x2="1" y1="0" y2="1"><stop offset="0%" stop-color="#2d3c96"/><stop offset="100%" stop-color="#d53392"/></linearGradient></defs><rect x="10" y="10" width="780" height="980" fill="url(#g)" rx="50" ry="50" stroke="gold" stroke-width="20"/><text x="400" y="920" width="780" text-anchor="middle" style="font:bold 200px 'Helvetica Neue';fill:gold">05593</text><g transform="translate(80 80) scale(64)"><rect x="0" y="0" width="1" height="1" fill="#ffffff" /><rect x="0" y="1" width="1" height="1" fill="#fdfdfd" /><rect x="0" y="2" width="1" height="1" fill="#ffffff" /><rect x="0" y="3" width="1" height="1" fill="#ffffff" /><rect x="0" y="4" width="1" height="1" fill="#dcdcdc" /><rect x="0" y="5" width="1" height="1" fill="#d1d1d1" /><rect x="0" y="6" width="1" height="1" fill="#eeeeee" /><rect x="0" y="7" width="1" height="1" fill="#ffffff" /><rect x="0" y="8" width="1" height="1" fill="#ffffff" /><rect x="0" y="9" width="1" height="1" fill="#fcfcfc" /><rect x="1" y="0" width="1" height="1" fill="#fefefe" /><rect x="1" y="1" width="1" height="1" fill="#ffffff" /><rect x="1" y="2" width="1" height="1" fill="#afafaf" /><rect x="1" y="3" width="1" height="1" fill="#414141" /><rect x="1" y="4" width="1" height="1" fill="#111111" /><rect x="1" y="5" width="1" height="1" fill="#6e6e6e" /><rect x="1" y="6" width="1" height="1" fill="#666666" /><rect x="1" y="7" width="1" height="1" fill="#636363" /><rect x="1" y="8" width="1" height="1" fill="#f6f6f6" /><rect x="1" y="9" width="1" height="1" fill="#ffffff" /><rect x="2" y="0" width="1" height="1" fill="#ffffff" /><rect x="2" y="1" width="1" height="1" fill="#939393" /><rect x="2" y="2" width="1" height="1" fill="#000000" /><rect x="2" y="3" width="1" height="1" fill="#000000" /><rect x="2" y="4" width="1" height="1" fill="#1f1f1f" /><rect x="2" y="5" width="1" height="1" fill="#bdbdbd" /><rect x="2" y="6" width="1" height="1" fill="#d5d5d5" /><rect x="2" y="7" width="1" height="1" fill="#000000" /><rect x="2" y="8" width="1" height="1" fill="#323232" /><rect x="2" y="9" width="1" height="1" fill="#f8f8f8" /><rect x="3" y="0" width="1" height="1" fill="#e7e7e7" /><rect x="3" y="1" width="1" height="1" fill="#000000" /><rect x="3" y="2" width="1" height="1" fill="#686868" /><rect x="3" y="3" width="1" height="1" fill="#e7e7e7" /><rect x="3" y="4" width="1" height="1" fill="#e1e1e1" /><rect x="3" y="5" width="1" height="1" fill="#9c9c9c" /><rect x="3" y="6" width="1" height="1" fill="#e4e4e4" /><rect x="3" y="7" width="1" height="1" fill="#5d5d5d" /><rect x="3" y="8" width="1" height="1" fill="#000000" /><rect x="3" y="9" width="1" height="1" fill="#8b8b8b" /><rect x="4" y="0" width="1" height="1" fill="#b5b5b5" /><rect x="4" y="1" width="1" height="1" fill="#000000" /><rect x="4" y="2" width="1" height="1" fill="#bdbdbd" /><rect x="4" y="3" width="1" height="1" fill="#ebebeb" /><rect x="4" y="4" width="1" height="1" fill="#c3c3c3" /><rect x="4" y="5" width="1" height="1" fill="#969696" /><rect x="4" y="6" width="1" height="1" fill="#ececec" /><rect x="4" y="7" width="1" height="1" fill="#575757" /><rect x="4" y="8" width="1" height="1" fill="#000000" /><rect x="4" y="9" width="1" height="1" fill="#545454" /><rect x="5" y="0" width="1" height="1" fill="#a6a6a6" /><rect x="5" y="1" width="1" height="1" fill="#000000" /><rect x="5" y="2" width="1" height="1" fill="#e6e6e6" /><rect x="5" y="3" width="1" height="1" fill="#929292" /><rect x="5" y="4" width="1" height="1" fill="#565656" /><rect x="5" y="5" width="1" height="1" fill="#9d9d9d" /><rect x="5" y="6" width="1" height="1" fill="#f8f8f8" /><rect x="5" y="7" width="1" height="1" fill="#cecece" /><rect x="5" y="8" width="1" height="1" fill="#1f1f1f" /><rect x="5" y="9" width="1" height="1" fill="#3e3e3e" /><rect x="6" y="0" width="1" height="1" fill="#f1f1f1" /><rect x="6" y="1" width="1" height="1" fill="#030303" /><rect x="6" y="2" width="1" height="1" fill="#888888" /><rect x="6" y="3" width="1" height="1" fill="#d0d0d0" /><rect x="6" y="4" width="1" height="1" fill="#bcbcbc" /><rect x="6" y="5" width="1" height="1" fill="#9e9e9e" /><rect x="6" y="6" width="1" height="1" fill="#edeeee" /><rect x="6" y="7" width="1" height="1" fill="#dfdfdf" /><rect x="6" y="8" width="1" height="1" fill="#6b6b6b" /><rect x="6" y="9" width="1" height="1" fill="#949494" /><rect x="7" y="0" width="1" height="1" fill="#ffffff" /><rect x="7" y="1" width="1" height="1" fill="#b6b6b6" /><rect x="7" y="2" width="1" height="1" fill="#000000" /><rect x="7" y="3" width="1" height="1" fill="#000000" /><rect x="7" y="4" width="1" height="1" fill="#353535" /><rect x="7" y="5" width="1" height="1" fill="#bdbdbd" /><rect x="7" y="6" width="1" height="1" fill="#cbcbcb" /><rect x="7" y="7" width="1" height="1" fill="#000000" /><rect x="7" y="8" width="1" height="1" fill="#505050" /><rect x="7" y="9" width="1" height="1" fill="#ffffff" /><rect x="8" y="0" width="1" height="1" fill="#fcfcfc" /><rect x="8" y="1" width="1" height="1" fill="#ffffff" /><rect x="8" y="2" width="1" height="1" fill="#d8d8d8" /><rect x="8" y="3" width="1" height="1" fill="#5d5d5d" /><rect x="8" y="4" width="1" height="1" fill="#151515" /><rect x="8" y="5" width="1" height="1" fill="#5f5f5f" /><rect x="8" y="6" width="1" height="1" fill="#5f5f5f" /><rect x="8" y="7" width="1" height="1" fill="#a1a1a1" /><rect x="8" y="8" width="1" height="1" fill="#ffffff" /><rect x="8" y="9" width="1" height="1" fill="#ffffff" /><rect x="9" y="0" width="1" height="1" fill="#ffffff" /><rect x="9" y="1" width="1" height="1" fill="#fcfcfc" /><rect x="9" y="2" width="1" height="1" fill="#ffffff" /><rect x="9" y="3" width="1" height="1" fill="#ffffff" /><rect x="9" y="4" width="1" height="1" fill="#f8f8f8" /><rect x="9" y="5" width="1" height="1" fill="#f1f1f1" /><rect x="9" y="6" width="1" height="1" fill="#ffffff" /><rect x="9" y="7" width="1" height="1" fill="#ffffff" /><rect x="9" y="8" width="1" height="1" fill="#ffffff" /><rect x="9" y="9" width="1" height="1" fill="#fefefe" /></g></svg>