<svg width="800" height="1000" version="1.1" xmlns="http://www.w3.org/2000/svg" xmlns:xlink="http://www.w3.org/1999/xlink">
  <defs>
      <linearGradient id="Gradient2" x1="0" x2="1" y1="0" y2="1">
        <stop offset="0%" stop-color="#2d3c96"/>
        <stop offset="100%" stop-color="#d53392"/>
      </linearGradient>
  </defs>
  <rect x="10" y="10" width="780" height="980" fill="url(#Gradient2)" rx="50" ry="50" stroke="#ffd700" stroke-width="20"/>
  <text x="400" y="920" width="780" text-anchor="middle" style="font: bold 200px 'Helvetica Neue'; fill: #ffd700">05593</text>

  <g transform="translate(80 80) scale(64)">
<rect x="0" y="0" width="1" height="1" fill="#FFFFFF" /><rect x="1" y="0" width="1" height="1" fill="#FEFEFE" /><rect x="2" y="0" width="1" height="1" fill="#FFFFFF" /><rect x="3" y="0" width="1" height="1" fill="#E7E7E7" /><rect x="4" y="0" width="1" height="1" fill="#B5B5B5" /><rect x="5" y="0" width="1" height="1" fill="#A6A6A6" /><rect x="6" y="0" width="1" height="1" fill="#F1F1F1" /><rect x="7" y="0" width="1" height="1" fill="#FFFFFF" /><rect x="8" y="0" width="1" height="1" fill="#FCFCFC" /><rect x="9" y="0" width="1" height="1" fill="#FFFFFF" /><rect x="0" y="1" width="1" height="1" fill="#FDFDFD" /><rect x="1" y="1" width="1" height="1" fill="#FFFFFF" /><rect x="2" y="1" width="1" height="1" fill="#939393" /><rect x="3" y="1" width="1" height="1" fill="#000000" /><rect x="4" y="1" width="1" height="1" fill="#000000" /><rect x="5" y="1" width="1" height="1" fill="#000000" /><rect x="6" y="1" width="1" height="1" fill="#030303" /><rect x="7" y="1" width="1" height="1" fill="#B6B6B6" /><rect x="8" y="1" width="1" height="1" fill="#FFFFFF" /><rect x="9" y="1" width="1" height="1" fill="#FCFCFC" /><rect x="0" y="2" width="1" height="1" fill="#FFFFFF" /><rect x="1" y="2" width="1" height="1" fill="#AFAFAF" /><rect x="2" y="2" width="1" height="1" fill="#000000" /><rect x="3" y="2" width="1" height="1" fill="#686868" /><rect x="4" y="2" width="1" height="1" fill="#BDBDBD" /><rect x="5" y="2" width="1" height="1" fill="#E6E6E6" /><rect x="6" y="2" width="1" height="1" fill="#888888" /><rect x="7" y="2" width="1" height="1" fill="#000000" /><rect x="8" y="2" width="1" height="1" fill="#D8D8D8" /><rect x="9" y="2" width="1" height="1" fill="#FFFFFF" /><rect x="0" y="3" width="1" height="1" fill="#FFFFFF" /><rect x="1" y="3" width="1" height="1" fill="#414141" /><rect x="2" y="3" width="1" height="1" fill="#000000" /><rect x="3" y="3" width="1" height="1" fill="#E7E7E7" /><rect x="4" y="3" width="1" height="1" fill="#EBEBEB" /><rect x="5" y="3" width="1" height="1" fill="#929292" /><rect x="6" y="3" width="1" height="1" fill="#D0D0D0" /><rect x="7" y="3" width="1" height="1" fill="#000000" /><rect x="8" y="3" width="1" height="1" fill="#5D5D5D" /><rect x="9" y="3" width="1" height="1" fill="#FFFFFF" /><rect x="0" y="4" width="1" height="1" fill="#DCDCDC" /><rect x="1" y="4" width="1" height="1" fill="#111111" /><rect x="2" y="4" width="1" height="1" fill="#1F1F1F" /><rect x="3" y="4" width="1" height="1" fill="#E1E1E1" /><rect x="4" y="4" width="1" height="1" fill="#C3C3C3" /><rect x="5" y="4" width="1" height="1" fill="#565656" /><rect x="6" y="4" width="1" height="1" fill="#BCBCBC" /><rect x="7" y="4" width="1" height="1" fill="#353535" /><rect x="8" y="4" width="1" height="1" fill="#151515" /><rect x="9" y="4" width="1" height="1" fill="#F8F8F8" /><rect x="0" y="5" width="1" height="1" fill="#D1D1D1" /><rect x="1" y="5" width="1" height="1" fill="#6E6E6E" /><rect x="2" y="5" width="1" height="1" fill="#BDBDBD" /><rect x="3" y="5" width="1" height="1" fill="#9C9C9C" /><rect x="4" y="5" width="1" height="1" fill="#969696" /><rect x="5" y="5" width="1" height="1" fill="#9D9D9D" /><rect x="6" y="5" width="1" height="1" fill="#9E9E9E" /><rect x="7" y="5" width="1" height="1" fill="#BDBDBD" /><rect x="8" y="5" width="1" height="1" fill="#5F5F5F" /><rect x="9" y="5" width="1" height="1" fill="#F1F1F1" /><rect x="0" y="6" width="1" height="1" fill="#EEEEEE" /><rect x="1" y="6" width="1" height="1" fill="#666666" /><rect x="2" y="6" width="1" height="1" fill="#D5D5D5" /><rect x="3" y="6" width="1" height="1" fill="#E4E4E4" /><rect x="4" y="6" width="1" height="1" fill="#ECECEC" /><rect x="5" y="6" width="1" height="1" fill="#F8F8F8" /><rect x="6" y="6" width="1" height="1" fill="#EDEEEE" /><rect x="7" y="6" width="1" height="1" fill="#CBCBCB" /><rect x="8" y="6" width="1" height="1" fill="#5F5F5F" /><rect x="9" y="6" width="1" height="1" fill="#FFFFFF" /><rect x="0" y="7" width="1" height="1" fill="#FFFFFF" /><rect x="1" y="7" width="1" height="1" fill="#636363" /><rect x="2" y="7" width="1" height="1" fill="#000000" /><rect x="3" y="7" width="1" height="1" fill="#5D5D5D" /><rect x="4" y="7" width="1" height="1" fill="#575757" /><rect x="5" y="7" width="1" height="1" fill="#CECECE" /><rect x="6" y="7" width="1" height="1" fill="#DFDFDF" /><rect x="7" y="7" width="1" height="1" fill="#000000" /><rect x="8" y="7" width="1" height="1" fill="#A1A1A1" /><rect x="9" y="7" width="1" height="1" fill="#FFFFFF" /><rect x="0" y="8" width="1" height="1" fill="#FFFFFF" /><rect x="1" y="8" width="1" height="1" fill="#F6F6F6" /><rect x="2" y="8" width="1" height="1" fill="#323232" /><rect x="3" y="8" width="1" height="1" fill="#000000" /><rect x="4" y="8" width="1" height="1" fill="#000000" /><rect x="5" y="8" width="1" height="1" fill="#1F1F1F" /><rect x="6" y="8" width="1" height="1" fill="#6B6B6B" /><rect x="7" y="8" width="1" height="1" fill="#505050" /><rect x="8" y="8" width="1" height="1" fill="#FFFFFF" /><rect x="9" y="8" width="1" height="1" fill="#FFFFFF" /><rect x="0" y="9" width="1" height="1" fill="#FCFCFC" /><rect x="1" y="9" width="1" height="1" fill="#FFFFFF" /><rect x="2" y="9" width="1" height="1" fill="#F8F8F8" /><rect x="3" y="9" width="1" height="1" fill="#8B8B8B" /><rect x="4" y="9" width="1" height="1" fill="#545454" /><rect x="5" y="9" width="1" height="1" fill="#3E3E3E" /><rect x="6" y="9" width="1" height="1" fill="#949494" /><rect x="7" y="9" width="1" height="1" fill="#FFFFFF" /><rect x="8" y="9" width="1" height="1" fill="#FFFFFF" /><rect x="9" y="9" width="1" height="1" fill="#FEFEFE" />
  </g>
</svg>