<svg width="800" height="1000" xmlns="http://www.w3.org/2000/svg"><defs><linearGradient id="g" x1="0" x2="1" y1="0" y2="1"><stop offset="0%" stop-color="#2d3c96"/><stop offset="100%" stop-color="#d53392"/></linearGradient></defs><rect x="10" y="10" width="780" height="980" fill="url(#g)" rx="50" ry="50" stroke="gold" stroke-width="20"/><text x="400" y="920" width="780" text-anchor="middle" style="font:bold 200px 'Helvetica Neue';fill:gold">05627</text><g transform="translate(80 80) scale(64)"><rect x="0" y="0" width="1" height="1" fill="#ceafc1" /><rect x="0" y="1" width="1" height="1" fill="#e5bdd7" /><rect x="0" y="2" width="1" height="1" fill="#e3a5cc" /><rect x="0" y="3" width="1" height="1" fill="#efa6d1" /><rect x="0" y="4" width="1" height="1" fill="#eca4c9" /><rect x="0" y="5" width="1" height="1" fill="#f1aaca" /><rect x="0" y="6" width="1" height="1" fill="#fcb8d1" /><rect x="0" y="7" width="1" height="1" fill="#f2b1c7" /><rect x="0" y="8" width="1" height="1" fill="#e8a8c0" /><rect x="0" y="9" width="1" height="1" fill="#f1b5cf" /><rect x="1" y="0" width="1" height="1" fill="#ddb3cb" /><rect x="1" y="1" width="1" height="1" fill="#e4afcd" /><rect x="1" y="2" width="1" height="1" fill="#f1aad2" /><rect x="1" y="3" width="1" height="1" fill="#f5a4cd" /><rect x="1" y="4" width="1" height="1" fill="#f9aaca" /><rect x="1" y="5" width="1" height="1" fill="#f9abc5" /><rect x="1" y="6" width="1" height="1" fill="#f0a5b9" /><rect x="1" y="7" width="1" height="1" fill="#f0a9b9" /><rect x="1" y="8" width="1" height="1" fill="#f0b0c0" /><rect x="1" y="9" width="1" height="1" fill="#e8afbe" /><rect x="2" y="0" width="1" height="1" fill="#eba6c5" /><rect x="2" y="1" width="1" height="1" fill="#ffb5d8" /><rect x="2" y="2" width="1" height="1" fill="#f4abc9" /><rect x="2" y="3" width="1" height="1" fill="#fcb1cf" /><rect x="2" y="4" width="1" height="1" fill="#fcacc7" /><rect x="2" y="5" width="1" height="1" fill="#fcaac1" /><rect x="2" y="6" width="1" height="1" fill="#f8a6bc" /><rect x="2" y="7" width="1" height="1" fill="#f5a8ba" /><rect x="2" y="8" width="1" height="1" fill="#efadbb" /><rect x="2" y="9" width="1" height="1" fill="#f0bbc5" /><rect x="3" y="0" width="1" height="1" fill="#ffafcc" /><rect x="3" y="1" width="1" height="1" fill="#f39ebb" /><rect x="3" y="2" width="1" height="1" fill="#fcaec4" /><rect x="3" y="3" width="1" height="1" fill="#ec9fb3" /><rect x="3" y="4" width="1" height="1" fill="#ffb3c8" /><rect x="3" y="5" width="1" height="1" fill="#fcafc3" /><rect x="3" y="6" width="1" height="1" fill="#fbb0c4" /><rect x="3" y="7" width="1" height="1" fill="#ffc2d3" /><rect x="3" y="8" width="1" height="1" fill="#ebb3be" /><rect x="3" y="9" width="1" height="1" fill="#865c60" /><rect x="4" y="0" width="1" height="1" fill="#ffb6c6" /><rect x="4" y="1" width="1" height="1" fill="#ffb1c0" /><rect x="4" y="2" width="1" height="1" fill="#ffb0bd" /><rect x="4" y="3" width="1" height="1" fill="#ffb7c1" /><rect x="4" y="4" width="1" height="1" fill="#f8aebb" /><rect x="4" y="5" width="1" height="1" fill="#fabac8" /><rect x="4" y="6" width="1" height="1" fill="#e8b3c3" /><rect x="4" y="7" width="1" height="1" fill="#d8aeba" /><rect x="4" y="8" width="1" height="1" fill="#755259" /><rect x="4" y="9" width="1" height="1" fill="#150000" /><rect x="5" y="0" width="1" height="1" fill="#fbb5b5" /><rect x="5" y="1" width="1" height="1" fill="#ffbabb" /><rect x="5" y="2" width="1" height="1" fill="#ffb5b4" /><rect x="5" y="3" width="1" height="1" fill="#ffb3b6" /><rect x="5" y="4" width="1" height="1" fill="#ffbdc1" /><rect x="5" y="5" width="1" height="1" fill="#f3c0c7" /><rect x="5" y="6" width="1" height="1" fill="#dfbcc3" /><rect x="5" y="7" width="1" height="1" fill="#5a4147" /><rect x="5" y="8" width="1" height="1" fill="#0e0000" /><rect x="5" y="9" width="1" height="1" fill="#150100" /><rect x="6" y="0" width="1" height="1" fill="#ffc0b1" /><rect x="6" y="1" width="1" height="1" fill="#fab8a8" /><rect x="6" y="2" width="1" height="1" fill="#ffb9b0" /><rect x="6" y="3" width="1" height="1" fill="#ffc0b9" /><rect x="6" y="4" width="1" height="1" fill="#f2bcba" /><rect x="6" y="5" width="1" height="1" fill="#d2acab" /><rect x="6" y="6" width="1" height="1" fill="#533b3b" /><rect x="6" y="7" width="1" height="1" fill="#0d0000" /><rect x="6" y="8" width="1" height="1" fill="#38271d" /><rect x="6" y="9" width="1" height="1" fill="#bcaa94" /><rect x="7" y="0" width="1" height="1" fill="#ffc6a9" /><rect x="7" y="1" width="1" height="1" fill="#fac2a7" /><rect x="7" y="2" width="1" height="1" fill="#fbc4b0" /><rect x="7" y="3" width="1" height="1" fill="#ffcec0" /><rect x="7" y="4" width="1" height="1" fill="#d1a99f" /><rect x="7" y="5" width="1" height="1" fill="#4e3026" /><rect x="7" y="6" width="1" height="1" fill="#160000" /><rect x="7" y="7" width="1" height="1" fill="#463426" /><rect x="7" y="8" width="1" height="1" fill="#c0ae96" /><rect x="7" y="9" width="1" height="1" fill="#ffe9c9" /><rect x="8" y="0" width="1" height="1" fill="#f7c39e" /><rect x="8" y="1" width="1" height="1" fill="#f5caa8" /><rect x="8" y="2" width="1" height="1" fill="#f6d8c0" /><rect x="8" y="3" width="1" height="1" fill="#bea795" /><rect x="8" y="4" width="1" height="1" fill="#4d3322" /><rect x="8" y="5" width="1" height="1" fill="#170000" /><rect x="8" y="6" width="1" height="1" fill="#593d28" /><rect x="8" y="7" width="1" height="1" fill="#ddbfa5" /><rect x="8" y="8" width="1" height="1" fill="#ffe2bf" /><rect x="8" y="9" width="1" height="1" fill="#eecda0" /><rect x="9" y="0" width="1" height="1" fill="#fccfa8" /><rect x="9" y="1" width="1" height="1" fill="#fbd9b4" /><rect x="9" y="2" width="1" height="1" fill="#c3b59a" /><rect x="9" y="3" width="1" height="1" fill="#3a341c" /><rect x="9" y="4" width="1" height="1" fill="#0e0000" /><rect x="9" y="5" width="1" height="1" fill="#664e34" /><rect x="9" y="6" width="1" height="1" fill="#ddbb9f" /><rect x="9" y="7" width="1" height="1" fill="#ffd9b5" /><rect x="9" y="8" width="1" height="1" fill="#fcd5ac" /><rect x="9" y="9" width="1" height="1" fill="#fdd7aa" /></g></svg>