<svg width="800" height="1000" xmlns="http://www.w3.org/2000/svg"><defs><linearGradient id="g" x1="0" x2="1" y1="0" y2="1"><stop offset="0%" stop-color="#2d3c96"/><stop offset="100%" stop-color="#d53392"/></linearGradient></defs><rect x="10" y="10" width="780" height="980" fill="url(#g)" rx="50" ry="50" stroke="gold" stroke-width="20"/><text x="400" y="920" width="780" text-anchor="middle" style="font:bold 200px 'Helvetica Neue';fill:gold">05628</text><g transform="translate(80 80) scale(64)"><rect x="0" y="0" width="1" height="1" fill="#fbd3af" /><rect x="0" y="1" width="1" height="1" fill="#d4b797" /><rect x="0" y="2" width="1" height="1" fill="#383316" /><rect x="0" y="3" width="1" height="1" fill="#030300" /><rect x="0" y="4" width="1" height="1" fill="#685a3d" /><rect x="0" y="5" width="1" height="1" fill="#dac1a2" /><rect x="0" y="6" width="1" height="1" fill="#ffe3bf" /><rect x="0" y="7" width="1" height="1" fill="#f9cfa9" /><rect x="0" y="8" width="1" height="1" fill="#ffe3bb" /><rect x="0" y="9" width="1" height="1" fill="#f8d5ad" /><rect x="1" y="0" width="1" height="1" fill="#debd9c" /><rect x="1" y="1" width="1" height="1" fill="#4c3217" /><rect x="1" y="2" width="1" height="1" fill="#080100" /><rect x="1" y="3" width="1" height="1" fill="#575638" /><rect x="1" y="4" width="1" height="1" fill="#cabd9d" /><rect x="1" y="5" width="1" height="1" fill="#f8e1c1" /><rect x="1" y="6" width="1" height="1" fill="#f2d4b2" /><rect x="1" y="7" width="1" height="1" fill="#ffdfbf" /><rect x="1" y="8" width="1" height="1" fill="#d4b394" /><rect x="1" y="9" width="1" height="1" fill="#816750" /><rect x="2" y="0" width="1" height="1" fill="#5f452c" /><rect x="2" y="1" width="1" height="1" fill="#140000" /><rect x="2" y="2" width="1" height="1" fill="#54442b" /><rect x="2" y="3" width="1" height="1" fill="#daccb2" /><rect x="2" y="4" width="1" height="1" fill="#ebdac0" /><rect x="2" y="5" width="1" height="1" fill="#eedac1" /><rect x="2" y="6" width="1" height="1" fill="#d7c3ab" /><rect x="2" y="7" width="1" height="1" fill="#94826e" /><rect x="2" y="8" width="1" height="1" fill="#0b0000" /><rect x="2" y="9" width="1" height="1" fill="#0c0203" /><rect x="3" y="0" width="1" height="1" fill="#110000" /><rect x="3" y="1" width="1" height="1" fill="#4b3829" /><rect x="3" y="2" width="1" height="1" fill="#e1ccb9" /><rect x="3" y="3" width="1" height="1" fill="#f1dcc9" /><rect x="3" y="4" width="1" height="1" fill="#d2c1af" /><rect x="3" y="5" width="1" height="1" fill="#a69989" /><rect x="3" y="6" width="1" height="1" fill="#231910" /><rect x="3" y="7" width="1" height="1" fill="#040000" /><rect x="3" y="8" width="1" height="1" fill="#060612" /><rect x="3" y="9" width="1" height="1" fill="#585c75" /><rect x="4" y="0" width="1" height="1" fill="#4d453a" /><rect x="4" y="1" width="1" height="1" fill="#d6c9c1" /><rect x="4" y="2" width="1" height="1" fill="#dac6bb" /><rect x="4" y="3" width="1" height="1" fill="#ae978f" /><rect x="4" y="4" width="1" height="1" fill="#4b3c39" /><rect x="4" y="5" width="1" height="1" fill="#060002" /><rect x="4" y="6" width="1" height="1" fill="#00000c" /><rect x="4" y="7" width="1" height="1" fill="#545a72" /><rect x="4" y="8" width="1" height="1" fill="#8791b5" /><rect x="4" y="9" width="1" height="1" fill="#a3b0dd" /><rect x="5" y="0" width="1" height="1" fill="#a8a9a1" /><rect x="5" y="1" width="1" height="1" fill="#b9b5b2" /><rect x="5" y="2" width="1" height="1" fill="#534544" /><rect x="5" y="3" width="1" height="1" fill="#150508" /><rect x="5" y="4" width="1" height="1" fill="#0a000a" /><rect x="5" y="5" width="1" height="1" fill="#3f3b52" /><rect x="5" y="6" width="1" height="1" fill="#8084a7" /><rect x="5" y="7" width="1" height="1" fill="#a3abda" /><rect x="5" y="8" width="1" height="1" fill="#a5b2e9" /><rect x="5" y="9" width="1" height="1" fill="#a7b5f2" /><rect x="6" y="0" width="1" height="1" fill="#6d746d" /><rect x="6" y="1" width="1" height="1" fill="#000202" /><rect x="6" y="2" width="1" height="1" fill="#08070f" /><rect x="6" y="3" width="1" height="1" fill="#2b2738" /><rect x="6" y="4" width="1" height="1" fill="#757291" /><rect x="6" y="5" width="1" height="1" fill="#a9a8d2" /><rect x="6" y="6" width="1" height="1" fill="#b3b6ed" /><rect x="6" y="7" width="1" height="1" fill="#b0b5f5" /><rect x="6" y="8" width="1" height="1" fill="#aab1f7" /><rect x="6" y="9" width="1" height="1" fill="#acb4fc" /><rect x="7" y="0" width="1" height="1" fill="#000107" /><rect x="7" y="1" width="1" height="1" fill="#292f3f" /><rect x="7" y="2" width="1" height="1" fill="#71718d" /><rect x="7" y="3" width="1" height="1" fill="#a4a2c7" /><rect x="7" y="4" width="1" height="1" fill="#bebceb" /><rect x="7" y="5" width="1" height="1" fill="#b4b3ec" /><rect x="7" y="6" width="1" height="1" fill="#a9a8ea" /><rect x="7" y="7" width="1" height="1" fill="#b4b4fc" /><rect x="7" y="8" width="1" height="1" fill="#a7a9f3" /><rect x="7" y="9" width="1" height="1" fill="#adb1f8" /><rect x="8" y="0" width="1" height="1" fill="#807b99" /><rect x="8" y="1" width="1" height="1" fill="#a39cc6" /><rect x="8" y="2" width="1" height="1" fill="#bbb2eb" /><rect x="8" y="3" width="1" height="1" fill="#c1b6f8" /><rect x="8" y="4" width="1" height="1" fill="#b7aef1" /><rect x="8" y="5" width="1" height="1" fill="#b3acf0" /><rect x="8" y="6" width="1" height="1" fill="#b8b2f8" /><rect x="8" y="7" width="1" height="1" fill="#b5b2f7" /><rect x="8" y="8" width="1" height="1" fill="#b3b2f4" /><rect x="8" y="9" width="1" height="1" fill="#afafef" /><rect x="9" y="0" width="1" height="1" fill="#b8acda" /><rect x="9" y="1" width="1" height="1" fill="#bcade8" /><rect x="9" y="2" width="1" height="1" fill="#b7a8ed" /><rect x="9" y="3" width="1" height="1" fill="#baacf7" /><rect x="9" y="4" width="1" height="1" fill="#baadf5" /><rect x="9" y="5" width="1" height="1" fill="#bbb0f5" /><rect x="9" y="6" width="1" height="1" fill="#b7aef1" /><rect x="9" y="7" width="1" height="1" fill="#b0aaea" /><rect x="9" y="8" width="1" height="1" fill="#b4b0eb" /><rect x="9" y="9" width="1" height="1" fill="#b9b5f0" /></g></svg>