<svg width="800" height="1000" xmlns="http://www.w3.org/2000/svg"><defs><linearGradient id="g" x1="0" x2="1" y1="0" y2="1"><stop offset="0%" stop-color="#2d3c96"/><stop offset="100%" stop-color="#d53392"/></linearGradient></defs><rect x="10" y="10" width="780" height="980" fill="url(#g)" rx="50" ry="50" stroke="gold" stroke-width="20"/><text x="400" y="920" width="780" text-anchor="middle" style="font:bold 200px 'Helvetica Neue';fill:gold">05633</text><g transform="translate(80 80) scale(64)"><rect x="0" y="0" width="1" height="1" fill="#95b4e3" /><rect x="0" y="1" width="1" height="1" fill="#98b8de" /><rect x="0" y="2" width="1" height="1" fill="#92b8cb" /><rect x="0" y="3" width="1" height="1" fill="#95c0c7" /><rect x="0" y="4" width="1" height="1" fill="#9cc8c9" /><rect x="0" y="5" width="1" height="1" fill="#a6d1ca" /><rect x="0" y="6" width="1" height="1" fill="#addac6" /><rect x="0" y="7" width="1" height="1" fill="#b2e1c1" /><rect x="0" y="8" width="1" height="1" fill="#b6e8b7" /><rect x="0" y="9" width="1" height="1" fill="#b8ecaa" /><rect x="1" y="0" width="1" height="1" fill="#96adfb" /><rect x="1" y="1" width="1" height="1" fill="#94aff6" /><rect x="1" y="2" width="1" height="1" fill="#8eaee7" /><rect x="1" y="3" width="1" height="1" fill="#8cb2e1" /><rect x="1" y="4" width="1" height="1" fill="#8eb5de" /><rect x="1" y="5" width="1" height="1" fill="#92b9da" /><rect x="1" y="6" width="1" height="1" fill="#95bed2" /><rect x="1" y="7" width="1" height="1" fill="#9ac5cb" /><rect x="1" y="8" width="1" height="1" fill="#9fcdc2" /><rect x="1" y="9" width="1" height="1" fill="#a2d2b8" /><rect x="2" y="0" width="1" height="1" fill="#9daef6" /><rect x="2" y="1" width="1" height="1" fill="#9aacf6" /><rect x="2" y="2" width="1" height="1" fill="#9eb6ff" /><rect x="2" y="3" width="1" height="1" fill="#9bb6fd" /><rect x="2" y="4" width="1" height="1" fill="#99b5f6" /><rect x="2" y="5" width="1" height="1" fill="#96b3ed" /><rect x="2" y="6" width="1" height="1" fill="#94b2e6" /><rect x="2" y="7" width="1" height="1" fill="#93b2e0" /><rect x="2" y="8" width="1" height="1" fill="#94b4db" /><rect x="2" y="9" width="1" height="1" fill="#95b6d7" /><rect x="3" y="0" width="1" height="1" fill="#a7aff7" /><rect x="3" y="1" width="1" height="1" fill="#a6affa" /><rect x="3" y="2" width="1" height="1" fill="#9eabf9" /><rect x="3" y="3" width="1" height="1" fill="#9eaefb" /><rect x="3" y="4" width="1" height="1" fill="#a0b0fb" /><rect x="3" y="5" width="1" height="1" fill="#a2b3f9" /><rect x="3" y="6" width="1" height="1" fill="#a2b3f8" /><rect x="3" y="7" width="1" height="1" fill="#a1b2f7" /><rect x="3" y="8" width="1" height="1" fill="#a1b3f5" /><rect x="3" y="9" width="1" height="1" fill="#a0b4f3" /><rect x="4" y="0" width="1" height="1" fill="#acabf7" /><rect x="4" y="1" width="1" height="1" fill="#adadf7" /><rect x="4" y="2" width="1" height="1" fill="#a9acef" /><rect x="4" y="3" width="1" height="1" fill="#abafef" /><rect x="4" y="4" width="1" height="1" fill="#adb0f3" /><rect x="4" y="5" width="1" height="1" fill="#aeb1f6" /><rect x="4" y="6" width="1" height="1" fill="#adb0f7" /><rect x="4" y="7" width="1" height="1" fill="#acaff6" /><rect x="4" y="8" width="1" height="1" fill="#abaef5" /><rect x="4" y="9" width="1" height="1" fill="#aaadf2" /><rect x="5" y="0" width="1" height="1" fill="#b7b0f6" /><rect x="5" y="1" width="1" height="1" fill="#b9aff6" /><rect x="5" y="2" width="1" height="1" fill="#b8afee" /><rect x="5" y="3" width="1" height="1" fill="#b9afec" /><rect x="5" y="4" width="1" height="1" fill="#b8adef" /><rect x="5" y="5" width="1" height="1" fill="#b6adf0" /><rect x="5" y="6" width="1" height="1" fill="#b5abf0" /><rect x="5" y="7" width="1" height="1" fill="#b7adf4" /><rect x="5" y="8" width="1" height="1" fill="#b9aff6" /><rect x="5" y="9" width="1" height="1" fill="#bbb1f6" /><rect x="6" y="0" width="1" height="1" fill="#b7a7e5" /><rect x="6" y="1" width="1" height="1" fill="#bdabe9" /><rect x="6" y="2" width="1" height="1" fill="#bfaaeb" /><rect x="6" y="3" width="1" height="1" fill="#c0abee" /><rect x="6" y="4" width="1" height="1" fill="#c3aef1" /><rect x="6" y="5" width="1" height="1" fill="#c1aef0" /><rect x="6" y="6" width="1" height="1" fill="#bdaaec" /><rect x="6" y="7" width="1" height="1" fill="#beabed" /><rect x="6" y="8" width="1" height="1" fill="#beaeed" /><rect x="6" y="9" width="1" height="1" fill="#bdadec" /><rect x="7" y="0" width="1" height="1" fill="#c8baeb" /><rect x="7" y="1" width="1" height="1" fill="#c8b6e8" /><rect x="7" y="2" width="1" height="1" fill="#cbb4ec" /><rect x="7" y="3" width="1" height="1" fill="#c7aee8" /><rect x="7" y="4" width="1" height="1" fill="#c5ace6" /><rect x="7" y="5" width="1" height="1" fill="#c4ade5" /><rect x="7" y="6" width="1" height="1" fill="#c5aee6" /><rect x="7" y="7" width="1" height="1" fill="#cab3e9" /><rect x="7" y="8" width="1" height="1" fill="#c9b5ea" /><rect x="7" y="9" width="1" height="1" fill="#c4b0e5" /><rect x="8" y="0" width="1" height="1" fill="#a69ec3" /><rect x="8" y="1" width="1" height="1" fill="#b9add1" /><rect x="8" y="2" width="1" height="1" fill="#c5b0d7" /><rect x="8" y="3" width="1" height="1" fill="#c8afd7" /><rect x="8" y="4" width="1" height="1" fill="#ccb3db" /><rect x="8" y="5" width="1" height="1" fill="#ccb6dc" /><rect x="8" y="6" width="1" height="1" fill="#cbb5db" /><rect x="8" y="7" width="1" height="1" fill="#ccb6da" /><rect x="8" y="8" width="1" height="1" fill="#cab4d8" /><rect x="8" y="9" width="1" height="1" fill="#c4aed4" /><rect x="9" y="0" width="1" height="1" fill="#030420" /><rect x="9" y="1" width="1" height="1" fill="#3b3654" /><rect x="9" y="2" width="1" height="1" fill="#5e4f6c" /><rect x="9" y="3" width="1" height="1" fill="#786581" /><rect x="9" y="4" width="1" height="1" fill="#9885a1" /><rect x="9" y="5" width="1" height="1" fill="#ac99b5" /><rect x="9" y="6" width="1" height="1" fill="#b4a0bc" /><rect x="9" y="7" width="1" height="1" fill="#bca8c3" /><rect x="9" y="8" width="1" height="1" fill="#c9b2ce" /><rect x="9" y="9" width="1" height="1" fill="#cfb6d3" /></g></svg>