<svg width="800" height="1000" xmlns="http://www.w3.org/2000/svg"><defs><linearGradient id="g" x1="0" x2="1" y1="0" y2="1"><stop offset="0%" stop-color="#2d3c96"/><stop offset="100%" stop-color="#d53392"/></linearGradient></defs><rect x="10" y="10" width="780" height="980" fill="url(#g)" rx="50" ry="50" stroke="gold" stroke-width="20"/><text x="400" y="920" width="780" text-anchor="middle" style="font:bold 200px 'Helvetica Neue';fill:gold">05631</text><g transform="translate(80 80) scale(64)"><rect x="0" y="0" width="1" height="1" fill="#ffbfb1" /><rect x="0" y="1" width="1" height="1" fill="#ffc5b8" /><rect x="0" y="2" width="1" height="1" fill="#ffc6b3" /><rect x="0" y="3" width="1" height="1" fill="#f9c0ad" /><rect x="0" y="4" width="1" height="1" fill="#fabfad" /><rect x="0" y="5" width="1" height="1" fill="#ffc5b3" /><rect x="0" y="6" width="1" height="1" fill="#ffc3b4" /><rect x="0" y="7" width="1" height="1" fill="#fcbaac" /><rect x="0" y="8" width="1" height="1" fill="#ffbdb1" /><rect x="0" y="9" width="1" height="1" fill="#ffc8be" /><rect x="1" y="0" width="1" height="1" fill="#fbbea9" /><rect x="1" y="1" width="1" height="1" fill="#ffc4b1" /><rect x="1" y="2" width="1" height="1" fill="#fec4ac" /><rect x="1" y="3" width="1" height="1" fill="#ffcaaf" /><rect x="1" y="4" width="1" height="1" fill="#ffc5ab" /><rect x="1" y="5" width="1" height="1" fill="#fec0a7" /><rect x="1" y="6" width="1" height="1" fill="#ffc4ae" /><rect x="1" y="7" width="1" height="1" fill="#ffc4b1" /><rect x="1" y="8" width="1" height="1" fill="#ffbcac" /><rect x="1" y="9" width="1" height="1" fill="#fcb9a8" /><rect x="2" y="0" width="1" height="1" fill="#fbc3aa" /><rect x="2" y="1" width="1" height="1" fill="#ffc8ae" /><rect x="2" y="2" width="1" height="1" fill="#ffc5a9" /><rect x="2" y="3" width="1" height="1" fill="#ffc5a7" /><rect x="2" y="4" width="1" height="1" fill="#ffc6a7" /><rect x="2" y="5" width="1" height="1" fill="#ffc6a7" /><rect x="2" y="6" width="1" height="1" fill="#ffc6a9" /><rect x="2" y="7" width="1" height="1" fill="#ffc6a9" /><rect x="2" y="8" width="1" height="1" fill="#ffc6aa" /><rect x="2" y="9" width="1" height="1" fill="#ffc7aa" /><rect x="3" y="0" width="1" height="1" fill="#fdcaab" /><rect x="3" y="1" width="1" height="1" fill="#ffd1af" /><rect x="3" y="2" width="1" height="1" fill="#ffcaa5" /><rect x="3" y="3" width="1" height="1" fill="#ffc9a4" /><rect x="3" y="4" width="1" height="1" fill="#ffcaa4" /><rect x="3" y="5" width="1" height="1" fill="#ffcba4" /><rect x="3" y="6" width="1" height="1" fill="#ffcca4" /><rect x="3" y="7" width="1" height="1" fill="#ffcca5" /><rect x="3" y="8" width="1" height="1" fill="#fecda5" /><rect x="3" y="9" width="1" height="1" fill="#fecca7" /><rect x="4" y="0" width="1" height="1" fill="#ffd3b1" /><rect x="4" y="1" width="1" height="1" fill="#f3c39b" /><rect x="4" y="2" width="1" height="1" fill="#ffd0a4" /><rect x="4" y="3" width="1" height="1" fill="#fdd1a0" /><rect x="4" y="4" width="1" height="1" fill="#fdd1a0" /><rect x="4" y="5" width="1" height="1" fill="#fdd1a2" /><rect x="4" y="6" width="1" height="1" fill="#fdd1a2" /><rect x="4" y="7" width="1" height="1" fill="#fdd1a2" /><rect x="4" y="8" width="1" height="1" fill="#fcd2a2" /><rect x="4" y="9" width="1" height="1" fill="#fcd1a4" /><rect x="5" y="0" width="1" height="1" fill="#f9cfa7" /><rect x="5" y="1" width="1" height="1" fill="#ffdbaa" /><rect x="5" y="2" width="1" height="1" fill="#fad7a1" /><rect x="5" y="3" width="1" height="1" fill="#f8d89f" /><rect x="5" y="4" width="1" height="1" fill="#f8d89f" /><rect x="5" y="5" width="1" height="1" fill="#fad79f" /><rect x="5" y="6" width="1" height="1" fill="#fbd6a1" /><rect x="5" y="7" width="1" height="1" fill="#fdd5a1" /><rect x="5" y="8" width="1" height="1" fill="#fdd5a1" /><rect x="5" y="9" width="1" height="1" fill="#fdd5a1" /><rect x="6" y="0" width="1" height="1" fill="#fedcae" /><rect x="6" y="1" width="1" height="1" fill="#ffdfa6" /><rect x="6" y="2" width="1" height="1" fill="#f5dd9f" /><rect x="6" y="3" width="1" height="1" fill="#f3de9f" /><rect x="6" y="4" width="1" height="1" fill="#f6dc9f" /><rect x="6" y="5" width="1" height="1" fill="#f9db9f" /><rect x="6" y="6" width="1" height="1" fill="#fcda9d" /><rect x="6" y="7" width="1" height="1" fill="#fdd99d" /><rect x="6" y="8" width="1" height="1" fill="#ffd89d" /><rect x="6" y="9" width="1" height="1" fill="#ffd89d" /><rect x="7" y="0" width="1" height="1" fill="#ffe0ad" /><rect x="7" y="1" width="1" height="1" fill="#eed092" /><rect x="7" y="2" width="1" height="1" fill="#f8df9f" /><rect x="7" y="3" width="1" height="1" fill="#f8df9d" /><rect x="7" y="4" width="1" height="1" fill="#fade9d" /><rect x="7" y="5" width="1" height="1" fill="#fbdd9d" /><rect x="7" y="6" width="1" height="1" fill="#fcdd9d" /><rect x="7" y="7" width="1" height="1" fill="#fedc9c" /><rect x="7" y="8" width="1" height="1" fill="#fedc9c" /><rect x="7" y="9" width="1" height="1" fill="#ffdc9c" /><rect x="8" y="0" width="1" height="1" fill="#ffe2aa" /><rect x="8" y="1" width="1" height="1" fill="#ffe2a2" /><rect x="8" y="2" width="1" height="1" fill="#ffdc9e" /><rect x="8" y="3" width="1" height="1" fill="#ffdb9f" /><rect x="8" y="4" width="1" height="1" fill="#ffdc9f" /><rect x="8" y="5" width="1" height="1" fill="#ffdd9e" /><rect x="8" y="6" width="1" height="1" fill="#ffde9e" /><rect x="8" y="7" width="1" height="1" fill="#fde09e" /><rect x="8" y="8" width="1" height="1" fill="#fae19e" /><rect x="8" y="9" width="1" height="1" fill="#f9e29c" /><rect x="9" y="0" width="1" height="1" fill="#ad9766" /><rect x="9" y="1" width="1" height="1" fill="#fcdfa7" /><rect x="9" y="2" width="1" height="1" fill="#ffdfa1" /><rect x="9" y="3" width="1" height="1" fill="#ffdea0" /><rect x="9" y="4" width="1" height="1" fill="#ffdfa0" /><rect x="9" y="5" width="1" height="1" fill="#ffe19e" /><rect x="9" y="6" width="1" height="1" fill="#ffe29e" /><rect x="9" y="7" width="1" height="1" fill="#fce49c" /><rect x="9" y="8" width="1" height="1" fill="#f9e59c" /><rect x="9" y="9" width="1" height="1" fill="#f8e69a" /></g></svg>