<svg width="800" height="1000" xmlns="http://www.w3.org/2000/svg"><defs><linearGradient id="g" x1="0" x2="1" y1="0" y2="1"><stop offset="0%" stop-color="#2d3c96"/><stop offset="100%" stop-color="#d53392"/></linearGradient></defs><rect x="10" y="10" width="780" height="980" fill="url(#g)" rx="50" ry="50" stroke="gold" stroke-width="20"/><text x="400" y="920" width="780" text-anchor="middle" style="font:bold 200px 'Helvetica Neue';fill:gold">05636</text><g transform="translate(80 80) scale(64)"><rect x="0" y="0" width="1" height="1" fill="#7cf2a4" /><rect x="0" y="1" width="1" height="1" fill="#6fef9c" /><rect x="0" y="2" width="1" height="1" fill="#79ee9f" /><rect x="0" y="3" width="1" height="1" fill="#7aeb9d" /><rect x="0" y="4" width="1" height="1" fill="#7deda1" /><rect x="0" y="5" width="1" height="1" fill="#7fefa3" /><rect x="0" y="6" width="1" height="1" fill="#7ceca2" /><rect x="0" y="7" width="1" height="1" fill="#7deba2" /><rect x="0" y="8" width="1" height="1" fill="#7eeca5" /><rect x="0" y="9" width="1" height="1" fill="#7de8a2" /><rect x="1" y="0" width="1" height="1" fill="#7de5b0" /><rect x="1" y="1" width="1" height="1" fill="#7deeb6" /><rect x="1" y="2" width="1" height="1" fill="#7ae7ae" /><rect x="1" y="3" width="1" height="1" fill="#79e4ac" /><rect x="1" y="4" width="1" height="1" fill="#79e6ad" /><rect x="1" y="5" width="1" height="1" fill="#78e9b1" /><rect x="1" y="6" width="1" height="1" fill="#75eab3" /><rect x="1" y="7" width="1" height="1" fill="#76efb9" /><rect x="1" y="8" width="1" height="1" fill="#76f1bb" /><rect x="1" y="9" width="1" height="1" fill="#74efb9" /><rect x="2" y="0" width="1" height="1" fill="#97dac8" /><rect x="2" y="1" width="1" height="1" fill="#8dd8c3" /><rect x="2" y="2" width="1" height="1" fill="#92e1cb" /><rect x="2" y="3" width="1" height="1" fill="#8fe3cb" /><rect x="2" y="4" width="1" height="1" fill="#89e3ca" /><rect x="2" y="5" width="1" height="1" fill="#80e2c9" /><rect x="2" y="6" width="1" height="1" fill="#77e3cb" /><rect x="2" y="7" width="1" height="1" fill="#73e5cc" /><rect x="2" y="8" width="1" height="1" fill="#70e8cf" /><rect x="2" y="9" width="1" height="1" fill="#6de7ce" /><rect x="3" y="0" width="1" height="1" fill="#4d7871" /><rect x="3" y="1" width="1" height="1" fill="#75a6a3" /><rect x="3" y="2" width="1" height="1" fill="#94cbc8" /><rect x="3" y="3" width="1" height="1" fill="#93cfcd" /><rect x="3" y="4" width="1" height="1" fill="#8fd1cf" /><rect x="3" y="5" width="1" height="1" fill="#8ad4d3" /><rect x="3" y="6" width="1" height="1" fill="#87dbdb" /><rect x="3" y="7" width="1" height="1" fill="#83dfde" /><rect x="3" y="8" width="1" height="1" fill="#79dbda" /><rect x="3" y="9" width="1" height="1" fill="#72d6d6" /><rect x="4" y="0" width="1" height="1" fill="#000c02" /><rect x="4" y="1" width="1" height="1" fill="#000a08" /><rect x="4" y="2" width="1" height="1" fill="#345358" /><rect x="4" y="3" width="1" height="1" fill="#597984" /><rect x="4" y="4" width="1" height="1" fill="#7ca2ad" /><rect x="4" y="5" width="1" height="1" fill="#8bb7c4" /><rect x="4" y="6" width="1" height="1" fill="#8bbccb" /><rect x="4" y="7" width="1" height="1" fill="#87bcce" /><rect x="4" y="8" width="1" height="1" fill="#87c0d4" /><rect x="4" y="9" width="1" height="1" fill="#8dc7dd" /><rect x="5" y="0" width="1" height="1" fill="#568769" /><rect x="5" y="1" width="1" height="1" fill="#19402d" /><rect x="5" y="2" width="1" height="1" fill="#000b04" /><rect x="5" y="3" width="1" height="1" fill="#000c0d" /><rect x="5" y="4" width="1" height="1" fill="#001012" /><rect x="5" y="5" width="1" height="1" fill="#02272d" /><rect x="5" y="6" width="1" height="1" fill="#2f535f" /><rect x="5" y="7" width="1" height="1" fill="#4e7383" /><rect x="5" y="8" width="1" height="1" fill="#567b8e" /><rect x="5" y="9" width="1" height="1" fill="#55798f" /><rect x="6" y="0" width="1" height="1" fill="#96ebaa" /><rect x="6" y="1" width="1" height="1" fill="#80cb93" /><rect x="6" y="2" width="1" height="1" fill="#6ab185" /><rect x="6" y="3" width="1" height="1" fill="#4a8c68" /><rect x="6" y="4" width="1" height="1" fill="#0d4a2b" /><rect x="6" y="5" width="1" height="1" fill="#001901" /><rect x="6" y="6" width="1" height="1" fill="#001000" /><rect x="6" y="7" width="1" height="1" fill="#001008" /><rect x="6" y="8" width="1" height="1" fill="#000a09" /><rect x="6" y="9" width="1" height="1" fill="#00090c" /><rect x="7" y="0" width="1" height="1" fill="#86ee9f" /><rect x="7" y="1" width="1" height="1" fill="#89eba2" /><rect x="7" y="2" width="1" height="1" fill="#87e6a6" /><rect x="7" y="3" width="1" height="1" fill="#92ebb3" /><rect x="7" y="4" width="1" height="1" fill="#88dca8" /><rect x="7" y="5" width="1" height="1" fill="#74c193" /><rect x="7" y="6" width="1" height="1" fill="#6eb28d" /><rect x="7" y="7" width="1" height="1" fill="#67a387" /><rect x="7" y="8" width="1" height="1" fill="#649882" /><rect x="7" y="9" width="1" height="1" fill="#699886" /><rect x="8" y="0" width="1" height="1" fill="#7dec9f" /><rect x="8" y="1" width="1" height="1" fill="#7feba0" /><rect x="8" y="2" width="1" height="1" fill="#80e9a6" /><rect x="8" y="3" width="1" height="1" fill="#80e8a9" /><rect x="8" y="4" width="1" height="1" fill="#7eeaac" /><rect x="8" y="5" width="1" height="1" fill="#7febaf" /><rect x="8" y="6" width="1" height="1" fill="#83eab3" /><rect x="8" y="7" width="1" height="1" fill="#88e8b8" /><rect x="8" y="8" width="1" height="1" fill="#8fe6bc" /><rect x="8" y="9" width="1" height="1" fill="#90e4c0" /><rect x="9" y="0" width="1" height="1" fill="#7aeda0" /><rect x="9" y="1" width="1" height="1" fill="#7aeda2" /><rect x="9" y="2" width="1" height="1" fill="#79eba5" /><rect x="9" y="3" width="1" height="1" fill="#79eaa8" /><rect x="9" y="4" width="1" height="1" fill="#78eda9" /><rect x="9" y="5" width="1" height="1" fill="#79edac" /><rect x="9" y="6" width="1" height="1" fill="#7aecb0" /><rect x="9" y="7" width="1" height="1" fill="#7eebb4" /><rect x="9" y="8" width="1" height="1" fill="#80ebb7" /><rect x="9" y="9" width="1" height="1" fill="#82e9ba" /></g></svg>