<svg width="800" height="1000" xmlns="http://www.w3.org/2000/svg"><defs><linearGradient id="g" x1="0" x2="1" y1="0" y2="1"><stop offset="0%" stop-color="#2d3c96"/><stop offset="100%" stop-color="#d53392"/></linearGradient></defs><rect x="10" y="10" width="780" height="980" fill="url(#g)" rx="50" ry="50" stroke="gold" stroke-width="20"/><text x="400" y="920" width="780" text-anchor="middle" style="font:bold 200px 'Helvetica Neue';fill:gold">05630</text><g transform="translate(80 80) scale(64)"><rect x="0" y="0" width="1" height="1" fill="#8f5e7b" /><rect x="0" y="1" width="1" height="1" fill="#cc96b6" /><rect x="0" y="2" width="1" height="1" fill="#f2bbd8" /><rect x="0" y="3" width="1" height="1" fill="#e5adca" /><rect x="0" y="4" width="1" height="1" fill="#d9a1be" /><rect x="0" y="5" width="1" height="1" fill="#ecb1cf" /><rect x="0" y="6" width="1" height="1" fill="#e9accd" /><rect x="0" y="7" width="1" height="1" fill="#e8a8ca" /><rect x="0" y="8" width="1" height="1" fill="#e9a8ca" /><rect x="0" y="9" width="1" height="1" fill="#eeabce" /><rect x="1" y="0" width="1" height="1" fill="#e3abc8" /><rect x="1" y="1" width="1" height="1" fill="#f4b4d6" /><rect x="1" y="2" width="1" height="1" fill="#eaa9c7" /><rect x="1" y="3" width="1" height="1" fill="#ebabc6" /><rect x="1" y="4" width="1" height="1" fill="#f0b0cb" /><rect x="1" y="5" width="1" height="1" fill="#f0adcc" /><rect x="1" y="6" width="1" height="1" fill="#efaac9" /><rect x="1" y="7" width="1" height="1" fill="#f8b1d1" /><rect x="1" y="8" width="1" height="1" fill="#fcb2d3" /><rect x="1" y="9" width="1" height="1" fill="#eea3c4" /><rect x="2" y="0" width="1" height="1" fill="#eaabc6" /><rect x="2" y="1" width="1" height="1" fill="#eea6cb" /><rect x="2" y="2" width="1" height="1" fill="#efa8c8" /><rect x="2" y="3" width="1" height="1" fill="#f2a9c7" /><rect x="2" y="4" width="1" height="1" fill="#f9b0ce" /><rect x="2" y="5" width="1" height="1" fill="#f3a8c7" /><rect x="2" y="6" width="1" height="1" fill="#f2a5c5" /><rect x="2" y="7" width="1" height="1" fill="#f1a2c2" /><rect x="2" y="8" width="1" height="1" fill="#f8a7c8" /><rect x="2" y="9" width="1" height="1" fill="#ffafd0" /><rect x="3" y="0" width="1" height="1" fill="#efaac6" /><rect x="3" y="1" width="1" height="1" fill="#faafd0" /><rect x="3" y="2" width="1" height="1" fill="#f8acca" /><rect x="3" y="3" width="1" height="1" fill="#faacc6" /><rect x="3" y="4" width="1" height="1" fill="#fcaec8" /><rect x="3" y="5" width="1" height="1" fill="#f3a5bf" /><rect x="3" y="6" width="1" height="1" fill="#ffb4cf" /><rect x="3" y="7" width="1" height="1" fill="#fbabc8" /><rect x="3" y="8" width="1" height="1" fill="#f5a2c0" /><rect x="3" y="9" width="1" height="1" fill="#fdaac8" /><rect x="4" y="0" width="1" height="1" fill="#ffb6d2" /><rect x="4" y="1" width="1" height="1" fill="#f6aac8" /><rect x="4" y="2" width="1" height="1" fill="#ffb1cb" /><rect x="4" y="3" width="1" height="1" fill="#fda9c1" /><rect x="4" y="4" width="1" height="1" fill="#f8a6bd" /><rect x="4" y="5" width="1" height="1" fill="#fcaac1" /><rect x="4" y="6" width="1" height="1" fill="#fcadc3" /><rect x="4" y="7" width="1" height="1" fill="#fbacc2" /><rect x="4" y="8" width="1" height="1" fill="#faacc2" /><rect x="4" y="9" width="1" height="1" fill="#fdafc5" /><rect x="5" y="0" width="1" height="1" fill="#f9abc3" /><rect x="5" y="1" width="1" height="1" fill="#f8aac2" /><rect x="5" y="2" width="1" height="1" fill="#fba8bc" /><rect x="5" y="3" width="1" height="1" fill="#ffb3c6" /><rect x="5" y="4" width="1" height="1" fill="#ffafc1" /><rect x="5" y="5" width="1" height="1" fill="#fcaebe" /><rect x="5" y="6" width="1" height="1" fill="#ffb5c4" /><rect x="5" y="7" width="1" height="1" fill="#f2abb9" /><rect x="5" y="8" width="1" height="1" fill="#e4a2b0" /><rect x="5" y="9" width="1" height="1" fill="#ecacba" /><rect x="6" y="0" width="1" height="1" fill="#faadbf" /><rect x="6" y="1" width="1" height="1" fill="#ffb8ca" /><rect x="6" y="2" width="1" height="1" fill="#ffb2c2" /><rect x="6" y="3" width="1" height="1" fill="#ffb1c0" /><rect x="6" y="4" width="1" height="1" fill="#f7a9b6" /><rect x="6" y="5" width="1" height="1" fill="#fdb7c1" /><rect x="6" y="6" width="1" height="1" fill="#eeb1b9" /><rect x="6" y="7" width="1" height="1" fill="#966167" /><rect x="6" y="8" width="1" height="1" fill="#54272c" /><rect x="6" y="9" width="1" height="1" fill="#653c40" /><rect x="7" y="0" width="1" height="1" fill="#feb5be" /><rect x="7" y="1" width="1" height="1" fill="#ffb7c2" /><rect x="7" y="2" width="1" height="1" fill="#ffbac2" /><rect x="7" y="3" width="1" height="1" fill="#ffb4ba" /><rect x="7" y="4" width="1" height="1" fill="#f7b0b4" /><rect x="7" y="5" width="1" height="1" fill="#ffc5c8" /><rect x="7" y="6" width="1" height="1" fill="#eeb8b8" /><rect x="7" y="7" width="1" height="1" fill="#7d4f4f" /><rect x="7" y="8" width="1" height="1" fill="#1d0000" /><rect x="7" y="9" width="1" height="1" fill="#170000" /><rect x="8" y="0" width="1" height="1" fill="#ffbbbc" /><rect x="8" y="1" width="1" height="1" fill="#f6b2b3" /><rect x="8" y="2" width="1" height="1" fill="#f3b2b0" /><rect x="8" y="3" width="1" height="1" fill="#fdbdbb" /><rect x="8" y="4" width="1" height="1" fill="#f6b9b6" /><rect x="8" y="5" width="1" height="1" fill="#f2b8b4" /><rect x="8" y="6" width="1" height="1" fill="#fac5bf" /><rect x="8" y="7" width="1" height="1" fill="#ecbdb7" /><rect x="8" y="8" width="1" height="1" fill="#d0a59e" /><rect x="8" y="9" width="1" height="1" fill="#c49d96" /><rect x="9" y="0" width="1" height="1" fill="#ffc0b9" /><rect x="9" y="1" width="1" height="1" fill="#fdbcb6" /><rect x="9" y="2" width="1" height="1" fill="#fabeb4" /><rect x="9" y="3" width="1" height="1" fill="#ffc7bb" /><rect x="9" y="4" width="1" height="1" fill="#ffc6ba" /><rect x="9" y="5" width="1" height="1" fill="#f6beb1" /><rect x="9" y="6" width="1" height="1" fill="#f7beb3" /><rect x="9" y="7" width="1" height="1" fill="#fdc7bd" /><rect x="9" y="8" width="1" height="1" fill="#fecabf" /><rect x="9" y="9" width="1" height="1" fill="#f7c5bc" /></g></svg>