<svg width="800" height="1000" xmlns="http://www.w3.org/2000/svg"><defs><linearGradient id="g" x1="0" x2="1" y1="0" y2="1"><stop offset="0%" stop-color="#2d3c96"/><stop offset="100%" stop-color="#d53392"/></linearGradient></defs><rect x="10" y="10" width="780" height="980" fill="url(#g)" rx="50" ry="50" stroke="gold" stroke-width="20"/><text x="400" y="920" width="780" text-anchor="middle" style="font:bold 200px 'Helvetica Neue';fill:gold">05635</text><g transform="translate(80 80) scale(64)"><rect x="0" y="0" width="1" height="1" fill="#f6b1c4" /><rect x="0" y="1" width="1" height="1" fill="#ebacbf" /><rect x="0" y="2" width="1" height="1" fill="#a77783" /><rect x="0" y="3" width="1" height="1" fill="#714952" /><rect x="0" y="4" width="1" height="1" fill="#6e464f" /><rect x="0" y="5" width="1" height="1" fill="#5c343d" /><rect x="0" y="6" width="1" height="1" fill="#3a151c" /><rect x="0" y="7" width="1" height="1" fill="#2a0a0f" /><rect x="0" y="8" width="1" height="1" fill="#120000" /><rect x="0" y="9" width="1" height="1" fill="#0d0000" /><rect x="1" y="0" width="1" height="1" fill="#f9b9ba" /><rect x="1" y="1" width="1" height="1" fill="#fabec0" /><rect x="1" y="2" width="1" height="1" fill="#f0bebd" /><rect x="1" y="3" width="1" height="1" fill="#eabdba" /><rect x="1" y="4" width="1" height="1" fill="#e5b8b5" /><rect x="1" y="5" width="1" height="1" fill="#e1b1af" /><rect x="1" y="6" width="1" height="1" fill="#e1b1ad" /><rect x="1" y="7" width="1" height="1" fill="#d4a7a2" /><rect x="1" y="8" width="1" height="1" fill="#be968e" /><rect x="1" y="9" width="1" height="1" fill="#bb998f" /><rect x="2" y="0" width="1" height="1" fill="#f3c7a4" /><rect x="2" y="1" width="1" height="1" fill="#f5caaa" /><rect x="2" y="2" width="1" height="1" fill="#f9cdb2" /><rect x="2" y="3" width="1" height="1" fill="#f9cdb2" /><rect x="2" y="4" width="1" height="1" fill="#faccb2" /><rect x="2" y="5" width="1" height="1" fill="#fbccb0" /><rect x="2" y="6" width="1" height="1" fill="#fbccae" /><rect x="2" y="7" width="1" height="1" fill="#fbccae" /><rect x="2" y="8" width="1" height="1" fill="#fbcdac" /><rect x="2" y="9" width="1" height="1" fill="#f9ceac" /><rect x="3" y="0" width="1" height="1" fill="#fcdba5" /><rect x="3" y="1" width="1" height="1" fill="#f7d6a1" /><rect x="3" y="2" width="1" height="1" fill="#f8d4a4" /><rect x="3" y="3" width="1" height="1" fill="#f9d3a6" /><rect x="3" y="4" width="1" height="1" fill="#fbd2a4" /><rect x="3" y="5" width="1" height="1" fill="#fbd3a2" /><rect x="3" y="6" width="1" height="1" fill="#fcd2a0" /><rect x="3" y="7" width="1" height="1" fill="#fcd39f" /><rect x="3" y="8" width="1" height="1" fill="#fcd39d" /><rect x="3" y="9" width="1" height="1" fill="#fbd49d" /><rect x="4" y="0" width="1" height="1" fill="#ffe1a8" /><rect x="4" y="1" width="1" height="1" fill="#fbdca3" /><rect x="4" y="2" width="1" height="1" fill="#fddea5" /><rect x="4" y="3" width="1" height="1" fill="#fddfa3" /><rect x="4" y="4" width="1" height="1" fill="#fddfa1" /><rect x="4" y="5" width="1" height="1" fill="#fddf9f" /><rect x="4" y="6" width="1" height="1" fill="#fde09e" /><rect x="4" y="7" width="1" height="1" fill="#fce19e" /><rect x="4" y="8" width="1" height="1" fill="#fce19c" /><rect x="4" y="9" width="1" height="1" fill="#fae29c" /><rect x="5" y="0" width="1" height="1" fill="#fbe8a4" /><rect x="5" y="1" width="1" height="1" fill="#f6e7a4" /><rect x="5" y="2" width="1" height="1" fill="#f5e8a2" /><rect x="5" y="3" width="1" height="1" fill="#f3e9a2" /><rect x="5" y="4" width="1" height="1" fill="#f3e9a1" /><rect x="5" y="5" width="1" height="1" fill="#f2ea9f" /><rect x="5" y="6" width="1" height="1" fill="#f2eb9d" /><rect x="5" y="7" width="1" height="1" fill="#f2eb9b" /><rect x="5" y="8" width="1" height="1" fill="#f1ec9b" /><rect x="5" y="9" width="1" height="1" fill="#efec9b" /><rect x="6" y="0" width="1" height="1" fill="#e3ea9a" /><rect x="6" y="1" width="1" height="1" fill="#dde899" /><rect x="6" y="2" width="1" height="1" fill="#d8eb9a" /><rect x="6" y="3" width="1" height="1" fill="#d5ec9a" /><rect x="6" y="4" width="1" height="1" fill="#d5ed99" /><rect x="6" y="5" width="1" height="1" fill="#d6ec97" /><rect x="6" y="6" width="1" height="1" fill="#d6ec97" /><rect x="6" y="7" width="1" height="1" fill="#d6ed95" /><rect x="6" y="8" width="1" height="1" fill="#d6ed95" /><rect x="6" y="9" width="1" height="1" fill="#d6ed95" /><rect x="7" y="0" width="1" height="1" fill="#c2eb8f" /><rect x="7" y="1" width="1" height="1" fill="#bbe88d" /><rect x="7" y="2" width="1" height="1" fill="#bbed94" /><rect x="7" y="3" width="1" height="1" fill="#b9ee96" /><rect x="7" y="4" width="1" height="1" fill="#bbed94" /><rect x="7" y="5" width="1" height="1" fill="#bbed94" /><rect x="7" y="6" width="1" height="1" fill="#bced92" /><rect x="7" y="7" width="1" height="1" fill="#beec92" /><rect x="7" y="8" width="1" height="1" fill="#bfeb92" /><rect x="7" y="9" width="1" height="1" fill="#c0eb92" /><rect x="8" y="0" width="1" height="1" fill="#a2f790" /><rect x="8" y="1" width="1" height="1" fill="#9df38e" /><rect x="8" y="2" width="1" height="1" fill="#9ef294" /><rect x="8" y="3" width="1" height="1" fill="#a1f097" /><rect x="8" y="4" width="1" height="1" fill="#a3ef97" /><rect x="8" y="5" width="1" height="1" fill="#a5ed97" /><rect x="8" y="6" width="1" height="1" fill="#a8ec95" /><rect x="8" y="7" width="1" height="1" fill="#abeb95" /><rect x="8" y="8" width="1" height="1" fill="#aee995" /><rect x="8" y="9" width="1" height="1" fill="#afe995" /><rect x="9" y="0" width="1" height="1" fill="#86f694" /><rect x="9" y="1" width="1" height="1" fill="#7def8d" /><rect x="9" y="2" width="1" height="1" fill="#86ee95" /><rect x="9" y="3" width="1" height="1" fill="#89ed97" /><rect x="9" y="4" width="1" height="1" fill="#8ceb97" /><rect x="9" y="5" width="1" height="1" fill="#8deb97" /><rect x="9" y="6" width="1" height="1" fill="#90e997" /><rect x="9" y="7" width="1" height="1" fill="#93e897" /><rect x="9" y="8" width="1" height="1" fill="#95e697" /><rect x="9" y="9" width="1" height="1" fill="#97e697" /></g></svg>