<svg width="800" height="1000" xmlns="http://www.w3.org/2000/svg"><defs><linearGradient id="g" x1="0" x2="1" y1="0" y2="1"><stop offset="0%" stop-color="#2d3c96"/><stop offset="100%" stop-color="#d53392"/></linearGradient></defs><rect x="10" y="10" width="780" height="980" fill="url(#g)" rx="50" ry="50" stroke="gold" stroke-width="20"/><text x="400" y="920" width="780" text-anchor="middle" style="font:bold 200px 'Helvetica Neue';fill:gold">05634</text><g transform="translate(80 80) scale(64)"><rect x="0" y="0" width="1" height="1" fill="#020926" /><rect x="0" y="1" width="1" height="1" fill="#000019" /><rect x="0" y="2" width="1" height="1" fill="#000015" /><rect x="0" y="3" width="1" height="1" fill="#040013" /><rect x="0" y="4" width="1" height="1" fill="#040013" /><rect x="0" y="5" width="1" height="1" fill="#070013" /><rect x="0" y="6" width="1" height="1" fill="#0c0017" /><rect x="0" y="7" width="1" height="1" fill="#36223e" /><rect x="0" y="8" width="1" height="1" fill="#6e5774" /><rect x="0" y="9" width="1" height="1" fill="#957b98" /><rect x="1" y="0" width="1" height="1" fill="#8693b6" /><rect x="1" y="1" width="1" height="1" fill="#8a92b6" /><rect x="1" y="2" width="1" height="1" fill="#7881a2" /><rect x="1" y="3" width="1" height="1" fill="#6d7393" /><rect x="1" y="4" width="1" height="1" fill="#585d7d" /><rect x="1" y="5" width="1" height="1" fill="#3b3b5d" /><rect x="1" y="6" width="1" height="1" fill="#1c183b" /><rect x="1" y="7" width="1" height="1" fill="#0d0328" /><rect x="1" y="8" width="1" height="1" fill="#08001e" /><rect x="1" y="9" width="1" height="1" fill="#0a001b" /><rect x="2" y="0" width="1" height="1" fill="#a2ade3" /><rect x="2" y="1" width="1" height="1" fill="#a7b7eb" /><rect x="2" y="2" width="1" height="1" fill="#9eb9e8" /><rect x="2" y="3" width="1" height="1" fill="#97b6e4" /><rect x="2" y="4" width="1" height="1" fill="#96b1e0" /><rect x="2" y="5" width="1" height="1" fill="#91a7d8" /><rect x="2" y="6" width="1" height="1" fill="#8797ca" /><rect x="2" y="7" width="1" height="1" fill="#7d87bc" /><rect x="2" y="8" width="1" height="1" fill="#7275aa" /><rect x="2" y="9" width="1" height="1" fill="#676597" /><rect x="3" y="0" width="1" height="1" fill="#a2abec" /><rect x="3" y="1" width="1" height="1" fill="#9eaceb" /><rect x="3" y="2" width="1" height="1" fill="#93b0ec" /><rect x="3" y="3" width="1" height="1" fill="#90b2ef" /><rect x="3" y="4" width="1" height="1" fill="#97b5f3" /><rect x="3" y="5" width="1" height="1" fill="#9eb7f7" /><rect x="3" y="6" width="1" height="1" fill="#a3b7f6" /><rect x="3" y="7" width="1" height="1" fill="#a8b8f6" /><rect x="3" y="8" width="1" height="1" fill="#a9b3f0" /><rect x="3" y="9" width="1" height="1" fill="#a5aae4" /><rect x="4" y="0" width="1" height="1" fill="#a9acf3" /><rect x="4" y="1" width="1" height="1" fill="#abaff6" /><rect x="4" y="2" width="1" height="1" fill="#a1aff6" /><rect x="4" y="3" width="1" height="1" fill="#a5b7ff" /><rect x="4" y="4" width="1" height="1" fill="#a3b4fc" /><rect x="4" y="5" width="1" height="1" fill="#97a3ed" /><rect x="4" y="6" width="1" height="1" fill="#a4aef6" /><rect x="4" y="7" width="1" height="1" fill="#afb6fc" /><rect x="4" y="8" width="1" height="1" fill="#a4a9eb" /><rect x="4" y="9" width="1" height="1" fill="#a8ade7" /><rect x="5" y="0" width="1" height="1" fill="#b9b0f3" /><rect x="5" y="1" width="1" height="1" fill="#b6aff2" /><rect x="5" y="2" width="1" height="1" fill="#aca9ee" /><rect x="5" y="3" width="1" height="1" fill="#b1aff8" /><rect x="5" y="4" width="1" height="1" fill="#b5b3fc" /><rect x="5" y="5" width="1" height="1" fill="#bcb9ff" /><rect x="5" y="6" width="1" height="1" fill="#b3b0f5" /><rect x="5" y="7" width="1" height="1" fill="#aaa8e9" /><rect x="5" y="8" width="1" height="1" fill="#b4b5ee" /><rect x="5" y="9" width="1" height="1" fill="#b8bcec" /><rect x="6" y="0" width="1" height="1" fill="#c5b0e8" /><rect x="6" y="1" width="1" height="1" fill="#c3ace2" /><rect x="6" y="2" width="1" height="1" fill="#cab2ec" /><rect x="6" y="3" width="1" height="1" fill="#c6aee8" /><rect x="6" y="4" width="1" height="1" fill="#baa2dc" /><rect x="6" y="5" width="1" height="1" fill="#c4afe8" /><rect x="6" y="6" width="1" height="1" fill="#c5b3e7" /><rect x="6" y="7" width="1" height="1" fill="#bdb0de" /><rect x="6" y="8" width="1" height="1" fill="#b4aed4" /><rect x="6" y="9" width="1" height="1" fill="#8387a2" /><rect x="7" y="0" width="1" height="1" fill="#d3b3dc" /><rect x="7" y="1" width="1" height="1" fill="#cfacd4" /><rect x="7" y="2" width="1" height="1" fill="#d6b6df" /><rect x="7" y="3" width="1" height="1" fill="#d4b4dd" /><rect x="7" y="4" width="1" height="1" fill="#d8b9e2" /><rect x="7" y="5" width="1" height="1" fill="#d5b9df" /><rect x="7" y="6" width="1" height="1" fill="#c9b4d5" /><rect x="7" y="7" width="1" height="1" fill="#c0b2cc" /><rect x="7" y="8" width="1" height="1" fill="#787485" /><rect x="7" y="9" width="1" height="1" fill="#000109" /><rect x="8" y="0" width="1" height="1" fill="#e5b7d3" /><rect x="8" y="1" width="1" height="1" fill="#d9aec9" /><rect x="8" y="2" width="1" height="1" fill="#b999ae" /><rect x="8" y="3" width="1" height="1" fill="#af96a9" /><rect x="8" y="4" width="1" height="1" fill="#a58ea0" /><rect x="8" y="5" width="1" height="1" fill="#ac97a6" /><rect x="8" y="6" width="1" height="1" fill="#c0b3bd" /><rect x="8" y="7" width="1" height="1" fill="#756e75" /><rect x="8" y="8" width="1" height="1" fill="#040807" /><rect x="8" y="9" width="1" height="1" fill="#07190d" /><rect x="9" y="0" width="1" height="1" fill="#efb5cb" /><rect x="9" y="1" width="1" height="1" fill="#ddaabd" /><rect x="9" y="2" width="1" height="1" fill="#47232f" /><rect x="9" y="3" width="1" height="1" fill="#120000" /><rect x="9" y="4" width="1" height="1" fill="#120000" /><rect x="9" y="5" width="1" height="1" fill="#0f0000" /><rect x="9" y="6" width="1" height="1" fill="#0d0000" /><rect x="9" y="7" width="1" height="1" fill="#0e0301" /><rect x="9" y="8" width="1" height="1" fill="#090600" /><rect x="9" y="9" width="1" height="1" fill="#2a3223" /></g></svg>