<svg width="800" height="1000" xmlns="http://www.w3.org/2000/svg"><defs><linearGradient id="g" x1="0" x2="1" y1="0" y2="1"><stop offset="0%" stop-color="#2d3c96"/><stop offset="100%" stop-color="#d53392"/></linearGradient></defs><rect x="10" y="10" width="780" height="980" fill="url(#g)" rx="50" ry="50" stroke="gold" stroke-width="20"/><text x="400" y="920" width="780" text-anchor="middle" style="font:bold 200px 'Helvetica Neue';fill:gold">05729</text><g transform="translate(80 80) scale(64)"><rect x="0" y="0" width="1" height="1" fill="#bab3e9" /><rect x="0" y="1" width="1" height="1" fill="#bdb5ee" /><rect x="0" y="2" width="1" height="1" fill="#bdb4ed" /><rect x="0" y="3" width="1" height="1" fill="#b9afeb" /><rect x="0" y="4" width="1" height="1" fill="#b7abe9" /><rect x="0" y="5" width="1" height="1" fill="#b9aded" /><rect x="0" y="6" width="1" height="1" fill="#bfb0f3" /><rect x="0" y="7" width="1" height="1" fill="#c2b3f6" /><rect x="0" y="8" width="1" height="1" fill="#bdaeef" /><rect x="0" y="9" width="1" height="1" fill="#bdafed" /><rect x="1" y="0" width="1" height="1" fill="#c0b6e8" /><rect x="1" y="1" width="1" height="1" fill="#beb1e6" /><rect x="1" y="2" width="1" height="1" fill="#bdb0e5" /><rect x="1" y="3" width="1" height="1" fill="#c0b1e8" /><rect x="1" y="4" width="1" height="1" fill="#bcade6" /><rect x="1" y="5" width="1" height="1" fill="#c4b2ee" /><rect x="1" y="6" width="1" height="1" fill="#c9b7f5" /><rect x="1" y="7" width="1" height="1" fill="#baa6e5" /><rect x="1" y="8" width="1" height="1" fill="#c2aeeb" /><rect x="1" y="9" width="1" height="1" fill="#c2aee9" /><rect x="2" y="0" width="1" height="1" fill="#beaedb" /><rect x="2" y="1" width="1" height="1" fill="#c4b3e0" /><rect x="2" y="2" width="1" height="1" fill="#b9a7d7" /><rect x="2" y="3" width="1" height="1" fill="#c3afe2" /><rect x="2" y="4" width="1" height="1" fill="#cdb6ec" /><rect x="2" y="5" width="1" height="1" fill="#c3ace4" /><rect x="2" y="6" width="1" height="1" fill="#c3ace4" /><rect x="2" y="7" width="1" height="1" fill="#c6ade6" /><rect x="2" y="8" width="1" height="1" fill="#c7aee7" /><rect x="2" y="9" width="1" height="1" fill="#c7aee7" /><rect x="3" y="0" width="1" height="1" fill="#4e3960" /><rect x="3" y="1" width="1" height="1" fill="#b59ec8" /><rect x="3" y="2" width="1" height="1" fill="#cdb6e2" /><rect x="3" y="3" width="1" height="1" fill="#c5abda" /><rect x="3" y="4" width="1" height="1" fill="#ceb2e3" /><rect x="3" y="5" width="1" height="1" fill="#c5a9dc" /><rect x="3" y="6" width="1" height="1" fill="#c5a9dc" /><rect x="3" y="7" width="1" height="1" fill="#d2b4ea" /><rect x="3" y="8" width="1" height="1" fill="#ccaee2" /><rect x="3" y="9" width="1" height="1" fill="#ccaee2" /><rect x="4" y="0" width="1" height="1" fill="#160021" /><rect x="4" y="1" width="1" height="1" fill="#a086ad" /><rect x="4" y="2" width="1" height="1" fill="#d5b9e2" /><rect x="4" y="3" width="1" height="1" fill="#ceafdb" /><rect x="4" y="4" width="1" height="1" fill="#d1b1e0" /><rect x="4" y="5" width="1" height="1" fill="#d0aee0" /><rect x="4" y="6" width="1" height="1" fill="#d2b0e2" /><rect x="4" y="7" width="1" height="1" fill="#cca7da" /><rect x="4" y="8" width="1" height="1" fill="#d2ade0" /><rect x="4" y="9" width="1" height="1" fill="#d2ade0" /><rect x="5" y="0" width="1" height="1" fill="#af91b3" /><rect x="5" y="1" width="1" height="1" fill="#d0b0d5" /><rect x="5" y="2" width="1" height="1" fill="#d0add5" /><rect x="5" y="3" width="1" height="1" fill="#d5b2dc" /><rect x="5" y="4" width="1" height="1" fill="#d4afdb" /><rect x="5" y="5" width="1" height="1" fill="#cea9d5" /><rect x="5" y="6" width="1" height="1" fill="#ddb6e5" /><rect x="5" y="7" width="1" height="1" fill="#d1aad9" /><rect x="5" y="8" width="1" height="1" fill="#d4addc" /><rect x="5" y="9" width="1" height="1" fill="#d4addc" /><rect x="6" y="0" width="1" height="1" fill="#d5b2d3" /><rect x="6" y="1" width="1" height="1" fill="#d6b0d5" /><rect x="6" y="2" width="1" height="1" fill="#d6b0d7" /><rect x="6" y="3" width="1" height="1" fill="#d8afd9" /><rect x="6" y="4" width="1" height="1" fill="#d9aed9" /><rect x="6" y="5" width="1" height="1" fill="#d9aedb" /><rect x="6" y="6" width="1" height="1" fill="#d9aedc" /><rect x="6" y="7" width="1" height="1" fill="#d9aedc" /><rect x="6" y="8" width="1" height="1" fill="#dbaddc" /><rect x="6" y="9" width="1" height="1" fill="#dbaddc" /><rect x="7" y="0" width="1" height="1" fill="#d9b0d2" /><rect x="7" y="1" width="1" height="1" fill="#dbafd3" /><rect x="7" y="2" width="1" height="1" fill="#dbaed5" /><rect x="7" y="3" width="1" height="1" fill="#dcaed5" /><rect x="7" y="4" width="1" height="1" fill="#dcadd7" /><rect x="7" y="5" width="1" height="1" fill="#dcadd7" /><rect x="7" y="6" width="1" height="1" fill="#dcadd9" /><rect x="7" y="7" width="1" height="1" fill="#ddacd9" /><rect x="7" y="8" width="1" height="1" fill="#ddacd9" /><rect x="7" y="9" width="1" height="1" fill="#ddacd9" /><rect x="8" y="0" width="1" height="1" fill="#dfadd0" /><rect x="8" y="1" width="1" height="1" fill="#e0acd2" /><rect x="8" y="2" width="1" height="1" fill="#e0acd2" /><rect x="8" y="3" width="1" height="1" fill="#e0acd2" /><rect x="8" y="4" width="1" height="1" fill="#e0acd3" /><rect x="8" y="5" width="1" height="1" fill="#e2abd3" /><rect x="8" y="6" width="1" height="1" fill="#e2abd3" /><rect x="8" y="7" width="1" height="1" fill="#e2abd3" /><rect x="8" y="8" width="1" height="1" fill="#e2abd3" /><rect x="8" y="9" width="1" height="1" fill="#e2abd3" /><rect x="9" y="0" width="1" height="1" fill="#e5accf" /><rect x="9" y="1" width="1" height="1" fill="#e5accf" /><rect x="9" y="2" width="1" height="1" fill="#e7abcf" /><rect x="9" y="3" width="1" height="1" fill="#e7abcf" /><rect x="9" y="4" width="1" height="1" fill="#e7abd1" /><rect x="9" y="5" width="1" height="1" fill="#e7abd1" /><rect x="9" y="6" width="1" height="1" fill="#e7abd1" /><rect x="9" y="7" width="1" height="1" fill="#e7abcf" /><rect x="9" y="8" width="1" height="1" fill="#e7abcf" /><rect x="9" y="9" width="1" height="1" fill="#e7abcf" /></g></svg>