<svg width="800" height="1000" xmlns="http://www.w3.org/2000/svg"><defs><linearGradient id="g" x1="0" x2="1" y1="0" y2="1"><stop offset="0%" stop-color="#2d3c96"/><stop offset="100%" stop-color="#d53392"/></linearGradient></defs><rect x="10" y="10" width="780" height="980" fill="url(#g)" rx="50" ry="50" stroke="gold" stroke-width="20"/><text x="400" y="920" width="780" text-anchor="middle" style="font:bold 200px 'Helvetica Neue';fill:gold">05726</text><g transform="translate(80 80) scale(64)"><rect x="0" y="0" width="1" height="1" fill="#000013" /><rect x="0" y="1" width="1" height="1" fill="#7f7da2" /><rect x="0" y="2" width="1" height="1" fill="#aba9d8" /><rect x="0" y="3" width="1" height="1" fill="#b8b6e7" /><rect x="0" y="4" width="1" height="1" fill="#bab7e4" /><rect x="0" y="5" width="1" height="1" fill="#bcb7df" /><rect x="0" y="6" width="1" height="1" fill="#f3edff" /><rect x="0" y="7" width="1" height="1" fill="#fefbff" /><rect x="0" y="8" width="1" height="1" fill="#fefdff" /><rect x="0" y="9" width="1" height="1" fill="#fffffd" /><rect x="1" y="0" width="1" height="1" fill="#9497ba" /><rect x="1" y="1" width="1" height="1" fill="#b8baeb" /><rect x="1" y="2" width="1" height="1" fill="#aeb0eb" /><rect x="1" y="3" width="1" height="1" fill="#b0b0ee" /><rect x="1" y="4" width="1" height="1" fill="#aeabe4" /><rect x="1" y="5" width="1" height="1" fill="#b6afe3" /><rect x="1" y="6" width="1" height="1" fill="#b8b1db" /><rect x="1" y="7" width="1" height="1" fill="#e8e1ff" /><rect x="1" y="8" width="1" height="1" fill="#fffdff" /><rect x="1" y="9" width="1" height="1" fill="#fffeff" /><rect x="2" y="0" width="1" height="1" fill="#b5b7e7" /><rect x="2" y="1" width="1" height="1" fill="#aeb0eb" /><rect x="2" y="2" width="1" height="1" fill="#aaa9ed" /><rect x="2" y="3" width="1" height="1" fill="#b7b4fb" /><rect x="2" y="4" width="1" height="1" fill="#ada6e9" /><rect x="2" y="5" width="1" height="1" fill="#bbb1ed" /><rect x="2" y="6" width="1" height="1" fill="#c1b7eb" /><rect x="2" y="7" width="1" height="1" fill="#c5bde4" /><rect x="2" y="8" width="1" height="1" fill="#e8e5f8" /><rect x="2" y="9" width="1" height="1" fill="#f8f8ff" /><rect x="3" y="0" width="1" height="1" fill="#b2ade7" /><rect x="3" y="1" width="1" height="1" fill="#aea9eb" /><rect x="3" y="2" width="1" height="1" fill="#bdb7fd" /><rect x="3" y="3" width="1" height="1" fill="#ada6ec" /><rect x="3" y="4" width="1" height="1" fill="#c6bdff" /><rect x="3" y="5" width="1" height="1" fill="#b4aae7" /><rect x="3" y="6" width="1" height="1" fill="#b0a5dd" /><rect x="3" y="7" width="1" height="1" fill="#bcb3de" /><rect x="3" y="8" width="1" height="1" fill="#c6c2db" /><rect x="3" y="9" width="1" height="1" fill="#eceaf8" /><rect x="4" y="0" width="1" height="1" fill="#bdadec" /><rect x="4" y="1" width="1" height="1" fill="#c5b4f8" /><rect x="4" y="2" width="1" height="1" fill="#baa9ed" /><rect x="4" y="3" width="1" height="1" fill="#bbacef" /><rect x="4" y="4" width="1" height="1" fill="#c1b3f1" /><rect x="4" y="5" width="1" height="1" fill="#b9abe8" /><rect x="4" y="6" width="1" height="1" fill="#baade5" /><rect x="4" y="7" width="1" height="1" fill="#bfb3e3" /><rect x="4" y="8" width="1" height="1" fill="#afa8c7" /><rect x="4" y="9" width="1" height="1" fill="#ccc7db" /><rect x="5" y="0" width="1" height="1" fill="#c3a6e6" /><rect x="5" y="1" width="1" height="1" fill="#c9acec" /><rect x="5" y="2" width="1" height="1" fill="#c6ace9" /><rect x="5" y="3" width="1" height="1" fill="#c6b1ea" /><rect x="5" y="4" width="1" height="1" fill="#c2afe6" /><rect x="5" y="5" width="1" height="1" fill="#beade3" /><rect x="5" y="6" width="1" height="1" fill="#c2b4e7" /><rect x="5" y="7" width="1" height="1" fill="#bcb1dc" /><rect x="5" y="8" width="1" height="1" fill="#cdc4e1" /><rect x="5" y="9" width="1" height="1" fill="#a9a2b4" /><rect x="6" y="0" width="1" height="1" fill="#d6aceb" /><rect x="6" y="1" width="1" height="1" fill="#d1aae3" /><rect x="6" y="2" width="1" height="1" fill="#ceacdf" /><rect x="6" y="3" width="1" height="1" fill="#d0b3e3" /><rect x="6" y="4" width="1" height="1" fill="#c6afdb" /><rect x="6" y="5" width="1" height="1" fill="#c5b3db" /><rect x="6" y="6" width="1" height="1" fill="#cebfe8" /><rect x="6" y="7" width="1" height="1" fill="#c3b5d8" /><rect x="6" y="8" width="1" height="1" fill="#9f92a6" /><rect x="6" y="9" width="1" height="1" fill="#6f636f" /><rect x="7" y="0" width="1" height="1" fill="#ddace3" /><rect x="7" y="1" width="1" height="1" fill="#ddafe0" /><rect x="7" y="2" width="1" height="1" fill="#d1aad6" /><rect x="7" y="3" width="1" height="1" fill="#d1afd4" /><rect x="7" y="4" width="1" height="1" fill="#cfb4d3" /><rect x="7" y="5" width="1" height="1" fill="#c8b4d0" /><rect x="7" y="6" width="1" height="1" fill="#ae9eb8" /><rect x="7" y="7" width="1" height="1" fill="#827386" /><rect x="7" y="8" width="1" height="1" fill="#0c0003" /><rect x="7" y="9" width="1" height="1" fill="#110000" /><rect x="8" y="0" width="1" height="1" fill="#d7a2d0" /><rect x="8" y="1" width="1" height="1" fill="#dfacd5" /><rect x="8" y="2" width="1" height="1" fill="#d7abce" /><rect x="8" y="3" width="1" height="1" fill="#d9b5d1" /><rect x="8" y="4" width="1" height="1" fill="#d5b8ce" /><rect x="8" y="5" width="1" height="1" fill="#a38d9a" /><rect x="8" y="6" width="1" height="1" fill="#4e3e48" /><rect x="8" y="7" width="1" height="1" fill="#0b0000" /><rect x="8" y="8" width="1" height="1" fill="#120000" /><rect x="8" y="9" width="1" height="1" fill="#826857" /><rect x="9" y="0" width="1" height="1" fill="#ebb3d8" /><rect x="9" y="1" width="1" height="1" fill="#e1add1" /><rect x="9" y="2" width="1" height="1" fill="#daadca" /><rect x="9" y="3" width="1" height="1" fill="#d4aec3" /><rect x="9" y="4" width="1" height="1" fill="#886a76" /><rect x="9" y="5" width="1" height="1" fill="#170103" /><rect x="9" y="6" width="1" height="1" fill="#100000" /><rect x="9" y="7" width="1" height="1" fill="#544333" /><rect x="9" y="8" width="1" height="1" fill="#c2a68e" /><rect x="9" y="9" width="1" height="1" fill="#f6d8b6" /></g></svg>