<svg width="800" height="1000" xmlns="http://www.w3.org/2000/svg"><defs><linearGradient id="g" x1="0" x2="1" y1="0" y2="1"><stop offset="0%" stop-color="#2d3c96"/><stop offset="100%" stop-color="#d53392"/></linearGradient></defs><rect x="10" y="10" width="780" height="980" fill="url(#g)" rx="50" ry="50" stroke="gold" stroke-width="20"/><text x="400" y="920" width="780" text-anchor="middle" style="font:bold 200px 'Helvetica Neue';fill:gold">05728</text><g transform="translate(80 80) scale(64)"><rect x="0" y="0" width="1" height="1" fill="#ceb491" /><rect x="0" y="1" width="1" height="1" fill="#6e6045" /><rect x="0" y="2" width="1" height="1" fill="#090600" /><rect x="0" y="3" width="1" height="1" fill="#000203" /><rect x="0" y="4" width="1" height="1" fill="#1f2639" /><rect x="0" y="5" width="1" height="1" fill="#6e769a" /><rect x="0" y="6" width="1" height="1" fill="#a0a6d6" /><rect x="0" y="7" width="1" height="1" fill="#9ea6e4" /><rect x="0" y="8" width="1" height="1" fill="#9eacf7" /><rect x="0" y="9" width="1" height="1" fill="#9bacfe" /><rect x="1" y="0" width="1" height="1" fill="#0d0000" /><rect x="1" y="1" width="1" height="1" fill="#040000" /><rect x="1" y="2" width="1" height="1" fill="#111521" /><rect x="1" y="3" width="1" height="1" fill="#67718c" /><rect x="1" y="4" width="1" height="1" fill="#98a4ce" /><rect x="1" y="5" width="1" height="1" fill="#a2ade3" /><rect x="1" y="6" width="1" height="1" fill="#a0a8e7" /><rect x="1" y="7" width="1" height="1" fill="#aab2fa" /><rect x="1" y="8" width="1" height="1" fill="#9fabfd" /><rect x="1" y="9" width="1" height="1" fill="#9dacff" /><rect x="2" y="0" width="1" height="1" fill="#03010f" /><rect x="2" y="1" width="1" height="1" fill="#606481" /><rect x="2" y="2" width="1" height="1" fill="#929bc4" /><rect x="2" y="3" width="1" height="1" fill="#a5b1e5" /><rect x="2" y="4" width="1" height="1" fill="#a4aeeb" /><rect x="2" y="5" width="1" height="1" fill="#a7b0f3" /><rect x="2" y="6" width="1" height="1" fill="#a3aaf0" /><rect x="2" y="7" width="1" height="1" fill="#a8b0f8" /><rect x="2" y="8" width="1" height="1" fill="#a0acf6" /><rect x="2" y="9" width="1" height="1" fill="#9fadf8" /><rect x="3" y="0" width="1" height="1" fill="#8c91b7" /><rect x="3" y="1" width="1" height="1" fill="#b1b8ec" /><rect x="3" y="2" width="1" height="1" fill="#a6b0ed" /><rect x="3" y="3" width="1" height="1" fill="#a3aef0" /><rect x="3" y="4" width="1" height="1" fill="#a5aff6" /><rect x="3" y="5" width="1" height="1" fill="#abb3fc" /><rect x="3" y="6" width="1" height="1" fill="#a0a8f0" /><rect x="3" y="7" width="1" height="1" fill="#a0a8f0" /><rect x="3" y="8" width="1" height="1" fill="#a4aef3" /><rect x="3" y="9" width="1" height="1" fill="#a2aff3" /><rect x="4" y="0" width="1" height="1" fill="#aab5ed" /><rect x="4" y="1" width="1" height="1" fill="#a7b0f1" /><rect x="4" y="2" width="1" height="1" fill="#99a2e7" /><rect x="4" y="3" width="1" height="1" fill="#aeb6ff" /><rect x="4" y="4" width="1" height="1" fill="#abb3fc" /><rect x="4" y="5" width="1" height="1" fill="#a1a9f2" /><rect x="4" y="6" width="1" height="1" fill="#9fa7ef" /><rect x="4" y="7" width="1" height="1" fill="#b1baff" /><rect x="4" y="8" width="1" height="1" fill="#a6aff0" /><rect x="4" y="9" width="1" height="1" fill="#a6aff0" /><rect x="5" y="0" width="1" height="1" fill="#a6b4f5" /><rect x="5" y="1" width="1" height="1" fill="#aeb8fd" /><rect x="5" y="2" width="1" height="1" fill="#a4acf4" /><rect x="5" y="3" width="1" height="1" fill="#aab2fa" /><rect x="5" y="4" width="1" height="1" fill="#a1a8f0" /><rect x="5" y="5" width="1" height="1" fill="#aab2fa" /><rect x="5" y="6" width="1" height="1" fill="#abb3fc" /><rect x="5" y="7" width="1" height="1" fill="#a2abf0" /><rect x="5" y="8" width="1" height="1" fill="#a7b1ef" /><rect x="5" y="9" width="1" height="1" fill="#a7b1ef" /><rect x="6" y="0" width="1" height="1" fill="#a1aaed" /><rect x="6" y="1" width="1" height="1" fill="#a6aff0" /><rect x="6" y="2" width="1" height="1" fill="#9fa9e7" /><rect x="6" y="3" width="1" height="1" fill="#adb7f5" /><rect x="6" y="4" width="1" height="1" fill="#a6aff0" /><rect x="6" y="5" width="1" height="1" fill="#acb5fa" /><rect x="6" y="6" width="1" height="1" fill="#abb3fe" /><rect x="6" y="7" width="1" height="1" fill="#a4aef6" /><rect x="6" y="8" width="1" height="1" fill="#a8b1f4" /><rect x="6" y="9" width="1" height="1" fill="#a8b1f2" /><rect x="7" y="0" width="1" height="1" fill="#abb0f2" /><rect x="7" y="1" width="1" height="1" fill="#b4bcfa" /><rect x="7" y="2" width="1" height="1" fill="#a8b1ec" /><rect x="7" y="3" width="1" height="1" fill="#afb5f1" /><rect x="7" y="4" width="1" height="1" fill="#a7acec" /><rect x="7" y="5" width="1" height="1" fill="#abb0f4" /><rect x="7" y="6" width="1" height="1" fill="#aab0fa" /><rect x="7" y="7" width="1" height="1" fill="#adb3fd" /><rect x="7" y="8" width="1" height="1" fill="#abb0f4" /><rect x="7" y="9" width="1" height="1" fill="#abb0f2" /><rect x="8" y="0" width="1" height="1" fill="#b1b1ef" /><rect x="8" y="1" width="1" height="1" fill="#b2b2f0" /><rect x="8" y="2" width="1" height="1" fill="#b9b9f7" /><rect x="8" y="3" width="1" height="1" fill="#b0b0f0" /><rect x="8" y="4" width="1" height="1" fill="#acabed" /><rect x="8" y="5" width="1" height="1" fill="#b6b5fb" /><rect x="8" y="6" width="1" height="1" fill="#b6b2fc" /><rect x="8" y="7" width="1" height="1" fill="#b0acf6" /><rect x="8" y="8" width="1" height="1" fill="#b2b1f5" /><rect x="8" y="9" width="1" height="1" fill="#b2b1f3" /><rect x="9" y="0" width="1" height="1" fill="#b1ade8" /><rect x="9" y="1" width="1" height="1" fill="#ada9e4" /><rect x="9" y="2" width="1" height="1" fill="#afabe6" /><rect x="9" y="3" width="1" height="1" fill="#b6b2ef" /><rect x="9" y="4" width="1" height="1" fill="#bcb5f8" /><rect x="9" y="5" width="1" height="1" fill="#b5aef2" /><rect x="9" y="6" width="1" height="1" fill="#b1a7ec" /><rect x="9" y="7" width="1" height="1" fill="#bdb3f8" /><rect x="9" y="8" width="1" height="1" fill="#b8aff2" /><rect x="9" y="9" width="1" height="1" fill="#b6aff2" /></g></svg>