<svg width="800" height="1000" xmlns="http://www.w3.org/2000/svg"><defs><linearGradient id="g" x1="0" x2="1" y1="0" y2="1"><stop offset="0%" stop-color="#2d3c96"/><stop offset="100%" stop-color="#d53392"/></linearGradient></defs><rect x="10" y="10" width="780" height="980" fill="url(#g)" rx="50" ry="50" stroke="gold" stroke-width="20"/><text x="400" y="920" width="780" text-anchor="middle" style="font:bold 200px 'Helvetica Neue';fill:gold">05732</text><g transform="translate(80 80) scale(64)"><rect x="0" y="0" width="1" height="1" fill="#faea93" /><rect x="0" y="1" width="1" height="1" fill="#fdec92" /><rect x="0" y="2" width="1" height="1" fill="#fdea8e" /><rect x="0" y="3" width="1" height="1" fill="#fae78b" /><rect x="0" y="4" width="1" height="1" fill="#fbe68d" /><rect x="0" y="5" width="1" height="1" fill="#ffea94" /><rect x="0" y="6" width="1" height="1" fill="#ffeb96" /><rect x="0" y="7" width="1" height="1" fill="#feea93" /><rect x="0" y="8" width="1" height="1" fill="#f9ea8d" /><rect x="0" y="9" width="1" height="1" fill="#fcf198" /><rect x="1" y="0" width="1" height="1" fill="#faed91" /><rect x="1" y="1" width="1" height="1" fill="#f9ec8e" /><rect x="1" y="2" width="1" height="1" fill="#faeb8e" /><rect x="1" y="3" width="1" height="1" fill="#fced90" /><rect x="1" y="4" width="1" height="1" fill="#fced92" /><rect x="1" y="5" width="1" height="1" fill="#f9ec90" /><rect x="1" y="6" width="1" height="1" fill="#f8ea91" /><rect x="1" y="7" width="1" height="1" fill="#f6eb91" /><rect x="1" y="8" width="1" height="1" fill="#f5f094" /><rect x="1" y="9" width="1" height="1" fill="#eae591" /><rect x="2" y="0" width="1" height="1" fill="#f3ee93" /><rect x="2" y="1" width="1" height="1" fill="#efea8f" /><rect x="2" y="2" width="1" height="1" fill="#efe993" /><rect x="2" y="3" width="1" height="1" fill="#f2ec96" /><rect x="2" y="4" width="1" height="1" fill="#f2ec96" /><rect x="2" y="5" width="1" height="1" fill="#eee892" /><rect x="2" y="6" width="1" height="1" fill="#ede78f" /><rect x="2" y="7" width="1" height="1" fill="#efea96" /><rect x="2" y="8" width="1" height="1" fill="#eae39b" /><rect x="2" y="9" width="1" height="1" fill="#eee6a8" /><rect x="3" y="0" width="1" height="1" fill="#eaeaa0" /><rect x="3" y="1" width="1" height="1" fill="#eaeaa0" /><rect x="3" y="2" width="1" height="1" fill="#e7e79d" /><rect x="3" y="3" width="1" height="1" fill="#e3e399" /><rect x="3" y="4" width="1" height="1" fill="#e3e498" /><rect x="3" y="5" width="1" height="1" fill="#e6e797" /><rect x="3" y="6" width="1" height="1" fill="#e9eb98" /><rect x="3" y="7" width="1" height="1" fill="#eaeaa0" /><rect x="3" y="8" width="1" height="1" fill="#ece7af" /><rect x="3" y="9" width="1" height="1" fill="#fff9cb" /><rect x="4" y="0" width="1" height="1" fill="#dbdbb7" /><rect x="4" y="1" width="1" height="1" fill="#e9e8bc" /><rect x="4" y="2" width="1" height="1" fill="#eeeeba" /><rect x="4" y="3" width="1" height="1" fill="#e7ebb0" /><rect x="4" y="4" width="1" height="1" fill="#e7ecaa" /><rect x="4" y="5" width="1" height="1" fill="#eef3b0" /><rect x="4" y="6" width="1" height="1" fill="#ebf1ab" /><rect x="4" y="7" width="1" height="1" fill="#e2e6a9" /><rect x="4" y="8" width="1" height="1" fill="#d9d6ab" /><rect x="4" y="9" width="1" height="1" fill="#97936e" /><rect x="5" y="0" width="1" height="1" fill="#565840" /><rect x="5" y="1" width="1" height="1" fill="#777a5b" /><rect x="5" y="2" width="1" height="1" fill="#9ba078" /><rect x="5" y="3" width="1" height="1" fill="#afb587" /><rect x="5" y="4" width="1" height="1" fill="#b6bf8a" /><rect x="5" y="5" width="1" height="1" fill="#b3bc85" /><rect x="5" y="6" width="1" height="1" fill="#a0a970" /><rect x="5" y="7" width="1" height="1" fill="#89915e" /><rect x="5" y="8" width="1" height="1" fill="#4e532b" /><rect x="5" y="9" width="1" height="1" fill="#010500" /><rect x="6" y="0" width="1" height="1" fill="#010900" /><rect x="6" y="1" width="1" height="1" fill="#030a00" /><rect x="6" y="2" width="1" height="1" fill="#030a00" /><rect x="6" y="3" width="1" height="1" fill="#000600" /><rect x="6" y="4" width="1" height="1" fill="#000700" /><rect x="6" y="5" width="1" height="1" fill="#000800" /><rect x="6" y="6" width="1" height="1" fill="#000900" /><rect x="6" y="7" width="1" height="1" fill="#000900" /><rect x="6" y="8" width="1" height="1" fill="#000900" /><rect x="6" y="9" width="1" height="1" fill="#2f3f12" /><rect x="7" y="0" width="1" height="1" fill="#a1b47d" /><rect x="7" y="1" width="1" height="1" fill="#889a6a" /><rect x="7" y="2" width="1" height="1" fill="#6e7f53" /><rect x="7" y="3" width="1" height="1" fill="#5e6f45" /><rect x="7" y="4" width="1" height="1" fill="#54663c" /><rect x="7" y="5" width="1" height="1" fill="#56693c" /><rect x="7" y="6" width="1" height="1" fill="#687e4f" /><rect x="7" y="7" width="1" height="1" fill="#7e9664" /><rect x="7" y="8" width="1" height="1" fill="#9eb984" /><rect x="7" y="9" width="1" height="1" fill="#c7e4aa" /><rect x="8" y="0" width="1" height="1" fill="#d0f0a5" /><rect x="8" y="1" width="1" height="1" fill="#cceba5" /><rect x="8" y="2" width="1" height="1" fill="#c6e7a2" /><rect x="8" y="3" width="1" height="1" fill="#c1e19e" /><rect x="8" y="4" width="1" height="1" fill="#bee19d" /><rect x="8" y="5" width="1" height="1" fill="#c0e39f" /><rect x="8" y="6" width="1" height="1" fill="#c3e8a2" /><rect x="8" y="7" width="1" height="1" fill="#c4eca5" /><rect x="8" y="8" width="1" height="1" fill="#c5f0a9" /><rect x="8" y="9" width="1" height="1" fill="#c1efa6" /><rect x="9" y="0" width="1" height="1" fill="#b7e491" /><rect x="9" y="1" width="1" height="1" fill="#b9e691" /><rect x="9" y="2" width="1" height="1" fill="#baea94" /><rect x="9" y="3" width="1" height="1" fill="#bded99" /><rect x="9" y="4" width="1" height="1" fill="#bced9b" /><rect x="9" y="5" width="1" height="1" fill="#bced9c" /><rect x="9" y="6" width="1" height="1" fill="#b8eb9c" /><rect x="9" y="7" width="1" height="1" fill="#b6eb99" /><rect x="9" y="8" width="1" height="1" fill="#b5ed96" /><rect x="9" y="9" width="1" height="1" fill="#b4ef95" /></g></svg>