<svg width="800" height="1000" xmlns="http://www.w3.org/2000/svg"><defs><linearGradient id="g" x1="0" x2="1" y1="0" y2="1"><stop offset="0%" stop-color="#2d3c96"/><stop offset="100%" stop-color="#d53392"/></linearGradient></defs><rect x="10" y="10" width="780" height="980" fill="url(#g)" rx="50" ry="50" stroke="gold" stroke-width="20"/><text x="400" y="920" width="780" text-anchor="middle" style="font:bold 200px 'Helvetica Neue';fill:gold">05731</text><g transform="translate(80 80) scale(64)"><rect x="0" y="0" width="1" height="1" fill="#fabeb3" /><rect x="0" y="1" width="1" height="1" fill="#fac1b6" /><rect x="0" y="2" width="1" height="1" fill="#f4c4b8" /><rect x="0" y="3" width="1" height="1" fill="#f7cdc1" /><rect x="0" y="4" width="1" height="1" fill="#f1d0c1" /><rect x="0" y="5" width="1" height="1" fill="#bfa395" /><rect x="0" y="6" width="1" height="1" fill="#7c6555" /><rect x="0" y="7" width="1" height="1" fill="#140000" /><rect x="0" y="8" width="1" height="1" fill="#180000" /><rect x="0" y="9" width="1" height="1" fill="#7e584f" /><rect x="1" y="0" width="1" height="1" fill="#febfae" /><rect x="1" y="1" width="1" height="1" fill="#ffc4b4" /><rect x="1" y="2" width="1" height="1" fill="#fbc3b4" /><rect x="1" y="3" width="1" height="1" fill="#f6c5b4" /><rect x="1" y="4" width="1" height="1" fill="#f7ccbb" /><rect x="1" y="5" width="1" height="1" fill="#f1ccb9" /><rect x="1" y="6" width="1" height="1" fill="#efcfba" /><rect x="1" y="7" width="1" height="1" fill="#aa8b77" /><rect x="1" y="8" width="1" height="1" fill="#270700" /><rect x="1" y="9" width="1" height="1" fill="#180000" /><rect x="2" y="0" width="1" height="1" fill="#ffc6ab" /><rect x="2" y="1" width="1" height="1" fill="#ffc7ae" /><rect x="2" y="2" width="1" height="1" fill="#ffc7b0" /><rect x="2" y="3" width="1" height="1" fill="#fdc7af" /><rect x="2" y="4" width="1" height="1" fill="#fac6b0" /><rect x="2" y="5" width="1" height="1" fill="#fac6b0" /><rect x="2" y="6" width="1" height="1" fill="#fcc8b2" /><rect x="2" y="7" width="1" height="1" fill="#f9cab6" /><rect x="2" y="8" width="1" height="1" fill="#caa794" /><rect x="2" y="9" width="1" height="1" fill="#644735" /><rect x="3" y="0" width="1" height="1" fill="#fdcba8" /><rect x="3" y="1" width="1" height="1" fill="#fecca9" /><rect x="3" y="2" width="1" height="1" fill="#ffcbab" /><rect x="3" y="3" width="1" height="1" fill="#ffcaaa" /><rect x="3" y="4" width="1" height="1" fill="#ffc8aa" /><rect x="3" y="5" width="1" height="1" fill="#ffc8aa" /><rect x="3" y="6" width="1" height="1" fill="#ffc9ac" /><rect x="3" y="7" width="1" height="1" fill="#feccb1" /><rect x="3" y="8" width="1" height="1" fill="#fedcc1" /><rect x="3" y="9" width="1" height="1" fill="#ceb49b" /><rect x="4" y="0" width="1" height="1" fill="#fdd1a4" /><rect x="4" y="1" width="1" height="1" fill="#fed1a7" /><rect x="4" y="2" width="1" height="1" fill="#ffd1a7" /><rect x="4" y="3" width="1" height="1" fill="#ffd0a6" /><rect x="4" y="4" width="1" height="1" fill="#ffcfa7" /><rect x="4" y="5" width="1" height="1" fill="#ffcfa7" /><rect x="4" y="6" width="1" height="1" fill="#ffcfa7" /><rect x="4" y="7" width="1" height="1" fill="#fed0ac" /><rect x="4" y="8" width="1" height="1" fill="#f5d3b0" /><rect x="4" y="9" width="1" height="1" fill="#fbe0c2" /><rect x="5" y="0" width="1" height="1" fill="#ffd6a2" /><rect x="5" y="1" width="1" height="1" fill="#ffd6a2" /><rect x="5" y="2" width="1" height="1" fill="#ffd6a2" /><rect x="5" y="3" width="1" height="1" fill="#ffd5a3" /><rect x="5" y="4" width="1" height="1" fill="#fed4a2" /><rect x="5" y="5" width="1" height="1" fill="#fed4a2" /><rect x="5" y="6" width="1" height="1" fill="#fed6a3" /><rect x="5" y="7" width="1" height="1" fill="#fcd6a7" /><rect x="5" y="8" width="1" height="1" fill="#f5d4a9" /><rect x="5" y="9" width="1" height="1" fill="#eed2aa" /><rect x="6" y="0" width="1" height="1" fill="#ffd79d" /><rect x="6" y="1" width="1" height="1" fill="#ffd79f" /><rect x="6" y="2" width="1" height="1" fill="#ffd89f" /><rect x="6" y="3" width="1" height="1" fill="#fdd99f" /><rect x="6" y="4" width="1" height="1" fill="#fada9f" /><rect x="6" y="5" width="1" height="1" fill="#f9db9f" /><rect x="6" y="6" width="1" height="1" fill="#f8db9f" /><rect x="6" y="7" width="1" height="1" fill="#f8dba1" /><rect x="6" y="8" width="1" height="1" fill="#ffdfaa" /><rect x="6" y="9" width="1" height="1" fill="#eece9f" /><rect x="7" y="0" width="1" height="1" fill="#ffdc9c" /><rect x="7" y="1" width="1" height="1" fill="#fedb9b" /><rect x="7" y="2" width="1" height="1" fill="#fddb9b" /><rect x="7" y="3" width="1" height="1" fill="#fcdd9c" /><rect x="7" y="4" width="1" height="1" fill="#fcdf9d" /><rect x="7" y="5" width="1" height="1" fill="#fbe09d" /><rect x="7" y="6" width="1" height="1" fill="#f8df9c" /><rect x="7" y="7" width="1" height="1" fill="#f9de9b" /><rect x="7" y="8" width="1" height="1" fill="#ffe1a2" /><rect x="7" y="9" width="1" height="1" fill="#ffdda5" /><rect x="8" y="0" width="1" height="1" fill="#f9e29c" /><rect x="8" y="1" width="1" height="1" fill="#f8e19b" /><rect x="8" y="2" width="1" height="1" fill="#f9e19b" /><rect x="8" y="3" width="1" height="1" fill="#fce19c" /><rect x="8" y="4" width="1" height="1" fill="#fee19b" /><rect x="8" y="5" width="1" height="1" fill="#ffe09b" /><rect x="8" y="6" width="1" height="1" fill="#ffde9a" /><rect x="8" y="7" width="1" height="1" fill="#ffdc98" /><rect x="8" y="8" width="1" height="1" fill="#ffda97" /><rect x="8" y="9" width="1" height="1" fill="#ffe5a6" /><rect x="9" y="0" width="1" height="1" fill="#f7e698" /><rect x="9" y="1" width="1" height="1" fill="#f7e696" /><rect x="9" y="2" width="1" height="1" fill="#f8e596" /><rect x="9" y="3" width="1" height="1" fill="#fce597" /><rect x="9" y="4" width="1" height="1" fill="#ffe598" /><rect x="9" y="5" width="1" height="1" fill="#ffe498" /><rect x="9" y="6" width="1" height="1" fill="#ffe096" /><rect x="9" y="7" width="1" height="1" fill="#ffde94" /><rect x="9" y="8" width="1" height="1" fill="#ffe89b" /><rect x="9" y="9" width="1" height="1" fill="#f8da91" /></g></svg>