<svg width="800" height="1000" xmlns="http://www.w3.org/2000/svg"><defs><linearGradient id="g" x1="0" x2="1" y1="0" y2="1"><stop offset="0%" stop-color="#2d3c96"/><stop offset="100%" stop-color="#d53392"/></linearGradient></defs><rect x="10" y="10" width="780" height="980" fill="url(#g)" rx="50" ry="50" stroke="gold" stroke-width="20"/><text x="400" y="920" width="780" text-anchor="middle" style="font:bold 200px 'Helvetica Neue';fill:gold">05734</text><g transform="translate(80 80) scale(64)"><rect x="0" y="0" width="1" height="1" fill="#ac8dac" /><rect x="0" y="1" width="1" height="1" fill="#c09dbb" /><rect x="0" y="2" width="1" height="1" fill="#d3afc9" /><rect x="0" y="3" width="1" height="1" fill="#deb6d0" /><rect x="0" y="4" width="1" height="1" fill="#deb4cc" /><rect x="0" y="5" width="1" height="1" fill="#daaec5" /><rect x="0" y="6" width="1" height="1" fill="#dbaec3" /><rect x="0" y="7" width="1" height="1" fill="#e4afcb" /><rect x="0" y="8" width="1" height="1" fill="#f2afd8" /><rect x="0" y="9" width="1" height="1" fill="#f4acda" /><rect x="1" y="0" width="1" height="1" fill="#0d0019" /><rect x="1" y="1" width="1" height="1" fill="#230625" /><rect x="1" y="2" width="1" height="1" fill="#593855" /><rect x="1" y="3" width="1" height="1" fill="#926f87" /><rect x="1" y="4" width="1" height="1" fill="#b590a2" /><rect x="1" y="5" width="1" height="1" fill="#cea8b7" /><rect x="1" y="6" width="1" height="1" fill="#e0b7c5" /><rect x="1" y="7" width="1" height="1" fill="#e6b7c9" /><rect x="1" y="8" width="1" height="1" fill="#e5adca" /><rect x="1" y="9" width="1" height="1" fill="#f0b0d3" /><rect x="2" y="0" width="1" height="1" fill="#3e3665" /><rect x="2" y="1" width="1" height="1" fill="#140830" /><rect x="2" y="2" width="1" height="1" fill="#070019" /><rect x="2" y="3" width="1" height="1" fill="#0a0012" /><rect x="2" y="4" width="1" height="1" fill="#0d000b" /><rect x="2" y="5" width="1" height="1" fill="#2d1724" /><rect x="2" y="6" width="1" height="1" fill="#69525a" /><rect x="2" y="7" width="1" height="1" fill="#876c75" /><rect x="2" y="8" width="1" height="1" fill="#b2929f" /><rect x="2" y="9" width="1" height="1" fill="#d0a9bb" /><rect x="3" y="0" width="1" height="1" fill="#a8aadd" /><rect x="3" y="1" width="1" height="1" fill="#9190ba" /><rect x="3" y="2" width="1" height="1" fill="#9190b0" /><rect x="3" y="3" width="1" height="1" fill="#7a768d" /><rect x="3" y="4" width="1" height="1" fill="#2c2836" /><rect x="3" y="5" width="1" height="1" fill="#010004" /><rect x="3" y="6" width="1" height="1" fill="#020100" /><rect x="3" y="7" width="1" height="1" fill="#010000" /><rect x="3" y="8" width="1" height="1" fill="#060500" /><rect x="3" y="9" width="1" height="1" fill="#3f3a37" /><rect x="4" y="0" width="1" height="1" fill="#adb3e5" /><rect x="4" y="1" width="1" height="1" fill="#b2badf" /><rect x="4" y="2" width="1" height="1" fill="#a1abc4" /><rect x="4" y="3" width="1" height="1" fill="#5a6672" /><rect x="4" y="4" width="1" height="1" fill="#051515" /><rect x="4" y="5" width="1" height="1" fill="#000f04" /><rect x="4" y="6" width="1" height="1" fill="#000800" /><rect x="4" y="7" width="1" height="1" fill="#29422c" /><rect x="4" y="8" width="1" height="1" fill="#22422a" /><rect x="4" y="9" width="1" height="1" fill="#000c00" /><rect x="5" y="0" width="1" height="1" fill="#9da7cb" /><rect x="5" y="1" width="1" height="1" fill="#56667d" /><rect x="5" y="2" width="1" height="1" fill="#00131b" /><rect x="5" y="3" width="1" height="1" fill="#000a04" /><rect x="5" y="4" width="1" height="1" fill="#001100" /><rect x="5" y="5" width="1" height="1" fill="#305d3c" /><rect x="5" y="6" width="1" height="1" fill="#76a67e" /><rect x="5" y="7" width="1" height="1" fill="#92ca9d" /><rect x="5" y="8" width="1" height="1" fill="#8ecba1" /><rect x="5" y="9" width="1" height="1" fill="#70ad84" /><rect x="6" y="0" width="1" height="1" fill="#212f3c" /><rect x="6" y="1" width="1" height="1" fill="#000a09" /><rect x="6" y="2" width="1" height="1" fill="#000e00" /><rect x="6" y="3" width="1" height="1" fill="#437655" /><rect x="6" y="4" width="1" height="1" fill="#78b788" /><rect x="6" y="5" width="1" height="1" fill="#8cd699" /><rect x="6" y="6" width="1" height="1" fill="#9ceda8" /><rect x="6" y="7" width="1" height="1" fill="#94e7a3" /><rect x="6" y="8" width="1" height="1" fill="#9cf0b4" /><rect x="6" y="9" width="1" height="1" fill="#96e6b1" /><rect x="7" y="0" width="1" height="1" fill="#000b04" /><rect x="7" y="1" width="1" height="1" fill="#345743" /><rect x="7" y="2" width="1" height="1" fill="#72a682" /><rect x="7" y="3" width="1" height="1" fill="#93d7a4" /><rect x="7" y="4" width="1" height="1" fill="#95e7a5" /><rect x="7" y="5" width="1" height="1" fill="#8deb9d" /><rect x="7" y="6" width="1" height="1" fill="#7fe792" /><rect x="7" y="7" width="1" height="1" fill="#83ea97" /><rect x="7" y="8" width="1" height="1" fill="#7bdc95" /><rect x="7" y="9" width="1" height="1" fill="#89e8a8" /><rect x="8" y="0" width="1" height="1" fill="#6b8b74" /><rect x="8" y="1" width="1" height="1" fill="#9fceac" /><rect x="8" y="2" width="1" height="1" fill="#b2f1c2" /><rect x="8" y="3" width="1" height="1" fill="#92e4a6" /><rect x="8" y="4" width="1" height="1" fill="#83e39b" /><rect x="8" y="5" width="1" height="1" fill="#7ce996" /><rect x="8" y="6" width="1" height="1" fill="#79f096" /><rect x="8" y="7" width="1" height="1" fill="#7cf199" /><rect x="8" y="8" width="1" height="1" fill="#7ae499" /><rect x="8" y="9" width="1" height="1" fill="#88eda7" /><rect x="9" y="0" width="1" height="1" fill="#677d66" /><rect x="9" y="1" width="1" height="1" fill="#739877" /><rect x="9" y="2" width="1" height="1" fill="#71a67a" /><rect x="9" y="3" width="1" height="1" fill="#81c690" /><rect x="9" y="4" width="1" height="1" fill="#97ebad" /><rect x="9" y="5" width="1" height="1" fill="#85e59e" /><rect x="9" y="6" width="1" height="1" fill="#8bf3a8" /><rect x="9" y="7" width="1" height="1" fill="#76e296" /><rect x="9" y="8" width="1" height="1" fill="#83eda2" /><rect x="9" y="9" width="1" height="1" fill="#85efa5" /></g></svg>