<svg width="800" height="1000" xmlns="http://www.w3.org/2000/svg"><defs><linearGradient id="g" x1="0" x2="1" y1="0" y2="1"><stop offset="0%" stop-color="#2d3c96"/><stop offset="100%" stop-color="#d53392"/></linearGradient></defs><rect x="10" y="10" width="780" height="980" fill="url(#g)" rx="50" ry="50" stroke="gold" stroke-width="20"/><text x="400" y="920" width="780" text-anchor="middle" style="font:bold 200px 'Helvetica Neue';fill:gold">05730</text><g transform="translate(80 80) scale(64)"><rect x="0" y="0" width="1" height="1" fill="#edaacd" /><rect x="0" y="1" width="1" height="1" fill="#edaacd" /><rect x="0" y="2" width="1" height="1" fill="#edaacd" /><rect x="0" y="3" width="1" height="1" fill="#edaacd" /><rect x="0" y="4" width="1" height="1" fill="#edaacd" /><rect x="0" y="5" width="1" height="1" fill="#edaacd" /><rect x="0" y="6" width="1" height="1" fill="#ecabcd" /><rect x="0" y="7" width="1" height="1" fill="#ecabcd" /><rect x="0" y="8" width="1" height="1" fill="#ecabcd" /><rect x="0" y="9" width="1" height="1" fill="#ecabcd" /><rect x="1" y="0" width="1" height="1" fill="#f4a9ca" /><rect x="1" y="1" width="1" height="1" fill="#f4a9ca" /><rect x="1" y="2" width="1" height="1" fill="#f4a9ca" /><rect x="1" y="3" width="1" height="1" fill="#f4a9ca" /><rect x="1" y="4" width="1" height="1" fill="#f4a9ca" /><rect x="1" y="5" width="1" height="1" fill="#f3a9ca" /><rect x="1" y="6" width="1" height="1" fill="#f3aac8" /><rect x="1" y="7" width="1" height="1" fill="#f1aac8" /><rect x="1" y="8" width="1" height="1" fill="#f1aac8" /><rect x="1" y="9" width="1" height="1" fill="#f1aac8" /><rect x="2" y="0" width="1" height="1" fill="#f9a8c9" /><rect x="2" y="1" width="1" height="1" fill="#f9a8c9" /><rect x="2" y="2" width="1" height="1" fill="#f9a8c8" /><rect x="2" y="3" width="1" height="1" fill="#f9a8c8" /><rect x="2" y="4" width="1" height="1" fill="#f9a9c6" /><rect x="2" y="5" width="1" height="1" fill="#f8a9c6" /><rect x="2" y="6" width="1" height="1" fill="#f8a9c6" /><rect x="2" y="7" width="1" height="1" fill="#f8a9c6" /><rect x="2" y="8" width="1" height="1" fill="#f8aac4" /><rect x="2" y="9" width="1" height="1" fill="#f8aac4" /><rect x="3" y="0" width="1" height="1" fill="#fca9c7" /><rect x="3" y="1" width="1" height="1" fill="#fca9c7" /><rect x="3" y="2" width="1" height="1" fill="#fca9c5" /><rect x="3" y="3" width="1" height="1" fill="#fca9c5" /><rect x="3" y="4" width="1" height="1" fill="#fca9c5" /><rect x="3" y="5" width="1" height="1" fill="#fca9c3" /><rect x="3" y="6" width="1" height="1" fill="#fca9c3" /><rect x="3" y="7" width="1" height="1" fill="#fca9c3" /><rect x="3" y="8" width="1" height="1" fill="#faaac3" /><rect x="3" y="9" width="1" height="1" fill="#faabc1" /><rect x="4" y="0" width="1" height="1" fill="#ffb2c8" /><rect x="4" y="1" width="1" height="1" fill="#efa1b7" /><rect x="4" y="2" width="1" height="1" fill="#fbabc4" /><rect x="4" y="3" width="1" height="1" fill="#faaac3" /><rect x="4" y="4" width="1" height="1" fill="#ffaec8" /><rect x="4" y="5" width="1" height="1" fill="#f7a4be" /><rect x="4" y="6" width="1" height="1" fill="#fca8c2" /><rect x="4" y="7" width="1" height="1" fill="#feaac2" /><rect x="4" y="8" width="1" height="1" fill="#ffafc5" /><rect x="4" y="9" width="1" height="1" fill="#f7a8bb" /><rect x="5" y="0" width="1" height="1" fill="#f3b5c2" /><rect x="5" y="1" width="1" height="1" fill="#fcbccc" /><rect x="5" y="2" width="1" height="1" fill="#ffc3d4" /><rect x="5" y="3" width="1" height="1" fill="#eea9bb" /><rect x="5" y="4" width="1" height="1" fill="#f5acbf" /><rect x="5" y="5" width="1" height="1" fill="#fdb2c6" /><rect x="5" y="6" width="1" height="1" fill="#ffb7cc" /><rect x="5" y="7" width="1" height="1" fill="#f8a9be" /><rect x="5" y="8" width="1" height="1" fill="#f8abbd" /><rect x="5" y="9" width="1" height="1" fill="#fcafbf" /><rect x="6" y="0" width="1" height="1" fill="#896265" /><rect x="6" y="1" width="1" height="1" fill="#9d747a" /><rect x="6" y="2" width="1" height="1" fill="#c3989f" /><rect x="6" y="3" width="1" height="1" fill="#e0aeb7" /><rect x="6" y="4" width="1" height="1" fill="#fbc3ce" /><rect x="6" y="5" width="1" height="1" fill="#f1b3c2" /><rect x="6" y="6" width="1" height="1" fill="#f5b2c3" /><rect x="6" y="7" width="1" height="1" fill="#f9b5c4" /><rect x="6" y="8" width="1" height="1" fill="#fbb4c2" /><rect x="6" y="9" width="1" height="1" fill="#ffb8c4" /><rect x="7" y="0" width="1" height="1" fill="#150000" /><rect x="7" y="1" width="1" height="1" fill="#150000" /><rect x="7" y="2" width="1" height="1" fill="#1f0000" /><rect x="7" y="3" width="1" height="1" fill="#4b2727" /><rect x="7" y="4" width="1" height="1" fill="#9d7478" /><rect x="7" y="5" width="1" height="1" fill="#cc9fa4" /><rect x="7" y="6" width="1" height="1" fill="#efbec4" /><rect x="7" y="7" width="1" height="1" fill="#f9c4cc" /><rect x="7" y="8" width="1" height="1" fill="#f1b5bd" /><rect x="7" y="9" width="1" height="1" fill="#f0b1b9" /><rect x="8" y="0" width="1" height="1" fill="#ad8a84" /><rect x="8" y="1" width="1" height="1" fill="#83625b" /><rect x="8" y="2" width="1" height="1" fill="#452822" /><rect x="8" y="3" width="1" height="1" fill="#1a0000" /><rect x="8" y="4" width="1" height="1" fill="#150000" /><rect x="8" y="5" width="1" height="1" fill="#230703" /><rect x="8" y="6" width="1" height="1" fill="#7d615d" /><rect x="8" y="7" width="1" height="1" fill="#cba9a7" /><rect x="8" y="8" width="1" height="1" fill="#fbcdcd" /><rect x="8" y="9" width="1" height="1" fill="#f9c3c3" /><rect x="9" y="0" width="1" height="1" fill="#fbccc4" /><rect x="9" y="1" width="1" height="1" fill="#eac2ba" /><rect x="9" y="2" width="1" height="1" fill="#ddb8af" /><rect x="9" y="3" width="1" height="1" fill="#bfa197" /><rect x="9" y="4" width="1" height="1" fill="#74594e" /><rect x="9" y="5" width="1" height="1" fill="#110000" /><rect x="9" y="6" width="1" height="1" fill="#0e0000" /><rect x="9" y="7" width="1" height="1" fill="#200800" /><rect x="9" y="8" width="1" height="1" fill="#a58078" /><rect x="9" y="9" width="1" height="1" fill="#eabdb8" /></g></svg>