<svg width="800" height="1000" xmlns="http://www.w3.org/2000/svg"><defs><linearGradient id="g" x1="0" x2="1" y1="0" y2="1"><stop offset="0%" stop-color="#2d3c96"/><stop offset="100%" stop-color="#d53392"/></linearGradient></defs><rect x="10" y="10" width="780" height="980" fill="url(#g)" rx="50" ry="50" stroke="gold" stroke-width="20"/><text x="400" y="920" width="780" text-anchor="middle" style="font:bold 200px 'Helvetica Neue';fill:gold">05735</text><g transform="translate(80 80) scale(64)"><rect x="0" y="0" width="1" height="1" fill="#060000" /><rect x="0" y="1" width="1" height="1" fill="#010500" /><rect x="0" y="2" width="1" height="1" fill="#000800" /><rect x="0" y="3" width="1" height="1" fill="#001200" /><rect x="0" y="4" width="1" height="1" fill="#3d6b47" /><rect x="0" y="5" width="1" height="1" fill="#6aa179" /><rect x="0" y="6" width="1" height="1" fill="#94d3a6" /><rect x="0" y="7" width="1" height="1" fill="#96e3ad" /><rect x="0" y="8" width="1" height="1" fill="#88e9a4" /><rect x="0" y="9" width="1" height="1" fill="#7bea9e" /><rect x="1" y="0" width="1" height="1" fill="#a88c80" /><rect x="1" y="1" width="1" height="1" fill="#918070" /><rect x="1" y="2" width="1" height="1" fill="#625b48" /><rect x="1" y="3" width="1" height="1" fill="#000400" /><rect x="1" y="4" width="1" height="1" fill="#000a00" /><rect x="1" y="5" width="1" height="1" fill="#000d00" /><rect x="1" y="6" width="1" height="1" fill="#1a3516" /><rect x="1" y="7" width="1" height="1" fill="#7eab84" /><rect x="1" y="8" width="1" height="1" fill="#8edca2" /><rect x="1" y="9" width="1" height="1" fill="#85e6a3" /><rect x="2" y="0" width="1" height="1" fill="#fdd7b3" /><rect x="2" y="1" width="1" height="1" fill="#edcca9" /><rect x="2" y="2" width="1" height="1" fill="#e6cca9" /><rect x="2" y="3" width="1" height="1" fill="#d1bd9c" /><rect x="2" y="4" width="1" height="1" fill="#a99c7c" /><rect x="2" y="5" width="1" height="1" fill="#595031" /><rect x="2" y="6" width="1" height="1" fill="#070400" /><rect x="2" y="7" width="1" height="1" fill="#000800" /><rect x="2" y="8" width="1" height="1" fill="#588157" /><rect x="2" y="9" width="1" height="1" fill="#a7ebba" /><rect x="3" y="0" width="1" height="1" fill="#fbd6a1" /><rect x="3" y="1" width="1" height="1" fill="#f9d8a3" /><rect x="3" y="2" width="1" height="1" fill="#f7d9a7" /><rect x="3" y="3" width="1" height="1" fill="#f2d7a8" /><rect x="3" y="4" width="1" height="1" fill="#f3dcb2" /><rect x="3" y="5" width="1" height="1" fill="#eedbb1" /><rect x="3" y="6" width="1" height="1" fill="#998761" /><rect x="3" y="7" width="1" height="1" fill="#0b0700" /><rect x="3" y="8" width="1" height="1" fill="#091c00" /><rect x="3" y="9" width="1" height="1" fill="#72a27c" /><rect x="4" y="0" width="1" height="1" fill="#f8e19d" /><rect x="4" y="1" width="1" height="1" fill="#fbe6a3" /><rect x="4" y="2" width="1" height="1" fill="#fae7a5" /><rect x="4" y="3" width="1" height="1" fill="#f5e3a5" /><rect x="4" y="4" width="1" height="1" fill="#e5d59a" /><rect x="4" y="5" width="1" height="1" fill="#f9eab3" /><rect x="4" y="6" width="1" height="1" fill="#f3e6b1" /><rect x="4" y="7" width="1" height="1" fill="#928e5f" /><rect x="4" y="8" width="1" height="1" fill="#000700" /><rect x="4" y="9" width="1" height="1" fill="#254d2b" /><rect x="5" y="0" width="1" height="1" fill="#f4f1a0" /><rect x="5" y="1" width="1" height="1" fill="#e9e898" /><rect x="5" y="2" width="1" height="1" fill="#e4e597" /><rect x="5" y="3" width="1" height="1" fill="#f2f2a8" /><rect x="5" y="4" width="1" height="1" fill="#eeeea8" /><rect x="5" y="5" width="1" height="1" fill="#e9e8a5" /><rect x="5" y="6" width="1" height="1" fill="#eeefad" /><rect x="5" y="7" width="1" height="1" fill="#d9dca5" /><rect x="5" y="8" width="1" height="1" fill="#3c4624" /><rect x="5" y="9" width="1" height="1" fill="#001100" /><rect x="6" y="0" width="1" height="1" fill="#d6ed95" /><rect x="6" y="1" width="1" height="1" fill="#d8ee99" /><rect x="6" y="2" width="1" height="1" fill="#e1f9a5" /><rect x="6" y="3" width="1" height="1" fill="#d8ef9d" /><rect x="6" y="4" width="1" height="1" fill="#d3ec9b" /><rect x="6" y="5" width="1" height="1" fill="#d4ec9e" /><rect x="6" y="6" width="1" height="1" fill="#cfea9b" /><rect x="6" y="7" width="1" height="1" fill="#dcf2b2" /><rect x="6" y="8" width="1" height="1" fill="#8a9575" /><rect x="6" y="9" width="1" height="1" fill="#000a00" /><rect x="7" y="0" width="1" height="1" fill="#c0eb92" /><rect x="7" y="1" width="1" height="1" fill="#b7e289" /><rect x="7" y="2" width="1" height="1" fill="#c5f19a" /><rect x="7" y="3" width="1" height="1" fill="#bde992" /><rect x="7" y="4" width="1" height="1" fill="#bae792" /><rect x="7" y="5" width="1" height="1" fill="#c5f59f" /><rect x="7" y="6" width="1" height="1" fill="#b9eb96" /><rect x="7" y="7" width="1" height="1" fill="#bee7a3" /><rect x="7" y="8" width="1" height="1" fill="#9bae8e" /><rect x="7" y="9" width="1" height="1" fill="#000a00" /><rect x="8" y="0" width="1" height="1" fill="#b8ef9c" /><rect x="8" y="1" width="1" height="1" fill="#a8e28e" /><rect x="8" y="2" width="1" height="1" fill="#a9e490" /><rect x="8" y="3" width="1" height="1" fill="#acea95" /><rect x="8" y="4" width="1" height="1" fill="#abeb95" /><rect x="8" y="5" width="1" height="1" fill="#a8ec95" /><rect x="8" y="6" width="1" height="1" fill="#a8ee96" /><rect x="8" y="7" width="1" height="1" fill="#b5eea9" /><rect x="8" y="8" width="1" height="1" fill="#89a886" /><rect x="8" y="9" width="1" height="1" fill="#000e00" /><rect x="9" y="0" width="1" height="1" fill="#91e091" /><rect x="9" y="1" width="1" height="1" fill="#a3f0a2" /><rect x="9" y="2" width="1" height="1" fill="#95e495" /><rect x="9" y="3" width="1" height="1" fill="#95e795" /><rect x="9" y="4" width="1" height="1" fill="#99ec9a" /><rect x="9" y="5" width="1" height="1" fill="#8ee28d" /><rect x="9" y="6" width="1" height="1" fill="#93e893" /><rect x="9" y="7" width="1" height="1" fill="#9ce5a0" /><rect x="9" y="8" width="1" height="1" fill="#77a07e" /><rect x="9" y="9" width="1" height="1" fill="#000d00" /></g></svg>