<svg width="800" height="1000" xmlns="http://www.w3.org/2000/svg"><defs><linearGradient id="g" x1="0" x2="1" y1="0" y2="1"><stop offset="0%" stop-color="#2d3c96"/><stop offset="100%" stop-color="#d53392"/></linearGradient></defs><rect x="10" y="10" width="780" height="980" fill="url(#g)" rx="50" ry="50" stroke="gold" stroke-width="20"/><text x="400" y="920" width="780" text-anchor="middle" style="font:bold 200px 'Helvetica Neue';fill:gold">05736</text><g transform="translate(80 80) scale(64)"><rect x="0" y="0" width="1" height="1" fill="#84eea6" /><rect x="0" y="1" width="1" height="1" fill="#7fe69f" /><rect x="0" y="2" width="1" height="1" fill="#89efa6" /><rect x="0" y="3" width="1" height="1" fill="#77db93" /><rect x="0" y="4" width="1" height="1" fill="#88ea9f" /><rect x="0" y="5" width="1" height="1" fill="#8defa4" /><rect x="0" y="6" width="1" height="1" fill="#86e79a" /><rect x="0" y="7" width="1" height="1" fill="#91e3a5" /><rect x="0" y="8" width="1" height="1" fill="#477a5b" /><rect x="0" y="9" width="1" height="1" fill="#000f00" /><rect x="1" y="0" width="1" height="1" fill="#75eeb8" /><rect x="1" y="1" width="1" height="1" fill="#6ce1ac" /><rect x="1" y="2" width="1" height="1" fill="#7deeb8" /><rect x="1" y="3" width="1" height="1" fill="#84efb9" /><rect x="1" y="4" width="1" height="1" fill="#87ecb4" /><rect x="1" y="5" width="1" height="1" fill="#81e0a8" /><rect x="1" y="6" width="1" height="1" fill="#88e5ae" /><rect x="1" y="7" width="1" height="1" fill="#7cc99b" /><rect x="1" y="8" width="1" height="1" fill="#001400" /><rect x="1" y="9" width="1" height="1" fill="#001100" /><rect x="2" y="0" width="1" height="1" fill="#76eed5" /><rect x="2" y="1" width="1" height="1" fill="#73e8ce" /><rect x="2" y="2" width="1" height="1" fill="#79e5cd" /><rect x="2" y="3" width="1" height="1" fill="#7cdec7" /><rect x="2" y="4" width="1" height="1" fill="#86dbc4" /><rect x="2" y="5" width="1" height="1" fill="#91dfc9" /><rect x="2" y="6" width="1" height="1" fill="#90d8c0" /><rect x="2" y="7" width="1" height="1" fill="#3f7d68" /><rect x="2" y="8" width="1" height="1" fill="#001100" /><rect x="2" y="9" width="1" height="1" fill="#3e735f" /><rect x="3" y="0" width="1" height="1" fill="#7adede" /><rect x="3" y="1" width="1" height="1" fill="#7cdcdb" /><rect x="3" y="2" width="1" height="1" fill="#84dadb" /><rect x="3" y="3" width="1" height="1" fill="#86d2d2" /><rect x="3" y="4" width="1" height="1" fill="#97d9d8" /><rect x="3" y="5" width="1" height="1" fill="#8bc3c4" /><rect x="3" y="6" width="1" height="1" fill="#4d7f7e" /><rect x="3" y="7" width="1" height="1" fill="#000f09" /><rect x="3" y="8" width="1" height="1" fill="#001205" /><rect x="3" y="9" width="1" height="1" fill="#7bb09c" /><rect x="4" y="0" width="1" height="1" fill="#82bcd2" /><rect x="4" y="1" width="1" height="1" fill="#84bdd1" /><rect x="4" y="2" width="1" height="1" fill="#8fc2d7" /><rect x="4" y="3" width="1" height="1" fill="#79a6b9" /><rect x="4" y="4" width="1" height="1" fill="#64899b" /><rect x="4" y="5" width="1" height="1" fill="#214150" /><rect x="4" y="6" width="1" height="1" fill="#000916" /><rect x="4" y="7" width="1" height="1" fill="#000a0f" /><rect x="4" y="8" width="1" height="1" fill="#6e998f" /><rect x="4" y="9" width="1" height="1" fill="#a8ddcb" /><rect x="5" y="0" width="1" height="1" fill="#577b91" /><rect x="5" y="1" width="1" height="1" fill="#43677d" /><rect x="5" y="2" width="1" height="1" fill="#224558" /><rect x="5" y="3" width="1" height="1" fill="#000917" /><rect x="5" y="4" width="1" height="1" fill="#000913" /><rect x="5" y="5" width="1" height="1" fill="#000d14" /><rect x="5" y="6" width="1" height="1" fill="#1d3c3f" /><rect x="5" y="7" width="1" height="1" fill="#7a9e9c" /><rect x="5" y="8" width="1" height="1" fill="#9ecec2" /><rect x="5" y="9" width="1" height="1" fill="#acdfce" /><rect x="6" y="0" width="1" height="1" fill="#00090c" /><rect x="6" y="1" width="1" height="1" fill="#000a0b" /><rect x="6" y="2" width="1" height="1" fill="#00140e" /><rect x="6" y="3" width="1" height="1" fill="#00261b" /><rect x="6" y="4" width="1" height="1" fill="#3e7361" /><rect x="6" y="5" width="1" height="1" fill="#6eaa91" /><rect x="6" y="6" width="1" height="1" fill="#8acdae" /><rect x="6" y="7" width="1" height="1" fill="#9de0c1" /><rect x="6" y="8" width="1" height="1" fill="#9cdac3" /><rect x="6" y="9" width="1" height="1" fill="#c2f2e2" /><rect x="7" y="0" width="1" height="1" fill="#6c9b8b" /><rect x="7" y="1" width="1" height="1" fill="#6da08d" /><rect x="7" y="2" width="1" height="1" fill="#74b097" /><rect x="7" y="3" width="1" height="1" fill="#87c9ad" /><rect x="7" y="4" width="1" height="1" fill="#97debe" /><rect x="7" y="5" width="1" height="1" fill="#8bd7b1" /><rect x="7" y="6" width="1" height="1" fill="#9be9bf" /><rect x="7" y="7" width="1" height="1" fill="#91d9b4" /><rect x="7" y="8" width="1" height="1" fill="#bff6df" /><rect x="7" y="9" width="1" height="1" fill="#e3fffb" /><rect x="8" y="0" width="1" height="1" fill="#8de1bf" /><rect x="8" y="1" width="1" height="1" fill="#95ecc9" /><rect x="8" y="2" width="1" height="1" fill="#8de8c5" /><rect x="8" y="3" width="1" height="1" fill="#86e1be" /><rect x="8" y="4" width="1" height="1" fill="#8ae1bf" /><rect x="8" y="5" width="1" height="1" fill="#8ad9ba" /><rect x="8" y="6" width="1" height="1" fill="#9bddc2" /><rect x="8" y="7" width="1" height="1" fill="#c0f1dc" /><rect x="8" y="8" width="1" height="1" fill="#ebfffb" /><rect x="8" y="9" width="1" height="1" fill="#f5fffd" /><rect x="9" y="0" width="1" height="1" fill="#82ecbe" /><rect x="9" y="1" width="1" height="1" fill="#75e0b6" /><rect x="9" y="2" width="1" height="1" fill="#7ce6be" /><rect x="9" y="3" width="1" height="1" fill="#8aeeca" /><rect x="9" y="4" width="1" height="1" fill="#89dfc2" /><rect x="9" y="5" width="1" height="1" fill="#91d7bf" /><rect x="9" y="6" width="1" height="1" fill="#bbeedd" /><rect x="9" y="7" width="1" height="1" fill="#e9fffe" /><rect x="9" y="8" width="1" height="1" fill="#f6fffd" /><rect x="9" y="9" width="1" height="1" fill="#fdfdfd" /></g></svg>