<svg width="800" height="1000" xmlns="http://www.w3.org/2000/svg"><defs><linearGradient id="g" x1="0" x2="1" y1="0" y2="1"><stop offset="0%" stop-color="#2d3c96"/><stop offset="100%" stop-color="#d53392"/></linearGradient></defs><rect x="10" y="10" width="780" height="980" fill="url(#g)" rx="50" ry="50" stroke="gold" stroke-width="20"/><text x="400" y="920" width="780" text-anchor="middle" style="font:bold 200px 'Helvetica Neue';fill:gold">05828</text><g transform="translate(80 80) scale(64)"><rect x="0" y="0" width="1" height="1" fill="#9aadfa" /><rect x="0" y="1" width="1" height="1" fill="#98aef7" /><rect x="0" y="2" width="1" height="1" fill="#95b0f3" /><rect x="0" y="3" width="1" height="1" fill="#94b2f2" /><rect x="0" y="4" width="1" height="1" fill="#93b2f2" /><rect x="0" y="5" width="1" height="1" fill="#93b2f3" /><rect x="0" y="6" width="1" height="1" fill="#93b2f5" /><rect x="0" y="7" width="1" height="1" fill="#93b1f9" /><rect x="0" y="8" width="1" height="1" fill="#94b0fa" /><rect x="0" y="9" width="1" height="1" fill="#97aefc" /><rect x="1" y="0" width="1" height="1" fill="#9cadfd" /><rect x="1" y="1" width="1" height="1" fill="#9baefa" /><rect x="1" y="2" width="1" height="1" fill="#99b0f6" /><rect x="1" y="3" width="1" height="1" fill="#98b1f3" /><rect x="1" y="4" width="1" height="1" fill="#98b1f1" /><rect x="1" y="5" width="1" height="1" fill="#98b1f1" /><rect x="1" y="6" width="1" height="1" fill="#98b1f1" /><rect x="1" y="7" width="1" height="1" fill="#98b1f3" /><rect x="1" y="8" width="1" height="1" fill="#99b0f6" /><rect x="1" y="9" width="1" height="1" fill="#9baff8" /><rect x="2" y="0" width="1" height="1" fill="#9fadf8" /><rect x="2" y="1" width="1" height="1" fill="#9fadf6" /><rect x="2" y="2" width="1" height="1" fill="#9daef4" /><rect x="2" y="3" width="1" height="1" fill="#9caff4" /><rect x="2" y="4" width="1" height="1" fill="#9caff3" /><rect x="2" y="5" width="1" height="1" fill="#9caff1" /><rect x="2" y="6" width="1" height="1" fill="#9caff1" /><rect x="2" y="7" width="1" height="1" fill="#9daef3" /><rect x="2" y="8" width="1" height="1" fill="#9daef3" /><rect x="2" y="9" width="1" height="1" fill="#9faef3" /><rect x="3" y="0" width="1" height="1" fill="#a2aff5" /><rect x="3" y="1" width="1" height="1" fill="#a2aff5" /><rect x="3" y="2" width="1" height="1" fill="#a2aef6" /><rect x="3" y="3" width="1" height="1" fill="#a2aef6" /><rect x="3" y="4" width="1" height="1" fill="#a2aef6" /><rect x="3" y="5" width="1" height="1" fill="#a2aff5" /><rect x="3" y="6" width="1" height="1" fill="#a2aff5" /><rect x="3" y="7" width="1" height="1" fill="#a2aff5" /><rect x="3" y="8" width="1" height="1" fill="#a2aff3" /><rect x="3" y="9" width="1" height="1" fill="#a4aef3" /><rect x="4" y="0" width="1" height="1" fill="#a6aff2" /><rect x="4" y="1" width="1" height="1" fill="#a5aff6" /><rect x="4" y="2" width="1" height="1" fill="#a5aff7" /><rect x="4" y="3" width="1" height="1" fill="#a5aef9" /><rect x="4" y="4" width="1" height="1" fill="#a5aef9" /><rect x="4" y="5" width="1" height="1" fill="#a5aef9" /><rect x="4" y="6" width="1" height="1" fill="#a5aef9" /><rect x="4" y="7" width="1" height="1" fill="#a5aff7" /><rect x="4" y="8" width="1" height="1" fill="#a5aff6" /><rect x="4" y="9" width="1" height="1" fill="#a6aff4" /><rect x="5" y="0" width="1" height="1" fill="#a7b0f3" /><rect x="5" y="1" width="1" height="1" fill="#a7b0f5" /><rect x="5" y="2" width="1" height="1" fill="#a7aff8" /><rect x="5" y="3" width="1" height="1" fill="#a7affa" /><rect x="5" y="4" width="1" height="1" fill="#a7aefc" /><rect x="5" y="5" width="1" height="1" fill="#a7affa" /><rect x="5" y="6" width="1" height="1" fill="#a7affa" /><rect x="5" y="7" width="1" height="1" fill="#a7aff8" /><rect x="5" y="8" width="1" height="1" fill="#a7aff7" /><rect x="5" y="9" width="1" height="1" fill="#a7b0f5" /><rect x="6" y="0" width="1" height="1" fill="#a8b1f6" /><rect x="6" y="1" width="1" height="1" fill="#a8b0f8" /><rect x="6" y="2" width="1" height="1" fill="#a8b0f9" /><rect x="6" y="3" width="1" height="1" fill="#a8b0fb" /><rect x="6" y="4" width="1" height="1" fill="#a8b0fb" /><rect x="6" y="5" width="1" height="1" fill="#a8b0fb" /><rect x="6" y="6" width="1" height="1" fill="#a8b0f9" /><rect x="6" y="7" width="1" height="1" fill="#a8b0f8" /><rect x="6" y="8" width="1" height="1" fill="#a7b1f6" /><rect x="6" y="9" width="1" height="1" fill="#a7b1f6" /><rect x="7" y="0" width="1" height="1" fill="#abb0f4" /><rect x="7" y="1" width="1" height="1" fill="#abaff6" /><rect x="7" y="2" width="1" height="1" fill="#abaff8" /><rect x="7" y="3" width="1" height="1" fill="#abaff8" /><rect x="7" y="4" width="1" height="1" fill="#abaff8" /><rect x="7" y="5" width="1" height="1" fill="#abaff8" /><rect x="7" y="6" width="1" height="1" fill="#abaff6" /><rect x="7" y="7" width="1" height="1" fill="#abaff6" /><rect x="7" y="8" width="1" height="1" fill="#a9b0f4" /><rect x="7" y="9" width="1" height="1" fill="#a9b0f6" /><rect x="8" y="0" width="1" height="1" fill="#b2b1f5" /><rect x="8" y="1" width="1" height="1" fill="#b2b1f5" /><rect x="8" y="2" width="1" height="1" fill="#b2b1f5" /><rect x="8" y="3" width="1" height="1" fill="#b2b1f7" /><rect x="8" y="4" width="1" height="1" fill="#b2b1f7" /><rect x="8" y="5" width="1" height="1" fill="#b2b1f5" /><rect x="8" y="6" width="1" height="1" fill="#b2b1f5" /><rect x="8" y="7" width="1" height="1" fill="#b2b1f5" /><rect x="8" y="8" width="1" height="1" fill="#b2b1f5" /><rect x="8" y="9" width="1" height="1" fill="#b2b1f5" /><rect x="9" y="0" width="1" height="1" fill="#b6aff2" /><rect x="9" y="1" width="1" height="1" fill="#b6aff2" /><rect x="9" y="2" width="1" height="1" fill="#b6aff2" /><rect x="9" y="3" width="1" height="1" fill="#b6aff2" /><rect x="9" y="4" width="1" height="1" fill="#b6aff2" /><rect x="9" y="5" width="1" height="1" fill="#b6aff2" /><rect x="9" y="6" width="1" height="1" fill="#b6aff2" /><rect x="9" y="7" width="1" height="1" fill="#b6aff2" /><rect x="9" y="8" width="1" height="1" fill="#b6aff2" /><rect x="9" y="9" width="1" height="1" fill="#b6aff2" /></g></svg>