<svg width="800" height="1000" xmlns="http://www.w3.org/2000/svg"><defs><linearGradient id="g" x1="0" x2="1" y1="0" y2="1"><stop offset="0%" stop-color="#2d3c96"/><stop offset="100%" stop-color="#d53392"/></linearGradient></defs><rect x="10" y="10" width="780" height="980" fill="url(#g)" rx="50" ry="50" stroke="gold" stroke-width="20"/><text x="400" y="920" width="780" text-anchor="middle" style="font:bold 200px 'Helvetica Neue';fill:gold">05833</text><g transform="translate(80 80) scale(64)"><rect x="0" y="0" width="1" height="1" fill="#aef086" /><rect x="0" y="1" width="1" height="1" fill="#aff386" /><rect x="0" y="2" width="1" height="1" fill="#aff386" /><rect x="0" y="3" width="1" height="1" fill="#aef188" /><rect x="0" y="4" width="1" height="1" fill="#adef8b" /><rect x="0" y="5" width="1" height="1" fill="#aced8f" /><rect x="0" y="6" width="1" height="1" fill="#aeed94" /><rect x="0" y="7" width="1" height="1" fill="#aeec97" /><rect x="0" y="8" width="1" height="1" fill="#b0eb99" /><rect x="0" y="9" width="1" height="1" fill="#b1eb97" /><rect x="1" y="0" width="1" height="1" fill="#aaee87" /><rect x="1" y="1" width="1" height="1" fill="#a9ed86" /><rect x="1" y="2" width="1" height="1" fill="#a6ed85" /><rect x="1" y="3" width="1" height="1" fill="#a6ed85" /><rect x="1" y="4" width="1" height="1" fill="#a6ee88" /><rect x="1" y="5" width="1" height="1" fill="#a6ee8b" /><rect x="1" y="6" width="1" height="1" fill="#a8ee8e" /><rect x="1" y="7" width="1" height="1" fill="#a8ed90" /><rect x="1" y="8" width="1" height="1" fill="#aaed90" /><rect x="1" y="9" width="1" height="1" fill="#aaed8e" /><rect x="2" y="0" width="1" height="1" fill="#aaea96" /><rect x="2" y="1" width="1" height="1" fill="#a8e995" /><rect x="2" y="2" width="1" height="1" fill="#a6eb92" /><rect x="2" y="3" width="1" height="1" fill="#a5ec90" /><rect x="2" y="4" width="1" height="1" fill="#a4ee8f" /><rect x="2" y="5" width="1" height="1" fill="#a4ee8d" /><rect x="2" y="6" width="1" height="1" fill="#a2ee8a" /><rect x="2" y="7" width="1" height="1" fill="#a2ef89" /><rect x="2" y="8" width="1" height="1" fill="#a2ef87" /><rect x="2" y="9" width="1" height="1" fill="#a2ef87" /><rect x="3" y="0" width="1" height="1" fill="#a7dfae" /><rect x="3" y="1" width="1" height="1" fill="#a9e4ae" /><rect x="3" y="2" width="1" height="1" fill="#aae7ab" /><rect x="3" y="3" width="1" height="1" fill="#a7eaa5" /><rect x="3" y="4" width="1" height="1" fill="#a3ea9c" /><rect x="3" y="5" width="1" height="1" fill="#a0eb96" /><rect x="3" y="6" width="1" height="1" fill="#9cec8d" /><rect x="3" y="7" width="1" height="1" fill="#9cec89" /><rect x="3" y="8" width="1" height="1" fill="#9bed87" /><rect x="3" y="9" width="1" height="1" fill="#99ee87" /><rect x="4" y="0" width="1" height="1" fill="#a0cdca" /><rect x="4" y="1" width="1" height="1" fill="#a1d3c8" /><rect x="4" y="2" width="1" height="1" fill="#a2d7c3" /><rect x="4" y="3" width="1" height="1" fill="#a0dcba" /><rect x="4" y="4" width="1" height="1" fill="#9cdeae" /><rect x="4" y="5" width="1" height="1" fill="#9ae2a3" /><rect x="4" y="6" width="1" height="1" fill="#98e69a" /><rect x="4" y="7" width="1" height="1" fill="#95e993" /><rect x="4" y="8" width="1" height="1" fill="#94ea91" /><rect x="4" y="9" width="1" height="1" fill="#92eb91" /><rect x="5" y="0" width="1" height="1" fill="#a0bbd6" /><rect x="5" y="1" width="1" height="1" fill="#9ebdd2" /><rect x="5" y="2" width="1" height="1" fill="#9ec0cc" /><rect x="5" y="3" width="1" height="1" fill="#9ec6c6" /><rect x="5" y="4" width="1" height="1" fill="#a0ccbf" /><rect x="5" y="5" width="1" height="1" fill="#a0d0b8" /><rect x="5" y="6" width="1" height="1" fill="#a2d9b2" /><rect x="5" y="7" width="1" height="1" fill="#a0dbad" /><rect x="5" y="8" width="1" height="1" fill="#9ddda9" /><rect x="5" y="9" width="1" height="1" fill="#9bdea9" /><rect x="6" y="0" width="1" height="1" fill="#b1b8e2" /><rect x="6" y="1" width="1" height="1" fill="#b0b5dd" /><rect x="6" y="2" width="1" height="1" fill="#b1b5da" /><rect x="6" y="3" width="1" height="1" fill="#b6badd" /><rect x="6" y="4" width="1" height="1" fill="#b7bad9" /><rect x="6" y="5" width="1" height="1" fill="#aeb2cd" /><rect x="6" y="6" width="1" height="1" fill="#b3b9cf" /><rect x="6" y="7" width="1" height="1" fill="#b0bccc" /><rect x="6" y="8" width="1" height="1" fill="#adbdca" /><rect x="6" y="9" width="1" height="1" fill="#adbfcb" /><rect x="7" y="0" width="1" height="1" fill="#c2b2e3" /><rect x="7" y="1" width="1" height="1" fill="#c2b0e2" /><rect x="7" y="2" width="1" height="1" fill="#c1afe1" /><rect x="7" y="3" width="1" height="1" fill="#c6b2e5" /><rect x="7" y="4" width="1" height="1" fill="#cab3e7" /><rect x="7" y="5" width="1" height="1" fill="#c6b0e1" /><rect x="7" y="6" width="1" height="1" fill="#c1adde" /><rect x="7" y="7" width="1" height="1" fill="#c1b0dd" /><rect x="7" y="8" width="1" height="1" fill="#c0b0dd" /><rect x="7" y="9" width="1" height="1" fill="#bdb2dc" /><rect x="8" y="0" width="1" height="1" fill="#d5ade1" /><rect x="8" y="1" width="1" height="1" fill="#d4aee1" /><rect x="8" y="2" width="1" height="1" fill="#d1acdf" /><rect x="8" y="3" width="1" height="1" fill="#cdabdd" /><rect x="8" y="4" width="1" height="1" fill="#ccacdd" /><rect x="8" y="5" width="1" height="1" fill="#cbaede" /><rect x="8" y="6" width="1" height="1" fill="#caaede" /><rect x="8" y="7" width="1" height="1" fill="#caafdc" /><rect x="8" y="8" width="1" height="1" fill="#c9afdc" /><rect x="8" y="9" width="1" height="1" fill="#c9b0da" /><rect x="9" y="0" width="1" height="1" fill="#dea4d7" /><rect x="9" y="1" width="1" height="1" fill="#dea8da" /><rect x="9" y="2" width="1" height="1" fill="#dfabdc" /><rect x="9" y="3" width="1" height="1" fill="#dbabdb" /><rect x="9" y="4" width="1" height="1" fill="#d9abda" /><rect x="9" y="5" width="1" height="1" fill="#daafdd" /><rect x="9" y="6" width="1" height="1" fill="#d9b0dc" /><rect x="9" y="7" width="1" height="1" fill="#d9b0dc" /><rect x="9" y="8" width="1" height="1" fill="#d9b0da" /><rect x="9" y="9" width="1" height="1" fill="#d8afd7" /></g></svg>