<svg width="800" height="1000" xmlns="http://www.w3.org/2000/svg"><defs><linearGradient id="g" x1="0" x2="1" y1="0" y2="1"><stop offset="0%" stop-color="#2d3c96"/><stop offset="100%" stop-color="#d53392"/></linearGradient></defs><rect x="10" y="10" width="780" height="980" fill="url(#g)" rx="50" ry="50" stroke="gold" stroke-width="20"/><text x="400" y="920" width="780" text-anchor="middle" style="font:bold 200px 'Helvetica Neue';fill:gold">05832</text><g transform="translate(80 80) scale(64)"><rect x="0" y="0" width="1" height="1" fill="#f4e89e" /><rect x="0" y="1" width="1" height="1" fill="#eadea2" /><rect x="0" y="2" width="1" height="1" fill="#a19467" /><rect x="0" y="3" width="1" height="1" fill="#0e0100" /><rect x="0" y="4" width="1" height="1" fill="#ab9e71" /><rect x="0" y="5" width="1" height="1" fill="#f7e8b1" /><rect x="0" y="6" width="1" height="1" fill="#fae9a3" /><rect x="0" y="7" width="1" height="1" fill="#fcea96" /><rect x="0" y="8" width="1" height="1" fill="#ffea8d" /><rect x="0" y="9" width="1" height="1" fill="#ffea8a" /><rect x="1" y="0" width="1" height="1" fill="#fef7b1" /><rect x="1" y="1" width="1" height="1" fill="#f4ebb2" /><rect x="1" y="2" width="1" height="1" fill="#5f5427" /><rect x="1" y="3" width="1" height="1" fill="#0f0200" /><rect x="1" y="4" width="1" height="1" fill="#beb282" /><rect x="1" y="5" width="1" height="1" fill="#f6eaae" /><rect x="1" y="6" width="1" height="1" fill="#f5e99d" /><rect x="1" y="7" width="1" height="1" fill="#f6eb91" /><rect x="1" y="8" width="1" height="1" fill="#f8ec88" /><rect x="1" y="9" width="1" height="1" fill="#f9ec86" /><rect x="2" y="0" width="1" height="1" fill="#f1eab6" /><rect x="2" y="1" width="1" height="1" fill="#b6ad82" /><rect x="2" y="2" width="1" height="1" fill="#0c0300" /><rect x="2" y="3" width="1" height="1" fill="#2d2400" /><rect x="2" y="4" width="1" height="1" fill="#d0c897" /><rect x="2" y="5" width="1" height="1" fill="#fcf6b8" /><rect x="2" y="6" width="1" height="1" fill="#efe99b" /><rect x="2" y="7" width="1" height="1" fill="#f0eb90" /><rect x="2" y="8" width="1" height="1" fill="#f0ec89" /><rect x="2" y="9" width="1" height="1" fill="#f1ec88" /><rect x="3" y="0" width="1" height="1" fill="#b8b187" /><rect x="3" y="1" width="1" height="1" fill="#3c340d" /><rect x="3" y="2" width="1" height="1" fill="#0a0200" /><rect x="3" y="3" width="1" height="1" fill="#9b9768" /><rect x="3" y="4" width="1" height="1" fill="#eeecb3" /><rect x="3" y="5" width="1" height="1" fill="#e4e59f" /><rect x="3" y="6" width="1" height="1" fill="#e8ea96" /><rect x="3" y="7" width="1" height="1" fill="#e8ec8d" /><rect x="3" y="8" width="1" height="1" fill="#e8ed87" /><rect x="3" y="9" width="1" height="1" fill="#eaec87" /><rect x="4" y="0" width="1" height="1" fill="#37330d" /><rect x="4" y="1" width="1" height="1" fill="#090800" /><rect x="4" y="2" width="1" height="1" fill="#595927" /><rect x="4" y="3" width="1" height="1" fill="#d8dca1" /><rect x="4" y="4" width="1" height="1" fill="#e4eca3" /><rect x="4" y="5" width="1" height="1" fill="#e2eb98" /><rect x="4" y="6" width="1" height="1" fill="#e0ee8f" /><rect x="4" y="7" width="1" height="1" fill="#e0ef88" /><rect x="4" y="8" width="1" height="1" fill="#e0ef86" /><rect x="4" y="9" width="1" height="1" fill="#e2ef86" /><rect x="5" y="0" width="1" height="1" fill="#000700" /><rect x="5" y="1" width="1" height="1" fill="#5b6330" /><rect x="5" y="2" width="1" height="1" fill="#c0cc8e" /><rect x="5" y="3" width="1" height="1" fill="#e5f2ac" /><rect x="5" y="4" width="1" height="1" fill="#d1e391" /><rect x="5" y="5" width="1" height="1" fill="#d8ed92" /><rect x="5" y="6" width="1" height="1" fill="#d8ee8c" /><rect x="5" y="7" width="1" height="1" fill="#d8ee89" /><rect x="5" y="8" width="1" height="1" fill="#d8ef87" /><rect x="5" y="9" width="1" height="1" fill="#d8ee89" /><rect x="6" y="0" width="1" height="1" fill="#8fa16d" /><rect x="6" y="1" width="1" height="1" fill="#d1e5a6" /><rect x="6" y="2" width="1" height="1" fill="#d5eda3" /><rect x="6" y="3" width="1" height="1" fill="#d4ef9e" /><rect x="6" y="4" width="1" height="1" fill="#d0ec95" /><rect x="6" y="5" width="1" height="1" fill="#cfee91" /><rect x="6" y="6" width="1" height="1" fill="#ceed8f" /><rect x="6" y="7" width="1" height="1" fill="#ceee8d" /><rect x="6" y="8" width="1" height="1" fill="#ceed8f" /><rect x="6" y="9" width="1" height="1" fill="#ceed8f" /><rect x="7" y="0" width="1" height="1" fill="#c9e9a8" /><rect x="7" y="1" width="1" height="1" fill="#d0f2a8" /><rect x="7" y="2" width="1" height="1" fill="#c0e693" /><rect x="7" y="3" width="1" height="1" fill="#c8ef96" /><rect x="7" y="4" width="1" height="1" fill="#c0e78c" /><rect x="7" y="5" width="1" height="1" fill="#c6ed92" /><rect x="7" y="6" width="1" height="1" fill="#c6ed94" /><rect x="7" y="7" width="1" height="1" fill="#c6ec95" /><rect x="7" y="8" width="1" height="1" fill="#c6ec97" /><rect x="7" y="9" width="1" height="1" fill="#c8eb97" /><rect x="8" y="0" width="1" height="1" fill="#bdec9c" /><rect x="8" y="1" width="1" height="1" fill="#baea94" /><rect x="8" y="2" width="1" height="1" fill="#b9ea8f" /><rect x="8" y="3" width="1" height="1" fill="#bbec91" /><rect x="8" y="4" width="1" height="1" fill="#beef96" /><rect x="8" y="5" width="1" height="1" fill="#bfef9b" /><rect x="8" y="6" width="1" height="1" fill="#bdec9c" /><rect x="8" y="7" width="1" height="1" fill="#bfeba0" /><rect x="8" y="8" width="1" height="1" fill="#bfeaa3" /><rect x="8" y="9" width="1" height="1" fill="#c0e9a3" /><rect x="9" y="0" width="1" height="1" fill="#b5f092" /><rect x="9" y="1" width="1" height="1" fill="#b5f18f" /><rect x="9" y="2" width="1" height="1" fill="#b6f290" /><rect x="9" y="3" width="1" height="1" fill="#b5f191" /><rect x="9" y="4" width="1" height="1" fill="#b5f094" /><rect x="9" y="5" width="1" height="1" fill="#b5ef98" /><rect x="9" y="6" width="1" height="1" fill="#b6ec9e" /><rect x="9" y="7" width="1" height="1" fill="#b7eba1" /><rect x="9" y="8" width="1" height="1" fill="#b8eaa3" /><rect x="9" y="9" width="1" height="1" fill="#bae9a3" /></g></svg>