<svg width="800" height="1000" xmlns="http://www.w3.org/2000/svg"><defs><linearGradient id="g" x1="0" x2="1" y1="0" y2="1"><stop offset="0%" stop-color="#2d3c96"/><stop offset="100%" stop-color="#d53392"/></linearGradient></defs><rect x="10" y="10" width="780" height="980" fill="url(#g)" rx="50" ry="50" stroke="gold" stroke-width="20"/><text x="400" y="920" width="780" text-anchor="middle" style="font:bold 200px 'Helvetica Neue';fill:gold">05831</text><g transform="translate(80 80) scale(64)"><rect x="0" y="0" width="1" height="1" fill="#d5ada5" /><rect x="0" y="1" width="1" height="1" fill="#f3c7bc" /><rect x="0" y="2" width="1" height="1" fill="#fac9bb" /><rect x="0" y="3" width="1" height="1" fill="#fec9bb" /><rect x="0" y="4" width="1" height="1" fill="#ffc4b4" /><rect x="0" y="5" width="1" height="1" fill="#ffc2b0" /><rect x="0" y="6" width="1" height="1" fill="#ffc0ad" /><rect x="0" y="7" width="1" height="1" fill="#ffc0ab" /><rect x="0" y="8" width="1" height="1" fill="#ffc0ab" /><rect x="0" y="9" width="1" height="1" fill="#ffc0ad" /><rect x="1" y="0" width="1" height="1" fill="#5b392d" /><rect x="1" y="1" width="1" height="1" fill="#d0aa9d" /><rect x="1" y="2" width="1" height="1" fill="#f6ccbc" /><rect x="1" y="3" width="1" height="1" fill="#f2c3b1" /><rect x="1" y="4" width="1" height="1" fill="#fac6b1" /><rect x="1" y="5" width="1" height="1" fill="#ffc5af" /><rect x="1" y="6" width="1" height="1" fill="#ffc4a9" /><rect x="1" y="7" width="1" height="1" fill="#ffc4a8" /><rect x="1" y="8" width="1" height="1" fill="#ffc4a8" /><rect x="1" y="9" width="1" height="1" fill="#ffc3a9" /><rect x="2" y="0" width="1" height="1" fill="#160000" /><rect x="2" y="1" width="1" height="1" fill="#4e2f1d" /><rect x="2" y="2" width="1" height="1" fill="#d7b4a1" /><rect x="2" y="3" width="1" height="1" fill="#f7d1bc" /><rect x="2" y="4" width="1" height="1" fill="#fbcdb6" /><rect x="2" y="5" width="1" height="1" fill="#f7c4a9" /><rect x="2" y="6" width="1" height="1" fill="#ffc7a9" /><rect x="2" y="7" width="1" height="1" fill="#ffc7a5" /><rect x="2" y="8" width="1" height="1" fill="#ffc6a5" /><rect x="2" y="9" width="1" height="1" fill="#ffc6a5" /><rect x="3" y="0" width="1" height="1" fill="#644a33" /><rect x="3" y="1" width="1" height="1" fill="#150000" /><rect x="3" y="2" width="1" height="1" fill="#785c47" /><rect x="3" y="3" width="1" height="1" fill="#efcfb8" /><rect x="3" y="4" width="1" height="1" fill="#f5cdb3" /><rect x="3" y="5" width="1" height="1" fill="#f6c9aa" /><rect x="3" y="6" width="1" height="1" fill="#ffcba9" /><rect x="3" y="7" width="1" height="1" fill="#ffcaa5" /><rect x="3" y="8" width="1" height="1" fill="#ffc9a4" /><rect x="3" y="9" width="1" height="1" fill="#ffcaa4" /><rect x="4" y="0" width="1" height="1" fill="#c7ae90" /><rect x="4" y="1" width="1" height="1" fill="#230b00" /><rect x="4" y="2" width="1" height="1" fill="#170000" /><rect x="4" y="3" width="1" height="1" fill="#bca186" /><rect x="4" y="4" width="1" height="1" fill="#f4d2b6" /><rect x="4" y="5" width="1" height="1" fill="#ffdebd" /><rect x="4" y="6" width="1" height="1" fill="#fdd0a9" /><rect x="4" y="7" width="1" height="1" fill="#ffcea6" /><rect x="4" y="8" width="1" height="1" fill="#ffcea2" /><rect x="4" y="9" width="1" height="1" fill="#ffcea2" /><rect x="5" y="0" width="1" height="1" fill="#ffebc7" /><rect x="5" y="1" width="1" height="1" fill="#998262" /><rect x="5" y="2" width="1" height="1" fill="#120000" /><rect x="5" y="3" width="1" height="1" fill="#725b3c" /><rect x="5" y="4" width="1" height="1" fill="#e6ccab" /><rect x="5" y="5" width="1" height="1" fill="#f4d2ad" /><rect x="5" y="6" width="1" height="1" fill="#fdd3a9" /><rect x="5" y="7" width="1" height="1" fill="#ffd2a4" /><rect x="5" y="8" width="1" height="1" fill="#ffd2a1" /><rect x="5" y="9" width="1" height="1" fill="#ffd29f" /><rect x="6" y="0" width="1" height="1" fill="#ffe9bd" /><rect x="6" y="1" width="1" height="1" fill="#ddc7a0" /><rect x="6" y="2" width="1" height="1" fill="#1b0800" /><rect x="6" y="3" width="1" height="1" fill="#110000" /><rect x="6" y="4" width="1" height="1" fill="#ccb691" /><rect x="6" y="5" width="1" height="1" fill="#ffe3bb" /><rect x="6" y="6" width="1" height="1" fill="#fad8aa" /><rect x="6" y="7" width="1" height="1" fill="#ffd7a3" /><rect x="6" y="8" width="1" height="1" fill="#ffd69d" /><rect x="6" y="9" width="1" height="1" fill="#ffd69b" /><rect x="7" y="0" width="1" height="1" fill="#efd3a1" /><rect x="7" y="1" width="1" height="1" fill="#f8e3b6" /><rect x="7" y="2" width="1" height="1" fill="#766740" /><rect x="7" y="3" width="1" height="1" fill="#150700" /><rect x="7" y="4" width="1" height="1" fill="#baab82" /><rect x="7" y="5" width="1" height="1" fill="#f5e0b3" /><rect x="7" y="6" width="1" height="1" fill="#fadcaa" /><rect x="7" y="7" width="1" height="1" fill="#ffdba1" /><rect x="7" y="8" width="1" height="1" fill="#ffda9c" /><rect x="7" y="9" width="1" height="1" fill="#ffda98" /><rect x="8" y="0" width="1" height="1" fill="#f9dca4" /><rect x="8" y="1" width="1" height="1" fill="#f8e2b1" /><rect x="8" y="2" width="1" height="1" fill="#9c8d62" /><rect x="8" y="3" width="1" height="1" fill="#0d0100" /><rect x="8" y="4" width="1" height="1" fill="#9d9064" /><rect x="8" y="5" width="1" height="1" fill="#eedead" /><rect x="8" y="6" width="1" height="1" fill="#f9e0a8" /><rect x="8" y="7" width="1" height="1" fill="#fedea1" /><rect x="8" y="8" width="1" height="1" fill="#ffde9a" /><rect x="8" y="9" width="1" height="1" fill="#ffde97" /><rect x="9" y="0" width="1" height="1" fill="#ffe9a9" /><rect x="9" y="1" width="1" height="1" fill="#f8e7b1" /><rect x="9" y="2" width="1" height="1" fill="#a29568" /><rect x="9" y="3" width="1" height="1" fill="#0d0100" /><rect x="9" y="4" width="1" height="1" fill="#9a8f61" /><rect x="9" y="5" width="1" height="1" fill="#f8e8b4" /><rect x="9" y="6" width="1" height="1" fill="#f9e4a5" /><rect x="9" y="7" width="1" height="1" fill="#fee39c" /><rect x="9" y="8" width="1" height="1" fill="#ffe395" /><rect x="9" y="9" width="1" height="1" fill="#ffe291" /></g></svg>