<svg width="800" height="1000" xmlns="http://www.w3.org/2000/svg"><defs><linearGradient id="g" x1="0" x2="1" y1="0" y2="1"><stop offset="0%" stop-color="#2d3c96"/><stop offset="100%" stop-color="#d53392"/></linearGradient></defs><rect x="10" y="10" width="780" height="980" fill="url(#g)" rx="50" ry="50" stroke="gold" stroke-width="20"/><text x="400" y="920" width="780" text-anchor="middle" style="font:bold 200px 'Helvetica Neue';fill:gold">05929</text><g transform="translate(80 80) scale(64)"><rect x="0" y="0" width="1" height="1" fill="#bcafed" /><rect x="0" y="1" width="1" height="1" fill="#bcafec" /><rect x="0" y="2" width="1" height="1" fill="#bdaeed" /><rect x="0" y="3" width="1" height="1" fill="#bbaeed" /><rect x="0" y="4" width="1" height="1" fill="#bbaeec" /><rect x="0" y="5" width="1" height="1" fill="#bbafeb" /><rect x="0" y="6" width="1" height="1" fill="#bbafe9" /><rect x="0" y="7" width="1" height="1" fill="#bab1e9" /><rect x="0" y="8" width="1" height="1" fill="#b7ace0" /><rect x="0" y="9" width="1" height="1" fill="#d1c6f8" /><rect x="1" y="0" width="1" height="1" fill="#c2aee8" /><rect x="1" y="1" width="1" height="1" fill="#c2afe9" /><rect x="1" y="2" width="1" height="1" fill="#c2aee8" /><rect x="1" y="3" width="1" height="1" fill="#c0afeb" /><rect x="1" y="4" width="1" height="1" fill="#c1aeeb" /><rect x="1" y="5" width="1" height="1" fill="#c1afea" /><rect x="1" y="6" width="1" height="1" fill="#c0afe9" /><rect x="1" y="7" width="1" height="1" fill="#c0b1e6" /><rect x="1" y="8" width="1" height="1" fill="#bdaade" /><rect x="1" y="9" width="1" height="1" fill="#d5c6f6" /><rect x="2" y="0" width="1" height="1" fill="#c7aee7" /><rect x="2" y="1" width="1" height="1" fill="#c6afe7" /><rect x="2" y="2" width="1" height="1" fill="#c7aee7" /><rect x="2" y="3" width="1" height="1" fill="#c6afe6" /><rect x="2" y="4" width="1" height="1" fill="#c7ade6" /><rect x="2" y="5" width="1" height="1" fill="#c4ade7" /><rect x="2" y="6" width="1" height="1" fill="#c4ade6" /><rect x="2" y="7" width="1" height="1" fill="#c7aee6" /><rect x="2" y="8" width="1" height="1" fill="#c0aadf" /><rect x="2" y="9" width="1" height="1" fill="#ddc5f8" /><rect x="3" y="0" width="1" height="1" fill="#ccafe3" /><rect x="3" y="1" width="1" height="1" fill="#ccafe3" /><rect x="3" y="2" width="1" height="1" fill="#cdaee2" /><rect x="3" y="3" width="1" height="1" fill="#cdafe4" /><rect x="3" y="4" width="1" height="1" fill="#caaee6" /><rect x="3" y="5" width="1" height="1" fill="#caade6" /><rect x="3" y="6" width="1" height="1" fill="#cbace5" /><rect x="3" y="7" width="1" height="1" fill="#cbaee5" /><rect x="3" y="8" width="1" height="1" fill="#c5aadc" /><rect x="3" y="9" width="1" height="1" fill="#e0c6f7" /><rect x="4" y="0" width="1" height="1" fill="#d3ade0" /><rect x="4" y="1" width="1" height="1" fill="#d3ade1" /><rect x="4" y="2" width="1" height="1" fill="#d2ace0" /><rect x="4" y="3" width="1" height="1" fill="#d2ade1" /><rect x="4" y="4" width="1" height="1" fill="#d1ace3" /><rect x="4" y="5" width="1" height="1" fill="#cfade5" /><rect x="4" y="6" width="1" height="1" fill="#ceade2" /><rect x="4" y="7" width="1" height="1" fill="#d0aee3" /><rect x="4" y="8" width="1" height="1" fill="#cbabdb" /><rect x="4" y="9" width="1" height="1" fill="#e5c5f6" /><rect x="5" y="0" width="1" height="1" fill="#d5addd" /><rect x="5" y="1" width="1" height="1" fill="#d4addc" /><rect x="5" y="2" width="1" height="1" fill="#d4acdc" /><rect x="5" y="3" width="1" height="1" fill="#d5addf" /><rect x="5" y="4" width="1" height="1" fill="#d2ade0" /><rect x="5" y="5" width="1" height="1" fill="#d3ace1" /><rect x="5" y="6" width="1" height="1" fill="#d3addf" /><rect x="5" y="7" width="1" height="1" fill="#d4aedd" /><rect x="5" y="8" width="1" height="1" fill="#cfabd8" /><rect x="5" y="9" width="1" height="1" fill="#e9c4f3" /><rect x="6" y="0" width="1" height="1" fill="#daaddc" /><rect x="6" y="1" width="1" height="1" fill="#dbaddd" /><rect x="6" y="2" width="1" height="1" fill="#daacdd" /><rect x="6" y="3" width="1" height="1" fill="#dbaddc" /><rect x="6" y="4" width="1" height="1" fill="#d9acdb" /><rect x="6" y="5" width="1" height="1" fill="#d8addb" /><rect x="6" y="6" width="1" height="1" fill="#d6adda" /><rect x="6" y="7" width="1" height="1" fill="#d8aeda" /><rect x="6" y="8" width="1" height="1" fill="#d0a8d4" /><rect x="6" y="9" width="1" height="1" fill="#e8c4ed" /><rect x="7" y="0" width="1" height="1" fill="#ddacd9" /><rect x="7" y="1" width="1" height="1" fill="#dcadd9" /><rect x="7" y="2" width="1" height="1" fill="#dcacd9" /><rect x="7" y="3" width="1" height="1" fill="#dcadd8" /><rect x="7" y="4" width="1" height="1" fill="#dbacd8" /><rect x="7" y="5" width="1" height="1" fill="#daacd6" /><rect x="7" y="6" width="1" height="1" fill="#dbaed6" /><rect x="7" y="7" width="1" height="1" fill="#daafd4" /><rect x="7" y="8" width="1" height="1" fill="#d2a9ce" /><rect x="7" y="9" width="1" height="1" fill="#edc5e9" /><rect x="8" y="0" width="1" height="1" fill="#e3aad2" /><rect x="8" y="1" width="1" height="1" fill="#e2aad3" /><rect x="8" y="2" width="1" height="1" fill="#e2abd3" /><rect x="8" y="3" width="1" height="1" fill="#e3abd3" /><rect x="8" y="4" width="1" height="1" fill="#e0acd2" /><rect x="8" y="5" width="1" height="1" fill="#e0add3" /><rect x="8" y="6" width="1" height="1" fill="#e1aed3" /><rect x="8" y="7" width="1" height="1" fill="#deaed3" /><rect x="8" y="8" width="1" height="1" fill="#d7a8cd" /><rect x="8" y="9" width="1" height="1" fill="#f0c4e4" /><rect x="9" y="0" width="1" height="1" fill="#e7abcf" /><rect x="9" y="1" width="1" height="1" fill="#e6abce" /><rect x="9" y="2" width="1" height="1" fill="#e7aace" /><rect x="9" y="3" width="1" height="1" fill="#e4acce" /><rect x="9" y="4" width="1" height="1" fill="#e5acce" /><rect x="9" y="5" width="1" height="1" fill="#e5accf" /><rect x="9" y="6" width="1" height="1" fill="#e5acd0" /><rect x="9" y="7" width="1" height="1" fill="#e5afd1" /><rect x="9" y="8" width="1" height="1" fill="#daaac8" /><rect x="9" y="9" width="1" height="1" fill="#f3c5e2" /></g></svg>