<svg width="800" height="1000" xmlns="http://www.w3.org/2000/svg"><defs><linearGradient id="g" x1="0" x2="1" y1="0" y2="1"><stop offset="0%" stop-color="#2d3c96"/><stop offset="100%" stop-color="#d53392"/></linearGradient></defs><rect x="10" y="10" width="780" height="980" fill="url(#g)" rx="50" ry="50" stroke="gold" stroke-width="20"/><text x="400" y="920" width="780" text-anchor="middle" style="font:bold 200px 'Helvetica Neue';fill:gold">05930</text><g transform="translate(80 80) scale(64)"><rect x="0" y="0" width="1" height="1" fill="#ecabcd" /><rect x="0" y="1" width="1" height="1" fill="#edabcc" /><rect x="0" y="2" width="1" height="1" fill="#edabcc" /><rect x="0" y="3" width="1" height="1" fill="#ecabcb" /><rect x="0" y="4" width="1" height="1" fill="#ebaaca" /><rect x="0" y="5" width="1" height="1" fill="#ebadcb" /><rect x="0" y="6" width="1" height="1" fill="#eaaccd" /><rect x="0" y="7" width="1" height="1" fill="#eaafcc" /><rect x="0" y="8" width="1" height="1" fill="#e0a8c7" /><rect x="0" y="9" width="1" height="1" fill="#f8c2df" /><rect x="1" y="0" width="1" height="1" fill="#f0aac9" /><rect x="1" y="1" width="1" height="1" fill="#f1aac8" /><rect x="1" y="2" width="1" height="1" fill="#f0abc8" /><rect x="1" y="3" width="1" height="1" fill="#f1aac8" /><rect x="1" y="4" width="1" height="1" fill="#f1a9c6" /><rect x="1" y="5" width="1" height="1" fill="#f1abc9" /><rect x="1" y="6" width="1" height="1" fill="#efadc8" /><rect x="1" y="7" width="1" height="1" fill="#eeaeca" /><rect x="1" y="8" width="1" height="1" fill="#e5a8c3" /><rect x="1" y="9" width="1" height="1" fill="#fdc3dd" /><rect x="2" y="0" width="1" height="1" fill="#f9abc5" /><rect x="2" y="1" width="1" height="1" fill="#f8aac4" /><rect x="2" y="2" width="1" height="1" fill="#f9abc4" /><rect x="2" y="3" width="1" height="1" fill="#f7abc7" /><rect x="2" y="4" width="1" height="1" fill="#f4a8c5" /><rect x="2" y="5" width="1" height="1" fill="#f5a8c6" /><rect x="2" y="6" width="1" height="1" fill="#f3acc8" /><rect x="2" y="7" width="1" height="1" fill="#f3aecb" /><rect x="2" y="8" width="1" height="1" fill="#eba8c3" /><rect x="2" y="9" width="1" height="1" fill="#fec3dc" /><rect x="3" y="0" width="1" height="1" fill="#fbaac3" /><rect x="3" y="1" width="1" height="1" fill="#faaac0" /><rect x="3" y="2" width="1" height="1" fill="#fcabc0" /><rect x="3" y="3" width="1" height="1" fill="#fbabc1" /><rect x="3" y="4" width="1" height="1" fill="#f8a9c0" /><rect x="3" y="5" width="1" height="1" fill="#f9aac4" /><rect x="3" y="6" width="1" height="1" fill="#f6adc5" /><rect x="3" y="7" width="1" height="1" fill="#f7afc7" /><rect x="3" y="8" width="1" height="1" fill="#eda8c0" /><rect x="3" y="9" width="1" height="1" fill="#fec2da" /><rect x="4" y="0" width="1" height="1" fill="#faacc2" /><rect x="4" y="1" width="1" height="1" fill="#fdaac0" /><rect x="4" y="2" width="1" height="1" fill="#feaabf" /><rect x="4" y="3" width="1" height="1" fill="#ffabbe" /><rect x="4" y="4" width="1" height="1" fill="#faabc1" /><rect x="4" y="5" width="1" height="1" fill="#faadc3" /><rect x="4" y="6" width="1" height="1" fill="#f8adc2" /><rect x="4" y="7" width="1" height="1" fill="#f8afc3" /><rect x="4" y="8" width="1" height="1" fill="#f0abbe" /><rect x="4" y="9" width="1" height="1" fill="#fec3d4" /><rect x="5" y="0" width="1" height="1" fill="#fdaec1" /><rect x="5" y="1" width="1" height="1" fill="#fcaebf" /><rect x="5" y="2" width="1" height="1" fill="#feadbd" /><rect x="5" y="3" width="1" height="1" fill="#ffadbd" /><rect x="5" y="4" width="1" height="1" fill="#fbacbc" /><rect x="5" y="5" width="1" height="1" fill="#faafc1" /><rect x="5" y="6" width="1" height="1" fill="#f9aec0" /><rect x="5" y="7" width="1" height="1" fill="#f9b0c1" /><rect x="5" y="8" width="1" height="1" fill="#f0acbd" /><rect x="5" y="9" width="1" height="1" fill="#fec5d3" /><rect x="6" y="0" width="1" height="1" fill="#ffb3be" /><rect x="6" y="1" width="1" height="1" fill="#feb0be" /><rect x="6" y="2" width="1" height="1" fill="#ffb0bd" /><rect x="6" y="3" width="1" height="1" fill="#ffb0bc" /><rect x="6" y="4" width="1" height="1" fill="#fcafbd" /><rect x="6" y="5" width="1" height="1" fill="#fcb1bd" /><rect x="6" y="6" width="1" height="1" fill="#fbb2bd" /><rect x="6" y="7" width="1" height="1" fill="#fab2be" /><rect x="6" y="8" width="1" height="1" fill="#f2b1b9" /><rect x="6" y="9" width="1" height="1" fill="#ffc7cf" /><rect x="7" y="0" width="1" height="1" fill="#ffb5bb" /><rect x="7" y="1" width="1" height="1" fill="#ffb5ba" /><rect x="7" y="2" width="1" height="1" fill="#feb5b8" /><rect x="7" y="3" width="1" height="1" fill="#feb5b9" /><rect x="7" y="4" width="1" height="1" fill="#ffb2b8" /><rect x="7" y="5" width="1" height="1" fill="#fcb4b9" /><rect x="7" y="6" width="1" height="1" fill="#fcb4b9" /><rect x="7" y="7" width="1" height="1" fill="#fcb7ba" /><rect x="7" y="8" width="1" height="1" fill="#f4b5b4" /><rect x="7" y="9" width="1" height="1" fill="#fecacb" /><rect x="8" y="0" width="1" height="1" fill="#feb8b7" /><rect x="8" y="1" width="1" height="1" fill="#ffb9b6" /><rect x="8" y="2" width="1" height="1" fill="#ffb8b7" /><rect x="8" y="3" width="1" height="1" fill="#ffb8b7" /><rect x="8" y="4" width="1" height="1" fill="#ffb9b7" /><rect x="8" y="5" width="1" height="1" fill="#ffb9b7" /><rect x="8" y="6" width="1" height="1" fill="#febab6" /><rect x="8" y="7" width="1" height="1" fill="#fcbbb9" /><rect x="8" y="8" width="1" height="1" fill="#f5b6b5" /><rect x="8" y="9" width="1" height="1" fill="#ffccca" /><rect x="9" y="0" width="1" height="1" fill="#febdb2" /><rect x="9" y="1" width="1" height="1" fill="#febcb4" /><rect x="9" y="2" width="1" height="1" fill="#febcb5" /><rect x="9" y="3" width="1" height="1" fill="#febdb5" /><rect x="9" y="4" width="1" height="1" fill="#febdb4" /><rect x="9" y="5" width="1" height="1" fill="#febcb5" /><rect x="9" y="6" width="1" height="1" fill="#febfb4" /><rect x="9" y="7" width="1" height="1" fill="#fabfb5" /><rect x="9" y="8" width="1" height="1" fill="#f4bab1" /><rect x="9" y="9" width="1" height="1" fill="#fed0c7" /></g></svg>