<svg width="800" height="1000" xmlns="http://www.w3.org/2000/svg"><defs><linearGradient id="g" x1="0" x2="1" y1="0" y2="1"><stop offset="0%" stop-color="#2d3c96"/><stop offset="100%" stop-color="#d53392"/></linearGradient></defs><rect x="10" y="10" width="780" height="980" fill="url(#g)" rx="50" ry="50" stroke="gold" stroke-width="20"/><text x="400" y="920" width="780" text-anchor="middle" style="font:bold 200px 'Helvetica Neue';fill:gold">05933</text><g transform="translate(80 80) scale(64)"><rect x="0" y="0" width="1" height="1" fill="#b3eb95" /><rect x="0" y="1" width="1" height="1" fill="#b2ea90" /><rect x="0" y="2" width="1" height="1" fill="#b5ec8a" /><rect x="0" y="3" width="1" height="1" fill="#b2ed8a" /><rect x="0" y="4" width="1" height="1" fill="#b1ec8c" /><rect x="0" y="5" width="1" height="1" fill="#b3ed90" /><rect x="0" y="6" width="1" height="1" fill="#b4ed95" /><rect x="0" y="7" width="1" height="1" fill="#b5eb9b" /><rect x="0" y="8" width="1" height="1" fill="#aee298" /><rect x="0" y="9" width="1" height="1" fill="#c6f9af" /><rect x="1" y="0" width="1" height="1" fill="#aaed8d" /><rect x="1" y="1" width="1" height="1" fill="#aaec89" /><rect x="1" y="2" width="1" height="1" fill="#abef86" /><rect x="1" y="3" width="1" height="1" fill="#abee87" /><rect x="1" y="4" width="1" height="1" fill="#a6ec8b" /><rect x="1" y="5" width="1" height="1" fill="#a8ed92" /><rect x="1" y="6" width="1" height="1" fill="#aaec94" /><rect x="1" y="7" width="1" height="1" fill="#adea9b" /><rect x="1" y="8" width="1" height="1" fill="#a7e497" /><rect x="1" y="9" width="1" height="1" fill="#bff9b1" /><rect x="2" y="0" width="1" height="1" fill="#a3ef84" /><rect x="2" y="1" width="1" height="1" fill="#a2ee84" /><rect x="2" y="2" width="1" height="1" fill="#a2ef85" /><rect x="2" y="3" width="1" height="1" fill="#a1ef88" /><rect x="2" y="4" width="1" height="1" fill="#a1ec8d" /><rect x="2" y="5" width="1" height="1" fill="#a0ec93" /><rect x="2" y="6" width="1" height="1" fill="#a3ec94" /><rect x="2" y="7" width="1" height="1" fill="#a4ea9b" /><rect x="2" y="8" width="1" height="1" fill="#a1e49a" /><rect x="2" y="9" width="1" height="1" fill="#b8fbb2" /><rect x="3" y="0" width="1" height="1" fill="#98ef87" /><rect x="3" y="1" width="1" height="1" fill="#98ee8b" /><rect x="3" y="2" width="1" height="1" fill="#99ef8c" /><rect x="3" y="3" width="1" height="1" fill="#99ec8e" /><rect x="3" y="4" width="1" height="1" fill="#99ec8f" /><rect x="3" y="5" width="1" height="1" fill="#98ee91" /><rect x="3" y="6" width="1" height="1" fill="#9bed95" /><rect x="3" y="7" width="1" height="1" fill="#9ceb9a" /><rect x="3" y="8" width="1" height="1" fill="#9ae598" /><rect x="3" y="9" width="1" height="1" fill="#b3fbb1" /><rect x="4" y="0" width="1" height="1" fill="#90ea95" /><rect x="4" y="1" width="1" height="1" fill="#91eb9a" /><rect x="4" y="2" width="1" height="1" fill="#8fe89f" /><rect x="4" y="3" width="1" height="1" fill="#8feb9b" /><rect x="4" y="4" width="1" height="1" fill="#8eec93" /><rect x="4" y="5" width="1" height="1" fill="#92ed90" /><rect x="4" y="6" width="1" height="1" fill="#92eb95" /><rect x="4" y="7" width="1" height="1" fill="#95ea99" /><rect x="4" y="8" width="1" height="1" fill="#92e598" /><rect x="4" y="9" width="1" height="1" fill="#adf9b3" /><rect x="5" y="0" width="1" height="1" fill="#9adeac" /><rect x="5" y="1" width="1" height="1" fill="#99dfb1" /><rect x="5" y="2" width="1" height="1" fill="#97dfb7" /><rect x="5" y="3" width="1" height="1" fill="#96deb2" /><rect x="5" y="4" width="1" height="1" fill="#97e0a7" /><rect x="5" y="5" width="1" height="1" fill="#99e3a2" /><rect x="5" y="6" width="1" height="1" fill="#9ae1a5" /><rect x="5" y="7" width="1" height="1" fill="#9be1a8" /><rect x="5" y="8" width="1" height="1" fill="#99daa7" /><rect x="5" y="9" width="1" height="1" fill="#b1f0be" /><rect x="6" y="0" width="1" height="1" fill="#abc0cc" /><rect x="6" y="1" width="1" height="1" fill="#a9c4cc" /><rect x="6" y="2" width="1" height="1" fill="#a8c5cf" /><rect x="6" y="3" width="1" height="1" fill="#a6c6cb" /><rect x="6" y="4" width="1" height="1" fill="#a7c8c4" /><rect x="6" y="5" width="1" height="1" fill="#a4c8c0" /><rect x="6" y="6" width="1" height="1" fill="#a6c9c2" /><rect x="6" y="7" width="1" height="1" fill="#abcbc4" /><rect x="6" y="8" width="1" height="1" fill="#a7c5be" /><rect x="6" y="9" width="1" height="1" fill="#c1e0db" /><rect x="7" y="0" width="1" height="1" fill="#bdb4da" /><rect x="7" y="1" width="1" height="1" fill="#bab5d9" /><rect x="7" y="2" width="1" height="1" fill="#bbb6da" /><rect x="7" y="3" width="1" height="1" fill="#b8b8d9" /><rect x="7" y="4" width="1" height="1" fill="#b9b9d6" /><rect x="7" y="5" width="1" height="1" fill="#b7b8d2" /><rect x="7" y="6" width="1" height="1" fill="#b9bad0" /><rect x="7" y="7" width="1" height="1" fill="#b8bad3" /><rect x="7" y="8" width="1" height="1" fill="#b5b7cb" /><rect x="7" y="9" width="1" height="1" fill="#ced2e4" /><rect x="8" y="0" width="1" height="1" fill="#c8b1d8" /><rect x="8" y="1" width="1" height="1" fill="#cab1d7" /><rect x="8" y="2" width="1" height="1" fill="#cbb0d7" /><rect x="8" y="3" width="1" height="1" fill="#cbb1d5" /><rect x="8" y="4" width="1" height="1" fill="#cab0d5" /><rect x="8" y="5" width="1" height="1" fill="#c9b0d5" /><rect x="8" y="6" width="1" height="1" fill="#c9b0d3" /><rect x="8" y="7" width="1" height="1" fill="#cab2d2" /><rect x="8" y="8" width="1" height="1" fill="#c2aecb" /><rect x="8" y="9" width="1" height="1" fill="#ddc9e5" /><rect x="9" y="0" width="1" height="1" fill="#d9afd5" /><rect x="9" y="1" width="1" height="1" fill="#dbaed4" /><rect x="9" y="2" width="1" height="1" fill="#dbaed2" /><rect x="9" y="3" width="1" height="1" fill="#dbadd2" /><rect x="9" y="4" width="1" height="1" fill="#dbadd4" /><rect x="9" y="5" width="1" height="1" fill="#dbadd5" /><rect x="9" y="6" width="1" height="1" fill="#daaed3" /><rect x="9" y="7" width="1" height="1" fill="#d9afd2" /><rect x="9" y="8" width="1" height="1" fill="#d3aacc" /><rect x="9" y="9" width="1" height="1" fill="#edc4e7" /></g></svg>