<svg width="800" height="1000" xmlns="http://www.w3.org/2000/svg"><defs><linearGradient id="g" x1="0" x2="1" y1="0" y2="1"><stop offset="0%" stop-color="#2d3c96"/><stop offset="100%" stop-color="#d53392"/></linearGradient></defs><rect x="10" y="10" width="780" height="980" fill="url(#g)" rx="50" ry="50" stroke="gold" stroke-width="20"/><text x="400" y="920" width="780" text-anchor="middle" style="font:bold 200px 'Helvetica Neue';fill:gold">05931</text><g transform="translate(80 80) scale(64)"><rect x="0" y="0" width="1" height="1" fill="#ffc1af" /><rect x="0" y="1" width="1" height="1" fill="#ffc1b1" /><rect x="0" y="2" width="1" height="1" fill="#fec0b5" /><rect x="0" y="3" width="1" height="1" fill="#fec1b5" /><rect x="0" y="4" width="1" height="1" fill="#fec1b1" /><rect x="0" y="5" width="1" height="1" fill="#fec1b2" /><rect x="0" y="6" width="1" height="1" fill="#fcc3b3" /><rect x="0" y="7" width="1" height="1" fill="#fdc3b2" /><rect x="0" y="8" width="1" height="1" fill="#f5bdae" /><rect x="0" y="9" width="1" height="1" fill="#ffd5c4" /><rect x="1" y="0" width="1" height="1" fill="#ffc4aa" /><rect x="1" y="1" width="1" height="1" fill="#fec5af" /><rect x="1" y="2" width="1" height="1" fill="#ffc5b2" /><rect x="1" y="3" width="1" height="1" fill="#fcc7b3" /><rect x="1" y="4" width="1" height="1" fill="#fcc2ae" /><rect x="1" y="5" width="1" height="1" fill="#fec4af" /><rect x="1" y="6" width="1" height="1" fill="#fdc5b1" /><rect x="1" y="7" width="1" height="1" fill="#fbc7b1" /><rect x="1" y="8" width="1" height="1" fill="#f2c0ab" /><rect x="1" y="9" width="1" height="1" fill="#fed7c0" /><rect x="2" y="0" width="1" height="1" fill="#fec6a9" /><rect x="2" y="1" width="1" height="1" fill="#fec6ac" /><rect x="2" y="2" width="1" height="1" fill="#fac9b3" /><rect x="2" y="3" width="1" height="1" fill="#fbc9b2" /><rect x="2" y="4" width="1" height="1" fill="#fccaaf" /><rect x="2" y="5" width="1" height="1" fill="#fec8ad" /><rect x="2" y="6" width="1" height="1" fill="#fbc9ac" /><rect x="2" y="7" width="1" height="1" fill="#f9c6ad" /><rect x="2" y="8" width="1" height="1" fill="#f8cbb0" /><rect x="2" y="9" width="1" height="1" fill="#ffd2bb" /><rect x="3" y="0" width="1" height="1" fill="#ffcba7" /><rect x="3" y="1" width="1" height="1" fill="#ffcdab" /><rect x="3" y="2" width="1" height="1" fill="#facdae" /><rect x="3" y="3" width="1" height="1" fill="#fbcdb0" /><rect x="3" y="4" width="1" height="1" fill="#fdcfac" /><rect x="3" y="5" width="1" height="1" fill="#fcccaa" /><rect x="3" y="6" width="1" height="1" fill="#facdac" /><rect x="3" y="7" width="1" height="1" fill="#f9caab" /><rect x="3" y="8" width="1" height="1" fill="#f8cfae" /><rect x="3" y="9" width="1" height="1" fill="#fed7b9" /><rect x="4" y="0" width="1" height="1" fill="#fecea4" /><rect x="4" y="1" width="1" height="1" fill="#fecfa6" /><rect x="4" y="2" width="1" height="1" fill="#fad0aa" /><rect x="4" y="3" width="1" height="1" fill="#fbd1ad" /><rect x="4" y="4" width="1" height="1" fill="#ffd2ab" /><rect x="4" y="5" width="1" height="1" fill="#fdd0a8" /><rect x="4" y="6" width="1" height="1" fill="#fdd1ac" /><rect x="4" y="7" width="1" height="1" fill="#facfac" /><rect x="4" y="8" width="1" height="1" fill="#fad3ae" /><rect x="4" y="9" width="1" height="1" fill="#fedab6" /><rect x="5" y="0" width="1" height="1" fill="#ffd2a1" /><rect x="5" y="1" width="1" height="1" fill="#fed5a2" /><rect x="5" y="2" width="1" height="1" fill="#fad4a9" /><rect x="5" y="3" width="1" height="1" fill="#fbd5a8" /><rect x="5" y="4" width="1" height="1" fill="#fed6a8" /><rect x="5" y="5" width="1" height="1" fill="#fed4a6" /><rect x="5" y="6" width="1" height="1" fill="#fed4a9" /><rect x="5" y="7" width="1" height="1" fill="#fbd4a9" /><rect x="5" y="8" width="1" height="1" fill="#f8d7ad" /><rect x="5" y="9" width="1" height="1" fill="#fedeb5" /><rect x="6" y="0" width="1" height="1" fill="#ffd79a" /><rect x="6" y="1" width="1" height="1" fill="#ffd89e" /><rect x="6" y="2" width="1" height="1" fill="#fdd9a4" /><rect x="6" y="3" width="1" height="1" fill="#fad9a4" /><rect x="6" y="4" width="1" height="1" fill="#ffd9a5" /><rect x="6" y="5" width="1" height="1" fill="#fdd8a0" /><rect x="6" y="6" width="1" height="1" fill="#fcdba4" /><rect x="6" y="7" width="1" height="1" fill="#fad9a7" /><rect x="6" y="8" width="1" height="1" fill="#f8d8a8" /><rect x="6" y="9" width="1" height="1" fill="#ffe0b1" /><rect x="7" y="0" width="1" height="1" fill="#feda9b" /><rect x="7" y="1" width="1" height="1" fill="#fedc9d" /><rect x="7" y="2" width="1" height="1" fill="#fddd9f" /><rect x="7" y="3" width="1" height="1" fill="#fbdca1" /><rect x="7" y="4" width="1" height="1" fill="#ffdd9d" /><rect x="7" y="5" width="1" height="1" fill="#ffdc9d" /><rect x="7" y="6" width="1" height="1" fill="#fcdd9e" /><rect x="7" y="7" width="1" height="1" fill="#fbdba2" /><rect x="7" y="8" width="1" height="1" fill="#fbdca6" /><rect x="7" y="9" width="1" height="1" fill="#fee3af" /><rect x="8" y="0" width="1" height="1" fill="#fedf96" /><rect x="8" y="1" width="1" height="1" fill="#ffdf99" /><rect x="8" y="2" width="1" height="1" fill="#fde19d" /><rect x="8" y="3" width="1" height="1" fill="#fde19e" /><rect x="8" y="4" width="1" height="1" fill="#ffde9d" /><rect x="8" y="5" width="1" height="1" fill="#fedf9c" /><rect x="8" y="6" width="1" height="1" fill="#ffdf9e" /><rect x="8" y="7" width="1" height="1" fill="#fddf9e" /><rect x="8" y="8" width="1" height="1" fill="#fddea2" /><rect x="8" y="9" width="1" height="1" fill="#ffe6ac" /><rect x="9" y="0" width="1" height="1" fill="#ffe292" /><rect x="9" y="1" width="1" height="1" fill="#ffe397" /><rect x="9" y="2" width="1" height="1" fill="#fee39a" /><rect x="9" y="3" width="1" height="1" fill="#ffe39c" /><rect x="9" y="4" width="1" height="1" fill="#fee29b" /><rect x="9" y="5" width="1" height="1" fill="#fee299" /><rect x="9" y="6" width="1" height="1" fill="#ffe29c" /><rect x="9" y="7" width="1" height="1" fill="#fae39f" /><rect x="9" y="8" width="1" height="1" fill="#fbe3a2" /><rect x="9" y="9" width="1" height="1" fill="#ffe8ab" /></g></svg>