<svg width="800" height="1000" xmlns="http://www.w3.org/2000/svg"><defs><linearGradient id="g" x1="0" x2="1" y1="0" y2="1"><stop offset="0%" stop-color="#2d3c96"/><stop offset="100%" stop-color="#d53392"/></linearGradient></defs><rect x="10" y="10" width="780" height="980" fill="url(#g)" rx="50" ry="50" stroke="gold" stroke-width="20"/><text x="400" y="920" width="780" text-anchor="middle" style="font:bold 200px 'Helvetica Neue';fill:gold">05934</text><g transform="translate(80 80) scale(64)"><rect x="0" y="0" width="1" height="1" fill="#e8abd0" /><rect x="0" y="1" width="1" height="1" fill="#eaaad1" /><rect x="0" y="2" width="1" height="1" fill="#ebabcd" /><rect x="0" y="3" width="1" height="1" fill="#ebaacf" /><rect x="0" y="4" width="1" height="1" fill="#e8aad3" /><rect x="0" y="5" width="1" height="1" fill="#e8abd4" /><rect x="0" y="6" width="1" height="1" fill="#e7acd3" /><rect x="0" y="7" width="1" height="1" fill="#e5add2" /><rect x="0" y="8" width="1" height="1" fill="#dca8cc" /><rect x="0" y="9" width="1" height="1" fill="#f6c5e7" /><rect x="1" y="0" width="1" height="1" fill="#f5a8ca" /><rect x="1" y="1" width="1" height="1" fill="#f2a8c8" /><rect x="1" y="2" width="1" height="1" fill="#f3a9c6" /><rect x="1" y="3" width="1" height="1" fill="#f2a9c8" /><rect x="1" y="4" width="1" height="1" fill="#f4abce" /><rect x="1" y="5" width="1" height="1" fill="#f1a8cf" /><rect x="1" y="6" width="1" height="1" fill="#eeaacf" /><rect x="1" y="7" width="1" height="1" fill="#edacce" /><rect x="1" y="8" width="1" height="1" fill="#e2a9c8" /><rect x="1" y="9" width="1" height="1" fill="#fac3e3" /><rect x="2" y="0" width="1" height="1" fill="#f8a8c4" /><rect x="2" y="1" width="1" height="1" fill="#f9abc4" /><rect x="2" y="2" width="1" height="1" fill="#f7aac2" /><rect x="2" y="3" width="1" height="1" fill="#f6aac4" /><rect x="2" y="4" width="1" height="1" fill="#f6abc7" /><rect x="2" y="5" width="1" height="1" fill="#f7abc7" /><rect x="2" y="6" width="1" height="1" fill="#f4abc6" /><rect x="2" y="7" width="1" height="1" fill="#eeafc7" /><rect x="2" y="8" width="1" height="1" fill="#e7a9c0" /><rect x="2" y="9" width="1" height="1" fill="#fec5db" /><rect x="3" y="0" width="1" height="1" fill="#fdadc2" /><rect x="3" y="1" width="1" height="1" fill="#f8aec3" /><rect x="3" y="2" width="1" height="1" fill="#f9aec1" /><rect x="3" y="3" width="1" height="1" fill="#f8afc1" /><rect x="3" y="4" width="1" height="1" fill="#fcaec0" /><rect x="3" y="5" width="1" height="1" fill="#faaec2" /><rect x="3" y="6" width="1" height="1" fill="#f6aec1" /><rect x="3" y="7" width="1" height="1" fill="#f5afc0" /><rect x="3" y="8" width="1" height="1" fill="#eaadba" /><rect x="3" y="9" width="1" height="1" fill="#ffc6d4" /><rect x="4" y="0" width="1" height="1" fill="#f9b4c0" /><rect x="4" y="1" width="1" height="1" fill="#fcb9c4" /><rect x="4" y="2" width="1" height="1" fill="#f5b2be" /><rect x="4" y="3" width="1" height="1" fill="#f6b0bd" /><rect x="4" y="4" width="1" height="1" fill="#feb6c1" /><rect x="4" y="5" width="1" height="1" fill="#f4a9b2" /><rect x="4" y="6" width="1" height="1" fill="#fbb2bb" /><rect x="4" y="7" width="1" height="1" fill="#fbb5bc" /><rect x="4" y="8" width="1" height="1" fill="#fcbbc3" /><rect x="4" y="9" width="1" height="1" fill="#fec7cd" /><rect x="5" y="0" width="1" height="1" fill="#f4c5c9" /><rect x="5" y="1" width="1" height="1" fill="#f7c3c8" /><rect x="5" y="2" width="1" height="1" fill="#f4bfc5" /><rect x="5" y="3" width="1" height="1" fill="#f4bac0" /><rect x="5" y="4" width="1" height="1" fill="#f7b7b7" /><rect x="5" y="5" width="1" height="1" fill="#febfbf" /><rect x="5" y="6" width="1" height="1" fill="#ffc0c1" /><rect x="5" y="7" width="1" height="1" fill="#eeb2b2" /><rect x="5" y="8" width="1" height="1" fill="#f5bcbd" /><rect x="5" y="9" width="1" height="1" fill="#ffcecd" /><rect x="6" y="0" width="1" height="1" fill="#87736d" /><rect x="6" y="1" width="1" height="1" fill="#b69896" /><rect x="6" y="2" width="1" height="1" fill="#d6b2b2" /><rect x="6" y="3" width="1" height="1" fill="#f1c6c4" /><rect x="6" y="4" width="1" height="1" fill="#f2c7c1" /><rect x="6" y="5" width="1" height="1" fill="#f5c8c0" /><rect x="6" y="6" width="1" height="1" fill="#f9cdc4" /><rect x="6" y="7" width="1" height="1" fill="#e7beb7" /><rect x="6" y="8" width="1" height="1" fill="#ebc5bc" /><rect x="6" y="9" width="1" height="1" fill="#fee0d9" /><rect x="7" y="0" width="1" height="1" fill="#010400" /><rect x="7" y="1" width="1" height="1" fill="#070501" /><rect x="7" y="2" width="1" height="1" fill="#30271e" /><rect x="7" y="3" width="1" height="1" fill="#7c6d64" /><rect x="7" y="4" width="1" height="1" fill="#ab988a" /><rect x="7" y="5" width="1" height="1" fill="#cbb4a6" /><rect x="7" y="6" width="1" height="1" fill="#e2ccbe" /><rect x="7" y="7" width="1" height="1" fill="#eed9cc" /><rect x="7" y="8" width="1" height="1" fill="#f7e5d6" /><rect x="7" y="9" width="1" height="1" fill="#fff5e6" /><rect x="8" y="0" width="1" height="1" fill="#68947b" /><rect x="8" y="1" width="1" height="1" fill="#30513e" /><rect x="8" y="2" width="1" height="1" fill="#001101" /><rect x="8" y="3" width="1" height="1" fill="#000700" /><rect x="8" y="4" width="1" height="1" fill="#000401" /><rect x="8" y="5" width="1" height="1" fill="#000200" /><rect x="8" y="6" width="1" height="1" fill="#353222" /><rect x="8" y="7" width="1" height="1" fill="#c2c0b2" /><rect x="8" y="8" width="1" height="1" fill="#fefef3" /><rect x="8" y="9" width="1" height="1" fill="#fcfaef" /><rect x="9" y="0" width="1" height="1" fill="#99e2c3" /><rect x="9" y="1" width="1" height="1" fill="#92d3b5" /><rect x="9" y="2" width="1" height="1" fill="#7fb89d" /><rect x="9" y="3" width="1" height="1" fill="#709c84" /><rect x="9" y="4" width="1" height="1" fill="#536b59" /><rect x="9" y="5" width="1" height="1" fill="#010401" /><rect x="9" y="6" width="1" height="1" fill="#96a093" /><rect x="9" y="7" width="1" height="1" fill="#fbfef9" /><rect x="9" y="8" width="1" height="1" fill="#edf2e8" /><rect x="9" y="9" width="1" height="1" fill="#fefefb" /></g></svg>