<svg width="800" height="1000" version="1.1" xmlns="http://www.w3.org/2000/svg" xmlns:xlink="http://www.w3.org/1999/xlink">
  <defs>
      <linearGradient id="Gradient2" x1="0" x2="1" y1="0" y2="1">
        <stop offset="0%" stop-color="#2d3c96"/>
        <stop offset="100%" stop-color="#d53392"/>
      </linearGradient>
  </defs>
  <rect x="10" y="10" width="780" height="980" fill="url(#Gradient2)" rx="50" ry="50" stroke="#ffd700" stroke-width="20"/>
  <text x="400" y="920" width="780" text-anchor="middle" style="font: bold 200px 'Helvetica Neue'; fill: #ffd700">05954</text>

  <g transform="translate(80 80) scale(64)">
<rect x="0" y="0" width="1" height="1" fill="#000000" />
,<rect x="0" y="1" width="1" height="1" fill="#6a3b31" />
,<rect x="0" y="2" width="1" height="1" fill="#99424c" />
,<rect x="0" y="3" width="1" height="1" fill="#543222" />
,<rect x="0" y="4" width="1" height="1" fill="#913f48" />
,<rect x="0" y="5" width="1" height="1" fill="#993c4b" />
,<rect x="0" y="6" width="1" height="1" fill="#973e4b" />
,<rect x="0" y="7" width="1" height="1" fill="#523420" />
,<rect x="0" y="8" width="1" height="1" fill="#5b3728" />
,<rect x="0" y="9" width="1" height="1" fill="#5b3729" />
,<rect x="1" y="0" width="1" height="1" fill="#6a3b31" />
,<rect x="1" y="1" width="1" height="1" fill="#6a3b31" />
,<rect x="1" y="2" width="1" height="1" fill="#6a3b31" />
,<rect x="1" y="3" width="1" height="1" fill="#7e393b" />
,<rect x="1" y="4" width="1" height="1" fill="#693b31" />
,<rect x="1" y="5" width="1" height="1" fill="#663a30" />
,<rect x="1" y="6" width="1" height="1" fill="#7c4654" />
,<rect x="1" y="7" width="1" height="1" fill="#7c4654" />
,<rect x="1" y="8" width="1" height="1" fill="#74687e" />
,<rect x="1" y="9" width="1" height="1" fill="#74697e" />
,<rect x="2" y="0" width="1" height="1" fill="#000000" />
,<rect x="2" y="1" width="1" height="1" fill="#db0050" />
,<rect x="2" y="2" width="1" height="1" fill="#693b31" />
,<rect x="2" y="3" width="1" height="1" fill="#97424c" />
,<rect x="2" y="4" width="1" height="1" fill="#454b5c" />
,<rect x="2" y="5" width="1" height="1" fill="#4b5467" />
,<rect x="2" y="6" width="1" height="1" fill="#4c5367" />
,<rect x="2" y="7" width="1" height="1" fill="#4d5365" />
,<rect x="2" y="8" width="1" height="1" fill="#4d5264" />
,<rect x="2" y="9" width="1" height="1" fill="#5d6680" />
,<rect x="3" y="0" width="1" height="1" fill="#000000" />
,<rect x="3" y="1" width="1" height="1" fill="#6a3b31" />
,<rect x="3" y="2" width="1" height="1" fill="#db0050" />
,<rect x="3" y="3" width="1" height="1" fill="#5d362c" />
,<rect x="3" y="4" width="1" height="1" fill="#5c6480" />
,<rect x="3" y="5" width="1" height="1" fill="#626581" />
,<rect x="3" y="6" width="1" height="1" fill="#515165" />
,<rect x="3" y="7" width="1" height="1" fill="#515265" />
,<rect x="3" y="8" width="1" height="1" fill="#525365" />
,<rect x="3" y="9" width="1" height="1" fill="#4c5368" />
,<rect x="4" y="0" width="1" height="1" fill="#000000" />
,<rect x="4" y="1" width="1" height="1" fill="#6a3b31" />
,<rect x="4" y="2" width="1" height="1" fill="#6a3b31" />
,<rect x="4" y="3" width="1" height="1" fill="#7e4342" />
,<rect x="4" y="4" width="1" height="1" fill="#6f3e3f" />
,<rect x="4" y="5" width="1" height="1" fill="#485268" />
,<rect x="4" y="6" width="1" height="1" fill="#5f6a7f" />
,<rect x="4" y="7" width="1" height="1" fill="#5a5c6e" />
,<rect x="4" y="8" width="1" height="1" fill="#545769" />
,<rect x="4" y="9" width="1" height="1" fill="#616981" />
,<rect x="5" y="0" width="1" height="1" fill="#000000" />
,<rect x="5" y="1" width="1" height="1" fill="#000000" />
,<rect x="5" y="2" width="1" height="1" fill="#000000" />
,<rect x="5" y="3" width="1" height="1" fill="#6a3b31" />
,<rect x="5" y="4" width="1" height="1" fill="#8a494c" />
,<rect x="5" y="5" width="1" height="1" fill="#864752" />
,<rect x="5" y="6" width="1" height="1" fill="#485268" />
,<rect x="5" y="7" width="1" height="1" fill="#5c6177" />
,<rect x="5" y="8" width="1" height="1" fill="#657288" />
,<rect x="5" y="9" width="1" height="1" fill="#485268" />
,<rect x="6" y="0" width="1" height="1" fill="#6a3b31" />
,<rect x="6" y="1" width="1" height="1" fill="#6a3b31" />
,<rect x="6" y="2" width="1" height="1" fill="#6a3b31" />
,<rect x="6" y="3" width="1" height="1" fill="#6a3b31" />
,<rect x="6" y="4" width="1" height="1" fill="#000000" />
,<rect x="6" y="5" width="1" height="1" fill="#050607" />
,<rect x="6" y="6" width="1" height="1" fill="#404a5f" />
,<rect x="6" y="7" width="1" height="1" fill="#485268" />
,<rect x="6" y="8" width="1" height="1" fill="#6f7c93" />
,<rect x="6" y="9" width="1" height="1" fill="#485268" />
,<rect x="7" y="0" width="1" height="1" fill="#6a3b31" />
,<rect x="7" y="1" width="1" height="1" fill="#000000" />
,<rect x="7" y="2" width="1" height="1" fill="#000000" />
,<rect x="7" y="3" width="1" height="1" fill="#000000" />
,<rect x="7" y="4" width="1" height="1" fill="#000000" />
,<rect x="7" y="5" width="1" height="1" fill="#000000" />
,<rect x="7" y="6" width="1" height="1" fill="#000000" />
,<rect x="7" y="7" width="1" height="1" fill="#353d4e" />
,<rect x="7" y="8" width="1" height="1" fill="#5d6a82" />
,<rect x="7" y="9" width="1" height="1" fill="#728199" />
,<rect x="8" y="0" width="1" height="1" fill="#000000" />
,<rect x="8" y="1" width="1" height="1" fill="#000000" />
,<rect x="8" y="2" width="1" height="1" fill="#000000" />
,<rect x="8" y="3" width="1" height="1" fill="#000000" />
,<rect x="8" y="4" width="1" height="1" fill="#000000" />
,<rect x="8" y="5" width="1" height="1" fill="#000000" />
,<rect x="8" y="6" width="1" height="1" fill="#000000" />
,<rect x="8" y="7" width="1" height="1" fill="#242934" />
,<rect x="8" y="8" width="1" height="1" fill="#485268" />
,<rect x="8" y="9" width="1" height="1" fill="#67748d" />
,<rect x="9" y="0" width="1" height="1" fill="#000000" />
,<rect x="9" y="1" width="1" height="1" fill="#000000" />
,<rect x="9" y="2" width="1" height="1" fill="#000000" />
,<rect x="9" y="3" width="1" height="1" fill="#000000" />
,<rect x="9" y="4" width="1" height="1" fill="#000000" />
,<rect x="9" y="5" width="1" height="1" fill="#000000" />
,<rect x="9" y="6" width="1" height="1" fill="#000000" />
,<rect x="9" y="7" width="1" height="1" fill="#000000" />
,<rect x="9" y="8" width="1" height="1" fill="#353d4e" />
,<rect x="9" y="9" width="1" height="1" fill="#485268" />

  </g>
</svg>