<svg width="800" height="1000" xmlns="http://www.w3.org/2000/svg"><defs><linearGradient id="g" x1="0" x2="1" y1="0" y2="1"><stop offset="0%" stop-color="#2d3c96"/><stop offset="100%" stop-color="#d53392"/></linearGradient></defs><rect x="10" y="10" width="780" height="980" fill="url(#g)" rx="50" ry="50" stroke="gold" stroke-width="20"/><text x="400" y="920" width="780" text-anchor="middle" style="font:bold 200px 'Helvetica Neue';fill:gold">05953</text><g transform="translate(80 80) scale(64)"><rect x="0" y="0" width="1" height="1" fill="#000000" /><rect x="0" y="1" width="1" height="1" fill="#000000" /><rect x="0" y="2" width="1" height="1" fill="#000000" /><rect x="0" y="3" width="1" height="1" fill="#000000" /><rect x="0" y="4" width="1" height="1" fill="#000000" /><rect x="0" y="5" width="1" height="1" fill="#000000" /><rect x="0" y="6" width="1" height="1" fill="#000000" /><rect x="0" y="7" width="1" height="1" fill="#000000" /><rect x="0" y="8" width="1" height="1" fill="#353d4e" /><rect x="0" y="9" width="1" height="1" fill="#485268" /><rect x="1" y="0" width="1" height="1" fill="#000000" /><rect x="1" y="1" width="1" height="1" fill="#000000" /><rect x="1" y="2" width="1" height="1" fill="#000000" /><rect x="1" y="3" width="1" height="1" fill="#000000" /><rect x="1" y="4" width="1" height="1" fill="#000000" /><rect x="1" y="5" width="1" height="1" fill="#000000" /><rect x="1" y="6" width="1" height="1" fill="#000000" /><rect x="1" y="7" width="1" height="1" fill="#242934" /><rect x="1" y="8" width="1" height="1" fill="#485268" /><rect x="1" y="9" width="1" height="1" fill="#67748d" /><rect x="2" y="0" width="1" height="1" fill="#6a3b31" /><rect x="2" y="1" width="1" height="1" fill="#000000" /><rect x="2" y="2" width="1" height="1" fill="#000000" /><rect x="2" y="3" width="1" height="1" fill="#000000" /><rect x="2" y="4" width="1" height="1" fill="#000000" /><rect x="2" y="5" width="1" height="1" fill="#000000" /><rect x="2" y="6" width="1" height="1" fill="#000000" /><rect x="2" y="7" width="1" height="1" fill="#353d4e" /><rect x="2" y="8" width="1" height="1" fill="#616e87" /><rect x="2" y="9" width="1" height="1" fill="#76859e" /><rect x="3" y="0" width="1" height="1" fill="#6a3b31" /><rect x="3" y="1" width="1" height="1" fill="#6a3b31" /><rect x="3" y="2" width="1" height="1" fill="#6a3b31" /><rect x="3" y="3" width="1" height="1" fill="#6a3b31" /><rect x="3" y="4" width="1" height="1" fill="#000000" /><rect x="3" y="5" width="1" height="1" fill="#0b0b0a" /><rect x="3" y="6" width="1" height="1" fill="#414b60" /><rect x="3" y="7" width="1" height="1" fill="#485268" /><rect x="3" y="8" width="1" height="1" fill="#707e96" /><rect x="3" y="9" width="1" height="1" fill="#485268" /><rect x="4" y="0" width="1" height="1" fill="#000000" /><rect x="4" y="1" width="1" height="1" fill="#000000" /><rect x="4" y="2" width="1" height="1" fill="#050604" /><rect x="4" y="3" width="1" height="1" fill="#6a3b31" /><rect x="4" y="4" width="1" height="1" fill="#4e3925" /><rect x="4" y="5" width="1" height="1" fill="#4d392e" /><rect x="4" y="6" width="1" height="1" fill="#485268" /><rect x="4" y="7" width="1" height="1" fill="#585e70" /><rect x="4" y="8" width="1" height="1" fill="#6b7991" /><rect x="4" y="9" width="1" height="1" fill="#485268" /><rect x="5" y="0" width="1" height="1" fill="#000000" /><rect x="5" y="1" width="1" height="1" fill="#6a3b31" /><rect x="5" y="2" width="1" height="1" fill="#6a3b31" /><rect x="5" y="3" width="1" height="1" fill="#563a2c" /><rect x="5" y="4" width="1" height="1" fill="#663f3a" /><rect x="5" y="5" width="1" height="1" fill="#485268" /><rect x="5" y="6" width="1" height="1" fill="#5f6a7f" /><rect x="5" y="7" width="1" height="1" fill="#5c6172" /><rect x="5" y="8" width="1" height="1" fill="#525768" /><rect x="5" y="9" width="1" height="1" fill="#6e7b93" /><rect x="6" y="0" width="1" height="1" fill="#000000" /><rect x="6" y="1" width="1" height="1" fill="#6a3b31" /><rect x="6" y="2" width="1" height="1" fill="#bf0046" /><rect x="6" y="3" width="1" height="1" fill="#52392e" /><rect x="6" y="4" width="1" height="1" fill="#5a5461" /><rect x="6" y="5" width="1" height="1" fill="#5a6279" /><rect x="6" y="6" width="1" height="1" fill="#4a5264" /><rect x="6" y="7" width="1" height="1" fill="#4a5162" /><rect x="6" y="8" width="1" height="1" fill="#4c5160" /><rect x="6" y="9" width="1" height="1" fill="#4a5367" /><rect x="7" y="0" width="1" height="1" fill="#000000" /><rect x="7" y="1" width="1" height="1" fill="#bf0046" /><rect x="7" y="2" width="1" height="1" fill="#6a3a30" /><rect x="7" y="3" width="1" height="1" fill="#673c33" /><rect x="7" y="4" width="1" height="1" fill="#454b5b" /><rect x="7" y="5" width="1" height="1" fill="#4b5366" /><rect x="7" y="6" width="1" height="1" fill="#4b5365" /><rect x="7" y="7" width="1" height="1" fill="#4c5365" /><rect x="7" y="8" width="1" height="1" fill="#4b5568" /><rect x="7" y="9" width="1" height="1" fill="#5a6682" /><rect x="8" y="0" width="1" height="1" fill="#623a2c" /><rect x="8" y="1" width="1" height="1" fill="#6b3a30" /><rect x="8" y="2" width="1" height="1" fill="#6b3b30" /><rect x="8" y="3" width="1" height="1" fill="#5d3628" /><rect x="8" y="4" width="1" height="1" fill="#833b3e" /><rect x="8" y="5" width="1" height="1" fill="#573826" /><rect x="8" y="6" width="1" height="1" fill="#58423a" /><rect x="8" y="7" width="1" height="1" fill="#58423a" /><rect x="8" y="8" width="1" height="1" fill="#676777" /><rect x="8" y="9" width="1" height="1" fill="#676877" /><rect x="9" y="0" width="1" height="1" fill="#000000" /><rect x="9" y="1" width="1" height="1" fill="#6a3b31" /><rect x="9" y="2" width="1" height="1" fill="#803e3e" /><rect x="9" y="3" width="1" height="1" fill="#50301e" /><rect x="9" y="4" width="1" height="1" fill="#7d383a" /><rect x="9" y="5" width="1" height="1" fill="#833b3e" /><rect x="9" y="6" width="1" height="1" fill="#813d3e" /><rect x="9" y="7" width="1" height="1" fill="#4e3320" /><rect x="9" y="8" width="1" height="1" fill="#573725" /><rect x="9" y="9" width="1" height="1" fill="#593728" /></g></svg>