<svg width="800" height="1000" xmlns="http://www.w3.org/2000/svg"><defs><linearGradient id="g" x1="0" x2="1" y1="0" y2="1"><stop offset="0%" stop-color="#2d3c96"/><stop offset="100%" stop-color="#d53392"/></linearGradient></defs><rect x="10" y="10" width="780" height="980" fill="url(#g)" rx="50" ry="50" stroke="gold" stroke-width="20"/><text x="400" y="920" width="780" text-anchor="middle" style="font:bold 200px 'Helvetica Neue';fill:gold">06031</text><g transform="translate(80 80) scale(64)"><rect x="0" y="0" width="1" height="1" fill="#4d748a" /><rect x="0" y="1" width="1" height="1" fill="#3a5b64" /><rect x="0" y="2" width="1" height="1" fill="#889058" /><rect x="0" y="3" width="1" height="1" fill="#ad915b" /><rect x="0" y="4" width="1" height="1" fill="#9d8465" /><rect x="0" y="5" width="1" height="1" fill="#917d64" /><rect x="0" y="6" width="1" height="1" fill="#816961" /><rect x="0" y="7" width="1" height="1" fill="#727559" /><rect x="0" y="8" width="1" height="1" fill="#b2c996" /><rect x="0" y="9" width="1" height="1" fill="#f9ffcc" /><rect x="1" y="0" width="1" height="1" fill="#687879" /><rect x="1" y="1" width="1" height="1" fill="#4f6a74" /><rect x="1" y="2" width="1" height="1" fill="#3c6087" /><rect x="1" y="3" width="1" height="1" fill="#33617c" /><rect x="1" y="4" width="1" height="1" fill="#2e6072" /><rect x="1" y="5" width="1" height="1" fill="#2d5771" /><rect x="1" y="6" width="1" height="1" fill="#617a6a" /><rect x="1" y="7" width="1" height="1" fill="#bce09a" /><rect x="1" y="8" width="1" height="1" fill="#ffffd2" /><rect x="1" y="9" width="1" height="1" fill="#f7ffb5" /><rect x="2" y="0" width="1" height="1" fill="#57777d" /><rect x="2" y="1" width="1" height="1" fill="#556276" /><rect x="2" y="2" width="1" height="1" fill="#576684" /><rect x="2" y="3" width="1" height="1" fill="#4a7482" /><rect x="2" y="4" width="1" height="1" fill="#5a7c87" /><rect x="2" y="5" width="1" height="1" fill="#8fa47b" /><rect x="2" y="6" width="1" height="1" fill="#e5fc93" /><rect x="2" y="7" width="1" height="1" fill="#ffffba" /><rect x="2" y="8" width="1" height="1" fill="#ffff7f" /><rect x="2" y="9" width="1" height="1" fill="#baa25c" /><rect x="3" y="0" width="1" height="1" fill="#677d72" /><rect x="3" y="1" width="1" height="1" fill="#667065" /><rect x="3" y="2" width="1" height="1" fill="#5f7967" /><rect x="3" y="3" width="1" height="1" fill="#769d82" /><rect x="3" y="4" width="1" height="1" fill="#c7d577" /><rect x="3" y="5" width="1" height="1" fill="#f1e961" /><rect x="3" y="6" width="1" height="1" fill="#ffff97" /><rect x="3" y="7" width="1" height="1" fill="#ffff90" /><rect x="3" y="8" width="1" height="1" fill="#ffff6e" /><rect x="3" y="9" width="1" height="1" fill="#b2ac7a" /><rect x="4" y="0" width="1" height="1" fill="#8eab6a" /><rect x="4" y="1" width="1" height="1" fill="#9aa062" /><rect x="4" y="2" width="1" height="1" fill="#b0bf7d" /><rect x="4" y="3" width="1" height="1" fill="#e4e982" /><rect x="4" y="4" width="1" height="1" fill="#fff062" /><rect x="4" y="5" width="1" height="1" fill="#fff468" /><rect x="4" y="6" width="1" height="1" fill="#fcf165" /><rect x="4" y="7" width="1" height="1" fill="#ffff76" /><rect x="4" y="8" width="1" height="1" fill="#ffff8b" /><rect x="4" y="9" width="1" height="1" fill="#ffff59" /><rect x="5" y="0" width="1" height="1" fill="#7fa992" /><rect x="5" y="1" width="1" height="1" fill="#acceb7" /><rect x="5" y="2" width="1" height="1" fill="#ace5b0" /><rect x="5" y="3" width="1" height="1" fill="#a4b77f" /><rect x="5" y="4" width="1" height="1" fill="#a6956b" /><rect x="5" y="5" width="1" height="1" fill="#c9b76e" /><rect x="5" y="6" width="1" height="1" fill="#e0c353" /><rect x="5" y="7" width="1" height="1" fill="#ffffa4" /><rect x="5" y="8" width="1" height="1" fill="#fbffac" /><rect x="5" y="9" width="1" height="1" fill="#e1d14d" /><rect x="6" y="0" width="1" height="1" fill="#78a597" /><rect x="6" y="1" width="1" height="1" fill="#89a399" /><rect x="6" y="2" width="1" height="1" fill="#729789" /><rect x="6" y="3" width="1" height="1" fill="#64817c" /><rect x="6" y="4" width="1" height="1" fill="#737f72" /><rect x="6" y="5" width="1" height="1" fill="#797d68" /><rect x="6" y="6" width="1" height="1" fill="#c1b06f" /><rect x="6" y="7" width="1" height="1" fill="#ffffa0" /><rect x="6" y="8" width="1" height="1" fill="#ffff77" /><rect x="6" y="9" width="1" height="1" fill="#c8b570" /><rect x="7" y="0" width="1" height="1" fill="#5b747c" /><rect x="7" y="1" width="1" height="1" fill="#435e5e" /><rect x="7" y="2" width="1" height="1" fill="#506472" /><rect x="7" y="3" width="1" height="1" fill="#59797b" /><rect x="7" y="4" width="1" height="1" fill="#587479" /><rect x="7" y="5" width="1" height="1" fill="#688b6f" /><rect x="7" y="6" width="1" height="1" fill="#84a879" /><rect x="7" y="7" width="1" height="1" fill="#b7c17a" /><rect x="7" y="8" width="1" height="1" fill="#e8df55" /><rect x="7" y="9" width="1" height="1" fill="#ffff74" /><rect x="8" y="0" width="1" height="1" fill="#637a8d" /><rect x="8" y="1" width="1" height="1" fill="#50787b" /><rect x="8" y="2" width="1" height="1" fill="#56777f" /><rect x="8" y="3" width="1" height="1" fill="#536d7d" /><rect x="8" y="4" width="1" height="1" fill="#536a73" /><rect x="8" y="5" width="1" height="1" fill="#5b7e85" /><rect x="8" y="6" width="1" height="1" fill="#5b8c8a" /><rect x="8" y="7" width="1" height="1" fill="#8aa299" /><rect x="8" y="8" width="1" height="1" fill="#b0c09b" /><rect x="8" y="9" width="1" height="1" fill="#d5e383" /><rect x="9" y="0" width="1" height="1" fill="#587e8a" /><rect x="9" y="1" width="1" height="1" fill="#56767a" /><rect x="9" y="2" width="1" height="1" fill="#3e6774" /><rect x="9" y="3" width="1" height="1" fill="#385882" /><rect x="9" y="4" width="1" height="1" fill="#7d9b9a" /><rect x="9" y="5" width="1" height="1" fill="#b5c9a5" /><rect x="9" y="6" width="1" height="1" fill="#f4ec99" /><rect x="9" y="7" width="1" height="1" fill="#fff277" /><rect x="9" y="8" width="1" height="1" fill="#fff77b" /><rect x="9" y="9" width="1" height="1" fill="#ffff71" /></g></svg>