<svg width="800" height="1000" version="1.1" xmlns="http://www.w3.org/2000/svg" xmlns:xlink="http://www.w3.org/1999/xlink">
  <defs>
      <linearGradient id="Gradient2" x1="0" x2="1" y1="0" y2="1">
        <stop offset="0%" stop-color="#2d3c96"/>
        <stop offset="100%" stop-color="#d53392"/>
      </linearGradient>
  </defs>
  <rect x="10" y="10" width="780" height="980" fill="url(#Gradient2)" rx="50" ry="50" stroke="#ffd700" stroke-width="20"/>
  <text x="400" y="920" width="780" text-anchor="middle" style="font: bold 200px 'Helvetica Neue'; fill: #ffd700">06030</text>

  <g transform="translate(80 80) scale(64)">
<rect x="0" y="0" width="1" height="1" fill="#5F8999" /><rect x="1" y="0" width="1" height="1" fill="#687694" /><rect x="2" y="0" width="1" height="1" fill="#5B7B89" /><rect x="3" y="0" width="1" height="1" fill="#5C7583" /><rect x="4" y="0" width="1" height="1" fill="#677589" /><rect x="5" y="0" width="1" height="1" fill="#5D788A" /><rect x="6" y="0" width="1" height="1" fill="#5A7389" /><rect x="7" y="0" width="1" height="1" fill="#315D79" /><rect x="8" y="0" width="1" height="1" fill="#55748A" /><rect x="9" y="0" width="1" height="1" fill="#517086" /><rect x="0" y="1" width="1" height="1" fill="#4F797C" /><rect x="1" y="1" width="1" height="1" fill="#477785" /><rect x="2" y="1" width="1" height="1" fill="#526F84" /><rect x="3" y="1" width="1" height="1" fill="#4E6F78" /><rect x="4" y="1" width="1" height="1" fill="#52756E" /><rect x="5" y="1" width="1" height="1" fill="#39667A" /><rect x="6" y="1" width="1" height="1" fill="#32586A" /><rect x="7" y="1" width="1" height="1" fill="#A8BE9F" /><rect x="8" y="1" width="1" height="1" fill="#F0FAB5" /><rect x="9" y="1" width="1" height="1" fill="#C3C774" /><rect x="0" y="2" width="1" height="1" fill="#587781" /><rect x="1" y="2" width="1" height="1" fill="#597B7C" /><rect x="2" y="2" width="1" height="1" fill="#4F7883" /><rect x="3" y="2" width="1" height="1" fill="#507F8A" /><rect x="4" y="2" width="1" height="1" fill="#386788" /><rect x="5" y="2" width="1" height="1" fill="#486682" /><rect x="6" y="2" width="1" height="1" fill="#D0D2A4" /><rect x="7" y="2" width="1" height="1" fill="#FFF28E" /><rect x="8" y="2" width="1" height="1" fill="#FFE765" /><rect x="9" y="2" width="1" height="1" fill="#FFF05D" /><rect x="0" y="3" width="1" height="1" fill="#62708E" /><rect x="1" y="3" width="1" height="1" fill="#4F7379" /><rect x="2" y="3" width="1" height="1" fill="#4E7A8A" /><rect x="3" y="3" width="1" height="1" fill="#43738E" /><rect x="4" y="3" width="1" height="1" fill="#367E9B" /><rect x="5" y="3" width="1" height="1" fill="#D7C799" /><rect x="6" y="3" width="1" height="1" fill="#FFD76A" /><rect x="7" y="3" width="1" height="1" fill="#FFD34B" /><rect x="8" y="3" width="1" height="1" fill="#FFFD55" /><rect x="9" y="3" width="1" height="1" fill="#FFD44C" /><rect x="0" y="4" width="1" height="1" fill="#627C8C" /><rect x="1" y="4" width="1" height="1" fill="#4C737C" /><rect x="2" y="4" width="1" height="1" fill="#4D7592" /><rect x="3" y="4" width="1" height="1" fill="#3075A5" /><rect x="4" y="4" width="1" height="1" fill="#A0C5AB" /><rect x="5" y="4" width="1" height="1" fill="#FFE46B" /><rect x="6" y="4" width="1" height="1" fill="#FFE049" /><rect x="7" y="4" width="1" height="1" fill="#FFFF4B" /><rect x="8" y="4" width="1" height="1" fill="#FFFA49" /><rect x="9" y="4" width="1" height="1" fill="#FFCA58" /><rect x="0" y="5" width="1" height="1" fill="#58737B" /><rect x="1" y="5" width="1" height="1" fill="#506A70" /><rect x="2" y="5" width="1" height="1" fill="#3F7599" /><rect x="3" y="5" width="1" height="1" fill="#61ABC8" /><rect x="4" y="5" width="1" height="1" fill="#FFDD87" /><rect x="5" y="5" width="1" height="1" fill="#FFDB49" /><rect x="6" y="5" width="1" height="1" fill="#FFFF4B" /><rect x="7" y="5" width="1" height="1" fill="#FFFF51" /><rect x="8" y="5" width="1" height="1" fill="#FFF951" /><rect x="9" y="5" width="1" height="1" fill="#FFC856" /><rect x="0" y="6" width="1" height="1" fill="#6789A2" /><rect x="1" y="6" width="1" height="1" fill="#5091B0" /><rect x="2" y="6" width="1" height="1" fill="#2F7FA9" /><rect x="3" y="6" width="1" height="1" fill="#A5B797" /><rect x="4" y="6" width="1" height="1" fill="#FFEA4E" /><rect x="5" y="6" width="1" height="1" fill="#FFFB49" /><rect x="6" y="6" width="1" height="1" fill="#FFE65F" /><rect x="7" y="6" width="1" height="1" fill="#DCC382" /><rect x="8" y="6" width="1" height="1" fill="#FFFF73" /><rect x="9" y="6" width="1" height="1" fill="#FFC653" /><rect x="0" y="7" width="1" height="1" fill="#55A2C3" /><rect x="1" y="7" width="1" height="1" fill="#37BCF0" /><rect x="2" y="7" width="1" height="1" fill="#4AB2CC" /><rect x="3" y="7" width="1" height="1" fill="#FADE8C" /><rect x="4" y="7" width="1" height="1" fill="#FFF548" /><rect x="5" y="7" width="1" height="1" fill="#FFFE50" /><rect x="6" y="7" width="1" height="1" fill="#B18A62" /><rect x="7" y="7" width="1" height="1" fill="#635C5B" /><rect x="8" y="7" width="1" height="1" fill="#FFFF99" /><rect x="9" y="7" width="1" height="1" fill="#FFBB59" /><rect x="0" y="8" width="1" height="1" fill="#6087A8" /><rect x="1" y="8" width="1" height="1" fill="#2E8AC3" /><rect x="2" y="8" width="1" height="1" fill="#75AEB7" /><rect x="3" y="8" width="1" height="1" fill="#FFF469" /><rect x="4" y="8" width="1" height="1" fill="#FFFF49" /><rect x="5" y="8" width="1" height="1" fill="#FFD75B" /><rect x="6" y="8" width="1" height="1" fill="#7B5F53" /><rect x="7" y="8" width="1" height="1" fill="#698484" /><rect x="8" y="8" width="1" height="1" fill="#EAFFB5" /><rect x="9" y="8" width="1" height="1" fill="#DA9A4A" /><rect x="0" y="9" width="1" height="1" fill="#5B939B" /><rect x="1" y="9" width="1" height="1" fill="#2B6D97" /><rect x="2" y="9" width="1" height="1" fill="#A0C295" /><rect x="3" y="9" width="1" height="1" fill="#FFFE66" /><rect x="4" y="9" width="1" height="1" fill="#FFFF49" /><rect x="5" y="9" width="1" height="1" fill="#DCC259" /><rect x="6" y="9" width="1" height="1" fill="#936F56" /><rect x="7" y="9" width="1" height="1" fill="#5BA9C7" /><rect x="8" y="9" width="1" height="1" fill="#BBDBAD" /><rect x="9" y="9" width="1" height="1" fill="#DE9D50" />
  </g>
</svg>