<svg width="800" height="1000" version="1.1" xmlns="http://www.w3.org/2000/svg" xmlns:xlink="http://www.w3.org/1999/xlink">
  <defs>
      <linearGradient id="Gradient2" x1="0" x2="1" y1="0" y2="1">
        <stop offset="0%" stop-color="#2d3c96"/>
        <stop offset="100%" stop-color="#d53392"/>
      </linearGradient>
  </defs>
  <rect x="10" y="10" width="780" height="980" fill="url(#Gradient2)" rx="50" ry="50" stroke="#ffd700" stroke-width="20"/>
  <text x="400" y="920" width="780" text-anchor="middle" style="font: bold 200px 'Helvetica Neue'; fill: #ffd700">06031</text>

  <g transform="translate(80 80) scale(64)">
<rect x="0" y="0" width="1" height="1" fill="#4D748A" /><rect x="1" y="0" width="1" height="1" fill="#687879" /><rect x="2" y="0" width="1" height="1" fill="#57777D" /><rect x="3" y="0" width="1" height="1" fill="#677D72" /><rect x="4" y="0" width="1" height="1" fill="#8EAB6A" /><rect x="5" y="0" width="1" height="1" fill="#7FA992" /><rect x="6" y="0" width="1" height="1" fill="#78A597" /><rect x="7" y="0" width="1" height="1" fill="#5B747C" /><rect x="8" y="0" width="1" height="1" fill="#637A8D" /><rect x="9" y="0" width="1" height="1" fill="#587E8A" /><rect x="0" y="1" width="1" height="1" fill="#3A5B64" /><rect x="1" y="1" width="1" height="1" fill="#4F6A74" /><rect x="2" y="1" width="1" height="1" fill="#556276" /><rect x="3" y="1" width="1" height="1" fill="#667065" /><rect x="4" y="1" width="1" height="1" fill="#9AA062" /><rect x="5" y="1" width="1" height="1" fill="#ACCEB7" /><rect x="6" y="1" width="1" height="1" fill="#89A399" /><rect x="7" y="1" width="1" height="1" fill="#435E5E" /><rect x="8" y="1" width="1" height="1" fill="#50787B" /><rect x="9" y="1" width="1" height="1" fill="#56767A" /><rect x="0" y="2" width="1" height="1" fill="#889058" /><rect x="1" y="2" width="1" height="1" fill="#3C6087" /><rect x="2" y="2" width="1" height="1" fill="#576684" /><rect x="3" y="2" width="1" height="1" fill="#5F7967" /><rect x="4" y="2" width="1" height="1" fill="#B0BF7D" /><rect x="5" y="2" width="1" height="1" fill="#ACE5B0" /><rect x="6" y="2" width="1" height="1" fill="#729789" /><rect x="7" y="2" width="1" height="1" fill="#506472" /><rect x="8" y="2" width="1" height="1" fill="#56777F" /><rect x="9" y="2" width="1" height="1" fill="#3E6774" /><rect x="0" y="3" width="1" height="1" fill="#AD915B" /><rect x="1" y="3" width="1" height="1" fill="#33617C" /><rect x="2" y="3" width="1" height="1" fill="#4A7482" /><rect x="3" y="3" width="1" height="1" fill="#769D82" /><rect x="4" y="3" width="1" height="1" fill="#E4E982" /><rect x="5" y="3" width="1" height="1" fill="#A4B77F" /><rect x="6" y="3" width="1" height="1" fill="#64817C" /><rect x="7" y="3" width="1" height="1" fill="#59797B" /><rect x="8" y="3" width="1" height="1" fill="#536D7D" /><rect x="9" y="3" width="1" height="1" fill="#385882" /><rect x="0" y="4" width="1" height="1" fill="#9D8465" /><rect x="1" y="4" width="1" height="1" fill="#2E6072" /><rect x="2" y="4" width="1" height="1" fill="#5A7C87" /><rect x="3" y="4" width="1" height="1" fill="#C7D577" /><rect x="4" y="4" width="1" height="1" fill="#FFF062" /><rect x="5" y="4" width="1" height="1" fill="#A6956B" /><rect x="6" y="4" width="1" height="1" fill="#737F72" /><rect x="7" y="4" width="1" height="1" fill="#587479" /><rect x="8" y="4" width="1" height="1" fill="#536A73" /><rect x="9" y="4" width="1" height="1" fill="#7D9B9A" /><rect x="0" y="5" width="1" height="1" fill="#917D64" /><rect x="1" y="5" width="1" height="1" fill="#2D5771" /><rect x="2" y="5" width="1" height="1" fill="#8FA47B" /><rect x="3" y="5" width="1" height="1" fill="#F1E961" /><rect x="4" y="5" width="1" height="1" fill="#FFF468" /><rect x="5" y="5" width="1" height="1" fill="#C9B76E" /><rect x="6" y="5" width="1" height="1" fill="#797D68" /><rect x="7" y="5" width="1" height="1" fill="#688B6F" /><rect x="8" y="5" width="1" height="1" fill="#5B7E85" /><rect x="9" y="5" width="1" height="1" fill="#B5C9A5" /><rect x="0" y="6" width="1" height="1" fill="#816961" /><rect x="1" y="6" width="1" height="1" fill="#617A6A" /><rect x="2" y="6" width="1" height="1" fill="#E5FC93" /><rect x="3" y="6" width="1" height="1" fill="#FFFF97" /><rect x="4" y="6" width="1" height="1" fill="#FCF165" /><rect x="5" y="6" width="1" height="1" fill="#E0C353" /><rect x="6" y="6" width="1" height="1" fill="#C1B06F" /><rect x="7" y="6" width="1" height="1" fill="#84A879" /><rect x="8" y="6" width="1" height="1" fill="#5B8C8A" /><rect x="9" y="6" width="1" height="1" fill="#F4EC99" /><rect x="0" y="7" width="1" height="1" fill="#727559" /><rect x="1" y="7" width="1" height="1" fill="#BCE09A" /><rect x="2" y="7" width="1" height="1" fill="#FFFFBA" /><rect x="3" y="7" width="1" height="1" fill="#FFFF90" /><rect x="4" y="7" width="1" height="1" fill="#FFFF76" /><rect x="5" y="7" width="1" height="1" fill="#FFFFA4" /><rect x="6" y="7" width="1" height="1" fill="#FFFFA0" /><rect x="7" y="7" width="1" height="1" fill="#B7C17A" /><rect x="8" y="7" width="1" height="1" fill="#8AA299" /><rect x="9" y="7" width="1" height="1" fill="#FFF277" /><rect x="0" y="8" width="1" height="1" fill="#B2C996" /><rect x="1" y="8" width="1" height="1" fill="#FFFFD2" /><rect x="2" y="8" width="1" height="1" fill="#FFFF7F" /><rect x="3" y="8" width="1" height="1" fill="#FFFF6E" /><rect x="4" y="8" width="1" height="1" fill="#FFFF8B" /><rect x="5" y="8" width="1" height="1" fill="#FBFFAC" /><rect x="6" y="8" width="1" height="1" fill="#FFFF77" /><rect x="7" y="8" width="1" height="1" fill="#E8DF55" /><rect x="8" y="8" width="1" height="1" fill="#B0C09B" /><rect x="9" y="8" width="1" height="1" fill="#FFF77B" /><rect x="0" y="9" width="1" height="1" fill="#F9FFCC" /><rect x="1" y="9" width="1" height="1" fill="#F7FFB5" /><rect x="2" y="9" width="1" height="1" fill="#BAA25C" /><rect x="3" y="9" width="1" height="1" fill="#B2AC7A" /><rect x="4" y="9" width="1" height="1" fill="#FFFF59" /><rect x="5" y="9" width="1" height="1" fill="#E1D14D" /><rect x="6" y="9" width="1" height="1" fill="#C8B570" /><rect x="7" y="9" width="1" height="1" fill="#FFFF74" /><rect x="8" y="9" width="1" height="1" fill="#D5E383" /><rect x="9" y="9" width="1" height="1" fill="#FFFF71" />
  </g>
</svg>