<svg width="800" height="1000" xmlns="http://www.w3.org/2000/svg"><defs><linearGradient id="g" x1="0" x2="1" y1="0" y2="1"><stop offset="0%" stop-color="#2d3c96"/><stop offset="100%" stop-color="#d53392"/></linearGradient></defs><rect x="10" y="10" width="780" height="980" fill="url(#g)" rx="50" ry="50" stroke="gold" stroke-width="20"/><text x="400" y="920" width="780" text-anchor="middle" style="font:bold 200px 'Helvetica Neue';fill:gold">06030</text><g transform="translate(80 80) scale(64)"><rect x="0" y="0" width="1" height="1" fill="#5f8999" /><rect x="0" y="1" width="1" height="1" fill="#4f797c" /><rect x="0" y="2" width="1" height="1" fill="#587781" /><rect x="0" y="3" width="1" height="1" fill="#62708e" /><rect x="0" y="4" width="1" height="1" fill="#627c8c" /><rect x="0" y="5" width="1" height="1" fill="#58737b" /><rect x="0" y="6" width="1" height="1" fill="#6789a2" /><rect x="0" y="7" width="1" height="1" fill="#55a2c3" /><rect x="0" y="8" width="1" height="1" fill="#6087a8" /><rect x="0" y="9" width="1" height="1" fill="#5b939b" /><rect x="1" y="0" width="1" height="1" fill="#687694" /><rect x="1" y="1" width="1" height="1" fill="#477785" /><rect x="1" y="2" width="1" height="1" fill="#597b7c" /><rect x="1" y="3" width="1" height="1" fill="#4f7379" /><rect x="1" y="4" width="1" height="1" fill="#4c737c" /><rect x="1" y="5" width="1" height="1" fill="#506a70" /><rect x="1" y="6" width="1" height="1" fill="#5091b0" /><rect x="1" y="7" width="1" height="1" fill="#37bcf0" /><rect x="1" y="8" width="1" height="1" fill="#2e8ac3" /><rect x="1" y="9" width="1" height="1" fill="#2b6d97" /><rect x="2" y="0" width="1" height="1" fill="#5b7b89" /><rect x="2" y="1" width="1" height="1" fill="#526f84" /><rect x="2" y="2" width="1" height="1" fill="#4f7883" /><rect x="2" y="3" width="1" height="1" fill="#4e7a8a" /><rect x="2" y="4" width="1" height="1" fill="#4d7592" /><rect x="2" y="5" width="1" height="1" fill="#3f7599" /><rect x="2" y="6" width="1" height="1" fill="#2f7fa9" /><rect x="2" y="7" width="1" height="1" fill="#4ab2cc" /><rect x="2" y="8" width="1" height="1" fill="#75aeb7" /><rect x="2" y="9" width="1" height="1" fill="#a0c295" /><rect x="3" y="0" width="1" height="1" fill="#5c7583" /><rect x="3" y="1" width="1" height="1" fill="#4e6f78" /><rect x="3" y="2" width="1" height="1" fill="#507f8a" /><rect x="3" y="3" width="1" height="1" fill="#43738e" /><rect x="3" y="4" width="1" height="1" fill="#3075a5" /><rect x="3" y="5" width="1" height="1" fill="#61abc8" /><rect x="3" y="6" width="1" height="1" fill="#a5b797" /><rect x="3" y="7" width="1" height="1" fill="#fade8c" /><rect x="3" y="8" width="1" height="1" fill="#fff469" /><rect x="3" y="9" width="1" height="1" fill="#fffe66" /><rect x="4" y="0" width="1" height="1" fill="#677589" /><rect x="4" y="1" width="1" height="1" fill="#52756e" /><rect x="4" y="2" width="1" height="1" fill="#386788" /><rect x="4" y="3" width="1" height="1" fill="#367e9b" /><rect x="4" y="4" width="1" height="1" fill="#a0c5ab" /><rect x="4" y="5" width="1" height="1" fill="#ffdd87" /><rect x="4" y="6" width="1" height="1" fill="#ffea4e" /><rect x="4" y="7" width="1" height="1" fill="#fff548" /><rect x="4" y="8" width="1" height="1" fill="#ffff49" /><rect x="4" y="9" width="1" height="1" fill="#ffff49" /><rect x="5" y="0" width="1" height="1" fill="#5d788a" /><rect x="5" y="1" width="1" height="1" fill="#39667a" /><rect x="5" y="2" width="1" height="1" fill="#486682" /><rect x="5" y="3" width="1" height="1" fill="#d7c799" /><rect x="5" y="4" width="1" height="1" fill="#ffe46b" /><rect x="5" y="5" width="1" height="1" fill="#ffdb49" /><rect x="5" y="6" width="1" height="1" fill="#fffb49" /><rect x="5" y="7" width="1" height="1" fill="#fffe50" /><rect x="5" y="8" width="1" height="1" fill="#ffd75b" /><rect x="5" y="9" width="1" height="1" fill="#dcc259" /><rect x="6" y="0" width="1" height="1" fill="#5a7389" /><rect x="6" y="1" width="1" height="1" fill="#32586a" /><rect x="6" y="2" width="1" height="1" fill="#d0d2a4" /><rect x="6" y="3" width="1" height="1" fill="#ffd76a" /><rect x="6" y="4" width="1" height="1" fill="#ffe049" /><rect x="6" y="5" width="1" height="1" fill="#ffff4b" /><rect x="6" y="6" width="1" height="1" fill="#ffe65f" /><rect x="6" y="7" width="1" height="1" fill="#b18a62" /><rect x="6" y="8" width="1" height="1" fill="#7b5f53" /><rect x="6" y="9" width="1" height="1" fill="#936f56" /><rect x="7" y="0" width="1" height="1" fill="#315d79" /><rect x="7" y="1" width="1" height="1" fill="#a8be9f" /><rect x="7" y="2" width="1" height="1" fill="#fff28e" /><rect x="7" y="3" width="1" height="1" fill="#ffd34b" /><rect x="7" y="4" width="1" height="1" fill="#ffff4b" /><rect x="7" y="5" width="1" height="1" fill="#ffff51" /><rect x="7" y="6" width="1" height="1" fill="#dcc382" /><rect x="7" y="7" width="1" height="1" fill="#635c5b" /><rect x="7" y="8" width="1" height="1" fill="#698484" /><rect x="7" y="9" width="1" height="1" fill="#5ba9c7" /><rect x="8" y="0" width="1" height="1" fill="#55748a" /><rect x="8" y="1" width="1" height="1" fill="#f0fab5" /><rect x="8" y="2" width="1" height="1" fill="#ffe765" /><rect x="8" y="3" width="1" height="1" fill="#fffd55" /><rect x="8" y="4" width="1" height="1" fill="#fffa49" /><rect x="8" y="5" width="1" height="1" fill="#fff951" /><rect x="8" y="6" width="1" height="1" fill="#ffff73" /><rect x="8" y="7" width="1" height="1" fill="#ffff99" /><rect x="8" y="8" width="1" height="1" fill="#eaffb5" /><rect x="8" y="9" width="1" height="1" fill="#bbdbad" /><rect x="9" y="0" width="1" height="1" fill="#517086" /><rect x="9" y="1" width="1" height="1" fill="#c3c774" /><rect x="9" y="2" width="1" height="1" fill="#fff05d" /><rect x="9" y="3" width="1" height="1" fill="#ffd44c" /><rect x="9" y="4" width="1" height="1" fill="#ffca58" /><rect x="9" y="5" width="1" height="1" fill="#ffc856" /><rect x="9" y="6" width="1" height="1" fill="#ffc653" /><rect x="9" y="7" width="1" height="1" fill="#ffbb59" /><rect x="9" y="8" width="1" height="1" fill="#da9a4a" /><rect x="9" y="9" width="1" height="1" fill="#de9d50" /></g></svg>