<svg width="800" height="1000" version="1.1" xmlns="http://www.w3.org/2000/svg" xmlns:xlink="http://www.w3.org/1999/xlink">
  <defs>
      <linearGradient id="Gradient2" x1="0" x2="1" y1="0" y2="1">
        <stop offset="0%" stop-color="#2d3c96"/>
        <stop offset="100%" stop-color="#d53392"/>
      </linearGradient>
  </defs>
  <rect x="10" y="10" width="780" height="980" fill="url(#Gradient2)" rx="50" ry="50" stroke="#ffd700" stroke-width="20"/>
  <text x="400" y="920" width="780" text-anchor="middle" style="font: bold 200px 'Helvetica Neue'; fill: #ffd700">06032</text>

  <g transform="translate(80 80) scale(64)">
<rect x="0" y="0" width="1" height="1" fill="#678162" />
,<rect x="0" y="1" width="1" height="1" fill="#3f6460" />
,<rect x="0" y="2" width="1" height="1" fill="#4c7a73" />
,<rect x="0" y="3" width="1" height="1" fill="#b9cb79" />
,<rect x="0" y="4" width="1" height="1" fill="#ffff70" />
,<rect x="0" y="5" width="1" height="1" fill="#ffff53" />
,<rect x="0" y="6" width="1" height="1" fill="#ffff2f" />
,<rect x="0" y="7" width="1" height="1" fill="#ffff2f" />
,<rect x="0" y="8" width="1" height="1" fill="#ffff2f" />
,<rect x="0" y="9" width="1" height="1" fill="#ffff30" />
,<rect x="1" y="0" width="1" height="1" fill="#507e60" />
,<rect x="1" y="1" width="1" height="1" fill="#5d7756" />
,<rect x="1" y="2" width="1" height="1" fill="#e5ca67" />
,<rect x="1" y="3" width="1" height="1" fill="#fffc3e" />
,<rect x="1" y="4" width="1" height="1" fill="#ffff2e" />
,<rect x="1" y="5" width="1" height="1" fill="#ffff2f" />
,<rect x="1" y="6" width="1" height="1" fill="#ffff31" />
,<rect x="1" y="7" width="1" height="1" fill="#ffff37" />
,<rect x="1" y="8" width="1" height="1" fill="#ffca3d" />
,<rect x="1" y="9" width="1" height="1" fill="#d4af43" />
,<rect x="2" y="0" width="1" height="1" fill="#406971" />
,<rect x="2" y="1" width="1" height="1" fill="#ada763" />
,<rect x="2" y="2" width="1" height="1" fill="#ffe436" />
,<rect x="2" y="3" width="1" height="1" fill="#fffb30" />
,<rect x="2" y="4" width="1" height="1" fill="#ffff31" />
,<rect x="2" y="5" width="1" height="1" fill="#ffff35" />
,<rect x="2" y="6" width="1" height="1" fill="#fffb40" />
,<rect x="2" y="7" width="1" height="1" fill="#b59c43" />
,<rect x="2" y="8" width="1" height="1" fill="#6d6d51" />
,<rect x="2" y="9" width="1" height="1" fill="#3f6a64" />
,<rect x="3" y="0" width="1" height="1" fill="#46636f" />
,<rect x="3" y="1" width="1" height="1" fill="#b0b157" />
,<rect x="3" y="2" width="1" height="1" fill="#fff556" />
,<rect x="3" y="3" width="1" height="1" fill="#ffef30" />
,<rect x="3" y="4" width="1" height="1" fill="#ffff2f" />
,<rect x="3" y="5" width="1" height="1" fill="#ffff2f" />
,<rect x="3" y="6" width="1" height="1" fill="#f2ce42" />
,<rect x="3" y="7" width="1" height="1" fill="#816f4d" />
,<rect x="3" y="8" width="1" height="1" fill="#508e75" />
,<rect x="3" y="9" width="1" height="1" fill="#457d76" />
,<rect x="4" y="0" width="1" height="1" fill="#597165" />
,<rect x="4" y="1" width="1" height="1" fill="#5d8169" />
,<rect x="4" y="2" width="1" height="1" fill="#ede56e" />
,<rect x="4" y="3" width="1" height="1" fill="#ffee2f" />
,<rect x="4" y="4" width="1" height="1" fill="#ffff30" />
,<rect x="4" y="5" width="1" height="1" fill="#ffff2f" />
,<rect x="4" y="6" width="1" height="1" fill="#fffb3b" />
,<rect x="4" y="7" width="1" height="1" fill="#ad853b" />
,<rect x="4" y="8" width="1" height="1" fill="#6f836c" />
,<rect x="4" y="9" width="1" height="1" fill="#388d96" />
,<rect x="5" y="0" width="1" height="1" fill="#668864" />
,<rect x="5" y="1" width="1" height="1" fill="#365b57" />
,<rect x="5" y="2" width="1" height="1" fill="#778f85" />
,<rect x="5" y="3" width="1" height="1" fill="#fffc7b" />
,<rect x="5" y="4" width="1" height="1" fill="#fff83e" />
,<rect x="5" y="5" width="1" height="1" fill="#fff42f" />
,<rect x="5" y="6" width="1" height="1" fill="#ffff2f" />
,<rect x="5" y="7" width="1" height="1" fill="#fffd3e" />
,<rect x="5" y="8" width="1" height="1" fill="#d3a532" />
,<rect x="5" y="9" width="1" height="1" fill="#90af7a" />
,<rect x="6" y="0" width="1" height="1" fill="#638068" />
,<rect x="6" y="1" width="1" height="1" fill="#527b61" />
,<rect x="6" y="2" width="1" height="1" fill="#39615a" />
,<rect x="6" y="3" width="1" height="1" fill="#668977" />
,<rect x="6" y="4" width="1" height="1" fill="#cedd90" />
,<rect x="6" y="5" width="1" height="1" fill="#fff562" />
,<rect x="6" y="6" width="1" height="1" fill="#fffc34" />
,<rect x="6" y="7" width="1" height="1" fill="#ffff41" />
,<rect x="6" y="8" width="1" height="1" fill="#f3d64b" />
,<rect x="6" y="9" width="1" height="1" fill="#b1a34e" />
,<rect x="7" y="0" width="1" height="1" fill="#667f63" />
,<rect x="7" y="1" width="1" height="1" fill="#5c7659" />
,<rect x="7" y="2" width="1" height="1" fill="#617266" />
,<rect x="7" y="3" width="1" height="1" fill="#415f55" />
,<rect x="7" y="4" width="1" height="1" fill="#3f715c" />
,<rect x="7" y="5" width="1" height="1" fill="#81a27b" />
,<rect x="7" y="6" width="1" height="1" fill="#84925d" />
,<rect x="7" y="7" width="1" height="1" fill="#5f744d" />
,<rect x="7" y="8" width="1" height="1" fill="#4f7061" />
,<rect x="7" y="9" width="1" height="1" fill="#4a6761" />
,<rect x="8" y="0" width="1" height="1" fill="#5f7f5e" />
,<rect x="8" y="1" width="1" height="1" fill="#4e7b62" />
,<rect x="8" y="2" width="1" height="1" fill="#587a65" />
,<rect x="8" y="3" width="1" height="1" fill="#637f5d" />
,<rect x="8" y="4" width="1" height="1" fill="#4e705d" />
,<rect x="8" y="5" width="1" height="1" fill="#445f64" />
,<rect x="8" y="6" width="1" height="1" fill="#40615c" />
,<rect x="8" y="7" width="1" height="1" fill="#3c7666" />
,<rect x="8" y="8" width="1" height="1" fill="#4a705d" />
,<rect x="8" y="9" width="1" height="1" fill="#5d7966" />
,<rect x="9" y="0" width="1" height="1" fill="#160a02" />
,<rect x="9" y="1" width="1" height="1" fill="#160a02" />
,<rect x="9" y="2" width="1" height="1" fill="#160a02" />
,<rect x="9" y="3" width="1" height="1" fill="#160a02" />
,<rect x="9" y="4" width="1" height="1" fill="#160a02" />
,<rect x="9" y="5" width="1" height="1" fill="#160a02" />
,<rect x="9" y="6" width="1" height="1" fill="#160a02" />
,<rect x="9" y="7" width="1" height="1" fill="#160a02" />
,<rect x="9" y="8" width="1" height="1" fill="#160a02" />
,<rect x="9" y="9" width="1" height="1" fill="#160a02" />

  </g>
</svg>