<svg width="800" height="1000" version="1.1" xmlns="http://www.w3.org/2000/svg" xmlns:xlink="http://www.w3.org/1999/xlink">
  <defs>
      <linearGradient id="Gradient2" x1="0" x2="1" y1="0" y2="1">
        <stop offset="0%" stop-color="#2d3c96"/>
        <stop offset="100%" stop-color="#d53392"/>
      </linearGradient>
  </defs>
  <rect x="10" y="10" width="780" height="980" fill="url(#Gradient2)" rx="50" ry="50" stroke="#ffd700" stroke-width="20"/>
  <text x="400" y="920" width="780" text-anchor="middle" style="font: bold 200px 'Helvetica Neue'; fill: #ffd700">06054</text>

  <g transform="translate(80 80) scale(64)">
<rect x="0" y="0" width="1" height="1" fill="#5B3829" /><rect x="1" y="0" width="1" height="1" fill="#6F5467" /><rect x="2" y="0" width="1" height="1" fill="#475065" /><rect x="3" y="0" width="1" height="1" fill="#616A84" /><rect x="4" y="0" width="1" height="1" fill="#4B5468" /><rect x="5" y="0" width="1" height="1" fill="#6C7A94" /><rect x="6" y="0" width="1" height="1" fill="#707E97" /><rect x="7" y="0" width="1" height="1" fill="#485268" /><rect x="8" y="0" width="1" height="1" fill="#596578" /><rect x="9" y="0" width="1" height="1" fill="#707E99" /><rect x="0" y="1" width="1" height="1" fill="#5B3729" /><rect x="1" y="1" width="1" height="1" fill="#8A3B42" /><rect x="2" y="1" width="1" height="1" fill="#485268" /><rect x="3" y="1" width="1" height="1" fill="#485268" /><rect x="4" y="1" width="1" height="1" fill="#616F8B" /><rect x="5" y="1" width="1" height="1" fill="#687691" /><rect x="6" y="1" width="1" height="1" fill="#485268" /><rect x="7" y="1" width="1" height="1" fill="#7988A3" /><rect x="8" y="1" width="1" height="1" fill="#7E8FA8" /><rect x="9" y="1" width="1" height="1" fill="#485268" /><rect x="0" y="2" width="1" height="1" fill="#5B3729" /><rect x="1" y="2" width="1" height="1" fill="#8A3B42" /><rect x="2" y="2" width="1" height="1" fill="#485268" /><rect x="3" y="2" width="1" height="1" fill="#485368" /><rect x="4" y="2" width="1" height="1" fill="#485268" /><rect x="5" y="2" width="1" height="1" fill="#485268" /><rect x="6" y="2" width="1" height="1" fill="#6B7B94" /><rect x="7" y="2" width="1" height="1" fill="#74839D" /><rect x="8" y="2" width="1" height="1" fill="#485268" /><rect x="9" y="2" width="1" height="1" fill="#8797B1" /><rect x="0" y="3" width="1" height="1" fill="#5C3728" /><rect x="1" y="3" width="1" height="1" fill="#7C4654" /><rect x="2" y="3" width="1" height="1" fill="#6B7995" /><rect x="3" y="3" width="1" height="1" fill="#485268" /><rect x="4" y="3" width="1" height="1" fill="#596782" /><rect x="5" y="3" width="1" height="1" fill="#5D6A87" /><rect x="6" y="3" width="1" height="1" fill="#485268" /><rect x="7" y="3" width="1" height="1" fill="#6A7A94" /><rect x="8" y="3" width="1" height="1" fill="#7989A3" /><rect x="9" y="3" width="1" height="1" fill="#485268" /><rect x="0" y="4" width="1" height="1" fill="#5C3729" /><rect x="1" y="4" width="1" height="1" fill="#754E5E" /><rect x="2" y="4" width="1" height="1" fill="#485268" /><rect x="3" y="4" width="1" height="1" fill="#485268" /><rect x="4" y="4" width="1" height="1" fill="#485268" /><rect x="5" y="4" width="1" height="1" fill="#5F6D87" /><rect x="6" y="4" width="1" height="1" fill="#596782" /><rect x="7" y="4" width="1" height="1" fill="#485268" /><rect x="8" y="4" width="1" height="1" fill="#485268" /><rect x="9" y="4" width="1" height="1" fill="#07080A" /><rect x="0" y="5" width="1" height="1" fill="#5C3729" /><rect x="1" y="5" width="1" height="1" fill="#6E4A5A" /><rect x="2" y="5" width="1" height="1" fill="#5C6A86" /><rect x="3" y="5" width="1" height="1" fill="#61708A" /><rect x="4" y="5" width="1" height="1" fill="#67758E" /><rect x="5" y="5" width="1" height="1" fill="#485268" /><rect x="6" y="5" width="1" height="1" fill="#485268" /><rect x="7" y="5" width="1" height="1" fill="#000000" /><rect x="8" y="5" width="1" height="1" fill="#000000" /><rect x="9" y="5" width="1" height="1" fill="#000000" /><rect x="0" y="6" width="1" height="1" fill="#593526" /><rect x="1" y="6" width="1" height="1" fill="#493B48" /><rect x="2" y="6" width="1" height="1" fill="#5D6C87" /><rect x="3" y="6" width="1" height="1" fill="#485268" /><rect x="4" y="6" width="1" height="1" fill="#485268" /><rect x="5" y="6" width="1" height="1" fill="#74839D" /><rect x="6" y="6" width="1" height="1" fill="#485268" /><rect x="7" y="6" width="1" height="1" fill="#000000" /><rect x="8" y="6" width="1" height="1" fill="#000000" /><rect x="9" y="6" width="1" height="1" fill="#000000" /><rect x="0" y="7" width="1" height="1" fill="#3A231A" /><rect x="1" y="7" width="1" height="1" fill="#1A1D24" /><rect x="2" y="7" width="1" height="1" fill="#4A5565" /><rect x="3" y="7" width="1" height="1" fill="#485268" /><rect x="4" y="7" width="1" height="1" fill="#5E6D86" /><rect x="5" y="7" width="1" height="1" fill="#586581" /><rect x="6" y="7" width="1" height="1" fill="#3E4859" /><rect x="7" y="7" width="1" height="1" fill="#000000" /><rect x="8" y="7" width="1" height="1" fill="#000000" /><rect x="9" y="7" width="1" height="1" fill="#000000" /><rect x="0" y="8" width="1" height="1" fill="#040301" /><rect x="1" y="8" width="1" height="1" fill="#000000" /><rect x="2" y="8" width="1" height="1" fill="#000000" /><rect x="3" y="8" width="1" height="1" fill="#3E4558" /><rect x="4" y="8" width="1" height="1" fill="#5B6885" /><rect x="5" y="8" width="1" height="1" fill="#485268" /><rect x="6" y="8" width="1" height="1" fill="#0D0E13" /><rect x="7" y="8" width="1" height="1" fill="#000000" /><rect x="8" y="8" width="1" height="1" fill="#000000" /><rect x="9" y="8" width="1" height="1" fill="#000000" /><rect x="0" y="9" width="1" height="1" fill="#000000" /><rect x="1" y="9" width="1" height="1" fill="#000000" /><rect x="2" y="9" width="1" height="1" fill="#000000" /><rect x="3" y="9" width="1" height="1" fill="#000000" /><rect x="4" y="9" width="1" height="1" fill="#000000" /><rect x="5" y="9" width="1" height="1" fill="#000000" /><rect x="6" y="9" width="1" height="1" fill="#000000" /><rect x="7" y="9" width="1" height="1" fill="#000000" /><rect x="8" y="9" width="1" height="1" fill="#000000" /><rect x="9" y="9" width="1" height="1" fill="#000000" />
  </g>
</svg>