<svg width="800" height="1000" version="1.1" xmlns="http://www.w3.org/2000/svg" xmlns:xlink="http://www.w3.org/1999/xlink">
  <defs>
      <linearGradient id="Gradient2" x1="0" x2="1" y1="0" y2="1">
        <stop offset="0%" stop-color="#2d3c96"/>
        <stop offset="100%" stop-color="#d53392"/>
      </linearGradient>
  </defs>
  <rect x="10" y="10" width="780" height="980" fill="url(#Gradient2)" rx="50" ry="50" stroke="#ffd700" stroke-width="20"/>
  <text x="400" y="920" width="780" text-anchor="middle" style="font: bold 200px 'Helvetica Neue'; fill: #ffd700">06053</text>

  <g transform="translate(80 80) scale(64)">
<rect x="0" y="0" width="1" height="1" fill="#707E99" /><rect x="1" y="0" width="1" height="1" fill="#627084" /><rect x="2" y="0" width="1" height="1" fill="#485268" /><rect x="3" y="0" width="1" height="1" fill="#75849E" /><rect x="4" y="0" width="1" height="1" fill="#6D7B95" /><rect x="5" y="0" width="1" height="1" fill="#4A5569" /><rect x="6" y="0" width="1" height="1" fill="#5D6B84" /><rect x="7" y="0" width="1" height="1" fill="#475166" /><rect x="8" y="0" width="1" height="1" fill="#59535B" /><rect x="9" y="0" width="1" height="1" fill="#593727" /><rect x="0" y="1" width="1" height="1" fill="#485268" /><rect x="1" y="1" width="1" height="1" fill="#7F90A9" /><rect x="2" y="1" width="1" height="1" fill="#7A8AA5" /><rect x="3" y="1" width="1" height="1" fill="#485268" /><rect x="4" y="1" width="1" height="1" fill="#6A7995" /><rect x="5" y="1" width="1" height="1" fill="#61708B" /><rect x="6" y="1" width="1" height="1" fill="#485268" /><rect x="7" y="1" width="1" height="1" fill="#485268" /><rect x="8" y="1" width="1" height="1" fill="#573826" /><rect x="9" y="1" width="1" height="1" fill="#593727" /><rect x="0" y="2" width="1" height="1" fill="#8797B1" /><rect x="1" y="2" width="1" height="1" fill="#485268" /><rect x="2" y="2" width="1" height="1" fill="#73839D" /><rect x="3" y="2" width="1" height="1" fill="#6B7B95" /><rect x="4" y="2" width="1" height="1" fill="#485268" /><rect x="5" y="2" width="1" height="1" fill="#485268" /><rect x="6" y="2" width="1" height="1" fill="#485368" /><rect x="7" y="2" width="1" height="1" fill="#485268" /><rect x="8" y="2" width="1" height="1" fill="#573826" /><rect x="9" y="2" width="1" height="1" fill="#573826" /><rect x="0" y="3" width="1" height="1" fill="#485268" /><rect x="1" y="3" width="1" height="1" fill="#7989A3" /><rect x="2" y="3" width="1" height="1" fill="#6A7A94" /><rect x="3" y="3" width="1" height="1" fill="#485268" /><rect x="4" y="3" width="1" height="1" fill="#525F79" /><rect x="5" y="3" width="1" height="1" fill="#525F79" /><rect x="6" y="3" width="1" height="1" fill="#485268" /><rect x="7" y="3" width="1" height="1" fill="#6B7B98" /><rect x="8" y="3" width="1" height="1" fill="#573F36" /><rect x="9" y="3" width="1" height="1" fill="#593627" /><rect x="0" y="4" width="1" height="1" fill="#07080A" /><rect x="1" y="4" width="1" height="1" fill="#485268" /><rect x="2" y="4" width="1" height="1" fill="#485268" /><rect x="3" y="4" width="1" height="1" fill="#444E61" /><rect x="4" y="4" width="1" height="1" fill="#5C6982" /><rect x="5" y="4" width="1" height="1" fill="#485268" /><rect x="6" y="4" width="1" height="1" fill="#485268" /><rect x="7" y="4" width="1" height="1" fill="#485268" /><rect x="8" y="4" width="1" height="1" fill="#584C4F" /><rect x="9" y="4" width="1" height="1" fill="#593727" /><rect x="0" y="5" width="1" height="1" fill="#000000" /><rect x="1" y="5" width="1" height="1" fill="#000000" /><rect x="2" y="5" width="1" height="1" fill="#000000" /><rect x="3" y="5" width="1" height="1" fill="#485268" /><rect x="4" y="5" width="1" height="1" fill="#485268" /><rect x="5" y="5" width="1" height="1" fill="#65748B" /><rect x="6" y="5" width="1" height="1" fill="#5F6D87" /><rect x="7" y="5" width="1" height="1" fill="#5E6D89" /><rect x="8" y="5" width="1" height="1" fill="#52484A" /><rect x="9" y="5" width="1" height="1" fill="#593627" /><rect x="0" y="6" width="1" height="1" fill="#000000" /><rect x="1" y="6" width="1" height="1" fill="#000000" /><rect x="2" y="6" width="1" height="1" fill="#000000" /><rect x="3" y="6" width="1" height="1" fill="#485268" /><rect x="4" y="6" width="1" height="1" fill="#727F98" /><rect x="5" y="6" width="1" height="1" fill="#485268" /><rect x="6" y="6" width="1" height="1" fill="#485268" /><rect x="7" y="6" width="1" height="1" fill="#5F6E8A" /><rect x="8" y="6" width="1" height="1" fill="#36363F" /><rect x="9" y="6" width="1" height="1" fill="#543324" /><rect x="0" y="7" width="1" height="1" fill="#000000" /><rect x="1" y="7" width="1" height="1" fill="#000000" /><rect x="2" y="7" width="1" height="1" fill="#000000" /><rect x="3" y="7" width="1" height="1" fill="#424D60" /><rect x="4" y="7" width="1" height="1" fill="#57647F" /><rect x="5" y="7" width="1" height="1" fill="#5D6B85" /><rect x="6" y="7" width="1" height="1" fill="#485268" /><rect x="7" y="7" width="1" height="1" fill="#4A5566" /><rect x="8" y="7" width="1" height="1" fill="#1B1E25" /><rect x="9" y="7" width="1" height="1" fill="#3D251A" /><rect x="0" y="8" width="1" height="1" fill="#000000" /><rect x="1" y="8" width="1" height="1" fill="#000000" /><rect x="2" y="8" width="1" height="1" fill="#000000" /><rect x="3" y="8" width="1" height="1" fill="#0C0E12" /><rect x="4" y="8" width="1" height="1" fill="#485268" /><rect x="5" y="8" width="1" height="1" fill="#5F6C88" /><rect x="6" y="8" width="1" height="1" fill="#3E4558" /><rect x="7" y="8" width="1" height="1" fill="#000000" /><rect x="8" y="8" width="1" height="1" fill="#000000" /><rect x="9" y="8" width="1" height="1" fill="#050402" /><rect x="0" y="9" width="1" height="1" fill="#000000" /><rect x="1" y="9" width="1" height="1" fill="#000000" /><rect x="2" y="9" width="1" height="1" fill="#000000" /><rect x="3" y="9" width="1" height="1" fill="#000000" /><rect x="4" y="9" width="1" height="1" fill="#000000" /><rect x="5" y="9" width="1" height="1" fill="#000000" /><rect x="6" y="9" width="1" height="1" fill="#000000" /><rect x="7" y="9" width="1" height="1" fill="#000000" /><rect x="8" y="9" width="1" height="1" fill="#000000" /><rect x="9" y="9" width="1" height="1" fill="#000000" />
  </g>
</svg>