<svg width="800" height="1000" xmlns="http://www.w3.org/2000/svg"><defs><linearGradient id="g" x1="0" x2="1" y1="0" y2="1"><stop offset="0%" stop-color="#2d3c96"/><stop offset="100%" stop-color="#d53392"/></linearGradient></defs><rect x="10" y="10" width="780" height="980" fill="url(#g)" rx="50" ry="50" stroke="gold" stroke-width="20"/><text x="400" y="920" width="780" text-anchor="middle" style="font:bold 200px 'Helvetica Neue';fill:gold">06053</text><g transform="translate(80 80) scale(64)"><rect x="0" y="0" width="1" height="1" fill="#707e99" /><rect x="0" y="1" width="1" height="1" fill="#485268" /><rect x="0" y="2" width="1" height="1" fill="#8797b1" /><rect x="0" y="3" width="1" height="1" fill="#485268" /><rect x="0" y="4" width="1" height="1" fill="#07080a" /><rect x="0" y="5" width="1" height="1" fill="#000000" /><rect x="0" y="6" width="1" height="1" fill="#000000" /><rect x="0" y="7" width="1" height="1" fill="#000000" /><rect x="0" y="8" width="1" height="1" fill="#000000" /><rect x="0" y="9" width="1" height="1" fill="#000000" /><rect x="1" y="0" width="1" height="1" fill="#627084" /><rect x="1" y="1" width="1" height="1" fill="#7f90a9" /><rect x="1" y="2" width="1" height="1" fill="#485268" /><rect x="1" y="3" width="1" height="1" fill="#7989a3" /><rect x="1" y="4" width="1" height="1" fill="#485268" /><rect x="1" y="5" width="1" height="1" fill="#000000" /><rect x="1" y="6" width="1" height="1" fill="#000000" /><rect x="1" y="7" width="1" height="1" fill="#000000" /><rect x="1" y="8" width="1" height="1" fill="#000000" /><rect x="1" y="9" width="1" height="1" fill="#000000" /><rect x="2" y="0" width="1" height="1" fill="#485268" /><rect x="2" y="1" width="1" height="1" fill="#7a8aa5" /><rect x="2" y="2" width="1" height="1" fill="#73839d" /><rect x="2" y="3" width="1" height="1" fill="#6a7a94" /><rect x="2" y="4" width="1" height="1" fill="#485268" /><rect x="2" y="5" width="1" height="1" fill="#000000" /><rect x="2" y="6" width="1" height="1" fill="#000000" /><rect x="2" y="7" width="1" height="1" fill="#000000" /><rect x="2" y="8" width="1" height="1" fill="#000000" /><rect x="2" y="9" width="1" height="1" fill="#000000" /><rect x="3" y="0" width="1" height="1" fill="#75849e" /><rect x="3" y="1" width="1" height="1" fill="#485268" /><rect x="3" y="2" width="1" height="1" fill="#6b7b95" /><rect x="3" y="3" width="1" height="1" fill="#485268" /><rect x="3" y="4" width="1" height="1" fill="#444e61" /><rect x="3" y="5" width="1" height="1" fill="#485268" /><rect x="3" y="6" width="1" height="1" fill="#485268" /><rect x="3" y="7" width="1" height="1" fill="#424d60" /><rect x="3" y="8" width="1" height="1" fill="#0c0e12" /><rect x="3" y="9" width="1" height="1" fill="#000000" /><rect x="4" y="0" width="1" height="1" fill="#6d7b95" /><rect x="4" y="1" width="1" height="1" fill="#6a7995" /><rect x="4" y="2" width="1" height="1" fill="#485268" /><rect x="4" y="3" width="1" height="1" fill="#525f79" /><rect x="4" y="4" width="1" height="1" fill="#5c6982" /><rect x="4" y="5" width="1" height="1" fill="#485268" /><rect x="4" y="6" width="1" height="1" fill="#727f98" /><rect x="4" y="7" width="1" height="1" fill="#57647f" /><rect x="4" y="8" width="1" height="1" fill="#485268" /><rect x="4" y="9" width="1" height="1" fill="#000000" /><rect x="5" y="0" width="1" height="1" fill="#4a5569" /><rect x="5" y="1" width="1" height="1" fill="#61708b" /><rect x="5" y="2" width="1" height="1" fill="#485268" /><rect x="5" y="3" width="1" height="1" fill="#525f79" /><rect x="5" y="4" width="1" height="1" fill="#485268" /><rect x="5" y="5" width="1" height="1" fill="#65748b" /><rect x="5" y="6" width="1" height="1" fill="#485268" /><rect x="5" y="7" width="1" height="1" fill="#5d6b85" /><rect x="5" y="8" width="1" height="1" fill="#5f6c88" /><rect x="5" y="9" width="1" height="1" fill="#000000" /><rect x="6" y="0" width="1" height="1" fill="#5d6b84" /><rect x="6" y="1" width="1" height="1" fill="#485268" /><rect x="6" y="2" width="1" height="1" fill="#485368" /><rect x="6" y="3" width="1" height="1" fill="#485268" /><rect x="6" y="4" width="1" height="1" fill="#485268" /><rect x="6" y="5" width="1" height="1" fill="#5f6d87" /><rect x="6" y="6" width="1" height="1" fill="#485268" /><rect x="6" y="7" width="1" height="1" fill="#485268" /><rect x="6" y="8" width="1" height="1" fill="#3e4558" /><rect x="6" y="9" width="1" height="1" fill="#000000" /><rect x="7" y="0" width="1" height="1" fill="#475166" /><rect x="7" y="1" width="1" height="1" fill="#485268" /><rect x="7" y="2" width="1" height="1" fill="#485268" /><rect x="7" y="3" width="1" height="1" fill="#6b7b98" /><rect x="7" y="4" width="1" height="1" fill="#485268" /><rect x="7" y="5" width="1" height="1" fill="#5e6d89" /><rect x="7" y="6" width="1" height="1" fill="#5f6e8a" /><rect x="7" y="7" width="1" height="1" fill="#4a5566" /><rect x="7" y="8" width="1" height="1" fill="#000000" /><rect x="7" y="9" width="1" height="1" fill="#000000" /><rect x="8" y="0" width="1" height="1" fill="#59535b" /><rect x="8" y="1" width="1" height="1" fill="#573826" /><rect x="8" y="2" width="1" height="1" fill="#573826" /><rect x="8" y="3" width="1" height="1" fill="#573f36" /><rect x="8" y="4" width="1" height="1" fill="#584c4f" /><rect x="8" y="5" width="1" height="1" fill="#52484a" /><rect x="8" y="6" width="1" height="1" fill="#36363f" /><rect x="8" y="7" width="1" height="1" fill="#1b1e25" /><rect x="8" y="8" width="1" height="1" fill="#000000" /><rect x="8" y="9" width="1" height="1" fill="#000000" /><rect x="9" y="0" width="1" height="1" fill="#593727" /><rect x="9" y="1" width="1" height="1" fill="#593727" /><rect x="9" y="2" width="1" height="1" fill="#573826" /><rect x="9" y="3" width="1" height="1" fill="#593627" /><rect x="9" y="4" width="1" height="1" fill="#593727" /><rect x="9" y="5" width="1" height="1" fill="#593627" /><rect x="9" y="6" width="1" height="1" fill="#543324" /><rect x="9" y="7" width="1" height="1" fill="#3d251a" /><rect x="9" y="8" width="1" height="1" fill="#050402" /><rect x="9" y="9" width="1" height="1" fill="#000000" /></g></svg>