<svg width="800" height="1000" version="1.1" xmlns="http://www.w3.org/2000/svg" xmlns:xlink="http://www.w3.org/1999/xlink">
  <defs>
      <linearGradient id="Gradient2" x1="0" x2="1" y1="0" y2="1">
        <stop offset="0%" stop-color="#2d3c96"/>
        <stop offset="100%" stop-color="#d53392"/>
      </linearGradient>
  </defs>
  <rect x="10" y="10" width="780" height="980" fill="url(#Gradient2)" rx="50" ry="50" stroke="#ffd700" stroke-width="20"/>
  <text x="400" y="920" width="780" text-anchor="middle" style="font: bold 200px 'Helvetica Neue'; fill: #ffd700">06132</text>

  <g transform="translate(80 80) scale(64)">
<rect x="0" y="0" width="1" height="1" fill="#FFFF2F" /><rect x="1" y="0" width="1" height="1" fill="#A4AA49" /><rect x="2" y="0" width="1" height="1" fill="#257577" /><rect x="3" y="0" width="1" height="1" fill="#4B8E7C" /><rect x="4" y="0" width="1" height="1" fill="#48A893" /><rect x="5" y="0" width="1" height="1" fill="#6EBAB1" /><rect x="6" y="0" width="1" height="1" fill="#4A9489" /><rect x="7" y="0" width="1" height="1" fill="#265254" /><rect x="8" y="0" width="1" height="1" fill="#407063" /><rect x="9" y="0" width="1" height="1" fill="#0B0D03" /><rect x="0" y="1" width="1" height="1" fill="#FFFF3A" /><rect x="1" y="1" width="1" height="1" fill="#A5B553" /><rect x="2" y="1" width="1" height="1" fill="#296F7C" /><rect x="3" y="1" width="1" height="1" fill="#3A736C" /><rect x="4" y="1" width="1" height="1" fill="#5B9075" /><rect x="5" y="1" width="1" height="1" fill="#F4FA78" /><rect x="6" y="1" width="1" height="1" fill="#C4E58D" /><rect x="7" y="1" width="1" height="1" fill="#A8DC91" /><rect x="8" y="1" width="1" height="1" fill="#6CA564" /><rect x="9" y="1" width="1" height="1" fill="#0B0D03" /><rect x="0" y="2" width="1" height="1" fill="#FFFF30" /><rect x="1" y="2" width="1" height="1" fill="#B7BF53" /><rect x="2" y="2" width="1" height="1" fill="#2D7C84" /><rect x="3" y="2" width="1" height="1" fill="#4D8174" /><rect x="4" y="2" width="1" height="1" fill="#2D8377" /><rect x="5" y="2" width="1" height="1" fill="#DFCE5D" /><rect x="6" y="2" width="1" height="1" fill="#FFF636" /><rect x="7" y="2" width="1" height="1" fill="#FFFF6C" /><rect x="8" y="2" width="1" height="1" fill="#AFBB6B" /><rect x="9" y="2" width="1" height="1" fill="#0B0D03" /><rect x="0" y="3" width="1" height="1" fill="#FFFF30" /><rect x="1" y="3" width="1" height="1" fill="#D4CB4D" /><rect x="2" y="3" width="1" height="1" fill="#2697A1" /><rect x="3" y="3" width="1" height="1" fill="#468C75" /><rect x="4" y="3" width="1" height="1" fill="#27868B" /><rect x="5" y="3" width="1" height="1" fill="#9BC179" /><rect x="6" y="3" width="1" height="1" fill="#FFFF31" /><rect x="7" y="3" width="1" height="1" fill="#FFFF2F" /><rect x="8" y="3" width="1" height="1" fill="#B5BC60" /><rect x="9" y="3" width="1" height="1" fill="#0B0D03" /><rect x="0" y="4" width="1" height="1" fill="#FFFF36" /><rect x="1" y="4" width="1" height="1" fill="#F3D948" /><rect x="2" y="4" width="1" height="1" fill="#4CC7D2" /><rect x="3" y="4" width="1" height="1" fill="#42B2B9" /><rect x="4" y="4" width="1" height="1" fill="#34A9B2" /><rect x="5" y="4" width="1" height="1" fill="#7AAE8B" /><rect x="6" y="4" width="1" height="1" fill="#FFF136" /><rect x="7" y="4" width="1" height="1" fill="#FFFF3A" /><rect x="8" y="4" width="1" height="1" fill="#D4CC53" /><rect x="9" y="4" width="1" height="1" fill="#0B0D03" /><rect x="0" y="5" width="1" height="1" fill="#FFFF30" /><rect x="1" y="5" width="1" height="1" fill="#FFF241" /><rect x="2" y="5" width="1" height="1" fill="#5FCAB2" /><rect x="3" y="5" width="1" height="1" fill="#2DC6E7" /><rect x="4" y="5" width="1" height="1" fill="#3BB5C4" /><rect x="5" y="5" width="1" height="1" fill="#5E876B" /><rect x="6" y="5" width="1" height="1" fill="#FDE330" /><rect x="7" y="5" width="1" height="1" fill="#FFFF34" /><rect x="8" y="5" width="1" height="1" fill="#F6EF4A" /><rect x="9" y="5" width="1" height="1" fill="#0B0D03" /><rect x="0" y="6" width="1" height="1" fill="#FFFF3A" /><rect x="1" y="6" width="1" height="1" fill="#FFF22F" /><rect x="2" y="6" width="1" height="1" fill="#C2E991" /><rect x="3" y="6" width="1" height="1" fill="#2D969B" /><rect x="4" y="6" width="1" height="1" fill="#2C8785" /><rect x="5" y="6" width="1" height="1" fill="#3C7074" /><rect x="6" y="6" width="1" height="1" fill="#EDDA4F" /><rect x="7" y="6" width="1" height="1" fill="#FFFF50" /><rect x="8" y="6" width="1" height="1" fill="#FFFF48" /><rect x="9" y="6" width="1" height="1" fill="#0B0D03" /><rect x="0" y="7" width="1" height="1" fill="#FFFF30" /><rect x="1" y="7" width="1" height="1" fill="#FFF431" /><rect x="2" y="7" width="1" height="1" fill="#FFFF79" /><rect x="3" y="7" width="1" height="1" fill="#A3EFB2" /><rect x="4" y="7" width="1" height="1" fill="#3B8E8B" /><rect x="5" y="7" width="1" height="1" fill="#6BB794" /><rect x="6" y="7" width="1" height="1" fill="#EEE959" /><rect x="7" y="7" width="1" height="1" fill="#FFFF46" /><rect x="8" y="7" width="1" height="1" fill="#FFFF3D" /><rect x="9" y="7" width="1" height="1" fill="#0B0D03" /><rect x="0" y="8" width="1" height="1" fill="#FFE73C" /><rect x="1" y="8" width="1" height="1" fill="#FFFF32" /><rect x="2" y="8" width="1" height="1" fill="#FFF52E" /><rect x="3" y="8" width="1" height="1" fill="#F2E36D" /><rect x="4" y="8" width="1" height="1" fill="#D3C969" /><rect x="5" y="8" width="1" height="1" fill="#E7DE7A" /><rect x="6" y="8" width="1" height="1" fill="#FADC41" /><rect x="7" y="8" width="1" height="1" fill="#FFFF48" /><rect x="8" y="8" width="1" height="1" fill="#FFFF4C" /><rect x="9" y="8" width="1" height="1" fill="#0B0D03" /><rect x="0" y="9" width="1" height="1" fill="#DDB82F" /><rect x="1" y="9" width="1" height="1" fill="#FFFF2E" /><rect x="2" y="9" width="1" height="1" fill="#FFFF38" /><rect x="3" y="9" width="1" height="1" fill="#FFFC3D" /><rect x="4" y="9" width="1" height="1" fill="#FDBC30" /><rect x="5" y="9" width="1" height="1" fill="#F9AE30" /><rect x="6" y="9" width="1" height="1" fill="#FFFF48" /><rect x="7" y="9" width="1" height="1" fill="#FFFF4D" /><rect x="8" y="9" width="1" height="1" fill="#FFFF44" /><rect x="9" y="9" width="1" height="1" fill="#0B0D03" />
  </g>
</svg>