<svg width="800" height="1000" version="1.1" xmlns="http://www.w3.org/2000/svg" xmlns:xlink="http://www.w3.org/1999/xlink">
  <defs>
      <linearGradient id="Gradient2" x1="0" x2="1" y1="0" y2="1">
        <stop offset="0%" stop-color="#2d3c96"/>
        <stop offset="100%" stop-color="#d53392"/>
      </linearGradient>
  </defs>
  <rect x="10" y="10" width="780" height="980" fill="url(#Gradient2)" rx="50" ry="50" stroke="#ffd700" stroke-width="20"/>
  <text x="400" y="920" width="780" text-anchor="middle" style="font: bold 200px 'Helvetica Neue'; fill: #ffd700">06131</text>

  <g transform="translate(80 80) scale(64)">
<rect x="0" y="0" width="1" height="1" fill="#dbffa0" />
,<rect x="0" y="1" width="1" height="1" fill="#83a75e" />
,<rect x="0" y="2" width="1" height="1" fill="#3f685e" />
,<rect x="0" y="3" width="1" height="1" fill="#5aa990" />
,<rect x="0" y="4" width="1" height="1" fill="#d0ff7c" />
,<rect x="0" y="5" width="1" height="1" fill="#e7ff5b" />
,<rect x="0" y="6" width="1" height="1" fill="#cfff5d" />
,<rect x="0" y="7" width="1" height="1" fill="#a2e16b" />
,<rect x="0" y="8" width="1" height="1" fill="#86bb70" />
,<rect x="0" y="9" width="1" height="1" fill="#bde67b" />
,<rect x="1" y="0" width="1" height="1" fill="#70886d" />
,<rect x="1" y="1" width="1" height="1" fill="#678159" />
,<rect x="1" y="2" width="1" height="1" fill="#83c58f" />
,<rect x="1" y="3" width="1" height="1" fill="#e6ff7c" />
,<rect x="1" y="4" width="1" height="1" fill="#c9d043" />
,<rect x="1" y="5" width="1" height="1" fill="#61826e" />
,<rect x="1" y="6" width="1" height="1" fill="#697c81" />
,<rect x="1" y="7" width="1" height="1" fill="#5b836f" />
,<rect x="1" y="8" width="1" height="1" fill="#28694a" />
,<rect x="1" y="9" width="1" height="1" fill="#2c6249" />
,<rect x="2" y="0" width="1" height="1" fill="#738c51" />
,<rect x="2" y="1" width="1" height="1" fill="#a3bd60" />
,<rect x="2" y="2" width="1" height="1" fill="#d9ff80" />
,<rect x="2" y="3" width="1" height="1" fill="#d9ef4d" />
,<rect x="2" y="4" width="1" height="1" fill="#8ba761" />
,<rect x="2" y="5" width="1" height="1" fill="#91aa65" />
,<rect x="2" y="6" width="1" height="1" fill="#94b06a" />
,<rect x="2" y="7" width="1" height="1" fill="#85a573" />
,<rect x="2" y="8" width="1" height="1" fill="#6a9969" />
,<rect x="2" y="9" width="1" height="1" fill="#437b43" />
,<rect x="3" y="0" width="1" height="1" fill="#91aa6f" />
,<rect x="3" y="1" width="1" height="1" fill="#c4d655" />
,<rect x="3" y="2" width="1" height="1" fill="#dff77a" />
,<rect x="3" y="3" width="1" height="1" fill="#ffff69" />
,<rect x="3" y="4" width="1" height="1" fill="#e2ff5d" />
,<rect x="3" y="5" width="1" height="1" fill="#cbd15c" />
,<rect x="3" y="6" width="1" height="1" fill="#a4b963" />
,<rect x="3" y="7" width="1" height="1" fill="#7d9a79" />
,<rect x="3" y="8" width="1" height="1" fill="#679063" />
,<rect x="3" y="9" width="1" height="1" fill="#5e9362" />
,<rect x="4" y="0" width="1" height="1" fill="#c3c34e" />
,<rect x="4" y="1" width="1" height="1" fill="#d0ed51" />
,<rect x="4" y="2" width="1" height="1" fill="#f0ffa8" />
,<rect x="4" y="3" width="1" height="1" fill="#ffff70" />
,<rect x="4" y="4" width="1" height="1" fill="#ffff62" />
,<rect x="4" y="5" width="1" height="1" fill="#ecff85" />
,<rect x="4" y="6" width="1" height="1" fill="#c0ed5d" />
,<rect x="4" y="7" width="1" height="1" fill="#849e51" />
,<rect x="4" y="8" width="1" height="1" fill="#6f9569" />
,<rect x="4" y="9" width="1" height="1" fill="#558c69" />
,<rect x="5" y="0" width="1" height="1" fill="#f5fe48" />
,<rect x="5" y="1" width="1" height="1" fill="#cefd70" />
,<rect x="5" y="2" width="1" height="1" fill="#d4f275" />
,<rect x="5" y="3" width="1" height="1" fill="#bed949" />
,<rect x="5" y="4" width="1" height="1" fill="#bfc548" />
,<rect x="5" y="5" width="1" height="1" fill="#94d689" />
,<rect x="5" y="6" width="1" height="1" fill="#cdff91" />
,<rect x="5" y="7" width="1" height="1" fill="#c3cd57" />
,<rect x="5" y="8" width="1" height="1" fill="#60886c" />
,<rect x="5" y="9" width="1" height="1" fill="#538857" />
,<rect x="6" y="0" width="1" height="1" fill="#708970" />
,<rect x="6" y="1" width="1" height="1" fill="#819b65" />
,<rect x="6" y="2" width="1" height="1" fill="#77924c" />
,<rect x="6" y="3" width="1" height="1" fill="#92ab64" />
,<rect x="6" y="4" width="1" height="1" fill="#b3cd73" />
,<rect x="6" y="5" width="1" height="1" fill="#83994f" />
,<rect x="6" y="6" width="1" height="1" fill="#5ea292" />
,<rect x="6" y="7" width="1" height="1" fill="#d0fc8a" />
,<rect x="6" y="8" width="1" height="1" fill="#7d9e4c" />
,<rect x="6" y="9" width="1" height="1" fill="#296443" />
,<rect x="7" y="0" width="1" height="1" fill="#cafd85" />
,<rect x="7" y="1" width="1" height="1" fill="#a2be88" />
,<rect x="7" y="2" width="1" height="1" fill="#a5c17e" />
,<rect x="7" y="3" width="1" height="1" fill="#97c27a" />
,<rect x="7" y="4" width="1" height="1" fill="#73a275" />
,<rect x="7" y="5" width="1" height="1" fill="#3c634f" />
,<rect x="7" y="6" width="1" height="1" fill="#47adb8" />
,<rect x="7" y="7" width="1" height="1" fill="#f7ff8d" />
,<rect x="7" y="8" width="1" height="1" fill="#598f40" />
,<rect x="7" y="9" width="1" height="1" fill="#1d655e" />
,<rect x="8" y="0" width="1" height="1" fill="#ffff78" />
,<rect x="8" y="1" width="1" height="1" fill="#ffff6c" />
,<rect x="8" y="2" width="1" height="1" fill="#eeff76" />
,<rect x="8" y="3" width="1" height="1" fill="#96bb72" />
,<rect x="8" y="4" width="1" height="1" fill="#759c62" />
,<rect x="8" y="5" width="1" height="1" fill="#90b36d" />
,<rect x="8" y="6" width="1" height="1" fill="#e2ff88" />
,<rect x="8" y="7" width="1" height="1" fill="#f9ff69" />
,<rect x="8" y="8" width="1" height="1" fill="#7ec484" />
,<rect x="8" y="9" width="1" height="1" fill="#b8fff5" />
,<rect x="9" y="0" width="1" height="1" fill="#ffff4d" />
,<rect x="9" y="1" width="1" height="1" fill="#ffff40" />
,<rect x="9" y="2" width="1" height="1" fill="#ffff4a" />
,<rect x="9" y="3" width="1" height="1" fill="#ffff51" />
,<rect x="9" y="4" width="1" height="1" fill="#ffff44" />
,<rect x="9" y="5" width="1" height="1" fill="#ffff46" />
,<rect x="9" y="6" width="1" height="1" fill="#ffff42" />
,<rect x="9" y="7" width="1" height="1" fill="#ebfa66" />
,<rect x="9" y="8" width="1" height="1" fill="#f5ff94" />
,<rect x="9" y="9" width="1" height="1" fill="#adeeab" />

  </g>
</svg>