<svg width="800" height="1000" xmlns="http://www.w3.org/2000/svg"><defs><linearGradient id="g" x1="0" x2="1" y1="0" y2="1"><stop offset="0%" stop-color="#2d3c96"/><stop offset="100%" stop-color="#d53392"/></linearGradient></defs><rect x="10" y="10" width="780" height="980" fill="url(#g)" rx="50" ry="50" stroke="gold" stroke-width="20"/><text x="400" y="920" width="780" text-anchor="middle" style="font:bold 200px 'Helvetica Neue';fill:gold">06130</text><g transform="translate(80 80) scale(64)"><rect x="0" y="0" width="1" height="1" fill="#578685" /><rect x="0" y="1" width="1" height="1" fill="#5d7472" /><rect x="0" y="2" width="1" height="1" fill="#5d8780" /><rect x="0" y="3" width="1" height="1" fill="#5e888f" /><rect x="0" y="4" width="1" height="1" fill="#5e818e" /><rect x="0" y="5" width="1" height="1" fill="#338198" /><rect x="0" y="6" width="1" height="1" fill="#3c6d7a" /><rect x="0" y="7" width="1" height="1" fill="#537184" /><rect x="0" y="8" width="1" height="1" fill="#6b826f" /><rect x="0" y="9" width="1" height="1" fill="#80976a" /><rect x="1" y="0" width="1" height="1" fill="#2c6e85" /><rect x="1" y="1" width="1" height="1" fill="#2e6a95" /><rect x="1" y="2" width="1" height="1" fill="#3e6e8f" /><rect x="1" y="3" width="1" height="1" fill="#43798a" /><rect x="1" y="4" width="1" height="1" fill="#6d9c9d" /><rect x="1" y="5" width="1" height="1" fill="#aecc95" /><rect x="1" y="6" width="1" height="1" fill="#d5ec8b" /><rect x="1" y="7" width="1" height="1" fill="#fff889" /><rect x="1" y="8" width="1" height="1" fill="#ffff90" /><rect x="1" y="9" width="1" height="1" fill="#fff271" /><rect x="2" y="0" width="1" height="1" fill="#bfd297" /><rect x="2" y="1" width="1" height="1" fill="#a1c2a0" /><rect x="2" y="2" width="1" height="1" fill="#6d9897" /><rect x="2" y="3" width="1" height="1" fill="#2b6da0" /><rect x="2" y="4" width="1" height="1" fill="#6a9a95" /><rect x="2" y="5" width="1" height="1" fill="#fffc62" /><rect x="2" y="6" width="1" height="1" fill="#ffdd59" /><rect x="2" y="7" width="1" height="1" fill="#ffda59" /><rect x="2" y="8" width="1" height="1" fill="#ffd44f" /><rect x="2" y="9" width="1" height="1" fill="#ffd142" /><rect x="3" y="0" width="1" height="1" fill="#ffff4c" /><rect x="3" y="1" width="1" height="1" fill="#ffff5a" /><rect x="3" y="2" width="1" height="1" fill="#ffff55" /><rect x="3" y="3" width="1" height="1" fill="#d6c45e" /><rect x="3" y="4" width="1" height="1" fill="#70a39d" /><rect x="3" y="5" width="1" height="1" fill="#479ba2" /><rect x="3" y="6" width="1" height="1" fill="#445e63" /><rect x="3" y="7" width="1" height="1" fill="#5e7574" /><rect x="3" y="8" width="1" height="1" fill="#658384" /><rect x="3" y="9" width="1" height="1" fill="#6b8e81" /><rect x="4" y="0" width="1" height="1" fill="#ffff42" /><rect x="4" y="1" width="1" height="1" fill="#ffff42" /><rect x="4" y="2" width="1" height="1" fill="#ffff42" /><rect x="4" y="3" width="1" height="1" fill="#ffff48" /><rect x="4" y="4" width="1" height="1" fill="#ffff56" /><rect x="4" y="5" width="1" height="1" fill="#d4cc74" /><rect x="4" y="6" width="1" height="1" fill="#879c7a" /><rect x="4" y="7" width="1" height="1" fill="#6995a6" /><rect x="4" y="8" width="1" height="1" fill="#4e9caf" /><rect x="4" y="9" width="1" height="1" fill="#7bbaa4" /><rect x="5" y="0" width="1" height="1" fill="#facb4e" /><rect x="5" y="1" width="1" height="1" fill="#ffeb41" /><rect x="5" y="2" width="1" height="1" fill="#ffff48" /><rect x="5" y="3" width="1" height="1" fill="#fffb48" /><rect x="5" y="4" width="1" height="1" fill="#ffff44" /><rect x="5" y="5" width="1" height="1" fill="#ffff4c" /><rect x="5" y="6" width="1" height="1" fill="#ffff42" /><rect x="5" y="7" width="1" height="1" fill="#fff646" /><rect x="5" y="8" width="1" height="1" fill="#ffff6a" /><rect x="5" y="9" width="1" height="1" fill="#ffff54" /><rect x="6" y="0" width="1" height="1" fill="#a68a54" /><rect x="6" y="1" width="1" height="1" fill="#ecaa45" /><rect x="6" y="2" width="1" height="1" fill="#ffe64d" /><rect x="6" y="3" width="1" height="1" fill="#fffa5d" /><rect x="6" y="4" width="1" height="1" fill="#ffe949" /><rect x="6" y="5" width="1" height="1" fill="#ffeb41" /><rect x="6" y="6" width="1" height="1" fill="#fffe41" /><rect x="6" y="7" width="1" height="1" fill="#ffff42" /><rect x="6" y="8" width="1" height="1" fill="#ffff5f" /><rect x="6" y="9" width="1" height="1" fill="#ffff61" /><rect x="7" y="0" width="1" height="1" fill="#51bbdb" /><rect x="7" y="1" width="1" height="1" fill="#62bed4" /><rect x="7" y="2" width="1" height="1" fill="#b0c0a6" /><rect x="7" y="3" width="1" height="1" fill="#fed67f" /><rect x="7" y="4" width="1" height="1" fill="#ffff8d" /><rect x="7" y="5" width="1" height="1" fill="#fffb77" /><rect x="7" y="6" width="1" height="1" fill="#ffe453" /><rect x="7" y="7" width="1" height="1" fill="#ffea43" /><rect x="7" y="8" width="1" height="1" fill="#fff340" /><rect x="7" y="9" width="1" height="1" fill="#ffff72" /><rect x="8" y="0" width="1" height="1" fill="#93be99" /><rect x="8" y="1" width="1" height="1" fill="#6eded8" /><rect x="8" y="2" width="1" height="1" fill="#7ffbff" /><rect x="8" y="3" width="1" height="1" fill="#d1e8b8" /><rect x="8" y="4" width="1" height="1" fill="#fff76f" /><rect x="8" y="5" width="1" height="1" fill="#ffff93" /><rect x="8" y="6" width="1" height="1" fill="#ffff9e" /><rect x="8" y="7" width="1" height="1" fill="#fffa6c" /><rect x="8" y="8" width="1" height="1" fill="#fff14a" /><rect x="8" y="9" width="1" height="1" fill="#f7d560" /><rect x="9" y="0" width="1" height="1" fill="#ffdb44" /><rect x="9" y="1" width="1" height="1" fill="#ffed55" /><rect x="9" y="2" width="1" height="1" fill="#dfd073" /><rect x="9" y="3" width="1" height="1" fill="#89b6b8" /><rect x="9" y="4" width="1" height="1" fill="#71afb5" /><rect x="9" y="5" width="1" height="1" fill="#d7ff8e" /><rect x="9" y="6" width="1" height="1" fill="#ffff66" /><rect x="9" y="7" width="1" height="1" fill="#ffff62" /><rect x="9" y="8" width="1" height="1" fill="#ffff66" /><rect x="9" y="9" width="1" height="1" fill="#fae964" /></g></svg>