<svg width="800" height="1000" version="1.1" xmlns="http://www.w3.org/2000/svg" xmlns:xlink="http://www.w3.org/1999/xlink">
  <defs>
      <linearGradient id="Gradient2" x1="0" x2="1" y1="0" y2="1">
        <stop offset="0%" stop-color="#2d3c96"/>
        <stop offset="100%" stop-color="#d53392"/>
      </linearGradient>
  </defs>
  <rect x="10" y="10" width="780" height="980" fill="url(#Gradient2)" rx="50" ry="50" stroke="#ffd700" stroke-width="20"/>
  <text x="400" y="920" width="780" text-anchor="middle" style="font: bold 200px 'Helvetica Neue'; fill: #ffd700">06131</text>

  <g transform="translate(80 80) scale(64)">
<rect x="0" y="0" width="1" height="1" fill="#DBFFA0" /><rect x="1" y="0" width="1" height="1" fill="#70886D" /><rect x="2" y="0" width="1" height="1" fill="#738C51" /><rect x="3" y="0" width="1" height="1" fill="#91AA6F" /><rect x="4" y="0" width="1" height="1" fill="#C3C34E" /><rect x="5" y="0" width="1" height="1" fill="#F5FE48" /><rect x="6" y="0" width="1" height="1" fill="#708970" /><rect x="7" y="0" width="1" height="1" fill="#CAFD85" /><rect x="8" y="0" width="1" height="1" fill="#FFFF78" /><rect x="9" y="0" width="1" height="1" fill="#FFFF4D" /><rect x="0" y="1" width="1" height="1" fill="#83A75E" /><rect x="1" y="1" width="1" height="1" fill="#678159" /><rect x="2" y="1" width="1" height="1" fill="#A3BD60" /><rect x="3" y="1" width="1" height="1" fill="#C4D655" /><rect x="4" y="1" width="1" height="1" fill="#D0ED51" /><rect x="5" y="1" width="1" height="1" fill="#CEFD70" /><rect x="6" y="1" width="1" height="1" fill="#819B65" /><rect x="7" y="1" width="1" height="1" fill="#A2BE88" /><rect x="8" y="1" width="1" height="1" fill="#FFFF6C" /><rect x="9" y="1" width="1" height="1" fill="#FFFF40" /><rect x="0" y="2" width="1" height="1" fill="#3F685E" /><rect x="1" y="2" width="1" height="1" fill="#83C58F" /><rect x="2" y="2" width="1" height="1" fill="#D9FF80" /><rect x="3" y="2" width="1" height="1" fill="#DFF77A" /><rect x="4" y="2" width="1" height="1" fill="#F0FFA8" /><rect x="5" y="2" width="1" height="1" fill="#D4F275" /><rect x="6" y="2" width="1" height="1" fill="#77924C" /><rect x="7" y="2" width="1" height="1" fill="#A5C17E" /><rect x="8" y="2" width="1" height="1" fill="#EEFF76" /><rect x="9" y="2" width="1" height="1" fill="#FFFF4A" /><rect x="0" y="3" width="1" height="1" fill="#5AA990" /><rect x="1" y="3" width="1" height="1" fill="#E6FF7C" /><rect x="2" y="3" width="1" height="1" fill="#D9EF4D" /><rect x="3" y="3" width="1" height="1" fill="#FFFF69" /><rect x="4" y="3" width="1" height="1" fill="#FFFF70" /><rect x="5" y="3" width="1" height="1" fill="#BED949" /><rect x="6" y="3" width="1" height="1" fill="#92AB64" /><rect x="7" y="3" width="1" height="1" fill="#97C27A" /><rect x="8" y="3" width="1" height="1" fill="#96BB72" /><rect x="9" y="3" width="1" height="1" fill="#FFFF51" /><rect x="0" y="4" width="1" height="1" fill="#D0FF7C" /><rect x="1" y="4" width="1" height="1" fill="#C9D043" /><rect x="2" y="4" width="1" height="1" fill="#8BA761" /><rect x="3" y="4" width="1" height="1" fill="#E2FF5D" /><rect x="4" y="4" width="1" height="1" fill="#FFFF62" /><rect x="5" y="4" width="1" height="1" fill="#BFC548" /><rect x="6" y="4" width="1" height="1" fill="#B3CD73" /><rect x="7" y="4" width="1" height="1" fill="#73A275" /><rect x="8" y="4" width="1" height="1" fill="#759C62" /><rect x="9" y="4" width="1" height="1" fill="#FFFF44" /><rect x="0" y="5" width="1" height="1" fill="#E7FF5B" /><rect x="1" y="5" width="1" height="1" fill="#61826E" /><rect x="2" y="5" width="1" height="1" fill="#91AA65" /><rect x="3" y="5" width="1" height="1" fill="#CBD15C" /><rect x="4" y="5" width="1" height="1" fill="#ECFF85" /><rect x="5" y="5" width="1" height="1" fill="#94D689" /><rect x="6" y="5" width="1" height="1" fill="#83994F" /><rect x="7" y="5" width="1" height="1" fill="#3C634F" /><rect x="8" y="5" width="1" height="1" fill="#90B36D" /><rect x="9" y="5" width="1" height="1" fill="#FFFF46" /><rect x="0" y="6" width="1" height="1" fill="#CFFF5D" /><rect x="1" y="6" width="1" height="1" fill="#697C81" /><rect x="2" y="6" width="1" height="1" fill="#94B06A" /><rect x="3" y="6" width="1" height="1" fill="#A4B963" /><rect x="4" y="6" width="1" height="1" fill="#C0ED5D" /><rect x="5" y="6" width="1" height="1" fill="#CDFF91" /><rect x="6" y="6" width="1" height="1" fill="#5EA292" /><rect x="7" y="6" width="1" height="1" fill="#47ADB8" /><rect x="8" y="6" width="1" height="1" fill="#E2FF88" /><rect x="9" y="6" width="1" height="1" fill="#FFFF42" /><rect x="0" y="7" width="1" height="1" fill="#A2E16B" /><rect x="1" y="7" width="1" height="1" fill="#5B836F" /><rect x="2" y="7" width="1" height="1" fill="#85A573" /><rect x="3" y="7" width="1" height="1" fill="#7D9A79" /><rect x="4" y="7" width="1" height="1" fill="#849E51" /><rect x="5" y="7" width="1" height="1" fill="#C3CD57" /><rect x="6" y="7" width="1" height="1" fill="#D0FC8A" /><rect x="7" y="7" width="1" height="1" fill="#F7FF8D" /><rect x="8" y="7" width="1" height="1" fill="#F9FF69" /><rect x="9" y="7" width="1" height="1" fill="#EBFA66" /><rect x="0" y="8" width="1" height="1" fill="#86BB70" /><rect x="1" y="8" width="1" height="1" fill="#28694A" /><rect x="2" y="8" width="1" height="1" fill="#6A9969" /><rect x="3" y="8" width="1" height="1" fill="#679063" /><rect x="4" y="8" width="1" height="1" fill="#6F9569" /><rect x="5" y="8" width="1" height="1" fill="#60886C" /><rect x="6" y="8" width="1" height="1" fill="#7D9E4C" /><rect x="7" y="8" width="1" height="1" fill="#598F40" /><rect x="8" y="8" width="1" height="1" fill="#7EC484" /><rect x="9" y="8" width="1" height="1" fill="#F5FF94" /><rect x="0" y="9" width="1" height="1" fill="#BDE67B" /><rect x="1" y="9" width="1" height="1" fill="#2C6249" /><rect x="2" y="9" width="1" height="1" fill="#437B43" /><rect x="3" y="9" width="1" height="1" fill="#5E9362" /><rect x="4" y="9" width="1" height="1" fill="#558C69" /><rect x="5" y="9" width="1" height="1" fill="#538857" /><rect x="6" y="9" width="1" height="1" fill="#296443" /><rect x="7" y="9" width="1" height="1" fill="#1D655E" /><rect x="8" y="9" width="1" height="1" fill="#B8FFF5" /><rect x="9" y="9" width="1" height="1" fill="#ADEEAB" />
  </g>
</svg>