<svg width="800" height="1000" xmlns="http://www.w3.org/2000/svg"><defs><linearGradient id="g" x1="0" x2="1" y1="0" y2="1"><stop offset="0%" stop-color="#2d3c96"/><stop offset="100%" stop-color="#d53392"/></linearGradient></defs><rect x="10" y="10" width="780" height="980" fill="url(#g)" rx="50" ry="50" stroke="gold" stroke-width="20"/><text x="400" y="920" width="780" text-anchor="middle" style="font:bold 200px 'Helvetica Neue';fill:gold">06132</text><g transform="translate(80 80) scale(64)"><rect x="0" y="0" width="1" height="1" fill="#ffff2f" /><rect x="0" y="1" width="1" height="1" fill="#ffff3a" /><rect x="0" y="2" width="1" height="1" fill="#ffff30" /><rect x="0" y="3" width="1" height="1" fill="#ffff30" /><rect x="0" y="4" width="1" height="1" fill="#ffff36" /><rect x="0" y="5" width="1" height="1" fill="#ffff30" /><rect x="0" y="6" width="1" height="1" fill="#ffff3a" /><rect x="0" y="7" width="1" height="1" fill="#ffff30" /><rect x="0" y="8" width="1" height="1" fill="#ffe73c" /><rect x="0" y="9" width="1" height="1" fill="#ddb82f" /><rect x="1" y="0" width="1" height="1" fill="#a4aa49" /><rect x="1" y="1" width="1" height="1" fill="#a5b553" /><rect x="1" y="2" width="1" height="1" fill="#b7bf53" /><rect x="1" y="3" width="1" height="1" fill="#d4cb4d" /><rect x="1" y="4" width="1" height="1" fill="#f3d948" /><rect x="1" y="5" width="1" height="1" fill="#fff241" /><rect x="1" y="6" width="1" height="1" fill="#fff22f" /><rect x="1" y="7" width="1" height="1" fill="#fff431" /><rect x="1" y="8" width="1" height="1" fill="#ffff32" /><rect x="1" y="9" width="1" height="1" fill="#ffff2e" /><rect x="2" y="0" width="1" height="1" fill="#257577" /><rect x="2" y="1" width="1" height="1" fill="#296f7c" /><rect x="2" y="2" width="1" height="1" fill="#2d7c84" /><rect x="2" y="3" width="1" height="1" fill="#2697a1" /><rect x="2" y="4" width="1" height="1" fill="#4cc7d2" /><rect x="2" y="5" width="1" height="1" fill="#5fcab2" /><rect x="2" y="6" width="1" height="1" fill="#c2e991" /><rect x="2" y="7" width="1" height="1" fill="#ffff79" /><rect x="2" y="8" width="1" height="1" fill="#fff52e" /><rect x="2" y="9" width="1" height="1" fill="#ffff38" /><rect x="3" y="0" width="1" height="1" fill="#4b8e7c" /><rect x="3" y="1" width="1" height="1" fill="#3a736c" /><rect x="3" y="2" width="1" height="1" fill="#4d8174" /><rect x="3" y="3" width="1" height="1" fill="#468c75" /><rect x="3" y="4" width="1" height="1" fill="#42b2b9" /><rect x="3" y="5" width="1" height="1" fill="#2dc6e7" /><rect x="3" y="6" width="1" height="1" fill="#2d969b" /><rect x="3" y="7" width="1" height="1" fill="#a3efb2" /><rect x="3" y="8" width="1" height="1" fill="#f2e36d" /><rect x="3" y="9" width="1" height="1" fill="#fffc3d" /><rect x="4" y="0" width="1" height="1" fill="#48a893" /><rect x="4" y="1" width="1" height="1" fill="#5b9075" /><rect x="4" y="2" width="1" height="1" fill="#2d8377" /><rect x="4" y="3" width="1" height="1" fill="#27868b" /><rect x="4" y="4" width="1" height="1" fill="#34a9b2" /><rect x="4" y="5" width="1" height="1" fill="#3bb5c4" /><rect x="4" y="6" width="1" height="1" fill="#2c8785" /><rect x="4" y="7" width="1" height="1" fill="#3b8e8b" /><rect x="4" y="8" width="1" height="1" fill="#d3c969" /><rect x="4" y="9" width="1" height="1" fill="#fdbc30" /><rect x="5" y="0" width="1" height="1" fill="#6ebab1" /><rect x="5" y="1" width="1" height="1" fill="#f4fa78" /><rect x="5" y="2" width="1" height="1" fill="#dfce5d" /><rect x="5" y="3" width="1" height="1" fill="#9bc179" /><rect x="5" y="4" width="1" height="1" fill="#7aae8b" /><rect x="5" y="5" width="1" height="1" fill="#5e876b" /><rect x="5" y="6" width="1" height="1" fill="#3c7074" /><rect x="5" y="7" width="1" height="1" fill="#6bb794" /><rect x="5" y="8" width="1" height="1" fill="#e7de7a" /><rect x="5" y="9" width="1" height="1" fill="#f9ae30" /><rect x="6" y="0" width="1" height="1" fill="#4a9489" /><rect x="6" y="1" width="1" height="1" fill="#c4e58d" /><rect x="6" y="2" width="1" height="1" fill="#fff636" /><rect x="6" y="3" width="1" height="1" fill="#ffff31" /><rect x="6" y="4" width="1" height="1" fill="#fff136" /><rect x="6" y="5" width="1" height="1" fill="#fde330" /><rect x="6" y="6" width="1" height="1" fill="#edda4f" /><rect x="6" y="7" width="1" height="1" fill="#eee959" /><rect x="6" y="8" width="1" height="1" fill="#fadc41" /><rect x="6" y="9" width="1" height="1" fill="#ffff48" /><rect x="7" y="0" width="1" height="1" fill="#265254" /><rect x="7" y="1" width="1" height="1" fill="#a8dc91" /><rect x="7" y="2" width="1" height="1" fill="#ffff6c" /><rect x="7" y="3" width="1" height="1" fill="#ffff2f" /><rect x="7" y="4" width="1" height="1" fill="#ffff3a" /><rect x="7" y="5" width="1" height="1" fill="#ffff34" /><rect x="7" y="6" width="1" height="1" fill="#ffff50" /><rect x="7" y="7" width="1" height="1" fill="#ffff46" /><rect x="7" y="8" width="1" height="1" fill="#ffff48" /><rect x="7" y="9" width="1" height="1" fill="#ffff4d" /><rect x="8" y="0" width="1" height="1" fill="#407063" /><rect x="8" y="1" width="1" height="1" fill="#6ca564" /><rect x="8" y="2" width="1" height="1" fill="#afbb6b" /><rect x="8" y="3" width="1" height="1" fill="#b5bc60" /><rect x="8" y="4" width="1" height="1" fill="#d4cc53" /><rect x="8" y="5" width="1" height="1" fill="#f6ef4a" /><rect x="8" y="6" width="1" height="1" fill="#ffff48" /><rect x="8" y="7" width="1" height="1" fill="#ffff3d" /><rect x="8" y="8" width="1" height="1" fill="#ffff4c" /><rect x="8" y="9" width="1" height="1" fill="#ffff44" /><rect x="9" y="0" width="1" height="1" fill="#0b0d03" /><rect x="9" y="1" width="1" height="1" fill="#0b0d03" /><rect x="9" y="2" width="1" height="1" fill="#0b0d03" /><rect x="9" y="3" width="1" height="1" fill="#0b0d03" /><rect x="9" y="4" width="1" height="1" fill="#0b0d03" /><rect x="9" y="5" width="1" height="1" fill="#0b0d03" /><rect x="9" y="6" width="1" height="1" fill="#0b0d03" /><rect x="9" y="7" width="1" height="1" fill="#0b0d03" /><rect x="9" y="8" width="1" height="1" fill="#0b0d03" /><rect x="9" y="9" width="1" height="1" fill="#0b0d03" /></g></svg>