<svg width="800" height="1000" version="1.1" xmlns="http://www.w3.org/2000/svg" xmlns:xlink="http://www.w3.org/1999/xlink">
  <defs>
      <linearGradient id="Gradient2" x1="0" x2="1" y1="0" y2="1">
        <stop offset="0%" stop-color="#2d3c96"/>
        <stop offset="100%" stop-color="#d53392"/>
      </linearGradient>
  </defs>
  <rect x="10" y="10" width="780" height="980" fill="url(#Gradient2)" rx="50" ry="50" stroke="#ffd700" stroke-width="20"/>
  <text x="400" y="920" width="780" text-anchor="middle" style="font: bold 200px 'Helvetica Neue'; fill: #ffd700">06130</text>

  <g transform="translate(80 80) scale(64)">
<rect x="0" y="0" width="1" height="1" fill="#578685" /><rect x="1" y="0" width="1" height="1" fill="#2C6E85" /><rect x="2" y="0" width="1" height="1" fill="#BFD297" /><rect x="3" y="0" width="1" height="1" fill="#FFFF4C" /><rect x="4" y="0" width="1" height="1" fill="#FFFF42" /><rect x="5" y="0" width="1" height="1" fill="#FACB4E" /><rect x="6" y="0" width="1" height="1" fill="#A68A54" /><rect x="7" y="0" width="1" height="1" fill="#51BBDB" /><rect x="8" y="0" width="1" height="1" fill="#93BE99" /><rect x="9" y="0" width="1" height="1" fill="#FFDB44" /><rect x="0" y="1" width="1" height="1" fill="#5D7472" /><rect x="1" y="1" width="1" height="1" fill="#2E6A95" /><rect x="2" y="1" width="1" height="1" fill="#A1C2A0" /><rect x="3" y="1" width="1" height="1" fill="#FFFF5A" /><rect x="4" y="1" width="1" height="1" fill="#FFFF42" /><rect x="5" y="1" width="1" height="1" fill="#FFEB41" /><rect x="6" y="1" width="1" height="1" fill="#ECAA45" /><rect x="7" y="1" width="1" height="1" fill="#62BED4" /><rect x="8" y="1" width="1" height="1" fill="#6EDED8" /><rect x="9" y="1" width="1" height="1" fill="#FFED55" /><rect x="0" y="2" width="1" height="1" fill="#5D8780" /><rect x="1" y="2" width="1" height="1" fill="#3E6E8F" /><rect x="2" y="2" width="1" height="1" fill="#6D9897" /><rect x="3" y="2" width="1" height="1" fill="#FFFF55" /><rect x="4" y="2" width="1" height="1" fill="#FFFF42" /><rect x="5" y="2" width="1" height="1" fill="#FFFF48" /><rect x="6" y="2" width="1" height="1" fill="#FFE64D" /><rect x="7" y="2" width="1" height="1" fill="#B0C0A6" /><rect x="8" y="2" width="1" height="1" fill="#7FFBFF" /><rect x="9" y="2" width="1" height="1" fill="#DFD073" /><rect x="0" y="3" width="1" height="1" fill="#5E888F" /><rect x="1" y="3" width="1" height="1" fill="#43798A" /><rect x="2" y="3" width="1" height="1" fill="#2B6DA0" /><rect x="3" y="3" width="1" height="1" fill="#D6C45E" /><rect x="4" y="3" width="1" height="1" fill="#FFFF48" /><rect x="5" y="3" width="1" height="1" fill="#FFFB48" /><rect x="6" y="3" width="1" height="1" fill="#FFFA5D" /><rect x="7" y="3" width="1" height="1" fill="#FED67F" /><rect x="8" y="3" width="1" height="1" fill="#D1E8B8" /><rect x="9" y="3" width="1" height="1" fill="#89B6B8" /><rect x="0" y="4" width="1" height="1" fill="#5E818E" /><rect x="1" y="4" width="1" height="1" fill="#6D9C9D" /><rect x="2" y="4" width="1" height="1" fill="#6A9A95" /><rect x="3" y="4" width="1" height="1" fill="#70A39D" /><rect x="4" y="4" width="1" height="1" fill="#FFFF56" /><rect x="5" y="4" width="1" height="1" fill="#FFFF44" /><rect x="6" y="4" width="1" height="1" fill="#FFE949" /><rect x="7" y="4" width="1" height="1" fill="#FFFF8D" /><rect x="8" y="4" width="1" height="1" fill="#FFF76F" /><rect x="9" y="4" width="1" height="1" fill="#71AFB5" /><rect x="0" y="5" width="1" height="1" fill="#338198" /><rect x="1" y="5" width="1" height="1" fill="#AECC95" /><rect x="2" y="5" width="1" height="1" fill="#FFFC62" /><rect x="3" y="5" width="1" height="1" fill="#479BA2" /><rect x="4" y="5" width="1" height="1" fill="#D4CC74" /><rect x="5" y="5" width="1" height="1" fill="#FFFF4C" /><rect x="6" y="5" width="1" height="1" fill="#FFEB41" /><rect x="7" y="5" width="1" height="1" fill="#FFFB77" /><rect x="8" y="5" width="1" height="1" fill="#FFFF93" /><rect x="9" y="5" width="1" height="1" fill="#D7FF8E" /><rect x="0" y="6" width="1" height="1" fill="#3C6D7A" /><rect x="1" y="6" width="1" height="1" fill="#D5EC8B" /><rect x="2" y="6" width="1" height="1" fill="#FFDD59" /><rect x="3" y="6" width="1" height="1" fill="#445E63" /><rect x="4" y="6" width="1" height="1" fill="#879C7A" /><rect x="5" y="6" width="1" height="1" fill="#FFFF42" /><rect x="6" y="6" width="1" height="1" fill="#FFFE41" /><rect x="7" y="6" width="1" height="1" fill="#FFE453" /><rect x="8" y="6" width="1" height="1" fill="#FFFF9E" /><rect x="9" y="6" width="1" height="1" fill="#FFFF66" /><rect x="0" y="7" width="1" height="1" fill="#537184" /><rect x="1" y="7" width="1" height="1" fill="#FFF889" /><rect x="2" y="7" width="1" height="1" fill="#FFDA59" /><rect x="3" y="7" width="1" height="1" fill="#5E7574" /><rect x="4" y="7" width="1" height="1" fill="#6995A6" /><rect x="5" y="7" width="1" height="1" fill="#FFF646" /><rect x="6" y="7" width="1" height="1" fill="#FFFF42" /><rect x="7" y="7" width="1" height="1" fill="#FFEA43" /><rect x="8" y="7" width="1" height="1" fill="#FFFA6C" /><rect x="9" y="7" width="1" height="1" fill="#FFFF62" /><rect x="0" y="8" width="1" height="1" fill="#6B826F" /><rect x="1" y="8" width="1" height="1" fill="#FFFF90" /><rect x="2" y="8" width="1" height="1" fill="#FFD44F" /><rect x="3" y="8" width="1" height="1" fill="#658384" /><rect x="4" y="8" width="1" height="1" fill="#4E9CAF" /><rect x="5" y="8" width="1" height="1" fill="#FFFF6A" /><rect x="6" y="8" width="1" height="1" fill="#FFFF5F" /><rect x="7" y="8" width="1" height="1" fill="#FFF340" /><rect x="8" y="8" width="1" height="1" fill="#FFF14A" /><rect x="9" y="8" width="1" height="1" fill="#FFFF66" /><rect x="0" y="9" width="1" height="1" fill="#80976A" /><rect x="1" y="9" width="1" height="1" fill="#FFF271" /><rect x="2" y="9" width="1" height="1" fill="#FFD142" /><rect x="3" y="9" width="1" height="1" fill="#6B8E81" /><rect x="4" y="9" width="1" height="1" fill="#7BBAA4" /><rect x="5" y="9" width="1" height="1" fill="#FFFF54" /><rect x="6" y="9" width="1" height="1" fill="#FFFF61" /><rect x="7" y="9" width="1" height="1" fill="#FFFF72" /><rect x="8" y="9" width="1" height="1" fill="#F7D560" /><rect x="9" y="9" width="1" height="1" fill="#FAE964" />
  </g>
</svg>