<svg width="800" height="1000" xmlns="http://www.w3.org/2000/svg"><defs><linearGradient id="g" x1="0" x2="1" y1="0" y2="1"><stop offset="0%" stop-color="#2d3c96"/><stop offset="100%" stop-color="#d53392"/></linearGradient></defs><rect x="10" y="10" width="780" height="980" fill="url(#g)" rx="50" ry="50" stroke="gold" stroke-width="20"/><text x="400" y="920" width="780" text-anchor="middle" style="font:bold 200px 'Helvetica Neue';fill:gold">06147</text><g transform="translate(80 80) scale(64)"><rect x="0" y="0" width="1" height="1" fill="#313131" /><rect x="0" y="1" width="1" height="1" fill="#efefef" /><rect x="0" y="2" width="1" height="1" fill="#8c8c8c" /><rect x="0" y="3" width="1" height="1" fill="#ffffff" /><rect x="0" y="4" width="1" height="1" fill="#080808" /><rect x="0" y="5" width="1" height="1" fill="#ffffff" /><rect x="0" y="6" width="1" height="1" fill="#ffffff" /><rect x="0" y="7" width="1" height="1" fill="#ffffff" /><rect x="0" y="8" width="1" height="1" fill="#ffffff" /><rect x="0" y="9" width="1" height="1" fill="#ffffff" /><rect x="1" y="0" width="1" height="1" fill="#282828" /><rect x="1" y="1" width="1" height="1" fill="#505050" /><rect x="1" y="2" width="1" height="1" fill="#8c8c8c" /><rect x="1" y="3" width="1" height="1" fill="#f8f8f8" /><rect x="1" y="4" width="1" height="1" fill="#606060" /><rect x="1" y="5" width="1" height="1" fill="#ffffff" /><rect x="1" y="6" width="1" height="1" fill="#ffffff" /><rect x="1" y="7" width="1" height="1" fill="#ffffff" /><rect x="1" y="8" width="1" height="1" fill="#ffffff" /><rect x="1" y="9" width="1" height="1" fill="#ffffff" /><rect x="2" y="0" width="1" height="1" fill="#ffffff" /><rect x="2" y="1" width="1" height="1" fill="#e4e4e4" /><rect x="2" y="2" width="1" height="1" fill="#dbdbdb" /><rect x="2" y="3" width="1" height="1" fill="#ffffff" /><rect x="2" y="4" width="1" height="1" fill="#ffffff" /><rect x="2" y="5" width="1" height="1" fill="#ffffff" /><rect x="2" y="6" width="1" height="1" fill="#ffffff" /><rect x="2" y="7" width="1" height="1" fill="#ffffff" /><rect x="2" y="8" width="1" height="1" fill="#ffffff" /><rect x="2" y="9" width="1" height="1" fill="#ffffff" /><rect x="3" y="0" width="1" height="1" fill="#ececec" /><rect x="3" y="1" width="1" height="1" fill="#ececec" /><rect x="3" y="2" width="1" height="1" fill="#ececec" /><rect x="3" y="3" width="1" height="1" fill="#ececec" /><rect x="3" y="4" width="1" height="1" fill="#323232" /><rect x="3" y="5" width="1" height="1" fill="#ffffff" /><rect x="3" y="6" width="1" height="1" fill="#ffffff" /><rect x="3" y="7" width="1" height="1" fill="#ffffff" /><rect x="3" y="8" width="1" height="1" fill="#ffffff" /><rect x="3" y="9" width="1" height="1" fill="#ffffff" /><rect x="4" y="0" width="1" height="1" fill="#1d1d1d" /><rect x="4" y="1" width="1" height="1" fill="#1d1d1d" /><rect x="4" y="2" width="1" height="1" fill="#1d1d1d" /><rect x="4" y="3" width="1" height="1" fill="#1d1d1d" /><rect x="4" y="4" width="1" height="1" fill="#272727" /><rect x="4" y="5" width="1" height="1" fill="#ffffff" /><rect x="4" y="6" width="1" height="1" fill="#ffffff" /><rect x="4" y="7" width="1" height="1" fill="#ffffff" /><rect x="4" y="8" width="1" height="1" fill="#ffffff" /><rect x="4" y="9" width="1" height="1" fill="#ffffff" /><rect x="5" y="0" width="1" height="1" fill="#ffffff" /><rect x="5" y="1" width="1" height="1" fill="#ffffff" /><rect x="5" y="2" width="1" height="1" fill="#ffffff" /><rect x="5" y="3" width="1" height="1" fill="#ffffff" /><rect x="5" y="4" width="1" height="1" fill="#7b7b7b" /><rect x="5" y="5" width="1" height="1" fill="#ffffff" /><rect x="5" y="6" width="1" height="1" fill="#ffffff" /><rect x="5" y="7" width="1" height="1" fill="#ffffff" /><rect x="5" y="8" width="1" height="1" fill="#ffffff" /><rect x="5" y="9" width="1" height="1" fill="#ffffff" /><rect x="6" y="0" width="1" height="1" fill="#e1e1e1" /><rect x="6" y="1" width="1" height="1" fill="#a8a8a8" /><rect x="6" y="2" width="1" height="1" fill="#fdfdfd" /><rect x="6" y="3" width="1" height="1" fill="#777777" /><rect x="6" y="4" width="1" height="1" fill="#e7e7e7" /><rect x="6" y="5" width="1" height="1" fill="#ffffff" /><rect x="6" y="6" width="1" height="1" fill="#ffffff" /><rect x="6" y="7" width="1" height="1" fill="#ffffff" /><rect x="6" y="8" width="1" height="1" fill="#ffffff" /><rect x="6" y="9" width="1" height="1" fill="#ffffff" /><rect x="7" y="0" width="1" height="1" fill="#191919" /><rect x="7" y="1" width="1" height="1" fill="#7c7c7c" /><rect x="7" y="2" width="1" height="1" fill="#808080" /><rect x="7" y="3" width="1" height="1" fill="#e9e9e9" /><rect x="7" y="4" width="1" height="1" fill="#262626" /><rect x="7" y="5" width="1" height="1" fill="#ffffff" /><rect x="7" y="6" width="1" height="1" fill="#ffffff" /><rect x="7" y="7" width="1" height="1" fill="#ffffff" /><rect x="7" y="8" width="1" height="1" fill="#ffffff" /><rect x="7" y="9" width="1" height="1" fill="#ffffff" /><rect x="8" y="0" width="1" height="1" fill="#343434" /><rect x="8" y="1" width="1" height="1" fill="#fafafa" /><rect x="8" y="2" width="1" height="1" fill="#1d1d1d" /><rect x="8" y="3" width="1" height="1" fill="#fdfdfd" /><rect x="8" y="4" width="1" height="1" fill="#080808" /><rect x="8" y="5" width="1" height="1" fill="#ffffff" /><rect x="8" y="6" width="1" height="1" fill="#ffffff" /><rect x="8" y="7" width="1" height="1" fill="#ffffff" /><rect x="8" y="8" width="1" height="1" fill="#ffffff" /><rect x="8" y="9" width="1" height="1" fill="#ffffff" /><rect x="9" y="0" width="1" height="1" fill="#181818" /><rect x="9" y="1" width="1" height="1" fill="#b9b9b9" /><rect x="9" y="2" width="1" height="1" fill="#949494" /><rect x="9" y="3" width="1" height="1" fill="#010101" /><rect x="9" y="4" width="1" height="1" fill="#bcbcbc" /><rect x="9" y="5" width="1" height="1" fill="#ffffff" /><rect x="9" y="6" width="1" height="1" fill="#ffffff" /><rect x="9" y="7" width="1" height="1" fill="#ffffff" /><rect x="9" y="8" width="1" height="1" fill="#ffffff" /><rect x="9" y="9" width="1" height="1" fill="#ffffff" /></g></svg>