<svg width="800" height="1000" xmlns="http://www.w3.org/2000/svg"><defs><linearGradient id="g" x1="0" x2="1" y1="0" y2="1"><stop offset="0%" stop-color="#2d3c96"/><stop offset="100%" stop-color="#d53392"/></linearGradient></defs><rect x="10" y="10" width="780" height="980" fill="url(#g)" rx="50" ry="50" stroke="gold" stroke-width="20"/><text x="400" y="920" width="780" text-anchor="middle" style="font:bold 200px 'Helvetica Neue';fill:gold">06146</text><g transform="translate(80 80) scale(64)"><rect x="0" y="0" width="1" height="1" fill="#3b3b3b" /><rect x="0" y="1" width="1" height="1" fill="#0e0e0e" /><rect x="0" y="2" width="1" height="1" fill="#111111" /><rect x="0" y="3" width="1" height="1" fill="#111111" /><rect x="0" y="4" width="1" height="1" fill="#272727" /><rect x="0" y="5" width="1" height="1" fill="#ffffff" /><rect x="0" y="6" width="1" height="1" fill="#ffffff" /><rect x="0" y="7" width="1" height="1" fill="#ffffff" /><rect x="0" y="8" width="1" height="1" fill="#ffffff" /><rect x="0" y="9" width="1" height="1" fill="#ffffff" /><rect x="1" y="0" width="1" height="1" fill="#ffffff" /><rect x="1" y="1" width="1" height="1" fill="#ffffff" /><rect x="1" y="2" width="1" height="1" fill="#ffffff" /><rect x="1" y="3" width="1" height="1" fill="#ffffff" /><rect x="1" y="4" width="1" height="1" fill="#323232" /><rect x="1" y="5" width="1" height="1" fill="#ffffff" /><rect x="1" y="6" width="1" height="1" fill="#ffffff" /><rect x="1" y="7" width="1" height="1" fill="#ffffff" /><rect x="1" y="8" width="1" height="1" fill="#ffffff" /><rect x="1" y="9" width="1" height="1" fill="#ffffff" /><rect x="2" y="0" width="1" height="1" fill="#f9f9f9" /><rect x="2" y="1" width="1" height="1" fill="#bcbcbc" /><rect x="2" y="2" width="1" height="1" fill="#dfdfdf" /><rect x="2" y="3" width="1" height="1" fill="#dfdfdf" /><rect x="2" y="4" width="1" height="1" fill="#c2c2c2" /><rect x="2" y="5" width="1" height="1" fill="#383838" /><rect x="2" y="6" width="1" height="1" fill="#999999" /><rect x="2" y="7" width="1" height="1" fill="#ffffff" /><rect x="2" y="8" width="1" height="1" fill="#ffffff" /><rect x="2" y="9" width="1" height="1" fill="#ffffff" /><rect x="3" y="0" width="1" height="1" fill="#2b2b2b" /><rect x="3" y="1" width="1" height="1" fill="#898989" /><rect x="3" y="2" width="1" height="1" fill="#2a2a2a" /><rect x="3" y="3" width="1" height="1" fill="#535353" /><rect x="3" y="4" width="1" height="1" fill="#030303" /><rect x="3" y="5" width="1" height="1" fill="#e8e8e8" /><rect x="3" y="6" width="1" height="1" fill="#3a3a3a" /><rect x="3" y="7" width="1" height="1" fill="#ebebeb" /><rect x="3" y="8" width="1" height="1" fill="#ffffff" /><rect x="3" y="9" width="1" height="1" fill="#ffffff" /><rect x="4" y="0" width="1" height="1" fill="#4d4d4d" /><rect x="4" y="1" width="1" height="1" fill="#ffffff" /><rect x="4" y="2" width="1" height="1" fill="#bbbbbb" /><rect x="4" y="3" width="1" height="1" fill="#aeaeae" /><rect x="4" y="4" width="1" height="1" fill="#050505" /><rect x="4" y="5" width="1" height="1" fill="#ffffff" /><rect x="4" y="6" width="1" height="1" fill="#858585" /><rect x="4" y="7" width="1" height="1" fill="#dbdbdb" /><rect x="4" y="8" width="1" height="1" fill="#ffffff" /><rect x="4" y="9" width="1" height="1" fill="#ffffff" /><rect x="5" y="0" width="1" height="1" fill="#151515" /><rect x="5" y="1" width="1" height="1" fill="#eeeeee" /><rect x="5" y="2" width="1" height="1" fill="#727272" /><rect x="5" y="3" width="1" height="1" fill="#c8c8c8" /><rect x="5" y="4" width="1" height="1" fill="#060606" /><rect x="5" y="5" width="1" height="1" fill="#fefefe" /><rect x="5" y="6" width="1" height="1" fill="#575757" /><rect x="5" y="7" width="1" height="1" fill="#e6e6e6" /><rect x="5" y="8" width="1" height="1" fill="#ffffff" /><rect x="5" y="9" width="1" height="1" fill="#ffffff" /><rect x="6" y="0" width="1" height="1" fill="#292929" /><rect x="6" y="1" width="1" height="1" fill="#414141" /><rect x="6" y="2" width="1" height="1" fill="#828282" /><rect x="6" y="3" width="1" height="1" fill="#ffffff" /><rect x="6" y="4" width="1" height="1" fill="#484848" /><rect x="6" y="5" width="1" height="1" fill="#060606" /><rect x="6" y="6" width="1" height="1" fill="#585858" /><rect x="6" y="7" width="1" height="1" fill="#ffffff" /><rect x="6" y="8" width="1" height="1" fill="#ffffff" /><rect x="6" y="9" width="1" height="1" fill="#ffffff" /><rect x="7" y="0" width="1" height="1" fill="#cacaca" /><rect x="7" y="1" width="1" height="1" fill="#ffffff" /><rect x="7" y="2" width="1" height="1" fill="#ffffff" /><rect x="7" y="3" width="1" height="1" fill="#ffffff" /><rect x="7" y="4" width="1" height="1" fill="#ffffff" /><rect x="7" y="5" width="1" height="1" fill="#f6f6f6" /><rect x="7" y="6" width="1" height="1" fill="#ffffff" /><rect x="7" y="7" width="1" height="1" fill="#ffffff" /><rect x="7" y="8" width="1" height="1" fill="#ffffff" /><rect x="7" y="9" width="1" height="1" fill="#ffffff" /><rect x="8" y="0" width="1" height="1" fill="#e3e3e3" /><rect x="8" y="1" width="1" height="1" fill="#0b0b0b" /><rect x="8" y="2" width="1" height="1" fill="#070707" /><rect x="8" y="3" width="1" height="1" fill="#171717" /><rect x="8" y="4" width="1" height="1" fill="#fafafa" /><rect x="8" y="5" width="1" height="1" fill="#ffffff" /><rect x="8" y="6" width="1" height="1" fill="#ffffff" /><rect x="8" y="7" width="1" height="1" fill="#ffffff" /><rect x="8" y="8" width="1" height="1" fill="#ffffff" /><rect x="8" y="9" width="1" height="1" fill="#ffffff" /><rect x="9" y="0" width="1" height="1" fill="#171717" /><rect x="9" y="1" width="1" height="1" fill="#eeeeee" /><rect x="9" y="2" width="1" height="1" fill="#8c8c8c" /><rect x="9" y="3" width="1" height="1" fill="#9f9f9f" /><rect x="9" y="4" width="1" height="1" fill="#424242" /><rect x="9" y="5" width="1" height="1" fill="#ffffff" /><rect x="9" y="6" width="1" height="1" fill="#ffffff" /><rect x="9" y="7" width="1" height="1" fill="#ffffff" /><rect x="9" y="8" width="1" height="1" fill="#ffffff" /><rect x="9" y="9" width="1" height="1" fill="#ffffff" /></g></svg>