<svg width="800" height="1000" version="1.1" xmlns="http://www.w3.org/2000/svg" xmlns:xlink="http://www.w3.org/1999/xlink">
  <defs>
      <linearGradient id="Gradient2" x1="0" x2="1" y1="0" y2="1">
        <stop offset="0%" stop-color="#2d3c96"/>
        <stop offset="100%" stop-color="#d53392"/>
      </linearGradient>
  </defs>
  <rect x="10" y="10" width="780" height="980" fill="url(#Gradient2)" rx="50" ry="50" stroke="#ffd700" stroke-width="20"/>
  <text x="400" y="920" width="780" text-anchor="middle" style="font: bold 200px 'Helvetica Neue'; fill: #ffd700">06232</text>

  <g transform="translate(80 80) scale(64)">
<rect x="0" y="0" width="1" height="1" fill="#938F42" /><rect x="1" y="0" width="1" height="1" fill="#FFFF3F" /><rect x="2" y="0" width="1" height="1" fill="#FFFF59" /><rect x="3" y="0" width="1" height="1" fill="#FFFF61" /><rect x="4" y="0" width="1" height="1" fill="#FFFF47" /><rect x="5" y="0" width="1" height="1" fill="#FFFF49" /><rect x="6" y="0" width="1" height="1" fill="#FFFF4F" /><rect x="7" y="0" width="1" height="1" fill="#FFFF63" /><rect x="8" y="0" width="1" height="1" fill="#FFFF56" /><rect x="9" y="0" width="1" height="1" fill="#00070C" /><rect x="0" y="1" width="1" height="1" fill="#6C9C75" /><rect x="1" y="1" width="1" height="1" fill="#F1DD3D" /><rect x="2" y="1" width="1" height="1" fill="#FFFF3D" /><rect x="3" y="1" width="1" height="1" fill="#FFFB56" /><rect x="4" y="1" width="1" height="1" fill="#FFFF63" /><rect x="5" y="1" width="1" height="1" fill="#FFFF61" /><rect x="6" y="1" width="1" height="1" fill="#FDFF59" /><rect x="7" y="1" width="1" height="1" fill="#FFFF54" /><rect x="8" y="1" width="1" height="1" fill="#FFFF53" /><rect x="9" y="1" width="1" height="1" fill="#00070C" /><rect x="0" y="2" width="1" height="1" fill="#439B9A" /><rect x="1" y="2" width="1" height="1" fill="#A3944D" /><rect x="2" y="2" width="1" height="1" fill="#FFFF59" /><rect x="3" y="2" width="1" height="1" fill="#FFFF43" /><rect x="4" y="2" width="1" height="1" fill="#FEFF5A" /><rect x="5" y="2" width="1" height="1" fill="#FFFF5B" /><rect x="6" y="2" width="1" height="1" fill="#FFFF60" /><rect x="7" y="2" width="1" height="1" fill="#FFFF63" /><rect x="8" y="2" width="1" height="1" fill="#FFFF60" /><rect x="9" y="2" width="1" height="1" fill="#00070C" /><rect x="0" y="3" width="1" height="1" fill="#3AAAC5" /><rect x="1" y="3" width="1" height="1" fill="#70907F" /><rect x="2" y="3" width="1" height="1" fill="#C19B39" /><rect x="3" y="3" width="1" height="1" fill="#FFFF61" /><rect x="4" y="3" width="1" height="1" fill="#FFFF3E" /><rect x="5" y="3" width="1" height="1" fill="#FEFF4D" /><rect x="6" y="3" width="1" height="1" fill="#FFFF69" /><rect x="7" y="3" width="1" height="1" fill="#BEAC55" /><rect x="8" y="3" width="1" height="1" fill="#D2CA67" /><rect x="9" y="3" width="1" height="1" fill="#00070C" /><rect x="0" y="4" width="1" height="1" fill="#42A9AA" /><rect x="1" y="4" width="1" height="1" fill="#50BEC0" /><rect x="2" y="4" width="1" height="1" fill="#758762" /><rect x="3" y="4" width="1" height="1" fill="#A3893F" /><rect x="4" y="4" width="1" height="1" fill="#D5B447" /><rect x="5" y="4" width="1" height="1" fill="#D4B349" /><rect x="6" y="4" width="1" height="1" fill="#B38E4A" /><rect x="7" y="4" width="1" height="1" fill="#6E7755" /><rect x="8" y="4" width="1" height="1" fill="#92864F" /><rect x="9" y="4" width="1" height="1" fill="#00070C" /><rect x="0" y="5" width="1" height="1" fill="#469396" /><rect x="1" y="5" width="1" height="1" fill="#41CBDA" /><rect x="2" y="5" width="1" height="1" fill="#45C0D2" /><rect x="3" y="5" width="1" height="1" fill="#699885" /><rect x="4" y="5" width="1" height="1" fill="#76825C" /><rect x="5" y="5" width="1" height="1" fill="#747665" /><rect x="6" y="5" width="1" height="1" fill="#6D916A" /><rect x="7" y="5" width="1" height="1" fill="#4F8B84" /><rect x="8" y="5" width="1" height="1" fill="#606F5C" /><rect x="9" y="5" width="1" height="1" fill="#00070C" /><rect x="0" y="6" width="1" height="1" fill="#3D8284" /><rect x="1" y="6" width="1" height="1" fill="#4AC7CC" /><rect x="2" y="6" width="1" height="1" fill="#44B1C2" /><rect x="3" y="6" width="1" height="1" fill="#3F9DAC" /><rect x="4" y="6" width="1" height="1" fill="#4EA293" /><rect x="5" y="6" width="1" height="1" fill="#49A9B2" /><rect x="6" y="6" width="1" height="1" fill="#39B7C0" /><rect x="7" y="6" width="1" height="1" fill="#2C8983" /><rect x="8" y="6" width="1" height="1" fill="#457E68" /><rect x="9" y="6" width="1" height="1" fill="#00070C" /><rect x="0" y="7" width="1" height="1" fill="#476E64" /><rect x="1" y="7" width="1" height="1" fill="#519B99" /><rect x="2" y="7" width="1" height="1" fill="#4F9E98" /><rect x="3" y="7" width="1" height="1" fill="#457165" /><rect x="4" y="7" width="1" height="1" fill="#328381" /><rect x="5" y="7" width="1" height="1" fill="#488B88" /><rect x="6" y="7" width="1" height="1" fill="#478F8E" /><rect x="7" y="7" width="1" height="1" fill="#4B7D7B" /><rect x="8" y="7" width="1" height="1" fill="#3C8983" /><rect x="9" y="7" width="1" height="1" fill="#00070C" /><rect x="0" y="8" width="1" height="1" fill="#457067" /><rect x="1" y="8" width="1" height="1" fill="#387676" /><rect x="2" y="8" width="1" height="1" fill="#428985" /><rect x="3" y="8" width="1" height="1" fill="#3B725F" /><rect x="4" y="8" width="1" height="1" fill="#3B766D" /><rect x="5" y="8" width="1" height="1" fill="#517D71" /><rect x="6" y="8" width="1" height="1" fill="#46827F" /><rect x="7" y="8" width="1" height="1" fill="#48797C" /><rect x="8" y="8" width="1" height="1" fill="#3E837D" /><rect x="9" y="8" width="1" height="1" fill="#00070C" /><rect x="0" y="9" width="1" height="1" fill="#00070C" /><rect x="1" y="9" width="1" height="1" fill="#00070C" /><rect x="2" y="9" width="1" height="1" fill="#00070C" /><rect x="3" y="9" width="1" height="1" fill="#00070C" /><rect x="4" y="9" width="1" height="1" fill="#00070C" /><rect x="5" y="9" width="1" height="1" fill="#00070C" /><rect x="6" y="9" width="1" height="1" fill="#00070C" /><rect x="7" y="9" width="1" height="1" fill="#00070C" /><rect x="8" y="9" width="1" height="1" fill="#00070C" /><rect x="9" y="9" width="1" height="1" fill="#00070C" />
  </g>
</svg>