<svg width="800" height="1000" xmlns="http://www.w3.org/2000/svg"><defs><linearGradient id="g" x1="0" x2="1" y1="0" y2="1"><stop offset="0%" stop-color="#2d3c96"/><stop offset="100%" stop-color="#d53392"/></linearGradient></defs><rect x="10" y="10" width="780" height="980" fill="url(#g)" rx="50" ry="50" stroke="gold" stroke-width="20"/><text x="400" y="920" width="780" text-anchor="middle" style="font:bold 200px 'Helvetica Neue';fill:gold">06230</text><g transform="translate(80 80) scale(64)"><rect x="0" y="0" width="1" height="1" fill="#94a66f" /><rect x="0" y="1" width="1" height="1" fill="#9dae73" /><rect x="0" y="2" width="1" height="1" fill="#94b476" /><rect x="0" y="3" width="1" height="1" fill="#a2a863" /><rect x="0" y="4" width="1" height="1" fill="#a8af63" /><rect x="0" y="5" width="1" height="1" fill="#a3b16d" /><rect x="0" y="6" width="1" height="1" fill="#a9ac78" /><rect x="0" y="7" width="1" height="1" fill="#93c792" /><rect x="0" y="8" width="1" height="1" fill="#5e8178" /><rect x="0" y="9" width="1" height="1" fill="#080a12" /><rect x="1" y="0" width="1" height="1" fill="#ffee59" /><rect x="1" y="1" width="1" height="1" fill="#fff845" /><rect x="1" y="2" width="1" height="1" fill="#ffff4d" /><rect x="1" y="3" width="1" height="1" fill="#ffff5e" /><rect x="1" y="4" width="1" height="1" fill="#ffff55" /><rect x="1" y="5" width="1" height="1" fill="#ffff5b" /><rect x="1" y="6" width="1" height="1" fill="#ffff69" /><rect x="1" y="7" width="1" height="1" fill="#fff752" /><rect x="1" y="8" width="1" height="1" fill="#79afa0" /><rect x="1" y="9" width="1" height="1" fill="#080a12" /><rect x="2" y="0" width="1" height="1" fill="#ffcc50" /><rect x="2" y="1" width="1" height="1" fill="#fbc465" /><rect x="2" y="2" width="1" height="1" fill="#ffde57" /><rect x="2" y="3" width="1" height="1" fill="#ffff6d" /><rect x="2" y="4" width="1" height="1" fill="#ffff4e" /><rect x="2" y="5" width="1" height="1" fill="#ffff61" /><rect x="2" y="6" width="1" height="1" fill="#ffff4d" /><rect x="2" y="7" width="1" height="1" fill="#e7b63f" /><rect x="2" y="8" width="1" height="1" fill="#5aa4b2" /><rect x="2" y="9" width="1" height="1" fill="#080a12" /><rect x="3" y="0" width="1" height="1" fill="#b4bb71" /><rect x="3" y="1" width="1" height="1" fill="#eec15d" /><rect x="3" y="2" width="1" height="1" fill="#f4ce53" /><rect x="3" y="3" width="1" height="1" fill="#ffff55" /><rect x="3" y="4" width="1" height="1" fill="#fffb4e" /><rect x="3" y="5" width="1" height="1" fill="#ffff5e" /><rect x="3" y="6" width="1" height="1" fill="#ffff65" /><rect x="3" y="7" width="1" height="1" fill="#a57f41" /><rect x="3" y="8" width="1" height="1" fill="#55a498" /><rect x="3" y="9" width="1" height="1" fill="#080a12" /><rect x="4" y="0" width="1" height="1" fill="#dbe482" /><rect x="4" y="1" width="1" height="1" fill="#fff848" /><rect x="4" y="2" width="1" height="1" fill="#ffff3d" /><rect x="4" y="3" width="1" height="1" fill="#fff240" /><rect x="4" y="4" width="1" height="1" fill="#ffff4a" /><rect x="4" y="5" width="1" height="1" fill="#ffff5f" /><rect x="4" y="6" width="1" height="1" fill="#bb9651" /><rect x="4" y="7" width="1" height="1" fill="#7e8d5f" /><rect x="4" y="8" width="1" height="1" fill="#5ea9ba" /><rect x="4" y="9" width="1" height="1" fill="#080a12" /><rect x="5" y="0" width="1" height="1" fill="#fff340" /><rect x="5" y="1" width="1" height="1" fill="#ffff67" /><rect x="5" y="2" width="1" height="1" fill="#ffff61" /><rect x="5" y="3" width="1" height="1" fill="#ffff6f" /><rect x="5" y="4" width="1" height="1" fill="#feea69" /><rect x="5" y="5" width="1" height="1" fill="#a07b3e" /><rect x="5" y="6" width="1" height="1" fill="#868b4e" /><rect x="5" y="7" width="1" height="1" fill="#58baac" /><rect x="5" y="8" width="1" height="1" fill="#3f8e9c" /><rect x="5" y="9" width="1" height="1" fill="#080a12" /><rect x="6" y="0" width="1" height="1" fill="#fff848" /><rect x="6" y="1" width="1" height="1" fill="#ffff4f" /><rect x="6" y="2" width="1" height="1" fill="#ffff6b" /><rect x="6" y="3" width="1" height="1" fill="#ccc264" /><rect x="6" y="4" width="1" height="1" fill="#847640" /><rect x="6" y="5" width="1" height="1" fill="#8b9671" /><rect x="6" y="6" width="1" height="1" fill="#63bec2" /><rect x="6" y="7" width="1" height="1" fill="#4595a7" /><rect x="6" y="8" width="1" height="1" fill="#458b84" /><rect x="6" y="9" width="1" height="1" fill="#080a12" /><rect x="7" y="0" width="1" height="1" fill="#ffff71" /><rect x="7" y="1" width="1" height="1" fill="#f6f04f" /><rect x="7" y="2" width="1" height="1" fill="#a38a3f" /><rect x="7" y="3" width="1" height="1" fill="#8a6e42" /><rect x="7" y="4" width="1" height="1" fill="#869977" /><rect x="7" y="5" width="1" height="1" fill="#4a9d9c" /><rect x="7" y="6" width="1" height="1" fill="#3d7f89" /><rect x="7" y="7" width="1" height="1" fill="#588683" /><rect x="7" y="8" width="1" height="1" fill="#4e8d84" /><rect x="7" y="9" width="1" height="1" fill="#080a12" /><rect x="8" y="0" width="1" height="1" fill="#c5b95e" /><rect x="8" y="1" width="1" height="1" fill="#867e47" /><rect x="8" y="2" width="1" height="1" fill="#6d7454" /><rect x="8" y="3" width="1" height="1" fill="#63927d" /><rect x="8" y="4" width="1" height="1" fill="#357a95" /><rect x="8" y="5" width="1" height="1" fill="#366661" /><rect x="8" y="6" width="1" height="1" fill="#506d64" /><rect x="8" y="7" width="1" height="1" fill="#447460" /><rect x="8" y="8" width="1" height="1" fill="#4f6e64" /><rect x="8" y="9" width="1" height="1" fill="#080a12" /><rect x="9" y="0" width="1" height="1" fill="#b9a244" /><rect x="9" y="1" width="1" height="1" fill="#887a60" /><rect x="9" y="2" width="1" height="1" fill="#4f858b" /><rect x="9" y="3" width="1" height="1" fill="#3c877c" /><rect x="9" y="4" width="1" height="1" fill="#66856f" /><rect x="9" y="5" width="1" height="1" fill="#507567" /><rect x="9" y="6" width="1" height="1" fill="#4b7273" /><rect x="9" y="7" width="1" height="1" fill="#417972" /><rect x="9" y="8" width="1" height="1" fill="#4b7272" /><rect x="9" y="9" width="1" height="1" fill="#080a12" /></g></svg>