<svg width="800" height="1000" version="1.1" xmlns="http://www.w3.org/2000/svg" xmlns:xlink="http://www.w3.org/1999/xlink">
  <defs>
      <linearGradient id="Gradient2" x1="0" x2="1" y1="0" y2="1">
        <stop offset="0%" stop-color="#2d3c96"/>
        <stop offset="100%" stop-color="#d53392"/>
      </linearGradient>
  </defs>
  <rect x="10" y="10" width="780" height="980" fill="url(#Gradient2)" rx="50" ry="50" stroke="#ffd700" stroke-width="20"/>
  <text x="400" y="920" width="780" text-anchor="middle" style="font: bold 200px 'Helvetica Neue'; fill: #ffd700">06232</text>

  <g transform="translate(80 80) scale(64)">
<rect x="0" y="0" width="1" height="1" fill="#938f42" />
,<rect x="0" y="1" width="1" height="1" fill="#6c9c75" />
,<rect x="0" y="2" width="1" height="1" fill="#439b9a" />
,<rect x="0" y="3" width="1" height="1" fill="#3aaac5" />
,<rect x="0" y="4" width="1" height="1" fill="#42a9aa" />
,<rect x="0" y="5" width="1" height="1" fill="#469396" />
,<rect x="0" y="6" width="1" height="1" fill="#3d8284" />
,<rect x="0" y="7" width="1" height="1" fill="#476e64" />
,<rect x="0" y="8" width="1" height="1" fill="#457067" />
,<rect x="0" y="9" width="1" height="1" fill="#00070c" />
,<rect x="1" y="0" width="1" height="1" fill="#ffff3f" />
,<rect x="1" y="1" width="1" height="1" fill="#f1dd3d" />
,<rect x="1" y="2" width="1" height="1" fill="#a3944d" />
,<rect x="1" y="3" width="1" height="1" fill="#70907f" />
,<rect x="1" y="4" width="1" height="1" fill="#50bec0" />
,<rect x="1" y="5" width="1" height="1" fill="#41cbda" />
,<rect x="1" y="6" width="1" height="1" fill="#4ac7cc" />
,<rect x="1" y="7" width="1" height="1" fill="#519b99" />
,<rect x="1" y="8" width="1" height="1" fill="#387676" />
,<rect x="1" y="9" width="1" height="1" fill="#00070c" />
,<rect x="2" y="0" width="1" height="1" fill="#ffff59" />
,<rect x="2" y="1" width="1" height="1" fill="#ffff3d" />
,<rect x="2" y="2" width="1" height="1" fill="#ffff59" />
,<rect x="2" y="3" width="1" height="1" fill="#c19b39" />
,<rect x="2" y="4" width="1" height="1" fill="#758762" />
,<rect x="2" y="5" width="1" height="1" fill="#45c0d2" />
,<rect x="2" y="6" width="1" height="1" fill="#44b1c2" />
,<rect x="2" y="7" width="1" height="1" fill="#4f9e98" />
,<rect x="2" y="8" width="1" height="1" fill="#428985" />
,<rect x="2" y="9" width="1" height="1" fill="#00070c" />
,<rect x="3" y="0" width="1" height="1" fill="#ffff61" />
,<rect x="3" y="1" width="1" height="1" fill="#fffb56" />
,<rect x="3" y="2" width="1" height="1" fill="#ffff43" />
,<rect x="3" y="3" width="1" height="1" fill="#ffff61" />
,<rect x="3" y="4" width="1" height="1" fill="#a3893f" />
,<rect x="3" y="5" width="1" height="1" fill="#699885" />
,<rect x="3" y="6" width="1" height="1" fill="#3f9dac" />
,<rect x="3" y="7" width="1" height="1" fill="#457165" />
,<rect x="3" y="8" width="1" height="1" fill="#3b725f" />
,<rect x="3" y="9" width="1" height="1" fill="#00070c" />
,<rect x="4" y="0" width="1" height="1" fill="#ffff47" />
,<rect x="4" y="1" width="1" height="1" fill="#ffff63" />
,<rect x="4" y="2" width="1" height="1" fill="#feff5a" />
,<rect x="4" y="3" width="1" height="1" fill="#ffff3e" />
,<rect x="4" y="4" width="1" height="1" fill="#d5b447" />
,<rect x="4" y="5" width="1" height="1" fill="#76825c" />
,<rect x="4" y="6" width="1" height="1" fill="#4ea293" />
,<rect x="4" y="7" width="1" height="1" fill="#328381" />
,<rect x="4" y="8" width="1" height="1" fill="#3b766d" />
,<rect x="4" y="9" width="1" height="1" fill="#00070c" />
,<rect x="5" y="0" width="1" height="1" fill="#ffff49" />
,<rect x="5" y="1" width="1" height="1" fill="#ffff61" />
,<rect x="5" y="2" width="1" height="1" fill="#ffff5b" />
,<rect x="5" y="3" width="1" height="1" fill="#feff4d" />
,<rect x="5" y="4" width="1" height="1" fill="#d4b349" />
,<rect x="5" y="5" width="1" height="1" fill="#747665" />
,<rect x="5" y="6" width="1" height="1" fill="#49a9b2" />
,<rect x="5" y="7" width="1" height="1" fill="#488b88" />
,<rect x="5" y="8" width="1" height="1" fill="#517d71" />
,<rect x="5" y="9" width="1" height="1" fill="#00070c" />
,<rect x="6" y="0" width="1" height="1" fill="#ffff4f" />
,<rect x="6" y="1" width="1" height="1" fill="#fdff59" />
,<rect x="6" y="2" width="1" height="1" fill="#ffff60" />
,<rect x="6" y="3" width="1" height="1" fill="#ffff69" />
,<rect x="6" y="4" width="1" height="1" fill="#b38e4a" />
,<rect x="6" y="5" width="1" height="1" fill="#6d916a" />
,<rect x="6" y="6" width="1" height="1" fill="#39b7c0" />
,<rect x="6" y="7" width="1" height="1" fill="#478f8e" />
,<rect x="6" y="8" width="1" height="1" fill="#46827f" />
,<rect x="6" y="9" width="1" height="1" fill="#00070c" />
,<rect x="7" y="0" width="1" height="1" fill="#ffff63" />
,<rect x="7" y="1" width="1" height="1" fill="#ffff54" />
,<rect x="7" y="2" width="1" height="1" fill="#ffff63" />
,<rect x="7" y="3" width="1" height="1" fill="#beac55" />
,<rect x="7" y="4" width="1" height="1" fill="#6e7755" />
,<rect x="7" y="5" width="1" height="1" fill="#4f8b84" />
,<rect x="7" y="6" width="1" height="1" fill="#2c8983" />
,<rect x="7" y="7" width="1" height="1" fill="#4b7d7b" />
,<rect x="7" y="8" width="1" height="1" fill="#48797c" />
,<rect x="7" y="9" width="1" height="1" fill="#00070c" />
,<rect x="8" y="0" width="1" height="1" fill="#ffff56" />
,<rect x="8" y="1" width="1" height="1" fill="#ffff53" />
,<rect x="8" y="2" width="1" height="1" fill="#ffff60" />
,<rect x="8" y="3" width="1" height="1" fill="#d2ca67" />
,<rect x="8" y="4" width="1" height="1" fill="#92864f" />
,<rect x="8" y="5" width="1" height="1" fill="#606f5c" />
,<rect x="8" y="6" width="1" height="1" fill="#457e68" />
,<rect x="8" y="7" width="1" height="1" fill="#3c8983" />
,<rect x="8" y="8" width="1" height="1" fill="#3e837d" />
,<rect x="8" y="9" width="1" height="1" fill="#00070c" />
,<rect x="9" y="0" width="1" height="1" fill="#00070c" />
,<rect x="9" y="1" width="1" height="1" fill="#00070c" />
,<rect x="9" y="2" width="1" height="1" fill="#00070c" />
,<rect x="9" y="3" width="1" height="1" fill="#00070c" />
,<rect x="9" y="4" width="1" height="1" fill="#00070c" />
,<rect x="9" y="5" width="1" height="1" fill="#00070c" />
,<rect x="9" y="6" width="1" height="1" fill="#00070c" />
,<rect x="9" y="7" width="1" height="1" fill="#00070c" />
,<rect x="9" y="8" width="1" height="1" fill="#00070c" />
,<rect x="9" y="9" width="1" height="1" fill="#00070c" />

  </g>
</svg>