<svg width="800" height="1000" version="1.1" xmlns="http://www.w3.org/2000/svg" xmlns:xlink="http://www.w3.org/1999/xlink">
  <defs>
      <linearGradient id="Gradient2" x1="0" x2="1" y1="0" y2="1">
        <stop offset="0%" stop-color="#2d3c96"/>
        <stop offset="100%" stop-color="#d53392"/>
      </linearGradient>
  </defs>
  <rect x="10" y="10" width="780" height="980" fill="url(#Gradient2)" rx="50" ry="50" stroke="#ffd700" stroke-width="20"/>
  <text x="400" y="920" width="780" text-anchor="middle" style="font: bold 200px 'Helvetica Neue'; fill: #ffd700">06231</text>

  <g transform="translate(80 80) scale(64)">
<rect x="0" y="0" width="1" height="1" fill="#FFFF83" /><rect x="1" y="0" width="1" height="1" fill="#799987" /><rect x="2" y="0" width="1" height="1" fill="#5C525B" /><rect x="3" y="0" width="1" height="1" fill="#6C5941" /><rect x="4" y="0" width="1" height="1" fill="#576A47" /><rect x="5" y="0" width="1" height="1" fill="#6D5539" /><rect x="6" y="0" width="1" height="1" fill="#785049" /><rect x="7" y="0" width="1" height="1" fill="#CEDDB6" /><rect x="8" y="0" width="1" height="1" fill="#FFFFC1" /><rect x="9" y="0" width="1" height="1" fill="#739790" /><rect x="0" y="1" width="1" height="1" fill="#FFF45B" /><rect x="1" y="1" width="1" height="1" fill="#FFFF9D" /><rect x="2" y="1" width="1" height="1" fill="#A7A8AA" /><rect x="3" y="1" width="1" height="1" fill="#8D7796" /><rect x="4" y="1" width="1" height="1" fill="#737C95" /><rect x="5" y="1" width="1" height="1" fill="#928994" /><rect x="6" y="1" width="1" height="1" fill="#E7E8C3" /><rect x="7" y="1" width="1" height="1" fill="#FFFFC7" /><rect x="8" y="1" width="1" height="1" fill="#E8D96D" /><rect x="9" y="1" width="1" height="1" fill="#A0CBB2" /><rect x="0" y="2" width="1" height="1" fill="#C6A254" /><rect x="1" y="2" width="1" height="1" fill="#FFFC41" /><rect x="2" y="2" width="1" height="1" fill="#FFFF8B" /><rect x="3" y="2" width="1" height="1" fill="#EBFFAE" /><rect x="4" y="2" width="1" height="1" fill="#DEF89F" /><rect x="5" y="2" width="1" height="1" fill="#FFFF90" /><rect x="6" y="2" width="1" height="1" fill="#FFFFA7" /><rect x="7" y="2" width="1" height="1" fill="#E0DB76" /><rect x="8" y="2" width="1" height="1" fill="#FFD657" /><rect x="9" y="2" width="1" height="1" fill="#B5E9A5" /><rect x="0" y="3" width="1" height="1" fill="#6A746A" /><rect x="1" y="3" width="1" height="1" fill="#B78348" /><rect x="2" y="3" width="1" height="1" fill="#F7BB55" /><rect x="3" y="3" width="1" height="1" fill="#FFFF61" /><rect x="4" y="3" width="1" height="1" fill="#FFFF5D" /><rect x="5" y="3" width="1" height="1" fill="#FFFF78" /><rect x="6" y="3" width="1" height="1" fill="#DFC87A" /><rect x="7" y="3" width="1" height="1" fill="#E4D66B" /><rect x="8" y="3" width="1" height="1" fill="#BCE170" /><rect x="9" y="3" width="1" height="1" fill="#498284" /><rect x="0" y="4" width="1" height="1" fill="#73A067" /><rect x="1" y="4" width="1" height="1" fill="#8E9861" /><rect x="2" y="4" width="1" height="1" fill="#E1AD52" /><rect x="3" y="4" width="1" height="1" fill="#EDDB72" /><rect x="4" y="4" width="1" height="1" fill="#F0F68A" /><rect x="5" y="4" width="1" height="1" fill="#E7B570" /><rect x="6" y="4" width="1" height="1" fill="#C3D77A" /><rect x="7" y="4" width="1" height="1" fill="#80BC8F" /><rect x="8" y="4" width="1" height="1" fill="#416673" /><rect x="9" y="4" width="1" height="1" fill="#4A7574" /><rect x="0" y="5" width="1" height="1" fill="#72935F" /><rect x="1" y="5" width="1" height="1" fill="#709766" /><rect x="2" y="5" width="1" height="1" fill="#7A9D6D" /><rect x="3" y="5" width="1" height="1" fill="#C8AA66" /><rect x="4" y="5" width="1" height="1" fill="#FBAA3F" /><rect x="5" y="5" width="1" height="1" fill="#CC9E5B" /><rect x="6" y="5" width="1" height="1" fill="#5F977C" /><rect x="7" y="5" width="1" height="1" fill="#376F76" /><rect x="8" y="5" width="1" height="1" fill="#4D685A" /><rect x="9" y="5" width="1" height="1" fill="#547960" /><rect x="0" y="6" width="1" height="1" fill="#4B6C64" /><rect x="1" y="6" width="1" height="1" fill="#436C70" /><rect x="2" y="6" width="1" height="1" fill="#3C7469" /><rect x="3" y="6" width="1" height="1" fill="#9F9B62" /><rect x="4" y="6" width="1" height="1" fill="#F7B655" /><rect x="5" y="6" width="1" height="1" fill="#987B56" /><rect x="6" y="6" width="1" height="1" fill="#406F71" /><rect x="7" y="6" width="1" height="1" fill="#507870" /><rect x="8" y="6" width="1" height="1" fill="#53776E" /><rect x="9" y="6" width="1" height="1" fill="#4E796C" /><rect x="0" y="7" width="1" height="1" fill="#577A64" /><rect x="1" y="7" width="1" height="1" fill="#596F6A" /><rect x="2" y="7" width="1" height="1" fill="#46726B" /><rect x="3" y="7" width="1" height="1" fill="#79895B" /><rect x="4" y="7" width="1" height="1" fill="#C3B259" /><rect x="5" y="7" width="1" height="1" fill="#5E755D" /><rect x="6" y="7" width="1" height="1" fill="#4B7464" /><rect x="7" y="7" width="1" height="1" fill="#587B63" /><rect x="8" y="7" width="1" height="1" fill="#5E7365" /><rect x="9" y="7" width="1" height="1" fill="#547864" /><rect x="0" y="8" width="1" height="1" fill="#557765" /><rect x="1" y="8" width="1" height="1" fill="#587068" /><rect x="2" y="8" width="1" height="1" fill="#517669" /><rect x="3" y="8" width="1" height="1" fill="#637A58" /><rect x="4" y="8" width="1" height="1" fill="#949156" /><rect x="5" y="8" width="1" height="1" fill="#617370" /><rect x="6" y="8" width="1" height="1" fill="#527871" /><rect x="7" y="8" width="1" height="1" fill="#577765" /><rect x="8" y="8" width="1" height="1" fill="#5B756A" /><rect x="9" y="8" width="1" height="1" fill="#52826D" /><rect x="0" y="9" width="1" height="1" fill="#130C0C" /><rect x="1" y="9" width="1" height="1" fill="#130C0C" /><rect x="2" y="9" width="1" height="1" fill="#130C0C" /><rect x="3" y="9" width="1" height="1" fill="#130C0C" /><rect x="4" y="9" width="1" height="1" fill="#130C0C" /><rect x="5" y="9" width="1" height="1" fill="#130C0C" /><rect x="6" y="9" width="1" height="1" fill="#130C0C" /><rect x="7" y="9" width="1" height="1" fill="#130C0C" /><rect x="8" y="9" width="1" height="1" fill="#130C0C" /><rect x="9" y="9" width="1" height="1" fill="#130C0C" />
  </g>
</svg>