<svg width="800" height="1000" xmlns="http://www.w3.org/2000/svg"><defs><linearGradient id="g" x1="0" x2="1" y1="0" y2="1"><stop offset="0%" stop-color="#2d3c96"/><stop offset="100%" stop-color="#d53392"/></linearGradient></defs><rect x="10" y="10" width="780" height="980" fill="url(#g)" rx="50" ry="50" stroke="gold" stroke-width="20"/><text x="400" y="920" width="780" text-anchor="middle" style="font:bold 200px 'Helvetica Neue';fill:gold">06231</text><g transform="translate(80 80) scale(64)"><rect x="0" y="0" width="1" height="1" fill="#ffff83" /><rect x="0" y="1" width="1" height="1" fill="#fff45b" /><rect x="0" y="2" width="1" height="1" fill="#c6a254" /><rect x="0" y="3" width="1" height="1" fill="#6a746a" /><rect x="0" y="4" width="1" height="1" fill="#73a067" /><rect x="0" y="5" width="1" height="1" fill="#72935f" /><rect x="0" y="6" width="1" height="1" fill="#4b6c64" /><rect x="0" y="7" width="1" height="1" fill="#577a64" /><rect x="0" y="8" width="1" height="1" fill="#557765" /><rect x="0" y="9" width="1" height="1" fill="#130c0c" /><rect x="1" y="0" width="1" height="1" fill="#799987" /><rect x="1" y="1" width="1" height="1" fill="#ffff9d" /><rect x="1" y="2" width="1" height="1" fill="#fffc41" /><rect x="1" y="3" width="1" height="1" fill="#b78348" /><rect x="1" y="4" width="1" height="1" fill="#8e9861" /><rect x="1" y="5" width="1" height="1" fill="#709766" /><rect x="1" y="6" width="1" height="1" fill="#436c70" /><rect x="1" y="7" width="1" height="1" fill="#596f6a" /><rect x="1" y="8" width="1" height="1" fill="#587068" /><rect x="1" y="9" width="1" height="1" fill="#130c0c" /><rect x="2" y="0" width="1" height="1" fill="#5c525b" /><rect x="2" y="1" width="1" height="1" fill="#a7a8aa" /><rect x="2" y="2" width="1" height="1" fill="#ffff8b" /><rect x="2" y="3" width="1" height="1" fill="#f7bb55" /><rect x="2" y="4" width="1" height="1" fill="#e1ad52" /><rect x="2" y="5" width="1" height="1" fill="#7a9d6d" /><rect x="2" y="6" width="1" height="1" fill="#3c7469" /><rect x="2" y="7" width="1" height="1" fill="#46726b" /><rect x="2" y="8" width="1" height="1" fill="#517669" /><rect x="2" y="9" width="1" height="1" fill="#130c0c" /><rect x="3" y="0" width="1" height="1" fill="#6c5941" /><rect x="3" y="1" width="1" height="1" fill="#8d7796" /><rect x="3" y="2" width="1" height="1" fill="#ebffae" /><rect x="3" y="3" width="1" height="1" fill="#ffff61" /><rect x="3" y="4" width="1" height="1" fill="#eddb72" /><rect x="3" y="5" width="1" height="1" fill="#c8aa66" /><rect x="3" y="6" width="1" height="1" fill="#9f9b62" /><rect x="3" y="7" width="1" height="1" fill="#79895b" /><rect x="3" y="8" width="1" height="1" fill="#637a58" /><rect x="3" y="9" width="1" height="1" fill="#130c0c" /><rect x="4" y="0" width="1" height="1" fill="#576a47" /><rect x="4" y="1" width="1" height="1" fill="#737c95" /><rect x="4" y="2" width="1" height="1" fill="#def89f" /><rect x="4" y="3" width="1" height="1" fill="#ffff5d" /><rect x="4" y="4" width="1" height="1" fill="#f0f68a" /><rect x="4" y="5" width="1" height="1" fill="#fbaa3f" /><rect x="4" y="6" width="1" height="1" fill="#f7b655" /><rect x="4" y="7" width="1" height="1" fill="#c3b259" /><rect x="4" y="8" width="1" height="1" fill="#949156" /><rect x="4" y="9" width="1" height="1" fill="#130c0c" /><rect x="5" y="0" width="1" height="1" fill="#6d5539" /><rect x="5" y="1" width="1" height="1" fill="#928994" /><rect x="5" y="2" width="1" height="1" fill="#ffff90" /><rect x="5" y="3" width="1" height="1" fill="#ffff78" /><rect x="5" y="4" width="1" height="1" fill="#e7b570" /><rect x="5" y="5" width="1" height="1" fill="#cc9e5b" /><rect x="5" y="6" width="1" height="1" fill="#987b56" /><rect x="5" y="7" width="1" height="1" fill="#5e755d" /><rect x="5" y="8" width="1" height="1" fill="#617370" /><rect x="5" y="9" width="1" height="1" fill="#130c0c" /><rect x="6" y="0" width="1" height="1" fill="#785049" /><rect x="6" y="1" width="1" height="1" fill="#e7e8c3" /><rect x="6" y="2" width="1" height="1" fill="#ffffa7" /><rect x="6" y="3" width="1" height="1" fill="#dfc87a" /><rect x="6" y="4" width="1" height="1" fill="#c3d77a" /><rect x="6" y="5" width="1" height="1" fill="#5f977c" /><rect x="6" y="6" width="1" height="1" fill="#406f71" /><rect x="6" y="7" width="1" height="1" fill="#4b7464" /><rect x="6" y="8" width="1" height="1" fill="#527871" /><rect x="6" y="9" width="1" height="1" fill="#130c0c" /><rect x="7" y="0" width="1" height="1" fill="#ceddb6" /><rect x="7" y="1" width="1" height="1" fill="#ffffc7" /><rect x="7" y="2" width="1" height="1" fill="#e0db76" /><rect x="7" y="3" width="1" height="1" fill="#e4d66b" /><rect x="7" y="4" width="1" height="1" fill="#80bc8f" /><rect x="7" y="5" width="1" height="1" fill="#376f76" /><rect x="7" y="6" width="1" height="1" fill="#507870" /><rect x="7" y="7" width="1" height="1" fill="#587b63" /><rect x="7" y="8" width="1" height="1" fill="#577765" /><rect x="7" y="9" width="1" height="1" fill="#130c0c" /><rect x="8" y="0" width="1" height="1" fill="#ffffc1" /><rect x="8" y="1" width="1" height="1" fill="#e8d96d" /><rect x="8" y="2" width="1" height="1" fill="#ffd657" /><rect x="8" y="3" width="1" height="1" fill="#bce170" /><rect x="8" y="4" width="1" height="1" fill="#416673" /><rect x="8" y="5" width="1" height="1" fill="#4d685a" /><rect x="8" y="6" width="1" height="1" fill="#53776e" /><rect x="8" y="7" width="1" height="1" fill="#5e7365" /><rect x="8" y="8" width="1" height="1" fill="#5b756a" /><rect x="8" y="9" width="1" height="1" fill="#130c0c" /><rect x="9" y="0" width="1" height="1" fill="#739790" /><rect x="9" y="1" width="1" height="1" fill="#a0cbb2" /><rect x="9" y="2" width="1" height="1" fill="#b5e9a5" /><rect x="9" y="3" width="1" height="1" fill="#498284" /><rect x="9" y="4" width="1" height="1" fill="#4a7574" /><rect x="9" y="5" width="1" height="1" fill="#547960" /><rect x="9" y="6" width="1" height="1" fill="#4e796c" /><rect x="9" y="7" width="1" height="1" fill="#547864" /><rect x="9" y="8" width="1" height="1" fill="#52826d" /><rect x="9" y="9" width="1" height="1" fill="#130c0c" /></g></svg>