<svg width="800" height="1000" version="1.1" xmlns="http://www.w3.org/2000/svg" xmlns:xlink="http://www.w3.org/1999/xlink">
  <defs>
      <linearGradient id="Gradient2" x1="0" x2="1" y1="0" y2="1">
        <stop offset="0%" stop-color="#2d3c96"/>
        <stop offset="100%" stop-color="#d53392"/>
      </linearGradient>
  </defs>
  <rect x="10" y="10" width="780" height="980" fill="url(#Gradient2)" rx="50" ry="50" stroke="#ffd700" stroke-width="20"/>
  <text x="400" y="920" width="780" text-anchor="middle" style="font: bold 200px 'Helvetica Neue'; fill: #ffd700">06900</text>

  <g transform="translate(80 80) scale(64)">
<rect x="0" y="0" width="1" height="1" fill="#000000" /><rect x="1" y="0" width="1" height="1" fill="#000000" /><rect x="2" y="0" width="1" height="1" fill="#000000" /><rect x="3" y="0" width="1" height="1" fill="#000000" /><rect x="4" y="0" width="1" height="1" fill="#000000" /><rect x="5" y="0" width="1" height="1" fill="#000000" /><rect x="6" y="0" width="1" height="1" fill="#000000" /><rect x="7" y="0" width="1" height="1" fill="#000000" /><rect x="8" y="0" width="1" height="1" fill="#000000" /><rect x="9" y="0" width="1" height="1" fill="#000000" /><rect x="0" y="1" width="1" height="1" fill="#000000" /><rect x="1" y="1" width="1" height="1" fill="#000000" /><rect x="2" y="1" width="1" height="1" fill="#141414" /><rect x="3" y="1" width="1" height="1" fill="#020202" /><rect x="4" y="1" width="1" height="1" fill="#000000" /><rect x="5" y="1" width="1" height="1" fill="#000000" /><rect x="6" y="1" width="1" height="1" fill="#020202" /><rect x="7" y="1" width="1" height="1" fill="#282828" /><rect x="8" y="1" width="1" height="1" fill="#050505" /><rect x="9" y="1" width="1" height="1" fill="#000000" /><rect x="0" y="2" width="1" height="1" fill="#000000" /><rect x="1" y="2" width="1" height="1" fill="#060606" /><rect x="2" y="2" width="1" height="1" fill="#F2F2F2" /><rect x="3" y="2" width="1" height="1" fill="#353535" /><rect x="4" y="2" width="1" height="1" fill="#000000" /><rect x="5" y="2" width="1" height="1" fill="#3B3B3B" /><rect x="6" y="2" width="1" height="1" fill="#ECECEC" /><rect x="7" y="2" width="1" height="1" fill="#DCDCDC" /><rect x="8" y="2" width="1" height="1" fill="#EDEDED" /><rect x="9" y="2" width="1" height="1" fill="#3C3C3C" /><rect x="0" y="3" width="1" height="1" fill="#000000" /><rect x="1" y="3" width="1" height="1" fill="#909090" /><rect x="2" y="3" width="1" height="1" fill="#ABABAB" /><rect x="3" y="3" width="1" height="1" fill="#000000" /><rect x="4" y="3" width="1" height="1" fill="#000000" /><rect x="5" y="3" width="1" height="1" fill="#DEDEDE" /><rect x="6" y="3" width="1" height="1" fill="#737373" /><rect x="7" y="3" width="1" height="1" fill="#000000" /><rect x="8" y="3" width="1" height="1" fill="#727272" /><rect x="9" y="3" width="1" height="1" fill="#E2E2E2" /><rect x="0" y="4" width="1" height="1" fill="#171717" /><rect x="1" y="4" width="1" height="1" fill="#FFFFFF" /><rect x="2" y="4" width="1" height="1" fill="#A5A5A5" /><rect x="3" y="4" width="1" height="1" fill="#606060" /><rect x="4" y="4" width="1" height="1" fill="#000000" /><rect x="5" y="4" width="1" height="1" fill="#E3E3E3" /><rect x="6" y="4" width="1" height="1" fill="#4E4E4E" /><rect x="7" y="4" width="1" height="1" fill="#000000" /><rect x="8" y="4" width="1" height="1" fill="#454545" /><rect x="9" y="4" width="1" height="1" fill="#F0F0F0" /><rect x="0" y="5" width="1" height="1" fill="#9C9C9C" /><rect x="1" y="5" width="1" height="1" fill="#E8E8E8" /><rect x="2" y="5" width="1" height="1" fill="#666666" /><rect x="3" y="5" width="1" height="1" fill="#E6E6E6" /><rect x="4" y="5" width="1" height="1" fill="#8D8D8D" /><rect x="5" y="5" width="1" height="1" fill="#565656" /><rect x="6" y="5" width="1" height="1" fill="#FEFEFE" /><rect x="7" y="5" width="1" height="1" fill="#A5A5A5" /><rect x="8" y="5" width="1" height="1" fill="#FDFDFD" /><rect x="9" y="5" width="1" height="1" fill="#9A9A9A" /><rect x="0" y="6" width="1" height="1" fill="#E6E6E6" /><rect x="1" y="6" width="1" height="1" fill="#494949" /><rect x="2" y="6" width="1" height="1" fill="#000000" /><rect x="3" y="6" width="1" height="1" fill="#323232" /><rect x="4" y="6" width="1" height="1" fill="#F0F0F0" /><rect x="5" y="6" width="1" height="1" fill="#000000" /><rect x="6" y="6" width="1" height="1" fill="#1C1C1C" /><rect x="7" y="6" width="1" height="1" fill="#787878" /><rect x="8" y="6" width="1" height="1" fill="#FFFFFF" /><rect x="9" y="6" width="1" height="1" fill="#151515" /><rect x="0" y="7" width="1" height="1" fill="#C1C1C1" /><rect x="1" y="7" width="1" height="1" fill="#A9A9A9" /><rect x="2" y="7" width="1" height="1" fill="#000000" /><rect x="3" y="7" width="1" height="1" fill="#919191" /><rect x="4" y="7" width="1" height="1" fill="#D1D1D1" /><rect x="5" y="7" width="1" height="1" fill="#000000" /><rect x="6" y="7" width="1" height="1" fill="#000000" /><rect x="7" y="7" width="1" height="1" fill="#C4C4C4" /><rect x="8" y="7" width="1" height="1" fill="#959595" /><rect x="9" y="7" width="1" height="1" fill="#000000" /><rect x="0" y="8" width="1" height="1" fill="#121212" /><rect x="1" y="8" width="1" height="1" fill="#C6C6C6" /><rect x="2" y="8" width="1" height="1" fill="#E6E6E6" /><rect x="3" y="8" width="1" height="1" fill="#CECECE" /><rect x="4" y="8" width="1" height="1" fill="#222222" /><rect x="5" y="8" width="1" height="1" fill="#000000" /><rect x="6" y="8" width="1" height="1" fill="#2D2D2D" /><rect x="7" y="8" width="1" height="1" fill="#D1D1D1" /><rect x="8" y="8" width="1" height="1" fill="#0C0C0C" /><rect x="9" y="8" width="1" height="1" fill="#000000" /><rect x="0" y="9" width="1" height="1" fill="#000000" /><rect x="1" y="9" width="1" height="1" fill="#000000" /><rect x="2" y="9" width="1" height="1" fill="#040404" /><rect x="3" y="9" width="1" height="1" fill="#000000" /><rect x="4" y="9" width="1" height="1" fill="#000000" /><rect x="5" y="9" width="1" height="1" fill="#000000" /><rect x="6" y="9" width="1" height="1" fill="#000000" /><rect x="7" y="9" width="1" height="1" fill="#000000" /><rect x="8" y="9" width="1" height="1" fill="#000000" /><rect x="9" y="9" width="1" height="1" fill="#000000" />
  </g>
</svg>