<svg width="800" height="1000" xmlns="http://www.w3.org/2000/svg"><defs><linearGradient id="g" x1="0" x2="1" y1="0" y2="1"><stop offset="0%" stop-color="#2d3c96"/><stop offset="100%" stop-color="#d53392"/></linearGradient></defs><rect x="10" y="10" width="780" height="980" fill="url(#g)" rx="50" ry="50" stroke="gold" stroke-width="20"/><text x="400" y="920" width="780" text-anchor="middle" style="font:bold 200px 'Helvetica Neue';fill:gold">06900</text><g transform="translate(80 80) scale(64)"><rect x="0" y="0" width="1" height="1" fill="#000000" /><rect x="0" y="1" width="1" height="1" fill="#000000" /><rect x="0" y="2" width="1" height="1" fill="#000000" /><rect x="0" y="3" width="1" height="1" fill="#000000" /><rect x="0" y="4" width="1" height="1" fill="#171717" /><rect x="0" y="5" width="1" height="1" fill="#9c9c9c" /><rect x="0" y="6" width="1" height="1" fill="#e6e6e6" /><rect x="0" y="7" width="1" height="1" fill="#c1c1c1" /><rect x="0" y="8" width="1" height="1" fill="#121212" /><rect x="0" y="9" width="1" height="1" fill="#000000" /><rect x="1" y="0" width="1" height="1" fill="#000000" /><rect x="1" y="1" width="1" height="1" fill="#000000" /><rect x="1" y="2" width="1" height="1" fill="#060606" /><rect x="1" y="3" width="1" height="1" fill="#909090" /><rect x="1" y="4" width="1" height="1" fill="#ffffff" /><rect x="1" y="5" width="1" height="1" fill="#e8e8e8" /><rect x="1" y="6" width="1" height="1" fill="#494949" /><rect x="1" y="7" width="1" height="1" fill="#a9a9a9" /><rect x="1" y="8" width="1" height="1" fill="#c6c6c6" /><rect x="1" y="9" width="1" height="1" fill="#000000" /><rect x="2" y="0" width="1" height="1" fill="#000000" /><rect x="2" y="1" width="1" height="1" fill="#141414" /><rect x="2" y="2" width="1" height="1" fill="#f2f2f2" /><rect x="2" y="3" width="1" height="1" fill="#ababab" /><rect x="2" y="4" width="1" height="1" fill="#a5a5a5" /><rect x="2" y="5" width="1" height="1" fill="#666666" /><rect x="2" y="6" width="1" height="1" fill="#000000" /><rect x="2" y="7" width="1" height="1" fill="#000000" /><rect x="2" y="8" width="1" height="1" fill="#e6e6e6" /><rect x="2" y="9" width="1" height="1" fill="#040404" /><rect x="3" y="0" width="1" height="1" fill="#000000" /><rect x="3" y="1" width="1" height="1" fill="#020202" /><rect x="3" y="2" width="1" height="1" fill="#353535" /><rect x="3" y="3" width="1" height="1" fill="#000000" /><rect x="3" y="4" width="1" height="1" fill="#606060" /><rect x="3" y="5" width="1" height="1" fill="#e6e6e6" /><rect x="3" y="6" width="1" height="1" fill="#323232" /><rect x="3" y="7" width="1" height="1" fill="#919191" /><rect x="3" y="8" width="1" height="1" fill="#cecece" /><rect x="3" y="9" width="1" height="1" fill="#000000" /><rect x="4" y="0" width="1" height="1" fill="#000000" /><rect x="4" y="1" width="1" height="1" fill="#000000" /><rect x="4" y="2" width="1" height="1" fill="#000000" /><rect x="4" y="3" width="1" height="1" fill="#000000" /><rect x="4" y="4" width="1" height="1" fill="#000000" /><rect x="4" y="5" width="1" height="1" fill="#8d8d8d" /><rect x="4" y="6" width="1" height="1" fill="#f0f0f0" /><rect x="4" y="7" width="1" height="1" fill="#d1d1d1" /><rect x="4" y="8" width="1" height="1" fill="#222222" /><rect x="4" y="9" width="1" height="1" fill="#000000" /><rect x="5" y="0" width="1" height="1" fill="#000000" /><rect x="5" y="1" width="1" height="1" fill="#000000" /><rect x="5" y="2" width="1" height="1" fill="#3b3b3b" /><rect x="5" y="3" width="1" height="1" fill="#dedede" /><rect x="5" y="4" width="1" height="1" fill="#e3e3e3" /><rect x="5" y="5" width="1" height="1" fill="#565656" /><rect x="5" y="6" width="1" height="1" fill="#000000" /><rect x="5" y="7" width="1" height="1" fill="#000000" /><rect x="5" y="8" width="1" height="1" fill="#000000" /><rect x="5" y="9" width="1" height="1" fill="#000000" /><rect x="6" y="0" width="1" height="1" fill="#000000" /><rect x="6" y="1" width="1" height="1" fill="#020202" /><rect x="6" y="2" width="1" height="1" fill="#ececec" /><rect x="6" y="3" width="1" height="1" fill="#737373" /><rect x="6" y="4" width="1" height="1" fill="#4e4e4e" /><rect x="6" y="5" width="1" height="1" fill="#fefefe" /><rect x="6" y="6" width="1" height="1" fill="#1c1c1c" /><rect x="6" y="7" width="1" height="1" fill="#000000" /><rect x="6" y="8" width="1" height="1" fill="#2d2d2d" /><rect x="6" y="9" width="1" height="1" fill="#000000" /><rect x="7" y="0" width="1" height="1" fill="#000000" /><rect x="7" y="1" width="1" height="1" fill="#282828" /><rect x="7" y="2" width="1" height="1" fill="#dcdcdc" /><rect x="7" y="3" width="1" height="1" fill="#000000" /><rect x="7" y="4" width="1" height="1" fill="#000000" /><rect x="7" y="5" width="1" height="1" fill="#a5a5a5" /><rect x="7" y="6" width="1" height="1" fill="#787878" /><rect x="7" y="7" width="1" height="1" fill="#c4c4c4" /><rect x="7" y="8" width="1" height="1" fill="#d1d1d1" /><rect x="7" y="9" width="1" height="1" fill="#000000" /><rect x="8" y="0" width="1" height="1" fill="#000000" /><rect x="8" y="1" width="1" height="1" fill="#050505" /><rect x="8" y="2" width="1" height="1" fill="#ededed" /><rect x="8" y="3" width="1" height="1" fill="#727272" /><rect x="8" y="4" width="1" height="1" fill="#454545" /><rect x="8" y="5" width="1" height="1" fill="#fdfdfd" /><rect x="8" y="6" width="1" height="1" fill="#ffffff" /><rect x="8" y="7" width="1" height="1" fill="#959595" /><rect x="8" y="8" width="1" height="1" fill="#0c0c0c" /><rect x="8" y="9" width="1" height="1" fill="#000000" /><rect x="9" y="0" width="1" height="1" fill="#000000" /><rect x="9" y="1" width="1" height="1" fill="#000000" /><rect x="9" y="2" width="1" height="1" fill="#3c3c3c" /><rect x="9" y="3" width="1" height="1" fill="#e2e2e2" /><rect x="9" y="4" width="1" height="1" fill="#f0f0f0" /><rect x="9" y="5" width="1" height="1" fill="#9a9a9a" /><rect x="9" y="6" width="1" height="1" fill="#151515" /><rect x="9" y="7" width="1" height="1" fill="#000000" /><rect x="9" y="8" width="1" height="1" fill="#000000" /><rect x="9" y="9" width="1" height="1" fill="#000000" /></g></svg>