<svg width="800" height="1000" version="1.1" xmlns="http://www.w3.org/2000/svg" xmlns:xlink="http://www.w3.org/1999/xlink">
  <defs>
      <linearGradient id="Gradient2" x1="0" x2="1" y1="0" y2="1">
        <stop offset="0%" stop-color="#2d3c96"/>
        <stop offset="100%" stop-color="#d53392"/>
      </linearGradient>
  </defs>
  <rect x="10" y="10" width="780" height="980" fill="url(#Gradient2)" rx="50" ry="50" stroke="#ffd700" stroke-width="20"/>
  <text x="400" y="920" width="780" text-anchor="middle" style="font: bold 200px 'Helvetica Neue'; fill: #ffd700">06942</text>

  <g transform="translate(80 80) scale(64)">
<rect x="0" y="0" width="1" height="1" fill="#ffc107" />
,<rect x="0" y="1" width="1" height="1" fill="#ffba06" />
,<rect x="0" y="2" width="1" height="1" fill="#ffae04" />
,<rect x="0" y="3" width="1" height="1" fill="#ffa803" />
,<rect x="0" y="4" width="1" height="1" fill="#ff9b01" />
,<rect x="0" y="5" width="1" height="1" fill="#ff9a00" />
,<rect x="0" y="6" width="1" height="1" fill="#ff9900" />
,<rect x="0" y="7" width="1" height="1" fill="#ff9900" />
,<rect x="0" y="8" width="1" height="1" fill="#ffa315" />
,<rect x="0" y="9" width="1" height="1" fill="#ffb440" />
,<rect x="1" y="0" width="1" height="1" fill="#ffae04" />
,<rect x="1" y="1" width="1" height="1" fill="#faa402" />
,<rect x="1" y="2" width="1" height="1" fill="#ff9800" />
,<rect x="1" y="3" width="1" height="1" fill="#ff9a01" />
,<rect x="1" y="4" width="1" height="1" fill="#f48905" />
,<rect x="1" y="5" width="1" height="1" fill="#f5740f" />
,<rect x="1" y="6" width="1" height="1" fill="#ff621b" />
,<rect x="1" y="7" width="1" height="1" fill="#ff5b1f" />
,<rect x="1" y="8" width="1" height="1" fill="#ff5722" />
,<rect x="1" y="9" width="1" height="1" fill="#ff5722" />
,<rect x="2" y="0" width="1" height="1" fill="#ff890e" />
,<rect x="2" y="1" width="1" height="1" fill="#f69500" />
,<rect x="2" y="2" width="1" height="1" fill="#f48905" />
,<rect x="2" y="3" width="1" height="1" fill="#ff7a10" />
,<rect x="2" y="4" width="1" height="1" fill="#ff6e15" />
,<rect x="2" y="5" width="1" height="1" fill="#ff5b1f" />
,<rect x="2" y="6" width="1" height="1" fill="#ff5a20" />
,<rect x="2" y="7" width="1" height="1" fill="#ff5922" />
,<rect x="2" y="8" width="1" height="1" fill="#ff5c26" />
,<rect x="2" y="9" width="1" height="1" fill="#ff732e" />
,<rect x="3" y="0" width="1" height="1" fill="#ff8e06" />
,<rect x="3" y="1" width="1" height="1" fill="#ff7810" />
,<rect x="3" y="2" width="1" height="1" fill="#ff6e15" />
,<rect x="3" y="3" width="1" height="1" fill="#ff5722" />
,<rect x="3" y="4" width="1" height="1" fill="#ff5b1f" />
,<rect x="3" y="5" width="1" height="1" fill="#fc5324" />
,<rect x="3" y="6" width="1" height="1" fill="#f84c2b" />
,<rect x="3" y="7" width="1" height="1" fill="#f14432" />
,<rect x="3" y="8" width="1" height="1" fill="#f24234" />
,<rect x="3" y="9" width="1" height="1" fill="#f44336" />
,<rect x="4" y="0" width="1" height="1" fill="#fe7810" />
,<rect x="4" y="1" width="1" height="1" fill="#fb5923" />
,<rect x="4" y="2" width="1" height="1" fill="#ff5920" />
,<rect x="4" y="3" width="1" height="1" fill="#fc5324" />
,<rect x="4" y="4" width="1" height="1" fill="#ffcdd2" />
,<rect x="4" y="5" width="1" height="1" fill="#000000" />
,<rect x="4" y="6" width="1" height="1" fill="#ed3f32" />
,<rect x="4" y="7" width="1" height="1" fill="#dd352e" />
,<rect x="4" y="8" width="1" height="1" fill="#d22e2a" />
,<rect x="4" y="9" width="1" height="1" fill="#ca2a29" />
,<rect x="5" y="0" width="1" height="1" fill="#f34e21" />
,<rect x="5" y="1" width="1" height="1" fill="#f15121" />
,<rect x="5" y="2" width="1" height="1" fill="#e23e27" />
,<rect x="5" y="3" width="1" height="1" fill="#f6492e" />
,<rect x="5" y="4" width="1" height="1" fill="#000000" />
,<rect x="5" y="5" width="1" height="1" fill="#ffcdd2" />
,<rect x="5" y="6" width="1" height="1" fill="#d6302c" />
,<rect x="5" y="7" width="1" height="1" fill="#c72827" />
,<rect x="5" y="8" width="1" height="1" fill="#c02221" />
,<rect x="5" y="9" width="1" height="1" fill="#bb1f1f" />
,<rect x="6" y="0" width="1" height="1" fill="#fb5225" />
,<rect x="6" y="1" width="1" height="1" fill="#ed4928" />
,<rect x="6" y="2" width="1" height="1" fill="#d03b29" />
,<rect x="6" y="3" width="1" height="1" fill="#cf2c27" />
,<rect x="6" y="4" width="1" height="1" fill="#d4302c" />
,<rect x="6" y="5" width="1" height="1" fill="#c42626" />
,<rect x="6" y="6" width="1" height="1" fill="#c12322" />
,<rect x="6" y="7" width="1" height="1" fill="#bd2121" />
,<rect x="6" y="8" width="1" height="1" fill="#b71d1c" />
,<rect x="6" y="9" width="1" height="1" fill="#b31c1c" />
,<rect x="7" y="0" width="1" height="1" fill="#de4943" />
,<rect x="7" y="1" width="1" height="1" fill="#db352e" />
,<rect x="7" y="2" width="1" height="1" fill="#dd352e" />
,<rect x="7" y="3" width="1" height="1" fill="#d22e29" />
,<rect x="7" y="4" width="1" height="1" fill="#c12322" />
,<rect x="7" y="5" width="1" height="1" fill="#bc2120" />
,<rect x="7" y="6" width="1" height="1" fill="#b71c1c" />
,<rect x="7" y="7" width="1" height="1" fill="#b71c1c" />
,<rect x="7" y="8" width="1" height="1" fill="#b21b1b" />
,<rect x="7" y="9" width="1" height="1" fill="#b4241e" />
,<rect x="8" y="0" width="1" height="1" fill="#db3630" />
,<rect x="8" y="1" width="1" height="1" fill="#dc342e" />
,<rect x="8" y="2" width="1" height="1" fill="#d12d29" />
,<rect x="8" y="3" width="1" height="1" fill="#bf2221" />
,<rect x="8" y="4" width="1" height="1" fill="#bc2020" />
,<rect x="8" y="5" width="1" height="1" fill="#b71c1c" />
,<rect x="8" y="6" width="1" height="1" fill="#b21b1b" />
,<rect x="8" y="7" width="1" height="1" fill="#b02922" />
,<rect x="8" y="8" width="1" height="1" fill="#b71c1c" />
,<rect x="8" y="9" width="1" height="1" fill="#b2201f" />
,<rect x="9" y="0" width="1" height="1" fill="#c32828" />
,<rect x="9" y="1" width="1" height="1" fill="#c52121" />
,<rect x="9" y="2" width="1" height="1" fill="#be2121" />
,<rect x="9" y="3" width="1" height="1" fill="#bc2020" />
,<rect x="9" y="4" width="1" height="1" fill="#b61c1c" />
,<rect x="9" y="5" width="1" height="1" fill="#af1b1b" />
,<rect x="9" y="6" width="1" height="1" fill="#b02922" />
,<rect x="9" y="7" width="1" height="1" fill="#b2201f" />
,<rect x="9" y="8" width="1" height="1" fill="#b2201f" />
,<rect x="9" y="9" width="1" height="1" fill="#ac2a25" />

  </g>
</svg>