<svg width="800" height="1000" version="1.1" xmlns="http://www.w3.org/2000/svg" xmlns:xlink="http://www.w3.org/1999/xlink">
  <defs>
      <linearGradient id="Gradient2" x1="0" x2="1" y1="0" y2="1">
        <stop offset="0%" stop-color="#2d3c96"/>
        <stop offset="100%" stop-color="#d53392"/>
      </linearGradient>
  </defs>
  <rect x="10" y="10" width="780" height="980" fill="url(#Gradient2)" rx="50" ry="50" stroke="#ffd700" stroke-width="20"/>
  <text x="400" y="920" width="780" text-anchor="middle" style="font: bold 200px 'Helvetica Neue'; fill: #ffd700">06942</text>

  <g transform="translate(80 80) scale(64)">
<rect x="0" y="0" width="1" height="1" fill="#FFC107" /><rect x="1" y="0" width="1" height="1" fill="#FFAE04" /><rect x="2" y="0" width="1" height="1" fill="#FF890E" /><rect x="3" y="0" width="1" height="1" fill="#FF8E06" /><rect x="4" y="0" width="1" height="1" fill="#FE7810" /><rect x="5" y="0" width="1" height="1" fill="#F34E21" /><rect x="6" y="0" width="1" height="1" fill="#FB5225" /><rect x="7" y="0" width="1" height="1" fill="#DE4943" /><rect x="8" y="0" width="1" height="1" fill="#DB3630" /><rect x="9" y="0" width="1" height="1" fill="#C32828" /><rect x="0" y="1" width="1" height="1" fill="#FFBA06" /><rect x="1" y="1" width="1" height="1" fill="#FAA402" /><rect x="2" y="1" width="1" height="1" fill="#F69500" /><rect x="3" y="1" width="1" height="1" fill="#FF7810" /><rect x="4" y="1" width="1" height="1" fill="#FB5923" /><rect x="5" y="1" width="1" height="1" fill="#F15121" /><rect x="6" y="1" width="1" height="1" fill="#ED4928" /><rect x="7" y="1" width="1" height="1" fill="#DB352E" /><rect x="8" y="1" width="1" height="1" fill="#DC342E" /><rect x="9" y="1" width="1" height="1" fill="#C52121" /><rect x="0" y="2" width="1" height="1" fill="#FFAE04" /><rect x="1" y="2" width="1" height="1" fill="#FF9800" /><rect x="2" y="2" width="1" height="1" fill="#F48905" /><rect x="3" y="2" width="1" height="1" fill="#FF6E15" /><rect x="4" y="2" width="1" height="1" fill="#FF5920" /><rect x="5" y="2" width="1" height="1" fill="#E23E27" /><rect x="6" y="2" width="1" height="1" fill="#D03B29" /><rect x="7" y="2" width="1" height="1" fill="#DD352E" /><rect x="8" y="2" width="1" height="1" fill="#D12D29" /><rect x="9" y="2" width="1" height="1" fill="#BE2121" /><rect x="0" y="3" width="1" height="1" fill="#FFA803" /><rect x="1" y="3" width="1" height="1" fill="#FF9A01" /><rect x="2" y="3" width="1" height="1" fill="#FF7A10" /><rect x="3" y="3" width="1" height="1" fill="#FF5722" /><rect x="4" y="3" width="1" height="1" fill="#FC5324" /><rect x="5" y="3" width="1" height="1" fill="#F6492E" /><rect x="6" y="3" width="1" height="1" fill="#CF2C27" /><rect x="7" y="3" width="1" height="1" fill="#D22E29" /><rect x="8" y="3" width="1" height="1" fill="#BF2221" /><rect x="9" y="3" width="1" height="1" fill="#BC2020" /><rect x="0" y="4" width="1" height="1" fill="#FF9B01" /><rect x="1" y="4" width="1" height="1" fill="#F48905" /><rect x="2" y="4" width="1" height="1" fill="#FF6E15" /><rect x="3" y="4" width="1" height="1" fill="#FF5B1F" /><rect x="4" y="4" width="1" height="1" fill="#FFCDD2" /><rect x="5" y="4" width="1" height="1" fill="#000000" /><rect x="6" y="4" width="1" height="1" fill="#D4302C" /><rect x="7" y="4" width="1" height="1" fill="#C12322" /><rect x="8" y="4" width="1" height="1" fill="#BC2020" /><rect x="9" y="4" width="1" height="1" fill="#B61C1C" /><rect x="0" y="5" width="1" height="1" fill="#FF9A00" /><rect x="1" y="5" width="1" height="1" fill="#F5740F" /><rect x="2" y="5" width="1" height="1" fill="#FF5B1F" /><rect x="3" y="5" width="1" height="1" fill="#FC5324" /><rect x="4" y="5" width="1" height="1" fill="#000000" /><rect x="5" y="5" width="1" height="1" fill="#FFCDD2" /><rect x="6" y="5" width="1" height="1" fill="#C42626" /><rect x="7" y="5" width="1" height="1" fill="#BC2120" /><rect x="8" y="5" width="1" height="1" fill="#B71C1C" /><rect x="9" y="5" width="1" height="1" fill="#AF1B1B" /><rect x="0" y="6" width="1" height="1" fill="#FF9900" /><rect x="1" y="6" width="1" height="1" fill="#FF621B" /><rect x="2" y="6" width="1" height="1" fill="#FF5A20" /><rect x="3" y="6" width="1" height="1" fill="#F84C2B" /><rect x="4" y="6" width="1" height="1" fill="#ED3F32" /><rect x="5" y="6" width="1" height="1" fill="#D6302C" /><rect x="6" y="6" width="1" height="1" fill="#C12322" /><rect x="7" y="6" width="1" height="1" fill="#B71C1C" /><rect x="8" y="6" width="1" height="1" fill="#B21B1B" /><rect x="9" y="6" width="1" height="1" fill="#B02922" /><rect x="0" y="7" width="1" height="1" fill="#FF9900" /><rect x="1" y="7" width="1" height="1" fill="#FF5B1F" /><rect x="2" y="7" width="1" height="1" fill="#FF5922" /><rect x="3" y="7" width="1" height="1" fill="#F14432" /><rect x="4" y="7" width="1" height="1" fill="#DD352E" /><rect x="5" y="7" width="1" height="1" fill="#C72827" /><rect x="6" y="7" width="1" height="1" fill="#BD2121" /><rect x="7" y="7" width="1" height="1" fill="#B71C1C" /><rect x="8" y="7" width="1" height="1" fill="#B02922" /><rect x="9" y="7" width="1" height="1" fill="#B2201F" /><rect x="0" y="8" width="1" height="1" fill="#FFA315" /><rect x="1" y="8" width="1" height="1" fill="#FF5722" /><rect x="2" y="8" width="1" height="1" fill="#FF5C26" /><rect x="3" y="8" width="1" height="1" fill="#F24234" /><rect x="4" y="8" width="1" height="1" fill="#D22E2A" /><rect x="5" y="8" width="1" height="1" fill="#C02221" /><rect x="6" y="8" width="1" height="1" fill="#B71D1C" /><rect x="7" y="8" width="1" height="1" fill="#B21B1B" /><rect x="8" y="8" width="1" height="1" fill="#B71C1C" /><rect x="9" y="8" width="1" height="1" fill="#B2201F" /><rect x="0" y="9" width="1" height="1" fill="#FFB440" /><rect x="1" y="9" width="1" height="1" fill="#FF5722" /><rect x="2" y="9" width="1" height="1" fill="#FF732E" /><rect x="3" y="9" width="1" height="1" fill="#F44336" /><rect x="4" y="9" width="1" height="1" fill="#CA2A29" /><rect x="5" y="9" width="1" height="1" fill="#BB1F1F" /><rect x="6" y="9" width="1" height="1" fill="#B31C1C" /><rect x="7" y="9" width="1" height="1" fill="#B4241E" /><rect x="8" y="9" width="1" height="1" fill="#B2201F" /><rect x="9" y="9" width="1" height="1" fill="#AC2A25" />
  </g>
</svg>