<svg width="800" height="1000" version="1.1" xmlns="http://www.w3.org/2000/svg" xmlns:xlink="http://www.w3.org/1999/xlink">
  <defs>
      <linearGradient id="Gradient2" x1="0" x2="1" y1="0" y2="1">
        <stop offset="0%" stop-color="#2d3c96"/>
        <stop offset="100%" stop-color="#d53392"/>
      </linearGradient>
  </defs>
  <rect x="10" y="10" width="780" height="980" fill="url(#Gradient2)" rx="50" ry="50" stroke="#ffd700" stroke-width="20"/>
  <text x="400" y="920" width="780" text-anchor="middle" style="font: bold 200px 'Helvetica Neue'; fill: #ffd700">07210</text>

  <g transform="translate(80 80) scale(64)">
<rect x="0" y="0" width="1" height="1" fill="#ffffff" />
,<rect x="0" y="1" width="1" height="1" fill="#ffffff" />
,<rect x="0" y="2" width="1" height="1" fill="#ffffff" />
,<rect x="0" y="3" width="1" height="1" fill="#ffffff" />
,<rect x="0" y="4" width="1" height="1" fill="#ffffff" />
,<rect x="0" y="5" width="1" height="1" fill="#b1b1b1" />
,<rect x="0" y="6" width="1" height="1" fill="#8d8d8d" />
,<rect x="0" y="7" width="1" height="1" fill="#bbbbbb" />
,<rect x="0" y="8" width="1" height="1" fill="#ffffff" />
,<rect x="0" y="9" width="1" height="1" fill="#ffffff" />
,<rect x="1" y="0" width="1" height="1" fill="#ffffff" />
,<rect x="1" y="1" width="1" height="1" fill="#ffffff" />
,<rect x="1" y="2" width="1" height="1" fill="#a2a2a2" />
,<rect x="1" y="3" width="1" height="1" fill="#5d5e5d" />
,<rect x="1" y="4" width="1" height="1" fill="#050b02" />
,<rect x="1" y="5" width="1" height="1" fill="#11150f" />
,<rect x="1" y="6" width="1" height="1" fill="#171814" />
,<rect x="1" y="7" width="1" height="1" fill="#11120f" />
,<rect x="1" y="8" width="1" height="1" fill="#343632" />
,<rect x="1" y="9" width="1" height="1" fill="#70706d" />
,<rect x="2" y="0" width="1" height="1" fill="#ffffff" />
,<rect x="2" y="1" width="1" height="1" fill="#9f9f9f" />
,<rect x="2" y="2" width="1" height="1" fill="#303230" />
,<rect x="2" y="3" width="1" height="1" fill="#2c2d2a" />
,<rect x="2" y="4" width="1" height="1" fill="#652a78" />
,<rect x="2" y="5" width="1" height="1" fill="#240b30" />
,<rect x="2" y="6" width="1" height="1" fill="#04010e" />
,<rect x="2" y="7" width="1" height="1" fill="#05000e" />
,<rect x="2" y="8" width="1" height="1" fill="#110a1a" />
,<rect x="2" y="9" width="1" height="1" fill="#1f1d2b" />
,<rect x="3" y="0" width="1" height="1" fill="#c1c1c1" />
,<rect x="3" y="1" width="1" height="1" fill="#2f302f" />
,<rect x="3" y="2" width="1" height="1" fill="#2d322d" />
,<rect x="3" y="3" width="1" height="1" fill="#e170dd" />
,<rect x="3" y="4" width="1" height="1" fill="#c953e2" />
,<rect x="3" y="5" width="1" height="1" fill="#ad48f5" />
,<rect x="3" y="6" width="1" height="1" fill="#9a4bff" />
,<rect x="3" y="7" width="1" height="1" fill="#8c42ff" />
,<rect x="3" y="8" width="1" height="1" fill="#853bff" />
,<rect x="3" y="9" width="1" height="1" fill="#4a2df7" />
,<rect x="4" y="0" width="1" height="1" fill="#444444" />
,<rect x="4" y="1" width="1" height="1" fill="#595a59" />
,<rect x="4" y="2" width="1" height="1" fill="#1f231f" />
,<rect x="4" y="3" width="1" height="1" fill="#fd85f9" />
,<rect x="4" y="4" width="1" height="1" fill="#ba4cd2" />
,<rect x="4" y="5" width="1" height="1" fill="#9f42e1" />
,<rect x="4" y="6" width="1" height="1" fill="#8c44f9" />
,<rect x="4" y="7" width="1" height="1" fill="#833ef7" />
,<rect x="4" y="8" width="1" height="1" fill="#4d239c" />
,<rect x="4" y="9" width="1" height="1" fill="#010014" />
,<rect x="5" y="0" width="1" height="1" fill="#4e4e4e" />
,<rect x="5" y="1" width="1" height="1" fill="#585958" />
,<rect x="5" y="2" width="1" height="1" fill="#1f221f" />
,<rect x="5" y="3" width="1" height="1" fill="#fe86fa" />
,<rect x="5" y="4" width="1" height="1" fill="#ba4cd2" />
,<rect x="5" y="5" width="1" height="1" fill="#9f42e1" />
,<rect x="5" y="6" width="1" height="1" fill="#8c44f9" />
,<rect x="5" y="7" width="1" height="1" fill="#853efa" />
,<rect x="5" y="8" width="1" height="1" fill="#411b8a" />
,<rect x="5" y="9" width="1" height="1" fill="#1d2210" />
,<rect x="6" y="0" width="1" height="1" fill="#cecece" />
,<rect x="6" y="1" width="1" height="1" fill="#272827" />
,<rect x="6" y="2" width="1" height="1" fill="#323832" />
,<rect x="6" y="3" width="1" height="1" fill="#d468d0" />
,<rect x="6" y="4" width="1" height="1" fill="#d356ee" />
,<rect x="6" y="5" width="1" height="1" fill="#b24afb" />
,<rect x="6" y="6" width="1" height="1" fill="#9c4cff" />
,<rect x="6" y="7" width="1" height="1" fill="#9647ff" />
,<rect x="6" y="8" width="1" height="1" fill="#220a52" />
,<rect x="6" y="9" width="1" height="1" fill="#171b12" />
,<rect x="7" y="0" width="1" height="1" fill="#ffffff" />
,<rect x="7" y="1" width="1" height="1" fill="#bcbcbc" />
,<rect x="7" y="2" width="1" height="1" fill="#272827" />
,<rect x="7" y="3" width="1" height="1" fill="#2e322e" />
,<rect x="7" y="4" width="1" height="1" fill="#010400" />
,<rect x="7" y="5" width="1" height="1" fill="#000000" />
,<rect x="7" y="6" width="1" height="1" fill="#000000" />
,<rect x="7" y="7" width="1" height="1" fill="#000000" />
,<rect x="7" y="8" width="1" height="1" fill="#030600" />
,<rect x="7" y="9" width="1" height="1" fill="#c2c2c1" />
,<rect x="8" y="0" width="1" height="1" fill="#ffffff" />
,<rect x="8" y="1" width="1" height="1" fill="#ffffff" />
,<rect x="8" y="2" width="1" height="1" fill="#bebebe" />
,<rect x="8" y="3" width="1" height="1" fill="#707170" />
,<rect x="8" y="4" width="1" height="1" fill="#131413" />
,<rect x="8" y="5" width="1" height="1" fill="#1d1e1c" />
,<rect x="8" y="6" width="1" height="1" fill="#1d1e1c" />
,<rect x="8" y="7" width="1" height="1" fill="#0e0f0d" />
,<rect x="8" y="8" width="1" height="1" fill="#b7b8b7" />
,<rect x="8" y="9" width="1" height="1" fill="#ffffff" />
,<rect x="9" y="0" width="1" height="1" fill="#ffffff" />
,<rect x="9" y="1" width="1" height="1" fill="#ffffff" />
,<rect x="9" y="2" width="1" height="1" fill="#ffffff" />
,<rect x="9" y="3" width="1" height="1" fill="#ffffff" />
,<rect x="9" y="4" width="1" height="1" fill="#ffffff" />
,<rect x="9" y="5" width="1" height="1" fill="#b9b9b9" />
,<rect x="9" y="6" width="1" height="1" fill="#949494" />
,<rect x="9" y="7" width="1" height="1" fill="#c5c5c5" />
,<rect x="9" y="8" width="1" height="1" fill="#ffffff" />
,<rect x="9" y="9" width="1" height="1" fill="#ffffff" />

  </g>
</svg>