<svg width="800" height="1000" xmlns="http://www.w3.org/2000/svg"><defs><linearGradient id="g" x1="0" x2="1" y1="0" y2="1"><stop offset="0%" stop-color="#2d3c96"/><stop offset="100%" stop-color="#d53392"/></linearGradient></defs><rect x="10" y="10" width="780" height="980" fill="url(#g)" rx="50" ry="50" stroke="gold" stroke-width="20"/><text x="400" y="920" width="780" text-anchor="middle" style="font:bold 200px 'Helvetica Neue';fill:gold">07429</text><g transform="translate(80 80) scale(64)"><rect x="0" y="0" width="1" height="1" fill="#fffeff" /><rect x="0" y="1" width="1" height="1" fill="#fcfcfc" /><rect x="0" y="2" width="1" height="1" fill="#fcfffd" /><rect x="0" y="3" width="1" height="1" fill="#fafffc" /><rect x="0" y="4" width="1" height="1" fill="#f9fef8" /><rect x="0" y="5" width="1" height="1" fill="#fbfffb" /><rect x="0" y="6" width="1" height="1" fill="#f7fffb" /><rect x="0" y="7" width="1" height="1" fill="#f5fffb" /><rect x="0" y="8" width="1" height="1" fill="#f6fff8" /><rect x="0" y="9" width="1" height="1" fill="#fffffb" /><rect x="1" y="0" width="1" height="1" fill="#fffeff" /><rect x="1" y="1" width="1" height="1" fill="#fefcfd" /><rect x="1" y="2" width="1" height="1" fill="#feffff" /><rect x="1" y="3" width="1" height="1" fill="#cdcfcc" /><rect x="1" y="4" width="1" height="1" fill="#fcfcfa" /><rect x="1" y="5" width="1" height="1" fill="#fefffd" /><rect x="1" y="6" width="1" height="1" fill="#f3fef8" /><rect x="1" y="7" width="1" height="1" fill="#f8fffd" /><rect x="1" y="8" width="1" height="1" fill="#fbfffb" /><rect x="1" y="9" width="1" height="1" fill="#fffffb" /><rect x="2" y="0" width="1" height="1" fill="#fffbfa" /><rect x="2" y="1" width="1" height="1" fill="#fffeff" /><rect x="2" y="2" width="1" height="1" fill="#010000" /><rect x="2" y="3" width="1" height="1" fill="#010002" /><rect x="2" y="4" width="1" height="1" fill="#040003" /><rect x="2" y="5" width="1" height="1" fill="#464447" /><rect x="2" y="6" width="1" height="1" fill="#edeef0" /><rect x="2" y="7" width="1" height="1" fill="#fbffff" /><rect x="2" y="8" width="1" height="1" fill="#fbfffd" /><rect x="2" y="9" width="1" height="1" fill="#fcfdf8" /><rect x="3" y="0" width="1" height="1" fill="#ffffff" /><rect x="3" y="1" width="1" height="1" fill="#7f7d7e" /><rect x="3" y="2" width="1" height="1" fill="#0e0606" /><rect x="3" y="3" width="1" height="1" fill="#1b080c" /><rect x="3" y="4" width="1" height="1" fill="#240009" /><rect x="3" y="5" width="1" height="1" fill="#1d0003" /><rect x="3" y="6" width="1" height="1" fill="#0a0000" /><rect x="3" y="7" width="1" height="1" fill="#787773" /><rect x="3" y="8" width="1" height="1" fill="#fffffb" /><rect x="3" y="9" width="1" height="1" fill="#fffefc" /><rect x="4" y="0" width="1" height="1" fill="#f9ffff" /><rect x="4" y="1" width="1" height="1" fill="#656565" /><rect x="4" y="2" width="1" height="1" fill="#2b1d1c" /><rect x="4" y="3" width="1" height="1" fill="#54272a" /><rect x="4" y="4" width="1" height="1" fill="#a54755" /><rect x="4" y="5" width="1" height="1" fill="#933543" /><rect x="4" y="6" width="1" height="1" fill="#4f2624" /><rect x="4" y="7" width="1" height="1" fill="#0c0000" /><rect x="4" y="8" width="1" height="1" fill="#5a5250" /><rect x="4" y="9" width="1" height="1" fill="#fffafc" /><rect x="5" y="0" width="1" height="1" fill="#f8ffff" /><rect x="5" y="1" width="1" height="1" fill="#707271" /><rect x="5" y="2" width="1" height="1" fill="#3a2f2b" /><rect x="5" y="3" width="1" height="1" fill="#734748" /><rect x="5" y="4" width="1" height="1" fill="#a54956" /><rect x="5" y="5" width="1" height="1" fill="#7d212c" /><rect x="5" y="6" width="1" height="1" fill="#502725" /><rect x="5" y="7" width="1" height="1" fill="#0c0000" /><rect x="5" y="8" width="1" height="1" fill="#514746" /><rect x="5" y="9" width="1" height="1" fill="#fffdff" /><rect x="6" y="0" width="1" height="1" fill="#f9fef8" /><rect x="6" y="1" width="1" height="1" fill="#9e9f9a" /><rect x="6" y="2" width="1" height="1" fill="#443f3b" /><rect x="6" y="3" width="1" height="1" fill="#4c3e3b" /><rect x="6" y="4" width="1" height="1" fill="#55383a" /><rect x="6" y="5" width="1" height="1" fill="#4a3031" /><rect x="6" y="6" width="1" height="1" fill="#20120f" /><rect x="6" y="7" width="1" height="1" fill="#7e7975" /><rect x="6" y="8" width="1" height="1" fill="#fffefb" /><rect x="6" y="9" width="1" height="1" fill="#fffffd" /><rect x="7" y="0" width="1" height="1" fill="#fffffb" /><rect x="7" y="1" width="1" height="1" fill="#f5f6f1" /><rect x="7" y="2" width="1" height="1" fill="#484944" /><rect x="7" y="3" width="1" height="1" fill="#40413c" /><rect x="7" y="4" width="1" height="1" fill="#3b3d3a" /><rect x="7" y="5" width="1" height="1" fill="#616360" /><rect x="7" y="6" width="1" height="1" fill="#e2e2e0" /><rect x="7" y="7" width="1" height="1" fill="#fffffd" /><rect x="7" y="8" width="1" height="1" fill="#fefdfb" /><rect x="7" y="9" width="1" height="1" fill="#fffffd" /><rect x="8" y="0" width="1" height="1" fill="#fffeff" /><rect x="8" y="1" width="1" height="1" fill="#fefefe" /><rect x="8" y="2" width="1" height="1" fill="#fbfbf9" /><rect x="8" y="3" width="1" height="1" fill="#cdcdcb" /><rect x="8" y="4" width="1" height="1" fill="#f4f4f2" /><rect x="8" y="5" width="1" height="1" fill="#fdfdfb" /><rect x="8" y="6" width="1" height="1" fill="#fefefc" /><rect x="8" y="7" width="1" height="1" fill="#fffffd" /><rect x="8" y="8" width="1" height="1" fill="#fffeff" /><rect x="8" y="9" width="1" height="1" fill="#fffeff" /><rect x="9" y="0" width="1" height="1" fill="#ffffff" /><rect x="9" y="1" width="1" height="1" fill="#fcfcfc" /><rect x="9" y="2" width="1" height="1" fill="#fffffd" /><rect x="9" y="3" width="1" height="1" fill="#f4f4f2" /><rect x="9" y="4" width="1" height="1" fill="#fffffd" /><rect x="9" y="5" width="1" height="1" fill="#fffffd" /><rect x="9" y="6" width="1" height="1" fill="#fffffd" /><rect x="9" y="7" width="1" height="1" fill="#fefefe" /><rect x="9" y="8" width="1" height="1" fill="#fffeff" /><rect x="9" y="9" width="1" height="1" fill="#fffeff" /></g></svg>