<svg width="800" height="1000" version="1.1" xmlns="http://www.w3.org/2000/svg" xmlns:xlink="http://www.w3.org/1999/xlink">
  <defs>
      <linearGradient id="Gradient2" x1="0" x2="1" y1="0" y2="1">
        <stop offset="0%" stop-color="#2d3c96"/>
        <stop offset="100%" stop-color="#d53392"/>
      </linearGradient>
  </defs>
  <rect x="10" y="10" width="780" height="980" fill="url(#Gradient2)" rx="50" ry="50" stroke="#ffd700" stroke-width="20"/>
  <text x="400" y="920" width="780" text-anchor="middle" style="font: bold 200px 'Helvetica Neue'; fill: #ffd700">07429</text>

  <g transform="translate(80 80) scale(64)">
<rect x="0" y="0" width="1" height="1" fill="#FFFEFF" /><rect x="1" y="0" width="1" height="1" fill="#FFFEFF" /><rect x="2" y="0" width="1" height="1" fill="#FFFBFA" /><rect x="3" y="0" width="1" height="1" fill="#FFFFFF" /><rect x="4" y="0" width="1" height="1" fill="#F9FFFF" /><rect x="5" y="0" width="1" height="1" fill="#F8FFFF" /><rect x="6" y="0" width="1" height="1" fill="#F9FEF8" /><rect x="7" y="0" width="1" height="1" fill="#FFFFFB" /><rect x="8" y="0" width="1" height="1" fill="#FFFEFF" /><rect x="9" y="0" width="1" height="1" fill="#FFFFFF" /><rect x="0" y="1" width="1" height="1" fill="#FCFCFC" /><rect x="1" y="1" width="1" height="1" fill="#FEFCFD" /><rect x="2" y="1" width="1" height="1" fill="#FFFEFF" /><rect x="3" y="1" width="1" height="1" fill="#7F7D7E" /><rect x="4" y="1" width="1" height="1" fill="#656565" /><rect x="5" y="1" width="1" height="1" fill="#707271" /><rect x="6" y="1" width="1" height="1" fill="#9E9F9A" /><rect x="7" y="1" width="1" height="1" fill="#F5F6F1" /><rect x="8" y="1" width="1" height="1" fill="#FEFEFE" /><rect x="9" y="1" width="1" height="1" fill="#FCFCFC" /><rect x="0" y="2" width="1" height="1" fill="#FCFFFD" /><rect x="1" y="2" width="1" height="1" fill="#FEFFFF" /><rect x="2" y="2" width="1" height="1" fill="#010000" /><rect x="3" y="2" width="1" height="1" fill="#0E0606" /><rect x="4" y="2" width="1" height="1" fill="#2B1D1C" /><rect x="5" y="2" width="1" height="1" fill="#3A2F2B" /><rect x="6" y="2" width="1" height="1" fill="#443F3B" /><rect x="7" y="2" width="1" height="1" fill="#484944" /><rect x="8" y="2" width="1" height="1" fill="#FBFBF9" /><rect x="9" y="2" width="1" height="1" fill="#FFFFFD" /><rect x="0" y="3" width="1" height="1" fill="#FAFFFC" /><rect x="1" y="3" width="1" height="1" fill="#CDCFCC" /><rect x="2" y="3" width="1" height="1" fill="#010002" /><rect x="3" y="3" width="1" height="1" fill="#1B080C" /><rect x="4" y="3" width="1" height="1" fill="#54272A" /><rect x="5" y="3" width="1" height="1" fill="#734748" /><rect x="6" y="3" width="1" height="1" fill="#4C3E3B" /><rect x="7" y="3" width="1" height="1" fill="#40413C" /><rect x="8" y="3" width="1" height="1" fill="#CDCDCB" /><rect x="9" y="3" width="1" height="1" fill="#F4F4F2" /><rect x="0" y="4" width="1" height="1" fill="#F9FEF8" /><rect x="1" y="4" width="1" height="1" fill="#FCFCFA" /><rect x="2" y="4" width="1" height="1" fill="#040003" /><rect x="3" y="4" width="1" height="1" fill="#240009" /><rect x="4" y="4" width="1" height="1" fill="#A54755" /><rect x="5" y="4" width="1" height="1" fill="#A54956" /><rect x="6" y="4" width="1" height="1" fill="#55383A" /><rect x="7" y="4" width="1" height="1" fill="#3B3D3A" /><rect x="8" y="4" width="1" height="1" fill="#F4F4F2" /><rect x="9" y="4" width="1" height="1" fill="#FFFFFD" /><rect x="0" y="5" width="1" height="1" fill="#FBFFFB" /><rect x="1" y="5" width="1" height="1" fill="#FEFFFD" /><rect x="2" y="5" width="1" height="1" fill="#464447" /><rect x="3" y="5" width="1" height="1" fill="#1D0003" /><rect x="4" y="5" width="1" height="1" fill="#933543" /><rect x="5" y="5" width="1" height="1" fill="#7D212C" /><rect x="6" y="5" width="1" height="1" fill="#4A3031" /><rect x="7" y="5" width="1" height="1" fill="#616360" /><rect x="8" y="5" width="1" height="1" fill="#FDFDFB" /><rect x="9" y="5" width="1" height="1" fill="#FFFFFD" /><rect x="0" y="6" width="1" height="1" fill="#F7FFFB" /><rect x="1" y="6" width="1" height="1" fill="#F3FEF8" /><rect x="2" y="6" width="1" height="1" fill="#EDEEF0" /><rect x="3" y="6" width="1" height="1" fill="#0A0000" /><rect x="4" y="6" width="1" height="1" fill="#4F2624" /><rect x="5" y="6" width="1" height="1" fill="#502725" /><rect x="6" y="6" width="1" height="1" fill="#20120F" /><rect x="7" y="6" width="1" height="1" fill="#E2E2E0" /><rect x="8" y="6" width="1" height="1" fill="#FEFEFC" /><rect x="9" y="6" width="1" height="1" fill="#FFFFFD" /><rect x="0" y="7" width="1" height="1" fill="#F5FFFB" /><rect x="1" y="7" width="1" height="1" fill="#F8FFFD" /><rect x="2" y="7" width="1" height="1" fill="#FBFFFF" /><rect x="3" y="7" width="1" height="1" fill="#787773" /><rect x="4" y="7" width="1" height="1" fill="#0C0000" /><rect x="5" y="7" width="1" height="1" fill="#0C0000" /><rect x="6" y="7" width="1" height="1" fill="#7E7975" /><rect x="7" y="7" width="1" height="1" fill="#FFFFFD" /><rect x="8" y="7" width="1" height="1" fill="#FFFFFD" /><rect x="9" y="7" width="1" height="1" fill="#FEFEFE" /><rect x="0" y="8" width="1" height="1" fill="#F6FFF8" /><rect x="1" y="8" width="1" height="1" fill="#FBFFFB" /><rect x="2" y="8" width="1" height="1" fill="#FBFFFD" /><rect x="3" y="8" width="1" height="1" fill="#FFFFFB" /><rect x="4" y="8" width="1" height="1" fill="#5A5250" /><rect x="5" y="8" width="1" height="1" fill="#514746" /><rect x="6" y="8" width="1" height="1" fill="#FFFEFB" /><rect x="7" y="8" width="1" height="1" fill="#FEFDFB" /><rect x="8" y="8" width="1" height="1" fill="#FFFEFF" /><rect x="9" y="8" width="1" height="1" fill="#FFFEFF" /><rect x="0" y="9" width="1" height="1" fill="#FFFFFB" /><rect x="1" y="9" width="1" height="1" fill="#FFFFFB" /><rect x="2" y="9" width="1" height="1" fill="#FCFDF8" /><rect x="3" y="9" width="1" height="1" fill="#FFFEFC" /><rect x="4" y="9" width="1" height="1" fill="#FFFAFC" /><rect x="5" y="9" width="1" height="1" fill="#FFFDFF" /><rect x="6" y="9" width="1" height="1" fill="#FFFFFD" /><rect x="7" y="9" width="1" height="1" fill="#FFFFFD" /><rect x="8" y="9" width="1" height="1" fill="#FFFEFF" /><rect x="9" y="9" width="1" height="1" fill="#FFFEFF" />
  </g>
</svg>