<svg width="800" height="1000" version="1.1" xmlns="http://www.w3.org/2000/svg" xmlns:xlink="http://www.w3.org/1999/xlink">
  <defs>
      <linearGradient id="Gradient2" x1="0" x2="1" y1="0" y2="1">
        <stop offset="0%" stop-color="#2d3c96"/>
        <stop offset="100%" stop-color="#d53392"/>
      </linearGradient>
  </defs>
  <rect x="10" y="10" width="780" height="980" fill="url(#Gradient2)" rx="50" ry="50" stroke="#ffd700" stroke-width="20"/>
  <text x="400" y="920" width="780" text-anchor="middle" style="font: bold 200px 'Helvetica Neue'; fill: #ffd700">08212</text>

  <g transform="translate(80 80) scale(64)">
<rect x="0" y="0" width="1" height="1" fill="#ffcd51" />
,<rect x="0" y="1" width="1" height="1" fill="#ffcc46" />
,<rect x="0" y="2" width="1" height="1" fill="#ffcb47" />
,<rect x="0" y="3" width="1" height="1" fill="#ffcb47" />
,<rect x="0" y="4" width="1" height="1" fill="#fecb45" />
,<rect x="0" y="5" width="1" height="1" fill="#ffcb47" />
,<rect x="0" y="6" width="1" height="1" fill="#ffcc46" />
,<rect x="0" y="7" width="1" height="1" fill="#ffcb47" />
,<rect x="0" y="8" width="1" height="1" fill="#ffcb47" />
,<rect x="0" y="9" width="1" height="1" fill="#ffcc46" />
,<rect x="1" y="0" width="1" height="1" fill="#ffc938" />
,<rect x="1" y="1" width="1" height="1" fill="#ffc938" />
,<rect x="1" y="2" width="1" height="1" fill="#ffc938" />
,<rect x="1" y="3" width="1" height="1" fill="#ffc938" />
,<rect x="1" y="4" width="1" height="1" fill="#ffc836" />
,<rect x="1" y="5" width="1" height="1" fill="#ffc837" />
,<rect x="1" y="6" width="1" height="1" fill="#ffc838" />
,<rect x="1" y="7" width="1" height="1" fill="#ffca38" />
,<rect x="1" y="8" width="1" height="1" fill="#ffcb37" />
,<rect x="1" y="9" width="1" height="1" fill="#ffc938" />
,<rect x="2" y="0" width="1" height="1" fill="#ffcc46" />
,<rect x="2" y="1" width="1" height="1" fill="#ffc837" />
,<rect x="2" y="2" width="1" height="1" fill="#ffc938" />
,<rect x="2" y="3" width="1" height="1" fill="#ffc838" />
,<rect x="2" y="4" width="1" height="1" fill="#ffc938" />
,<rect x="2" y="5" width="1" height="1" fill="#ffc838" />
,<rect x="2" y="6" width="1" height="1" fill="#ffca38" />
,<rect x="2" y="7" width="1" height="1" fill="#f8bf35" />
,<rect x="2" y="8" width="1" height="1" fill="#ffd13a" />
,<rect x="2" y="9" width="1" height="1" fill="#ffea41" />
,<rect x="3" y="0" width="1" height="1" fill="#ffcc46" />
,<rect x="3" y="1" width="1" height="1" fill="#ffc838" />
,<rect x="3" y="2" width="1" height="1" fill="#ffc838" />
,<rect x="3" y="3" width="1" height="1" fill="#ffc838" />
,<rect x="3" y="4" width="1" height="1" fill="#ffc938" />
,<rect x="3" y="5" width="1" height="1" fill="#ffc938" />
,<rect x="3" y="6" width="1" height="1" fill="#ffce39" />
,<rect x="3" y="7" width="1" height="1" fill="#efcb39" />
,<rect x="3" y="8" width="1" height="1" fill="#755e24" />
,<rect x="3" y="9" width="1" height="1" fill="#987a2a" />
,<rect x="4" y="0" width="1" height="1" fill="#ffcb47" />
,<rect x="4" y="1" width="1" height="1" fill="#ffc836" />
,<rect x="4" y="2" width="1" height="1" fill="#ffc938" />
,<rect x="4" y="3" width="1" height="1" fill="#ffc838" />
,<rect x="4" y="4" width="1" height="1" fill="#ffc838" />
,<rect x="4" y="5" width="1" height="1" fill="#ffc836" />
,<rect x="4" y="6" width="1" height="1" fill="#ffc938" />
,<rect x="4" y="7" width="1" height="1" fill="#ffe13b" />
,<rect x="4" y="8" width="1" height="1" fill="#b6972f" />
,<rect x="4" y="9" width="1" height="1" fill="#000012" />
,<rect x="5" y="0" width="1" height="1" fill="#fecb47" />
,<rect x="5" y="1" width="1" height="1" fill="#ffc938" />
,<rect x="5" y="2" width="1" height="1" fill="#ffc938" />
,<rect x="5" y="3" width="1" height="1" fill="#ffc938" />
,<rect x="5" y="4" width="1" height="1" fill="#ffc938" />
,<rect x="5" y="5" width="1" height="1" fill="#ffc836" />
,<rect x="5" y="6" width="1" height="1" fill="#ffce36" />
,<rect x="5" y="7" width="1" height="1" fill="#ffcb37" />
,<rect x="5" y="8" width="1" height="1" fill="#ffef41" />
,<rect x="5" y="9" width="1" height="1" fill="#b49031" />
,<rect x="6" y="0" width="1" height="1" fill="#fecb45" />
,<rect x="6" y="1" width="1" height="1" fill="#ffc938" />
,<rect x="6" y="2" width="1" height="1" fill="#ffc838" />
,<rect x="6" y="3" width="1" height="1" fill="#ffc837" />
,<rect x="6" y="4" width="1" height="1" fill="#ffca39" />
,<rect x="6" y="5" width="1" height="1" fill="#ffcd27" />
,<rect x="6" y="6" width="1" height="1" fill="#fdc327" />
,<rect x="6" y="7" width="1" height="1" fill="#f4bf28" />
,<rect x="6" y="8" width="1" height="1" fill="#ffd52e" />
,<rect x="6" y="9" width="1" height="1" fill="#fff737" />
,<rect x="7" y="0" width="1" height="1" fill="#ffcb47" />
,<rect x="7" y="1" width="1" height="1" fill="#ffc838" />
,<rect x="7" y="2" width="1" height="1" fill="#ffc838" />
,<rect x="7" y="3" width="1" height="1" fill="#ffca36" />
,<rect x="7" y="4" width="1" height="1" fill="#ffcc07" />
,<rect x="7" y="5" width="1" height="1" fill="#a0ba5c" />
,<rect x="7" y="6" width="1" height="1" fill="#637460" />
,<rect x="7" y="7" width="1" height="1" fill="#bb8b55" />
,<rect x="7" y="8" width="1" height="1" fill="#eacb40" />
,<rect x="7" y="9" width="1" height="1" fill="#b9a540" />
,<rect x="8" y="0" width="1" height="1" fill="#ffcb47" />
,<rect x="8" y="1" width="1" height="1" fill="#ffc836" />
,<rect x="8" y="2" width="1" height="1" fill="#ffcb37" />
,<rect x="8" y="3" width="1" height="1" fill="#fec729" />
,<rect x="8" y="4" width="1" height="1" fill="#d8b652" />
,<rect x="8" y="5" width="1" height="1" fill="#82aa9a" />
,<rect x="8" y="6" width="1" height="1" fill="#b6c1b2" />
,<rect x="8" y="7" width="1" height="1" fill="#f3e9ce" />
,<rect x="8" y="8" width="1" height="1" fill="#bfb68c" />
,<rect x="8" y="9" width="1" height="1" fill="#747248" />
,<rect x="9" y="0" width="1" height="1" fill="#fdc946" />
,<rect x="9" y="1" width="1" height="1" fill="#ffc938" />
,<rect x="9" y="2" width="1" height="1" fill="#ffc71b" />
,<rect x="9" y="3" width="1" height="1" fill="#f7ca52" />
,<rect x="9" y="4" width="1" height="1" fill="#d8d7c6" />
,<rect x="9" y="5" width="1" height="1" fill="#decaa9" />
,<rect x="9" y="6" width="1" height="1" fill="#fff4c3" />
,<rect x="9" y="7" width="1" height="1" fill="#ffffd9" />
,<rect x="9" y="8" width="1" height="1" fill="#b5ac7e" />
,<rect x="9" y="9" width="1" height="1" fill="#938950" />

  </g>
</svg>