<svg width="800" height="1000" version="1.1" xmlns="http://www.w3.org/2000/svg" xmlns:xlink="http://www.w3.org/1999/xlink">
  <defs>
      <linearGradient id="Gradient2" x1="0" x2="1" y1="0" y2="1">
        <stop offset="0%" stop-color="#2d3c96"/>
        <stop offset="100%" stop-color="#d53392"/>
      </linearGradient>
  </defs>
  <rect x="10" y="10" width="780" height="980" fill="url(#Gradient2)" rx="50" ry="50" stroke="#ffd700" stroke-width="20"/>
  <text x="400" y="920" width="780" text-anchor="middle" style="font: bold 200px 'Helvetica Neue'; fill: #ffd700">08213</text>

  <g transform="translate(80 80) scale(64)">
<rect x="0" y="0" width="1" height="1" fill="#FFC838" /><rect x="1" y="0" width="1" height="1" fill="#FFC838" /><rect x="2" y="0" width="1" height="1" fill="#FFC938" /><rect x="3" y="0" width="1" height="1" fill="#FFCA34" /><rect x="4" y="0" width="1" height="1" fill="#FFCA34" /><rect x="5" y="0" width="1" height="1" fill="#FFCB35" /><rect x="6" y="0" width="1" height="1" fill="#FFCA36" /><rect x="7" y="0" width="1" height="1" fill="#FFC739" /><rect x="8" y="0" width="1" height="1" fill="#FEC739" /><rect x="9" y="0" width="1" height="1" fill="#FFC739" /><rect x="0" y="1" width="1" height="1" fill="#FFCB39" /><rect x="1" y="1" width="1" height="1" fill="#FFC91F" /><rect x="2" y="1" width="1" height="1" fill="#F9BE17" /><rect x="3" y="1" width="1" height="1" fill="#F2B829" /><rect x="4" y="1" width="1" height="1" fill="#FED63E" /><rect x="5" y="1" width="1" height="1" fill="#FDD236" /><rect x="6" y="1" width="1" height="1" fill="#FABE20" /><rect x="7" y="1" width="1" height="1" fill="#FEBF10" /><rect x="8" y="1" width="1" height="1" fill="#FFC512" /><rect x="9" y="1" width="1" height="1" fill="#FFC927" /><rect x="0" y="2" width="1" height="1" fill="#FCC010" /><rect x="1" y="2" width="1" height="1" fill="#F2C650" /><rect x="2" y="2" width="1" height="1" fill="#E8D28E" /><rect x="3" y="2" width="1" height="1" fill="#FAEEB4" /><rect x="4" y="2" width="1" height="1" fill="#9E8B75" /><rect x="5" y="2" width="1" height="1" fill="#AC9978" /><rect x="6" y="2" width="1" height="1" fill="#F2DE9B" /><rect x="7" y="2" width="1" height="1" fill="#E7CE80" /><rect x="8" y="2" width="1" height="1" fill="#EBC96A" /><rect x="9" y="2" width="1" height="1" fill="#EFC243" /><rect x="0" y="3" width="1" height="1" fill="#DCC581" /><rect x="1" y="3" width="1" height="1" fill="#CCC8B0" /><rect x="2" y="3" width="1" height="1" fill="#FFFFE6" /><rect x="3" y="3" width="1" height="1" fill="#FFFFD8" /><rect x="4" y="3" width="1" height="1" fill="#B0A9A2" /><rect x="5" y="3" width="1" height="1" fill="#A99F9A" /><rect x="6" y="3" width="1" height="1" fill="#E2DEC0" /><rect x="7" y="3" width="1" height="1" fill="#FCFADE" /><rect x="8" y="3" width="1" height="1" fill="#F5F4DB" /><rect x="9" y="3" width="1" height="1" fill="#E2DCB8" /><rect x="0" y="4" width="1" height="1" fill="#E9E5CF" /><rect x="1" y="4" width="1" height="1" fill="#D6CCA9" /><rect x="2" y="4" width="1" height="1" fill="#DDD1A9" /><rect x="3" y="4" width="1" height="1" fill="#DED1AA" /><rect x="4" y="4" width="1" height="1" fill="#E2DBB5" /><rect x="5" y="4" width="1" height="1" fill="#F1EDC1" /><rect x="6" y="4" width="1" height="1" fill="#DCD2AA" /><rect x="7" y="4" width="1" height="1" fill="#EBE1B7" /><rect x="8" y="4" width="1" height="1" fill="#E8DDB1" /><rect x="9" y="4" width="1" height="1" fill="#F6EDC5" /><rect x="0" y="5" width="1" height="1" fill="#F3EABC" /><rect x="1" y="5" width="1" height="1" fill="#F4E8BC" /><rect x="2" y="5" width="1" height="1" fill="#CAC3A1" /><rect x="3" y="5" width="1" height="1" fill="#F3F4C4" /><rect x="4" y="5" width="1" height="1" fill="#C79286" /><rect x="5" y="5" width="1" height="1" fill="#E7C9AD" /><rect x="6" y="5" width="1" height="1" fill="#FFFECD" /><rect x="7" y="5" width="1" height="1" fill="#C8BE98" /><rect x="8" y="5" width="1" height="1" fill="#D8CEA7" /><rect x="9" y="5" width="1" height="1" fill="#EEE2BC" /><rect x="0" y="6" width="1" height="1" fill="#FCF3C5" /><rect x="1" y="6" width="1" height="1" fill="#FFFDCB" /><rect x="2" y="6" width="1" height="1" fill="#D0BDA9" /><rect x="3" y="6" width="1" height="1" fill="#D0C3AE" /><rect x="4" y="6" width="1" height="1" fill="#FBE4C0" /><rect x="5" y="6" width="1" height="1" fill="#FDEBC6" /><rect x="6" y="6" width="1" height="1" fill="#F2EDC3" /><rect x="7" y="6" width="1" height="1" fill="#E0D5B3" /><rect x="8" y="6" width="1" height="1" fill="#E7E2AC" /><rect x="9" y="6" width="1" height="1" fill="#B8B875" /><rect x="0" y="7" width="1" height="1" fill="#FBF0C7" /><rect x="1" y="7" width="1" height="1" fill="#F5EAC1" /><rect x="2" y="7" width="1" height="1" fill="#E2D3AC" /><rect x="3" y="7" width="1" height="1" fill="#DFCDA7" /><rect x="4" y="7" width="1" height="1" fill="#EDEBBA" /><rect x="5" y="7" width="1" height="1" fill="#E4DEAF" /><rect x="6" y="7" width="1" height="1" fill="#E2D6AD" /><rect x="7" y="7" width="1" height="1" fill="#E5D9B2" /><rect x="8" y="7" width="1" height="1" fill="#D6CDA0" /><rect x="9" y="7" width="1" height="1" fill="#E8E3A7" /><rect x="0" y="8" width="1" height="1" fill="#A79D66" /><rect x="1" y="8" width="1" height="1" fill="#9C925A" /><rect x="2" y="8" width="1" height="1" fill="#9B9456" /><rect x="3" y="8" width="1" height="1" fill="#968F50" /><rect x="4" y="8" width="1" height="1" fill="#8C8248" /><rect x="5" y="8" width="1" height="1" fill="#898145" /><rect x="6" y="8" width="1" height="1" fill="#8D8448" /><rect x="7" y="8" width="1" height="1" fill="#92894C" /><rect x="8" y="8" width="1" height="1" fill="#9C9259" /><rect x="9" y="8" width="1" height="1" fill="#AA9F6B" /><rect x="0" y="9" width="1" height="1" fill="#9F9760" /><rect x="1" y="9" width="1" height="1" fill="#ACA26A" /><rect x="2" y="9" width="1" height="1" fill="#B3A973" /><rect x="3" y="9" width="1" height="1" fill="#BAB07E" /><rect x="4" y="9" width="1" height="1" fill="#C0B583" /><rect x="5" y="9" width="1" height="1" fill="#C0B885" /><rect x="6" y="9" width="1" height="1" fill="#C0B683" /><rect x="7" y="9" width="1" height="1" fill="#BCB17F" /><rect x="8" y="9" width="1" height="1" fill="#B3A974" /><rect x="9" y="9" width="1" height="1" fill="#A79D66" />
  </g>
</svg>