<svg width="800" height="1000" xmlns="http://www.w3.org/2000/svg"><defs><linearGradient id="g" x1="0" x2="1" y1="0" y2="1"><stop offset="0%" stop-color="#2d3c96"/><stop offset="100%" stop-color="#d53392"/></linearGradient></defs><rect x="10" y="10" width="780" height="980" fill="url(#g)" rx="50" ry="50" stroke="gold" stroke-width="20"/><text x="400" y="920" width="780" text-anchor="middle" style="font:bold 200px 'Helvetica Neue';fill:gold">08214</text><g transform="translate(80 80) scale(64)"><rect x="0" y="0" width="1" height="1" fill="#fec938" /><rect x="0" y="1" width="1" height="1" fill="#ffcb39" /><rect x="0" y="2" width="1" height="1" fill="#fbbd0b" /><rect x="0" y="3" width="1" height="1" fill="#e9d38a" /><rect x="0" y="4" width="1" height="1" fill="#f1edd5" /><rect x="0" y="5" width="1" height="1" fill="#e2d8ad" /><rect x="0" y="6" width="1" height="1" fill="#f9edc2" /><rect x="0" y="7" width="1" height="1" fill="#fbefc9" /><rect x="0" y="8" width="1" height="1" fill="#a39c65" /><rect x="0" y="9" width="1" height="1" fill="#9c925a" /><rect x="1" y="0" width="1" height="1" fill="#ffc938" /><rect x="1" y="1" width="1" height="1" fill="#ffc837" /><rect x="1" y="2" width="1" height="1" fill="#ffc71b" /><rect x="1" y="3" width="1" height="1" fill="#eec450" /><rect x="1" y="4" width="1" height="1" fill="#ebeacb" /><rect x="1" y="5" width="1" height="1" fill="#e7e0b6" /><rect x="1" y="6" width="1" height="1" fill="#dfd4ad" /><rect x="1" y="7" width="1" height="1" fill="#d4cbab" /><rect x="1" y="8" width="1" height="1" fill="#b5ac7d" /><rect x="1" y="9" width="1" height="1" fill="#8f884a" /><rect x="2" y="0" width="1" height="1" fill="#ffc739" /><rect x="2" y="1" width="1" height="1" fill="#ffc838" /><rect x="2" y="2" width="1" height="1" fill="#ffcb35" /><rect x="2" y="3" width="1" height="1" fill="#f9c11e" /><rect x="2" y="4" width="1" height="1" fill="#decc91" /><rect x="2" y="5" width="1" height="1" fill="#bfc2b5" /><rect x="2" y="6" width="1" height="1" fill="#c7c7b2" /><rect x="2" y="7" width="1" height="1" fill="#fdf9de" /><rect x="2" y="8" width="1" height="1" fill="#e3ddb7" /><rect x="2" y="9" width="1" height="1" fill="#837d46" /><rect x="3" y="0" width="1" height="1" fill="#fec737" /><rect x="3" y="1" width="1" height="1" fill="#ffc837" /><rect x="3" y="2" width="1" height="1" fill="#ffc93a" /><rect x="3" y="3" width="1" height="1" fill="#ffc92e" /><rect x="3" y="4" width="1" height="1" fill="#f7c73a" /><rect x="3" y="5" width="1" height="1" fill="#e4bb5f" /><rect x="3" y="6" width="1" height="1" fill="#bd9d64" /><rect x="3" y="7" width="1" height="1" fill="#cfc385" /><rect x="3" y="8" width="1" height="1" fill="#d3c093" /><rect x="3" y="9" width="1" height="1" fill="#ad9e5a" /><rect x="4" y="0" width="1" height="1" fill="#ffc737" /><rect x="4" y="1" width="1" height="1" fill="#ffc838" /><rect x="4" y="2" width="1" height="1" fill="#ffc938" /><rect x="4" y="3" width="1" height="1" fill="#ffc93a" /><rect x="4" y="4" width="1" height="1" fill="#ffcb2f" /><rect x="4" y="5" width="1" height="1" fill="#ffc71e" /><rect x="4" y="6" width="1" height="1" fill="#f9bb17" /><rect x="4" y="7" width="1" height="1" fill="#deab1a" /><rect x="4" y="8" width="1" height="1" fill="#edc82b" /><rect x="4" y="9" width="1" height="1" fill="#f7c437" /><rect x="5" y="0" width="1" height="1" fill="#ffc838" /><rect x="5" y="1" width="1" height="1" fill="#ffc938" /><rect x="5" y="2" width="1" height="1" fill="#ffc837" /><rect x="5" y="3" width="1" height="1" fill="#ffc938" /><rect x="5" y="4" width="1" height="1" fill="#ffc838" /><rect x="5" y="5" width="1" height="1" fill="#ffc836" /><rect x="5" y="6" width="1" height="1" fill="#ffcb37" /><rect x="5" y="7" width="1" height="1" fill="#ffd539" /><rect x="5" y="8" width="1" height="1" fill="#ffed3c" /><rect x="5" y="9" width="1" height="1" fill="#514221" /><rect x="6" y="0" width="1" height="1" fill="#ffc838" /><rect x="6" y="1" width="1" height="1" fill="#ffc838" /><rect x="6" y="2" width="1" height="1" fill="#ffc836" /><rect x="6" y="3" width="1" height="1" fill="#ffc838" /><rect x="6" y="4" width="1" height="1" fill="#ffc836" /><rect x="6" y="5" width="1" height="1" fill="#ffc838" /><rect x="6" y="6" width="1" height="1" fill="#ffcc38" /><rect x="6" y="7" width="1" height="1" fill="#f8db3b" /><rect x="6" y="8" width="1" height="1" fill="#7c6226" /><rect x="6" y="9" width="1" height="1" fill="#15151a" /><rect x="7" y="0" width="1" height="1" fill="#ffc737" /><rect x="7" y="1" width="1" height="1" fill="#ffc938" /><rect x="7" y="2" width="1" height="1" fill="#ffc836" /><rect x="7" y="3" width="1" height="1" fill="#ffc938" /><rect x="7" y="4" width="1" height="1" fill="#ffc838" /><rect x="7" y="5" width="1" height="1" fill="#ffc838" /><rect x="7" y="6" width="1" height="1" fill="#ffce39" /><rect x="7" y="7" width="1" height="1" fill="#f0bd35" /><rect x="7" y="8" width="1" height="1" fill="#b38f2d" /><rect x="7" y="9" width="1" height="1" fill="#fecb37" /><rect x="8" y="0" width="1" height="1" fill="#ffc838" /><rect x="8" y="1" width="1" height="1" fill="#ffc938" /><rect x="8" y="2" width="1" height="1" fill="#ffc938" /><rect x="8" y="3" width="1" height="1" fill="#ffc938" /><rect x="8" y="4" width="1" height="1" fill="#ffc938" /><rect x="8" y="5" width="1" height="1" fill="#ffc838" /><rect x="8" y="6" width="1" height="1" fill="#ffc739" /><rect x="8" y="7" width="1" height="1" fill="#ffcb39" /><rect x="8" y="8" width="1" height="1" fill="#ffdd3d" /><rect x="8" y="9" width="1" height="1" fill="#ffd23a" /><rect x="9" y="0" width="1" height="1" fill="#ffc838" /><rect x="9" y="1" width="1" height="1" fill="#ffc836" /><rect x="9" y="2" width="1" height="1" fill="#fec938" /><rect x="9" y="3" width="1" height="1" fill="#fec941" /><rect x="9" y="4" width="1" height="1" fill="#feca40" /><rect x="9" y="5" width="1" height="1" fill="#fec941" /><rect x="9" y="6" width="1" height="1" fill="#fbc73b" /><rect x="9" y="7" width="1" height="1" fill="#feca3f" /><rect x="9" y="8" width="1" height="1" fill="#fbc73b" /><rect x="9" y="9" width="1" height="1" fill="#fbc63a" /></g></svg>