<svg width="800" height="1000" version="1.1" xmlns="http://www.w3.org/2000/svg" xmlns:xlink="http://www.w3.org/1999/xlink">
  <defs>
      <linearGradient id="Gradient2" x1="0" x2="1" y1="0" y2="1">
        <stop offset="0%" stop-color="#2d3c96"/>
        <stop offset="100%" stop-color="#d53392"/>
      </linearGradient>
  </defs>
  <rect x="10" y="10" width="780" height="980" fill="url(#Gradient2)" rx="50" ry="50" stroke="#ffd700" stroke-width="20"/>
  <text x="400" y="920" width="780" text-anchor="middle" style="font: bold 200px 'Helvetica Neue'; fill: #ffd700">08212</text>

  <g transform="translate(80 80) scale(64)">
<rect x="0" y="0" width="1" height="1" fill="#FFCD51" /><rect x="1" y="0" width="1" height="1" fill="#FFC938" /><rect x="2" y="0" width="1" height="1" fill="#FFCC46" /><rect x="3" y="0" width="1" height="1" fill="#FFCC46" /><rect x="4" y="0" width="1" height="1" fill="#FFCB47" /><rect x="5" y="0" width="1" height="1" fill="#FECB47" /><rect x="6" y="0" width="1" height="1" fill="#FECB45" /><rect x="7" y="0" width="1" height="1" fill="#FFCB47" /><rect x="8" y="0" width="1" height="1" fill="#FFCB47" /><rect x="9" y="0" width="1" height="1" fill="#FDC946" /><rect x="0" y="1" width="1" height="1" fill="#FFCC46" /><rect x="1" y="1" width="1" height="1" fill="#FFC938" /><rect x="2" y="1" width="1" height="1" fill="#FFC837" /><rect x="3" y="1" width="1" height="1" fill="#FFC838" /><rect x="4" y="1" width="1" height="1" fill="#FFC836" /><rect x="5" y="1" width="1" height="1" fill="#FFC938" /><rect x="6" y="1" width="1" height="1" fill="#FFC938" /><rect x="7" y="1" width="1" height="1" fill="#FFC838" /><rect x="8" y="1" width="1" height="1" fill="#FFC836" /><rect x="9" y="1" width="1" height="1" fill="#FFC938" /><rect x="0" y="2" width="1" height="1" fill="#FFCB47" /><rect x="1" y="2" width="1" height="1" fill="#FFC938" /><rect x="2" y="2" width="1" height="1" fill="#FFC938" /><rect x="3" y="2" width="1" height="1" fill="#FFC838" /><rect x="4" y="2" width="1" height="1" fill="#FFC938" /><rect x="5" y="2" width="1" height="1" fill="#FFC938" /><rect x="6" y="2" width="1" height="1" fill="#FFC838" /><rect x="7" y="2" width="1" height="1" fill="#FFC838" /><rect x="8" y="2" width="1" height="1" fill="#FFCB37" /><rect x="9" y="2" width="1" height="1" fill="#FFC71B" /><rect x="0" y="3" width="1" height="1" fill="#FFCB47" /><rect x="1" y="3" width="1" height="1" fill="#FFC938" /><rect x="2" y="3" width="1" height="1" fill="#FFC838" /><rect x="3" y="3" width="1" height="1" fill="#FFC838" /><rect x="4" y="3" width="1" height="1" fill="#FFC838" /><rect x="5" y="3" width="1" height="1" fill="#FFC938" /><rect x="6" y="3" width="1" height="1" fill="#FFC837" /><rect x="7" y="3" width="1" height="1" fill="#FFCA36" /><rect x="8" y="3" width="1" height="1" fill="#FEC729" /><rect x="9" y="3" width="1" height="1" fill="#F7CA52" /><rect x="0" y="4" width="1" height="1" fill="#FECB45" /><rect x="1" y="4" width="1" height="1" fill="#FFC836" /><rect x="2" y="4" width="1" height="1" fill="#FFC938" /><rect x="3" y="4" width="1" height="1" fill="#FFC938" /><rect x="4" y="4" width="1" height="1" fill="#FFC838" /><rect x="5" y="4" width="1" height="1" fill="#FFC938" /><rect x="6" y="4" width="1" height="1" fill="#FFCA39" /><rect x="7" y="4" width="1" height="1" fill="#FFCC07" /><rect x="8" y="4" width="1" height="1" fill="#D8B652" /><rect x="9" y="4" width="1" height="1" fill="#D8D7C6" /><rect x="0" y="5" width="1" height="1" fill="#FFCB47" /><rect x="1" y="5" width="1" height="1" fill="#FFC837" /><rect x="2" y="5" width="1" height="1" fill="#FFC838" /><rect x="3" y="5" width="1" height="1" fill="#FFC938" /><rect x="4" y="5" width="1" height="1" fill="#FFC836" /><rect x="5" y="5" width="1" height="1" fill="#FFC836" /><rect x="6" y="5" width="1" height="1" fill="#FFCD27" /><rect x="7" y="5" width="1" height="1" fill="#A0BA5C" /><rect x="8" y="5" width="1" height="1" fill="#82AA9A" /><rect x="9" y="5" width="1" height="1" fill="#DECAA9" /><rect x="0" y="6" width="1" height="1" fill="#FFCC46" /><rect x="1" y="6" width="1" height="1" fill="#FFC838" /><rect x="2" y="6" width="1" height="1" fill="#FFCA38" /><rect x="3" y="6" width="1" height="1" fill="#FFCE39" /><rect x="4" y="6" width="1" height="1" fill="#FFC938" /><rect x="5" y="6" width="1" height="1" fill="#FFCE36" /><rect x="6" y="6" width="1" height="1" fill="#FDC327" /><rect x="7" y="6" width="1" height="1" fill="#637460" /><rect x="8" y="6" width="1" height="1" fill="#B6C1B2" /><rect x="9" y="6" width="1" height="1" fill="#FFF4C3" /><rect x="0" y="7" width="1" height="1" fill="#FFCB47" /><rect x="1" y="7" width="1" height="1" fill="#FFCA38" /><rect x="2" y="7" width="1" height="1" fill="#F8BF35" /><rect x="3" y="7" width="1" height="1" fill="#EFCB39" /><rect x="4" y="7" width="1" height="1" fill="#FFE13B" /><rect x="5" y="7" width="1" height="1" fill="#FFCB37" /><rect x="6" y="7" width="1" height="1" fill="#F4BF28" /><rect x="7" y="7" width="1" height="1" fill="#BB8B55" /><rect x="8" y="7" width="1" height="1" fill="#F3E9CE" /><rect x="9" y="7" width="1" height="1" fill="#FFFFD9" /><rect x="0" y="8" width="1" height="1" fill="#FFCB47" /><rect x="1" y="8" width="1" height="1" fill="#FFCB37" /><rect x="2" y="8" width="1" height="1" fill="#FFD13A" /><rect x="3" y="8" width="1" height="1" fill="#755E24" /><rect x="4" y="8" width="1" height="1" fill="#B6972F" /><rect x="5" y="8" width="1" height="1" fill="#FFEF41" /><rect x="6" y="8" width="1" height="1" fill="#FFD52E" /><rect x="7" y="8" width="1" height="1" fill="#EACB40" /><rect x="8" y="8" width="1" height="1" fill="#BFB68C" /><rect x="9" y="8" width="1" height="1" fill="#B5AC7E" /><rect x="0" y="9" width="1" height="1" fill="#FFCC46" /><rect x="1" y="9" width="1" height="1" fill="#FFC938" /><rect x="2" y="9" width="1" height="1" fill="#FFEA41" /><rect x="3" y="9" width="1" height="1" fill="#987A2A" /><rect x="4" y="9" width="1" height="1" fill="#000012" /><rect x="5" y="9" width="1" height="1" fill="#B49031" /><rect x="6" y="9" width="1" height="1" fill="#FFF737" /><rect x="7" y="9" width="1" height="1" fill="#B9A540" /><rect x="8" y="9" width="1" height="1" fill="#747248" /><rect x="9" y="9" width="1" height="1" fill="#938950" />
  </g>
</svg>