<svg width="800" height="1000" version="1.1" xmlns="http://www.w3.org/2000/svg" xmlns:xlink="http://www.w3.org/1999/xlink">
  <defs>
      <linearGradient id="Gradient2" x1="0" x2="1" y1="0" y2="1">
        <stop offset="0%" stop-color="#2d3c96"/>
        <stop offset="100%" stop-color="#d53392"/>
      </linearGradient>
  </defs>
  <rect x="10" y="10" width="780" height="980" fill="url(#Gradient2)" rx="50" ry="50" stroke="#ffd700" stroke-width="20"/>
  <text x="400" y="920" width="780" text-anchor="middle" style="font: bold 200px 'Helvetica Neue'; fill: #ffd700">08214</text>

  <g transform="translate(80 80) scale(64)">
<rect x="0" y="0" width="1" height="1" fill="#FEC938" /><rect x="1" y="0" width="1" height="1" fill="#FFC938" /><rect x="2" y="0" width="1" height="1" fill="#FFC739" /><rect x="3" y="0" width="1" height="1" fill="#FEC737" /><rect x="4" y="0" width="1" height="1" fill="#FFC737" /><rect x="5" y="0" width="1" height="1" fill="#FFC838" /><rect x="6" y="0" width="1" height="1" fill="#FFC838" /><rect x="7" y="0" width="1" height="1" fill="#FFC737" /><rect x="8" y="0" width="1" height="1" fill="#FFC838" /><rect x="9" y="0" width="1" height="1" fill="#FFC838" /><rect x="0" y="1" width="1" height="1" fill="#FFCB39" /><rect x="1" y="1" width="1" height="1" fill="#FFC837" /><rect x="2" y="1" width="1" height="1" fill="#FFC838" /><rect x="3" y="1" width="1" height="1" fill="#FFC837" /><rect x="4" y="1" width="1" height="1" fill="#FFC838" /><rect x="5" y="1" width="1" height="1" fill="#FFC938" /><rect x="6" y="1" width="1" height="1" fill="#FFC838" /><rect x="7" y="1" width="1" height="1" fill="#FFC938" /><rect x="8" y="1" width="1" height="1" fill="#FFC938" /><rect x="9" y="1" width="1" height="1" fill="#FFC836" /><rect x="0" y="2" width="1" height="1" fill="#FBBD0B" /><rect x="1" y="2" width="1" height="1" fill="#FFC71B" /><rect x="2" y="2" width="1" height="1" fill="#FFCB35" /><rect x="3" y="2" width="1" height="1" fill="#FFC93A" /><rect x="4" y="2" width="1" height="1" fill="#FFC938" /><rect x="5" y="2" width="1" height="1" fill="#FFC837" /><rect x="6" y="2" width="1" height="1" fill="#FFC836" /><rect x="7" y="2" width="1" height="1" fill="#FFC836" /><rect x="8" y="2" width="1" height="1" fill="#FFC938" /><rect x="9" y="2" width="1" height="1" fill="#FEC938" /><rect x="0" y="3" width="1" height="1" fill="#E9D38A" /><rect x="1" y="3" width="1" height="1" fill="#EEC450" /><rect x="2" y="3" width="1" height="1" fill="#F9C11E" /><rect x="3" y="3" width="1" height="1" fill="#FFC92E" /><rect x="4" y="3" width="1" height="1" fill="#FFC93A" /><rect x="5" y="3" width="1" height="1" fill="#FFC938" /><rect x="6" y="3" width="1" height="1" fill="#FFC838" /><rect x="7" y="3" width="1" height="1" fill="#FFC938" /><rect x="8" y="3" width="1" height="1" fill="#FFC938" /><rect x="9" y="3" width="1" height="1" fill="#FEC941" /><rect x="0" y="4" width="1" height="1" fill="#F1EDD5" /><rect x="1" y="4" width="1" height="1" fill="#EBEACB" /><rect x="2" y="4" width="1" height="1" fill="#DECC91" /><rect x="3" y="4" width="1" height="1" fill="#F7C73A" /><rect x="4" y="4" width="1" height="1" fill="#FFCB2F" /><rect x="5" y="4" width="1" height="1" fill="#FFC838" /><rect x="6" y="4" width="1" height="1" fill="#FFC836" /><rect x="7" y="4" width="1" height="1" fill="#FFC838" /><rect x="8" y="4" width="1" height="1" fill="#FFC938" /><rect x="9" y="4" width="1" height="1" fill="#FECA40" /><rect x="0" y="5" width="1" height="1" fill="#E2D8AD" /><rect x="1" y="5" width="1" height="1" fill="#E7E0B6" /><rect x="2" y="5" width="1" height="1" fill="#BFC2B5" /><rect x="3" y="5" width="1" height="1" fill="#E4BB5F" /><rect x="4" y="5" width="1" height="1" fill="#FFC71E" /><rect x="5" y="5" width="1" height="1" fill="#FFC836" /><rect x="6" y="5" width="1" height="1" fill="#FFC838" /><rect x="7" y="5" width="1" height="1" fill="#FFC838" /><rect x="8" y="5" width="1" height="1" fill="#FFC838" /><rect x="9" y="5" width="1" height="1" fill="#FEC941" /><rect x="0" y="6" width="1" height="1" fill="#F9EDC2" /><rect x="1" y="6" width="1" height="1" fill="#DFD4AD" /><rect x="2" y="6" width="1" height="1" fill="#C7C7B2" /><rect x="3" y="6" width="1" height="1" fill="#BD9D64" /><rect x="4" y="6" width="1" height="1" fill="#F9BB17" /><rect x="5" y="6" width="1" height="1" fill="#FFCB37" /><rect x="6" y="6" width="1" height="1" fill="#FFCC38" /><rect x="7" y="6" width="1" height="1" fill="#FFCE39" /><rect x="8" y="6" width="1" height="1" fill="#FFC739" /><rect x="9" y="6" width="1" height="1" fill="#FBC73B" /><rect x="0" y="7" width="1" height="1" fill="#FBEFC9" /><rect x="1" y="7" width="1" height="1" fill="#D4CBAB" /><rect x="2" y="7" width="1" height="1" fill="#FDF9DE" /><rect x="3" y="7" width="1" height="1" fill="#CFC385" /><rect x="4" y="7" width="1" height="1" fill="#DEAB1A" /><rect x="5" y="7" width="1" height="1" fill="#FFD539" /><rect x="6" y="7" width="1" height="1" fill="#F8DB3B" /><rect x="7" y="7" width="1" height="1" fill="#F0BD35" /><rect x="8" y="7" width="1" height="1" fill="#FFCB39" /><rect x="9" y="7" width="1" height="1" fill="#FECA3F" /><rect x="0" y="8" width="1" height="1" fill="#A39C65" /><rect x="1" y="8" width="1" height="1" fill="#B5AC7D" /><rect x="2" y="8" width="1" height="1" fill="#E3DDB7" /><rect x="3" y="8" width="1" height="1" fill="#D3C093" /><rect x="4" y="8" width="1" height="1" fill="#EDC82B" /><rect x="5" y="8" width="1" height="1" fill="#FFED3C" /><rect x="6" y="8" width="1" height="1" fill="#7C6226" /><rect x="7" y="8" width="1" height="1" fill="#B38F2D" /><rect x="8" y="8" width="1" height="1" fill="#FFDD3D" /><rect x="9" y="8" width="1" height="1" fill="#FBC73B" /><rect x="0" y="9" width="1" height="1" fill="#9C925A" /><rect x="1" y="9" width="1" height="1" fill="#8F884A" /><rect x="2" y="9" width="1" height="1" fill="#837D46" /><rect x="3" y="9" width="1" height="1" fill="#AD9E5A" /><rect x="4" y="9" width="1" height="1" fill="#F7C437" /><rect x="5" y="9" width="1" height="1" fill="#514221" /><rect x="6" y="9" width="1" height="1" fill="#15151A" /><rect x="7" y="9" width="1" height="1" fill="#FECB37" /><rect x="8" y="9" width="1" height="1" fill="#FFD23A" /><rect x="9" y="9" width="1" height="1" fill="#FBC63A" />
  </g>
</svg>