<svg width="800" height="1000" xmlns="http://www.w3.org/2000/svg"><defs><linearGradient id="g" x1="0" x2="1" y1="0" y2="1"><stop offset="0%" stop-color="#2d3c96"/><stop offset="100%" stop-color="#d53392"/></linearGradient></defs><rect x="10" y="10" width="780" height="980" fill="url(#g)" rx="50" ry="50" stroke="gold" stroke-width="20"/><text x="400" y="920" width="780" text-anchor="middle" style="font:bold 200px 'Helvetica Neue';fill:gold">08213</text><g transform="translate(80 80) scale(64)"><rect x="0" y="0" width="1" height="1" fill="#ffc838" /><rect x="0" y="1" width="1" height="1" fill="#ffcb39" /><rect x="0" y="2" width="1" height="1" fill="#fcc010" /><rect x="0" y="3" width="1" height="1" fill="#dcc581" /><rect x="0" y="4" width="1" height="1" fill="#e9e5cf" /><rect x="0" y="5" width="1" height="1" fill="#f3eabc" /><rect x="0" y="6" width="1" height="1" fill="#fcf3c5" /><rect x="0" y="7" width="1" height="1" fill="#fbf0c7" /><rect x="0" y="8" width="1" height="1" fill="#a79d66" /><rect x="0" y="9" width="1" height="1" fill="#9f9760" /><rect x="1" y="0" width="1" height="1" fill="#ffc838" /><rect x="1" y="1" width="1" height="1" fill="#ffc91f" /><rect x="1" y="2" width="1" height="1" fill="#f2c650" /><rect x="1" y="3" width="1" height="1" fill="#ccc8b0" /><rect x="1" y="4" width="1" height="1" fill="#d6cca9" /><rect x="1" y="5" width="1" height="1" fill="#f4e8bc" /><rect x="1" y="6" width="1" height="1" fill="#fffdcb" /><rect x="1" y="7" width="1" height="1" fill="#f5eac1" /><rect x="1" y="8" width="1" height="1" fill="#9c925a" /><rect x="1" y="9" width="1" height="1" fill="#aca26a" /><rect x="2" y="0" width="1" height="1" fill="#ffc938" /><rect x="2" y="1" width="1" height="1" fill="#f9be17" /><rect x="2" y="2" width="1" height="1" fill="#e8d28e" /><rect x="2" y="3" width="1" height="1" fill="#ffffe6" /><rect x="2" y="4" width="1" height="1" fill="#ddd1a9" /><rect x="2" y="5" width="1" height="1" fill="#cac3a1" /><rect x="2" y="6" width="1" height="1" fill="#d0bda9" /><rect x="2" y="7" width="1" height="1" fill="#e2d3ac" /><rect x="2" y="8" width="1" height="1" fill="#9b9456" /><rect x="2" y="9" width="1" height="1" fill="#b3a973" /><rect x="3" y="0" width="1" height="1" fill="#ffca34" /><rect x="3" y="1" width="1" height="1" fill="#f2b829" /><rect x="3" y="2" width="1" height="1" fill="#faeeb4" /><rect x="3" y="3" width="1" height="1" fill="#ffffd8" /><rect x="3" y="4" width="1" height="1" fill="#ded1aa" /><rect x="3" y="5" width="1" height="1" fill="#f3f4c4" /><rect x="3" y="6" width="1" height="1" fill="#d0c3ae" /><rect x="3" y="7" width="1" height="1" fill="#dfcda7" /><rect x="3" y="8" width="1" height="1" fill="#968f50" /><rect x="3" y="9" width="1" height="1" fill="#bab07e" /><rect x="4" y="0" width="1" height="1" fill="#ffca34" /><rect x="4" y="1" width="1" height="1" fill="#fed63e" /><rect x="4" y="2" width="1" height="1" fill="#9e8b75" /><rect x="4" y="3" width="1" height="1" fill="#b0a9a2" /><rect x="4" y="4" width="1" height="1" fill="#e2dbb5" /><rect x="4" y="5" width="1" height="1" fill="#c79286" /><rect x="4" y="6" width="1" height="1" fill="#fbe4c0" /><rect x="4" y="7" width="1" height="1" fill="#edebba" /><rect x="4" y="8" width="1" height="1" fill="#8c8248" /><rect x="4" y="9" width="1" height="1" fill="#c0b583" /><rect x="5" y="0" width="1" height="1" fill="#ffcb35" /><rect x="5" y="1" width="1" height="1" fill="#fdd236" /><rect x="5" y="2" width="1" height="1" fill="#ac9978" /><rect x="5" y="3" width="1" height="1" fill="#a99f9a" /><rect x="5" y="4" width="1" height="1" fill="#f1edc1" /><rect x="5" y="5" width="1" height="1" fill="#e7c9ad" /><rect x="5" y="6" width="1" height="1" fill="#fdebc6" /><rect x="5" y="7" width="1" height="1" fill="#e4deaf" /><rect x="5" y="8" width="1" height="1" fill="#898145" /><rect x="5" y="9" width="1" height="1" fill="#c0b885" /><rect x="6" y="0" width="1" height="1" fill="#ffca36" /><rect x="6" y="1" width="1" height="1" fill="#fabe20" /><rect x="6" y="2" width="1" height="1" fill="#f2de9b" /><rect x="6" y="3" width="1" height="1" fill="#e2dec0" /><rect x="6" y="4" width="1" height="1" fill="#dcd2aa" /><rect x="6" y="5" width="1" height="1" fill="#fffecd" /><rect x="6" y="6" width="1" height="1" fill="#f2edc3" /><rect x="6" y="7" width="1" height="1" fill="#e2d6ad" /><rect x="6" y="8" width="1" height="1" fill="#8d8448" /><rect x="6" y="9" width="1" height="1" fill="#c0b683" /><rect x="7" y="0" width="1" height="1" fill="#ffc739" /><rect x="7" y="1" width="1" height="1" fill="#febf10" /><rect x="7" y="2" width="1" height="1" fill="#e7ce80" /><rect x="7" y="3" width="1" height="1" fill="#fcfade" /><rect x="7" y="4" width="1" height="1" fill="#ebe1b7" /><rect x="7" y="5" width="1" height="1" fill="#c8be98" /><rect x="7" y="6" width="1" height="1" fill="#e0d5b3" /><rect x="7" y="7" width="1" height="1" fill="#e5d9b2" /><rect x="7" y="8" width="1" height="1" fill="#92894c" /><rect x="7" y="9" width="1" height="1" fill="#bcb17f" /><rect x="8" y="0" width="1" height="1" fill="#fec739" /><rect x="8" y="1" width="1" height="1" fill="#ffc512" /><rect x="8" y="2" width="1" height="1" fill="#ebc96a" /><rect x="8" y="3" width="1" height="1" fill="#f5f4db" /><rect x="8" y="4" width="1" height="1" fill="#e8ddb1" /><rect x="8" y="5" width="1" height="1" fill="#d8cea7" /><rect x="8" y="6" width="1" height="1" fill="#e7e2ac" /><rect x="8" y="7" width="1" height="1" fill="#d6cda0" /><rect x="8" y="8" width="1" height="1" fill="#9c9259" /><rect x="8" y="9" width="1" height="1" fill="#b3a974" /><rect x="9" y="0" width="1" height="1" fill="#ffc739" /><rect x="9" y="1" width="1" height="1" fill="#ffc927" /><rect x="9" y="2" width="1" height="1" fill="#efc243" /><rect x="9" y="3" width="1" height="1" fill="#e2dcb8" /><rect x="9" y="4" width="1" height="1" fill="#f6edc5" /><rect x="9" y="5" width="1" height="1" fill="#eee2bc" /><rect x="9" y="6" width="1" height="1" fill="#b8b875" /><rect x="9" y="7" width="1" height="1" fill="#e8e3a7" /><rect x="9" y="8" width="1" height="1" fill="#aa9f6b" /><rect x="9" y="9" width="1" height="1" fill="#a79d66" /></g></svg>