<svg width="800" height="1000" version="1.1" xmlns="http://www.w3.org/2000/svg" xmlns:xlink="http://www.w3.org/1999/xlink">
  <defs>
      <linearGradient id="Gradient2" x1="0" x2="1" y1="0" y2="1">
        <stop offset="0%" stop-color="#2d3c96"/>
        <stop offset="100%" stop-color="#d53392"/>
      </linearGradient>
  </defs>
  <rect x="10" y="10" width="780" height="980" fill="url(#Gradient2)" rx="50" ry="50" stroke="#ffd700" stroke-width="20"/>
  <text x="400" y="920" width="780" text-anchor="middle" style="font: bold 200px 'Helvetica Neue'; fill: #ffd700">08314</text>

  <g transform="translate(80 80) scale(64)">
<rect x="0" y="0" width="1" height="1" fill="#F3EAC9" /><rect x="1" y="0" width="1" height="1" fill="#FCF0C1" /><rect x="2" y="0" width="1" height="1" fill="#FFF7C0" /><rect x="3" y="0" width="1" height="1" fill="#9D9463" /><rect x="4" y="0" width="1" height="1" fill="#1E1D16" /><rect x="5" y="0" width="1" height="1" fill="#000009" /><rect x="6" y="0" width="1" height="1" fill="#977E2B" /><rect x="7" y="0" width="1" height="1" fill="#FFED41" /><rect x="8" y="0" width="1" height="1" fill="#FFC637" /><rect x="9" y="0" width="1" height="1" fill="#FFCA42" /><rect x="0" y="1" width="1" height="1" fill="#FFFFC9" /><rect x="1" y="1" width="1" height="1" fill="#FFFDCE" /><rect x="2" y="1" width="1" height="1" fill="#8B8474" /><rect x="3" y="1" width="1" height="1" fill="#0D111F" /><rect x="4" y="1" width="1" height="1" fill="#000010" /><rect x="5" y="1" width="1" height="1" fill="#262624" /><rect x="6" y="1" width="1" height="1" fill="#F5C829" /><rect x="7" y="1" width="1" height="1" fill="#FFDB30" /><rect x="8" y="1" width="1" height="1" fill="#FFCA3B" /><rect x="9" y="1" width="1" height="1" fill="#FFC83F" /><rect x="0" y="2" width="1" height="1" fill="#B79737" /><rect x="1" y="2" width="1" height="1" fill="#22242B" /><rect x="2" y="2" width="1" height="1" fill="#000001" /><rect x="3" y="2" width="1" height="1" fill="#141518" /><rect x="4" y="2" width="1" height="1" fill="#00000A" /><rect x="5" y="2" width="1" height="1" fill="#767164" /><rect x="6" y="2" width="1" height="1" fill="#FFEE9D" /><rect x="7" y="2" width="1" height="1" fill="#E1B541" /><rect x="8" y="2" width="1" height="1" fill="#FEC52E" /><rect x="9" y="2" width="1" height="1" fill="#FFCC37" /><rect x="0" y="3" width="1" height="1" fill="#00000C" /><rect x="1" y="3" width="1" height="1" fill="#000211" /><rect x="2" y="3" width="1" height="1" fill="#1F2022" /><rect x="3" y="3" width="1" height="1" fill="#0B101F" /><rect x="4" y="3" width="1" height="1" fill="#151618" /><rect x="5" y="3" width="1" height="1" fill="#E4BD42" /><rect x="6" y="3" width="1" height="1" fill="#FFDB65" /><rect x="7" y="3" width="1" height="1" fill="#E1B84A" /><rect x="8" y="3" width="1" height="1" fill="#FAC330" /><rect x="9" y="3" width="1" height="1" fill="#FAC536" /><rect x="0" y="4" width="1" height="1" fill="#0E1219" /><rect x="1" y="4" width="1" height="1" fill="#202123" /><rect x="2" y="4" width="1" height="1" fill="#1E1F23" /><rect x="3" y="4" width="1" height="1" fill="#000009" /><rect x="4" y="4" width="1" height="1" fill="#7F6E14" /><rect x="5" y="4" width="1" height="1" fill="#FFF23A" /><rect x="6" y="4" width="1" height="1" fill="#FFC825" /><rect x="7" y="4" width="1" height="1" fill="#FFCD30" /><rect x="8" y="4" width="1" height="1" fill="#FFCA39" /><rect x="9" y="4" width="1" height="1" fill="#F2BE36" /><rect x="0" y="5" width="1" height="1" fill="#3F4042" /><rect x="1" y="5" width="1" height="1" fill="#111215" /><rect x="2" y="5" width="1" height="1" fill="#00020C" /><rect x="3" y="5" width="1" height="1" fill="#342E37" /><rect x="4" y="5" width="1" height="1" fill="#FACE71" /><rect x="5" y="5" width="1" height="1" fill="#FFD334" /><rect x="6" y="5" width="1" height="1" fill="#FFC836" /><rect x="7" y="5" width="1" height="1" fill="#FFC938" /><rect x="8" y="5" width="1" height="1" fill="#FFC938" /><rect x="9" y="5" width="1" height="1" fill="#FAC63F" /><rect x="0" y="6" width="1" height="1" fill="#212326" /><rect x="1" y="6" width="1" height="1" fill="#07070A" /><rect x="2" y="6" width="1" height="1" fill="#020000" /><rect x="3" y="6" width="1" height="1" fill="#C2A5AB" /><rect x="4" y="6" width="1" height="1" fill="#FFD5C1" /><rect x="5" y="6" width="1" height="1" fill="#F3BF2A" /><rect x="6" y="6" width="1" height="1" fill="#FFCB31" /><rect x="7" y="6" width="1" height="1" fill="#FFC938" /><rect x="8" y="6" width="1" height="1" fill="#FFC938" /><rect x="9" y="6" width="1" height="1" fill="#FAC63F" /><rect x="0" y="7" width="1" height="1" fill="#0A0C0F" /><rect x="1" y="7" width="1" height="1" fill="#000000" /><rect x="2" y="7" width="1" height="1" fill="#627589" /><rect x="3" y="7" width="1" height="1" fill="#F1D2DB" /><rect x="4" y="7" width="1" height="1" fill="#EEBD62" /><rect x="5" y="7" width="1" height="1" fill="#FFCA1C" /><rect x="6" y="7" width="1" height="1" fill="#FFC838" /><rect x="7" y="7" width="1" height="1" fill="#FFC837" /><rect x="8" y="7" width="1" height="1" fill="#FFC938" /><rect x="9" y="7" width="1" height="1" fill="#F3BF36" /><rect x="0" y="8" width="1" height="1" fill="#070201" /><rect x="1" y="8" width="1" height="1" fill="#527C98" /><rect x="2" y="8" width="1" height="1" fill="#A2DFFF" /><rect x="3" y="8" width="1" height="1" fill="#E4BBAB" /><rect x="4" y="8" width="1" height="1" fill="#FCC53A" /><rect x="5" y="8" width="1" height="1" fill="#FFCC2A" /><rect x="6" y="8" width="1" height="1" fill="#FFC838" /><rect x="7" y="8" width="1" height="1" fill="#FFC938" /><rect x="8" y="8" width="1" height="1" fill="#FFC837" /><rect x="9" y="8" width="1" height="1" fill="#F2BF36" /><rect x="0" y="9" width="1" height="1" fill="#C8A293" /><rect x="1" y="9" width="1" height="1" fill="#9ADCF6" /><rect x="2" y="9" width="1" height="1" fill="#95CDFE" /><rect x="3" y="9" width="1" height="1" fill="#E2B3B0" /><rect x="4" y="9" width="1" height="1" fill="#F6C13F" /><rect x="5" y="9" width="1" height="1" fill="#FFCC2A" /><rect x="6" y="9" width="1" height="1" fill="#FFC837" /><rect x="7" y="9" width="1" height="1" fill="#FFC837" /><rect x="8" y="9" width="1" height="1" fill="#FFC938" /><rect x="9" y="9" width="1" height="1" fill="#FCC73E" />
  </g>
</svg>