<svg width="800" height="1000" version="1.1" xmlns="http://www.w3.org/2000/svg" xmlns:xlink="http://www.w3.org/1999/xlink">
  <defs>
      <linearGradient id="Gradient2" x1="0" x2="1" y1="0" y2="1">
        <stop offset="0%" stop-color="#2d3c96"/>
        <stop offset="100%" stop-color="#d53392"/>
      </linearGradient>
  </defs>
  <rect x="10" y="10" width="780" height="980" fill="url(#Gradient2)" rx="50" ry="50" stroke="#ffd700" stroke-width="20"/>
  <text x="400" y="920" width="780" text-anchor="middle" style="font: bold 200px 'Helvetica Neue'; fill: #ffd700">08313</text>

  <g transform="translate(80 80) scale(64)">
<rect x="0" y="0" width="1" height="1" fill="#F7F1D3" /><rect x="1" y="0" width="1" height="1" fill="#FFF9E1" /><rect x="2" y="0" width="1" height="1" fill="#FFF9E5" /><rect x="3" y="0" width="1" height="1" fill="#FCFAE3" /><rect x="4" y="0" width="1" height="1" fill="#FFFFE3" /><rect x="5" y="0" width="1" height="1" fill="#FFFFE7" /><rect x="6" y="0" width="1" height="1" fill="#FFFFEB" /><rect x="7" y="0" width="1" height="1" fill="#FFFEE6" /><rect x="8" y="0" width="1" height="1" fill="#FFFBE3" /><rect x="9" y="0" width="1" height="1" fill="#FEF7DC" /><rect x="0" y="1" width="1" height="1" fill="#FCF5AF" /><rect x="1" y="1" width="1" height="1" fill="#EBD38E" /><rect x="2" y="1" width="1" height="1" fill="#F3DA7C" /><rect x="3" y="1" width="1" height="1" fill="#D8B46C" /><rect x="4" y="1" width="1" height="1" fill="#BC8F60" /><rect x="5" y="1" width="1" height="1" fill="#CFAF68" /><rect x="6" y="1" width="1" height="1" fill="#BE9571" /><rect x="7" y="1" width="1" height="1" fill="#F0DA81" /><rect x="8" y="1" width="1" height="1" fill="#EAD28B" /><rect x="9" y="1" width="1" height="1" fill="#F1DD9B" /><rect x="0" y="2" width="1" height="1" fill="#EFC31F" /><rect x="1" y="2" width="1" height="1" fill="#FFE60D" /><rect x="2" y="2" width="1" height="1" fill="#FFCA00" /><rect x="3" y="2" width="1" height="1" fill="#FDCA00" /><rect x="4" y="2" width="1" height="1" fill="#A23C0F" /><rect x="5" y="2" width="1" height="1" fill="#750006" /><rect x="6" y="2" width="1" height="1" fill="#B86D00" /><rect x="7" y="2" width="1" height="1" fill="#FFDC00" /><rect x="8" y="2" width="1" height="1" fill="#FFD209" /><rect x="9" y="2" width="1" height="1" fill="#FFE410" /><rect x="0" y="3" width="1" height="1" fill="#201C19" /><rect x="1" y="3" width="1" height="1" fill="#C6A227" /><rect x="2" y="3" width="1" height="1" fill="#FFF333" /><rect x="3" y="3" width="1" height="1" fill="#FFEF30" /><rect x="4" y="3" width="1" height="1" fill="#C3702D" /><rect x="5" y="3" width="1" height="1" fill="#8C1227" /><rect x="6" y="3" width="1" height="1" fill="#EDB72D" /><rect x="7" y="3" width="1" height="1" fill="#FFF733" /><rect x="8" y="3" width="1" height="1" fill="#FFE12F" /><rect x="9" y="3" width="1" height="1" fill="#7E6321" /><rect x="0" y="4" width="1" height="1" fill="#00020C" /><rect x="1" y="4" width="1" height="1" fill="#000000" /><rect x="2" y="4" width="1" height="1" fill="#8A6D1B" /><rect x="3" y="4" width="1" height="1" fill="#FFEF35" /><rect x="4" y="4" width="1" height="1" fill="#FFDD31" /><rect x="5" y="4" width="1" height="1" fill="#F8CD2B" /><rect x="6" y="4" width="1" height="1" fill="#FFF337" /><rect x="7" y="4" width="1" height="1" fill="#F4CD2C" /><rect x="8" y="4" width="1" height="1" fill="#332409" /><rect x="9" y="4" width="1" height="1" fill="#000000" /><rect x="0" y="5" width="1" height="1" fill="#6C6D6D" /><rect x="1" y="5" width="1" height="1" fill="#7C7E8B" /><rect x="2" y="5" width="1" height="1" fill="#000730" /><rect x="3" y="5" width="1" height="1" fill="#78611F" /><rect x="4" y="5" width="1" height="1" fill="#FFEC30" /><rect x="5" y="5" width="1" height="1" fill="#FFF636" /><rect x="6" y="5" width="1" height="1" fill="#ECC829" /><rect x="7" y="5" width="1" height="1" fill="#221C1A" /><rect x="8" y="5" width="1" height="1" fill="#2A3455" /><rect x="9" y="5" width="1" height="1" fill="#929294" /><rect x="0" y="6" width="1" height="1" fill="#47474B" /><rect x="1" y="6" width="1" height="1" fill="#BEBEBD" /><rect x="2" y="6" width="1" height="1" fill="#94969E" /><rect x="3" y="6" width="1" height="1" fill="#000015" /><rect x="4" y="6" width="1" height="1" fill="#826700" /><rect x="5" y="6" width="1" height="1" fill="#FFD200" /><rect x="6" y="6" width="1" height="1" fill="#0F0A00" /><rect x="7" y="6" width="1" height="1" fill="#242B4C" /><rect x="8" y="6" width="1" height="1" fill="#C7C8C7" /><rect x="9" y="6" width="1" height="1" fill="#8E8E8F" /><rect x="0" y="7" width="1" height="1" fill="#090D11" /><rect x="1" y="7" width="1" height="1" fill="#000000" /><rect x="2" y="7" width="1" height="1" fill="#000001" /><rect x="3" y="7" width="1" height="1" fill="#00000D" /><rect x="4" y="7" width="1" height="1" fill="#796758" /><rect x="5" y="7" width="1" height="1" fill="#D4AF78" /><rect x="6" y="7" width="1" height="1" fill="#1F2036" /><rect x="7" y="7" width="1" height="1" fill="#000001" /><rect x="8" y="7" width="1" height="1" fill="#000001" /><rect x="9" y="7" width="1" height="1" fill="#020202" /><rect x="0" y="8" width="1" height="1" fill="#000000" /><rect x="1" y="8" width="1" height="1" fill="#00050B" /><rect x="2" y="8" width="1" height="1" fill="#48403F" /><rect x="3" y="8" width="1" height="1" fill="#CDA99C" /><rect x="4" y="8" width="1" height="1" fill="#FFE7DF" /><rect x="5" y="8" width="1" height="1" fill="#FFE7E4" /><rect x="6" y="8" width="1" height="1" fill="#FFDECD" /><rect x="7" y="8" width="1" height="1" fill="#917771" /><rect x="8" y="8" width="1" height="1" fill="#212123" /><rect x="9" y="8" width="1" height="1" fill="#000000" /><rect x="0" y="9" width="1" height="1" fill="#CB988B" /><rect x="1" y="9" width="1" height="1" fill="#D7ADA6" /><rect x="2" y="9" width="1" height="1" fill="#FFF3E6" /><rect x="3" y="9" width="1" height="1" fill="#FBE8DE" /><rect x="4" y="9" width="1" height="1" fill="#F9C9C1" /><rect x="5" y="9" width="1" height="1" fill="#FFD7CB" /><rect x="6" y="9" width="1" height="1" fill="#F7D3C6" /><rect x="7" y="9" width="1" height="1" fill="#FFFAEC" /><rect x="8" y="9" width="1" height="1" fill="#F6D3C5" /><rect x="9" y="9" width="1" height="1" fill="#C39C91" />
  </g>
</svg>