<svg width="800" height="1000" version="1.1" xmlns="http://www.w3.org/2000/svg" xmlns:xlink="http://www.w3.org/1999/xlink">
  <defs>
      <linearGradient id="Gradient2" x1="0" x2="1" y1="0" y2="1">
        <stop offset="0%" stop-color="#2d3c96"/>
        <stop offset="100%" stop-color="#d53392"/>
      </linearGradient>
  </defs>
  <rect x="10" y="10" width="780" height="980" fill="url(#Gradient2)" rx="50" ry="50" stroke="#ffd700" stroke-width="20"/>
  <text x="400" y="920" width="780" text-anchor="middle" style="font: bold 200px 'Helvetica Neue'; fill: #ffd700">08312</text>

  <g transform="translate(80 80) scale(64)">
<rect x="0" y="0" width="1" height="1" fill="#FFC838" /><rect x="1" y="0" width="1" height="1" fill="#FFC836" /><rect x="2" y="0" width="1" height="1" fill="#FFCF3B" /><rect x="3" y="0" width="1" height="1" fill="#FFDF30" /><rect x="4" y="0" width="1" height="1" fill="#322811" /><rect x="5" y="0" width="1" height="1" fill="#00000D" /><rect x="6" y="0" width="1" height="1" fill="#6D5A24" /><rect x="7" y="0" width="1" height="1" fill="#E7D89C" /><rect x="8" y="0" width="1" height="1" fill="#FFFFD1" /><rect x="9" y="0" width="1" height="1" fill="#F6EBC2" /><rect x="0" y="1" width="1" height="1" fill="#FFC938" /><rect x="1" y="1" width="1" height="1" fill="#FFC936" /><rect x="2" y="1" width="1" height="1" fill="#FDC532" /><rect x="3" y="1" width="1" height="1" fill="#FFEB5C" /><rect x="4" y="1" width="1" height="1" fill="#968C5D" /><rect x="5" y="1" width="1" height="1" fill="#000016" /><rect x="6" y="1" width="1" height="1" fill="#000013" /><rect x="7" y="1" width="1" height="1" fill="#33353C" /><rect x="8" y="1" width="1" height="1" fill="#C9C0A1" /><rect x="9" y="1" width="1" height="1" fill="#FFFFD4" /><rect x="0" y="2" width="1" height="1" fill="#FFC836" /><rect x="1" y="2" width="1" height="1" fill="#FFC72F" /><rect x="2" y="2" width="1" height="1" fill="#E2B53B" /><rect x="3" y="2" width="1" height="1" fill="#EACD7D" /><rect x="4" y="2" width="1" height="1" fill="#E8D087" /><rect x="5" y="2" width="1" height="1" fill="#282723" /><rect x="6" y="2" width="1" height="1" fill="#080C1B" /><rect x="7" y="2" width="1" height="1" fill="#02020A" /><rect x="8" y="2" width="1" height="1" fill="#00000F" /><rect x="9" y="2" width="1" height="1" fill="#5A5032" /><rect x="0" y="3" width="1" height="1" fill="#FEC93D" /><rect x="1" y="3" width="1" height="1" fill="#FEC737" /><rect x="2" y="3" width="1" height="1" fill="#FBC63B" /><rect x="3" y="3" width="1" height="1" fill="#FFC52E" /><rect x="4" y="3" width="1" height="1" fill="#FFE726" /><rect x="5" y="3" width="1" height="1" fill="#87742C" /><rect x="6" y="3" width="1" height="1" fill="#000017" /><rect x="7" y="3" width="1" height="1" fill="#212223" /><rect x="8" y="3" width="1" height="1" fill="#16171B" /><rect x="9" y="3" width="1" height="1" fill="#00000D" /><rect x="0" y="4" width="1" height="1" fill="#FFCC43" /><rect x="1" y="4" width="1" height="1" fill="#FFC938" /><rect x="2" y="4" width="1" height="1" fill="#FFC938" /><rect x="3" y="4" width="1" height="1" fill="#FFC936" /><rect x="4" y="4" width="1" height="1" fill="#FFD940" /><rect x="5" y="4" width="1" height="1" fill="#F9CD2D" /><rect x="6" y="4" width="1" height="1" fill="#25210B" /><rect x="7" y="4" width="1" height="1" fill="#00061A" /><rect x="8" y="4" width="1" height="1" fill="#202022" /><rect x="9" y="4" width="1" height="1" fill="#1E1F24" /><rect x="0" y="5" width="1" height="1" fill="#FDC620" /><rect x="1" y="5" width="1" height="1" fill="#FEC91A" /><rect x="2" y="5" width="1" height="1" fill="#FFCA39" /><rect x="3" y="5" width="1" height="1" fill="#FFC83A" /><rect x="4" y="5" width="1" height="1" fill="#FFC82E" /><rect x="5" y="5" width="1" height="1" fill="#FFE450" /><rect x="6" y="5" width="1" height="1" fill="#AD9060" /><rect x="7" y="5" width="1" height="1" fill="#00000F" /><rect x="8" y="5" width="1" height="1" fill="#141518" /><rect x="9" y="5" width="1" height="1" fill="#141619" /><rect x="0" y="6" width="1" height="1" fill="#EDC28F" /><rect x="1" y="6" width="1" height="1" fill="#EDBE58" /><rect x="2" y="6" width="1" height="1" fill="#FBC620" /><rect x="3" y="6" width="1" height="1" fill="#FFCA39" /><rect x="4" y="6" width="1" height="1" fill="#FFCB13" /><rect x="5" y="6" width="1" height="1" fill="#EEC066" /><rect x="6" y="6" width="1" height="1" fill="#FFDAE9" /><rect x="7" y="6" width="1" height="1" fill="#64524D" /><rect x="8" y="6" width="1" height="1" fill="#000000" /><rect x="9" y="6" width="1" height="1" fill="#101215" /><rect x="0" y="7" width="1" height="1" fill="#E0BDC7" /><rect x="1" y="7" width="1" height="1" fill="#F9CFDB" /><rect x="2" y="7" width="1" height="1" fill="#ECBD47" /><rect x="3" y="7" width="1" height="1" fill="#FFCB1E" /><rect x="4" y="7" width="1" height="1" fill="#FFCA32" /><rect x="5" y="7" width="1" height="1" fill="#F6C226" /><rect x="6" y="7" width="1" height="1" fill="#FAC695" /><rect x="7" y="7" width="1" height="1" fill="#D0C6D7" /><rect x="8" y="7" width="1" height="1" fill="#172C39" /><rect x="9" y="7" width="1" height="1" fill="#000000" /><rect x="0" y="8" width="1" height="1" fill="#E0B67B" /><rect x="1" y="8" width="1" height="1" fill="#FFD8FA" /><rect x="2" y="8" width="1" height="1" fill="#E8BF82" /><rect x="3" y="8" width="1" height="1" fill="#FBC301" /><rect x="4" y="8" width="1" height="1" fill="#FFC93A" /><rect x="5" y="8" width="1" height="1" fill="#FFCA00" /><rect x="6" y="8" width="1" height="1" fill="#F9BF5A" /><rect x="7" y="8" width="1" height="1" fill="#D7D1E5" /><rect x="8" y="8" width="1" height="1" fill="#7CC3E9" /><rect x="9" y="8" width="1" height="1" fill="#2D3743" /><rect x="0" y="9" width="1" height="1" fill="#EBC06D" /><rect x="1" y="9" width="1" height="1" fill="#FFD5EF" /><rect x="2" y="9" width="1" height="1" fill="#ECC6A1" /><rect x="3" y="9" width="1" height="1" fill="#F4C022" /><rect x="4" y="9" width="1" height="1" fill="#FFCB35" /><rect x="5" y="9" width="1" height="1" fill="#FFCA10" /><rect x="6" y="9" width="1" height="1" fill="#F9C06B" /><rect x="7" y="9" width="1" height="1" fill="#C9B3D5" /><rect x="8" y="9" width="1" height="1" fill="#7CD8FF" /><rect x="9" y="9" width="1" height="1" fill="#B6C8CF" />
  </g>
</svg>