<svg width="800" height="1000" version="1.1" xmlns="http://www.w3.org/2000/svg" xmlns:xlink="http://www.w3.org/1999/xlink">
  <defs>
      <linearGradient id="Gradient2" x1="0" x2="1" y1="0" y2="1">
        <stop offset="0%" stop-color="#2d3c96"/>
        <stop offset="100%" stop-color="#d53392"/>
      </linearGradient>
  </defs>
  <rect x="10" y="10" width="780" height="980" fill="url(#Gradient2)" rx="50" ry="50" stroke="#ffd700" stroke-width="20"/>
  <text x="400" y="920" width="780" text-anchor="middle" style="font: bold 200px 'Helvetica Neue'; fill: #ffd700">08314</text>

  <g transform="translate(80 80) scale(64)">
<rect x="0" y="0" width="1" height="1" fill="#f3eac9" />
,<rect x="0" y="1" width="1" height="1" fill="#ffffc9" />
,<rect x="0" y="2" width="1" height="1" fill="#b79737" />
,<rect x="0" y="3" width="1" height="1" fill="#00000c" />
,<rect x="0" y="4" width="1" height="1" fill="#0e1219" />
,<rect x="0" y="5" width="1" height="1" fill="#3f4042" />
,<rect x="0" y="6" width="1" height="1" fill="#212326" />
,<rect x="0" y="7" width="1" height="1" fill="#0a0c0f" />
,<rect x="0" y="8" width="1" height="1" fill="#070201" />
,<rect x="0" y="9" width="1" height="1" fill="#c8a293" />
,<rect x="1" y="0" width="1" height="1" fill="#fcf0c1" />
,<rect x="1" y="1" width="1" height="1" fill="#fffdce" />
,<rect x="1" y="2" width="1" height="1" fill="#22242b" />
,<rect x="1" y="3" width="1" height="1" fill="#000211" />
,<rect x="1" y="4" width="1" height="1" fill="#202123" />
,<rect x="1" y="5" width="1" height="1" fill="#111215" />
,<rect x="1" y="6" width="1" height="1" fill="#07070a" />
,<rect x="1" y="7" width="1" height="1" fill="#000000" />
,<rect x="1" y="8" width="1" height="1" fill="#527c98" />
,<rect x="1" y="9" width="1" height="1" fill="#9adcf6" />
,<rect x="2" y="0" width="1" height="1" fill="#fff7c0" />
,<rect x="2" y="1" width="1" height="1" fill="#8b8474" />
,<rect x="2" y="2" width="1" height="1" fill="#000001" />
,<rect x="2" y="3" width="1" height="1" fill="#1f2022" />
,<rect x="2" y="4" width="1" height="1" fill="#1e1f23" />
,<rect x="2" y="5" width="1" height="1" fill="#00020c" />
,<rect x="2" y="6" width="1" height="1" fill="#020000" />
,<rect x="2" y="7" width="1" height="1" fill="#627589" />
,<rect x="2" y="8" width="1" height="1" fill="#a2dfff" />
,<rect x="2" y="9" width="1" height="1" fill="#95cdfe" />
,<rect x="3" y="0" width="1" height="1" fill="#9d9463" />
,<rect x="3" y="1" width="1" height="1" fill="#0d111f" />
,<rect x="3" y="2" width="1" height="1" fill="#141518" />
,<rect x="3" y="3" width="1" height="1" fill="#0b101f" />
,<rect x="3" y="4" width="1" height="1" fill="#000009" />
,<rect x="3" y="5" width="1" height="1" fill="#342e37" />
,<rect x="3" y="6" width="1" height="1" fill="#c2a5ab" />
,<rect x="3" y="7" width="1" height="1" fill="#f1d2db" />
,<rect x="3" y="8" width="1" height="1" fill="#e4bbab" />
,<rect x="3" y="9" width="1" height="1" fill="#e2b3b0" />
,<rect x="4" y="0" width="1" height="1" fill="#1e1d16" />
,<rect x="4" y="1" width="1" height="1" fill="#000010" />
,<rect x="4" y="2" width="1" height="1" fill="#00000a" />
,<rect x="4" y="3" width="1" height="1" fill="#151618" />
,<rect x="4" y="4" width="1" height="1" fill="#7f6e14" />
,<rect x="4" y="5" width="1" height="1" fill="#face71" />
,<rect x="4" y="6" width="1" height="1" fill="#ffd5c1" />
,<rect x="4" y="7" width="1" height="1" fill="#eebd62" />
,<rect x="4" y="8" width="1" height="1" fill="#fcc53a" />
,<rect x="4" y="9" width="1" height="1" fill="#f6c13f" />
,<rect x="5" y="0" width="1" height="1" fill="#000009" />
,<rect x="5" y="1" width="1" height="1" fill="#262624" />
,<rect x="5" y="2" width="1" height="1" fill="#767164" />
,<rect x="5" y="3" width="1" height="1" fill="#e4bd42" />
,<rect x="5" y="4" width="1" height="1" fill="#fff23a" />
,<rect x="5" y="5" width="1" height="1" fill="#ffd334" />
,<rect x="5" y="6" width="1" height="1" fill="#f3bf2a" />
,<rect x="5" y="7" width="1" height="1" fill="#ffca1c" />
,<rect x="5" y="8" width="1" height="1" fill="#ffcc2a" />
,<rect x="5" y="9" width="1" height="1" fill="#ffcc2a" />
,<rect x="6" y="0" width="1" height="1" fill="#977e2b" />
,<rect x="6" y="1" width="1" height="1" fill="#f5c829" />
,<rect x="6" y="2" width="1" height="1" fill="#ffee9d" />
,<rect x="6" y="3" width="1" height="1" fill="#ffdb65" />
,<rect x="6" y="4" width="1" height="1" fill="#ffc825" />
,<rect x="6" y="5" width="1" height="1" fill="#ffc836" />
,<rect x="6" y="6" width="1" height="1" fill="#ffcb31" />
,<rect x="6" y="7" width="1" height="1" fill="#ffc838" />
,<rect x="6" y="8" width="1" height="1" fill="#ffc838" />
,<rect x="6" y="9" width="1" height="1" fill="#ffc837" />
,<rect x="7" y="0" width="1" height="1" fill="#ffed41" />
,<rect x="7" y="1" width="1" height="1" fill="#ffdb30" />
,<rect x="7" y="2" width="1" height="1" fill="#e1b541" />
,<rect x="7" y="3" width="1" height="1" fill="#e1b84a" />
,<rect x="7" y="4" width="1" height="1" fill="#ffcd30" />
,<rect x="7" y="5" width="1" height="1" fill="#ffc938" />
,<rect x="7" y="6" width="1" height="1" fill="#ffc938" />
,<rect x="7" y="7" width="1" height="1" fill="#ffc837" />
,<rect x="7" y="8" width="1" height="1" fill="#ffc938" />
,<rect x="7" y="9" width="1" height="1" fill="#ffc837" />
,<rect x="8" y="0" width="1" height="1" fill="#ffc637" />
,<rect x="8" y="1" width="1" height="1" fill="#ffca3b" />
,<rect x="8" y="2" width="1" height="1" fill="#fec52e" />
,<rect x="8" y="3" width="1" height="1" fill="#fac330" />
,<rect x="8" y="4" width="1" height="1" fill="#ffca39" />
,<rect x="8" y="5" width="1" height="1" fill="#ffc938" />
,<rect x="8" y="6" width="1" height="1" fill="#ffc938" />
,<rect x="8" y="7" width="1" height="1" fill="#ffc938" />
,<rect x="8" y="8" width="1" height="1" fill="#ffc837" />
,<rect x="8" y="9" width="1" height="1" fill="#ffc938" />
,<rect x="9" y="0" width="1" height="1" fill="#ffca42" />
,<rect x="9" y="1" width="1" height="1" fill="#ffc83f" />
,<rect x="9" y="2" width="1" height="1" fill="#ffcc37" />
,<rect x="9" y="3" width="1" height="1" fill="#fac536" />
,<rect x="9" y="4" width="1" height="1" fill="#f2be36" />
,<rect x="9" y="5" width="1" height="1" fill="#fac63f" />
,<rect x="9" y="6" width="1" height="1" fill="#fac63f" />
,<rect x="9" y="7" width="1" height="1" fill="#f3bf36" />
,<rect x="9" y="8" width="1" height="1" fill="#f2bf36" />
,<rect x="9" y="9" width="1" height="1" fill="#fcc73e" />

  </g>
</svg>