<svg width="800" height="1000" version="1.1" xmlns="http://www.w3.org/2000/svg" xmlns:xlink="http://www.w3.org/1999/xlink">
  <defs>
      <linearGradient id="Gradient2" x1="0" x2="1" y1="0" y2="1">
        <stop offset="0%" stop-color="#2d3c96"/>
        <stop offset="100%" stop-color="#d53392"/>
      </linearGradient>
  </defs>
  <rect x="10" y="10" width="780" height="980" fill="url(#Gradient2)" rx="50" ry="50" stroke="#ffd700" stroke-width="20"/>
  <text x="400" y="920" width="780" text-anchor="middle" style="font: bold 200px 'Helvetica Neue'; fill: #ffd700">08413</text>

  <g transform="translate(80 80) scale(64)">
<rect x="0" y="0" width="1" height="1" fill="#FFDBB8" /><rect x="1" y="0" width="1" height="1" fill="#FFECD9" /><rect x="2" y="0" width="1" height="1" fill="#F7CCB4" /><rect x="3" y="0" width="1" height="1" fill="#DDB89B" /><rect x="4" y="0" width="1" height="1" fill="#E0BB9F" /><rect x="5" y="0" width="1" height="1" fill="#E8C2A6" /><rect x="6" y="0" width="1" height="1" fill="#DBB79C" /><rect x="7" y="0" width="1" height="1" fill="#EDC0A8" /><rect x="8" y="0" width="1" height="1" fill="#FFE0CC" /><rect x="9" y="0" width="1" height="1" fill="#FFF8E8" /><rect x="0" y="1" width="1" height="1" fill="#D5A371" /><rect x="1" y="1" width="1" height="1" fill="#D7B58D" /><rect x="2" y="1" width="1" height="1" fill="#D8B593" /><rect x="3" y="1" width="1" height="1" fill="#DDB99B" /><rect x="4" y="1" width="1" height="1" fill="#E2BDA1" /><rect x="5" y="1" width="1" height="1" fill="#DCB79B" /><rect x="6" y="1" width="1" height="1" fill="#DCB89B" /><rect x="7" y="1" width="1" height="1" fill="#DAB798" /><rect x="8" y="1" width="1" height="1" fill="#E2BF9C" /><rect x="9" y="1" width="1" height="1" fill="#DAB093" /><rect x="0" y="2" width="1" height="1" fill="#CE9E6C" /><rect x="1" y="2" width="1" height="1" fill="#DCB899" /><rect x="2" y="2" width="1" height="1" fill="#FFD7CB" /><rect x="3" y="2" width="1" height="1" fill="#F5C9C2" /><rect x="4" y="2" width="1" height="1" fill="#F6CAC2" /><rect x="5" y="2" width="1" height="1" fill="#FBCEC4" /><rect x="6" y="2" width="1" height="1" fill="#F2C6BE" /><rect x="7" y="2" width="1" height="1" fill="#FED1C9" /><rect x="8" y="2" width="1" height="1" fill="#F4CEB5" /><rect x="9" y="2" width="1" height="1" fill="#C9A576" /><rect x="0" y="3" width="1" height="1" fill="#D3A574" /><rect x="1" y="3" width="1" height="1" fill="#DCB79A" /><rect x="2" y="3" width="1" height="1" fill="#FFE0D5" /><rect x="3" y="3" width="1" height="1" fill="#FFD9CF" /><rect x="4" y="3" width="1" height="1" fill="#F4C8BD" /><rect x="5" y="3" width="1" height="1" fill="#F2C7BB" /><rect x="6" y="3" width="1" height="1" fill="#FAD1C7" /><rect x="7" y="3" width="1" height="1" fill="#FFE0DA" /><rect x="8" y="3" width="1" height="1" fill="#F3C9B5" /><rect x="9" y="3" width="1" height="1" fill="#D5A87B" /><rect x="0" y="4" width="1" height="1" fill="#E4AC79" /><rect x="1" y="4" width="1" height="1" fill="#DDB991" /><rect x="2" y="4" width="1" height="1" fill="#E7C2A6" /><rect x="3" y="4" width="1" height="1" fill="#EFC8B0" /><rect x="4" y="4" width="1" height="1" fill="#E0BB9B" /><rect x="5" y="4" width="1" height="1" fill="#D9B594" /><rect x="6" y="4" width="1" height="1" fill="#E9C3A9" /><rect x="7" y="4" width="1" height="1" fill="#EAC4AB" /><rect x="8" y="4" width="1" height="1" fill="#D9B694" /><rect x="9" y="4" width="1" height="1" fill="#ECB885" /><rect x="0" y="5" width="1" height="1" fill="#BFA88F" /><rect x="1" y="5" width="1" height="1" fill="#F1B780" /><rect x="2" y="5" width="1" height="1" fill="#D7B48E" /><rect x="3" y="5" width="1" height="1" fill="#D2B189" /><rect x="4" y="5" width="1" height="1" fill="#D8B48E" /><rect x="5" y="5" width="1" height="1" fill="#DBB690" /><rect x="6" y="5" width="1" height="1" fill="#D3B28A" /><rect x="7" y="5" width="1" height="1" fill="#D4B18A" /><rect x="8" y="5" width="1" height="1" fill="#E0B991" /><rect x="9" y="5" width="1" height="1" fill="#EFB279" /><rect x="0" y="6" width="1" height="1" fill="#80C2EC" /><rect x="1" y="6" width="1" height="1" fill="#C4A78C" /><rect x="2" y="6" width="1" height="1" fill="#F0B37B" /><rect x="3" y="6" width="1" height="1" fill="#EAB98C" /><rect x="4" y="6" width="1" height="1" fill="#E3B589" /><rect x="5" y="6" width="1" height="1" fill="#DEB186" /><rect x="6" y="6" width="1" height="1" fill="#E6B88D" /><rect x="7" y="6" width="1" height="1" fill="#ECB887" /><rect x="8" y="6" width="1" height="1" fill="#EAAF76" /><rect x="9" y="6" width="1" height="1" fill="#A7ADAC" /><rect x="0" y="7" width="1" height="1" fill="#82D3FF" /><rect x="1" y="7" width="1" height="1" fill="#7FC5F1" /><rect x="2" y="7" width="1" height="1" fill="#B4B0A7" /><rect x="3" y="7" width="1" height="1" fill="#CDAF90" /><rect x="4" y="7" width="1" height="1" fill="#C3AC94" /><rect x="5" y="7" width="1" height="1" fill="#B9A38B" /><rect x="6" y="7" width="1" height="1" fill="#CEB193" /><rect x="7" y="7" width="1" height="1" fill="#CBAE93" /><rect x="8" y="7" width="1" height="1" fill="#9CB3BD" /><rect x="9" y="7" width="1" height="1" fill="#7ACBFF" /><rect x="0" y="8" width="1" height="1" fill="#90D0FB" /><rect x="1" y="8" width="1" height="1" fill="#82CAFC" /><rect x="2" y="8" width="1" height="1" fill="#77C5F8" /><rect x="3" y="8" width="1" height="1" fill="#84C7F4" /><rect x="4" y="8" width="1" height="1" fill="#83C6F3" /><rect x="5" y="8" width="1" height="1" fill="#85C6F2" /><rect x="6" y="8" width="1" height="1" fill="#87C4EF" /><rect x="7" y="8" width="1" height="1" fill="#81C7F7" /><rect x="8" y="8" width="1" height="1" fill="#77C5FA" /><rect x="9" y="8" width="1" height="1" fill="#88CBF9" /><rect x="0" y="9" width="1" height="1" fill="#94CEF8" /><rect x="1" y="9" width="1" height="1" fill="#8DC6EE" /><rect x="2" y="9" width="1" height="1" fill="#87C0E8" /><rect x="3" y="9" width="1" height="1" fill="#8FD3FD" /><rect x="4" y="9" width="1" height="1" fill="#8ECEFB" /><rect x="5" y="9" width="1" height="1" fill="#8ECFFC" /><rect x="6" y="9" width="1" height="1" fill="#91D3FE" /><rect x="7" y="9" width="1" height="1" fill="#8DCAF4" /><rect x="8" y="9" width="1" height="1" fill="#84C0E9" /><rect x="9" y="9" width="1" height="1" fill="#8DCEFB" />
  </g>
</svg>