<svg width="800" height="1000" xmlns="http://www.w3.org/2000/svg"><defs><linearGradient id="g" x1="0" x2="1" y1="0" y2="1"><stop offset="0%" stop-color="#2d3c96"/><stop offset="100%" stop-color="#d53392"/></linearGradient></defs><rect x="10" y="10" width="780" height="980" fill="url(#g)" rx="50" ry="50" stroke="gold" stroke-width="20"/><text x="400" y="920" width="780" text-anchor="middle" style="font:bold 200px 'Helvetica Neue';fill:gold">08412</text><g transform="translate(80 80) scale(64)"><rect x="0" y="0" width="1" height="1" fill="#efc161" /><rect x="0" y="1" width="1" height="1" fill="#efc14f" /><rect x="0" y="2" width="1" height="1" fill="#f0be41" /><rect x="0" y="3" width="1" height="1" fill="#e7b540" /><rect x="0" y="4" width="1" height="1" fill="#e5b735" /><rect x="0" y="5" width="1" height="1" fill="#dfb465" /><rect x="0" y="6" width="1" height="1" fill="#e6c0bd" /><rect x="0" y="7" width="1" height="1" fill="#eac0b6" /><rect x="0" y="8" width="1" height="1" fill="#ecc2b6" /><rect x="0" y="9" width="1" height="1" fill="#e7bfb1" /><rect x="1" y="0" width="1" height="1" fill="#fdd1dc" /><rect x="1" y="1" width="1" height="1" fill="#f7cdcb" /><rect x="1" y="2" width="1" height="1" fill="#f8cdc2" /><rect x="1" y="3" width="1" height="1" fill="#f7cbc0" /><rect x="1" y="4" width="1" height="1" fill="#f5cec8" /><rect x="1" y="5" width="1" height="1" fill="#ebc6bc" /><rect x="1" y="6" width="1" height="1" fill="#facfc1" /><rect x="1" y="7" width="1" height="1" fill="#f1c6b9" /><rect x="1" y="8" width="1" height="1" fill="#ffd2c4" /><rect x="1" y="9" width="1" height="1" fill="#f4cabb" /><rect x="2" y="0" width="1" height="1" fill="#ebc5b5" /><rect x="2" y="1" width="1" height="1" fill="#f2cbc6" /><rect x="2" y="2" width="1" height="1" fill="#f9cfd7" /><rect x="2" y="3" width="1" height="1" fill="#fcd1da" /><rect x="2" y="4" width="1" height="1" fill="#fed5de" /><rect x="2" y="5" width="1" height="1" fill="#efc8cf" /><rect x="2" y="6" width="1" height="1" fill="#eac4c3" /><rect x="2" y="7" width="1" height="1" fill="#fdd1c3" /><rect x="2" y="8" width="1" height="1" fill="#e3bead" /><rect x="2" y="9" width="1" height="1" fill="#fbd6cb" /><rect x="3" y="0" width="1" height="1" fill="#ebbc34" /><rect x="3" y="1" width="1" height="1" fill="#edbe47" /><rect x="3" y="2" width="1" height="1" fill="#f1c056" /><rect x="3" y="3" width="1" height="1" fill="#eebd5b" /><rect x="3" y="4" width="1" height="1" fill="#edbf5b" /><rect x="3" y="5" width="1" height="1" fill="#eebf50" /><rect x="3" y="6" width="1" height="1" fill="#e6b87d" /><rect x="3" y="7" width="1" height="1" fill="#ffd6d5" /><rect x="3" y="8" width="1" height="1" fill="#f2c7bc" /><rect x="3" y="9" width="1" height="1" fill="#e3bcae" /><rect x="4" y="0" width="1" height="1" fill="#ffcd2e" /><rect x="4" y="1" width="1" height="1" fill="#ffcc25" /><rect x="4" y="2" width="1" height="1" fill="#ffca1c" /><rect x="4" y="3" width="1" height="1" fill="#ffca18" /><rect x="4" y="4" width="1" height="1" fill="#ffc916" /><rect x="4" y="5" width="1" height="1" fill="#ffcd00" /><rect x="4" y="6" width="1" height="1" fill="#f9c114" /><rect x="4" y="7" width="1" height="1" fill="#e0baa2" /><rect x="4" y="8" width="1" height="1" fill="#f3c8c1" /><rect x="4" y="9" width="1" height="1" fill="#d8ae99" /><rect x="5" y="0" width="1" height="1" fill="#ffca32" /><rect x="5" y="1" width="1" height="1" fill="#ffc93c" /><rect x="5" y="2" width="1" height="1" fill="#ffc837" /><rect x="5" y="3" width="1" height="1" fill="#ffc838" /><rect x="5" y="4" width="1" height="1" fill="#ffc838" /><rect x="5" y="5" width="1" height="1" fill="#ffd238" /><rect x="5" y="6" width="1" height="1" fill="#f0be2d" /><rect x="5" y="7" width="1" height="1" fill="#9e8841" /><rect x="5" y="8" width="1" height="1" fill="#78867b" /><rect x="5" y="9" width="1" height="1" fill="#c9b8b7" /><rect x="6" y="0" width="1" height="1" fill="#ffc733" /><rect x="6" y="1" width="1" height="1" fill="#ffce21" /><rect x="6" y="2" width="1" height="1" fill="#ffcc35" /><rect x="6" y="3" width="1" height="1" fill="#ffca36" /><rect x="6" y="4" width="1" height="1" fill="#ffcb35" /><rect x="6" y="5" width="1" height="1" fill="#ffcd2a" /><rect x="6" y="6" width="1" height="1" fill="#c3a64e" /><rect x="6" y="7" width="1" height="1" fill="#889356" /><rect x="6" y="8" width="1" height="1" fill="#7e979a" /><rect x="6" y="9" width="1" height="1" fill="#f8cec9" /><rect x="7" y="0" width="1" height="1" fill="#dbb96b" /><rect x="7" y="1" width="1" height="1" fill="#f6c10c" /><rect x="7" y="2" width="1" height="1" fill="#ffbe06" /><rect x="7" y="3" width="1" height="1" fill="#ffc40f" /><rect x="7" y="4" width="1" height="1" fill="#ffce14" /><rect x="7" y="5" width="1" height="1" fill="#fab806" /><rect x="7" y="6" width="1" height="1" fill="#a99741" /><rect x="7" y="7" width="1" height="1" fill="#7f502a" /><rect x="7" y="8" width="1" height="1" fill="#6c435d" /><rect x="7" y="9" width="1" height="1" fill="#e0c0b4" /><rect x="8" y="0" width="1" height="1" fill="#70c1f9" /><rect x="8" y="1" width="1" height="1" fill="#81c7eb" /><rect x="8" y="2" width="1" height="1" fill="#8dc1d3" /><rect x="8" y="3" width="1" height="1" fill="#88b3ba" /><rect x="8" y="4" width="1" height="1" fill="#96c3c9" /><rect x="8" y="5" width="1" height="1" fill="#9ec3c5" /><rect x="8" y="6" width="1" height="1" fill="#86adb6" /><rect x="8" y="7" width="1" height="1" fill="#7d83a4" /><rect x="8" y="8" width="1" height="1" fill="#81b4e6" /><rect x="8" y="9" width="1" height="1" fill="#8eceee" /><rect x="9" y="0" width="1" height="1" fill="#b0b9c6" /><rect x="9" y="1" width="1" height="1" fill="#a1b8ce" /><rect x="9" y="2" width="1" height="1" fill="#9bc2e7" /><rect x="9" y="3" width="1" height="1" fill="#8bbce7" /><rect x="9" y="4" width="1" height="1" fill="#77a9d9" /><rect x="9" y="5" width="1" height="1" fill="#70c6ff" /><rect x="9" y="6" width="1" height="1" fill="#82e1ff" /><rect x="9" y="7" width="1" height="1" fill="#91e7ff" /><rect x="9" y="8" width="1" height="1" fill="#90d9ff" /><rect x="9" y="9" width="1" height="1" fill="#8dcdf5" /></g></svg>