<svg width="800" height="1000" xmlns="http://www.w3.org/2000/svg"><defs><linearGradient id="g" x1="0" x2="1" y1="0" y2="1"><stop offset="0%" stop-color="#2d3c96"/><stop offset="100%" stop-color="#d53392"/></linearGradient></defs><rect x="10" y="10" width="780" height="980" fill="url(#g)" rx="50" ry="50" stroke="gold" stroke-width="20"/><text x="400" y="920" width="780" text-anchor="middle" style="font:bold 200px 'Helvetica Neue';fill:gold">08414</text><g transform="translate(80 80) scale(64)"><rect x="0" y="0" width="1" height="1" fill="#f6cfbb" /><rect x="0" y="1" width="1" height="1" fill="#c7a283" /><rect x="0" y="2" width="1" height="1" fill="#c0a383" /><rect x="0" y="3" width="1" height="1" fill="#c7b19b" /><rect x="0" y="4" width="1" height="1" fill="#c2ac95" /><rect x="0" y="5" width="1" height="1" fill="#a0b0b6" /><rect x="0" y="6" width="1" height="1" fill="#7dd1ff" /><rect x="0" y="7" width="1" height="1" fill="#8cdaff" /><rect x="0" y="8" width="1" height="1" fill="#8ecef9" /><rect x="0" y="9" width="1" height="1" fill="#8bcbf8" /><rect x="1" y="0" width="1" height="1" fill="#85c4f9" /><rect x="1" y="1" width="1" height="1" fill="#7fc6ff" /><rect x="1" y="2" width="1" height="1" fill="#78c3ff" /><rect x="1" y="3" width="1" height="1" fill="#6cb6f5" /><rect x="1" y="4" width="1" height="1" fill="#5fadef" /><rect x="1" y="5" width="1" height="1" fill="#6cc8ff" /><rect x="1" y="6" width="1" height="1" fill="#82caff" /><rect x="1" y="7" width="1" height="1" fill="#86c9fc" /><rect x="1" y="8" width="1" height="1" fill="#8fe5ff" /><rect x="1" y="9" width="1" height="1" fill="#8fd1ff" /><rect x="2" y="0" width="1" height="1" fill="#91bdcb" /><rect x="2" y="1" width="1" height="1" fill="#acc19f" /><rect x="2" y="2" width="1" height="1" fill="#c3c287" /><rect x="2" y="3" width="1" height="1" fill="#c8b766" /><rect x="2" y="4" width="1" height="1" fill="#d4c86a" /><rect x="2" y="5" width="1" height="1" fill="#c9b76a" /><rect x="2" y="6" width="1" height="1" fill="#939e78" /><rect x="2" y="7" width="1" height="1" fill="#795650" /><rect x="2" y="8" width="1" height="1" fill="#79729b" /><rect x="2" y="9" width="1" height="1" fill="#8dd1f1" /><rect x="3" y="0" width="1" height="1" fill="#f7b838" /><rect x="3" y="1" width="1" height="1" fill="#ffc600" /><rect x="3" y="2" width="1" height="1" fill="#ffc900" /><rect x="3" y="3" width="1" height="1" fill="#ffce0f" /><rect x="3" y="4" width="1" height="1" fill="#ffd104" /><rect x="3" y="5" width="1" height="1" fill="#ffc400" /><rect x="3" y="6" width="1" height="1" fill="#b6a24b" /><rect x="3" y="7" width="1" height="1" fill="#977c38" /><rect x="3" y="8" width="1" height="1" fill="#795a64" /><rect x="3" y="9" width="1" height="1" fill="#6b618a" /><rect x="4" y="0" width="1" height="1" fill="#ffc731" /><rect x="4" y="1" width="1" height="1" fill="#ffcb39" /><rect x="4" y="2" width="1" height="1" fill="#ffc838" /><rect x="4" y="3" width="1" height="1" fill="#ffc838" /><rect x="4" y="4" width="1" height="1" fill="#ffc838" /><rect x="4" y="5" width="1" height="1" fill="#ffd130" /><rect x="4" y="6" width="1" height="1" fill="#cfaa45" /><rect x="4" y="7" width="1" height="1" fill="#91884d" /><rect x="4" y="8" width="1" height="1" fill="#83b2ac" /><rect x="4" y="9" width="1" height="1" fill="#a3c2d7" /><rect x="5" y="0" width="1" height="1" fill="#ffc936" /><rect x="5" y="1" width="1" height="1" fill="#ffc739" /><rect x="5" y="2" width="1" height="1" fill="#ffc838" /><rect x="5" y="3" width="1" height="1" fill="#ffc836" /><rect x="5" y="4" width="1" height="1" fill="#ffc938" /><rect x="5" y="5" width="1" height="1" fill="#ffce38" /><rect x="5" y="6" width="1" height="1" fill="#fec72f" /><rect x="5" y="7" width="1" height="1" fill="#a59250" /><rect x="5" y="8" width="1" height="1" fill="#8d8659" /><rect x="5" y="9" width="1" height="1" fill="#ccbf83" /><rect x="6" y="0" width="1" height="1" fill="#ffc938" /><rect x="6" y="1" width="1" height="1" fill="#ffc838" /><rect x="6" y="2" width="1" height="1" fill="#ffc837" /><rect x="6" y="3" width="1" height="1" fill="#ffc938" /><rect x="6" y="4" width="1" height="1" fill="#ffc938" /><rect x="6" y="5" width="1" height="1" fill="#ffc737" /><rect x="6" y="6" width="1" height="1" fill="#ffd331" /><rect x="6" y="7" width="1" height="1" fill="#ecba3a" /><rect x="6" y="8" width="1" height="1" fill="#a3985e" /><rect x="6" y="9" width="1" height="1" fill="#a09961" /><rect x="7" y="0" width="1" height="1" fill="#ffc836" /><rect x="7" y="1" width="1" height="1" fill="#ffc938" /><rect x="7" y="2" width="1" height="1" fill="#ffc938" /><rect x="7" y="3" width="1" height="1" fill="#ffc838" /><rect x="7" y="4" width="1" height="1" fill="#ffc838" /><rect x="7" y="5" width="1" height="1" fill="#ffc838" /><rect x="7" y="6" width="1" height="1" fill="#ffcb3e" /><rect x="7" y="7" width="1" height="1" fill="#ffd313" /><rect x="7" y="8" width="1" height="1" fill="#cb9e22" /><rect x="7" y="9" width="1" height="1" fill="#99996c" /><rect x="8" y="0" width="1" height="1" fill="#ffc837" /><rect x="8" y="1" width="1" height="1" fill="#ffc837" /><rect x="8" y="2" width="1" height="1" fill="#ffc938" /><rect x="8" y="3" width="1" height="1" fill="#ffc837" /><rect x="8" y="4" width="1" height="1" fill="#ffc838" /><rect x="8" y="5" width="1" height="1" fill="#ffca3f" /><rect x="8" y="6" width="1" height="1" fill="#ffc800" /><rect x="8" y="7" width="1" height="1" fill="#f5c434" /><rect x="8" y="8" width="1" height="1" fill="#b5bf9a" /><rect x="8" y="9" width="1" height="1" fill="#9d996a" /><rect x="9" y="0" width="1" height="1" fill="#ffca44" /><rect x="9" y="1" width="1" height="1" fill="#fcc73d" /><rect x="9" y="2" width="1" height="1" fill="#fbc63b" /><rect x="9" y="3" width="1" height="1" fill="#fec63d" /><rect x="9" y="4" width="1" height="1" fill="#ffc83c" /><rect x="9" y="5" width="1" height="1" fill="#ffc629" /><rect x="9" y="6" width="1" height="1" fill="#dcbf5b" /><rect x="9" y="7" width="1" height="1" fill="#b0d8e0" /><rect x="9" y="8" width="1" height="1" fill="#adf6ff" /><rect x="9" y="9" width="1" height="1" fill="#a6b29a" /></g></svg>