<svg width="800" height="1000" version="1.1" xmlns="http://www.w3.org/2000/svg" xmlns:xlink="http://www.w3.org/1999/xlink">
  <defs>
      <linearGradient id="Gradient2" x1="0" x2="1" y1="0" y2="1">
        <stop offset="0%" stop-color="#2d3c96"/>
        <stop offset="100%" stop-color="#d53392"/>
      </linearGradient>
  </defs>
  <rect x="10" y="10" width="780" height="980" fill="url(#Gradient2)" rx="50" ry="50" stroke="#ffd700" stroke-width="20"/>
  <text x="400" y="920" width="780" text-anchor="middle" style="font: bold 200px 'Helvetica Neue'; fill: #ffd700">08414</text>

  <g transform="translate(80 80) scale(64)">
<rect x="0" y="0" width="1" height="1" fill="#F6CFBB" /><rect x="1" y="0" width="1" height="1" fill="#85C4F9" /><rect x="2" y="0" width="1" height="1" fill="#91BDCB" /><rect x="3" y="0" width="1" height="1" fill="#F7B838" /><rect x="4" y="0" width="1" height="1" fill="#FFC731" /><rect x="5" y="0" width="1" height="1" fill="#FFC936" /><rect x="6" y="0" width="1" height="1" fill="#FFC938" /><rect x="7" y="0" width="1" height="1" fill="#FFC836" /><rect x="8" y="0" width="1" height="1" fill="#FFC837" /><rect x="9" y="0" width="1" height="1" fill="#FFCA44" /><rect x="0" y="1" width="1" height="1" fill="#C7A283" /><rect x="1" y="1" width="1" height="1" fill="#7FC6FF" /><rect x="2" y="1" width="1" height="1" fill="#ACC19F" /><rect x="3" y="1" width="1" height="1" fill="#FFC600" /><rect x="4" y="1" width="1" height="1" fill="#FFCB39" /><rect x="5" y="1" width="1" height="1" fill="#FFC739" /><rect x="6" y="1" width="1" height="1" fill="#FFC838" /><rect x="7" y="1" width="1" height="1" fill="#FFC938" /><rect x="8" y="1" width="1" height="1" fill="#FFC837" /><rect x="9" y="1" width="1" height="1" fill="#FCC73D" /><rect x="0" y="2" width="1" height="1" fill="#C0A383" /><rect x="1" y="2" width="1" height="1" fill="#78C3FF" /><rect x="2" y="2" width="1" height="1" fill="#C3C287" /><rect x="3" y="2" width="1" height="1" fill="#FFC900" /><rect x="4" y="2" width="1" height="1" fill="#FFC838" /><rect x="5" y="2" width="1" height="1" fill="#FFC838" /><rect x="6" y="2" width="1" height="1" fill="#FFC837" /><rect x="7" y="2" width="1" height="1" fill="#FFC938" /><rect x="8" y="2" width="1" height="1" fill="#FFC938" /><rect x="9" y="2" width="1" height="1" fill="#FBC63B" /><rect x="0" y="3" width="1" height="1" fill="#C7B19B" /><rect x="1" y="3" width="1" height="1" fill="#6CB6F5" /><rect x="2" y="3" width="1" height="1" fill="#C8B766" /><rect x="3" y="3" width="1" height="1" fill="#FFCE0F" /><rect x="4" y="3" width="1" height="1" fill="#FFC838" /><rect x="5" y="3" width="1" height="1" fill="#FFC836" /><rect x="6" y="3" width="1" height="1" fill="#FFC938" /><rect x="7" y="3" width="1" height="1" fill="#FFC838" /><rect x="8" y="3" width="1" height="1" fill="#FFC837" /><rect x="9" y="3" width="1" height="1" fill="#FEC63D" /><rect x="0" y="4" width="1" height="1" fill="#C2AC95" /><rect x="1" y="4" width="1" height="1" fill="#5FADEF" /><rect x="2" y="4" width="1" height="1" fill="#D4C86A" /><rect x="3" y="4" width="1" height="1" fill="#FFD104" /><rect x="4" y="4" width="1" height="1" fill="#FFC838" /><rect x="5" y="4" width="1" height="1" fill="#FFC938" /><rect x="6" y="4" width="1" height="1" fill="#FFC938" /><rect x="7" y="4" width="1" height="1" fill="#FFC838" /><rect x="8" y="4" width="1" height="1" fill="#FFC838" /><rect x="9" y="4" width="1" height="1" fill="#FFC83C" /><rect x="0" y="5" width="1" height="1" fill="#A0B0B6" /><rect x="1" y="5" width="1" height="1" fill="#6CC8FF" /><rect x="2" y="5" width="1" height="1" fill="#C9B76A" /><rect x="3" y="5" width="1" height="1" fill="#FFC400" /><rect x="4" y="5" width="1" height="1" fill="#FFD130" /><rect x="5" y="5" width="1" height="1" fill="#FFCE38" /><rect x="6" y="5" width="1" height="1" fill="#FFC737" /><rect x="7" y="5" width="1" height="1" fill="#FFC838" /><rect x="8" y="5" width="1" height="1" fill="#FFCA3F" /><rect x="9" y="5" width="1" height="1" fill="#FFC629" /><rect x="0" y="6" width="1" height="1" fill="#7DD1FF" /><rect x="1" y="6" width="1" height="1" fill="#82CAFF" /><rect x="2" y="6" width="1" height="1" fill="#939E78" /><rect x="3" y="6" width="1" height="1" fill="#B6A24B" /><rect x="4" y="6" width="1" height="1" fill="#CFAA45" /><rect x="5" y="6" width="1" height="1" fill="#FEC72F" /><rect x="6" y="6" width="1" height="1" fill="#FFD331" /><rect x="7" y="6" width="1" height="1" fill="#FFCB3E" /><rect x="8" y="6" width="1" height="1" fill="#FFC800" /><rect x="9" y="6" width="1" height="1" fill="#DCBF5B" /><rect x="0" y="7" width="1" height="1" fill="#8CDAFF" /><rect x="1" y="7" width="1" height="1" fill="#86C9FC" /><rect x="2" y="7" width="1" height="1" fill="#795650" /><rect x="3" y="7" width="1" height="1" fill="#977C38" /><rect x="4" y="7" width="1" height="1" fill="#91884D" /><rect x="5" y="7" width="1" height="1" fill="#A59250" /><rect x="6" y="7" width="1" height="1" fill="#ECBA3A" /><rect x="7" y="7" width="1" height="1" fill="#FFD313" /><rect x="8" y="7" width="1" height="1" fill="#F5C434" /><rect x="9" y="7" width="1" height="1" fill="#B0D8E0" /><rect x="0" y="8" width="1" height="1" fill="#8ECEF9" /><rect x="1" y="8" width="1" height="1" fill="#8FE5FF" /><rect x="2" y="8" width="1" height="1" fill="#79729B" /><rect x="3" y="8" width="1" height="1" fill="#795A64" /><rect x="4" y="8" width="1" height="1" fill="#83B2AC" /><rect x="5" y="8" width="1" height="1" fill="#8D8659" /><rect x="6" y="8" width="1" height="1" fill="#A3985E" /><rect x="7" y="8" width="1" height="1" fill="#CB9E22" /><rect x="8" y="8" width="1" height="1" fill="#B5BF9A" /><rect x="9" y="8" width="1" height="1" fill="#ADF6FF" /><rect x="0" y="9" width="1" height="1" fill="#8BCBF8" /><rect x="1" y="9" width="1" height="1" fill="#8FD1FF" /><rect x="2" y="9" width="1" height="1" fill="#8DD1F1" /><rect x="3" y="9" width="1" height="1" fill="#6B618A" /><rect x="4" y="9" width="1" height="1" fill="#A3C2D7" /><rect x="5" y="9" width="1" height="1" fill="#CCBF83" /><rect x="6" y="9" width="1" height="1" fill="#A09961" /><rect x="7" y="9" width="1" height="1" fill="#99996C" /><rect x="8" y="9" width="1" height="1" fill="#9D996A" /><rect x="9" y="9" width="1" height="1" fill="#A6B29A" />
  </g>
</svg>