<svg width="800" height="1000" version="1.1" xmlns="http://www.w3.org/2000/svg" xmlns:xlink="http://www.w3.org/1999/xlink">
  <defs>
      <linearGradient id="Gradient2" x1="0" x2="1" y1="0" y2="1">
        <stop offset="0%" stop-color="#2d3c96"/>
        <stop offset="100%" stop-color="#d53392"/>
      </linearGradient>
  </defs>
  <rect x="10" y="10" width="780" height="980" fill="url(#Gradient2)" rx="50" ry="50" stroke="#ffd700" stroke-width="20"/>
  <text x="400" y="920" width="780" text-anchor="middle" style="font: bold 200px 'Helvetica Neue'; fill: #ffd700">08413</text>

  <g transform="translate(80 80) scale(64)">
<rect x="0" y="0" width="1" height="1" fill="#ffdbb8" />
,<rect x="0" y="1" width="1" height="1" fill="#d5a371" />
,<rect x="0" y="2" width="1" height="1" fill="#ce9e6c" />
,<rect x="0" y="3" width="1" height="1" fill="#d3a574" />
,<rect x="0" y="4" width="1" height="1" fill="#e4ac79" />
,<rect x="0" y="5" width="1" height="1" fill="#bfa88f" />
,<rect x="0" y="6" width="1" height="1" fill="#80c2ec" />
,<rect x="0" y="7" width="1" height="1" fill="#82d3ff" />
,<rect x="0" y="8" width="1" height="1" fill="#90d0fb" />
,<rect x="0" y="9" width="1" height="1" fill="#94cef8" />
,<rect x="1" y="0" width="1" height="1" fill="#ffecd9" />
,<rect x="1" y="1" width="1" height="1" fill="#d7b58d" />
,<rect x="1" y="2" width="1" height="1" fill="#dcb899" />
,<rect x="1" y="3" width="1" height="1" fill="#dcb79a" />
,<rect x="1" y="4" width="1" height="1" fill="#ddb991" />
,<rect x="1" y="5" width="1" height="1" fill="#f1b780" />
,<rect x="1" y="6" width="1" height="1" fill="#c4a78c" />
,<rect x="1" y="7" width="1" height="1" fill="#7fc5f1" />
,<rect x="1" y="8" width="1" height="1" fill="#82cafc" />
,<rect x="1" y="9" width="1" height="1" fill="#8dc6ee" />
,<rect x="2" y="0" width="1" height="1" fill="#f7ccb4" />
,<rect x="2" y="1" width="1" height="1" fill="#d8b593" />
,<rect x="2" y="2" width="1" height="1" fill="#ffd7cb" />
,<rect x="2" y="3" width="1" height="1" fill="#ffe0d5" />
,<rect x="2" y="4" width="1" height="1" fill="#e7c2a6" />
,<rect x="2" y="5" width="1" height="1" fill="#d7b48e" />
,<rect x="2" y="6" width="1" height="1" fill="#f0b37b" />
,<rect x="2" y="7" width="1" height="1" fill="#b4b0a7" />
,<rect x="2" y="8" width="1" height="1" fill="#77c5f8" />
,<rect x="2" y="9" width="1" height="1" fill="#87c0e8" />
,<rect x="3" y="0" width="1" height="1" fill="#ddb89b" />
,<rect x="3" y="1" width="1" height="1" fill="#ddb99b" />
,<rect x="3" y="2" width="1" height="1" fill="#f5c9c2" />
,<rect x="3" y="3" width="1" height="1" fill="#ffd9cf" />
,<rect x="3" y="4" width="1" height="1" fill="#efc8b0" />
,<rect x="3" y="5" width="1" height="1" fill="#d2b189" />
,<rect x="3" y="6" width="1" height="1" fill="#eab98c" />
,<rect x="3" y="7" width="1" height="1" fill="#cdaf90" />
,<rect x="3" y="8" width="1" height="1" fill="#84c7f4" />
,<rect x="3" y="9" width="1" height="1" fill="#8fd3fd" />
,<rect x="4" y="0" width="1" height="1" fill="#e0bb9f" />
,<rect x="4" y="1" width="1" height="1" fill="#e2bda1" />
,<rect x="4" y="2" width="1" height="1" fill="#f6cac2" />
,<rect x="4" y="3" width="1" height="1" fill="#f4c8bd" />
,<rect x="4" y="4" width="1" height="1" fill="#e0bb9b" />
,<rect x="4" y="5" width="1" height="1" fill="#d8b48e" />
,<rect x="4" y="6" width="1" height="1" fill="#e3b589" />
,<rect x="4" y="7" width="1" height="1" fill="#c3ac94" />
,<rect x="4" y="8" width="1" height="1" fill="#83c6f3" />
,<rect x="4" y="9" width="1" height="1" fill="#8ecefb" />
,<rect x="5" y="0" width="1" height="1" fill="#e8c2a6" />
,<rect x="5" y="1" width="1" height="1" fill="#dcb79b" />
,<rect x="5" y="2" width="1" height="1" fill="#fbcec4" />
,<rect x="5" y="3" width="1" height="1" fill="#f2c7bb" />
,<rect x="5" y="4" width="1" height="1" fill="#d9b594" />
,<rect x="5" y="5" width="1" height="1" fill="#dbb690" />
,<rect x="5" y="6" width="1" height="1" fill="#deb186" />
,<rect x="5" y="7" width="1" height="1" fill="#b9a38b" />
,<rect x="5" y="8" width="1" height="1" fill="#85c6f2" />
,<rect x="5" y="9" width="1" height="1" fill="#8ecffc" />
,<rect x="6" y="0" width="1" height="1" fill="#dbb79c" />
,<rect x="6" y="1" width="1" height="1" fill="#dcb89b" />
,<rect x="6" y="2" width="1" height="1" fill="#f2c6be" />
,<rect x="6" y="3" width="1" height="1" fill="#fad1c7" />
,<rect x="6" y="4" width="1" height="1" fill="#e9c3a9" />
,<rect x="6" y="5" width="1" height="1" fill="#d3b28a" />
,<rect x="6" y="6" width="1" height="1" fill="#e6b88d" />
,<rect x="6" y="7" width="1" height="1" fill="#ceb193" />
,<rect x="6" y="8" width="1" height="1" fill="#87c4ef" />
,<rect x="6" y="9" width="1" height="1" fill="#91d3fe" />
,<rect x="7" y="0" width="1" height="1" fill="#edc0a8" />
,<rect x="7" y="1" width="1" height="1" fill="#dab798" />
,<rect x="7" y="2" width="1" height="1" fill="#fed1c9" />
,<rect x="7" y="3" width="1" height="1" fill="#ffe0da" />
,<rect x="7" y="4" width="1" height="1" fill="#eac4ab" />
,<rect x="7" y="5" width="1" height="1" fill="#d4b18a" />
,<rect x="7" y="6" width="1" height="1" fill="#ecb887" />
,<rect x="7" y="7" width="1" height="1" fill="#cbae93" />
,<rect x="7" y="8" width="1" height="1" fill="#81c7f7" />
,<rect x="7" y="9" width="1" height="1" fill="#8dcaf4" />
,<rect x="8" y="0" width="1" height="1" fill="#ffe0cc" />
,<rect x="8" y="1" width="1" height="1" fill="#e2bf9c" />
,<rect x="8" y="2" width="1" height="1" fill="#f4ceb5" />
,<rect x="8" y="3" width="1" height="1" fill="#f3c9b5" />
,<rect x="8" y="4" width="1" height="1" fill="#d9b694" />
,<rect x="8" y="5" width="1" height="1" fill="#e0b991" />
,<rect x="8" y="6" width="1" height="1" fill="#eaaf76" />
,<rect x="8" y="7" width="1" height="1" fill="#9cb3bd" />
,<rect x="8" y="8" width="1" height="1" fill="#77c5fa" />
,<rect x="8" y="9" width="1" height="1" fill="#84c0e9" />
,<rect x="9" y="0" width="1" height="1" fill="#fff8e8" />
,<rect x="9" y="1" width="1" height="1" fill="#dab093" />
,<rect x="9" y="2" width="1" height="1" fill="#c9a576" />
,<rect x="9" y="3" width="1" height="1" fill="#d5a87b" />
,<rect x="9" y="4" width="1" height="1" fill="#ecb885" />
,<rect x="9" y="5" width="1" height="1" fill="#efb279" />
,<rect x="9" y="6" width="1" height="1" fill="#a7adac" />
,<rect x="9" y="7" width="1" height="1" fill="#7acbff" />
,<rect x="9" y="8" width="1" height="1" fill="#88cbf9" />
,<rect x="9" y="9" width="1" height="1" fill="#8dcefb" />

  </g>
</svg>