<svg width="800" height="1000" xmlns="http://www.w3.org/2000/svg"><defs><linearGradient id="g" x1="0" x2="1" y1="0" y2="1"><stop offset="0%" stop-color="#2d3c96"/><stop offset="100%" stop-color="#d53392"/></linearGradient></defs><rect x="10" y="10" width="780" height="980" fill="url(#g)" rx="50" ry="50" stroke="gold" stroke-width="20"/><text x="400" y="920" width="780" text-anchor="middle" style="font:bold 200px 'Helvetica Neue';fill:gold">08503</text><g transform="translate(80 80) scale(64)"><rect x="0" y="0" width="1" height="1" fill="#4e766b" /><rect x="0" y="1" width="1" height="1" fill="#768576" /><rect x="0" y="2" width="1" height="1" fill="#7e8774" /><rect x="0" y="3" width="1" height="1" fill="#7a8674" /><rect x="0" y="4" width="1" height="1" fill="#7c8876" /><rect x="0" y="5" width="1" height="1" fill="#d75d46" /><rect x="0" y="6" width="1" height="1" fill="#e9411b" /><rect x="0" y="7" width="1" height="1" fill="#e44a2b" /><rect x="0" y="8" width="1" height="1" fill="#e54628" /><rect x="0" y="9" width="1" height="1" fill="#e54628" /><rect x="1" y="0" width="1" height="1" fill="#467668" /><rect x="1" y="1" width="1" height="1" fill="#748674" /><rect x="1" y="2" width="1" height="1" fill="#838872" /><rect x="1" y="3" width="1" height="1" fill="#7d8772" /><rect x="1" y="4" width="1" height="1" fill="#838874" /><rect x="1" y="5" width="1" height="1" fill="#dc573f" /><rect x="1" y="6" width="1" height="1" fill="#e83f20" /><rect x="1" y="7" width="1" height="1" fill="#e4462b" /><rect x="1" y="8" width="1" height="1" fill="#e54528" /><rect x="1" y="9" width="1" height="1" fill="#e54528" /><rect x="2" y="0" width="1" height="1" fill="#407866" /><rect x="2" y="1" width="1" height="1" fill="#688370" /><rect x="2" y="2" width="1" height="1" fill="#878871" /><rect x="2" y="3" width="1" height="1" fill="#83866d" /><rect x="2" y="4" width="1" height="1" fill="#7b8a73" /><rect x="2" y="5" width="1" height="1" fill="#cc674f" /><rect x="2" y="6" width="1" height="1" fill="#ea3919" /><rect x="2" y="7" width="1" height="1" fill="#e2472d" /><rect x="2" y="8" width="1" height="1" fill="#e44428" /><rect x="2" y="9" width="1" height="1" fill="#e44428" /><rect x="3" y="0" width="1" height="1" fill="#437b65" /><rect x="3" y="1" width="1" height="1" fill="#53816b" /><rect x="3" y="2" width="1" height="1" fill="#888971" /><rect x="3" y="3" width="1" height="1" fill="#88866b" /><rect x="3" y="4" width="1" height="1" fill="#7f8970" /><rect x="3" y="5" width="1" height="1" fill="#9d8269" /><rect x="3" y="6" width="1" height="1" fill="#e5462e" /><rect x="3" y="7" width="1" height="1" fill="#e73d21" /><rect x="3" y="8" width="1" height="1" fill="#e2472b" /><rect x="3" y="9" width="1" height="1" fill="#e3442a" /><rect x="4" y="0" width="1" height="1" fill="#2d7b67" /><rect x="4" y="1" width="1" height="1" fill="#3f7e64" /><rect x="4" y="2" width="1" height="1" fill="#7b876e" /><rect x="4" y="3" width="1" height="1" fill="#8f886a" /><rect x="4" y="4" width="1" height="1" fill="#8a8668" /><rect x="4" y="5" width="1" height="1" fill="#818a6c" /><rect x="4" y="6" width="1" height="1" fill="#ab7d61" /><rect x="4" y="7" width="1" height="1" fill="#e34a31" /><rect x="4" y="8" width="1" height="1" fill="#e93619" /><rect x="4" y="9" width="1" height="1" fill="#e44024" /><rect x="5" y="0" width="1" height="1" fill="#a6a657" /><rect x="5" y="1" width="1" height="1" fill="#007468" /><rect x="5" y="2" width="1" height="1" fill="#538566" /><rect x="5" y="3" width="1" height="1" fill="#8b8c6c" /><rect x="5" y="4" width="1" height="1" fill="#958866" /><rect x="5" y="5" width="1" height="1" fill="#908665" /><rect x="5" y="6" width="1" height="1" fill="#858a6a" /><rect x="5" y="7" width="1" height="1" fill="#9d8466" /><rect x="5" y="8" width="1" height="1" fill="#ce644a" /><rect x="5" y="9" width="1" height="1" fill="#e34630" /><rect x="6" y="0" width="1" height="1" fill="#fbce10" /><rect x="6" y="1" width="1" height="1" fill="#96a05c" /><rect x="6" y="2" width="1" height="1" fill="#007567" /><rect x="6" y="3" width="1" height="1" fill="#328068" /><rect x="6" y="4" width="1" height="1" fill="#7e886a" /><rect x="6" y="5" width="1" height="1" fill="#988866" /><rect x="6" y="6" width="1" height="1" fill="#9a8763" /><rect x="6" y="7" width="1" height="1" fill="#938a64" /><rect x="6" y="8" width="1" height="1" fill="#928c66" /><rect x="6" y="9" width="1" height="1" fill="#a68761" /><rect x="7" y="0" width="1" height="1" fill="#ffcd02" /><rect x="7" y="1" width="1" height="1" fill="#fbcf12" /><rect x="7" y="2" width="1" height="1" fill="#bab24d" /><rect x="7" y="3" width="1" height="1" fill="#6e925e" /><rect x="7" y="4" width="1" height="1" fill="#388765" /><rect x="7" y="5" width="1" height="1" fill="#49866b" /><rect x="7" y="6" width="1" height="1" fill="#6e856c" /><rect x="7" y="7" width="1" height="1" fill="#818269" /><rect x="7" y="8" width="1" height="1" fill="#858167" /><rect x="7" y="9" width="1" height="1" fill="#848368" /><rect x="8" y="0" width="1" height="1" fill="#fccd0c" /><rect x="8" y="1" width="1" height="1" fill="#fdcd07" /><rect x="8" y="2" width="1" height="1" fill="#ffd200" /><rect x="8" y="3" width="1" height="1" fill="#f9ce1b" /><rect x="8" y="4" width="1" height="1" fill="#e7c62d" /><rect x="8" y="5" width="1" height="1" fill="#d1bd3f" /><rect x="8" y="6" width="1" height="1" fill="#c3b84a" /><rect x="8" y="7" width="1" height="1" fill="#bab451" /><rect x="8" y="8" width="1" height="1" fill="#b7af57" /><rect x="8" y="9" width="1" height="1" fill="#aaa95e" /><rect x="9" y="0" width="1" height="1" fill="#fdd01b" /><rect x="9" y="1" width="1" height="1" fill="#ffd002" /><rect x="9" y="2" width="1" height="1" fill="#fdce05" /><rect x="9" y="3" width="1" height="1" fill="#ffcf00" /><rect x="9" y="4" width="1" height="1" fill="#ffd100" /><rect x="9" y="5" width="1" height="1" fill="#ffd200" /><rect x="9" y="6" width="1" height="1" fill="#ffd200" /><rect x="9" y="7" width="1" height="1" fill="#ffd200" /><rect x="9" y="8" width="1" height="1" fill="#ffd200" /><rect x="9" y="9" width="1" height="1" fill="#fed204" /></g></svg>