<svg width="800" height="1000" version="1.1" xmlns="http://www.w3.org/2000/svg" xmlns:xlink="http://www.w3.org/1999/xlink">
  <defs>
      <linearGradient id="Gradient2" x1="0" x2="1" y1="0" y2="1">
        <stop offset="0%" stop-color="#2d3c96"/>
        <stop offset="100%" stop-color="#d53392"/>
      </linearGradient>
  </defs>
  <rect x="10" y="10" width="780" height="980" fill="url(#Gradient2)" rx="50" ry="50" stroke="#ffd700" stroke-width="20"/>
  <text x="400" y="920" width="780" text-anchor="middle" style="font: bold 200px 'Helvetica Neue'; fill: #ffd700">08502</text>

  <g transform="translate(80 80) scale(64)">
<rect x="0" y="0" width="1" height="1" fill="#fdcf21" />
,<rect x="0" y="1" width="1" height="1" fill="#ffcf09" />
,<rect x="0" y="2" width="1" height="1" fill="#fdcd0d" />
,<rect x="0" y="3" width="1" height="1" fill="#ffce04" />
,<rect x="0" y="4" width="1" height="1" fill="#ffd000" />
,<rect x="0" y="5" width="1" height="1" fill="#ffd100" />
,<rect x="0" y="6" width="1" height="1" fill="#ffd100" />
,<rect x="0" y="7" width="1" height="1" fill="#ffd100" />
,<rect x="0" y="8" width="1" height="1" fill="#ffd104" />
,<rect x="0" y="9" width="1" height="1" fill="#fed10c" />
,<rect x="1" y="0" width="1" height="1" fill="#fccc14" />
,<rect x="1" y="1" width="1" height="1" fill="#fdcc0f" />
,<rect x="1" y="2" width="1" height="1" fill="#ffd100" />
,<rect x="1" y="3" width="1" height="1" fill="#f9cd21" />
,<rect x="1" y="4" width="1" height="1" fill="#e6c531" />
,<rect x="1" y="5" width="1" height="1" fill="#d0bc41" />
,<rect x="1" y="6" width="1" height="1" fill="#c2b74b" />
,<rect x="1" y="7" width="1" height="1" fill="#b9b252" />
,<rect x="1" y="8" width="1" height="1" fill="#b6ad58" />
,<rect x="1" y="9" width="1" height="1" fill="#a9a75e" />
,<rect x="2" y="0" width="1" height="1" fill="#ffcc08" />
,<rect x="2" y="1" width="1" height="1" fill="#fbce19" />
,<rect x="2" y="2" width="1" height="1" fill="#b9b04e" />
,<rect x="2" y="3" width="1" height="1" fill="#6e915e" />
,<rect x="2" y="4" width="1" height="1" fill="#3b8665" />
,<rect x="2" y="5" width="1" height="1" fill="#4a856b" />
,<rect x="2" y="6" width="1" height="1" fill="#6e846c" />
,<rect x="2" y="7" width="1" height="1" fill="#808169" />
,<rect x="2" y="8" width="1" height="1" fill="#848067" />
,<rect x="2" y="9" width="1" height="1" fill="#838268" />
,<rect x="3" y="0" width="1" height="1" fill="#fbcd17" />
,<rect x="3" y="1" width="1" height="1" fill="#959f5c" />
,<rect x="3" y="2" width="1" height="1" fill="#007467" />
,<rect x="3" y="3" width="1" height="1" fill="#357f68" />
,<rect x="3" y="4" width="1" height="1" fill="#7d876a" />
,<rect x="3" y="5" width="1" height="1" fill="#978766" />
,<rect x="3" y="6" width="1" height="1" fill="#998663" />
,<rect x="3" y="7" width="1" height="1" fill="#928964" />
,<rect x="3" y="8" width="1" height="1" fill="#918b66" />
,<rect x="3" y="9" width="1" height="1" fill="#a58661" />
,<rect x="4" y="0" width="1" height="1" fill="#a5a458" />
,<rect x="4" y="1" width="1" height="1" fill="#007368" />
,<rect x="4" y="2" width="1" height="1" fill="#548466" />
,<rect x="4" y="3" width="1" height="1" fill="#8a8b6c" />
,<rect x="4" y="4" width="1" height="1" fill="#948766" />
,<rect x="4" y="5" width="1" height="1" fill="#8f8565" />
,<rect x="4" y="6" width="1" height="1" fill="#84896a" />
,<rect x="4" y="7" width="1" height="1" fill="#9c8366" />
,<rect x="4" y="8" width="1" height="1" fill="#cd644b" />
,<rect x="4" y="9" width="1" height="1" fill="#e24833" />
,<rect x="5" y="0" width="1" height="1" fill="#317a67" />
,<rect x="5" y="1" width="1" height="1" fill="#417d64" />
,<rect x="5" y="2" width="1" height="1" fill="#7a866e" />
,<rect x="5" y="3" width="1" height="1" fill="#8e876a" />
,<rect x="5" y="4" width="1" height="1" fill="#898568" />
,<rect x="5" y="5" width="1" height="1" fill="#80896c" />
,<rect x="5" y="6" width="1" height="1" fill="#aa7c61" />
,<rect x="5" y="7" width="1" height="1" fill="#e24b34" />
,<rect x="5" y="8" width="1" height="1" fill="#e8391f" />
,<rect x="5" y="9" width="1" height="1" fill="#e34229" />
,<rect x="6" y="0" width="1" height="1" fill="#457a65" />
,<rect x="6" y="1" width="1" height="1" fill="#54806b" />
,<rect x="6" y="2" width="1" height="1" fill="#878870" />
,<rect x="6" y="3" width="1" height="1" fill="#87856b" />
,<rect x="6" y="4" width="1" height="1" fill="#7e886f" />
,<rect x="6" y="5" width="1" height="1" fill="#9c8169" />
,<rect x="6" y="6" width="1" height="1" fill="#e44832" />
,<rect x="6" y="7" width="1" height="1" fill="#e63f26" />
,<rect x="6" y="8" width="1" height="1" fill="#e1492f" />
,<rect x="6" y="9" width="1" height="1" fill="#e2462e" />
,<rect x="7" y="0" width="1" height="1" fill="#427766" />
,<rect x="7" y="1" width="1" height="1" fill="#68826f" />
,<rect x="7" y="2" width="1" height="1" fill="#868770" />
,<rect x="7" y="3" width="1" height="1" fill="#82856d" />
,<rect x="7" y="4" width="1" height="1" fill="#7a8972" />
,<rect x="7" y="5" width="1" height="1" fill="#cb6750" />
,<rect x="7" y="6" width="1" height="1" fill="#e93c1f" />
,<rect x="7" y="7" width="1" height="1" fill="#e14931" />
,<rect x="7" y="8" width="1" height="1" fill="#e3462c" />
,<rect x="7" y="9" width="1" height="1" fill="#e3462c" />
,<rect x="8" y="0" width="1" height="1" fill="#487568" />
,<rect x="8" y="1" width="1" height="1" fill="#738573" />
,<rect x="8" y="2" width="1" height="1" fill="#828771" />
,<rect x="8" y="3" width="1" height="1" fill="#7c8671" />
,<rect x="8" y="4" width="1" height="1" fill="#828773" />
,<rect x="8" y="5" width="1" height="1" fill="#db5841" />
,<rect x="8" y="6" width="1" height="1" fill="#e74125" />
,<rect x="8" y="7" width="1" height="1" fill="#e3482f" />
,<rect x="8" y="8" width="1" height="1" fill="#e4472c" />
,<rect x="8" y="9" width="1" height="1" fill="#e4472c" />
,<rect x="9" y="0" width="1" height="1" fill="#4f756b" />
,<rect x="9" y="1" width="1" height="1" fill="#758475" />
,<rect x="9" y="2" width="1" height="1" fill="#7d8673" />
,<rect x="9" y="3" width="1" height="1" fill="#798573" />
,<rect x="9" y="4" width="1" height="1" fill="#7b8775" />
,<rect x="9" y="5" width="1" height="1" fill="#d65d48" />
,<rect x="9" y="6" width="1" height="1" fill="#e84321" />
,<rect x="9" y="7" width="1" height="1" fill="#e34b2f" />
,<rect x="9" y="8" width="1" height="1" fill="#e4482c" />
,<rect x="9" y="9" width="1" height="1" fill="#e4482c" />

  </g>
</svg>