<svg width="800" height="1000" xmlns="http://www.w3.org/2000/svg"><defs><linearGradient id="g" x1="0" x2="1" y1="0" y2="1"><stop offset="0%" stop-color="#2d3c96"/><stop offset="100%" stop-color="#d53392"/></linearGradient></defs><rect x="10" y="10" width="780" height="980" fill="url(#g)" rx="50" ry="50" stroke="gold" stroke-width="20"/><text x="400" y="920" width="780" text-anchor="middle" style="font:bold 200px 'Helvetica Neue';fill:gold">08501</text><g transform="translate(80 80) scale(64)"><rect x="0" y="0" width="1" height="1" fill="#9b9d77" /><rect x="0" y="1" width="1" height="1" fill="#aca26d" /><rect x="0" y="2" width="1" height="1" fill="#b49e61" /><rect x="0" y="3" width="1" height="1" fill="#ba9652" /><rect x="0" y="4" width="1" height="1" fill="#bd8d48" /><rect x="0" y="5" width="1" height="1" fill="#be823f" /><rect x="0" y="6" width="1" height="1" fill="#bb773b" /><rect x="0" y="7" width="1" height="1" fill="#b6683b" /><rect x="0" y="8" width="1" height="1" fill="#ae563b" /><rect x="0" y="9" width="1" height="1" fill="#a9473b" /><rect x="1" y="0" width="1" height="1" fill="#715797" /><rect x="1" y="1" width="1" height="1" fill="#6a5d97" /><rect x="1" y="2" width="1" height="1" fill="#706b96" /><rect x="1" y="3" width="1" height="1" fill="#777994" /><rect x="1" y="4" width="1" height="1" fill="#7c878f" /><rect x="1" y="5" width="1" height="1" fill="#8c9184" /><rect x="1" y="6" width="1" height="1" fill="#9d9674" /><rect x="1" y="7" width="1" height="1" fill="#ac9967" /><rect x="1" y="8" width="1" height="1" fill="#b79955" /><rect x="1" y="9" width="1" height="1" fill="#be9546" /><rect x="2" y="0" width="1" height="1" fill="#bf9f54" /><rect x="2" y="1" width="1" height="1" fill="#ad935e" /><rect x="2" y="2" width="1" height="1" fill="#a68171" /><rect x="2" y="3" width="1" height="1" fill="#917182" /><rect x="2" y="4" width="1" height="1" fill="#916188" /><rect x="2" y="5" width="1" height="1" fill="#8d588f" /><rect x="2" y="6" width="1" height="1" fill="#835998" /><rect x="2" y="7" width="1" height="1" fill="#79619d" /><rect x="2" y="8" width="1" height="1" fill="#796f9c" /><rect x="2" y="9" width="1" height="1" fill="#7f7a93" /><rect x="3" y="0" width="1" height="1" fill="#8d9ea0" /><rect x="3" y="1" width="1" height="1" fill="#b0ae82" /><rect x="3" y="2" width="1" height="1" fill="#c9bc5c" /><rect x="3" y="3" width="1" height="1" fill="#d0c037" /><rect x="3" y="4" width="1" height="1" fill="#bab545" /><rect x="3" y="5" width="1" height="1" fill="#b2ac51" /><rect x="3" y="6" width="1" height="1" fill="#aba158" /><rect x="3" y="7" width="1" height="1" fill="#a38f64" /><rect x="3" y="8" width="1" height="1" fill="#a07871" /><rect x="3" y="9" width="1" height="1" fill="#9b6780" /><rect x="4" y="0" width="1" height="1" fill="#0066c2" /><rect x="4" y="1" width="1" height="1" fill="#0067c3" /><rect x="4" y="2" width="1" height="1" fill="#4976ba" /><rect x="4" y="3" width="1" height="1" fill="#a09a99" /><rect x="4" y="4" width="1" height="1" fill="#ddba4f" /><rect x="4" y="5" width="1" height="1" fill="#dfbf47" /><rect x="4" y="6" width="1" height="1" fill="#dac349" /><rect x="4" y="7" width="1" height="1" fill="#d0c548" /><rect x="4" y="8" width="1" height="1" fill="#c6c245" /><rect x="4" y="9" width="1" height="1" fill="#b6b841" /><rect x="5" y="0" width="1" height="1" fill="#3272ba" /><rect x="5" y="1" width="1" height="1" fill="#3673b9" /><rect x="5" y="2" width="1" height="1" fill="#0069be" /><rect x="5" y="3" width="1" height="1" fill="#0063c8" /><rect x="5" y="4" width="1" height="1" fill="#c3ac6e" /><rect x="5" y="5" width="1" height="1" fill="#dbb535" /><rect x="5" y="6" width="1" height="1" fill="#d7b249" /><rect x="5" y="7" width="1" height="1" fill="#deb445" /><rect x="5" y="8" width="1" height="1" fill="#e3bc46" /><rect x="5" y="9" width="1" height="1" fill="#e7c446" /><rect x="6" y="0" width="1" height="1" fill="#006cbd" /><rect x="6" y="1" width="1" height="1" fill="#0067c1" /><rect x="6" y="2" width="1" height="1" fill="#1d72be" /><rect x="6" y="3" width="1" height="1" fill="#a49d90" /><rect x="6" y="4" width="1" height="1" fill="#dab642" /><rect x="6" y="5" width="1" height="1" fill="#d7b447" /><rect x="6" y="6" width="1" height="1" fill="#d5b446" /><rect x="6" y="7" width="1" height="1" fill="#d2b247" /><rect x="6" y="8" width="1" height="1" fill="#d0af47" /><rect x="6" y="9" width="1" height="1" fill="#d1ae49" /><rect x="7" y="0" width="1" height="1" fill="#3f75b9" /><rect x="7" y="1" width="1" height="1" fill="#8b909f" /><rect x="7" y="2" width="1" height="1" fill="#c3aa6b" /><rect x="7" y="3" width="1" height="1" fill="#d8b336" /><rect x="7" y="4" width="1" height="1" fill="#d0af49" /><rect x="7" y="5" width="1" height="1" fill="#d0b04b" /><rect x="7" y="6" width="1" height="1" fill="#d2b14b" /><rect x="7" y="7" width="1" height="1" fill="#d7b44c" /><rect x="7" y="8" width="1" height="1" fill="#dcb949" /><rect x="7" y="9" width="1" height="1" fill="#e0bd46" /><rect x="8" y="0" width="1" height="1" fill="#c2a865" /><rect x="8" y="1" width="1" height="1" fill="#d7b338" /><rect x="8" y="2" width="1" height="1" fill="#d9b53f" /><rect x="8" y="3" width="1" height="1" fill="#dab84c" /><rect x="8" y="4" width="1" height="1" fill="#e5c044" /><rect x="8" y="5" width="1" height="1" fill="#edc73b" /><rect x="8" y="6" width="1" height="1" fill="#f3c932" /><rect x="8" y="7" width="1" height="1" fill="#f8cd2b" /><rect x="8" y="8" width="1" height="1" fill="#fcd021" /><rect x="8" y="9" width="1" height="1" fill="#fed119" /><rect x="9" y="0" width="1" height="1" fill="#e1bc3b" /><rect x="9" y="1" width="1" height="1" fill="#ebc53f" /><rect x="9" y="2" width="1" height="1" fill="#f7cc32" /><rect x="9" y="3" width="1" height="1" fill="#fccf1f" /><rect x="9" y="4" width="1" height="1" fill="#fdcf18" /><rect x="9" y="5" width="1" height="1" fill="#ffcf0f" /><rect x="9" y="6" width="1" height="1" fill="#ffcf0f" /><rect x="9" y="7" width="1" height="1" fill="#fece11" /><rect x="9" y="8" width="1" height="1" fill="#fece11" /><rect x="9" y="9" width="1" height="1" fill="#fecd12" /></g></svg>