<svg width="800" height="1000" xmlns="http://www.w3.org/2000/svg"><defs><linearGradient id="g" x1="0" x2="1" y1="0" y2="1"><stop offset="0%" stop-color="#2d3c96"/><stop offset="100%" stop-color="#d53392"/></linearGradient></defs><rect x="10" y="10" width="780" height="980" fill="url(#g)" rx="50" ry="50" stroke="gold" stroke-width="20"/><text x="400" y="920" width="780" text-anchor="middle" style="font:bold 200px 'Helvetica Neue';fill:gold">08503</text><g transform="translate(80 80) scale(64)"><rect x="0" y="0" width="1" height="1" fill="#e2bd38" /><rect x="0" y="1" width="1" height="1" fill="#ecc63d" /><rect x="0" y="2" width="1" height="1" fill="#f7cd2e" /><rect x="0" y="3" width="1" height="1" fill="#fcd019" /><rect x="0" y="4" width="1" height="1" fill="#fdd011" /><rect x="0" y="5" width="1" height="1" fill="#ffd007" /><rect x="0" y="6" width="1" height="1" fill="#ffd007" /><rect x="0" y="7" width="1" height="1" fill="#fecf09" /><rect x="0" y="8" width="1" height="1" fill="#fecf09" /><rect x="0" y="9" width="1" height="1" fill="#fece0a" /><rect x="1" y="0" width="1" height="1" fill="#c3aa65" /><rect x="1" y="1" width="1" height="1" fill="#d8b535" /><rect x="1" y="2" width="1" height="1" fill="#dab63d" /><rect x="1" y="3" width="1" height="1" fill="#dbb94b" /><rect x="1" y="4" width="1" height="1" fill="#e6c142" /><rect x="1" y="5" width="1" height="1" fill="#eec838" /><rect x="1" y="6" width="1" height="1" fill="#f3ca2e" /><rect x="1" y="7" width="1" height="1" fill="#f8ce27" /><rect x="1" y="8" width="1" height="1" fill="#fcd11b" /><rect x="1" y="9" width="1" height="1" fill="#fed212" /><rect x="2" y="0" width="1" height="1" fill="#3d76ba" /><rect x="2" y="1" width="1" height="1" fill="#8c91a0" /><rect x="2" y="2" width="1" height="1" fill="#c4ac6b" /><rect x="2" y="3" width="1" height="1" fill="#d9b533" /><rect x="2" y="4" width="1" height="1" fill="#d1b147" /><rect x="2" y="5" width="1" height="1" fill="#d1b24a" /><rect x="2" y="6" width="1" height="1" fill="#d3b34a" /><rect x="2" y="7" width="1" height="1" fill="#d8b54b" /><rect x="2" y="8" width="1" height="1" fill="#ddba47" /><rect x="2" y="9" width="1" height="1" fill="#e1be44" /><rect x="3" y="0" width="1" height="1" fill="#006cbe" /><rect x="3" y="1" width="1" height="1" fill="#0067c2" /><rect x="3" y="2" width="1" height="1" fill="#1773bf" /><rect x="3" y="3" width="1" height="1" fill="#a59e91" /><rect x="3" y="4" width="1" height="1" fill="#dbb740" /><rect x="3" y="5" width="1" height="1" fill="#d8b545" /><rect x="3" y="6" width="1" height="1" fill="#d6b544" /><rect x="3" y="7" width="1" height="1" fill="#d3b445" /><rect x="3" y="8" width="1" height="1" fill="#d1b145" /><rect x="3" y="9" width="1" height="1" fill="#d2b047" /><rect x="4" y="0" width="1" height="1" fill="#2e73bb" /><rect x="4" y="1" width="1" height="1" fill="#3374ba" /><rect x="4" y="2" width="1" height="1" fill="#0069bf" /><rect x="4" y="3" width="1" height="1" fill="#0063c9" /><rect x="4" y="4" width="1" height="1" fill="#c4ae6e" /><rect x="4" y="5" width="1" height="1" fill="#dcb632" /><rect x="4" y="6" width="1" height="1" fill="#d8b447" /><rect x="4" y="7" width="1" height="1" fill="#dfb543" /><rect x="4" y="8" width="1" height="1" fill="#e4bd44" /><rect x="4" y="9" width="1" height="1" fill="#e8c544" /><rect x="5" y="0" width="1" height="1" fill="#0066c3" /><rect x="5" y="1" width="1" height="1" fill="#0067c4" /><rect x="5" y="2" width="1" height="1" fill="#4777bb" /><rect x="5" y="3" width="1" height="1" fill="#a19b9a" /><rect x="5" y="4" width="1" height="1" fill="#debb4e" /><rect x="5" y="5" width="1" height="1" fill="#e0c045" /><rect x="5" y="6" width="1" height="1" fill="#dbc447" /><rect x="5" y="7" width="1" height="1" fill="#d1c646" /><rect x="5" y="8" width="1" height="1" fill="#c7c343" /><rect x="5" y="9" width="1" height="1" fill="#b7b93f" /><rect x="6" y="0" width="1" height="1" fill="#8e9fa1" /><rect x="6" y="1" width="1" height="1" fill="#b1b083" /><rect x="6" y="2" width="1" height="1" fill="#cabd5c" /><rect x="6" y="3" width="1" height="1" fill="#d1c134" /><rect x="6" y="4" width="1" height="1" fill="#bbb643" /><rect x="6" y="5" width="1" height="1" fill="#b3ae50" /><rect x="6" y="6" width="1" height="1" fill="#aca257" /><rect x="6" y="7" width="1" height="1" fill="#a49064" /><rect x="6" y="8" width="1" height="1" fill="#a17972" /><rect x="6" y="9" width="1" height="1" fill="#9c6781" /><rect x="7" y="0" width="1" height="1" fill="#c0a053" /><rect x="7" y="1" width="1" height="1" fill="#ae945e" /><rect x="7" y="2" width="1" height="1" fill="#a78272" /><rect x="7" y="3" width="1" height="1" fill="#927283" /><rect x="7" y="4" width="1" height="1" fill="#926189" /><rect x="7" y="5" width="1" height="1" fill="#8e5790" /><rect x="7" y="6" width="1" height="1" fill="#845899" /><rect x="7" y="7" width="1" height="1" fill="#7a619e" /><rect x="7" y="8" width="1" height="1" fill="#7a709d" /><rect x="7" y="9" width="1" height="1" fill="#807b94" /><rect x="8" y="0" width="1" height="1" fill="#725698" /><rect x="8" y="1" width="1" height="1" fill="#6a5d98" /><rect x="8" y="2" width="1" height="1" fill="#716b97" /><rect x="8" y="3" width="1" height="1" fill="#787a95" /><rect x="8" y="4" width="1" height="1" fill="#7d8890" /><rect x="8" y="5" width="1" height="1" fill="#8d9285" /><rect x="8" y="6" width="1" height="1" fill="#9e9775" /><rect x="8" y="7" width="1" height="1" fill="#ad9a67" /><rect x="8" y="8" width="1" height="1" fill="#b89a54" /><rect x="8" y="9" width="1" height="1" fill="#bf9644" /><rect x="9" y="0" width="1" height="1" fill="#9c9e78" /><rect x="9" y="1" width="1" height="1" fill="#ada36d" /><rect x="9" y="2" width="1" height="1" fill="#b59f61" /><rect x="9" y="3" width="1" height="1" fill="#bb9751" /><rect x="9" y="4" width="1" height="1" fill="#be8e46" /><rect x="9" y="5" width="1" height="1" fill="#bf833d" /><rect x="9" y="6" width="1" height="1" fill="#bc7838" /><rect x="9" y="7" width="1" height="1" fill="#b76838" /><rect x="9" y="8" width="1" height="1" fill="#af5538" /><rect x="9" y="9" width="1" height="1" fill="#aa4538" /></g></svg>