<svg width="800" height="1000" version="1.1" xmlns="http://www.w3.org/2000/svg" xmlns:xlink="http://www.w3.org/1999/xlink">
  <defs>
      <linearGradient id="Gradient2" x1="0" x2="1" y1="0" y2="1">
        <stop offset="0%" stop-color="#2d3c96"/>
        <stop offset="100%" stop-color="#d53392"/>
      </linearGradient>
  </defs>
  <rect x="10" y="10" width="780" height="980" fill="url(#Gradient2)" rx="50" ry="50" stroke="#ffd700" stroke-width="20"/>
  <text x="400" y="920" width="780" text-anchor="middle" style="font: bold 200px 'Helvetica Neue'; fill: #ffd700">08501</text>

  <g transform="translate(80 80) scale(64)">
<rect x="0" y="0" width="1" height="1" fill="#9B9D77" /><rect x="1" y="0" width="1" height="1" fill="#715797" /><rect x="2" y="0" width="1" height="1" fill="#BF9F54" /><rect x="3" y="0" width="1" height="1" fill="#8D9EA0" /><rect x="4" y="0" width="1" height="1" fill="#0066C2" /><rect x="5" y="0" width="1" height="1" fill="#3272BA" /><rect x="6" y="0" width="1" height="1" fill="#006CBD" /><rect x="7" y="0" width="1" height="1" fill="#3F75B9" /><rect x="8" y="0" width="1" height="1" fill="#C2A865" /><rect x="9" y="0" width="1" height="1" fill="#E1BC3B" /><rect x="0" y="1" width="1" height="1" fill="#ACA26D" /><rect x="1" y="1" width="1" height="1" fill="#6A5D97" /><rect x="2" y="1" width="1" height="1" fill="#AD935E" /><rect x="3" y="1" width="1" height="1" fill="#B0AE82" /><rect x="4" y="1" width="1" height="1" fill="#0067C3" /><rect x="5" y="1" width="1" height="1" fill="#3673B9" /><rect x="6" y="1" width="1" height="1" fill="#0067C1" /><rect x="7" y="1" width="1" height="1" fill="#8B909F" /><rect x="8" y="1" width="1" height="1" fill="#D7B338" /><rect x="9" y="1" width="1" height="1" fill="#EBC53F" /><rect x="0" y="2" width="1" height="1" fill="#B49E61" /><rect x="1" y="2" width="1" height="1" fill="#706B96" /><rect x="2" y="2" width="1" height="1" fill="#A68171" /><rect x="3" y="2" width="1" height="1" fill="#C9BC5C" /><rect x="4" y="2" width="1" height="1" fill="#4976BA" /><rect x="5" y="2" width="1" height="1" fill="#0069BE" /><rect x="6" y="2" width="1" height="1" fill="#1D72BE" /><rect x="7" y="2" width="1" height="1" fill="#C3AA6B" /><rect x="8" y="2" width="1" height="1" fill="#D9B53F" /><rect x="9" y="2" width="1" height="1" fill="#F7CC32" /><rect x="0" y="3" width="1" height="1" fill="#BA9652" /><rect x="1" y="3" width="1" height="1" fill="#777994" /><rect x="2" y="3" width="1" height="1" fill="#917182" /><rect x="3" y="3" width="1" height="1" fill="#D0C037" /><rect x="4" y="3" width="1" height="1" fill="#A09A99" /><rect x="5" y="3" width="1" height="1" fill="#0063C8" /><rect x="6" y="3" width="1" height="1" fill="#A49D90" /><rect x="7" y="3" width="1" height="1" fill="#D8B336" /><rect x="8" y="3" width="1" height="1" fill="#DAB84C" /><rect x="9" y="3" width="1" height="1" fill="#FCCF1F" /><rect x="0" y="4" width="1" height="1" fill="#BD8D48" /><rect x="1" y="4" width="1" height="1" fill="#7C878F" /><rect x="2" y="4" width="1" height="1" fill="#916188" /><rect x="3" y="4" width="1" height="1" fill="#BAB545" /><rect x="4" y="4" width="1" height="1" fill="#DDBA4F" /><rect x="5" y="4" width="1" height="1" fill="#C3AC6E" /><rect x="6" y="4" width="1" height="1" fill="#DAB642" /><rect x="7" y="4" width="1" height="1" fill="#D0AF49" /><rect x="8" y="4" width="1" height="1" fill="#E5C044" /><rect x="9" y="4" width="1" height="1" fill="#FDCF18" /><rect x="0" y="5" width="1" height="1" fill="#BE823F" /><rect x="1" y="5" width="1" height="1" fill="#8C9184" /><rect x="2" y="5" width="1" height="1" fill="#8D588F" /><rect x="3" y="5" width="1" height="1" fill="#B2AC51" /><rect x="4" y="5" width="1" height="1" fill="#DFBF47" /><rect x="5" y="5" width="1" height="1" fill="#DBB535" /><rect x="6" y="5" width="1" height="1" fill="#D7B447" /><rect x="7" y="5" width="1" height="1" fill="#D0B04B" /><rect x="8" y="5" width="1" height="1" fill="#EDC73B" /><rect x="9" y="5" width="1" height="1" fill="#FFCF0F" /><rect x="0" y="6" width="1" height="1" fill="#BB773B" /><rect x="1" y="6" width="1" height="1" fill="#9D9674" /><rect x="2" y="6" width="1" height="1" fill="#835998" /><rect x="3" y="6" width="1" height="1" fill="#ABA158" /><rect x="4" y="6" width="1" height="1" fill="#DAC349" /><rect x="5" y="6" width="1" height="1" fill="#D7B249" /><rect x="6" y="6" width="1" height="1" fill="#D5B446" /><rect x="7" y="6" width="1" height="1" fill="#D2B14B" /><rect x="8" y="6" width="1" height="1" fill="#F3C932" /><rect x="9" y="6" width="1" height="1" fill="#FFCF0F" /><rect x="0" y="7" width="1" height="1" fill="#B6683B" /><rect x="1" y="7" width="1" height="1" fill="#AC9967" /><rect x="2" y="7" width="1" height="1" fill="#79619D" /><rect x="3" y="7" width="1" height="1" fill="#A38F64" /><rect x="4" y="7" width="1" height="1" fill="#D0C548" /><rect x="5" y="7" width="1" height="1" fill="#DEB445" /><rect x="6" y="7" width="1" height="1" fill="#D2B247" /><rect x="7" y="7" width="1" height="1" fill="#D7B44C" /><rect x="8" y="7" width="1" height="1" fill="#F8CD2B" /><rect x="9" y="7" width="1" height="1" fill="#FECE11" /><rect x="0" y="8" width="1" height="1" fill="#AE563B" /><rect x="1" y="8" width="1" height="1" fill="#B79955" /><rect x="2" y="8" width="1" height="1" fill="#796F9C" /><rect x="3" y="8" width="1" height="1" fill="#A07871" /><rect x="4" y="8" width="1" height="1" fill="#C6C245" /><rect x="5" y="8" width="1" height="1" fill="#E3BC46" /><rect x="6" y="8" width="1" height="1" fill="#D0AF47" /><rect x="7" y="8" width="1" height="1" fill="#DCB949" /><rect x="8" y="8" width="1" height="1" fill="#FCD021" /><rect x="9" y="8" width="1" height="1" fill="#FECE11" /><rect x="0" y="9" width="1" height="1" fill="#A9473B" /><rect x="1" y="9" width="1" height="1" fill="#BE9546" /><rect x="2" y="9" width="1" height="1" fill="#7F7A93" /><rect x="3" y="9" width="1" height="1" fill="#9B6780" /><rect x="4" y="9" width="1" height="1" fill="#B6B841" /><rect x="5" y="9" width="1" height="1" fill="#E7C446" /><rect x="6" y="9" width="1" height="1" fill="#D1AE49" /><rect x="7" y="9" width="1" height="1" fill="#E0BD46" /><rect x="8" y="9" width="1" height="1" fill="#FED119" /><rect x="9" y="9" width="1" height="1" fill="#FECD12" />
  </g>
</svg>