<svg width="800" height="1000" xmlns="http://www.w3.org/2000/svg"><defs><linearGradient id="g" x1="0" x2="1" y1="0" y2="1"><stop offset="0%" stop-color="#2d3c96"/><stop offset="100%" stop-color="#d53392"/></linearGradient></defs><rect x="10" y="10" width="780" height="980" fill="url(#g)" rx="50" ry="50" stroke="gold" stroke-width="20"/><text x="400" y="920" width="780" text-anchor="middle" style="font:bold 200px 'Helvetica Neue';fill:gold">08602</text><g transform="translate(80 80) scale(64)"><rect x="0" y="0" width="1" height="1" fill="#f1cb21" /><rect x="0" y="1" width="1" height="1" fill="#ecc82b" /><rect x="0" y="2" width="1" height="1" fill="#e2c233" /><rect x="0" y="3" width="1" height="1" fill="#d3bc3f" /><rect x="0" y="4" width="1" height="1" fill="#b6b04d" /><rect x="0" y="5" width="1" height="1" fill="#889d59" /><rect x="0" y="6" width="1" height="1" fill="#3a8862" /><rect x="0" y="7" width="1" height="1" fill="#117f62" /><rect x="0" y="8" width="1" height="1" fill="#368560" /><rect x="0" y="9" width="1" height="1" fill="#398660" /><rect x="1" y="0" width="1" height="1" fill="#97a15d" /><rect x="1" y="1" width="1" height="1" fill="#889a5e" /><rect x="1" y="2" width="1" height="1" fill="#6c9261" /><rect x="1" y="3" width="1" height="1" fill="#4f8a63" /><rect x="1" y="4" width="1" height="1" fill="#3d8564" /><rect x="1" y="5" width="1" height="1" fill="#2d8263" /><rect x="1" y="6" width="1" height="1" fill="#2e8460" /><rect x="1" y="7" width="1" height="1" fill="#338560" /><rect x="1" y="8" width="1" height="1" fill="#2f8560" /><rect x="1" y="9" width="1" height="1" fill="#308460" /><rect x="2" y="0" width="1" height="1" fill="#7f8569" /><rect x="2" y="1" width="1" height="1" fill="#7e8568" /><rect x="2" y="2" width="1" height="1" fill="#7c8669" /><rect x="2" y="3" width="1" height="1" fill="#7b896a" /><rect x="2" y="4" width="1" height="1" fill="#798b69" /><rect x="2" y="5" width="1" height="1" fill="#728a68" /><rect x="2" y="6" width="1" height="1" fill="#6b8a68" /><rect x="2" y="7" width="1" height="1" fill="#678a69" /><rect x="2" y="8" width="1" height="1" fill="#658866" /><rect x="2" y="9" width="1" height="1" fill="#6b8867" /><rect x="3" y="0" width="1" height="1" fill="#bb7856" /><rect x="3" y="1" width="1" height="1" fill="#c37354" /><rect x="3" y="2" width="1" height="1" fill="#c77150" /><rect x="3" y="3" width="1" height="1" fill="#c87050" /><rect x="3" y="4" width="1" height="1" fill="#c47355" /><rect x="3" y="5" width="1" height="1" fill="#be7656" /><rect x="3" y="6" width="1" height="1" fill="#b37b5c" /><rect x="3" y="7" width="1" height="1" fill="#a88062" /><rect x="3" y="8" width="1" height="1" fill="#9c8565" /><rect x="3" y="9" width="1" height="1" fill="#928968" /><rect x="4" y="0" width="1" height="1" fill="#e3432d" /><rect x="4" y="1" width="1" height="1" fill="#e53f29" /><rect x="4" y="2" width="1" height="1" fill="#e53e27" /><rect x="4" y="3" width="1" height="1" fill="#e43d29" /><rect x="4" y="4" width="1" height="1" fill="#e53d2a" /><rect x="4" y="5" width="1" height="1" fill="#e43f2c" /><rect x="4" y="6" width="1" height="1" fill="#e24530" /><rect x="4" y="7" width="1" height="1" fill="#df4b36" /><rect x="4" y="8" width="1" height="1" fill="#d75741" /><rect x="4" y="9" width="1" height="1" fill="#c96850" /><rect x="5" y="0" width="1" height="1" fill="#e3422a" /><rect x="5" y="1" width="1" height="1" fill="#e3422a" /><rect x="5" y="2" width="1" height="1" fill="#e2432b" /><rect x="5" y="3" width="1" height="1" fill="#e34328" /><rect x="5" y="4" width="1" height="1" fill="#e6421d" /><rect x="5" y="5" width="1" height="1" fill="#e74115" /><rect x="5" y="6" width="1" height="1" fill="#e74013" /><rect x="5" y="7" width="1" height="1" fill="#e73f17" /><rect x="5" y="8" width="1" height="1" fill="#e73c1d" /><rect x="5" y="9" width="1" height="1" fill="#e73f25" /><rect x="6" y="0" width="1" height="1" fill="#e2462e" /><rect x="6" y="1" width="1" height="1" fill="#e2462e" /><rect x="6" y="2" width="1" height="1" fill="#e34528" /><rect x="6" y="3" width="1" height="1" fill="#e44729" /><rect x="6" y="4" width="1" height="1" fill="#d64b4e" /><rect x="6" y="5" width="1" height="1" fill="#cd4e5f" /><rect x="6" y="6" width="1" height="1" fill="#ce4d5b" /><rect x="6" y="7" width="1" height="1" fill="#d74c4e" /><rect x="6" y="8" width="1" height="1" fill="#e14a36" /><rect x="6" y="9" width="1" height="1" fill="#e7451c" /><rect x="7" y="0" width="1" height="1" fill="#e3462e" /><rect x="7" y="1" width="1" height="1" fill="#e44428" /><rect x="7" y="2" width="1" height="1" fill="#e14935" /><rect x="7" y="3" width="1" height="1" fill="#ab5382" /><rect x="7" y="4" width="1" height="1" fill="#6856a3" /><rect x="7" y="5" width="1" height="1" fill="#5856a8" /><rect x="7" y="6" width="1" height="1" fill="#5d57a6" /><rect x="7" y="7" width="1" height="1" fill="#6c57a2" /><rect x="7" y="8" width="1" height="1" fill="#8b5797" /><rect x="7" y="9" width="1" height="1" fill="#aa5484" /><rect x="8" y="0" width="1" height="1" fill="#e3472c" /><rect x="8" y="1" width="1" height="1" fill="#e84619" /><rect x="8" y="2" width="1" height="1" fill="#cb4f63" /><rect x="8" y="3" width="1" height="1" fill="#4c56a9" /><rect x="8" y="4" width="1" height="1" fill="#3754ad" /><rect x="8" y="5" width="1" height="1" fill="#4b54a9" /><rect x="8" y="6" width="1" height="1" fill="#4553aa" /><rect x="8" y="7" width="1" height="1" fill="#4054ab" /><rect x="8" y="8" width="1" height="1" fill="#3954ad" /><rect x="8" y="9" width="1" height="1" fill="#3c55ad" /><rect x="9" y="0" width="1" height="1" fill="#e4472b" /><rect x="9" y="1" width="1" height="1" fill="#e84817" /><rect x="9" y="2" width="1" height="1" fill="#bf5070" /><rect x="9" y="3" width="1" height="1" fill="#4753aa" /><rect x="9" y="4" width="1" height="1" fill="#4e52a7" /><rect x="9" y="5" width="1" height="1" fill="#5452a6" /><rect x="9" y="6" width="1" height="1" fill="#5052a7" /><rect x="9" y="7" width="1" height="1" fill="#5252a7" /><rect x="9" y="8" width="1" height="1" fill="#5252a7" /><rect x="9" y="9" width="1" height="1" fill="#4e52a8" /></g></svg>