<svg width="800" height="1000" version="1.1" xmlns="http://www.w3.org/2000/svg" xmlns:xlink="http://www.w3.org/1999/xlink">
  <defs>
      <linearGradient id="Gradient2" x1="0" x2="1" y1="0" y2="1">
        <stop offset="0%" stop-color="#2d3c96"/>
        <stop offset="100%" stop-color="#d53392"/>
      </linearGradient>
  </defs>
  <rect x="10" y="10" width="780" height="980" fill="url(#Gradient2)" rx="50" ry="50" stroke="#ffd700" stroke-width="20"/>
  <text x="400" y="920" width="780" text-anchor="middle" style="font: bold 200px 'Helvetica Neue'; fill: #ffd700">08602</text>

  <g transform="translate(80 80) scale(64)">
<rect x="0" y="0" width="1" height="1" fill="#facf15" />
,<rect x="0" y="1" width="1" height="1" fill="#f5ce21" />
,<rect x="0" y="2" width="1" height="1" fill="#edc92b" />
,<rect x="0" y="3" width="1" height="1" fill="#dfc33a" />
,<rect x="0" y="4" width="1" height="1" fill="#bfb74a" />
,<rect x="0" y="5" width="1" height="1" fill="#8ea258" />
,<rect x="0" y="6" width="1" height="1" fill="#328963" />
,<rect x="0" y="7" width="1" height="1" fill="#007f62" />
,<rect x="0" y="8" width="1" height="1" fill="#3a8760" />
,<rect x="0" y="9" width="1" height="1" fill="#3c8760" />
,<rect x="1" y="0" width="1" height="1" fill="#8e9e60" />
,<rect x="1" y="1" width="1" height="1" fill="#7b9561" />
,<rect x="1" y="2" width="1" height="1" fill="#568b64" />
,<rect x="1" y="3" width="1" height="1" fill="#1f8365" />
,<rect x="1" y="4" width="1" height="1" fill="#007c65" />
,<rect x="1" y="5" width="1" height="1" fill="#007c64" />
,<rect x="1" y="6" width="1" height="1" fill="#2a8360" />
,<rect x="1" y="7" width="1" height="1" fill="#358560" />
,<rect x="1" y="8" width="1" height="1" fill="#278461" />
,<rect x="1" y="9" width="1" height="1" fill="#258461" />
,<rect x="2" y="0" width="1" height="1" fill="#818569" />
,<rect x="2" y="1" width="1" height="1" fill="#808769" />
,<rect x="2" y="2" width="1" height="1" fill="#808a6a" />
,<rect x="2" y="3" width="1" height="1" fill="#828e6a" />
,<rect x="2" y="4" width="1" height="1" fill="#7e9069" />
,<rect x="2" y="5" width="1" height="1" fill="#748e6a" />
,<rect x="2" y="6" width="1" height="1" fill="#698b69" />
,<rect x="2" y="7" width="1" height="1" fill="#658b6a" />
,<rect x="2" y="8" width="1" height="1" fill="#668866" />
,<rect x="2" y="9" width="1" height="1" fill="#6f8968" />
,<rect x="3" y="0" width="1" height="1" fill="#b87a58" />
,<rect x="3" y="1" width="1" height="1" fill="#c37455" />
,<rect x="3" y="2" width="1" height="1" fill="#c77052" />
,<rect x="3" y="3" width="1" height="1" fill="#c76e51" />
,<rect x="3" y="4" width="1" height="1" fill="#c47256" />
,<rect x="3" y="5" width="1" height="1" fill="#bf7456" />
,<rect x="3" y="6" width="1" height="1" fill="#b37c5d" />
,<rect x="3" y="7" width="1" height="1" fill="#a88464" />
,<rect x="3" y="8" width="1" height="1" fill="#998767" />
,<rect x="3" y="9" width="1" height="1" fill="#8f8b69" />
,<rect x="4" y="0" width="1" height="1" fill="#e73c27" />
,<rect x="4" y="1" width="1" height="1" fill="#e73823" />
,<rect x="4" y="2" width="1" height="1" fill="#e73821" />
,<rect x="4" y="3" width="1" height="1" fill="#e73821" />
,<rect x="4" y="4" width="1" height="1" fill="#e73825" />
,<rect x="4" y="5" width="1" height="1" fill="#e63a29" />
,<rect x="4" y="6" width="1" height="1" fill="#e53f2d" />
,<rect x="4" y="7" width="1" height="1" fill="#e24632" />
,<rect x="4" y="8" width="1" height="1" fill="#dc533c" />
,<rect x="4" y="9" width="1" height="1" fill="#c96950" />
,<rect x="5" y="0" width="1" height="1" fill="#e2452d" />
,<rect x="5" y="1" width="1" height="1" fill="#e2462d" />
,<rect x="5" y="2" width="1" height="1" fill="#e1462e" />
,<rect x="5" y="3" width="1" height="1" fill="#e14631" />
,<rect x="5" y="4" width="1" height="1" fill="#e44423" />
,<rect x="5" y="5" width="1" height="1" fill="#e74414" />
,<rect x="5" y="6" width="1" height="1" fill="#e74314" />
,<rect x="5" y="7" width="1" height="1" fill="#e6401d" />
,<rect x="5" y="8" width="1" height="1" fill="#e63c24" />
,<rect x="5" y="9" width="1" height="1" fill="#e73b27" />
,<rect x="6" y="0" width="1" height="1" fill="#e3452d" />
,<rect x="6" y="1" width="1" height="1" fill="#e3452d" />
,<rect x="6" y="2" width="1" height="1" fill="#e3432a" />
,<rect x="6" y="3" width="1" height="1" fill="#e94513" />
,<rect x="6" y="4" width="1" height="1" fill="#da4b47" />
,<rect x="6" y="5" width="1" height="1" fill="#d04d5c" />
,<rect x="6" y="6" width="1" height="1" fill="#d24d58" />
,<rect x="6" y="7" width="1" height="1" fill="#db4c47" />
,<rect x="6" y="8" width="1" height="1" fill="#e54a29" />
,<rect x="6" y="9" width="1" height="1" fill="#e94607" />
,<rect x="7" y="0" width="1" height="1" fill="#e3462e" />
,<rect x="7" y="1" width="1" height="1" fill="#e3462c" />
,<rect x="7" y="2" width="1" height="1" fill="#e54824" />
,<rect x="7" y="3" width="1" height="1" fill="#aa5684" />
,<rect x="7" y="4" width="1" height="1" fill="#5158a9" />
,<rect x="7" y="5" width="1" height="1" fill="#4457ad" />
,<rect x="7" y="6" width="1" height="1" fill="#4558ac" />
,<rect x="7" y="7" width="1" height="1" fill="#5e59a7" />
,<rect x="7" y="8" width="1" height="1" fill="#83589b" />
,<rect x="7" y="9" width="1" height="1" fill="#ac5484" />
,<rect x="8" y="0" width="1" height="1" fill="#e34731" />
,<rect x="8" y="1" width="1" height="1" fill="#e94511" />
,<rect x="8" y="2" width="1" height="1" fill="#cf5060" />
,<rect x="8" y="3" width="1" height="1" fill="#2557b0" />
,<rect x="8" y="4" width="1" height="1" fill="#4452ab" />
,<rect x="8" y="5" width="1" height="1" fill="#5254a8" />
,<rect x="8" y="6" width="1" height="1" fill="#4d53a8" />
,<rect x="8" y="7" width="1" height="1" fill="#4553ab" />
,<rect x="8" y="8" width="1" height="1" fill="#3254ae" />
,<rect x="8" y="9" width="1" height="1" fill="#2155b0" />
,<rect x="9" y="0" width="1" height="1" fill="#e34830" />
,<rect x="9" y="1" width="1" height="1" fill="#ea4703" />
,<rect x="9" y="2" width="1" height="1" fill="#c5516b" />
,<rect x="9" y="3" width="1" height="1" fill="#3c54ac" />
,<rect x="9" y="4" width="1" height="1" fill="#5752a6" />
,<rect x="9" y="5" width="1" height="1" fill="#5052a8" />
,<rect x="9" y="6" width="1" height="1" fill="#5052a8" />
,<rect x="9" y="7" width="1" height="1" fill="#5252a7" />
,<rect x="9" y="8" width="1" height="1" fill="#5752a7" />
,<rect x="9" y="9" width="1" height="1" fill="#5752a6" />

  </g>
</svg>