<svg width="800" height="1000" xmlns="http://www.w3.org/2000/svg"><defs><linearGradient id="g" x1="0" x2="1" y1="0" y2="1"><stop offset="0%" stop-color="#2d3c96"/><stop offset="100%" stop-color="#d53392"/></linearGradient></defs><rect x="10" y="10" width="780" height="980" fill="url(#g)" rx="50" ry="50" stroke="gold" stroke-width="20"/><text x="400" y="920" width="780" text-anchor="middle" style="font:bold 200px 'Helvetica Neue';fill:gold">08603</text><g transform="translate(80 80) scale(64)"><rect x="0" y="0" width="1" height="1" fill="#ffcf08" /><rect x="0" y="1" width="1" height="1" fill="#ffcf08" /><rect x="0" y="2" width="1" height="1" fill="#ffd105" /><rect x="0" y="3" width="1" height="1" fill="#ffd200" /><rect x="0" y="4" width="1" height="1" fill="#ffd300" /><rect x="0" y="5" width="1" height="1" fill="#ffd406" /><rect x="0" y="6" width="1" height="1" fill="#e3c736" /><rect x="0" y="7" width="1" height="1" fill="#90a556" /><rect x="0" y="8" width="1" height="1" fill="#29885f" /><rect x="0" y="9" width="1" height="1" fill="#29895e" /><rect x="1" y="0" width="1" height="1" fill="#ffd30c" /><rect x="1" y="1" width="1" height="1" fill="#ffd302" /><rect x="1" y="2" width="1" height="1" fill="#fdd00c" /><rect x="1" y="3" width="1" height="1" fill="#fccf12" /><rect x="1" y="4" width="1" height="1" fill="#face13" /><rect x="1" y="5" width="1" height="1" fill="#fbce10" /><rect x="1" y="6" width="1" height="1" fill="#ffd900" /><rect x="1" y="7" width="1" height="1" fill="#edce30" /><rect x="1" y="8" width="1" height="1" fill="#008d63" /><rect x="1" y="9" width="1" height="1" fill="#388d62" /><rect x="2" y="0" width="1" height="1" fill="#e5c041" /><rect x="2" y="1" width="1" height="1" fill="#e8c340" /><rect x="2" y="2" width="1" height="1" fill="#f8ce27" /><rect x="2" y="3" width="1" height="1" fill="#ffd200" /><rect x="2" y="4" width="1" height="1" fill="#ffd401" /><rect x="2" y="5" width="1" height="1" fill="#ffd517" /><rect x="2" y="6" width="1" height="1" fill="#d1c442" /><rect x="2" y="7" width="1" height="1" fill="#669e5e" /><rect x="2" y="8" width="1" height="1" fill="#719256" /><rect x="2" y="9" width="1" height="1" fill="#a48d55" /><rect x="3" y="0" width="1" height="1" fill="#d6b249" /><rect x="3" y="1" width="1" height="1" fill="#e4be46" /><rect x="3" y="2" width="1" height="1" fill="#fed42a" /><rect x="3" y="3" width="1" height="1" fill="#f6d427" /><rect x="3" y="4" width="1" height="1" fill="#d0c641" /><rect x="3" y="5" width="1" height="1" fill="#91ac4e" /><rect x="3" y="6" width="1" height="1" fill="#6e9253" /><rect x="3" y="7" width="1" height="1" fill="#978d5f" /><rect x="3" y="8" width="1" height="1" fill="#9c7f7e" /><rect x="3" y="9" width="1" height="1" fill="#6367a6" /><rect x="4" y="0" width="1" height="1" fill="#e6cd42" /><rect x="4" y="1" width="1" height="1" fill="#dbce3e" /><rect x="4" y="2" width="1" height="1" fill="#b8bc41" /><rect x="4" y="3" width="1" height="1" fill="#93a64a" /><rect x="4" y="4" width="1" height="1" fill="#898f54" /><rect x="4" y="5" width="1" height="1" fill="#988571" /><rect x="4" y="6" width="1" height="1" fill="#947d95" /><rect x="4" y="7" width="1" height="1" fill="#5e6eb1" /><rect x="4" y="8" width="1" height="1" fill="#0070bd" /><rect x="4" y="9" width="1" height="1" fill="#0085b4" /><rect x="5" y="0" width="1" height="1" fill="#a5a642" /><rect x="5" y="1" width="1" height="1" fill="#988d53" /><rect x="5" y="2" width="1" height="1" fill="#987b6e" /><rect x="5" y="3" width="1" height="1" fill="#98748b" /><rect x="5" y="4" width="1" height="1" fill="#856da6" /><rect x="5" y="5" width="1" height="1" fill="#5a6ab2" /><rect x="5" y="6" width="1" height="1" fill="#3971ae" /><rect x="5" y="7" width="1" height="1" fill="#68839a" /><rect x="5" y="8" width="1" height="1" fill="#8a9485" /><rect x="5" y="9" width="1" height="1" fill="#a1976c" /><rect x="6" y="0" width="1" height="1" fill="#8e5f95" /><rect x="6" y="1" width="1" height="1" fill="#8261a1" /><rect x="6" y="2" width="1" height="1" fill="#756aa6" /><rect x="6" y="3" width="1" height="1" fill="#74739e" /><rect x="6" y="4" width="1" height="1" fill="#88818b" /><rect x="6" y="5" width="1" height="1" fill="#a18e71" /><rect x="6" y="6" width="1" height="1" fill="#b1985b" /><rect x="6" y="7" width="1" height="1" fill="#b9994f" /><rect x="6" y="8" width="1" height="1" fill="#ba924f" /><rect x="6" y="9" width="1" height="1" fill="#b88c4f" /><rect x="7" y="0" width="1" height="1" fill="#8f8888" /><rect x="7" y="1" width="1" height="1" fill="#a29075" /><rect x="7" y="2" width="1" height="1" fill="#b2985d" /><rect x="7" y="3" width="1" height="1" fill="#bd9a4c" /><rect x="7" y="4" width="1" height="1" fill="#be9547" /><rect x="7" y="5" width="1" height="1" fill="#ba8c4a" /><rect x="7" y="6" width="1" height="1" fill="#b47e4c" /><rect x="7" y="7" width="1" height="1" fill="#ad6c49" /><rect x="7" y="8" width="1" height="1" fill="#a85c41" /><rect x="7" y="9" width="1" height="1" fill="#a44b38" /><rect x="8" y="0" width="1" height="1" fill="#bf9040" /><rect x="8" y="1" width="1" height="1" fill="#ba8240" /><rect x="8" y="2" width="1" height="1" fill="#b27142" /><rect x="8" y="3" width="1" height="1" fill="#ad6142" /><rect x="8" y="4" width="1" height="1" fill="#a84e3c" /><rect x="8" y="5" width="1" height="1" fill="#a53c33" /><rect x="8" y="6" width="1" height="1" fill="#a4332d" /><rect x="8" y="7" width="1" height="1" fill="#a3312a" /><rect x="8" y="8" width="1" height="1" fill="#a4362a" /><rect x="8" y="9" width="1" height="1" fill="#a53c2c" /><rect x="9" y="0" width="1" height="1" fill="#a73836" /><rect x="9" y="1" width="1" height="1" fill="#a62e31" /><rect x="9" y="2" width="1" height="1" fill="#a72d2a" /><rect x="9" y="3" width="1" height="1" fill="#a73228" /><rect x="9" y="4" width="1" height="1" fill="#a7382a" /><rect x="9" y="5" width="1" height="1" fill="#a83d2c" /><rect x="9" y="6" width="1" height="1" fill="#a9412d" /><rect x="9" y="7" width="1" height="1" fill="#a9422e" /><rect x="9" y="8" width="1" height="1" fill="#a9412e" /><rect x="9" y="9" width="1" height="1" fill="#a93f2e" /></g></svg>