<svg width="800" height="1000" version="1.1" xmlns="http://www.w3.org/2000/svg" xmlns:xlink="http://www.w3.org/1999/xlink">
  <defs>
      <linearGradient id="Gradient2" x1="0" x2="1" y1="0" y2="1">
        <stop offset="0%" stop-color="#2d3c96"/>
        <stop offset="100%" stop-color="#d53392"/>
      </linearGradient>
  </defs>
  <rect x="10" y="10" width="780" height="980" fill="url(#Gradient2)" rx="50" ry="50" stroke="#ffd700" stroke-width="20"/>
  <text x="400" y="920" width="780" text-anchor="middle" style="font: bold 200px 'Helvetica Neue'; fill: #ffd700">08601</text>

  <g transform="translate(80 80) scale(64)">
<rect x="0" y="0" width="1" height="1" fill="#A63B39" /><rect x="1" y="0" width="1" height="1" fill="#BE8F42" /><rect x="2" y="0" width="1" height="1" fill="#8E8787" /><rect x="3" y="0" width="1" height="1" fill="#8D5F94" /><rect x="4" y="0" width="1" height="1" fill="#A4A444" /><rect x="5" y="0" width="1" height="1" fill="#E5CC44" /><rect x="6" y="0" width="1" height="1" fill="#D5B04A" /><rect x="7" y="0" width="1" height="1" fill="#E4BF43" /><rect x="8" y="0" width="1" height="1" fill="#FFD214" /><rect x="9" y="0" width="1" height="1" fill="#FFCE10" /><rect x="0" y="1" width="1" height="1" fill="#A53234" /><rect x="1" y="1" width="1" height="1" fill="#B98142" /><rect x="2" y="1" width="1" height="1" fill="#A18F74" /><rect x="3" y="1" width="1" height="1" fill="#8161A0" /><rect x="4" y="1" width="1" height="1" fill="#978C54" /><rect x="5" y="1" width="1" height="1" fill="#DACD40" /><rect x="6" y="1" width="1" height="1" fill="#E3BD48" /><rect x="7" y="1" width="1" height="1" fill="#E7C242" /><rect x="8" y="1" width="1" height="1" fill="#FFD209" /><rect x="9" y="1" width="1" height="1" fill="#FFCE10" /><rect x="0" y="2" width="1" height="1" fill="#A6312E" /><rect x="1" y="2" width="1" height="1" fill="#B17044" /><rect x="2" y="2" width="1" height="1" fill="#B1975D" /><rect x="3" y="2" width="1" height="1" fill="#746AA4" /><rect x="4" y="2" width="1" height="1" fill="#977A6E" /><rect x="5" y="2" width="1" height="1" fill="#B7BB43" /><rect x="6" y="2" width="1" height="1" fill="#FED32E" /><rect x="7" y="2" width="1" height="1" fill="#F8CD2B" /><rect x="8" y="2" width="1" height="1" fill="#FDCF14" /><rect x="9" y="2" width="1" height="1" fill="#FFD00D" /><rect x="0" y="3" width="1" height="1" fill="#A6352C" /><rect x="1" y="3" width="1" height="1" fill="#AC6144" /><rect x="2" y="3" width="1" height="1" fill="#BC994D" /><rect x="3" y="3" width="1" height="1" fill="#73729D" /><rect x="4" y="3" width="1" height="1" fill="#97738A" /><rect x="5" y="3" width="1" height="1" fill="#92A44B" /><rect x="6" y="3" width="1" height="1" fill="#F6D32B" /><rect x="7" y="3" width="1" height="1" fill="#FFD104" /><rect x="8" y="3" width="1" height="1" fill="#FCCE19" /><rect x="9" y="3" width="1" height="1" fill="#FFD103" /><rect x="0" y="4" width="1" height="1" fill="#A63B2E" /><rect x="1" y="4" width="1" height="1" fill="#A74F3E" /><rect x="2" y="4" width="1" height="1" fill="#BD9449" /><rect x="3" y="4" width="1" height="1" fill="#87808A" /><rect x="4" y="4" width="1" height="1" fill="#846DA4" /><rect x="5" y="4" width="1" height="1" fill="#888E55" /><rect x="6" y="4" width="1" height="1" fill="#CFC543" /><rect x="7" y="4" width="1" height="1" fill="#FFD305" /><rect x="8" y="4" width="1" height="1" fill="#FACD1A" /><rect x="9" y="4" width="1" height="1" fill="#FFD201" /><rect x="0" y="5" width="1" height="1" fill="#A73F30" /><rect x="1" y="5" width="1" height="1" fill="#A43E36" /><rect x="2" y="5" width="1" height="1" fill="#B98B4B" /><rect x="3" y="5" width="1" height="1" fill="#A08D70" /><rect x="4" y="5" width="1" height="1" fill="#5A6AB0" /><rect x="5" y="5" width="1" height="1" fill="#978470" /><rect x="6" y="5" width="1" height="1" fill="#90AA4F" /><rect x="7" y="5" width="1" height="1" fill="#FFD41D" /><rect x="8" y="5" width="1" height="1" fill="#FBCD17" /><rect x="9" y="5" width="1" height="1" fill="#FFD30E" /><rect x="0" y="6" width="1" height="1" fill="#A84331" /><rect x="1" y="6" width="1" height="1" fill="#A33631" /><rect x="2" y="6" width="1" height="1" fill="#B37D4D" /><rect x="3" y="6" width="1" height="1" fill="#B0975B" /><rect x="4" y="6" width="1" height="1" fill="#3C70AC" /><rect x="5" y="6" width="1" height="1" fill="#937C94" /><rect x="6" y="6" width="1" height="1" fill="#6E9154" /><rect x="7" y="6" width="1" height="1" fill="#D0C344" /><rect x="8" y="6" width="1" height="1" fill="#FFD800" /><rect x="9" y="6" width="1" height="1" fill="#E2C639" /><rect x="0" y="7" width="1" height="1" fill="#A84432" /><rect x="1" y="7" width="1" height="1" fill="#A2342E" /><rect x="2" y="7" width="1" height="1" fill="#AC6C4A" /><rect x="3" y="7" width="1" height="1" fill="#B89850" /><rect x="4" y="7" width="1" height="1" fill="#688299" /><rect x="5" y="7" width="1" height="1" fill="#5E6EAF" /><rect x="6" y="7" width="1" height="1" fill="#968C5F" /><rect x="7" y="7" width="1" height="1" fill="#669D5E" /><rect x="8" y="7" width="1" height="1" fill="#ECCD33" /><rect x="9" y="7" width="1" height="1" fill="#8FA357" /><rect x="0" y="8" width="1" height="1" fill="#A84332" /><rect x="1" y="8" width="1" height="1" fill="#A3392E" /><rect x="2" y="8" width="1" height="1" fill="#A75C43" /><rect x="3" y="8" width="1" height="1" fill="#B99150" /><rect x="4" y="8" width="1" height="1" fill="#899384" /><rect x="5" y="8" width="1" height="1" fill="#006FBC" /><rect x="6" y="8" width="1" height="1" fill="#9B7E7D" /><rect x="7" y="8" width="1" height="1" fill="#709157" /><rect x="8" y="8" width="1" height="1" fill="#008C63" /><rect x="9" y="8" width="1" height="1" fill="#2D875F" /><rect x="0" y="9" width="1" height="1" fill="#A84132" /><rect x="1" y="9" width="1" height="1" fill="#A43E30" /><rect x="2" y="9" width="1" height="1" fill="#A34C3B" /><rect x="3" y="9" width="1" height="1" fill="#B78B50" /><rect x="4" y="9" width="1" height="1" fill="#A0966C" /><rect x="5" y="9" width="1" height="1" fill="#0084B2" /><rect x="6" y="9" width="1" height="1" fill="#6367A4" /><rect x="7" y="9" width="1" height="1" fill="#A38C56" /><rect x="8" y="9" width="1" height="1" fill="#3B8C62" /><rect x="9" y="9" width="1" height="1" fill="#2D885E" />
  </g>
</svg>