<svg width="800" height="1000" xmlns="http://www.w3.org/2000/svg"><defs><linearGradient id="g" x1="0" x2="1" y1="0" y2="1"><stop offset="0%" stop-color="#2d3c96"/><stop offset="100%" stop-color="#d53392"/></linearGradient></defs><rect x="10" y="10" width="780" height="980" fill="url(#g)" rx="50" ry="50" stroke="gold" stroke-width="20"/><text x="400" y="920" width="780" text-anchor="middle" style="font:bold 200px 'Helvetica Neue';fill:gold">08601</text><g transform="translate(80 80) scale(64)"><rect x="0" y="0" width="1" height="1" fill="#a63b39" /><rect x="0" y="1" width="1" height="1" fill="#a53234" /><rect x="0" y="2" width="1" height="1" fill="#a6312e" /><rect x="0" y="3" width="1" height="1" fill="#a6352c" /><rect x="0" y="4" width="1" height="1" fill="#a63b2e" /><rect x="0" y="5" width="1" height="1" fill="#a73f30" /><rect x="0" y="6" width="1" height="1" fill="#a84331" /><rect x="0" y="7" width="1" height="1" fill="#a84432" /><rect x="0" y="8" width="1" height="1" fill="#a84332" /><rect x="0" y="9" width="1" height="1" fill="#a84132" /><rect x="1" y="0" width="1" height="1" fill="#be8f42" /><rect x="1" y="1" width="1" height="1" fill="#b98142" /><rect x="1" y="2" width="1" height="1" fill="#b17044" /><rect x="1" y="3" width="1" height="1" fill="#ac6144" /><rect x="1" y="4" width="1" height="1" fill="#a74f3e" /><rect x="1" y="5" width="1" height="1" fill="#a43e36" /><rect x="1" y="6" width="1" height="1" fill="#a33631" /><rect x="1" y="7" width="1" height="1" fill="#a2342e" /><rect x="1" y="8" width="1" height="1" fill="#a3392e" /><rect x="1" y="9" width="1" height="1" fill="#a43e30" /><rect x="2" y="0" width="1" height="1" fill="#8e8787" /><rect x="2" y="1" width="1" height="1" fill="#a18f74" /><rect x="2" y="2" width="1" height="1" fill="#b1975d" /><rect x="2" y="3" width="1" height="1" fill="#bc994d" /><rect x="2" y="4" width="1" height="1" fill="#bd9449" /><rect x="2" y="5" width="1" height="1" fill="#b98b4b" /><rect x="2" y="6" width="1" height="1" fill="#b37d4d" /><rect x="2" y="7" width="1" height="1" fill="#ac6c4a" /><rect x="2" y="8" width="1" height="1" fill="#a75c43" /><rect x="2" y="9" width="1" height="1" fill="#a34c3b" /><rect x="3" y="0" width="1" height="1" fill="#8d5f94" /><rect x="3" y="1" width="1" height="1" fill="#8161a0" /><rect x="3" y="2" width="1" height="1" fill="#746aa4" /><rect x="3" y="3" width="1" height="1" fill="#73729d" /><rect x="3" y="4" width="1" height="1" fill="#87808a" /><rect x="3" y="5" width="1" height="1" fill="#a08d70" /><rect x="3" y="6" width="1" height="1" fill="#b0975b" /><rect x="3" y="7" width="1" height="1" fill="#b89850" /><rect x="3" y="8" width="1" height="1" fill="#b99150" /><rect x="3" y="9" width="1" height="1" fill="#b78b50" /><rect x="4" y="0" width="1" height="1" fill="#a4a444" /><rect x="4" y="1" width="1" height="1" fill="#978c54" /><rect x="4" y="2" width="1" height="1" fill="#977a6e" /><rect x="4" y="3" width="1" height="1" fill="#97738a" /><rect x="4" y="4" width="1" height="1" fill="#846da4" /><rect x="4" y="5" width="1" height="1" fill="#5a6ab0" /><rect x="4" y="6" width="1" height="1" fill="#3c70ac" /><rect x="4" y="7" width="1" height="1" fill="#688299" /><rect x="4" y="8" width="1" height="1" fill="#899384" /><rect x="4" y="9" width="1" height="1" fill="#a0966c" /><rect x="5" y="0" width="1" height="1" fill="#e5cc44" /><rect x="5" y="1" width="1" height="1" fill="#dacd40" /><rect x="5" y="2" width="1" height="1" fill="#b7bb43" /><rect x="5" y="3" width="1" height="1" fill="#92a44b" /><rect x="5" y="4" width="1" height="1" fill="#888e55" /><rect x="5" y="5" width="1" height="1" fill="#978470" /><rect x="5" y="6" width="1" height="1" fill="#937c94" /><rect x="5" y="7" width="1" height="1" fill="#5e6eaf" /><rect x="5" y="8" width="1" height="1" fill="#006fbc" /><rect x="5" y="9" width="1" height="1" fill="#0084b2" /><rect x="6" y="0" width="1" height="1" fill="#d5b04a" /><rect x="6" y="1" width="1" height="1" fill="#e3bd48" /><rect x="6" y="2" width="1" height="1" fill="#fed32e" /><rect x="6" y="3" width="1" height="1" fill="#f6d32b" /><rect x="6" y="4" width="1" height="1" fill="#cfc543" /><rect x="6" y="5" width="1" height="1" fill="#90aa4f" /><rect x="6" y="6" width="1" height="1" fill="#6e9154" /><rect x="6" y="7" width="1" height="1" fill="#968c5f" /><rect x="6" y="8" width="1" height="1" fill="#9b7e7d" /><rect x="6" y="9" width="1" height="1" fill="#6367a4" /><rect x="7" y="0" width="1" height="1" fill="#e4bf43" /><rect x="7" y="1" width="1" height="1" fill="#e7c242" /><rect x="7" y="2" width="1" height="1" fill="#f8cd2b" /><rect x="7" y="3" width="1" height="1" fill="#ffd104" /><rect x="7" y="4" width="1" height="1" fill="#ffd305" /><rect x="7" y="5" width="1" height="1" fill="#ffd41d" /><rect x="7" y="6" width="1" height="1" fill="#d0c344" /><rect x="7" y="7" width="1" height="1" fill="#669d5e" /><rect x="7" y="8" width="1" height="1" fill="#709157" /><rect x="7" y="9" width="1" height="1" fill="#a38c56" /><rect x="8" y="0" width="1" height="1" fill="#ffd214" /><rect x="8" y="1" width="1" height="1" fill="#ffd209" /><rect x="8" y="2" width="1" height="1" fill="#fdcf14" /><rect x="8" y="3" width="1" height="1" fill="#fcce19" /><rect x="8" y="4" width="1" height="1" fill="#facd1a" /><rect x="8" y="5" width="1" height="1" fill="#fbcd17" /><rect x="8" y="6" width="1" height="1" fill="#ffd800" /><rect x="8" y="7" width="1" height="1" fill="#eccd33" /><rect x="8" y="8" width="1" height="1" fill="#008c63" /><rect x="8" y="9" width="1" height="1" fill="#3b8c62" /><rect x="9" y="0" width="1" height="1" fill="#ffce10" /><rect x="9" y="1" width="1" height="1" fill="#ffce10" /><rect x="9" y="2" width="1" height="1" fill="#ffd00d" /><rect x="9" y="3" width="1" height="1" fill="#ffd103" /><rect x="9" y="4" width="1" height="1" fill="#ffd201" /><rect x="9" y="5" width="1" height="1" fill="#ffd30e" /><rect x="9" y="6" width="1" height="1" fill="#e2c639" /><rect x="9" y="7" width="1" height="1" fill="#8fa357" /><rect x="9" y="8" width="1" height="1" fill="#2d875f" /><rect x="9" y="9" width="1" height="1" fill="#2d885e" /></g></svg>