<svg width="800" height="1000" version="1.1" xmlns="http://www.w3.org/2000/svg" xmlns:xlink="http://www.w3.org/1999/xlink">
  <defs>
      <linearGradient id="Gradient2" x1="0" x2="1" y1="0" y2="1">
        <stop offset="0%" stop-color="#2d3c96"/>
        <stop offset="100%" stop-color="#d53392"/>
      </linearGradient>
  </defs>
  <rect x="10" y="10" width="780" height="980" fill="url(#Gradient2)" rx="50" ry="50" stroke="#ffd700" stroke-width="20"/>
  <text x="400" y="920" width="780" text-anchor="middle" style="font: bold 200px 'Helvetica Neue'; fill: #ffd700">08602</text>

  <g transform="translate(80 80) scale(64)">
<rect x="0" y="0" width="1" height="1" fill="#FACF15" /><rect x="1" y="0" width="1" height="1" fill="#8E9E60" /><rect x="2" y="0" width="1" height="1" fill="#818569" /><rect x="3" y="0" width="1" height="1" fill="#B87A58" /><rect x="4" y="0" width="1" height="1" fill="#E73C27" /><rect x="5" y="0" width="1" height="1" fill="#E2452D" /><rect x="6" y="0" width="1" height="1" fill="#E3452D" /><rect x="7" y="0" width="1" height="1" fill="#E3462E" /><rect x="8" y="0" width="1" height="1" fill="#E34731" /><rect x="9" y="0" width="1" height="1" fill="#E34830" /><rect x="0" y="1" width="1" height="1" fill="#F5CE21" /><rect x="1" y="1" width="1" height="1" fill="#7B9561" /><rect x="2" y="1" width="1" height="1" fill="#808769" /><rect x="3" y="1" width="1" height="1" fill="#C37455" /><rect x="4" y="1" width="1" height="1" fill="#E73823" /><rect x="5" y="1" width="1" height="1" fill="#E2462D" /><rect x="6" y="1" width="1" height="1" fill="#E3452D" /><rect x="7" y="1" width="1" height="1" fill="#E3462C" /><rect x="8" y="1" width="1" height="1" fill="#E94511" /><rect x="9" y="1" width="1" height="1" fill="#EA4703" /><rect x="0" y="2" width="1" height="1" fill="#EDC92B" /><rect x="1" y="2" width="1" height="1" fill="#568B64" /><rect x="2" y="2" width="1" height="1" fill="#808A6A" /><rect x="3" y="2" width="1" height="1" fill="#C77052" /><rect x="4" y="2" width="1" height="1" fill="#E73821" /><rect x="5" y="2" width="1" height="1" fill="#E1462E" /><rect x="6" y="2" width="1" height="1" fill="#E3432A" /><rect x="7" y="2" width="1" height="1" fill="#E54824" /><rect x="8" y="2" width="1" height="1" fill="#CF5060" /><rect x="9" y="2" width="1" height="1" fill="#C5516B" /><rect x="0" y="3" width="1" height="1" fill="#DFC33A" /><rect x="1" y="3" width="1" height="1" fill="#1F8365" /><rect x="2" y="3" width="1" height="1" fill="#828E6A" /><rect x="3" y="3" width="1" height="1" fill="#C76E51" /><rect x="4" y="3" width="1" height="1" fill="#E73821" /><rect x="5" y="3" width="1" height="1" fill="#E14631" /><rect x="6" y="3" width="1" height="1" fill="#E94513" /><rect x="7" y="3" width="1" height="1" fill="#AA5684" /><rect x="8" y="3" width="1" height="1" fill="#2557B0" /><rect x="9" y="3" width="1" height="1" fill="#3C54AC" /><rect x="0" y="4" width="1" height="1" fill="#BFB74A" /><rect x="1" y="4" width="1" height="1" fill="#007C65" /><rect x="2" y="4" width="1" height="1" fill="#7E9069" /><rect x="3" y="4" width="1" height="1" fill="#C47256" /><rect x="4" y="4" width="1" height="1" fill="#E73825" /><rect x="5" y="4" width="1" height="1" fill="#E44423" /><rect x="6" y="4" width="1" height="1" fill="#DA4B47" /><rect x="7" y="4" width="1" height="1" fill="#5158A9" /><rect x="8" y="4" width="1" height="1" fill="#4452AB" /><rect x="9" y="4" width="1" height="1" fill="#5752A6" /><rect x="0" y="5" width="1" height="1" fill="#8EA258" /><rect x="1" y="5" width="1" height="1" fill="#007C64" /><rect x="2" y="5" width="1" height="1" fill="#748E6A" /><rect x="3" y="5" width="1" height="1" fill="#BF7456" /><rect x="4" y="5" width="1" height="1" fill="#E63A29" /><rect x="5" y="5" width="1" height="1" fill="#E74414" /><rect x="6" y="5" width="1" height="1" fill="#D04D5C" /><rect x="7" y="5" width="1" height="1" fill="#4457AD" /><rect x="8" y="5" width="1" height="1" fill="#5254A8" /><rect x="9" y="5" width="1" height="1" fill="#5052A8" /><rect x="0" y="6" width="1" height="1" fill="#328963" /><rect x="1" y="6" width="1" height="1" fill="#2A8360" /><rect x="2" y="6" width="1" height="1" fill="#698B69" /><rect x="3" y="6" width="1" height="1" fill="#B37C5D" /><rect x="4" y="6" width="1" height="1" fill="#E53F2D" /><rect x="5" y="6" width="1" height="1" fill="#E74314" /><rect x="6" y="6" width="1" height="1" fill="#D24D58" /><rect x="7" y="6" width="1" height="1" fill="#4558AC" /><rect x="8" y="6" width="1" height="1" fill="#4D53A8" /><rect x="9" y="6" width="1" height="1" fill="#5052A8" /><rect x="0" y="7" width="1" height="1" fill="#007F62" /><rect x="1" y="7" width="1" height="1" fill="#358560" /><rect x="2" y="7" width="1" height="1" fill="#658B6A" /><rect x="3" y="7" width="1" height="1" fill="#A88464" /><rect x="4" y="7" width="1" height="1" fill="#E24632" /><rect x="5" y="7" width="1" height="1" fill="#E6401D" /><rect x="6" y="7" width="1" height="1" fill="#DB4C47" /><rect x="7" y="7" width="1" height="1" fill="#5E59A7" /><rect x="8" y="7" width="1" height="1" fill="#4553AB" /><rect x="9" y="7" width="1" height="1" fill="#5252A7" /><rect x="0" y="8" width="1" height="1" fill="#3A8760" /><rect x="1" y="8" width="1" height="1" fill="#278461" /><rect x="2" y="8" width="1" height="1" fill="#668866" /><rect x="3" y="8" width="1" height="1" fill="#998767" /><rect x="4" y="8" width="1" height="1" fill="#DC533C" /><rect x="5" y="8" width="1" height="1" fill="#E63C24" /><rect x="6" y="8" width="1" height="1" fill="#E54A29" /><rect x="7" y="8" width="1" height="1" fill="#83589B" /><rect x="8" y="8" width="1" height="1" fill="#3254AE" /><rect x="9" y="8" width="1" height="1" fill="#5752A7" /><rect x="0" y="9" width="1" height="1" fill="#3C8760" /><rect x="1" y="9" width="1" height="1" fill="#258461" /><rect x="2" y="9" width="1" height="1" fill="#6F8968" /><rect x="3" y="9" width="1" height="1" fill="#8F8B69" /><rect x="4" y="9" width="1" height="1" fill="#C96950" /><rect x="5" y="9" width="1" height="1" fill="#E73B27" /><rect x="6" y="9" width="1" height="1" fill="#E94607" /><rect x="7" y="9" width="1" height="1" fill="#AC5484" /><rect x="8" y="9" width="1" height="1" fill="#2155B0" /><rect x="9" y="9" width="1" height="1" fill="#5752A6" />
  </g>
</svg>