<svg width="800" height="1000" xmlns="http://www.w3.org/2000/svg"><defs><linearGradient id="g" x1="0" x2="1" y1="0" y2="1"><stop offset="0%" stop-color="#2d3c96"/><stop offset="100%" stop-color="#d53392"/></linearGradient></defs><rect x="10" y="10" width="780" height="980" fill="url(#g)" rx="50" ry="50" stroke="gold" stroke-width="20"/><text x="400" y="920" width="780" text-anchor="middle" style="font:bold 200px 'Helvetica Neue';fill:gold">08603</text><g transform="translate(80 80) scale(64)"><rect x="0" y="0" width="1" height="1" fill="#a09eb9" /><rect x="0" y="1" width="1" height="1" fill="#d9d9e2" /><rect x="0" y="2" width="1" height="1" fill="#2a1582" /><rect x="0" y="3" width="1" height="1" fill="#4c458b" /><rect x="0" y="4" width="1" height="1" fill="#49418b" /><rect x="0" y="5" width="1" height="1" fill="#48408b" /><rect x="0" y="6" width="1" height="1" fill="#48408b" /><rect x="0" y="7" width="1" height="1" fill="#48408b" /><rect x="0" y="8" width="1" height="1" fill="#48408b" /><rect x="0" y="9" width="1" height="1" fill="#48408b" /><rect x="1" y="0" width="1" height="1" fill="#e9e9ee" /><rect x="1" y="1" width="1" height="1" fill="#8581a8" /><rect x="1" y="2" width="1" height="1" fill="#302083" /><rect x="1" y="3" width="1" height="1" fill="#4d468c" /><rect x="1" y="4" width="1" height="1" fill="#48408b" /><rect x="1" y="5" width="1" height="1" fill="#48408b" /><rect x="1" y="6" width="1" height="1" fill="#48408b" /><rect x="1" y="7" width="1" height="1" fill="#48408b" /><rect x="1" y="8" width="1" height="1" fill="#48408b" /><rect x="1" y="9" width="1" height="1" fill="#48408b" /><rect x="2" y="0" width="1" height="1" fill="#e7e6ed" /><rect x="2" y="1" width="1" height="1" fill="#c0c0cf" /><rect x="2" y="2" width="1" height="1" fill="#2e1e83" /><rect x="2" y="3" width="1" height="1" fill="#4c458d" /><rect x="2" y="4" width="1" height="1" fill="#48408b" /><rect x="2" y="5" width="1" height="1" fill="#48408b" /><rect x="2" y="6" width="1" height="1" fill="#48408b" /><rect x="2" y="7" width="1" height="1" fill="#48408b" /><rect x="2" y="8" width="1" height="1" fill="#48408b" /><rect x="2" y="9" width="1" height="1" fill="#48408b" /><rect x="3" y="0" width="1" height="1" fill="#817fa7" /><rect x="3" y="1" width="1" height="1" fill="#7d79a3" /><rect x="3" y="2" width="1" height="1" fill="#413788" /><rect x="3" y="3" width="1" height="1" fill="#49428b" /><rect x="3" y="4" width="1" height="1" fill="#48408b" /><rect x="3" y="5" width="1" height="1" fill="#48408b" /><rect x="3" y="6" width="1" height="1" fill="#48408b" /><rect x="3" y="7" width="1" height="1" fill="#48408b" /><rect x="3" y="8" width="1" height="1" fill="#48408b" /><rect x="3" y="9" width="1" height="1" fill="#48408b" /><rect x="4" y="0" width="1" height="1" fill="#c8c7d5" /><rect x="4" y="1" width="1" height="1" fill="#b2b1c6" /><rect x="4" y="2" width="1" height="1" fill="#332484" /><rect x="4" y="3" width="1" height="1" fill="#4b448b" /><rect x="4" y="4" width="1" height="1" fill="#48408b" /><rect x="4" y="5" width="1" height="1" fill="#48408b" /><rect x="4" y="6" width="1" height="1" fill="#48408b" /><rect x="4" y="7" width="1" height="1" fill="#48408b" /><rect x="4" y="8" width="1" height="1" fill="#48408b" /><rect x="4" y="9" width="1" height="1" fill="#48408b" /><rect x="5" y="0" width="1" height="1" fill="#e0dfe7" /><rect x="5" y="1" width="1" height="1" fill="#9f9db8" /><rect x="5" y="2" width="1" height="1" fill="#352784" /><rect x="5" y="3" width="1" height="1" fill="#4c448b" /><rect x="5" y="4" width="1" height="1" fill="#48408b" /><rect x="5" y="5" width="1" height="1" fill="#48408b" /><rect x="5" y="6" width="1" height="1" fill="#48408b" /><rect x="5" y="7" width="1" height="1" fill="#48408b" /><rect x="5" y="8" width="1" height="1" fill="#48408b" /><rect x="5" y="9" width="1" height="1" fill="#48408b" /><rect x="6" y="0" width="1" height="1" fill="#f1f0f4" /><rect x="6" y="1" width="1" height="1" fill="#aaa8c0" /><rect x="6" y="2" width="1" height="1" fill="#260d81" /><rect x="6" y="3" width="1" height="1" fill="#4e478c" /><rect x="6" y="4" width="1" height="1" fill="#48408b" /><rect x="6" y="5" width="1" height="1" fill="#48408b" /><rect x="6" y="6" width="1" height="1" fill="#48408b" /><rect x="6" y="7" width="1" height="1" fill="#48408b" /><rect x="6" y="8" width="1" height="1" fill="#48408b" /><rect x="6" y="9" width="1" height="1" fill="#48408b" /><rect x="7" y="0" width="1" height="1" fill="#bcbbcc" /><rect x="7" y="1" width="1" height="1" fill="#d4d4df" /><rect x="7" y="2" width="1" height="1" fill="#413688" /><rect x="7" y="3" width="1" height="1" fill="#49418b" /><rect x="7" y="4" width="1" height="1" fill="#49418b" /><rect x="7" y="5" width="1" height="1" fill="#48408b" /><rect x="7" y="6" width="1" height="1" fill="#48408b" /><rect x="7" y="7" width="1" height="1" fill="#48408b" /><rect x="7" y="8" width="1" height="1" fill="#48408b" /><rect x="7" y="9" width="1" height="1" fill="#48408b" /><rect x="8" y="0" width="1" height="1" fill="#dad9e3" /><rect x="8" y="1" width="1" height="1" fill="#afaec4" /><rect x="8" y="2" width="1" height="1" fill="#2e1c82" /><rect x="8" y="3" width="1" height="1" fill="#4e478c" /><rect x="8" y="4" width="1" height="1" fill="#48408b" /><rect x="8" y="5" width="1" height="1" fill="#48408b" /><rect x="8" y="6" width="1" height="1" fill="#48408b" /><rect x="8" y="7" width="1" height="1" fill="#48408b" /><rect x="8" y="8" width="1" height="1" fill="#48408b" /><rect x="8" y="9" width="1" height="1" fill="#48408b" /><rect x="9" y="0" width="1" height="1" fill="#716c9d" /><rect x="9" y="1" width="1" height="1" fill="#403688" /><rect x="9" y="2" width="1" height="1" fill="#463e8a" /><rect x="9" y="3" width="1" height="1" fill="#49418b" /><rect x="9" y="4" width="1" height="1" fill="#48408b" /><rect x="9" y="5" width="1" height="1" fill="#48408b" /><rect x="9" y="6" width="1" height="1" fill="#48408b" /><rect x="9" y="7" width="1" height="1" fill="#48408b" /><rect x="9" y="8" width="1" height="1" fill="#48408b" /><rect x="9" y="9" width="1" height="1" fill="#48408b" /></g></svg>