<svg width="800" height="1000" xmlns="http://www.w3.org/2000/svg"><defs><linearGradient id="g" x1="0" x2="1" y1="0" y2="1"><stop offset="0%" stop-color="#2d3c96"/><stop offset="100%" stop-color="#d53392"/></linearGradient></defs><rect x="10" y="10" width="780" height="980" fill="url(#g)" rx="50" ry="50" stroke="gold" stroke-width="20"/><text x="400" y="920" width="780" text-anchor="middle" style="font:bold 200px 'Helvetica Neue';fill:gold">08602</text><g transform="translate(80 80) scale(64)"><rect x="0" y="0" width="1" height="1" fill="#00007c" /><rect x="0" y="1" width="1" height="1" fill="#0a0085" /><rect x="0" y="2" width="1" height="1" fill="#423a8b" /><rect x="0" y="3" width="1" height="1" fill="#49418b" /><rect x="0" y="4" width="1" height="1" fill="#48408b" /><rect x="0" y="5" width="1" height="1" fill="#48408b" /><rect x="0" y="6" width="1" height="1" fill="#48408b" /><rect x="0" y="7" width="1" height="1" fill="#48408b" /><rect x="0" y="8" width="1" height="1" fill="#48408b" /><rect x="0" y="9" width="1" height="1" fill="#48408b" /><rect x="1" y="0" width="1" height="1" fill="#8987ab" /><rect x="1" y="1" width="1" height="1" fill="#615c94" /><rect x="1" y="2" width="1" height="1" fill="#443a88" /><rect x="1" y="3" width="1" height="1" fill="#49418c" /><rect x="1" y="4" width="1" height="1" fill="#48408b" /><rect x="1" y="5" width="1" height="1" fill="#48408b" /><rect x="1" y="6" width="1" height="1" fill="#48408b" /><rect x="1" y="7" width="1" height="1" fill="#48408b" /><rect x="1" y="8" width="1" height="1" fill="#48408b" /><rect x="1" y="9" width="1" height="1" fill="#48408b" /><rect x="2" y="0" width="1" height="1" fill="#f2f2f5" /><rect x="2" y="1" width="1" height="1" fill="#d7d6e1" /><rect x="2" y="2" width="1" height="1" fill="#10007e" /><rect x="2" y="3" width="1" height="1" fill="#4f488d" /><rect x="2" y="4" width="1" height="1" fill="#48408b" /><rect x="2" y="5" width="1" height="1" fill="#48408b" /><rect x="2" y="6" width="1" height="1" fill="#48408b" /><rect x="2" y="7" width="1" height="1" fill="#48408b" /><rect x="2" y="8" width="1" height="1" fill="#48408b" /><rect x="2" y="9" width="1" height="1" fill="#48408b" /><rect x="3" y="0" width="1" height="1" fill="#000076" /><rect x="3" y="1" width="1" height="1" fill="#9896b4" /><rect x="3" y="2" width="1" height="1" fill="#433989" /><rect x="3" y="3" width="1" height="1" fill="#49418b" /><rect x="3" y="4" width="1" height="1" fill="#48408b" /><rect x="3" y="5" width="1" height="1" fill="#48408b" /><rect x="3" y="6" width="1" height="1" fill="#48408b" /><rect x="3" y="7" width="1" height="1" fill="#48408b" /><rect x="3" y="8" width="1" height="1" fill="#48408b" /><rect x="3" y="9" width="1" height="1" fill="#48408b" /><rect x="4" y="0" width="1" height="1" fill="#bab9ca" /><rect x="4" y="1" width="1" height="1" fill="#8b89ac" /><rect x="4" y="2" width="1" height="1" fill="#3e3387" /><rect x="4" y="3" width="1" height="1" fill="#4a428c" /><rect x="4" y="4" width="1" height="1" fill="#48408b" /><rect x="4" y="5" width="1" height="1" fill="#48408b" /><rect x="4" y="6" width="1" height="1" fill="#48408b" /><rect x="4" y="7" width="1" height="1" fill="#48408b" /><rect x="4" y="8" width="1" height="1" fill="#48408b" /><rect x="4" y="9" width="1" height="1" fill="#48408b" /><rect x="5" y="0" width="1" height="1" fill="#e6e6eb" /><rect x="5" y="1" width="1" height="1" fill="#d5d4df" /><rect x="5" y="2" width="1" height="1" fill="#0a007d" /><rect x="5" y="3" width="1" height="1" fill="#4f488d" /><rect x="5" y="4" width="1" height="1" fill="#48408b" /><rect x="5" y="5" width="1" height="1" fill="#48408b" /><rect x="5" y="6" width="1" height="1" fill="#48408b" /><rect x="5" y="7" width="1" height="1" fill="#48408b" /><rect x="5" y="8" width="1" height="1" fill="#48408b" /><rect x="5" y="9" width="1" height="1" fill="#48408b" /><rect x="6" y="0" width="1" height="1" fill="#736f9e" /><rect x="6" y="1" width="1" height="1" fill="#d8d8e2" /><rect x="6" y="2" width="1" height="1" fill="#270f81" /><rect x="6" y="3" width="1" height="1" fill="#4c458d" /><rect x="6" y="4" width="1" height="1" fill="#49418b" /><rect x="6" y="5" width="1" height="1" fill="#48408b" /><rect x="6" y="6" width="1" height="1" fill="#48408b" /><rect x="6" y="7" width="1" height="1" fill="#48408b" /><rect x="6" y="8" width="1" height="1" fill="#48408b" /><rect x="6" y="9" width="1" height="1" fill="#48408b" /><rect x="7" y="0" width="1" height="1" fill="#eeeef2" /><rect x="7" y="1" width="1" height="1" fill="#b1afc5" /><rect x="7" y="2" width="1" height="1" fill="#281181" /><rect x="7" y="3" width="1" height="1" fill="#4d468c" /><rect x="7" y="4" width="1" height="1" fill="#48408b" /><rect x="7" y="5" width="1" height="1" fill="#48408b" /><rect x="7" y="6" width="1" height="1" fill="#48408b" /><rect x="7" y="7" width="1" height="1" fill="#48408b" /><rect x="7" y="8" width="1" height="1" fill="#48408b" /><rect x="7" y="9" width="1" height="1" fill="#48408b" /><rect x="8" y="0" width="1" height="1" fill="#ebebf0" /><rect x="8" y="1" width="1" height="1" fill="#6e6a9c" /><rect x="8" y="2" width="1" height="1" fill="#362885" /><rect x="8" y="3" width="1" height="1" fill="#4c458d" /><rect x="8" y="4" width="1" height="1" fill="#48408b" /><rect x="8" y="5" width="1" height="1" fill="#48408b" /><rect x="8" y="6" width="1" height="1" fill="#48408b" /><rect x="8" y="7" width="1" height="1" fill="#48408b" /><rect x="8" y="8" width="1" height="1" fill="#48408b" /><rect x="8" y="9" width="1" height="1" fill="#48408b" /><rect x="9" y="0" width="1" height="1" fill="#b8b7ca" /><rect x="9" y="1" width="1" height="1" fill="#d6d5e0" /><rect x="9" y="2" width="1" height="1" fill="#240880" /><rect x="9" y="3" width="1" height="1" fill="#4d468c" /><rect x="9" y="4" width="1" height="1" fill="#48418b" /><rect x="9" y="5" width="1" height="1" fill="#48408b" /><rect x="9" y="6" width="1" height="1" fill="#48408b" /><rect x="9" y="7" width="1" height="1" fill="#48408b" /><rect x="9" y="8" width="1" height="1" fill="#48408b" /><rect x="9" y="9" width="1" height="1" fill="#48408b" /></g></svg>