<svg width="800" height="1000" version="1.1" xmlns="http://www.w3.org/2000/svg" xmlns:xlink="http://www.w3.org/1999/xlink">
  <defs>
      <linearGradient id="Gradient2" x1="0" x2="1" y1="0" y2="1">
        <stop offset="0%" stop-color="#2d3c96"/>
        <stop offset="100%" stop-color="#d53392"/>
      </linearGradient>
  </defs>
  <rect x="10" y="10" width="780" height="980" fill="url(#Gradient2)" rx="50" ry="50" stroke="#ffd700" stroke-width="20"/>
  <text x="400" y="920" width="780" text-anchor="middle" style="font: bold 200px 'Helvetica Neue'; fill: #ffd700">09702</text>

  <g transform="translate(80 80) scale(64)">
<rect x="0" y="0" width="1" height="1" fill="#02E5E8" /><rect x="1" y="0" width="1" height="1" fill="#01E5E8" /><rect x="2" y="0" width="1" height="1" fill="#01E5E8" /><rect x="3" y="0" width="1" height="1" fill="#02E5E8" /><rect x="4" y="0" width="1" height="1" fill="#01E5E8" /><rect x="5" y="0" width="1" height="1" fill="#01E5E8" /><rect x="6" y="0" width="1" height="1" fill="#01E5E8" /><rect x="7" y="0" width="1" height="1" fill="#01E5E8" /><rect x="8" y="0" width="1" height="1" fill="#01E5E8" /><rect x="9" y="0" width="1" height="1" fill="#01E5E8" /><rect x="0" y="1" width="1" height="1" fill="#02E5E8" /><rect x="1" y="1" width="1" height="1" fill="#01E5E8" /><rect x="2" y="1" width="1" height="1" fill="#01E5E8" /><rect x="3" y="1" width="1" height="1" fill="#01E5E8" /><rect x="4" y="1" width="1" height="1" fill="#01E6E9" /><rect x="5" y="1" width="1" height="1" fill="#01E5E8" /><rect x="6" y="1" width="1" height="1" fill="#01E5E8" /><rect x="7" y="1" width="1" height="1" fill="#01E5E8" /><rect x="8" y="1" width="1" height="1" fill="#01E5E8" /><rect x="9" y="1" width="1" height="1" fill="#01E5E8" /><rect x="0" y="2" width="1" height="1" fill="#01E5E8" /><rect x="1" y="2" width="1" height="1" fill="#01E5E8" /><rect x="2" y="2" width="1" height="1" fill="#02E4E7" /><rect x="3" y="2" width="1" height="1" fill="#00EAEE" /><rect x="4" y="2" width="1" height="1" fill="#00F0F3" /><rect x="5" y="2" width="1" height="1" fill="#00E8EA" /><rect x="6" y="2" width="1" height="1" fill="#01E4E8" /><rect x="7" y="2" width="1" height="1" fill="#01E5E8" /><rect x="8" y="2" width="1" height="1" fill="#01E5E8" /><rect x="9" y="2" width="1" height="1" fill="#01E5E8" /><rect x="0" y="3" width="1" height="1" fill="#01E5E8" /><rect x="1" y="3" width="1" height="1" fill="#01E5E8" /><rect x="2" y="3" width="1" height="1" fill="#00EDF1" /><rect x="3" y="3" width="1" height="1" fill="#0FD9DC" /><rect x="4" y="3" width="1" height="1" fill="#36C6C8" /><rect x="5" y="3" width="1" height="1" fill="#00EEEF" /><rect x="6" y="3" width="1" height="1" fill="#00EFEE" /><rect x="7" y="3" width="1" height="1" fill="#02E4E8" /><rect x="8" y="3" width="1" height="1" fill="#01E5E8" /><rect x="9" y="3" width="1" height="1" fill="#02E5E8" /><rect x="0" y="4" width="1" height="1" fill="#02E5E8" /><rect x="1" y="4" width="1" height="1" fill="#00EBEF" /><rect x="2" y="4" width="1" height="1" fill="#00ECF0" /><rect x="3" y="4" width="1" height="1" fill="#88AAA0" /><rect x="4" y="4" width="1" height="1" fill="#F3747C" /><rect x="5" y="4" width="1" height="1" fill="#599AB6" /><rect x="6" y="4" width="1" height="1" fill="#00EEEE" /><rect x="7" y="4" width="1" height="1" fill="#00F7F2" /><rect x="8" y="4" width="1" height="1" fill="#02E3E8" /><rect x="9" y="4" width="1" height="1" fill="#01E5E8" /><rect x="0" y="5" width="1" height="1" fill="#01E9EC" /><rect x="1" y="5" width="1" height="1" fill="#00EBF2" /><rect x="2" y="5" width="1" height="1" fill="#5BB8B1" /><rect x="3" y="5" width="1" height="1" fill="#DF997E" /><rect x="4" y="5" width="1" height="1" fill="#CC968D" /><rect x="5" y="5" width="1" height="1" fill="#E56A87" /><rect x="6" y="5" width="1" height="1" fill="#7676A7" /><rect x="7" y="5" width="1" height="1" fill="#00E3E6" /><rect x="8" y="5" width="1" height="1" fill="#00FFF5" /><rect x="9" y="5" width="1" height="1" fill="#01E5E9" /><rect x="0" y="6" width="1" height="1" fill="#00F2F7" /><rect x="1" y="6" width="1" height="1" fill="#34C3C2" /><rect x="2" y="6" width="1" height="1" fill="#E2907F" /><rect x="3" y="6" width="1" height="1" fill="#C3A08B" /><rect x="4" y="6" width="1" height="1" fill="#B6A491" /><rect x="5" y="6" width="1" height="1" fill="#C59894" /><rect x="6" y="6" width="1" height="1" fill="#E56587" /><rect x="7" y="6" width="1" height="1" fill="#9C519A" /><rect x="8" y="6" width="1" height="1" fill="#15C6D5" /><rect x="9" y="6" width="1" height="1" fill="#00FFF6" /><rect x="0" y="7" width="1" height="1" fill="#10D3D7" /><rect x="1" y="7" width="1" height="1" fill="#CB978B" /><rect x="2" y="7" width="1" height="1" fill="#D09687" /><rect x="3" y="7" width="1" height="1" fill="#B39A8E" /><rect x="4" y="7" width="1" height="1" fill="#B8A38E" /><rect x="5" y="7" width="1" height="1" fill="#BC9D93" /><rect x="6" y="7" width="1" height="1" fill="#C09C98" /><rect x="7" y="7" width="1" height="1" fill="#E0638A" /><rect x="8" y="7" width="1" height="1" fill="#B9328D" /><rect x="9" y="7" width="1" height="1" fill="#32A8C7" /><rect x="0" y="8" width="1" height="1" fill="#9AA197" /><rect x="1" y="8" width="1" height="1" fill="#DD9089" /><rect x="2" y="8" width="1" height="1" fill="#B19A8E" /><rect x="3" y="8" width="1" height="1" fill="#B6978E" /><rect x="4" y="8" width="1" height="1" fill="#BAA090" /><rect x="5" y="8" width="1" height="1" fill="#BCA590" /><rect x="6" y="8" width="1" height="1" fill="#BF9895" /><rect x="7" y="8" width="1" height="1" fill="#BC9C97" /><rect x="8" y="8" width="1" height="1" fill="#CF688F" /><rect x="9" y="8" width="1" height="1" fill="#BE3490" /><rect x="0" y="9" width="1" height="1" fill="#CA9787" /><rect x="1" y="9" width="1" height="1" fill="#B69794" /><rect x="2" y="9" width="1" height="1" fill="#B79A8F" /><rect x="3" y="9" width="1" height="1" fill="#B89C8E" /><rect x="4" y="9" width="1" height="1" fill="#B99890" /><rect x="5" y="9" width="1" height="1" fill="#B59C8C" /><rect x="6" y="9" width="1" height="1" fill="#BC9892" /><rect x="7" y="9" width="1" height="1" fill="#BF9496" /><rect x="8" y="9" width="1" height="1" fill="#BB9495" /><rect x="9" y="9" width="1" height="1" fill="#C26D95" />
  </g>
</svg>