<svg width="800" height="1000" xmlns="http://www.w3.org/2000/svg"><defs><linearGradient id="g" x1="0" x2="1" y1="0" y2="1"><stop offset="0%" stop-color="#2d3c96"/><stop offset="100%" stop-color="#d53392"/></linearGradient></defs><rect x="10" y="10" width="780" height="980" fill="url(#g)" rx="50" ry="50" stroke="gold" stroke-width="20"/><text x="400" y="920" width="780" text-anchor="middle" style="font:bold 200px 'Helvetica Neue';fill:gold">09702</text><g transform="translate(80 80) scale(64)"><rect x="0" y="0" width="1" height="1" fill="#02e5e8" /><rect x="0" y="1" width="1" height="1" fill="#02e5e8" /><rect x="0" y="2" width="1" height="1" fill="#01e5e8" /><rect x="0" y="3" width="1" height="1" fill="#01e5e8" /><rect x="0" y="4" width="1" height="1" fill="#02e5e8" /><rect x="0" y="5" width="1" height="1" fill="#01e9ec" /><rect x="0" y="6" width="1" height="1" fill="#00f2f7" /><rect x="0" y="7" width="1" height="1" fill="#10d3d7" /><rect x="0" y="8" width="1" height="1" fill="#9aa197" /><rect x="0" y="9" width="1" height="1" fill="#ca9787" /><rect x="1" y="0" width="1" height="1" fill="#01e5e8" /><rect x="1" y="1" width="1" height="1" fill="#01e5e8" /><rect x="1" y="2" width="1" height="1" fill="#01e5e8" /><rect x="1" y="3" width="1" height="1" fill="#01e5e8" /><rect x="1" y="4" width="1" height="1" fill="#00ebef" /><rect x="1" y="5" width="1" height="1" fill="#00ebf2" /><rect x="1" y="6" width="1" height="1" fill="#34c3c2" /><rect x="1" y="7" width="1" height="1" fill="#cb978b" /><rect x="1" y="8" width="1" height="1" fill="#dd9089" /><rect x="1" y="9" width="1" height="1" fill="#b69794" /><rect x="2" y="0" width="1" height="1" fill="#01e5e8" /><rect x="2" y="1" width="1" height="1" fill="#01e5e8" /><rect x="2" y="2" width="1" height="1" fill="#02e4e7" /><rect x="2" y="3" width="1" height="1" fill="#00edf1" /><rect x="2" y="4" width="1" height="1" fill="#00ecf0" /><rect x="2" y="5" width="1" height="1" fill="#5bb8b1" /><rect x="2" y="6" width="1" height="1" fill="#e2907f" /><rect x="2" y="7" width="1" height="1" fill="#d09687" /><rect x="2" y="8" width="1" height="1" fill="#b19a8e" /><rect x="2" y="9" width="1" height="1" fill="#b79a8f" /><rect x="3" y="0" width="1" height="1" fill="#02e5e8" /><rect x="3" y="1" width="1" height="1" fill="#01e5e8" /><rect x="3" y="2" width="1" height="1" fill="#00eaee" /><rect x="3" y="3" width="1" height="1" fill="#0fd9dc" /><rect x="3" y="4" width="1" height="1" fill="#88aaa0" /><rect x="3" y="5" width="1" height="1" fill="#df997e" /><rect x="3" y="6" width="1" height="1" fill="#c3a08b" /><rect x="3" y="7" width="1" height="1" fill="#b39a8e" /><rect x="3" y="8" width="1" height="1" fill="#b6978e" /><rect x="3" y="9" width="1" height="1" fill="#b89c8e" /><rect x="4" y="0" width="1" height="1" fill="#01e5e8" /><rect x="4" y="1" width="1" height="1" fill="#01e6e9" /><rect x="4" y="2" width="1" height="1" fill="#00f0f3" /><rect x="4" y="3" width="1" height="1" fill="#36c6c8" /><rect x="4" y="4" width="1" height="1" fill="#f3747c" /><rect x="4" y="5" width="1" height="1" fill="#cc968d" /><rect x="4" y="6" width="1" height="1" fill="#b6a491" /><rect x="4" y="7" width="1" height="1" fill="#b8a38e" /><rect x="4" y="8" width="1" height="1" fill="#baa090" /><rect x="4" y="9" width="1" height="1" fill="#b99890" /><rect x="5" y="0" width="1" height="1" fill="#01e5e8" /><rect x="5" y="1" width="1" height="1" fill="#01e5e8" /><rect x="5" y="2" width="1" height="1" fill="#00e8ea" /><rect x="5" y="3" width="1" height="1" fill="#00eeef" /><rect x="5" y="4" width="1" height="1" fill="#599ab6" /><rect x="5" y="5" width="1" height="1" fill="#e56a87" /><rect x="5" y="6" width="1" height="1" fill="#c59894" /><rect x="5" y="7" width="1" height="1" fill="#bc9d93" /><rect x="5" y="8" width="1" height="1" fill="#bca590" /><rect x="5" y="9" width="1" height="1" fill="#b59c8c" /><rect x="6" y="0" width="1" height="1" fill="#01e5e8" /><rect x="6" y="1" width="1" height="1" fill="#01e5e8" /><rect x="6" y="2" width="1" height="1" fill="#01e4e8" /><rect x="6" y="3" width="1" height="1" fill="#00efee" /><rect x="6" y="4" width="1" height="1" fill="#00eeee" /><rect x="6" y="5" width="1" height="1" fill="#7676a7" /><rect x="6" y="6" width="1" height="1" fill="#e56587" /><rect x="6" y="7" width="1" height="1" fill="#c09c98" /><rect x="6" y="8" width="1" height="1" fill="#bf9895" /><rect x="6" y="9" width="1" height="1" fill="#bc9892" /><rect x="7" y="0" width="1" height="1" fill="#01e5e8" /><rect x="7" y="1" width="1" height="1" fill="#01e5e8" /><rect x="7" y="2" width="1" height="1" fill="#01e5e8" /><rect x="7" y="3" width="1" height="1" fill="#02e4e8" /><rect x="7" y="4" width="1" height="1" fill="#00f7f2" /><rect x="7" y="5" width="1" height="1" fill="#00e3e6" /><rect x="7" y="6" width="1" height="1" fill="#9c519a" /><rect x="7" y="7" width="1" height="1" fill="#e0638a" /><rect x="7" y="8" width="1" height="1" fill="#bc9c97" /><rect x="7" y="9" width="1" height="1" fill="#bf9496" /><rect x="8" y="0" width="1" height="1" fill="#01e5e8" /><rect x="8" y="1" width="1" height="1" fill="#01e5e8" /><rect x="8" y="2" width="1" height="1" fill="#01e5e8" /><rect x="8" y="3" width="1" height="1" fill="#01e5e8" /><rect x="8" y="4" width="1" height="1" fill="#02e3e8" /><rect x="8" y="5" width="1" height="1" fill="#00fff5" /><rect x="8" y="6" width="1" height="1" fill="#15c6d5" /><rect x="8" y="7" width="1" height="1" fill="#b9328d" /><rect x="8" y="8" width="1" height="1" fill="#cf688f" /><rect x="8" y="9" width="1" height="1" fill="#bb9495" /><rect x="9" y="0" width="1" height="1" fill="#01e5e8" /><rect x="9" y="1" width="1" height="1" fill="#01e5e8" /><rect x="9" y="2" width="1" height="1" fill="#01e5e8" /><rect x="9" y="3" width="1" height="1" fill="#02e5e8" /><rect x="9" y="4" width="1" height="1" fill="#01e5e8" /><rect x="9" y="5" width="1" height="1" fill="#01e5e9" /><rect x="9" y="6" width="1" height="1" fill="#00fff6" /><rect x="9" y="7" width="1" height="1" fill="#32a8c7" /><rect x="9" y="8" width="1" height="1" fill="#be3490" /><rect x="9" y="9" width="1" height="1" fill="#c26d95" /></g></svg>