<svg width="800" height="1000" version="1.1" xmlns="http://www.w3.org/2000/svg" xmlns:xlink="http://www.w3.org/1999/xlink">
  <defs>
      <linearGradient id="Gradient2" x1="0" x2="1" y1="0" y2="1">
        <stop offset="0%" stop-color="#2d3c96"/>
        <stop offset="100%" stop-color="#d53392"/>
      </linearGradient>
  </defs>
  <rect x="10" y="10" width="780" height="980" fill="url(#Gradient2)" rx="50" ry="50" stroke="#ffd700" stroke-width="20"/>
  <text x="400" y="920" width="780" text-anchor="middle" style="font: bold 200px 'Helvetica Neue'; fill: #ffd700">09803</text>

  <g transform="translate(80 80) scale(64)">
<rect x="0" y="0" width="1" height="1" fill="#BC6C97" /><rect x="1" y="0" width="1" height="1" fill="#C5328F" /><rect x="2" y="0" width="1" height="1" fill="#7B64A6" /><rect x="3" y="0" width="1" height="1" fill="#00EEE5" /><rect x="4" y="0" width="1" height="1" fill="#00FCF3" /><rect x="5" y="0" width="1" height="1" fill="#02E1E7" /><rect x="6" y="0" width="1" height="1" fill="#01E5E8" /><rect x="7" y="0" width="1" height="1" fill="#01E5E8" /><rect x="8" y="0" width="1" height="1" fill="#01E5E8" /><rect x="9" y="0" width="1" height="1" fill="#01E5E8" /><rect x="0" y="1" width="1" height="1" fill="#C08E98" /><rect x="1" y="1" width="1" height="1" fill="#BC7099" /><rect x="2" y="1" width="1" height="1" fill="#D52488" /><rect x="3" y="1" width="1" height="1" fill="#8E4B99" /><rect x="4" y="1" width="1" height="1" fill="#14D4DB" /><rect x="5" y="1" width="1" height="1" fill="#00F2EE" /><rect x="6" y="1" width="1" height="1" fill="#01E5E8" /><rect x="7" y="1" width="1" height="1" fill="#01E5E8" /><rect x="8" y="1" width="1" height="1" fill="#01E5E8" /><rect x="9" y="1" width="1" height="1" fill="#01E5E8" /><rect x="0" y="2" width="1" height="1" fill="#C08D98" /><rect x="1" y="2" width="1" height="1" fill="#C19099" /><rect x="2" y="2" width="1" height="1" fill="#B86C97" /><rect x="3" y="2" width="1" height="1" fill="#E91783" /><rect x="4" y="2" width="1" height="1" fill="#6671AB" /><rect x="5" y="2" width="1" height="1" fill="#00FDF0" /><rect x="6" y="2" width="1" height="1" fill="#01E8EA" /><rect x="7" y="2" width="1" height="1" fill="#01E5E8" /><rect x="8" y="2" width="1" height="1" fill="#01E5E8" /><rect x="9" y="2" width="1" height="1" fill="#01E5E8" /><rect x="0" y="3" width="1" height="1" fill="#BC8995" /><rect x="1" y="3" width="1" height="1" fill="#BB8395" /><rect x="2" y="3" width="1" height="1" fill="#C08C97" /><rect x="3" y="3" width="1" height="1" fill="#DD518C" /><rect x="4" y="3" width="1" height="1" fill="#607CA5" /><rect x="5" y="3" width="1" height="1" fill="#00F2EB" /><rect x="6" y="3" width="1" height="1" fill="#01E8EB" /><rect x="7" y="3" width="1" height="1" fill="#01E5E8" /><rect x="8" y="3" width="1" height="1" fill="#01E5E8" /><rect x="9" y="3" width="1" height="1" fill="#01E5E8" /><rect x="0" y="4" width="1" height="1" fill="#C09C95" /><rect x="1" y="4" width="1" height="1" fill="#BF8A97" /><rect x="2" y="4" width="1" height="1" fill="#BF8498" /><rect x="3" y="4" width="1" height="1" fill="#D76A85" /><rect x="4" y="4" width="1" height="1" fill="#3F7B91" /><rect x="5" y="4" width="1" height="1" fill="#00F1EF" /><rect x="6" y="4" width="1" height="1" fill="#01E8EB" /><rect x="7" y="4" width="1" height="1" fill="#01E5E8" /><rect x="8" y="4" width="1" height="1" fill="#02E5E8" /><rect x="9" y="4" width="1" height="1" fill="#02E5E8" /><rect x="0" y="5" width="1" height="1" fill="#BD9794" /><rect x="1" y="5" width="1" height="1" fill="#BD9493" /><rect x="2" y="5" width="1" height="1" fill="#D194A4" /><rect x="3" y="5" width="1" height="1" fill="#B1516A" /><rect x="4" y="5" width="1" height="1" fill="#0F5D6E" /><rect x="5" y="5" width="1" height="1" fill="#00FBFB" /><rect x="6" y="5" width="1" height="1" fill="#01E8EB" /><rect x="7" y="5" width="1" height="1" fill="#01E5E8" /><rect x="8" y="5" width="1" height="1" fill="#01E5E8" /><rect x="9" y="5" width="1" height="1" fill="#01E5E8" /><rect x="0" y="6" width="1" height="1" fill="#BC9094" /><rect x="1" y="6" width="1" height="1" fill="#B78D90" /><rect x="2" y="6" width="1" height="1" fill="#DDA9AB" /><rect x="3" y="6" width="1" height="1" fill="#6C183A" /><rect x="4" y="6" width="1" height="1" fill="#00465E" /><rect x="5" y="6" width="1" height="1" fill="#00FFFF" /><rect x="6" y="6" width="1" height="1" fill="#00E8EB" /><rect x="7" y="6" width="1" height="1" fill="#01E5E8" /><rect x="8" y="6" width="1" height="1" fill="#01E5E8" /><rect x="9" y="6" width="1" height="1" fill="#01E5E8" /><rect x="0" y="7" width="1" height="1" fill="#BC9792" /><rect x="1" y="7" width="1" height="1" fill="#D3ABA3" /><rect x="2" y="7" width="1" height="1" fill="#B0878B" /><rect x="3" y="7" width="1" height="1" fill="#220008" /><rect x="4" y="7" width="1" height="1" fill="#0E596E" /><rect x="5" y="7" width="1" height="1" fill="#00FFFF" /><rect x="6" y="7" width="1" height="1" fill="#01E8EB" /><rect x="7" y="7" width="1" height="1" fill="#01E5E8" /><rect x="8" y="7" width="1" height="1" fill="#01E5E8" /><rect x="9" y="7" width="1" height="1" fill="#01E5E8" /><rect x="0" y="8" width="1" height="1" fill="#C4A797" /><rect x="1" y="8" width="1" height="1" fill="#D9B1A7" /><rect x="2" y="8" width="1" height="1" fill="#4C304A" /><rect x="3" y="8" width="1" height="1" fill="#150000" /><rect x="4" y="8" width="1" height="1" fill="#1D5066" /><rect x="5" y="8" width="1" height="1" fill="#00FFFF" /><rect x="6" y="8" width="1" height="1" fill="#01E8EB" /><rect x="7" y="8" width="1" height="1" fill="#01E5E8" /><rect x="8" y="8" width="1" height="1" fill="#01E5E8" /><rect x="9" y="8" width="1" height="1" fill="#01E5E8" /><rect x="0" y="9" width="1" height="1" fill="#D2B3A1" /><rect x="1" y="9" width="1" height="1" fill="#7B5C66" /><rect x="2" y="9" width="1" height="1" fill="#090013" /><rect x="3" y="9" width="1" height="1" fill="#2A091E" /><rect x="4" y="9" width="1" height="1" fill="#0F95A1" /><rect x="5" y="9" width="1" height="1" fill="#00FBFC" /><rect x="6" y="9" width="1" height="1" fill="#01E7EA" /><rect x="7" y="9" width="1" height="1" fill="#01E5E8" /><rect x="8" y="9" width="1" height="1" fill="#02E5E8" /><rect x="9" y="9" width="1" height="1" fill="#01E5E8" />
  </g>
</svg>