<svg width="800" height="1000" version="1.1" xmlns="http://www.w3.org/2000/svg" xmlns:xlink="http://www.w3.org/1999/xlink">
  <defs>
      <linearGradient id="Gradient2" x1="0" x2="1" y1="0" y2="1">
        <stop offset="0%" stop-color="#2d3c96"/>
        <stop offset="100%" stop-color="#d53392"/>
      </linearGradient>
  </defs>
  <rect x="10" y="10" width="780" height="980" fill="url(#Gradient2)" rx="50" ry="50" stroke="#ffd700" stroke-width="20"/>
  <text x="400" y="920" width="780" text-anchor="middle" style="font: bold 200px 'Helvetica Neue'; fill: #ffd700">09801</text>

  <g transform="translate(80 80) scale(64)">
<rect x="0" y="0" width="1" height="1" fill="#02E5E8" /><rect x="1" y="0" width="1" height="1" fill="#01E5E8" /><rect x="2" y="0" width="1" height="1" fill="#01E5E8" /><rect x="3" y="0" width="1" height="1" fill="#02E5E8" /><rect x="4" y="0" width="1" height="1" fill="#01E5E8" /><rect x="5" y="0" width="1" height="1" fill="#01E5E8" /><rect x="6" y="0" width="1" height="1" fill="#01E7EA" /><rect x="7" y="0" width="1" height="1" fill="#00EFF6" /><rect x="8" y="0" width="1" height="1" fill="#3FC2BE" /><rect x="9" y="0" width="1" height="1" fill="#D49988" /><rect x="0" y="1" width="1" height="1" fill="#01E5E8" /><rect x="1" y="1" width="1" height="1" fill="#01E5E8" /><rect x="2" y="1" width="1" height="1" fill="#02E5E8" /><rect x="3" y="1" width="1" height="1" fill="#01E5E8" /><rect x="4" y="1" width="1" height="1" fill="#01E5E8" /><rect x="5" y="1" width="1" height="1" fill="#01E5E8" /><rect x="6" y="1" width="1" height="1" fill="#00F0F5" /><rect x="7" y="1" width="1" height="1" fill="#16D3D4" /><rect x="8" y="1" width="1" height="1" fill="#CC9287" /><rect x="9" y="1" width="1" height="1" fill="#CD9A8C" /><rect x="0" y="2" width="1" height="1" fill="#01E5E8" /><rect x="1" y="2" width="1" height="1" fill="#01E5E8" /><rect x="2" y="2" width="1" height="1" fill="#01E5E8" /><rect x="3" y="2" width="1" height="1" fill="#01E5E8" /><rect x="4" y="2" width="1" height="1" fill="#02E5E8" /><rect x="5" y="2" width="1" height="1" fill="#00EDF2" /><rect x="6" y="2" width="1" height="1" fill="#00E2E7" /><rect x="7" y="2" width="1" height="1" fill="#A59C95" /><rect x="8" y="2" width="1" height="1" fill="#DD9284" /><rect x="9" y="2" width="1" height="1" fill="#B69D92" /><rect x="0" y="3" width="1" height="1" fill="#01E5E8" /><rect x="1" y="3" width="1" height="1" fill="#01E5E8" /><rect x="2" y="3" width="1" height="1" fill="#01E5E8" /><rect x="3" y="3" width="1" height="1" fill="#01E5E8" /><rect x="4" y="3" width="1" height="1" fill="#00E8EC" /><rect x="5" y="3" width="1" height="1" fill="#00EDEF" /><rect x="6" y="3" width="1" height="1" fill="#70ACA5" /><rect x="7" y="3" width="1" height="1" fill="#E38A80" /><rect x="8" y="3" width="1" height="1" fill="#BC9E94" /><rect x="9" y="3" width="1" height="1" fill="#BDA094" /><rect x="0" y="4" width="1" height="1" fill="#01E5E8" /><rect x="1" y="4" width="1" height="1" fill="#01E5E8" /><rect x="2" y="4" width="1" height="1" fill="#01E5E8" /><rect x="3" y="4" width="1" height="1" fill="#01E6EA" /><rect x="4" y="4" width="1" height="1" fill="#00EAF2" /><rect x="5" y="4" width="1" height="1" fill="#47C0BD" /><rect x="6" y="4" width="1" height="1" fill="#E39C7E" /><rect x="7" y="4" width="1" height="1" fill="#BB948C" /><rect x="8" y="4" width="1" height="1" fill="#BD9296" /><rect x="9" y="4" width="1" height="1" fill="#C1A395" /><rect x="0" y="5" width="1" height="1" fill="#01E5E8" /><rect x="1" y="5" width="1" height="1" fill="#01E5E8" /><rect x="2" y="5" width="1" height="1" fill="#01E5E8" /><rect x="3" y="5" width="1" height="1" fill="#00E8EA" /><rect x="4" y="5" width="1" height="1" fill="#00F5F0" /><rect x="5" y="5" width="1" height="1" fill="#6F6FA9" /><rect x="6" y="5" width="1" height="1" fill="#E07282" /><rect x="7" y="5" width="1" height="1" fill="#B7B38E" /><rect x="8" y="5" width="1" height="1" fill="#BB9193" /><rect x="9" y="5" width="1" height="1" fill="#BE9694" /><rect x="0" y="6" width="1" height="1" fill="#01E5E8" /><rect x="1" y="6" width="1" height="1" fill="#01E5E8" /><rect x="2" y="6" width="1" height="1" fill="#00E5E8" /><rect x="3" y="6" width="1" height="1" fill="#01E8EA" /><rect x="4" y="6" width="1" height="1" fill="#00FFEF" /><rect x="5" y="6" width="1" height="1" fill="#5D62B0" /><rect x="6" y="6" width="1" height="1" fill="#CB1089" /><rect x="7" y="6" width="1" height="1" fill="#B8A68E" /><rect x="8" y="6" width="1" height="1" fill="#C0B292" /><rect x="9" y="6" width="1" height="1" fill="#C09496" /><rect x="0" y="7" width="1" height="1" fill="#01E5E8" /><rect x="1" y="7" width="1" height="1" fill="#01E5E8" /><rect x="2" y="7" width="1" height="1" fill="#01E5E8" /><rect x="3" y="7" width="1" height="1" fill="#00E8EA" /><rect x="4" y="7" width="1" height="1" fill="#00FDEF" /><rect x="5" y="7" width="1" height="1" fill="#6177B0" /><rect x="6" y="7" width="1" height="1" fill="#C70089" /><rect x="7" y="7" width="1" height="1" fill="#AC4192" /><rect x="8" y="7" width="1" height="1" fill="#BBAD8E" /><rect x="9" y="7" width="1" height="1" fill="#C1A295" /><rect x="0" y="8" width="1" height="1" fill="#01E5E8" /><rect x="1" y="8" width="1" height="1" fill="#01E5E8" /><rect x="2" y="8" width="1" height="1" fill="#02E5E8" /><rect x="3" y="8" width="1" height="1" fill="#01E8EA" /><rect x="4" y="8" width="1" height="1" fill="#00FDEF" /><rect x="5" y="8" width="1" height="1" fill="#6075B0" /><rect x="6" y="8" width="1" height="1" fill="#CA0E88" /><rect x="7" y="8" width="1" height="1" fill="#A81295" /><rect x="8" y="8" width="1" height="1" fill="#AD5590" /><rect x="9" y="8" width="1" height="1" fill="#BEAB91" /><rect x="0" y="9" width="1" height="1" fill="#01E5E8" /><rect x="1" y="9" width="1" height="1" fill="#01E5E8" /><rect x="2" y="9" width="1" height="1" fill="#01E5E8" /><rect x="3" y="9" width="1" height="1" fill="#01E8EA" /><rect x="4" y="9" width="1" height="1" fill="#00FEEF" /><rect x="5" y="9" width="1" height="1" fill="#6075B0" /><rect x="6" y="9" width="1" height="1" fill="#C90F88" /><rect x="7" y="9" width="1" height="1" fill="#AB2A94" /><rect x="8" y="9" width="1" height="1" fill="#AA1896" /><rect x="9" y="9" width="1" height="1" fill="#B36992" />
  </g>
</svg>