<svg width="800" height="1000" version="1.1" xmlns="http://www.w3.org/2000/svg" xmlns:xlink="http://www.w3.org/1999/xlink">
  <defs>
      <linearGradient id="Gradient2" x1="0" x2="1" y1="0" y2="1">
        <stop offset="0%" stop-color="#2d3c96"/>
        <stop offset="100%" stop-color="#d53392"/>
      </linearGradient>
  </defs>
  <rect x="10" y="10" width="780" height="980" fill="url(#Gradient2)" rx="50" ry="50" stroke="#ffd700" stroke-width="20"/>
  <text x="400" y="920" width="780" text-anchor="middle" style="font: bold 200px 'Helvetica Neue'; fill: #ffd700">09802</text>

  <g transform="translate(80 80) scale(64)">
<rect x="0" y="0" width="1" height="1" fill="#b6998d" />
,<rect x="0" y="1" width="1" height="1" fill="#b79a8e" />
,<rect x="0" y="2" width="1" height="1" fill="#b89b8f" />
,<rect x="0" y="3" width="1" height="1" fill="#b89d8e" />
,<rect x="0" y="4" width="1" height="1" fill="#b8a18e" />
,<rect x="0" y="5" width="1" height="1" fill="#b6a18c" />
,<rect x="0" y="6" width="1" height="1" fill="#b99a90" />
,<rect x="0" y="7" width="1" height="1" fill="#b99690" />
,<rect x="0" y="8" width="1" height="1" fill="#bd9a93" />
,<rect x="0" y="9" width="1" height="1" fill="#c19597" />
,<rect x="1" y="0" width="1" height="1" fill="#b8998f" />
,<rect x="1" y="1" width="1" height="1" fill="#bb9d90" />
,<rect x="1" y="2" width="1" height="1" fill="#bb9c90" />
,<rect x="1" y="3" width="1" height="1" fill="#bd9c92" />
,<rect x="1" y="4" width="1" height="1" fill="#be9c94" />
,<rect x="1" y="5" width="1" height="1" fill="#bd9d93" />
,<rect x="1" y="6" width="1" height="1" fill="#b8a28d" />
,<rect x="1" y="7" width="1" height="1" fill="#b69e8d" />
,<rect x="1" y="8" width="1" height="1" fill="#b89d8f" />
,<rect x="1" y="9" width="1" height="1" fill="#bb9f90" />
,<rect x="2" y="0" width="1" height="1" fill="#bb9492" />
,<rect x="2" y="1" width="1" height="1" fill="#bf9994" />
,<rect x="2" y="2" width="1" height="1" fill="#bea093" />
,<rect x="2" y="3" width="1" height="1" fill="#ba9a90" />
,<rect x="2" y="4" width="1" height="1" fill="#be9f93" />
,<rect x="2" y="5" width="1" height="1" fill="#bf9b95" />
,<rect x="2" y="6" width="1" height="1" fill="#bc9793" />
,<rect x="2" y="7" width="1" height="1" fill="#b99b90" />
,<rect x="2" y="8" width="1" height="1" fill="#b59b8c" />
,<rect x="2" y="9" width="1" height="1" fill="#b29a8b" />
,<rect x="3" y="0" width="1" height="1" fill="#b69e8d" />
,<rect x="3" y="1" width="1" height="1" fill="#b89e8e" />
,<rect x="3" y="2" width="1" height="1" fill="#bc9d92" />
,<rect x="3" y="3" width="1" height="1" fill="#be9c93" />
,<rect x="3" y="4" width="1" height="1" fill="#c09f95" />
,<rect x="3" y="5" width="1" height="1" fill="#bea093" />
,<rect x="3" y="6" width="1" height="1" fill="#bea093" />
,<rect x="3" y="7" width="1" height="1" fill="#bd9594" />
,<rect x="3" y="8" width="1" height="1" fill="#c39a98" />
,<rect x="3" y="9" width="1" height="1" fill="#c09896" />
,<rect x="4" y="0" width="1" height="1" fill="#b6988e" />
,<rect x="4" y="1" width="1" height="1" fill="#b79f8d" />
,<rect x="4" y="2" width="1" height="1" fill="#baa68f" />
,<rect x="4" y="3" width="1" height="1" fill="#bca391" />
,<rect x="4" y="4" width="1" height="1" fill="#b99990" />
,<rect x="4" y="5" width="1" height="1" fill="#ba9c90" />
,<rect x="4" y="6" width="1" height="1" fill="#bba190" />
,<rect x="4" y="7" width="1" height="1" fill="#b89c8e" />
,<rect x="4" y="8" width="1" height="1" fill="#ba9b90" />
,<rect x="4" y="9" width="1" height="1" fill="#bc9b92" />
,<rect x="5" y="0" width="1" height="1" fill="#bb9c91" />
,<rect x="5" y="1" width="1" height="1" fill="#be9994" />
,<rect x="5" y="2" width="1" height="1" fill="#bc9b92" />
,<rect x="5" y="3" width="1" height="1" fill="#b6a08c" />
,<rect x="5" y="4" width="1" height="1" fill="#b29e8a" />
,<rect x="5" y="5" width="1" height="1" fill="#b6a08d" />
,<rect x="5" y="6" width="1" height="1" fill="#b79b8e" />
,<rect x="5" y="7" width="1" height="1" fill="#b7988e" />
,<rect x="5" y="8" width="1" height="1" fill="#b69f8d" />
,<rect x="5" y="9" width="1" height="1" fill="#b6a18c" />
,<rect x="6" y="0" width="1" height="1" fill="#c0a194" />
,<rect x="6" y="1" width="1" height="1" fill="#bc9f91" />
,<rect x="6" y="2" width="1" height="1" fill="#bc9a92" />
,<rect x="6" y="3" width="1" height="1" fill="#b48c8e" />
,<rect x="6" y="4" width="1" height="1" fill="#b89c8f" />
,<rect x="6" y="5" width="1" height="1" fill="#b79e8d" />
,<rect x="6" y="6" width="1" height="1" fill="#b49a8b" />
,<rect x="6" y="7" width="1" height="1" fill="#b6a18c" />
,<rect x="6" y="8" width="1" height="1" fill="#b59c8c" />
,<rect x="6" y="9" width="1" height="1" fill="#b79f8d" />
,<rect x="7" y="0" width="1" height="1" fill="#bc9794" />
,<rect x="7" y="1" width="1" height="1" fill="#bc9d92" />
,<rect x="7" y="2" width="1" height="1" fill="#b99d90" />
,<rect x="7" y="3" width="1" height="1" fill="#bb9b91" />
,<rect x="7" y="4" width="1" height="1" fill="#bf9695" />
,<rect x="7" y="5" width="1" height="1" fill="#bf9794" />
,<rect x="7" y="6" width="1" height="1" fill="#ba9692" />
,<rect x="7" y="7" width="1" height="1" fill="#bb9d91" />
,<rect x="7" y="8" width="1" height="1" fill="#b79b8e" />
,<rect x="7" y="9" width="1" height="1" fill="#b9a18f" />
,<rect x="8" y="0" width="1" height="1" fill="#be9495" />
,<rect x="8" y="1" width="1" height="1" fill="#bd9394" />
,<rect x="8" y="2" width="1" height="1" fill="#bb9792" />
,<rect x="8" y="3" width="1" height="1" fill="#bd9f92" />
,<rect x="8" y="4" width="1" height="1" fill="#ba9b90" />
,<rect x="8" y="5" width="1" height="1" fill="#b99790" />
,<rect x="8" y="6" width="1" height="1" fill="#c09f95" />
,<rect x="8" y="7" width="1" height="1" fill="#c19697" />
,<rect x="8" y="8" width="1" height="1" fill="#c19696" />
,<rect x="8" y="9" width="1" height="1" fill="#bd9794" />
,<rect x="9" y="0" width="1" height="1" fill="#bd8596" />
,<rect x="9" y="1" width="1" height="1" fill="#be8f95" />
,<rect x="9" y="2" width="1" height="1" fill="#bb9092" />
,<rect x="9" y="3" width="1" height="1" fill="#bc9894" />
,<rect x="9" y="4" width="1" height="1" fill="#bc9794" />
,<rect x="9" y="5" width="1" height="1" fill="#b99490" />
,<rect x="9" y="6" width="1" height="1" fill="#b89e8e" />
,<rect x="9" y="7" width="1" height="1" fill="#b69c8c" />
,<rect x="9" y="8" width="1" height="1" fill="#b99a90" />
,<rect x="9" y="9" width="1" height="1" fill="#bd9994" />

  </g>
</svg>