<svg width="800" height="1000" version="1.1" xmlns="http://www.w3.org/2000/svg" xmlns:xlink="http://www.w3.org/1999/xlink">
  <defs>
      <linearGradient id="Gradient2" x1="0" x2="1" y1="0" y2="1">
        <stop offset="0%" stop-color="#2d3c96"/>
        <stop offset="100%" stop-color="#d53392"/>
      </linearGradient>
  </defs>
  <rect x="10" y="10" width="780" height="980" fill="url(#Gradient2)" rx="50" ry="50" stroke="#ffd700" stroke-width="20"/>
  <text x="400" y="920" width="780" text-anchor="middle" style="font: bold 200px 'Helvetica Neue'; fill: #ffd700">09902</text>

  <g transform="translate(80 80) scale(64)">
<rect x="0" y="0" width="1" height="1" fill="#BA7796" /><rect x="1" y="0" width="1" height="1" fill="#C0AE92" /><rect x="2" y="0" width="1" height="1" fill="#B6A48C" /><rect x="3" y="0" width="1" height="1" fill="#BB9492" /><rect x="4" y="0" width="1" height="1" fill="#BB9192" /><rect x="5" y="0" width="1" height="1" fill="#B79C8E" /><rect x="6" y="0" width="1" height="1" fill="#BBA390" /><rect x="7" y="0" width="1" height="1" fill="#B9A38E" /><rect x="8" y="0" width="1" height="1" fill="#B6988D" /><rect x="9" y="0" width="1" height="1" fill="#C19797" /><rect x="0" y="1" width="1" height="1" fill="#AB1B94" /><rect x="1" y="1" width="1" height="1" fill="#B98195" /><rect x="2" y="1" width="1" height="1" fill="#B8B58B" /><rect x="3" y="1" width="1" height="1" fill="#B99F8F" /><rect x="4" y="1" width="1" height="1" fill="#BE9595" /><rect x="5" y="1" width="1" height="1" fill="#B89690" /><rect x="6" y="1" width="1" height="1" fill="#B7998E" /><rect x="7" y="1" width="1" height="1" fill="#B09A88" /><rect x="8" y="1" width="1" height="1" fill="#C2A996" /><rect x="9" y="1" width="1" height="1" fill="#C29E95" /><rect x="0" y="2" width="1" height="1" fill="#C10388" /><rect x="1" y="2" width="1" height="1" fill="#BB0E90" /><rect x="2" y="2" width="1" height="1" fill="#B38F90" /><rect x="3" y="2" width="1" height="1" fill="#B9B88B" /><rect x="4" y="2" width="1" height="1" fill="#BE9495" /><rect x="5" y="2" width="1" height="1" fill="#BD9993" /><rect x="6" y="2" width="1" height="1" fill="#B79B8D" /><rect x="7" y="2" width="1" height="1" fill="#B8A390" /><rect x="8" y="2" width="1" height="1" fill="#DDB9A1" /><rect x="9" y="2" width="1" height="1" fill="#682F3F" /><rect x="0" y="3" width="1" height="1" fill="#4B94BB" /><rect x="1" y="3" width="1" height="1" fill="#A71991" /><rect x="2" y="3" width="1" height="1" fill="#D10485" /><rect x="3" y="3" width="1" height="1" fill="#BF9887" /><rect x="4" y="3" width="1" height="1" fill="#B5A78E" /><rect x="5" y="3" width="1" height="1" fill="#BE9196" /><rect x="6" y="3" width="1" height="1" fill="#B6A291" /><rect x="7" y="3" width="1" height="1" fill="#DDA894" /><rect x="8" y="3" width="1" height="1" fill="#854049" /><rect x="9" y="3" width="1" height="1" fill="#00506A" /><rect x="0" y="4" width="1" height="1" fill="#00FFF6" /><rect x="1" y="4" width="1" height="1" fill="#0BDBDB" /><rect x="2" y="4" width="1" height="1" fill="#6759AE" /><rect x="3" y="4" width="1" height="1" fill="#BC2888" /><rect x="4" y="4" width="1" height="1" fill="#DB927F" /><rect x="5" y="4" width="1" height="1" fill="#BC9292" /><rect x="6" y="4" width="1" height="1" fill="#D78F88" /><rect x="7" y="4" width="1" height="1" fill="#9C6562" /><rect x="8" y="4" width="1" height="1" fill="#037B8E" /><rect x="9" y="4" width="1" height="1" fill="#00FFFF" /><rect x="0" y="5" width="1" height="1" fill="#01E5E9" /><rect x="1" y="5" width="1" height="1" fill="#00FAF2" /><rect x="2" y="5" width="1" height="1" fill="#00FFF3" /><rect x="3" y="5" width="1" height="1" fill="#1EA5D1" /><rect x="4" y="5" width="1" height="1" fill="#837B9D" /><rect x="5" y="5" width="1" height="1" fill="#FDB38D" /><rect x="6" y="5" width="1" height="1" fill="#C89F8F" /><rect x="7" y="5" width="1" height="1" fill="#0BB0B9" /><rect x="8" y="5" width="1" height="1" fill="#00FCFF" /><rect x="9" y="5" width="1" height="1" fill="#01EFF1" /><rect x="0" y="6" width="1" height="1" fill="#01E5E8" /><rect x="1" y="6" width="1" height="1" fill="#01E4E8" /><rect x="2" y="6" width="1" height="1" fill="#00E8EB" /><rect x="3" y="6" width="1" height="1" fill="#00FFF4" /><rect x="4" y="6" width="1" height="1" fill="#00E3E9" /><rect x="5" y="6" width="1" height="1" fill="#56DECB" /><rect x="6" y="6" width="1" height="1" fill="#25E9DC" /><rect x="7" y="6" width="1" height="1" fill="#00EFF7" /><rect x="8" y="6" width="1" height="1" fill="#02E9EB" /><rect x="9" y="6" width="1" height="1" fill="#01E4E7" /><rect x="0" y="7" width="1" height="1" fill="#01E5E8" /><rect x="1" y="7" width="1" height="1" fill="#02E5E8" /><rect x="2" y="7" width="1" height="1" fill="#02E5E8" /><rect x="3" y="7" width="1" height="1" fill="#01E5E8" /><rect x="4" y="7" width="1" height="1" fill="#00ECEC" /><rect x="5" y="7" width="1" height="1" fill="#00E5F0" /><rect x="6" y="7" width="1" height="1" fill="#00E5EE" /><rect x="7" y="7" width="1" height="1" fill="#02E7E9" /><rect x="8" y="7" width="1" height="1" fill="#01E5E8" /><rect x="9" y="7" width="1" height="1" fill="#01E5E8" /><rect x="0" y="8" width="1" height="1" fill="#01E5E8" /><rect x="1" y="8" width="1" height="1" fill="#02E5E8" /><rect x="2" y="8" width="1" height="1" fill="#01E5E8" /><rect x="3" y="8" width="1" height="1" fill="#01E5E8" /><rect x="4" y="8" width="1" height="1" fill="#02E5E8" /><rect x="5" y="8" width="1" height="1" fill="#01E6E9" /><rect x="6" y="8" width="1" height="1" fill="#01E6E9" /><rect x="7" y="8" width="1" height="1" fill="#01E5E8" /><rect x="8" y="8" width="1" height="1" fill="#00E5E8" /><rect x="9" y="8" width="1" height="1" fill="#01E5E8" /><rect x="0" y="9" width="1" height="1" fill="#01E5E8" /><rect x="1" y="9" width="1" height="1" fill="#01E5E8" /><rect x="2" y="9" width="1" height="1" fill="#01E5E8" /><rect x="3" y="9" width="1" height="1" fill="#01E5E8" /><rect x="4" y="9" width="1" height="1" fill="#02E5E8" /><rect x="5" y="9" width="1" height="1" fill="#01E5E8" /><rect x="6" y="9" width="1" height="1" fill="#02E5E8" /><rect x="7" y="9" width="1" height="1" fill="#01E5E8" /><rect x="8" y="9" width="1" height="1" fill="#00E5E8" /><rect x="9" y="9" width="1" height="1" fill="#01E5E8" />
  </g>
</svg>