<svg width="800" height="1000" xmlns="http://www.w3.org/2000/svg"><defs><linearGradient id="g" x1="0" x2="1" y1="0" y2="1"><stop offset="0%" stop-color="#2d3c96"/><stop offset="100%" stop-color="#d53392"/></linearGradient></defs><rect x="10" y="10" width="780" height="980" fill="url(#g)" rx="50" ry="50" stroke="gold" stroke-width="20"/><text x="400" y="920" width="780" text-anchor="middle" style="font:bold 200px 'Helvetica Neue';fill:gold">09902</text><g transform="translate(80 80) scale(64)"><rect x="0" y="0" width="1" height="1" fill="#ba7796" /><rect x="0" y="1" width="1" height="1" fill="#ab1b94" /><rect x="0" y="2" width="1" height="1" fill="#c10388" /><rect x="0" y="3" width="1" height="1" fill="#4b94bb" /><rect x="0" y="4" width="1" height="1" fill="#00fff6" /><rect x="0" y="5" width="1" height="1" fill="#01e5e9" /><rect x="0" y="6" width="1" height="1" fill="#01e5e8" /><rect x="0" y="7" width="1" height="1" fill="#01e5e8" /><rect x="0" y="8" width="1" height="1" fill="#01e5e8" /><rect x="0" y="9" width="1" height="1" fill="#01e5e8" /><rect x="1" y="0" width="1" height="1" fill="#c0ae92" /><rect x="1" y="1" width="1" height="1" fill="#b98195" /><rect x="1" y="2" width="1" height="1" fill="#bb0e90" /><rect x="1" y="3" width="1" height="1" fill="#a71991" /><rect x="1" y="4" width="1" height="1" fill="#0bdbdb" /><rect x="1" y="5" width="1" height="1" fill="#00faf2" /><rect x="1" y="6" width="1" height="1" fill="#01e4e8" /><rect x="1" y="7" width="1" height="1" fill="#02e5e8" /><rect x="1" y="8" width="1" height="1" fill="#02e5e8" /><rect x="1" y="9" width="1" height="1" fill="#01e5e8" /><rect x="2" y="0" width="1" height="1" fill="#b6a48c" /><rect x="2" y="1" width="1" height="1" fill="#b8b58b" /><rect x="2" y="2" width="1" height="1" fill="#b38f90" /><rect x="2" y="3" width="1" height="1" fill="#d10485" /><rect x="2" y="4" width="1" height="1" fill="#6759ae" /><rect x="2" y="5" width="1" height="1" fill="#00fff3" /><rect x="2" y="6" width="1" height="1" fill="#00e8eb" /><rect x="2" y="7" width="1" height="1" fill="#02e5e8" /><rect x="2" y="8" width="1" height="1" fill="#01e5e8" /><rect x="2" y="9" width="1" height="1" fill="#01e5e8" /><rect x="3" y="0" width="1" height="1" fill="#bb9492" /><rect x="3" y="1" width="1" height="1" fill="#b99f8f" /><rect x="3" y="2" width="1" height="1" fill="#b9b88b" /><rect x="3" y="3" width="1" height="1" fill="#bf9887" /><rect x="3" y="4" width="1" height="1" fill="#bc2888" /><rect x="3" y="5" width="1" height="1" fill="#1ea5d1" /><rect x="3" y="6" width="1" height="1" fill="#00fff4" /><rect x="3" y="7" width="1" height="1" fill="#01e5e8" /><rect x="3" y="8" width="1" height="1" fill="#01e5e8" /><rect x="3" y="9" width="1" height="1" fill="#01e5e8" /><rect x="4" y="0" width="1" height="1" fill="#bb9192" /><rect x="4" y="1" width="1" height="1" fill="#be9595" /><rect x="4" y="2" width="1" height="1" fill="#be9495" /><rect x="4" y="3" width="1" height="1" fill="#b5a78e" /><rect x="4" y="4" width="1" height="1" fill="#db927f" /><rect x="4" y="5" width="1" height="1" fill="#837b9d" /><rect x="4" y="6" width="1" height="1" fill="#00e3e9" /><rect x="4" y="7" width="1" height="1" fill="#00ecec" /><rect x="4" y="8" width="1" height="1" fill="#02e5e8" /><rect x="4" y="9" width="1" height="1" fill="#02e5e8" /><rect x="5" y="0" width="1" height="1" fill="#b79c8e" /><rect x="5" y="1" width="1" height="1" fill="#b89690" /><rect x="5" y="2" width="1" height="1" fill="#bd9993" /><rect x="5" y="3" width="1" height="1" fill="#be9196" /><rect x="5" y="4" width="1" height="1" fill="#bc9292" /><rect x="5" y="5" width="1" height="1" fill="#fdb38d" /><rect x="5" y="6" width="1" height="1" fill="#56decb" /><rect x="5" y="7" width="1" height="1" fill="#00e5f0" /><rect x="5" y="8" width="1" height="1" fill="#01e6e9" /><rect x="5" y="9" width="1" height="1" fill="#01e5e8" /><rect x="6" y="0" width="1" height="1" fill="#bba390" /><rect x="6" y="1" width="1" height="1" fill="#b7998e" /><rect x="6" y="2" width="1" height="1" fill="#b79b8d" /><rect x="6" y="3" width="1" height="1" fill="#b6a291" /><rect x="6" y="4" width="1" height="1" fill="#d78f88" /><rect x="6" y="5" width="1" height="1" fill="#c89f8f" /><rect x="6" y="6" width="1" height="1" fill="#25e9dc" /><rect x="6" y="7" width="1" height="1" fill="#00e5ee" /><rect x="6" y="8" width="1" height="1" fill="#01e6e9" /><rect x="6" y="9" width="1" height="1" fill="#02e5e8" /><rect x="7" y="0" width="1" height="1" fill="#b9a38e" /><rect x="7" y="1" width="1" height="1" fill="#b09a88" /><rect x="7" y="2" width="1" height="1" fill="#b8a390" /><rect x="7" y="3" width="1" height="1" fill="#dda894" /><rect x="7" y="4" width="1" height="1" fill="#9c6562" /><rect x="7" y="5" width="1" height="1" fill="#0bb0b9" /><rect x="7" y="6" width="1" height="1" fill="#00eff7" /><rect x="7" y="7" width="1" height="1" fill="#02e7e9" /><rect x="7" y="8" width="1" height="1" fill="#01e5e8" /><rect x="7" y="9" width="1" height="1" fill="#01e5e8" /><rect x="8" y="0" width="1" height="1" fill="#b6988d" /><rect x="8" y="1" width="1" height="1" fill="#c2a996" /><rect x="8" y="2" width="1" height="1" fill="#ddb9a1" /><rect x="8" y="3" width="1" height="1" fill="#854049" /><rect x="8" y="4" width="1" height="1" fill="#037b8e" /><rect x="8" y="5" width="1" height="1" fill="#00fcff" /><rect x="8" y="6" width="1" height="1" fill="#02e9eb" /><rect x="8" y="7" width="1" height="1" fill="#01e5e8" /><rect x="8" y="8" width="1" height="1" fill="#00e5e8" /><rect x="8" y="9" width="1" height="1" fill="#00e5e8" /><rect x="9" y="0" width="1" height="1" fill="#c19797" /><rect x="9" y="1" width="1" height="1" fill="#c29e95" /><rect x="9" y="2" width="1" height="1" fill="#682f3f" /><rect x="9" y="3" width="1" height="1" fill="#00506a" /><rect x="9" y="4" width="1" height="1" fill="#00ffff" /><rect x="9" y="5" width="1" height="1" fill="#01eff1" /><rect x="9" y="6" width="1" height="1" fill="#01e4e7" /><rect x="9" y="7" width="1" height="1" fill="#01e5e8" /><rect x="9" y="8" width="1" height="1" fill="#01e5e8" /><rect x="9" y="9" width="1" height="1" fill="#01e5e8" /></g></svg>