<svg width="800" height="1000" xmlns="http://www.w3.org/2000/svg"><defs><linearGradient id="g" x1="0" x2="1" y1="0" y2="1"><stop offset="0%" stop-color="#2d3c96"/><stop offset="100%" stop-color="#d53392"/></linearGradient></defs><rect x="10" y="10" width="780" height="980" fill="url(#g)" rx="50" ry="50" stroke="gold" stroke-width="20"/><text x="400" y="920" width="780" text-anchor="middle" style="font:bold 200px 'Helvetica Neue';fill:gold">09901</text><g transform="translate(80 80) scale(64)"><rect x="0" y="0" width="1" height="1" fill="#01e5e8" /><rect x="0" y="1" width="1" height="1" fill="#01e5e8" /><rect x="0" y="2" width="1" height="1" fill="#01e5e8" /><rect x="0" y="3" width="1" height="1" fill="#01e5e8" /><rect x="0" y="4" width="1" height="1" fill="#01e5e8" /><rect x="0" y="5" width="1" height="1" fill="#01e5e8" /><rect x="0" y="6" width="1" height="1" fill="#01e5e8" /><rect x="0" y="7" width="1" height="1" fill="#01e5e8" /><rect x="0" y="8" width="1" height="1" fill="#02e5e8" /><rect x="0" y="9" width="1" height="1" fill="#02e5e8" /><rect x="1" y="0" width="1" height="1" fill="#01e5e8" /><rect x="1" y="1" width="1" height="1" fill="#01e5e8" /><rect x="1" y="2" width="1" height="1" fill="#01e5e8" /><rect x="1" y="3" width="1" height="1" fill="#01e5e8" /><rect x="1" y="4" width="1" height="1" fill="#01e5e8" /><rect x="1" y="5" width="1" height="1" fill="#00e5e8" /><rect x="1" y="6" width="1" height="1" fill="#01e5e8" /><rect x="1" y="7" width="1" height="1" fill="#02e5e8" /><rect x="1" y="8" width="1" height="1" fill="#01e5e8" /><rect x="1" y="9" width="1" height="1" fill="#01e5e8" /><rect x="2" y="0" width="1" height="1" fill="#02e5e8" /><rect x="2" y="1" width="1" height="1" fill="#01e5e8" /><rect x="2" y="2" width="1" height="1" fill="#02e5e8" /><rect x="2" y="3" width="1" height="1" fill="#01e5e8" /><rect x="2" y="4" width="1" height="1" fill="#01e5e8" /><rect x="2" y="5" width="1" height="1" fill="#01e5e8" /><rect x="2" y="6" width="1" height="1" fill="#01e5e8" /><rect x="2" y="7" width="1" height="1" fill="#01e5e8" /><rect x="2" y="8" width="1" height="1" fill="#01e5e8" /><rect x="2" y="9" width="1" height="1" fill="#01e5e8" /><rect x="3" y="0" width="1" height="1" fill="#01e7ea" /><rect x="3" y="1" width="1" height="1" fill="#02e5e8" /><rect x="3" y="2" width="1" height="1" fill="#01e5e8" /><rect x="3" y="3" width="1" height="1" fill="#01e5e8" /><rect x="3" y="4" width="1" height="1" fill="#02e5e8" /><rect x="3" y="5" width="1" height="1" fill="#01e5e8" /><rect x="3" y="6" width="1" height="1" fill="#01e5e8" /><rect x="3" y="7" width="1" height="1" fill="#01e5e8" /><rect x="3" y="8" width="1" height="1" fill="#01e5e8" /><rect x="3" y="9" width="1" height="1" fill="#01e5e8" /><rect x="4" y="0" width="1" height="1" fill="#00fbf0" /><rect x="4" y="1" width="1" height="1" fill="#01e5e9" /><rect x="4" y="2" width="1" height="1" fill="#01e4e7" /><rect x="4" y="3" width="1" height="1" fill="#01e5e8" /><rect x="4" y="4" width="1" height="1" fill="#01e5e8" /><rect x="4" y="5" width="1" height="1" fill="#01e5e8" /><rect x="4" y="6" width="1" height="1" fill="#01e5e8" /><rect x="4" y="7" width="1" height="1" fill="#01e5e8" /><rect x="4" y="8" width="1" height="1" fill="#01e5e8" /><rect x="4" y="9" width="1" height="1" fill="#01e5e8" /><rect x="5" y="0" width="1" height="1" fill="#4399bf" /><rect x="5" y="1" width="1" height="1" fill="#00f8ee" /><rect x="5" y="2" width="1" height="1" fill="#00e7ea" /><rect x="5" y="3" width="1" height="1" fill="#01e5e8" /><rect x="5" y="4" width="1" height="1" fill="#01e5e8" /><rect x="5" y="5" width="1" height="1" fill="#01e5e8" /><rect x="5" y="6" width="1" height="1" fill="#01e5e8" /><rect x="5" y="7" width="1" height="1" fill="#01e5e8" /><rect x="5" y="8" width="1" height="1" fill="#01e5e8" /><rect x="5" y="9" width="1" height="1" fill="#01e5e8" /><rect x="6" y="0" width="1" height="1" fill="#c50c84" /><rect x="6" y="1" width="1" height="1" fill="#1cc5d1" /><rect x="6" y="2" width="1" height="1" fill="#00fff5" /><rect x="6" y="3" width="1" height="1" fill="#02e4e8" /><rect x="6" y="4" width="1" height="1" fill="#02e5e8" /><rect x="6" y="5" width="1" height="1" fill="#01e5e8" /><rect x="6" y="6" width="1" height="1" fill="#01e5e8" /><rect x="6" y="7" width="1" height="1" fill="#02e5e8" /><rect x="6" y="8" width="1" height="1" fill="#02e5e8" /><rect x="6" y="9" width="1" height="1" fill="#00e5e8" /><rect x="7" y="0" width="1" height="1" fill="#cd0b87" /><rect x="7" y="1" width="1" height="1" fill="#8254a1" /><rect x="7" y="2" width="1" height="1" fill="#00fded" /><rect x="7" y="3" width="1" height="1" fill="#00eced" /><rect x="7" y="4" width="1" height="1" fill="#02e5e8" /><rect x="7" y="5" width="1" height="1" fill="#01e5e8" /><rect x="7" y="6" width="1" height="1" fill="#01e5e8" /><rect x="7" y="7" width="1" height="1" fill="#02e5e8" /><rect x="7" y="8" width="1" height="1" fill="#01e5e8" /><rect x="7" y="9" width="1" height="1" fill="#01e5e8" /><rect x="8" y="0" width="1" height="1" fill="#af2a94" /><rect x="8" y="1" width="1" height="1" fill="#c70c85" /><rect x="8" y="2" width="1" height="1" fill="#38a4c3" /><rect x="8" y="3" width="1" height="1" fill="#00fff5" /><rect x="8" y="4" width="1" height="1" fill="#02e4e8" /><rect x="8" y="5" width="1" height="1" fill="#01e5e8" /><rect x="8" y="6" width="1" height="1" fill="#01e5e8" /><rect x="8" y="7" width="1" height="1" fill="#01e5e8" /><rect x="8" y="8" width="1" height="1" fill="#01e5e8" /><rect x="8" y="9" width="1" height="1" fill="#01e5e8" /><rect x="9" y="0" width="1" height="1" fill="#a93095" /><rect x="9" y="1" width="1" height="1" fill="#c6138b" /><rect x="9" y="2" width="1" height="1" fill="#973d98" /><rect x="9" y="3" width="1" height="1" fill="#00e1e0" /><rect x="9" y="4" width="1" height="1" fill="#00f0ee" /><rect x="9" y="5" width="1" height="1" fill="#01e5e8" /><rect x="9" y="6" width="1" height="1" fill="#01e5e8" /><rect x="9" y="7" width="1" height="1" fill="#01e5e8" /><rect x="9" y="8" width="1" height="1" fill="#01e5e8" /><rect x="9" y="9" width="1" height="1" fill="#01e5e8" /></g></svg>