<svg width="800" height="1000" version="1.1" xmlns="http://www.w3.org/2000/svg" xmlns:xlink="http://www.w3.org/1999/xlink">
  <defs>
      <linearGradient id="Gradient2" x1="0" x2="1" y1="0" y2="1">
        <stop offset="0%" stop-color="#2d3c96"/>
        <stop offset="100%" stop-color="#d53392"/>
      </linearGradient>
  </defs>
  <rect x="10" y="10" width="780" height="980" fill="url(#Gradient2)" rx="50" ry="50" stroke="#ffd700" stroke-width="20"/>
  <text x="400" y="920" width="780" text-anchor="middle" style="font: bold 200px 'Helvetica Neue'; fill: #ffd700">09968</text>

  <g transform="translate(80 80) scale(64)">
<rect x="0" y="0" width="1" height="1" fill="#FFFFFF" /><rect x="1" y="0" width="1" height="1" fill="#FFFFFF" /><rect x="2" y="0" width="1" height="1" fill="#FFFFFF" /><rect x="3" y="0" width="1" height="1" fill="#FFFFFF" /><rect x="4" y="0" width="1" height="1" fill="#3C6016" /><rect x="5" y="0" width="1" height="1" fill="#3E5C1F" /><rect x="6" y="0" width="1" height="1" fill="#FFFFFF" /><rect x="7" y="0" width="1" height="1" fill="#FFFFFF" /><rect x="8" y="0" width="1" height="1" fill="#FFFFFF" /><rect x="9" y="0" width="1" height="1" fill="#FFFFFF" /><rect x="0" y="1" width="1" height="1" fill="#FFFFFF" /><rect x="1" y="1" width="1" height="1" fill="#FFFFFF" /><rect x="2" y="1" width="1" height="1" fill="#E9ECE8" /><rect x="3" y="1" width="1" height="1" fill="#A18D45" /><rect x="4" y="1" width="1" height="1" fill="#CAA13F" /><rect x="5" y="1" width="1" height="1" fill="#D8AB4D" /><rect x="6" y="1" width="1" height="1" fill="#B3AC6D" /><rect x="7" y="1" width="1" height="1" fill="#FFFFFF" /><rect x="8" y="1" width="1" height="1" fill="#FFFFFF" /><rect x="9" y="1" width="1" height="1" fill="#FFFFFF" /><rect x="0" y="2" width="1" height="1" fill="#FFFFFF" /><rect x="1" y="2" width="1" height="1" fill="#48721D" /><rect x="2" y="2" width="1" height="1" fill="#A5C894" /><rect x="3" y="2" width="1" height="1" fill="#FFEC46" /><rect x="4" y="2" width="1" height="1" fill="#FFF063" /><rect x="5" y="2" width="1" height="1" fill="#FDF07F" /><rect x="6" y="2" width="1" height="1" fill="#FDE66C" /><rect x="7" y="2" width="1" height="1" fill="#F1C44F" /><rect x="8" y="2" width="1" height="1" fill="#FFFFFF" /><rect x="9" y="2" width="1" height="1" fill="#FFFFFF" /><rect x="0" y="3" width="1" height="1" fill="#618D32" /><rect x="1" y="3" width="1" height="1" fill="#537D25" /><rect x="2" y="3" width="1" height="1" fill="#8DB376" /><rect x="3" y="3" width="1" height="1" fill="#FFE241" /><rect x="4" y="3" width="1" height="1" fill="#FFED57" /><rect x="5" y="3" width="1" height="1" fill="#FEEE75" /><rect x="6" y="3" width="1" height="1" fill="#FDED7E" /><rect x="7" y="3" width="1" height="1" fill="#FCE25D" /><rect x="8" y="3" width="1" height="1" fill="#E2B55B" /><rect x="9" y="3" width="1" height="1" fill="#FFFFFF" /><rect x="0" y="4" width="1" height="1" fill="#4F7628" /><rect x="1" y="4" width="1" height="1" fill="#6A963A" /><rect x="2" y="4" width="1" height="1" fill="#5B8B31" /><rect x="3" y="4" width="1" height="1" fill="#F8CA2B" /><rect x="4" y="4" width="1" height="1" fill="#FEE143" /><rect x="5" y="4" width="1" height="1" fill="#FEE451" /><rect x="6" y="4" width="1" height="1" fill="#FEE357" /><rect x="7" y="4" width="1" height="1" fill="#FCDE57" /><rect x="8" y="4" width="1" height="1" fill="#EEC652" /><rect x="9" y="4" width="1" height="1" fill="#F3D4A0" /><rect x="0" y="5" width="1" height="1" fill="#51782A" /><rect x="1" y="5" width="1" height="1" fill="#6AA02E" /><rect x="2" y="5" width="1" height="1" fill="#88811E" /><rect x="3" y="5" width="1" height="1" fill="#E2B519" /><rect x="4" y="5" width="1" height="1" fill="#FBD233" /><rect x="5" y="5" width="1" height="1" fill="#FCD437" /><rect x="6" y="5" width="1" height="1" fill="#F8D33B" /><rect x="7" y="5" width="1" height="1" fill="#F6D042" /><rect x="8" y="5" width="1" height="1" fill="#EBC447" /><rect x="9" y="5" width="1" height="1" fill="#E3B362" /><rect x="0" y="6" width="1" height="1" fill="#FAFCF7" /><rect x="1" y="6" width="1" height="1" fill="#6EA438" /><rect x="2" y="6" width="1" height="1" fill="#C1912C" /><rect x="3" y="6" width="1" height="1" fill="#D0A31C" /><rect x="4" y="6" width="1" height="1" fill="#E8BC28" /><rect x="5" y="6" width="1" height="1" fill="#EFC72F" /><rect x="6" y="6" width="1" height="1" fill="#ECC430" /><rect x="7" y="6" width="1" height="1" fill="#E2BA2C" /><rect x="8" y="6" width="1" height="1" fill="#D6AE30" /><rect x="9" y="6" width="1" height="1" fill="#D2A555" /><rect x="0" y="7" width="1" height="1" fill="#FFFFFF" /><rect x="1" y="7" width="1" height="1" fill="#FFFFFF" /><rect x="2" y="7" width="1" height="1" fill="#EAB04F" /><rect x="3" y="7" width="1" height="1" fill="#C6991D" /><rect x="4" y="7" width="1" height="1" fill="#D0A624" /><rect x="5" y="7" width="1" height="1" fill="#D7AF2D" /><rect x="6" y="7" width="1" height="1" fill="#D2AA2C" /><rect x="7" y="7" width="1" height="1" fill="#C7A022" /><rect x="8" y="7" width="1" height="1" fill="#BB961E" /><rect x="9" y="7" width="1" height="1" fill="#CCA45E" /><rect x="0" y="8" width="1" height="1" fill="#FFFFFF" /><rect x="1" y="8" width="1" height="1" fill="#FFFFFF" /><rect x="2" y="8" width="1" height="1" fill="#FFFFFF" /><rect x="3" y="8" width="1" height="1" fill="#DEA548" /><rect x="4" y="8" width="1" height="1" fill="#B38D1C" /><rect x="5" y="8" width="1" height="1" fill="#B08E1D" /><rect x="6" y="8" width="1" height="1" fill="#AD8B20" /><rect x="7" y="8" width="1" height="1" fill="#A7861B" /><rect x="8" y="8" width="1" height="1" fill="#A4841E" /><rect x="9" y="8" width="1" height="1" fill="#CCA45E" /><rect x="0" y="9" width="1" height="1" fill="#FFFFFF" /><rect x="1" y="9" width="1" height="1" fill="#FFFFFF" /><rect x="2" y="9" width="1" height="1" fill="#FFFFFF" /><rect x="3" y="9" width="1" height="1" fill="#FFFFFF" /><rect x="4" y="9" width="1" height="1" fill="#FFFFFF" /><rect x="5" y="9" width="1" height="1" fill="#D0A45B" /><rect x="6" y="9" width="1" height="1" fill="#BE913A" /><rect x="7" y="9" width="1" height="1" fill="#C0923D" /><rect x="8" y="9" width="1" height="1" fill="#D0A44A" /><rect x="9" y="9" width="1" height="1" fill="#FFFFFF" />
  </g>
</svg>