<svg width="800" height="1000" version="1.1" xmlns="http://www.w3.org/2000/svg" xmlns:xlink="http://www.w3.org/1999/xlink">
  <defs>
      <linearGradient id="Gradient2" x1="0" x2="1" y1="0" y2="1">
        <stop offset="0%" stop-color="#2d3c96"/>
        <stop offset="100%" stop-color="#d53392"/>
      </linearGradient>
  </defs>
  <rect x="10" y="10" width="780" height="980" fill="url(#Gradient2)" rx="50" ry="50" stroke="#ffd700" stroke-width="20"/>
  <text x="400" y="920" width="780" text-anchor="middle" style="font: bold 200px 'Helvetica Neue'; fill: #ffd700">09968</text>

  <g transform="translate(80 80) scale(64)">
<rect x="0" y="0" width="1" height="1" fill="#ffffff" />
,<rect x="0" y="1" width="1" height="1" fill="#ffffff" />
,<rect x="0" y="2" width="1" height="1" fill="#ffffff" />
,<rect x="0" y="3" width="1" height="1" fill="#618d32" />
,<rect x="0" y="4" width="1" height="1" fill="#4f7628" />
,<rect x="0" y="5" width="1" height="1" fill="#51782a" />
,<rect x="0" y="6" width="1" height="1" fill="#fafcf7" />
,<rect x="0" y="7" width="1" height="1" fill="#ffffff" />
,<rect x="0" y="8" width="1" height="1" fill="#ffffff" />
,<rect x="0" y="9" width="1" height="1" fill="#ffffff" />
,<rect x="1" y="0" width="1" height="1" fill="#ffffff" />
,<rect x="1" y="1" width="1" height="1" fill="#ffffff" />
,<rect x="1" y="2" width="1" height="1" fill="#48721d" />
,<rect x="1" y="3" width="1" height="1" fill="#537d25" />
,<rect x="1" y="4" width="1" height="1" fill="#6a963a" />
,<rect x="1" y="5" width="1" height="1" fill="#6aa02e" />
,<rect x="1" y="6" width="1" height="1" fill="#6ea438" />
,<rect x="1" y="7" width="1" height="1" fill="#ffffff" />
,<rect x="1" y="8" width="1" height="1" fill="#ffffff" />
,<rect x="1" y="9" width="1" height="1" fill="#ffffff" />
,<rect x="2" y="0" width="1" height="1" fill="#ffffff" />
,<rect x="2" y="1" width="1" height="1" fill="#e9ece8" />
,<rect x="2" y="2" width="1" height="1" fill="#a5c894" />
,<rect x="2" y="3" width="1" height="1" fill="#8db376" />
,<rect x="2" y="4" width="1" height="1" fill="#5b8b31" />
,<rect x="2" y="5" width="1" height="1" fill="#88811e" />
,<rect x="2" y="6" width="1" height="1" fill="#c1912c" />
,<rect x="2" y="7" width="1" height="1" fill="#eab04f" />
,<rect x="2" y="8" width="1" height="1" fill="#ffffff" />
,<rect x="2" y="9" width="1" height="1" fill="#ffffff" />
,<rect x="3" y="0" width="1" height="1" fill="#ffffff" />
,<rect x="3" y="1" width="1" height="1" fill="#a18d45" />
,<rect x="3" y="2" width="1" height="1" fill="#ffec46" />
,<rect x="3" y="3" width="1" height="1" fill="#ffe241" />
,<rect x="3" y="4" width="1" height="1" fill="#f8ca2b" />
,<rect x="3" y="5" width="1" height="1" fill="#e2b519" />
,<rect x="3" y="6" width="1" height="1" fill="#d0a31c" />
,<rect x="3" y="7" width="1" height="1" fill="#c6991d" />
,<rect x="3" y="8" width="1" height="1" fill="#dea548" />
,<rect x="3" y="9" width="1" height="1" fill="#ffffff" />
,<rect x="4" y="0" width="1" height="1" fill="#3c6016" />
,<rect x="4" y="1" width="1" height="1" fill="#caa13f" />
,<rect x="4" y="2" width="1" height="1" fill="#fff063" />
,<rect x="4" y="3" width="1" height="1" fill="#ffed57" />
,<rect x="4" y="4" width="1" height="1" fill="#fee143" />
,<rect x="4" y="5" width="1" height="1" fill="#fbd233" />
,<rect x="4" y="6" width="1" height="1" fill="#e8bc28" />
,<rect x="4" y="7" width="1" height="1" fill="#d0a624" />
,<rect x="4" y="8" width="1" height="1" fill="#b38d1c" />
,<rect x="4" y="9" width="1" height="1" fill="#ffffff" />
,<rect x="5" y="0" width="1" height="1" fill="#3e5c1f" />
,<rect x="5" y="1" width="1" height="1" fill="#d8ab4d" />
,<rect x="5" y="2" width="1" height="1" fill="#fdf07f" />
,<rect x="5" y="3" width="1" height="1" fill="#feee75" />
,<rect x="5" y="4" width="1" height="1" fill="#fee451" />
,<rect x="5" y="5" width="1" height="1" fill="#fcd437" />
,<rect x="5" y="6" width="1" height="1" fill="#efc72f" />
,<rect x="5" y="7" width="1" height="1" fill="#d7af2d" />
,<rect x="5" y="8" width="1" height="1" fill="#b08e1d" />
,<rect x="5" y="9" width="1" height="1" fill="#d0a45b" />
,<rect x="6" y="0" width="1" height="1" fill="#ffffff" />
,<rect x="6" y="1" width="1" height="1" fill="#b3ac6d" />
,<rect x="6" y="2" width="1" height="1" fill="#fde66c" />
,<rect x="6" y="3" width="1" height="1" fill="#fded7e" />
,<rect x="6" y="4" width="1" height="1" fill="#fee357" />
,<rect x="6" y="5" width="1" height="1" fill="#f8d33b" />
,<rect x="6" y="6" width="1" height="1" fill="#ecc430" />
,<rect x="6" y="7" width="1" height="1" fill="#d2aa2c" />
,<rect x="6" y="8" width="1" height="1" fill="#ad8b20" />
,<rect x="6" y="9" width="1" height="1" fill="#be913a" />
,<rect x="7" y="0" width="1" height="1" fill="#ffffff" />
,<rect x="7" y="1" width="1" height="1" fill="#ffffff" />
,<rect x="7" y="2" width="1" height="1" fill="#f1c44f" />
,<rect x="7" y="3" width="1" height="1" fill="#fce25d" />
,<rect x="7" y="4" width="1" height="1" fill="#fcde57" />
,<rect x="7" y="5" width="1" height="1" fill="#f6d042" />
,<rect x="7" y="6" width="1" height="1" fill="#e2ba2c" />
,<rect x="7" y="7" width="1" height="1" fill="#c7a022" />
,<rect x="7" y="8" width="1" height="1" fill="#a7861b" />
,<rect x="7" y="9" width="1" height="1" fill="#c0923d" />
,<rect x="8" y="0" width="1" height="1" fill="#ffffff" />
,<rect x="8" y="1" width="1" height="1" fill="#ffffff" />
,<rect x="8" y="2" width="1" height="1" fill="#ffffff" />
,<rect x="8" y="3" width="1" height="1" fill="#e2b55b" />
,<rect x="8" y="4" width="1" height="1" fill="#eec652" />
,<rect x="8" y="5" width="1" height="1" fill="#ebc447" />
,<rect x="8" y="6" width="1" height="1" fill="#d6ae30" />
,<rect x="8" y="7" width="1" height="1" fill="#bb961e" />
,<rect x="8" y="8" width="1" height="1" fill="#a4841e" />
,<rect x="8" y="9" width="1" height="1" fill="#d0a44a" />
,<rect x="9" y="0" width="1" height="1" fill="#ffffff" />
,<rect x="9" y="1" width="1" height="1" fill="#ffffff" />
,<rect x="9" y="2" width="1" height="1" fill="#ffffff" />
,<rect x="9" y="3" width="1" height="1" fill="#ffffff" />
,<rect x="9" y="4" width="1" height="1" fill="#f3d4a0" />
,<rect x="9" y="5" width="1" height="1" fill="#e3b362" />
,<rect x="9" y="6" width="1" height="1" fill="#d2a555" />
,<rect x="9" y="7" width="1" height="1" fill="#cca45e" />
,<rect x="9" y="8" width="1" height="1" fill="#cca45e" />
,<rect x="9" y="9" width="1" height="1" fill="#ffffff" />

  </g>
</svg>